<?xml version="1.0" encoding="UTF-8" standalone="no"?>
<!DOCTYPE svg PUBLIC "-//W3C//DTD SVG 1.1//EN"
 "http://www.w3.org/Graphics/SVG/1.1/DTD/svg11.dtd">
<!-- Generated by graphviz version 2.43.0 (0)
 -->
<!-- Title: src/core/arm1176jzf_s/alu.cpp Pages: 1 -->
<svg width="262pt" height="203pt"
 viewBox="0.00 0.00 262.00 203.00" xmlns="http://www.w3.org/2000/svg" xmlns:xlink="http://www.w3.org/1999/xlink">
<g id="graph0" class="graph" transform="scale(1 1) rotate(0) translate(4 199)">
<title>src/core/arm1176jzf_s/alu.cpp</title>
<!-- Node1 -->
<g id="Node000001" class="node">
<title>Node1</title>
<g id="a_Node000001"><a xlink:title="This file implements the functionality of the arithmetic logic unit (ALU).">
<polygon fill="#999999" stroke="#666666" points="181.5,-195 68.5,-195 68.5,-165 181.5,-165 181.5,-195"/>
<text text-anchor="start" x="76.5" y="-183" font-family="Helvetica,sans-Serif" font-size="10.00">src/core/arm1176jzf</text>
<text text-anchor="middle" x="125" y="-172" font-family="Helvetica,sans-Serif" font-size="10.00">_s/alu.cpp</text>
</a>
</g>
</g>
<!-- Node2 -->
<g id="Node000002" class="node">
<title>Node2</title>
<g id="a_Node000002"><a xlink:href="alu_8hpp.html" target="_top" xlink:title="This file defines the functionality of the arithmetic logic unit (ALU).">
<polygon fill="white" stroke="#666666" points="93.5,-129 40.5,-129 40.5,-110 93.5,-110 93.5,-129"/>
<text text-anchor="middle" x="67" y="-117" font-family="Helvetica,sans-Serif" font-size="10.00">alu.hpp</text>
</a>
</g>
</g>
<!-- Node1&#45;&gt;Node2 -->
<g id="edge1_Node000001_Node000002" class="edge">
<title>Node1&#45;&gt;Node2</title>
<g id="a_edge1_Node000001_Node000002"><a xlink:title=" ">
<path fill="none" stroke="#63b8ff" d="M110.96,-164.84C102.45,-156.26 91.59,-145.3 82.78,-136.42"/>
<polygon fill="#63b8ff" stroke="#63b8ff" points="85.22,-133.9 75.69,-129.27 80.25,-138.83 85.22,-133.9"/>
</a>
</g>
</g>
<!-- Node5 -->
<g id="Node000005" class="node">
<title>Node5</title>
<g id="a_Node000005"><a xlink:href="math_8hpp.html" target="_top" xlink:title="This file defines and implements a variety of handy helper functions that are used throughout the pro...">
<polygon fill="white" stroke="#666666" points="254,-129 112,-129 112,-110 254,-110 254,-129"/>
<text text-anchor="middle" x="183" y="-117" font-family="Helvetica,sans-Serif" font-size="10.00">zero_mate/utils/math.hpp</text>
</a>
</g>
</g>
<!-- Node1&#45;&gt;Node5 -->
<g id="edge4_Node000001_Node000005" class="edge">
<title>Node1&#45;&gt;Node5</title>
<g id="a_edge4_Node000001_Node000005"><a xlink:title=" ">
<path fill="none" stroke="#63b8ff" d="M139.04,-164.84C147.55,-156.26 158.41,-145.3 167.22,-136.42"/>
<polygon fill="#63b8ff" stroke="#63b8ff" points="169.75,-138.83 174.31,-129.27 164.78,-133.9 169.75,-138.83"/>
</a>
</g>
</g>
<!-- Node3 -->
<g id="Node000003" class="node">
<title>Node3</title>
<g id="a_Node000003"><a xlink:href="arm1176jzf__s_2isa_2data__processing_8hpp.html" target="_top" xlink:title="This file defines a data processing instruction.">
<polygon fill="white" stroke="#666666" points="134,-74 0,-74 0,-55 134,-55 134,-74"/>
<text text-anchor="middle" x="67" y="-62" font-family="Helvetica,sans-Serif" font-size="10.00">isa/data_processing.hpp</text>
</a>
</g>
</g>
<!-- Node2&#45;&gt;Node3 -->
<g id="edge2_Node000002_Node000003" class="edge">
<title>Node2&#45;&gt;Node3</title>
<g id="a_edge2_Node000002_Node000003"><a xlink:title=" ">
<path fill="none" stroke="#63b8ff" d="M67,-109.75C67,-102.8 67,-92.85 67,-84.13"/>
<polygon fill="#63b8ff" stroke="#63b8ff" points="70.5,-84.09 67,-74.09 63.5,-84.09 70.5,-84.09"/>
</a>
</g>
</g>
<!-- Node4 -->
<g id="Node000004" class="node">
<title>Node4</title>
<g id="a_Node000004"><a xlink:href="instruction_8hpp.html" target="_top" xlink:title="This file defines the interface of a general ARM instruction.">
<polygon fill="white" stroke="#666666" points="111.5,-19 22.5,-19 22.5,0 111.5,0 111.5,-19"/>
<text text-anchor="middle" x="67" y="-7" font-family="Helvetica,sans-Serif" font-size="10.00">instruction.hpp</text>
</a>
</g>
</g>
<!-- Node3&#45;&gt;Node4 -->
<g id="edge3_Node000003_Node000004" class="edge">
<title>Node3&#45;&gt;Node4</title>
<g id="a_edge3_Node000003_Node000004"><a xlink:title=" ">
<path fill="none" stroke="#63b8ff" d="M67,-54.75C67,-47.8 67,-37.85 67,-29.13"/>
<polygon fill="#63b8ff" stroke="#63b8ff" points="70.5,-29.09 67,-19.09 63.5,-29.09 70.5,-29.09"/>
</a>
</g>
</g>
</g>
</svg>
