<?xml version="1.0" encoding="UTF-8" standalone="no"?>
<!DOCTYPE svg PUBLIC "-//W3C//DTD SVG 1.1//EN"
 "http://www.w3.org/Graphics/SVG/1.1/DTD/svg11.dtd">
<!-- Generated by graphviz version 2.43.0 (0)
 -->
<!-- Title: src/core/arm1176jzf_s/isa/isa.hpp Pages: 1 -->
<svg width="2449pt" height="159pt"
 viewBox="0.00 0.00 2448.94 159.00" xmlns="http://www.w3.org/2000/svg" xmlns:xlink="http://www.w3.org/1999/xlink">
<g id="graph0" class="graph" transform="scale(1 1) rotate(0) translate(4 155)">
<title>src/core/arm1176jzf_s/isa/isa.hpp</title>
<!-- Node1 -->
<g id="Node000001" class="node">
<title>Node1</title>
<g id="a_Node000001"><a xlink:title="This file is just a helper file for including all ARM instructions supported by the emulator.">
<polygon fill="#999999" stroke="#666666" points="1336.44,-151 1223.44,-151 1223.44,-121 1336.44,-121 1336.44,-151"/>
<text text-anchor="start" x="1231.44" y="-139" font-family="Helvetica,sans-Serif" font-size="10.00">src/core/arm1176jzf</text>
<text text-anchor="middle" x="1279.94" y="-128" font-family="Helvetica,sans-Serif" font-size="10.00">_s/isa/isa.hpp</text>
</a>
</g>
</g>
<!-- Node2 -->
<g id="Node000002" class="node">
<title>Node2</title>
<g id="a_Node000002"><a xlink:href="instruction_8hpp.html" target="_top" xlink:title="This file defines the interface of a general ARM instruction.">
<polygon fill="white" stroke="#666666" points="1324.44,-19 1235.44,-19 1235.44,0 1324.44,0 1324.44,-19"/>
<text text-anchor="middle" x="1279.94" y="-7" font-family="Helvetica,sans-Serif" font-size="10.00">instruction.hpp</text>
</a>
</g>
</g>
<!-- Node1&#45;&gt;Node2 -->
<g id="edge1_Node000001_Node000002" class="edge">
<title>Node1&#45;&gt;Node2</title>
<g id="a_edge1_Node000001_Node000002"><a xlink:title=" ">
<path fill="none" stroke="#63b8ff" d="M1223.25,-134.94C981.82,-134.39 49.62,-129.39 6.94,-85 -2.3,-75.39 -2.32,-64.59 6.94,-55 49.82,-10.6 986.5,-9.8 1225.05,-10.32"/>
<polygon fill="#63b8ff" stroke="#63b8ff" points="1225.21,-13.82 1235.22,-10.34 1225.23,-6.82 1225.21,-13.82"/>
</a>
</g>
</g>
<!-- Node3 -->
<g id="Node000003" class="node">
<title>Node3</title>
<g id="a_Node000003"><a xlink:href="branch__and__exchange_8hpp.html" target="_top" xlink:title="This file defines a branch and exchange instruction (BX).">
<polygon fill="white" stroke="#666666" points="161.94,-79.5 15.94,-79.5 15.94,-60.5 161.94,-60.5 161.94,-79.5"/>
<text text-anchor="middle" x="88.94" y="-67.5" font-family="Helvetica,sans-Serif" font-size="10.00">branch_and_exchange.hpp</text>
</a>
</g>
</g>
<!-- Node1&#45;&gt;Node3 -->
<g id="edge2_Node000001_Node000003" class="edge">
<title>Node1&#45;&gt;Node3</title>
<g id="a_edge2_Node000001_Node000003"><a xlink:title=" ">
<path fill="none" stroke="#63b8ff" d="M1223.2,-134.92C1059.49,-134.16 572.4,-128.15 170.94,-85 161.87,-84.03 152.29,-82.68 142.99,-81.2"/>
<polygon fill="#63b8ff" stroke="#63b8ff" points="143.49,-77.74 133.06,-79.57 142.36,-84.65 143.49,-77.74"/>
</a>
</g>
</g>
<!-- Node4 -->
<g id="Node000004" class="node">
<title>Node4</title>
<g id="a_Node000004"><a xlink:href="branch_8hpp.html" target="_top" xlink:title="This file defines a branch instruction (B, BL).">
<polygon fill="white" stroke="#666666" points="251.44,-79.5 180.44,-79.5 180.44,-60.5 251.44,-60.5 251.44,-79.5"/>
<text text-anchor="middle" x="215.94" y="-67.5" font-family="Helvetica,sans-Serif" font-size="10.00">branch.hpp</text>
</a>
</g>
</g>
<!-- Node1&#45;&gt;Node4 -->
<g id="edge4_Node000001_Node000004" class="edge">
<title>Node1&#45;&gt;Node4</title>
<g id="a_edge4_Node000001_Node000004"><a xlink:title=" ">
<path fill="none" stroke="#63b8ff" d="M1223.29,-134.15C1037.4,-131.06 447.18,-118.78 259.94,-85 256.25,-84.33 252.44,-83.45 248.68,-82.44"/>
<polygon fill="#63b8ff" stroke="#63b8ff" points="249.53,-79.04 238.95,-79.56 247.54,-85.75 249.53,-79.04"/>
</a>
</g>
</g>
<!-- Node5 -->
<g id="Node000005" class="node">
<title>Node5</title>
<g id="a_Node000005"><a xlink:href="arm1176jzf__s_2isa_2data__processing_8hpp.html" target="_top" xlink:title="This file defines a data processing instruction.">
<polygon fill="white" stroke="#666666" points="386.44,-79.5 269.44,-79.5 269.44,-60.5 386.44,-60.5 386.44,-79.5"/>
<text text-anchor="middle" x="327.94" y="-67.5" font-family="Helvetica,sans-Serif" font-size="10.00">data_processing.hpp</text>
</a>
</g>
</g>
<!-- Node1&#45;&gt;Node5 -->
<g id="edge6_Node000001_Node000005" class="edge">
<title>Node1&#45;&gt;Node5</title>
<g id="a_edge6_Node000001_Node000005"><a xlink:title=" ">
<path fill="none" stroke="#63b8ff" d="M1223.24,-134.73C1082.44,-133.42 705.8,-126.02 394.94,-85 388.13,-84.1 380.99,-82.9 374,-81.57"/>
<polygon fill="#63b8ff" stroke="#63b8ff" points="374.43,-78.08 363.93,-79.55 373.05,-84.95 374.43,-78.08"/>
</a>
</g>
</g>
<!-- Node6 -->
<g id="Node000006" class="node">
<title>Node6</title>
<g id="a_Node000006"><a xlink:href="multiply_8hpp.html" target="_top" xlink:title="This file defines a multiplication instruction (MUL, MLA).">
<polygon fill="white" stroke="#666666" points="481.44,-79.5 404.44,-79.5 404.44,-60.5 481.44,-60.5 481.44,-79.5"/>
<text text-anchor="middle" x="442.94" y="-67.5" font-family="Helvetica,sans-Serif" font-size="10.00">multiply.hpp</text>
</a>
</g>
</g>
<!-- Node1&#45;&gt;Node6 -->
<g id="edge8_Node000001_Node000006" class="edge">
<title>Node1&#45;&gt;Node6</title>
<g id="a_edge8_Node000001_Node000006"><a xlink:title=" ">
<path fill="none" stroke="#63b8ff" d="M1222.99,-135.67C1092.45,-136.27 762,-132.52 490.94,-85 486.76,-84.27 482.42,-83.3 478.14,-82.22"/>
<polygon fill="#63b8ff" stroke="#63b8ff" points="478.92,-78.81 468.35,-79.54 477.07,-85.56 478.92,-78.81"/>
</a>
</g>
</g>
<!-- Node7 -->
<g id="Node000007" class="node">
<title>Node7</title>
<g id="a_Node000007"><a xlink:href="multiply__long_8hpp.html" target="_top" xlink:title="This file defines a multiplication (long) instruction.">
<polygon fill="white" stroke="#666666" points="603.94,-79.5 499.94,-79.5 499.94,-60.5 603.94,-60.5 603.94,-79.5"/>
<text text-anchor="middle" x="551.94" y="-67.5" font-family="Helvetica,sans-Serif" font-size="10.00">multiply_long.hpp</text>
</a>
</g>
</g>
<!-- Node1&#45;&gt;Node7 -->
<g id="edge10_Node000001_Node000007" class="edge">
<title>Node1&#45;&gt;Node7</title>
<g id="a_edge10_Node000001_Node000007"><a xlink:title=" ">
<path fill="none" stroke="#63b8ff" d="M1223.4,-133.63C1108.03,-130.22 837.41,-118.97 612.94,-85 607.09,-84.11 600.97,-82.97 594.96,-81.72"/>
<polygon fill="#63b8ff" stroke="#63b8ff" points="595.52,-78.26 585.01,-79.54 594.03,-85.1 595.52,-78.26"/>
</a>
</g>
</g>
<!-- Node8 -->
<g id="Node000008" class="node">
<title>Node8</title>
<g id="a_Node000008"><a xlink:href="single__data__transfer_8hpp.html" target="_top" xlink:title="This file defines single data transfer instruction (LDR, STR).">
<polygon fill="white" stroke="#666666" points="759.44,-79.5 622.44,-79.5 622.44,-60.5 759.44,-60.5 759.44,-79.5"/>
<text text-anchor="middle" x="690.94" y="-67.5" font-family="Helvetica,sans-Serif" font-size="10.00">single_data_transfer.hpp</text>
</a>
</g>
</g>
<!-- Node1&#45;&gt;Node8 -->
<g id="edge12_Node000001_Node000008" class="edge">
<title>Node1&#45;&gt;Node8</title>
<g id="a_edge12_Node000001_Node000008"><a xlink:title=" ">
<path fill="none" stroke="#63b8ff" d="M1223.43,-130.96C1129.03,-123.87 933.39,-107.77 768.94,-85 761.18,-83.93 753.01,-82.64 745,-81.28"/>
<polygon fill="#63b8ff" stroke="#63b8ff" points="745.43,-77.8 734.98,-79.54 744.23,-84.7 745.43,-77.8"/>
</a>
</g>
</g>
<!-- Node9 -->
<g id="Node000009" class="node">
<title>Node9</title>
<g id="a_Node000009"><a xlink:href="block__data__transfer_8hpp.html" target="_top" xlink:title="This file defines a block data transfer instruction (LDM, STM).">
<polygon fill="white" stroke="#666666" points="911.94,-79.5 777.94,-79.5 777.94,-60.5 911.94,-60.5 911.94,-79.5"/>
<text text-anchor="middle" x="844.94" y="-67.5" font-family="Helvetica,sans-Serif" font-size="10.00">block_data_transfer.hpp</text>
</a>
</g>
</g>
<!-- Node1&#45;&gt;Node9 -->
<g id="edge14_Node000001_Node000009" class="edge">
<title>Node1&#45;&gt;Node9</title>
<g id="a_edge14_Node000001_Node000009"><a xlink:title=" ">
<path fill="none" stroke="#63b8ff" d="M1223.24,-127.88C1152.39,-118.81 1027.48,-102.22 920.94,-85 914.09,-83.89 906.9,-82.66 899.8,-81.4"/>
<polygon fill="#63b8ff" stroke="#63b8ff" points="899.95,-77.87 889.49,-79.54 898.71,-84.76 899.95,-77.87"/>
</a>
</g>
</g>
<!-- Node10 -->
<g id="Node000010" class="node">
<title>Node10</title>
<g id="a_Node000010"><a xlink:href="halfword__data__transfer_8hpp.html" target="_top" xlink:title="This file defines a Halfword data transfer instruction.">
<polygon fill="white" stroke="#666666" points="1079.44,-79.5 930.44,-79.5 930.44,-60.5 1079.44,-60.5 1079.44,-79.5"/>
<text text-anchor="middle" x="1004.94" y="-67.5" font-family="Helvetica,sans-Serif" font-size="10.00">halfword_data_transfer.hpp</text>
</a>
</g>
</g>
<!-- Node1&#45;&gt;Node10 -->
<g id="edge16_Node000001_Node000010" class="edge">
<title>Node1&#45;&gt;Node10</title>
<g id="a_edge16_Node000001_Node000010"><a xlink:title=" ">
<path fill="none" stroke="#63b8ff" d="M1223.29,-121.82C1172.61,-110.02 1099.2,-92.94 1051.76,-81.9"/>
<polygon fill="#63b8ff" stroke="#63b8ff" points="1052.29,-78.43 1041.76,-79.57 1050.71,-85.24 1052.29,-78.43"/>
</a>
</g>
</g>
<!-- Node11 -->
<g id="Node000011" class="node">
<title>Node11</title>
<g id="a_Node000011"><a xlink:href="extend_8hpp.html" target="_top" xlink:title="This file defines an extend instruction.">
<polygon fill="white" stroke="#666666" points="1168.44,-79.5 1097.44,-79.5 1097.44,-60.5 1168.44,-60.5 1168.44,-79.5"/>
<text text-anchor="middle" x="1132.94" y="-67.5" font-family="Helvetica,sans-Serif" font-size="10.00">extend.hpp</text>
</a>
</g>
</g>
<!-- Node1&#45;&gt;Node11 -->
<g id="edge18_Node000001_Node000011" class="edge">
<title>Node1&#45;&gt;Node11</title>
<g id="a_edge18_Node000001_Node000011"><a xlink:title=" ">
<path fill="none" stroke="#63b8ff" d="M1247.68,-120.95C1222.01,-109.78 1186.43,-94.29 1161.72,-83.53"/>
<polygon fill="#63b8ff" stroke="#63b8ff" points="1163.07,-80.3 1152.5,-79.52 1160.27,-86.72 1163.07,-80.3"/>
</a>
</g>
</g>
<!-- Node12 -->
<g id="Node000012" class="node">
<title>Node12</title>
<g id="a_Node000012"><a xlink:href="psr__transfer_8hpp.html" target="_top" xlink:title="This file defines a PSR instruction (MRS, MSR).">
<polygon fill="white" stroke="#666666" points="1281.44,-79.5 1186.44,-79.5 1186.44,-60.5 1281.44,-60.5 1281.44,-79.5"/>
<text text-anchor="middle" x="1233.94" y="-67.5" font-family="Helvetica,sans-Serif" font-size="10.00">psr_transfer.hpp</text>
</a>
</g>
</g>
<!-- Node1&#45;&gt;Node12 -->
<g id="edge20_Node000001_Node000012" class="edge">
<title>Node1&#45;&gt;Node12</title>
<g id="a_edge20_Node000001_Node000012"><a xlink:title=" ">
<path fill="none" stroke="#63b8ff" d="M1269.73,-120.8C1262.77,-111.11 1253.52,-98.24 1246.17,-88.01"/>
<polygon fill="#63b8ff" stroke="#63b8ff" points="1248.98,-85.92 1240.3,-79.84 1243.29,-90.01 1248.98,-85.92"/>
</a>
</g>
</g>
<!-- Node13 -->
<g id="Node000013" class="node">
<title>Node13</title>
<g id="a_Node000013"><a xlink:href="cps_8hpp.html" target="_top" xlink:title="This file defines a change processor state instruction (CPS).">
<polygon fill="white" stroke="#666666" points="1353.94,-79.5 1299.94,-79.5 1299.94,-60.5 1353.94,-60.5 1353.94,-79.5"/>
<text text-anchor="middle" x="1326.94" y="-67.5" font-family="Helvetica,sans-Serif" font-size="10.00">cps.hpp</text>
</a>
</g>
</g>
<!-- Node1&#45;&gt;Node13 -->
<g id="edge22_Node000001_Node000013" class="edge">
<title>Node1&#45;&gt;Node13</title>
<g id="a_edge22_Node000001_Node000013"><a xlink:title=" ">
<path fill="none" stroke="#63b8ff" d="M1290.37,-120.8C1297.48,-111.11 1306.94,-98.24 1314.45,-88.01"/>
<polygon fill="#63b8ff" stroke="#63b8ff" points="1317.35,-89.98 1320.44,-79.84 1311.7,-85.83 1317.35,-89.98"/>
</a>
</g>
</g>
<!-- Node14 -->
<g id="Node000014" class="node">
<title>Node14</title>
<g id="a_Node000014"><a xlink:href="coprocessor__register__transfer_8hpp.html" target="_top" xlink:title="This file defines a coprocessor register transfer (MRC, MCR).">
<polygon fill="white" stroke="#666666" points="1489.94,-85 1371.94,-85 1371.94,-55 1489.94,-55 1489.94,-85"/>
<text text-anchor="start" x="1379.94" y="-73" font-family="Helvetica,sans-Serif" font-size="10.00">coprocessor_register</text>
<text text-anchor="middle" x="1430.94" y="-62" font-family="Helvetica,sans-Serif" font-size="10.00">_transfer.hpp</text>
</a>
</g>
</g>
<!-- Node1&#45;&gt;Node14 -->
<g id="edge24_Node000001_Node000014" class="edge">
<title>Node1&#45;&gt;Node14</title>
<g id="a_edge24_Node000001_Node000014"><a xlink:title=" ">
<path fill="none" stroke="#63b8ff" d="M1313.08,-120.95C1335.21,-111.58 1364.51,-99.16 1388.36,-89.05"/>
<polygon fill="#63b8ff" stroke="#63b8ff" points="1390.04,-92.14 1397.88,-85.01 1387.31,-85.69 1390.04,-92.14"/>
</a>
</g>
</g>
<!-- Node15 -->
<g id="Node000015" class="node">
<title>Node15</title>
<g id="a_Node000015"><a xlink:href="coprocessor__data__transfer_8hpp.html" target="_top" xlink:title="This file defines a coprocessor data transfer (LDC, STC).">
<polygon fill="white" stroke="#666666" points="1673.94,-79.5 1507.94,-79.5 1507.94,-60.5 1673.94,-60.5 1673.94,-79.5"/>
<text text-anchor="middle" x="1590.94" y="-67.5" font-family="Helvetica,sans-Serif" font-size="10.00">coprocessor_data_transfer.hpp</text>
</a>
</g>
</g>
<!-- Node1&#45;&gt;Node15 -->
<g id="edge26_Node000001_Node000015" class="edge">
<title>Node1&#45;&gt;Node15</title>
<g id="a_edge26_Node000001_Node000015"><a xlink:title=" ">
<path fill="none" stroke="#63b8ff" d="M1336.62,-123.34C1394.51,-111.42 1483.61,-93.09 1539.52,-81.58"/>
<polygon fill="#63b8ff" stroke="#63b8ff" points="1540.47,-84.96 1549.56,-79.52 1539.06,-78.1 1540.47,-84.96"/>
</a>
</g>
</g>
<!-- Node16 -->
<g id="Node000016" class="node">
<title>Node16</title>
<g id="a_Node000016"><a xlink:href="coprocessor__data__operation_8hpp.html" target="_top" xlink:title="This file defines a coprocessor data operation (CDP).">
<polygon fill="white" stroke="#666666" points="1867.44,-79.5 1692.44,-79.5 1692.44,-60.5 1867.44,-60.5 1867.44,-79.5"/>
<text text-anchor="middle" x="1779.94" y="-67.5" font-family="Helvetica,sans-Serif" font-size="10.00">coprocessor_data_operation.hpp</text>
</a>
</g>
</g>
<!-- Node1&#45;&gt;Node16 -->
<g id="edge28_Node000001_Node000016" class="edge">
<title>Node1&#45;&gt;Node16</title>
<g id="a_edge28_Node000001_Node000016"><a xlink:title=" ">
<path fill="none" stroke="#63b8ff" d="M1336.71,-128.32C1414.78,-119.05 1559.61,-101.55 1682.94,-85 1692.39,-83.73 1702.35,-82.35 1712.14,-80.96"/>
<polygon fill="#63b8ff" stroke="#63b8ff" points="1712.86,-84.39 1722.26,-79.52 1711.87,-77.46 1712.86,-84.39"/>
</a>
</g>
</g>
<!-- Node17 -->
<g id="Node000017" class="node">
<title>Node17</title>
<g id="a_Node000017"><a xlink:href="srs_8hpp.html" target="_top" xlink:title="This file defines an SRS instruction (store return state onto a stack).">
<polygon fill="white" stroke="#666666" points="1937.94,-79.5 1885.94,-79.5 1885.94,-60.5 1937.94,-60.5 1937.94,-79.5"/>
<text text-anchor="middle" x="1911.94" y="-67.5" font-family="Helvetica,sans-Serif" font-size="10.00">srs.hpp</text>
</a>
</g>
</g>
<!-- Node1&#45;&gt;Node17 -->
<g id="edge30_Node000001_Node000017" class="edge">
<title>Node1&#45;&gt;Node17</title>
<g id="a_edge30_Node000001_Node000017"><a xlink:title=" ">
<path fill="none" stroke="#63b8ff" d="M1336.78,-135.8C1443.95,-136.09 1682.59,-130.92 1876.94,-85 1879.25,-84.45 1881.61,-83.78 1883.96,-83.03"/>
<polygon fill="#63b8ff" stroke="#63b8ff" points="1885.18,-86.31 1893.38,-79.61 1882.79,-79.73 1885.18,-86.31"/>
</a>
</g>
</g>
<!-- Node18 -->
<g id="Node000018" class="node">
<title>Node18</title>
<g id="a_Node000018"><a xlink:href="rfe_8hpp.html" target="_top" xlink:title="This file defines an RFE instruction (return from exception).">
<polygon fill="white" stroke="#666666" points="2007.44,-79.5 1956.44,-79.5 1956.44,-60.5 2007.44,-60.5 2007.44,-79.5"/>
<text text-anchor="middle" x="1981.94" y="-67.5" font-family="Helvetica,sans-Serif" font-size="10.00">rfe.hpp</text>
</a>
</g>
</g>
<!-- Node1&#45;&gt;Node18 -->
<g id="edge32_Node000001_Node000018" class="edge">
<title>Node1&#45;&gt;Node18</title>
<g id="a_edge32_Node000001_Node000018"><a xlink:title=" ">
<path fill="none" stroke="#63b8ff" d="M1336.53,-132.98C1475.64,-127.65 1831.41,-111.77 1946.94,-85 1949.25,-84.46 1951.61,-83.8 1953.96,-83.05"/>
<polygon fill="#63b8ff" stroke="#63b8ff" points="1955.18,-86.33 1963.39,-79.64 1952.8,-79.75 1955.18,-86.33"/>
</a>
</g>
</g>
<!-- Node19 -->
<g id="Node000019" class="node">
<title>Node19</title>
<g id="a_Node000019"><a xlink:href="clz_8hpp.html" target="_top" xlink:title="This file defines a count leading zeros instruction (CLZ).">
<polygon fill="white" stroke="#666666" points="2076.44,-79.5 2025.44,-79.5 2025.44,-60.5 2076.44,-60.5 2076.44,-79.5"/>
<text text-anchor="middle" x="2050.94" y="-67.5" font-family="Helvetica,sans-Serif" font-size="10.00">clz.hpp</text>
</a>
</g>
</g>
<!-- Node1&#45;&gt;Node19 -->
<g id="edge34_Node000001_Node000019" class="edge">
<title>Node1&#45;&gt;Node19</title>
<g id="a_edge34_Node000001_Node000019"><a xlink:title=" ">
<path fill="none" stroke="#63b8ff" d="M1336.67,-133.51C1486.07,-129.22 1887.75,-115.14 2016.94,-85 2019.16,-84.48 2021.43,-83.83 2023.68,-83.11"/>
<polygon fill="#63b8ff" stroke="#63b8ff" points="2025.15,-86.29 2033.3,-79.53 2022.71,-79.73 2025.15,-86.29"/>
</a>
</g>
</g>
<!-- Node20 -->
<g id="Node000020" class="node">
<title>Node20</title>
<g id="a_Node000020"><a xlink:href="smulxy_8hpp.html" target="_top" xlink:title="This file defines a SMULxy instruction.">
<polygon fill="white" stroke="#666666" points="2166.94,-79.5 2094.94,-79.5 2094.94,-60.5 2166.94,-60.5 2166.94,-79.5"/>
<text text-anchor="middle" x="2130.94" y="-67.5" font-family="Helvetica,sans-Serif" font-size="10.00">smulxy.hpp</text>
</a>
</g>
</g>
<!-- Node1&#45;&gt;Node20 -->
<g id="edge36_Node000001_Node000020" class="edge">
<title>Node1&#45;&gt;Node20</title>
<g id="a_edge36_Node000001_Node000020"><a xlink:title=" ">
<path fill="none" stroke="#63b8ff" d="M1336.61,-133.25C1495.28,-128.07 1941.76,-111.5 2085.94,-85 2089.62,-84.32 2093.41,-83.44 2097.17,-82.45"/>
<polygon fill="#63b8ff" stroke="#63b8ff" points="2098.28,-85.78 2106.92,-79.64 2096.34,-79.05 2098.28,-85.78"/>
</a>
</g>
</g>
<!-- Node21 -->
<g id="Node000021" class="node">
<title>Node21</title>
<g id="a_Node000021"><a xlink:href="smulwy_8hpp.html" target="_top" xlink:title="This file implements a SMULWy instruction.">
<polygon fill="white" stroke="#666666" points="2258.94,-79.5 2184.94,-79.5 2184.94,-60.5 2258.94,-60.5 2258.94,-79.5"/>
<text text-anchor="middle" x="2221.94" y="-67.5" font-family="Helvetica,sans-Serif" font-size="10.00">smulwy.hpp</text>
</a>
</g>
</g>
<!-- Node1&#45;&gt;Node21 -->
<g id="edge38_Node000001_Node000021" class="edge">
<title>Node1&#45;&gt;Node21</title>
<g id="a_edge38_Node000001_Node000021"><a xlink:title=" ">
<path fill="none" stroke="#63b8ff" d="M1336.74,-133.61C1507.37,-129.15 2013.62,-113.8 2175.94,-85 2179.9,-84.3 2183.99,-83.37 2188.03,-82.31"/>
<polygon fill="#63b8ff" stroke="#63b8ff" points="2189.2,-85.62 2197.85,-79.52 2187.28,-78.89 2189.2,-85.62"/>
</a>
</g>
</g>
<!-- Node22 -->
<g id="Node000022" class="node">
<title>Node22</title>
<g id="a_Node000022"><a xlink:href="smlaxy_8hpp.html" target="_top" xlink:title="This file defines a SMLAxy instruction.">
<polygon fill="white" stroke="#666666" points="2348.94,-79.5 2276.94,-79.5 2276.94,-60.5 2348.94,-60.5 2348.94,-79.5"/>
<text text-anchor="middle" x="2312.94" y="-67.5" font-family="Helvetica,sans-Serif" font-size="10.00">smlaxy.hpp</text>
</a>
</g>
</g>
<!-- Node1&#45;&gt;Node22 -->
<g id="edge40_Node000001_Node000022" class="edge">
<title>Node1&#45;&gt;Node22</title>
<g id="a_edge40_Node000001_Node000022"><a xlink:title=" ">
<path fill="none" stroke="#63b8ff" d="M1336.7,-134C1518.83,-130.49 2087.12,-117.17 2267.94,-85 2271.82,-84.31 2275.83,-83.39 2279.78,-82.34"/>
<polygon fill="#63b8ff" stroke="#63b8ff" points="2280.77,-85.7 2289.39,-79.54 2278.82,-78.97 2280.77,-85.7"/>
</a>
</g>
</g>
<!-- Node23 -->
<g id="Node000023" class="node">
<title>Node23</title>
<g id="a_Node000023"><a xlink:href="smlawy_8hpp.html" target="_top" xlink:title="This file defines a SMLAWy instruction.">
<polygon fill="white" stroke="#666666" points="2440.94,-79.5 2366.94,-79.5 2366.94,-60.5 2440.94,-60.5 2440.94,-79.5"/>
<text text-anchor="middle" x="2403.94" y="-67.5" font-family="Helvetica,sans-Serif" font-size="10.00">smlawy.hpp</text>
</a>
</g>
</g>
<!-- Node1&#45;&gt;Node23 -->
<g id="edge42_Node000001_Node000023" class="edge">
<title>Node1&#45;&gt;Node23</title>
<g id="a_edge42_Node000001_Node000023"><a xlink:title=" ">
<path fill="none" stroke="#63b8ff" d="M1336.74,-134.23C1529.64,-131.32 2158.78,-119.37 2357.94,-85 2361.9,-84.32 2365.99,-83.4 2370.04,-82.35"/>
<polygon fill="#63b8ff" stroke="#63b8ff" points="2371.2,-85.66 2379.86,-79.56 2369.29,-78.92 2371.2,-85.66"/>
</a>
</g>
</g>
<!-- Node3&#45;&gt;Node2 -->
<g id="edge3_Node000003_Node000002" class="edge">
<title>Node3&#45;&gt;Node2</title>
<g id="a_edge3_Node000003_Node000002"><a xlink:title=" ">
<path fill="none" stroke="#63b8ff" d="M132.63,-60.47C144.97,-58.35 158.44,-56.31 170.94,-55 574.11,-12.67 1063.6,-9.86 1225.25,-10.2"/>
<polygon fill="#63b8ff" stroke="#63b8ff" points="1225.41,-13.7 1235.42,-10.23 1225.43,-6.7 1225.41,-13.7"/>
</a>
</g>
</g>
<!-- Node4&#45;&gt;Node2 -->
<g id="edge5_Node000004_Node000002" class="edge">
<title>Node4&#45;&gt;Node2</title>
<g id="a_edge5_Node000004_Node000002"><a xlink:title=" ">
<path fill="none" stroke="#63b8ff" d="M238.94,-60.42C245.62,-58.27 252.99,-56.23 259.94,-55 447.83,-21.62 1041.24,-12.91 1225.09,-10.99"/>
<polygon fill="#63b8ff" stroke="#63b8ff" points="1225.36,-14.48 1235.33,-10.88 1225.29,-7.48 1225.36,-14.48"/>
</a>
</g>
</g>
<!-- Node5&#45;&gt;Node2 -->
<g id="edge7_Node000005_Node000002" class="edge">
<title>Node5&#45;&gt;Node2</title>
<g id="a_edge7_Node000005_Node000002"><a xlink:title=" ">
<path fill="none" stroke="#63b8ff" d="M363.58,-60.48C373.66,-58.36 384.69,-56.32 394.94,-55 707.16,-14.78 1085.7,-10.43 1225.05,-10.3"/>
<polygon fill="#63b8ff" stroke="#63b8ff" points="1225.06,-13.8 1235.06,-10.3 1225.06,-6.8 1225.06,-13.8"/>
</a>
</g>
</g>
<!-- Node6&#45;&gt;Node2 -->
<g id="edge9_Node000006_Node000002" class="edge">
<title>Node6&#45;&gt;Node2</title>
<g id="a_edge9_Node000006_Node000002"><a xlink:title=" ">
<path fill="none" stroke="#63b8ff" d="M468.1,-60.5C475.39,-58.35 483.41,-56.29 490.94,-55 632.54,-30.68 1070.54,-16.37 1225.18,-11.97"/>
<polygon fill="#63b8ff" stroke="#63b8ff" points="1225.49,-15.46 1235.39,-11.68 1225.29,-8.46 1225.49,-15.46"/>
</a>
</g>
</g>
<!-- Node7&#45;&gt;Node2 -->
<g id="edge11_Node000007_Node000002" class="edge">
<title>Node7&#45;&gt;Node2</title>
<g id="a_edge11_Node000007_Node000002"><a xlink:title=" ">
<path fill="none" stroke="#63b8ff" d="M584.68,-60.48C593.78,-58.39 603.7,-56.36 612.94,-55 838.41,-21.82 1110.44,-13.36 1224.93,-11.22"/>
<polygon fill="#63b8ff" stroke="#63b8ff" points="1225.25,-14.71 1235.19,-11.04 1225.13,-7.71 1225.25,-14.71"/>
</a>
</g>
</g>
<!-- Node8&#45;&gt;Node2 -->
<g id="edge13_Node000008_Node000002" class="edge">
<title>Node8&#45;&gt;Node2</title>
<g id="a_edge13_Node000008_Node000002"><a xlink:title=" ">
<path fill="none" stroke="#63b8ff" d="M734.56,-60.45C745.74,-58.46 757.76,-56.49 768.94,-55 934.43,-32.99 1131.58,-19.35 1225.27,-13.63"/>
<polygon fill="#63b8ff" stroke="#63b8ff" points="1225.59,-17.11 1235.36,-13.02 1225.17,-10.13 1225.59,-17.11"/>
</a>
</g>
</g>
<!-- Node9&#45;&gt;Node2 -->
<g id="edge15_Node000009_Node000002" class="edge">
<title>Node9&#45;&gt;Node2</title>
<g id="a_edge15_Node000009_Node000002"><a xlink:title=" ">
<path fill="none" stroke="#63b8ff" d="M888.67,-60.49C899.22,-58.56 910.46,-56.61 920.94,-55 1028.47,-38.45 1154.86,-23.92 1225.34,-16.26"/>
<polygon fill="#63b8ff" stroke="#63b8ff" points="1225.76,-19.73 1235.33,-15.18 1225.01,-12.77 1225.76,-19.73"/>
</a>
</g>
</g>
<!-- Node10&#45;&gt;Node2 -->
<g id="edge17_Node000010_Node000002" class="edge">
<title>Node10&#45;&gt;Node2</title>
<g id="a_edge17_Node000010_Node000002"><a xlink:title=" ">
<path fill="none" stroke="#63b8ff" d="M1044.93,-60.49C1093.91,-50.07 1176.9,-32.42 1230.02,-21.12"/>
<polygon fill="#63b8ff" stroke="#63b8ff" points="1230.85,-24.52 1239.9,-19.02 1229.39,-17.67 1230.85,-24.52"/>
</a>
</g>
</g>
<!-- Node11&#45;&gt;Node2 -->
<g id="edge19_Node000011_Node000002" class="edge">
<title>Node11&#45;&gt;Node2</title>
<g id="a_edge19_Node000011_Node000002"><a xlink:title=" ">
<path fill="none" stroke="#63b8ff" d="M1154.32,-60.49C1179.25,-50.57 1220.66,-34.09 1249.08,-22.78"/>
<polygon fill="#63b8ff" stroke="#63b8ff" points="1250.54,-25.97 1258.54,-19.02 1247.95,-19.46 1250.54,-25.97"/>
</a>
</g>
</g>
<!-- Node12&#45;&gt;Node2 -->
<g id="edge21_Node000012_Node000002" class="edge">
<title>Node12&#45;&gt;Node2</title>
<g id="a_edge21_Node000012_Node000002"><a xlink:title=" ">
<path fill="none" stroke="#63b8ff" d="M1240.73,-60.37C1247.59,-51.64 1258.37,-37.93 1266.89,-27.09"/>
<polygon fill="#63b8ff" stroke="#63b8ff" points="1269.69,-29.19 1273.12,-19.17 1264.19,-24.86 1269.69,-29.19"/>
</a>
</g>
</g>
<!-- Node13&#45;&gt;Node2 -->
<g id="edge23_Node000013_Node000002" class="edge">
<title>Node13&#45;&gt;Node2</title>
<g id="a_edge23_Node000013_Node000002"><a xlink:title=" ">
<path fill="none" stroke="#63b8ff" d="M1320,-60.37C1312.99,-51.64 1301.98,-37.93 1293.27,-27.09"/>
<polygon fill="#63b8ff" stroke="#63b8ff" points="1295.9,-24.77 1286.9,-19.17 1290.44,-29.16 1295.9,-24.77"/>
</a>
</g>
</g>
<!-- Node14&#45;&gt;Node2 -->
<g id="edge25_Node000014_Node000002" class="edge">
<title>Node14&#45;&gt;Node2</title>
<g id="a_edge25_Node000014_Node000002"><a xlink:title=" ">
<path fill="none" stroke="#63b8ff" d="M1394.77,-54.99C1369.47,-45.18 1335.98,-32.21 1311.7,-22.81"/>
<polygon fill="#63b8ff" stroke="#63b8ff" points="1312.83,-19.49 1302.24,-19.14 1310.3,-26.02 1312.83,-19.49"/>
</a>
</g>
</g>
<!-- Node15&#45;&gt;Node2 -->
<g id="edge27_Node000015_Node000002" class="edge">
<title>Node15&#45;&gt;Node2</title>
<g id="a_edge27_Node000015_Node000002"><a xlink:title=" ">
<path fill="none" stroke="#63b8ff" d="M1545.72,-60.49C1489.74,-49.96 1394.48,-32.05 1334.5,-20.76"/>
<polygon fill="#63b8ff" stroke="#63b8ff" points="1334.94,-17.28 1324.46,-18.87 1333.64,-24.16 1334.94,-17.28"/>
</a>
</g>
</g>
<!-- Node16&#45;&gt;Node2 -->
<g id="edge29_Node000016_Node000002" class="edge">
<title>Node16&#45;&gt;Node2</title>
<g id="a_edge29_Node000016_Node000002"><a xlink:title=" ">
<path fill="none" stroke="#63b8ff" d="M1723.05,-60.47C1709.89,-58.58 1695.94,-56.65 1682.94,-55 1558.64,-39.17 1412.35,-23.84 1334.75,-15.97"/>
<polygon fill="#63b8ff" stroke="#63b8ff" points="1335.03,-12.48 1324.72,-14.95 1334.32,-19.44 1335.03,-12.48"/>
</a>
</g>
</g>
<!-- Node17&#45;&gt;Node2 -->
<g id="edge31_Node000017_Node000002" class="edge">
<title>Node17&#45;&gt;Node2</title>
<g id="a_edge31_Node000017_Node000002"><a xlink:title=" ">
<path fill="none" stroke="#63b8ff" d="M1893.39,-60.36C1888.17,-58.27 1882.42,-56.27 1876.94,-55 1774.76,-31.35 1462.63,-17.33 1335.1,-12.46"/>
<polygon fill="#63b8ff" stroke="#63b8ff" points="1334.92,-8.95 1324.79,-12.07 1334.65,-15.94 1334.92,-8.95"/>
</a>
</g>
</g>
<!-- Node18&#45;&gt;Node2 -->
<g id="edge33_Node000018_Node000002" class="edge">
<title>Node18&#45;&gt;Node2</title>
<g id="a_edge33_Node000018_Node000002"><a xlink:title=" ">
<path fill="none" stroke="#63b8ff" d="M1963.76,-60.48C1958.45,-58.33 1952.56,-56.28 1946.94,-55 1830.99,-28.64 1473.32,-15.97 1335.18,-11.96"/>
<polygon fill="#63b8ff" stroke="#63b8ff" points="1334.93,-8.45 1324.83,-11.66 1334.73,-15.45 1334.93,-8.45"/>
</a>
</g>
</g>
<!-- Node19&#45;&gt;Node2 -->
<g id="edge35_Node000019_Node000002" class="edge">
<title>Node19&#45;&gt;Node2</title>
<g id="a_edge35_Node000019_Node000002"><a xlink:title=" ">
<path fill="none" stroke="#63b8ff" d="M2033.3,-60.45C2028.14,-58.3 2022.42,-56.26 2016.94,-55 1887.15,-25.23 1482.6,-14.47 1334.75,-11.47"/>
<polygon fill="#63b8ff" stroke="#63b8ff" points="1334.63,-7.97 1324.56,-11.27 1334.49,-14.97 1334.63,-7.97"/>
</a>
</g>
</g>
<!-- Node20&#45;&gt;Node2 -->
<g id="edge37_Node000020_Node000002" class="edge">
<title>Node20&#45;&gt;Node2</title>
<g id="a_edge37_Node000020_Node000002"><a xlink:title=" ">
<path fill="none" stroke="#63b8ff" d="M2107.39,-60.48C2100.56,-58.33 2093.03,-56.28 2085.94,-55 1941.17,-28.9 1491.84,-15.68 1334.8,-11.77"/>
<polygon fill="#63b8ff" stroke="#63b8ff" points="1334.52,-8.26 1324.44,-11.51 1334.35,-15.26 1334.52,-8.26"/>
</a>
</g>
</g>
<!-- Node21&#45;&gt;Node2 -->
<g id="edge39_Node000021_Node000002" class="edge">
<title>Node21&#45;&gt;Node2</title>
<g id="a_edge39_Node000021_Node000002"><a xlink:title=" ">
<path fill="none" stroke="#63b8ff" d="M2197.86,-60.45C2190.87,-58.31 2183.18,-56.26 2175.94,-55 2012.97,-26.6 1503.51,-14.69 1334.81,-11.46"/>
<polygon fill="#63b8ff" stroke="#63b8ff" points="1334.73,-7.96 1324.67,-11.27 1334.6,-14.96 1334.73,-7.96"/>
</a>
</g>
</g>
<!-- Node22&#45;&gt;Node2 -->
<g id="edge41_Node000022_Node000002" class="edge">
<title>Node22&#45;&gt;Node2</title>
<g id="a_edge41_Node000022_Node000002"><a xlink:title=" ">
<path fill="none" stroke="#63b8ff" d="M2289.4,-60.43C2282.57,-58.28 2275.03,-56.24 2267.94,-55 2086.37,-23.21 1514.39,-13.44 1334.59,-11.12"/>
<polygon fill="#63b8ff" stroke="#63b8ff" points="1334.61,-7.62 1324.57,-10.99 1334.53,-14.62 1334.61,-7.62"/>
</a>
</g>
</g>
<!-- Node23&#45;&gt;Node2 -->
<g id="edge43_Node000023_Node000002" class="edge">
<title>Node23&#45;&gt;Node2</title>
<g id="a_edge43_Node000023_Node000002"><a xlink:title=" ">
<path fill="none" stroke="#63b8ff" d="M2379.87,-60.42C2372.88,-58.27 2365.18,-56.23 2357.94,-55 2158.03,-21.02 1525.16,-12.69 1334.69,-10.92"/>
<polygon fill="#63b8ff" stroke="#63b8ff" points="1334.67,-7.42 1324.63,-10.83 1334.6,-14.42 1334.67,-7.42"/>
</a>
</g>
</g>
</g>
</svg>
