<?xml version="1.0" encoding="UTF-8" standalone="no"?>
<!DOCTYPE svg PUBLIC "-//W3C//DTD SVG 1.1//EN"
 "http://www.w3.org/Graphics/SVG/1.1/DTD/svg11.dtd">
<!-- Generated by graphviz version 2.43.0 (0)
 -->
<!-- Title: src/core/arm1176jzf_s/isa/data_processing.hpp Pages: 1 -->
<svg width="1154pt" height="302pt"
 viewBox="0.00 0.00 1154.00 302.00" xmlns="http://www.w3.org/2000/svg" xmlns:xlink="http://www.w3.org/1999/xlink">
<g id="graph0" class="graph" transform="scale(1 1) rotate(0) translate(4 298)">
<title>src/core/arm1176jzf_s/isa/data_processing.hpp</title>
<!-- Node1 -->
<g id="Node000001" class="node">
<title>Node1</title>
<g id="a_Node000001"><a xlink:title="This file defines a data processing instruction.">
<polygon fill="#999999" stroke="#666666" points="409.5,-294 261.5,-294 261.5,-264 409.5,-264 409.5,-294"/>
<text text-anchor="start" x="269.5" y="-282" font-family="Helvetica,sans-Serif" font-size="10.00">src/core/arm1176jzf</text>
<text text-anchor="middle" x="335.5" y="-271" font-family="Helvetica,sans-Serif" font-size="10.00">_s/isa/data_processing.hpp</text>
</a>
</g>
</g>
<!-- Node2 -->
<g id="Node000002" class="node">
<title>Node2</title>
<g id="a_Node000002"><a xlink:href="alu_8hpp.html" target="_top" xlink:title="This file defines the functionality of the arithmetic logic unit (ALU).">
<polygon fill="white" stroke="#666666" points="211,-228 98,-228 98,-198 211,-198 211,-228"/>
<text text-anchor="start" x="106" y="-216" font-family="Helvetica,sans-Serif" font-size="10.00">src/core/arm1176jzf</text>
<text text-anchor="middle" x="154.5" y="-205" font-family="Helvetica,sans-Serif" font-size="10.00">_s/alu.hpp</text>
</a>
</g>
</g>
<!-- Node1&#45;&gt;Node2 -->
<g id="edge1_Node000001_Node000002" class="edge">
<title>Node1&#45;&gt;Node2</title>
<g id="a_edge1_Node000001_Node000002"><a xlink:title=" ">
<path fill="none" stroke="#63b8ff" d="M286.26,-260.59C257.32,-250.36 221.22,-237.59 194.13,-228.01"/>
<polygon fill="#63b8ff" stroke="#63b8ff" points="285.18,-263.92 295.78,-263.95 287.52,-257.32 285.18,-263.92"/>
</a>
</g>
</g>
<!-- Node5 -->
<g id="Node000005" class="node">
<title>Node5</title>
<g id="a_Node000005"><a xlink:href="arm1176jzf__s_2isa_2data__processing_8cpp.html" target="_top" xlink:title="This file implements a data processing instruction as defined in data_processing.hpp.">
<polygon fill="white" stroke="#666666" points="409,-228 262,-228 262,-198 409,-198 409,-228"/>
<text text-anchor="start" x="270" y="-216" font-family="Helvetica,sans-Serif" font-size="10.00">src/core/arm1176jzf</text>
<text text-anchor="middle" x="335.5" y="-205" font-family="Helvetica,sans-Serif" font-size="10.00">_s/isa/data_processing.cpp</text>
</a>
</g>
</g>
<!-- Node1&#45;&gt;Node5 -->
<g id="edge4_Node000001_Node000005" class="edge">
<title>Node1&#45;&gt;Node5</title>
<g id="a_edge4_Node000001_Node000005"><a xlink:title=" ">
<path fill="none" stroke="#63b8ff" d="M335.5,-253.54C335.5,-244.96 335.5,-235.61 335.5,-228.16"/>
<polygon fill="#63b8ff" stroke="#63b8ff" points="332,-253.8 335.5,-263.8 339,-253.8 332,-253.8"/>
</a>
</g>
</g>
<!-- Node6 -->
<g id="Node000006" class="node">
<title>Node6</title>
<g id="a_Node000006"><a xlink:href="arm1176jzf__s_2isa_2isa_8hpp.html" target="_top" xlink:title="This file is just a helper file for including all ARM instructions supported by the emulator.">
<polygon fill="white" stroke="#666666" points="556,-228 443,-228 443,-198 556,-198 556,-228"/>
<text text-anchor="start" x="451" y="-216" font-family="Helvetica,sans-Serif" font-size="10.00">src/core/arm1176jzf</text>
<text text-anchor="middle" x="499.5" y="-205" font-family="Helvetica,sans-Serif" font-size="10.00">_s/isa/isa.hpp</text>
</a>
</g>
</g>
<!-- Node1&#45;&gt;Node6 -->
<g id="edge5_Node000001_Node000006" class="edge">
<title>Node1&#45;&gt;Node6</title>
<g id="a_edge5_Node000001_Node000006"><a xlink:title=" ">
<path fill="none" stroke="#63b8ff" d="M381.14,-260.19C407.19,-250.02 439.37,-237.47 463.59,-228.01"/>
<polygon fill="#63b8ff" stroke="#63b8ff" points="379.53,-257.06 371.49,-263.95 382.08,-263.58 379.53,-257.06"/>
</a>
</g>
</g>
<!-- Node3 -->
<g id="Node000003" class="node">
<title>Node3</title>
<g id="a_Node000003"><a xlink:href="alu_8cpp.html" target="_top" xlink:title="This file implements the functionality of the arithmetic logic unit (ALU).">
<polygon fill="white" stroke="#666666" points="211,-162 98,-162 98,-132 211,-132 211,-162"/>
<text text-anchor="start" x="106" y="-150" font-family="Helvetica,sans-Serif" font-size="10.00">src/core/arm1176jzf</text>
<text text-anchor="middle" x="154.5" y="-139" font-family="Helvetica,sans-Serif" font-size="10.00">_s/alu.cpp</text>
</a>
</g>
</g>
<!-- Node2&#45;&gt;Node3 -->
<g id="edge2_Node000002_Node000003" class="edge">
<title>Node2&#45;&gt;Node3</title>
<g id="a_edge2_Node000002_Node000003"><a xlink:title=" ">
<path fill="none" stroke="#63b8ff" d="M154.5,-187.54C154.5,-178.96 154.5,-169.61 154.5,-162.16"/>
<polygon fill="#63b8ff" stroke="#63b8ff" points="151,-187.8 154.5,-197.8 158,-187.8 151,-187.8"/>
</a>
</g>
</g>
<!-- Node4 -->
<g id="Node000004" class="node">
<title>Node4</title>
<g id="a_Node000004"><a xlink:href="core_8cpp.html" target="_top" xlink:title="This file implements the CCPU_Core class defined in core.hpp.">
<polygon fill="white" stroke="#666666" points="113,-96 0,-96 0,-66 113,-66 113,-96"/>
<text text-anchor="start" x="8" y="-84" font-family="Helvetica,sans-Serif" font-size="10.00">src/core/arm1176jzf</text>
<text text-anchor="middle" x="56.5" y="-73" font-family="Helvetica,sans-Serif" font-size="10.00">_s/core.cpp</text>
</a>
</g>
</g>
<!-- Node2&#45;&gt;Node4 -->
<g id="edge3_Node000002_Node000004" class="edge">
<title>Node2&#45;&gt;Node4</title>
<g id="a_edge3_Node000002_Node000004"><a xlink:title=" ">
<path fill="none" stroke="#63b8ff" d="M121.24,-192.15C109.67,-183.97 97.39,-173.66 88.5,-162 73.08,-141.78 64.03,-113.14 59.69,-96.17"/>
<polygon fill="#63b8ff" stroke="#63b8ff" points="119.62,-195.28 129.87,-197.97 123.54,-189.48 119.62,-195.28"/>
</a>
</g>
</g>
<!-- Node7 -->
<g id="Node000007" class="node">
<title>Node7</title>
<g id="a_Node000007"><a xlink:href="core_8hpp.html" target="_top" xlink:title="This file defines a class that represents a CPU core (arm1176jzf_s).">
<polygon fill="white" stroke="#666666" points="560,-162 447,-162 447,-132 560,-132 560,-162"/>
<text text-anchor="start" x="455" y="-150" font-family="Helvetica,sans-Serif" font-size="10.00">src/core/arm1176jzf</text>
<text text-anchor="middle" x="503.5" y="-139" font-family="Helvetica,sans-Serif" font-size="10.00">_s/core.hpp</text>
</a>
</g>
</g>
<!-- Node6&#45;&gt;Node7 -->
<g id="edge6_Node000006_Node000007" class="edge">
<title>Node6&#45;&gt;Node7</title>
<g id="a_edge6_Node000006_Node000007"><a xlink:title=" ">
<path fill="none" stroke="#63b8ff" d="M501.03,-187.54C501.56,-178.96 502.15,-169.61 502.61,-162.16"/>
<polygon fill="#63b8ff" stroke="#63b8ff" points="497.52,-187.6 500.39,-197.8 504.5,-188.03 497.52,-187.6"/>
</a>
</g>
</g>
<!-- Node7&#45;&gt;Node4 -->
<g id="edge7_Node000007_Node000004" class="edge">
<title>Node7&#45;&gt;Node4</title>
<g id="a_edge7_Node000007_Node000004"><a xlink:title=" ">
<path fill="none" stroke="#63b8ff" d="M437,-138.97C360.59,-130.51 231.57,-115.02 121.5,-96 118.77,-95.53 115.98,-95.02 113.17,-94.49"/>
<polygon fill="#63b8ff" stroke="#63b8ff" points="436.65,-142.45 446.97,-140.07 437.41,-135.49 436.65,-142.45"/>
</a>
</g>
</g>
<!-- Node8 -->
<g id="Node000008" class="node">
<title>Node8</title>
<g id="a_Node000008"><a xlink:href="coprocessor_8cpp.html" target="_top" xlink:title="This file implements the common functionality of a general interface of a coprocessor.">
<polygon fill="white" stroke="#666666" points="840.5,-96 718.5,-96 718.5,-66 840.5,-66 840.5,-96"/>
<text text-anchor="start" x="726.5" y="-84" font-family="Helvetica,sans-Serif" font-size="10.00">src/core/coprocessors</text>
<text text-anchor="middle" x="779.5" y="-73" font-family="Helvetica,sans-Serif" font-size="10.00">/coprocessor.cpp</text>
</a>
</g>
</g>
<!-- Node7&#45;&gt;Node8 -->
<g id="edge8_Node000007_Node000008" class="edge">
<title>Node7&#45;&gt;Node8</title>
<g id="a_edge8_Node000007_Node000008"><a xlink:title=" ">
<path fill="none" stroke="#63b8ff" d="M570.03,-130.57C615.31,-120.07 674.75,-106.29 718.75,-96.09"/>
<polygon fill="#63b8ff" stroke="#63b8ff" points="568.97,-127.23 560.02,-132.89 570.55,-134.04 568.97,-127.23"/>
</a>
</g>
</g>
<!-- Node9 -->
<g id="Node000009" class="node">
<title>Node9</title>
<g id="a_Node000009"><a xlink:href="cp10_8cpp.html" target="_top" xlink:title="This file implements coprocessor CP10 (single&#45;precision FPU).">
<polygon fill="white" stroke="#666666" points="980.5,-96 858.5,-96 858.5,-66 980.5,-66 980.5,-96"/>
<text text-anchor="start" x="866.5" y="-84" font-family="Helvetica,sans-Serif" font-size="10.00">src/core/coprocessors</text>
<text text-anchor="middle" x="919.5" y="-73" font-family="Helvetica,sans-Serif" font-size="10.00">/cp10/cp10.cpp</text>
</a>
</g>
</g>
<!-- Node7&#45;&gt;Node9 -->
<g id="edge9_Node000007_Node000009" class="edge">
<title>Node7&#45;&gt;Node9</title>
<g id="a_edge9_Node000007_Node000009"><a xlink:title=" ">
<path fill="none" stroke="#63b8ff" d="M570.27,-137.44C640.07,-128.23 752.73,-112.66 849.5,-96 852.43,-95.5 855.43,-94.96 858.45,-94.41"/>
<polygon fill="#63b8ff" stroke="#63b8ff" points="569.74,-133.98 560.28,-138.75 570.66,-140.92 569.74,-133.98"/>
</a>
</g>
</g>
<!-- Node10 -->
<g id="Node000010" class="node">
<title>Node10</title>
<g id="a_Node000010"><a xlink:href="soc_8hpp.html" target="_top" xlink:title=" ">
<polygon fill="white" stroke="#666666" points="1094,-90.5 999,-90.5 999,-71.5 1094,-71.5 1094,-90.5"/>
<text text-anchor="middle" x="1046.5" y="-78.5" font-family="Helvetica,sans-Serif" font-size="10.00">src/core/soc.hpp</text>
</a>
</g>
</g>
<!-- Node7&#45;&gt;Node10 -->
<g id="edge10_Node000007_Node000010" class="edge">
<title>Node7&#45;&gt;Node10</title>
<g id="a_edge10_Node000007_Node000010"><a xlink:title=" ">
<path fill="none" stroke="#63b8ff" d="M570.58,-142.04C664.7,-135.83 841.08,-121.73 989.5,-96 997.83,-94.56 1006.75,-92.58 1015.01,-90.56"/>
<polygon fill="#63b8ff" stroke="#63b8ff" points="570.09,-138.57 560.34,-142.71 570.55,-145.55 570.09,-138.57"/>
</a>
</g>
</g>
<!-- Node14 -->
<g id="Node000014" class="node">
<title>Node14</title>
<g id="a_Node000014"><a xlink:href="control__window_8hpp.html" target="_top" xlink:title="This file defines a window that allows the user to control CPU execution.">
<polygon fill="white" stroke="#666666" points="262,-96 131,-96 131,-66 262,-66 262,-96"/>
<text text-anchor="start" x="139" y="-84" font-family="Helvetica,sans-Serif" font-size="10.00">src/gui/windows/control</text>
<text text-anchor="middle" x="196.5" y="-73" font-family="Helvetica,sans-Serif" font-size="10.00">_window.hpp</text>
</a>
</g>
</g>
<!-- Node7&#45;&gt;Node14 -->
<g id="edge14_Node000007_Node000014" class="edge">
<title>Node7&#45;&gt;Node14</title>
<g id="a_edge14_Node000007_Node000014"><a xlink:title=" ">
<path fill="none" stroke="#63b8ff" d="M436.75,-132.09C385,-121.3 313.64,-106.42 262.16,-95.69"/>
<polygon fill="#63b8ff" stroke="#63b8ff" points="436.33,-135.57 446.83,-134.19 437.76,-128.72 436.33,-135.57"/>
</a>
</g>
</g>
<!-- Node16 -->
<g id="Node000016" class="node">
<title>Node16</title>
<g id="a_Node000016"><a xlink:href="registers__window_8hpp.html" target="_top" xlink:title="This file defines a window that displays the contents of all CPU registers.">
<polygon fill="white" stroke="#666666" points="420.5,-96 280.5,-96 280.5,-66 420.5,-66 420.5,-96"/>
<text text-anchor="start" x="288.5" y="-84" font-family="Helvetica,sans-Serif" font-size="10.00">src/gui/windows/registers</text>
<text text-anchor="middle" x="350.5" y="-73" font-family="Helvetica,sans-Serif" font-size="10.00">_window.hpp</text>
</a>
</g>
</g>
<!-- Node7&#45;&gt;Node16 -->
<g id="edge17_Node000007_Node000016" class="edge">
<title>Node7&#45;&gt;Node16</title>
<g id="a_edge17_Node000007_Node000016"><a xlink:title=" ">
<path fill="none" stroke="#63b8ff" d="M460.6,-128.05C436.36,-117.91 406.5,-105.43 384,-96.01"/>
<polygon fill="#63b8ff" stroke="#63b8ff" points="459.35,-131.32 469.92,-131.95 462.05,-124.87 459.35,-131.32"/>
</a>
</g>
</g>
<!-- Node18 -->
<g id="Node000018" class="node">
<title>Node18</title>
<g id="a_Node000018"><a xlink:href="source__code__window_8hpp.html" target="_top" xlink:title="This file defines a window that displays loaded ELF files (disassembled instructions of the source co...">
<polygon fill="white" stroke="#666666" points="568.5,-96 438.5,-96 438.5,-66 568.5,-66 568.5,-96"/>
<text text-anchor="start" x="446.5" y="-84" font-family="Helvetica,sans-Serif" font-size="10.00">src/gui/windows/source</text>
<text text-anchor="middle" x="503.5" y="-73" font-family="Helvetica,sans-Serif" font-size="10.00">_code_window.hpp</text>
</a>
</g>
</g>
<!-- Node7&#45;&gt;Node18 -->
<g id="edge20_Node000007_Node000018" class="edge">
<title>Node7&#45;&gt;Node18</title>
<g id="a_edge20_Node000007_Node000018"><a xlink:title=" ">
<path fill="none" stroke="#63b8ff" d="M503.5,-121.54C503.5,-112.96 503.5,-103.61 503.5,-96.16"/>
<polygon fill="#63b8ff" stroke="#63b8ff" points="500,-121.8 503.5,-131.8 507,-121.8 500,-121.8"/>
</a>
</g>
</g>
<!-- Node20 -->
<g id="Node000020" class="node">
<title>Node20</title>
<g id="a_Node000020"><a xlink:href="top__bar__menu_8hpp.html" target="_top" xlink:title=" ">
<polygon fill="white" stroke="#666666" points="700,-96 587,-96 587,-66 700,-66 700,-96"/>
<text text-anchor="start" x="595" y="-84" font-family="Helvetica,sans-Serif" font-size="10.00">src/gui/windows/top</text>
<text text-anchor="middle" x="643.5" y="-73" font-family="Helvetica,sans-Serif" font-size="10.00">_bar_menu.hpp</text>
</a>
</g>
</g>
<!-- Node7&#45;&gt;Node20 -->
<g id="edge23_Node000007_Node000020" class="edge">
<title>Node7&#45;&gt;Node20</title>
<g id="a_edge23_Node000007_Node000020"><a xlink:title=" ">
<path fill="none" stroke="#63b8ff" d="M543.35,-127.78C565.42,-117.69 592.44,-105.34 612.85,-96.01"/>
<polygon fill="#63b8ff" stroke="#63b8ff" points="541.86,-124.61 534.22,-131.95 544.77,-130.98 541.86,-124.61"/>
</a>
</g>
</g>
<!-- Node11 -->
<g id="Node000011" class="node">
<title>Node11</title>
<g id="a_Node000011"><a xlink:href="soc_8cpp.html" target="_top" xlink:title=" ">
<polygon fill="white" stroke="#666666" points="1146,-24.5 1051,-24.5 1051,-5.5 1146,-5.5 1146,-24.5"/>
<text text-anchor="middle" x="1098.5" y="-12.5" font-family="Helvetica,sans-Serif" font-size="10.00">src/core/soc.cpp</text>
</a>
</g>
</g>
<!-- Node10&#45;&gt;Node11 -->
<g id="edge11_Node000010_Node000011" class="edge">
<title>Node10&#45;&gt;Node11</title>
<g id="a_edge11_Node000010_Node000011"><a xlink:title=" ">
<path fill="none" stroke="#63b8ff" d="M1060.1,-63.27C1070.07,-50.99 1083.23,-34.8 1091.26,-24.91"/>
<polygon fill="#63b8ff" stroke="#63b8ff" points="1057.1,-61.4 1053.51,-71.37 1062.54,-65.81 1057.1,-61.4"/>
</a>
</g>
</g>
<!-- Node12 -->
<g id="Node000012" class="node">
<title>Node12</title>
<g id="a_Node000012"><a xlink:href="gui_8cpp.html" target="_top" xlink:title="This file implements the main GUI entry function that takes care of creating and rendering all window...">
<polygon fill="white" stroke="#666666" points="674,-24.5 587,-24.5 587,-5.5 674,-5.5 674,-24.5"/>
<text text-anchor="middle" x="630.5" y="-12.5" font-family="Helvetica,sans-Serif" font-size="10.00">src/gui/gui.cpp</text>
</a>
</g>
</g>
<!-- Node10&#45;&gt;Node12 -->
<g id="edge12_Node000010_Node000012" class="edge">
<title>Node10&#45;&gt;Node12</title>
<g id="a_edge12_Node000010_Node000012"><a xlink:title=" ">
<path fill="none" stroke="#63b8ff" d="M1004.9,-69.15C999.74,-67.99 994.51,-66.91 989.5,-66 854.31,-41.57 817.41,-55.93 682.5,-30 674.88,-28.54 666.73,-26.55 659.21,-24.53"/>
<polygon fill="#63b8ff" stroke="#63b8ff" points="1004.16,-72.57 1014.69,-71.45 1005.76,-65.76 1004.16,-72.57"/>
</a>
</g>
</g>
<!-- Node13 -->
<g id="Node000013" class="node">
<title>Node13</title>
<g id="a_Node000013"><a xlink:href="main_8cpp.html" target="_top" xlink:title="This file defines and implements the main function of the application.">
<polygon fill="white" stroke="#666666" points="1033,-24.5 954,-24.5 954,-5.5 1033,-5.5 1033,-24.5"/>
<text text-anchor="middle" x="993.5" y="-12.5" font-family="Helvetica,sans-Serif" font-size="10.00">src/main.cpp</text>
</a>
</g>
</g>
<!-- Node10&#45;&gt;Node13 -->
<g id="edge13_Node000010_Node000013" class="edge">
<title>Node10&#45;&gt;Node13</title>
<g id="a_edge13_Node000010_Node000013"><a xlink:title=" ">
<path fill="none" stroke="#63b8ff" d="M1032.94,-63.62C1022.74,-51.31 1009.15,-34.89 1000.87,-24.91"/>
<polygon fill="#63b8ff" stroke="#63b8ff" points="1030.28,-65.9 1039.35,-71.37 1035.67,-61.43 1030.28,-65.9"/>
</a>
</g>
</g>
<!-- Node14&#45;&gt;Node12 -->
<g id="edge15_Node000014_Node000012" class="edge">
<title>Node14&#45;&gt;Node12</title>
<g id="a_edge15_Node000014_Node000012"><a xlink:title=" ">
<path fill="none" stroke="#63b8ff" d="M272.3,-65.96C408.63,-45.88 446.12,-54.95 577.5,-30 585.26,-28.53 593.56,-26.54 601.23,-24.52"/>
<polygon fill="#63b8ff" stroke="#63b8ff" points="271.68,-62.51 262.31,-67.46 272.72,-69.44 271.68,-62.51"/>
</a>
</g>
</g>
<!-- Node15 -->
<g id="Node000015" class="node">
<title>Node15</title>
<g id="a_Node000015"><a xlink:href="control__window_8cpp.html" target="_top" xlink:title="This file implements a window that allows the user to control CPU execution.">
<polygon fill="white" stroke="#666666" points="262,-30 131,-30 131,0 262,0 262,-30"/>
<text text-anchor="start" x="139" y="-18" font-family="Helvetica,sans-Serif" font-size="10.00">src/gui/windows/control</text>
<text text-anchor="middle" x="196.5" y="-7" font-family="Helvetica,sans-Serif" font-size="10.00">_window.cpp</text>
</a>
</g>
</g>
<!-- Node14&#45;&gt;Node15 -->
<g id="edge16_Node000014_Node000015" class="edge">
<title>Node14&#45;&gt;Node15</title>
<g id="a_edge16_Node000014_Node000015"><a xlink:title=" ">
<path fill="none" stroke="#63b8ff" d="M196.5,-55.54C196.5,-46.96 196.5,-37.61 196.5,-30.16"/>
<polygon fill="#63b8ff" stroke="#63b8ff" points="193,-55.8 196.5,-65.8 200,-55.8 193,-55.8"/>
</a>
</g>
</g>
<!-- Node16&#45;&gt;Node12 -->
<g id="edge18_Node000016_Node000012" class="edge">
<title>Node16&#45;&gt;Node12</title>
<g id="a_edge18_Node000016_Node000012"><a xlink:title=" ">
<path fill="none" stroke="#63b8ff" d="M427.76,-63.81C471.76,-54.39 527.83,-42.02 577.5,-30 584.53,-28.3 592.06,-26.37 599.17,-24.51"/>
<polygon fill="#63b8ff" stroke="#63b8ff" points="426.76,-60.45 417.71,-65.96 428.22,-67.29 426.76,-60.45"/>
</a>
</g>
</g>
<!-- Node17 -->
<g id="Node000017" class="node">
<title>Node17</title>
<g id="a_Node000017"><a xlink:href="registers__window_8cpp.html" target="_top" xlink:title="This file implements a window that displays the contents of all CPU registers.">
<polygon fill="white" stroke="#666666" points="420.5,-30 280.5,-30 280.5,0 420.5,0 420.5,-30"/>
<text text-anchor="start" x="288.5" y="-18" font-family="Helvetica,sans-Serif" font-size="10.00">src/gui/windows/registers</text>
<text text-anchor="middle" x="350.5" y="-7" font-family="Helvetica,sans-Serif" font-size="10.00">_window.cpp</text>
</a>
</g>
</g>
<!-- Node16&#45;&gt;Node17 -->
<g id="edge19_Node000016_Node000017" class="edge">
<title>Node16&#45;&gt;Node17</title>
<g id="a_edge19_Node000016_Node000017"><a xlink:title=" ">
<path fill="none" stroke="#63b8ff" d="M350.5,-55.54C350.5,-46.96 350.5,-37.61 350.5,-30.16"/>
<polygon fill="#63b8ff" stroke="#63b8ff" points="347,-55.8 350.5,-65.8 354,-55.8 347,-55.8"/>
</a>
</g>
</g>
<!-- Node18&#45;&gt;Node12 -->
<g id="edge21_Node000018_Node000012" class="edge">
<title>Node18&#45;&gt;Node12</title>
<g id="a_edge21_Node000018_Node000012"><a xlink:title=" ">
<path fill="none" stroke="#63b8ff" d="M540.61,-61.3C564.75,-49.14 595.06,-33.86 613.6,-24.52"/>
<polygon fill="#63b8ff" stroke="#63b8ff" points="538.73,-58.33 531.37,-65.95 541.88,-64.58 538.73,-58.33"/>
</a>
</g>
</g>
<!-- Node19 -->
<g id="Node000019" class="node">
<title>Node19</title>
<g id="a_Node000019"><a xlink:href="source__code__window_8cpp.html" target="_top" xlink:title="This file implements a window that displays loaded ELF files (disassembled instructions of the source...">
<polygon fill="white" stroke="#666666" points="568.5,-30 438.5,-30 438.5,0 568.5,0 568.5,-30"/>
<text text-anchor="start" x="446.5" y="-18" font-family="Helvetica,sans-Serif" font-size="10.00">src/gui/windows/source</text>
<text text-anchor="middle" x="503.5" y="-7" font-family="Helvetica,sans-Serif" font-size="10.00">_code_window.cpp</text>
</a>
</g>
</g>
<!-- Node18&#45;&gt;Node19 -->
<g id="edge22_Node000018_Node000019" class="edge">
<title>Node18&#45;&gt;Node19</title>
<g id="a_edge22_Node000018_Node000019"><a xlink:title=" ">
<path fill="none" stroke="#63b8ff" d="M503.5,-55.54C503.5,-46.96 503.5,-37.61 503.5,-30.16"/>
<polygon fill="#63b8ff" stroke="#63b8ff" points="500,-55.8 503.5,-65.8 507,-55.8 500,-55.8"/>
</a>
</g>
</g>
<!-- Node20&#45;&gt;Node12 -->
<g id="edge24_Node000020_Node000012" class="edge">
<title>Node20&#45;&gt;Node12</title>
<g id="a_edge24_Node000020_Node000012"><a xlink:title=" ">
<path fill="none" stroke="#63b8ff" d="M638.61,-55.94C636.4,-45.06 633.93,-32.86 632.3,-24.84"/>
<polygon fill="#63b8ff" stroke="#63b8ff" points="635.19,-56.69 640.61,-65.8 642.05,-55.3 635.19,-56.69"/>
</a>
</g>
</g>
<!-- Node21 -->
<g id="Node000021" class="node">
<title>Node21</title>
<g id="a_Node000021"><a xlink:href="top__bar__menu_8cpp.html" target="_top" xlink:title=" ">
<polygon fill="white" stroke="#666666" points="805,-30 692,-30 692,0 805,0 805,-30"/>
<text text-anchor="start" x="700" y="-18" font-family="Helvetica,sans-Serif" font-size="10.00">src/gui/windows/top</text>
<text text-anchor="middle" x="748.5" y="-7" font-family="Helvetica,sans-Serif" font-size="10.00">_bar_menu.cpp</text>
</a>
</g>
</g>
<!-- Node20&#45;&gt;Node21 -->
<g id="edge25_Node000020_Node000021" class="edge">
<title>Node20&#45;&gt;Node21</title>
<g id="a_edge25_Node000020_Node000021"><a xlink:title=" ">
<path fill="none" stroke="#63b8ff" d="M675.17,-60.69C691.38,-50.82 710.75,-39.01 725.51,-30.01"/>
<polygon fill="#63b8ff" stroke="#63b8ff" points="673.26,-57.76 666.54,-65.95 676.9,-63.74 673.26,-57.76"/>
</a>
</g>
</g>
</g>
</svg>
