<?xml version="1.0" encoding="UTF-8" standalone="no"?>
<!DOCTYPE svg PUBLIC "-//W3C//DTD SVG 1.1//EN"
 "http://www.w3.org/Graphics/SVG/1.1/DTD/svg11.dtd">
<!-- Generated by graphviz version 2.43.0 (0)
 -->
<!-- Title: src/core/arm1176jzf_s/isa/data_processing.hpp Pages: 1 -->
<svg width="1154pt" height="307pt"
 viewBox="0.00 0.00 1154.00 307.00" xmlns="http://www.w3.org/2000/svg" xmlns:xlink="http://www.w3.org/1999/xlink">
<g id="graph0" class="graph" transform="scale(1 1) rotate(0) translate(4 303)">
<title>src/core/arm1176jzf_s/isa/data_processing.hpp</title>
<!-- Node1 -->
<g id="node1" class="node">
<title>Node1</title>
<g id="a_node1"><a xlink:title="This file defines a data processing instruction.">
<polygon fill="#bfbfbf" stroke="black" points="261.5,-268.5 261.5,-298.5 409.5,-298.5 409.5,-268.5 261.5,-268.5"/>
<text text-anchor="start" x="269.5" y="-286.5" font-family="Helvetica,sans-Serif" font-size="10.00">src/core/arm1176jzf</text>
<text text-anchor="middle" x="335.5" y="-275.5" font-family="Helvetica,sans-Serif" font-size="10.00">_s/isa/data_processing.hpp</text>
</a>
</g>
</g>
<!-- Node2 -->
<g id="node2" class="node">
<title>Node2</title>
<g id="a_node2"><a xlink:href="alu_8hpp.html" target="_top" xlink:title="This file defines the functionality of the arithmetic logic unit (ALU).">
<polygon fill="none" stroke="black" points="98,-201.5 98,-231.5 211,-231.5 211,-201.5 98,-201.5"/>
<text text-anchor="start" x="106" y="-219.5" font-family="Helvetica,sans-Serif" font-size="10.00">src/core/arm1176jzf</text>
<text text-anchor="middle" x="154.5" y="-208.5" font-family="Helvetica,sans-Serif" font-size="10.00">_s/alu.hpp</text>
</a>
</g>
</g>
<!-- Node1&#45;&gt;Node2 -->
<g id="edge1" class="edge">
<title>Node1&#45;&gt;Node2</title>
<path fill="none" stroke="midnightblue" d="M286.64,-264.96C257.49,-254.48 220.96,-241.37 193.7,-231.58"/>
<polygon fill="midnightblue" stroke="midnightblue" points="285.63,-268.31 296.23,-268.4 288,-261.72 285.63,-268.31"/>
</g>
<!-- Node5 -->
<g id="node5" class="node">
<title>Node5</title>
<g id="a_node5"><a xlink:href="arm1176jzf__s_2isa_2data__processing_8cpp.html" target="_top" xlink:title="This file implements a data processing instruction as defined in data_processing.hpp.">
<polygon fill="none" stroke="black" points="262,-201.5 262,-231.5 409,-231.5 409,-201.5 262,-201.5"/>
<text text-anchor="start" x="270" y="-219.5" font-family="Helvetica,sans-Serif" font-size="10.00">src/core/arm1176jzf</text>
<text text-anchor="middle" x="335.5" y="-208.5" font-family="Helvetica,sans-Serif" font-size="10.00">_s/isa/data_processing.cpp</text>
</a>
</g>
</g>
<!-- Node1&#45;&gt;Node5 -->
<g id="edge4" class="edge">
<title>Node1&#45;&gt;Node5</title>
<path fill="none" stroke="midnightblue" d="M335.5,-258.11C335.5,-249.15 335.5,-239.32 335.5,-231.58"/>
<polygon fill="midnightblue" stroke="midnightblue" points="332,-258.4 335.5,-268.4 339,-258.4 332,-258.4"/>
</g>
<!-- Node6 -->
<g id="node6" class="node">
<title>Node6</title>
<g id="a_node6"><a xlink:href="arm1176jzf__s_2isa_2isa_8hpp.html" target="_top" xlink:title="This file is just a helper file for including all ARM instructions supported by the emulator.">
<polygon fill="none" stroke="black" points="443,-201.5 443,-231.5 556,-231.5 556,-201.5 443,-201.5"/>
<text text-anchor="start" x="451" y="-219.5" font-family="Helvetica,sans-Serif" font-size="10.00">src/core/arm1176jzf</text>
<text text-anchor="middle" x="499.5" y="-208.5" font-family="Helvetica,sans-Serif" font-size="10.00">_s/isa/isa.hpp</text>
</a>
</g>
</g>
<!-- Node1&#45;&gt;Node6 -->
<g id="edge5" class="edge">
<title>Node1&#45;&gt;Node6</title>
<path fill="none" stroke="midnightblue" d="M380.46,-264.68C406.76,-254.26 439.5,-241.28 463.98,-231.58"/>
<polygon fill="midnightblue" stroke="midnightblue" points="379.09,-261.46 371.09,-268.4 381.67,-267.97 379.09,-261.46"/>
</g>
<!-- Node3 -->
<g id="node3" class="node">
<title>Node3</title>
<g id="a_node3"><a xlink:href="alu_8cpp.html" target="_top" xlink:title="This file implements the functionality of the arithmetic logic unit (ALU).">
<polygon fill="none" stroke="black" points="98,-134.5 98,-164.5 211,-164.5 211,-134.5 98,-134.5"/>
<text text-anchor="start" x="106" y="-152.5" font-family="Helvetica,sans-Serif" font-size="10.00">src/core/arm1176jzf</text>
<text text-anchor="middle" x="154.5" y="-141.5" font-family="Helvetica,sans-Serif" font-size="10.00">_s/alu.cpp</text>
</a>
</g>
</g>
<!-- Node2&#45;&gt;Node3 -->
<g id="edge2" class="edge">
<title>Node2&#45;&gt;Node3</title>
<path fill="none" stroke="midnightblue" d="M154.5,-191.11C154.5,-182.15 154.5,-172.32 154.5,-164.58"/>
<polygon fill="midnightblue" stroke="midnightblue" points="151,-191.4 154.5,-201.4 158,-191.4 151,-191.4"/>
</g>
<!-- Node4 -->
<g id="node4" class="node">
<title>Node4</title>
<g id="a_node4"><a xlink:href="core_8cpp.html" target="_top" xlink:title="This file implements the CCPU_Core class defined in core.hpp.">
<polygon fill="none" stroke="black" points="0,-67.5 0,-97.5 113,-97.5 113,-67.5 0,-67.5"/>
<text text-anchor="start" x="8" y="-85.5" font-family="Helvetica,sans-Serif" font-size="10.00">src/core/arm1176jzf</text>
<text text-anchor="middle" x="56.5" y="-74.5" font-family="Helvetica,sans-Serif" font-size="10.00">_s/core.cpp</text>
</a>
</g>
</g>
<!-- Node2&#45;&gt;Node4 -->
<g id="edge3" class="edge">
<title>Node2&#45;&gt;Node4</title>
<path fill="none" stroke="midnightblue" d="M121.54,-195.66C109.88,-187.36 97.44,-176.87 88.5,-165 72.85,-144.24 63.83,-114.85 59.57,-97.62"/>
<polygon fill="midnightblue" stroke="midnightblue" points="119.6,-198.58 129.84,-201.31 123.54,-192.79 119.6,-198.58"/>
</g>
<!-- Node7 -->
<g id="node7" class="node">
<title>Node7</title>
<g id="a_node7"><a xlink:href="core_8hpp.html" target="_top" xlink:title="This file defines a class that represents a CPU core (arm1176jzf_s).">
<polygon fill="none" stroke="black" points="447,-134.5 447,-164.5 560,-164.5 560,-134.5 447,-134.5"/>
<text text-anchor="start" x="455" y="-152.5" font-family="Helvetica,sans-Serif" font-size="10.00">src/core/arm1176jzf</text>
<text text-anchor="middle" x="503.5" y="-141.5" font-family="Helvetica,sans-Serif" font-size="10.00">_s/core.hpp</text>
</a>
</g>
</g>
<!-- Node6&#45;&gt;Node7 -->
<g id="edge6" class="edge">
<title>Node6&#45;&gt;Node7</title>
<path fill="none" stroke="midnightblue" d="M500.98,-191.4C501.54,-182.37 502.15,-172.41 502.63,-164.58"/>
<polygon fill="midnightblue" stroke="midnightblue" points="497.49,-191.2 500.37,-201.4 504.48,-191.63 497.49,-191.2"/>
</g>
<!-- Node7&#45;&gt;Node4 -->
<g id="edge7" class="edge">
<title>Node7&#45;&gt;Node4</title>
<path fill="none" stroke="midnightblue" d="M436.98,-141.5C360.55,-133.05 231.5,-117.5 121.5,-98 118.77,-97.52 115.98,-96.99 113.16,-96.45"/>
<polygon fill="midnightblue" stroke="midnightblue" points="436.63,-144.99 446.95,-142.6 437.39,-138.03 436.63,-144.99"/>
</g>
<!-- Node8 -->
<g id="node8" class="node">
<title>Node8</title>
<g id="a_node8"><a xlink:href="coprocessor_8cpp.html" target="_top" xlink:title="This file implements the common functionality of a general interface of a coprocessor.">
<polygon fill="none" stroke="black" points="718.5,-67.5 718.5,-97.5 840.5,-97.5 840.5,-67.5 718.5,-67.5"/>
<text text-anchor="start" x="726.5" y="-85.5" font-family="Helvetica,sans-Serif" font-size="10.00">src/core/coprocessors</text>
<text text-anchor="middle" x="779.5" y="-74.5" font-family="Helvetica,sans-Serif" font-size="10.00">/coprocessor.cpp</text>
</a>
</g>
</g>
<!-- Node7&#45;&gt;Node8 -->
<g id="edge8" class="edge">
<title>Node7&#45;&gt;Node8</title>
<path fill="none" stroke="midnightblue" d="M569.82,-132.88C615.45,-122.14 675.56,-107.98 719.71,-97.58"/>
<polygon fill="midnightblue" stroke="midnightblue" points="568.95,-129.49 560.02,-135.19 570.55,-136.3 568.95,-129.49"/>
</g>
<!-- Node9 -->
<g id="node9" class="node">
<title>Node9</title>
<g id="a_node9"><a xlink:href="cp10_8cpp.html" target="_top" xlink:title="This file implements coprocessor CP10 (single&#45;precision FPU).">
<polygon fill="none" stroke="black" points="858.5,-67.5 858.5,-97.5 980.5,-97.5 980.5,-67.5 858.5,-67.5"/>
<text text-anchor="start" x="866.5" y="-85.5" font-family="Helvetica,sans-Serif" font-size="10.00">src/core/coprocessors</text>
<text text-anchor="middle" x="919.5" y="-74.5" font-family="Helvetica,sans-Serif" font-size="10.00">/cp10/cp10.cpp</text>
</a>
</g>
</g>
<!-- Node7&#45;&gt;Node9 -->
<g id="edge9" class="edge">
<title>Node7&#45;&gt;Node9</title>
<path fill="none" stroke="midnightblue" d="M570.29,-139.95C640.11,-130.73 752.78,-115.06 849.5,-98 852.43,-97.48 855.43,-96.93 858.46,-96.37"/>
<polygon fill="midnightblue" stroke="midnightblue" points="569.76,-136.49 560.3,-141.26 570.67,-143.43 569.76,-136.49"/>
</g>
<!-- Node10 -->
<g id="node10" class="node">
<title>Node10</title>
<g id="a_node10"><a xlink:href="soc_8hpp.html" target="_top" xlink:title=" ">
<polygon fill="none" stroke="black" points="999,-73 999,-92 1094,-92 1094,-73 999,-73"/>
<text text-anchor="middle" x="1046.5" y="-80" font-family="Helvetica,sans-Serif" font-size="10.00">src/core/soc.hpp</text>
</a>
</g>
</g>
<!-- Node7&#45;&gt;Node10 -->
<g id="edge10" class="edge">
<title>Node7&#45;&gt;Node10</title>
<path fill="none" stroke="midnightblue" d="M570.61,-144.63C664.76,-138.49 841.19,-124.43 989.5,-98 998.35,-96.42 1007.85,-94.22 1016.5,-92"/>
<polygon fill="midnightblue" stroke="midnightblue" points="570.12,-141.15 560.37,-145.28 570.57,-148.14 570.12,-141.15"/>
</g>
<!-- Node14 -->
<g id="node14" class="node">
<title>Node14</title>
<g id="a_node14"><a xlink:href="control__window_8hpp.html" target="_top" xlink:title="This file defines a window that allows the user to control CPU execution.">
<polygon fill="none" stroke="black" points="131,-67.5 131,-97.5 262,-97.5 262,-67.5 131,-67.5"/>
<text text-anchor="start" x="139" y="-85.5" font-family="Helvetica,sans-Serif" font-size="10.00">src/gui/windows/control</text>
<text text-anchor="middle" x="196.5" y="-74.5" font-family="Helvetica,sans-Serif" font-size="10.00">_window.hpp</text>
</a>
</g>
</g>
<!-- Node7&#45;&gt;Node14 -->
<g id="edge14" class="edge">
<title>Node7&#45;&gt;Node14</title>
<path fill="none" stroke="midnightblue" d="M436.75,-134.37C385,-123.41 313.64,-108.3 262.16,-97.4"/>
<polygon fill="midnightblue" stroke="midnightblue" points="436.33,-137.85 446.83,-136.5 437.78,-131.01 436.33,-137.85"/>
</g>
<!-- Node16 -->
<g id="node16" class="node">
<title>Node16</title>
<g id="a_node16"><a xlink:href="registers__window_8hpp.html" target="_top" xlink:title="This file defines a window that displays the contents of all CPU registers.">
<polygon fill="none" stroke="black" points="280.5,-67.5 280.5,-97.5 420.5,-97.5 420.5,-67.5 280.5,-67.5"/>
<text text-anchor="start" x="288.5" y="-85.5" font-family="Helvetica,sans-Serif" font-size="10.00">src/gui/windows/registers</text>
<text text-anchor="middle" x="350.5" y="-74.5" font-family="Helvetica,sans-Serif" font-size="10.00">_window.hpp</text>
</a>
</g>
</g>
<!-- Node7&#45;&gt;Node16 -->
<g id="edge17" class="edge">
<title>Node7&#45;&gt;Node16</title>
<path fill="none" stroke="midnightblue" d="M460.91,-130.41C436.48,-120.03 406.28,-107.2 383.63,-97.58"/>
<polygon fill="midnightblue" stroke="midnightblue" points="459.73,-133.71 470.3,-134.4 462.47,-127.26 459.73,-133.71"/>
</g>
<!-- Node18 -->
<g id="node18" class="node">
<title>Node18</title>
<g id="a_node18"><a xlink:href="source__code__window_8hpp.html" target="_top" xlink:title="This file defines a window that displays loaded ELF files (disassembled instructions of the source co...">
<polygon fill="none" stroke="black" points="438.5,-67.5 438.5,-97.5 568.5,-97.5 568.5,-67.5 438.5,-67.5"/>
<text text-anchor="start" x="446.5" y="-85.5" font-family="Helvetica,sans-Serif" font-size="10.00">src/gui/windows/source</text>
<text text-anchor="middle" x="503.5" y="-74.5" font-family="Helvetica,sans-Serif" font-size="10.00">_code_window.hpp</text>
</a>
</g>
</g>
<!-- Node7&#45;&gt;Node18 -->
<g id="edge20" class="edge">
<title>Node7&#45;&gt;Node18</title>
<path fill="none" stroke="midnightblue" d="M503.5,-124.11C503.5,-115.15 503.5,-105.32 503.5,-97.58"/>
<polygon fill="midnightblue" stroke="midnightblue" points="500,-124.4 503.5,-134.4 507,-124.4 500,-124.4"/>
</g>
<!-- Node20 -->
<g id="node20" class="node">
<title>Node20</title>
<g id="a_node20"><a xlink:href="top__bar__menu_8hpp.html" target="_top" xlink:title=" ">
<polygon fill="none" stroke="black" points="587,-67.5 587,-97.5 700,-97.5 700,-67.5 587,-67.5"/>
<text text-anchor="start" x="595" y="-85.5" font-family="Helvetica,sans-Serif" font-size="10.00">src/gui/windows/top</text>
<text text-anchor="middle" x="643.5" y="-74.5" font-family="Helvetica,sans-Serif" font-size="10.00">_bar_menu.hpp</text>
</a>
</g>
</g>
<!-- Node7&#45;&gt;Node20 -->
<g id="edge23" class="edge">
<title>Node7&#45;&gt;Node20</title>
<path fill="none" stroke="midnightblue" d="M543.07,-130.13C565.31,-119.8 592.65,-107.11 613.18,-97.58"/>
<polygon fill="midnightblue" stroke="midnightblue" points="541.47,-127.01 533.88,-134.4 544.42,-133.36 541.47,-127.01"/>
</g>
<!-- Node11 -->
<g id="node11" class="node">
<title>Node11</title>
<g id="a_node11"><a xlink:href="soc_8cpp.html" target="_top" xlink:title=" ">
<polygon fill="none" stroke="black" points="1051,-6 1051,-25 1146,-25 1146,-6 1051,-6"/>
<text text-anchor="middle" x="1098.5" y="-13" font-family="Helvetica,sans-Serif" font-size="10.00">src/core/soc.cpp</text>
</a>
</g>
</g>
<!-- Node10&#45;&gt;Node11 -->
<g id="edge11" class="edge">
<title>Node10&#45;&gt;Node11</title>
<path fill="none" stroke="midnightblue" d="M1059.88,-64.77C1070.02,-52.1 1083.54,-35.2 1091.6,-25.13"/>
<polygon fill="midnightblue" stroke="midnightblue" points="1057.03,-62.74 1053.51,-72.73 1062.49,-67.11 1057.03,-62.74"/>
</g>
<!-- Node12 -->
<g id="node12" class="node">
<title>Node12</title>
<g id="a_node12"><a xlink:href="gui_8cpp.html" target="_top" xlink:title="This file implements the main GUI entry function that takes care of creating and rendering all window...">
<polygon fill="none" stroke="black" points="587,-6 587,-25 674,-25 674,-6 587,-6"/>
<text text-anchor="middle" x="630.5" y="-13" font-family="Helvetica,sans-Serif" font-size="10.00">src/gui/gui.cpp</text>
</a>
</g>
</g>
<!-- Node10&#45;&gt;Node12 -->
<g id="edge12" class="edge">
<title>Node10&#45;&gt;Node12</title>
<path fill="none" stroke="midnightblue" d="M1006.28,-70.56C1000.67,-69.25 994.96,-68.01 989.5,-67 854.41,-42.01 817.29,-57.53 682.5,-31 674.5,-29.43 665.93,-27.25 658.11,-25.06"/>
<polygon fill="midnightblue" stroke="midnightblue" points="1005.65,-74.01 1016.2,-73 1007.32,-67.21 1005.65,-74.01"/>
</g>
<!-- Node13 -->
<g id="node13" class="node">
<title>Node13</title>
<g id="a_node13"><a xlink:href="main_8cpp.html" target="_top" xlink:title="This file defines and implements the main function of the application.">
<polygon fill="none" stroke="black" points="954,-6 954,-25 1033,-25 1033,-6 954,-6"/>
<text text-anchor="middle" x="993.5" y="-13" font-family="Helvetica,sans-Serif" font-size="10.00">src/main.cpp</text>
</a>
</g>
</g>
<!-- Node10&#45;&gt;Node13 -->
<g id="edge13" class="edge">
<title>Node10&#45;&gt;Node13</title>
<path fill="none" stroke="midnightblue" d="M1032.86,-64.77C1022.53,-52.1 1008.75,-35.2 1000.53,-25.13"/>
<polygon fill="midnightblue" stroke="midnightblue" points="1030.32,-67.2 1039.35,-72.73 1035.75,-62.77 1030.32,-67.2"/>
</g>
<!-- Node14&#45;&gt;Node12 -->
<g id="edge15" class="edge">
<title>Node14&#45;&gt;Node12</title>
<path fill="none" stroke="midnightblue" d="M272.29,-66.97C408.57,-46.49 446.23,-56.53 577.5,-31 585.65,-29.42 594.38,-27.23 602.35,-25.04"/>
<polygon fill="midnightblue" stroke="midnightblue" points="271.66,-63.52 262.3,-68.49 272.72,-70.44 271.66,-63.52"/>
</g>
<!-- Node15 -->
<g id="node15" class="node">
<title>Node15</title>
<g id="a_node15"><a xlink:href="control__window_8cpp.html" target="_top" xlink:title="This file implements a window that allows the user to control CPU execution.">
<polygon fill="none" stroke="black" points="131,-0.5 131,-30.5 262,-30.5 262,-0.5 131,-0.5"/>
<text text-anchor="start" x="139" y="-18.5" font-family="Helvetica,sans-Serif" font-size="10.00">src/gui/windows/control</text>
<text text-anchor="middle" x="196.5" y="-7.5" font-family="Helvetica,sans-Serif" font-size="10.00">_window.cpp</text>
</a>
</g>
</g>
<!-- Node14&#45;&gt;Node15 -->
<g id="edge16" class="edge">
<title>Node14&#45;&gt;Node15</title>
<path fill="none" stroke="midnightblue" d="M196.5,-57.11C196.5,-48.15 196.5,-38.32 196.5,-30.58"/>
<polygon fill="midnightblue" stroke="midnightblue" points="193,-57.4 196.5,-67.4 200,-57.4 193,-57.4"/>
</g>
<!-- Node16&#45;&gt;Node12 -->
<g id="edge18" class="edge">
<title>Node16&#45;&gt;Node12</title>
<path fill="none" stroke="midnightblue" d="M427.8,-65.27C471.8,-55.79 527.87,-43.3 577.5,-31 584.91,-29.16 592.86,-27.06 600.3,-25.03"/>
<polygon fill="midnightblue" stroke="midnightblue" points="426.79,-61.91 417.74,-67.43 428.26,-68.75 426.79,-61.91"/>
</g>
<!-- Node17 -->
<g id="node17" class="node">
<title>Node17</title>
<g id="a_node17"><a xlink:href="registers__window_8cpp.html" target="_top" xlink:title="This file implements a window that displays the contents of all CPU registers.">
<polygon fill="none" stroke="black" points="280.5,-0.5 280.5,-30.5 420.5,-30.5 420.5,-0.5 280.5,-0.5"/>
<text text-anchor="start" x="288.5" y="-18.5" font-family="Helvetica,sans-Serif" font-size="10.00">src/gui/windows/registers</text>
<text text-anchor="middle" x="350.5" y="-7.5" font-family="Helvetica,sans-Serif" font-size="10.00">_window.cpp</text>
</a>
</g>
</g>
<!-- Node16&#45;&gt;Node17 -->
<g id="edge19" class="edge">
<title>Node16&#45;&gt;Node17</title>
<path fill="none" stroke="midnightblue" d="M350.5,-57.11C350.5,-48.15 350.5,-38.32 350.5,-30.58"/>
<polygon fill="midnightblue" stroke="midnightblue" points="347,-57.4 350.5,-67.4 354,-57.4 347,-57.4"/>
</g>
<!-- Node18&#45;&gt;Node12 -->
<g id="edge21" class="edge">
<title>Node18&#45;&gt;Node12</title>
<path fill="none" stroke="midnightblue" d="M540.03,-62.8C564.38,-50.34 595.22,-34.56 613.88,-25.01"/>
<polygon fill="midnightblue" stroke="midnightblue" points="538.36,-59.72 531.06,-67.4 541.55,-65.96 538.36,-59.72"/>
</g>
<!-- Node19 -->
<g id="node19" class="node">
<title>Node19</title>
<g id="a_node19"><a xlink:href="source__code__window_8cpp.html" target="_top" xlink:title="This file implements a window that displays loaded ELF files (disassembled instructions of the source...">
<polygon fill="none" stroke="black" points="438.5,-0.5 438.5,-30.5 568.5,-30.5 568.5,-0.5 438.5,-0.5"/>
<text text-anchor="start" x="446.5" y="-18.5" font-family="Helvetica,sans-Serif" font-size="10.00">src/gui/windows/source</text>
<text text-anchor="middle" x="503.5" y="-7.5" font-family="Helvetica,sans-Serif" font-size="10.00">_code_window.cpp</text>
</a>
</g>
</g>
<!-- Node18&#45;&gt;Node19 -->
<g id="edge22" class="edge">
<title>Node18&#45;&gt;Node19</title>
<path fill="none" stroke="midnightblue" d="M503.5,-57.11C503.5,-48.15 503.5,-38.32 503.5,-30.58"/>
<polygon fill="midnightblue" stroke="midnightblue" points="500,-57.4 503.5,-67.4 507,-57.4 500,-57.4"/>
</g>
<!-- Node20&#45;&gt;Node12 -->
<g id="edge24" class="edge">
<title>Node20&#45;&gt;Node12</title>
<path fill="none" stroke="midnightblue" d="M638.65,-57.25C636.4,-46.02 633.88,-33.38 632.24,-25.19"/>
<polygon fill="midnightblue" stroke="midnightblue" points="635.29,-58.28 640.68,-67.4 642.15,-56.9 635.29,-58.28"/>
</g>
<!-- Node21 -->
<g id="node21" class="node">
<title>Node21</title>
<g id="a_node21"><a xlink:href="top__bar__menu_8cpp.html" target="_top" xlink:title=" ">
<polygon fill="none" stroke="black" points="692,-0.5 692,-30.5 805,-30.5 805,-0.5 692,-0.5"/>
<text text-anchor="start" x="700" y="-18.5" font-family="Helvetica,sans-Serif" font-size="10.00">src/gui/windows/top</text>
<text text-anchor="middle" x="748.5" y="-7.5" font-family="Helvetica,sans-Serif" font-size="10.00">_bar_menu.cpp</text>
</a>
</g>
</g>
<!-- Node20&#45;&gt;Node21 -->
<g id="edge25" class="edge">
<title>Node20&#45;&gt;Node21</title>
<path fill="none" stroke="midnightblue" d="M674.98,-62.02C691.32,-51.9 710.91,-39.77 725.76,-30.58"/>
<polygon fill="midnightblue" stroke="midnightblue" points="672.94,-59.16 666.28,-67.4 676.63,-65.11 672.94,-59.16"/>
</g>
</g>
</svg>
