<?xml version="1.0" encoding="UTF-8" standalone="no"?>
<!DOCTYPE svg PUBLIC "-//W3C//DTD SVG 1.1//EN"
 "http://www.w3.org/Graphics/SVG/1.1/DTD/svg11.dtd">
<!-- Generated by graphviz version 2.43.0 (0)
 -->
<!-- Title: src/core/peripherals/arm_timer.hpp Pages: 1 -->
<svg width="506pt" height="269pt"
 viewBox="0.00 0.00 505.50 269.00" xmlns="http://www.w3.org/2000/svg" xmlns:xlink="http://www.w3.org/1999/xlink">
<g id="graph0" class="graph" transform="scale(1 1) rotate(0) translate(4 265)">
<title>src/core/peripherals/arm_timer.hpp</title>
<!-- Node1 -->
<g id="Node000001" class="node">
<title>Node1</title>
<g id="a_Node000001"><a xlink:title="This file defines the ARM timer used in BCM2835.">
<polygon fill="#999999" stroke="#666666" points="333,-261 220,-261 220,-231 333,-231 333,-261"/>
<text text-anchor="start" x="228" y="-249" font-family="Helvetica,sans-Serif" font-size="10.00">src/core/peripherals</text>
<text text-anchor="middle" x="276.5" y="-238" font-family="Helvetica,sans-Serif" font-size="10.00">/arm_timer.hpp</text>
</a>
</g>
</g>
<!-- Node2 -->
<g id="Node000002" class="node">
<title>Node2</title>
<g id="a_Node000002"><a xlink:href="peripheral_8hpp.html" target="_top" xlink:title="This file defines an interface for a memory&#45;mapped peripheral.">
<polygon fill="white" stroke="#666666" points="87,-140 0,-140 0,-121 87,-121 87,-140"/>
<text text-anchor="middle" x="43.5" y="-128" font-family="Helvetica,sans-Serif" font-size="10.00">peripheral.hpp</text>
</a>
</g>
</g>
<!-- Node1&#45;&gt;Node2 -->
<g id="edge1_Node000001_Node000002" class="edge">
<title>Node1&#45;&gt;Node2</title>
<g id="a_edge1_Node000001_Node000002"><a xlink:title=" ">
<path fill="none" stroke="#63b8ff" d="M223.24,-230.97C194.86,-222.46 159.85,-210.29 130.5,-195 104.66,-181.54 78.04,-160.93 61.16,-146.87"/>
<polygon fill="#63b8ff" stroke="#63b8ff" points="63.17,-143.99 53.28,-140.19 58.65,-149.33 63.17,-143.99"/>
</a>
</g>
</g>
<!-- Node3 -->
<g id="Node000003" class="node">
<title>Node3</title>
<g id="a_Node000003"><a xlink:href="interrupt__controller_8hpp.html" target="_top" xlink:title="This file defines the interrupt controller used in BCM2835.">
<polygon fill="white" stroke="#666666" points="271,-195 140,-195 140,-176 271,-176 271,-195"/>
<text text-anchor="middle" x="205.5" y="-183" font-family="Helvetica,sans-Serif" font-size="10.00">interrupt_controller.hpp</text>
</a>
</g>
</g>
<!-- Node1&#45;&gt;Node3 -->
<g id="edge2_Node000001_Node000003" class="edge">
<title>Node1&#45;&gt;Node3</title>
<g id="a_edge2_Node000001_Node000003"><a xlink:title=" ">
<path fill="none" stroke="#63b8ff" d="M259.31,-230.84C248.69,-222.09 235.06,-210.85 224.17,-201.88"/>
<polygon fill="#63b8ff" stroke="#63b8ff" points="226.08,-198.92 216.14,-195.27 221.63,-204.33 226.08,-198.92"/>
</a>
</g>
</g>
<!-- Node5 -->
<g id="Node000005" class="node">
<title>Node5</title>
<g id="a_Node000005"><a xlink:href="logging__system_8hpp.html" target="_top" xlink:title="This file defines a logging system that is used in the project.">
<polygon fill="white" stroke="#666666" points="351,-85 220,-85 220,-55 351,-55 351,-85"/>
<text text-anchor="start" x="228" y="-73" font-family="Helvetica,sans-Serif" font-size="10.00">zero_mate/utils/logging</text>
<text text-anchor="middle" x="285.5" y="-62" font-family="Helvetica,sans-Serif" font-size="10.00">_system.hpp</text>
</a>
</g>
</g>
<!-- Node1&#45;&gt;Node5 -->
<g id="edge9_Node000001_Node000005" class="edge">
<title>Node1&#45;&gt;Node5</title>
<g id="a_edge9_Node000001_Node000005"><a xlink:title=" ">
<path fill="none" stroke="#63b8ff" d="M278.11,-230.76C280.3,-210.59 284.11,-172.54 285.5,-140 286.14,-125.13 286.15,-108.45 286.01,-95.21"/>
<polygon fill="#63b8ff" stroke="#63b8ff" points="289.5,-94.96 285.85,-85.02 282.5,-95.07 289.5,-94.96"/>
</a>
</g>
</g>
<!-- Node7 -->
<g id="Node000007" class="node">
<title>Node7</title>
<g id="a_Node000007"><a xlink:href="system__clock__listener_8hpp.html" target="_top" xlink:title="This file defines an interface for a CPU clock listener.">
<polygon fill="white" stroke="#666666" points="497.5,-195 351.5,-195 351.5,-176 497.5,-176 497.5,-195"/>
<text text-anchor="middle" x="424.5" y="-183" font-family="Helvetica,sans-Serif" font-size="10.00">system_clock_listener.hpp</text>
</a>
</g>
</g>
<!-- Node1&#45;&gt;Node7 -->
<g id="edge8_Node000001_Node000007" class="edge">
<title>Node1&#45;&gt;Node7</title>
<g id="a_edge8_Node000001_Node000007"><a xlink:title=" ">
<path fill="none" stroke="#63b8ff" d="M311.95,-230.99C336.64,-221.23 369.28,-208.33 393.05,-198.93"/>
<polygon fill="#63b8ff" stroke="#63b8ff" points="394.63,-202.07 402.64,-195.14 392.06,-195.56 394.63,-202.07"/>
</a>
</g>
</g>
<!-- Node3&#45;&gt;Node2 -->
<g id="edge3_Node000003_Node000002" class="edge">
<title>Node3&#45;&gt;Node2</title>
<g id="a_edge3_Node000003_Node000002"><a xlink:title=" ">
<path fill="none" stroke="#63b8ff" d="M179.47,-175.98C152.39,-167.13 109.79,-153.19 79.49,-143.28"/>
<polygon fill="#63b8ff" stroke="#63b8ff" points="80.32,-139.87 69.73,-140.08 78.15,-146.52 80.32,-139.87"/>
</a>
</g>
</g>
<!-- Node4 -->
<g id="Node000004" class="node">
<title>Node4</title>
<g id="a_Node000004"><a xlink:href="context_8hpp.html" target="_top" xlink:title="This file defines the context (registers) of the CPU.">
<polygon fill="white" stroke="#666666" points="257.5,-140 105.5,-140 105.5,-121 257.5,-121 257.5,-140"/>
<text text-anchor="middle" x="181.5" y="-128" font-family="Helvetica,sans-Serif" font-size="10.00">../arm1176jzf_s/context.hpp</text>
</a>
</g>
</g>
<!-- Node3&#45;&gt;Node4 -->
<g id="edge4_Node000003_Node000004" class="edge">
<title>Node3&#45;&gt;Node4</title>
<g id="a_edge4_Node000003_Node000004"><a xlink:title=" ">
<path fill="none" stroke="#63b8ff" d="M201.54,-175.75C198.29,-168.57 193.58,-158.18 189.55,-149.27"/>
<polygon fill="#63b8ff" stroke="#63b8ff" points="192.7,-147.75 185.39,-140.09 186.33,-150.64 192.7,-147.75"/>
</a>
</g>
</g>
<!-- Node3&#45;&gt;Node5 -->
<g id="edge7_Node000003_Node000005" class="edge">
<title>Node3&#45;&gt;Node5</title>
<g id="a_edge7_Node000003_Node000005"><a xlink:title=" ">
<path fill="none" stroke="#63b8ff" d="M223.02,-175.94C236.81,-168.34 255.47,-155.96 266.5,-140 275.67,-126.72 280.43,-109.15 282.89,-95.07"/>
<polygon fill="#63b8ff" stroke="#63b8ff" points="286.36,-95.51 284.36,-85.11 279.44,-94.49 286.36,-95.51"/>
</a>
</g>
</g>
<!-- Node4&#45;&gt;Node5 -->
<g id="edge5_Node000004_Node000005" class="edge">
<title>Node4&#45;&gt;Node5</title>
<g id="a_edge5_Node000004_Node000005"><a xlink:title=" ">
<path fill="none" stroke="#63b8ff" d="M196.85,-120.87C211.22,-112.78 233.19,-100.42 251.67,-90.03"/>
<polygon fill="#63b8ff" stroke="#63b8ff" points="253.41,-93.07 260.41,-85.11 249.98,-86.97 253.41,-93.07"/>
</a>
</g>
</g>
<!-- Node6 -->
<g id="Node000006" class="node">
<title>Node6</title>
<g id="a_Node000006"><a xlink:href="logger_8hpp.html" target="_top" xlink:title="This file defines a general logger interface.">
<polygon fill="white" stroke="#666666" points="319.5,-19 251.5,-19 251.5,0 319.5,0 319.5,-19"/>
<text text-anchor="middle" x="285.5" y="-7" font-family="Helvetica,sans-Serif" font-size="10.00">logger.hpp</text>
</a>
</g>
</g>
<!-- Node5&#45;&gt;Node6 -->
<g id="edge6_Node000005_Node000006" class="edge">
<title>Node5&#45;&gt;Node6</title>
<g id="a_edge6_Node000005_Node000006"><a xlink:title=" ">
<path fill="none" stroke="#63b8ff" d="M285.5,-54.84C285.5,-47.21 285.5,-37.7 285.5,-29.45"/>
<polygon fill="#63b8ff" stroke="#63b8ff" points="289,-29.27 285.5,-19.27 282,-29.27 289,-29.27"/>
</a>
</g>
</g>
</g>
</svg>
