<?xml version="1.0" encoding="UTF-8" standalone="no"?>
<!DOCTYPE svg PUBLIC "-//W3C//DTD SVG 1.1//EN"
 "http://www.w3.org/Graphics/SVG/1.1/DTD/svg11.dtd">
<!-- Generated by graphviz version 2.43.0 (0)
 -->
<!-- Title: src/core/peripherals/arm_timer.cpp Pages: 1 -->
<svg width="508pt" height="324pt"
 viewBox="0.00 0.00 508.00 324.00" xmlns="http://www.w3.org/2000/svg" xmlns:xlink="http://www.w3.org/1999/xlink">
<g id="graph0" class="graph" transform="scale(1 1) rotate(0) translate(4 320)">
<title>src/core/peripherals/arm_timer.cpp</title>
<!-- Node1 -->
<g id="Node000001" class="node">
<title>Node1</title>
<g id="a_Node000001"><a xlink:title="This file implements the ARM timer used in BCM2835 as defined in arm_timer.hpp.">
<polygon fill="#999999" stroke="#666666" points="276,-316 163,-316 163,-286 276,-286 276,-316"/>
<text text-anchor="start" x="171" y="-304" font-family="Helvetica,sans-Serif" font-size="10.00">src/core/peripherals</text>
<text text-anchor="middle" x="219.5" y="-293" font-family="Helvetica,sans-Serif" font-size="10.00">/arm_timer.cpp</text>
</a>
</g>
</g>
<!-- Node2 -->
<g id="Node000002" class="node">
<title>Node2</title>
<g id="a_Node000002"><a xlink:title=" ">
<polygon fill="#e0e0e0" stroke="#999999" points="95,-250 16,-250 16,-231 95,-231 95,-250"/>
<text text-anchor="middle" x="55.5" y="-238" font-family="Helvetica,sans-Serif" font-size="10.00">fmt/format.h</text>
</a>
</g>
</g>
<!-- Node1&#45;&gt;Node2 -->
<g id="edge1_Node000001_Node000002" class="edge">
<title>Node1&#45;&gt;Node2</title>
<g id="a_edge1_Node000001_Node000002"><a xlink:title=" ">
<path fill="none" stroke="#63b8ff" d="M180.22,-285.99C152.49,-276.1 115.72,-262.98 89.3,-253.56"/>
<polygon fill="#63b8ff" stroke="#63b8ff" points="90.31,-250.2 79.72,-250.14 87.96,-256.8 90.31,-250.2"/>
</a>
</g>
</g>
<!-- Node3 -->
<g id="Node000003" class="node">
<title>Node3</title>
<g id="a_Node000003"><a xlink:title=" ">
<polygon fill="#e0e0e0" stroke="#999999" points="214,-250 113,-250 113,-231 214,-231 214,-250"/>
<text text-anchor="middle" x="163.5" y="-238" font-family="Helvetica,sans-Serif" font-size="10.00">magic_enum.hpp</text>
</a>
</g>
</g>
<!-- Node1&#45;&gt;Node3 -->
<g id="edge2_Node000001_Node000003" class="edge">
<title>Node1&#45;&gt;Node3</title>
<g id="a_edge2_Node000001_Node000003"><a xlink:title=" ">
<path fill="none" stroke="#63b8ff" d="M205.94,-285.84C197.82,-277.35 187.45,-266.52 179,-257.69"/>
<polygon fill="#63b8ff" stroke="#63b8ff" points="181.33,-255.07 171.89,-250.27 176.28,-259.91 181.33,-255.07"/>
</a>
</g>
</g>
<!-- Node4 -->
<g id="Node000004" class="node">
<title>Node4</title>
<g id="a_Node000004"><a xlink:href="arm__timer_8hpp.html" target="_top" xlink:title="This file defines the ARM timer used in BCM2835.">
<polygon fill="white" stroke="#666666" points="320.5,-250 232.5,-250 232.5,-231 320.5,-231 320.5,-250"/>
<text text-anchor="middle" x="276.5" y="-238" font-family="Helvetica,sans-Serif" font-size="10.00">arm_timer.hpp</text>
</a>
</g>
</g>
<!-- Node1&#45;&gt;Node4 -->
<g id="edge3_Node000001_Node000004" class="edge">
<title>Node1&#45;&gt;Node4</title>
<g id="a_edge3_Node000001_Node000004"><a xlink:title=" ">
<path fill="none" stroke="#63b8ff" d="M233.3,-285.84C241.57,-277.35 252.12,-266.52 260.73,-257.69"/>
<polygon fill="#63b8ff" stroke="#63b8ff" points="263.49,-259.87 267.96,-250.27 258.47,-254.99 263.49,-259.87"/>
</a>
</g>
</g>
<!-- Node11 -->
<g id="Node000011" class="node">
<title>Node11</title>
<g id="a_Node000011"><a xlink:href="singleton_8hpp.html" target="_top" xlink:title="This file defines and implements a generic class that is used to treat other classes as singletons.">
<polygon fill="white" stroke="#666666" points="500,-250 339,-250 339,-231 500,-231 500,-250"/>
<text text-anchor="middle" x="419.5" y="-238" font-family="Helvetica,sans-Serif" font-size="10.00">zero_mate/utils/singleton.hpp</text>
</a>
</g>
</g>
<!-- Node1&#45;&gt;Node11 -->
<g id="edge13_Node000001_Node000011" class="edge">
<title>Node1&#45;&gt;Node11</title>
<g id="a_edge13_Node000001_Node000011"><a xlink:title=" ">
<path fill="none" stroke="#63b8ff" d="M267.4,-285.99C301.92,-275.89 347.92,-262.44 380.27,-252.98"/>
<polygon fill="#63b8ff" stroke="#63b8ff" points="381.64,-256.22 390.26,-250.05 379.68,-249.5 381.64,-256.22"/>
</a>
</g>
</g>
<!-- Node5 -->
<g id="Node000005" class="node">
<title>Node5</title>
<g id="a_Node000005"><a xlink:href="peripheral_8hpp.html" target="_top" xlink:title="This file defines an interface for a memory&#45;mapped peripheral.">
<polygon fill="white" stroke="#666666" points="87,-140 0,-140 0,-121 87,-121 87,-140"/>
<text text-anchor="middle" x="43.5" y="-128" font-family="Helvetica,sans-Serif" font-size="10.00">peripheral.hpp</text>
</a>
</g>
</g>
<!-- Node4&#45;&gt;Node5 -->
<g id="edge4_Node000004_Node000005" class="edge">
<title>Node4&#45;&gt;Node5</title>
<g id="a_edge4_Node000004_Node000005"><a xlink:title=" ">
<path fill="none" stroke="#63b8ff" d="M235.77,-230.96C205.69,-223.75 164.28,-211.87 130.5,-195 104.29,-181.91 77.57,-161.05 60.79,-146.84"/>
<polygon fill="#63b8ff" stroke="#63b8ff" points="62.83,-143.98 52.97,-140.1 58.25,-149.28 62.83,-143.98"/>
</a>
</g>
</g>
<!-- Node6 -->
<g id="Node000006" class="node">
<title>Node6</title>
<g id="a_Node000006"><a xlink:href="interrupt__controller_8hpp.html" target="_top" xlink:title="This file defines the interrupt controller used in BCM2835.">
<polygon fill="white" stroke="#666666" points="271,-195 140,-195 140,-176 271,-176 271,-195"/>
<text text-anchor="middle" x="205.5" y="-183" font-family="Helvetica,sans-Serif" font-size="10.00">interrupt_controller.hpp</text>
</a>
</g>
</g>
<!-- Node4&#45;&gt;Node6 -->
<g id="edge5_Node000004_Node000006" class="edge">
<title>Node4&#45;&gt;Node6</title>
<g id="a_edge5_Node000004_Node000006"><a xlink:title=" ">
<path fill="none" stroke="#63b8ff" d="M265.09,-230.98C254.39,-223 238.16,-210.88 225.34,-201.31"/>
<polygon fill="#63b8ff" stroke="#63b8ff" points="227.22,-198.35 217.11,-195.17 223.03,-203.96 227.22,-198.35"/>
</a>
</g>
</g>
<!-- Node8 -->
<g id="Node000008" class="node">
<title>Node8</title>
<g id="a_Node000008"><a xlink:href="logging__system_8hpp.html" target="_top" xlink:title="This file defines a logging system that is used in the project.">
<polygon fill="white" stroke="#666666" points="351,-85 220,-85 220,-55 351,-55 351,-85"/>
<text text-anchor="start" x="228" y="-73" font-family="Helvetica,sans-Serif" font-size="10.00">zero_mate/utils/logging</text>
<text text-anchor="middle" x="285.5" y="-62" font-family="Helvetica,sans-Serif" font-size="10.00">_system.hpp</text>
</a>
</g>
</g>
<!-- Node4&#45;&gt;Node8 -->
<g id="edge12_Node000004_Node000008" class="edge">
<title>Node4&#45;&gt;Node8</title>
<g id="a_edge12_Node000004_Node000008"><a xlink:title=" ">
<path fill="none" stroke="#63b8ff" d="M277.53,-231C279.55,-213.83 283.98,-173.79 285.5,-140 286.17,-125.13 286.19,-108.45 286.03,-95.21"/>
<polygon fill="#63b8ff" stroke="#63b8ff" points="289.53,-94.96 285.87,-85.02 282.53,-95.07 289.53,-94.96"/>
</a>
</g>
</g>
<!-- Node10 -->
<g id="Node000010" class="node">
<title>Node10</title>
<g id="a_Node000010"><a xlink:href="system__clock__listener_8hpp.html" target="_top" xlink:title="This file defines an interface for a CPU clock listener.">
<polygon fill="white" stroke="#666666" points="497.5,-195 351.5,-195 351.5,-176 497.5,-176 497.5,-195"/>
<text text-anchor="middle" x="424.5" y="-183" font-family="Helvetica,sans-Serif" font-size="10.00">system_clock_listener.hpp</text>
</a>
</g>
</g>
<!-- Node4&#45;&gt;Node10 -->
<g id="edge11_Node000004_Node000010" class="edge">
<title>Node4&#45;&gt;Node10</title>
<g id="a_edge11_Node000004_Node000010"><a xlink:title=" ">
<path fill="none" stroke="#63b8ff" d="M300.28,-230.98C324.73,-222.23 363.03,-208.51 390.65,-198.62"/>
<polygon fill="#63b8ff" stroke="#63b8ff" points="392.05,-201.84 400.29,-195.17 389.69,-195.25 392.05,-201.84"/>
</a>
</g>
</g>
<!-- Node6&#45;&gt;Node5 -->
<g id="edge6_Node000006_Node000005" class="edge">
<title>Node6&#45;&gt;Node5</title>
<g id="a_edge6_Node000006_Node000005"><a xlink:title=" ">
<path fill="none" stroke="#63b8ff" d="M179.47,-175.98C152.39,-167.13 109.79,-153.19 79.49,-143.28"/>
<polygon fill="#63b8ff" stroke="#63b8ff" points="80.32,-139.87 69.73,-140.08 78.15,-146.52 80.32,-139.87"/>
</a>
</g>
</g>
<!-- Node7 -->
<g id="Node000007" class="node">
<title>Node7</title>
<g id="a_Node000007"><a xlink:href="context_8hpp.html" target="_top" xlink:title="This file defines the context (registers) of the CPU.">
<polygon fill="white" stroke="#666666" points="257.5,-140 105.5,-140 105.5,-121 257.5,-121 257.5,-140"/>
<text text-anchor="middle" x="181.5" y="-128" font-family="Helvetica,sans-Serif" font-size="10.00">../arm1176jzf_s/context.hpp</text>
</a>
</g>
</g>
<!-- Node6&#45;&gt;Node7 -->
<g id="edge7_Node000006_Node000007" class="edge">
<title>Node6&#45;&gt;Node7</title>
<g id="a_edge7_Node000006_Node000007"><a xlink:title=" ">
<path fill="none" stroke="#63b8ff" d="M201.54,-175.75C198.29,-168.57 193.58,-158.18 189.55,-149.27"/>
<polygon fill="#63b8ff" stroke="#63b8ff" points="192.7,-147.75 185.39,-140.09 186.33,-150.64 192.7,-147.75"/>
</a>
</g>
</g>
<!-- Node6&#45;&gt;Node8 -->
<g id="edge10_Node000006_Node000008" class="edge">
<title>Node6&#45;&gt;Node8</title>
<g id="a_edge10_Node000006_Node000008"><a xlink:title=" ">
<path fill="none" stroke="#63b8ff" d="M223.02,-175.94C236.81,-168.34 255.47,-155.96 266.5,-140 275.67,-126.72 280.43,-109.15 282.89,-95.07"/>
<polygon fill="#63b8ff" stroke="#63b8ff" points="286.36,-95.51 284.36,-85.11 279.44,-94.49 286.36,-95.51"/>
</a>
</g>
</g>
<!-- Node7&#45;&gt;Node8 -->
<g id="edge8_Node000007_Node000008" class="edge">
<title>Node7&#45;&gt;Node8</title>
<g id="a_edge8_Node000007_Node000008"><a xlink:title=" ">
<path fill="none" stroke="#63b8ff" d="M196.85,-120.87C211.22,-112.78 233.19,-100.42 251.67,-90.03"/>
<polygon fill="#63b8ff" stroke="#63b8ff" points="253.41,-93.07 260.41,-85.11 249.98,-86.97 253.41,-93.07"/>
</a>
</g>
</g>
<!-- Node9 -->
<g id="Node000009" class="node">
<title>Node9</title>
<g id="a_Node000009"><a xlink:href="logger_8hpp.html" target="_top" xlink:title="This file defines a general logger interface.">
<polygon fill="white" stroke="#666666" points="319.5,-19 251.5,-19 251.5,0 319.5,0 319.5,-19"/>
<text text-anchor="middle" x="285.5" y="-7" font-family="Helvetica,sans-Serif" font-size="10.00">logger.hpp</text>
</a>
</g>
</g>
<!-- Node8&#45;&gt;Node9 -->
<g id="edge9_Node000008_Node000009" class="edge">
<title>Node8&#45;&gt;Node9</title>
<g id="a_edge9_Node000008_Node000009"><a xlink:title=" ">
<path fill="none" stroke="#63b8ff" d="M285.5,-54.84C285.5,-47.21 285.5,-37.7 285.5,-29.45"/>
<polygon fill="#63b8ff" stroke="#63b8ff" points="289,-29.27 285.5,-19.27 282,-29.27 289,-29.27"/>
</a>
</g>
</g>
</g>
</svg>
