<?xml version="1.0" encoding="UTF-8" standalone="no"?>
<!DOCTYPE svg PUBLIC "-//W3C//DTD SVG 1.1//EN"
 "http://www.w3.org/Graphics/SVG/1.1/DTD/svg11.dtd">
<!-- Generated by graphviz version 2.43.0 (0)
 -->
<!-- Title: src/gui/windows/peripherals/arm_timer_window.hpp Pages: 1 -->
<svg width="506pt" height="335pt"
 viewBox="0.00 0.00 506.00 335.00" xmlns="http://www.w3.org/2000/svg" xmlns:xlink="http://www.w3.org/1999/xlink">
<g id="graph0" class="graph" transform="scale(1 1) rotate(0) translate(4 331)">
<title>src/gui/windows/peripherals/arm_timer_window.hpp</title>
<!-- Node1 -->
<g id="Node000001" class="node">
<title>Node1</title>
<g id="a_Node000001"><a xlink:title="This file defines a window that visualizes the contents of the ARM timer registers.">
<polygon fill="#999999" stroke="#666666" points="200,-327 48,-327 48,-297 200,-297 200,-327"/>
<text text-anchor="start" x="56" y="-315" font-family="Helvetica,sans-Serif" font-size="10.00">src/gui/windows/peripherals</text>
<text text-anchor="middle" x="124" y="-304" font-family="Helvetica,sans-Serif" font-size="10.00">/arm_timer_window.hpp</text>
</a>
</g>
</g>
<!-- Node2 -->
<g id="Node000002" class="node">
<title>Node2</title>
<g id="a_Node000002"><a xlink:href="window_8hpp.html" target="_top" xlink:title="This file defines an interface for all windows that will be rendered by the application.">
<polygon fill="white" stroke="#666666" points="108,-255.5 16,-255.5 16,-236.5 108,-236.5 108,-255.5"/>
<text text-anchor="middle" x="62" y="-243.5" font-family="Helvetica,sans-Serif" font-size="10.00">../../window.hpp</text>
</a>
</g>
</g>
<!-- Node1&#45;&gt;Node2 -->
<g id="edge1_Node000001_Node000002" class="edge">
<title>Node1&#45;&gt;Node2</title>
<g id="a_edge1_Node000001_Node000002"><a xlink:title=" ">
<path fill="none" stroke="#63b8ff" d="M110.24,-296.8C100.57,-286.82 87.63,-273.46 77.58,-263.09"/>
<polygon fill="#63b8ff" stroke="#63b8ff" points="80.04,-260.59 70.57,-255.84 75.01,-265.46 80.04,-260.59"/>
</a>
</g>
</g>
<!-- Node4 -->
<g id="Node000004" class="node">
<title>Node4</title>
<g id="a_Node000004"><a xlink:href="arm__timer_8hpp.html" target="_top" xlink:title="This file defines the ARM timer used in BCM2835.">
<polygon fill="white" stroke="#666666" points="267,-261 145,-261 145,-231 267,-231 267,-261"/>
<text text-anchor="start" x="153" y="-249" font-family="Helvetica,sans-Serif" font-size="10.00">../../../core/peripherals</text>
<text text-anchor="middle" x="206" y="-238" font-family="Helvetica,sans-Serif" font-size="10.00">/arm_timer.hpp</text>
</a>
</g>
</g>
<!-- Node1&#45;&gt;Node4 -->
<g id="edge3_Node000001_Node000004" class="edge">
<title>Node1&#45;&gt;Node4</title>
<g id="a_edge3_Node000001_Node000004"><a xlink:title=" ">
<path fill="none" stroke="#63b8ff" d="M142.2,-296.8C153.24,-288.18 167.51,-277.04 179.76,-267.48"/>
<polygon fill="#63b8ff" stroke="#63b8ff" points="182.12,-270.08 187.85,-261.16 177.82,-264.56 182.12,-270.08"/>
</a>
</g>
</g>
<!-- Node3 -->
<g id="Node000003" class="node">
<title>Node3</title>
<g id="a_Node000003"><a xlink:title=" ">
<polygon fill="#e0e0e0" stroke="#999999" points="84,-195 0,-195 0,-176 84,-176 84,-195"/>
<text text-anchor="middle" x="42" y="-183" font-family="Helvetica,sans-Serif" font-size="10.00">imgui/imgui.h</text>
</a>
</g>
</g>
<!-- Node2&#45;&gt;Node3 -->
<g id="edge2_Node000002_Node000003" class="edge">
<title>Node2&#45;&gt;Node3</title>
<g id="a_edge2_Node000002_Node000003"><a xlink:title=" ">
<path fill="none" stroke="#63b8ff" d="M59.05,-236.37C56.21,-228.07 51.84,-215.28 48.23,-204.72"/>
<polygon fill="#63b8ff" stroke="#63b8ff" points="51.51,-203.5 44.96,-195.17 44.89,-205.76 51.51,-203.5"/>
</a>
</g>
</g>
<!-- Node5 -->
<g id="Node000005" class="node">
<title>Node5</title>
<g id="a_Node000005"><a xlink:href="peripheral_8hpp.html" target="_top" xlink:title="This file defines an interface for a memory&#45;mapped peripheral.">
<polygon fill="white" stroke="#666666" points="87.5,-140 0.5,-140 0.5,-121 87.5,-121 87.5,-140"/>
<text text-anchor="middle" x="44" y="-128" font-family="Helvetica,sans-Serif" font-size="10.00">peripheral.hpp</text>
</a>
</g>
</g>
<!-- Node4&#45;&gt;Node5 -->
<g id="edge4_Node000004_Node000005" class="edge">
<title>Node4&#45;&gt;Node5</title>
<g id="a_edge4_Node000004_Node000005"><a xlink:title=" ">
<path fill="none" stroke="#63b8ff" d="M184.17,-230.8C169.12,-220.92 148.71,-207.36 131,-195 107.62,-178.69 81.24,-159.29 63.72,-146.26"/>
<polygon fill="#63b8ff" stroke="#63b8ff" points="65.54,-143.25 55.43,-140.08 61.35,-148.86 65.54,-143.25"/>
</a>
</g>
</g>
<!-- Node6 -->
<g id="Node000006" class="node">
<title>Node6</title>
<g id="a_Node000006"><a xlink:href="interrupt__controller_8hpp.html" target="_top" xlink:title="This file defines the interrupt controller used in BCM2835.">
<polygon fill="white" stroke="#666666" points="271.5,-195 140.5,-195 140.5,-176 271.5,-176 271.5,-195"/>
<text text-anchor="middle" x="206" y="-183" font-family="Helvetica,sans-Serif" font-size="10.00">interrupt_controller.hpp</text>
</a>
</g>
</g>
<!-- Node4&#45;&gt;Node6 -->
<g id="edge5_Node000004_Node000006" class="edge">
<title>Node4&#45;&gt;Node6</title>
<g id="a_edge5_Node000004_Node000006"><a xlink:title=" ">
<path fill="none" stroke="#63b8ff" d="M206,-230.84C206,-223.21 206,-213.7 206,-205.45"/>
<polygon fill="#63b8ff" stroke="#63b8ff" points="209.5,-205.27 206,-195.27 202.5,-205.27 209.5,-205.27"/>
</a>
</g>
</g>
<!-- Node8 -->
<g id="Node000008" class="node">
<title>Node8</title>
<g id="a_Node000008"><a xlink:href="logging__system_8hpp.html" target="_top" xlink:title="This file defines a logging system that is used in the project.">
<polygon fill="white" stroke="#666666" points="351.5,-85 220.5,-85 220.5,-55 351.5,-55 351.5,-85"/>
<text text-anchor="start" x="228.5" y="-73" font-family="Helvetica,sans-Serif" font-size="10.00">zero_mate/utils/logging</text>
<text text-anchor="middle" x="286" y="-62" font-family="Helvetica,sans-Serif" font-size="10.00">_system.hpp</text>
</a>
</g>
</g>
<!-- Node4&#45;&gt;Node8 -->
<g id="edge12_Node000004_Node000008" class="edge">
<title>Node4&#45;&gt;Node8</title>
<g id="a_edge12_Node000004_Node000008"><a xlink:title=" ">
<path fill="none" stroke="#63b8ff" d="M238.71,-230.94C253.81,-222.72 270.47,-210.8 280,-195 298.39,-164.5 295.54,-121.72 291.21,-95.21"/>
<polygon fill="#63b8ff" stroke="#63b8ff" points="294.63,-94.46 289.38,-85.25 287.74,-95.72 294.63,-94.46"/>
</a>
</g>
</g>
<!-- Node10 -->
<g id="Node000010" class="node">
<title>Node10</title>
<g id="a_Node000010"><a xlink:href="system__clock__listener_8hpp.html" target="_top" xlink:title="This file defines an interface for a CPU clock listener.">
<polygon fill="white" stroke="#666666" points="498,-195 352,-195 352,-176 498,-176 498,-195"/>
<text text-anchor="middle" x="425" y="-183" font-family="Helvetica,sans-Serif" font-size="10.00">system_clock_listener.hpp</text>
</a>
</g>
</g>
<!-- Node4&#45;&gt;Node10 -->
<g id="edge11_Node000004_Node000010" class="edge">
<title>Node4&#45;&gt;Node10</title>
<g id="a_edge11_Node000004_Node000010"><a xlink:title=" ">
<path fill="none" stroke="#63b8ff" d="M258.46,-230.99C296.58,-220.8 347.5,-207.2 382.96,-197.73"/>
<polygon fill="#63b8ff" stroke="#63b8ff" points="384.22,-201.02 392.98,-195.05 382.41,-194.25 384.22,-201.02"/>
</a>
</g>
</g>
<!-- Node6&#45;&gt;Node5 -->
<g id="edge6_Node000006_Node000005" class="edge">
<title>Node6&#45;&gt;Node5</title>
<g id="a_edge6_Node000006_Node000005"><a xlink:title=" ">
<path fill="none" stroke="#63b8ff" d="M179.97,-175.98C152.89,-167.13 110.29,-153.19 79.99,-143.28"/>
<polygon fill="#63b8ff" stroke="#63b8ff" points="80.82,-139.87 70.23,-140.08 78.65,-146.52 80.82,-139.87"/>
</a>
</g>
</g>
<!-- Node7 -->
<g id="Node000007" class="node">
<title>Node7</title>
<g id="a_Node000007"><a xlink:href="context_8hpp.html" target="_top" xlink:title="This file defines the context (registers) of the CPU.">
<polygon fill="white" stroke="#666666" points="258,-140 106,-140 106,-121 258,-121 258,-140"/>
<text text-anchor="middle" x="182" y="-128" font-family="Helvetica,sans-Serif" font-size="10.00">../arm1176jzf_s/context.hpp</text>
</a>
</g>
</g>
<!-- Node6&#45;&gt;Node7 -->
<g id="edge7_Node000006_Node000007" class="edge">
<title>Node6&#45;&gt;Node7</title>
<g id="a_edge7_Node000006_Node000007"><a xlink:title=" ">
<path fill="none" stroke="#63b8ff" d="M202.04,-175.75C198.79,-168.57 194.08,-158.18 190.05,-149.27"/>
<polygon fill="#63b8ff" stroke="#63b8ff" points="193.2,-147.75 185.89,-140.09 186.83,-150.64 193.2,-147.75"/>
</a>
</g>
</g>
<!-- Node6&#45;&gt;Node8 -->
<g id="edge10_Node000006_Node000008" class="edge">
<title>Node6&#45;&gt;Node8</title>
<g id="a_edge10_Node000006_Node000008"><a xlink:title=" ">
<path fill="none" stroke="#63b8ff" d="M223.52,-175.94C237.31,-168.34 255.97,-155.96 267,-140 276.17,-126.72 280.93,-109.15 283.39,-95.07"/>
<polygon fill="#63b8ff" stroke="#63b8ff" points="286.86,-95.51 284.86,-85.11 279.94,-94.49 286.86,-95.51"/>
</a>
</g>
</g>
<!-- Node7&#45;&gt;Node8 -->
<g id="edge8_Node000007_Node000008" class="edge">
<title>Node7&#45;&gt;Node8</title>
<g id="a_edge8_Node000007_Node000008"><a xlink:title=" ">
<path fill="none" stroke="#63b8ff" d="M197.35,-120.87C211.72,-112.78 233.69,-100.42 252.17,-90.03"/>
<polygon fill="#63b8ff" stroke="#63b8ff" points="253.91,-93.07 260.91,-85.11 250.48,-86.97 253.91,-93.07"/>
</a>
</g>
</g>
<!-- Node9 -->
<g id="Node000009" class="node">
<title>Node9</title>
<g id="a_Node000009"><a xlink:href="logger_8hpp.html" target="_top" xlink:title="This file defines a general logger interface.">
<polygon fill="white" stroke="#666666" points="320,-19 252,-19 252,0 320,0 320,-19"/>
<text text-anchor="middle" x="286" y="-7" font-family="Helvetica,sans-Serif" font-size="10.00">logger.hpp</text>
</a>
</g>
</g>
<!-- Node8&#45;&gt;Node9 -->
<g id="edge9_Node000008_Node000009" class="edge">
<title>Node8&#45;&gt;Node9</title>
<g id="a_edge9_Node000008_Node000009"><a xlink:title=" ">
<path fill="none" stroke="#63b8ff" d="M286,-54.84C286,-47.21 286,-37.7 286,-29.45"/>
<polygon fill="#63b8ff" stroke="#63b8ff" points="289.5,-29.27 286,-19.27 282.5,-29.27 289.5,-29.27"/>
</a>
</g>
</g>
</g>
</svg>
