<?xml version="1.0" encoding="UTF-8" standalone="no"?>
<!DOCTYPE svg PUBLIC "-//W3C//DTD SVG 1.1//EN"
 "http://www.w3.org/Graphics/SVG/1.1/DTD/svg11.dtd">
<!-- Generated by graphviz version 2.43.0 (0)
 -->
<!-- Title: src/gui/windows/peripherals/arm_timer_window.cpp Pages: 1 -->
<svg width="535pt" height="390pt"
 viewBox="0.00 0.00 534.50 390.00" xmlns="http://www.w3.org/2000/svg" xmlns:xlink="http://www.w3.org/1999/xlink">
<g id="graph0" class="graph" transform="scale(1 1) rotate(0) translate(4 386)">
<title>src/gui/windows/peripherals/arm_timer_window.cpp</title>
<!-- Node1 -->
<g id="Node000001" class="node">
<title>Node1</title>
<g id="a_Node000001"><a xlink:title="This file implements a window that visualizes the contents of the ARM timer registers.">
<polygon fill="#999999" stroke="#666666" points="176.5,-382 24.5,-382 24.5,-352 176.5,-352 176.5,-382"/>
<text text-anchor="start" x="32.5" y="-370" font-family="Helvetica,sans-Serif" font-size="10.00">src/gui/windows/peripherals</text>
<text text-anchor="middle" x="100.5" y="-359" font-family="Helvetica,sans-Serif" font-size="10.00">/arm_timer_window.cpp</text>
</a>
</g>
</g>
<!-- Node2 -->
<g id="Node000002" class="node">
<title>Node2</title>
<g id="a_Node000002"><a xlink:title=" ">
<polygon fill="#e0e0e0" stroke="#999999" points="79,-316 0,-316 0,-297 79,-297 79,-316"/>
<text text-anchor="middle" x="39.5" y="-304" font-family="Helvetica,sans-Serif" font-size="10.00">fmt/format.h</text>
</a>
</g>
</g>
<!-- Node1&#45;&gt;Node2 -->
<g id="edge1_Node000001_Node000002" class="edge">
<title>Node1&#45;&gt;Node2</title>
<g id="a_edge1_Node000001_Node000002"><a xlink:title=" ">
<path fill="none" stroke="#63b8ff" d="M85.73,-351.84C76.79,-343.26 65.36,-332.3 56.1,-323.42"/>
<polygon fill="#63b8ff" stroke="#63b8ff" points="58.28,-320.66 48.64,-316.27 53.44,-325.71 58.28,-320.66"/>
</a>
</g>
</g>
<!-- Node3 -->
<g id="Node000003" class="node">
<title>Node3</title>
<g id="a_Node000003"><a xlink:href="arm__timer__window_8hpp.html" target="_top" xlink:title="This file defines a window that visualizes the contents of the ARM timer registers.">
<polygon fill="white" stroke="#666666" points="228,-316 97,-316 97,-297 228,-297 228,-316"/>
<text text-anchor="middle" x="162.5" y="-304" font-family="Helvetica,sans-Serif" font-size="10.00">arm_timer_window.hpp</text>
</a>
</g>
</g>
<!-- Node1&#45;&gt;Node3 -->
<g id="edge2_Node000001_Node000003" class="edge">
<title>Node1&#45;&gt;Node3</title>
<g id="a_edge2_Node000001_Node000003"><a xlink:title=" ">
<path fill="none" stroke="#63b8ff" d="M115.51,-351.84C124.69,-343.17 136.45,-332.08 145.91,-323.15"/>
<polygon fill="#63b8ff" stroke="#63b8ff" points="148.34,-325.67 153.21,-316.27 143.53,-320.58 148.34,-325.67"/>
</a>
</g>
</g>
<!-- Node4 -->
<g id="Node000004" class="node">
<title>Node4</title>
<g id="a_Node000004"><a xlink:href="window_8hpp.html" target="_top" xlink:title="This file defines an interface for all windows that will be rendered by the application.">
<polygon fill="white" stroke="#666666" points="136.5,-255.5 44.5,-255.5 44.5,-236.5 136.5,-236.5 136.5,-255.5"/>
<text text-anchor="middle" x="90.5" y="-243.5" font-family="Helvetica,sans-Serif" font-size="10.00">../../window.hpp</text>
</a>
</g>
</g>
<!-- Node3&#45;&gt;Node4 -->
<g id="edge3_Node000003_Node000004" class="edge">
<title>Node3&#45;&gt;Node4</title>
<g id="a_edge3_Node000003_Node000004"><a xlink:title=" ">
<path fill="none" stroke="#63b8ff" d="M151.88,-296.87C140.6,-287.71 122.58,-273.06 108.97,-262.01"/>
<polygon fill="#63b8ff" stroke="#63b8ff" points="111.14,-259.26 101.17,-255.67 106.72,-264.69 111.14,-259.26"/>
</a>
</g>
</g>
<!-- Node6 -->
<g id="Node000006" class="node">
<title>Node6</title>
<g id="a_Node000006"><a xlink:href="arm__timer_8hpp.html" target="_top" xlink:title="This file defines the ARM timer used in BCM2835.">
<polygon fill="white" stroke="#666666" points="295.5,-261 173.5,-261 173.5,-231 295.5,-231 295.5,-261"/>
<text text-anchor="start" x="181.5" y="-249" font-family="Helvetica,sans-Serif" font-size="10.00">../../../core/peripherals</text>
<text text-anchor="middle" x="234.5" y="-238" font-family="Helvetica,sans-Serif" font-size="10.00">/arm_timer.hpp</text>
</a>
</g>
</g>
<!-- Node3&#45;&gt;Node6 -->
<g id="edge5_Node000003_Node000006" class="edge">
<title>Node3&#45;&gt;Node6</title>
<g id="a_edge5_Node000003_Node000006"><a xlink:title=" ">
<path fill="none" stroke="#63b8ff" d="M173.12,-296.87C182.62,-289.15 196.92,-277.54 209.32,-267.46"/>
<polygon fill="#63b8ff" stroke="#63b8ff" points="211.57,-270.14 217.13,-261.11 207.16,-264.7 211.57,-270.14"/>
</a>
</g>
</g>
<!-- Node5 -->
<g id="Node000005" class="node">
<title>Node5</title>
<g id="a_Node000005"><a xlink:title=" ">
<polygon fill="#e0e0e0" stroke="#999999" points="112.5,-195 28.5,-195 28.5,-176 112.5,-176 112.5,-195"/>
<text text-anchor="middle" x="70.5" y="-183" font-family="Helvetica,sans-Serif" font-size="10.00">imgui/imgui.h</text>
</a>
</g>
</g>
<!-- Node4&#45;&gt;Node5 -->
<g id="edge4_Node000004_Node000005" class="edge">
<title>Node4&#45;&gt;Node5</title>
<g id="a_edge4_Node000004_Node000005"><a xlink:title=" ">
<path fill="none" stroke="#63b8ff" d="M87.55,-236.37C84.71,-228.07 80.34,-215.28 76.73,-204.72"/>
<polygon fill="#63b8ff" stroke="#63b8ff" points="80.01,-203.5 73.46,-195.17 73.39,-205.76 80.01,-203.5"/>
</a>
</g>
</g>
<!-- Node7 -->
<g id="Node000007" class="node">
<title>Node7</title>
<g id="a_Node000007"><a xlink:href="peripheral_8hpp.html" target="_top" xlink:title="This file defines an interface for a memory&#45;mapped peripheral.">
<polygon fill="white" stroke="#666666" points="116,-140 29,-140 29,-121 116,-121 116,-140"/>
<text text-anchor="middle" x="72.5" y="-128" font-family="Helvetica,sans-Serif" font-size="10.00">peripheral.hpp</text>
</a>
</g>
</g>
<!-- Node6&#45;&gt;Node7 -->
<g id="edge6_Node000006_Node000007" class="edge">
<title>Node6&#45;&gt;Node7</title>
<g id="a_edge6_Node000006_Node000007"><a xlink:title=" ">
<path fill="none" stroke="#63b8ff" d="M212.67,-230.8C197.62,-220.92 177.21,-207.36 159.5,-195 136.12,-178.69 109.74,-159.29 92.22,-146.26"/>
<polygon fill="#63b8ff" stroke="#63b8ff" points="94.04,-143.25 83.93,-140.08 89.85,-148.86 94.04,-143.25"/>
</a>
</g>
</g>
<!-- Node8 -->
<g id="Node000008" class="node">
<title>Node8</title>
<g id="a_Node000008"><a xlink:href="interrupt__controller_8hpp.html" target="_top" xlink:title="This file defines the interrupt controller used in BCM2835.">
<polygon fill="white" stroke="#666666" points="300,-195 169,-195 169,-176 300,-176 300,-195"/>
<text text-anchor="middle" x="234.5" y="-183" font-family="Helvetica,sans-Serif" font-size="10.00">interrupt_controller.hpp</text>
</a>
</g>
</g>
<!-- Node6&#45;&gt;Node8 -->
<g id="edge7_Node000006_Node000008" class="edge">
<title>Node6&#45;&gt;Node8</title>
<g id="a_edge7_Node000006_Node000008"><a xlink:title=" ">
<path fill="none" stroke="#63b8ff" d="M234.5,-230.84C234.5,-223.21 234.5,-213.7 234.5,-205.45"/>
<polygon fill="#63b8ff" stroke="#63b8ff" points="238,-205.27 234.5,-195.27 231,-205.27 238,-205.27"/>
</a>
</g>
</g>
<!-- Node10 -->
<g id="Node000010" class="node">
<title>Node10</title>
<g id="a_Node000010"><a xlink:href="logging__system_8hpp.html" target="_top" xlink:title="This file defines a logging system that is used in the project.">
<polygon fill="white" stroke="#666666" points="380,-85 249,-85 249,-55 380,-55 380,-85"/>
<text text-anchor="start" x="257" y="-73" font-family="Helvetica,sans-Serif" font-size="10.00">zero_mate/utils/logging</text>
<text text-anchor="middle" x="314.5" y="-62" font-family="Helvetica,sans-Serif" font-size="10.00">_system.hpp</text>
</a>
</g>
</g>
<!-- Node6&#45;&gt;Node10 -->
<g id="edge14_Node000006_Node000010" class="edge">
<title>Node6&#45;&gt;Node10</title>
<g id="a_edge14_Node000006_Node000010"><a xlink:title=" ">
<path fill="none" stroke="#63b8ff" d="M267.21,-230.94C282.31,-222.72 298.97,-210.8 308.5,-195 326.89,-164.5 324.04,-121.72 319.71,-95.21"/>
<polygon fill="#63b8ff" stroke="#63b8ff" points="323.13,-94.46 317.88,-85.25 316.24,-95.72 323.13,-94.46"/>
</a>
</g>
</g>
<!-- Node12 -->
<g id="Node000012" class="node">
<title>Node12</title>
<g id="a_Node000012"><a xlink:href="system__clock__listener_8hpp.html" target="_top" xlink:title="This file defines an interface for a CPU clock listener.">
<polygon fill="white" stroke="#666666" points="526.5,-195 380.5,-195 380.5,-176 526.5,-176 526.5,-195"/>
<text text-anchor="middle" x="453.5" y="-183" font-family="Helvetica,sans-Serif" font-size="10.00">system_clock_listener.hpp</text>
</a>
</g>
</g>
<!-- Node6&#45;&gt;Node12 -->
<g id="edge13_Node000006_Node000012" class="edge">
<title>Node6&#45;&gt;Node12</title>
<g id="a_edge13_Node000006_Node000012"><a xlink:title=" ">
<path fill="none" stroke="#63b8ff" d="M286.96,-230.99C325.08,-220.8 376,-207.2 411.46,-197.73"/>
<polygon fill="#63b8ff" stroke="#63b8ff" points="412.72,-201.02 421.48,-195.05 410.91,-194.25 412.72,-201.02"/>
</a>
</g>
</g>
<!-- Node8&#45;&gt;Node7 -->
<g id="edge8_Node000008_Node000007" class="edge">
<title>Node8&#45;&gt;Node7</title>
<g id="a_edge8_Node000008_Node000007"><a xlink:title=" ">
<path fill="none" stroke="#63b8ff" d="M208.47,-175.98C181.39,-167.13 138.79,-153.19 108.49,-143.28"/>
<polygon fill="#63b8ff" stroke="#63b8ff" points="109.32,-139.87 98.73,-140.08 107.15,-146.52 109.32,-139.87"/>
</a>
</g>
</g>
<!-- Node9 -->
<g id="Node000009" class="node">
<title>Node9</title>
<g id="a_Node000009"><a xlink:href="context_8hpp.html" target="_top" xlink:title="This file defines the context (registers) of the CPU.">
<polygon fill="white" stroke="#666666" points="286.5,-140 134.5,-140 134.5,-121 286.5,-121 286.5,-140"/>
<text text-anchor="middle" x="210.5" y="-128" font-family="Helvetica,sans-Serif" font-size="10.00">../arm1176jzf_s/context.hpp</text>
</a>
</g>
</g>
<!-- Node8&#45;&gt;Node9 -->
<g id="edge9_Node000008_Node000009" class="edge">
<title>Node8&#45;&gt;Node9</title>
<g id="a_edge9_Node000008_Node000009"><a xlink:title=" ">
<path fill="none" stroke="#63b8ff" d="M230.54,-175.75C227.29,-168.57 222.58,-158.18 218.55,-149.27"/>
<polygon fill="#63b8ff" stroke="#63b8ff" points="221.7,-147.75 214.39,-140.09 215.33,-150.64 221.7,-147.75"/>
</a>
</g>
</g>
<!-- Node8&#45;&gt;Node10 -->
<g id="edge12_Node000008_Node000010" class="edge">
<title>Node8&#45;&gt;Node10</title>
<g id="a_edge12_Node000008_Node000010"><a xlink:title=" ">
<path fill="none" stroke="#63b8ff" d="M252.02,-175.94C265.81,-168.34 284.47,-155.96 295.5,-140 304.67,-126.72 309.43,-109.15 311.89,-95.07"/>
<polygon fill="#63b8ff" stroke="#63b8ff" points="315.36,-95.51 313.36,-85.11 308.44,-94.49 315.36,-95.51"/>
</a>
</g>
</g>
<!-- Node9&#45;&gt;Node10 -->
<g id="edge10_Node000009_Node000010" class="edge">
<title>Node9&#45;&gt;Node10</title>
<g id="a_edge10_Node000009_Node000010"><a xlink:title=" ">
<path fill="none" stroke="#63b8ff" d="M225.85,-120.87C240.22,-112.78 262.19,-100.42 280.67,-90.03"/>
<polygon fill="#63b8ff" stroke="#63b8ff" points="282.41,-93.07 289.41,-85.11 278.98,-86.97 282.41,-93.07"/>
</a>
</g>
</g>
<!-- Node11 -->
<g id="Node000011" class="node">
<title>Node11</title>
<g id="a_Node000011"><a xlink:href="logger_8hpp.html" target="_top" xlink:title="This file defines a general logger interface.">
<polygon fill="white" stroke="#666666" points="348.5,-19 280.5,-19 280.5,0 348.5,0 348.5,-19"/>
<text text-anchor="middle" x="314.5" y="-7" font-family="Helvetica,sans-Serif" font-size="10.00">logger.hpp</text>
</a>
</g>
</g>
<!-- Node10&#45;&gt;Node11 -->
<g id="edge11_Node000010_Node000011" class="edge">
<title>Node10&#45;&gt;Node11</title>
<g id="a_edge11_Node000010_Node000011"><a xlink:title=" ">
<path fill="none" stroke="#63b8ff" d="M314.5,-54.84C314.5,-47.21 314.5,-37.7 314.5,-29.45"/>
<polygon fill="#63b8ff" stroke="#63b8ff" points="318,-29.27 314.5,-19.27 311,-29.27 318,-29.27"/>
</a>
</g>
</g>
</g>
</svg>
