<?xml version="1.0" encoding="UTF-8" standalone="no"?>
<!DOCTYPE svg PUBLIC "-//W3C//DTD SVG 1.1//EN"
 "http://www.w3.org/Graphics/SVG/1.1/DTD/svg11.dtd">
<!-- Generated by graphviz version 2.43.0 (0)
 -->
<!-- Title: src/gui/windows/peripherals/aux_window.cpp Pages: 1 -->
<svg width="566pt" height="456pt"
 viewBox="0.00 0.00 566.23 456.00" xmlns="http://www.w3.org/2000/svg" xmlns:xlink="http://www.w3.org/1999/xlink">
<g id="graph0" class="graph" transform="scale(1 1) rotate(0) translate(4 452)">
<title>src/gui/windows/peripherals/aux_window.cpp</title>
<!-- Node1 -->
<g id="Node000001" class="node">
<title>Node1</title>
<g id="a_Node000001"><a xlink:title="This file implements a window that visualizes the auxiliaries (UART1 &amp; SPI1, and SPI2) used in BCM283...">
<polygon fill="#999999" stroke="#666666" points="223.5,-448 71.5,-448 71.5,-418 223.5,-418 223.5,-448"/>
<text text-anchor="start" x="79.5" y="-436" font-family="Helvetica,sans-Serif" font-size="10.00">src/gui/windows/peripherals</text>
<text text-anchor="middle" x="147.5" y="-425" font-family="Helvetica,sans-Serif" font-size="10.00">/aux_window.cpp</text>
</a>
</g>
</g>
<!-- Node2 -->
<g id="Node000002" class="node">
<title>Node2</title>
<g id="a_Node000002"><a xlink:title=" ">
<polygon fill="#e0e0e0" stroke="#999999" points="79,-382 0,-382 0,-363 79,-363 79,-382"/>
<text text-anchor="middle" x="39.5" y="-370" font-family="Helvetica,sans-Serif" font-size="10.00">fmt/format.h</text>
</a>
</g>
</g>
<!-- Node1&#45;&gt;Node2 -->
<g id="edge1_Node000001_Node000002" class="edge">
<title>Node1&#45;&gt;Node2</title>
<g id="a_edge1_Node000001_Node000002"><a xlink:title=" ">
<path fill="none" stroke="#63b8ff" d="M121.63,-417.99C104.26,-408.58 81.49,-396.24 64.33,-386.95"/>
<polygon fill="#63b8ff" stroke="#63b8ff" points="65.91,-383.82 55.45,-382.14 62.58,-389.98 65.91,-383.82"/>
</a>
</g>
</g>
<!-- Node3 -->
<g id="Node000003" class="node">
<title>Node3</title>
<g id="a_Node000003"><a xlink:title=" ">
<polygon fill="#e0e0e0" stroke="#999999" points="198,-382 97,-382 97,-363 198,-363 198,-382"/>
<text text-anchor="middle" x="147.5" y="-370" font-family="Helvetica,sans-Serif" font-size="10.00">magic_enum.hpp</text>
</a>
</g>
</g>
<!-- Node1&#45;&gt;Node3 -->
<g id="edge2_Node000001_Node000003" class="edge">
<title>Node1&#45;&gt;Node3</title>
<g id="a_edge2_Node000001_Node000003"><a xlink:title=" ">
<path fill="none" stroke="#63b8ff" d="M147.5,-417.84C147.5,-410.21 147.5,-400.7 147.5,-392.45"/>
<polygon fill="#63b8ff" stroke="#63b8ff" points="151,-392.27 147.5,-382.27 144,-392.27 151,-392.27"/>
</a>
</g>
</g>
<!-- Node4 -->
<g id="Node000004" class="node">
<title>Node4</title>
<g id="a_Node000004"><a xlink:href="aux__window_8hpp.html" target="_top" xlink:title="This file defines a window that visualizes the auxiliaries (UART1 &amp; SPI1, and SPI2) used in BCM2835.">
<polygon fill="white" stroke="#666666" points="314.5,-382 216.5,-382 216.5,-363 314.5,-363 314.5,-382"/>
<text text-anchor="middle" x="265.5" y="-370" font-family="Helvetica,sans-Serif" font-size="10.00">aux_window.hpp</text>
</a>
</g>
</g>
<!-- Node1&#45;&gt;Node4 -->
<g id="edge3_Node000001_Node000004" class="edge">
<title>Node1&#45;&gt;Node4</title>
<g id="a_edge3_Node000001_Node000004"><a xlink:title=" ">
<path fill="none" stroke="#63b8ff" d="M175.76,-417.99C194.92,-408.49 220.08,-396.02 238.89,-386.69"/>
<polygon fill="#63b8ff" stroke="#63b8ff" points="240.67,-389.72 248.07,-382.14 237.56,-383.45 240.67,-389.72"/>
</a>
</g>
</g>
<!-- Node5 -->
<g id="Node000005" class="node">
<title>Node5</title>
<g id="a_Node000005"><a xlink:href="window_8hpp.html" target="_top" xlink:title="This file defines an interface for all windows that will be rendered by the application.">
<polygon fill="white" stroke="#666666" points="198.5,-321.5 106.5,-321.5 106.5,-302.5 198.5,-302.5 198.5,-321.5"/>
<text text-anchor="middle" x="152.5" y="-309.5" font-family="Helvetica,sans-Serif" font-size="10.00">../../window.hpp</text>
</a>
</g>
</g>
<!-- Node4&#45;&gt;Node5 -->
<g id="edge4_Node000004_Node000005" class="edge">
<title>Node4&#45;&gt;Node5</title>
<g id="a_edge4_Node000004_Node000005"><a xlink:title=" ">
<path fill="none" stroke="#63b8ff" d="M248.83,-362.87C230.22,-353.23 199.88,-337.53 178.22,-326.31"/>
<polygon fill="#63b8ff" stroke="#63b8ff" points="179.73,-323.16 169.24,-321.67 176.51,-329.37 179.73,-323.16"/>
</a>
</g>
</g>
<!-- Node7 -->
<g id="Node000007" class="node">
<title>Node7</title>
<g id="a_Node000007"><a xlink:href="auxiliary_8hpp.html" target="_top" xlink:title=" ">
<polygon fill="white" stroke="#666666" points="443.5,-327 315.5,-327 315.5,-297 443.5,-297 443.5,-327"/>
<text text-anchor="start" x="323.5" y="-315" font-family="Helvetica,sans-Serif" font-size="10.00">../../../core/peripherals</text>
<text text-anchor="middle" x="379.5" y="-304" font-family="Helvetica,sans-Serif" font-size="10.00">/auxiliary/auxiliary.hpp</text>
</a>
</g>
</g>
<!-- Node4&#45;&gt;Node7 -->
<g id="edge6_Node000004_Node000007" class="edge">
<title>Node4&#45;&gt;Node7</title>
<g id="a_edge6_Node000004_Node000007"><a xlink:title=" ">
<path fill="none" stroke="#63b8ff" d="M282.32,-362.87C298.22,-354.71 322.6,-342.2 342.97,-331.75"/>
<polygon fill="#63b8ff" stroke="#63b8ff" points="344.7,-334.79 351.99,-327.11 341.5,-328.57 344.7,-334.79"/>
</a>
</g>
</g>
<!-- Node6 -->
<g id="Node000006" class="node">
<title>Node6</title>
<g id="a_Node000006"><a xlink:title=" ">
<polygon fill="#e0e0e0" stroke="#999999" points="95.5,-261 11.5,-261 11.5,-242 95.5,-242 95.5,-261"/>
<text text-anchor="middle" x="53.5" y="-249" font-family="Helvetica,sans-Serif" font-size="10.00">imgui/imgui.h</text>
</a>
</g>
</g>
<!-- Node5&#45;&gt;Node6 -->
<g id="edge5_Node000005_Node000006" class="edge">
<title>Node5&#45;&gt;Node6</title>
<g id="a_edge5_Node000005_Node000006"><a xlink:title=" ">
<path fill="none" stroke="#63b8ff" d="M137.89,-302.37C121.81,-292.86 95.72,-277.45 76.8,-266.27"/>
<polygon fill="#63b8ff" stroke="#63b8ff" points="78.56,-263.24 68.17,-261.17 75,-269.27 78.56,-263.24"/>
</a>
</g>
</g>
<!-- Node8 -->
<g id="Node000008" class="node">
<title>Node8</title>
<g id="a_Node000008"><a xlink:href="gpio_8hpp.html" target="_top" xlink:title="This file defines the GPIO controller used in BCM2835.">
<polygon fill="white" stroke="#666666" points="181.5,-261 113.5,-261 113.5,-242 181.5,-242 181.5,-261"/>
<text text-anchor="middle" x="147.5" y="-249" font-family="Helvetica,sans-Serif" font-size="10.00">../gpio.hpp</text>
</a>
</g>
</g>
<!-- Node7&#45;&gt;Node8 -->
<g id="edge7_Node000007_Node000008" class="edge">
<title>Node7&#45;&gt;Node8</title>
<g id="a_edge7_Node000007_Node000008"><a xlink:title=" ">
<path fill="none" stroke="#63b8ff" d="M323.93,-296.99C283.37,-286.76 229.14,-273.09 191.56,-263.61"/>
<polygon fill="#63b8ff" stroke="#63b8ff" points="191.97,-260.1 181.42,-261.05 190.26,-266.89 191.97,-260.1"/>
</a>
</g>
</g>
<!-- Node9 -->
<g id="Node000009" class="node">
<title>Node9</title>
<g id="a_Node000009"><a xlink:href="peripheral_8hpp.html" target="_top" xlink:title="This file defines an interface for a memory&#45;mapped peripheral.">
<polygon fill="white" stroke="#666666" points="531,-140 444,-140 444,-121 531,-121 531,-140"/>
<text text-anchor="middle" x="487.5" y="-128" font-family="Helvetica,sans-Serif" font-size="10.00">peripheral.hpp</text>
</a>
</g>
</g>
<!-- Node7&#45;&gt;Node9 -->
<g id="edge19_Node000007_Node000009" class="edge">
<title>Node7&#45;&gt;Node9</title>
<g id="a_edge19_Node000007_Node000009"><a xlink:title=" ">
<path fill="none" stroke="#63b8ff" d="M431.53,-296.91C450.13,-289.28 469.45,-277.84 481.5,-261 505.1,-228 498.44,-177.27 492.43,-150.14"/>
<polygon fill="#63b8ff" stroke="#63b8ff" points="495.75,-148.97 489.99,-140.07 488.95,-150.62 495.75,-148.97"/>
</a>
</g>
</g>
<!-- Node10 -->
<g id="Node000010" class="node">
<title>Node10</title>
<g id="a_Node000010"><a xlink:href="interrupt__controller_8hpp.html" target="_top" xlink:title="This file defines the interrupt controller used in BCM2835.">
<polygon fill="white" stroke="#666666" points="457,-200.5 326,-200.5 326,-181.5 457,-181.5 457,-200.5"/>
<text text-anchor="middle" x="391.5" y="-188.5" font-family="Helvetica,sans-Serif" font-size="10.00">interrupt_controller.hpp</text>
</a>
</g>
</g>
<!-- Node7&#45;&gt;Node10 -->
<g id="edge21_Node000007_Node000010" class="edge">
<title>Node7&#45;&gt;Node10</title>
<g id="a_edge21_Node000007_Node000010"><a xlink:title=" ">
<path fill="none" stroke="#63b8ff" d="M422.75,-296.95C439.49,-289.15 456.9,-277.59 466.5,-261 480.23,-237.27 449.86,-216.98 423.74,-204.67"/>
<polygon fill="#63b8ff" stroke="#63b8ff" points="424.96,-201.38 414.4,-200.5 422.11,-207.77 424.96,-201.38"/>
</a>
</g>
</g>
<!-- Node12 -->
<g id="Node000012" class="node">
<title>Node12</title>
<g id="a_Node000012"><a xlink:href="logging__system_8hpp.html" target="_top" xlink:title="This file defines a logging system that is used in the project.">
<polygon fill="white" stroke="#666666" points="377,-85 246,-85 246,-55 377,-55 377,-85"/>
<text text-anchor="start" x="254" y="-73" font-family="Helvetica,sans-Serif" font-size="10.00">zero_mate/utils/logging</text>
<text text-anchor="middle" x="311.5" y="-62" font-family="Helvetica,sans-Serif" font-size="10.00">_system.hpp</text>
</a>
</g>
</g>
<!-- Node7&#45;&gt;Node12 -->
<g id="edge22_Node000007_Node000012" class="edge">
<title>Node7&#45;&gt;Node12</title>
<g id="a_edge22_Node000007_Node000012"><a xlink:title=" ">
<path fill="none" stroke="#63b8ff" d="M439.85,-296.97C461.11,-289.4 483.63,-277.99 499.5,-261 543.76,-213.62 581.16,-171.5 540.5,-121 521.38,-97.25 446.2,-84.18 387.12,-77.41"/>
<polygon fill="#63b8ff" stroke="#63b8ff" points="387.37,-73.92 377.05,-76.3 386.6,-80.88 387.37,-73.92"/>
</a>
</g>
</g>
<!-- Node15 -->
<g id="Node000015" class="node">
<title>Node15</title>
<g id="a_Node000015"><a xlink:href="mini__uart_8hpp.html" target="_top" xlink:title="This file defines the Mini UART auxiliary peripheral used in BCM2835.">
<polygon fill="white" stroke="#666666" points="283.5,-261 199.5,-261 199.5,-242 283.5,-242 283.5,-261"/>
<text text-anchor="middle" x="241.5" y="-249" font-family="Helvetica,sans-Serif" font-size="10.00">mini_uart.hpp</text>
</a>
</g>
</g>
<!-- Node7&#45;&gt;Node15 -->
<g id="edge18_Node000007_Node000015" class="edge">
<title>Node7&#45;&gt;Node15</title>
<g id="a_edge18_Node000007_Node000015"><a xlink:title=" ">
<path fill="none" stroke="#63b8ff" d="M346.45,-296.99C323.52,-287.27 293.26,-274.44 271.12,-265.06"/>
<polygon fill="#63b8ff" stroke="#63b8ff" points="272.45,-261.82 261.88,-261.14 269.72,-268.26 272.45,-261.82"/>
</a>
</g>
</g>
<!-- Node16 -->
<g id="Node000016" class="node">
<title>Node16</title>
<g id="a_Node000016"><a xlink:href="system__clock__listener_8hpp.html" target="_top" xlink:title="This file defines an interface for a CPU clock listener.">
<polygon fill="white" stroke="#666666" points="457,-261 302,-261 302,-242 457,-242 457,-261"/>
<text text-anchor="middle" x="379.5" y="-249" font-family="Helvetica,sans-Serif" font-size="10.00">../system_clock_listener.hpp</text>
</a>
</g>
</g>
<!-- Node7&#45;&gt;Node16 -->
<g id="edge20_Node000007_Node000016" class="edge">
<title>Node7&#45;&gt;Node16</title>
<g id="a_edge20_Node000007_Node000016"><a xlink:title=" ">
<path fill="none" stroke="#63b8ff" d="M379.5,-296.84C379.5,-289.21 379.5,-279.7 379.5,-271.45"/>
<polygon fill="#63b8ff" stroke="#63b8ff" points="383,-271.27 379.5,-261.27 376,-271.27 383,-271.27"/>
</a>
</g>
</g>
<!-- Node8&#45;&gt;Node9 -->
<g id="edge8_Node000008_Node000009" class="edge">
<title>Node8&#45;&gt;Node9</title>
<g id="a_edge8_Node000008_Node000009"><a xlink:title=" ">
<path fill="none" stroke="#63b8ff" d="M181.73,-243.52C184.69,-242.98 187.65,-242.47 190.5,-242 251.54,-232 419.71,-246.45 466.5,-206 482.43,-192.23 486.73,-167.41 487.66,-150.22"/>
<polygon fill="#63b8ff" stroke="#63b8ff" points="491.16,-150.3 487.88,-140.22 484.16,-150.14 491.16,-150.3"/>
</a>
</g>
</g>
<!-- Node8&#45;&gt;Node10 -->
<g id="edge9_Node000008_Node000010" class="edge">
<title>Node8&#45;&gt;Node10</title>
<g id="a_edge9_Node000008_Node000010"><a xlink:title=" ">
<path fill="none" stroke="#63b8ff" d="M181.68,-242.3C224.66,-232 298.57,-214.28 346.22,-202.86"/>
<polygon fill="#63b8ff" stroke="#63b8ff" points="347.06,-206.26 355.96,-200.52 345.42,-199.45 347.06,-206.26"/>
</a>
</g>
</g>
<!-- Node8&#45;&gt;Node12 -->
<g id="edge15_Node000008_Node000012" class="edge">
<title>Node8&#45;&gt;Node12</title>
<g id="a_edge15_Node000008_Node000012"><a xlink:title=" ">
<path fill="none" stroke="#63b8ff" d="M146.37,-241.69C144.92,-227.16 143.75,-197.64 154.5,-176 175.69,-133.36 223.35,-105.32 260.63,-89.02"/>
<polygon fill="#63b8ff" stroke="#63b8ff" points="262.01,-92.24 269.87,-85.13 259.29,-85.79 262.01,-92.24"/>
</a>
</g>
</g>
<!-- Node14 -->
<g id="Node000014" class="node">
<title>Node14</title>
<g id="a_Node000014"><a xlink:href="external__peripheral_8hpp.html" target="_top" xlink:title="This file defines an interface for external peripherals that can be attached to the system via GPIO p...">
<polygon fill="white" stroke="#666666" points="275.5,-206 163.5,-206 163.5,-176 275.5,-176 275.5,-206"/>
<text text-anchor="start" x="171.5" y="-194" font-family="Helvetica,sans-Serif" font-size="10.00">zero_mate/external</text>
<text text-anchor="middle" x="219.5" y="-183" font-family="Helvetica,sans-Serif" font-size="10.00">_peripheral.hpp</text>
</a>
</g>
</g>
<!-- Node8&#45;&gt;Node14 -->
<g id="edge16_Node000008_Node000014" class="edge">
<title>Node8&#45;&gt;Node14</title>
<g id="a_edge16_Node000008_Node000014"><a xlink:title=" ">
<path fill="none" stroke="#63b8ff" d="M158.12,-241.87C167.62,-234.15 181.92,-222.54 194.32,-212.46"/>
<polygon fill="#63b8ff" stroke="#63b8ff" points="196.57,-215.14 202.13,-206.11 192.16,-209.7 196.57,-215.14"/>
</a>
</g>
</g>
<!-- Node10&#45;&gt;Node9 -->
<g id="edge10_Node000010_Node000009" class="edge">
<title>Node10&#45;&gt;Node9</title>
<g id="a_edge10_Node000010_Node000009"><a xlink:title=" ">
<path fill="none" stroke="#63b8ff" d="M405.67,-181.37C421.19,-171.91 446.33,-156.59 464.65,-145.42"/>
<polygon fill="#63b8ff" stroke="#63b8ff" points="466.56,-148.36 473.28,-140.17 462.92,-142.38 466.56,-148.36"/>
</a>
</g>
</g>
<!-- Node11 -->
<g id="Node000011" class="node">
<title>Node11</title>
<g id="a_Node000011"><a xlink:href="context_8hpp.html" target="_top" xlink:title="This file defines the context (registers) of the CPU.">
<polygon fill="white" stroke="#666666" points="387.5,-140 235.5,-140 235.5,-121 387.5,-121 387.5,-140"/>
<text text-anchor="middle" x="311.5" y="-128" font-family="Helvetica,sans-Serif" font-size="10.00">../arm1176jzf_s/context.hpp</text>
</a>
</g>
</g>
<!-- Node10&#45;&gt;Node11 -->
<g id="edge11_Node000010_Node000011" class="edge">
<title>Node10&#45;&gt;Node11</title>
<g id="a_edge11_Node000010_Node000011"><a xlink:title=" ">
<path fill="none" stroke="#63b8ff" d="M379.7,-181.37C367.05,-172.12 346.76,-157.28 331.59,-146.19"/>
<polygon fill="#63b8ff" stroke="#63b8ff" points="333.49,-143.24 323.35,-140.17 329.36,-148.9 333.49,-143.24"/>
</a>
</g>
</g>
<!-- Node10&#45;&gt;Node12 -->
<g id="edge14_Node000010_Node000012" class="edge">
<title>Node10&#45;&gt;Node12</title>
<g id="a_edge14_Node000010_Node000012"><a xlink:title=" ">
<path fill="none" stroke="#63b8ff" d="M395.07,-181.25C400.09,-167.44 407.47,-140.18 396.5,-121 388.76,-107.47 375.77,-97.24 362.25,-89.67"/>
<polygon fill="#63b8ff" stroke="#63b8ff" points="363.83,-86.55 353.34,-85.07 360.62,-92.77 363.83,-86.55"/>
</a>
</g>
</g>
<!-- Node11&#45;&gt;Node12 -->
<g id="edge12_Node000011_Node000012" class="edge">
<title>Node11&#45;&gt;Node12</title>
<g id="a_edge12_Node000011_Node000012"><a xlink:title=" ">
<path fill="none" stroke="#63b8ff" d="M311.5,-120.87C311.5,-114.11 311.5,-104.35 311.5,-95.26"/>
<polygon fill="#63b8ff" stroke="#63b8ff" points="315,-95.11 311.5,-85.11 308,-95.11 315,-95.11"/>
</a>
</g>
</g>
<!-- Node13 -->
<g id="Node000013" class="node">
<title>Node13</title>
<g id="a_Node000013"><a xlink:href="logger_8hpp.html" target="_top" xlink:title="This file defines a general logger interface.">
<polygon fill="white" stroke="#666666" points="345.5,-19 277.5,-19 277.5,0 345.5,0 345.5,-19"/>
<text text-anchor="middle" x="311.5" y="-7" font-family="Helvetica,sans-Serif" font-size="10.00">logger.hpp</text>
</a>
</g>
</g>
<!-- Node12&#45;&gt;Node13 -->
<g id="edge13_Node000012_Node000013" class="edge">
<title>Node12&#45;&gt;Node13</title>
<g id="a_edge13_Node000012_Node000013"><a xlink:title=" ">
<path fill="none" stroke="#63b8ff" d="M311.5,-54.84C311.5,-47.21 311.5,-37.7 311.5,-29.45"/>
<polygon fill="#63b8ff" stroke="#63b8ff" points="315,-29.27 311.5,-19.27 308,-29.27 315,-29.27"/>
</a>
</g>
</g>
<!-- Node14&#45;&gt;Node12 -->
<g id="edge17_Node000014_Node000012" class="edge">
<title>Node14&#45;&gt;Node12</title>
<g id="a_edge17_Node000014_Node000012"><a xlink:title=" ">
<path fill="none" stroke="#63b8ff" d="M217.41,-175.84C215.97,-160.98 215.91,-137.52 226.5,-121 235.07,-107.64 248.57,-97.4 262.32,-89.77"/>
<polygon fill="#63b8ff" stroke="#63b8ff" points="264.05,-92.82 271.34,-85.13 260.84,-86.59 264.05,-92.82"/>
</a>
</g>
</g>
</g>
</svg>
