<?xml version="1.0" encoding="UTF-8" standalone="no"?>
<!DOCTYPE svg PUBLIC "-//W3C//DTD SVG 1.1//EN"
 "http://www.w3.org/Graphics/SVG/1.1/DTD/svg11.dtd">
<!-- Generated by graphviz version 2.43.0 (0)
 -->
<!-- Title: src/gui/windows/peripherals/aux_window.hpp Pages: 1 -->
<svg width="555pt" height="401pt"
 viewBox="0.00 0.00 554.73 401.00" xmlns="http://www.w3.org/2000/svg" xmlns:xlink="http://www.w3.org/1999/xlink">
<g id="graph0" class="graph" transform="scale(1 1) rotate(0) translate(4 397)">
<title>src/gui/windows/peripherals/aux_window.hpp</title>
<!-- Node1 -->
<g id="Node000001" class="node">
<title>Node1</title>
<g id="a_Node000001"><a xlink:title="This file defines a window that visualizes the auxiliaries (UART1 &amp; SPI1, and SPI2) used in BCM2835.">
<polygon fill="#999999" stroke="#666666" points="281,-393 129,-393 129,-363 281,-363 281,-393"/>
<text text-anchor="start" x="137" y="-381" font-family="Helvetica,sans-Serif" font-size="10.00">src/gui/windows/peripherals</text>
<text text-anchor="middle" x="205" y="-370" font-family="Helvetica,sans-Serif" font-size="10.00">/aux_window.hpp</text>
</a>
</g>
</g>
<!-- Node2 -->
<g id="Node000002" class="node">
<title>Node2</title>
<g id="a_Node000002"><a xlink:href="window_8hpp.html" target="_top" xlink:title="This file defines an interface for all windows that will be rendered by the application.">
<polygon fill="white" stroke="#666666" points="187,-321.5 95,-321.5 95,-302.5 187,-302.5 187,-321.5"/>
<text text-anchor="middle" x="141" y="-309.5" font-family="Helvetica,sans-Serif" font-size="10.00">../../window.hpp</text>
</a>
</g>
</g>
<!-- Node1&#45;&gt;Node2 -->
<g id="edge1_Node000001_Node000002" class="edge">
<title>Node1&#45;&gt;Node2</title>
<g id="a_edge1_Node000001_Node000002"><a xlink:title=" ">
<path fill="none" stroke="#63b8ff" d="M190.8,-362.8C180.82,-352.82 167.46,-339.46 157.09,-329.09"/>
<polygon fill="#63b8ff" stroke="#63b8ff" points="159.39,-326.44 149.84,-321.84 154.44,-331.39 159.39,-326.44"/>
</a>
</g>
</g>
<!-- Node4 -->
<g id="Node000004" class="node">
<title>Node4</title>
<g id="a_Node000004"><a xlink:href="auxiliary_8hpp.html" target="_top" xlink:title=" ">
<polygon fill="white" stroke="#666666" points="432,-327 304,-327 304,-297 432,-297 432,-327"/>
<text text-anchor="start" x="312" y="-315" font-family="Helvetica,sans-Serif" font-size="10.00">../../../core/peripherals</text>
<text text-anchor="middle" x="368" y="-304" font-family="Helvetica,sans-Serif" font-size="10.00">/auxiliary/auxiliary.hpp</text>
</a>
</g>
</g>
<!-- Node1&#45;&gt;Node4 -->
<g id="edge3_Node000001_Node000004" class="edge">
<title>Node1&#45;&gt;Node4</title>
<g id="a_edge3_Node000001_Node000004"><a xlink:title=" ">
<path fill="none" stroke="#63b8ff" d="M240.77,-362.95C264.87,-353.49 296.85,-340.93 322.73,-330.78"/>
<polygon fill="#63b8ff" stroke="#63b8ff" points="324.28,-333.93 332.31,-327.01 321.73,-327.41 324.28,-333.93"/>
</a>
</g>
</g>
<!-- Node3 -->
<g id="Node000003" class="node">
<title>Node3</title>
<g id="a_Node000003"><a xlink:title=" ">
<polygon fill="#e0e0e0" stroke="#999999" points="84,-261 0,-261 0,-242 84,-242 84,-261"/>
<text text-anchor="middle" x="42" y="-249" font-family="Helvetica,sans-Serif" font-size="10.00">imgui/imgui.h</text>
</a>
</g>
</g>
<!-- Node2&#45;&gt;Node3 -->
<g id="edge2_Node000002_Node000003" class="edge">
<title>Node2&#45;&gt;Node3</title>
<g id="a_edge2_Node000002_Node000003"><a xlink:title=" ">
<path fill="none" stroke="#63b8ff" d="M126.39,-302.37C110.31,-292.86 84.22,-277.45 65.3,-266.27"/>
<polygon fill="#63b8ff" stroke="#63b8ff" points="67.06,-263.24 56.67,-261.17 63.5,-269.27 67.06,-263.24"/>
</a>
</g>
</g>
<!-- Node5 -->
<g id="Node000005" class="node">
<title>Node5</title>
<g id="a_Node000005"><a xlink:href="gpio_8hpp.html" target="_top" xlink:title="This file defines the GPIO controller used in BCM2835.">
<polygon fill="white" stroke="#666666" points="170,-261 102,-261 102,-242 170,-242 170,-261"/>
<text text-anchor="middle" x="136" y="-249" font-family="Helvetica,sans-Serif" font-size="10.00">../gpio.hpp</text>
</a>
</g>
</g>
<!-- Node4&#45;&gt;Node5 -->
<g id="edge4_Node000004_Node000005" class="edge">
<title>Node4&#45;&gt;Node5</title>
<g id="a_edge4_Node000004_Node000005"><a xlink:title=" ">
<path fill="none" stroke="#63b8ff" d="M312.43,-296.99C271.87,-286.76 217.64,-273.09 180.06,-263.61"/>
<polygon fill="#63b8ff" stroke="#63b8ff" points="180.47,-260.1 169.92,-261.05 178.76,-266.89 180.47,-260.1"/>
</a>
</g>
</g>
<!-- Node6 -->
<g id="Node000006" class="node">
<title>Node6</title>
<g id="a_Node000006"><a xlink:href="peripheral_8hpp.html" target="_top" xlink:title="This file defines an interface for a memory&#45;mapped peripheral.">
<polygon fill="white" stroke="#666666" points="519.5,-140 432.5,-140 432.5,-121 519.5,-121 519.5,-140"/>
<text text-anchor="middle" x="476" y="-128" font-family="Helvetica,sans-Serif" font-size="10.00">peripheral.hpp</text>
</a>
</g>
</g>
<!-- Node4&#45;&gt;Node6 -->
<g id="edge16_Node000004_Node000006" class="edge">
<title>Node4&#45;&gt;Node6</title>
<g id="a_edge16_Node000004_Node000006"><a xlink:title=" ">
<path fill="none" stroke="#63b8ff" d="M420.03,-296.91C438.63,-289.28 457.95,-277.84 470,-261 493.6,-228 486.94,-177.27 480.93,-150.14"/>
<polygon fill="#63b8ff" stroke="#63b8ff" points="484.25,-148.97 478.49,-140.07 477.45,-150.62 484.25,-148.97"/>
</a>
</g>
</g>
<!-- Node7 -->
<g id="Node000007" class="node">
<title>Node7</title>
<g id="a_Node000007"><a xlink:href="interrupt__controller_8hpp.html" target="_top" xlink:title="This file defines the interrupt controller used in BCM2835.">
<polygon fill="white" stroke="#666666" points="445.5,-200.5 314.5,-200.5 314.5,-181.5 445.5,-181.5 445.5,-200.5"/>
<text text-anchor="middle" x="380" y="-188.5" font-family="Helvetica,sans-Serif" font-size="10.00">interrupt_controller.hpp</text>
</a>
</g>
</g>
<!-- Node4&#45;&gt;Node7 -->
<g id="edge18_Node000004_Node000007" class="edge">
<title>Node4&#45;&gt;Node7</title>
<g id="a_edge18_Node000004_Node000007"><a xlink:title=" ">
<path fill="none" stroke="#63b8ff" d="M411.25,-296.95C427.99,-289.15 445.4,-277.59 455,-261 468.73,-237.27 438.36,-216.98 412.24,-204.67"/>
<polygon fill="#63b8ff" stroke="#63b8ff" points="413.46,-201.38 402.9,-200.5 410.61,-207.77 413.46,-201.38"/>
</a>
</g>
</g>
<!-- Node9 -->
<g id="Node000009" class="node">
<title>Node9</title>
<g id="a_Node000009"><a xlink:href="logging__system_8hpp.html" target="_top" xlink:title="This file defines a logging system that is used in the project.">
<polygon fill="white" stroke="#666666" points="365.5,-85 234.5,-85 234.5,-55 365.5,-55 365.5,-85"/>
<text text-anchor="start" x="242.5" y="-73" font-family="Helvetica,sans-Serif" font-size="10.00">zero_mate/utils/logging</text>
<text text-anchor="middle" x="300" y="-62" font-family="Helvetica,sans-Serif" font-size="10.00">_system.hpp</text>
</a>
</g>
</g>
<!-- Node4&#45;&gt;Node9 -->
<g id="edge19_Node000004_Node000009" class="edge">
<title>Node4&#45;&gt;Node9</title>
<g id="a_edge19_Node000004_Node000009"><a xlink:title=" ">
<path fill="none" stroke="#63b8ff" d="M428.35,-296.97C449.61,-289.4 472.13,-277.99 488,-261 532.26,-213.62 569.66,-171.5 529,-121 509.88,-97.25 434.7,-84.18 375.62,-77.41"/>
<polygon fill="#63b8ff" stroke="#63b8ff" points="375.87,-73.92 365.55,-76.3 375.1,-80.88 375.87,-73.92"/>
</a>
</g>
</g>
<!-- Node12 -->
<g id="Node000012" class="node">
<title>Node12</title>
<g id="a_Node000012"><a xlink:href="mini__uart_8hpp.html" target="_top" xlink:title="This file defines the Mini UART auxiliary peripheral used in BCM2835.">
<polygon fill="white" stroke="#666666" points="272,-261 188,-261 188,-242 272,-242 272,-261"/>
<text text-anchor="middle" x="230" y="-249" font-family="Helvetica,sans-Serif" font-size="10.00">mini_uart.hpp</text>
</a>
</g>
</g>
<!-- Node4&#45;&gt;Node12 -->
<g id="edge15_Node000004_Node000012" class="edge">
<title>Node4&#45;&gt;Node12</title>
<g id="a_edge15_Node000004_Node000012"><a xlink:title=" ">
<path fill="none" stroke="#63b8ff" d="M334.95,-296.99C312.02,-287.27 281.76,-274.44 259.62,-265.06"/>
<polygon fill="#63b8ff" stroke="#63b8ff" points="260.95,-261.82 250.38,-261.14 258.22,-268.26 260.95,-261.82"/>
</a>
</g>
</g>
<!-- Node13 -->
<g id="Node000013" class="node">
<title>Node13</title>
<g id="a_Node000013"><a xlink:href="system__clock__listener_8hpp.html" target="_top" xlink:title="This file defines an interface for a CPU clock listener.">
<polygon fill="white" stroke="#666666" points="445.5,-261 290.5,-261 290.5,-242 445.5,-242 445.5,-261"/>
<text text-anchor="middle" x="368" y="-249" font-family="Helvetica,sans-Serif" font-size="10.00">../system_clock_listener.hpp</text>
</a>
</g>
</g>
<!-- Node4&#45;&gt;Node13 -->
<g id="edge17_Node000004_Node000013" class="edge">
<title>Node4&#45;&gt;Node13</title>
<g id="a_edge17_Node000004_Node000013"><a xlink:title=" ">
<path fill="none" stroke="#63b8ff" d="M368,-296.84C368,-289.21 368,-279.7 368,-271.45"/>
<polygon fill="#63b8ff" stroke="#63b8ff" points="371.5,-271.27 368,-261.27 364.5,-271.27 371.5,-271.27"/>
</a>
</g>
</g>
<!-- Node5&#45;&gt;Node6 -->
<g id="edge5_Node000005_Node000006" class="edge">
<title>Node5&#45;&gt;Node6</title>
<g id="a_edge5_Node000005_Node000006"><a xlink:title=" ">
<path fill="none" stroke="#63b8ff" d="M170.23,-243.52C173.19,-242.98 176.15,-242.47 179,-242 240.04,-232 408.21,-246.45 455,-206 470.93,-192.23 475.23,-167.41 476.16,-150.22"/>
<polygon fill="#63b8ff" stroke="#63b8ff" points="479.66,-150.3 476.38,-140.22 472.66,-150.14 479.66,-150.3"/>
</a>
</g>
</g>
<!-- Node5&#45;&gt;Node7 -->
<g id="edge6_Node000005_Node000007" class="edge">
<title>Node5&#45;&gt;Node7</title>
<g id="a_edge6_Node000005_Node000007"><a xlink:title=" ">
<path fill="none" stroke="#63b8ff" d="M170.18,-242.3C213.16,-232 287.07,-214.28 334.72,-202.86"/>
<polygon fill="#63b8ff" stroke="#63b8ff" points="335.56,-206.26 344.46,-200.52 333.92,-199.45 335.56,-206.26"/>
</a>
</g>
</g>
<!-- Node5&#45;&gt;Node9 -->
<g id="edge12_Node000005_Node000009" class="edge">
<title>Node5&#45;&gt;Node9</title>
<g id="a_edge12_Node000005_Node000009"><a xlink:title=" ">
<path fill="none" stroke="#63b8ff" d="M134.87,-241.69C133.42,-227.16 132.25,-197.64 143,-176 164.19,-133.36 211.85,-105.32 249.13,-89.02"/>
<polygon fill="#63b8ff" stroke="#63b8ff" points="250.51,-92.24 258.37,-85.13 247.79,-85.79 250.51,-92.24"/>
</a>
</g>
</g>
<!-- Node11 -->
<g id="Node000011" class="node">
<title>Node11</title>
<g id="a_Node000011"><a xlink:href="external__peripheral_8hpp.html" target="_top" xlink:title="This file defines an interface for external peripherals that can be attached to the system via GPIO p...">
<polygon fill="white" stroke="#666666" points="264,-206 152,-206 152,-176 264,-176 264,-206"/>
<text text-anchor="start" x="160" y="-194" font-family="Helvetica,sans-Serif" font-size="10.00">zero_mate/external</text>
<text text-anchor="middle" x="208" y="-183" font-family="Helvetica,sans-Serif" font-size="10.00">_peripheral.hpp</text>
</a>
</g>
</g>
<!-- Node5&#45;&gt;Node11 -->
<g id="edge13_Node000005_Node000011" class="edge">
<title>Node5&#45;&gt;Node11</title>
<g id="a_edge13_Node000005_Node000011"><a xlink:title=" ">
<path fill="none" stroke="#63b8ff" d="M146.62,-241.87C156.12,-234.15 170.42,-222.54 182.82,-212.46"/>
<polygon fill="#63b8ff" stroke="#63b8ff" points="185.07,-215.14 190.63,-206.11 180.66,-209.7 185.07,-215.14"/>
</a>
</g>
</g>
<!-- Node7&#45;&gt;Node6 -->
<g id="edge7_Node000007_Node000006" class="edge">
<title>Node7&#45;&gt;Node6</title>
<g id="a_edge7_Node000007_Node000006"><a xlink:title=" ">
<path fill="none" stroke="#63b8ff" d="M394.17,-181.37C409.69,-171.91 434.83,-156.59 453.15,-145.42"/>
<polygon fill="#63b8ff" stroke="#63b8ff" points="455.06,-148.36 461.78,-140.17 451.42,-142.38 455.06,-148.36"/>
</a>
</g>
</g>
<!-- Node8 -->
<g id="Node000008" class="node">
<title>Node8</title>
<g id="a_Node000008"><a xlink:href="context_8hpp.html" target="_top" xlink:title="This file defines the context (registers) of the CPU.">
<polygon fill="white" stroke="#666666" points="376,-140 224,-140 224,-121 376,-121 376,-140"/>
<text text-anchor="middle" x="300" y="-128" font-family="Helvetica,sans-Serif" font-size="10.00">../arm1176jzf_s/context.hpp</text>
</a>
</g>
</g>
<!-- Node7&#45;&gt;Node8 -->
<g id="edge8_Node000007_Node000008" class="edge">
<title>Node7&#45;&gt;Node8</title>
<g id="a_edge8_Node000007_Node000008"><a xlink:title=" ">
<path fill="none" stroke="#63b8ff" d="M368.2,-181.37C355.55,-172.12 335.26,-157.28 320.09,-146.19"/>
<polygon fill="#63b8ff" stroke="#63b8ff" points="321.99,-143.24 311.85,-140.17 317.86,-148.9 321.99,-143.24"/>
</a>
</g>
</g>
<!-- Node7&#45;&gt;Node9 -->
<g id="edge11_Node000007_Node000009" class="edge">
<title>Node7&#45;&gt;Node9</title>
<g id="a_edge11_Node000007_Node000009"><a xlink:title=" ">
<path fill="none" stroke="#63b8ff" d="M383.57,-181.25C388.59,-167.44 395.97,-140.18 385,-121 377.26,-107.47 364.27,-97.24 350.75,-89.67"/>
<polygon fill="#63b8ff" stroke="#63b8ff" points="352.33,-86.55 341.84,-85.07 349.12,-92.77 352.33,-86.55"/>
</a>
</g>
</g>
<!-- Node8&#45;&gt;Node9 -->
<g id="edge9_Node000008_Node000009" class="edge">
<title>Node8&#45;&gt;Node9</title>
<g id="a_edge9_Node000008_Node000009"><a xlink:title=" ">
<path fill="none" stroke="#63b8ff" d="M300,-120.87C300,-114.11 300,-104.35 300,-95.26"/>
<polygon fill="#63b8ff" stroke="#63b8ff" points="303.5,-95.11 300,-85.11 296.5,-95.11 303.5,-95.11"/>
</a>
</g>
</g>
<!-- Node10 -->
<g id="Node000010" class="node">
<title>Node10</title>
<g id="a_Node000010"><a xlink:href="logger_8hpp.html" target="_top" xlink:title="This file defines a general logger interface.">
<polygon fill="white" stroke="#666666" points="334,-19 266,-19 266,0 334,0 334,-19"/>
<text text-anchor="middle" x="300" y="-7" font-family="Helvetica,sans-Serif" font-size="10.00">logger.hpp</text>
</a>
</g>
</g>
<!-- Node9&#45;&gt;Node10 -->
<g id="edge10_Node000009_Node000010" class="edge">
<title>Node9&#45;&gt;Node10</title>
<g id="a_edge10_Node000009_Node000010"><a xlink:title=" ">
<path fill="none" stroke="#63b8ff" d="M300,-54.84C300,-47.21 300,-37.7 300,-29.45"/>
<polygon fill="#63b8ff" stroke="#63b8ff" points="303.5,-29.27 300,-19.27 296.5,-29.27 303.5,-29.27"/>
</a>
</g>
</g>
<!-- Node11&#45;&gt;Node9 -->
<g id="edge14_Node000011_Node000009" class="edge">
<title>Node11&#45;&gt;Node9</title>
<g id="a_edge14_Node000011_Node000009"><a xlink:title=" ">
<path fill="none" stroke="#63b8ff" d="M205.91,-175.84C204.47,-160.98 204.41,-137.52 215,-121 223.57,-107.64 237.07,-97.4 250.82,-89.77"/>
<polygon fill="#63b8ff" stroke="#63b8ff" points="252.55,-92.82 259.84,-85.13 249.34,-86.59 252.55,-92.82"/>
</a>
</g>
</g>
</g>
</svg>
