<?xml version="1.0" encoding="UTF-8" standalone="no"?>
<!DOCTYPE svg PUBLIC "-//W3C//DTD SVG 1.1//EN"
 "http://www.w3.org/Graphics/SVG/1.1/DTD/svg11.dtd">
<!-- Generated by graphviz version 2.43.0 (0)
 -->
<!-- Title: src/core/peripherals/auxiliary/auxiliary.cpp Pages: 1 -->
<svg width="712pt" height="390pt"
 viewBox="0.00 0.00 712.00 390.00" xmlns="http://www.w3.org/2000/svg" xmlns:xlink="http://www.w3.org/1999/xlink">
<g id="graph0" class="graph" transform="scale(1 1) rotate(0) translate(4 386)">
<title>src/core/peripherals/auxiliary/auxiliary.cpp</title>
<!-- Node1 -->
<g id="Node000001" class="node">
<title>Node1</title>
<g id="a_Node000001"><a xlink:title=" ">
<polygon fill="#999999" stroke="#666666" points="367,-382 240,-382 240,-352 367,-352 367,-382"/>
<text text-anchor="start" x="248" y="-370" font-family="Helvetica,sans-Serif" font-size="10.00">src/core/peripherals</text>
<text text-anchor="middle" x="303.5" y="-359" font-family="Helvetica,sans-Serif" font-size="10.00">/auxiliary/auxiliary.cpp</text>
</a>
</g>
</g>
<!-- Node2 -->
<g id="Node000002" class="node">
<title>Node2</title>
<g id="a_Node000002"><a xlink:title=" ">
<polygon fill="#e0e0e0" stroke="#999999" points="181,-316 102,-316 102,-297 181,-297 181,-316"/>
<text text-anchor="middle" x="141.5" y="-304" font-family="Helvetica,sans-Serif" font-size="10.00">fmt/format.h</text>
</a>
</g>
</g>
<!-- Node1&#45;&gt;Node2 -->
<g id="edge1_Node000001_Node000002" class="edge">
<title>Node1&#45;&gt;Node2</title>
<g id="a_edge1_Node000001_Node000002"><a xlink:title=" ">
<path fill="none" stroke="#63b8ff" d="M264.7,-351.99C237.31,-342.1 200.98,-328.98 174.89,-319.56"/>
<polygon fill="#63b8ff" stroke="#63b8ff" points="176.02,-316.24 165.42,-316.14 173.64,-322.83 176.02,-316.24"/>
</a>
</g>
</g>
<!-- Node3 -->
<g id="Node000003" class="node">
<title>Node3</title>
<g id="a_Node000003"><a xlink:title=" ">
<polygon fill="#e0e0e0" stroke="#999999" points="300,-316 199,-316 199,-297 300,-297 300,-316"/>
<text text-anchor="middle" x="249.5" y="-304" font-family="Helvetica,sans-Serif" font-size="10.00">magic_enum.hpp</text>
</a>
</g>
</g>
<!-- Node1&#45;&gt;Node3 -->
<g id="edge2_Node000001_Node000003" class="edge">
<title>Node1&#45;&gt;Node3</title>
<g id="a_edge2_Node000001_Node000003"><a xlink:title=" ">
<path fill="none" stroke="#63b8ff" d="M290.43,-351.84C282.59,-343.35 272.59,-332.52 264.44,-323.69"/>
<polygon fill="#63b8ff" stroke="#63b8ff" points="266.95,-321.24 257.59,-316.27 261.8,-325.99 266.95,-321.24"/>
</a>
</g>
</g>
<!-- Node4 -->
<g id="Node000004" class="node">
<title>Node4</title>
<g id="a_Node000004"><a xlink:href="auxiliary_8hpp.html" target="_top" xlink:title=" ">
<polygon fill="white" stroke="#666666" points="397,-316 318,-316 318,-297 397,-297 397,-316"/>
<text text-anchor="middle" x="357.5" y="-304" font-family="Helvetica,sans-Serif" font-size="10.00">auxiliary.hpp</text>
</a>
</g>
</g>
<!-- Node1&#45;&gt;Node4 -->
<g id="edge3_Node000001_Node000004" class="edge">
<title>Node1&#45;&gt;Node4</title>
<g id="a_edge3_Node000001_Node000004"><a xlink:title=" ">
<path fill="none" stroke="#63b8ff" d="M316.57,-351.84C324.41,-343.35 334.41,-332.52 342.56,-323.69"/>
<polygon fill="#63b8ff" stroke="#63b8ff" points="345.2,-325.99 349.41,-316.27 340.05,-321.24 345.2,-325.99"/>
</a>
</g>
</g>
<!-- Node14 -->
<g id="Node000014" class="node">
<title>Node14</title>
<g id="a_Node000014"><a xlink:href="singleton_8hpp.html" target="_top" xlink:title="This file defines and implements a generic class that is used to treat other classes as singletons.">
<polygon fill="white" stroke="#666666" points="576,-316 415,-316 415,-297 576,-297 576,-316"/>
<text text-anchor="middle" x="495.5" y="-304" font-family="Helvetica,sans-Serif" font-size="10.00">zero_mate/utils/singleton.hpp</text>
</a>
</g>
</g>
<!-- Node1&#45;&gt;Node14 -->
<g id="edge20_Node000001_Node000014" class="edge">
<title>Node1&#45;&gt;Node14</title>
<g id="a_edge20_Node000001_Node000014"><a xlink:title=" ">
<path fill="none" stroke="#63b8ff" d="M349.49,-351.99C382.62,-341.89 426.79,-328.44 457.84,-318.98"/>
<polygon fill="#63b8ff" stroke="#63b8ff" points="458.88,-322.32 467.43,-316.05 456.84,-315.62 458.88,-322.32"/>
</a>
</g>
</g>
<!-- Node5 -->
<g id="Node000005" class="node">
<title>Node5</title>
<g id="a_Node000005"><a xlink:href="gpio_8hpp.html" target="_top" xlink:title="This file defines the GPIO controller used in BCM2835.">
<polygon fill="white" stroke="#666666" points="330.5,-261 262.5,-261 262.5,-242 330.5,-242 330.5,-261"/>
<text text-anchor="middle" x="296.5" y="-249" font-family="Helvetica,sans-Serif" font-size="10.00">../gpio.hpp</text>
</a>
</g>
</g>
<!-- Node4&#45;&gt;Node5 -->
<g id="edge4_Node000004_Node000005" class="edge">
<title>Node4&#45;&gt;Node5</title>
<g id="a_edge4_Node000004_Node000005"><a xlink:title=" ">
<path fill="none" stroke="#63b8ff" d="M347.7,-296.98C338.68,-289.15 325.09,-277.34 314.18,-267.86"/>
<polygon fill="#63b8ff" stroke="#63b8ff" points="316.32,-265.09 306.48,-261.17 311.73,-270.37 316.32,-265.09"/>
</a>
</g>
</g>
<!-- Node6 -->
<g id="Node000006" class="node">
<title>Node6</title>
<g id="a_Node000006"><a xlink:href="peripheral_8hpp.html" target="_top" xlink:title="This file defines an interface for a memory&#45;mapped peripheral.">
<polygon fill="white" stroke="#666666" points="87,-140 0,-140 0,-121 87,-121 87,-140"/>
<text text-anchor="middle" x="43.5" y="-128" font-family="Helvetica,sans-Serif" font-size="10.00">peripheral.hpp</text>
</a>
</g>
</g>
<!-- Node4&#45;&gt;Node6 -->
<g id="edge16_Node000004_Node000006" class="edge">
<title>Node4&#45;&gt;Node6</title>
<g id="a_edge16_Node000004_Node000006"><a xlink:title=" ">
<path fill="none" stroke="#63b8ff" d="M317.72,-297.83C243.61,-282.7 88.83,-246.94 54.5,-206 41.53,-190.53 40.2,-166.63 41.19,-150.09"/>
<polygon fill="#63b8ff" stroke="#63b8ff" points="44.69,-150.29 42.13,-140.01 37.72,-149.64 44.69,-150.29"/>
</a>
</g>
</g>
<!-- Node7 -->
<g id="Node000007" class="node">
<title>Node7</title>
<g id="a_Node000007"><a xlink:href="interrupt__controller_8hpp.html" target="_top" xlink:title="This file defines the interrupt controller used in BCM2835.">
<polygon fill="white" stroke="#666666" points="222,-200.5 91,-200.5 91,-181.5 222,-181.5 222,-200.5"/>
<text text-anchor="middle" x="156.5" y="-188.5" font-family="Helvetica,sans-Serif" font-size="10.00">interrupt_controller.hpp</text>
</a>
</g>
</g>
<!-- Node4&#45;&gt;Node7 -->
<g id="edge18_Node000004_Node000007" class="edge">
<title>Node4&#45;&gt;Node7</title>
<g id="a_edge18_Node000004_Node000007"><a xlink:title=" ">
<path fill="none" stroke="#63b8ff" d="M333.69,-296.98C312.15,-288.9 279.88,-275.8 253.5,-261 224.72,-244.85 194.09,-222 175.13,-207.09"/>
<polygon fill="#63b8ff" stroke="#63b8ff" points="177.06,-204.15 167.05,-200.66 172.7,-209.63 177.06,-204.15"/>
</a>
</g>
</g>
<!-- Node9 -->
<g id="Node000009" class="node">
<title>Node9</title>
<g id="a_Node000009"><a xlink:href="logging__system_8hpp.html" target="_top" xlink:title="This file defines a logging system that is used in the project.">
<polygon fill="white" stroke="#666666" points="389,-85 258,-85 258,-55 389,-55 389,-85"/>
<text text-anchor="start" x="266" y="-73" font-family="Helvetica,sans-Serif" font-size="10.00">zero_mate/utils/logging</text>
<text text-anchor="middle" x="323.5" y="-62" font-family="Helvetica,sans-Serif" font-size="10.00">_system.hpp</text>
</a>
</g>
</g>
<!-- Node4&#45;&gt;Node9 -->
<g id="edge19_Node000004_Node000009" class="edge">
<title>Node4&#45;&gt;Node9</title>
<g id="a_edge19_Node000004_Node000009"><a xlink:title=" ">
<path fill="none" stroke="#63b8ff" d="M361.21,-296.86C372.37,-269.47 403.1,-182.75 373.5,-121 368.21,-109.96 359.44,-99.92 350.72,-91.8"/>
<polygon fill="#63b8ff" stroke="#63b8ff" points="352.98,-89.12 343.15,-85.16 348.37,-94.39 352.98,-89.12"/>
</a>
</g>
</g>
<!-- Node12 -->
<g id="Node000012" class="node">
<title>Node12</title>
<g id="a_Node000012"><a xlink:href="mini__uart_8hpp.html" target="_top" xlink:title="This file defines the Mini UART auxiliary peripheral used in BCM2835.">
<polygon fill="white" stroke="#666666" points="530.5,-261 446.5,-261 446.5,-242 530.5,-242 530.5,-261"/>
<text text-anchor="middle" x="488.5" y="-249" font-family="Helvetica,sans-Serif" font-size="10.00">mini_uart.hpp</text>
</a>
</g>
</g>
<!-- Node4&#45;&gt;Node12 -->
<g id="edge15_Node000004_Node000012" class="edge">
<title>Node4&#45;&gt;Node12</title>
<g id="a_edge15_Node000004_Node000012"><a xlink:title=" ">
<path fill="none" stroke="#63b8ff" d="M378.55,-296.98C399.91,-288.34 433.2,-274.87 457.56,-265.02"/>
<polygon fill="#63b8ff" stroke="#63b8ff" points="459.11,-268.17 467.07,-261.17 456.49,-261.68 459.11,-268.17"/>
</a>
</g>
</g>
<!-- Node13 -->
<g id="Node000013" class="node">
<title>Node13</title>
<g id="a_Node000013"><a xlink:href="system__clock__listener_8hpp.html" target="_top" xlink:title="This file defines an interface for a CPU clock listener.">
<polygon fill="white" stroke="#666666" points="704,-261 549,-261 549,-242 704,-242 704,-261"/>
<text text-anchor="middle" x="626.5" y="-249" font-family="Helvetica,sans-Serif" font-size="10.00">../system_clock_listener.hpp</text>
</a>
</g>
</g>
<!-- Node4&#45;&gt;Node13 -->
<g id="edge17_Node000004_Node000013" class="edge">
<title>Node4&#45;&gt;Node13</title>
<g id="a_edge17_Node000004_Node000013"><a xlink:title=" ">
<path fill="none" stroke="#63b8ff" d="M397.19,-297.68C443.78,-288.5 521.23,-273.24 573.07,-263.03"/>
<polygon fill="#63b8ff" stroke="#63b8ff" points="573.94,-266.42 583.08,-261.06 572.59,-259.56 573.94,-266.42"/>
</a>
</g>
</g>
<!-- Node5&#45;&gt;Node6 -->
<g id="edge5_Node000005_Node000006" class="edge">
<title>Node5&#45;&gt;Node6</title>
<g id="a_edge5_Node000005_Node000006"><a xlink:title=" ">
<path fill="none" stroke="#63b8ff" d="M262.1,-247.02C208.79,-241.03 109.46,-227.33 81.5,-206 63.41,-192.2 53.23,-167.39 48.05,-150.21"/>
<polygon fill="#63b8ff" stroke="#63b8ff" points="51.34,-148.95 45.34,-140.22 44.58,-150.78 51.34,-148.95"/>
</a>
</g>
</g>
<!-- Node5&#45;&gt;Node7 -->
<g id="edge6_Node000005_Node000007" class="edge">
<title>Node5&#45;&gt;Node7</title>
<g id="a_edge6_Node000005_Node000007"><a xlink:title=" ">
<path fill="none" stroke="#63b8ff" d="M276.14,-241.99C252.5,-232.12 213.3,-215.73 186.25,-204.43"/>
<polygon fill="#63b8ff" stroke="#63b8ff" points="187.46,-201.14 176.88,-200.52 184.76,-207.6 187.46,-201.14"/>
</a>
</g>
</g>
<!-- Node5&#45;&gt;Node9 -->
<g id="edge12_Node000005_Node000009" class="edge">
<title>Node5&#45;&gt;Node9</title>
<g id="a_edge12_Node000005_Node000009"><a xlink:title=" ">
<path fill="none" stroke="#63b8ff" d="M318.62,-241.95C333.7,-234.82 352.51,-223.06 361.5,-206 380.89,-169.23 357.52,-121.47 339.8,-93.73"/>
<polygon fill="#63b8ff" stroke="#63b8ff" points="342.53,-91.52 334.08,-85.13 336.71,-95.4 342.53,-91.52"/>
</a>
</g>
</g>
<!-- Node11 -->
<g id="Node000011" class="node">
<title>Node11</title>
<g id="a_Node000011"><a xlink:href="external__peripheral_8hpp.html" target="_top" xlink:title="This file defines an interface for external peripherals that can be attached to the system via GPIO p...">
<polygon fill="white" stroke="#666666" points="352.5,-206 240.5,-206 240.5,-176 352.5,-176 352.5,-206"/>
<text text-anchor="start" x="248.5" y="-194" font-family="Helvetica,sans-Serif" font-size="10.00">zero_mate/external</text>
<text text-anchor="middle" x="296.5" y="-183" font-family="Helvetica,sans-Serif" font-size="10.00">_peripheral.hpp</text>
</a>
</g>
</g>
<!-- Node5&#45;&gt;Node11 -->
<g id="edge13_Node000005_Node000011" class="edge">
<title>Node5&#45;&gt;Node11</title>
<g id="a_edge13_Node000005_Node000011"><a xlink:title=" ">
<path fill="none" stroke="#63b8ff" d="M296.5,-241.87C296.5,-235.11 296.5,-225.35 296.5,-216.26"/>
<polygon fill="#63b8ff" stroke="#63b8ff" points="300,-216.11 296.5,-206.11 293,-216.11 300,-216.11"/>
</a>
</g>
</g>
<!-- Node7&#45;&gt;Node6 -->
<g id="edge7_Node000007_Node000006" class="edge">
<title>Node7&#45;&gt;Node6</title>
<g id="a_edge7_Node000007_Node000006"><a xlink:title=" ">
<path fill="none" stroke="#63b8ff" d="M139.83,-181.37C121.22,-171.73 90.88,-156.03 69.22,-144.81"/>
<polygon fill="#63b8ff" stroke="#63b8ff" points="70.73,-141.66 60.24,-140.17 67.51,-147.87 70.73,-141.66"/>
</a>
</g>
</g>
<!-- Node8 -->
<g id="Node000008" class="node">
<title>Node8</title>
<g id="a_Node000008"><a xlink:href="context_8hpp.html" target="_top" xlink:title="This file defines the context (registers) of the CPU.">
<polygon fill="white" stroke="#666666" points="257.5,-140 105.5,-140 105.5,-121 257.5,-121 257.5,-140"/>
<text text-anchor="middle" x="181.5" y="-128" font-family="Helvetica,sans-Serif" font-size="10.00">../arm1176jzf_s/context.hpp</text>
</a>
</g>
</g>
<!-- Node7&#45;&gt;Node8 -->
<g id="edge8_Node000007_Node000008" class="edge">
<title>Node7&#45;&gt;Node8</title>
<g id="a_edge8_Node000007_Node000008"><a xlink:title=" ">
<path fill="none" stroke="#63b8ff" d="M160.19,-181.37C163.77,-172.99 169.32,-160.01 173.85,-149.39"/>
<polygon fill="#63b8ff" stroke="#63b8ff" points="177.08,-150.74 177.8,-140.17 170.65,-147.99 177.08,-150.74"/>
</a>
</g>
</g>
<!-- Node7&#45;&gt;Node9 -->
<g id="edge11_Node000007_Node000009" class="edge">
<title>Node7&#45;&gt;Node9</title>
<g id="a_edge11_Node000007_Node000009"><a xlink:title=" ">
<path fill="none" stroke="#63b8ff" d="M184.14,-181.38C207.6,-173.19 241.35,-159.26 266.5,-140 283.36,-127.09 298.46,-108.31 308.87,-93.59"/>
<polygon fill="#63b8ff" stroke="#63b8ff" points="311.96,-95.28 314.73,-85.05 306.19,-91.32 311.96,-95.28"/>
</a>
</g>
</g>
<!-- Node8&#45;&gt;Node9 -->
<g id="edge9_Node000008_Node000009" class="edge">
<title>Node8&#45;&gt;Node9</title>
<g id="a_edge9_Node000008_Node000009"><a xlink:title=" ">
<path fill="none" stroke="#63b8ff" d="M202.15,-120.99C222.49,-112.61 254.21,-99.55 280.11,-88.87"/>
<polygon fill="#63b8ff" stroke="#63b8ff" points="281.45,-92.11 289.36,-85.06 278.78,-85.64 281.45,-92.11"/>
</a>
</g>
</g>
<!-- Node10 -->
<g id="Node000010" class="node">
<title>Node10</title>
<g id="a_Node000010"><a xlink:href="logger_8hpp.html" target="_top" xlink:title="This file defines a general logger interface.">
<polygon fill="white" stroke="#666666" points="357.5,-19 289.5,-19 289.5,0 357.5,0 357.5,-19"/>
<text text-anchor="middle" x="323.5" y="-7" font-family="Helvetica,sans-Serif" font-size="10.00">logger.hpp</text>
</a>
</g>
</g>
<!-- Node9&#45;&gt;Node10 -->
<g id="edge10_Node000009_Node000010" class="edge">
<title>Node9&#45;&gt;Node10</title>
<g id="a_edge10_Node000009_Node000010"><a xlink:title=" ">
<path fill="none" stroke="#63b8ff" d="M323.5,-54.84C323.5,-47.21 323.5,-37.7 323.5,-29.45"/>
<polygon fill="#63b8ff" stroke="#63b8ff" points="327,-29.27 323.5,-19.27 320,-29.27 327,-29.27"/>
</a>
</g>
</g>
<!-- Node11&#45;&gt;Node9 -->
<g id="edge14_Node000011_Node000009" class="edge">
<title>Node11&#45;&gt;Node9</title>
<g id="a_edge14_Node000011_Node000009"><a xlink:title=" ">
<path fill="none" stroke="#63b8ff" d="M299.7,-175.88C304.23,-155.93 312.56,-119.22 318.06,-94.96"/>
<polygon fill="#63b8ff" stroke="#63b8ff" points="321.5,-95.63 320.3,-85.1 314.67,-94.08 321.5,-95.63"/>
</a>
</g>
</g>
</g>
</svg>
