<?xml version="1.0" encoding="UTF-8" standalone="no"?>
<!DOCTYPE svg PUBLIC "-//W3C//DTD SVG 1.1//EN"
 "http://www.w3.org/Graphics/SVG/1.1/DTD/svg11.dtd">
<!-- Generated by graphviz version 2.43.0 (0)
 -->
<!-- Title: src/core/arm1176jzf_s/isa/branch.cpp Pages: 1 -->
<svg width="249pt" height="148pt"
 viewBox="0.00 0.00 248.50 148.00" xmlns="http://www.w3.org/2000/svg" xmlns:xlink="http://www.w3.org/1999/xlink">
<g id="graph0" class="graph" transform="scale(1 1) rotate(0) translate(4 144)">
<title>src/core/arm1176jzf_s/isa/branch.cpp</title>
<!-- Node1 -->
<g id="Node000001" class="node">
<title>Node1</title>
<g id="a_Node000001"><a xlink:title="This file implements a branch instruction (B, BL) as defined in branch.hpp.">
<polygon fill="#999999" stroke="#666666" points="163,-140 50,-140 50,-110 163,-110 163,-140"/>
<text text-anchor="start" x="58" y="-128" font-family="Helvetica,sans-Serif" font-size="10.00">src/core/arm1176jzf</text>
<text text-anchor="middle" x="106.5" y="-117" font-family="Helvetica,sans-Serif" font-size="10.00">_s/isa/branch.cpp</text>
</a>
</g>
</g>
<!-- Node2 -->
<g id="Node000002" class="node">
<title>Node2</title>
<g id="a_Node000002"><a xlink:href="branch_8hpp.html" target="_top" xlink:title="This file defines a branch instruction (B, BL).">
<polygon fill="white" stroke="#666666" points="80,-74 9,-74 9,-55 80,-55 80,-74"/>
<text text-anchor="middle" x="44.5" y="-62" font-family="Helvetica,sans-Serif" font-size="10.00">branch.hpp</text>
</a>
</g>
</g>
<!-- Node1&#45;&gt;Node2 -->
<g id="edge1_Node000001_Node000002" class="edge">
<title>Node1&#45;&gt;Node2</title>
<g id="a_edge1_Node000001_Node000002"><a xlink:title=" ">
<path fill="none" stroke="#63b8ff" d="M91.49,-109.84C82.31,-101.17 70.55,-90.08 61.09,-81.15"/>
<polygon fill="#63b8ff" stroke="#63b8ff" points="63.47,-78.58 53.79,-74.27 58.66,-83.67 63.47,-78.58"/>
</a>
</g>
</g>
<!-- Node4 -->
<g id="Node000004" class="node">
<title>Node4</title>
<g id="a_Node000004"><a xlink:href="math_8hpp.html" target="_top" xlink:title="This file defines and implements a variety of handy helper functions that are used throughout the pro...">
<polygon fill="white" stroke="#666666" points="240.5,-74 98.5,-74 98.5,-55 240.5,-55 240.5,-74"/>
<text text-anchor="middle" x="169.5" y="-62" font-family="Helvetica,sans-Serif" font-size="10.00">zero_mate/utils/math.hpp</text>
</a>
</g>
</g>
<!-- Node1&#45;&gt;Node4 -->
<g id="edge3_Node000001_Node000004" class="edge">
<title>Node1&#45;&gt;Node4</title>
<g id="a_edge3_Node000001_Node000004"><a xlink:title=" ">
<path fill="none" stroke="#63b8ff" d="M121.75,-109.84C131.08,-101.17 143.03,-90.08 152.65,-81.15"/>
<polygon fill="#63b8ff" stroke="#63b8ff" points="155.11,-83.64 160.06,-74.27 150.35,-78.51 155.11,-83.64"/>
</a>
</g>
</g>
<!-- Node3 -->
<g id="Node000003" class="node">
<title>Node3</title>
<g id="a_Node000003"><a xlink:href="instruction_8hpp.html" target="_top" xlink:title="This file defines the interface of a general ARM instruction.">
<polygon fill="white" stroke="#666666" points="89,-19 0,-19 0,0 89,0 89,-19"/>
<text text-anchor="middle" x="44.5" y="-7" font-family="Helvetica,sans-Serif" font-size="10.00">instruction.hpp</text>
</a>
</g>
</g>
<!-- Node2&#45;&gt;Node3 -->
<g id="edge2_Node000002_Node000003" class="edge">
<title>Node2&#45;&gt;Node3</title>
<g id="a_edge2_Node000002_Node000003"><a xlink:title=" ">
<path fill="none" stroke="#63b8ff" d="M44.5,-54.75C44.5,-47.8 44.5,-37.85 44.5,-29.13"/>
<polygon fill="#63b8ff" stroke="#63b8ff" points="48,-29.09 44.5,-19.09 41,-29.09 48,-29.09"/>
</a>
</g>
</g>
</g>
</svg>
