<?xml version="1.0" encoding="UTF-8" standalone="no"?>
<!DOCTYPE svg PUBLIC "-//W3C//DTD SVG 1.1//EN"
 "http://www.w3.org/Graphics/SVG/1.1/DTD/svg11.dtd">
<!-- Generated by graphviz version 2.43.0 (0)
 -->
<!-- Title: src/core/arm1176jzf_s/isa/branch.hpp Pages: 1 -->
<svg width="1208pt" height="307pt"
 viewBox="0.00 0.00 1208.00 307.00" xmlns="http://www.w3.org/2000/svg" xmlns:xlink="http://www.w3.org/1999/xlink">
<g id="graph0" class="graph" transform="scale(1 1) rotate(0) translate(4 303)">
<title>src/core/arm1176jzf_s/isa/branch.hpp</title>
<!-- Node1 -->
<g id="node1" class="node">
<title>Node1</title>
<g id="a_node1"><a xlink:title="This file defines a branch instruction (B, BL).">
<polygon fill="#bfbfbf" stroke="black" points="402,-268.5 402,-298.5 515,-298.5 515,-268.5 402,-268.5"/>
<text text-anchor="start" x="410" y="-286.5" font-family="Helvetica,sans-Serif" font-size="10.00">src/core/arm1176jzf</text>
<text text-anchor="middle" x="458.5" y="-275.5" font-family="Helvetica,sans-Serif" font-size="10.00">_s/isa/branch.hpp</text>
</a>
</g>
</g>
<!-- Node2 -->
<g id="node2" class="node">
<title>Node2</title>
<g id="a_node2"><a xlink:href="branch_8cpp.html" target="_top" xlink:title="This file implements a branch instruction (B, BL) as defined in branch.hpp.">
<polygon fill="none" stroke="black" points="337,-201.5 337,-231.5 450,-231.5 450,-201.5 337,-201.5"/>
<text text-anchor="start" x="345" y="-219.5" font-family="Helvetica,sans-Serif" font-size="10.00">src/core/arm1176jzf</text>
<text text-anchor="middle" x="393.5" y="-208.5" font-family="Helvetica,sans-Serif" font-size="10.00">_s/isa/branch.cpp</text>
</a>
</g>
</g>
<!-- Node1&#45;&gt;Node2 -->
<g id="edge1" class="edge">
<title>Node1&#45;&gt;Node2</title>
<path fill="none" stroke="midnightblue" d="M437.31,-261.31C427.56,-251.56 416.26,-240.26 407.58,-231.58"/>
<polygon fill="midnightblue" stroke="midnightblue" points="434.85,-263.8 444.4,-268.4 439.8,-258.85 434.85,-263.8"/>
</g>
<!-- Node3 -->
<g id="node3" class="node">
<title>Node3</title>
<g id="a_node3"><a xlink:href="arm1176jzf__s_2isa_2isa_8hpp.html" target="_top" xlink:title="This file is just a helper file for including all ARM instructions supported by the emulator.">
<polygon fill="none" stroke="black" points="468,-201.5 468,-231.5 581,-231.5 581,-201.5 468,-201.5"/>
<text text-anchor="start" x="476" y="-219.5" font-family="Helvetica,sans-Serif" font-size="10.00">src/core/arm1176jzf</text>
<text text-anchor="middle" x="524.5" y="-208.5" font-family="Helvetica,sans-Serif" font-size="10.00">_s/isa/isa.hpp</text>
</a>
</g>
</g>
<!-- Node1&#45;&gt;Node3 -->
<g id="edge2" class="edge">
<title>Node1&#45;&gt;Node3</title>
<path fill="none" stroke="midnightblue" d="M480.01,-261.31C489.91,-251.56 501.39,-240.26 510.21,-231.58"/>
<polygon fill="midnightblue" stroke="midnightblue" points="477.49,-258.89 472.82,-268.4 482.4,-263.87 477.49,-258.89"/>
</g>
<!-- Node4 -->
<g id="node4" class="node">
<title>Node4</title>
<g id="a_node4"><a xlink:href="core_8hpp.html" target="_top" xlink:title="This file defines a class that represents a CPU core (arm1176jzf_s).">
<polygon fill="none" stroke="black" points="468,-134.5 468,-164.5 581,-164.5 581,-134.5 468,-134.5"/>
<text text-anchor="start" x="476" y="-152.5" font-family="Helvetica,sans-Serif" font-size="10.00">src/core/arm1176jzf</text>
<text text-anchor="middle" x="524.5" y="-141.5" font-family="Helvetica,sans-Serif" font-size="10.00">_s/core.hpp</text>
</a>
</g>
</g>
<!-- Node3&#45;&gt;Node4 -->
<g id="edge3" class="edge">
<title>Node3&#45;&gt;Node4</title>
<path fill="none" stroke="midnightblue" d="M524.5,-191.11C524.5,-182.15 524.5,-172.32 524.5,-164.58"/>
<polygon fill="midnightblue" stroke="midnightblue" points="521,-191.4 524.5,-201.4 528,-191.4 521,-191.4"/>
</g>
<!-- Node5 -->
<g id="node5" class="node">
<title>Node5</title>
<g id="a_node5"><a xlink:href="core_8cpp.html" target="_top" xlink:title="This file implements the CCPU_Core class defined in core.hpp.">
<polygon fill="none" stroke="black" points="0,-67.5 0,-97.5 113,-97.5 113,-67.5 0,-67.5"/>
<text text-anchor="start" x="8" y="-85.5" font-family="Helvetica,sans-Serif" font-size="10.00">src/core/arm1176jzf</text>
<text text-anchor="middle" x="56.5" y="-74.5" font-family="Helvetica,sans-Serif" font-size="10.00">_s/core.cpp</text>
</a>
</g>
</g>
<!-- Node4&#45;&gt;Node5 -->
<g id="edge4" class="edge">
<title>Node4&#45;&gt;Node5</title>
<path fill="none" stroke="midnightblue" d="M457.24,-141.95C377.18,-133.71 239.59,-118.17 122.5,-98 119.49,-97.48 116.42,-96.92 113.32,-96.33"/>
<polygon fill="midnightblue" stroke="midnightblue" points="457.37,-145.48 467.67,-143.01 458.08,-138.51 457.37,-145.48"/>
</g>
<!-- Node6 -->
<g id="node6" class="node">
<title>Node6</title>
<g id="a_node6"><a xlink:href="coprocessor_8cpp.html" target="_top" xlink:title="This file implements the common functionality of a general interface of a coprocessor.">
<polygon fill="none" stroke="black" points="131.5,-67.5 131.5,-97.5 253.5,-97.5 253.5,-67.5 131.5,-67.5"/>
<text text-anchor="start" x="139.5" y="-85.5" font-family="Helvetica,sans-Serif" font-size="10.00">src/core/coprocessors</text>
<text text-anchor="middle" x="192.5" y="-74.5" font-family="Helvetica,sans-Serif" font-size="10.00">/coprocessor.cpp</text>
</a>
</g>
</g>
<!-- Node4&#45;&gt;Node6 -->
<g id="edge5" class="edge">
<title>Node4&#45;&gt;Node6</title>
<path fill="none" stroke="midnightblue" d="M458.03,-135.95C405.04,-125.88 328.96,-111.29 262.5,-98 259.58,-97.42 256.59,-96.81 253.57,-96.2"/>
<polygon fill="midnightblue" stroke="midnightblue" points="457.5,-139.41 467.98,-137.84 458.81,-132.54 457.5,-139.41"/>
</g>
<!-- Node7 -->
<g id="node7" class="node">
<title>Node7</title>
<g id="a_node7"><a xlink:href="cp10_8cpp.html" target="_top" xlink:title="This file implements coprocessor CP10 (single&#45;precision FPU).">
<polygon fill="none" stroke="black" points="271.5,-67.5 271.5,-97.5 393.5,-97.5 393.5,-67.5 271.5,-67.5"/>
<text text-anchor="start" x="279.5" y="-85.5" font-family="Helvetica,sans-Serif" font-size="10.00">src/core/coprocessors</text>
<text text-anchor="middle" x="332.5" y="-74.5" font-family="Helvetica,sans-Serif" font-size="10.00">/cp10/cp10.cpp</text>
</a>
</g>
</g>
<!-- Node4&#45;&gt;Node7 -->
<g id="edge6" class="edge">
<title>Node4&#45;&gt;Node7</title>
<path fill="none" stroke="midnightblue" d="M473.08,-131.09C442.08,-120.6 403.12,-107.41 374.08,-97.58"/>
<polygon fill="midnightblue" stroke="midnightblue" points="472.24,-134.5 482.84,-134.4 474.49,-127.87 472.24,-134.5"/>
</g>
<!-- Node8 -->
<g id="node8" class="node">
<title>Node8</title>
<g id="a_node8"><a xlink:href="soc_8hpp.html" target="_top" xlink:title=" ">
<polygon fill="none" stroke="black" points="412,-73 412,-92 507,-92 507,-73 412,-73"/>
<text text-anchor="middle" x="459.5" y="-80" font-family="Helvetica,sans-Serif" font-size="10.00">src/core/soc.hpp</text>
</a>
</g>
</g>
<!-- Node4&#45;&gt;Node8 -->
<g id="edge7" class="edge">
<title>Node4&#45;&gt;Node8</title>
<path fill="none" stroke="midnightblue" d="M503,-127C491.13,-115.13 477.05,-101.05 468.19,-92.19"/>
<polygon fill="midnightblue" stroke="midnightblue" points="500.85,-129.8 510.4,-134.4 505.8,-124.85 500.85,-129.8"/>
</g>
<!-- Node12 -->
<g id="node12" class="node">
<title>Node12</title>
<g id="a_node12"><a xlink:href="control__window_8hpp.html" target="_top" xlink:title="This file defines a window that allows the user to control CPU execution.">
<polygon fill="none" stroke="black" points="525,-67.5 525,-97.5 656,-97.5 656,-67.5 525,-67.5"/>
<text text-anchor="start" x="533" y="-85.5" font-family="Helvetica,sans-Serif" font-size="10.00">src/gui/windows/control</text>
<text text-anchor="middle" x="590.5" y="-74.5" font-family="Helvetica,sans-Serif" font-size="10.00">_window.hpp</text>
</a>
</g>
</g>
<!-- Node4&#45;&gt;Node12 -->
<g id="edge11" class="edge">
<title>Node4&#45;&gt;Node12</title>
<path fill="none" stroke="midnightblue" d="M546.01,-127.31C555.91,-117.56 567.39,-106.26 576.21,-97.58"/>
<polygon fill="midnightblue" stroke="midnightblue" points="543.49,-124.89 538.82,-134.4 548.4,-129.87 543.49,-124.89"/>
</g>
<!-- Node14 -->
<g id="node14" class="node">
<title>Node14</title>
<g id="a_node14"><a xlink:href="registers__window_8hpp.html" target="_top" xlink:title="This file defines a window that displays the contents of all CPU registers.">
<polygon fill="none" stroke="black" points="674.5,-67.5 674.5,-97.5 814.5,-97.5 814.5,-67.5 674.5,-67.5"/>
<text text-anchor="start" x="682.5" y="-85.5" font-family="Helvetica,sans-Serif" font-size="10.00">src/gui/windows/registers</text>
<text text-anchor="middle" x="744.5" y="-74.5" font-family="Helvetica,sans-Serif" font-size="10.00">_window.hpp</text>
</a>
</g>
</g>
<!-- Node4&#45;&gt;Node14 -->
<g id="edge14" class="edge">
<title>Node4&#45;&gt;Node14</title>
<path fill="none" stroke="midnightblue" d="M581.77,-131.58C617.5,-121.02 662.96,-107.59 696.74,-97.61"/>
<polygon fill="midnightblue" stroke="midnightblue" points="580.56,-128.29 571.97,-134.48 582.55,-135 580.56,-128.29"/>
</g>
<!-- Node16 -->
<g id="node16" class="node">
<title>Node16</title>
<g id="a_node16"><a xlink:href="source__code__window_8hpp.html" target="_top" xlink:title="This file defines a window that displays loaded ELF files (disassembled instructions of the source co...">
<polygon fill="none" stroke="black" points="832.5,-67.5 832.5,-97.5 962.5,-97.5 962.5,-67.5 832.5,-67.5"/>
<text text-anchor="start" x="840.5" y="-85.5" font-family="Helvetica,sans-Serif" font-size="10.00">src/gui/windows/source</text>
<text text-anchor="middle" x="897.5" y="-74.5" font-family="Helvetica,sans-Serif" font-size="10.00">_code_window.hpp</text>
</a>
</g>
</g>
<!-- Node4&#45;&gt;Node16 -->
<g id="edge17" class="edge">
<title>Node4&#45;&gt;Node16</title>
<path fill="none" stroke="midnightblue" d="M591.27,-137.74C651.92,-127.84 743.82,-112.53 823.5,-98 826.33,-97.48 829.23,-96.95 832.15,-96.4"/>
<polygon fill="midnightblue" stroke="midnightblue" points="590.37,-134.34 581.06,-139.4 591.5,-141.25 590.37,-134.34"/>
</g>
<!-- Node18 -->
<g id="node18" class="node">
<title>Node18</title>
<g id="a_node18"><a xlink:href="top__bar__menu_8hpp.html" target="_top" xlink:title=" ">
<polygon fill="none" stroke="black" points="981,-67.5 981,-97.5 1094,-97.5 1094,-67.5 981,-67.5"/>
<text text-anchor="start" x="989" y="-85.5" font-family="Helvetica,sans-Serif" font-size="10.00">src/gui/windows/top</text>
<text text-anchor="middle" x="1037.5" y="-74.5" font-family="Helvetica,sans-Serif" font-size="10.00">_bar_menu.hpp</text>
</a>
</g>
</g>
<!-- Node4&#45;&gt;Node18 -->
<g id="edge20" class="edge">
<title>Node4&#45;&gt;Node18</title>
<path fill="none" stroke="midnightblue" d="M591.28,-143.13C678.92,-135.59 837.36,-120.25 971.5,-98 974.51,-97.5 977.59,-96.95 980.69,-96.37"/>
<polygon fill="midnightblue" stroke="midnightblue" points="590.88,-139.66 581.21,-143.99 591.47,-146.63 590.88,-139.66"/>
</g>
<!-- Node9 -->
<g id="node9" class="node">
<title>Node9</title>
<g id="a_node9"><a xlink:href="soc_8cpp.html" target="_top" xlink:title=" ">
<polygon fill="none" stroke="black" points="412,-6 412,-25 507,-25 507,-6 412,-6"/>
<text text-anchor="middle" x="459.5" y="-13" font-family="Helvetica,sans-Serif" font-size="10.00">src/core/soc.cpp</text>
</a>
</g>
</g>
<!-- Node8&#45;&gt;Node9 -->
<g id="edge8" class="edge">
<title>Node8&#45;&gt;Node9</title>
<path fill="none" stroke="midnightblue" d="M459.5,-62.54C459.5,-50.17 459.5,-34.62 459.5,-25.13"/>
<polygon fill="midnightblue" stroke="midnightblue" points="456,-62.73 459.5,-72.73 463,-62.73 456,-62.73"/>
</g>
<!-- Node10 -->
<g id="node10" class="node">
<title>Node10</title>
<g id="a_node10"><a xlink:href="gui_8cpp.html" target="_top" xlink:title="This file implements the main GUI entry function that takes care of creating and rendering all window...">
<polygon fill="none" stroke="black" points="833,-6 833,-25 920,-25 920,-6 833,-6"/>
<text text-anchor="middle" x="876.5" y="-13" font-family="Helvetica,sans-Serif" font-size="10.00">src/gui/gui.cpp</text>
</a>
</g>
</g>
<!-- Node8&#45;&gt;Node10 -->
<g id="edge9" class="edge">
<title>Node8&#45;&gt;Node10</title>
<path fill="none" stroke="midnightblue" d="M499,-70.55C504.52,-69.24 510.13,-68 515.5,-67 650.97,-41.67 688.2,-57.26 823.5,-31 831.65,-29.42 840.38,-27.24 848.36,-25.05"/>
<polygon fill="midnightblue" stroke="midnightblue" points="498.12,-67.17 489.26,-72.99 499.81,-73.96 498.12,-67.17"/>
</g>
<!-- Node11 -->
<g id="node11" class="node">
<title>Node11</title>
<g id="a_node11"><a xlink:href="main_8cpp.html" target="_top" xlink:title="This file defines and implements the main function of the application.">
<polygon fill="none" stroke="black" points="315,-6 315,-25 394,-25 394,-6 315,-6"/>
<text text-anchor="middle" x="354.5" y="-13" font-family="Helvetica,sans-Serif" font-size="10.00">src/main.cpp</text>
</a>
</g>
</g>
<!-- Node8&#45;&gt;Node11 -->
<g id="edge10" class="edge">
<title>Node8&#45;&gt;Node11</title>
<path fill="none" stroke="midnightblue" d="M436.79,-67.44C416,-54.57 385.88,-35.93 368.44,-25.13"/>
<polygon fill="midnightblue" stroke="midnightblue" points="434.99,-70.45 445.34,-72.73 438.68,-64.49 434.99,-70.45"/>
</g>
<!-- Node12&#45;&gt;Node10 -->
<g id="edge12" class="edge">
<title>Node12&#45;&gt;Node10</title>
<path fill="none" stroke="midnightblue" d="M666.08,-66.19C711.79,-56.66 771.16,-43.82 823.5,-31 830.91,-29.18 838.87,-27.09 846.3,-25.06"/>
<polygon fill="midnightblue" stroke="midnightblue" points="665.33,-62.77 656.25,-68.23 666.75,-69.62 665.33,-62.77"/>
</g>
<!-- Node13 -->
<g id="node13" class="node">
<title>Node13</title>
<g id="a_node13"><a xlink:href="control__window_8cpp.html" target="_top" xlink:title="This file implements a window that allows the user to control CPU execution.">
<polygon fill="none" stroke="black" points="525,-0.5 525,-30.5 656,-30.5 656,-0.5 525,-0.5"/>
<text text-anchor="start" x="533" y="-18.5" font-family="Helvetica,sans-Serif" font-size="10.00">src/gui/windows/control</text>
<text text-anchor="middle" x="590.5" y="-7.5" font-family="Helvetica,sans-Serif" font-size="10.00">_window.cpp</text>
</a>
</g>
</g>
<!-- Node12&#45;&gt;Node13 -->
<g id="edge13" class="edge">
<title>Node12&#45;&gt;Node13</title>
<path fill="none" stroke="midnightblue" d="M590.5,-57.11C590.5,-48.15 590.5,-38.32 590.5,-30.58"/>
<polygon fill="midnightblue" stroke="midnightblue" points="587,-57.4 590.5,-67.4 594,-57.4 587,-57.4"/>
</g>
<!-- Node14&#45;&gt;Node10 -->
<g id="edge15" class="edge">
<title>Node14&#45;&gt;Node10</title>
<path fill="none" stroke="midnightblue" d="M782.14,-62.97C807.49,-50.48 839.75,-34.6 859.22,-25.01"/>
<polygon fill="midnightblue" stroke="midnightblue" points="780.57,-59.84 773.14,-67.4 783.66,-66.12 780.57,-59.84"/>
</g>
<!-- Node15 -->
<g id="node15" class="node">
<title>Node15</title>
<g id="a_node15"><a xlink:href="registers__window_8cpp.html" target="_top" xlink:title="This file implements a window that displays the contents of all CPU registers.">
<polygon fill="none" stroke="black" points="674.5,-0.5 674.5,-30.5 814.5,-30.5 814.5,-0.5 674.5,-0.5"/>
<text text-anchor="start" x="682.5" y="-18.5" font-family="Helvetica,sans-Serif" font-size="10.00">src/gui/windows/registers</text>
<text text-anchor="middle" x="744.5" y="-7.5" font-family="Helvetica,sans-Serif" font-size="10.00">_window.cpp</text>
</a>
</g>
</g>
<!-- Node14&#45;&gt;Node15 -->
<g id="edge16" class="edge">
<title>Node14&#45;&gt;Node15</title>
<path fill="none" stroke="midnightblue" d="M744.5,-57.11C744.5,-48.15 744.5,-38.32 744.5,-30.58"/>
<polygon fill="midnightblue" stroke="midnightblue" points="741,-57.4 744.5,-67.4 748,-57.4 741,-57.4"/>
</g>
<!-- Node16&#45;&gt;Node10 -->
<g id="edge18" class="edge">
<title>Node16&#45;&gt;Node10</title>
<path fill="none" stroke="midnightblue" d="M889.78,-57.6C886.12,-46.28 881.98,-33.46 879.31,-25.19"/>
<polygon fill="midnightblue" stroke="midnightblue" points="886.54,-58.96 892.94,-67.4 893.2,-56.8 886.54,-58.96"/>
</g>
<!-- Node17 -->
<g id="node17" class="node">
<title>Node17</title>
<g id="a_node17"><a xlink:href="source__code__window_8cpp.html" target="_top" xlink:title="This file implements a window that displays loaded ELF files (disassembled instructions of the source...">
<polygon fill="none" stroke="black" points="938.5,-0.5 938.5,-30.5 1068.5,-30.5 1068.5,-0.5 938.5,-0.5"/>
<text text-anchor="start" x="946.5" y="-18.5" font-family="Helvetica,sans-Serif" font-size="10.00">src/gui/windows/source</text>
<text text-anchor="middle" x="1003.5" y="-7.5" font-family="Helvetica,sans-Serif" font-size="10.00">_code_window.cpp</text>
</a>
</g>
</g>
<!-- Node16&#45;&gt;Node17 -->
<g id="edge19" class="edge">
<title>Node16&#45;&gt;Node17</title>
<path fill="none" stroke="midnightblue" d="M929.28,-62.02C945.77,-51.9 965.55,-39.77 980.54,-30.58"/>
<polygon fill="midnightblue" stroke="midnightblue" points="927.2,-59.18 920.5,-67.4 930.85,-65.15 927.2,-59.18"/>
</g>
<!-- Node18&#45;&gt;Node10 -->
<g id="edge21" class="edge">
<title>Node18&#45;&gt;Node10</title>
<path fill="none" stroke="midnightblue" d="M993.22,-63.62C962.05,-51.04 921.74,-34.77 897.57,-25.01"/>
<polygon fill="midnightblue" stroke="midnightblue" points="991.98,-66.9 1002.57,-67.4 994.6,-60.41 991.98,-66.9"/>
</g>
<!-- Node19 -->
<g id="node19" class="node">
<title>Node19</title>
<g id="a_node19"><a xlink:href="top__bar__menu_8cpp.html" target="_top" xlink:title=" ">
<polygon fill="none" stroke="black" points="1087,-0.5 1087,-30.5 1200,-30.5 1200,-0.5 1087,-0.5"/>
<text text-anchor="start" x="1095" y="-18.5" font-family="Helvetica,sans-Serif" font-size="10.00">src/gui/windows/top</text>
<text text-anchor="middle" x="1143.5" y="-7.5" font-family="Helvetica,sans-Serif" font-size="10.00">_bar_menu.cpp</text>
</a>
</g>
</g>
<!-- Node18&#45;&gt;Node19 -->
<g id="edge22" class="edge">
<title>Node18&#45;&gt;Node19</title>
<path fill="none" stroke="midnightblue" d="M1069.28,-62.02C1085.77,-51.9 1105.55,-39.77 1120.54,-30.58"/>
<polygon fill="midnightblue" stroke="midnightblue" points="1067.2,-59.18 1060.5,-67.4 1070.85,-65.15 1067.2,-59.18"/>
</g>
</g>
</svg>
