<?xml version="1.0" encoding="UTF-8" standalone="no"?>
<!DOCTYPE svg PUBLIC "-//W3C//DTD SVG 1.1//EN"
 "http://www.w3.org/Graphics/SVG/1.1/DTD/svg11.dtd">
<!-- Generated by graphviz version 2.43.0 (0)
 -->
<!-- Title: src/core/peripherals/bsc.cpp Pages: 1 -->
<svg width="628pt" height="390pt"
 viewBox="0.00 0.00 627.50 390.00" xmlns="http://www.w3.org/2000/svg" xmlns:xlink="http://www.w3.org/1999/xlink">
<g id="graph0" class="graph" transform="scale(1 1) rotate(0) translate(4 386)">
<title>src/core/peripherals/bsc.cpp</title>
<!-- Node1 -->
<g id="Node000001" class="node">
<title>Node1</title>
<g id="a_Node000001"><a xlink:title="This file implements the BSC peripheral used in BCM2835.">
<polygon fill="#999999" stroke="#666666" points="481,-382 368,-382 368,-352 481,-352 481,-382"/>
<text text-anchor="start" x="376" y="-370" font-family="Helvetica,sans-Serif" font-size="10.00">src/core/peripherals</text>
<text text-anchor="middle" x="424.5" y="-359" font-family="Helvetica,sans-Serif" font-size="10.00">/bsc.cpp</text>
</a>
</g>
</g>
<!-- Node2 -->
<g id="Node000002" class="node">
<title>Node2</title>
<g id="a_Node000002"><a xlink:href="bsc_8hpp.html" target="_top" xlink:title="This file defines the BSC peripheral used in BCM2835.">
<polygon fill="white" stroke="#666666" points="388.5,-316 334.5,-316 334.5,-297 388.5,-297 388.5,-316"/>
<text text-anchor="middle" x="361.5" y="-304" font-family="Helvetica,sans-Serif" font-size="10.00">bsc.hpp</text>
</a>
</g>
</g>
<!-- Node1&#45;&gt;Node2 -->
<g id="edge1_Node000001_Node000002" class="edge">
<title>Node1&#45;&gt;Node2</title>
<g id="a_edge1_Node000001_Node000002"><a xlink:title=" ">
<path fill="none" stroke="#63b8ff" d="M409.25,-351.84C399.92,-343.17 387.97,-332.08 378.35,-323.15"/>
<polygon fill="#63b8ff" stroke="#63b8ff" points="380.65,-320.51 370.94,-316.27 375.89,-325.64 380.65,-320.51"/>
</a>
</g>
</g>
<!-- Node11 -->
<g id="Node000011" class="node">
<title>Node11</title>
<g id="a_Node000011"><a xlink:href="singleton_8hpp.html" target="_top" xlink:title="This file defines and implements a generic class that is used to treat other classes as singletons.">
<polygon fill="white" stroke="#666666" points="568,-316 407,-316 407,-297 568,-297 568,-316"/>
<text text-anchor="middle" x="487.5" y="-304" font-family="Helvetica,sans-Serif" font-size="10.00">zero_mate/utils/singleton.hpp</text>
</a>
</g>
</g>
<!-- Node1&#45;&gt;Node11 -->
<g id="edge16_Node000001_Node000011" class="edge">
<title>Node1&#45;&gt;Node11</title>
<g id="a_edge16_Node000001_Node000011"><a xlink:title=" ">
<path fill="none" stroke="#63b8ff" d="M439.75,-351.84C449.08,-343.17 461.03,-332.08 470.65,-323.15"/>
<polygon fill="#63b8ff" stroke="#63b8ff" points="473.11,-325.64 478.06,-316.27 468.35,-320.51 473.11,-325.64"/>
</a>
</g>
</g>
<!-- Node3 -->
<g id="Node000003" class="node">
<title>Node3</title>
<g id="a_Node000003"><a xlink:href="gpio_8hpp.html" target="_top" xlink:title="This file defines the GPIO controller used in BCM2835.">
<polygon fill="white" stroke="#666666" points="307,-261 248,-261 248,-242 307,-242 307,-261"/>
<text text-anchor="middle" x="277.5" y="-249" font-family="Helvetica,sans-Serif" font-size="10.00">gpio.hpp</text>
</a>
</g>
</g>
<!-- Node2&#45;&gt;Node3 -->
<g id="edge2_Node000002_Node000003" class="edge">
<title>Node2&#45;&gt;Node3</title>
<g id="a_edge2_Node000002_Node000003"><a xlink:title=" ">
<path fill="none" stroke="#63b8ff" d="M348,-296.98C335.1,-288.84 315.4,-276.41 300.1,-266.76"/>
<polygon fill="#63b8ff" stroke="#63b8ff" points="301.57,-263.55 291.24,-261.17 297.83,-269.47 301.57,-263.55"/>
</a>
</g>
</g>
<!-- Node4 -->
<g id="Node000004" class="node">
<title>Node4</title>
<g id="a_Node000004"><a xlink:href="peripheral_8hpp.html" target="_top" xlink:title="This file defines an interface for a memory&#45;mapped peripheral.">
<polygon fill="white" stroke="#666666" points="87,-140 0,-140 0,-121 87,-121 87,-140"/>
<text text-anchor="middle" x="43.5" y="-128" font-family="Helvetica,sans-Serif" font-size="10.00">peripheral.hpp</text>
</a>
</g>
</g>
<!-- Node2&#45;&gt;Node4 -->
<g id="edge13_Node000002_Node000004" class="edge">
<title>Node2&#45;&gt;Node4</title>
<g id="a_edge13_Node000002_Node000004"><a xlink:title=" ">
<path fill="none" stroke="#63b8ff" d="M334.1,-303.58C277.72,-298.21 147.68,-278.26 72.5,-206 57.05,-191.15 49.69,-167.12 46.28,-150.38"/>
<polygon fill="#63b8ff" stroke="#63b8ff" points="49.66,-149.41 44.5,-140.16 42.77,-150.61 49.66,-149.41"/>
</a>
</g>
</g>
<!-- Node7 -->
<g id="Node000007" class="node">
<title>Node7</title>
<g id="a_Node000007"><a xlink:href="logging__system_8hpp.html" target="_top" xlink:title="This file defines a logging system that is used in the project.">
<polygon fill="white" stroke="#666666" points="389,-85 258,-85 258,-55 389,-55 389,-85"/>
<text text-anchor="start" x="266" y="-73" font-family="Helvetica,sans-Serif" font-size="10.00">zero_mate/utils/logging</text>
<text text-anchor="middle" x="323.5" y="-62" font-family="Helvetica,sans-Serif" font-size="10.00">_system.hpp</text>
</a>
</g>
</g>
<!-- Node2&#45;&gt;Node7 -->
<g id="edge15_Node000002_Node000007" class="edge">
<title>Node2&#45;&gt;Node7</title>
<g id="a_edge15_Node000002_Node000007"><a xlink:title=" ">
<path fill="none" stroke="#63b8ff" d="M371.52,-296.92C394.14,-276.47 445.72,-223.04 426.5,-176 411.9,-140.26 378.62,-110.12 353.82,-91.42"/>
<polygon fill="#63b8ff" stroke="#63b8ff" points="355.58,-88.38 345.45,-85.3 351.45,-94.03 355.58,-88.38"/>
</a>
</g>
</g>
<!-- Node10 -->
<g id="Node000010" class="node">
<title>Node10</title>
<g id="a_Node000010"><a xlink:href="system__clock__listener_8hpp.html" target="_top" xlink:title="This file defines an interface for a CPU clock listener.">
<polygon fill="white" stroke="#666666" points="619.5,-261 473.5,-261 473.5,-242 619.5,-242 619.5,-261"/>
<text text-anchor="middle" x="546.5" y="-249" font-family="Helvetica,sans-Serif" font-size="10.00">system_clock_listener.hpp</text>
</a>
</g>
</g>
<!-- Node2&#45;&gt;Node10 -->
<g id="edge14_Node000002_Node000010" class="edge">
<title>Node2&#45;&gt;Node10</title>
<g id="a_edge14_Node000002_Node000010"><a xlink:title=" ">
<path fill="none" stroke="#63b8ff" d="M388.8,-297.68C419.9,-288.77 471.01,-274.13 506.59,-263.93"/>
<polygon fill="#63b8ff" stroke="#63b8ff" points="507.99,-267.17 516.64,-261.06 506.06,-260.45 507.99,-267.17"/>
</a>
</g>
</g>
<!-- Node3&#45;&gt;Node4 -->
<g id="edge3_Node000003_Node000004" class="edge">
<title>Node3&#45;&gt;Node4</title>
<g id="a_edge3_Node000003_Node000004"><a xlink:title=" ">
<path fill="none" stroke="#63b8ff" d="M247.73,-248.11C212.02,-244.09 151.48,-233.49 107.5,-206 84.41,-191.57 65.23,-166.16 54.06,-149.08"/>
<polygon fill="#63b8ff" stroke="#63b8ff" points="56.72,-146.74 48.44,-140.13 50.79,-150.46 56.72,-146.74"/>
</a>
</g>
</g>
<!-- Node5 -->
<g id="Node000005" class="node">
<title>Node5</title>
<g id="a_Node000005"><a xlink:href="interrupt__controller_8hpp.html" target="_top" xlink:title="This file defines the interrupt controller used in BCM2835.">
<polygon fill="white" stroke="#666666" points="248,-200.5 117,-200.5 117,-181.5 248,-181.5 248,-200.5"/>
<text text-anchor="middle" x="182.5" y="-188.5" font-family="Helvetica,sans-Serif" font-size="10.00">interrupt_controller.hpp</text>
</a>
</g>
</g>
<!-- Node3&#45;&gt;Node5 -->
<g id="edge4_Node000003_Node000005" class="edge">
<title>Node3&#45;&gt;Node5</title>
<g id="a_edge4_Node000003_Node000005"><a xlink:title=" ">
<path fill="none" stroke="#63b8ff" d="M263.48,-241.87C248.19,-232.45 223.47,-217.23 205.36,-206.08"/>
<polygon fill="#63b8ff" stroke="#63b8ff" points="206.93,-202.93 196.58,-200.67 203.25,-208.89 206.93,-202.93"/>
</a>
</g>
</g>
<!-- Node3&#45;&gt;Node7 -->
<g id="edge10_Node000003_Node000007" class="edge">
<title>Node3&#45;&gt;Node7</title>
<g id="a_edge10_Node000003_Node000007"><a xlink:title=" ">
<path fill="none" stroke="#63b8ff" d="M279.72,-241.78C283.26,-227.87 290.41,-199.79 296.5,-176 303.61,-148.23 311.81,-116.35 317.3,-95.07"/>
<polygon fill="#63b8ff" stroke="#63b8ff" points="320.72,-95.82 319.82,-85.26 313.94,-94.07 320.72,-95.82"/>
</a>
</g>
</g>
<!-- Node9 -->
<g id="Node000009" class="node">
<title>Node9</title>
<g id="a_Node000009"><a xlink:href="external__peripheral_8hpp.html" target="_top" xlink:title="This file defines an interface for external peripherals that can be attached to the system via GPIO p...">
<polygon fill="white" stroke="#666666" points="417.5,-206 305.5,-206 305.5,-176 417.5,-176 417.5,-206"/>
<text text-anchor="start" x="313.5" y="-194" font-family="Helvetica,sans-Serif" font-size="10.00">zero_mate/external</text>
<text text-anchor="middle" x="361.5" y="-183" font-family="Helvetica,sans-Serif" font-size="10.00">_peripheral.hpp</text>
</a>
</g>
</g>
<!-- Node3&#45;&gt;Node9 -->
<g id="edge11_Node000003_Node000009" class="edge">
<title>Node3&#45;&gt;Node9</title>
<g id="a_edge11_Node000003_Node000009"><a xlink:title=" ">
<path fill="none" stroke="#63b8ff" d="M289.89,-241.87C301.19,-234 318.29,-222.09 332.95,-211.89"/>
<polygon fill="#63b8ff" stroke="#63b8ff" points="335.03,-214.7 341.23,-206.11 331.03,-208.96 335.03,-214.7"/>
</a>
</g>
</g>
<!-- Node5&#45;&gt;Node4 -->
<g id="edge5_Node000005_Node000004" class="edge">
<title>Node5&#45;&gt;Node4</title>
<g id="a_edge5_Node000005_Node000004"><a xlink:title=" ">
<path fill="none" stroke="#63b8ff" d="M162.29,-181.49C138.82,-171.62 99.89,-155.23 73.04,-143.93"/>
<polygon fill="#63b8ff" stroke="#63b8ff" points="74.31,-140.67 63.74,-140.02 71.6,-147.12 74.31,-140.67"/>
</a>
</g>
</g>
<!-- Node6 -->
<g id="Node000006" class="node">
<title>Node6</title>
<g id="a_Node000006"><a xlink:href="context_8hpp.html" target="_top" xlink:title="This file defines the context (registers) of the CPU.">
<polygon fill="white" stroke="#666666" points="295.5,-140 143.5,-140 143.5,-121 295.5,-121 295.5,-140"/>
<text text-anchor="middle" x="219.5" y="-128" font-family="Helvetica,sans-Serif" font-size="10.00">../arm1176jzf_s/context.hpp</text>
</a>
</g>
</g>
<!-- Node5&#45;&gt;Node6 -->
<g id="edge6_Node000005_Node000006" class="edge">
<title>Node5&#45;&gt;Node6</title>
<g id="a_edge6_Node000005_Node000006"><a xlink:title=" ">
<path fill="none" stroke="#63b8ff" d="M187.96,-181.37C193.37,-172.81 201.81,-159.47 208.6,-148.74"/>
<polygon fill="#63b8ff" stroke="#63b8ff" points="211.63,-150.49 214.02,-140.17 205.71,-146.75 211.63,-150.49"/>
</a>
</g>
</g>
<!-- Node5&#45;&gt;Node7 -->
<g id="edge9_Node000005_Node000007" class="edge">
<title>Node5&#45;&gt;Node7</title>
<g id="a_edge9_Node000005_Node000007"><a xlink:title=" ">
<path fill="none" stroke="#63b8ff" d="M168.73,-181.31C149.39,-168.04 118.3,-142.04 134.5,-121 148.63,-102.65 201.42,-89.65 247.62,-81.52"/>
<polygon fill="#63b8ff" stroke="#63b8ff" points="248.4,-84.94 257.67,-79.8 247.22,-78.03 248.4,-84.94"/>
</a>
</g>
</g>
<!-- Node6&#45;&gt;Node7 -->
<g id="edge7_Node000006_Node000007" class="edge">
<title>Node6&#45;&gt;Node7</title>
<g id="a_edge7_Node000006_Node000007"><a xlink:title=" ">
<path fill="none" stroke="#63b8ff" d="M234.85,-120.87C249.22,-112.78 271.19,-100.42 289.67,-90.03"/>
<polygon fill="#63b8ff" stroke="#63b8ff" points="291.41,-93.07 298.41,-85.11 287.98,-86.97 291.41,-93.07"/>
</a>
</g>
</g>
<!-- Node8 -->
<g id="Node000008" class="node">
<title>Node8</title>
<g id="a_Node000008"><a xlink:href="logger_8hpp.html" target="_top" xlink:title="This file defines a general logger interface.">
<polygon fill="white" stroke="#666666" points="357.5,-19 289.5,-19 289.5,0 357.5,0 357.5,-19"/>
<text text-anchor="middle" x="323.5" y="-7" font-family="Helvetica,sans-Serif" font-size="10.00">logger.hpp</text>
</a>
</g>
</g>
<!-- Node7&#45;&gt;Node8 -->
<g id="edge8_Node000007_Node000008" class="edge">
<title>Node7&#45;&gt;Node8</title>
<g id="a_edge8_Node000007_Node000008"><a xlink:title=" ">
<path fill="none" stroke="#63b8ff" d="M323.5,-54.84C323.5,-47.21 323.5,-37.7 323.5,-29.45"/>
<polygon fill="#63b8ff" stroke="#63b8ff" points="327,-29.27 323.5,-19.27 320,-29.27 327,-29.27"/>
</a>
</g>
</g>
<!-- Node9&#45;&gt;Node7 -->
<g id="edge12_Node000009_Node000007" class="edge">
<title>Node9&#45;&gt;Node7</title>
<g id="a_edge12_Node000009_Node000007"><a xlink:title=" ">
<path fill="none" stroke="#63b8ff" d="M356.99,-175.88C350.59,-155.84 338.79,-118.89 331.05,-94.63"/>
<polygon fill="#63b8ff" stroke="#63b8ff" points="334.38,-93.56 328,-85.1 327.71,-95.69 334.38,-93.56"/>
</a>
</g>
</g>
</g>
</svg>
