<?xml version="1.0" encoding="UTF-8" standalone="no"?>
<!DOCTYPE svg PUBLIC "-//W3C//DTD SVG 1.1//EN"
 "http://www.w3.org/Graphics/SVG/1.1/DTD/svg11.dtd">
<!-- Generated by graphviz version 2.43.0 (0)
 -->
<!-- Title: src/core/bus.hpp Pages: 1 -->
<svg width="1400pt" height="296pt"
 viewBox="0.00 0.00 1400.19 296.00" xmlns="http://www.w3.org/2000/svg" xmlns:xlink="http://www.w3.org/1999/xlink">
<g id="graph0" class="graph" transform="scale(1 1) rotate(0) translate(4 292)">
<title>src/core/bus.hpp</title>
<!-- Node1 -->
<g id="node1" class="node">
<title>Node1</title>
<g id="a_node1"><a xlink:title="This file defines an interface the CPU uses to access different memory&#45;mapped peripherals.">
<polygon fill="#bfbfbf" stroke="black" points="942.5,-268.5 942.5,-287.5 1038.5,-287.5 1038.5,-268.5 942.5,-268.5"/>
<text text-anchor="middle" x="990.5" y="-275.5" font-family="Helvetica,sans-Serif" font-size="10.00">src/core/bus.hpp</text>
</a>
</g>
</g>
<!-- Node2 -->
<g id="node2" class="node">
<title>Node2</title>
<g id="a_node2"><a xlink:href="core_8hpp.html" target="_top" xlink:title="This file defines a class that represents a CPU core (arm1176jzf_s).">
<polygon fill="none" stroke="black" points="679,-134.5 679,-164.5 792,-164.5 792,-134.5 679,-134.5"/>
<text text-anchor="start" x="687" y="-152.5" font-family="Helvetica,sans-Serif" font-size="10.00">src/core/arm1176jzf</text>
<text text-anchor="middle" x="735.5" y="-141.5" font-family="Helvetica,sans-Serif" font-size="10.00">_s/core.hpp</text>
</a>
</g>
</g>
<!-- Node1&#45;&gt;Node2 -->
<g id="edge1" class="edge">
<title>Node1&#45;&gt;Node2</title>
<path fill="none" stroke="midnightblue" d="M932.38,-269.3C897.91,-262.94 854.3,-251.64 819.5,-232 788.53,-214.52 760.65,-182.86 746.11,-164.57"/>
<polygon fill="midnightblue" stroke="midnightblue" points="931.85,-272.76 942.31,-271.05 933.06,-265.87 931.85,-272.76"/>
</g>
<!-- Node6 -->
<g id="node6" class="node">
<title>Node6</title>
<g id="a_node6"><a xlink:href="soc_8hpp.html" target="_top" xlink:title=" ">
<polygon fill="none" stroke="black" points="859,-73 859,-92 954,-92 954,-73 859,-73"/>
<text text-anchor="middle" x="906.5" y="-80" font-family="Helvetica,sans-Serif" font-size="10.00">src/core/soc.hpp</text>
</a>
</g>
</g>
<!-- Node1&#45;&gt;Node6 -->
<g id="edge32" class="edge">
<title>Node1&#45;&gt;Node6</title>
<path fill="none" stroke="midnightblue" d="M992.35,-257.94C994.22,-229.09 994.19,-173.51 971.5,-134 960.54,-114.91 939.25,-100.52 924.02,-92.07"/>
<polygon fill="midnightblue" stroke="midnightblue" points="988.83,-257.98 991.52,-268.23 995.81,-258.54 988.83,-257.98"/>
</g>
<!-- Node16 -->
<g id="node16" class="node">
<title>Node16</title>
<g id="a_node16"><a xlink:href="top__bar__menu_8hpp.html" target="_top" xlink:title=" ">
<polygon fill="none" stroke="black" points="972,-67.5 972,-97.5 1085,-97.5 1085,-67.5 972,-67.5"/>
<text text-anchor="start" x="980" y="-85.5" font-family="Helvetica,sans-Serif" font-size="10.00">src/gui/windows/top</text>
<text text-anchor="middle" x="1028.5" y="-74.5" font-family="Helvetica,sans-Serif" font-size="10.00">_bar_menu.hpp</text>
</a>
</g>
</g>
<!-- Node1&#45;&gt;Node16 -->
<g id="edge33" class="edge">
<title>Node1&#45;&gt;Node16</title>
<path fill="none" stroke="midnightblue" d="M996.77,-258.91C999.43,-250.76 1002.39,-240.97 1004.5,-232 1015.98,-183.19 1023.74,-124.06 1026.9,-97.55"/>
<polygon fill="midnightblue" stroke="midnightblue" points="993.42,-257.88 993.55,-268.47 1000.06,-260.11 993.42,-257.88"/>
</g>
<!-- Node18 -->
<g id="node18" class="node">
<title>Node18</title>
<g id="a_node18"><a xlink:href="mmu_8hpp.html" target="_top" xlink:title="This file defines the MMU (memory management unit) of the CPU.">
<polygon fill="none" stroke="black" points="828,-201.5 828,-231.5 941,-231.5 941,-201.5 828,-201.5"/>
<text text-anchor="start" x="836" y="-219.5" font-family="Helvetica,sans-Serif" font-size="10.00">src/core/arm1176jzf</text>
<text text-anchor="middle" x="884.5" y="-208.5" font-family="Helvetica,sans-Serif" font-size="10.00">_s/mmu/mmu.hpp</text>
</a>
</g>
</g>
<!-- Node1&#45;&gt;Node18 -->
<g id="edge21" class="edge">
<title>Node1&#45;&gt;Node18</title>
<path fill="none" stroke="midnightblue" d="M966.52,-263.54C949.51,-253.99 926.72,-241.2 909.48,-231.52"/>
<polygon fill="midnightblue" stroke="midnightblue" points="964.88,-266.63 975.31,-268.48 968.31,-260.53 964.88,-266.63"/>
</g>
<!-- Node20 -->
<g id="node20" class="node">
<title>Node20</title>
<g id="a_node20"><a xlink:href="bus_8cpp.html" target="_top" xlink:title="This file implements the interface defined in bus.hpp.">
<polygon fill="none" stroke="black" points="1095,-207 1095,-226 1190,-226 1190,-207 1095,-207"/>
<text text-anchor="middle" x="1142.5" y="-214" font-family="Helvetica,sans-Serif" font-size="10.00">src/core/bus.cpp</text>
</a>
</g>
</g>
<!-- Node1&#45;&gt;Node20 -->
<g id="edge25" class="edge">
<title>Node1&#45;&gt;Node20</title>
<path fill="none" stroke="midnightblue" d="M1021.71,-264.78C1051.25,-253.22 1094.82,-236.16 1120.76,-226.01"/>
<polygon fill="midnightblue" stroke="midnightblue" points="1020.31,-261.57 1012.28,-268.48 1022.87,-268.09 1020.31,-261.57"/>
</g>
<!-- Node21 -->
<g id="node21" class="node">
<title>Node21</title>
<g id="a_node21"><a xlink:href="cp10_8hpp.html" target="_top" xlink:title="This file defines coprocessor CP10 (single&#45;precision FPU).">
<polygon fill="none" stroke="black" points="339.5,-134.5 339.5,-164.5 461.5,-164.5 461.5,-134.5 339.5,-134.5"/>
<text text-anchor="start" x="347.5" y="-152.5" font-family="Helvetica,sans-Serif" font-size="10.00">src/core/coprocessors</text>
<text text-anchor="middle" x="400.5" y="-141.5" font-family="Helvetica,sans-Serif" font-size="10.00">/cp10/cp10.hpp</text>
</a>
</g>
</g>
<!-- Node1&#45;&gt;Node21 -->
<g id="edge26" class="edge">
<title>Node1&#45;&gt;Node21</title>
<path fill="none" stroke="midnightblue" d="M939.44,-266.36C896.07,-257.29 832.18,-243.89 776.5,-232 665.45,-208.29 536.08,-180.13 461.69,-163.89"/>
<polygon fill="midnightblue" stroke="midnightblue" points="938.95,-269.83 949.46,-268.45 940.39,-262.98 938.95,-269.83"/>
</g>
<!-- Node24 -->
<g id="node24" class="node">
<title>Node24</title>
<g id="a_node24"><a xlink:href="elf__loader_8hpp.html" target="_top" xlink:title="This file defines the functionality of an ELF loader.">
<polygon fill="none" stroke="black" points="1105,-140 1105,-159 1232,-159 1232,-140 1105,-140"/>
<text text-anchor="middle" x="1168.5" y="-147" font-family="Helvetica,sans-Serif" font-size="10.00">src/utils/elf_loader.hpp</text>
</a>
</g>
</g>
<!-- Node1&#45;&gt;Node24 -->
<g id="edge34" class="edge">
<title>Node1&#45;&gt;Node24</title>
<path fill="none" stroke="midnightblue" d="M1008.36,-261.82C1027.28,-245.99 1058.26,-220.77 1086.5,-201 1109.1,-185.18 1136.63,-168.77 1153.35,-159.11"/>
<polygon fill="midnightblue" stroke="midnightblue" points="1005.96,-259.26 1000.57,-268.38 1010.47,-264.62 1005.96,-259.26"/>
</g>
<!-- Node3 -->
<g id="node3" class="node">
<title>Node3</title>
<g id="a_node3"><a xlink:href="core_8cpp.html" target="_top" xlink:title="This file implements the CCPU_Core class defined in core.hpp.">
<polygon fill="none" stroke="black" points="728,-67.5 728,-97.5 841,-97.5 841,-67.5 728,-67.5"/>
<text text-anchor="start" x="736" y="-85.5" font-family="Helvetica,sans-Serif" font-size="10.00">src/core/arm1176jzf</text>
<text text-anchor="middle" x="784.5" y="-74.5" font-family="Helvetica,sans-Serif" font-size="10.00">_s/core.cpp</text>
</a>
</g>
</g>
<!-- Node2&#45;&gt;Node3 -->
<g id="edge2" class="edge">
<title>Node2&#45;&gt;Node3</title>
<path fill="none" stroke="midnightblue" d="M752.34,-126.16C759.49,-116.68 767.6,-105.92 773.89,-97.58"/>
<polygon fill="midnightblue" stroke="midnightblue" points="749.36,-124.3 746.13,-134.4 754.95,-128.52 749.36,-124.3"/>
</g>
<!-- Node4 -->
<g id="node4" class="node">
<title>Node4</title>
<g id="a_node4"><a xlink:href="coprocessor_8cpp.html" target="_top" xlink:title="This file implements the common functionality of a general interface of a coprocessor.">
<polygon fill="none" stroke="black" points="279.5,-67.5 279.5,-97.5 401.5,-97.5 401.5,-67.5 279.5,-67.5"/>
<text text-anchor="start" x="287.5" y="-85.5" font-family="Helvetica,sans-Serif" font-size="10.00">src/core/coprocessors</text>
<text text-anchor="middle" x="340.5" y="-74.5" font-family="Helvetica,sans-Serif" font-size="10.00">/coprocessor.cpp</text>
</a>
</g>
</g>
<!-- Node2&#45;&gt;Node4 -->
<g id="edge3" class="edge">
<title>Node2&#45;&gt;Node4</title>
<path fill="none" stroke="midnightblue" d="M668.76,-139.13C602.94,-129.65 499.57,-114.13 410.5,-98 407.57,-97.47 404.57,-96.91 401.55,-96.33"/>
<polygon fill="midnightblue" stroke="midnightblue" points="668.6,-142.64 678.99,-140.6 669.59,-135.71 668.6,-142.64"/>
</g>
<!-- Node5 -->
<g id="node5" class="node">
<title>Node5</title>
<g id="a_node5"><a xlink:href="cp10_8cpp.html" target="_top" xlink:title="This file implements coprocessor CP10 (single&#45;precision FPU).">
<polygon fill="none" stroke="black" points="139.5,-67.5 139.5,-97.5 261.5,-97.5 261.5,-67.5 139.5,-67.5"/>
<text text-anchor="start" x="147.5" y="-85.5" font-family="Helvetica,sans-Serif" font-size="10.00">src/core/coprocessors</text>
<text text-anchor="middle" x="200.5" y="-74.5" font-family="Helvetica,sans-Serif" font-size="10.00">/cp10/cp10.cpp</text>
</a>
</g>
</g>
<!-- Node2&#45;&gt;Node5 -->
<g id="edge4" class="edge">
<title>Node2&#45;&gt;Node5</title>
<path fill="none" stroke="midnightblue" d="M668.59,-143.27C578.01,-135.72 411.46,-120.2 270.5,-98 267.56,-97.54 264.55,-97.03 261.52,-96.5"/>
<polygon fill="midnightblue" stroke="midnightblue" points="668.47,-146.77 678.72,-144.1 669.04,-139.79 668.47,-146.77"/>
</g>
<!-- Node2&#45;&gt;Node6 -->
<g id="edge5" class="edge">
<title>Node2&#45;&gt;Node6</title>
<path fill="none" stroke="midnightblue" d="M782.11,-130.78C815.26,-118.18 858.34,-101.81 884.12,-92.01"/>
<polygon fill="midnightblue" stroke="midnightblue" points="780.71,-127.57 772.6,-134.4 783.2,-134.11 780.71,-127.57"/>
</g>
<!-- Node10 -->
<g id="node10" class="node">
<title>Node10</title>
<g id="a_node10"><a xlink:href="control__window_8hpp.html" target="_top" xlink:title="This file defines a window that allows the user to control CPU execution.">
<polygon fill="none" stroke="black" points="420,-67.5 420,-97.5 551,-97.5 551,-67.5 420,-67.5"/>
<text text-anchor="start" x="428" y="-85.5" font-family="Helvetica,sans-Serif" font-size="10.00">src/gui/windows/control</text>
<text text-anchor="middle" x="485.5" y="-74.5" font-family="Helvetica,sans-Serif" font-size="10.00">_window.hpp</text>
</a>
</g>
</g>
<!-- Node2&#45;&gt;Node10 -->
<g id="edge9" class="edge">
<title>Node2&#45;&gt;Node10</title>
<path fill="none" stroke="midnightblue" d="M671.72,-131.92C630.92,-121.31 578.57,-107.7 539.77,-97.61"/>
<polygon fill="midnightblue" stroke="midnightblue" points="671,-135.35 681.56,-134.48 672.76,-128.57 671,-135.35"/>
</g>
<!-- Node12 -->
<g id="node12" class="node">
<title>Node12</title>
<g id="a_node12"><a xlink:href="registers__window_8hpp.html" target="_top" xlink:title="This file defines a window that displays the contents of all CPU registers.">
<polygon fill="none" stroke="black" points="569.5,-67.5 569.5,-97.5 709.5,-97.5 709.5,-67.5 569.5,-67.5"/>
<text text-anchor="start" x="577.5" y="-85.5" font-family="Helvetica,sans-Serif" font-size="10.00">src/gui/windows/registers</text>
<text text-anchor="middle" x="639.5" y="-74.5" font-family="Helvetica,sans-Serif" font-size="10.00">_window.hpp</text>
</a>
</g>
</g>
<!-- Node2&#45;&gt;Node12 -->
<g id="edge12" class="edge">
<title>Node2&#45;&gt;Node12</title>
<path fill="none" stroke="midnightblue" d="M706.31,-128.73C691.45,-118.68 673.74,-106.68 660.29,-97.58"/>
<polygon fill="midnightblue" stroke="midnightblue" points="704.43,-131.69 714.67,-134.4 708.35,-125.89 704.43,-131.69"/>
</g>
<!-- Node14 -->
<g id="node14" class="node">
<title>Node14</title>
<g id="a_node14"><a xlink:href="source__code__window_8hpp.html" target="_top" xlink:title="This file defines a window that displays loaded ELF files (disassembled instructions of the source co...">
<polygon fill="none" stroke="black" points="1103.5,-67.5 1103.5,-97.5 1233.5,-97.5 1233.5,-67.5 1103.5,-67.5"/>
<text text-anchor="start" x="1111.5" y="-85.5" font-family="Helvetica,sans-Serif" font-size="10.00">src/gui/windows/source</text>
<text text-anchor="middle" x="1168.5" y="-74.5" font-family="Helvetica,sans-Serif" font-size="10.00">_code_window.hpp</text>
</a>
</g>
</g>
<!-- Node2&#45;&gt;Node14 -->
<g id="edge15" class="edge">
<title>Node2&#45;&gt;Node14</title>
<path fill="none" stroke="midnightblue" d="M802.23,-139.21C902.08,-125.29 1080.27,-100.39 1094.5,-98 1097.34,-97.52 1100.24,-97.02 1103.16,-96.5"/>
<polygon fill="midnightblue" stroke="midnightblue" points="801.65,-135.75 792.23,-140.6 802.61,-142.69 801.65,-135.75"/>
</g>
<!-- Node2&#45;&gt;Node16 -->
<g id="edge18" class="edge">
<title>Node2&#45;&gt;Node16</title>
<path fill="none" stroke="midnightblue" d="M802.22,-133.75C847.68,-123.69 909.23,-110.06 963.5,-98 966.21,-97.4 968.98,-96.78 971.78,-96.16"/>
<polygon fill="midnightblue" stroke="midnightblue" points="801.2,-130.39 792.19,-135.97 802.71,-137.23 801.2,-130.39"/>
</g>
<!-- Node7 -->
<g id="node7" class="node">
<title>Node7</title>
<g id="a_node7"><a xlink:href="soc_8cpp.html" target="_top" xlink:title=" ">
<polygon fill="none" stroke="black" points="833,-6 833,-25 928,-25 928,-6 833,-6"/>
<text text-anchor="middle" x="880.5" y="-13" font-family="Helvetica,sans-Serif" font-size="10.00">src/core/soc.cpp</text>
</a>
</g>
</g>
<!-- Node6&#45;&gt;Node7 -->
<g id="edge6" class="edge">
<title>Node6&#45;&gt;Node7</title>
<path fill="none" stroke="midnightblue" d="M899.22,-63.29C894.22,-50.81 887.83,-34.81 883.95,-25.13"/>
<polygon fill="midnightblue" stroke="midnightblue" points="896.03,-64.75 902.99,-72.73 902.53,-62.15 896.03,-64.75"/>
</g>
<!-- Node8 -->
<g id="node8" class="node">
<title>Node8</title>
<g id="a_node8"><a xlink:href="gui_8cpp.html" target="_top" xlink:title="This file implements the main GUI entry function that takes care of creating and rendering all window...">
<polygon fill="none" stroke="black" points="728,-6 728,-25 815,-25 815,-6 728,-6"/>
<text text-anchor="middle" x="771.5" y="-13" font-family="Helvetica,sans-Serif" font-size="10.00">src/gui/gui.cpp</text>
</a>
</g>
</g>
<!-- Node6&#45;&gt;Node8 -->
<g id="edge7" class="edge">
<title>Node6&#45;&gt;Node8</title>
<path fill="none" stroke="midnightblue" d="M879.38,-68.44C852.64,-55.57 812.53,-36.26 789.5,-25.17"/>
<polygon fill="midnightblue" stroke="midnightblue" points="878.04,-71.68 888.57,-72.87 881.08,-65.38 878.04,-71.68"/>
</g>
<!-- Node9 -->
<g id="node9" class="node">
<title>Node9</title>
<g id="a_node9"><a xlink:href="main_8cpp.html" target="_top" xlink:title="This file defines and implements the main function of the application.">
<polygon fill="none" stroke="black" points="946,-6 946,-25 1025,-25 1025,-6 946,-6"/>
<text text-anchor="middle" x="985.5" y="-13" font-family="Helvetica,sans-Serif" font-size="10.00">src/main.cpp</text>
</a>
</g>
</g>
<!-- Node6&#45;&gt;Node9 -->
<g id="edge8" class="edge">
<title>Node6&#45;&gt;Node9</title>
<path fill="none" stroke="midnightblue" d="M925.08,-66.21C940.64,-53.41 962.3,-35.59 975.01,-25.13"/>
<polygon fill="midnightblue" stroke="midnightblue" points="922.65,-63.68 917.15,-72.73 927.1,-69.08 922.65,-63.68"/>
</g>
<!-- Node10&#45;&gt;Node8 -->
<g id="edge10" class="edge">
<title>Node10&#45;&gt;Node8</title>
<path fill="none" stroke="midnightblue" d="M561.08,-66.19C606.79,-56.66 666.16,-43.82 718.5,-31 725.91,-29.18 733.87,-27.09 741.3,-25.06"/>
<polygon fill="midnightblue" stroke="midnightblue" points="560.33,-62.77 551.25,-68.23 561.75,-69.62 560.33,-62.77"/>
</g>
<!-- Node11 -->
<g id="node11" class="node">
<title>Node11</title>
<g id="a_node11"><a xlink:href="control__window_8cpp.html" target="_top" xlink:title="This file implements a window that allows the user to control CPU execution.">
<polygon fill="none" stroke="black" points="420,-0.5 420,-30.5 551,-30.5 551,-0.5 420,-0.5"/>
<text text-anchor="start" x="428" y="-18.5" font-family="Helvetica,sans-Serif" font-size="10.00">src/gui/windows/control</text>
<text text-anchor="middle" x="485.5" y="-7.5" font-family="Helvetica,sans-Serif" font-size="10.00">_window.cpp</text>
</a>
</g>
</g>
<!-- Node10&#45;&gt;Node11 -->
<g id="edge11" class="edge">
<title>Node10&#45;&gt;Node11</title>
<path fill="none" stroke="midnightblue" d="M485.5,-57.11C485.5,-48.15 485.5,-38.32 485.5,-30.58"/>
<polygon fill="midnightblue" stroke="midnightblue" points="482,-57.4 485.5,-67.4 489,-57.4 482,-57.4"/>
</g>
<!-- Node12&#45;&gt;Node8 -->
<g id="edge13" class="edge">
<title>Node12&#45;&gt;Node8</title>
<path fill="none" stroke="midnightblue" d="M677.14,-62.97C702.49,-50.48 734.75,-34.6 754.22,-25.01"/>
<polygon fill="midnightblue" stroke="midnightblue" points="675.57,-59.84 668.14,-67.4 678.66,-66.12 675.57,-59.84"/>
</g>
<!-- Node13 -->
<g id="node13" class="node">
<title>Node13</title>
<g id="a_node13"><a xlink:href="registers__window_8cpp.html" target="_top" xlink:title="This file implements a window that displays the contents of all CPU registers.">
<polygon fill="none" stroke="black" points="569.5,-0.5 569.5,-30.5 709.5,-30.5 709.5,-0.5 569.5,-0.5"/>
<text text-anchor="start" x="577.5" y="-18.5" font-family="Helvetica,sans-Serif" font-size="10.00">src/gui/windows/registers</text>
<text text-anchor="middle" x="639.5" y="-7.5" font-family="Helvetica,sans-Serif" font-size="10.00">_window.cpp</text>
</a>
</g>
</g>
<!-- Node12&#45;&gt;Node13 -->
<g id="edge14" class="edge">
<title>Node12&#45;&gt;Node13</title>
<path fill="none" stroke="midnightblue" d="M639.5,-57.11C639.5,-48.15 639.5,-38.32 639.5,-30.58"/>
<polygon fill="midnightblue" stroke="midnightblue" points="636,-57.4 639.5,-67.4 643,-57.4 636,-57.4"/>
</g>
<!-- Node14&#45;&gt;Node8 -->
<g id="edge16" class="edge">
<title>Node14&#45;&gt;Node8</title>
<path fill="none" stroke="midnightblue" d="M1093.23,-66.86C973.3,-47.73 940.03,-54.39 824.5,-31 816.46,-29.37 807.84,-27.2 799.94,-25.04"/>
<polygon fill="midnightblue" stroke="midnightblue" points="1092.74,-70.33 1103.17,-68.47 1093.86,-63.42 1092.74,-70.33"/>
</g>
<!-- Node15 -->
<g id="node15" class="node">
<title>Node15</title>
<g id="a_node15"><a xlink:href="source__code__window_8cpp.html" target="_top" xlink:title="This file implements a window that displays loaded ELF files (disassembled instructions of the source...">
<polygon fill="none" stroke="black" points="1257.5,-0.5 1257.5,-30.5 1387.5,-30.5 1387.5,-0.5 1257.5,-0.5"/>
<text text-anchor="start" x="1265.5" y="-18.5" font-family="Helvetica,sans-Serif" font-size="10.00">src/gui/windows/source</text>
<text text-anchor="middle" x="1322.5" y="-7.5" font-family="Helvetica,sans-Serif" font-size="10.00">_code_window.cpp</text>
</a>
</g>
</g>
<!-- Node14&#45;&gt;Node15 -->
<g id="edge17" class="edge">
<title>Node14&#45;&gt;Node15</title>
<path fill="none" stroke="midnightblue" d="M1211.37,-63.41C1235.95,-53.03 1266.36,-40.2 1289.15,-30.58"/>
<polygon fill="midnightblue" stroke="midnightblue" points="1209.77,-60.28 1201.92,-67.4 1212.49,-66.73 1209.77,-60.28"/>
</g>
<!-- Node16&#45;&gt;Node8 -->
<g id="edge19" class="edge">
<title>Node16&#45;&gt;Node8</title>
<path fill="none" stroke="midnightblue" d="M961.81,-65.42C921.91,-55.7 870.23,-42.91 824.5,-31 817.3,-29.12 809.57,-27.05 802.29,-25.06"/>
<polygon fill="midnightblue" stroke="midnightblue" points="961.14,-68.87 971.69,-67.83 962.8,-62.06 961.14,-68.87"/>
</g>
<!-- Node17 -->
<g id="node17" class="node">
<title>Node17</title>
<g id="a_node17"><a xlink:href="top__bar__menu_8cpp.html" target="_top" xlink:title=" ">
<polygon fill="none" stroke="black" points="1043,-0.5 1043,-30.5 1156,-30.5 1156,-0.5 1043,-0.5"/>
<text text-anchor="start" x="1051" y="-18.5" font-family="Helvetica,sans-Serif" font-size="10.00">src/gui/windows/top</text>
<text text-anchor="middle" x="1099.5" y="-7.5" font-family="Helvetica,sans-Serif" font-size="10.00">_bar_menu.cpp</text>
</a>
</g>
</g>
<!-- Node16&#45;&gt;Node17 -->
<g id="edge20" class="edge">
<title>Node16&#45;&gt;Node17</title>
<path fill="none" stroke="midnightblue" d="M1051.33,-60.6C1062.05,-50.78 1074.55,-39.34 1084.12,-30.58"/>
<polygon fill="midnightblue" stroke="midnightblue" points="1048.92,-58.06 1043.91,-67.4 1053.65,-63.22 1048.92,-58.06"/>
</g>
<!-- Node18&#45;&gt;Node2 -->
<g id="edge22" class="edge">
<title>Node18&#45;&gt;Node2</title>
<path fill="none" stroke="midnightblue" d="M842.71,-197.27C818.98,-186.92 789.72,-174.15 767.77,-164.58"/>
<polygon fill="midnightblue" stroke="midnightblue" points="841.6,-200.61 852.17,-201.4 844.4,-194.19 841.6,-200.61"/>
</g>
<!-- Node18&#45;&gt;Node6 -->
<g id="edge24" class="edge">
<title>Node18&#45;&gt;Node6</title>
<path fill="none" stroke="midnightblue" d="M859.59,-193.86C851.96,-185.68 844.52,-175.73 840.5,-165 835.67,-152.1 834.4,-146.35 840.5,-134 850.15,-114.47 871.38,-100.41 887.17,-92.16"/>
<polygon fill="midnightblue" stroke="midnightblue" points="857.32,-196.54 866.87,-201.13 862.27,-191.59 857.32,-196.54"/>
</g>
<!-- Node19 -->
<g id="node19" class="node">
<title>Node19</title>
<g id="a_node19"><a xlink:href="mmu_8cpp.html" target="_top" xlink:title="This file implements the MMU (memory management unit) of the CPU.">
<polygon fill="none" stroke="black" points="849,-134.5 849,-164.5 962,-164.5 962,-134.5 849,-134.5"/>
<text text-anchor="start" x="857" y="-152.5" font-family="Helvetica,sans-Serif" font-size="10.00">src/core/arm1176jzf</text>
<text text-anchor="middle" x="905.5" y="-141.5" font-family="Helvetica,sans-Serif" font-size="10.00">_s/mmu/mmu.cpp</text>
</a>
</g>
</g>
<!-- Node18&#45;&gt;Node19 -->
<g id="edge23" class="edge">
<title>Node18&#45;&gt;Node19</title>
<path fill="none" stroke="midnightblue" d="M892.19,-191.7C895.13,-182.59 898.39,-172.49 900.95,-164.58"/>
<polygon fill="midnightblue" stroke="midnightblue" points="888.8,-190.8 889.06,-201.4 895.46,-192.96 888.8,-190.8"/>
</g>
<!-- Node21&#45;&gt;Node5 -->
<g id="edge27" class="edge">
<title>Node21&#45;&gt;Node5</title>
<path fill="none" stroke="midnightblue" d="M347.35,-131.23C315,-120.71 274.19,-107.45 243.81,-97.58"/>
<polygon fill="midnightblue" stroke="midnightblue" points="346.51,-134.63 357.1,-134.4 348.67,-127.98 346.51,-134.63"/>
</g>
<!-- Node21&#45;&gt;Node6 -->
<g id="edge28" class="edge">
<title>Node21&#45;&gt;Node6</title>
<path fill="none" stroke="midnightblue" d="M471.67,-143.64C560.77,-136.85 717.81,-122.5 850.5,-98 859.09,-96.41 868.31,-94.23 876.74,-92.04"/>
<polygon fill="midnightblue" stroke="midnightblue" points="471.39,-140.15 461.68,-144.39 471.91,-147.13 471.39,-140.15"/>
</g>
<!-- Node22 -->
<g id="node22" class="node">
<title>Node22</title>
<g id="a_node22"><a xlink:href="cp10__window_8hpp.html" target="_top" xlink:title="This file defines a window that displays data (information) related to coprocessor 10 (FPU).">
<polygon fill="none" stroke="black" points="0,-67.5 0,-97.5 121,-97.5 121,-67.5 0,-67.5"/>
<text text-anchor="start" x="8" y="-85.5" font-family="Helvetica,sans-Serif" font-size="10.00">src/gui/windows/cp10</text>
<text text-anchor="middle" x="60.5" y="-74.5" font-family="Helvetica,sans-Serif" font-size="10.00">_window.hpp</text>
</a>
</g>
</g>
<!-- Node21&#45;&gt;Node22 -->
<g id="edge29" class="edge">
<title>Node21&#45;&gt;Node22</title>
<path fill="none" stroke="midnightblue" d="M329.41,-135.59C274.92,-125.6 197.89,-111.28 130.5,-98 127.46,-97.4 124.34,-96.78 121.19,-96.15"/>
<polygon fill="midnightblue" stroke="midnightblue" points="328.85,-139.05 339.31,-137.4 330.11,-132.16 328.85,-139.05"/>
</g>
<!-- Node22&#45;&gt;Node8 -->
<g id="edge30" class="edge">
<title>Node22&#45;&gt;Node8</title>
<path fill="none" stroke="midnightblue" d="M131.26,-67.06C391.83,-33.4 463.47,-73.23 718.5,-31 727.06,-29.58 736.24,-27.34 744.5,-25.04"/>
<polygon fill="midnightblue" stroke="midnightblue" points="130.57,-63.62 121.12,-68.39 131.49,-70.56 130.57,-63.62"/>
</g>
<!-- Node23 -->
<g id="node23" class="node">
<title>Node23</title>
<g id="a_node23"><a xlink:href="cp10__window_8cpp.html" target="_top" xlink:title="This file implements a window that displays data (information) related to coprocessor 10 (FPU).">
<polygon fill="none" stroke="black" points="0,-0.5 0,-30.5 121,-30.5 121,-0.5 0,-0.5"/>
<text text-anchor="start" x="8" y="-18.5" font-family="Helvetica,sans-Serif" font-size="10.00">src/gui/windows/cp10</text>
<text text-anchor="middle" x="60.5" y="-7.5" font-family="Helvetica,sans-Serif" font-size="10.00">_window.cpp</text>
</a>
</g>
</g>
<!-- Node22&#45;&gt;Node23 -->
<g id="edge31" class="edge">
<title>Node22&#45;&gt;Node23</title>
<path fill="none" stroke="midnightblue" d="M60.5,-57.11C60.5,-48.15 60.5,-38.32 60.5,-30.58"/>
<polygon fill="midnightblue" stroke="midnightblue" points="57,-57.4 60.5,-67.4 64,-57.4 57,-57.4"/>
</g>
<!-- Node24&#45;&gt;Node14 -->
<g id="edge36" class="edge">
<title>Node24&#45;&gt;Node14</title>
<path fill="none" stroke="midnightblue" d="M1168.5,-129.41C1168.5,-119.22 1168.5,-106.9 1168.5,-97.59"/>
<polygon fill="midnightblue" stroke="midnightblue" points="1165,-129.73 1168.5,-139.73 1172,-129.73 1165,-129.73"/>
</g>
<!-- Node24&#45;&gt;Node15 -->
<g id="edge35" class="edge">
<title>Node24&#45;&gt;Node15</title>
<path fill="none" stroke="midnightblue" d="M1241.95,-141.22C1298,-133.97 1368.54,-120.59 1386.5,-98 1405.19,-74.48 1372.26,-46.96 1347.11,-30.67"/>
<polygon fill="midnightblue" stroke="midnightblue" points="1241.52,-137.75 1232.03,-142.46 1242.39,-144.69 1241.52,-137.75"/>
</g>
<!-- Node24&#45;&gt;Node16 -->
<g id="edge37" class="edge">
<title>Node24&#45;&gt;Node16</title>
<path fill="none" stroke="midnightblue" d="M1140.76,-135.62C1117.08,-124.63 1083.08,-108.84 1058.71,-97.53"/>
<polygon fill="midnightblue" stroke="midnightblue" points="1139.37,-138.83 1149.91,-139.87 1142.31,-132.48 1139.37,-138.83"/>
</g>
<!-- Node25 -->
<g id="node25" class="node">
<title>Node25</title>
<g id="a_node25"><a xlink:href="elf__loader_8cpp.html" target="_top" xlink:title="This file implements the functionality of an ELF loader defined in elf_loader.hpp.">
<polygon fill="none" stroke="black" points="1251.5,-73 1251.5,-92 1377.5,-92 1377.5,-73 1251.5,-73"/>
<text text-anchor="middle" x="1314.5" y="-80" font-family="Helvetica,sans-Serif" font-size="10.00">src/utils/elf_loader.cpp</text>
</a>
</g>
</g>
<!-- Node24&#45;&gt;Node25 -->
<g id="edge38" class="edge">
<title>Node24&#45;&gt;Node25</title>
<path fill="none" stroke="midnightblue" d="M1197.07,-135.78C1225.98,-122.91 1269.9,-103.35 1295.03,-92.17"/>
<polygon fill="midnightblue" stroke="midnightblue" points="1195.6,-132.6 1187.89,-139.87 1198.45,-139 1195.6,-132.6"/>
</g>
</g>
</svg>
