<?xml version="1.0" encoding="UTF-8" standalone="no"?>
<!DOCTYPE svg PUBLIC "-//W3C//DTD SVG 1.1//EN"
 "http://www.w3.org/Graphics/SVG/1.1/DTD/svg11.dtd">
<!-- Generated by graphviz version 2.43.0 (0)
 -->
<!-- Title: src/core/bus.hpp Pages: 1 -->
<svg width="1400pt" height="291pt"
 viewBox="0.00 0.00 1400.11 291.00" xmlns="http://www.w3.org/2000/svg" xmlns:xlink="http://www.w3.org/1999/xlink">
<g id="graph0" class="graph" transform="scale(1 1) rotate(0) translate(4 287)">
<title>src/core/bus.hpp</title>
<!-- Node1 -->
<g id="Node000001" class="node">
<title>Node1</title>
<g id="a_Node000001"><a xlink:title="This file defines an interface the CPU uses to access different memory&#45;mapped peripherals.">
<polygon fill="#999999" stroke="#666666" points="1038.5,-283 942.5,-283 942.5,-264 1038.5,-264 1038.5,-283"/>
<text text-anchor="middle" x="990.5" y="-271" font-family="Helvetica,sans-Serif" font-size="10.00">src/core/bus.hpp</text>
</a>
</g>
</g>
<!-- Node2 -->
<g id="Node000002" class="node">
<title>Node2</title>
<g id="a_Node000002"><a xlink:href="core_8hpp.html" target="_top" xlink:title="This file defines a class that represents a CPU core (arm1176jzf_s).">
<polygon fill="white" stroke="#666666" points="792,-162 679,-162 679,-132 792,-132 792,-162"/>
<text text-anchor="start" x="687" y="-150" font-family="Helvetica,sans-Serif" font-size="10.00">src/core/arm1176jzf</text>
<text text-anchor="middle" x="735.5" y="-139" font-family="Helvetica,sans-Serif" font-size="10.00">_s/core.hpp</text>
</a>
</g>
</g>
<!-- Node1&#45;&gt;Node2 -->
<g id="edge1_Node000001_Node000002" class="edge">
<title>Node1&#45;&gt;Node2</title>
<g id="a_edge1_Node000001_Node000002"><a xlink:title=" ">
<path fill="none" stroke="#63b8ff" d="M932.45,-264.89C898,-258.59 854.39,-247.41 819.5,-228 788.88,-210.96 761.08,-180.13 746.41,-162.12"/>
<polygon fill="#63b8ff" stroke="#63b8ff" points="931.91,-268.35 942.37,-266.61 933.11,-261.45 931.91,-268.35"/>
</a>
</g>
</g>
<!-- Node6 -->
<g id="Node000006" class="node">
<title>Node6</title>
<g id="a_Node000006"><a xlink:href="soc_8hpp.html" target="_top" xlink:title=" ">
<polygon fill="white" stroke="#666666" points="954,-90.5 859,-90.5 859,-71.5 954,-71.5 954,-90.5"/>
<text text-anchor="middle" x="906.5" y="-78.5" font-family="Helvetica,sans-Serif" font-size="10.00">src/core/soc.hpp</text>
</a>
</g>
</g>
<!-- Node1&#45;&gt;Node6 -->
<g id="edge32_Node000001_Node000006" class="edge">
<title>Node1&#45;&gt;Node6</title>
<g id="a_edge32_Node000001_Node000006"><a xlink:title=" ">
<path fill="none" stroke="#63b8ff" d="M992.28,-253.76C994.08,-225.39 993.94,-170.76 971.5,-132 960.59,-113.15 939.5,-98.97 924.3,-90.61"/>
<polygon fill="#63b8ff" stroke="#63b8ff" points="988.78,-253.63 991.48,-263.87 995.76,-254.18 988.78,-253.63"/>
</a>
</g>
</g>
<!-- Node16 -->
<g id="Node000016" class="node">
<title>Node16</title>
<g id="a_Node000016"><a xlink:href="top__bar__menu_8hpp.html" target="_top" xlink:title=" ">
<polygon fill="white" stroke="#666666" points="1085,-96 972,-96 972,-66 1085,-66 1085,-96"/>
<text text-anchor="start" x="980" y="-84" font-family="Helvetica,sans-Serif" font-size="10.00">src/gui/windows/top</text>
<text text-anchor="middle" x="1028.5" y="-73" font-family="Helvetica,sans-Serif" font-size="10.00">_bar_menu.hpp</text>
</a>
</g>
</g>
<!-- Node1&#45;&gt;Node16 -->
<g id="edge33_Node000001_Node000016" class="edge">
<title>Node1&#45;&gt;Node16</title>
<g id="a_edge33_Node000001_Node000016"><a xlink:title=" ">
<path fill="none" stroke="#63b8ff" d="M996.95,-254.04C999.56,-246.1 1002.44,-236.67 1004.5,-228 1015.87,-180.27 1023.63,-122.49 1026.84,-96.23"/>
<polygon fill="#63b8ff" stroke="#63b8ff" points="993.56,-253.14 993.66,-263.74 1000.19,-255.39 993.56,-253.14"/>
</a>
</g>
</g>
<!-- Node18 -->
<g id="Node000018" class="node">
<title>Node18</title>
<g id="a_Node000018"><a xlink:href="mmu_8hpp.html" target="_top" xlink:title="This file defines the MMU (memory management unit) of the CPU.">
<polygon fill="white" stroke="#666666" points="941,-228 828,-228 828,-198 941,-198 941,-228"/>
<text text-anchor="start" x="836" y="-216" font-family="Helvetica,sans-Serif" font-size="10.00">src/core/arm1176jzf</text>
<text text-anchor="middle" x="884.5" y="-205" font-family="Helvetica,sans-Serif" font-size="10.00">_s/mmu/mmu.hpp</text>
</a>
</g>
</g>
<!-- Node1&#45;&gt;Node18 -->
<g id="edge21_Node000001_Node000018" class="edge">
<title>Node1&#45;&gt;Node18</title>
<g id="a_edge21_Node000001_Node000018"><a xlink:title=" ">
<path fill="none" stroke="#63b8ff" d="M965.7,-258.81C948.97,-249.58 926.96,-237.43 910.08,-228.11"/>
<polygon fill="#63b8ff" stroke="#63b8ff" points="964.41,-262.1 974.86,-263.87 967.8,-255.97 964.41,-262.1"/>
</a>
</g>
</g>
<!-- Node20 -->
<g id="Node000020" class="node">
<title>Node20</title>
<g id="a_Node000020"><a xlink:href="bus_8cpp.html" target="_top" xlink:title="This file implements the interface defined in bus.hpp.">
<polygon fill="white" stroke="#666666" points="1190,-222.5 1095,-222.5 1095,-203.5 1190,-203.5 1190,-222.5"/>
<text text-anchor="middle" x="1142.5" y="-210.5" font-family="Helvetica,sans-Serif" font-size="10.00">src/core/bus.cpp</text>
</a>
</g>
</g>
<!-- Node1&#45;&gt;Node20 -->
<g id="edge25_Node000001_Node000020" class="edge">
<title>Node1&#45;&gt;Node20</title>
<g id="a_edge25_Node000001_Node000020"><a xlink:title=" ">
<path fill="none" stroke="#63b8ff" d="M1022,-260.38C1051.38,-249.07 1094.47,-232.49 1120.37,-222.52"/>
<polygon fill="#63b8ff" stroke="#63b8ff" points="1020.68,-257.14 1012.6,-263.99 1023.19,-263.67 1020.68,-257.14"/>
</a>
</g>
</g>
<!-- Node21 -->
<g id="Node000021" class="node">
<title>Node21</title>
<g id="a_Node000021"><a xlink:href="cp10_8hpp.html" target="_top" xlink:title="This file defines coprocessor CP10 (single&#45;precision FPU).">
<polygon fill="white" stroke="#666666" points="461.5,-162 339.5,-162 339.5,-132 461.5,-132 461.5,-162"/>
<text text-anchor="start" x="347.5" y="-150" font-family="Helvetica,sans-Serif" font-size="10.00">src/core/coprocessors</text>
<text text-anchor="middle" x="400.5" y="-139" font-family="Helvetica,sans-Serif" font-size="10.00">/cp10/cp10.hpp</text>
</a>
</g>
</g>
<!-- Node1&#45;&gt;Node21 -->
<g id="edge26_Node000001_Node000021" class="edge">
<title>Node1&#45;&gt;Node21</title>
<g id="a_edge26_Node000001_Node000021"><a xlink:title=" ">
<path fill="none" stroke="#63b8ff" d="M939.04,-261.87C895.69,-252.9 832.02,-239.68 776.5,-228 665.47,-204.65 536.1,-177.03 461.7,-161.11"/>
<polygon fill="#63b8ff" stroke="#63b8ff" points="938.56,-265.34 949.06,-263.94 939.98,-258.49 938.56,-265.34"/>
</a>
</g>
</g>
<!-- Node24 -->
<g id="Node000024" class="node">
<title>Node24</title>
<g id="a_Node000024"><a xlink:href="elf__loader_8hpp.html" target="_top" xlink:title="This file defines the functionality of an ELF loader.">
<polygon fill="white" stroke="#666666" points="1232,-156.5 1105,-156.5 1105,-137.5 1232,-137.5 1232,-156.5"/>
<text text-anchor="middle" x="1168.5" y="-144.5" font-family="Helvetica,sans-Serif" font-size="10.00">src/utils/elf_loader.hpp</text>
</a>
</g>
</g>
<!-- Node1&#45;&gt;Node24 -->
<g id="edge34_Node000001_Node000024" class="edge">
<title>Node1&#45;&gt;Node24</title>
<g id="a_edge34_Node000001_Node000024"><a xlink:title=" ">
<path fill="none" stroke="#63b8ff" d="M1008.69,-257.39C1027.66,-241.87 1058.49,-217.32 1086.5,-198 1109.15,-182.38 1136.67,-166.12 1153.37,-156.54"/>
<polygon fill="#63b8ff" stroke="#63b8ff" points="1006.36,-254.78 1000.86,-263.83 1010.81,-260.18 1006.36,-254.78"/>
</a>
</g>
</g>
<!-- Node3 -->
<g id="Node000003" class="node">
<title>Node3</title>
<g id="a_Node000003"><a xlink:href="core_8cpp.html" target="_top" xlink:title="This file implements the CCPU_Core class defined in core.hpp.">
<polygon fill="white" stroke="#666666" points="841,-96 728,-96 728,-66 841,-66 841,-96"/>
<text text-anchor="start" x="736" y="-84" font-family="Helvetica,sans-Serif" font-size="10.00">src/core/arm1176jzf</text>
<text text-anchor="middle" x="784.5" y="-73" font-family="Helvetica,sans-Serif" font-size="10.00">_s/core.cpp</text>
</a>
</g>
</g>
<!-- Node2&#45;&gt;Node3 -->
<g id="edge2_Node000002_Node000003" class="edge">
<title>Node2&#45;&gt;Node3</title>
<g id="a_edge2_Node000002_Node000003"><a xlink:title=" ">
<path fill="none" stroke="#63b8ff" d="M752.49,-123.81C759.51,-114.64 767.44,-104.28 773.66,-96.16"/>
<polygon fill="#63b8ff" stroke="#63b8ff" points="749.67,-121.73 746.37,-131.8 755.23,-125.98 749.67,-121.73"/>
</a>
</g>
</g>
<!-- Node4 -->
<g id="Node000004" class="node">
<title>Node4</title>
<g id="a_Node000004"><a xlink:href="coprocessor_8cpp.html" target="_top" xlink:title="This file implements the common functionality of a general interface of a coprocessor.">
<polygon fill="white" stroke="#666666" points="401.5,-96 279.5,-96 279.5,-66 401.5,-66 401.5,-96"/>
<text text-anchor="start" x="287.5" y="-84" font-family="Helvetica,sans-Serif" font-size="10.00">src/core/coprocessors</text>
<text text-anchor="middle" x="340.5" y="-73" font-family="Helvetica,sans-Serif" font-size="10.00">/coprocessor.cpp</text>
</a>
</g>
</g>
<!-- Node2&#45;&gt;Node4 -->
<g id="edge3_Node000002_Node000004" class="edge">
<title>Node2&#45;&gt;Node4</title>
<g id="a_edge3_Node000002_Node000004"><a xlink:title=" ">
<path fill="none" stroke="#63b8ff" d="M668.48,-136.58C602.67,-127.13 499.48,-111.73 410.5,-96 407.57,-95.48 404.58,-94.94 401.55,-94.38"/>
<polygon fill="#63b8ff" stroke="#63b8ff" points="668.32,-140.1 678.72,-138.05 669.32,-133.17 668.32,-140.1"/>
</a>
</g>
</g>
<!-- Node5 -->
<g id="Node000005" class="node">
<title>Node5</title>
<g id="a_Node000005"><a xlink:href="cp10_8cpp.html" target="_top" xlink:title="This file implements coprocessor CP10 (single&#45;precision FPU).">
<polygon fill="white" stroke="#666666" points="261.5,-96 139.5,-96 139.5,-66 261.5,-66 261.5,-96"/>
<text text-anchor="start" x="147.5" y="-84" font-family="Helvetica,sans-Serif" font-size="10.00">src/core/coprocessors</text>
<text text-anchor="middle" x="200.5" y="-73" font-family="Helvetica,sans-Serif" font-size="10.00">/cp10/cp10.cpp</text>
</a>
</g>
</g>
<!-- Node2&#45;&gt;Node5 -->
<g id="edge4_Node000002_Node000005" class="edge">
<title>Node2&#45;&gt;Node5</title>
<g id="a_edge4_Node000002_Node000005"><a xlink:title=" ">
<path fill="none" stroke="#63b8ff" d="M668.61,-140.72C578.05,-133.13 411.53,-117.64 270.5,-96 267.56,-95.55 264.56,-95.06 261.53,-94.54"/>
<polygon fill="#63b8ff" stroke="#63b8ff" points="668.48,-144.22 678.74,-141.56 669.06,-137.24 668.48,-144.22"/>
</a>
</g>
</g>
<!-- Node2&#45;&gt;Node6 -->
<g id="edge5_Node000002_Node000006" class="edge">
<title>Node2&#45;&gt;Node6</title>
<g id="a_edge5_Node000002_Node000006"><a xlink:title=" ">
<path fill="none" stroke="#63b8ff" d="M782.48,-128.42C815.42,-116.09 858.01,-100.15 883.74,-90.52"/>
<polygon fill="#63b8ff" stroke="#63b8ff" points="781.17,-125.17 773.03,-131.95 783.62,-131.73 781.17,-125.17"/>
</a>
</g>
</g>
<!-- Node10 -->
<g id="Node000010" class="node">
<title>Node10</title>
<g id="a_Node000010"><a xlink:href="control__window_8hpp.html" target="_top" xlink:title="This file defines a window that allows the user to control CPU execution.">
<polygon fill="white" stroke="#666666" points="551,-96 420,-96 420,-66 551,-66 551,-96"/>
<text text-anchor="start" x="428" y="-84" font-family="Helvetica,sans-Serif" font-size="10.00">src/gui/windows/control</text>
<text text-anchor="middle" x="485.5" y="-73" font-family="Helvetica,sans-Serif" font-size="10.00">_window.hpp</text>
</a>
</g>
</g>
<!-- Node2&#45;&gt;Node10 -->
<g id="edge9_Node000002_Node000010" class="edge">
<title>Node2&#45;&gt;Node10</title>
<g id="a_edge9_Node000002_Node000010"><a xlink:title=" ">
<path fill="none" stroke="#63b8ff" d="M670.86,-129.45C630.35,-119.08 578.71,-105.86 540.24,-96.01"/>
<polygon fill="#63b8ff" stroke="#63b8ff" points="670.08,-132.87 680.64,-131.95 671.82,-126.08 670.08,-132.87"/>
</a>
</g>
</g>
<!-- Node12 -->
<g id="Node000012" class="node">
<title>Node12</title>
<g id="a_Node000012"><a xlink:href="registers__window_8hpp.html" target="_top" xlink:title="This file defines a window that displays the contents of all CPU registers.">
<polygon fill="white" stroke="#666666" points="709.5,-96 569.5,-96 569.5,-66 709.5,-66 709.5,-96"/>
<text text-anchor="start" x="577.5" y="-84" font-family="Helvetica,sans-Serif" font-size="10.00">src/gui/windows/registers</text>
<text text-anchor="middle" x="639.5" y="-73" font-family="Helvetica,sans-Serif" font-size="10.00">_window.hpp</text>
</a>
</g>
</g>
<!-- Node2&#45;&gt;Node12 -->
<g id="edge12_Node000002_Node000012" class="edge">
<title>Node2&#45;&gt;Node12</title>
<g id="a_edge12_Node000002_Node000012"><a xlink:title=" ">
<path fill="none" stroke="#63b8ff" d="M705.54,-126.03C691.01,-116.34 673.91,-104.94 660.75,-96.16"/>
<polygon fill="#63b8ff" stroke="#63b8ff" points="703.93,-129.16 714.19,-131.8 707.82,-123.34 703.93,-129.16"/>
</a>
</g>
</g>
<!-- Node14 -->
<g id="Node000014" class="node">
<title>Node14</title>
<g id="a_Node000014"><a xlink:href="source__code__window_8hpp.html" target="_top" xlink:title="This file defines a window that displays loaded ELF files (disassembled instructions of the source co...">
<polygon fill="white" stroke="#666666" points="1233.5,-96 1103.5,-96 1103.5,-66 1233.5,-66 1233.5,-96"/>
<text text-anchor="start" x="1111.5" y="-84" font-family="Helvetica,sans-Serif" font-size="10.00">src/gui/windows/source</text>
<text text-anchor="middle" x="1168.5" y="-73" font-family="Helvetica,sans-Serif" font-size="10.00">_code_window.hpp</text>
</a>
</g>
</g>
<!-- Node2&#45;&gt;Node14 -->
<g id="edge15_Node000002_Node000014" class="edge">
<title>Node2&#45;&gt;Node14</title>
<g id="a_edge15_Node000002_Node000014"><a xlink:title=" ">
<path fill="none" stroke="#63b8ff" d="M802.35,-137.09C890.2,-125.3 1039.77,-104.98 1094.5,-96 1097.34,-95.53 1100.24,-95.04 1103.16,-94.54"/>
<polygon fill="#63b8ff" stroke="#63b8ff" points="801.66,-133.65 792.21,-138.44 802.59,-140.58 801.66,-133.65"/>
</a>
</g>
</g>
<!-- Node2&#45;&gt;Node16 -->
<g id="edge18_Node000002_Node000016" class="edge">
<title>Node2&#45;&gt;Node16</title>
<g id="a_edge18_Node000002_Node000016"><a xlink:title=" ">
<path fill="none" stroke="#63b8ff" d="M802.32,-131.41C853.5,-120.22 923.34,-104.97 971.82,-94.38"/>
<polygon fill="#63b8ff" stroke="#63b8ff" points="801.36,-128.03 792.34,-133.58 802.86,-134.87 801.36,-128.03"/>
</a>
</g>
</g>
<!-- Node7 -->
<g id="Node000007" class="node">
<title>Node7</title>
<g id="a_Node000007"><a xlink:href="soc_8cpp.html" target="_top" xlink:title=" ">
<polygon fill="white" stroke="#666666" points="928,-24.5 833,-24.5 833,-5.5 928,-5.5 928,-24.5"/>
<text text-anchor="middle" x="880.5" y="-12.5" font-family="Helvetica,sans-Serif" font-size="10.00">src/core/soc.cpp</text>
</a>
</g>
</g>
<!-- Node6&#45;&gt;Node7 -->
<g id="edge6_Node000006_Node000007" class="edge">
<title>Node6&#45;&gt;Node7</title>
<g id="a_edge6_Node000006_Node000007"><a xlink:title=" ">
<path fill="none" stroke="#63b8ff" d="M899.11,-61.82C894.21,-49.74 887.98,-34.41 884.12,-24.91"/>
<polygon fill="#63b8ff" stroke="#63b8ff" points="895.99,-63.42 902.99,-71.37 902.47,-60.79 895.99,-63.42"/>
</a>
</g>
</g>
<!-- Node8 -->
<g id="Node000008" class="node">
<title>Node8</title>
<g id="a_Node000008"><a xlink:href="gui_8cpp.html" target="_top" xlink:title="This file implements the main GUI entry function that takes care of creating and rendering all window...">
<polygon fill="white" stroke="#666666" points="815,-24.5 728,-24.5 728,-5.5 815,-5.5 815,-24.5"/>
<text text-anchor="middle" x="771.5" y="-12.5" font-family="Helvetica,sans-Serif" font-size="10.00">src/gui/gui.cpp</text>
</a>
</g>
</g>
<!-- Node6&#45;&gt;Node8 -->
<g id="edge7_Node000006_Node000008" class="edge">
<title>Node6&#45;&gt;Node8</title>
<g id="a_edge7_Node000006_Node000008"><a xlink:title=" ">
<path fill="none" stroke="#63b8ff" d="M879.14,-67.03C852.53,-54.42 812.87,-35.61 789.85,-24.7"/>
<polygon fill="#63b8ff" stroke="#63b8ff" points="877.76,-70.25 888.29,-71.37 880.76,-63.92 877.76,-70.25"/>
</a>
</g>
</g>
<!-- Node9 -->
<g id="Node000009" class="node">
<title>Node9</title>
<g id="a_Node000009"><a xlink:href="main_8cpp.html" target="_top" xlink:title="This file defines and implements the main function of the application.">
<polygon fill="white" stroke="#666666" points="1025,-24.5 946,-24.5 946,-5.5 1025,-5.5 1025,-24.5"/>
<text text-anchor="middle" x="985.5" y="-12.5" font-family="Helvetica,sans-Serif" font-size="10.00">src/main.cpp</text>
</a>
</g>
</g>
<!-- Node6&#45;&gt;Node9 -->
<g id="edge8_Node000006_Node000009" class="edge">
<title>Node6&#45;&gt;Node9</title>
<g id="a_edge8_Node000006_Node000009"><a xlink:title=" ">
<path fill="none" stroke="#63b8ff" d="M925.03,-64.99C940.5,-52.46 962,-35.04 974.76,-24.7"/>
<polygon fill="#63b8ff" stroke="#63b8ff" points="922.72,-62.35 917.15,-71.37 927.13,-67.79 922.72,-62.35"/>
</a>
</g>
</g>
<!-- Node10&#45;&gt;Node8 -->
<g id="edge10_Node000010_Node000008" class="edge">
<title>Node10&#45;&gt;Node8</title>
<g id="a_edge10_Node000010_Node000008"><a xlink:title=" ">
<path fill="none" stroke="#63b8ff" d="M561.05,-64.72C606.75,-55.25 666.11,-42.53 718.5,-30 725.53,-28.32 733.06,-26.4 740.17,-24.54"/>
<polygon fill="#63b8ff" stroke="#63b8ff" points="560.3,-61.3 551.22,-66.75 561.72,-68.16 560.3,-61.3"/>
</a>
</g>
</g>
<!-- Node11 -->
<g id="Node000011" class="node">
<title>Node11</title>
<g id="a_Node000011"><a xlink:href="control__window_8cpp.html" target="_top" xlink:title="This file implements a window that allows the user to control CPU execution.">
<polygon fill="white" stroke="#666666" points="551,-30 420,-30 420,0 551,0 551,-30"/>
<text text-anchor="start" x="428" y="-18" font-family="Helvetica,sans-Serif" font-size="10.00">src/gui/windows/control</text>
<text text-anchor="middle" x="485.5" y="-7" font-family="Helvetica,sans-Serif" font-size="10.00">_window.cpp</text>
</a>
</g>
</g>
<!-- Node10&#45;&gt;Node11 -->
<g id="edge11_Node000010_Node000011" class="edge">
<title>Node10&#45;&gt;Node11</title>
<g id="a_edge11_Node000010_Node000011"><a xlink:title=" ">
<path fill="none" stroke="#63b8ff" d="M485.5,-55.54C485.5,-46.96 485.5,-37.61 485.5,-30.16"/>
<polygon fill="#63b8ff" stroke="#63b8ff" points="482,-55.8 485.5,-65.8 489,-55.8 482,-55.8"/>
</a>
</g>
</g>
<!-- Node12&#45;&gt;Node8 -->
<g id="edge13_Node000012_Node000008" class="edge">
<title>Node12&#45;&gt;Node8</title>
<g id="a_edge13_Node000012_Node000008"><a xlink:title=" ">
<path fill="none" stroke="#63b8ff" d="M677.74,-61.46C702.88,-49.27 734.58,-33.9 753.93,-24.52"/>
<polygon fill="#63b8ff" stroke="#63b8ff" points="675.94,-58.44 668.47,-65.95 678.99,-64.74 675.94,-58.44"/>
</a>
</g>
</g>
<!-- Node13 -->
<g id="Node000013" class="node">
<title>Node13</title>
<g id="a_Node000013"><a xlink:href="registers__window_8cpp.html" target="_top" xlink:title="This file implements a window that displays the contents of all CPU registers.">
<polygon fill="white" stroke="#666666" points="709.5,-30 569.5,-30 569.5,0 709.5,0 709.5,-30"/>
<text text-anchor="start" x="577.5" y="-18" font-family="Helvetica,sans-Serif" font-size="10.00">src/gui/windows/registers</text>
<text text-anchor="middle" x="639.5" y="-7" font-family="Helvetica,sans-Serif" font-size="10.00">_window.cpp</text>
</a>
</g>
</g>
<!-- Node12&#45;&gt;Node13 -->
<g id="edge14_Node000012_Node000013" class="edge">
<title>Node12&#45;&gt;Node13</title>
<g id="a_edge14_Node000012_Node000013"><a xlink:title=" ">
<path fill="none" stroke="#63b8ff" d="M639.5,-55.54C639.5,-46.96 639.5,-37.61 639.5,-30.16"/>
<polygon fill="#63b8ff" stroke="#63b8ff" points="636,-55.8 639.5,-65.8 643,-55.8 636,-55.8"/>
</a>
</g>
</g>
<!-- Node14&#45;&gt;Node8 -->
<g id="edge16_Node000014_Node000008" class="edge">
<title>Node14&#45;&gt;Node8</title>
<g id="a_edge16_Node000014_Node000008"><a xlink:title=" ">
<path fill="none" stroke="#63b8ff" d="M1093.22,-65.86C973.25,-47.08 940.13,-52.89 824.5,-30 816.84,-28.48 808.66,-26.5 801.06,-24.51"/>
<polygon fill="#63b8ff" stroke="#63b8ff" points="1092.74,-69.33 1103.16,-67.44 1093.84,-62.41 1092.74,-69.33"/>
</a>
</g>
</g>
<!-- Node15 -->
<g id="Node000015" class="node">
<title>Node15</title>
<g id="a_Node000015"><a xlink:href="source__code__window_8cpp.html" target="_top" xlink:title="This file implements a window that displays loaded ELF files (disassembled instructions of the source...">
<polygon fill="white" stroke="#666666" points="1387.5,-30 1257.5,-30 1257.5,0 1387.5,0 1387.5,-30"/>
<text text-anchor="start" x="1265.5" y="-18" font-family="Helvetica,sans-Serif" font-size="10.00">src/gui/windows/source</text>
<text text-anchor="middle" x="1322.5" y="-7" font-family="Helvetica,sans-Serif" font-size="10.00">_code_window.cpp</text>
</a>
</g>
</g>
<!-- Node14&#45;&gt;Node15 -->
<g id="edge17_Node000014_Node000015" class="edge">
<title>Node14&#45;&gt;Node15</title>
<g id="a_edge17_Node000014_Node000015"><a xlink:title=" ">
<path fill="none" stroke="#63b8ff" d="M1211.68,-62.05C1236.08,-51.91 1266.13,-39.43 1288.78,-30.01"/>
<polygon fill="#63b8ff" stroke="#63b8ff" points="1210.19,-58.89 1202.3,-65.95 1212.87,-65.35 1210.19,-58.89"/>
</a>
</g>
</g>
<!-- Node16&#45;&gt;Node8 -->
<g id="edge19_Node000016_Node000008" class="edge">
<title>Node16&#45;&gt;Node8</title>
<g id="a_edge19_Node000016_Node000008"><a xlink:title=" ">
<path fill="none" stroke="#63b8ff" d="M961.84,-63.98C921.95,-54.31 870.27,-41.65 824.5,-30 817.68,-28.26 810.37,-26.36 803.43,-24.53"/>
<polygon fill="#63b8ff" stroke="#63b8ff" points="961.17,-67.42 971.71,-66.37 962.82,-60.62 961.17,-67.42"/>
</a>
</g>
</g>
<!-- Node17 -->
<g id="Node000017" class="node">
<title>Node17</title>
<g id="a_Node000017"><a xlink:href="top__bar__menu_8cpp.html" target="_top" xlink:title=" ">
<polygon fill="white" stroke="#666666" points="1156,-30 1043,-30 1043,0 1156,0 1156,-30"/>
<text text-anchor="start" x="1051" y="-18" font-family="Helvetica,sans-Serif" font-size="10.00">src/gui/windows/top</text>
<text text-anchor="middle" x="1099.5" y="-7" font-family="Helvetica,sans-Serif" font-size="10.00">_bar_menu.cpp</text>
</a>
</g>
</g>
<!-- Node16&#45;&gt;Node17 -->
<g id="edge20_Node000016_Node000017" class="edge">
<title>Node16&#45;&gt;Node17</title>
<g id="a_edge20_Node000016_Node000017"><a xlink:title=" ">
<path fill="none" stroke="#63b8ff" d="M1051.88,-58.92C1062.35,-49.49 1074.42,-38.61 1083.79,-30.16"/>
<polygon fill="#63b8ff" stroke="#63b8ff" points="1049.34,-56.5 1044.26,-65.8 1054.03,-61.7 1049.34,-56.5"/>
</a>
</g>
</g>
<!-- Node18&#45;&gt;Node2 -->
<g id="edge22_Node000018_Node000002" class="edge">
<title>Node18&#45;&gt;Node2</title>
<g id="a_edge22_Node000018_Node000002"><a xlink:title=" ">
<path fill="none" stroke="#63b8ff" d="M842.41,-193.92C818.86,-183.8 789.94,-171.38 768.12,-162.01"/>
<polygon fill="#63b8ff" stroke="#63b8ff" points="841.23,-197.22 851.8,-197.95 843.99,-190.79 841.23,-197.22"/>
</a>
</g>
</g>
<!-- Node18&#45;&gt;Node6 -->
<g id="edge24_Node000018_Node000006" class="edge">
<title>Node18&#45;&gt;Node6</title>
<g id="a_edge24_Node000018_Node000006"><a xlink:title=" ">
<path fill="none" stroke="#63b8ff" d="M859.36,-190.36C851.81,-182.31 844.48,-172.55 840.5,-162 835.79,-149.53 834.57,-143.94 840.5,-132 850.16,-112.56 871.39,-98.66 887.17,-90.52"/>
<polygon fill="#63b8ff" stroke="#63b8ff" points="857.31,-193.25 866.87,-197.81 862.23,-188.28 857.31,-193.25"/>
</a>
</g>
</g>
<!-- Node19 -->
<g id="Node000019" class="node">
<title>Node19</title>
<g id="a_Node000019"><a xlink:href="mmu_8cpp.html" target="_top" xlink:title="This file implements the MMU (memory management unit) of the CPU.">
<polygon fill="white" stroke="#666666" points="962,-162 849,-162 849,-132 962,-132 962,-162"/>
<text text-anchor="start" x="857" y="-150" font-family="Helvetica,sans-Serif" font-size="10.00">src/core/arm1176jzf</text>
<text text-anchor="middle" x="905.5" y="-139" font-family="Helvetica,sans-Serif" font-size="10.00">_s/mmu/mmu.cpp</text>
</a>
</g>
</g>
<!-- Node18&#45;&gt;Node19 -->
<g id="edge23_Node000018_Node000019" class="edge">
<title>Node18&#45;&gt;Node19</title>
<g id="a_edge23_Node000018_Node000019"><a xlink:title=" ">
<path fill="none" stroke="#63b8ff" d="M892.34,-188.11C895.2,-179.38 898.35,-169.78 900.85,-162.16"/>
<polygon fill="#63b8ff" stroke="#63b8ff" points="888.95,-187.2 889.16,-197.8 895.6,-189.39 888.95,-187.2"/>
</a>
</g>
</g>
<!-- Node21&#45;&gt;Node5 -->
<g id="edge27_Node000021_Node000005" class="edge">
<title>Node21&#45;&gt;Node5</title>
<g id="a_edge27_Node000021_Node000005"><a xlink:title=" ">
<path fill="none" stroke="#63b8ff" d="M346.93,-128.86C314.81,-118.58 274.49,-105.68 244.29,-96.01"/>
<polygon fill="#63b8ff" stroke="#63b8ff" points="346.02,-132.24 356.61,-131.95 348.15,-125.57 346.02,-132.24"/>
</a>
</g>
</g>
<!-- Node21&#45;&gt;Node6 -->
<g id="edge28_Node000021_Node000006" class="edge">
<title>Node21&#45;&gt;Node6</title>
<g id="a_edge28_Node000021_Node000006"><a xlink:title=" ">
<path fill="none" stroke="#63b8ff" d="M471.64,-141.06C560.7,-134.2 717.71,-119.86 850.5,-96 858.69,-94.53 867.45,-92.54 875.56,-90.52"/>
<polygon fill="#63b8ff" stroke="#63b8ff" points="471.36,-137.58 461.65,-141.82 471.89,-144.55 471.36,-137.58"/>
</a>
</g>
</g>
<!-- Node22 -->
<g id="Node000022" class="node">
<title>Node22</title>
<g id="a_Node000022"><a xlink:href="cp10__window_8hpp.html" target="_top" xlink:title="This file defines a window that displays data (information) related to coprocessor 10 (FPU).">
<polygon fill="white" stroke="#666666" points="121,-96 0,-96 0,-66 121,-66 121,-96"/>
<text text-anchor="start" x="8" y="-84" font-family="Helvetica,sans-Serif" font-size="10.00">src/gui/windows/cp10</text>
<text text-anchor="middle" x="60.5" y="-73" font-family="Helvetica,sans-Serif" font-size="10.00">_window.hpp</text>
</a>
</g>
</g>
<!-- Node21&#45;&gt;Node22 -->
<g id="edge29_Node000021_Node000022" class="edge">
<title>Node21&#45;&gt;Node22</title>
<g id="a_edge29_Node000021_Node000022"><a xlink:title=" ">
<path fill="none" stroke="#63b8ff" d="M329.43,-133.12C274.95,-123.19 197.93,-108.98 130.5,-96 127.46,-95.41 124.34,-94.81 121.2,-94.19"/>
<polygon fill="#63b8ff" stroke="#63b8ff" points="328.86,-136.58 339.33,-134.93 330.12,-129.69 328.86,-136.58"/>
</a>
</g>
</g>
<!-- Node22&#45;&gt;Node8 -->
<g id="edge30_Node000022_Node000008" class="edge">
<title>Node22&#45;&gt;Node8</title>
<g id="a_edge30_Node000022_Node000008"><a xlink:title=" ">
<path fill="none" stroke="#63b8ff" d="M131.27,-66.05C391.94,-33.23 463.29,-71.11 718.5,-30 726.67,-28.68 735.41,-26.64 743.39,-24.53"/>
<polygon fill="#63b8ff" stroke="#63b8ff" points="130.6,-62.61 121.12,-67.35 131.49,-69.55 130.6,-62.61"/>
</a>
</g>
</g>
<!-- Node23 -->
<g id="Node000023" class="node">
<title>Node23</title>
<g id="a_Node000023"><a xlink:href="cp10__window_8cpp.html" target="_top" xlink:title="This file implements a window that displays data (information) related to coprocessor 10 (FPU).">
<polygon fill="white" stroke="#666666" points="121,-30 0,-30 0,0 121,0 121,-30"/>
<text text-anchor="start" x="8" y="-18" font-family="Helvetica,sans-Serif" font-size="10.00">src/gui/windows/cp10</text>
<text text-anchor="middle" x="60.5" y="-7" font-family="Helvetica,sans-Serif" font-size="10.00">_window.cpp</text>
</a>
</g>
</g>
<!-- Node22&#45;&gt;Node23 -->
<g id="edge31_Node000022_Node000023" class="edge">
<title>Node22&#45;&gt;Node23</title>
<g id="a_edge31_Node000022_Node000023"><a xlink:title=" ">
<path fill="none" stroke="#63b8ff" d="M60.5,-55.54C60.5,-46.96 60.5,-37.61 60.5,-30.16"/>
<polygon fill="#63b8ff" stroke="#63b8ff" points="57,-55.8 60.5,-65.8 64,-55.8 57,-55.8"/>
</a>
</g>
</g>
<!-- Node24&#45;&gt;Node14 -->
<g id="edge36_Node000024_Node000014" class="edge">
<title>Node24&#45;&gt;Node14</title>
<g id="a_edge36_Node000024_Node000014"><a xlink:title=" ">
<path fill="none" stroke="#63b8ff" d="M1168.5,-127.35C1168.5,-117.47 1168.5,-105.51 1168.5,-96.36"/>
<polygon fill="#63b8ff" stroke="#63b8ff" points="1165,-127.37 1168.5,-137.37 1172,-127.37 1165,-127.37"/>
</a>
</g>
</g>
<!-- Node24&#45;&gt;Node15 -->
<g id="edge35_Node000024_Node000015" class="edge">
<title>Node24&#45;&gt;Node15</title>
<g id="a_edge35_Node000024_Node000015"><a xlink:title=" ">
<path fill="none" stroke="#63b8ff" d="M1242.29,-138.85C1298.27,-131.72 1368.56,-118.52 1386.5,-96 1404.9,-72.91 1372.52,-46.12 1347.49,-30.15"/>
<polygon fill="#63b8ff" stroke="#63b8ff" points="1241.52,-135.42 1232.02,-140.11 1242.38,-142.37 1241.52,-135.42"/>
</a>
</g>
</g>
<!-- Node24&#45;&gt;Node16 -->
<g id="edge37_Node000024_Node000016" class="edge">
<title>Node24&#45;&gt;Node16</title>
<g id="a_edge37_Node000024_Node000016"><a xlink:title=" ">
<path fill="none" stroke="#63b8ff" d="M1140.23,-133.08C1116.79,-122.36 1083.51,-107.15 1059.38,-96.12"/>
<polygon fill="#63b8ff" stroke="#63b8ff" points="1139.07,-136.39 1149.62,-137.37 1141.98,-130.03 1139.07,-136.39"/>
</a>
</g>
</g>
<!-- Node25 -->
<g id="Node000025" class="node">
<title>Node25</title>
<g id="a_Node000025"><a xlink:href="elf__loader_8cpp.html" target="_top" xlink:title="This file implements the functionality of an ELF loader defined in elf_loader.hpp.">
<polygon fill="white" stroke="#666666" points="1377.5,-90.5 1251.5,-90.5 1251.5,-71.5 1377.5,-71.5 1377.5,-90.5"/>
<text text-anchor="middle" x="1314.5" y="-78.5" font-family="Helvetica,sans-Serif" font-size="10.00">src/utils/elf_loader.cpp</text>
</a>
</g>
</g>
<!-- Node24&#45;&gt;Node25 -->
<g id="edge38_Node000024_Node000025" class="edge">
<title>Node24&#45;&gt;Node25</title>
<g id="a_edge38_Node000024_Node000025"><a xlink:title=" ">
<path fill="none" stroke="#63b8ff" d="M1197.71,-133.19C1226.49,-120.58 1269.65,-101.66 1294.66,-90.7"/>
<polygon fill="#63b8ff" stroke="#63b8ff" points="1195.94,-130.15 1188.19,-137.37 1198.75,-136.56 1195.94,-130.15"/>
</a>
</g>
</g>
</g>
</svg>
