<?xml version="1.0" encoding="UTF-8" standalone="no"?>
<!DOCTYPE svg PUBLIC "-//W3C//DTD SVG 1.1//EN"
 "http://www.w3.org/Graphics/SVG/1.1/DTD/svg11.dtd">
<!-- Generated by graphviz version 2.43.0 (0)
 -->
<!-- Title: src/core/coprocessors/cp15/c1.hpp Pages: 1 -->
<svg width="160pt" height="214pt"
 viewBox="0.00 0.00 160.00 214.00" xmlns="http://www.w3.org/2000/svg" xmlns:xlink="http://www.w3.org/1999/xlink">
<g id="graph0" class="graph" transform="scale(1 1) rotate(0) translate(4 210)">
<title>src/core/coprocessors/cp15/c1.hpp</title>
<!-- Node1 -->
<g id="Node000001" class="node">
<title>Node1</title>
<g id="a_Node000001"><a xlink:title="This file defines the primary register C1 of coprocessor CP15.">
<polygon fill="#999999" stroke="#666666" points="147.5,-206 25.5,-206 25.5,-176 147.5,-176 147.5,-206"/>
<text text-anchor="start" x="33.5" y="-194" font-family="Helvetica,sans-Serif" font-size="10.00">src/core/coprocessors</text>
<text text-anchor="middle" x="86.5" y="-183" font-family="Helvetica,sans-Serif" font-size="10.00">/cp15/c1.hpp</text>
</a>
</g>
</g>
<!-- Node2 -->
<g id="Node000002" class="node">
<title>Node2</title>
<g id="a_Node000002"><a xlink:href="primary__reg_8hpp.html" target="_top" xlink:title="This file defines a primary register interface of coprocessor CP15.">
<polygon fill="white" stroke="#666666" points="97,-140 0,-140 0,-121 97,-121 97,-140"/>
<text text-anchor="middle" x="48.5" y="-128" font-family="Helvetica,sans-Serif" font-size="10.00">primary_reg.hpp</text>
</a>
</g>
</g>
<!-- Node1&#45;&gt;Node2 -->
<g id="edge1_Node000001_Node000002" class="edge">
<title>Node1&#45;&gt;Node2</title>
<g id="a_edge1_Node000001_Node000002"><a xlink:title=" ">
<path fill="none" stroke="#63b8ff" d="M77.3,-175.84C72.01,-167.69 65.32,-157.4 59.72,-148.78"/>
<polygon fill="#63b8ff" stroke="#63b8ff" points="62.58,-146.75 54.19,-140.27 56.71,-150.56 62.58,-146.75"/>
</a>
</g>
</g>
<!-- Node3 -->
<g id="Node000003" class="node">
<title>Node3</title>
<g id="a_Node000003"><a xlink:href="logging__system_8hpp.html" target="_top" xlink:title="This file defines a logging system that is used in the project.">
<polygon fill="white" stroke="#666666" points="152,-85 21,-85 21,-55 152,-55 152,-85"/>
<text text-anchor="start" x="29" y="-73" font-family="Helvetica,sans-Serif" font-size="10.00">zero_mate/utils/logging</text>
<text text-anchor="middle" x="86.5" y="-62" font-family="Helvetica,sans-Serif" font-size="10.00">_system.hpp</text>
</a>
</g>
</g>
<!-- Node1&#45;&gt;Node3 -->
<g id="edge4_Node000001_Node000003" class="edge">
<title>Node1&#45;&gt;Node3</title>
<g id="a_edge4_Node000001_Node000003"><a xlink:title=" ">
<path fill="none" stroke="#63b8ff" d="M93.41,-175.96C97.85,-166.15 103.19,-152.6 105.5,-140 108.32,-124.61 103.78,-107.67 98.42,-94.43"/>
<polygon fill="#63b8ff" stroke="#63b8ff" points="101.54,-92.82 94.28,-85.1 95.14,-95.66 101.54,-92.82"/>
</a>
</g>
</g>
<!-- Node2&#45;&gt;Node3 -->
<g id="edge2_Node000002_Node000003" class="edge">
<title>Node2&#45;&gt;Node3</title>
<g id="a_edge2_Node000002_Node000003"><a xlink:title=" ">
<path fill="none" stroke="#63b8ff" d="M54.11,-120.87C58.74,-113.74 65.53,-103.28 71.7,-93.79"/>
<polygon fill="#63b8ff" stroke="#63b8ff" points="74.82,-95.41 77.33,-85.11 68.95,-91.59 74.82,-95.41"/>
</a>
</g>
</g>
<!-- Node4 -->
<g id="Node000004" class="node">
<title>Node4</title>
<g id="a_Node000004"><a xlink:href="logger_8hpp.html" target="_top" xlink:title="This file defines a general logger interface.">
<polygon fill="white" stroke="#666666" points="120.5,-19 52.5,-19 52.5,0 120.5,0 120.5,-19"/>
<text text-anchor="middle" x="86.5" y="-7" font-family="Helvetica,sans-Serif" font-size="10.00">logger.hpp</text>
</a>
</g>
</g>
<!-- Node3&#45;&gt;Node4 -->
<g id="edge3_Node000003_Node000004" class="edge">
<title>Node3&#45;&gt;Node4</title>
<g id="a_edge3_Node000003_Node000004"><a xlink:title=" ">
<path fill="none" stroke="#63b8ff" d="M86.5,-54.84C86.5,-47.21 86.5,-37.7 86.5,-29.45"/>
<polygon fill="#63b8ff" stroke="#63b8ff" points="90,-29.27 86.5,-19.27 83,-29.27 90,-29.27"/>
</a>
</g>
</g>
</g>
</svg>
