<?xml version="1.0" encoding="UTF-8" standalone="no"?>
<!DOCTYPE svg PUBLIC "-//W3C//DTD SVG 1.1//EN"
 "http://www.w3.org/Graphics/SVG/1.1/DTD/svg11.dtd">
<!-- Generated by graphviz version 2.43.0 (0)
 -->
<!-- Title: src/core/coprocessors/cp15/c7.hpp Pages: 1 -->
<svg width="1492pt" height="434pt"
 viewBox="0.00 0.00 1491.64 434.00" xmlns="http://www.w3.org/2000/svg" xmlns:xlink="http://www.w3.org/1999/xlink">
<g id="graph0" class="graph" transform="scale(1 1) rotate(0) translate(4 430)">
<title>src/core/coprocessors/cp15/c7.hpp</title>
<!-- Node1 -->
<g id="Node000001" class="node">
<title>Node1</title>
<g id="a_Node000001"><a xlink:title="This file defines the primary register C7 of coprocessor CP15.">
<polygon fill="#999999" stroke="#666666" points="666.5,-426 544.5,-426 544.5,-396 666.5,-396 666.5,-426"/>
<text text-anchor="start" x="552.5" y="-414" font-family="Helvetica,sans-Serif" font-size="10.00">src/core/coprocessors</text>
<text text-anchor="middle" x="605.5" y="-403" font-family="Helvetica,sans-Serif" font-size="10.00">/cp15/c7.hpp</text>
</a>
</g>
</g>
<!-- Node2 -->
<g id="Node000002" class="node">
<title>Node2</title>
<g id="a_Node000002"><a xlink:href="c7_8cpp.html" target="_top" xlink:title="This file implements the primary register C7 of coprocessor CP15.">
<polygon fill="white" stroke="#666666" points="596.5,-360 474.5,-360 474.5,-330 596.5,-330 596.5,-360"/>
<text text-anchor="start" x="482.5" y="-348" font-family="Helvetica,sans-Serif" font-size="10.00">src/core/coprocessors</text>
<text text-anchor="middle" x="535.5" y="-337" font-family="Helvetica,sans-Serif" font-size="10.00">/cp15/c7.cpp</text>
</a>
</g>
</g>
<!-- Node1&#45;&gt;Node2 -->
<g id="edge1_Node000001_Node000002" class="edge">
<title>Node1&#45;&gt;Node2</title>
<g id="a_edge1_Node000001_Node000002"><a xlink:title=" ">
<path fill="none" stroke="#63b8ff" d="M582.45,-388.92C572.13,-379.49 560.23,-368.61 550.99,-360.16"/>
<polygon fill="#63b8ff" stroke="#63b8ff" points="580.22,-391.63 589.96,-395.8 584.95,-386.47 580.22,-391.63"/>
</a>
</g>
</g>
<!-- Node3 -->
<g id="Node000003" class="node">
<title>Node3</title>
<g id="a_Node000003"><a xlink:href="cp15_8hpp.html" target="_top" xlink:title="This file defines coprocessor CP15.">
<polygon fill="white" stroke="#666666" points="736.5,-360 614.5,-360 614.5,-330 736.5,-330 736.5,-360"/>
<text text-anchor="start" x="622.5" y="-348" font-family="Helvetica,sans-Serif" font-size="10.00">src/core/coprocessors</text>
<text text-anchor="middle" x="675.5" y="-337" font-family="Helvetica,sans-Serif" font-size="10.00">/cp15/cp15.hpp</text>
</a>
</g>
</g>
<!-- Node1&#45;&gt;Node3 -->
<g id="edge2_Node000001_Node000003" class="edge">
<title>Node1&#45;&gt;Node3</title>
<g id="a_edge2_Node000001_Node000003"><a xlink:title=" ">
<path fill="none" stroke="#63b8ff" d="M628.55,-388.92C638.87,-379.49 650.77,-368.61 660.01,-360.16"/>
<polygon fill="#63b8ff" stroke="#63b8ff" points="626.05,-386.47 621.04,-395.8 630.78,-391.63 626.05,-386.47"/>
</a>
</g>
</g>
<!-- Node4 -->
<g id="Node000004" class="node">
<title>Node4</title>
<g id="a_Node000004"><a xlink:href="core_8hpp.html" target="_top" xlink:title="This file defines a class that represents a CPU core (arm1176jzf_s).">
<polygon fill="white" stroke="#666666" points="713,-162 600,-162 600,-132 713,-132 713,-162"/>
<text text-anchor="start" x="608" y="-150" font-family="Helvetica,sans-Serif" font-size="10.00">src/core/arm1176jzf</text>
<text text-anchor="middle" x="656.5" y="-139" font-family="Helvetica,sans-Serif" font-size="10.00">_s/core.hpp</text>
</a>
</g>
</g>
<!-- Node3&#45;&gt;Node4 -->
<g id="edge3_Node000003_Node000004" class="edge">
<title>Node3&#45;&gt;Node4</title>
<g id="a_edge3_Node000003_Node000004"><a xlink:title=" ">
<path fill="none" stroke="#63b8ff" d="M664.61,-320.63C661.32,-312.4 658.15,-302.96 656.5,-294 647.76,-246.38 652.06,-188.55 654.81,-162.25"/>
<polygon fill="#63b8ff" stroke="#63b8ff" points="661.45,-322.13 668.59,-329.96 667.89,-319.39 661.45,-322.13"/>
</a>
</g>
</g>
<!-- Node8 -->
<g id="Node000008" class="node">
<title>Node8</title>
<g id="a_Node000008"><a xlink:href="soc_8hpp.html" target="_top" xlink:title=" ">
<polygon fill="white" stroke="#666666" points="147,-90.5 52,-90.5 52,-71.5 147,-71.5 147,-90.5"/>
<text text-anchor="middle" x="99.5" y="-78.5" font-family="Helvetica,sans-Serif" font-size="10.00">src/core/soc.hpp</text>
</a>
</g>
</g>
<!-- Node3&#45;&gt;Node8 -->
<g id="edge45_Node000003_Node000008" class="edge">
<title>Node3&#45;&gt;Node8</title>
<g id="a_edge45_Node000003_Node000008"><a xlink:title=" ">
<path fill="none" stroke="#63b8ff" d="M631.35,-326.08C554.19,-294.51 390.11,-226.22 254.5,-162 202.77,-137.51 142.94,-105.57 115.16,-90.54"/>
<polygon fill="#63b8ff" stroke="#63b8ff" points="630.18,-329.39 640.76,-329.93 632.83,-322.91 630.18,-329.39"/>
</a>
</g>
</g>
<!-- Node20 -->
<g id="Node000020" class="node">
<title>Node20</title>
<g id="a_Node000020"><a xlink:href="mmu_8hpp.html" target="_top" xlink:title="This file defines the MMU (memory management unit) of the CPU.">
<polygon fill="white" stroke="#666666" points="543,-228 430,-228 430,-198 543,-198 543,-228"/>
<text text-anchor="start" x="438" y="-216" font-family="Helvetica,sans-Serif" font-size="10.00">src/core/arm1176jzf</text>
<text text-anchor="middle" x="486.5" y="-205" font-family="Helvetica,sans-Serif" font-size="10.00">_s/mmu/mmu.hpp</text>
</a>
</g>
</g>
<!-- Node3&#45;&gt;Node20 -->
<g id="edge23_Node000003_Node000020" class="edge">
<title>Node3&#45;&gt;Node20</title>
<g id="a_edge23_Node000003_Node000020"><a xlink:title=" ">
<path fill="none" stroke="#63b8ff" d="M646.21,-323.85C607.62,-297.31 540.7,-251.28 507.06,-228.14"/>
<polygon fill="#63b8ff" stroke="#63b8ff" points="644.69,-327.06 654.91,-329.84 648.66,-321.29 644.69,-327.06"/>
</a>
</g>
</g>
<!-- Node22 -->
<g id="Node000022" class="node">
<title>Node22</title>
<g id="a_Node000022"><a xlink:href="bus_8hpp.html" target="_top" xlink:title="This file defines an interface the CPU uses to access different memory&#45;mapped peripherals.">
<polygon fill="white" stroke="#666666" points="761.5,-288.5 665.5,-288.5 665.5,-269.5 761.5,-269.5 761.5,-288.5"/>
<text text-anchor="middle" x="713.5" y="-276.5" font-family="Helvetica,sans-Serif" font-size="10.00">src/core/bus.hpp</text>
</a>
</g>
</g>
<!-- Node3&#45;&gt;Node22 -->
<g id="edge27_Node000003_Node000022" class="edge">
<title>Node3&#45;&gt;Node22</title>
<g id="a_edge27_Node000003_Node000022"><a xlink:title=" ">
<path fill="none" stroke="#63b8ff" d="M689.19,-320.95C695.8,-309.81 703.34,-297.11 708.25,-288.84"/>
<polygon fill="#63b8ff" stroke="#63b8ff" points="686.03,-319.41 683.93,-329.8 692.05,-322.98 686.03,-319.41"/>
</a>
</g>
</g>
<!-- Node29 -->
<g id="Node000029" class="node">
<title>Node29</title>
<g id="a_Node000029"><a xlink:href="cp15_8cpp.html" target="_top" xlink:title="This file implements coprocessor CP15.">
<polygon fill="white" stroke="#666666" points="901.5,-294 779.5,-294 779.5,-264 901.5,-264 901.5,-294"/>
<text text-anchor="start" x="787.5" y="-282" font-family="Helvetica,sans-Serif" font-size="10.00">src/core/coprocessors</text>
<text text-anchor="middle" x="840.5" y="-271" font-family="Helvetica,sans-Serif" font-size="10.00">/cp15/cp15.cpp</text>
</a>
</g>
</g>
<!-- Node3&#45;&gt;Node29 -->
<g id="edge44_Node000003_Node000029" class="edge">
<title>Node3&#45;&gt;Node29</title>
<g id="a_edge44_Node000003_Node000029"><a xlink:title=" ">
<path fill="none" stroke="#63b8ff" d="M721.07,-326.32C747.34,-316.14 779.89,-303.51 804.37,-294.01"/>
<polygon fill="#63b8ff" stroke="#63b8ff" points="719.77,-323.08 711.71,-329.95 722.3,-329.6 719.77,-323.08"/>
</a>
</g>
</g>
<!-- Node30 -->
<g id="Node000030" class="node">
<title>Node30</title>
<g id="a_Node000030"><a xlink:href="cp15__window_8hpp.html" target="_top" xlink:title="This file defines a window that displays data (information) related to coprocessor 15.">
<polygon fill="white" stroke="#666666" points="1095,-294 974,-294 974,-264 1095,-264 1095,-294"/>
<text text-anchor="start" x="982" y="-282" font-family="Helvetica,sans-Serif" font-size="10.00">src/gui/windows/cp15</text>
<text text-anchor="middle" x="1034.5" y="-271" font-family="Helvetica,sans-Serif" font-size="10.00">_window.hpp</text>
</a>
</g>
</g>
<!-- Node3&#45;&gt;Node30 -->
<g id="edge46_Node000003_Node000030" class="edge">
<title>Node3&#45;&gt;Node30</title>
<g id="a_edge46_Node000003_Node000030"><a xlink:title=" ">
<path fill="none" stroke="#63b8ff" d="M746.77,-331.29C813.13,-319.46 911,-302.02 973.75,-290.83"/>
<polygon fill="#63b8ff" stroke="#63b8ff" points="746.04,-327.87 736.81,-333.07 747.27,-334.76 746.04,-327.87"/>
</a>
</g>
</g>
<!-- Node5 -->
<g id="Node000005" class="node">
<title>Node5</title>
<g id="a_Node000005"><a xlink:href="core_8cpp.html" target="_top" xlink:title="This file implements the CCPU_Core class defined in core.hpp.">
<polygon fill="white" stroke="#666666" points="278,-96 165,-96 165,-66 278,-66 278,-96"/>
<text text-anchor="start" x="173" y="-84" font-family="Helvetica,sans-Serif" font-size="10.00">src/core/arm1176jzf</text>
<text text-anchor="middle" x="221.5" y="-73" font-family="Helvetica,sans-Serif" font-size="10.00">_s/core.cpp</text>
</a>
</g>
</g>
<!-- Node4&#45;&gt;Node5 -->
<g id="edge4_Node000004_Node000005" class="edge">
<title>Node4&#45;&gt;Node5</title>
<g id="a_edge4_Node000004_Node000005"><a xlink:title=" ">
<path fill="none" stroke="#63b8ff" d="M589.96,-132.73C588.46,-132.48 586.97,-132.23 585.5,-132 453.74,-111.08 419.1,-117.86 287.5,-96 284.5,-95.5 281.42,-94.96 278.32,-94.39"/>
<polygon fill="#63b8ff" stroke="#63b8ff" points="589.54,-136.2 599.99,-134.46 590.73,-129.31 589.54,-136.2"/>
</a>
</g>
</g>
<!-- Node6 -->
<g id="Node000006" class="node">
<title>Node6</title>
<g id="a_Node000006"><a xlink:href="coprocessor_8cpp.html" target="_top" xlink:title="This file implements the common functionality of a general interface of a coprocessor.">
<polygon fill="white" stroke="#666666" points="418.5,-96 296.5,-96 296.5,-66 418.5,-66 418.5,-96"/>
<text text-anchor="start" x="304.5" y="-84" font-family="Helvetica,sans-Serif" font-size="10.00">src/core/coprocessors</text>
<text text-anchor="middle" x="357.5" y="-73" font-family="Helvetica,sans-Serif" font-size="10.00">/coprocessor.cpp</text>
</a>
</g>
</g>
<!-- Node4&#45;&gt;Node6 -->
<g id="edge5_Node000004_Node000006" class="edge">
<title>Node4&#45;&gt;Node6</title>
<g id="a_edge5_Node000004_Node000006"><a xlink:title=" ">
<path fill="none" stroke="#63b8ff" d="M589.93,-131.75C538.74,-120.79 468.56,-105.77 418.75,-95.11"/>
<polygon fill="#63b8ff" stroke="#63b8ff" points="589.4,-135.22 599.91,-133.89 590.86,-128.37 589.4,-135.22"/>
</a>
</g>
</g>
<!-- Node7 -->
<g id="Node000007" class="node">
<title>Node7</title>
<g id="a_Node000007"><a xlink:href="cp10_8cpp.html" target="_top" xlink:title="This file implements coprocessor CP10 (single&#45;precision FPU).">
<polygon fill="white" stroke="#666666" points="866.5,-96 744.5,-96 744.5,-66 866.5,-66 866.5,-96"/>
<text text-anchor="start" x="752.5" y="-84" font-family="Helvetica,sans-Serif" font-size="10.00">src/core/coprocessors</text>
<text text-anchor="middle" x="805.5" y="-73" font-family="Helvetica,sans-Serif" font-size="10.00">/cp10/cp10.cpp</text>
</a>
</g>
</g>
<!-- Node4&#45;&gt;Node7 -->
<g id="edge6_Node000004_Node000007" class="edge">
<title>Node4&#45;&gt;Node7</title>
<g id="a_edge6_Node000004_Node000007"><a xlink:title=" ">
<path fill="none" stroke="#63b8ff" d="M698.59,-127.92C722.14,-117.8 751.06,-105.38 772.88,-96.01"/>
<polygon fill="#63b8ff" stroke="#63b8ff" points="697.01,-124.79 689.2,-131.95 699.77,-131.22 697.01,-124.79"/>
</a>
</g>
</g>
<!-- Node4&#45;&gt;Node8 -->
<g id="edge7_Node000004_Node000008" class="edge">
<title>Node4&#45;&gt;Node8</title>
<g id="a_edge7_Node000004_Node000008"><a xlink:title=" ">
<path fill="none" stroke="#63b8ff" d="M589.42,-132.57C588.1,-132.37 586.79,-132.18 585.5,-132 395.57,-105.41 344.7,-127.36 155.5,-96 147.1,-94.61 138.1,-92.6 129.83,-90.53"/>
<polygon fill="#63b8ff" stroke="#63b8ff" points="589.2,-136.08 599.63,-134.21 590.31,-129.17 589.2,-136.08"/>
</a>
</g>
</g>
<!-- Node12 -->
<g id="Node000012" class="node">
<title>Node12</title>
<g id="a_Node000012"><a xlink:href="control__window_8hpp.html" target="_top" xlink:title="This file defines a window that allows the user to control CPU execution.">
<polygon fill="white" stroke="#666666" points="568,-96 437,-96 437,-66 568,-66 568,-96"/>
<text text-anchor="start" x="445" y="-84" font-family="Helvetica,sans-Serif" font-size="10.00">src/gui/windows/control</text>
<text text-anchor="middle" x="502.5" y="-73" font-family="Helvetica,sans-Serif" font-size="10.00">_window.hpp</text>
</a>
</g>
</g>
<!-- Node4&#45;&gt;Node12 -->
<g id="edge11_Node000004_Node000012" class="edge">
<title>Node4&#45;&gt;Node12</title>
<g id="a_edge11_Node000004_Node000012"><a xlink:title=" ">
<path fill="none" stroke="#63b8ff" d="M613.32,-128.05C588.92,-117.91 558.87,-105.43 536.22,-96.01"/>
<polygon fill="#63b8ff" stroke="#63b8ff" points="612.13,-131.35 622.7,-131.95 614.81,-124.89 612.13,-131.35"/>
</a>
</g>
</g>
<!-- Node14 -->
<g id="Node000014" class="node">
<title>Node14</title>
<g id="a_Node000014"><a xlink:href="registers__window_8hpp.html" target="_top" xlink:title="This file defines a window that displays the contents of all CPU registers.">
<polygon fill="white" stroke="#666666" points="726.5,-96 586.5,-96 586.5,-66 726.5,-66 726.5,-96"/>
<text text-anchor="start" x="594.5" y="-84" font-family="Helvetica,sans-Serif" font-size="10.00">src/gui/windows/registers</text>
<text text-anchor="middle" x="656.5" y="-73" font-family="Helvetica,sans-Serif" font-size="10.00">_window.hpp</text>
</a>
</g>
</g>
<!-- Node4&#45;&gt;Node14 -->
<g id="edge14_Node000004_Node000014" class="edge">
<title>Node4&#45;&gt;Node14</title>
<g id="a_edge14_Node000004_Node000014"><a xlink:title=" ">
<path fill="none" stroke="#63b8ff" d="M656.5,-121.54C656.5,-112.96 656.5,-103.61 656.5,-96.16"/>
<polygon fill="#63b8ff" stroke="#63b8ff" points="653,-121.8 656.5,-131.8 660,-121.8 653,-121.8"/>
</a>
</g>
</g>
<!-- Node16 -->
<g id="Node000016" class="node">
<title>Node16</title>
<g id="a_Node000016"><a xlink:href="source__code__window_8hpp.html" target="_top" xlink:title="This file defines a window that displays loaded ELF files (disassembled instructions of the source co...">
<polygon fill="white" stroke="#666666" points="1324.5,-96 1194.5,-96 1194.5,-66 1324.5,-66 1324.5,-96"/>
<text text-anchor="start" x="1202.5" y="-84" font-family="Helvetica,sans-Serif" font-size="10.00">src/gui/windows/source</text>
<text text-anchor="middle" x="1259.5" y="-73" font-family="Helvetica,sans-Serif" font-size="10.00">_code_window.hpp</text>
</a>
</g>
</g>
<!-- Node4&#45;&gt;Node16 -->
<g id="edge17_Node000004_Node000016" class="edge">
<title>Node4&#45;&gt;Node16</title>
<g id="a_edge17_Node000004_Node000016"><a xlink:title=" ">
<path fill="none" stroke="#63b8ff" d="M723.28,-132.89C725.37,-132.57 727.45,-132.28 729.5,-132 930.97,-104.81 983.99,-122.94 1185.5,-96 1188.35,-95.62 1191.26,-95.2 1194.19,-94.75"/>
<polygon fill="#63b8ff" stroke="#63b8ff" points="722.71,-129.43 713.39,-134.46 723.81,-136.35 722.71,-129.43"/>
</a>
</g>
</g>
<!-- Node18 -->
<g id="Node000018" class="node">
<title>Node18</title>
<g id="a_Node000018"><a xlink:href="top__bar__menu_8hpp.html" target="_top" xlink:title=" ">
<polygon fill="white" stroke="#666666" points="1176,-96 1063,-96 1063,-66 1176,-66 1176,-96"/>
<text text-anchor="start" x="1071" y="-84" font-family="Helvetica,sans-Serif" font-size="10.00">src/gui/windows/top</text>
<text text-anchor="middle" x="1119.5" y="-73" font-family="Helvetica,sans-Serif" font-size="10.00">_bar_menu.hpp</text>
</a>
</g>
</g>
<!-- Node4&#45;&gt;Node18 -->
<g id="edge20_Node000004_Node000018" class="edge">
<title>Node4&#45;&gt;Node18</title>
<g id="a_edge20_Node000004_Node000018"><a xlink:title=" ">
<path fill="none" stroke="#63b8ff" d="M722.89,-133.08C725.12,-132.71 727.33,-132.35 729.5,-132 856.03,-111.92 888.46,-112.55 1015.5,-96 1030.86,-94 1047.48,-91.78 1062.84,-89.72"/>
<polygon fill="#63b8ff" stroke="#63b8ff" points="722.28,-129.63 713.03,-134.79 723.48,-136.53 722.28,-129.63"/>
</a>
</g>
</g>
<!-- Node9 -->
<g id="Node000009" class="node">
<title>Node9</title>
<g id="a_Node000009"><a xlink:href="soc_8cpp.html" target="_top" xlink:title=" ">
<polygon fill="white" stroke="#666666" points="95,-24.5 0,-24.5 0,-5.5 95,-5.5 95,-24.5"/>
<text text-anchor="middle" x="47.5" y="-12.5" font-family="Helvetica,sans-Serif" font-size="10.00">src/core/soc.cpp</text>
</a>
</g>
</g>
<!-- Node8&#45;&gt;Node9 -->
<g id="edge8_Node000008_Node000009" class="edge">
<title>Node8&#45;&gt;Node9</title>
<g id="a_edge8_Node000008_Node000009"><a xlink:title=" ">
<path fill="none" stroke="#63b8ff" d="M85.9,-63.27C75.93,-50.99 62.77,-34.8 54.74,-24.91"/>
<polygon fill="#63b8ff" stroke="#63b8ff" points="83.46,-65.81 92.49,-71.37 88.9,-61.4 83.46,-65.81"/>
</a>
</g>
</g>
<!-- Node10 -->
<g id="Node000010" class="node">
<title>Node10</title>
<g id="a_Node000010"><a xlink:href="gui_8cpp.html" target="_top" xlink:title="This file implements the main GUI entry function that takes care of creating and rendering all window...">
<polygon fill="white" stroke="#666666" points="1017,-24.5 930,-24.5 930,-5.5 1017,-5.5 1017,-24.5"/>
<text text-anchor="middle" x="973.5" y="-12.5" font-family="Helvetica,sans-Serif" font-size="10.00">src/gui/gui.cpp</text>
</a>
</g>
</g>
<!-- Node8&#45;&gt;Node10 -->
<g id="edge9_Node000008_Node000010" class="edge">
<title>Node8&#45;&gt;Node10</title>
<g id="a_edge9_Node000008_Node000010"><a xlink:title=" ">
<path fill="none" stroke="#63b8ff" d="M138.77,-69.14C144.35,-67.91 150.05,-66.8 155.5,-66 492.7,-16.43 584.76,-82.61 921.5,-30 929.63,-28.73 938.31,-26.68 946.21,-24.53"/>
<polygon fill="#63b8ff" stroke="#63b8ff" points="137.85,-65.77 128.93,-71.48 139.46,-72.58 137.85,-65.77"/>
</a>
</g>
</g>
<!-- Node11 -->
<g id="Node000011" class="node">
<title>Node11</title>
<g id="a_Node000011"><a xlink:href="main_8cpp.html" target="_top" xlink:title="This file defines and implements the main function of the application.">
<polygon fill="white" stroke="#666666" points="192,-24.5 113,-24.5 113,-5.5 192,-5.5 192,-24.5"/>
<text text-anchor="middle" x="152.5" y="-12.5" font-family="Helvetica,sans-Serif" font-size="10.00">src/main.cpp</text>
</a>
</g>
</g>
<!-- Node8&#45;&gt;Node11 -->
<g id="edge10_Node000008_Node000011" class="edge">
<title>Node8&#45;&gt;Node11</title>
<g id="a_edge10_Node000008_Node000011"><a xlink:title=" ">
<path fill="none" stroke="#63b8ff" d="M113.06,-63.62C123.26,-51.31 136.85,-34.89 145.13,-24.91"/>
<polygon fill="#63b8ff" stroke="#63b8ff" points="110.33,-61.43 106.65,-71.37 115.72,-65.9 110.33,-61.43"/>
</a>
</g>
</g>
<!-- Node12&#45;&gt;Node10 -->
<g id="edge12_Node000012_Node000010" class="edge">
<title>Node12&#45;&gt;Node10</title>
<g id="a_edge12_Node000012_Node000010"><a xlink:title=" ">
<path fill="none" stroke="#63b8ff" d="M578.53,-65.94C731.43,-44.47 773.61,-57.47 921.5,-30 929.22,-28.57 937.47,-26.57 945.08,-24.53"/>
<polygon fill="#63b8ff" stroke="#63b8ff" points="577.7,-62.53 568.3,-67.41 578.7,-69.46 577.7,-62.53"/>
</a>
</g>
</g>
<!-- Node13 -->
<g id="Node000013" class="node">
<title>Node13</title>
<g id="a_Node000013"><a xlink:href="control__window_8cpp.html" target="_top" xlink:title="This file implements a window that allows the user to control CPU execution.">
<polygon fill="white" stroke="#666666" points="568,-30 437,-30 437,0 568,0 568,-30"/>
<text text-anchor="start" x="445" y="-18" font-family="Helvetica,sans-Serif" font-size="10.00">src/gui/windows/control</text>
<text text-anchor="middle" x="502.5" y="-7" font-family="Helvetica,sans-Serif" font-size="10.00">_window.cpp</text>
</a>
</g>
</g>
<!-- Node12&#45;&gt;Node13 -->
<g id="edge13_Node000012_Node000013" class="edge">
<title>Node12&#45;&gt;Node13</title>
<g id="a_edge13_Node000012_Node000013"><a xlink:title=" ">
<path fill="none" stroke="#63b8ff" d="M502.5,-55.54C502.5,-46.96 502.5,-37.61 502.5,-30.16"/>
<polygon fill="#63b8ff" stroke="#63b8ff" points="499,-55.8 502.5,-65.8 506,-55.8 499,-55.8"/>
</a>
</g>
</g>
<!-- Node14&#45;&gt;Node10 -->
<g id="edge15_Node000014_Node000010" class="edge">
<title>Node14&#45;&gt;Node10</title>
<g id="a_edge15_Node000014_Node000010"><a xlink:title=" ">
<path fill="none" stroke="#63b8ff" d="M736.99,-65.51C801.66,-53.74 887.17,-37.85 921.5,-30 928.61,-28.37 936.21,-26.44 943.35,-24.54"/>
<polygon fill="#63b8ff" stroke="#63b8ff" points="736.01,-62.13 726.8,-67.36 737.26,-69.02 736.01,-62.13"/>
</a>
</g>
</g>
<!-- Node15 -->
<g id="Node000015" class="node">
<title>Node15</title>
<g id="a_Node000015"><a xlink:href="registers__window_8cpp.html" target="_top" xlink:title="This file implements a window that displays the contents of all CPU registers.">
<polygon fill="white" stroke="#666666" points="726.5,-30 586.5,-30 586.5,0 726.5,0 726.5,-30"/>
<text text-anchor="start" x="594.5" y="-18" font-family="Helvetica,sans-Serif" font-size="10.00">src/gui/windows/registers</text>
<text text-anchor="middle" x="656.5" y="-7" font-family="Helvetica,sans-Serif" font-size="10.00">_window.cpp</text>
</a>
</g>
</g>
<!-- Node14&#45;&gt;Node15 -->
<g id="edge16_Node000014_Node000015" class="edge">
<title>Node14&#45;&gt;Node15</title>
<g id="a_edge16_Node000014_Node000015"><a xlink:title=" ">
<path fill="none" stroke="#63b8ff" d="M656.5,-55.54C656.5,-46.96 656.5,-37.61 656.5,-30.16"/>
<polygon fill="#63b8ff" stroke="#63b8ff" points="653,-55.8 656.5,-65.8 660,-55.8 653,-55.8"/>
</a>
</g>
</g>
<!-- Node16&#45;&gt;Node10 -->
<g id="edge18_Node000016_Node000010" class="edge">
<title>Node16&#45;&gt;Node10</title>
<g id="a_edge18_Node000016_Node000010"><a xlink:title=" ">
<path fill="none" stroke="#63b8ff" d="M1186.9,-63.75C1131.07,-51.26 1056.17,-34.5 1011.56,-24.52"/>
<polygon fill="#63b8ff" stroke="#63b8ff" points="1186.21,-67.19 1196.74,-65.95 1187.74,-60.36 1186.21,-67.19"/>
</a>
</g>
</g>
<!-- Node17 -->
<g id="Node000017" class="node">
<title>Node17</title>
<g id="a_Node000017"><a xlink:href="source__code__window_8cpp.html" target="_top" xlink:title="This file implements a window that displays loaded ELF files (disassembled instructions of the source...">
<polygon fill="white" stroke="#666666" points="1442.5,-30 1312.5,-30 1312.5,0 1442.5,0 1442.5,-30"/>
<text text-anchor="start" x="1320.5" y="-18" font-family="Helvetica,sans-Serif" font-size="10.00">src/gui/windows/source</text>
<text text-anchor="middle" x="1377.5" y="-7" font-family="Helvetica,sans-Serif" font-size="10.00">_code_window.cpp</text>
</a>
</g>
</g>
<!-- Node16&#45;&gt;Node17 -->
<g id="edge19_Node000016_Node000017" class="edge">
<title>Node16&#45;&gt;Node17</title>
<g id="a_edge19_Node000016_Node000017"><a xlink:title=" ">
<path fill="none" stroke="#63b8ff" d="M1294.34,-61.11C1312.7,-51.14 1334.85,-39.13 1351.66,-30.01"/>
<polygon fill="#63b8ff" stroke="#63b8ff" points="1292.52,-58.11 1285.4,-65.95 1295.85,-64.26 1292.52,-58.11"/>
</a>
</g>
</g>
<!-- Node18&#45;&gt;Node10 -->
<g id="edge21_Node000018_Node000010" class="edge">
<title>Node18&#45;&gt;Node10</title>
<g id="a_edge21_Node000018_Node000010"><a xlink:title=" ">
<path fill="none" stroke="#63b8ff" d="M1077.94,-61.78C1050.02,-49.54 1014.52,-33.98 992.93,-24.52"/>
<polygon fill="#63b8ff" stroke="#63b8ff" points="1076.9,-65.15 1087.46,-65.95 1079.71,-58.73 1076.9,-65.15"/>
</a>
</g>
</g>
<!-- Node19 -->
<g id="Node000019" class="node">
<title>Node19</title>
<g id="a_Node000019"><a xlink:href="top__bar__menu_8cpp.html" target="_top" xlink:title=" ">
<polygon fill="white" stroke="#666666" points="1176,-30 1063,-30 1063,0 1176,0 1176,-30"/>
<text text-anchor="start" x="1071" y="-18" font-family="Helvetica,sans-Serif" font-size="10.00">src/gui/windows/top</text>
<text text-anchor="middle" x="1119.5" y="-7" font-family="Helvetica,sans-Serif" font-size="10.00">_bar_menu.cpp</text>
</a>
</g>
</g>
<!-- Node18&#45;&gt;Node19 -->
<g id="edge22_Node000018_Node000019" class="edge">
<title>Node18&#45;&gt;Node19</title>
<g id="a_edge22_Node000018_Node000019"><a xlink:title=" ">
<path fill="none" stroke="#63b8ff" d="M1119.5,-55.54C1119.5,-46.96 1119.5,-37.61 1119.5,-30.16"/>
<polygon fill="#63b8ff" stroke="#63b8ff" points="1116,-55.8 1119.5,-65.8 1123,-55.8 1116,-55.8"/>
</a>
</g>
</g>
<!-- Node20&#45;&gt;Node4 -->
<g id="edge24_Node000020_Node000004" class="edge">
<title>Node20&#45;&gt;Node4</title>
<g id="a_edge24_Node000020_Node000004"><a xlink:title=" ">
<path fill="none" stroke="#63b8ff" d="M533.46,-194.32C560.51,-184.14 594.05,-171.51 619.28,-162.01"/>
<polygon fill="#63b8ff" stroke="#63b8ff" points="531.93,-191.16 523.81,-197.95 534.4,-197.71 531.93,-191.16"/>
</a>
</g>
</g>
<!-- Node20&#45;&gt;Node8 -->
<g id="edge26_Node000020_Node000008" class="edge">
<title>Node20&#45;&gt;Node8</title>
<g id="a_edge26_Node000020_Node000008"><a xlink:title=" ">
<path fill="none" stroke="#63b8ff" d="M435.14,-194.75C351.3,-166.59 188.08,-111.76 125.12,-90.61"/>
<polygon fill="#63b8ff" stroke="#63b8ff" points="434.12,-198.1 444.72,-197.96 436.35,-191.46 434.12,-198.1"/>
</a>
</g>
</g>
<!-- Node21 -->
<g id="Node000021" class="node">
<title>Node21</title>
<g id="a_Node000021"><a xlink:href="mmu_8cpp.html" target="_top" xlink:title="This file implements the MMU (memory management unit) of the CPU.">
<polygon fill="white" stroke="#666666" points="543,-162 430,-162 430,-132 543,-132 543,-162"/>
<text text-anchor="start" x="438" y="-150" font-family="Helvetica,sans-Serif" font-size="10.00">src/core/arm1176jzf</text>
<text text-anchor="middle" x="486.5" y="-139" font-family="Helvetica,sans-Serif" font-size="10.00">_s/mmu/mmu.cpp</text>
</a>
</g>
</g>
<!-- Node20&#45;&gt;Node21 -->
<g id="edge25_Node000020_Node000021" class="edge">
<title>Node20&#45;&gt;Node21</title>
<g id="a_edge25_Node000020_Node000021"><a xlink:title=" ">
<path fill="none" stroke="#63b8ff" d="M486.5,-187.54C486.5,-178.96 486.5,-169.61 486.5,-162.16"/>
<polygon fill="#63b8ff" stroke="#63b8ff" points="483,-187.8 486.5,-197.8 490,-187.8 483,-187.8"/>
</a>
</g>
</g>
<!-- Node22&#45;&gt;Node4 -->
<g id="edge28_Node000022_Node000004" class="edge">
<title>Node22&#45;&gt;Node4</title>
<g id="a_edge28_Node000022_Node000004"><a xlink:title=" ">
<path fill="none" stroke="#63b8ff" d="M705.62,-260.02C694.14,-233.86 673.08,-185.82 662.67,-162.07"/>
<polygon fill="#63b8ff" stroke="#63b8ff" points="702.54,-261.72 709.76,-269.47 708.95,-258.91 702.54,-261.72"/>
</a>
</g>
</g>
<!-- Node22&#45;&gt;Node8 -->
<g id="edge37_Node000022_Node000008" class="edge">
<title>Node22&#45;&gt;Node8</title>
<g id="a_edge37_Node000022_Node000008"><a xlink:title=" ">
<path fill="none" stroke="#63b8ff" d="M697.11,-262.14C659.52,-225.91 569,-139.65 551.5,-132 389.57,-61.22 329.74,-125.52 155.5,-96 147.2,-94.59 138.32,-92.6 130.13,-90.56"/>
<polygon fill="#63b8ff" stroke="#63b8ff" points="695.05,-265.01 704.68,-269.44 699.91,-259.98 695.05,-265.01"/>
</a>
</g>
</g>
<!-- Node22&#45;&gt;Node18 -->
<g id="edge38_Node000022_Node000018" class="edge">
<title>Node22&#45;&gt;Node18</title>
<g id="a_edge38_Node000022_Node000018"><a xlink:title=" ">
<path fill="none" stroke="#63b8ff" d="M748.61,-266.22C775.72,-256.79 813.98,-242.73 846.5,-228 941.24,-185.08 1048.73,-123.63 1095.57,-96.18"/>
<polygon fill="#63b8ff" stroke="#63b8ff" points="747.47,-262.91 739.15,-269.48 749.75,-269.53 747.47,-262.91"/>
</a>
</g>
</g>
<!-- Node22&#45;&gt;Node20 -->
<g id="edge29_Node000022_Node000020" class="edge">
<title>Node22&#45;&gt;Node20</title>
<g id="a_edge29_Node000022_Node000020"><a xlink:title=" ">
<path fill="none" stroke="#63b8ff" d="M673.14,-266.62C634.99,-255.86 577.62,-239.69 536.57,-228.12"/>
<polygon fill="#63b8ff" stroke="#63b8ff" points="672.31,-270.02 682.89,-269.37 674.21,-263.29 672.31,-270.02"/>
</a>
</g>
</g>
<!-- Node23 -->
<g id="Node000023" class="node">
<title>Node23</title>
<g id="a_Node000023"><a xlink:href="bus_8cpp.html" target="_top" xlink:title="This file implements the interface defined in bus.hpp.">
<polygon fill="white" stroke="#666666" points="837,-222.5 742,-222.5 742,-203.5 837,-203.5 837,-222.5"/>
<text text-anchor="middle" x="789.5" y="-210.5" font-family="Helvetica,sans-Serif" font-size="10.00">src/core/bus.cpp</text>
</a>
</g>
</g>
<!-- Node22&#45;&gt;Node23 -->
<g id="edge30_Node000022_Node000023" class="edge">
<title>Node22&#45;&gt;Node23</title>
<g id="a_edge30_Node000022_Node000023"><a xlink:title=" ">
<path fill="none" stroke="#63b8ff" d="M731.69,-262.68C746.44,-250.26 766.72,-233.18 778.93,-222.91"/>
<polygon fill="#63b8ff" stroke="#63b8ff" points="729.14,-260.25 723.75,-269.37 733.65,-265.6 729.14,-260.25"/>
</a>
</g>
</g>
<!-- Node24 -->
<g id="Node000024" class="node">
<title>Node24</title>
<g id="a_Node000024"><a xlink:href="cp10_8hpp.html" target="_top" xlink:title="This file defines coprocessor CP10 (single&#45;precision FPU).">
<polygon fill="white" stroke="#666666" points="860.5,-162 738.5,-162 738.5,-132 860.5,-132 860.5,-162"/>
<text text-anchor="start" x="746.5" y="-150" font-family="Helvetica,sans-Serif" font-size="10.00">src/core/coprocessors</text>
<text text-anchor="middle" x="799.5" y="-139" font-family="Helvetica,sans-Serif" font-size="10.00">/cp10/cp10.hpp</text>
</a>
</g>
</g>
<!-- Node22&#45;&gt;Node24 -->
<g id="edge31_Node000022_Node000024" class="edge">
<title>Node22&#45;&gt;Node24</title>
<g id="a_edge31_Node000022_Node000024"><a xlink:title=" ">
<path fill="none" stroke="#63b8ff" d="M714.69,-258.91C716.56,-241.73 721.32,-216.44 733.5,-198 743.4,-183.01 759.37,-170.73 773.12,-162.1"/>
<polygon fill="#63b8ff" stroke="#63b8ff" points="711.17,-259.06 713.81,-269.32 718.14,-259.65 711.17,-259.06"/>
</a>
</g>
</g>
<!-- Node27 -->
<g id="Node000027" class="node">
<title>Node27</title>
<g id="a_Node000027"><a xlink:href="elf__loader_8hpp.html" target="_top" xlink:title="This file defines the functionality of an ELF loader.">
<polygon fill="white" stroke="#666666" points="1323,-156.5 1196,-156.5 1196,-137.5 1323,-137.5 1323,-156.5"/>
<text text-anchor="middle" x="1259.5" y="-144.5" font-family="Helvetica,sans-Serif" font-size="10.00">src/utils/elf_loader.hpp</text>
</a>
</g>
</g>
<!-- Node22&#45;&gt;Node27 -->
<g id="edge39_Node000022_Node000027" class="edge">
<title>Node22&#45;&gt;Node27</title>
<g id="a_edge39_Node000022_Node000027"><a xlink:title=" ">
<path fill="none" stroke="#63b8ff" d="M756.85,-267.1C761.45,-266.02 766.07,-264.97 770.5,-264 854.05,-245.8 876.13,-247.03 959.5,-228 1059.61,-205.15 1176.85,-172.01 1230.29,-156.54"/>
<polygon fill="#63b8ff" stroke="#63b8ff" points="755.8,-263.75 746.89,-269.49 757.43,-270.56 755.8,-263.75"/>
</a>
</g>
</g>
<!-- Node24&#45;&gt;Node7 -->
<g id="edge32_Node000024_Node000007" class="edge">
<title>Node24&#45;&gt;Node7</title>
<g id="a_edge32_Node000024_Node000007"><a xlink:title=" ">
<path fill="none" stroke="#63b8ff" d="M801.77,-121.83C802.58,-113.17 803.47,-103.7 804.17,-96.16"/>
<polygon fill="#63b8ff" stroke="#63b8ff" points="798.28,-121.51 800.83,-131.8 805.25,-122.17 798.28,-121.51"/>
</a>
</g>
</g>
<!-- Node24&#45;&gt;Node8 -->
<g id="edge33_Node000024_Node000008" class="edge">
<title>Node24&#45;&gt;Node8</title>
<g id="a_edge33_Node000024_Node000008"><a xlink:title=" ">
<path fill="none" stroke="#63b8ff" d="M728.33,-132.75C726.37,-132.49 724.42,-132.23 722.5,-132 471.86,-101.36 405.01,-134.78 155.5,-96 146.98,-94.68 137.87,-92.66 129.52,-90.57"/>
<polygon fill="#63b8ff" stroke="#63b8ff" points="727.84,-136.22 738.24,-134.2 728.84,-129.29 727.84,-136.22"/>
</a>
</g>
</g>
<!-- Node25 -->
<g id="Node000025" class="node">
<title>Node25</title>
<g id="a_Node000025"><a xlink:href="cp10__window_8hpp.html" target="_top" xlink:title="This file defines a window that displays data (information) related to coprocessor 10 (FPU).">
<polygon fill="white" stroke="#666666" points="1006,-96 885,-96 885,-66 1006,-66 1006,-96"/>
<text text-anchor="start" x="893" y="-84" font-family="Helvetica,sans-Serif" font-size="10.00">src/gui/windows/cp10</text>
<text text-anchor="middle" x="945.5" y="-73" font-family="Helvetica,sans-Serif" font-size="10.00">_window.hpp</text>
</a>
</g>
</g>
<!-- Node24&#45;&gt;Node25 -->
<g id="edge34_Node000024_Node000025" class="edge">
<title>Node24&#45;&gt;Node25</title>
<g id="a_edge34_Node000024_Node000025"><a xlink:title=" ">
<path fill="none" stroke="#63b8ff" d="M840.75,-127.92C863.82,-117.8 892.16,-105.38 913.53,-96.01"/>
<polygon fill="#63b8ff" stroke="#63b8ff" points="839.29,-124.73 831.54,-131.95 842.1,-131.15 839.29,-124.73"/>
</a>
</g>
</g>
<!-- Node25&#45;&gt;Node10 -->
<g id="edge35_Node000025_Node000010" class="edge">
<title>Node25&#45;&gt;Node10</title>
<g id="a_edge35_Node000025_Node000010"><a xlink:title=" ">
<path fill="none" stroke="#63b8ff" d="M955.73,-56.61C960.57,-45.56 966.05,-33.03 969.63,-24.84"/>
<polygon fill="#63b8ff" stroke="#63b8ff" points="952.52,-55.23 951.71,-65.8 958.93,-58.04 952.52,-55.23"/>
</a>
</g>
</g>
<!-- Node26 -->
<g id="Node000026" class="node">
<title>Node26</title>
<g id="a_Node000026"><a xlink:href="cp10__window_8cpp.html" target="_top" xlink:title="This file implements a window that displays data (information) related to coprocessor 10 (FPU).">
<polygon fill="white" stroke="#666666" points="912,-30 791,-30 791,0 912,0 912,-30"/>
<text text-anchor="start" x="799" y="-18" font-family="Helvetica,sans-Serif" font-size="10.00">src/gui/windows/cp10</text>
<text text-anchor="middle" x="851.5" y="-7" font-family="Helvetica,sans-Serif" font-size="10.00">_window.cpp</text>
</a>
</g>
</g>
<!-- Node25&#45;&gt;Node26 -->
<g id="edge36_Node000025_Node000026" class="edge">
<title>Node25&#45;&gt;Node26</title>
<g id="a_edge36_Node000025_Node000026"><a xlink:title=" ">
<path fill="none" stroke="#63b8ff" d="M916.17,-60.03C901.94,-50.34 885.19,-38.94 872.3,-30.16"/>
<polygon fill="#63b8ff" stroke="#63b8ff" points="914.4,-63.06 924.64,-65.8 918.34,-57.28 914.4,-63.06"/>
</a>
</g>
</g>
<!-- Node27&#45;&gt;Node16 -->
<g id="edge41_Node000027_Node000016" class="edge">
<title>Node27&#45;&gt;Node16</title>
<g id="a_edge41_Node000027_Node000016"><a xlink:title=" ">
<path fill="none" stroke="#63b8ff" d="M1259.5,-127.35C1259.5,-117.47 1259.5,-105.51 1259.5,-96.36"/>
<polygon fill="#63b8ff" stroke="#63b8ff" points="1256,-127.37 1259.5,-137.37 1263,-127.37 1256,-127.37"/>
</a>
</g>
</g>
<!-- Node27&#45;&gt;Node17 -->
<g id="edge40_Node000027_Node000017" class="edge">
<title>Node27&#45;&gt;Node17</title>
<g id="a_edge40_Node000027_Node000017"><a xlink:title=" ">
<path fill="none" stroke="#63b8ff" d="M1333.29,-138.85C1389.27,-131.72 1459.56,-118.52 1477.5,-96 1499.39,-68.52 1456.17,-44.49 1419.87,-30.12"/>
<polygon fill="#63b8ff" stroke="#63b8ff" points="1332.52,-135.42 1323.02,-140.11 1333.38,-142.37 1332.52,-135.42"/>
</a>
</g>
</g>
<!-- Node27&#45;&gt;Node18 -->
<g id="edge42_Node000027_Node000018" class="edge">
<title>Node27&#45;&gt;Node18</title>
<g id="a_edge42_Node000027_Node000018"><a xlink:title=" ">
<path fill="none" stroke="#63b8ff" d="M1231.23,-133.08C1207.79,-122.36 1174.51,-107.15 1150.38,-96.12"/>
<polygon fill="#63b8ff" stroke="#63b8ff" points="1230.07,-136.39 1240.62,-137.37 1232.98,-130.03 1230.07,-136.39"/>
</a>
</g>
</g>
<!-- Node28 -->
<g id="Node000028" class="node">
<title>Node28</title>
<g id="a_Node000028"><a xlink:href="elf__loader_8cpp.html" target="_top" xlink:title="This file implements the functionality of an ELF loader defined in elf_loader.hpp.">
<polygon fill="white" stroke="#666666" points="1468.5,-90.5 1342.5,-90.5 1342.5,-71.5 1468.5,-71.5 1468.5,-90.5"/>
<text text-anchor="middle" x="1405.5" y="-78.5" font-family="Helvetica,sans-Serif" font-size="10.00">src/utils/elf_loader.cpp</text>
</a>
</g>
</g>
<!-- Node27&#45;&gt;Node28 -->
<g id="edge43_Node000027_Node000028" class="edge">
<title>Node27&#45;&gt;Node28</title>
<g id="a_edge43_Node000027_Node000028"><a xlink:title=" ">
<path fill="none" stroke="#63b8ff" d="M1288.71,-133.19C1317.49,-120.58 1360.65,-101.66 1385.66,-90.7"/>
<polygon fill="#63b8ff" stroke="#63b8ff" points="1286.94,-130.15 1279.19,-137.37 1289.75,-136.56 1286.94,-130.15"/>
</a>
</g>
</g>
<!-- Node30&#45;&gt;Node10 -->
<g id="edge47_Node000030_Node000010" class="edge">
<title>Node30&#45;&gt;Node10</title>
<g id="a_edge47_Node000030_Node000010"><a xlink:title=" ">
<path fill="none" stroke="#63b8ff" d="M1036.89,-253.92C1039.94,-213.4 1042.01,-129.76 1015.5,-66 1008.54,-49.25 993.87,-33.91 983.85,-24.75"/>
<polygon fill="#63b8ff" stroke="#63b8ff" points="1033.4,-253.67 1036.05,-263.93 1040.38,-254.26 1033.4,-253.67"/>
</a>
</g>
</g>
<!-- Node31 -->
<g id="Node000031" class="node">
<title>Node31</title>
<g id="a_Node000031"><a xlink:href="cp15__window_8cpp.html" target="_top" xlink:title="This file implements a window that displays data (information) related to coprocessor 15.">
<polygon fill="white" stroke="#666666" points="1222,-228 1101,-228 1101,-198 1222,-198 1222,-228"/>
<text text-anchor="start" x="1109" y="-216" font-family="Helvetica,sans-Serif" font-size="10.00">src/gui/windows/cp15</text>
<text text-anchor="middle" x="1161.5" y="-205" font-family="Helvetica,sans-Serif" font-size="10.00">_window.cpp</text>
</a>
</g>
</g>
<!-- Node30&#45;&gt;Node31 -->
<g id="edge48_Node000030_Node000031" class="edge">
<title>Node30&#45;&gt;Node31</title>
<g id="a_edge48_Node000030_Node000031"><a xlink:title=" ">
<path fill="none" stroke="#63b8ff" d="M1071.45,-259.38C1091.33,-249.36 1115.43,-237.22 1133.69,-228.01"/>
<polygon fill="#63b8ff" stroke="#63b8ff" points="1069.73,-256.33 1062.37,-263.95 1072.88,-262.58 1069.73,-256.33"/>
</a>
</g>
</g>
</g>
</svg>
