<?xml version="1.0" encoding="UTF-8" standalone="no"?>
<!DOCTYPE svg PUBLIC "-//W3C//DTD SVG 1.1//EN"
 "http://www.w3.org/Graphics/SVG/1.1/DTD/svg11.dtd">
<!-- Generated by graphviz version 2.43.0 (0)
 -->
<!-- Title: src/core/coprocessors/cp15/c8.hpp Pages: 1 -->
<svg width="139pt" height="214pt"
 viewBox="0.00 0.00 139.00 214.00" xmlns="http://www.w3.org/2000/svg" xmlns:xlink="http://www.w3.org/1999/xlink">
<g id="graph0" class="graph" transform="scale(1 1) rotate(0) translate(4 210)">
<title>src/core/coprocessors/cp15/c8.hpp</title>
<!-- Node1 -->
<g id="Node000001" class="node">
<title>Node1</title>
<g id="a_Node000001"><a xlink:title="This file defines the primary register C8 of coprocessor CP15.">
<polygon fill="#999999" stroke="#666666" points="126.5,-206 4.5,-206 4.5,-176 126.5,-176 126.5,-206"/>
<text text-anchor="start" x="12.5" y="-194" font-family="Helvetica,sans-Serif" font-size="10.00">src/core/coprocessors</text>
<text text-anchor="middle" x="65.5" y="-183" font-family="Helvetica,sans-Serif" font-size="10.00">/cp15/c8.hpp</text>
</a>
</g>
</g>
<!-- Node2 -->
<g id="Node000002" class="node">
<title>Node2</title>
<g id="a_Node000002"><a xlink:href="primary__reg_8hpp.html" target="_top" xlink:title="This file defines a primary register interface of coprocessor CP15.">
<polygon fill="white" stroke="#666666" points="114,-140 17,-140 17,-121 114,-121 114,-140"/>
<text text-anchor="middle" x="65.5" y="-128" font-family="Helvetica,sans-Serif" font-size="10.00">primary_reg.hpp</text>
</a>
</g>
</g>
<!-- Node1&#45;&gt;Node2 -->
<g id="edge1_Node000001_Node000002" class="edge">
<title>Node1&#45;&gt;Node2</title>
<g id="a_edge1_Node000001_Node000002"><a xlink:title=" ">
<path fill="none" stroke="#63b8ff" d="M65.5,-175.84C65.5,-168.21 65.5,-158.7 65.5,-150.45"/>
<polygon fill="#63b8ff" stroke="#63b8ff" points="69,-150.27 65.5,-140.27 62,-150.27 69,-150.27"/>
</a>
</g>
</g>
<!-- Node3 -->
<g id="Node000003" class="node">
<title>Node3</title>
<g id="a_Node000003"><a xlink:href="logging__system_8hpp.html" target="_top" xlink:title="This file defines a logging system that is used in the project.">
<polygon fill="white" stroke="#666666" points="131,-85 0,-85 0,-55 131,-55 131,-85"/>
<text text-anchor="start" x="8" y="-73" font-family="Helvetica,sans-Serif" font-size="10.00">zero_mate/utils/logging</text>
<text text-anchor="middle" x="65.5" y="-62" font-family="Helvetica,sans-Serif" font-size="10.00">_system.hpp</text>
</a>
</g>
</g>
<!-- Node2&#45;&gt;Node3 -->
<g id="edge2_Node000002_Node000003" class="edge">
<title>Node2&#45;&gt;Node3</title>
<g id="a_edge2_Node000002_Node000003"><a xlink:title=" ">
<path fill="none" stroke="#63b8ff" d="M65.5,-120.87C65.5,-114.11 65.5,-104.35 65.5,-95.26"/>
<polygon fill="#63b8ff" stroke="#63b8ff" points="69,-95.11 65.5,-85.11 62,-95.11 69,-95.11"/>
</a>
</g>
</g>
<!-- Node4 -->
<g id="Node000004" class="node">
<title>Node4</title>
<g id="a_Node000004"><a xlink:href="logger_8hpp.html" target="_top" xlink:title="This file defines a general logger interface.">
<polygon fill="white" stroke="#666666" points="99.5,-19 31.5,-19 31.5,0 99.5,0 99.5,-19"/>
<text text-anchor="middle" x="65.5" y="-7" font-family="Helvetica,sans-Serif" font-size="10.00">logger.hpp</text>
</a>
</g>
</g>
<!-- Node3&#45;&gt;Node4 -->
<g id="edge3_Node000003_Node000004" class="edge">
<title>Node3&#45;&gt;Node4</title>
<g id="a_edge3_Node000003_Node000004"><a xlink:title=" ">
<path fill="none" stroke="#63b8ff" d="M65.5,-54.84C65.5,-47.21 65.5,-37.7 65.5,-29.45"/>
<polygon fill="#63b8ff" stroke="#63b8ff" points="69,-29.27 65.5,-19.27 62,-29.27 69,-29.27"/>
</a>
</g>
</g>
</g>
</svg>
