<?xml version="1.0" encoding="UTF-8" standalone="no"?>
<!DOCTYPE svg PUBLIC "-//W3C//DTD SVG 1.1//EN"
 "http://www.w3.org/Graphics/SVG/1.1/DTD/svg11.dtd">
<!-- Generated by graphviz version 2.43.0 (0)
 -->
<!-- Title: zero_mate::arm1176jzf_s::CCPU_Core::Fetch_Instruction Pages: 1 -->
<svg width="877pt" height="394pt"
 viewBox="0.00 0.00 877.00 393.50" xmlns="http://www.w3.org/2000/svg" xmlns:xlink="http://www.w3.org/1999/xlink">
<g id="graph0" class="graph" transform="scale(1 1) rotate(0) translate(4 389.5)">
<title>zero_mate::arm1176jzf_s::CCPU_Core::Fetch_Instruction</title>
<!-- Node1 -->
<g id="Node000001" class="node">
<title>Node1</title>
<g id="a_Node000001"><a xlink:title="Fetches the next instruction.">
<polygon fill="#999999" stroke="#666666" points="130,-115.5 0,-115.5 0,-74.5 130,-74.5 130,-115.5"/>
<text text-anchor="start" x="8" y="-103.5" font-family="Helvetica,sans-Serif" font-size="10.00">zero_mate::arm1176jzf</text>
<text text-anchor="start" x="8" y="-92.5" font-family="Helvetica,sans-Serif" font-size="10.00">_s::CCPU_Core::Fetch</text>
<text text-anchor="middle" x="65" y="-81.5" font-family="Helvetica,sans-Serif" font-size="10.00">_Instruction</text>
</a>
</g>
</g>
<!-- Node2 -->
<g id="Node000002" class="node">
<title>Node2</title>
<g id="a_Node000002"><a xlink:href="classzero__mate_1_1arm1176jzf__s_1_1CCPU__Core.html#a85e6ef006a36e1adb56abd3ecc6481be" target="_top" xlink:title="Executes a CPU exception.">
<polygon fill="white" stroke="#666666" points="298,-166.5 166,-166.5 166,-125.5 298,-125.5 298,-166.5"/>
<text text-anchor="start" x="174" y="-154.5" font-family="Helvetica,sans-Serif" font-size="10.00">zero_mate::arm1176jzf</text>
<text text-anchor="start" x="174" y="-143.5" font-family="Helvetica,sans-Serif" font-size="10.00">_s::CCPU_Core::Execute</text>
<text text-anchor="middle" x="232" y="-132.5" font-family="Helvetica,sans-Serif" font-size="10.00">_Exception</text>
</a>
</g>
</g>
<!-- Node1&#45;&gt;Node2 -->
<g id="edge1_Node000001_Node000002" class="edge">
<title>Node1&#45;&gt;Node2</title>
<g id="a_edge1_Node000001_Node000002"><a xlink:title=" ">
<path fill="none" stroke="#63b8ff" d="M130.27,-114.86C138.75,-117.49 147.5,-120.19 156.14,-122.86"/>
<polygon fill="#63b8ff" stroke="#63b8ff" points="155.24,-126.25 165.82,-125.85 157.3,-119.56 155.24,-126.25"/>
</a>
</g>
</g>
<!-- Node9 -->
<g id="Node000009" class="node">
<title>Node9</title>
<g id="a_Node000009"><a xlink:href="classzero__mate_1_1arm1176jzf__s_1_1CCPU__Core.html#a423eacd01e574e782a2b7cf51f28c56c" target="_top" xlink:title="Returns a reference to the PC register (r15)">
<polygon fill="white" stroke="#666666" points="474.5,-30 344.5,-30 344.5,0 474.5,0 474.5,-30"/>
<text text-anchor="start" x="352.5" y="-18" font-family="Helvetica,sans-Serif" font-size="10.00">zero_mate::arm1176jzf</text>
<text text-anchor="middle" x="409.5" y="-7" font-family="Helvetica,sans-Serif" font-size="10.00">_s::CCPU_Core::PC</text>
</a>
</g>
</g>
<!-- Node1&#45;&gt;Node9 -->
<g id="edge15_Node000001_Node000009" class="edge">
<title>Node1&#45;&gt;Node9</title>
<g id="a_edge15_Node000001_Node000009"><a xlink:title=" ">
<path fill="none" stroke="#63b8ff" d="M130.02,-80.05C187.98,-66.51 273.35,-46.57 334.27,-32.34"/>
<polygon fill="#63b8ff" stroke="#63b8ff" points="335.27,-35.7 344.21,-30.02 333.68,-28.88 335.27,-35.7"/>
</a>
</g>
</g>
<!-- Node3 -->
<g id="Node000003" class="node">
<title>Node3</title>
<g id="a_Node000003"><a xlink:href="classzero__mate_1_1arm1176jzf__s_1_1exceptions_1_1CCPU__Exception.html#ab18a4a4b6a54029ccf141784cfe9c737" target="_top" xlink:title="Returns the mode into which the CPU will switch when the exception is thrown.">
<polygon fill="white" stroke="#666666" points="485,-385.5 334,-385.5 334,-344.5 485,-344.5 485,-385.5"/>
<text text-anchor="start" x="342" y="-373.5" font-family="Helvetica,sans-Serif" font-size="10.00">zero_mate::arm1176jzf</text>
<text text-anchor="start" x="342" y="-362.5" font-family="Helvetica,sans-Serif" font-size="10.00">_s::exceptions::CCPU</text>
<text text-anchor="middle" x="409.5" y="-351.5" font-family="Helvetica,sans-Serif" font-size="10.00">_Exception::Get_CPU_Mode</text>
</a>
</g>
</g>
<!-- Node2&#45;&gt;Node3 -->
<g id="edge2_Node000002_Node000003" class="edge">
<title>Node2&#45;&gt;Node3</title>
<g id="a_edge2_Node000002_Node000003"><a xlink:title=" ">
<path fill="none" stroke="#63b8ff" d="M238.81,-166.59C250.61,-204.83 280.84,-287.29 334,-335 335.48,-336.33 337.02,-337.6 338.62,-338.82"/>
<polygon fill="#63b8ff" stroke="#63b8ff" points="336.77,-341.79 347.02,-344.49 340.69,-335.99 336.77,-341.79"/>
</a>
</g>
</g>
<!-- Node4 -->
<g id="Node000004" class="node">
<title>Node4</title>
<g id="a_Node000004"><a xlink:href="classzero__mate_1_1arm1176jzf__s_1_1exceptions_1_1CCPU__Exception.html#ae87c33c76ed6571b2408fd293710b6c4" target="_top" xlink:title="Returns the address of the handler of the exception.">
<polygon fill="white" stroke="#666666" points="482.5,-326 336.5,-326 336.5,-274 482.5,-274 482.5,-326"/>
<text text-anchor="start" x="344.5" y="-314" font-family="Helvetica,sans-Serif" font-size="10.00">zero_mate::arm1176jzf</text>
<text text-anchor="start" x="344.5" y="-303" font-family="Helvetica,sans-Serif" font-size="10.00">_s::exceptions::CCPU</text>
<text text-anchor="start" x="344.5" y="-292" font-family="Helvetica,sans-Serif" font-size="10.00">_Exception::Get_Exception</text>
<text text-anchor="middle" x="409.5" y="-281" font-family="Helvetica,sans-Serif" font-size="10.00">_Vector</text>
</a>
</g>
</g>
<!-- Node2&#45;&gt;Node4 -->
<g id="edge3_Node000002_Node000004" class="edge">
<title>Node2&#45;&gt;Node4</title>
<g id="a_edge3_Node000002_Node000004"><a xlink:title=" ">
<path fill="none" stroke="#63b8ff" d="M246.53,-166.88C264.12,-192.7 296.98,-236.68 334,-265 335.4,-266.07 336.85,-267.13 338.32,-268.16"/>
<polygon fill="#63b8ff" stroke="#63b8ff" points="336.76,-271.32 347.06,-273.81 340.56,-265.44 336.76,-271.32"/>
</a>
</g>
</g>
<!-- Node5 -->
<g id="Node000005" class="node">
<title>Node5</title>
<g id="a_Node000005"><a xlink:href="classzero__mate_1_1arm1176jzf__s_1_1exceptions_1_1CCPU__Exception.html#aabb81de8a3e09534245ef3851a31c3c0" target="_top" xlink:title="Returns the type of the exception.">
<polygon fill="white" stroke="#666666" points="474.5,-255.5 344.5,-255.5 344.5,-214.5 474.5,-214.5 474.5,-255.5"/>
<text text-anchor="start" x="352.5" y="-243.5" font-family="Helvetica,sans-Serif" font-size="10.00">zero_mate::arm1176jzf</text>
<text text-anchor="start" x="352.5" y="-232.5" font-family="Helvetica,sans-Serif" font-size="10.00">_s::exceptions::CCPU</text>
<text text-anchor="middle" x="409.5" y="-221.5" font-family="Helvetica,sans-Serif" font-size="10.00">_Exception::Get_Type</text>
</a>
</g>
</g>
<!-- Node2&#45;&gt;Node5 -->
<g id="edge4_Node000002_Node000005" class="edge">
<title>Node2&#45;&gt;Node5</title>
<g id="a_edge4_Node000002_Node000005"><a xlink:title=" ">
<path fill="none" stroke="#63b8ff" d="M264.55,-166.57C284.1,-178.85 309.98,-194.29 334,-206 337.09,-207.51 340.27,-208.99 343.51,-210.45"/>
<polygon fill="#63b8ff" stroke="#63b8ff" points="342.17,-213.68 352.73,-214.46 344.96,-207.26 342.17,-213.68"/>
</a>
</g>
</g>
<!-- Node6 -->
<g id="Node000006" class="node">
<title>Node6</title>
<g id="a_Node000006"><a xlink:href="classzero__mate_1_1arm1176jzf__s_1_1CCPU__Core.html#ad6dadfc114c7d0d6b43496f9f5651be7" target="_top" xlink:title="Checks if the IVT (interrupt vector table) has been reallocated to the higher address (0xFFFF0000).">
<polygon fill="white" stroke="#666666" points="485,-196.5 334,-196.5 334,-155.5 485,-155.5 485,-196.5"/>
<text text-anchor="start" x="342" y="-184.5" font-family="Helvetica,sans-Serif" font-size="10.00">zero_mate::arm1176jzf</text>
<text text-anchor="start" x="342" y="-173.5" font-family="Helvetica,sans-Serif" font-size="10.00">_s::CCPU_Core::Is_IVT</text>
<text text-anchor="middle" x="409.5" y="-162.5" font-family="Helvetica,sans-Serif" font-size="10.00">_Reallocated_To_High_Addr</text>
</a>
</g>
</g>
<!-- Node2&#45;&gt;Node6 -->
<g id="edge5_Node000002_Node000006" class="edge">
<title>Node2&#45;&gt;Node6</title>
<g id="a_edge5_Node000002_Node000006"><a xlink:title=" ">
<path fill="none" stroke="#63b8ff" d="M298.35,-157.17C306.69,-158.6 315.31,-160.07 323.89,-161.54"/>
<polygon fill="#63b8ff" stroke="#63b8ff" points="323.49,-165.02 333.93,-163.25 324.67,-158.12 323.49,-165.02"/>
</a>
</g>
</g>
<!-- Node2&#45;&gt;Node9 -->
<g id="edge8_Node000002_Node000009" class="edge">
<title>Node2&#45;&gt;Node9</title>
<g id="a_edge8_Node000002_Node000009"><a xlink:title=" ">
<path fill="none" stroke="#63b8ff" d="M256.7,-125.37C269.4,-113.92 285.05,-99.16 298,-85 315.52,-65.84 312.71,-53.86 334,-39 336.15,-37.5 338.39,-36.1 340.7,-34.77"/>
<polygon fill="#63b8ff" stroke="#63b8ff" points="342.61,-37.73 349.93,-30.08 339.43,-31.49 342.61,-37.73"/>
</a>
</g>
</g>
<!-- Node10 -->
<g id="Node000010" class="node">
<title>Node10</title>
<g id="a_Node000010"><a xlink:href="classzero__mate_1_1arm1176jzf__s_1_1CCPU__Context.html#a7efff674f8141eab73cb69099220f0d5" target="_top" xlink:title="Sets the mode of the CPU.">
<polygon fill="white" stroke="#666666" points="474.5,-137.5 344.5,-137.5 344.5,-96.5 474.5,-96.5 474.5,-137.5"/>
<text text-anchor="start" x="352.5" y="-125.5" font-family="Helvetica,sans-Serif" font-size="10.00">zero_mate::arm1176jzf</text>
<text text-anchor="start" x="352.5" y="-114.5" font-family="Helvetica,sans-Serif" font-size="10.00">_s::CCPU_Context::Set</text>
<text text-anchor="middle" x="409.5" y="-103.5" font-family="Helvetica,sans-Serif" font-size="10.00">_CPU_Mode</text>
</a>
</g>
</g>
<!-- Node2&#45;&gt;Node10 -->
<g id="edge9_Node000002_Node000010" class="edge">
<title>Node2&#45;&gt;Node10</title>
<g id="a_edge9_Node000002_Node000010"><a xlink:title=" ">
<path fill="none" stroke="#63b8ff" d="M298.35,-135.2C310.07,-133.26 322.37,-131.23 334.32,-129.26"/>
<polygon fill="#63b8ff" stroke="#63b8ff" points="334.97,-132.7 344.26,-127.61 333.83,-125.79 334.97,-132.7"/>
</a>
</g>
</g>
<!-- Node11 -->
<g id="Node000011" class="node">
<title>Node11</title>
<g id="a_Node000011"><a xlink:href="classzero__mate_1_1utils_1_1CLogging__System.html#a2bb4d37b178f29335f726875bad91bd4" target="_top" xlink:title="Logs a warning message via all registered loggers.">
<polygon fill="white" stroke="#666666" points="482.5,-78 336.5,-78 336.5,-48 482.5,-48 482.5,-78"/>
<text text-anchor="start" x="344.5" y="-66" font-family="Helvetica,sans-Serif" font-size="10.00">zero_mate::utils::CLogging</text>
<text text-anchor="middle" x="409.5" y="-55" font-family="Helvetica,sans-Serif" font-size="10.00">_System::Warning</text>
</a>
</g>
</g>
<!-- Node2&#45;&gt;Node11 -->
<g id="edge10_Node000002_Node000011" class="edge">
<title>Node2&#45;&gt;Node11</title>
<g id="a_edge10_Node000002_Node000011"><a xlink:title=" ">
<path fill="none" stroke="#63b8ff" d="M264.35,-125.3C283.83,-113.05 309.71,-97.85 334,-87 338.16,-85.14 342.51,-83.36 346.92,-81.66"/>
<polygon fill="#63b8ff" stroke="#63b8ff" points="348.47,-84.82 356.65,-78.09 346.06,-78.25 348.47,-84.82"/>
</a>
</g>
</g>
<!-- Node7 -->
<g id="Node000007" class="node">
<title>Node7</title>
<g id="a_Node000007"><a xlink:href="classzero__mate_1_1coprocessor_1_1cp15_1_1CC1.html#ac6b22a989b3f58443f36e32999150eb6" target="_top" xlink:title=" ">
<polygon fill="white" stroke="#666666" points="663.5,-196.5 530.5,-196.5 530.5,-155.5 663.5,-155.5 663.5,-196.5"/>
<text text-anchor="start" x="538.5" y="-184.5" font-family="Helvetica,sans-Serif" font-size="10.00">zero_mate::coprocessor</text>
<text text-anchor="start" x="538.5" y="-173.5" font-family="Helvetica,sans-Serif" font-size="10.00">::cp15::CC1::Is_Control</text>
<text text-anchor="middle" x="597" y="-162.5" font-family="Helvetica,sans-Serif" font-size="10.00">_Flag_Set</text>
</a>
</g>
</g>
<!-- Node6&#45;&gt;Node7 -->
<g id="edge6_Node000006_Node000007" class="edge">
<title>Node6&#45;&gt;Node7</title>
<g id="a_edge6_Node000006_Node000007"><a xlink:title=" ">
<path fill="none" stroke="#63b8ff" d="M485.15,-176C496.75,-176 508.75,-176 520.37,-176"/>
<polygon fill="#63b8ff" stroke="#63b8ff" points="520.47,-179.5 530.47,-176 520.47,-172.5 520.47,-179.5"/>
</a>
</g>
</g>
<!-- Node8 -->
<g id="Node000008" class="node">
<title>Node8</title>
<g id="a_Node000008"><a xlink:href="classzero__mate_1_1coprocessor_1_1cp15_1_1IPrimary__Reg.html#a0780610d57b65a633a1776be372116a6" target="_top" xlink:title="Checks whether a flag is set in a given register.">
<polygon fill="white" stroke="#666666" points="855.5,-196.5 722.5,-196.5 722.5,-155.5 855.5,-155.5 855.5,-196.5"/>
<text text-anchor="start" x="730.5" y="-184.5" font-family="Helvetica,sans-Serif" font-size="10.00">zero_mate::coprocessor</text>
<text text-anchor="start" x="730.5" y="-173.5" font-family="Helvetica,sans-Serif" font-size="10.00">::cp15::IPrimary_Reg::</text>
<text text-anchor="middle" x="789" y="-162.5" font-family="Helvetica,sans-Serif" font-size="10.00">Is_Flag_Set</text>
</a>
</g>
</g>
<!-- Node7&#45;&gt;Node8 -->
<g id="edge7_Node000007_Node000008" class="edge">
<title>Node7&#45;&gt;Node8</title>
<g id="a_edge7_Node000007_Node000008"><a xlink:title=" ">
<path fill="none" stroke="#63b8ff" d="M663.65,-176C679.23,-176 695.97,-176 711.96,-176"/>
<polygon fill="#63b8ff" stroke="#63b8ff" points="712.34,-179.5 722.34,-176 712.34,-172.5 712.34,-179.5"/>
</a>
</g>
</g>
<!-- Node12 -->
<g id="Node000012" class="node">
<title>Node12</title>
<g id="a_Node000012"><a xlink:href="classzero__mate_1_1utils_1_1CLogging__System.html#a71ed11c796553cbe8fd99773406a1060" target="_top" xlink:title="Creates a formatted message to be logged.">
<polygon fill="white" stroke="#666666" points="673,-110.5 521,-110.5 521,-69.5 673,-69.5 673,-110.5"/>
<text text-anchor="start" x="529" y="-98.5" font-family="Helvetica,sans-Serif" font-size="10.00">zero_mate::utils::CLogging</text>
<text text-anchor="start" x="529" y="-87.5" font-family="Helvetica,sans-Serif" font-size="10.00">_System::Create_Formatted</text>
<text text-anchor="middle" x="597" y="-76.5" font-family="Helvetica,sans-Serif" font-size="10.00">_Log_Msg</text>
</a>
</g>
</g>
<!-- Node11&#45;&gt;Node12 -->
<g id="edge11_Node000011_Node000012" class="edge">
<title>Node11&#45;&gt;Node12</title>
<g id="a_edge11_Node000011_Node000012"><a xlink:title=" ">
<path fill="none" stroke="#63b8ff" d="M482.75,-73.52C491.94,-74.85 501.41,-76.23 510.78,-77.6"/>
<polygon fill="#63b8ff" stroke="#63b8ff" points="510.49,-81.09 520.89,-79.07 511.49,-74.16 510.49,-81.09"/>
</a>
</g>
</g>
<!-- Node15 -->
<g id="Node000015" class="node">
<title>Node15</title>
<g id="a_Node000015"><a xlink:href="classzero__mate_1_1utils_1_1CLogging__System.html#ad371c67ef65763966ccf9291002e86f3" target="_top" xlink:title="Extract the filename from a given location within the source files.">
<polygon fill="white" stroke="#666666" points="671.5,-51 522.5,-51 522.5,-21 671.5,-21 671.5,-51"/>
<text text-anchor="start" x="530.5" y="-39" font-family="Helvetica,sans-Serif" font-size="10.00">zero_mate::utils::CLogging</text>
<text text-anchor="middle" x="597" y="-28" font-family="Helvetica,sans-Serif" font-size="10.00">_System::Extract_Filename</text>
</a>
</g>
</g>
<!-- Node11&#45;&gt;Node15 -->
<g id="edge14_Node000011_Node000015" class="edge">
<title>Node11&#45;&gt;Node15</title>
<g id="a_edge14_Node000011_Node000015"><a xlink:title=" ">
<path fill="none" stroke="#63b8ff" d="M482.75,-52.48C492.41,-51.08 502.39,-49.62 512.23,-48.19"/>
<polygon fill="#63b8ff" stroke="#63b8ff" points="513.03,-51.61 522.42,-46.71 512.02,-44.69 513.03,-51.61"/>
</a>
</g>
</g>
<!-- Node13 -->
<g id="Node000013" class="node">
<title>Node13</title>
<g id="a_Node000013"><a xlink:href="classzero__mate_1_1utils_1_1CLogging__System.html#aa70c102c805079042ffea2a6f2a5ad64" target="_top" xlink:title="Formats a given timestamp.">
<polygon fill="white" stroke="#666666" points="869,-121 709,-121 709,-91 869,-91 869,-121"/>
<text text-anchor="start" x="717" y="-109" font-family="Helvetica,sans-Serif" font-size="10.00">zero_mate::utils::CLogging</text>
<text text-anchor="middle" x="789" y="-98" font-family="Helvetica,sans-Serif" font-size="10.00">_System::Format_Timestamp</text>
</a>
</g>
</g>
<!-- Node12&#45;&gt;Node13 -->
<g id="edge12_Node000012_Node000013" class="edge">
<title>Node12&#45;&gt;Node13</title>
<g id="a_edge12_Node000012_Node000013"><a xlink:title=" ">
<path fill="none" stroke="#63b8ff" d="M673.09,-96.32C681.52,-97.03 690.16,-97.76 698.74,-98.48"/>
<polygon fill="#63b8ff" stroke="#63b8ff" points="698.51,-101.98 708.77,-99.33 699.1,-95 698.51,-101.98"/>
</a>
</g>
</g>
<!-- Node14 -->
<g id="Node000014" class="node">
<title>Node14</title>
<g id="a_Node000014"><a xlink:href="classzero__mate_1_1utils_1_1CLogging__System.html#ae3ca637537dde05e0b9119145c840331" target="_top" xlink:title="Returns the current timestamp that will be used in a log message.">
<polygon fill="white" stroke="#666666" points="862,-73 716,-73 716,-43 862,-43 862,-73"/>
<text text-anchor="start" x="724" y="-61" font-family="Helvetica,sans-Serif" font-size="10.00">zero_mate::utils::CLogging</text>
<text text-anchor="middle" x="789" y="-50" font-family="Helvetica,sans-Serif" font-size="10.00">_System::Get_Timestamp</text>
</a>
</g>
</g>
<!-- Node12&#45;&gt;Node14 -->
<g id="edge13_Node000012_Node000014" class="edge">
<title>Node12&#45;&gt;Node14</title>
<g id="a_edge13_Node000012_Node000014"><a xlink:title=" ">
<path fill="none" stroke="#63b8ff" d="M673.09,-77.35C683.89,-75.53 695.05,-73.65 705.98,-71.81"/>
<polygon fill="#63b8ff" stroke="#63b8ff" points="706.65,-75.25 715.93,-70.14 705.49,-68.35 706.65,-75.25"/>
</a>
</g>
</g>
</g>
</svg>
