<?xml version="1.0" encoding="UTF-8" standalone="no"?>
<!DOCTYPE svg PUBLIC "-//W3C//DTD SVG 1.1//EN"
 "http://www.w3.org/Graphics/SVG/1.1/DTD/svg11.dtd">
<!-- Generated by graphviz version 2.43.0 (0)
 -->
<!-- Title: zero_mate::peripheral::CMini_UART::Is_Transmitter_Enabled Pages: 1 -->
<svg width="691pt" height="92pt"
 viewBox="0.00 0.00 691.00 91.50" xmlns="http://www.w3.org/2000/svg" xmlns:xlink="http://www.w3.org/1999/xlink">
<g id="graph0" class="graph" transform="scale(1 1) rotate(0) translate(4 87.5)">
<title>zero_mate::peripheral::CMini_UART::Is_Transmitter_Enabled</title>
<!-- Node1 -->
<g id="Node000001" class="node">
<title>Node1</title>
<g id="a_Node000001"><a xlink:title="Returns information about whether the transmitter is enabled or not.">
<polygon fill="#999999" stroke="#666666" points="683,-65 527,-65 527,-24 683,-24 683,-65"/>
<text text-anchor="start" x="535" y="-53" font-family="Helvetica,sans-Serif" font-size="10.00">zero_mate::peripheral</text>
<text text-anchor="start" x="535" y="-42" font-family="Helvetica,sans-Serif" font-size="10.00">::CMini_UART::Is_Transmitter</text>
<text text-anchor="middle" x="605" y="-31" font-family="Helvetica,sans-Serif" font-size="10.00">_Enabled</text>
</a>
</g>
</g>
<!-- Node2 -->
<g id="Node000002" class="node">
<title>Node2</title>
<g id="a_Node000002"><a xlink:href="classzero__mate_1_1gui_1_1CAUX__Window.html#a84134555bb7100075f909c0de2f0829b" target="_top" xlink:title="Renders information related to the mini UART auxiliary peripheral.">
<polygon fill="white" stroke="#666666" points="491,-83.5 333,-83.5 333,-53.5 491,-53.5 491,-83.5"/>
<text text-anchor="start" x="341" y="-71.5" font-family="Helvetica,sans-Serif" font-size="10.00">zero_mate::gui::CAUX</text>
<text text-anchor="middle" x="412" y="-60.5" font-family="Helvetica,sans-Serif" font-size="10.00">_Window::Render_Mini_UART</text>
</a>
</g>
</g>
<!-- Node1&#45;&gt;Node2 -->
<g id="edge1_Node000001_Node000002" class="edge">
<title>Node1&#45;&gt;Node2</title>
<g id="a_edge1_Node000001_Node000002"><a xlink:title=" ">
<path fill="none" stroke="#63b8ff" d="M516.83,-55.45C508.23,-56.53 499.54,-57.63 491.05,-58.69"/>
<polygon fill="#63b8ff" stroke="#63b8ff" points="517.38,-58.91 526.86,-54.19 516.51,-51.97 517.38,-58.91"/>
</a>
</g>
</g>
<!-- Node4 -->
<g id="Node000004" class="node">
<title>Node4</title>
<g id="a_Node000004"><a xlink:href="classzero__mate_1_1peripheral_1_1CMini__UART.html#a39f26f9ac5a5cb08b2a292f5c6fab6db" target="_top" xlink:title="Updates the transmission state machine.">
<polygon fill="white" stroke="#666666" points="482,-35.5 342,-35.5 342,-5.5 482,-5.5 482,-35.5"/>
<text text-anchor="start" x="350" y="-23.5" font-family="Helvetica,sans-Serif" font-size="10.00">zero_mate::peripheral</text>
<text text-anchor="middle" x="412" y="-12.5" font-family="Helvetica,sans-Serif" font-size="10.00">::CMini_UART::Update_TX</text>
</a>
</g>
</g>
<!-- Node1&#45;&gt;Node4 -->
<g id="edge3_Node000001_Node000004" class="edge">
<title>Node1&#45;&gt;Node4</title>
<g id="a_edge3_Node000001_Node000004"><a xlink:title=" ">
<path fill="none" stroke="#63b8ff" d="M516.72,-33.53C505.12,-32.07 493.35,-30.6 482.11,-29.18"/>
<polygon fill="#63b8ff" stroke="#63b8ff" points="516.51,-37.03 526.86,-34.81 517.38,-30.09 516.51,-37.03"/>
</a>
</g>
</g>
<!-- Node3 -->
<g id="Node000003" class="node">
<title>Node3</title>
<g id="a_Node000003"><a xlink:href="classzero__mate_1_1gui_1_1CAUX__Window.html#a1441eb934e43fe96d1324da6f0b9d2a0" target="_top" xlink:title="Renders GPIO pins (IGUI_Window interface).">
<polygon fill="white" stroke="#666666" points="296.5,-83.5 173.5,-83.5 173.5,-53.5 296.5,-53.5 296.5,-83.5"/>
<text text-anchor="start" x="181.5" y="-71.5" font-family="Helvetica,sans-Serif" font-size="10.00">zero_mate::gui::CAUX</text>
<text text-anchor="middle" x="235" y="-60.5" font-family="Helvetica,sans-Serif" font-size="10.00">_Window::Render</text>
</a>
</g>
</g>
<!-- Node2&#45;&gt;Node3 -->
<g id="edge2_Node000002_Node000003" class="edge">
<title>Node2&#45;&gt;Node3</title>
<g id="a_edge2_Node000002_Node000003"><a xlink:title=" ">
<path fill="none" stroke="#63b8ff" d="M322.91,-68.5C313.99,-68.5 305.08,-68.5 296.55,-68.5"/>
<polygon fill="#63b8ff" stroke="#63b8ff" points="322.97,-72 332.97,-68.5 322.97,-65 322.97,-72"/>
</a>
</g>
</g>
<!-- Node5 -->
<g id="Node000005" class="node">
<title>Node5</title>
<g id="a_Node000005"><a xlink:href="classzero__mate_1_1peripheral_1_1CMini__UART.html#a3b75064597a5fbfe9c4c7d1f2e0c7e5f" target="_top" xlink:title="Updates the state machines (transmission/reception).">
<polygon fill="white" stroke="#666666" points="297,-35.5 173,-35.5 173,-5.5 297,-5.5 297,-35.5"/>
<text text-anchor="start" x="181" y="-23.5" font-family="Helvetica,sans-Serif" font-size="10.00">zero_mate::peripheral</text>
<text text-anchor="middle" x="235" y="-12.5" font-family="Helvetica,sans-Serif" font-size="10.00">::CMini_UART::Update</text>
</a>
</g>
</g>
<!-- Node4&#45;&gt;Node5 -->
<g id="edge4_Node000004_Node000005" class="edge">
<title>Node4&#45;&gt;Node5</title>
<g id="a_edge4_Node000004_Node000005"><a xlink:title=" ">
<path fill="none" stroke="#63b8ff" d="M331.68,-20.5C320.04,-20.5 308.21,-20.5 297.01,-20.5"/>
<polygon fill="#63b8ff" stroke="#63b8ff" points="331.84,-24 341.84,-20.5 331.84,-17 331.84,-24"/>
</a>
</g>
</g>
<!-- Node6 -->
<g id="Node000006" class="node">
<title>Node6</title>
<g id="a_Node000006"><a xlink:href="classzero__mate_1_1peripheral_1_1CMini__UART.html#aae5f7e2bbffa6e3881675058a0aedf6f" target="_top" xlink:title="Updates the number of passed CPU cycles (forwarded from the AUX peripheral).">
<polygon fill="white" stroke="#666666" points="137,-41 0,-41 0,0 137,0 137,-41"/>
<text text-anchor="start" x="8" y="-29" font-family="Helvetica,sans-Serif" font-size="10.00">zero_mate::peripheral</text>
<text text-anchor="start" x="8" y="-18" font-family="Helvetica,sans-Serif" font-size="10.00">::CMini_UART::Increment</text>
<text text-anchor="middle" x="68.5" y="-7" font-family="Helvetica,sans-Serif" font-size="10.00">_Passed_Cycles</text>
</a>
</g>
</g>
<!-- Node5&#45;&gt;Node6 -->
<g id="edge5_Node000005_Node000006" class="edge">
<title>Node5&#45;&gt;Node6</title>
<g id="a_edge5_Node000005_Node000006"><a xlink:title=" ">
<path fill="none" stroke="#63b8ff" d="M162.56,-20.5C154.13,-20.5 145.54,-20.5 137.16,-20.5"/>
<polygon fill="#63b8ff" stroke="#63b8ff" points="162.75,-24 172.75,-20.5 162.75,-17 162.75,-24"/>
</a>
</g>
</g>
</g>
</svg>
