<?xml version="1.0" encoding="UTF-8" standalone="no"?>
<!DOCTYPE svg PUBLIC "-//W3C//DTD SVG 1.1//EN"
 "http://www.w3.org/Graphics/SVG/1.1/DTD/svg11.dtd">
<!-- Generated by graphviz version 2.43.0 (0)
 -->
<!-- Title: zero_mate::arm1176jzf_s::CCPU_Context::Is_Mode_With_No_SPSR Pages: 1 -->
<svg width="1299pt" height="324pt"
 viewBox="0.00 0.00 1299.00 324.00" xmlns="http://www.w3.org/2000/svg" xmlns:xlink="http://www.w3.org/1999/xlink">
<g id="graph0" class="graph" transform="scale(1 1) rotate(0) translate(4 320)">
<title>zero_mate::arm1176jzf_s::CCPU_Context::Is_Mode_With_No_SPSR</title>
<!-- Node1 -->
<g id="Node000001" class="node">
<title>Node1</title>
<g id="a_Node000001"><a xlink:title="Checks if the CPU mode passed in as a parameter supports the SPSR register or not.">
<polygon fill="#999999" stroke="#666666" points="1291,-248.5 1161,-248.5 1161,-207.5 1291,-207.5 1291,-248.5"/>
<text text-anchor="start" x="1169" y="-236.5" font-family="Helvetica,sans-Serif" font-size="10.00">zero_mate::arm1176jzf</text>
<text text-anchor="start" x="1169" y="-225.5" font-family="Helvetica,sans-Serif" font-size="10.00">_s::CCPU_Context::Is</text>
<text text-anchor="middle" x="1226" y="-214.5" font-family="Helvetica,sans-Serif" font-size="10.00">_Mode_With_No_SPSR</text>
</a>
</g>
</g>
<!-- Node2 -->
<g id="Node000002" class="node">
<title>Node2</title>
<g id="a_Node000002"><a xlink:href="classzero__mate_1_1arm1176jzf__s_1_1CCPU__Core.html#a524d4d2622a78e1c416bf4528700bc00" target="_top" xlink:title="Executes a block data transfer instruction.">
<polygon fill="white" stroke="#666666" points="734,-316 602,-316 602,-286 734,-286 734,-316"/>
<text text-anchor="start" x="610" y="-304" font-family="Helvetica,sans-Serif" font-size="10.00">zero_mate::arm1176jzf</text>
<text text-anchor="middle" x="668" y="-293" font-family="Helvetica,sans-Serif" font-size="10.00">_s::CCPU_Core::Execute</text>
</a>
</g>
</g>
<!-- Node1&#45;&gt;Node2 -->
<g id="edge1_Node000001_Node000002" class="edge">
<title>Node1&#45;&gt;Node2</title>
<g id="a_edge1_Node000001_Node000002"><a xlink:title=" ">
<path fill="none" stroke="#63b8ff" d="M1151.13,-246.85C1142.35,-248.76 1133.5,-250.53 1125,-252 986.92,-275.89 823.17,-290.09 734.31,-296.63"/>
<polygon fill="#63b8ff" stroke="#63b8ff" points="1151.97,-250.25 1160.97,-244.66 1150.45,-243.42 1151.97,-250.25"/>
</a>
</g>
</g>
<!-- Node3 -->
<g id="Node000003" class="node">
<title>Node3</title>
<g id="a_Node000003"><a xlink:href="classzero__mate_1_1arm1176jzf__s_1_1CCPU__Core.html#a92c997ad914fb73cec7feb5fa26d8ead" target="_top" xlink:title="Executes a data processing instruction.">
<polygon fill="white" stroke="#666666" points="734,-268 602,-268 602,-238 734,-238 734,-268"/>
<text text-anchor="start" x="610" y="-256" font-family="Helvetica,sans-Serif" font-size="10.00">zero_mate::arm1176jzf</text>
<text text-anchor="middle" x="668" y="-245" font-family="Helvetica,sans-Serif" font-size="10.00">_s::CCPU_Core::Execute</text>
</a>
</g>
</g>
<!-- Node1&#45;&gt;Node3 -->
<g id="edge2_Node000001_Node000003" class="edge">
<title>Node1&#45;&gt;Node3</title>
<g id="a_edge2_Node000001_Node000003"><a xlink:title=" ">
<path fill="none" stroke="#63b8ff" d="M1150.64,-233.46C1142,-234.02 1133.31,-234.55 1125,-235 985.96,-242.61 822.91,-248.25 734.35,-251.05"/>
<polygon fill="#63b8ff" stroke="#63b8ff" points="1150.99,-236.94 1160.73,-232.79 1150.52,-229.96 1150.99,-236.94"/>
</a>
</g>
</g>
<!-- Node4 -->
<g id="Node000004" class="node">
<title>Node4</title>
<g id="a_Node000004"><a xlink:href="classzero__mate_1_1gui_1_1CRegisters__Window.html#a1779ad3caf45c3e8dd342ef8057dfff7" target="_top" xlink:title="Renders table with CPU registers of a given CPU mode.">
<polygon fill="white" stroke="#666666" points="759,-220 577,-220 577,-190 759,-190 759,-220"/>
<text text-anchor="start" x="585" y="-208" font-family="Helvetica,sans-Serif" font-size="10.00">zero_mate::gui::CRegisters</text>
<text text-anchor="middle" x="668" y="-197" font-family="Helvetica,sans-Serif" font-size="10.00">_Window::Render_Registers_Table</text>
</a>
</g>
</g>
<!-- Node1&#45;&gt;Node4 -->
<g id="edge3_Node000001_Node000004" class="edge">
<title>Node1&#45;&gt;Node4</title>
<g id="a_edge3_Node000001_Node000004"><a xlink:title=" ">
<path fill="none" stroke="#63b8ff" d="M1150.81,-224.93C1049.62,-220.75 868.48,-213.25 759.45,-208.74"/>
<polygon fill="#63b8ff" stroke="#63b8ff" points="1150.81,-228.43 1160.95,-225.35 1151.1,-221.44 1150.81,-228.43"/>
</a>
</g>
</g>
<!-- Node8 -->
<g id="Node000008" class="node">
<title>Node8</title>
<g id="a_Node000008"><a xlink:href="classzero__mate_1_1arm1176jzf__s_1_1CCPU__Context.html#a050dada520ca82a21874045815c596a8" target="_top" xlink:title=" ">
<polygon fill="white" stroke="#666666" points="1125,-131.5 988,-131.5 988,-90.5 1125,-90.5 1125,-131.5"/>
<text text-anchor="start" x="996" y="-119.5" font-family="Helvetica,sans-Serif" font-size="10.00">zero_mate::arm1176jzf</text>
<text text-anchor="start" x="996" y="-108.5" font-family="Helvetica,sans-Serif" font-size="10.00">_s::CCPU_Context::Verify</text>
<text text-anchor="middle" x="1056.5" y="-97.5" font-family="Helvetica,sans-Serif" font-size="10.00">_SPSR_Accessibility</text>
</a>
</g>
</g>
<!-- Node1&#45;&gt;Node8 -->
<g id="edge7_Node000001_Node000008" class="edge">
<title>Node1&#45;&gt;Node8</title>
<g id="a_edge7_Node000001_Node000008"><a xlink:title=" ">
<path fill="none" stroke="#63b8ff" d="M1187.22,-201.61C1156.9,-180.43 1114.94,-151.12 1087.05,-131.64"/>
<polygon fill="#63b8ff" stroke="#63b8ff" points="1185.24,-204.49 1195.44,-207.35 1189.25,-198.76 1185.24,-204.49"/>
</a>
</g>
</g>
<!-- Node5 -->
<g id="Node000005" class="node">
<title>Node5</title>
<g id="a_Node000005"><a xlink:href="classzero__mate_1_1gui_1_1CRegisters__Window.html#a25928c2ab0086154b73843f84a831953" target="_top" xlink:title="Renders different format tabs of a given CPU mode.">
<polygon fill="white" stroke="#666666" points="541,-220 368,-220 368,-190 541,-190 541,-220"/>
<text text-anchor="start" x="376" y="-208" font-family="Helvetica,sans-Serif" font-size="10.00">zero_mate::gui::CRegisters</text>
<text text-anchor="middle" x="454.5" y="-197" font-family="Helvetica,sans-Serif" font-size="10.00">_Window::Render_Register_Tabs</text>
</a>
</g>
</g>
<!-- Node4&#45;&gt;Node5 -->
<g id="edge4_Node000004_Node000005" class="edge">
<title>Node4&#45;&gt;Node5</title>
<g id="a_edge4_Node000004_Node000005"><a xlink:title=" ">
<path fill="none" stroke="#63b8ff" d="M566.89,-205C558.25,-205 549.56,-205 541.05,-205"/>
<polygon fill="#63b8ff" stroke="#63b8ff" points="567,-208.5 577,-205 567,-201.5 567,-208.5"/>
</a>
</g>
</g>
<!-- Node6 -->
<g id="Node000006" class="node">
<title>Node6</title>
<g id="a_Node000006"><a xlink:href="classzero__mate_1_1gui_1_1CRegisters__Window.html#ac9b00209a3db86452bf51d8f4c9dbf72" target="_top" xlink:title="Renders tabs for different CPU modes (SVC, IRQ, FIQ, etc.)">
<polygon fill="white" stroke="#666666" points="332,-225.5 184,-225.5 184,-184.5 332,-184.5 332,-225.5"/>
<text text-anchor="start" x="192" y="-213.5" font-family="Helvetica,sans-Serif" font-size="10.00">zero_mate::gui::CRegisters</text>
<text text-anchor="start" x="192" y="-202.5" font-family="Helvetica,sans-Serif" font-size="10.00">_Window::Render_Register</text>
<text text-anchor="middle" x="258" y="-191.5" font-family="Helvetica,sans-Serif" font-size="10.00">_Modes_Tabs</text>
</a>
</g>
</g>
<!-- Node5&#45;&gt;Node6 -->
<g id="edge5_Node000005_Node000006" class="edge">
<title>Node5&#45;&gt;Node6</title>
<g id="a_edge5_Node000005_Node000006"><a xlink:title=" ">
<path fill="none" stroke="#63b8ff" d="M357.81,-205C349.18,-205 340.54,-205 332.15,-205"/>
<polygon fill="#63b8ff" stroke="#63b8ff" points="357.91,-208.5 367.91,-205 357.91,-201.5 357.91,-208.5"/>
</a>
</g>
</g>
<!-- Node7 -->
<g id="Node000007" class="node">
<title>Node7</title>
<g id="a_Node000007"><a xlink:href="classzero__mate_1_1gui_1_1CRegisters__Window.html#a12beb19205052a340193be90b32e5717" target="_top" xlink:title="Renders the windows (IGUI_Window interface).">
<polygon fill="white" stroke="#666666" points="148,-220 0,-220 0,-190 148,-190 148,-220"/>
<text text-anchor="start" x="8" y="-208" font-family="Helvetica,sans-Serif" font-size="10.00">zero_mate::gui::CRegisters</text>
<text text-anchor="middle" x="74" y="-197" font-family="Helvetica,sans-Serif" font-size="10.00">_Window::Render</text>
</a>
</g>
</g>
<!-- Node6&#45;&gt;Node7 -->
<g id="edge6_Node000006_Node000007" class="edge">
<title>Node6&#45;&gt;Node7</title>
<g id="a_edge6_Node000006_Node000007"><a xlink:title=" ">
<path fill="none" stroke="#63b8ff" d="M173.48,-205C165.01,-205 156.44,-205 148.09,-205"/>
<polygon fill="#63b8ff" stroke="#63b8ff" points="173.76,-208.5 183.76,-205 173.76,-201.5 173.76,-208.5"/>
</a>
</g>
</g>
<!-- Node9 -->
<g id="Node000009" class="node">
<title>Node9</title>
<g id="a_Node000009"><a xlink:href="classzero__mate_1_1arm1176jzf__s_1_1CCPU__Context.html#ae00681efcbc4adfcfde001a67c5baeca" target="_top" xlink:title="Returns the value of the SPSR register of the current CPU mode.">
<polygon fill="white" stroke="#666666" points="952,-174 795,-174 795,-144 952,-144 952,-174"/>
<text text-anchor="start" x="803" y="-162" font-family="Helvetica,sans-Serif" font-size="10.00">zero_mate::arm1176jzf</text>
<text text-anchor="middle" x="873.5" y="-151" font-family="Helvetica,sans-Serif" font-size="10.00">_s::CCPU_Context::Get_SPSR</text>
</a>
</g>
</g>
<!-- Node8&#45;&gt;Node9 -->
<g id="edge8_Node000008_Node000009" class="edge">
<title>Node8&#45;&gt;Node9</title>
<g id="a_edge8_Node000008_Node000009"><a xlink:title=" ">
<path fill="none" stroke="#63b8ff" d="M978.11,-131.52C962.33,-135.71 946.01,-140.04 931.12,-143.98"/>
<polygon fill="#63b8ff" stroke="#63b8ff" points="979.08,-134.89 987.84,-128.94 977.28,-128.12 979.08,-134.89"/>
</a>
</g>
</g>
<!-- Node14 -->
<g id="Node000014" class="node">
<title>Node14</title>
<g id="a_Node000014"><a xlink:href="classzero__mate_1_1arm1176jzf__s_1_1CCPU__Context.html#a8640117a5d7886b324a368c9dc41288d" target="_top" xlink:title="Returns a reference to the SPSR register of the CPU mode passed in as a parameter.">
<polygon fill="white" stroke="#666666" points="952,-30 795,-30 795,0 952,0 952,-30"/>
<text text-anchor="start" x="803" y="-18" font-family="Helvetica,sans-Serif" font-size="10.00">zero_mate::arm1176jzf</text>
<text text-anchor="middle" x="873.5" y="-7" font-family="Helvetica,sans-Serif" font-size="10.00">_s::CCPU_Context::Get_SPSR</text>
</a>
</g>
</g>
<!-- Node8&#45;&gt;Node14 -->
<g id="edge17_Node000008_Node000014" class="edge">
<title>Node8&#45;&gt;Node14</title>
<g id="a_edge17_Node000008_Node000014"><a xlink:title=" ">
<path fill="none" stroke="#63b8ff" d="M1022.52,-84.13C1002.95,-69.22 977.13,-51.27 952,-39 945.16,-35.66 937.76,-32.67 930.34,-30.02"/>
<polygon fill="#63b8ff" stroke="#63b8ff" points="1020.45,-86.95 1030.5,-90.31 1024.74,-81.42 1020.45,-86.95"/>
</a>
</g>
</g>
<!-- Node15 -->
<g id="Node000015" class="node">
<title>Node15</title>
<g id="a_Node000015"><a xlink:href="classzero__mate_1_1arm1176jzf__s_1_1CCPU__Context.html#a1723b9f6993f17c2d293bd5a5e4d3440" target="_top" xlink:title="Returns a const reference to the SPSR register of the CPU mode passed in as a parameter.">
<polygon fill="white" stroke="#666666" points="952,-126 795,-126 795,-96 952,-96 952,-126"/>
<text text-anchor="start" x="803" y="-114" font-family="Helvetica,sans-Serif" font-size="10.00">zero_mate::arm1176jzf</text>
<text text-anchor="middle" x="873.5" y="-103" font-family="Helvetica,sans-Serif" font-size="10.00">_s::CCPU_Context::Get_SPSR</text>
</a>
</g>
</g>
<!-- Node8&#45;&gt;Node15 -->
<g id="edge18_Node000008_Node000015" class="edge">
<title>Node8&#45;&gt;Node15</title>
<g id="a_edge18_Node000008_Node000015"><a xlink:title=" ">
<path fill="none" stroke="#63b8ff" d="M977.63,-111C969.18,-111 960.57,-111 952.12,-111"/>
<polygon fill="#63b8ff" stroke="#63b8ff" points="977.84,-114.5 987.84,-111 977.84,-107.5 977.84,-114.5"/>
</a>
</g>
</g>
<!-- Node16 -->
<g id="Node000016" class="node">
<title>Node16</title>
<g id="a_Node000016"><a xlink:href="classzero__mate_1_1arm1176jzf__s_1_1CCPU__Context.html#a1b322131a1168763d2b8083c17a1079b" target="_top" xlink:title="Sets the value of the SPSR register in the CPU mode passed in as a parameter.">
<polygon fill="white" stroke="#666666" points="951,-78 796,-78 796,-48 951,-48 951,-78"/>
<text text-anchor="start" x="804" y="-66" font-family="Helvetica,sans-Serif" font-size="10.00">zero_mate::arm1176jzf</text>
<text text-anchor="middle" x="873.5" y="-55" font-family="Helvetica,sans-Serif" font-size="10.00">_s::CCPU_Context::Set_SPSR</text>
</a>
</g>
</g>
<!-- Node8&#45;&gt;Node16 -->
<g id="edge19_Node000008_Node000016" class="edge">
<title>Node8&#45;&gt;Node16</title>
<g id="a_edge19_Node000008_Node000016"><a xlink:title=" ">
<path fill="none" stroke="#63b8ff" d="M978.11,-90.48C962.33,-86.29 946.01,-81.96 931.12,-78.02"/>
<polygon fill="#63b8ff" stroke="#63b8ff" points="977.28,-93.88 987.84,-93.06 979.08,-87.11 977.28,-93.88"/>
</a>
</g>
</g>
<!-- Node9&#45;&gt;Node2 -->
<g id="edge9_Node000009_Node000002" class="edge">
<title>Node9&#45;&gt;Node2</title>
<g id="a_edge9_Node000009_Node000002"><a xlink:title=" ">
<path fill="none" stroke="#63b8ff" d="M856.07,-182.64C836.16,-209.5 800.14,-252.75 759,-277 751.34,-281.52 742.81,-285.2 734.15,-288.2"/>
<polygon fill="#63b8ff" stroke="#63b8ff" points="859.15,-184.36 862.19,-174.21 853.48,-180.25 859.15,-184.36"/>
</a>
</g>
</g>
<!-- Node9&#45;&gt;Node3 -->
<g id="edge10_Node000009_Node000003" class="edge">
<title>Node9&#45;&gt;Node3</title>
<g id="a_edge10_Node000009_Node000003"><a xlink:title=" ">
<path fill="none" stroke="#63b8ff" d="M843.87,-179.93C821.66,-195.34 789.6,-215.82 759,-229 751.13,-232.39 742.66,-235.4 734.18,-238.05"/>
<polygon fill="#63b8ff" stroke="#63b8ff" points="846,-182.71 852.17,-174.09 841.98,-176.99 846,-182.71"/>
</a>
</g>
</g>
<!-- Node9&#45;&gt;Node4 -->
<g id="edge16_Node000009_Node000004" class="edge">
<title>Node9&#45;&gt;Node4</title>
<g id="a_edge16_Node000009_Node000004"><a xlink:title=" ">
<path fill="none" stroke="#63b8ff" d="M795.92,-176.31C776.02,-180.81 754.76,-185.61 735.44,-189.98"/>
<polygon fill="#63b8ff" stroke="#63b8ff" points="796.88,-179.68 805.87,-174.06 795.34,-172.85 796.88,-179.68"/>
</a>
</g>
</g>
<!-- Node10 -->
<g id="Node000010" class="node">
<title>Node10</title>
<g id="a_Node000010"><a xlink:href="classzero__mate_1_1arm1176jzf__s_1_1CCPU__Core.html#aa96f69190ff05fe80c310e85b4d1002c" target="_top" xlink:title="Executes an SRS instruction.">
<polygon fill="white" stroke="#666666" points="734,-124 602,-124 602,-94 734,-94 734,-124"/>
<text text-anchor="start" x="610" y="-112" font-family="Helvetica,sans-Serif" font-size="10.00">zero_mate::arm1176jzf</text>
<text text-anchor="middle" x="668" y="-101" font-family="Helvetica,sans-Serif" font-size="10.00">_s::CCPU_Core::Execute</text>
</a>
</g>
</g>
<!-- Node9&#45;&gt;Node10 -->
<g id="edge11_Node000009_Node000010" class="edge">
<title>Node9&#45;&gt;Node10</title>
<g id="a_edge11_Node000009_Node000010"><a xlink:title=" ">
<path fill="none" stroke="#63b8ff" d="M801.65,-141.59C778.43,-135.89 752.83,-129.6 730.37,-124.08"/>
<polygon fill="#63b8ff" stroke="#63b8ff" points="800.9,-145.01 811.44,-144 802.57,-138.21 800.9,-145.01"/>
</a>
</g>
</g>
<!-- Node11 -->
<g id="Node000011" class="node">
<title>Node11</title>
<g id="a_Node000011"><a xlink:href="classzero__mate_1_1arm1176jzf__s_1_1CCPU__Core.html#a82f0fa55ec787c7a39bac81b7437aec2" target="_top" xlink:title="Executes an MRS instruction (move data from CPSR/SPSR to an ARM register).">
<polygon fill="white" stroke="#666666" points="747.5,-172 588.5,-172 588.5,-142 747.5,-142 747.5,-172"/>
<text text-anchor="start" x="596.5" y="-160" font-family="Helvetica,sans-Serif" font-size="10.00">zero_mate::arm1176jzf</text>
<text text-anchor="middle" x="668" y="-149" font-family="Helvetica,sans-Serif" font-size="10.00">_s::CCPU_Core::Execute_MRS</text>
</a>
</g>
</g>
<!-- Node9&#45;&gt;Node11 -->
<g id="edge12_Node000009_Node000011" class="edge">
<title>Node9&#45;&gt;Node11</title>
<g id="a_edge12_Node000009_Node000011"><a xlink:title=" ">
<path fill="none" stroke="#63b8ff" d="M784.71,-158.14C772.39,-158.02 759.79,-157.89 747.65,-157.77"/>
<polygon fill="#63b8ff" stroke="#63b8ff" points="784.95,-161.64 794.98,-158.24 785.02,-154.64 784.95,-161.64"/>
</a>
</g>
</g>
<!-- Node13 -->
<g id="Node000013" class="node">
<title>Node13</title>
<g id="a_Node000013"><a xlink:href="classzero__mate_1_1arm1176jzf__s_1_1CCPU__Core.html#abe7461d09a52f28f99037717f61975c6" target="_top" xlink:title="Executes an MSR instruction (move data to CPSR/SPSR from an ARM register).">
<polygon fill="white" stroke="#666666" points="747.5,-76 588.5,-76 588.5,-46 747.5,-46 747.5,-76"/>
<text text-anchor="start" x="596.5" y="-64" font-family="Helvetica,sans-Serif" font-size="10.00">zero_mate::arm1176jzf</text>
<text text-anchor="middle" x="668" y="-53" font-family="Helvetica,sans-Serif" font-size="10.00">_s::CCPU_Core::Execute_MSR</text>
</a>
</g>
</g>
<!-- Node9&#45;&gt;Node13 -->
<g id="edge14_Node000009_Node000013" class="edge">
<title>Node9&#45;&gt;Node13</title>
<g id="a_edge14_Node000009_Node000013"><a xlink:title=" ">
<path fill="none" stroke="#63b8ff" d="M801.57,-139.26C799.3,-137.93 797.1,-136.51 795,-135 772.77,-119.01 781.54,-100.54 759,-85 754.07,-81.6 748.69,-78.69 743.09,-76.18"/>
<polygon fill="#63b8ff" stroke="#63b8ff" points="800.15,-142.47 810.64,-143.97 803.38,-136.25 800.15,-142.47"/>
</a>
</g>
</g>
<!-- Node12 -->
<g id="Node000012" class="node">
<title>Node12</title>
<g id="a_Node000012"><a xlink:href="classzero__mate_1_1arm1176jzf__s_1_1CCPU__Core.html#a3a90c040b3cbe4545a9acc5e35acdd45" target="_top" xlink:title="Executes a PSR transfer instruction.">
<polygon fill="white" stroke="#666666" points="520.5,-124 388.5,-124 388.5,-94 520.5,-94 520.5,-124"/>
<text text-anchor="start" x="396.5" y="-112" font-family="Helvetica,sans-Serif" font-size="10.00">zero_mate::arm1176jzf</text>
<text text-anchor="middle" x="454.5" y="-101" font-family="Helvetica,sans-Serif" font-size="10.00">_s::CCPU_Core::Execute</text>
</a>
</g>
</g>
<!-- Node11&#45;&gt;Node12 -->
<g id="edge13_Node000011_Node000012" class="edge">
<title>Node11&#45;&gt;Node12</title>
<g id="a_edge13_Node000011_Node000012"><a xlink:title=" ">
<path fill="none" stroke="#63b8ff" d="M590.61,-139.66C567.65,-134.45 542.67,-128.78 520.52,-123.76"/>
<polygon fill="#63b8ff" stroke="#63b8ff" points="590.13,-143.14 600.66,-141.94 591.68,-136.32 590.13,-143.14"/>
</a>
</g>
</g>
<!-- Node13&#45;&gt;Node12 -->
<g id="edge15_Node000013_Node000012" class="edge">
<title>Node13&#45;&gt;Node12</title>
<g id="a_edge15_Node000013_Node000012"><a xlink:title=" ">
<path fill="none" stroke="#63b8ff" d="M590.61,-78.34C567.65,-83.55 542.67,-89.22 520.52,-94.24"/>
<polygon fill="#63b8ff" stroke="#63b8ff" points="591.68,-81.68 600.66,-76.06 590.13,-74.86 591.68,-81.68"/>
</a>
</g>
</g>
<!-- Node16&#45;&gt;Node13 -->
<g id="edge20_Node000016_Node000013" class="edge">
<title>Node16&#45;&gt;Node13</title>
<g id="a_edge20_Node000016_Node000013"><a xlink:title=" ">
<path fill="none" stroke="#63b8ff" d="M785.77,-62.15C773.1,-62.02 760.11,-61.9 747.61,-61.77"/>
<polygon fill="#63b8ff" stroke="#63b8ff" points="785.82,-65.65 795.86,-62.25 785.89,-58.65 785.82,-65.65"/>
</a>
</g>
</g>
</g>
</svg>
