<?xml version="1.0" encoding="UTF-8" standalone="no"?>
<!DOCTYPE svg PUBLIC "-//W3C//DTD SVG 1.1//EN"
 "http://www.w3.org/Graphics/SVG/1.1/DTD/svg11.dtd">
<!-- Generated by graphviz version 2.43.0 (0)
 -->
<!-- Title: zero_mate::arm1176jzf_s::isa::CData_Processing::Get_Shift_Amount Pages: 1 -->
<svg width="499pt" height="122pt"
 viewBox="0.00 0.00 499.00 121.50" xmlns="http://www.w3.org/2000/svg" xmlns:xlink="http://www.w3.org/1999/xlink">
<g id="graph0" class="graph" transform="scale(1 1) rotate(0) translate(4 117.5)">
<title>zero_mate::arm1176jzf_s::isa::CData_Processing::Get_Shift_Amount</title>
<!-- Node1 -->
<g id="Node000001" class="node">
<title>Node1</title>
<g id="a_Node000001"><a xlink:title="Returns the shift amount used when constructing the second operand (immediate second operand).">
<polygon fill="#999999" stroke="#666666" points="491,-68 350,-68 350,-27 491,-27 491,-68"/>
<text text-anchor="start" x="358" y="-56" font-family="Helvetica,sans-Serif" font-size="10.00">zero_mate::arm1176jzf</text>
<text text-anchor="start" x="358" y="-45" font-family="Helvetica,sans-Serif" font-size="10.00">_s::isa::CData_Processing</text>
<text text-anchor="middle" x="420.5" y="-34" font-family="Helvetica,sans-Serif" font-size="10.00">::Get_Shift_Amount</text>
</a>
</g>
</g>
<!-- Node2 -->
<g id="Node000002" class="node">
<title>Node2</title>
<g id="a_Node000002"><a xlink:href="classzero__mate_1_1arm1176jzf__s_1_1CCPU__Core.html#ab8055407426b0f25544d2b33a89b22a7" target="_top" xlink:title="Calculates the offset from the base address in a single data transfer instruction.">
<polygon fill="white" stroke="#666666" points="314,-89.5 168,-89.5 168,-59.5 314,-59.5 314,-89.5"/>
<text text-anchor="start" x="176" y="-77.5" font-family="Helvetica,sans-Serif" font-size="10.00">zero_mate::arm1176jzf</text>
<text text-anchor="middle" x="241" y="-66.5" font-family="Helvetica,sans-Serif" font-size="10.00">_s::CCPU_Core::Get_Offset</text>
</a>
</g>
</g>
<!-- Node1&#45;&gt;Node2 -->
<g id="edge1_Node000001_Node000002" class="edge">
<title>Node1&#45;&gt;Node2</title>
<g id="a_edge1_Node000001_Node000002"><a xlink:title=" ">
<path fill="none" stroke="#63b8ff" d="M339.85,-59.62C331.26,-60.92 322.56,-62.25 314.07,-63.54"/>
<polygon fill="#63b8ff" stroke="#63b8ff" points="340.5,-63.06 349.86,-58.09 339.44,-56.14 340.5,-63.06"/>
</a>
</g>
</g>
<!-- Node5 -->
<g id="Node000005" class="node">
<title>Node5</title>
<g id="a_Node000005"><a xlink:href="classzero__mate_1_1arm1176jzf__s_1_1CCPU__Core.html#a0478a8424dae644c2370128633e973f3" target="_top" xlink:title="Calculates the shift amount of a data processing instruction.">
<polygon fill="white" stroke="#666666" points="310,-41 172,-41 172,0 310,0 310,-41"/>
<text text-anchor="start" x="180" y="-29" font-family="Helvetica,sans-Serif" font-size="10.00">zero_mate::arm1176jzf</text>
<text text-anchor="start" x="180" y="-18" font-family="Helvetica,sans-Serif" font-size="10.00">_s::CCPU_Core::Get_Shift</text>
<text text-anchor="middle" x="241" y="-7" font-family="Helvetica,sans-Serif" font-size="10.00">_Amount</text>
</a>
</g>
</g>
<!-- Node1&#45;&gt;Node5 -->
<g id="edge4_Node000001_Node000005" class="edge">
<title>Node1&#45;&gt;Node5</title>
<g id="a_edge4_Node000001_Node000005"><a xlink:title=" ">
<path fill="none" stroke="#63b8ff" d="M339.7,-35.36C329.88,-33.87 319.91,-32.35 310.28,-30.89"/>
<polygon fill="#63b8ff" stroke="#63b8ff" points="339.44,-38.86 349.86,-36.91 340.5,-31.94 339.44,-38.86"/>
</a>
</g>
</g>
<!-- Node3 -->
<g id="Node000003" class="node">
<title>Node3</title>
<g id="a_Node000003"><a xlink:href="classzero__mate_1_1arm1176jzf__s_1_1CCPU__Core.html#ae5fc1112d78d8c344841fd94d1356635" target="_top" xlink:title="Executes a halfword data transfer instruction.">
<polygon fill="white" stroke="#666666" points="132,-113.5 0,-113.5 0,-83.5 132,-83.5 132,-113.5"/>
<text text-anchor="start" x="8" y="-101.5" font-family="Helvetica,sans-Serif" font-size="10.00">zero_mate::arm1176jzf</text>
<text text-anchor="middle" x="66" y="-90.5" font-family="Helvetica,sans-Serif" font-size="10.00">_s::CCPU_Core::Execute</text>
</a>
</g>
</g>
<!-- Node2&#45;&gt;Node3 -->
<g id="edge2_Node000002_Node000003" class="edge">
<title>Node2&#45;&gt;Node3</title>
<g id="a_edge2_Node000002_Node000003"><a xlink:title=" ">
<path fill="none" stroke="#63b8ff" d="M157.8,-85.9C149.18,-87.1 140.49,-88.3 132.1,-89.47"/>
<polygon fill="#63b8ff" stroke="#63b8ff" points="158.46,-89.35 167.89,-84.5 157.5,-82.41 158.46,-89.35"/>
</a>
</g>
</g>
<!-- Node4 -->
<g id="Node000004" class="node">
<title>Node4</title>
<g id="a_Node000004"><a xlink:href="classzero__mate_1_1arm1176jzf__s_1_1CCPU__Core.html#ab4697275a93c62613b13cdd77726f81c" target="_top" xlink:title="Executes a single data transfer instruction.">
<polygon fill="white" stroke="#666666" points="132,-65.5 0,-65.5 0,-35.5 132,-35.5 132,-65.5"/>
<text text-anchor="start" x="8" y="-53.5" font-family="Helvetica,sans-Serif" font-size="10.00">zero_mate::arm1176jzf</text>
<text text-anchor="middle" x="66" y="-42.5" font-family="Helvetica,sans-Serif" font-size="10.00">_s::CCPU_Core::Execute</text>
</a>
</g>
</g>
<!-- Node2&#45;&gt;Node4 -->
<g id="edge3_Node000002_Node000004" class="edge">
<title>Node2&#45;&gt;Node4</title>
<g id="a_edge3_Node000002_Node000004"><a xlink:title=" ">
<path fill="none" stroke="#63b8ff" d="M157.8,-63.1C149.18,-61.9 140.49,-60.7 132.1,-59.53"/>
<polygon fill="#63b8ff" stroke="#63b8ff" points="157.5,-66.59 167.89,-64.5 158.46,-59.65 157.5,-66.59"/>
</a>
</g>
</g>
</g>
</svg>
