<?xml version="1.0" encoding="UTF-8" standalone="no"?>
<!DOCTYPE svg PUBLIC "-//W3C//DTD SVG 1.1//EN"
 "http://www.w3.org/Graphics/SVG/1.1/DTD/svg11.dtd">
<!-- Generated by graphviz version 2.43.0 (0)
 -->
<!-- Title: zero_mate::peripheral::CBSC::I2C_Update Pages: 1 -->
<svg width="1269pt" height="337pt"
 viewBox="0.00 0.00 1269.00 337.00" xmlns="http://www.w3.org/2000/svg" xmlns:xlink="http://www.w3.org/1999/xlink">
<g id="graph0" class="graph" transform="scale(1 1) rotate(0) translate(4 333)">
<title>zero_mate::peripheral::CBSC::I2C_Update</title>
<!-- Node1 -->
<g id="Node000001" class="node">
<title>Node1</title>
<g id="a_Node000001"><a xlink:title="Updates the I2C state machine.">
<polygon fill="#999999" stroke="#666666" points="124,-204 0,-204 0,-174 124,-174 124,-204"/>
<text text-anchor="start" x="8" y="-192" font-family="Helvetica,sans-Serif" font-size="10.00">zero_mate::peripheral</text>
<text text-anchor="middle" x="62" y="-181" font-family="Helvetica,sans-Serif" font-size="10.00">::CBSC::I2C_Update</text>
</a>
</g>
</g>
<!-- Node2 -->
<g id="Node000002" class="node">
<title>Node2</title>
<g id="a_Node000002"><a xlink:href="classzero__mate_1_1peripheral_1_1CBSC.html#aadbb0ba14e605ee9f1be46c02f549aaa" target="_top" xlink:title="Checks whether the slave device has sent ACK_1 as expected.">
<polygon fill="white" stroke="#666666" points="695,-329 543,-329 543,-299 695,-299 695,-329"/>
<text text-anchor="start" x="551" y="-317" font-family="Helvetica,sans-Serif" font-size="10.00">zero_mate::peripheral</text>
<text text-anchor="middle" x="619" y="-306" font-family="Helvetica,sans-Serif" font-size="10.00">::CBSC::I2C_Receive_ACK_1</text>
</a>
</g>
</g>
<!-- Node1&#45;&gt;Node2 -->
<g id="edge1_Node000001_Node000002" class="edge">
<title>Node1&#45;&gt;Node2</title>
<g id="a_edge1_Node000001_Node000002"><a xlink:title=" ">
<path fill="none" stroke="#63b8ff" d="M84.01,-204.21C103.04,-217.39 132.27,-236.14 160,-248 282.23,-300.26 437.8,-312.54 532.54,-314.68"/>
<polygon fill="#63b8ff" stroke="#63b8ff" points="532.58,-318.18 542.65,-314.88 532.72,-311.19 532.58,-318.18"/>
</a>
</g>
</g>
<!-- Node8 -->
<g id="Node000008" class="node">
<title>Node8</title>
<g id="a_Node000008"><a xlink:href="classzero__mate_1_1peripheral_1_1CBSC.html#a316b2af702507bdc0f385f5cf10bf47a" target="_top" xlink:title="Checks whether the slave device has sent ACK_2 as expected.">
<polygon fill="white" stroke="#666666" points="501,-288 349,-288 349,-258 501,-258 501,-288"/>
<text text-anchor="start" x="357" y="-276" font-family="Helvetica,sans-Serif" font-size="10.00">zero_mate::peripheral</text>
<text text-anchor="middle" x="425" y="-265" font-family="Helvetica,sans-Serif" font-size="10.00">::CBSC::I2C_Receive_ACK_2</text>
</a>
</g>
</g>
<!-- Node1&#45;&gt;Node8 -->
<g id="edge7_Node000001_Node000008" class="edge">
<title>Node1&#45;&gt;Node8</title>
<g id="a_edge7_Node000001_Node000008"><a xlink:title=" ">
<path fill="none" stroke="#63b8ff" d="M108.63,-204.12C124.76,-209.2 143.1,-214.67 160,-219 219.28,-234.19 286.92,-247.96 338.89,-257.79"/>
<polygon fill="#63b8ff" stroke="#63b8ff" points="338.26,-261.23 348.73,-259.64 339.55,-254.35 338.26,-261.23"/>
</a>
</g>
</g>
<!-- Node9 -->
<g id="Node000009" class="node">
<title>Node9</title>
<g id="a_Node000009"><a xlink:href="classzero__mate_1_1peripheral_1_1CBSC.html#abc87dd5711f004d648286ec13e22bb28" target="_top" xlink:title="Sends another bit of the data payload.">
<polygon fill="white" stroke="#666666" points="489,-240 361,-240 361,-210 489,-210 489,-240"/>
<text text-anchor="start" x="369" y="-228" font-family="Helvetica,sans-Serif" font-size="10.00">zero_mate::peripheral</text>
<text text-anchor="middle" x="425" y="-217" font-family="Helvetica,sans-Serif" font-size="10.00">::CBSC::I2C_Send_Data</text>
</a>
</g>
</g>
<!-- Node1&#45;&gt;Node9 -->
<g id="edge9_Node000001_Node000009" class="edge">
<title>Node1&#45;&gt;Node9</title>
<g id="a_edge9_Node000001_Node000009"><a xlink:title=" ">
<path fill="none" stroke="#63b8ff" d="M124.24,-195.11C186.9,-201.36 284.28,-211.07 350.93,-217.71"/>
<polygon fill="#63b8ff" stroke="#63b8ff" points="350.64,-221.2 360.94,-218.71 351.34,-214.24 350.64,-221.2"/>
</a>
</g>
</g>
<!-- Node11 -->
<g id="Node000011" class="node">
<title>Node11</title>
<g id="a_Node000011"><a xlink:href="classzero__mate_1_1peripheral_1_1CBSC.html#acf265364a9484ecfad37ab0893d981c7" target="_top" xlink:title="Sends the RW bit.">
<polygon fill="white" stroke="#666666" points="495,-192 355,-192 355,-162 495,-162 495,-192"/>
<text text-anchor="start" x="363" y="-180" font-family="Helvetica,sans-Serif" font-size="10.00">zero_mate::peripheral</text>
<text text-anchor="middle" x="425" y="-169" font-family="Helvetica,sans-Serif" font-size="10.00">::CBSC::I2C_Send_RW_Bit</text>
</a>
</g>
</g>
<!-- Node1&#45;&gt;Node11 -->
<g id="edge13_Node000001_Node000011" class="edge">
<title>Node1&#45;&gt;Node11</title>
<g id="a_edge13_Node000001_Node000011"><a xlink:title=" ">
<path fill="none" stroke="#63b8ff" d="M124.24,-186.96C184.99,-184.94 278.36,-181.84 344.74,-179.63"/>
<polygon fill="#63b8ff" stroke="#63b8ff" points="344.86,-183.13 354.74,-179.3 344.63,-176.14 344.86,-183.13"/>
</a>
</g>
</g>
<!-- Node12 -->
<g id="Node000012" class="node">
<title>Node12</title>
<g id="a_Node000012"><a xlink:href="classzero__mate_1_1peripheral_1_1CBSC.html#a0535fad6da893f066addecb99f455192" target="_top" xlink:title="Sends another bit of the slave&#39;s address.">
<polygon fill="white" stroke="#666666" points="299.5,-160.5 167.5,-160.5 167.5,-119.5 299.5,-119.5 299.5,-160.5"/>
<text text-anchor="start" x="175.5" y="-148.5" font-family="Helvetica,sans-Serif" font-size="10.00">zero_mate::peripheral</text>
<text text-anchor="start" x="175.5" y="-137.5" font-family="Helvetica,sans-Serif" font-size="10.00">::CBSC::I2C_Send_Slave</text>
<text text-anchor="middle" x="233.5" y="-126.5" font-family="Helvetica,sans-Serif" font-size="10.00">_Address</text>
</a>
</g>
</g>
<!-- Node1&#45;&gt;Node12 -->
<g id="edge15_Node000001_Node000012" class="edge">
<title>Node1&#45;&gt;Node12</title>
<g id="a_edge15_Node000001_Node000012"><a xlink:title=" ">
<path fill="none" stroke="#63b8ff" d="M115.24,-173.9C128.6,-170.04 143.22,-165.81 157.48,-161.69"/>
<polygon fill="#63b8ff" stroke="#63b8ff" points="158.63,-165 167.27,-158.86 156.69,-158.27 158.63,-165"/>
</a>
</g>
</g>
<!-- Node13 -->
<g id="Node000013" class="node">
<title>Node13</title>
<g id="a_Node000013"><a xlink:href="classzero__mate_1_1peripheral_1_1CBSC.html#a3554dd56ba5d95d2eada7b0fd5a92c55" target="_top" xlink:title="Sends a start bit (start of a frame).">
<polygon fill="white" stroke="#666666" points="307,-101 160,-101 160,-71 307,-71 307,-101"/>
<text text-anchor="start" x="168" y="-89" font-family="Helvetica,sans-Serif" font-size="10.00">zero_mate::peripheral</text>
<text text-anchor="middle" x="233.5" y="-78" font-family="Helvetica,sans-Serif" font-size="10.00">::CBSC::I2C_Send_Start_Bit</text>
</a>
</g>
</g>
<!-- Node1&#45;&gt;Node13 -->
<g id="edge17_Node000001_Node000013" class="edge">
<title>Node1&#45;&gt;Node13</title>
<g id="a_edge17_Node000001_Node000013"><a xlink:title=" ">
<path fill="none" stroke="#63b8ff" d="M78.24,-173.91C96.38,-156.66 128.22,-128.55 160,-111 163.91,-108.84 168.04,-106.82 172.26,-104.94"/>
<polygon fill="#63b8ff" stroke="#63b8ff" points="173.73,-108.11 181.61,-101.03 171.03,-101.65 173.73,-108.11"/>
</a>
</g>
</g>
<!-- Node14 -->
<g id="Node000014" class="node">
<title>Node14</title>
<g id="a_Node000014"><a xlink:href="classzero__mate_1_1peripheral_1_1CBSC.html#aa830cee242bb74a3779bb54c4baee609" target="_top" xlink:title="Sends a stop bit (end of a frame).">
<polygon fill="white" stroke="#666666" points="306.5,-53 160.5,-53 160.5,-23 306.5,-23 306.5,-53"/>
<text text-anchor="start" x="168.5" y="-41" font-family="Helvetica,sans-Serif" font-size="10.00">zero_mate::peripheral</text>
<text text-anchor="middle" x="233.5" y="-30" font-family="Helvetica,sans-Serif" font-size="10.00">::CBSC::I2C_Send_Stop_Bit</text>
</a>
</g>
</g>
<!-- Node1&#45;&gt;Node14 -->
<g id="edge19_Node000001_Node000014" class="edge">
<title>Node1&#45;&gt;Node14</title>
<g id="a_edge19_Node000001_Node000014"><a xlink:title=" ">
<path fill="none" stroke="#63b8ff" d="M70.68,-173.71C84.78,-147.15 117.3,-92.43 160,-62 162.08,-60.52 164.25,-59.12 166.5,-57.81"/>
<polygon fill="#63b8ff" stroke="#63b8ff" points="168.21,-60.87 175.46,-53.15 164.98,-54.66 168.21,-60.87"/>
</a>
</g>
</g>
<!-- Node3 -->
<g id="Node000003" class="node">
<title>Node3</title>
<g id="a_Node000003"><a xlink:href="classzero__mate_1_1utils_1_1CLogging__System.html#a57ed77e1a5cf822cea532cc5e05c3f60" target="_top" xlink:title="Logs an error message via all registered loggers.">
<polygon fill="white" stroke="#666666" points="877,-260 731,-260 731,-230 877,-230 877,-260"/>
<text text-anchor="start" x="739" y="-248" font-family="Helvetica,sans-Serif" font-size="10.00">zero_mate::utils::CLogging</text>
<text text-anchor="middle" x="804" y="-237" font-family="Helvetica,sans-Serif" font-size="10.00">_System::Error</text>
</a>
</g>
</g>
<!-- Node2&#45;&gt;Node3 -->
<g id="edge2_Node000002_Node000003" class="edge">
<title>Node2&#45;&gt;Node3</title>
<g id="a_edge2_Node000002_Node000003"><a xlink:title=" ">
<path fill="none" stroke="#63b8ff" d="M660.16,-298.86C687.57,-288.52 724.08,-274.76 753.32,-263.73"/>
<polygon fill="#63b8ff" stroke="#63b8ff" points="754.81,-266.91 762.93,-260.11 752.34,-260.36 754.81,-266.91"/>
</a>
</g>
</g>
<!-- Node4 -->
<g id="Node000004" class="node">
<title>Node4</title>
<g id="a_Node000004"><a xlink:href="classzero__mate_1_1utils_1_1CLogging__System.html#a71ed11c796553cbe8fd99773406a1060" target="_top" xlink:title="Creates a formatted message to be logged.">
<polygon fill="white" stroke="#666666" points="1065,-292.5 913,-292.5 913,-251.5 1065,-251.5 1065,-292.5"/>
<text text-anchor="start" x="921" y="-280.5" font-family="Helvetica,sans-Serif" font-size="10.00">zero_mate::utils::CLogging</text>
<text text-anchor="start" x="921" y="-269.5" font-family="Helvetica,sans-Serif" font-size="10.00">_System::Create_Formatted</text>
<text text-anchor="middle" x="989" y="-258.5" font-family="Helvetica,sans-Serif" font-size="10.00">_Log_Msg</text>
</a>
</g>
</g>
<!-- Node3&#45;&gt;Node4 -->
<g id="edge3_Node000003_Node000004" class="edge">
<title>Node3&#45;&gt;Node4</title>
<g id="a_edge3_Node000003_Node000004"><a xlink:title=" ">
<path fill="none" stroke="#63b8ff" d="M877.06,-255.63C885.55,-256.88 894.26,-258.17 902.9,-259.44"/>
<polygon fill="#63b8ff" stroke="#63b8ff" points="902.59,-262.94 912.99,-260.93 903.61,-256.01 902.59,-262.94"/>
</a>
</g>
</g>
<!-- Node7 -->
<g id="Node000007" class="node">
<title>Node7</title>
<g id="a_Node000007"><a xlink:href="classzero__mate_1_1utils_1_1CLogging__System.html#ad371c67ef65763966ccf9291002e86f3" target="_top" xlink:title="Extract the filename from a given location within the source files.">
<polygon fill="white" stroke="#666666" points="1063.5,-233 914.5,-233 914.5,-203 1063.5,-203 1063.5,-233"/>
<text text-anchor="start" x="922.5" y="-221" font-family="Helvetica,sans-Serif" font-size="10.00">zero_mate::utils::CLogging</text>
<text text-anchor="middle" x="989" y="-210" font-family="Helvetica,sans-Serif" font-size="10.00">_System::Extract_Filename</text>
</a>
</g>
</g>
<!-- Node3&#45;&gt;Node7 -->
<g id="edge6_Node000003_Node000007" class="edge">
<title>Node3&#45;&gt;Node7</title>
<g id="a_edge6_Node000003_Node000007"><a xlink:title=" ">
<path fill="none" stroke="#63b8ff" d="M877.06,-234.37C886.1,-233.03 895.4,-231.66 904.59,-230.31"/>
<polygon fill="#63b8ff" stroke="#63b8ff" points="905.12,-233.77 914.5,-228.84 904.1,-226.84 905.12,-233.77"/>
</a>
</g>
</g>
<!-- Node5 -->
<g id="Node000005" class="node">
<title>Node5</title>
<g id="a_Node000005"><a xlink:href="classzero__mate_1_1utils_1_1CLogging__System.html#aa70c102c805079042ffea2a6f2a5ad64" target="_top" xlink:title="Formats a given timestamp.">
<polygon fill="white" stroke="#666666" points="1261,-311 1101,-311 1101,-281 1261,-281 1261,-311"/>
<text text-anchor="start" x="1109" y="-299" font-family="Helvetica,sans-Serif" font-size="10.00">zero_mate::utils::CLogging</text>
<text text-anchor="middle" x="1181" y="-288" font-family="Helvetica,sans-Serif" font-size="10.00">_System::Format_Timestamp</text>
</a>
</g>
</g>
<!-- Node4&#45;&gt;Node5 -->
<g id="edge4_Node000004_Node000005" class="edge">
<title>Node4&#45;&gt;Node5</title>
<g id="a_edge4_Node000004_Node000005"><a xlink:title=" ">
<path fill="none" stroke="#63b8ff" d="M1065.09,-281.49C1073.52,-282.55 1082.16,-283.64 1090.74,-284.73"/>
<polygon fill="#63b8ff" stroke="#63b8ff" points="1090.41,-288.21 1100.77,-285.99 1091.29,-281.27 1090.41,-288.21"/>
</a>
</g>
</g>
<!-- Node6 -->
<g id="Node000006" class="node">
<title>Node6</title>
<g id="a_Node000006"><a xlink:href="classzero__mate_1_1utils_1_1CLogging__System.html#ae3ca637537dde05e0b9119145c840331" target="_top" xlink:title="Returns the current timestamp that will be used in a log message.">
<polygon fill="white" stroke="#666666" points="1254,-263 1108,-263 1108,-233 1254,-233 1254,-263"/>
<text text-anchor="start" x="1116" y="-251" font-family="Helvetica,sans-Serif" font-size="10.00">zero_mate::utils::CLogging</text>
<text text-anchor="middle" x="1181" y="-240" font-family="Helvetica,sans-Serif" font-size="10.00">_System::Get_Timestamp</text>
</a>
</g>
</g>
<!-- Node4&#45;&gt;Node6 -->
<g id="edge5_Node000004_Node000006" class="edge">
<title>Node4&#45;&gt;Node6</title>
<g id="a_edge5_Node000004_Node000006"><a xlink:title=" ">
<path fill="none" stroke="#63b8ff" d="M1065.09,-262.51C1075.89,-261.15 1087.05,-259.74 1097.98,-258.36"/>
<polygon fill="#63b8ff" stroke="#63b8ff" points="1098.45,-261.83 1107.93,-257.1 1097.57,-254.88 1098.45,-261.83"/>
</a>
</g>
</g>
<!-- Node8&#45;&gt;Node3 -->
<g id="edge8_Node000008_Node000003" class="edge">
<title>Node8&#45;&gt;Node3</title>
<g id="a_edge8_Node000008_Node000003"><a xlink:title=" ">
<path fill="none" stroke="#63b8ff" d="M501.39,-267.4C564.82,-262.69 655.37,-255.96 720.69,-251.11"/>
<polygon fill="#63b8ff" stroke="#63b8ff" points="721.23,-254.58 730.94,-250.35 720.71,-247.6 721.23,-254.58"/>
</a>
</g>
</g>
<!-- Node9&#45;&gt;Node3 -->
<g id="edge10_Node000009_Node000003" class="edge">
<title>Node9&#45;&gt;Node3</title>
<g id="a_edge10_Node000009_Node000003"><a xlink:title=" ">
<path fill="none" stroke="#63b8ff" d="M489.1,-228.35C552.73,-231.72 651.26,-236.95 720.93,-240.65"/>
<polygon fill="#63b8ff" stroke="#63b8ff" points="720.82,-244.15 730.99,-241.18 721.19,-237.16 720.82,-244.15"/>
</a>
</g>
</g>
<!-- Node10 -->
<g id="Node000010" class="node">
<title>Node10</title>
<g id="a_Node000010"><a xlink:href="classzero__mate_1_1peripheral_1_1CBSC.html#a74b84158da1933e79f091706e27c12f5" target="_top" xlink:title="Sets the state of a given GPIO pin.">
<polygon fill="white" stroke="#666666" points="681,-149 557,-149 557,-119 681,-119 681,-149"/>
<text text-anchor="start" x="565" y="-137" font-family="Helvetica,sans-Serif" font-size="10.00">zero_mate::peripheral</text>
<text text-anchor="middle" x="619" y="-126" font-family="Helvetica,sans-Serif" font-size="10.00">::CBSC::Set_GPIO_pin</text>
</a>
</g>
</g>
<!-- Node9&#45;&gt;Node10 -->
<g id="edge11_Node000009_Node000010" class="edge">
<title>Node9&#45;&gt;Node10</title>
<g id="a_edge11_Node000009_Node000010"><a xlink:title=" ">
<path fill="none" stroke="#63b8ff" d="M483.74,-209.87C491.67,-207.22 499.62,-204.26 507,-201 535.96,-188.22 566.6,-169.26 588.33,-154.77"/>
<polygon fill="#63b8ff" stroke="#63b8ff" points="590.45,-157.56 596.78,-149.07 586.53,-151.76 590.45,-157.56"/>
</a>
</g>
</g>
<!-- Node10&#45;&gt;Node3 -->
<g id="edge12_Node000010_Node000003" class="edge">
<title>Node10&#45;&gt;Node3</title>
<g id="a_edge12_Node000010_Node000003"><a xlink:title=" ">
<path fill="none" stroke="#63b8ff" d="M645.06,-149.2C677.37,-168.8 733.65,-202.93 769.57,-224.72"/>
<polygon fill="#63b8ff" stroke="#63b8ff" points="767.88,-227.79 778.24,-229.98 771.51,-221.8 767.88,-227.79"/>
</a>
</g>
</g>
<!-- Node11&#45;&gt;Node10 -->
<g id="edge14_Node000011_Node000010" class="edge">
<title>Node11&#45;&gt;Node10</title>
<g id="a_edge14_Node000011_Node000010"><a xlink:title=" ">
<path fill="none" stroke="#63b8ff" d="M493.15,-161.96C510.51,-158.07 529.25,-153.88 546.81,-149.94"/>
<polygon fill="#63b8ff" stroke="#63b8ff" points="547.99,-153.27 556.99,-147.66 546.46,-146.43 547.99,-153.27"/>
</a>
</g>
</g>
<!-- Node12&#45;&gt;Node10 -->
<g id="edge16_Node000012_Node000010" class="edge">
<title>Node12&#45;&gt;Node10</title>
<g id="a_edge16_Node000012_Node000010"><a xlink:title=" ">
<path fill="none" stroke="#63b8ff" d="M299.56,-138.98C368.09,-137.91 475.72,-136.23 546.57,-135.12"/>
<polygon fill="#63b8ff" stroke="#63b8ff" points="546.81,-138.61 556.75,-134.96 546.7,-131.62 546.81,-138.61"/>
</a>
</g>
</g>
<!-- Node13&#45;&gt;Node10 -->
<g id="edge18_Node000013_Node000010" class="edge">
<title>Node13&#45;&gt;Node10</title>
<g id="a_edge18_Node000013_Node000010"><a xlink:title=" ">
<path fill="none" stroke="#63b8ff" d="M307.08,-95.08C375.76,-103.68 478.23,-116.51 546.53,-125.06"/>
<polygon fill="#63b8ff" stroke="#63b8ff" points="546.42,-128.57 556.77,-126.34 547.29,-121.62 546.42,-128.57"/>
</a>
</g>
</g>
<!-- Node14&#45;&gt;Node10 -->
<g id="edge20_Node000014_Node000010" class="edge">
<title>Node14&#45;&gt;Node10</title>
<g id="a_edge20_Node000014_Node000010"><a xlink:title=" ">
<path fill="none" stroke="#63b8ff" d="M306.5,-50.88C361.77,-61.35 439.75,-77.4 507,-96 527.23,-101.59 549.16,-108.84 568.14,-115.5"/>
<polygon fill="#63b8ff" stroke="#63b8ff" points="567.18,-118.88 577.77,-118.92 569.52,-112.28 567.18,-118.88"/>
</a>
</g>
</g>
<!-- Node15 -->
<g id="Node000015" class="node">
<title>Node15</title>
<g id="a_Node000015"><a xlink:href="classzero__mate_1_1peripheral_1_1CBSC.html#a47d44cc0056a39f0404e501c4449355a" target="_top" xlink:title="Terminates an ongoing transaction (stop bit).">
<polygon fill="white" stroke="#666666" points="507,-30 343,-30 343,0 507,0 507,-30"/>
<text text-anchor="start" x="351" y="-18" font-family="Helvetica,sans-Serif" font-size="10.00">zero_mate::peripheral</text>
<text text-anchor="middle" x="425" y="-7" font-family="Helvetica,sans-Serif" font-size="10.00">::CBSC::Terminate_Transaction</text>
</a>
</g>
</g>
<!-- Node14&#45;&gt;Node15 -->
<g id="edge21_Node000014_Node000015" class="edge">
<title>Node14&#45;&gt;Node15</title>
<g id="a_edge21_Node000014_Node000015"><a xlink:title=" ">
<path fill="none" stroke="#63b8ff" d="M306.68,-29.24C315.18,-28.21 323.93,-27.15 332.64,-26.09"/>
<polygon fill="#63b8ff" stroke="#63b8ff" points="333.33,-29.53 342.84,-24.85 332.49,-22.58 333.33,-29.53"/>
</a>
</g>
</g>
<!-- Node15&#45;&gt;Node10 -->
<g id="edge22_Node000015_Node000010" class="edge">
<title>Node15&#45;&gt;Node10</title>
<g id="a_edge22_Node000015_Node000010"><a xlink:title=" ">
<path fill="none" stroke="#63b8ff" d="M476.43,-30.07C486.83,-34 497.5,-38.65 507,-44 540.51,-62.85 574.12,-91.86 595.44,-111.82"/>
<polygon fill="#63b8ff" stroke="#63b8ff" points="593.05,-114.38 602.71,-118.73 597.87,-109.3 593.05,-114.38"/>
</a>
</g>
</g>
</g>
</svg>
