<?xml version="1.0" encoding="UTF-8" standalone="no"?>
<!DOCTYPE svg PUBLIC "-//W3C//DTD SVG 1.1//EN"
 "http://www.w3.org/Graphics/SVG/1.1/DTD/svg11.dtd">
<!-- Generated by graphviz version 2.43.0 (0)
 -->
<!-- Title: zero_mate::peripheral::CInterrupt_Controller::Enable_IRQ_Sources Pages: 1 -->
<svg width="699pt" height="137pt"
 viewBox="0.00 0.00 699.00 137.00" xmlns="http://www.w3.org/2000/svg" xmlns:xlink="http://www.w3.org/1999/xlink">
<g id="graph0" class="graph" transform="scale(1 1) rotate(0) translate(4 133)">
<title>zero_mate::peripheral::CInterrupt_Controller::Enable_IRQ_Sources</title>
<!-- Node1 -->
<g id="Node000001" class="node">
<title>Node1</title>
<g id="a_Node000001"><a xlink:title="Enables/disables interrupts from an IRQ source.">
<polygon fill="#999999" stroke="#666666" points="125,-59.5 0,-59.5 0,-18.5 125,-18.5 125,-59.5"/>
<text text-anchor="start" x="8" y="-47.5" font-family="Helvetica,sans-Serif" font-size="10.00">zero_mate::peripheral</text>
<text text-anchor="start" x="8" y="-36.5" font-family="Helvetica,sans-Serif" font-size="10.00">::CInterrupt_Controller</text>
<text text-anchor="middle" x="62.5" y="-25.5" font-family="Helvetica,sans-Serif" font-size="10.00">::Enable_IRQ_Sources</text>
</a>
</g>
</g>
<!-- Node2 -->
<g id="Node000002" class="node">
<title>Node2</title>
<g id="a_Node000002"><a xlink:href="classzero__mate_1_1utils_1_1CLogging__System.html#ade996da881888272ace7deaa82c975e9" target="_top" xlink:title="Logs a debug message via all registered loggers.">
<polygon fill="white" stroke="#666666" points="307,-78 161,-78 161,-48 307,-48 307,-78"/>
<text text-anchor="start" x="169" y="-66" font-family="Helvetica,sans-Serif" font-size="10.00">zero_mate::utils::CLogging</text>
<text text-anchor="middle" x="234" y="-55" font-family="Helvetica,sans-Serif" font-size="10.00">_System::Debug</text>
</a>
</g>
</g>
<!-- Node1&#45;&gt;Node2 -->
<g id="edge1_Node000001_Node000002" class="edge">
<title>Node1&#45;&gt;Node2</title>
<g id="a_edge1_Node000001_Node000002"><a xlink:title=" ">
<path fill="none" stroke="#63b8ff" d="M125.17,-47.73C133.47,-48.91 142.09,-50.13 150.68,-51.34"/>
<polygon fill="#63b8ff" stroke="#63b8ff" points="150.33,-54.83 160.72,-52.77 151.31,-47.9 150.33,-54.83"/>
</a>
</g>
</g>
<!-- Node7 -->
<g id="Node000007" class="node">
<title>Node7</title>
<g id="a_Node000007"><a xlink:href="namespacezero__mate_1_1utils_1_1math.html#af7d93c996dab2ff1b91c5a399dcfe29f" target="_top" xlink:title="Tests whether a bit is set in the given integral variable.">
<polygon fill="white" stroke="#666666" points="297.5,-30 170.5,-30 170.5,0 297.5,0 297.5,-30"/>
<text text-anchor="start" x="178.5" y="-18" font-family="Helvetica,sans-Serif" font-size="10.00">zero_mate::utils::math</text>
<text text-anchor="middle" x="234" y="-7" font-family="Helvetica,sans-Serif" font-size="10.00">::Is_Bit_Set</text>
</a>
</g>
</g>
<!-- Node1&#45;&gt;Node7 -->
<g id="edge6_Node000001_Node000007" class="edge">
<title>Node1&#45;&gt;Node7</title>
<g id="a_edge6_Node000001_Node000007"><a xlink:title=" ">
<path fill="none" stroke="#63b8ff" d="M125.17,-30.27C136.52,-28.66 148.47,-26.97 160.11,-25.32"/>
<polygon fill="#63b8ff" stroke="#63b8ff" points="160.82,-28.75 170.24,-23.89 159.84,-21.82 160.82,-28.75"/>
</a>
</g>
</g>
<!-- Node3 -->
<g id="Node000003" class="node">
<title>Node3</title>
<g id="a_Node000003"><a xlink:href="classzero__mate_1_1utils_1_1CLogging__System.html#a71ed11c796553cbe8fd99773406a1060" target="_top" xlink:title="Creates a formatted message to be logged.">
<polygon fill="white" stroke="#666666" points="495,-110.5 343,-110.5 343,-69.5 495,-69.5 495,-110.5"/>
<text text-anchor="start" x="351" y="-98.5" font-family="Helvetica,sans-Serif" font-size="10.00">zero_mate::utils::CLogging</text>
<text text-anchor="start" x="351" y="-87.5" font-family="Helvetica,sans-Serif" font-size="10.00">_System::Create_Formatted</text>
<text text-anchor="middle" x="419" y="-76.5" font-family="Helvetica,sans-Serif" font-size="10.00">_Log_Msg</text>
</a>
</g>
</g>
<!-- Node2&#45;&gt;Node3 -->
<g id="edge2_Node000002_Node000003" class="edge">
<title>Node2&#45;&gt;Node3</title>
<g id="a_edge2_Node000002_Node000003"><a xlink:title=" ">
<path fill="none" stroke="#63b8ff" d="M307.06,-73.63C315.55,-74.88 324.26,-76.17 332.9,-77.44"/>
<polygon fill="#63b8ff" stroke="#63b8ff" points="332.59,-80.94 342.99,-78.93 333.61,-74.01 332.59,-80.94"/>
</a>
</g>
</g>
<!-- Node6 -->
<g id="Node000006" class="node">
<title>Node6</title>
<g id="a_Node000006"><a xlink:href="classzero__mate_1_1utils_1_1CLogging__System.html#ad371c67ef65763966ccf9291002e86f3" target="_top" xlink:title="Extract the filename from a given location within the source files.">
<polygon fill="white" stroke="#666666" points="493.5,-51 344.5,-51 344.5,-21 493.5,-21 493.5,-51"/>
<text text-anchor="start" x="352.5" y="-39" font-family="Helvetica,sans-Serif" font-size="10.00">zero_mate::utils::CLogging</text>
<text text-anchor="middle" x="419" y="-28" font-family="Helvetica,sans-Serif" font-size="10.00">_System::Extract_Filename</text>
</a>
</g>
</g>
<!-- Node2&#45;&gt;Node6 -->
<g id="edge5_Node000002_Node000006" class="edge">
<title>Node2&#45;&gt;Node6</title>
<g id="a_edge5_Node000002_Node000006"><a xlink:title=" ">
<path fill="none" stroke="#63b8ff" d="M307.06,-52.37C316.1,-51.03 325.4,-49.66 334.59,-48.31"/>
<polygon fill="#63b8ff" stroke="#63b8ff" points="335.12,-51.77 344.5,-46.84 334.1,-44.84 335.12,-51.77"/>
</a>
</g>
</g>
<!-- Node4 -->
<g id="Node000004" class="node">
<title>Node4</title>
<g id="a_Node000004"><a xlink:href="classzero__mate_1_1utils_1_1CLogging__System.html#aa70c102c805079042ffea2a6f2a5ad64" target="_top" xlink:title="Formats a given timestamp.">
<polygon fill="white" stroke="#666666" points="691,-129 531,-129 531,-99 691,-99 691,-129"/>
<text text-anchor="start" x="539" y="-117" font-family="Helvetica,sans-Serif" font-size="10.00">zero_mate::utils::CLogging</text>
<text text-anchor="middle" x="611" y="-106" font-family="Helvetica,sans-Serif" font-size="10.00">_System::Format_Timestamp</text>
</a>
</g>
</g>
<!-- Node3&#45;&gt;Node4 -->
<g id="edge3_Node000003_Node000004" class="edge">
<title>Node3&#45;&gt;Node4</title>
<g id="a_edge3_Node000003_Node000004"><a xlink:title=" ">
<path fill="none" stroke="#63b8ff" d="M495.09,-99.49C503.52,-100.55 512.16,-101.64 520.74,-102.73"/>
<polygon fill="#63b8ff" stroke="#63b8ff" points="520.41,-106.21 530.77,-103.99 521.29,-99.27 520.41,-106.21"/>
</a>
</g>
</g>
<!-- Node5 -->
<g id="Node000005" class="node">
<title>Node5</title>
<g id="a_Node000005"><a xlink:href="classzero__mate_1_1utils_1_1CLogging__System.html#ae3ca637537dde05e0b9119145c840331" target="_top" xlink:title="Returns the current timestamp that will be used in a log message.">
<polygon fill="white" stroke="#666666" points="684,-81 538,-81 538,-51 684,-51 684,-81"/>
<text text-anchor="start" x="546" y="-69" font-family="Helvetica,sans-Serif" font-size="10.00">zero_mate::utils::CLogging</text>
<text text-anchor="middle" x="611" y="-58" font-family="Helvetica,sans-Serif" font-size="10.00">_System::Get_Timestamp</text>
</a>
</g>
</g>
<!-- Node3&#45;&gt;Node5 -->
<g id="edge4_Node000003_Node000005" class="edge">
<title>Node3&#45;&gt;Node5</title>
<g id="a_edge4_Node000003_Node000005"><a xlink:title=" ">
<path fill="none" stroke="#63b8ff" d="M495.09,-80.51C505.89,-79.15 517.05,-77.74 527.98,-76.36"/>
<polygon fill="#63b8ff" stroke="#63b8ff" points="528.45,-79.83 537.93,-75.1 527.57,-72.88 528.45,-79.83"/>
</a>
</g>
</g>
</g>
</svg>
