<?xml version="1.0" encoding="UTF-8" standalone="no"?>
<!DOCTYPE svg PUBLIC "-//W3C//DTD SVG 1.1//EN"
 "http://www.w3.org/Graphics/SVG/1.1/DTD/svg11.dtd">
<!-- Generated by graphviz version 2.43.0 (0)
 -->
<!-- Title: zero_mate::coprocessor::cp10::CCP10 Pages: 1 -->
<svg width="896pt" height="172pt"
 viewBox="0.00 0.00 896.00 172.00" xmlns="http://www.w3.org/2000/svg" xmlns:xlink="http://www.w3.org/1999/xlink">
<g id="graph0" class="graph" transform="scale(1 1) rotate(0) translate(4 168)">
<title>zero_mate::coprocessor::cp10::CCP10</title>
<!-- Node1 -->
<g id="Node000001" class="node">
<title>Node1</title>
<g id="a_Node000001"><a xlink:title="This class represents coprocessor 10 (single&#45;precision FPU).">
<polygon fill="#999999" stroke="#666666" points="888,-102 755,-102 755,-72 888,-72 888,-102"/>
<text text-anchor="start" x="763" y="-90" font-family="Helvetica,sans-Serif" font-size="10.00">zero_mate::coprocessor</text>
<text text-anchor="middle" x="821.5" y="-79" font-family="Helvetica,sans-Serif" font-size="10.00">::cp10::CCP10</text>
</a>
</g>
</g>
<!-- Node2 -->
<g id="Node000002" class="node">
<title>Node2</title>
<g id="a_Node000002"><a xlink:href="classzero__mate_1_1coprocessor_1_1ICoprocessor.html" target="_top" xlink:title="This class represents an interface of a coprocessor.">
<polygon fill="white" stroke="#666666" points="673,-126 540,-126 540,-96 673,-96 673,-126"/>
<text text-anchor="start" x="548" y="-114" font-family="Helvetica,sans-Serif" font-size="10.00">zero_mate::coprocessor</text>
<text text-anchor="middle" x="606.5" y="-103" font-family="Helvetica,sans-Serif" font-size="10.00">::ICoprocessor</text>
</a>
</g>
</g>
<!-- Node2&#45;&gt;Node1 -->
<g id="edge1_Node000001_Node000002" class="edge">
<title>Node2&#45;&gt;Node1</title>
<g id="a_edge1_Node000001_Node000002"><a xlink:title=" ">
<path fill="none" stroke="#63b8ff" d="M683.34,-102.45C706.66,-99.83 732.12,-96.96 754.71,-94.41"/>
<polygon fill="#63b8ff" stroke="#63b8ff" points="682.69,-99.01 673.15,-103.6 683.47,-105.96 682.69,-99.01"/>
</a>
</g>
</g>
<!-- Node3 -->
<g id="Node000003" class="node">
<title>Node3</title>
<g id="a_Node000003"><a xlink:href="classzero__mate_1_1arm1176jzf__s_1_1CCPU__Context.html" target="_top" xlink:title="This class represents the context (registers) of the CPU.">
<polygon fill="white" stroke="#666666" points="408,-126 278,-126 278,-96 408,-96 408,-126"/>
<text text-anchor="start" x="286" y="-114" font-family="Helvetica,sans-Serif" font-size="10.00">zero_mate::arm1176jzf</text>
<text text-anchor="middle" x="343" y="-103" font-family="Helvetica,sans-Serif" font-size="10.00">_s::CCPU_Context</text>
</a>
</g>
</g>
<!-- Node3&#45;&gt;Node2 -->
<g id="edge2_Node000002_Node000003" class="edge">
<title>Node3&#45;&gt;Node2</title>
<g id="a_edge2_Node000002_Node000003"><a xlink:title=" ">
<path fill="none" stroke="#9a32cd" stroke-dasharray="5,2" d="M418.34,-111C456.55,-111 502.71,-111 539.62,-111"/>
<polygon fill="#9a32cd" stroke="#9a32cd" points="418.31,-107.5 408.31,-111 418.3,-114.5 418.31,-107.5"/>
</a>
</g>
<text text-anchor="middle" x="474" y="-114" font-family="Helvetica,sans-Serif" font-size="10.00" fill="grey"> m_cpu_context</text>
</g>
<!-- Node4 -->
<g id="Node000004" class="node">
<title>Node4</title>
<g id="a_Node000004"><a xlink:href="classzero__mate_1_1utils_1_1CLogging__System.html" target="_top" xlink:title="This class defines a logging system that is used throughout the project.">
<polygon fill="white" stroke="#666666" points="146,-148 0,-148 0,-118 146,-118 146,-148"/>
<text text-anchor="start" x="8" y="-136" font-family="Helvetica,sans-Serif" font-size="10.00">zero_mate::utils::CLogging</text>
<text text-anchor="middle" x="73" y="-125" font-family="Helvetica,sans-Serif" font-size="10.00">_System</text>
</a>
</g>
</g>
<!-- Node4&#45;&gt;Node1 -->
<g id="edge6_Node000001_Node000004" class="edge">
<title>Node4&#45;&gt;Node1</title>
<g id="a_edge6_Node000001_Node000004"><a xlink:title=" ">
<path fill="none" stroke="#9a32cd" stroke-dasharray="5,2" d="M156.3,-141.85C272.4,-152.4 490.48,-165.09 673,-135 712.19,-128.54 755.19,-113.59 784.59,-102.08"/>
<polygon fill="#9a32cd" stroke="#9a32cd" points="156.35,-138.34 146.07,-140.9 155.71,-145.31 156.35,-138.34"/>
</a>
</g>
<text text-anchor="middle" x="474" y="-156" font-family="Helvetica,sans-Serif" font-size="10.00" fill="grey"> m_logging_system</text>
</g>
<!-- Node4&#45;&gt;Node3 -->
<g id="edge3_Node000003_Node000004" class="edge">
<title>Node4&#45;&gt;Node3</title>
<g id="a_edge3_Node000003_Node000004"><a xlink:title=" ">
<path fill="none" stroke="#9a32cd" stroke-dasharray="5,2" d="M156.47,-126.23C195.55,-123.02 241.52,-119.25 277.93,-116.26"/>
<polygon fill="#9a32cd" stroke="#9a32cd" points="155.85,-122.77 146.17,-127.08 156.42,-129.75 155.85,-122.77"/>
</a>
</g>
<text text-anchor="middle" x="212" y="-128" font-family="Helvetica,sans-Serif" font-size="10.00" fill="grey"> m_logging_system</text>
</g>
<!-- Node5 -->
<g id="Node000005" class="node">
<title>Node5</title>
<g id="a_Node000005"><a xlink:href="classzero__mate_1_1coprocessor_1_1cp10_1_1CFPEXC.html" target="_top" xlink:title="This class represents the FPEXC register of CP10.">
<polygon fill="white" stroke="#666666" points="673,-78 540,-78 540,-48 673,-48 673,-78"/>
<text text-anchor="start" x="548" y="-66" font-family="Helvetica,sans-Serif" font-size="10.00">zero_mate::coprocessor</text>
<text text-anchor="middle" x="606.5" y="-55" font-family="Helvetica,sans-Serif" font-size="10.00">::cp10::CFPEXC</text>
</a>
</g>
</g>
<!-- Node5&#45;&gt;Node1 -->
<g id="edge4_Node000001_Node000005" class="edge">
<title>Node5&#45;&gt;Node1</title>
<g id="a_edge4_Node000001_Node000005"><a xlink:title=" ">
<path fill="none" stroke="#9a32cd" stroke-dasharray="5,2" d="M683.34,-71.55C706.66,-74.17 732.12,-77.04 754.71,-79.59"/>
<polygon fill="#9a32cd" stroke="#9a32cd" points="683.47,-68.04 673.15,-70.4 682.69,-74.99 683.47,-68.04"/>
</a>
</g>
<text text-anchor="middle" x="714" y="-81" font-family="Helvetica,sans-Serif" font-size="10.00" fill="grey"> m_fpexc</text>
</g>
<!-- Node6 -->
<g id="Node000006" class="node">
<title>Node6</title>
<g id="a_Node000006"><a xlink:href="classzero__mate_1_1coprocessor_1_1cp10_1_1CFPSCR.html" target="_top" xlink:title="This class represents the FPSCR register of CP10.">
<polygon fill="white" stroke="#666666" points="673,-30 540,-30 540,0 673,0 673,-30"/>
<text text-anchor="start" x="548" y="-18" font-family="Helvetica,sans-Serif" font-size="10.00">zero_mate::coprocessor</text>
<text text-anchor="middle" x="606.5" y="-7" font-family="Helvetica,sans-Serif" font-size="10.00">::cp10::CFPSCR</text>
</a>
</g>
</g>
<!-- Node6&#45;&gt;Node1 -->
<g id="edge5_Node000001_Node000006" class="edge">
<title>Node6&#45;&gt;Node1</title>
<g id="a_edge5_Node000001_Node000006"><a xlink:title=" ">
<path fill="none" stroke="#9a32cd" stroke-dasharray="5,2" d="M662.97,-33.23C685.91,-40.82 712.76,-49.77 737,-58 750.22,-62.49 764.6,-67.45 777.63,-71.99"/>
<polygon fill="#9a32cd" stroke="#9a32cd" points="663.99,-29.89 653.4,-30.07 661.8,-36.53 663.99,-29.89"/>
</a>
</g>
<text text-anchor="middle" x="714" y="-61" font-family="Helvetica,sans-Serif" font-size="10.00" fill="grey"> m_fpscr</text>
</g>
</g>
</svg>
