<?xml version="1.0" encoding="UTF-8" standalone="no"?>
<!DOCTYPE svg PUBLIC "-//W3C//DTD SVG 1.1//EN"
 "http://www.w3.org/Graphics/SVG/1.1/DTD/svg11.dtd">
<!-- Generated by graphviz version 2.43.0 (0)
 -->
<!-- Title: zero_mate::arm1176jzf_s::CCPU_Core::Execute Pages: 1 -->
<svg width="906pt" height="328pt"
 viewBox="0.00 0.00 906.00 327.50" xmlns="http://www.w3.org/2000/svg" xmlns:xlink="http://www.w3.org/1999/xlink">
<g id="graph0" class="graph" transform="scale(1 1) rotate(0) translate(4 323.5)">
<title>zero_mate::arm1176jzf_s::CCPU_Core::Execute</title>
<!-- Node1 -->
<g id="Node000001" class="node">
<title>Node1</title>
<g id="a_Node000001"><a xlink:title="Executes a CPS instruction.">
<polygon fill="#999999" stroke="#666666" points="132,-167.5 0,-167.5 0,-137.5 132,-137.5 132,-167.5"/>
<text text-anchor="start" x="8" y="-155.5" font-family="Helvetica,sans-Serif" font-size="10.00">zero_mate::arm1176jzf</text>
<text text-anchor="middle" x="66" y="-144.5" font-family="Helvetica,sans-Serif" font-size="10.00">_s::CCPU_Core::Execute</text>
</a>
</g>
</g>
<!-- Node2 -->
<g id="Node000002" class="node">
<title>Node2</title>
<g id="a_Node000002"><a xlink:href="classzero__mate_1_1utils_1_1CLogging__System.html#a57ed77e1a5cf822cea532cc5e05c3f60" target="_top" xlink:title="Logs an error message via all registered loggers.">
<polygon fill="white" stroke="#666666" points="511,-268.5 365,-268.5 365,-238.5 511,-238.5 511,-268.5"/>
<text text-anchor="start" x="373" y="-256.5" font-family="Helvetica,sans-Serif" font-size="10.00">zero_mate::utils::CLogging</text>
<text text-anchor="middle" x="438" y="-245.5" font-family="Helvetica,sans-Serif" font-size="10.00">_System::Error</text>
</a>
</g>
</g>
<!-- Node1&#45;&gt;Node2 -->
<g id="edge1_Node000001_Node000002" class="edge">
<title>Node1&#45;&gt;Node2</title>
<g id="a_edge1_Node000001_Node000002"><a xlink:title=" ">
<path fill="none" stroke="#63b8ff" d="M81.81,-167.69C100.18,-185.46 133.35,-214.16 168,-227.5 227.64,-250.47 299.98,-256.35 354.61,-256.83"/>
<polygon fill="#63b8ff" stroke="#63b8ff" points="354.94,-260.33 364.95,-256.86 354.96,-253.33 354.94,-260.33"/>
</a>
</g>
</g>
<!-- Node7 -->
<g id="Node000007" class="node">
<title>Node7</title>
<g id="a_Node000007"><a xlink:href="classzero__mate_1_1arm1176jzf__s_1_1CCPU__Context.html#acf66c6ff905975912dbf52133ddfeceb" target="_top" xlink:title="Returns a reference the CPSR register of the current CPU mode.">
<polygon fill="white" stroke="#666666" points="326,-92.5 168,-92.5 168,-62.5 326,-62.5 326,-92.5"/>
<text text-anchor="start" x="176" y="-80.5" font-family="Helvetica,sans-Serif" font-size="10.00">zero_mate::arm1176jzf</text>
<text text-anchor="middle" x="247" y="-69.5" font-family="Helvetica,sans-Serif" font-size="10.00">_s::CCPU_Context::Get_CPSR</text>
</a>
</g>
</g>
<!-- Node1&#45;&gt;Node7 -->
<g id="edge6_Node000001_Node000007" class="edge">
<title>Node1&#45;&gt;Node7</title>
<g id="a_edge6_Node000001_Node000007"><a xlink:title=" ">
<path fill="none" stroke="#63b8ff" d="M93.86,-137.37C113.88,-126.48 142.13,-111.93 168,-101.5 172.8,-99.56 177.83,-97.69 182.91,-95.9"/>
<polygon fill="#63b8ff" stroke="#63b8ff" points="184.37,-99.1 192.71,-92.58 182.12,-92.48 184.37,-99.1"/>
</a>
</g>
</g>
<!-- Node8 -->
<g id="Node000008" class="node">
<title>Node8</title>
<g id="a_Node000008"><a xlink:href="classzero__mate_1_1arm1176jzf__s_1_1CCPU__Context.html#aa740f9219bb413d707ac72f373e60d3a" target="_top" xlink:title="Returns the current mode of the CPU.">
<polygon fill="white" stroke="#666666" points="503,-208 373,-208 373,-167 503,-167 503,-208"/>
<text text-anchor="start" x="381" y="-196" font-family="Helvetica,sans-Serif" font-size="10.00">zero_mate::arm1176jzf</text>
<text text-anchor="start" x="381" y="-185" font-family="Helvetica,sans-Serif" font-size="10.00">_s::CCPU_Context::Get</text>
<text text-anchor="middle" x="438" y="-174" font-family="Helvetica,sans-Serif" font-size="10.00">_CPU_Mode</text>
</a>
</g>
</g>
<!-- Node1&#45;&gt;Node8 -->
<g id="edge7_Node000001_Node000008" class="edge">
<title>Node1&#45;&gt;Node8</title>
<g id="a_edge7_Node000001_Node000008"><a xlink:title=" ">
<path fill="none" stroke="#63b8ff" d="M86.54,-167.61C105.97,-181.6 137.23,-201.42 168,-209.5 232.42,-226.42 308.24,-217.77 362.94,-206.72"/>
<polygon fill="#63b8ff" stroke="#63b8ff" points="363.83,-210.11 372.9,-204.64 362.39,-203.26 363.83,-210.11"/>
</a>
</g>
</g>
<!-- Node9 -->
<g id="Node000009" class="node">
<title>Node9</title>
<g id="a_Node000009"><a xlink:href="classzero__mate_1_1arm1176jzf__s_1_1CCPU__Context.html#a573470217091c27cf30f1411ea453e5d" target="_top" xlink:title="Checks if the CPU is in a privileged mode.">
<polygon fill="white" stroke="#666666" points="312,-200 182,-200 182,-159 312,-159 312,-200"/>
<text text-anchor="start" x="190" y="-188" font-family="Helvetica,sans-Serif" font-size="10.00">zero_mate::arm1176jzf</text>
<text text-anchor="start" x="190" y="-177" font-family="Helvetica,sans-Serif" font-size="10.00">_s::CCPU_Context::Is</text>
<text text-anchor="middle" x="247" y="-166" font-family="Helvetica,sans-Serif" font-size="10.00">_In_Privileged_Mode</text>
</a>
</g>
</g>
<!-- Node1&#45;&gt;Node9 -->
<g id="edge8_Node000001_Node000009" class="edge">
<title>Node1&#45;&gt;Node9</title>
<g id="a_edge8_Node000001_Node000009"><a xlink:title=" ">
<path fill="none" stroke="#63b8ff" d="M132.13,-162.32C145.03,-164.27 158.67,-166.33 171.85,-168.32"/>
<polygon fill="#63b8ff" stroke="#63b8ff" points="171.41,-171.79 181.82,-169.82 172.45,-164.87 171.41,-171.79"/>
</a>
</g>
</g>
<!-- Node10 -->
<g id="Node000010" class="node">
<title>Node10</title>
<g id="a_Node000010"><a xlink:href="classzero__mate_1_1arm1176jzf__s_1_1CCPU__Context.html#a53765299c790cc790e15deb2c701bd2a" target="_top" xlink:title="Sets a new value to the CPSR register.">
<polygon fill="white" stroke="#666666" points="325,-140.5 169,-140.5 169,-110.5 325,-110.5 325,-140.5"/>
<text text-anchor="start" x="177" y="-128.5" font-family="Helvetica,sans-Serif" font-size="10.00">zero_mate::arm1176jzf</text>
<text text-anchor="middle" x="247" y="-117.5" font-family="Helvetica,sans-Serif" font-size="10.00">_s::CCPU_Context::Set_CPSR</text>
</a>
</g>
</g>
<!-- Node1&#45;&gt;Node10 -->
<g id="edge10_Node000001_Node000010" class="edge">
<title>Node1&#45;&gt;Node10</title>
<g id="a_edge10_Node000001_Node000010"><a xlink:title=" ">
<path fill="none" stroke="#63b8ff" d="M132.13,-142.68C140.77,-141.37 149.74,-140.02 158.69,-138.67"/>
<polygon fill="#63b8ff" stroke="#63b8ff" points="159.38,-142.1 168.75,-137.15 158.34,-135.18 159.38,-142.1"/>
</a>
</g>
</g>
<!-- Node13 -->
<g id="Node000013" class="node">
<title>Node13</title>
<g id="a_Node000013"><a xlink:href="classzero__mate_1_1arm1176jzf__s_1_1CCPU__Core.html#a568509274f1d8ed69a2b263a7a0ec00f" target="_top" xlink:title="Sets interrupt mask bits (A, I, and F) in the given value that is treated as the new value of the CPS...">
<polygon fill="white" stroke="#666666" points="325.5,-41 168.5,-41 168.5,0 325.5,0 325.5,-41"/>
<text text-anchor="start" x="176.5" y="-29" font-family="Helvetica,sans-Serif" font-size="10.00">zero_mate::arm1176jzf</text>
<text text-anchor="start" x="176.5" y="-18" font-family="Helvetica,sans-Serif" font-size="10.00">_s::CCPU_Core::Set_Interrupt</text>
<text text-anchor="middle" x="247" y="-7" font-family="Helvetica,sans-Serif" font-size="10.00">_Mask_Bits</text>
</a>
</g>
</g>
<!-- Node1&#45;&gt;Node13 -->
<g id="edge15_Node000001_Node000013" class="edge">
<title>Node1&#45;&gt;Node13</title>
<g id="a_edge15_Node000001_Node000013"><a xlink:title=" ">
<path fill="none" stroke="#63b8ff" d="M79.29,-137.28C97.01,-116.13 131.63,-77.74 168,-53.5 172.07,-50.79 176.4,-48.23 180.85,-45.82"/>
<polygon fill="#63b8ff" stroke="#63b8ff" points="182.79,-48.75 190.11,-41.09 179.61,-42.52 182.79,-48.75"/>
</a>
</g>
</g>
<!-- Node3 -->
<g id="Node000003" class="node">
<title>Node3</title>
<g id="a_Node000003"><a xlink:href="classzero__mate_1_1utils_1_1CLogging__System.html#a71ed11c796553cbe8fd99773406a1060" target="_top" xlink:title="Creates a formatted message to be logged.">
<polygon fill="white" stroke="#666666" points="702,-301 550,-301 550,-260 702,-260 702,-301"/>
<text text-anchor="start" x="558" y="-289" font-family="Helvetica,sans-Serif" font-size="10.00">zero_mate::utils::CLogging</text>
<text text-anchor="start" x="558" y="-278" font-family="Helvetica,sans-Serif" font-size="10.00">_System::Create_Formatted</text>
<text text-anchor="middle" x="626" y="-267" font-family="Helvetica,sans-Serif" font-size="10.00">_Log_Msg</text>
</a>
</g>
</g>
<!-- Node2&#45;&gt;Node3 -->
<g id="edge2_Node000002_Node000003" class="edge">
<title>Node2&#45;&gt;Node3</title>
<g id="a_edge2_Node000002_Node000003"><a xlink:title=" ">
<path fill="none" stroke="#63b8ff" d="M511.18,-263.98C520.58,-265.34 530.27,-266.75 539.86,-268.14"/>
<polygon fill="#63b8ff" stroke="#63b8ff" points="539.39,-271.61 549.79,-269.58 540.4,-264.68 539.39,-271.61"/>
</a>
</g>
</g>
<!-- Node6 -->
<g id="Node000006" class="node">
<title>Node6</title>
<g id="a_Node000006"><a xlink:href="classzero__mate_1_1utils_1_1CLogging__System.html#ad371c67ef65763966ccf9291002e86f3" target="_top" xlink:title="Extract the filename from a given location within the source files.">
<polygon fill="white" stroke="#666666" points="700.5,-241.5 551.5,-241.5 551.5,-211.5 700.5,-211.5 700.5,-241.5"/>
<text text-anchor="start" x="559.5" y="-229.5" font-family="Helvetica,sans-Serif" font-size="10.00">zero_mate::utils::CLogging</text>
<text text-anchor="middle" x="626" y="-218.5" font-family="Helvetica,sans-Serif" font-size="10.00">_System::Extract_Filename</text>
</a>
</g>
</g>
<!-- Node2&#45;&gt;Node6 -->
<g id="edge5_Node000002_Node000006" class="edge">
<title>Node2&#45;&gt;Node6</title>
<g id="a_edge5_Node000002_Node000006"><a xlink:title=" ">
<path fill="none" stroke="#63b8ff" d="M511.18,-243.02C521.06,-241.59 531.27,-240.11 541.33,-238.65"/>
<polygon fill="#63b8ff" stroke="#63b8ff" points="541.93,-242.09 551.33,-237.19 540.93,-235.17 541.93,-242.09"/>
</a>
</g>
</g>
<!-- Node4 -->
<g id="Node000004" class="node">
<title>Node4</title>
<g id="a_Node000004"><a xlink:href="classzero__mate_1_1utils_1_1CLogging__System.html#aa70c102c805079042ffea2a6f2a5ad64" target="_top" xlink:title="Formats a given timestamp.">
<polygon fill="white" stroke="#666666" points="898,-319.5 738,-319.5 738,-289.5 898,-289.5 898,-319.5"/>
<text text-anchor="start" x="746" y="-307.5" font-family="Helvetica,sans-Serif" font-size="10.00">zero_mate::utils::CLogging</text>
<text text-anchor="middle" x="818" y="-296.5" font-family="Helvetica,sans-Serif" font-size="10.00">_System::Format_Timestamp</text>
</a>
</g>
</g>
<!-- Node3&#45;&gt;Node4 -->
<g id="edge3_Node000003_Node000004" class="edge">
<title>Node3&#45;&gt;Node4</title>
<g id="a_edge3_Node000003_Node000004"><a xlink:title=" ">
<path fill="none" stroke="#63b8ff" d="M702.09,-289.99C710.52,-291.05 719.16,-292.14 727.74,-293.23"/>
<polygon fill="#63b8ff" stroke="#63b8ff" points="727.41,-296.71 737.77,-294.49 728.29,-289.77 727.41,-296.71"/>
</a>
</g>
</g>
<!-- Node5 -->
<g id="Node000005" class="node">
<title>Node5</title>
<g id="a_Node000005"><a xlink:href="classzero__mate_1_1utils_1_1CLogging__System.html#ae3ca637537dde05e0b9119145c840331" target="_top" xlink:title="Returns the current timestamp that will be used in a log message.">
<polygon fill="white" stroke="#666666" points="891,-271.5 745,-271.5 745,-241.5 891,-241.5 891,-271.5"/>
<text text-anchor="start" x="753" y="-259.5" font-family="Helvetica,sans-Serif" font-size="10.00">zero_mate::utils::CLogging</text>
<text text-anchor="middle" x="818" y="-248.5" font-family="Helvetica,sans-Serif" font-size="10.00">_System::Get_Timestamp</text>
</a>
</g>
</g>
<!-- Node3&#45;&gt;Node5 -->
<g id="edge4_Node000003_Node000005" class="edge">
<title>Node3&#45;&gt;Node5</title>
<g id="a_edge4_Node000003_Node000005"><a xlink:title=" ">
<path fill="none" stroke="#63b8ff" d="M702.09,-271.01C712.89,-269.65 724.05,-268.24 734.98,-266.86"/>
<polygon fill="#63b8ff" stroke="#63b8ff" points="735.45,-270.33 744.93,-265.6 734.57,-263.38 735.45,-270.33"/>
</a>
</g>
</g>
<!-- Node9&#45;&gt;Node8 -->
<g id="edge9_Node000009_Node000008" class="edge">
<title>Node9&#45;&gt;Node8</title>
<g id="a_edge9_Node000009_Node000008"><a xlink:title=" ">
<path fill="none" stroke="#63b8ff" d="M312.25,-182.22C328.47,-182.91 346.01,-183.65 362.68,-184.35"/>
<polygon fill="#63b8ff" stroke="#63b8ff" points="362.79,-187.86 372.93,-184.79 363.08,-180.87 362.79,-187.86"/>
</a>
</g>
</g>
<!-- Node10&#45;&gt;Node2 -->
<g id="edge11_Node000010_Node000002" class="edge">
<title>Node10&#45;&gt;Node2</title>
<g id="a_edge11_Node000010_Node000002"><a xlink:title=" ">
<path fill="none" stroke="#63b8ff" d="M312.33,-140.6C317.22,-143.13 321.85,-146.07 326,-149.5 352.35,-171.3 337.35,-193.8 362,-217.5 368.58,-223.82 376.47,-229.22 384.64,-233.75"/>
<polygon fill="#63b8ff" stroke="#63b8ff" points="383.06,-236.88 393.55,-238.35 386.26,-230.66 383.06,-236.88"/>
</a>
</g>
</g>
<!-- Node10&#45;&gt;Node8 -->
<g id="edge12_Node000010_Node000008" class="edge">
<title>Node10&#45;&gt;Node8</title>
<g id="a_edge12_Node000010_Node000008"><a xlink:title=" ">
<path fill="none" stroke="#63b8ff" d="M297.59,-140.5C307.04,-143.43 316.84,-146.52 326,-149.5 339.77,-153.97 354.46,-158.9 368.48,-163.67"/>
<polygon fill="#63b8ff" stroke="#63b8ff" points="367.47,-167.02 378.07,-166.94 369.74,-160.4 367.47,-167.02"/>
</a>
</g>
</g>
<!-- Node11 -->
<g id="Node000011" class="node">
<title>Node11</title>
<g id="a_Node000011"><a xlink:href="classzero__mate_1_1arm1176jzf__s_1_1CCPU__Context.html#aa53dae8f0dd16d916a852e572dfa95ba" target="_top" xlink:title="Checks if there is an invalid attempt to change the control bits of the CPSR register.">
<polygon fill="white" stroke="#666666" points="509.5,-90 366.5,-90 366.5,-49 509.5,-49 509.5,-90"/>
<text text-anchor="start" x="374.5" y="-78" font-family="Helvetica,sans-Serif" font-size="10.00">zero_mate::arm1176jzf</text>
<text text-anchor="start" x="374.5" y="-67" font-family="Helvetica,sans-Serif" font-size="10.00">_s::CCPU_Context::Invalid</text>
<text text-anchor="middle" x="438" y="-56" font-family="Helvetica,sans-Serif" font-size="10.00">_Change_Of_Control_Bits</text>
</a>
</g>
</g>
<!-- Node10&#45;&gt;Node11 -->
<g id="edge13_Node000010_Node000011" class="edge">
<title>Node10&#45;&gt;Node11</title>
<g id="a_edge13_Node000010_Node000011"><a xlink:title=" ">
<path fill="none" stroke="#63b8ff" d="M298.65,-110.49C316.88,-105.09 337.91,-98.86 357.98,-92.91"/>
<polygon fill="#63b8ff" stroke="#63b8ff" points="359.14,-96.22 367.73,-90.02 357.15,-89.51 359.14,-96.22"/>
</a>
</g>
</g>
<!-- Node12 -->
<g id="Node000012" class="node">
<title>Node12</title>
<g id="a_Node000012"><a xlink:href="classzero__mate_1_1arm1176jzf__s_1_1CCPU__Context.html#a7efff674f8141eab73cb69099220f0d5" target="_top" xlink:title="Sets the mode of the CPU.">
<polygon fill="white" stroke="#666666" points="503,-149 373,-149 373,-108 503,-108 503,-149"/>
<text text-anchor="start" x="381" y="-137" font-family="Helvetica,sans-Serif" font-size="10.00">zero_mate::arm1176jzf</text>
<text text-anchor="start" x="381" y="-126" font-family="Helvetica,sans-Serif" font-size="10.00">_s::CCPU_Context::Set</text>
<text text-anchor="middle" x="438" y="-115" font-family="Helvetica,sans-Serif" font-size="10.00">_CPU_Mode</text>
</a>
</g>
</g>
<!-- Node10&#45;&gt;Node12 -->
<g id="edge14_Node000010_Node000012" class="edge">
<title>Node10&#45;&gt;Node12</title>
<g id="a_edge14_Node000010_Node000012"><a xlink:title=" ">
<path fill="none" stroke="#63b8ff" d="M325.15,-126.72C337.51,-126.92 350.28,-127.12 362.57,-127.32"/>
<polygon fill="#63b8ff" stroke="#63b8ff" points="362.71,-130.82 372.77,-127.48 362.83,-123.82 362.71,-130.82"/>
</a>
</g>
</g>
<!-- Node14 -->
<g id="Node000014" class="node">
<title>Node14</title>
<g id="a_Node000014"><a xlink:href="classzero__mate_1_1arm1176jzf__s_1_1CCPU__Context.html#a984bace2773aca71cf04701aa0ce9c54" target="_top" xlink:title="Sets/resets a flag in the CPSR register of the current CPU mode.">
<polygon fill="white" stroke="#666666" points="514,-30.5 362,-30.5 362,-0.5 514,-0.5 514,-30.5"/>
<text text-anchor="start" x="370" y="-18.5" font-family="Helvetica,sans-Serif" font-size="10.00">zero_mate::arm1176jzf</text>
<text text-anchor="middle" x="438" y="-7.5" font-family="Helvetica,sans-Serif" font-size="10.00">_s::CCPU_Context::Set_Flag</text>
</a>
</g>
</g>
<!-- Node13&#45;&gt;Node14 -->
<g id="edge16_Node000013_Node000014" class="edge">
<title>Node13&#45;&gt;Node14</title>
<g id="a_edge16_Node000013_Node000014"><a xlink:title=" ">
<path fill="none" stroke="#63b8ff" d="M325.69,-18.44C334.25,-18.22 343.01,-17.99 351.65,-17.76"/>
<polygon fill="#63b8ff" stroke="#63b8ff" points="351.84,-21.25 361.74,-17.49 351.65,-14.26 351.84,-21.25"/>
</a>
</g>
</g>
</g>
</svg>
