<?xml version="1.0" encoding="UTF-8" standalone="no"?>
<!DOCTYPE svg PUBLIC "-//W3C//DTD SVG 1.1//EN"
 "http://www.w3.org/Graphics/SVG/1.1/DTD/svg11.dtd">
<!-- Generated by graphviz version 2.43.0 (0)
 -->
<!-- Title: zero_mate::peripheral::CMini_UART::Update_TX Pages: 1 -->
<svg width="1281pt" height="356pt"
 viewBox="0.00 0.00 1281.00 355.50" xmlns="http://www.w3.org/2000/svg" xmlns:xlink="http://www.w3.org/1999/xlink">
<g id="graph0" class="graph" transform="scale(1 1) rotate(0) translate(4 351.5)">
<title>zero_mate::peripheral::CMini_UART::Update_TX</title>
<!-- Node1 -->
<g id="Node000001" class="node">
<title>Node1</title>
<g id="a_Node000001"><a xlink:title="Updates the transmission state machine.">
<polygon fill="#999999" stroke="#666666" points="140,-194 0,-194 0,-164 140,-164 140,-194"/>
<text text-anchor="start" x="8" y="-182" font-family="Helvetica,sans-Serif" font-size="10.00">zero_mate::peripheral</text>
<text text-anchor="middle" x="70" y="-171" font-family="Helvetica,sans-Serif" font-size="10.00">::CMini_UART::Update_TX</text>
</a>
</g>
</g>
<!-- Node2 -->
<g id="Node000002" class="node">
<title>Node2</title>
<g id="a_Node000002"><a xlink:href="classzero__mate_1_1peripheral_1_1CMini__UART.html#a2786f867a05087fc463657262594db71" target="_top" xlink:title="Returns information about whether the transmission FIFO is empty or not.">
<polygon fill="white" stroke="#666666" points="340,-347.5 176,-347.5 176,-306.5 340,-306.5 340,-347.5"/>
<text text-anchor="start" x="184" y="-335.5" font-family="Helvetica,sans-Serif" font-size="10.00">zero_mate::peripheral</text>
<text text-anchor="start" x="184" y="-324.5" font-family="Helvetica,sans-Serif" font-size="10.00">::CMini_UART::Is_Transmission</text>
<text text-anchor="middle" x="258" y="-313.5" font-family="Helvetica,sans-Serif" font-size="10.00">_FIFO_Empty</text>
</a>
</g>
</g>
<!-- Node1&#45;&gt;Node2 -->
<g id="edge1_Node000001_Node000002" class="edge">
<title>Node1&#45;&gt;Node2</title>
<g id="a_edge1_Node000001_Node000002"><a xlink:title=" ">
<path fill="none" stroke="#63b8ff" d="M80.74,-194.38C97.37,-219.45 133.58,-269.24 176,-298 177.86,-299.26 179.78,-300.47 181.74,-301.64"/>
<polygon fill="#63b8ff" stroke="#63b8ff" points="180.17,-304.76 190.63,-306.45 183.5,-298.61 180.17,-304.76"/>
</a>
</g>
</g>
<!-- Node3 -->
<g id="Node000003" class="node">
<title>Node3</title>
<g id="a_Node000003"><a xlink:href="classzero__mate_1_1peripheral_1_1CMini__UART.html#a968340fbf2802af5178531146bca03c8" target="_top" xlink:title="Returns information about whether the transmitter is enabled or not.">
<polygon fill="white" stroke="#666666" points="336,-288.5 180,-288.5 180,-247.5 336,-247.5 336,-288.5"/>
<text text-anchor="start" x="188" y="-276.5" font-family="Helvetica,sans-Serif" font-size="10.00">zero_mate::peripheral</text>
<text text-anchor="start" x="188" y="-265.5" font-family="Helvetica,sans-Serif" font-size="10.00">::CMini_UART::Is_Transmitter</text>
<text text-anchor="middle" x="258" y="-254.5" font-family="Helvetica,sans-Serif" font-size="10.00">_Enabled</text>
</a>
</g>
</g>
<!-- Node1&#45;&gt;Node3 -->
<g id="edge2_Node000001_Node000003" class="edge">
<title>Node1&#45;&gt;Node3</title>
<g id="a_edge2_Node000001_Node000003"><a xlink:title=" ">
<path fill="none" stroke="#63b8ff" d="M94.55,-194.05C115.43,-207 147.01,-225.65 176,-239 179.39,-240.56 182.89,-242.09 186.44,-243.58"/>
<polygon fill="#63b8ff" stroke="#63b8ff" points="185.36,-246.92 195.94,-247.44 187.99,-240.44 185.36,-246.92"/>
</a>
</g>
</g>
<!-- Node4 -->
<g id="Node000004" class="node">
<title>Node4</title>
<g id="a_Node000004"><a xlink:href="classzero__mate_1_1peripheral_1_1CMini__UART.html#af791add34c2efc17007de9d20185b24d" target="_top" xlink:title="Resets transmission (end of the current UART frame).">
<polygon fill="white" stroke="#666666" points="331,-229.5 185,-229.5 185,-188.5 331,-188.5 331,-229.5"/>
<text text-anchor="start" x="193" y="-217.5" font-family="Helvetica,sans-Serif" font-size="10.00">zero_mate::peripheral</text>
<text text-anchor="start" x="193" y="-206.5" font-family="Helvetica,sans-Serif" font-size="10.00">::CMini_UART::UART_Reset</text>
<text text-anchor="middle" x="258" y="-195.5" font-family="Helvetica,sans-Serif" font-size="10.00">_Transmission</text>
</a>
</g>
</g>
<!-- Node1&#45;&gt;Node4 -->
<g id="edge3_Node000001_Node000004" class="edge">
<title>Node1&#45;&gt;Node4</title>
<g id="a_edge3_Node000001_Node000004"><a xlink:title=" ">
<path fill="none" stroke="#63b8ff" d="M140.26,-190.17C151.52,-191.99 163.29,-193.88 174.82,-195.75"/>
<polygon fill="#63b8ff" stroke="#63b8ff" points="174.45,-199.23 184.88,-197.37 175.57,-192.32 174.45,-199.23"/>
</a>
</g>
</g>
<!-- Node8 -->
<g id="Node000008" class="node">
<title>Node8</title>
<g id="a_Node000008"><a xlink:href="classzero__mate_1_1peripheral_1_1CMini__UART.html#a2c1cebe25a3de866fb30387c9d3e1093" target="_top" xlink:title="Sends another bit of the current payload (actual data).">
<polygon fill="white" stroke="#666666" points="329.5,-170.5 186.5,-170.5 186.5,-129.5 329.5,-129.5 329.5,-170.5"/>
<text text-anchor="start" x="194.5" y="-158.5" font-family="Helvetica,sans-Serif" font-size="10.00">zero_mate::peripheral</text>
<text text-anchor="start" x="194.5" y="-147.5" font-family="Helvetica,sans-Serif" font-size="10.00">::CMini_UART::UART_Send</text>
<text text-anchor="middle" x="258" y="-136.5" font-family="Helvetica,sans-Serif" font-size="10.00">_Payload</text>
</a>
</g>
</g>
<!-- Node1&#45;&gt;Node8 -->
<g id="edge7_Node000001_Node000008" class="edge">
<title>Node1&#45;&gt;Node8</title>
<g id="a_edge7_Node000001_Node000008"><a xlink:title=" ">
<path fill="none" stroke="#63b8ff" d="M140.26,-168.2C152.04,-166.36 164.37,-164.44 176.41,-162.57"/>
<polygon fill="#63b8ff" stroke="#63b8ff" points="177.1,-166 186.44,-161 176.02,-159.08 177.1,-166"/>
</a>
</g>
</g>
<!-- Node18 -->
<g id="Node000018" class="node">
<title>Node18</title>
<g id="a_Node000018"><a xlink:href="classzero__mate_1_1peripheral_1_1CMini__UART.html#a8af3940e255317e7282402dce11c2d33" target="_top" xlink:title="Sends a start bit.">
<polygon fill="white" stroke="#666666" points="329.5,-111.5 186.5,-111.5 186.5,-70.5 329.5,-70.5 329.5,-111.5"/>
<text text-anchor="start" x="194.5" y="-99.5" font-family="Helvetica,sans-Serif" font-size="10.00">zero_mate::peripheral</text>
<text text-anchor="start" x="194.5" y="-88.5" font-family="Helvetica,sans-Serif" font-size="10.00">::CMini_UART::UART_Send</text>
<text text-anchor="middle" x="258" y="-77.5" font-family="Helvetica,sans-Serif" font-size="10.00">_Start_Bit</text>
</a>
</g>
</g>
<!-- Node1&#45;&gt;Node18 -->
<g id="edge17_Node000001_Node000018" class="edge">
<title>Node1&#45;&gt;Node18</title>
<g id="a_edge17_Node000001_Node000018"><a xlink:title=" ">
<path fill="none" stroke="#63b8ff" d="M95.91,-163.85C116.85,-151.45 147.79,-133.93 176,-121 180.1,-119.12 184.35,-117.27 188.67,-115.47"/>
<polygon fill="#63b8ff" stroke="#63b8ff" points="190.23,-118.61 198.17,-111.6 187.59,-112.13 190.23,-118.61"/>
</a>
</g>
</g>
<!-- Node19 -->
<g id="Node000019" class="node">
<title>Node19</title>
<g id="a_Node000019"><a xlink:href="classzero__mate_1_1peripheral_1_1CMini__UART.html#ad15628b6f928101a1844704a58b11cdb" target="_top" xlink:title="Sends a stop bit.">
<polygon fill="white" stroke="#666666" points="329.5,-52.5 186.5,-52.5 186.5,-11.5 329.5,-11.5 329.5,-52.5"/>
<text text-anchor="start" x="194.5" y="-40.5" font-family="Helvetica,sans-Serif" font-size="10.00">zero_mate::peripheral</text>
<text text-anchor="start" x="194.5" y="-29.5" font-family="Helvetica,sans-Serif" font-size="10.00">::CMini_UART::UART_Send</text>
<text text-anchor="middle" x="258" y="-18.5" font-family="Helvetica,sans-Serif" font-size="10.00">_Stop_bit</text>
</a>
</g>
</g>
<!-- Node1&#45;&gt;Node19 -->
<g id="edge19_Node000001_Node000019" class="edge">
<title>Node1&#45;&gt;Node19</title>
<g id="a_edge19_Node000001_Node000019"><a xlink:title=" ">
<path fill="none" stroke="#63b8ff" d="M80.84,-163.94C97.61,-139.37 134.02,-90.54 176,-62 178.38,-60.38 180.87,-58.83 183.42,-57.36"/>
<polygon fill="#63b8ff" stroke="#63b8ff" points="185.14,-60.41 192.33,-52.62 181.85,-54.23 185.14,-60.41"/>
</a>
</g>
</g>
<!-- Node5 -->
<g id="Node000005" class="node">
<title>Node5</title>
<g id="a_Node000005"><a xlink:href="classzero__mate_1_1peripheral_1_1CMini__UART.html#a1e54d90a036d327e36d06a74be1595c3" target="_top" xlink:title="Returns information about a transmit interrupt is enabled.">
<polygon fill="white" stroke="#666666" points="519,-283.5 376,-283.5 376,-242.5 519,-242.5 519,-283.5"/>
<text text-anchor="start" x="384" y="-271.5" font-family="Helvetica,sans-Serif" font-size="10.00">zero_mate::peripheral</text>
<text text-anchor="start" x="384" y="-260.5" font-family="Helvetica,sans-Serif" font-size="10.00">::CMini_UART::Is_Transmit</text>
<text text-anchor="middle" x="447.5" y="-249.5" font-family="Helvetica,sans-Serif" font-size="10.00">_Interrupt_Enabled</text>
</a>
</g>
</g>
<!-- Node4&#45;&gt;Node5 -->
<g id="edge4_Node000004_Node000005" class="edge">
<title>Node4&#45;&gt;Node5</title>
<g id="a_edge4_Node000004_Node000005"><a xlink:title=" ">
<path fill="none" stroke="#63b8ff" d="M330.42,-229.57C342.06,-232.92 354.19,-236.42 366.04,-239.83"/>
<polygon fill="#63b8ff" stroke="#63b8ff" points="365.32,-243.26 375.9,-242.67 367.26,-236.54 365.32,-243.26"/>
</a>
</g>
</g>
<!-- Node6 -->
<g id="Node000006" class="node">
<title>Node6</title>
<g id="a_Node000006"><a xlink:href="classzero__mate_1_1peripheral_1_1CMini__UART.html#a8711d81118c89d5174a68d5b63ad3fac" target="_top" xlink:title="Triggers an interrupt.">
<polygon fill="white" stroke="#666666" points="519,-224 376,-224 376,-194 519,-194 519,-224"/>
<text text-anchor="start" x="384" y="-212" font-family="Helvetica,sans-Serif" font-size="10.00">zero_mate::peripheral</text>
<text text-anchor="middle" x="447.5" y="-201" font-family="Helvetica,sans-Serif" font-size="10.00">::CMini_UART::Trigger_IRQ</text>
</a>
</g>
</g>
<!-- Node4&#45;&gt;Node6 -->
<g id="edge5_Node000004_Node000006" class="edge">
<title>Node4&#45;&gt;Node6</title>
<g id="a_edge5_Node000004_Node000006"><a xlink:title=" ">
<path fill="none" stroke="#63b8ff" d="M331.22,-209C342.55,-209 354.33,-209 365.83,-209"/>
<polygon fill="#63b8ff" stroke="#63b8ff" points="365.86,-212.5 375.86,-209 365.86,-205.5 365.86,-212.5"/>
</a>
</g>
</g>
<!-- Node7 -->
<g id="Node000007" class="node">
<title>Node7</title>
<g id="a_Node000007"><a xlink:href="classzero__mate_1_1peripheral_1_1CMini__UART.html#aeedc743fe9b70dfb0019b775e2ea714a" target="_top" xlink:title="Sets the type of a pending IRQ in the IIR register.">
<polygon fill="white" stroke="#666666" points="704.5,-229.5 557.5,-229.5 557.5,-188.5 704.5,-188.5 704.5,-229.5"/>
<text text-anchor="start" x="565.5" y="-217.5" font-family="Helvetica,sans-Serif" font-size="10.00">zero_mate::peripheral</text>
<text text-anchor="start" x="565.5" y="-206.5" font-family="Helvetica,sans-Serif" font-size="10.00">::CMini_UART::Set_Pending</text>
<text text-anchor="middle" x="631" y="-195.5" font-family="Helvetica,sans-Serif" font-size="10.00">_IRQ_Type</text>
</a>
</g>
</g>
<!-- Node6&#45;&gt;Node7 -->
<g id="edge6_Node000006_Node000007" class="edge">
<title>Node6&#45;&gt;Node7</title>
<g id="a_edge6_Node000006_Node000007"><a xlink:title=" ">
<path fill="none" stroke="#63b8ff" d="M519.19,-209C528.4,-209 537.9,-209 547.29,-209"/>
<polygon fill="#63b8ff" stroke="#63b8ff" points="547.41,-212.5 557.41,-209 547.41,-205.5 547.41,-212.5"/>
</a>
</g>
</g>
<!-- Node9 -->
<g id="Node000009" class="node">
<title>Node9</title>
<g id="a_Node000009"><a xlink:href="classzero__mate_1_1peripheral_1_1CMini__UART.html#a2f29b39f721b4ae5acf81f61ab210325" target="_top" xlink:title="Returns the length of payload (7 or 8 bits).">
<polygon fill="white" stroke="#666666" points="513.5,-175.5 381.5,-175.5 381.5,-134.5 513.5,-134.5 513.5,-175.5"/>
<text text-anchor="start" x="389.5" y="-163.5" font-family="Helvetica,sans-Serif" font-size="10.00">zero_mate::peripheral</text>
<text text-anchor="start" x="389.5" y="-152.5" font-family="Helvetica,sans-Serif" font-size="10.00">::CMini_UART::Get_Char</text>
<text text-anchor="middle" x="447.5" y="-141.5" font-family="Helvetica,sans-Serif" font-size="10.00">_Length</text>
</a>
</g>
</g>
<!-- Node8&#45;&gt;Node9 -->
<g id="edge8_Node000008_Node000009" class="edge">
<title>Node8&#45;&gt;Node9</title>
<g id="a_edge8_Node000008_Node000009"><a xlink:title=" ">
<path fill="none" stroke="#63b8ff" d="M329.62,-151.88C343.1,-152.24 357.27,-152.62 370.9,-152.98"/>
<polygon fill="#63b8ff" stroke="#63b8ff" points="371.11,-156.49 381.2,-153.26 371.3,-149.49 371.11,-156.49"/>
</a>
</g>
</g>
<!-- Node10 -->
<g id="Node000010" class="node">
<title>Node10</title>
<g id="a_Node000010"><a xlink:href="classzero__mate_1_1peripheral_1_1CMini__UART.html#a4e01dd26b71c9c13ec8a81510cbf2450" target="_top" xlink:title="Returns the data length from a given enumeration.">
<polygon fill="white" stroke="#666666" points="513.5,-116.5 381.5,-116.5 381.5,-75.5 513.5,-75.5 513.5,-116.5"/>
<text text-anchor="start" x="389.5" y="-104.5" font-family="Helvetica,sans-Serif" font-size="10.00">zero_mate::peripheral</text>
<text text-anchor="start" x="389.5" y="-93.5" font-family="Helvetica,sans-Serif" font-size="10.00">::CMini_UART::Get_Char</text>
<text text-anchor="middle" x="447.5" y="-82.5" font-family="Helvetica,sans-Serif" font-size="10.00">_Length_Value</text>
</a>
</g>
</g>
<!-- Node8&#45;&gt;Node10 -->
<g id="edge9_Node000008_Node000010" class="edge">
<title>Node8&#45;&gt;Node10</title>
<g id="a_edge9_Node000008_Node000010"><a xlink:title=" ">
<path fill="none" stroke="#63b8ff" d="M329.62,-129.66C343.23,-125.74 357.55,-121.62 371.3,-117.66"/>
<polygon fill="#63b8ff" stroke="#63b8ff" points="372.56,-120.94 381.2,-114.81 370.62,-114.21 372.56,-120.94"/>
</a>
</g>
</g>
<!-- Node11 -->
<g id="Node000011" class="node">
<title>Node11</title>
<g id="a_Node000011"><a xlink:href="classzero__mate_1_1peripheral_1_1CMini__UART.html#aa97db5d47b819acd85beda1dc91cb355" target="_top" xlink:title="Sets the state of the TX pin.">
<polygon fill="white" stroke="#666666" points="518,-57 377,-57 377,-27 518,-27 518,-57"/>
<text text-anchor="start" x="385" y="-45" font-family="Helvetica,sans-Serif" font-size="10.00">zero_mate::peripheral</text>
<text text-anchor="middle" x="447.5" y="-34" font-family="Helvetica,sans-Serif" font-size="10.00">::CMini_UART::Set_TX_Pin</text>
</a>
</g>
</g>
<!-- Node8&#45;&gt;Node11 -->
<g id="edge10_Node000008_Node000011" class="edge">
<title>Node8&#45;&gt;Node11</title>
<g id="a_edge10_Node000008_Node000011"><a xlink:title=" ">
<path fill="none" stroke="#63b8ff" d="M327.07,-129.45C331.63,-126.93 336,-124.13 340,-121 362.73,-103.24 353.24,-84.73 376,-67 378.31,-65.2 380.75,-63.53 383.29,-61.97"/>
<polygon fill="#63b8ff" stroke="#63b8ff" points="385.13,-64.96 392.25,-57.11 381.79,-58.81 385.13,-64.96"/>
</a>
</g>
</g>
<!-- Node12 -->
<g id="Node000012" class="node">
<title>Node12</title>
<g id="a_Node000012"><a xlink:href="classzero__mate_1_1peripheral_1_1CMini__UART.html#a9243af4f42d118a598a00c0f79d366e1" target="_top" xlink:title="Sets the state of a given GPIO pin.">
<polygon fill="white" stroke="#666666" points="707,-57 555,-57 555,-27 707,-27 707,-57"/>
<text text-anchor="start" x="563" y="-45" font-family="Helvetica,sans-Serif" font-size="10.00">zero_mate::peripheral</text>
<text text-anchor="middle" x="631" y="-34" font-family="Helvetica,sans-Serif" font-size="10.00">::CMini_UART::Set_GPIO_pin</text>
</a>
</g>
</g>
<!-- Node11&#45;&gt;Node12 -->
<g id="edge11_Node000011_Node000012" class="edge">
<title>Node11&#45;&gt;Node12</title>
<g id="a_edge11_Node000011_Node000012"><a xlink:title=" ">
<path fill="none" stroke="#63b8ff" d="M518.15,-42C526.87,-42 535.86,-42 544.78,-42"/>
<polygon fill="#63b8ff" stroke="#63b8ff" points="544.8,-45.5 554.8,-42 544.8,-38.5 544.8,-45.5"/>
</a>
</g>
</g>
<!-- Node13 -->
<g id="Node000013" class="node">
<title>Node13</title>
<g id="a_Node000013"><a xlink:href="classzero__mate_1_1utils_1_1CLogging__System.html#a57ed77e1a5cf822cea532cc5e05c3f60" target="_top" xlink:title="Logs an error message via all registered loggers.">
<polygon fill="white" stroke="#666666" points="889,-57 743,-57 743,-27 889,-27 889,-57"/>
<text text-anchor="start" x="751" y="-45" font-family="Helvetica,sans-Serif" font-size="10.00">zero_mate::utils::CLogging</text>
<text text-anchor="middle" x="816" y="-34" font-family="Helvetica,sans-Serif" font-size="10.00">_System::Error</text>
</a>
</g>
</g>
<!-- Node12&#45;&gt;Node13 -->
<g id="edge12_Node000012_Node000013" class="edge">
<title>Node12&#45;&gt;Node13</title>
<g id="a_edge12_Node000012_Node000013"><a xlink:title=" ">
<path fill="none" stroke="#63b8ff" d="M707.23,-42C715.57,-42 724.09,-42 732.52,-42"/>
<polygon fill="#63b8ff" stroke="#63b8ff" points="732.72,-45.5 742.72,-42 732.72,-38.5 732.72,-45.5"/>
</a>
</g>
</g>
<!-- Node14 -->
<g id="Node000014" class="node">
<title>Node14</title>
<g id="a_Node000014"><a xlink:href="classzero__mate_1_1utils_1_1CLogging__System.html#a71ed11c796553cbe8fd99773406a1060" target="_top" xlink:title="Creates a formatted message to be logged.">
<polygon fill="white" stroke="#666666" points="1077,-89.5 925,-89.5 925,-48.5 1077,-48.5 1077,-89.5"/>
<text text-anchor="start" x="933" y="-77.5" font-family="Helvetica,sans-Serif" font-size="10.00">zero_mate::utils::CLogging</text>
<text text-anchor="start" x="933" y="-66.5" font-family="Helvetica,sans-Serif" font-size="10.00">_System::Create_Formatted</text>
<text text-anchor="middle" x="1001" y="-55.5" font-family="Helvetica,sans-Serif" font-size="10.00">_Log_Msg</text>
</a>
</g>
</g>
<!-- Node13&#45;&gt;Node14 -->
<g id="edge13_Node000013_Node000014" class="edge">
<title>Node13&#45;&gt;Node14</title>
<g id="a_edge13_Node000013_Node000014"><a xlink:title=" ">
<path fill="none" stroke="#63b8ff" d="M889.06,-52.63C897.55,-53.88 906.26,-55.17 914.9,-56.44"/>
<polygon fill="#63b8ff" stroke="#63b8ff" points="914.59,-59.94 924.99,-57.93 915.61,-53.01 914.59,-59.94"/>
</a>
</g>
</g>
<!-- Node17 -->
<g id="Node000017" class="node">
<title>Node17</title>
<g id="a_Node000017"><a xlink:href="classzero__mate_1_1utils_1_1CLogging__System.html#ad371c67ef65763966ccf9291002e86f3" target="_top" xlink:title="Extract the filename from a given location within the source files.">
<polygon fill="white" stroke="#666666" points="1075.5,-30 926.5,-30 926.5,0 1075.5,0 1075.5,-30"/>
<text text-anchor="start" x="934.5" y="-18" font-family="Helvetica,sans-Serif" font-size="10.00">zero_mate::utils::CLogging</text>
<text text-anchor="middle" x="1001" y="-7" font-family="Helvetica,sans-Serif" font-size="10.00">_System::Extract_Filename</text>
</a>
</g>
</g>
<!-- Node13&#45;&gt;Node17 -->
<g id="edge16_Node000013_Node000017" class="edge">
<title>Node13&#45;&gt;Node17</title>
<g id="a_edge16_Node000013_Node000017"><a xlink:title=" ">
<path fill="none" stroke="#63b8ff" d="M889.06,-31.37C898.1,-30.03 907.4,-28.66 916.59,-27.31"/>
<polygon fill="#63b8ff" stroke="#63b8ff" points="917.12,-30.77 926.5,-25.84 916.1,-23.84 917.12,-30.77"/>
</a>
</g>
</g>
<!-- Node15 -->
<g id="Node000015" class="node">
<title>Node15</title>
<g id="a_Node000015"><a xlink:href="classzero__mate_1_1utils_1_1CLogging__System.html#aa70c102c805079042ffea2a6f2a5ad64" target="_top" xlink:title="Formats a given timestamp.">
<polygon fill="white" stroke="#666666" points="1273,-108 1113,-108 1113,-78 1273,-78 1273,-108"/>
<text text-anchor="start" x="1121" y="-96" font-family="Helvetica,sans-Serif" font-size="10.00">zero_mate::utils::CLogging</text>
<text text-anchor="middle" x="1193" y="-85" font-family="Helvetica,sans-Serif" font-size="10.00">_System::Format_Timestamp</text>
</a>
</g>
</g>
<!-- Node14&#45;&gt;Node15 -->
<g id="edge14_Node000014_Node000015" class="edge">
<title>Node14&#45;&gt;Node15</title>
<g id="a_edge14_Node000014_Node000015"><a xlink:title=" ">
<path fill="none" stroke="#63b8ff" d="M1077.09,-78.49C1085.52,-79.55 1094.16,-80.64 1102.74,-81.73"/>
<polygon fill="#63b8ff" stroke="#63b8ff" points="1102.41,-85.21 1112.77,-82.99 1103.29,-78.27 1102.41,-85.21"/>
</a>
</g>
</g>
<!-- Node16 -->
<g id="Node000016" class="node">
<title>Node16</title>
<g id="a_Node000016"><a xlink:href="classzero__mate_1_1utils_1_1CLogging__System.html#ae3ca637537dde05e0b9119145c840331" target="_top" xlink:title="Returns the current timestamp that will be used in a log message.">
<polygon fill="white" stroke="#666666" points="1266,-60 1120,-60 1120,-30 1266,-30 1266,-60"/>
<text text-anchor="start" x="1128" y="-48" font-family="Helvetica,sans-Serif" font-size="10.00">zero_mate::utils::CLogging</text>
<text text-anchor="middle" x="1193" y="-37" font-family="Helvetica,sans-Serif" font-size="10.00">_System::Get_Timestamp</text>
</a>
</g>
</g>
<!-- Node14&#45;&gt;Node16 -->
<g id="edge15_Node000014_Node000016" class="edge">
<title>Node14&#45;&gt;Node16</title>
<g id="a_edge15_Node000014_Node000016"><a xlink:title=" ">
<path fill="none" stroke="#63b8ff" d="M1077.09,-59.51C1087.89,-58.15 1099.05,-56.74 1109.98,-55.36"/>
<polygon fill="#63b8ff" stroke="#63b8ff" points="1110.45,-58.83 1119.93,-54.1 1109.57,-51.88 1110.45,-58.83"/>
</a>
</g>
</g>
<!-- Node18&#45;&gt;Node11 -->
<g id="edge18_Node000018_Node000011" class="edge">
<title>Node18&#45;&gt;Node11</title>
<g id="a_edge18_Node000018_Node000011"><a xlink:title=" ">
<path fill="none" stroke="#63b8ff" d="M329.62,-72.55C345.87,-68.3 363.1,-63.79 379.21,-59.59"/>
<polygon fill="#63b8ff" stroke="#63b8ff" points="380.28,-62.92 389.07,-57.01 378.51,-56.15 380.28,-62.92"/>
</a>
</g>
</g>
<!-- Node19&#45;&gt;Node11 -->
<g id="edge20_Node000019_Node000011" class="edge">
<title>Node19&#45;&gt;Node11</title>
<g id="a_edge20_Node000019_Node000011"><a xlink:title=" ">
<path fill="none" stroke="#63b8ff" d="M329.62,-35.77C341.7,-36.41 354.33,-37.08 366.64,-37.74"/>
<polygon fill="#63b8ff" stroke="#63b8ff" points="366.71,-41.25 376.88,-38.29 367.08,-34.26 366.71,-41.25"/>
</a>
</g>
</g>
</g>
</svg>
