<?xml version="1.0" encoding="UTF-8" standalone="no"?>
<!DOCTYPE svg PUBLIC "-//W3C//DTD SVG 1.1//EN"
 "http://www.w3.org/Graphics/SVG/1.1/DTD/svg11.dtd">
<!-- Generated by graphviz version 2.43.0 (0)
 -->
<!-- Title: zero_mate::utils::CLogging_System::Debug Pages: 1 -->
<svg width="515pt" height="452pt"
 viewBox="0.00 0.00 515.00 452.00" xmlns="http://www.w3.org/2000/svg" xmlns:xlink="http://www.w3.org/1999/xlink">
<g id="graph0" class="graph" transform="scale(1 1) rotate(0) translate(4 448)">
<title>zero_mate::utils::CLogging_System::Debug</title>
<!-- Node1 -->
<g id="Node000001" class="node">
<title>Node1</title>
<g id="a_Node000001"><a xlink:title="Logs a debug message via all registered loggers.">
<polygon fill="#999999" stroke="#666666" points="507,-241.5 361,-241.5 361,-211.5 507,-211.5 507,-241.5"/>
<text text-anchor="start" x="369" y="-229.5" font-family="Helvetica,sans-Serif" font-size="10.00">zero_mate::utils::CLogging</text>
<text text-anchor="middle" x="434" y="-218.5" font-family="Helvetica,sans-Serif" font-size="10.00">_System::Debug</text>
</a>
</g>
</g>
<!-- Node2 -->
<g id="Node000002" class="node">
<title>Node2</title>
<g id="a_Node000002"><a xlink:href="classzero__mate_1_1peripheral_1_1CGPIO__Manager.html#a4a4e9cf470ed6f7dbfb3ada75d35e47c" target="_top" xlink:title="Clears a pending interrupt by writing a 1 to the GPEDS register.">
<polygon fill="white" stroke="#666666" points="325,-325.5 170,-325.5 170,-295.5 325,-295.5 325,-325.5"/>
<text text-anchor="start" x="178" y="-313.5" font-family="Helvetica,sans-Serif" font-size="10.00">zero_mate::peripheral</text>
<text text-anchor="middle" x="247.5" y="-302.5" font-family="Helvetica,sans-Serif" font-size="10.00">::CGPIO_Manager::Clear_IRQ</text>
</a>
</g>
</g>
<!-- Node1&#45;&gt;Node2 -->
<g id="edge1_Node000001_Node000002" class="edge">
<title>Node1&#45;&gt;Node2</title>
<g id="a_edge1_Node000001_Node000002"><a xlink:title=" ">
<path fill="none" stroke="#63b8ff" d="M399.53,-246.87C378.6,-259.08 350.8,-274.35 325,-285.5 316.79,-289.05 307.91,-292.38 299.19,-295.39"/>
<polygon fill="#63b8ff" stroke="#63b8ff" points="401.51,-249.77 408.34,-241.68 397.95,-243.74 401.51,-249.77"/>
</a>
</g>
</g>
<!-- Node4 -->
<g id="Node000004" class="node">
<title>Node4</title>
<g id="a_Node000004"><a xlink:href="classzero__mate_1_1peripheral_1_1CInterrupt__Controller.html#aa731c1d6e73a4db1087a803ca5fe5557" target="_top" xlink:title="Enables/disables interrupts from a basic IRQ source.">
<polygon fill="white" stroke="#666666" points="324,-444 171,-444 171,-403 324,-403 324,-444"/>
<text text-anchor="start" x="179" y="-432" font-family="Helvetica,sans-Serif" font-size="10.00">zero_mate::peripheral</text>
<text text-anchor="start" x="179" y="-421" font-family="Helvetica,sans-Serif" font-size="10.00">::CInterrupt_Controller</text>
<text text-anchor="middle" x="247.5" y="-410" font-family="Helvetica,sans-Serif" font-size="10.00">::Enable_IRQ_Basic_Sources</text>
</a>
</g>
</g>
<!-- Node1&#45;&gt;Node4 -->
<g id="edge3_Node000001_Node000004" class="edge">
<title>Node1&#45;&gt;Node4</title>
<g id="a_edge3_Node000001_Node000004"><a xlink:title=" ">
<path fill="none" stroke="#63b8ff" d="M423.17,-251.15C407.56,-287.38 373.76,-355 325,-394.5 321.14,-397.63 316.9,-400.45 312.47,-402.97"/>
<polygon fill="#63b8ff" stroke="#63b8ff" points="426.45,-252.38 427.1,-241.81 420,-249.67 426.45,-252.38"/>
</a>
</g>
</g>
<!-- Node6 -->
<g id="Node000006" class="node">
<title>Node6</title>
<g id="a_Node000006"><a xlink:href="classzero__mate_1_1peripheral_1_1CInterrupt__Controller.html#ac3c9423e443ca2389cef743f32713cca" target="_top" xlink:title="Enables/disables interrupts from an IRQ source.">
<polygon fill="white" stroke="#666666" points="310,-385 185,-385 185,-344 310,-344 310,-385"/>
<text text-anchor="start" x="193" y="-373" font-family="Helvetica,sans-Serif" font-size="10.00">zero_mate::peripheral</text>
<text text-anchor="start" x="193" y="-362" font-family="Helvetica,sans-Serif" font-size="10.00">::CInterrupt_Controller</text>
<text text-anchor="middle" x="247.5" y="-351" font-family="Helvetica,sans-Serif" font-size="10.00">::Enable_IRQ_Sources</text>
</a>
</g>
</g>
<!-- Node1&#45;&gt;Node6 -->
<g id="edge5_Node000001_Node000006" class="edge">
<title>Node1&#45;&gt;Node6</title>
<g id="a_edge5_Node000001_Node000006"><a xlink:title=" ">
<path fill="none" stroke="#63b8ff" d="M414.84,-249.62C394.98,-273.61 361.12,-310.86 325,-334.5 319.75,-337.94 314.04,-341.08 308.19,-343.93"/>
<polygon fill="#63b8ff" stroke="#63b8ff" points="417.67,-251.69 421.27,-241.73 412.24,-247.27 417.67,-251.69"/>
</a>
</g>
</g>
<!-- Node7 -->
<g id="Node000007" class="node">
<title>Node7</title>
<g id="a_Node000007"><a xlink:href="classzero__mate_1_1peripheral_1_1CGPIO__Manager.html#ad29d57528b73baef90b0ca885a297e4d" target="_top" xlink:title="Enables/disables an interrupt for all pins within a given register.">
<polygon fill="white" stroke="#666666" points="309.5,-277 185.5,-277 185.5,-236 309.5,-236 309.5,-277"/>
<text text-anchor="start" x="193.5" y="-265" font-family="Helvetica,sans-Serif" font-size="10.00">zero_mate::peripheral</text>
<text text-anchor="start" x="193.5" y="-254" font-family="Helvetica,sans-Serif" font-size="10.00">::CGPIO_Manager::Set</text>
<text text-anchor="middle" x="247.5" y="-243" font-family="Helvetica,sans-Serif" font-size="10.00">_Interrupt</text>
</a>
</g>
</g>
<!-- Node1&#45;&gt;Node7 -->
<g id="edge7_Node000001_Node000007" class="edge">
<title>Node1&#45;&gt;Node7</title>
<g id="a_edge7_Node000001_Node000007"><a xlink:title=" ">
<path fill="none" stroke="#63b8ff" d="M350.83,-239.86C336.95,-242.12 322.75,-244.43 309.52,-246.58"/>
<polygon fill="#63b8ff" stroke="#63b8ff" points="351.57,-243.29 360.87,-238.23 350.44,-236.38 351.57,-243.29"/>
</a>
</g>
</g>
<!-- Node8 -->
<g id="Node000008" class="node">
<title>Node8</title>
<g id="a_Node000008"><a xlink:href="classzero__mate_1_1peripheral_1_1CInterrupt__Controller.html#a32373b931bb37ef8ee92f95a3f833284" target="_top" xlink:title="Notifies the interrupt controller about a pending interrupt triggered by a basic IRQ source.">
<polygon fill="white" stroke="#666666" points="310,-218 185,-218 185,-177 310,-177 310,-218"/>
<text text-anchor="start" x="193" y="-206" font-family="Helvetica,sans-Serif" font-size="10.00">zero_mate::peripheral</text>
<text text-anchor="start" x="193" y="-195" font-family="Helvetica,sans-Serif" font-size="10.00">::CInterrupt_Controller</text>
<text text-anchor="middle" x="247.5" y="-184" font-family="Helvetica,sans-Serif" font-size="10.00">::Signalize_Basic_IRQ</text>
</a>
</g>
</g>
<!-- Node1&#45;&gt;Node8 -->
<g id="edge9_Node000001_Node000008" class="edge">
<title>Node1&#45;&gt;Node8</title>
<g id="a_edge9_Node000001_Node000008"><a xlink:title=" ">
<path fill="none" stroke="#63b8ff" d="M350.96,-213.6C337.23,-211.45 323.21,-209.24 310.11,-207.18"/>
<polygon fill="#63b8ff" stroke="#63b8ff" points="350.45,-217.07 360.87,-215.16 351.54,-210.15 350.45,-217.07"/>
</a>
</g>
</g>
<!-- Node9 -->
<g id="Node000009" class="node">
<title>Node9</title>
<g id="a_Node000009"><a xlink:href="classzero__mate_1_1peripheral_1_1CInterrupt__Controller.html#aa559a3a604ae1877cbbe749724d8a399" target="_top" xlink:title="Notifies the interrupt controller about a pending interrupt triggered by an IRQ source.">
<polygon fill="white" stroke="#666666" points="310,-159 185,-159 185,-118 310,-118 310,-159"/>
<text text-anchor="start" x="193" y="-147" font-family="Helvetica,sans-Serif" font-size="10.00">zero_mate::peripheral</text>
<text text-anchor="start" x="193" y="-136" font-family="Helvetica,sans-Serif" font-size="10.00">::CInterrupt_Controller</text>
<text text-anchor="middle" x="247.5" y="-125" font-family="Helvetica,sans-Serif" font-size="10.00">::Signalize_IRQ</text>
</a>
</g>
</g>
<!-- Node1&#45;&gt;Node9 -->
<g id="edge10_Node000001_Node000009" class="edge">
<title>Node1&#45;&gt;Node9</title>
<g id="a_edge10_Node000001_Node000009"><a xlink:title=" ">
<path fill="none" stroke="#63b8ff" d="M398.92,-206.31C377.97,-194.3 350.36,-179.17 325,-167.5 318.68,-164.59 311.97,-161.73 305.26,-159.01"/>
<polygon fill="#63b8ff" stroke="#63b8ff" points="397.35,-209.44 407.76,-211.42 400.85,-203.38 397.35,-209.44"/>
</a>
</g>
</g>
<!-- Node10 -->
<g id="Node000010" class="node">
<title>Node10</title>
<g id="a_Node000010"><a xlink:href="classzero__mate_1_1peripheral_1_1CGPIO__Manager.html#ad7c6aa486cf3b116ffae9f16eec64064" target="_top" xlink:title="Updates the function of all pins within a given register.">
<polygon fill="white" stroke="#666666" points="319,-100 176,-100 176,-59 319,-59 319,-100"/>
<text text-anchor="start" x="184" y="-88" font-family="Helvetica,sans-Serif" font-size="10.00">zero_mate::peripheral</text>
<text text-anchor="start" x="184" y="-77" font-family="Helvetica,sans-Serif" font-size="10.00">::CGPIO_Manager::Update</text>
<text text-anchor="middle" x="247.5" y="-66" font-family="Helvetica,sans-Serif" font-size="10.00">_Pin_Function</text>
</a>
</g>
</g>
<!-- Node1&#45;&gt;Node10 -->
<g id="edge11_Node000001_Node000010" class="edge">
<title>Node1&#45;&gt;Node10</title>
<g id="a_edge11_Node000001_Node000010"><a xlink:title=" ">
<path fill="none" stroke="#63b8ff" d="M416.87,-203.12C397.69,-176.87 363.41,-134.55 325,-108.5 320.53,-105.47 315.71,-102.7 310.73,-100.18"/>
<polygon fill="#63b8ff" stroke="#63b8ff" points="414.11,-205.27 422.78,-211.36 419.8,-201.19 414.11,-205.27"/>
</a>
</g>
</g>
<!-- Node11 -->
<g id="Node000011" class="node">
<title>Node11</title>
<g id="a_Node000011"><a xlink:href="classzero__mate_1_1peripheral_1_1CGPIO__Manager.html#ae93785da50eefb8a8cc21c1c59a32726" target="_top" xlink:title="Updates the state of all pins within a given register.">
<polygon fill="white" stroke="#666666" points="319,-41 176,-41 176,0 319,0 319,-41"/>
<text text-anchor="start" x="184" y="-29" font-family="Helvetica,sans-Serif" font-size="10.00">zero_mate::peripheral</text>
<text text-anchor="start" x="184" y="-18" font-family="Helvetica,sans-Serif" font-size="10.00">::CGPIO_Manager::Update</text>
<text text-anchor="middle" x="247.5" y="-7" font-family="Helvetica,sans-Serif" font-size="10.00">_Pin_State</text>
</a>
</g>
</g>
<!-- Node1&#45;&gt;Node11 -->
<g id="edge13_Node000001_Node000011" class="edge">
<title>Node1&#45;&gt;Node11</title>
<g id="a_edge13_Node000001_Node000011"><a xlink:title=" ">
<path fill="none" stroke="#63b8ff" d="M423.98,-201.68C409.03,-163.79 375.64,-91.52 325,-49.5 321.28,-46.42 317.21,-43.64 312.93,-41.14"/>
<polygon fill="#63b8ff" stroke="#63b8ff" points="420.86,-203.31 427.71,-211.4 427.4,-200.81 420.86,-203.31"/>
</a>
</g>
</g>
<!-- Node3 -->
<g id="Node000003" class="node">
<title>Node3</title>
<g id="a_Node000003"><a xlink:href="classzero__mate_1_1peripheral_1_1CGPIO__Manager.html#a26aa957dbb7682447e4ebf9aa078c00c" target="_top" xlink:title="Writes data to the peripheral (IPeripheral interface).">
<polygon fill="white" stroke="#666666" points="134,-183.5 0,-183.5 0,-153.5 134,-153.5 134,-183.5"/>
<text text-anchor="start" x="8" y="-171.5" font-family="Helvetica,sans-Serif" font-size="10.00">zero_mate::peripheral</text>
<text text-anchor="middle" x="67" y="-160.5" font-family="Helvetica,sans-Serif" font-size="10.00">::CGPIO_Manager::Write</text>
</a>
</g>
</g>
<!-- Node2&#45;&gt;Node3 -->
<g id="edge2_Node000002_Node000003" class="edge">
<title>Node2&#45;&gt;Node3</title>
<g id="a_edge2_Node000002_Node000003"><a xlink:title=" ">
<path fill="none" stroke="#63b8ff" d="M179.76,-291.19C176.37,-289.44 173.09,-287.55 170,-285.5 128.21,-257.83 93.3,-208.6 77.33,-183.75"/>
<polygon fill="#63b8ff" stroke="#63b8ff" points="178.39,-294.41 188.93,-295.48 181.36,-288.07 178.39,-294.41"/>
</a>
</g>
</g>
<!-- Node5 -->
<g id="Node000005" class="node">
<title>Node5</title>
<g id="a_Node000005"><a xlink:href="classzero__mate_1_1peripheral_1_1CInterrupt__Controller.html#ab37428109c8e5f862b528417048903f3" target="_top" xlink:title="Writes data to the peripheral (IPeripheral interface).">
<polygon fill="white" stroke="#666666" points="129.5,-414 4.5,-414 4.5,-373 129.5,-373 129.5,-414"/>
<text text-anchor="start" x="12.5" y="-402" font-family="Helvetica,sans-Serif" font-size="10.00">zero_mate::peripheral</text>
<text text-anchor="start" x="12.5" y="-391" font-family="Helvetica,sans-Serif" font-size="10.00">::CInterrupt_Controller</text>
<text text-anchor="middle" x="67" y="-380" font-family="Helvetica,sans-Serif" font-size="10.00">::Write</text>
</a>
</g>
</g>
<!-- Node4&#45;&gt;Node5 -->
<g id="edge4_Node000004_Node000005" class="edge">
<title>Node4&#45;&gt;Node5</title>
<g id="a_edge4_Node000004_Node000005"><a xlink:title=" ">
<path fill="none" stroke="#63b8ff" d="M160.8,-409.1C150.33,-407.34 139.8,-405.57 129.77,-403.88"/>
<polygon fill="#63b8ff" stroke="#63b8ff" points="160.36,-412.57 170.8,-410.78 161.52,-405.67 160.36,-412.57"/>
</a>
</g>
</g>
<!-- Node6&#45;&gt;Node5 -->
<g id="edge6_Node000006_Node000005" class="edge">
<title>Node6&#45;&gt;Node5</title>
<g id="a_edge6_Node000006_Node000005"><a xlink:title=" ">
<path fill="none" stroke="#63b8ff" d="M174.64,-376.18C159.74,-378.6 144.17,-381.12 129.68,-383.48"/>
<polygon fill="#63b8ff" stroke="#63b8ff" points="175.51,-379.58 184.82,-374.52 174.39,-372.67 175.51,-379.58"/>
</a>
</g>
</g>
<!-- Node7&#45;&gt;Node3 -->
<g id="edge8_Node000007_Node000003" class="edge">
<title>Node7&#45;&gt;Node3</title>
<g id="a_edge8_Node000007_Node000003"><a xlink:title=" ">
<path fill="none" stroke="#63b8ff" d="M181.86,-231.92C177.82,-230.14 173.84,-228.33 170,-226.5 142.61,-213.42 112.55,-195.92 92.21,-183.57"/>
<polygon fill="#63b8ff" stroke="#63b8ff" points="180.78,-235.26 191.35,-235.97 183.53,-228.82 180.78,-235.26"/>
</a>
</g>
</g>
<!-- Node10&#45;&gt;Node3 -->
<g id="edge12_Node000010_Node000003" class="edge">
<title>Node10&#45;&gt;Node3</title>
<g id="a_edge12_Node000010_Node000003"><a xlink:title=" ">
<path fill="none" stroke="#63b8ff" d="M179.56,-104.11C176.31,-105.55 173.1,-107.01 170,-108.5 142.03,-121.91 111.56,-140.38 91.28,-153.27"/>
<polygon fill="#63b8ff" stroke="#63b8ff" points="181,-107.3 188.83,-100.16 178.25,-100.86 181,-107.3"/>
</a>
</g>
</g>
<!-- Node11&#45;&gt;Node3 -->
<g id="edge14_Node000011_Node000003" class="edge">
<title>Node11&#45;&gt;Node3</title>
<g id="a_edge14_Node000011_Node000003"><a xlink:title=" ">
<path fill="none" stroke="#63b8ff" d="M175.12,-46.13C173.37,-47.21 171.66,-48.34 170,-49.5 128.58,-78.59 93.5,-128.23 77.42,-153.2"/>
<polygon fill="#63b8ff" stroke="#63b8ff" points="177.17,-48.99 184.17,-41.02 173.74,-42.89 177.17,-48.99"/>
</a>
</g>
</g>
</g>
</svg>
