<?xml version="1.0" encoding="UTF-8" standalone="no"?>
<!DOCTYPE svg PUBLIC "-//W3C//DTD SVG 1.1//EN"
 "http://www.w3.org/Graphics/SVG/1.1/DTD/svg11.dtd">
<!-- Generated by graphviz version 2.43.0 (0)
 -->
<!-- Title: zero_mate::arm1176jzf_s::CCPU_Core::Perform_Halfword_Data_Transfer_Read Pages: 1 -->
<svg width="502pt" height="49pt"
 viewBox="0.00 0.00 502.00 49.00" xmlns="http://www.w3.org/2000/svg" xmlns:xlink="http://www.w3.org/1999/xlink">
<g id="graph0" class="graph" transform="scale(1 1) rotate(0) translate(4 45)">
<title>zero_mate::arm1176jzf_s::CCPU_Core::Perform_Halfword_Data_Transfer_Read</title>
<!-- Node1 -->
<g id="Node000001" class="node">
<title>Node1</title>
<g id="a_Node000001"><a xlink:title="Performs a halfword data read from a given address.">
<polygon fill="#999999" stroke="#666666" points="168,-41 0,-41 0,0 168,0 168,-41"/>
<text text-anchor="start" x="8" y="-29" font-family="Helvetica,sans-Serif" font-size="10.00">zero_mate::arm1176jzf</text>
<text text-anchor="start" x="8" y="-18" font-family="Helvetica,sans-Serif" font-size="10.00">_s::CCPU_Core::Perform</text>
<text text-anchor="middle" x="84" y="-7" font-family="Helvetica,sans-Serif" font-size="10.00">_Halfword_Data_Transfer_Read</text>
</a>
</g>
</g>
<!-- Node2 -->
<g id="Node000002" class="node">
<title>Node2</title>
<g id="a_Node000002"><a xlink:href="namespacezero__mate_1_1utils_1_1math.html#afda20fa50949a9cd3a80f811b0085221" target="_top" xlink:title="Sign&#45;extends the given integral value.">
<polygon fill="white" stroke="#666666" points="331,-35.5 204,-35.5 204,-5.5 331,-5.5 331,-35.5"/>
<text text-anchor="start" x="212" y="-23.5" font-family="Helvetica,sans-Serif" font-size="10.00">zero_mate::utils::math</text>
<text text-anchor="middle" x="267.5" y="-12.5" font-family="Helvetica,sans-Serif" font-size="10.00">::Sign_Extend_Value</text>
</a>
</g>
</g>
<!-- Node1&#45;&gt;Node2 -->
<g id="edge1_Node000001_Node000002" class="edge">
<title>Node1&#45;&gt;Node2</title>
<g id="a_edge1_Node000001_Node000002"><a xlink:title=" ">
<path fill="none" stroke="#63b8ff" d="M168.05,-20.5C176.61,-20.5 185.26,-20.5 193.7,-20.5"/>
<polygon fill="#63b8ff" stroke="#63b8ff" points="193.86,-24 203.86,-20.5 193.86,-17 193.86,-24"/>
</a>
</g>
</g>
<!-- Node3 -->
<g id="Node000003" class="node">
<title>Node3</title>
<g id="a_Node000003"><a xlink:href="namespacezero__mate_1_1utils_1_1math.html#af7d93c996dab2ff1b91c5a399dcfe29f" target="_top" xlink:title="Tests whether a bit is set in the given integral variable.">
<polygon fill="white" stroke="#666666" points="494,-35.5 367,-35.5 367,-5.5 494,-5.5 494,-35.5"/>
<text text-anchor="start" x="375" y="-23.5" font-family="Helvetica,sans-Serif" font-size="10.00">zero_mate::utils::math</text>
<text text-anchor="middle" x="430.5" y="-12.5" font-family="Helvetica,sans-Serif" font-size="10.00">::Is_Bit_Set</text>
</a>
</g>
</g>
<!-- Node2&#45;&gt;Node3 -->
<g id="edge2_Node000002_Node000003" class="edge">
<title>Node2&#45;&gt;Node3</title>
<g id="a_edge2_Node000002_Node000003"><a xlink:title=" ">
<path fill="none" stroke="#63b8ff" d="M331.21,-20.5C339.65,-20.5 348.36,-20.5 356.96,-20.5"/>
<polygon fill="#63b8ff" stroke="#63b8ff" points="356.96,-24 366.96,-20.5 356.96,-17 356.96,-24"/>
</a>
</g>
</g>
</g>
</svg>
