<?xml version="1.0" encoding="UTF-8" standalone="no"?>
<!DOCTYPE svg PUBLIC "-//W3C//DTD SVG 1.1//EN"
 "http://www.w3.org/Graphics/SVG/1.1/DTD/svg11.dtd">
<!-- Generated by graphviz version 2.43.0 (0)
 -->
<!-- Title: zero_mate::peripheral::CGPIO_Manager::Update_Pin_State Pages: 1 -->
<svg width="717pt" height="256pt"
 viewBox="0.00 0.00 717.00 255.50" xmlns="http://www.w3.org/2000/svg" xmlns:xlink="http://www.w3.org/1999/xlink">
<g id="graph0" class="graph" transform="scale(1 1) rotate(0) translate(4 251.5)">
<title>zero_mate::peripheral::CGPIO_Manager::Update_Pin_State</title>
<!-- Node1 -->
<g id="Node000001" class="node">
<title>Node1</title>
<g id="a_Node000001"><a xlink:title="Updates the state of all pins within a given register.">
<polygon fill="#999999" stroke="#666666" points="143,-154 0,-154 0,-113 143,-113 143,-154"/>
<text text-anchor="start" x="8" y="-142" font-family="Helvetica,sans-Serif" font-size="10.00">zero_mate::peripheral</text>
<text text-anchor="start" x="8" y="-131" font-family="Helvetica,sans-Serif" font-size="10.00">::CGPIO_Manager::Update</text>
<text text-anchor="middle" x="71.5" y="-120" font-family="Helvetica,sans-Serif" font-size="10.00">_Pin_State</text>
</a>
</g>
</g>
<!-- Node2 -->
<g id="Node000002" class="node">
<title>Node2</title>
<g id="a_Node000002"><a xlink:href="classzero__mate_1_1utils_1_1CLogging__System.html#ade996da881888272ace7deaa82c975e9" target="_top" xlink:title="Logs a debug message via all registered loggers.">
<polygon fill="white" stroke="#666666" points="325,-196.5 179,-196.5 179,-166.5 325,-166.5 325,-196.5"/>
<text text-anchor="start" x="187" y="-184.5" font-family="Helvetica,sans-Serif" font-size="10.00">zero_mate::utils::CLogging</text>
<text text-anchor="middle" x="252" y="-173.5" font-family="Helvetica,sans-Serif" font-size="10.00">_System::Debug</text>
</a>
</g>
</g>
<!-- Node1&#45;&gt;Node2 -->
<g id="edge1_Node000001_Node000002" class="edge">
<title>Node1&#45;&gt;Node2</title>
<g id="a_edge1_Node000001_Node000002"><a xlink:title=" ">
<path fill="none" stroke="#63b8ff" d="M143.05,-152.47C156.93,-156.2 171.44,-160.11 185.16,-163.79"/>
<polygon fill="#63b8ff" stroke="#63b8ff" points="184.42,-167.22 194.98,-166.44 186.24,-160.46 184.42,-167.22"/>
</a>
</g>
</g>
<!-- Node7 -->
<g id="Node000007" class="node">
<title>Node7</title>
<g id="a_Node000007"><a xlink:href="namespacezero__mate_1_1utils_1_1math.html#af7d93c996dab2ff1b91c5a399dcfe29f" target="_top" xlink:title="Tests whether a bit is set in the given integral variable.">
<polygon fill="white" stroke="#666666" points="315.5,-148.5 188.5,-148.5 188.5,-118.5 315.5,-118.5 315.5,-148.5"/>
<text text-anchor="start" x="196.5" y="-136.5" font-family="Helvetica,sans-Serif" font-size="10.00">zero_mate::utils::math</text>
<text text-anchor="middle" x="252" y="-125.5" font-family="Helvetica,sans-Serif" font-size="10.00">::Is_Bit_Set</text>
</a>
</g>
</g>
<!-- Node1&#45;&gt;Node7 -->
<g id="edge6_Node000001_Node000007" class="edge">
<title>Node1&#45;&gt;Node7</title>
<g id="a_edge6_Node000001_Node000007"><a xlink:title=" ">
<path fill="none" stroke="#63b8ff" d="M143.05,-133.5C154.65,-133.5 166.7,-133.5 178.36,-133.5"/>
<polygon fill="#63b8ff" stroke="#63b8ff" points="178.48,-137 188.48,-133.5 178.48,-130 178.48,-137"/>
</a>
</g>
</g>
<!-- Node8 -->
<g id="Node000008" class="node">
<title>Node8</title>
<g id="a_Node000008"><a xlink:href="classzero__mate_1_1peripheral_1_1CGPIO__Manager.html#afb4a55159afdaa47cd3640dfd1e0106b" target="_top" xlink:title="Mirrors the state of a given in in the GPLEV register.">
<polygon fill="white" stroke="#666666" points="320.5,-100 183.5,-100 183.5,-59 320.5,-59 320.5,-100"/>
<text text-anchor="start" x="191.5" y="-88" font-family="Helvetica,sans-Serif" font-size="10.00">zero_mate::peripheral</text>
<text text-anchor="start" x="191.5" y="-77" font-family="Helvetica,sans-Serif" font-size="10.00">::CGPIO_Manager::Mirror</text>
<text text-anchor="middle" x="252" y="-66" font-family="Helvetica,sans-Serif" font-size="10.00">_Pin_State_In_GPLEVn</text>
</a>
</g>
</g>
<!-- Node1&#45;&gt;Node8 -->
<g id="edge7_Node000001_Node000008" class="edge">
<title>Node1&#45;&gt;Node8</title>
<g id="a_edge7_Node000001_Node000008"><a xlink:title=" ">
<path fill="none" stroke="#63b8ff" d="M140.49,-112.93C151.39,-109.63 162.73,-106.2 173.83,-102.85"/>
<polygon fill="#63b8ff" stroke="#63b8ff" points="174.93,-106.17 183.49,-99.92 172.91,-99.47 174.93,-106.17"/>
</a>
</g>
</g>
<!-- Node10 -->
<g id="Node000010" class="node">
<title>Node10</title>
<g id="a_Node000010"><a xlink:href="classzero__mate_1_1peripheral_1_1CGPIO__Manager.html#a623c62636a57d6c63db1331a42100452" target="_top" xlink:title="Notifies external peripherals that subscribe to the given pin about the change of its state.">
<polygon fill="white" stroke="#666666" points="320.5,-41 183.5,-41 183.5,0 320.5,0 320.5,-41"/>
<text text-anchor="start" x="191.5" y="-29" font-family="Helvetica,sans-Serif" font-size="10.00">zero_mate::peripheral</text>
<text text-anchor="start" x="191.5" y="-18" font-family="Helvetica,sans-Serif" font-size="10.00">::CGPIO_Manager::Notify</text>
<text text-anchor="middle" x="252" y="-7" font-family="Helvetica,sans-Serif" font-size="10.00">_External_Peripherals</text>
</a>
</g>
</g>
<!-- Node1&#45;&gt;Node10 -->
<g id="edge9_Node000001_Node000010" class="edge">
<title>Node1&#45;&gt;Node10</title>
<g id="a_edge9_Node000001_Node000010"><a xlink:title=" ">
<path fill="none" stroke="#63b8ff" d="M94.81,-112.78C115.46,-94.39 147.63,-67.69 179,-49.5 181.32,-48.15 183.72,-46.84 186.17,-45.56"/>
<polygon fill="#63b8ff" stroke="#63b8ff" points="187.78,-48.67 195.2,-41.11 184.69,-42.39 187.78,-48.67"/>
</a>
</g>
</g>
<!-- Node11 -->
<g id="Node000011" class="node">
<title>Node11</title>
<g id="a_Node000011"><a xlink:href="classzero__mate_1_1utils_1_1CLogging__System.html#a2bb4d37b178f29335f726875bad91bd4" target="_top" xlink:title="Logs a warning message via all registered loggers.">
<polygon fill="white" stroke="#666666" points="325,-244.5 179,-244.5 179,-214.5 325,-214.5 325,-244.5"/>
<text text-anchor="start" x="187" y="-232.5" font-family="Helvetica,sans-Serif" font-size="10.00">zero_mate::utils::CLogging</text>
<text text-anchor="middle" x="252" y="-221.5" font-family="Helvetica,sans-Serif" font-size="10.00">_System::Warning</text>
</a>
</g>
</g>
<!-- Node1&#45;&gt;Node11 -->
<g id="edge10_Node000001_Node000011" class="edge">
<title>Node1&#45;&gt;Node11</title>
<g id="a_edge10_Node000001_Node000011"><a xlink:title=" ">
<path fill="none" stroke="#63b8ff" d="M98.83,-154.3C119.66,-169.99 149.98,-191.19 179,-205.5 182.72,-207.34 186.62,-209.08 190.59,-210.74"/>
<polygon fill="#63b8ff" stroke="#63b8ff" points="189.36,-214.01 199.95,-214.42 191.92,-207.5 189.36,-214.01"/>
</a>
</g>
</g>
<!-- Node3 -->
<g id="Node000003" class="node">
<title>Node3</title>
<g id="a_Node000003"><a xlink:href="classzero__mate_1_1utils_1_1CLogging__System.html#a71ed11c796553cbe8fd99773406a1060" target="_top" xlink:title="Creates a formatted message to be logged.">
<polygon fill="white" stroke="#666666" points="513,-199 361,-199 361,-158 513,-158 513,-199"/>
<text text-anchor="start" x="369" y="-187" font-family="Helvetica,sans-Serif" font-size="10.00">zero_mate::utils::CLogging</text>
<text text-anchor="start" x="369" y="-176" font-family="Helvetica,sans-Serif" font-size="10.00">_System::Create_Formatted</text>
<text text-anchor="middle" x="437" y="-165" font-family="Helvetica,sans-Serif" font-size="10.00">_Log_Msg</text>
</a>
</g>
</g>
<!-- Node2&#45;&gt;Node3 -->
<g id="edge2_Node000002_Node000003" class="edge">
<title>Node2&#45;&gt;Node3</title>
<g id="a_edge2_Node000002_Node000003"><a xlink:title=" ">
<path fill="none" stroke="#63b8ff" d="M325.06,-180.32C333.55,-180.18 342.26,-180.04 350.9,-179.9"/>
<polygon fill="#63b8ff" stroke="#63b8ff" points="351.05,-183.39 360.99,-179.73 350.94,-176.39 351.05,-183.39"/>
</a>
</g>
</g>
<!-- Node6 -->
<g id="Node000006" class="node">
<title>Node6</title>
<g id="a_Node000006"><a xlink:href="classzero__mate_1_1utils_1_1CLogging__System.html#ad371c67ef65763966ccf9291002e86f3" target="_top" xlink:title="Extract the filename from a given location within the source files.">
<polygon fill="white" stroke="#666666" points="511.5,-247.5 362.5,-247.5 362.5,-217.5 511.5,-217.5 511.5,-247.5"/>
<text text-anchor="start" x="370.5" y="-235.5" font-family="Helvetica,sans-Serif" font-size="10.00">zero_mate::utils::CLogging</text>
<text text-anchor="middle" x="437" y="-224.5" font-family="Helvetica,sans-Serif" font-size="10.00">_System::Extract_Filename</text>
</a>
</g>
</g>
<!-- Node2&#45;&gt;Node6 -->
<g id="edge5_Node000002_Node000006" class="edge">
<title>Node2&#45;&gt;Node6</title>
<g id="a_edge5_Node000002_Node000006"><a xlink:title=" ">
<path fill="none" stroke="#63b8ff" d="M306.92,-196.53C327.49,-202.26 351.13,-208.85 372.51,-214.81"/>
<polygon fill="#63b8ff" stroke="#63b8ff" points="371.58,-218.18 382.15,-217.49 373.46,-211.44 371.58,-218.18"/>
</a>
</g>
</g>
<!-- Node4 -->
<g id="Node000004" class="node">
<title>Node4</title>
<g id="a_Node000004"><a xlink:href="classzero__mate_1_1utils_1_1CLogging__System.html#aa70c102c805079042ffea2a6f2a5ad64" target="_top" xlink:title="Formats a given timestamp.">
<polygon fill="white" stroke="#666666" points="709,-217.5 549,-217.5 549,-187.5 709,-187.5 709,-217.5"/>
<text text-anchor="start" x="557" y="-205.5" font-family="Helvetica,sans-Serif" font-size="10.00">zero_mate::utils::CLogging</text>
<text text-anchor="middle" x="629" y="-194.5" font-family="Helvetica,sans-Serif" font-size="10.00">_System::Format_Timestamp</text>
</a>
</g>
</g>
<!-- Node3&#45;&gt;Node4 -->
<g id="edge3_Node000003_Node000004" class="edge">
<title>Node3&#45;&gt;Node4</title>
<g id="a_edge3_Node000003_Node000004"><a xlink:title=" ">
<path fill="none" stroke="#63b8ff" d="M513.09,-187.99C521.52,-189.05 530.16,-190.14 538.74,-191.23"/>
<polygon fill="#63b8ff" stroke="#63b8ff" points="538.41,-194.71 548.77,-192.49 539.29,-187.77 538.41,-194.71"/>
</a>
</g>
</g>
<!-- Node5 -->
<g id="Node000005" class="node">
<title>Node5</title>
<g id="a_Node000005"><a xlink:href="classzero__mate_1_1utils_1_1CLogging__System.html#ae3ca637537dde05e0b9119145c840331" target="_top" xlink:title="Returns the current timestamp that will be used in a log message.">
<polygon fill="white" stroke="#666666" points="702,-169.5 556,-169.5 556,-139.5 702,-139.5 702,-169.5"/>
<text text-anchor="start" x="564" y="-157.5" font-family="Helvetica,sans-Serif" font-size="10.00">zero_mate::utils::CLogging</text>
<text text-anchor="middle" x="629" y="-146.5" font-family="Helvetica,sans-Serif" font-size="10.00">_System::Get_Timestamp</text>
</a>
</g>
</g>
<!-- Node3&#45;&gt;Node5 -->
<g id="edge4_Node000003_Node000005" class="edge">
<title>Node3&#45;&gt;Node5</title>
<g id="a_edge4_Node000003_Node000005"><a xlink:title=" ">
<path fill="none" stroke="#63b8ff" d="M513.09,-169.01C523.89,-167.65 535.05,-166.24 545.98,-164.86"/>
<polygon fill="#63b8ff" stroke="#63b8ff" points="546.45,-168.33 555.93,-163.6 545.57,-161.38 546.45,-168.33"/>
</a>
</g>
</g>
<!-- Node9 -->
<g id="Node000009" class="node">
<title>Node9</title>
<g id="a_Node000009"><a xlink:href="classzero__mate_1_1peripheral_1_1CGPIO__Manager.html#aa6b0515a8e4fecb78bebfbb79a13994b" target="_top" xlink:title="Returns the index of the register (out of the two alternatives) based on the pin index.">
<polygon fill="white" stroke="#666666" points="499.5,-100 374.5,-100 374.5,-59 499.5,-59 499.5,-100"/>
<text text-anchor="start" x="382.5" y="-88" font-family="Helvetica,sans-Serif" font-size="10.00">zero_mate::peripheral</text>
<text text-anchor="start" x="382.5" y="-77" font-family="Helvetica,sans-Serif" font-size="10.00">::CGPIO_Manager::Get</text>
<text text-anchor="middle" x="437" y="-66" font-family="Helvetica,sans-Serif" font-size="10.00">_Register_Index</text>
</a>
</g>
</g>
<!-- Node8&#45;&gt;Node9 -->
<g id="edge8_Node000008_Node000009" class="edge">
<title>Node8&#45;&gt;Node9</title>
<g id="a_edge8_Node000008_Node000009"><a xlink:title=" ">
<path fill="none" stroke="#63b8ff" d="M320.62,-79.5C334.8,-79.5 349.79,-79.5 364.12,-79.5"/>
<polygon fill="#63b8ff" stroke="#63b8ff" points="364.4,-83 374.4,-79.5 364.4,-76 364.4,-83"/>
</a>
</g>
</g>
<!-- Node11&#45;&gt;Node3 -->
<g id="edge11_Node000011_Node000003" class="edge">
<title>Node11&#45;&gt;Node3</title>
<g id="a_edge11_Node000011_Node000003"><a xlink:title=" ">
<path fill="none" stroke="#63b8ff" d="M306.92,-214.47C321.1,-210.52 336.74,-206.16 352.1,-201.88"/>
<polygon fill="#63b8ff" stroke="#63b8ff" points="353.43,-205.14 362.13,-199.09 351.55,-198.4 353.43,-205.14"/>
</a>
</g>
</g>
<!-- Node11&#45;&gt;Node6 -->
<g id="edge12_Node000011_Node000006" class="edge">
<title>Node11&#45;&gt;Node6</title>
<g id="a_edge12_Node000011_Node000006"><a xlink:title=" ">
<path fill="none" stroke="#63b8ff" d="M325.06,-230.68C334,-230.83 343.2,-230.98 352.29,-231.13"/>
<polygon fill="#63b8ff" stroke="#63b8ff" points="352.44,-234.63 362.5,-231.3 352.56,-227.63 352.44,-234.63"/>
</a>
</g>
</g>
</g>
</svg>
