<?xml version="1.0" encoding="UTF-8" standalone="no"?>
<!DOCTYPE svg PUBLIC "-//W3C//DTD SVG 1.1//EN"
 "http://www.w3.org/Graphics/SVG/1.1/DTD/svg11.dtd">
<!-- Generated by graphviz version 2.43.0 (0)
 -->
<!-- Title: zero_mate::peripheral::CBSC::I2C_Send_RW_Bit Pages: 1 -->
<svg width="874pt" height="116pt"
 viewBox="0.00 0.00 874.00 116.00" xmlns="http://www.w3.org/2000/svg" xmlns:xlink="http://www.w3.org/1999/xlink">
<g id="graph0" class="graph" transform="scale(1 1) rotate(0) translate(4 112)">
<title>zero_mate::peripheral::CBSC::I2C_Send_RW_Bit</title>
<!-- Node1 -->
<g id="Node000001" class="node">
<title>Node1</title>
<g id="a_Node000001"><a xlink:title="Sends the RW bit.">
<polygon fill="#999999" stroke="#666666" points="140,-57 0,-57 0,-27 140,-27 140,-57"/>
<text text-anchor="start" x="8" y="-45" font-family="Helvetica,sans-Serif" font-size="10.00">zero_mate::peripheral</text>
<text text-anchor="middle" x="70" y="-34" font-family="Helvetica,sans-Serif" font-size="10.00">::CBSC::I2C_Send_RW_Bit</text>
</a>
</g>
</g>
<!-- Node2 -->
<g id="Node000002" class="node">
<title>Node2</title>
<g id="a_Node000002"><a xlink:href="classzero__mate_1_1peripheral_1_1CBSC.html#a74b84158da1933e79f091706e27c12f5" target="_top" xlink:title="Sets the state of a given GPIO pin.">
<polygon fill="white" stroke="#666666" points="300,-57 176,-57 176,-27 300,-27 300,-57"/>
<text text-anchor="start" x="184" y="-45" font-family="Helvetica,sans-Serif" font-size="10.00">zero_mate::peripheral</text>
<text text-anchor="middle" x="238" y="-34" font-family="Helvetica,sans-Serif" font-size="10.00">::CBSC::Set_GPIO_pin</text>
</a>
</g>
</g>
<!-- Node1&#45;&gt;Node2 -->
<g id="edge1_Node000001_Node000002" class="edge">
<title>Node1&#45;&gt;Node2</title>
<g id="a_edge1_Node000001_Node000002"><a xlink:title=" ">
<path fill="none" stroke="#63b8ff" d="M140.44,-42C148.77,-42 157.3,-42 165.66,-42"/>
<polygon fill="#63b8ff" stroke="#63b8ff" points="165.76,-45.5 175.76,-42 165.76,-38.5 165.76,-45.5"/>
</a>
</g>
</g>
<!-- Node3 -->
<g id="Node000003" class="node">
<title>Node3</title>
<g id="a_Node000003"><a xlink:href="classzero__mate_1_1utils_1_1CLogging__System.html#a57ed77e1a5cf822cea532cc5e05c3f60" target="_top" xlink:title="Logs an error message via all registered loggers.">
<polygon fill="white" stroke="#666666" points="482,-57 336,-57 336,-27 482,-27 482,-57"/>
<text text-anchor="start" x="344" y="-45" font-family="Helvetica,sans-Serif" font-size="10.00">zero_mate::utils::CLogging</text>
<text text-anchor="middle" x="409" y="-34" font-family="Helvetica,sans-Serif" font-size="10.00">_System::Error</text>
</a>
</g>
</g>
<!-- Node2&#45;&gt;Node3 -->
<g id="edge2_Node000002_Node000003" class="edge">
<title>Node2&#45;&gt;Node3</title>
<g id="a_edge2_Node000002_Node000003"><a xlink:title=" ">
<path fill="none" stroke="#63b8ff" d="M300.01,-42C308.37,-42 317.06,-42 325.72,-42"/>
<polygon fill="#63b8ff" stroke="#63b8ff" points="325.85,-45.5 335.85,-42 325.85,-38.5 325.85,-45.5"/>
</a>
</g>
</g>
<!-- Node4 -->
<g id="Node000004" class="node">
<title>Node4</title>
<g id="a_Node000004"><a xlink:href="classzero__mate_1_1utils_1_1CLogging__System.html#a71ed11c796553cbe8fd99773406a1060" target="_top" xlink:title="Creates a formatted message to be logged.">
<polygon fill="white" stroke="#666666" points="670,-89.5 518,-89.5 518,-48.5 670,-48.5 670,-89.5"/>
<text text-anchor="start" x="526" y="-77.5" font-family="Helvetica,sans-Serif" font-size="10.00">zero_mate::utils::CLogging</text>
<text text-anchor="start" x="526" y="-66.5" font-family="Helvetica,sans-Serif" font-size="10.00">_System::Create_Formatted</text>
<text text-anchor="middle" x="594" y="-55.5" font-family="Helvetica,sans-Serif" font-size="10.00">_Log_Msg</text>
</a>
</g>
</g>
<!-- Node3&#45;&gt;Node4 -->
<g id="edge3_Node000003_Node000004" class="edge">
<title>Node3&#45;&gt;Node4</title>
<g id="a_edge3_Node000003_Node000004"><a xlink:title=" ">
<path fill="none" stroke="#63b8ff" d="M482.06,-52.63C490.55,-53.88 499.26,-55.17 507.9,-56.44"/>
<polygon fill="#63b8ff" stroke="#63b8ff" points="507.59,-59.94 517.99,-57.93 508.61,-53.01 507.59,-59.94"/>
</a>
</g>
</g>
<!-- Node7 -->
<g id="Node000007" class="node">
<title>Node7</title>
<g id="a_Node000007"><a xlink:href="classzero__mate_1_1utils_1_1CLogging__System.html#ad371c67ef65763966ccf9291002e86f3" target="_top" xlink:title="Extract the filename from a given location within the source files.">
<polygon fill="white" stroke="#666666" points="668.5,-30 519.5,-30 519.5,0 668.5,0 668.5,-30"/>
<text text-anchor="start" x="527.5" y="-18" font-family="Helvetica,sans-Serif" font-size="10.00">zero_mate::utils::CLogging</text>
<text text-anchor="middle" x="594" y="-7" font-family="Helvetica,sans-Serif" font-size="10.00">_System::Extract_Filename</text>
</a>
</g>
</g>
<!-- Node3&#45;&gt;Node7 -->
<g id="edge6_Node000003_Node000007" class="edge">
<title>Node3&#45;&gt;Node7</title>
<g id="a_edge6_Node000003_Node000007"><a xlink:title=" ">
<path fill="none" stroke="#63b8ff" d="M482.06,-31.37C491.1,-30.03 500.4,-28.66 509.59,-27.31"/>
<polygon fill="#63b8ff" stroke="#63b8ff" points="510.12,-30.77 519.5,-25.84 509.1,-23.84 510.12,-30.77"/>
</a>
</g>
</g>
<!-- Node5 -->
<g id="Node000005" class="node">
<title>Node5</title>
<g id="a_Node000005"><a xlink:href="classzero__mate_1_1utils_1_1CLogging__System.html#aa70c102c805079042ffea2a6f2a5ad64" target="_top" xlink:title="Formats a given timestamp.">
<polygon fill="white" stroke="#666666" points="866,-108 706,-108 706,-78 866,-78 866,-108"/>
<text text-anchor="start" x="714" y="-96" font-family="Helvetica,sans-Serif" font-size="10.00">zero_mate::utils::CLogging</text>
<text text-anchor="middle" x="786" y="-85" font-family="Helvetica,sans-Serif" font-size="10.00">_System::Format_Timestamp</text>
</a>
</g>
</g>
<!-- Node4&#45;&gt;Node5 -->
<g id="edge4_Node000004_Node000005" class="edge">
<title>Node4&#45;&gt;Node5</title>
<g id="a_edge4_Node000004_Node000005"><a xlink:title=" ">
<path fill="none" stroke="#63b8ff" d="M670.09,-78.49C678.52,-79.55 687.16,-80.64 695.74,-81.73"/>
<polygon fill="#63b8ff" stroke="#63b8ff" points="695.41,-85.21 705.77,-82.99 696.29,-78.27 695.41,-85.21"/>
</a>
</g>
</g>
<!-- Node6 -->
<g id="Node000006" class="node">
<title>Node6</title>
<g id="a_Node000006"><a xlink:href="classzero__mate_1_1utils_1_1CLogging__System.html#ae3ca637537dde05e0b9119145c840331" target="_top" xlink:title="Returns the current timestamp that will be used in a log message.">
<polygon fill="white" stroke="#666666" points="859,-60 713,-60 713,-30 859,-30 859,-60"/>
<text text-anchor="start" x="721" y="-48" font-family="Helvetica,sans-Serif" font-size="10.00">zero_mate::utils::CLogging</text>
<text text-anchor="middle" x="786" y="-37" font-family="Helvetica,sans-Serif" font-size="10.00">_System::Get_Timestamp</text>
</a>
</g>
</g>
<!-- Node4&#45;&gt;Node6 -->
<g id="edge5_Node000004_Node000006" class="edge">
<title>Node4&#45;&gt;Node6</title>
<g id="a_edge5_Node000004_Node000006"><a xlink:title=" ">
<path fill="none" stroke="#63b8ff" d="M670.09,-59.51C680.89,-58.15 692.05,-56.74 702.98,-55.36"/>
<polygon fill="#63b8ff" stroke="#63b8ff" points="703.45,-58.83 712.93,-54.1 702.57,-51.88 703.45,-58.83"/>
</a>
</g>
</g>
</g>
</svg>
