<?xml version="1.0" encoding="UTF-8" standalone="no"?>
<!DOCTYPE svg PUBLIC "-//W3C//DTD SVG 1.1//EN"
 "http://www.w3.org/Graphics/SVG/1.1/DTD/svg11.dtd">
<!-- Generated by graphviz version 2.43.0 (0)
 -->
<!-- Title: zero_mate::peripheral::CMini_UART::Set_GPIO_pin Pages: 1 -->
<svg width="1026pt" height="216pt"
 viewBox="0.00 0.00 1026.00 215.50" xmlns="http://www.w3.org/2000/svg" xmlns:xlink="http://www.w3.org/1999/xlink">
<g id="graph0" class="graph" transform="scale(1 1) rotate(0) translate(4 211.5)">
<title>zero_mate::peripheral::CMini_UART::Set_GPIO_pin</title>
<!-- Node1 -->
<g id="Node000001" class="node">
<title>Node1</title>
<g id="a_Node000001"><a xlink:title="Sets the state of a given GPIO pin.">
<polygon fill="#999999" stroke="#666666" points="1018,-177.5 866,-177.5 866,-147.5 1018,-147.5 1018,-177.5"/>
<text text-anchor="start" x="874" y="-165.5" font-family="Helvetica,sans-Serif" font-size="10.00">zero_mate::peripheral</text>
<text text-anchor="middle" x="942" y="-154.5" font-family="Helvetica,sans-Serif" font-size="10.00">::CMini_UART::Set_GPIO_pin</text>
</a>
</g>
</g>
<!-- Node2 -->
<g id="Node000002" class="node">
<title>Node2</title>
<g id="a_Node000002"><a xlink:href="classzero__mate_1_1peripheral_1_1CMini__UART.html#a33db8351f94fd39f6c10594c574c8195" target="_top" xlink:title="Sets the state of the RX pin.">
<polygon fill="white" stroke="#666666" points="830,-204.5 688,-204.5 688,-174.5 830,-174.5 830,-204.5"/>
<text text-anchor="start" x="696" y="-192.5" font-family="Helvetica,sans-Serif" font-size="10.00">zero_mate::peripheral</text>
<text text-anchor="middle" x="759" y="-181.5" font-family="Helvetica,sans-Serif" font-size="10.00">::CMini_UART::Set_RX_Pin</text>
</a>
</g>
</g>
<!-- Node1&#45;&gt;Node2 -->
<g id="edge1_Node000001_Node000002" class="edge">
<title>Node1&#45;&gt;Node2</title>
<g id="a_edge1_Node000001_Node000002"><a xlink:title=" ">
<path fill="none" stroke="#63b8ff" d="M855.75,-175.22C847.13,-176.5 838.45,-177.8 830.03,-179.05"/>
<polygon fill="#63b8ff" stroke="#63b8ff" points="856.44,-178.65 865.81,-173.72 855.41,-171.73 856.44,-178.65"/>
</a>
</g>
</g>
<!-- Node4 -->
<g id="Node000004" class="node">
<title>Node4</title>
<g id="a_Node000004"><a xlink:href="classzero__mate_1_1peripheral_1_1CMini__UART.html#aa97db5d47b819acd85beda1dc91cb355" target="_top" xlink:title="Sets the state of the TX pin.">
<polygon fill="white" stroke="#666666" points="829.5,-153.5 688.5,-153.5 688.5,-123.5 829.5,-123.5 829.5,-153.5"/>
<text text-anchor="start" x="696.5" y="-141.5" font-family="Helvetica,sans-Serif" font-size="10.00">zero_mate::peripheral</text>
<text text-anchor="middle" x="759" y="-130.5" font-family="Helvetica,sans-Serif" font-size="10.00">::CMini_UART::Set_TX_Pin</text>
</a>
</g>
</g>
<!-- Node1&#45;&gt;Node4 -->
<g id="edge3_Node000001_Node000004" class="edge">
<title>Node1&#45;&gt;Node4</title>
<g id="a_edge3_Node000001_Node000004"><a xlink:title=" ">
<path fill="none" stroke="#63b8ff" d="M855.66,-151.18C846.98,-150.03 838.23,-148.87 829.74,-147.75"/>
<polygon fill="#63b8ff" stroke="#63b8ff" points="855.44,-154.69 865.81,-152.53 856.36,-147.75 855.44,-154.69"/>
</a>
</g>
</g>
<!-- Node3 -->
<g id="Node000003" class="node">
<title>Node3</title>
<g id="a_Node000003"><a xlink:href="classzero__mate_1_1peripheral_1_1CMini__UART.html#aee9c1b3a2634b94002a0111d1ecdf107" target="_top" xlink:title="Enables/disables the mini UART peripheral.">
<polygon fill="white" stroke="#666666" points="642.5,-207.5 518.5,-207.5 518.5,-177.5 642.5,-177.5 642.5,-207.5"/>
<text text-anchor="start" x="526.5" y="-195.5" font-family="Helvetica,sans-Serif" font-size="10.00">zero_mate::peripheral</text>
<text text-anchor="middle" x="580.5" y="-184.5" font-family="Helvetica,sans-Serif" font-size="10.00">::CMini_UART::Enable</text>
</a>
</g>
</g>
<!-- Node2&#45;&gt;Node3 -->
<g id="edge2_Node000002_Node000003" class="edge">
<title>Node2&#45;&gt;Node3</title>
<g id="a_edge2_Node000002_Node000003"><a xlink:title=" ">
<path fill="none" stroke="#63b8ff" d="M677.69,-190.87C665.89,-191.07 653.91,-191.27 642.58,-191.46"/>
<polygon fill="#63b8ff" stroke="#63b8ff" points="678.05,-194.36 687.99,-190.69 677.93,-187.36 678.05,-194.36"/>
</a>
</g>
</g>
<!-- Node4&#45;&gt;Node3 -->
<g id="edge4_Node000004_Node000003" class="edge">
<title>Node4&#45;&gt;Node3</title>
<g id="a_edge4_Node000004_Node000003"><a xlink:title=" ">
<path fill="none" stroke="#63b8ff" d="M699.18,-156.5C676.97,-163.29 651.95,-170.95 630.71,-177.45"/>
<polygon fill="#63b8ff" stroke="#63b8ff" points="700.3,-159.81 708.83,-153.54 698.25,-153.12 700.3,-159.81"/>
</a>
</g>
</g>
<!-- Node5 -->
<g id="Node000005" class="node">
<title>Node5</title>
<g id="a_Node000005"><a xlink:href="classzero__mate_1_1peripheral_1_1CMini__UART.html#a2c1cebe25a3de866fb30387c9d3e1093" target="_top" xlink:title="Sends another bit of the current payload (actual data).">
<polygon fill="white" stroke="#666666" points="652,-159 509,-159 509,-118 652,-118 652,-159"/>
<text text-anchor="start" x="517" y="-147" font-family="Helvetica,sans-Serif" font-size="10.00">zero_mate::peripheral</text>
<text text-anchor="start" x="517" y="-136" font-family="Helvetica,sans-Serif" font-size="10.00">::CMini_UART::UART_Send</text>
<text text-anchor="middle" x="580.5" y="-125" font-family="Helvetica,sans-Serif" font-size="10.00">_Payload</text>
</a>
</g>
</g>
<!-- Node4&#45;&gt;Node5 -->
<g id="edge5_Node000004_Node000005" class="edge">
<title>Node4&#45;&gt;Node5</title>
<g id="a_edge5_Node000004_Node000005"><a xlink:title=" ">
<path fill="none" stroke="#63b8ff" d="M678.31,-138.5C669.57,-138.5 660.72,-138.5 652.1,-138.5"/>
<polygon fill="#63b8ff" stroke="#63b8ff" points="678.5,-142 688.5,-138.5 678.5,-135 678.5,-142"/>
</a>
</g>
</g>
<!-- Node9 -->
<g id="Node000009" class="node">
<title>Node9</title>
<g id="a_Node000009"><a xlink:href="classzero__mate_1_1peripheral_1_1CMini__UART.html#a8af3940e255317e7282402dce11c2d33" target="_top" xlink:title="Sends a start bit.">
<polygon fill="white" stroke="#666666" points="652,-100 509,-100 509,-59 652,-59 652,-100"/>
<text text-anchor="start" x="517" y="-88" font-family="Helvetica,sans-Serif" font-size="10.00">zero_mate::peripheral</text>
<text text-anchor="start" x="517" y="-77" font-family="Helvetica,sans-Serif" font-size="10.00">::CMini_UART::UART_Send</text>
<text text-anchor="middle" x="580.5" y="-66" font-family="Helvetica,sans-Serif" font-size="10.00">_Start_Bit</text>
</a>
</g>
</g>
<!-- Node4&#45;&gt;Node9 -->
<g id="edge9_Node000004_Node000009" class="edge">
<title>Node4&#45;&gt;Node9</title>
<g id="a_edge9_Node000004_Node000009"><a xlink:title=" ">
<path fill="none" stroke="#63b8ff" d="M703.27,-120.21C684.19,-113.83 662.66,-106.63 643.06,-100.08"/>
<polygon fill="#63b8ff" stroke="#63b8ff" points="702.41,-123.61 713,-123.46 704.63,-116.97 702.41,-123.61"/>
</a>
</g>
</g>
<!-- Node10 -->
<g id="Node000010" class="node">
<title>Node10</title>
<g id="a_Node000010"><a xlink:href="classzero__mate_1_1peripheral_1_1CMini__UART.html#ad15628b6f928101a1844704a58b11cdb" target="_top" xlink:title="Sends a stop bit.">
<polygon fill="white" stroke="#666666" points="652,-41 509,-41 509,0 652,0 652,-41"/>
<text text-anchor="start" x="517" y="-29" font-family="Helvetica,sans-Serif" font-size="10.00">zero_mate::peripheral</text>
<text text-anchor="start" x="517" y="-18" font-family="Helvetica,sans-Serif" font-size="10.00">::CMini_UART::UART_Send</text>
<text text-anchor="middle" x="580.5" y="-7" font-family="Helvetica,sans-Serif" font-size="10.00">_Stop_bit</text>
</a>
</g>
</g>
<!-- Node4&#45;&gt;Node10 -->
<g id="edge11_Node000004_Node000010" class="edge">
<title>Node4&#45;&gt;Node10</title>
<g id="a_edge11_Node000004_Node000010"><a xlink:title=" ">
<path fill="none" stroke="#63b8ff" d="M735.76,-116.27C715.34,-96.76 683.53,-68.59 652,-49.5 647.02,-46.48 641.67,-43.65 636.22,-41.02"/>
<polygon fill="#63b8ff" stroke="#63b8ff" points="733.39,-118.85 743.01,-123.29 738.26,-113.82 733.39,-118.85"/>
</a>
</g>
</g>
<!-- Node6 -->
<g id="Node000006" class="node">
<title>Node6</title>
<g id="a_Node000006"><a xlink:href="classzero__mate_1_1peripheral_1_1CMini__UART.html#a39f26f9ac5a5cb08b2a292f5c6fab6db" target="_top" xlink:title="Updates the transmission state machine.">
<polygon fill="white" stroke="#666666" points="473,-94.5 333,-94.5 333,-64.5 473,-64.5 473,-94.5"/>
<text text-anchor="start" x="341" y="-82.5" font-family="Helvetica,sans-Serif" font-size="10.00">zero_mate::peripheral</text>
<text text-anchor="middle" x="403" y="-71.5" font-family="Helvetica,sans-Serif" font-size="10.00">::CMini_UART::Update_TX</text>
</a>
</g>
</g>
<!-- Node5&#45;&gt;Node6 -->
<g id="edge6_Node000005_Node000006" class="edge">
<title>Node5&#45;&gt;Node6</title>
<g id="a_edge6_Node000005_Node000006"><a xlink:title=" ">
<path fill="none" stroke="#63b8ff" d="M508.62,-114.67C488.41,-107.88 466.95,-100.66 448.76,-94.55"/>
<polygon fill="#63b8ff" stroke="#63b8ff" points="507.52,-118 518.12,-117.86 509.76,-111.36 507.52,-118"/>
</a>
</g>
</g>
<!-- Node7 -->
<g id="Node000007" class="node">
<title>Node7</title>
<g id="a_Node000007"><a xlink:href="classzero__mate_1_1peripheral_1_1CMini__UART.html#a3b75064597a5fbfe9c4c7d1f2e0c7e5f" target="_top" xlink:title="Updates the state machines (transmission/reception).">
<polygon fill="white" stroke="#666666" points="297,-94.5 173,-94.5 173,-64.5 297,-64.5 297,-94.5"/>
<text text-anchor="start" x="181" y="-82.5" font-family="Helvetica,sans-Serif" font-size="10.00">zero_mate::peripheral</text>
<text text-anchor="middle" x="235" y="-71.5" font-family="Helvetica,sans-Serif" font-size="10.00">::CMini_UART::Update</text>
</a>
</g>
</g>
<!-- Node6&#45;&gt;Node7 -->
<g id="edge7_Node000006_Node000007" class="edge">
<title>Node6&#45;&gt;Node7</title>
<g id="a_edge7_Node000006_Node000007"><a xlink:title=" ">
<path fill="none" stroke="#63b8ff" d="M322.32,-79.5C313.89,-79.5 305.41,-79.5 297.24,-79.5"/>
<polygon fill="#63b8ff" stroke="#63b8ff" points="322.56,-83 332.56,-79.5 322.56,-76 322.56,-83"/>
</a>
</g>
</g>
<!-- Node8 -->
<g id="Node000008" class="node">
<title>Node8</title>
<g id="a_Node000008"><a xlink:href="classzero__mate_1_1peripheral_1_1CMini__UART.html#aae5f7e2bbffa6e3881675058a0aedf6f" target="_top" xlink:title="Updates the number of passed CPU cycles (forwarded from the AUX peripheral).">
<polygon fill="white" stroke="#666666" points="137,-100 0,-100 0,-59 137,-59 137,-100"/>
<text text-anchor="start" x="8" y="-88" font-family="Helvetica,sans-Serif" font-size="10.00">zero_mate::peripheral</text>
<text text-anchor="start" x="8" y="-77" font-family="Helvetica,sans-Serif" font-size="10.00">::CMini_UART::Increment</text>
<text text-anchor="middle" x="68.5" y="-66" font-family="Helvetica,sans-Serif" font-size="10.00">_Passed_Cycles</text>
</a>
</g>
</g>
<!-- Node7&#45;&gt;Node8 -->
<g id="edge8_Node000007_Node000008" class="edge">
<title>Node7&#45;&gt;Node8</title>
<g id="a_edge8_Node000007_Node000008"><a xlink:title=" ">
<path fill="none" stroke="#63b8ff" d="M162.56,-79.5C154.13,-79.5 145.54,-79.5 137.16,-79.5"/>
<polygon fill="#63b8ff" stroke="#63b8ff" points="162.75,-83 172.75,-79.5 162.75,-76 162.75,-83"/>
</a>
</g>
</g>
<!-- Node9&#45;&gt;Node6 -->
<g id="edge10_Node000009_Node000006" class="edge">
<title>Node9&#45;&gt;Node6</title>
<g id="a_edge10_Node000009_Node000006"><a xlink:title=" ">
<path fill="none" stroke="#63b8ff" d="M498.83,-79.5C490.22,-79.5 481.51,-79.5 473.05,-79.5"/>
<polygon fill="#63b8ff" stroke="#63b8ff" points="498.88,-83 508.88,-79.5 498.88,-76 498.88,-83"/>
</a>
</g>
</g>
<!-- Node10&#45;&gt;Node6 -->
<g id="edge12_Node000010_Node000006" class="edge">
<title>Node10&#45;&gt;Node6</title>
<g id="a_edge12_Node000010_Node000006"><a xlink:title=" ">
<path fill="none" stroke="#63b8ff" d="M508.62,-44.33C488.41,-51.12 466.95,-58.34 448.76,-64.45"/>
<polygon fill="#63b8ff" stroke="#63b8ff" points="509.76,-47.64 518.12,-41.14 507.52,-41 509.76,-47.64"/>
</a>
</g>
</g>
</g>
</svg>
