<?xml version="1.0" encoding="UTF-8" standalone="no"?>
<!DOCTYPE svg PUBLIC "-//W3C//DTD SVG 1.1//EN"
 "http://www.w3.org/Graphics/SVG/1.1/DTD/svg11.dtd">
<!-- Generated by graphviz version 2.43.0 (0)
 -->
<!-- Title: zero_mate::arm1176jzf_s::CCPU_Context::Verify_SPSR_Accessibility Pages: 1 -->
<svg width="1133pt" height="284pt"
 viewBox="0.00 0.00 1133.00 283.50" xmlns="http://www.w3.org/2000/svg" xmlns:xlink="http://www.w3.org/1999/xlink">
<g id="graph0" class="graph" transform="scale(1 1) rotate(0) translate(4 279.5)">
<title>zero_mate::arm1176jzf_s::CCPU_Context::Verify_SPSR_Accessibility</title>
<!-- Node1 -->
<g id="Node000001" class="node">
<title>Node1</title>
<g id="a_Node000001"><a xlink:title=" ">
<polygon fill="#999999" stroke="#666666" points="1125,-107.5 988,-107.5 988,-66.5 1125,-66.5 1125,-107.5"/>
<text text-anchor="start" x="996" y="-95.5" font-family="Helvetica,sans-Serif" font-size="10.00">zero_mate::arm1176jzf</text>
<text text-anchor="start" x="996" y="-84.5" font-family="Helvetica,sans-Serif" font-size="10.00">_s::CCPU_Context::Verify</text>
<text text-anchor="middle" x="1056.5" y="-73.5" font-family="Helvetica,sans-Serif" font-size="10.00">_SPSR_Accessibility</text>
</a>
</g>
</g>
<!-- Node2 -->
<g id="Node000002" class="node">
<title>Node2</title>
<g id="a_Node000002"><a xlink:href="classzero__mate_1_1arm1176jzf__s_1_1CCPU__Context.html#ae00681efcbc4adfcfde001a67c5baeca" target="_top" xlink:title="Returns the value of the SPSR register of the current CPU mode.">
<polygon fill="white" stroke="#666666" points="952,-174 795,-174 795,-144 952,-144 952,-174"/>
<text text-anchor="start" x="803" y="-162" font-family="Helvetica,sans-Serif" font-size="10.00">zero_mate::arm1176jzf</text>
<text text-anchor="middle" x="873.5" y="-151" font-family="Helvetica,sans-Serif" font-size="10.00">_s::CCPU_Context::Get_SPSR</text>
</a>
</g>
</g>
<!-- Node1&#45;&gt;Node2 -->
<g id="edge1_Node000001_Node000002" class="edge">
<title>Node1&#45;&gt;Node2</title>
<g id="a_edge1_Node000001_Node000002"><a xlink:title=" ">
<path fill="none" stroke="#63b8ff" d="M1005.2,-111.97C988.48,-119.83 969.63,-128.22 952,-135 943.85,-138.14 935.1,-141.16 926.52,-143.94"/>
<polygon fill="#63b8ff" stroke="#63b8ff" points="1006.72,-115.13 1014.25,-107.68 1003.71,-108.8 1006.72,-115.13"/>
</a>
</g>
</g>
<!-- Node13 -->
<g id="Node000013" class="node">
<title>Node13</title>
<g id="a_Node000013"><a xlink:href="classzero__mate_1_1arm1176jzf__s_1_1CCPU__Context.html#a8640117a5d7886b324a368c9dc41288d" target="_top" xlink:title="Returns a reference to the SPSR register of the CPU mode passed in as a parameter.">
<polygon fill="white" stroke="#666666" points="952,-126 795,-126 795,-96 952,-96 952,-126"/>
<text text-anchor="start" x="803" y="-114" font-family="Helvetica,sans-Serif" font-size="10.00">zero_mate::arm1176jzf</text>
<text text-anchor="middle" x="873.5" y="-103" font-family="Helvetica,sans-Serif" font-size="10.00">_s::CCPU_Context::Get_SPSR</text>
</a>
</g>
</g>
<!-- Node1&#45;&gt;Node13 -->
<g id="edge13_Node000001_Node000013" class="edge">
<title>Node1&#45;&gt;Node13</title>
<g id="a_edge13_Node000001_Node000013"><a xlink:title=" ">
<path fill="none" stroke="#63b8ff" d="M977.91,-97.29C969.37,-98.42 960.67,-99.57 952.12,-100.71"/>
<polygon fill="#63b8ff" stroke="#63b8ff" points="978.39,-100.76 987.84,-95.97 977.47,-93.82 978.39,-100.76"/>
</a>
</g>
</g>
<!-- Node14 -->
<g id="Node000014" class="node">
<title>Node14</title>
<g id="a_Node000014"><a xlink:href="classzero__mate_1_1arm1176jzf__s_1_1CCPU__Context.html#a1723b9f6993f17c2d293bd5a5e4d3440" target="_top" xlink:title="Returns a const reference to the SPSR register of the CPU mode passed in as a parameter.">
<polygon fill="white" stroke="#666666" points="952,-78 795,-78 795,-48 952,-48 952,-78"/>
<text text-anchor="start" x="803" y="-66" font-family="Helvetica,sans-Serif" font-size="10.00">zero_mate::arm1176jzf</text>
<text text-anchor="middle" x="873.5" y="-55" font-family="Helvetica,sans-Serif" font-size="10.00">_s::CCPU_Context::Get_SPSR</text>
</a>
</g>
</g>
<!-- Node1&#45;&gt;Node14 -->
<g id="edge14_Node000001_Node000014" class="edge">
<title>Node1&#45;&gt;Node14</title>
<g id="a_edge14_Node000001_Node000014"><a xlink:title=" ">
<path fill="none" stroke="#63b8ff" d="M977.91,-76.71C969.37,-75.58 960.67,-74.43 952.12,-73.29"/>
<polygon fill="#63b8ff" stroke="#63b8ff" points="977.47,-80.18 987.84,-78.03 978.39,-73.24 977.47,-80.18"/>
</a>
</g>
</g>
<!-- Node15 -->
<g id="Node000015" class="node">
<title>Node15</title>
<g id="a_Node000015"><a xlink:href="classzero__mate_1_1arm1176jzf__s_1_1CCPU__Context.html#a1b322131a1168763d2b8083c17a1079b" target="_top" xlink:title="Sets the value of the SPSR register in the CPU mode passed in as a parameter.">
<polygon fill="white" stroke="#666666" points="951,-30 796,-30 796,0 951,0 951,-30"/>
<text text-anchor="start" x="804" y="-18" font-family="Helvetica,sans-Serif" font-size="10.00">zero_mate::arm1176jzf</text>
<text text-anchor="middle" x="873.5" y="-7" font-family="Helvetica,sans-Serif" font-size="10.00">_s::CCPU_Context::Set_SPSR</text>
</a>
</g>
</g>
<!-- Node1&#45;&gt;Node15 -->
<g id="edge15_Node000001_Node000015" class="edge">
<title>Node1&#45;&gt;Node15</title>
<g id="a_edge15_Node000001_Node000015"><a xlink:title=" ">
<path fill="none" stroke="#63b8ff" d="M1005.2,-62.03C988.48,-54.17 969.63,-45.78 952,-39 943.85,-35.86 935.1,-32.84 926.52,-30.06"/>
<polygon fill="#63b8ff" stroke="#63b8ff" points="1003.71,-65.2 1014.25,-66.32 1006.72,-58.87 1003.71,-65.2"/>
</a>
</g>
</g>
<!-- Node3 -->
<g id="Node000003" class="node">
<title>Node3</title>
<g id="a_Node000003"><a xlink:href="classzero__mate_1_1arm1176jzf__s_1_1CCPU__Core.html#a524d4d2622a78e1c416bf4528700bc00" target="_top" xlink:title="Executes a block data transfer instruction.">
<polygon fill="white" stroke="#666666" points="734,-222 602,-222 602,-192 734,-192 734,-222"/>
<text text-anchor="start" x="610" y="-210" font-family="Helvetica,sans-Serif" font-size="10.00">zero_mate::arm1176jzf</text>
<text text-anchor="middle" x="668" y="-199" font-family="Helvetica,sans-Serif" font-size="10.00">_s::CCPU_Core::Execute</text>
</a>
</g>
</g>
<!-- Node2&#45;&gt;Node3 -->
<g id="edge2_Node000002_Node000003" class="edge">
<title>Node2&#45;&gt;Node3</title>
<g id="a_edge2_Node000002_Node000003"><a xlink:title=" ">
<path fill="none" stroke="#63b8ff" d="M798.85,-176.37C777.15,-181.49 753.61,-187.04 732.6,-192"/>
<polygon fill="#63b8ff" stroke="#63b8ff" points="799.74,-179.76 808.67,-174.06 798.13,-172.95 799.74,-179.76"/>
</a>
</g>
</g>
<!-- Node4 -->
<g id="Node000004" class="node">
<title>Node4</title>
<g id="a_Node000004"><a xlink:href="classzero__mate_1_1arm1176jzf__s_1_1CCPU__Core.html#a92c997ad914fb73cec7feb5fa26d8ead" target="_top" xlink:title="Executes a data processing instruction.">
<polygon fill="white" stroke="#666666" points="734,-174 602,-174 602,-144 734,-144 734,-174"/>
<text text-anchor="start" x="610" y="-162" font-family="Helvetica,sans-Serif" font-size="10.00">zero_mate::arm1176jzf</text>
<text text-anchor="middle" x="668" y="-151" font-family="Helvetica,sans-Serif" font-size="10.00">_s::CCPU_Core::Execute</text>
</a>
</g>
</g>
<!-- Node2&#45;&gt;Node4 -->
<g id="edge3_Node000002_Node000004" class="edge">
<title>Node2&#45;&gt;Node4</title>
<g id="a_edge3_Node000002_Node000004"><a xlink:title=" ">
<path fill="none" stroke="#63b8ff" d="M784.52,-159C767.57,-159 750.1,-159 734.04,-159"/>
<polygon fill="#63b8ff" stroke="#63b8ff" points="784.98,-162.5 794.98,-159 784.98,-155.5 784.98,-162.5"/>
</a>
</g>
</g>
<!-- Node5 -->
<g id="Node000005" class="node">
<title>Node5</title>
<g id="a_Node000005"><a xlink:href="classzero__mate_1_1arm1176jzf__s_1_1CCPU__Core.html#aa96f69190ff05fe80c310e85b4d1002c" target="_top" xlink:title="Executes an SRS instruction.">
<polygon fill="white" stroke="#666666" points="734,-126 602,-126 602,-96 734,-96 734,-126"/>
<text text-anchor="start" x="610" y="-114" font-family="Helvetica,sans-Serif" font-size="10.00">zero_mate::arm1176jzf</text>
<text text-anchor="middle" x="668" y="-103" font-family="Helvetica,sans-Serif" font-size="10.00">_s::CCPU_Core::Execute</text>
</a>
</g>
</g>
<!-- Node2&#45;&gt;Node5 -->
<g id="edge4_Node000002_Node000005" class="edge">
<title>Node2&#45;&gt;Node5</title>
<g id="a_edge4_Node000002_Node000005"><a xlink:title=" ">
<path fill="none" stroke="#63b8ff" d="M798.85,-141.63C777.15,-136.51 753.61,-130.96 732.6,-126"/>
<polygon fill="#63b8ff" stroke="#63b8ff" points="798.13,-145.05 808.67,-143.94 799.74,-138.24 798.13,-145.05"/>
</a>
</g>
</g>
<!-- Node6 -->
<g id="Node000006" class="node">
<title>Node6</title>
<g id="a_Node000006"><a xlink:href="classzero__mate_1_1arm1176jzf__s_1_1CCPU__Core.html#a82f0fa55ec787c7a39bac81b7437aec2" target="_top" xlink:title="Executes an MRS instruction (move data from CPSR/SPSR to an ARM register).">
<polygon fill="white" stroke="#666666" points="747.5,-78 588.5,-78 588.5,-48 747.5,-48 747.5,-78"/>
<text text-anchor="start" x="596.5" y="-66" font-family="Helvetica,sans-Serif" font-size="10.00">zero_mate::arm1176jzf</text>
<text text-anchor="middle" x="668" y="-55" font-family="Helvetica,sans-Serif" font-size="10.00">_s::CCPU_Core::Execute_MRS</text>
</a>
</g>
</g>
<!-- Node2&#45;&gt;Node6 -->
<g id="edge5_Node000002_Node000006" class="edge">
<title>Node2&#45;&gt;Node6</title>
<g id="a_edge5_Node000002_Node000006"><a xlink:title=" ">
<path fill="none" stroke="#63b8ff" d="M801.61,-139.21C799.33,-137.89 797.12,-136.49 795,-135 773.2,-119.64 781.1,-101.92 759,-87 753.91,-83.56 748.34,-80.61 742.56,-78.09"/>
<polygon fill="#63b8ff" stroke="#63b8ff" points="800.22,-142.42 810.71,-143.87 803.41,-136.19 800.22,-142.42"/>
</a>
</g>
</g>
<!-- Node8 -->
<g id="Node000008" class="node">
<title>Node8</title>
<g id="a_Node000008"><a xlink:href="classzero__mate_1_1arm1176jzf__s_1_1CCPU__Core.html#abe7461d09a52f28f99037717f61975c6" target="_top" xlink:title="Executes an MSR instruction (move data to CPSR/SPSR from an ARM register).">
<polygon fill="white" stroke="#666666" points="747.5,-30 588.5,-30 588.5,0 747.5,0 747.5,-30"/>
<text text-anchor="start" x="596.5" y="-18" font-family="Helvetica,sans-Serif" font-size="10.00">zero_mate::arm1176jzf</text>
<text text-anchor="middle" x="668" y="-7" font-family="Helvetica,sans-Serif" font-size="10.00">_s::CCPU_Core::Execute_MSR</text>
</a>
</g>
</g>
<!-- Node2&#45;&gt;Node8 -->
<g id="edge7_Node000002_Node000008" class="edge">
<title>Node2&#45;&gt;Node8</title>
<g id="a_edge7_Node000002_Node000008"><a xlink:title=" ">
<path fill="none" stroke="#63b8ff" d="M798.97,-138.41C797.59,-137.33 796.27,-136.2 795,-135 761.85,-103.73 792.76,-69.6 759,-39 755.29,-35.63 751.15,-32.73 746.75,-30.23"/>
<polygon fill="#63b8ff" stroke="#63b8ff" points="797.08,-141.36 807.34,-144 800.97,-135.54 797.08,-141.36"/>
</a>
</g>
</g>
<!-- Node9 -->
<g id="Node000009" class="node">
<title>Node9</title>
<g id="a_Node000009"><a xlink:href="classzero__mate_1_1gui_1_1CRegisters__Window.html#a1779ad3caf45c3e8dd342ef8057dfff7" target="_top" xlink:title="Renders table with CPU registers of a given CPU mode.">
<polygon fill="white" stroke="#666666" points="759,-270 577,-270 577,-240 759,-240 759,-270"/>
<text text-anchor="start" x="585" y="-258" font-family="Helvetica,sans-Serif" font-size="10.00">zero_mate::gui::CRegisters</text>
<text text-anchor="middle" x="668" y="-247" font-family="Helvetica,sans-Serif" font-size="10.00">_Window::Render_Registers_Table</text>
</a>
</g>
</g>
<!-- Node2&#45;&gt;Node9 -->
<g id="edge9_Node000002_Node000009" class="edge">
<title>Node2&#45;&gt;Node9</title>
<g id="a_edge9_Node000002_Node000009"><a xlink:title=" ">
<path fill="none" stroke="#63b8ff" d="M844.37,-180.28C822.19,-196.19 789.95,-217.44 759,-231 751.3,-234.37 743.01,-237.37 734.7,-240"/>
<polygon fill="#63b8ff" stroke="#63b8ff" points="846.62,-182.98 852.64,-174.26 842.5,-177.32 846.62,-182.98"/>
</a>
</g>
</g>
<!-- Node7 -->
<g id="Node000007" class="node">
<title>Node7</title>
<g id="a_Node000007"><a xlink:href="classzero__mate_1_1arm1176jzf__s_1_1CCPU__Core.html#a3a90c040b3cbe4545a9acc5e35acdd45" target="_top" xlink:title="Executes a PSR transfer instruction.">
<polygon fill="white" stroke="#666666" points="520.5,-54 388.5,-54 388.5,-24 520.5,-24 520.5,-54"/>
<text text-anchor="start" x="396.5" y="-42" font-family="Helvetica,sans-Serif" font-size="10.00">zero_mate::arm1176jzf</text>
<text text-anchor="middle" x="454.5" y="-31" font-family="Helvetica,sans-Serif" font-size="10.00">_s::CCPU_Core::Execute</text>
</a>
</g>
</g>
<!-- Node6&#45;&gt;Node7 -->
<g id="edge6_Node000006_Node000007" class="edge">
<title>Node6&#45;&gt;Node7</title>
<g id="a_edge6_Node000006_Node000007"><a xlink:title=" ">
<path fill="none" stroke="#63b8ff" d="M578.26,-52.93C559.01,-50.75 538.99,-48.47 520.83,-46.41"/>
<polygon fill="#63b8ff" stroke="#63b8ff" points="577.91,-56.41 588.25,-54.06 578.7,-49.46 577.91,-56.41"/>
</a>
</g>
</g>
<!-- Node8&#45;&gt;Node7 -->
<g id="edge8_Node000008_Node000007" class="edge">
<title>Node8&#45;&gt;Node7</title>
<g id="a_edge8_Node000008_Node000007"><a xlink:title=" ">
<path fill="none" stroke="#63b8ff" d="M578.26,-25.07C559.01,-27.25 538.99,-29.53 520.83,-31.59"/>
<polygon fill="#63b8ff" stroke="#63b8ff" points="578.7,-28.54 588.25,-23.94 577.91,-21.59 578.7,-28.54"/>
</a>
</g>
</g>
<!-- Node10 -->
<g id="Node000010" class="node">
<title>Node10</title>
<g id="a_Node000010"><a xlink:href="classzero__mate_1_1gui_1_1CRegisters__Window.html#a25928c2ab0086154b73843f84a831953" target="_top" xlink:title="Renders different format tabs of a given CPU mode.">
<polygon fill="white" stroke="#666666" points="541,-270 368,-270 368,-240 541,-240 541,-270"/>
<text text-anchor="start" x="376" y="-258" font-family="Helvetica,sans-Serif" font-size="10.00">zero_mate::gui::CRegisters</text>
<text text-anchor="middle" x="454.5" y="-247" font-family="Helvetica,sans-Serif" font-size="10.00">_Window::Render_Register_Tabs</text>
</a>
</g>
</g>
<!-- Node9&#45;&gt;Node10 -->
<g id="edge10_Node000009_Node000010" class="edge">
<title>Node9&#45;&gt;Node10</title>
<g id="a_edge10_Node000009_Node000010"><a xlink:title=" ">
<path fill="none" stroke="#63b8ff" d="M566.89,-255C558.25,-255 549.56,-255 541.05,-255"/>
<polygon fill="#63b8ff" stroke="#63b8ff" points="567,-258.5 577,-255 567,-251.5 567,-258.5"/>
</a>
</g>
</g>
<!-- Node11 -->
<g id="Node000011" class="node">
<title>Node11</title>
<g id="a_Node000011"><a xlink:href="classzero__mate_1_1gui_1_1CRegisters__Window.html#ac9b00209a3db86452bf51d8f4c9dbf72" target="_top" xlink:title="Renders tabs for different CPU modes (SVC, IRQ, FIQ, etc.)">
<polygon fill="white" stroke="#666666" points="332,-275.5 184,-275.5 184,-234.5 332,-234.5 332,-275.5"/>
<text text-anchor="start" x="192" y="-263.5" font-family="Helvetica,sans-Serif" font-size="10.00">zero_mate::gui::CRegisters</text>
<text text-anchor="start" x="192" y="-252.5" font-family="Helvetica,sans-Serif" font-size="10.00">_Window::Render_Register</text>
<text text-anchor="middle" x="258" y="-241.5" font-family="Helvetica,sans-Serif" font-size="10.00">_Modes_Tabs</text>
</a>
</g>
</g>
<!-- Node10&#45;&gt;Node11 -->
<g id="edge11_Node000010_Node000011" class="edge">
<title>Node10&#45;&gt;Node11</title>
<g id="a_edge11_Node000010_Node000011"><a xlink:title=" ">
<path fill="none" stroke="#63b8ff" d="M357.81,-255C349.18,-255 340.54,-255 332.15,-255"/>
<polygon fill="#63b8ff" stroke="#63b8ff" points="357.91,-258.5 367.91,-255 357.91,-251.5 357.91,-258.5"/>
</a>
</g>
</g>
<!-- Node12 -->
<g id="Node000012" class="node">
<title>Node12</title>
<g id="a_Node000012"><a xlink:href="classzero__mate_1_1gui_1_1CRegisters__Window.html#a12beb19205052a340193be90b32e5717" target="_top" xlink:title="Renders the windows (IGUI_Window interface).">
<polygon fill="white" stroke="#666666" points="148,-270 0,-270 0,-240 148,-240 148,-270"/>
<text text-anchor="start" x="8" y="-258" font-family="Helvetica,sans-Serif" font-size="10.00">zero_mate::gui::CRegisters</text>
<text text-anchor="middle" x="74" y="-247" font-family="Helvetica,sans-Serif" font-size="10.00">_Window::Render</text>
</a>
</g>
</g>
<!-- Node11&#45;&gt;Node12 -->
<g id="edge12_Node000011_Node000012" class="edge">
<title>Node11&#45;&gt;Node12</title>
<g id="a_edge12_Node000011_Node000012"><a xlink:title=" ">
<path fill="none" stroke="#63b8ff" d="M173.48,-255C165.01,-255 156.44,-255 148.09,-255"/>
<polygon fill="#63b8ff" stroke="#63b8ff" points="173.76,-258.5 183.76,-255 173.76,-251.5 173.76,-258.5"/>
</a>
</g>
</g>
<!-- Node15&#45;&gt;Node8 -->
<g id="edge16_Node000015_Node000008" class="edge">
<title>Node15&#45;&gt;Node8</title>
<g id="a_edge16_Node000015_Node000008"><a xlink:title=" ">
<path fill="none" stroke="#63b8ff" d="M785.77,-15C773.1,-15 760.11,-15 747.61,-15"/>
<polygon fill="#63b8ff" stroke="#63b8ff" points="785.86,-18.5 795.86,-15 785.86,-11.5 785.86,-18.5"/>
</a>
</g>
</g>
</g>
</svg>
