<?xml version="1.0" encoding="UTF-8" standalone="no"?>
<!DOCTYPE svg PUBLIC "-//W3C//DTD SVG 1.1//EN"
 "http://www.w3.org/Graphics/SVG/1.1/DTD/svg11.dtd">
<!-- Generated by graphviz version 2.43.0 (0)
 -->
<!-- Title: zero_mate::peripheral::CBSC::Should_Transaction_Begin Pages: 1 -->
<svg width="519pt" height="49pt"
 viewBox="0.00 0.00 519.00 49.00" xmlns="http://www.w3.org/2000/svg" xmlns:xlink="http://www.w3.org/1999/xlink">
<g id="graph0" class="graph" transform="scale(1 1) rotate(0) translate(4 45)">
<title>zero_mate::peripheral::CBSC::Should_Transaction_Begin</title>
<!-- Node1 -->
<g id="Node000001" class="node">
<title>Node1</title>
<g id="a_Node000001"><a xlink:title="Checks whether a new data transfer (transaction) should begin.">
<polygon fill="#999999" stroke="#666666" points="511,-41 357,-41 357,0 511,0 511,-41"/>
<text text-anchor="start" x="365" y="-29" font-family="Helvetica,sans-Serif" font-size="10.00">zero_mate::peripheral</text>
<text text-anchor="start" x="365" y="-18" font-family="Helvetica,sans-Serif" font-size="10.00">::CBSC::Should_Transaction_</text>
<text text-anchor="middle" x="434" y="-7" font-family="Helvetica,sans-Serif" font-size="10.00">Begin</text>
</a>
</g>
</g>
<!-- Node2 -->
<g id="Node000002" class="node">
<title>Node2</title>
<g id="a_Node000002"><a xlink:href="classzero__mate_1_1peripheral_1_1CBSC.html#ab743dd233479745864da73cf7020ba15" target="_top" xlink:title="Performs actions after the control register has been written to.">
<polygon fill="white" stroke="#666666" points="321,-35.5 160,-35.5 160,-5.5 321,-5.5 321,-35.5"/>
<text text-anchor="start" x="168" y="-23.5" font-family="Helvetica,sans-Serif" font-size="10.00">zero_mate::peripheral</text>
<text text-anchor="middle" x="240.5" y="-12.5" font-family="Helvetica,sans-Serif" font-size="10.00">::CBSC::Control_Reg_Callback</text>
</a>
</g>
</g>
<!-- Node1&#45;&gt;Node2 -->
<g id="edge1_Node000001_Node000002" class="edge">
<title>Node1&#45;&gt;Node2</title>
<g id="a_edge1_Node000001_Node000002"><a xlink:title=" ">
<path fill="none" stroke="#63b8ff" d="M346.55,-20.5C338.12,-20.5 329.6,-20.5 321.24,-20.5"/>
<polygon fill="#63b8ff" stroke="#63b8ff" points="346.76,-24 356.76,-20.5 346.76,-17 346.76,-24"/>
</a>
</g>
</g>
<!-- Node3 -->
<g id="Node000003" class="node">
<title>Node3</title>
<g id="a_Node000003"><a xlink:href="classzero__mate_1_1peripheral_1_1CBSC.html#a91d31c6b0a9fa05ef7d1488f3e67247d" target="_top" xlink:title="Writes data to the peripheral (IPeripheral interface).">
<polygon fill="white" stroke="#666666" points="124,-35.5 0,-35.5 0,-5.5 124,-5.5 124,-35.5"/>
<text text-anchor="start" x="8" y="-23.5" font-family="Helvetica,sans-Serif" font-size="10.00">zero_mate::peripheral</text>
<text text-anchor="middle" x="62" y="-12.5" font-family="Helvetica,sans-Serif" font-size="10.00">::CBSC::Write</text>
</a>
</g>
</g>
<!-- Node2&#45;&gt;Node3 -->
<g id="edge2_Node000002_Node000003" class="edge">
<title>Node2&#45;&gt;Node3</title>
<g id="a_edge2_Node000002_Node000003"><a xlink:title=" ">
<path fill="none" stroke="#63b8ff" d="M149.64,-20.5C141.01,-20.5 132.39,-20.5 124.13,-20.5"/>
<polygon fill="#63b8ff" stroke="#63b8ff" points="149.77,-24 159.77,-20.5 149.77,-17 149.77,-24"/>
</a>
</g>
</g>
</g>
</svg>
