<?xml version="1.0" encoding="UTF-8" standalone="no"?>
<!DOCTYPE svg PUBLIC "-//W3C//DTD SVG 1.1//EN"
 "http://www.w3.org/Graphics/SVG/1.1/DTD/svg11.dtd">
<!-- Generated by graphviz version 2.43.0 (0)
 -->
<!-- Title: zero_mate::arm1176jzf_s::CCPU_Context::Set_CPSR Pages: 1 -->
<svg width="730pt" height="267pt"
 viewBox="0.00 0.00 730.00 266.50" xmlns="http://www.w3.org/2000/svg" xmlns:xlink="http://www.w3.org/1999/xlink">
<g id="graph0" class="graph" transform="scale(1 1) rotate(0) translate(4 262.5)">
<title>zero_mate::arm1176jzf_s::CCPU_Context::Set_CPSR</title>
<!-- Node1 -->
<g id="Node000001" class="node">
<title>Node1</title>
<g id="a_Node000001"><a xlink:title="Sets a new value to the CPSR register.">
<polygon fill="#999999" stroke="#666666" points="156,-123.5 0,-123.5 0,-93.5 156,-93.5 156,-123.5"/>
<text text-anchor="start" x="8" y="-111.5" font-family="Helvetica,sans-Serif" font-size="10.00">zero_mate::arm1176jzf</text>
<text text-anchor="middle" x="78" y="-100.5" font-family="Helvetica,sans-Serif" font-size="10.00">_s::CCPU_Context::Set_CPSR</text>
</a>
</g>
</g>
<!-- Node2 -->
<g id="Node000002" class="node">
<title>Node2</title>
<g id="a_Node000002"><a xlink:href="classzero__mate_1_1utils_1_1CLogging__System.html#a57ed77e1a5cf822cea532cc5e05c3f60" target="_top" xlink:title="Logs an error message via all registered loggers.">
<polygon fill="white" stroke="#666666" points="338,-207.5 192,-207.5 192,-177.5 338,-177.5 338,-207.5"/>
<text text-anchor="start" x="200" y="-195.5" font-family="Helvetica,sans-Serif" font-size="10.00">zero_mate::utils::CLogging</text>
<text text-anchor="middle" x="265" y="-184.5" font-family="Helvetica,sans-Serif" font-size="10.00">_System::Error</text>
</a>
</g>
</g>
<!-- Node1&#45;&gt;Node2 -->
<g id="edge1_Node000001_Node000002" class="edge">
<title>Node1&#45;&gt;Node2</title>
<g id="a_edge1_Node000001_Node000002"><a xlink:title=" ">
<path fill="none" stroke="#63b8ff" d="M105.4,-123.7C127.97,-136.34 161.52,-154.34 192,-167.5 197.09,-169.7 202.44,-171.84 207.83,-173.9"/>
<polygon fill="#63b8ff" stroke="#63b8ff" points="206.93,-177.3 217.52,-177.49 209.36,-170.73 206.93,-177.3"/>
</a>
</g>
</g>
<!-- Node7 -->
<g id="Node000007" class="node">
<title>Node7</title>
<g id="a_Node000007"><a xlink:href="classzero__mate_1_1arm1176jzf__s_1_1CCPU__Context.html#aa740f9219bb413d707ac72f373e60d3a" target="_top" xlink:title="Returns the current mode of the CPU.">
<polygon fill="white" stroke="#666666" points="330,-159 200,-159 200,-118 330,-118 330,-159"/>
<text text-anchor="start" x="208" y="-147" font-family="Helvetica,sans-Serif" font-size="10.00">zero_mate::arm1176jzf</text>
<text text-anchor="start" x="208" y="-136" font-family="Helvetica,sans-Serif" font-size="10.00">_s::CCPU_Context::Get</text>
<text text-anchor="middle" x="265" y="-125" font-family="Helvetica,sans-Serif" font-size="10.00">_CPU_Mode</text>
</a>
</g>
</g>
<!-- Node1&#45;&gt;Node7 -->
<g id="edge6_Node000001_Node000007" class="edge">
<title>Node1&#45;&gt;Node7</title>
<g id="a_edge6_Node000001_Node000007"><a xlink:title=" ">
<path fill="none" stroke="#63b8ff" d="M156.12,-121.01C167.28,-122.81 178.74,-124.67 189.84,-126.47"/>
<polygon fill="#63b8ff" stroke="#63b8ff" points="189.48,-129.96 199.91,-128.11 190.6,-123.05 189.48,-129.96"/>
</a>
</g>
</g>
<!-- Node8 -->
<g id="Node000008" class="node">
<title>Node8</title>
<g id="a_Node000008"><a xlink:href="classzero__mate_1_1arm1176jzf__s_1_1CCPU__Context.html#aa53dae8f0dd16d916a852e572dfa95ba" target="_top" xlink:title="Checks if there is an invalid attempt to change the control bits of the CPSR register.">
<polygon fill="white" stroke="#666666" points="336.5,-100 193.5,-100 193.5,-59 336.5,-59 336.5,-100"/>
<text text-anchor="start" x="201.5" y="-88" font-family="Helvetica,sans-Serif" font-size="10.00">zero_mate::arm1176jzf</text>
<text text-anchor="start" x="201.5" y="-77" font-family="Helvetica,sans-Serif" font-size="10.00">_s::CCPU_Context::Invalid</text>
<text text-anchor="middle" x="265" y="-66" font-family="Helvetica,sans-Serif" font-size="10.00">_Change_Of_Control_Bits</text>
</a>
</g>
</g>
<!-- Node1&#45;&gt;Node8 -->
<g id="edge7_Node000001_Node000008" class="edge">
<title>Node1&#45;&gt;Node8</title>
<g id="a_edge7_Node000001_Node000008"><a xlink:title=" ">
<path fill="none" stroke="#63b8ff" d="M156.12,-96.41C165.05,-95.01 174.18,-93.58 183.16,-92.17"/>
<polygon fill="#63b8ff" stroke="#63b8ff" points="183.88,-95.6 193.22,-90.6 182.79,-88.69 183.88,-95.6"/>
</a>
</g>
</g>
<!-- Node9 -->
<g id="Node000009" class="node">
<title>Node9</title>
<g id="a_Node000009"><a xlink:href="classzero__mate_1_1arm1176jzf__s_1_1CCPU__Context.html#a7efff674f8141eab73cb69099220f0d5" target="_top" xlink:title="Sets the mode of the CPU.">
<polygon fill="white" stroke="#666666" points="330,-41 200,-41 200,0 330,0 330,-41"/>
<text text-anchor="start" x="208" y="-29" font-family="Helvetica,sans-Serif" font-size="10.00">zero_mate::arm1176jzf</text>
<text text-anchor="start" x="208" y="-18" font-family="Helvetica,sans-Serif" font-size="10.00">_s::CCPU_Context::Set</text>
<text text-anchor="middle" x="265" y="-7" font-family="Helvetica,sans-Serif" font-size="10.00">_CPU_Mode</text>
</a>
</g>
</g>
<!-- Node1&#45;&gt;Node9 -->
<g id="edge8_Node000001_Node000009" class="edge">
<title>Node1&#45;&gt;Node9</title>
<g id="a_edge8_Node000001_Node000009"><a xlink:title=" ">
<path fill="none" stroke="#63b8ff" d="M106.03,-93.43C128.69,-81.03 162.05,-63.31 192,-49.5 195.15,-48.05 198.4,-46.59 201.7,-45.15"/>
<polygon fill="#63b8ff" stroke="#63b8ff" points="203.24,-48.29 211.05,-41.13 200.48,-41.86 203.24,-48.29"/>
</a>
</g>
</g>
<!-- Node3 -->
<g id="Node000003" class="node">
<title>Node3</title>
<g id="a_Node000003"><a xlink:href="classzero__mate_1_1utils_1_1CLogging__System.html#a71ed11c796553cbe8fd99773406a1060" target="_top" xlink:title="Creates a formatted message to be logged.">
<polygon fill="white" stroke="#666666" points="526,-240 374,-240 374,-199 526,-199 526,-240"/>
<text text-anchor="start" x="382" y="-228" font-family="Helvetica,sans-Serif" font-size="10.00">zero_mate::utils::CLogging</text>
<text text-anchor="start" x="382" y="-217" font-family="Helvetica,sans-Serif" font-size="10.00">_System::Create_Formatted</text>
<text text-anchor="middle" x="450" y="-206" font-family="Helvetica,sans-Serif" font-size="10.00">_Log_Msg</text>
</a>
</g>
</g>
<!-- Node2&#45;&gt;Node3 -->
<g id="edge2_Node000002_Node000003" class="edge">
<title>Node2&#45;&gt;Node3</title>
<g id="a_edge2_Node000002_Node000003"><a xlink:title=" ">
<path fill="none" stroke="#63b8ff" d="M338.06,-203.13C346.55,-204.38 355.26,-205.67 363.9,-206.94"/>
<polygon fill="#63b8ff" stroke="#63b8ff" points="363.59,-210.44 373.99,-208.43 364.61,-203.51 363.59,-210.44"/>
</a>
</g>
</g>
<!-- Node6 -->
<g id="Node000006" class="node">
<title>Node6</title>
<g id="a_Node000006"><a xlink:href="classzero__mate_1_1utils_1_1CLogging__System.html#ad371c67ef65763966ccf9291002e86f3" target="_top" xlink:title="Extract the filename from a given location within the source files.">
<polygon fill="white" stroke="#666666" points="524.5,-180.5 375.5,-180.5 375.5,-150.5 524.5,-150.5 524.5,-180.5"/>
<text text-anchor="start" x="383.5" y="-168.5" font-family="Helvetica,sans-Serif" font-size="10.00">zero_mate::utils::CLogging</text>
<text text-anchor="middle" x="450" y="-157.5" font-family="Helvetica,sans-Serif" font-size="10.00">_System::Extract_Filename</text>
</a>
</g>
</g>
<!-- Node2&#45;&gt;Node6 -->
<g id="edge5_Node000002_Node000006" class="edge">
<title>Node2&#45;&gt;Node6</title>
<g id="a_edge5_Node000002_Node000006"><a xlink:title=" ">
<path fill="none" stroke="#63b8ff" d="M338.06,-181.87C347.1,-180.53 356.4,-179.16 365.59,-177.81"/>
<polygon fill="#63b8ff" stroke="#63b8ff" points="366.12,-181.27 375.5,-176.34 365.1,-174.34 366.12,-181.27"/>
</a>
</g>
</g>
<!-- Node4 -->
<g id="Node000004" class="node">
<title>Node4</title>
<g id="a_Node000004"><a xlink:href="classzero__mate_1_1utils_1_1CLogging__System.html#aa70c102c805079042ffea2a6f2a5ad64" target="_top" xlink:title="Formats a given timestamp.">
<polygon fill="white" stroke="#666666" points="722,-258.5 562,-258.5 562,-228.5 722,-228.5 722,-258.5"/>
<text text-anchor="start" x="570" y="-246.5" font-family="Helvetica,sans-Serif" font-size="10.00">zero_mate::utils::CLogging</text>
<text text-anchor="middle" x="642" y="-235.5" font-family="Helvetica,sans-Serif" font-size="10.00">_System::Format_Timestamp</text>
</a>
</g>
</g>
<!-- Node3&#45;&gt;Node4 -->
<g id="edge3_Node000003_Node000004" class="edge">
<title>Node3&#45;&gt;Node4</title>
<g id="a_edge3_Node000003_Node000004"><a xlink:title=" ">
<path fill="none" stroke="#63b8ff" d="M526.09,-228.99C534.52,-230.05 543.16,-231.14 551.74,-232.23"/>
<polygon fill="#63b8ff" stroke="#63b8ff" points="551.41,-235.71 561.77,-233.49 552.29,-228.77 551.41,-235.71"/>
</a>
</g>
</g>
<!-- Node5 -->
<g id="Node000005" class="node">
<title>Node5</title>
<g id="a_Node000005"><a xlink:href="classzero__mate_1_1utils_1_1CLogging__System.html#ae3ca637537dde05e0b9119145c840331" target="_top" xlink:title="Returns the current timestamp that will be used in a log message.">
<polygon fill="white" stroke="#666666" points="715,-210.5 569,-210.5 569,-180.5 715,-180.5 715,-210.5"/>
<text text-anchor="start" x="577" y="-198.5" font-family="Helvetica,sans-Serif" font-size="10.00">zero_mate::utils::CLogging</text>
<text text-anchor="middle" x="642" y="-187.5" font-family="Helvetica,sans-Serif" font-size="10.00">_System::Get_Timestamp</text>
</a>
</g>
</g>
<!-- Node3&#45;&gt;Node5 -->
<g id="edge4_Node000003_Node000005" class="edge">
<title>Node3&#45;&gt;Node5</title>
<g id="a_edge4_Node000003_Node000005"><a xlink:title=" ">
<path fill="none" stroke="#63b8ff" d="M526.09,-210.01C536.89,-208.65 548.05,-207.24 558.98,-205.86"/>
<polygon fill="#63b8ff" stroke="#63b8ff" points="559.45,-209.33 568.93,-204.6 558.57,-202.38 559.45,-209.33"/>
</a>
</g>
</g>
</g>
</svg>
