<?xml version="1.0" encoding="UTF-8" standalone="no"?>
<!DOCTYPE svg PUBLIC "-//W3C//DTD SVG 1.1//EN"
 "http://www.w3.org/Graphics/SVG/1.1/DTD/svg11.dtd">
<!-- Generated by graphviz version 2.43.0 (0)
 -->
<!-- Title: zero_mate::peripheral::CBSC::Increment_Passed_Cycles Pages: 1 -->
<svg width="1448pt" height="384pt"
 viewBox="0.00 0.00 1448.00 383.74" xmlns="http://www.w3.org/2000/svg" xmlns:xlink="http://www.w3.org/1999/xlink">
<g id="graph0" class="graph" transform="scale(1 1) rotate(0) translate(4 379.74)">
<title>zero_mate::peripheral::CBSC::Increment_Passed_Cycles</title>
<!-- Node1 -->
<g id="Node000001" class="node">
<title>Node1</title>
<g id="a_Node000001"><a xlink:title="Notifies the peripheral about how many CPU cycles have passed (ISystem_Clock_Listener interface).">
<polygon fill="#999999" stroke="#666666" points="143,-122.24 0,-122.24 0,-81.24 143,-81.24 143,-122.24"/>
<text text-anchor="start" x="8" y="-110.24" font-family="Helvetica,sans-Serif" font-size="10.00">zero_mate::peripheral</text>
<text text-anchor="start" x="8" y="-99.24" font-family="Helvetica,sans-Serif" font-size="10.00">::CBSC::Increment_Passed</text>
<text text-anchor="middle" x="71.5" y="-88.24" font-family="Helvetica,sans-Serif" font-size="10.00">_Cycles</text>
</a>
</g>
</g>
<!-- Node2 -->
<g id="Node000002" class="node">
<title>Node2</title>
<g id="a_Node000002"><a xlink:href="classzero__mate_1_1peripheral_1_1CBSC.html#a3b0dd18504053624d39b9015015bb8fc" target="_top" xlink:title="Updates the I2C state machine.">
<polygon fill="white" stroke="#666666" points="303,-223.74 179,-223.74 179,-193.74 303,-193.74 303,-223.74"/>
<text text-anchor="start" x="187" y="-211.74" font-family="Helvetica,sans-Serif" font-size="10.00">zero_mate::peripheral</text>
<text text-anchor="middle" x="241" y="-200.74" font-family="Helvetica,sans-Serif" font-size="10.00">::CBSC::I2C_Update</text>
</a>
</g>
</g>
<!-- Node1&#45;&gt;Node2 -->
<g id="edge1_Node000001_Node000002" class="edge">
<title>Node1&#45;&gt;Node2</title>
<g id="a_edge1_Node000001_Node000002"><a xlink:title=" ">
<path fill="none" stroke="#63b8ff" d="M104.8,-122.37C134.43,-141.31 178.1,-169.2 207.73,-188.13"/>
<polygon fill="#63b8ff" stroke="#63b8ff" points="206.13,-191.26 216.45,-193.7 209.9,-185.36 206.13,-191.26"/>
</a>
</g>
</g>
<!-- Node11 -->
<g id="Node000011" class="node">
<title>Node11</title>
<g id="a_Node000011"><a xlink:href="classzero__mate_1_1peripheral_1_1CBSC.html#a74b84158da1933e79f091706e27c12f5" target="_top" xlink:title="Sets the state of a given GPIO pin.">
<polygon fill="white" stroke="#666666" points="860,-176.74 736,-176.74 736,-146.74 860,-146.74 860,-176.74"/>
<text text-anchor="start" x="744" y="-164.74" font-family="Helvetica,sans-Serif" font-size="10.00">zero_mate::peripheral</text>
<text text-anchor="middle" x="798" y="-153.74" font-family="Helvetica,sans-Serif" font-size="10.00">::CBSC::Set_GPIO_pin</text>
</a>
</g>
</g>
<!-- Node1&#45;&gt;Node11 -->
<g id="edge24_Node000001_Node000011" class="edge">
<title>Node1&#45;&gt;Node11</title>
<g id="a_edge24_Node000001_Node000011"><a xlink:title=" ">
<path fill="none" stroke="#63b8ff" d="M120.06,-81.19C226.66,-38.35 490.71,49.54 686,-37.74 731.7,-58.17 766.38,-107.74 784.03,-137.65"/>
<polygon fill="#63b8ff" stroke="#63b8ff" points="781.15,-139.67 789.15,-146.61 787.23,-136.19 781.15,-139.67"/>
</a>
</g>
</g>
<!-- Node3 -->
<g id="Node000003" class="node">
<title>Node3</title>
<g id="a_Node000003"><a xlink:href="classzero__mate_1_1peripheral_1_1CBSC.html#aadbb0ba14e605ee9f1be46c02f549aaa" target="_top" xlink:title="Checks whether the slave device has sent ACK_1 as expected.">
<polygon fill="white" stroke="#666666" points="874,-375.74 722,-375.74 722,-345.74 874,-345.74 874,-375.74"/>
<text text-anchor="start" x="730" y="-363.74" font-family="Helvetica,sans-Serif" font-size="10.00">zero_mate::peripheral</text>
<text text-anchor="middle" x="798" y="-352.74" font-family="Helvetica,sans-Serif" font-size="10.00">::CBSC::I2C_Receive_ACK_1</text>
</a>
</g>
</g>
<!-- Node2&#45;&gt;Node3 -->
<g id="edge2_Node000002_Node000003" class="edge">
<title>Node2&#45;&gt;Node3</title>
<g id="a_edge2_Node000002_Node000003"><a xlink:title=" ">
<path fill="none" stroke="#63b8ff" d="M256.04,-223.75C273.75,-241.85 305.92,-272.04 339,-289.74 457.08,-352.93 615.21,-363.97 711.4,-363.95"/>
<polygon fill="#63b8ff" stroke="#63b8ff" points="711.68,-367.45 721.67,-363.91 711.65,-360.45 711.68,-367.45"/>
</a>
</g>
</g>
<!-- Node9 -->
<g id="Node000009" class="node">
<title>Node9</title>
<g id="a_Node000009"><a xlink:href="classzero__mate_1_1peripheral_1_1CBSC.html#a316b2af702507bdc0f385f5cf10bf47a" target="_top" xlink:title="Checks whether the slave device has sent ACK_2 as expected.">
<polygon fill="white" stroke="#666666" points="680,-334.74 528,-334.74 528,-304.74 680,-304.74 680,-334.74"/>
<text text-anchor="start" x="536" y="-322.74" font-family="Helvetica,sans-Serif" font-size="10.00">zero_mate::peripheral</text>
<text text-anchor="middle" x="604" y="-311.74" font-family="Helvetica,sans-Serif" font-size="10.00">::CBSC::I2C_Receive_ACK_2</text>
</a>
</g>
</g>
<!-- Node2&#45;&gt;Node9 -->
<g id="edge8_Node000002_Node000009" class="edge">
<title>Node2&#45;&gt;Node9</title>
<g id="a_edge8_Node000002_Node000009"><a xlink:title=" ">
<path fill="none" stroke="#63b8ff" d="M268.46,-223.87C287.57,-234.28 314.26,-247.8 339,-256.74 397.28,-277.81 465.36,-293.86 517.79,-304.49"/>
<polygon fill="#63b8ff" stroke="#63b8ff" points="517.23,-307.95 527.72,-306.47 518.6,-301.08 517.23,-307.95"/>
</a>
</g>
</g>
<!-- Node10 -->
<g id="Node000010" class="node">
<title>Node10</title>
<g id="a_Node000010"><a xlink:href="classzero__mate_1_1peripheral_1_1CBSC.html#abc87dd5711f004d648286ec13e22bb28" target="_top" xlink:title="Sends another bit of the data payload.">
<polygon fill="white" stroke="#666666" points="668,-286.74 540,-286.74 540,-256.74 668,-256.74 668,-286.74"/>
<text text-anchor="start" x="548" y="-274.74" font-family="Helvetica,sans-Serif" font-size="10.00">zero_mate::peripheral</text>
<text text-anchor="middle" x="604" y="-263.74" font-family="Helvetica,sans-Serif" font-size="10.00">::CBSC::I2C_Send_Data</text>
</a>
</g>
</g>
<!-- Node2&#45;&gt;Node10 -->
<g id="edge10_Node000002_Node000010" class="edge">
<title>Node2&#45;&gt;Node10</title>
<g id="a_edge10_Node000002_Node000010"><a xlink:title=" ">
<path fill="none" stroke="#63b8ff" d="M303.18,-223.29C315.04,-225.92 327.38,-228.53 339,-230.74 403.2,-242.99 476.72,-254.18 529.84,-261.76"/>
<polygon fill="#63b8ff" stroke="#63b8ff" points="529.45,-265.24 539.85,-263.18 530.44,-258.31 529.45,-265.24"/>
</a>
</g>
</g>
<!-- Node12 -->
<g id="Node000012" class="node">
<title>Node12</title>
<g id="a_Node000012"><a xlink:href="classzero__mate_1_1peripheral_1_1CBSC.html#acf265364a9484ecfad37ab0893d981c7" target="_top" xlink:title="Sends the RW bit.">
<polygon fill="white" stroke="#666666" points="674,-238.74 534,-238.74 534,-208.74 674,-208.74 674,-238.74"/>
<text text-anchor="start" x="542" y="-226.74" font-family="Helvetica,sans-Serif" font-size="10.00">zero_mate::peripheral</text>
<text text-anchor="middle" x="604" y="-215.74" font-family="Helvetica,sans-Serif" font-size="10.00">::CBSC::I2C_Send_RW_Bit</text>
</a>
</g>
</g>
<!-- Node2&#45;&gt;Node12 -->
<g id="edge14_Node000002_Node000012" class="edge">
<title>Node2&#45;&gt;Node12</title>
<g id="a_edge14_Node000002_Node000012"><a xlink:title=" ">
<path fill="none" stroke="#63b8ff" d="M303.04,-212.78C314.96,-213.49 327.37,-214.19 339,-214.74 400.95,-217.71 471.12,-220.06 523.54,-221.61"/>
<polygon fill="#63b8ff" stroke="#63b8ff" points="523.68,-225.11 533.78,-221.91 523.88,-218.12 523.68,-225.11"/>
</a>
</g>
</g>
<!-- Node13 -->
<g id="Node000013" class="node">
<title>Node13</title>
<g id="a_Node000013"><a xlink:href="classzero__mate_1_1peripheral_1_1CBSC.html#a0535fad6da893f066addecb99f455192" target="_top" xlink:title="Sends another bit of the slave&#39;s address.">
<polygon fill="white" stroke="#666666" points="478.5,-205.24 346.5,-205.24 346.5,-164.24 478.5,-164.24 478.5,-205.24"/>
<text text-anchor="start" x="354.5" y="-193.24" font-family="Helvetica,sans-Serif" font-size="10.00">zero_mate::peripheral</text>
<text text-anchor="start" x="354.5" y="-182.24" font-family="Helvetica,sans-Serif" font-size="10.00">::CBSC::I2C_Send_Slave</text>
<text text-anchor="middle" x="412.5" y="-171.24" font-family="Helvetica,sans-Serif" font-size="10.00">_Address</text>
</a>
</g>
</g>
<!-- Node2&#45;&gt;Node13 -->
<g id="edge16_Node000002_Node000013" class="edge">
<title>Node2&#45;&gt;Node13</title>
<g id="a_edge16_Node000002_Node000013"><a xlink:title=" ">
<path fill="none" stroke="#63b8ff" d="M303.19,-200.08C313.94,-198.56 325.23,-196.96 336.31,-195.39"/>
<polygon fill="#63b8ff" stroke="#63b8ff" points="336.98,-198.83 346.39,-193.96 336,-191.9 336.98,-198.83"/>
</a>
</g>
</g>
<!-- Node14 -->
<g id="Node000014" class="node">
<title>Node14</title>
<g id="a_Node000014"><a xlink:href="classzero__mate_1_1peripheral_1_1CBSC.html#a3554dd56ba5d95d2eada7b0fd5a92c55" target="_top" xlink:title="Sends a start bit (start of a frame).">
<polygon fill="white" stroke="#666666" points="486,-145.74 339,-145.74 339,-115.74 486,-115.74 486,-145.74"/>
<text text-anchor="start" x="347" y="-133.74" font-family="Helvetica,sans-Serif" font-size="10.00">zero_mate::peripheral</text>
<text text-anchor="middle" x="412.5" y="-122.74" font-family="Helvetica,sans-Serif" font-size="10.00">::CBSC::I2C_Send_Start_Bit</text>
</a>
</g>
</g>
<!-- Node2&#45;&gt;Node14 -->
<g id="edge18_Node000002_Node000014" class="edge">
<title>Node2&#45;&gt;Node14</title>
<g id="a_edge18_Node000002_Node000014"><a xlink:title=" ">
<path fill="none" stroke="#63b8ff" d="M266.94,-193.6C286.19,-182.29 313.72,-166.91 339,-155.74 344.02,-153.52 349.31,-151.37 354.65,-149.32"/>
<polygon fill="#63b8ff" stroke="#63b8ff" points="356.1,-152.51 364.25,-145.75 353.66,-145.95 356.1,-152.51"/>
</a>
</g>
</g>
<!-- Node15 -->
<g id="Node000015" class="node">
<title>Node15</title>
<g id="a_Node000015"><a xlink:href="classzero__mate_1_1peripheral_1_1CBSC.html#aa830cee242bb74a3779bb54c4baee609" target="_top" xlink:title="Sends a stop bit (end of a frame).">
<polygon fill="white" stroke="#666666" points="485.5,-97.74 339.5,-97.74 339.5,-67.74 485.5,-67.74 485.5,-97.74"/>
<text text-anchor="start" x="347.5" y="-85.74" font-family="Helvetica,sans-Serif" font-size="10.00">zero_mate::peripheral</text>
<text text-anchor="middle" x="412.5" y="-74.74" font-family="Helvetica,sans-Serif" font-size="10.00">::CBSC::I2C_Send_Stop_Bit</text>
</a>
</g>
</g>
<!-- Node2&#45;&gt;Node15 -->
<g id="edge20_Node000002_Node000015" class="edge">
<title>Node2&#45;&gt;Node15</title>
<g id="a_edge20_Node000002_Node000015"><a xlink:title=" ">
<path fill="none" stroke="#63b8ff" d="M252.48,-193.71C268.62,-171.61 301.64,-130.43 339,-106.74 341.6,-105.09 344.33,-103.54 347.14,-102.09"/>
<polygon fill="#63b8ff" stroke="#63b8ff" points="348.77,-105.19 356.34,-97.78 345.8,-98.86 348.77,-105.19"/>
</a>
</g>
</g>
<!-- Node4 -->
<g id="Node000004" class="node">
<title>Node4</title>
<g id="a_Node000004"><a xlink:href="classzero__mate_1_1utils_1_1CLogging__System.html#a57ed77e1a5cf822cea532cc5e05c3f60" target="_top" xlink:title="Logs an error message via all registered loggers.">
<polygon fill="white" stroke="#666666" points="1056,-306.74 910,-306.74 910,-276.74 1056,-276.74 1056,-306.74"/>
<text text-anchor="start" x="918" y="-294.74" font-family="Helvetica,sans-Serif" font-size="10.00">zero_mate::utils::CLogging</text>
<text text-anchor="middle" x="983" y="-283.74" font-family="Helvetica,sans-Serif" font-size="10.00">_System::Error</text>
</a>
</g>
</g>
<!-- Node3&#45;&gt;Node4 -->
<g id="edge3_Node000003_Node000004" class="edge">
<title>Node3&#45;&gt;Node4</title>
<g id="a_edge3_Node000003_Node000004"><a xlink:title=" ">
<path fill="none" stroke="#63b8ff" d="M839.16,-345.6C866.57,-335.27 903.08,-321.5 932.32,-310.48"/>
<polygon fill="#63b8ff" stroke="#63b8ff" points="933.81,-313.65 941.93,-306.85 931.34,-307.1 933.81,-313.65"/>
</a>
</g>
</g>
<!-- Node5 -->
<g id="Node000005" class="node">
<title>Node5</title>
<g id="a_Node000005"><a xlink:href="classzero__mate_1_1utils_1_1CLogging__System.html#a71ed11c796553cbe8fd99773406a1060" target="_top" xlink:title="Creates a formatted message to be logged.">
<polygon fill="white" stroke="#666666" points="1244,-339.24 1092,-339.24 1092,-298.24 1244,-298.24 1244,-339.24"/>
<text text-anchor="start" x="1100" y="-327.24" font-family="Helvetica,sans-Serif" font-size="10.00">zero_mate::utils::CLogging</text>
<text text-anchor="start" x="1100" y="-316.24" font-family="Helvetica,sans-Serif" font-size="10.00">_System::Create_Formatted</text>
<text text-anchor="middle" x="1168" y="-305.24" font-family="Helvetica,sans-Serif" font-size="10.00">_Log_Msg</text>
</a>
</g>
</g>
<!-- Node4&#45;&gt;Node5 -->
<g id="edge4_Node000004_Node000005" class="edge">
<title>Node4&#45;&gt;Node5</title>
<g id="a_edge4_Node000004_Node000005"><a xlink:title=" ">
<path fill="none" stroke="#63b8ff" d="M1056.06,-302.38C1064.55,-303.63 1073.26,-304.91 1081.9,-306.19"/>
<polygon fill="#63b8ff" stroke="#63b8ff" points="1081.59,-309.68 1091.99,-307.68 1082.61,-302.75 1081.59,-309.68"/>
</a>
</g>
</g>
<!-- Node8 -->
<g id="Node000008" class="node">
<title>Node8</title>
<g id="a_Node000008"><a xlink:href="classzero__mate_1_1utils_1_1CLogging__System.html#ad371c67ef65763966ccf9291002e86f3" target="_top" xlink:title="Extract the filename from a given location within the source files.">
<polygon fill="white" stroke="#666666" points="1242.5,-279.74 1093.5,-279.74 1093.5,-249.74 1242.5,-249.74 1242.5,-279.74"/>
<text text-anchor="start" x="1101.5" y="-267.74" font-family="Helvetica,sans-Serif" font-size="10.00">zero_mate::utils::CLogging</text>
<text text-anchor="middle" x="1168" y="-256.74" font-family="Helvetica,sans-Serif" font-size="10.00">_System::Extract_Filename</text>
</a>
</g>
</g>
<!-- Node4&#45;&gt;Node8 -->
<g id="edge7_Node000004_Node000008" class="edge">
<title>Node4&#45;&gt;Node8</title>
<g id="a_edge7_Node000004_Node000008"><a xlink:title=" ">
<path fill="none" stroke="#63b8ff" d="M1056.06,-281.11C1065.1,-279.78 1074.4,-278.41 1083.59,-277.05"/>
<polygon fill="#63b8ff" stroke="#63b8ff" points="1084.12,-280.51 1093.5,-275.59 1083.1,-273.58 1084.12,-280.51"/>
</a>
</g>
</g>
<!-- Node6 -->
<g id="Node000006" class="node">
<title>Node6</title>
<g id="a_Node000006"><a xlink:href="classzero__mate_1_1utils_1_1CLogging__System.html#aa70c102c805079042ffea2a6f2a5ad64" target="_top" xlink:title="Formats a given timestamp.">
<polygon fill="white" stroke="#666666" points="1440,-357.74 1280,-357.74 1280,-327.74 1440,-327.74 1440,-357.74"/>
<text text-anchor="start" x="1288" y="-345.74" font-family="Helvetica,sans-Serif" font-size="10.00">zero_mate::utils::CLogging</text>
<text text-anchor="middle" x="1360" y="-334.74" font-family="Helvetica,sans-Serif" font-size="10.00">_System::Format_Timestamp</text>
</a>
</g>
</g>
<!-- Node5&#45;&gt;Node6 -->
<g id="edge5_Node000005_Node000006" class="edge">
<title>Node5&#45;&gt;Node6</title>
<g id="a_edge5_Node000005_Node000006"><a xlink:title=" ">
<path fill="none" stroke="#63b8ff" d="M1244.09,-328.23C1252.52,-329.29 1261.16,-330.38 1269.74,-331.47"/>
<polygon fill="#63b8ff" stroke="#63b8ff" points="1269.41,-334.95 1279.77,-332.74 1270.29,-328.01 1269.41,-334.95"/>
</a>
</g>
</g>
<!-- Node7 -->
<g id="Node000007" class="node">
<title>Node7</title>
<g id="a_Node000007"><a xlink:href="classzero__mate_1_1utils_1_1CLogging__System.html#ae3ca637537dde05e0b9119145c840331" target="_top" xlink:title="Returns the current timestamp that will be used in a log message.">
<polygon fill="white" stroke="#666666" points="1433,-309.74 1287,-309.74 1287,-279.74 1433,-279.74 1433,-309.74"/>
<text text-anchor="start" x="1295" y="-297.74" font-family="Helvetica,sans-Serif" font-size="10.00">zero_mate::utils::CLogging</text>
<text text-anchor="middle" x="1360" y="-286.74" font-family="Helvetica,sans-Serif" font-size="10.00">_System::Get_Timestamp</text>
</a>
</g>
</g>
<!-- Node5&#45;&gt;Node7 -->
<g id="edge6_Node000005_Node000007" class="edge">
<title>Node5&#45;&gt;Node7</title>
<g id="a_edge6_Node000005_Node000007"><a xlink:title=" ">
<path fill="none" stroke="#63b8ff" d="M1244.09,-309.26C1254.89,-307.89 1266.05,-306.48 1276.98,-305.1"/>
<polygon fill="#63b8ff" stroke="#63b8ff" points="1277.45,-308.57 1286.93,-303.85 1276.57,-301.63 1277.45,-308.57"/>
</a>
</g>
</g>
<!-- Node9&#45;&gt;Node4 -->
<g id="edge9_Node000009_Node000004" class="edge">
<title>Node9&#45;&gt;Node4</title>
<g id="a_edge9_Node000009_Node000004"><a xlink:title=" ">
<path fill="none" stroke="#63b8ff" d="M680.39,-314.14C743.82,-309.43 834.37,-302.71 899.69,-297.86"/>
<polygon fill="#63b8ff" stroke="#63b8ff" points="900.23,-301.33 909.94,-297.1 899.71,-294.35 900.23,-301.33"/>
</a>
</g>
</g>
<!-- Node10&#45;&gt;Node4 -->
<g id="edge11_Node000010_Node000004" class="edge">
<title>Node10&#45;&gt;Node4</title>
<g id="a_edge11_Node000010_Node000004"><a xlink:title=" ">
<path fill="none" stroke="#63b8ff" d="M668.1,-275.09C731.73,-278.47 830.26,-283.69 899.93,-287.39"/>
<polygon fill="#63b8ff" stroke="#63b8ff" points="899.82,-290.89 909.99,-287.92 900.19,-283.9 899.82,-290.89"/>
</a>
</g>
</g>
<!-- Node10&#45;&gt;Node11 -->
<g id="edge12_Node000010_Node000011" class="edge">
<title>Node10&#45;&gt;Node11</title>
<g id="a_edge12_Node000010_Node000011"><a xlink:title=" ">
<path fill="none" stroke="#63b8ff" d="M665.26,-256.63C672.41,-254.04 679.47,-251.09 686,-247.74 719.28,-230.69 752.53,-203.19 773.84,-183.89"/>
<polygon fill="#63b8ff" stroke="#63b8ff" points="776.41,-186.28 781.4,-176.94 771.67,-181.13 776.41,-186.28"/>
</a>
</g>
</g>
<!-- Node11&#45;&gt;Node4 -->
<g id="edge13_Node000011_Node000004" class="edge">
<title>Node11&#45;&gt;Node4</title>
<g id="a_edge13_Node000011_Node000004"><a xlink:title=" ">
<path fill="none" stroke="#63b8ff" d="M820.35,-176.91C853,-200.1 915.41,-244.44 952.41,-270.72"/>
<polygon fill="#63b8ff" stroke="#63b8ff" points="950.61,-273.73 960.79,-276.67 954.66,-268.03 950.61,-273.73"/>
</a>
</g>
</g>
<!-- Node12&#45;&gt;Node11 -->
<g id="edge15_Node000012_Node000011" class="edge">
<title>Node12&#45;&gt;Node11</title>
<g id="a_edge15_Node000012_Node000011"><a xlink:title=" ">
<path fill="none" stroke="#63b8ff" d="M651.48,-208.73C678.28,-200.08 712.18,-189.13 740.52,-179.98"/>
<polygon fill="#63b8ff" stroke="#63b8ff" points="741.84,-183.23 750.28,-176.83 739.69,-176.57 741.84,-183.23"/>
</a>
</g>
</g>
<!-- Node13&#45;&gt;Node11 -->
<g id="edge17_Node000013_Node000011" class="edge">
<title>Node13&#45;&gt;Node11</title>
<g id="a_edge17_Node000013_Node000011"><a xlink:title=" ">
<path fill="none" stroke="#63b8ff" d="M478.56,-180.84C547.09,-176.73 654.72,-170.28 725.57,-166.03"/>
<polygon fill="#63b8ff" stroke="#63b8ff" points="725.98,-169.51 735.75,-165.42 725.56,-162.52 725.98,-169.51"/>
</a>
</g>
</g>
<!-- Node14&#45;&gt;Node11 -->
<g id="edge19_Node000014_Node000011" class="edge">
<title>Node14&#45;&gt;Node11</title>
<g id="a_edge19_Node000014_Node000011"><a xlink:title=" ">
<path fill="none" stroke="#63b8ff" d="M486.08,-136.61C554.76,-142.16 657.23,-150.44 725.53,-155.97"/>
<polygon fill="#63b8ff" stroke="#63b8ff" points="725.52,-159.48 735.77,-156.79 726.09,-152.5 725.52,-159.48"/>
</a>
</g>
</g>
<!-- Node15&#45;&gt;Node11 -->
<g id="edge21_Node000015_Node000011" class="edge">
<title>Node15&#45;&gt;Node11</title>
<g id="a_edge21_Node000015_Node000011"><a xlink:title=" ">
<path fill="none" stroke="#63b8ff" d="M485.66,-96C540.67,-106.3 618.26,-121.23 686,-135.74 698.88,-138.5 712.56,-141.58 725.76,-144.63"/>
<polygon fill="#63b8ff" stroke="#63b8ff" points="725.2,-148.1 735.74,-146.95 726.79,-141.28 725.2,-148.1"/>
</a>
</g>
</g>
<!-- Node16 -->
<g id="Node000016" class="node">
<title>Node16</title>
<g id="a_Node000016"><a xlink:href="classzero__mate_1_1peripheral_1_1CBSC.html#a47d44cc0056a39f0404e501c4449355a" target="_top" xlink:title="Terminates an ongoing transaction (stop bit).">
<polygon fill="white" stroke="#666666" points="686,-76.74 522,-76.74 522,-46.74 686,-46.74 686,-76.74"/>
<text text-anchor="start" x="530" y="-64.74" font-family="Helvetica,sans-Serif" font-size="10.00">zero_mate::peripheral</text>
<text text-anchor="middle" x="604" y="-53.74" font-family="Helvetica,sans-Serif" font-size="10.00">::CBSC::Terminate_Transaction</text>
</a>
</g>
</g>
<!-- Node15&#45;&gt;Node16 -->
<g id="edge22_Node000015_Node000016" class="edge">
<title>Node15&#45;&gt;Node16</title>
<g id="a_edge22_Node000015_Node000016"><a xlink:title=" ">
<path fill="none" stroke="#63b8ff" d="M485.68,-74.74C494.18,-73.8 502.93,-72.83 511.64,-71.87"/>
<polygon fill="#63b8ff" stroke="#63b8ff" points="512.28,-75.32 521.84,-70.74 511.51,-68.36 512.28,-75.32"/>
</a>
</g>
</g>
<!-- Node16&#45;&gt;Node11 -->
<g id="edge23_Node000016_Node000011" class="edge">
<title>Node16&#45;&gt;Node11</title>
<g id="a_edge23_Node000016_Node000011"><a xlink:title=" ">
<path fill="none" stroke="#63b8ff" d="M652.86,-76.86C663.94,-80.91 675.54,-85.61 686,-90.74 715.37,-105.16 746.56,-125.63 768.38,-140.89"/>
<polygon fill="#63b8ff" stroke="#63b8ff" points="766.36,-143.75 776.55,-146.66 770.4,-138.03 766.36,-143.75"/>
</a>
</g>
</g>
</g>
</svg>
