<?xml version="1.0" encoding="UTF-8" standalone="no"?>
<!DOCTYPE svg PUBLIC "-//W3C//DTD SVG 1.1//EN"
 "http://www.w3.org/Graphics/SVG/1.1/DTD/svg11.dtd">
<!-- Generated by graphviz version 2.43.0 (0)
 -->
<!-- Title: zero_mate::CBus::Get_Peripheral Pages: 1 -->
<svg width="303pt" height="56pt"
 viewBox="0.00 0.00 303.00 56.00" xmlns="http://www.w3.org/2000/svg" xmlns:xlink="http://www.w3.org/1999/xlink">
<g id="graph0" class="graph" transform="scale(1 1) rotate(0) translate(4 52)">
<title>zero_mate::CBus::Get_Peripheral</title>
<!-- Node1 -->
<g id="Node000001" class="node">
<title>Node1</title>
<g id="a_Node000001"><a xlink:title="Returns the corresponding peripheral based on the given address.">
<polygon fill="#999999" stroke="#666666" points="295,-30 173,-30 173,0 295,0 295,-30"/>
<text text-anchor="start" x="181" y="-18" font-family="Helvetica,sans-Serif" font-size="10.00">zero_mate::CBus::Get</text>
<text text-anchor="middle" x="234" y="-7" font-family="Helvetica,sans-Serif" font-size="10.00">_Peripheral</text>
</a>
</g>
</g>
<!-- Node1&#45;&gt;Node1 -->
<g id="edge2_Node000001_Node000001" class="edge">
<title>Node1&#45;&gt;Node1</title>
<g id="a_edge2_Node000001_Node000001"><a xlink:title=" ">
<path fill="none" stroke="#63b8ff" d="M262.71,-40.6C258.78,-44.97 249.21,-48 234,-48 208.38,-48 198.77,-39.41 205.17,-30.28"/>
<polygon fill="#63b8ff" stroke="#63b8ff" points="266.21,-40.32 262.83,-30.28 259.21,-40.23 266.21,-40.32"/>
</a>
</g>
</g>
<!-- Node2 -->
<g id="Node000002" class="node">
<title>Node2</title>
<g id="a_Node000002"><a xlink:href="classzero__mate_1_1CBus.html#a73e2222c5c3a5474f46a9011a50c1c7f" target="_top" xlink:title="Attaches a peripheral to the bus.">
<polygon fill="white" stroke="#666666" points="137,-30 0,-30 0,0 137,0 137,-30"/>
<text text-anchor="start" x="8" y="-18" font-family="Helvetica,sans-Serif" font-size="10.00">zero_mate::CBus::Attach</text>
<text text-anchor="middle" x="68.5" y="-7" font-family="Helvetica,sans-Serif" font-size="10.00">_Peripheral</text>
</a>
</g>
</g>
<!-- Node1&#45;&gt;Node2 -->
<g id="edge1_Node000001_Node000002" class="edge">
<title>Node1&#45;&gt;Node2</title>
<g id="a_edge1_Node000001_Node000002"><a xlink:title=" ">
<path fill="none" stroke="#63b8ff" d="M162.44,-15C154.03,-15 145.47,-15 137.11,-15"/>
<polygon fill="#63b8ff" stroke="#63b8ff" points="162.58,-18.5 172.58,-15 162.58,-11.5 162.58,-18.5"/>
</a>
</g>
</g>
</g>
</svg>
