<?xml version="1.0" encoding="UTF-8" standalone="no"?>
<!DOCTYPE svg PUBLIC "-//W3C//DTD SVG 1.1//EN"
 "http://www.w3.org/Graphics/SVG/1.1/DTD/svg11.dtd">
<!-- Generated by graphviz version 2.43.0 (0)
 -->
<!-- Title: zero_mate::gui::CTop_Bar_Menu::Load_ELF_File Pages: 1 -->
<svg width="676pt" height="98pt"
 viewBox="0.00 0.00 676.00 97.50" xmlns="http://www.w3.org/2000/svg" xmlns:xlink="http://www.w3.org/1999/xlink">
<g id="graph0" class="graph" transform="scale(1 1) rotate(0) translate(4 93.5)">
<title>zero_mate::gui::CTop_Bar_Menu::Load_ELF_File</title>
<!-- Node1 -->
<g id="Node000001" class="node">
<title>Node1</title>
<g id="a_Node000001"><a xlink:title="Loads a single ELF file.">
<polygon fill="#999999" stroke="#666666" points="668,-56 523,-56 523,-26 668,-26 668,-56"/>
<text text-anchor="start" x="531" y="-44" font-family="Helvetica,sans-Serif" font-size="10.00">zero_mate::gui::CTop</text>
<text text-anchor="middle" x="595.5" y="-33" font-family="Helvetica,sans-Serif" font-size="10.00">_Bar_Menu::Load_ELF_File</text>
</a>
</g>
</g>
<!-- Node2 -->
<g id="Node000002" class="node">
<title>Node2</title>
<g id="a_Node000002"><a xlink:href="classzero__mate_1_1gui_1_1CTop__Bar__Menu.html#a7fee26ed69f7536b8396d3fe2f97c5e4" target="_top" xlink:title="Loads ELF files selected by the user using the file browser.">
<polygon fill="white" stroke="#666666" points="487,-81 337,-81 337,-51 487,-51 487,-81"/>
<text text-anchor="start" x="345" y="-69" font-family="Helvetica,sans-Serif" font-size="10.00">zero_mate::gui::CTop</text>
<text text-anchor="middle" x="412" y="-58" font-family="Helvetica,sans-Serif" font-size="10.00">_Bar_Menu::Load_ELF_Files</text>
</a>
</g>
</g>
<!-- Node1&#45;&gt;Node2 -->
<g id="edge1_Node000001_Node000002" class="edge">
<title>Node1&#45;&gt;Node2</title>
<g id="a_edge1_Node000001_Node000002"><a xlink:title=" ">
<path fill="none" stroke="#63b8ff" d="M512.81,-52.25C504.28,-53.43 495.64,-54.62 487.19,-55.78"/>
<polygon fill="#63b8ff" stroke="#63b8ff" points="513.34,-55.71 522.77,-50.88 512.38,-48.78 513.34,-55.71"/>
</a>
</g>
</g>
<!-- Node5 -->
<g id="Node000005" class="node">
<title>Node5</title>
<g id="a_Node000005"><a xlink:href="classzero__mate_1_1gui_1_1CTop__Bar__Menu.html#a73157cb5a8ef5d61769403bbd700cfbf" target="_top" xlink:title="Reloads the kernel.">
<polygon fill="white" stroke="#666666" points="301,-30 155,-30 155,0 301,0 301,-30"/>
<text text-anchor="start" x="163" y="-18" font-family="Helvetica,sans-Serif" font-size="10.00">zero_mate::gui::CTop</text>
<text text-anchor="middle" x="228" y="-7" font-family="Helvetica,sans-Serif" font-size="10.00">_Bar_Menu::Reload_Kernel</text>
</a>
</g>
</g>
<!-- Node1&#45;&gt;Node5 -->
<g id="edge4_Node000001_Node000005" class="edge">
<title>Node1&#45;&gt;Node5</title>
<g id="a_edge4_Node000001_Node000005"><a xlink:title=" ">
<path fill="none" stroke="#63b8ff" d="M512.36,-35.16C448.93,-30.65 362.02,-24.46 301.23,-20.14"/>
<polygon fill="#63b8ff" stroke="#63b8ff" points="512.5,-38.68 522.73,-35.89 513,-31.69 512.5,-38.68"/>
</a>
</g>
</g>
<!-- Node3 -->
<g id="Node000003" class="node">
<title>Node3</title>
<g id="a_Node000003"><a xlink:href="classzero__mate_1_1gui_1_1CTop__Bar__Menu.html#a8dbf5620303332f1ad1b7449793a3621" target="_top" xlink:title="Renders the file browser.">
<polygon fill="white" stroke="#666666" points="295,-89.5 161,-89.5 161,-48.5 295,-48.5 295,-89.5"/>
<text text-anchor="start" x="169" y="-77.5" font-family="Helvetica,sans-Serif" font-size="10.00">zero_mate::gui::CTop</text>
<text text-anchor="start" x="169" y="-66.5" font-family="Helvetica,sans-Serif" font-size="10.00">_Bar_Menu::Render_File</text>
<text text-anchor="middle" x="228" y="-55.5" font-family="Helvetica,sans-Serif" font-size="10.00">_Browser</text>
</a>
</g>
</g>
<!-- Node2&#45;&gt;Node3 -->
<g id="edge2_Node000002_Node000003" class="edge">
<title>Node2&#45;&gt;Node3</title>
<g id="a_edge2_Node000002_Node000003"><a xlink:title=" ">
<path fill="none" stroke="#63b8ff" d="M326.81,-67.39C316.16,-67.56 305.38,-67.74 295.06,-67.91"/>
<polygon fill="#63b8ff" stroke="#63b8ff" points="327.03,-70.88 336.97,-67.22 326.92,-63.89 327.03,-70.88"/>
</a>
</g>
</g>
<!-- Node4 -->
<g id="Node000004" class="node">
<title>Node4</title>
<g id="a_Node000004"><a xlink:href="classzero__mate_1_1gui_1_1CTop__Bar__Menu.html#ad8f10caa7780d6c4e9fb20c4ab702a60" target="_top" xlink:title="Renders the bar (IGUI_Window interface).">
<polygon fill="white" stroke="#666666" points="119,-57 0,-57 0,-27 119,-27 119,-57"/>
<text text-anchor="start" x="8" y="-45" font-family="Helvetica,sans-Serif" font-size="10.00">zero_mate::gui::CTop</text>
<text text-anchor="middle" x="59.5" y="-34" font-family="Helvetica,sans-Serif" font-size="10.00">_Bar_Menu::Render</text>
</a>
</g>
</g>
<!-- Node3&#45;&gt;Node4 -->
<g id="edge3_Node000003_Node000004" class="edge">
<title>Node3&#45;&gt;Node4</title>
<g id="a_edge3_Node000003_Node000004"><a xlink:title=" ">
<path fill="none" stroke="#63b8ff" d="M150.61,-56.61C140,-54.89 129.23,-53.15 119.02,-51.49"/>
<polygon fill="#63b8ff" stroke="#63b8ff" points="150.29,-60.11 160.72,-58.25 151.41,-53.2 150.29,-60.11"/>
</a>
</g>
</g>
<!-- Node5&#45;&gt;Node4 -->
<g id="edge5_Node000005_Node000004" class="edge">
<title>Node5&#45;&gt;Node4</title>
<g id="a_edge5_Node000005_Node000004"><a xlink:title=" ">
<path fill="none" stroke="#63b8ff" d="M144.8,-28.33C136.14,-29.73 127.47,-31.14 119.15,-32.49"/>
<polygon fill="#63b8ff" stroke="#63b8ff" points="145.63,-31.74 154.94,-26.69 144.51,-24.83 145.63,-31.74"/>
</a>
</g>
</g>
</g>
</svg>
