<?xml version="1.0" encoding="UTF-8" standalone="no"?>
<!DOCTYPE svg PUBLIC "-//W3C//DTD SVG 1.1//EN"
 "http://www.w3.org/Graphics/SVG/1.1/DTD/svg11.dtd">
<!-- Generated by graphviz version 2.43.0 (0)
 -->
<!-- Title: zero_mate::arm1176jzf_s::CCPU_Core Pages: 1 -->
<svg width="713pt" height="185pt"
 viewBox="0.00 0.00 713.00 185.00" xmlns="http://www.w3.org/2000/svg" xmlns:xlink="http://www.w3.org/1999/xlink">
<g id="graph0" class="graph" transform="scale(1 1) rotate(0) translate(4 181)">
<title>zero_mate::arm1176jzf_s::CCPU_Core</title>
<!-- Node1 -->
<g id="node1" class="node">
<title>Node1</title>
<g id="a_node1"><a xlink:title="Raspberry Pi Zero CPU core (arm1176jzf_s).">
<polygon fill="#bfbfbf" stroke="black" points="575,-88.5 575,-118.5 705,-118.5 705,-88.5 575,-88.5"/>
<text text-anchor="start" x="583" y="-106.5" font-family="Helvetica,sans-Serif" font-size="10.00">zero_mate::arm1176jzf</text>
<text text-anchor="middle" x="640" y="-95.5" font-family="Helvetica,sans-Serif" font-size="10.00">_s::CCPU_Core</text>
</a>
</g>
</g>
<!-- Node2 -->
<g id="node2" class="node">
<title>Node2</title>
<g id="a_node2"><a xlink:title=" ">
<polygon fill="none" stroke="#bfbfbf" points="278,-146.5 278,-176.5 424,-176.5 424,-146.5 278,-146.5"/>
<text text-anchor="start" x="286" y="-164.5" font-family="Helvetica,sans-Serif" font-size="10.00">std::enable_shared</text>
<text text-anchor="middle" x="351" y="-153.5" font-family="Helvetica,sans-Serif" font-size="10.00">_from_this&lt; CCPU_Core &gt;</text>
</a>
</g>
</g>
<!-- Node2&#45;&gt;Node1 -->
<g id="edge1" class="edge">
<title>Node2&#45;&gt;Node1</title>
<path fill="none" stroke="midnightblue" d="M434.12,-152.29C471.84,-147.24 516.98,-140.04 557,-130.5 570.41,-127.3 584.78,-122.92 597.67,-118.61"/>
<polygon fill="midnightblue" stroke="midnightblue" points="433.66,-148.82 424.2,-153.59 434.57,-155.76 433.66,-148.82"/>
</g>
<!-- Node3 -->
<g id="node3" class="node">
<title>Node3</title>
<g id="a_node3"><a xlink:href="classzero__mate_1_1arm1176jzf__s_1_1CCPU__Context.html" target="_top" xlink:title="This class represents the context (registers) of the CPU.">
<polygon fill="none" stroke="black" points="286,-49.5 286,-79.5 416,-79.5 416,-49.5 286,-49.5"/>
<text text-anchor="start" x="294" y="-67.5" font-family="Helvetica,sans-Serif" font-size="10.00">zero_mate::arm1176jzf</text>
<text text-anchor="middle" x="351" y="-56.5" font-family="Helvetica,sans-Serif" font-size="10.00">_s::CCPU_Context</text>
</a>
</g>
</g>
<!-- Node3&#45;&gt;Node1 -->
<g id="edge2" class="edge">
<title>Node3&#45;&gt;Node1</title>
<path fill="none" stroke="#9a32cd" stroke-dasharray="5,2" d="M426.4,-74.04C465.32,-79.09 513.75,-85.49 557,-91.5 562.84,-92.31 568.92,-93.17 575,-94.04"/>
<polygon fill="#9a32cd" stroke="#9a32cd" points="426.57,-70.53 416.2,-72.72 425.67,-77.47 426.57,-70.53"/>
<text text-anchor="middle" x="499.5" y="-94.5" font-family="Helvetica,sans-Serif" font-size="10.00"> m_context</text>
</g>
<!-- Node4 -->
<g id="node4" class="node">
<title>Node4</title>
<g id="a_node4"><a xlink:href="classzero__mate_1_1utils_1_1CLogging__System.html" target="_top" xlink:title="This class defines a logging system that is used throughout the project.">
<polygon fill="none" stroke="black" points="0,-75.5 0,-105.5 146,-105.5 146,-75.5 0,-75.5"/>
<text text-anchor="start" x="8" y="-93.5" font-family="Helvetica,sans-Serif" font-size="10.00">zero_mate::utils::CLogging</text>
<text text-anchor="middle" x="73" y="-82.5" font-family="Helvetica,sans-Serif" font-size="10.00">_System</text>
</a>
</g>
</g>
<!-- Node4&#45;&gt;Node1 -->
<g id="edge5" class="edge">
<title>Node4&#45;&gt;Node1</title>
<path fill="none" stroke="#9a32cd" stroke-dasharray="5,2" d="M156.3,-95.17C158.9,-95.29 161.47,-95.4 164,-95.5 287.49,-100.48 318.42,-100.63 442,-102.5 486.29,-103.17 536.18,-103.42 574.67,-103.5"/>
<polygon fill="#9a32cd" stroke="#9a32cd" points="156.35,-91.67 146.2,-94.7 156.03,-98.66 156.35,-91.67"/>
<text text-anchor="middle" x="351" y="-104.5" font-family="Helvetica,sans-Serif" font-size="10.00"> m_logging_system</text>
</g>
<!-- Node4&#45;&gt;Node3 -->
<g id="edge3" class="edge">
<title>Node4&#45;&gt;Node3</title>
<path fill="none" stroke="#9a32cd" stroke-dasharray="5,2" d="M156.23,-82.75C197.68,-78.85 247.19,-74.18 285.8,-70.55"/>
<polygon fill="#9a32cd" stroke="#9a32cd" points="155.78,-79.28 146.16,-83.7 156.44,-86.25 155.78,-79.28"/>
<text text-anchor="middle" x="212" y="-83.5" font-family="Helvetica,sans-Serif" font-size="10.00"> m_logging_system</text>
</g>
<!-- Node5 -->
<g id="node5" class="node">
<title>Node5</title>
<g id="a_node5"><a xlink:href="classzero__mate_1_1arm1176jzf__s_1_1isa_1_1CISA__Decoder.html" target="_top" xlink:title="This class represents an instruction decoder.">
<polygon fill="none" stroke="black" points="286,-0.5 286,-30.5 416,-30.5 416,-0.5 286,-0.5"/>
<text text-anchor="start" x="294" y="-18.5" font-family="Helvetica,sans-Serif" font-size="10.00">zero_mate::arm1176jzf</text>
<text text-anchor="middle" x="351" y="-7.5" font-family="Helvetica,sans-Serif" font-size="10.00">_s::isa::CISA_Decoder</text>
</a>
</g>
</g>
<!-- Node5&#45;&gt;Node1 -->
<g id="edge4" class="edge">
<title>Node5&#45;&gt;Node1</title>
<path fill="none" stroke="#9a32cd" stroke-dasharray="5,2" d="M426.27,-27.48C465.78,-35.01 514.79,-46.23 557,-61.5 576.7,-68.63 597.71,-79.46 613.53,-88.34"/>
<polygon fill="#9a32cd" stroke="#9a32cd" points="426.91,-24.04 416.44,-25.64 425.63,-30.92 426.91,-24.04"/>
<text text-anchor="middle" x="499.5" y="-64.5" font-family="Helvetica,sans-Serif" font-size="10.00"> m_instruction_decoder</text>
</g>
</g>
</svg>
