<?xml version="1.0" encoding="UTF-8" standalone="no"?>
<!DOCTYPE svg PUBLIC "-//W3C//DTD SVG 1.1//EN"
 "http://www.w3.org/Graphics/SVG/1.1/DTD/svg11.dtd">
<!-- Generated by graphviz version 2.43.0 (0)
 -->
<!-- Title: zero_mate::peripheral::CARM_Timer::Reset Pages: 1 -->
<svg width="311pt" height="98pt"
 viewBox="0.00 0.00 311.00 97.50" xmlns="http://www.w3.org/2000/svg" xmlns:xlink="http://www.w3.org/1999/xlink">
<g id="graph0" class="graph" transform="scale(1 1) rotate(0) translate(4 93.5)">
<title>zero_mate::peripheral::CARM_Timer::Reset</title>
<!-- Node1 -->
<g id="Node000001" class="node">
<title>Node1</title>
<g id="a_Node000001"><a xlink:title="Resets/re&#45;initializes the ARM timer (IPeripheral interface).">
<polygon fill="#999999" stroke="#666666" points="124,-62.5 0,-62.5 0,-32.5 124,-32.5 124,-62.5"/>
<text text-anchor="start" x="8" y="-50.5" font-family="Helvetica,sans-Serif" font-size="10.00">zero_mate::peripheral</text>
<text text-anchor="middle" x="62" y="-39.5" font-family="Helvetica,sans-Serif" font-size="10.00">::CARM_Timer::Reset</text>
</a>
</g>
</g>
<!-- Node2 -->
<g id="Node000002" class="node">
<title>Node2</title>
<g id="a_Node000002"><a xlink:href="classzero__mate_1_1peripheral_1_1CARM__Timer.html#a8aa88bde21b52e4ae5132f8e2a5fb73a" target="_top" xlink:title="Returns the current content of a register.">
<polygon fill="white" stroke="#666666" points="298,-89.5 165,-89.5 165,-59.5 298,-59.5 298,-89.5"/>
<text text-anchor="start" x="173" y="-77.5" font-family="Helvetica,sans-Serif" font-size="10.00">zero_mate::peripheral</text>
<text text-anchor="middle" x="231.5" y="-66.5" font-family="Helvetica,sans-Serif" font-size="10.00">::CARM_Timer::Get_Reg</text>
</a>
</g>
</g>
<!-- Node1&#45;&gt;Node2 -->
<g id="edge1_Node000001_Node000002" class="edge">
<title>Node1&#45;&gt;Node2</title>
<g id="a_edge1_Node000001_Node000002"><a xlink:title=" ">
<path fill="none" stroke="#63b8ff" d="M124.42,-57.4C134.29,-58.99 144.61,-60.66 154.78,-62.29"/>
<polygon fill="#63b8ff" stroke="#63b8ff" points="154.43,-65.78 164.86,-63.92 155.55,-58.87 154.43,-65.78"/>
</a>
</g>
</g>
<!-- Node3 -->
<g id="Node000003" class="node">
<title>Node3</title>
<g id="a_Node000003"><a xlink:href="classzero__mate_1_1peripheral_1_1CARM__Timer_1_1CPrescaler.html#a4d0394597d809b327d0fc83ad8dfb900" target="_top" xlink:title="Resets the prescaler.">
<polygon fill="white" stroke="#666666" points="303,-41 160,-41 160,0 303,0 303,-41"/>
<text text-anchor="start" x="168" y="-29" font-family="Helvetica,sans-Serif" font-size="10.00">zero_mate::peripheral</text>
<text text-anchor="start" x="168" y="-18" font-family="Helvetica,sans-Serif" font-size="10.00">::CARM_Timer::CPrescaler</text>
<text text-anchor="middle" x="231.5" y="-7" font-family="Helvetica,sans-Serif" font-size="10.00">::Reset</text>
</a>
</g>
</g>
<!-- Node1&#45;&gt;Node3 -->
<g id="edge2_Node000001_Node000003" class="edge">
<title>Node1&#45;&gt;Node3</title>
<g id="a_edge2_Node000001_Node000003"><a xlink:title=" ">
<path fill="none" stroke="#63b8ff" d="M124.42,-37.6C132.67,-36.27 141.24,-34.89 149.77,-33.51"/>
<polygon fill="#63b8ff" stroke="#63b8ff" points="150.42,-36.95 159.73,-31.91 149.3,-30.04 150.42,-36.95"/>
</a>
</g>
</g>
</g>
</svg>
