<?xml version="1.0" encoding="UTF-8" standalone="no"?>
<!DOCTYPE svg PUBLIC "-//W3C//DTD SVG 1.1//EN"
 "http://www.w3.org/Graphics/SVG/1.1/DTD/svg11.dtd">
<!-- Generated by graphviz version 2.43.0 (0)
 -->
<!-- Title: zero_mate::arm1176jzf_s::CCPU_Core::Check_Coprocessor_Presence Pages: 1 -->
<svg width="532pt" height="134pt"
 viewBox="0.00 0.00 532.00 134.00" xmlns="http://www.w3.org/2000/svg" xmlns:xlink="http://www.w3.org/1999/xlink">
<g id="graph0" class="graph" transform="scale(1 1) rotate(0) translate(4 130)">
<title>zero_mate::arm1176jzf_s::CCPU_Core::Check_Coprocessor_Presence</title>
<!-- Node1 -->
<g id="Node000001" class="node">
<title>Node1</title>
<g id="a_Node000001"><a xlink:title="Checks whether a given coprocessor is present or not.">
<polygon fill="#999999" stroke="#666666" points="524,-83.5 393,-83.5 393,-42.5 524,-42.5 524,-83.5"/>
<text text-anchor="start" x="401" y="-71.5" font-family="Helvetica,sans-Serif" font-size="10.00">zero_mate::arm1176jzf</text>
<text text-anchor="start" x="401" y="-60.5" font-family="Helvetica,sans-Serif" font-size="10.00">_s::CCPU_Core::Check</text>
<text text-anchor="middle" x="458.5" y="-49.5" font-family="Helvetica,sans-Serif" font-size="10.00">_Coprocessor_Presence</text>
</a>
</g>
</g>
<!-- Node2 -->
<g id="Node000002" class="node">
<title>Node2</title>
<g id="a_Node000002"><a xlink:href="classzero__mate_1_1arm1176jzf__s_1_1CCPU__Core.html#a9d662bbaf486e8924698ecf2208d0d73" target="_top" xlink:title="Performs coprocessor accessibility checks.">
<polygon fill="white" stroke="#666666" points="357,-83.5 168,-83.5 168,-42.5 357,-42.5 357,-83.5"/>
<text text-anchor="start" x="176" y="-71.5" font-family="Helvetica,sans-Serif" font-size="10.00">zero_mate::arm1176jzf</text>
<text text-anchor="start" x="176" y="-60.5" font-family="Helvetica,sans-Serif" font-size="10.00">_s::CCPU_Core::Perform</text>
<text text-anchor="middle" x="262.5" y="-49.5" font-family="Helvetica,sans-Serif" font-size="10.00">_Coprocessor_Accessibility_Checks</text>
</a>
</g>
</g>
<!-- Node1&#45;&gt;Node2 -->
<g id="edge1_Node000001_Node000002" class="edge">
<title>Node1&#45;&gt;Node2</title>
<g id="a_edge1_Node000001_Node000002"><a xlink:title=" ">
<path fill="none" stroke="#63b8ff" d="M382.81,-63C374.42,-63 365.8,-63 357.21,-63"/>
<polygon fill="#63b8ff" stroke="#63b8ff" points="382.9,-66.5 392.9,-63 382.9,-59.5 382.9,-66.5"/>
</a>
</g>
</g>
<!-- Node3 -->
<g id="Node000003" class="node">
<title>Node3</title>
<g id="a_Node000003"><a xlink:href="classzero__mate_1_1arm1176jzf__s_1_1CCPU__Core.html#a13f003234822a261f628d8339fbff25c" target="_top" xlink:title="Executes a coprocessor data operation instruction (coprocessor instruction (3)).">
<polygon fill="white" stroke="#666666" points="132,-126 0,-126 0,-96 132,-96 132,-126"/>
<text text-anchor="start" x="8" y="-114" font-family="Helvetica,sans-Serif" font-size="10.00">zero_mate::arm1176jzf</text>
<text text-anchor="middle" x="66" y="-103" font-family="Helvetica,sans-Serif" font-size="10.00">_s::CCPU_Core::Execute</text>
</a>
</g>
</g>
<!-- Node2&#45;&gt;Node3 -->
<g id="edge2_Node000002_Node000003" class="edge">
<title>Node2&#45;&gt;Node3</title>
<g id="a_edge2_Node000002_Node000003"><a xlink:title=" ">
<path fill="none" stroke="#63b8ff" d="M168.21,-86.02C154.49,-89.41 140.66,-92.82 127.82,-95.99"/>
<polygon fill="#63b8ff" stroke="#63b8ff" points="169.3,-89.36 178.17,-83.57 167.62,-82.56 169.3,-89.36"/>
</a>
</g>
</g>
<!-- Node4 -->
<g id="Node000004" class="node">
<title>Node4</title>
<g id="a_Node000004"><a xlink:href="classzero__mate_1_1arm1176jzf__s_1_1CCPU__Core.html#a8fb15d5c9802a6971560ff8ef2a0f9dc" target="_top" xlink:title="Executes a coprocessor data transfer instruction (coprocessor instruction (2)).">
<polygon fill="white" stroke="#666666" points="132,-78 0,-78 0,-48 132,-48 132,-78"/>
<text text-anchor="start" x="8" y="-66" font-family="Helvetica,sans-Serif" font-size="10.00">zero_mate::arm1176jzf</text>
<text text-anchor="middle" x="66" y="-55" font-family="Helvetica,sans-Serif" font-size="10.00">_s::CCPU_Core::Execute</text>
</a>
</g>
</g>
<!-- Node2&#45;&gt;Node4 -->
<g id="edge3_Node000002_Node000004" class="edge">
<title>Node2&#45;&gt;Node4</title>
<g id="a_edge3_Node000002_Node000004"><a xlink:title=" ">
<path fill="none" stroke="#63b8ff" d="M157.77,-63C149.11,-63 140.51,-63 132.27,-63"/>
<polygon fill="#63b8ff" stroke="#63b8ff" points="157.95,-66.5 167.95,-63 157.95,-59.5 157.95,-66.5"/>
</a>
</g>
</g>
<!-- Node5 -->
<g id="Node000005" class="node">
<title>Node5</title>
<g id="a_Node000005"><a xlink:href="classzero__mate_1_1arm1176jzf__s_1_1CCPU__Core.html#ae54c96b9b4395337b22c4ce3686d7862" target="_top" xlink:title="Executes a coprocessor register transfer instruction (coprocessor instruction (1)).">
<polygon fill="white" stroke="#666666" points="132,-30 0,-30 0,0 132,0 132,-30"/>
<text text-anchor="start" x="8" y="-18" font-family="Helvetica,sans-Serif" font-size="10.00">zero_mate::arm1176jzf</text>
<text text-anchor="middle" x="66" y="-7" font-family="Helvetica,sans-Serif" font-size="10.00">_s::CCPU_Core::Execute</text>
</a>
</g>
</g>
<!-- Node2&#45;&gt;Node5 -->
<g id="edge4_Node000002_Node000005" class="edge">
<title>Node2&#45;&gt;Node5</title>
<g id="a_edge4_Node000002_Node000005"><a xlink:title=" ">
<path fill="none" stroke="#63b8ff" d="M168.21,-39.98C154.49,-36.59 140.66,-33.18 127.82,-30.01"/>
<polygon fill="#63b8ff" stroke="#63b8ff" points="167.62,-43.44 178.17,-42.43 169.3,-36.64 167.62,-43.44"/>
</a>
</g>
</g>
</g>
</svg>
