<?xml version="1.0" encoding="UTF-8" standalone="no"?>
<!DOCTYPE svg PUBLIC "-//W3C//DTD SVG 1.1//EN"
 "http://www.w3.org/Graphics/SVG/1.1/DTD/svg11.dtd">
<!-- Generated by graphviz version 2.43.0 (0)
 -->
<!-- Title: zero_mate::arm1176jzf_s::CCPU_Core::Get_Second_Operand Pages: 1 -->
<svg width="337pt" height="167pt"
 viewBox="0.00 0.00 337.00 167.00" xmlns="http://www.w3.org/2000/svg" xmlns:xlink="http://www.w3.org/1999/xlink">
<g id="graph0" class="graph" transform="scale(1 1) rotate(0) translate(4 163)">
<title>zero_mate::arm1176jzf_s::CCPU_Core::Get_Second_Operand</title>
<!-- Node1 -->
<g id="Node000001" class="node">
<title>Node1</title>
<g id="a_Node000001"><a xlink:title="Calculates the second operand of a data processing instruction.">
<polygon fill="#999999" stroke="#666666" points="152,-100 0,-100 0,-59 152,-59 152,-100"/>
<text text-anchor="start" x="8" y="-88" font-family="Helvetica,sans-Serif" font-size="10.00">zero_mate::arm1176jzf</text>
<text text-anchor="start" x="8" y="-77" font-family="Helvetica,sans-Serif" font-size="10.00">_s::CCPU_Core::Get_Second</text>
<text text-anchor="middle" x="76" y="-66" font-family="Helvetica,sans-Serif" font-size="10.00">_Operand</text>
</a>
</g>
</g>
<!-- Node2 -->
<g id="Node000002" class="node">
<title>Node2</title>
<g id="a_Node000002"><a xlink:href="classzero__mate_1_1arm1176jzf__s_1_1isa_1_1CData__Processing.html#a73d5c3a98f3fe036a1348d4d7485d0e9" target="_top" xlink:title="Returns the index of the second operand register (Rm).">
<polygon fill="white" stroke="#666666" points="329,-159 188,-159 188,-118 329,-118 329,-159"/>
<text text-anchor="start" x="196" y="-147" font-family="Helvetica,sans-Serif" font-size="10.00">zero_mate::arm1176jzf</text>
<text text-anchor="start" x="196" y="-136" font-family="Helvetica,sans-Serif" font-size="10.00">_s::isa::CData_Processing</text>
<text text-anchor="middle" x="258.5" y="-125" font-family="Helvetica,sans-Serif" font-size="10.00">::Get_Rm_Idx</text>
</a>
</g>
</g>
<!-- Node1&#45;&gt;Node2 -->
<g id="edge1_Node000001_Node000002" class="edge">
<title>Node1&#45;&gt;Node2</title>
<g id="a_edge1_Node000001_Node000002"><a xlink:title=" ">
<path fill="none" stroke="#63b8ff" d="M139.88,-100.05C154.4,-104.8 169.97,-109.89 184.87,-114.76"/>
<polygon fill="#63b8ff" stroke="#63b8ff" points="183.95,-118.14 194.54,-117.92 186.13,-111.49 183.95,-118.14"/>
</a>
</g>
</g>
<!-- Node3 -->
<g id="Node000003" class="node">
<title>Node3</title>
<g id="a_Node000003"><a xlink:href="classzero__mate_1_1arm1176jzf__s_1_1isa_1_1CData__Processing.html#ae43548d291eecc463c519086e7527ff2" target="_top" xlink:title="Returns the shift type used when constructing the second operand.">
<polygon fill="white" stroke="#666666" points="329,-100 188,-100 188,-59 329,-59 329,-100"/>
<text text-anchor="start" x="196" y="-88" font-family="Helvetica,sans-Serif" font-size="10.00">zero_mate::arm1176jzf</text>
<text text-anchor="start" x="196" y="-77" font-family="Helvetica,sans-Serif" font-size="10.00">_s::isa::CData_Processing</text>
<text text-anchor="middle" x="258.5" y="-66" font-family="Helvetica,sans-Serif" font-size="10.00">::Get_Shift_Type</text>
</a>
</g>
</g>
<!-- Node1&#45;&gt;Node3 -->
<g id="edge2_Node000001_Node000003" class="edge">
<title>Node1&#45;&gt;Node3</title>
<g id="a_edge2_Node000001_Node000003"><a xlink:title=" ">
<path fill="none" stroke="#63b8ff" d="M152.24,-79.5C160.63,-79.5 169.2,-79.5 177.64,-79.5"/>
<polygon fill="#63b8ff" stroke="#63b8ff" points="177.86,-83 187.86,-79.5 177.86,-76 177.86,-83"/>
</a>
</g>
</g>
<!-- Node4 -->
<g id="Node000004" class="node">
<title>Node4</title>
<g id="a_Node000004"><a xlink:href="classzero__mate_1_1arm1176jzf__s_1_1isa_1_1CData__Processing.html#a1dc73c441b156452b1467eaa5cab46f5" target="_top" xlink:title="Returns the value of the I bit (bit 25 = immediate second operand).">
<polygon fill="white" stroke="#666666" points="329,-41 188,-41 188,0 329,0 329,-41"/>
<text text-anchor="start" x="196" y="-29" font-family="Helvetica,sans-Serif" font-size="10.00">zero_mate::arm1176jzf</text>
<text text-anchor="start" x="196" y="-18" font-family="Helvetica,sans-Serif" font-size="10.00">_s::isa::CData_Processing</text>
<text text-anchor="middle" x="258.5" y="-7" font-family="Helvetica,sans-Serif" font-size="10.00">::Is_I_Bit_Set</text>
</a>
</g>
</g>
<!-- Node1&#45;&gt;Node4 -->
<g id="edge3_Node000001_Node000004" class="edge">
<title>Node1&#45;&gt;Node4</title>
<g id="a_edge3_Node000001_Node000004"><a xlink:title=" ">
<path fill="none" stroke="#63b8ff" d="M139.88,-58.95C154.4,-54.2 169.97,-49.11 184.87,-44.24"/>
<polygon fill="#63b8ff" stroke="#63b8ff" points="186.13,-47.51 194.54,-41.08 183.95,-40.86 186.13,-47.51"/>
</a>
</g>
</g>
</g>
</svg>
