<?xml version="1.0" encoding="UTF-8" standalone="no"?>
<!DOCTYPE svg PUBLIC "-//W3C//DTD SVG 1.1//EN"
 "http://www.w3.org/Graphics/SVG/1.1/DTD/svg11.dtd">
<!-- Generated by graphviz version 2.43.0 (0)
 -->
<!-- Title: zero_mate::peripheral::CMini_UART::Enable Pages: 1 -->
<svg width="1064pt" height="116pt"
 viewBox="0.00 0.00 1064.00 116.00" xmlns="http://www.w3.org/2000/svg" xmlns:xlink="http://www.w3.org/1999/xlink">
<g id="graph0" class="graph" transform="scale(1 1) rotate(0) translate(4 112)">
<title>zero_mate::peripheral::CMini_UART::Enable</title>
<!-- Node1 -->
<g id="Node000001" class="node">
<title>Node1</title>
<g id="a_Node000001"><a xlink:title="Enables/disables the mini UART peripheral.">
<polygon fill="#999999" stroke="#666666" points="124,-57 0,-57 0,-27 124,-27 124,-57"/>
<text text-anchor="start" x="8" y="-45" font-family="Helvetica,sans-Serif" font-size="10.00">zero_mate::peripheral</text>
<text text-anchor="middle" x="62" y="-34" font-family="Helvetica,sans-Serif" font-size="10.00">::CMini_UART::Enable</text>
</a>
</g>
</g>
<!-- Node2 -->
<g id="Node000002" class="node">
<title>Node2</title>
<g id="a_Node000002"><a xlink:href="classzero__mate_1_1peripheral_1_1CMini__UART.html#a33db8351f94fd39f6c10594c574c8195" target="_top" xlink:title="Sets the state of the RX pin.">
<polygon fill="white" stroke="#666666" points="302,-81 160,-81 160,-51 302,-51 302,-81"/>
<text text-anchor="start" x="168" y="-69" font-family="Helvetica,sans-Serif" font-size="10.00">zero_mate::peripheral</text>
<text text-anchor="middle" x="231" y="-58" font-family="Helvetica,sans-Serif" font-size="10.00">::CMini_UART::Set_RX_Pin</text>
</a>
</g>
</g>
<!-- Node1&#45;&gt;Node2 -->
<g id="edge1_Node000001_Node000002" class="edge">
<title>Node1&#45;&gt;Node2</title>
<g id="a_edge1_Node000001_Node000002"><a xlink:title=" ">
<path fill="none" stroke="#63b8ff" d="M124.24,-50.8C132.53,-51.99 141.15,-53.23 149.71,-54.46"/>
<polygon fill="#63b8ff" stroke="#63b8ff" points="149.33,-57.94 159.73,-55.9 150.33,-51.01 149.33,-57.94"/>
</a>
</g>
</g>
<!-- Node9 -->
<g id="Node000009" class="node">
<title>Node9</title>
<g id="a_Node000009"><a xlink:href="classzero__mate_1_1peripheral_1_1CMini__UART.html#aa97db5d47b819acd85beda1dc91cb355" target="_top" xlink:title="Sets the state of the TX pin.">
<polygon fill="white" stroke="#666666" points="301.5,-33 160.5,-33 160.5,-3 301.5,-3 301.5,-33"/>
<text text-anchor="start" x="168.5" y="-21" font-family="Helvetica,sans-Serif" font-size="10.00">zero_mate::peripheral</text>
<text text-anchor="middle" x="231" y="-10" font-family="Helvetica,sans-Serif" font-size="10.00">::CMini_UART::Set_TX_Pin</text>
</a>
</g>
</g>
<!-- Node1&#45;&gt;Node9 -->
<g id="edge8_Node000001_Node000009" class="edge">
<title>Node1&#45;&gt;Node9</title>
<g id="a_edge8_Node000001_Node000009"><a xlink:title=" ">
<path fill="none" stroke="#63b8ff" d="M124.24,-33.2C132.67,-31.99 141.42,-30.73 150.13,-29.48"/>
<polygon fill="#63b8ff" stroke="#63b8ff" points="150.9,-32.9 160.3,-28.02 149.9,-25.98 150.9,-32.9"/>
</a>
</g>
</g>
<!-- Node3 -->
<g id="Node000003" class="node">
<title>Node3</title>
<g id="a_Node000003"><a xlink:href="classzero__mate_1_1peripheral_1_1CMini__UART.html#a9243af4f42d118a598a00c0f79d366e1" target="_top" xlink:title="Sets the state of a given GPIO pin.">
<polygon fill="white" stroke="#666666" points="490,-57 338,-57 338,-27 490,-27 490,-57"/>
<text text-anchor="start" x="346" y="-45" font-family="Helvetica,sans-Serif" font-size="10.00">zero_mate::peripheral</text>
<text text-anchor="middle" x="414" y="-34" font-family="Helvetica,sans-Serif" font-size="10.00">::CMini_UART::Set_GPIO_pin</text>
</a>
</g>
</g>
<!-- Node2&#45;&gt;Node3 -->
<g id="edge2_Node000002_Node000003" class="edge">
<title>Node2&#45;&gt;Node3</title>
<g id="a_edge2_Node000002_Node000003"><a xlink:title=" ">
<path fill="none" stroke="#63b8ff" d="M302.24,-56.69C310.59,-55.58 319.19,-54.44 327.73,-53.31"/>
<polygon fill="#63b8ff" stroke="#63b8ff" points="328.25,-56.77 337.71,-51.98 327.33,-49.83 328.25,-56.77"/>
</a>
</g>
</g>
<!-- Node4 -->
<g id="Node000004" class="node">
<title>Node4</title>
<g id="a_Node000004"><a xlink:href="classzero__mate_1_1utils_1_1CLogging__System.html#a57ed77e1a5cf822cea532cc5e05c3f60" target="_top" xlink:title="Logs an error message via all registered loggers.">
<polygon fill="white" stroke="#666666" points="672,-57 526,-57 526,-27 672,-27 672,-57"/>
<text text-anchor="start" x="534" y="-45" font-family="Helvetica,sans-Serif" font-size="10.00">zero_mate::utils::CLogging</text>
<text text-anchor="middle" x="599" y="-34" font-family="Helvetica,sans-Serif" font-size="10.00">_System::Error</text>
</a>
</g>
</g>
<!-- Node3&#45;&gt;Node4 -->
<g id="edge3_Node000003_Node000004" class="edge">
<title>Node3&#45;&gt;Node4</title>
<g id="a_edge3_Node000003_Node000004"><a xlink:title=" ">
<path fill="none" stroke="#63b8ff" d="M490.23,-42C498.57,-42 507.09,-42 515.52,-42"/>
<polygon fill="#63b8ff" stroke="#63b8ff" points="515.72,-45.5 525.72,-42 515.72,-38.5 515.72,-45.5"/>
</a>
</g>
</g>
<!-- Node5 -->
<g id="Node000005" class="node">
<title>Node5</title>
<g id="a_Node000005"><a xlink:href="classzero__mate_1_1utils_1_1CLogging__System.html#a71ed11c796553cbe8fd99773406a1060" target="_top" xlink:title="Creates a formatted message to be logged.">
<polygon fill="white" stroke="#666666" points="860,-89.5 708,-89.5 708,-48.5 860,-48.5 860,-89.5"/>
<text text-anchor="start" x="716" y="-77.5" font-family="Helvetica,sans-Serif" font-size="10.00">zero_mate::utils::CLogging</text>
<text text-anchor="start" x="716" y="-66.5" font-family="Helvetica,sans-Serif" font-size="10.00">_System::Create_Formatted</text>
<text text-anchor="middle" x="784" y="-55.5" font-family="Helvetica,sans-Serif" font-size="10.00">_Log_Msg</text>
</a>
</g>
</g>
<!-- Node4&#45;&gt;Node5 -->
<g id="edge4_Node000004_Node000005" class="edge">
<title>Node4&#45;&gt;Node5</title>
<g id="a_edge4_Node000004_Node000005"><a xlink:title=" ">
<path fill="none" stroke="#63b8ff" d="M672.06,-52.63C680.55,-53.88 689.26,-55.17 697.9,-56.44"/>
<polygon fill="#63b8ff" stroke="#63b8ff" points="697.59,-59.94 707.99,-57.93 698.61,-53.01 697.59,-59.94"/>
</a>
</g>
</g>
<!-- Node8 -->
<g id="Node000008" class="node">
<title>Node8</title>
<g id="a_Node000008"><a xlink:href="classzero__mate_1_1utils_1_1CLogging__System.html#ad371c67ef65763966ccf9291002e86f3" target="_top" xlink:title="Extract the filename from a given location within the source files.">
<polygon fill="white" stroke="#666666" points="858.5,-30 709.5,-30 709.5,0 858.5,0 858.5,-30"/>
<text text-anchor="start" x="717.5" y="-18" font-family="Helvetica,sans-Serif" font-size="10.00">zero_mate::utils::CLogging</text>
<text text-anchor="middle" x="784" y="-7" font-family="Helvetica,sans-Serif" font-size="10.00">_System::Extract_Filename</text>
</a>
</g>
</g>
<!-- Node4&#45;&gt;Node8 -->
<g id="edge7_Node000004_Node000008" class="edge">
<title>Node4&#45;&gt;Node8</title>
<g id="a_edge7_Node000004_Node000008"><a xlink:title=" ">
<path fill="none" stroke="#63b8ff" d="M672.06,-31.37C681.1,-30.03 690.4,-28.66 699.59,-27.31"/>
<polygon fill="#63b8ff" stroke="#63b8ff" points="700.12,-30.77 709.5,-25.84 699.1,-23.84 700.12,-30.77"/>
</a>
</g>
</g>
<!-- Node6 -->
<g id="Node000006" class="node">
<title>Node6</title>
<g id="a_Node000006"><a xlink:href="classzero__mate_1_1utils_1_1CLogging__System.html#aa70c102c805079042ffea2a6f2a5ad64" target="_top" xlink:title="Formats a given timestamp.">
<polygon fill="white" stroke="#666666" points="1056,-108 896,-108 896,-78 1056,-78 1056,-108"/>
<text text-anchor="start" x="904" y="-96" font-family="Helvetica,sans-Serif" font-size="10.00">zero_mate::utils::CLogging</text>
<text text-anchor="middle" x="976" y="-85" font-family="Helvetica,sans-Serif" font-size="10.00">_System::Format_Timestamp</text>
</a>
</g>
</g>
<!-- Node5&#45;&gt;Node6 -->
<g id="edge5_Node000005_Node000006" class="edge">
<title>Node5&#45;&gt;Node6</title>
<g id="a_edge5_Node000005_Node000006"><a xlink:title=" ">
<path fill="none" stroke="#63b8ff" d="M860.09,-78.49C868.52,-79.55 877.16,-80.64 885.74,-81.73"/>
<polygon fill="#63b8ff" stroke="#63b8ff" points="885.41,-85.21 895.77,-82.99 886.29,-78.27 885.41,-85.21"/>
</a>
</g>
</g>
<!-- Node7 -->
<g id="Node000007" class="node">
<title>Node7</title>
<g id="a_Node000007"><a xlink:href="classzero__mate_1_1utils_1_1CLogging__System.html#ae3ca637537dde05e0b9119145c840331" target="_top" xlink:title="Returns the current timestamp that will be used in a log message.">
<polygon fill="white" stroke="#666666" points="1049,-60 903,-60 903,-30 1049,-30 1049,-60"/>
<text text-anchor="start" x="911" y="-48" font-family="Helvetica,sans-Serif" font-size="10.00">zero_mate::utils::CLogging</text>
<text text-anchor="middle" x="976" y="-37" font-family="Helvetica,sans-Serif" font-size="10.00">_System::Get_Timestamp</text>
</a>
</g>
</g>
<!-- Node5&#45;&gt;Node7 -->
<g id="edge6_Node000005_Node000007" class="edge">
<title>Node5&#45;&gt;Node7</title>
<g id="a_edge6_Node000005_Node000007"><a xlink:title=" ">
<path fill="none" stroke="#63b8ff" d="M860.09,-59.51C870.89,-58.15 882.05,-56.74 892.98,-55.36"/>
<polygon fill="#63b8ff" stroke="#63b8ff" points="893.45,-58.83 902.93,-54.1 892.57,-51.88 893.45,-58.83"/>
</a>
</g>
</g>
<!-- Node9&#45;&gt;Node3 -->
<g id="edge9_Node000009_Node000003" class="edge">
<title>Node9&#45;&gt;Node3</title>
<g id="a_edge9_Node000009_Node000003"><a xlink:title=" ">
<path fill="none" stroke="#63b8ff" d="M301.72,-27.24C310.24,-28.37 319.02,-29.54 327.73,-30.69"/>
<polygon fill="#63b8ff" stroke="#63b8ff" points="327.53,-34.2 337.91,-32.04 328.45,-27.26 327.53,-34.2"/>
</a>
</g>
</g>
</g>
</svg>
