<?xml version="1.0" encoding="UTF-8" standalone="no"?>
<!DOCTYPE svg PUBLIC "-//W3C//DTD SVG 1.1//EN"
 "http://www.w3.org/Graphics/SVG/1.1/DTD/svg11.dtd">
<!-- Generated by graphviz version 2.43.0 (0)
 -->
<!-- Title: zero_mate::peripheral::CRAM::Reset Pages: 1 -->
<svg width="452pt" height="86pt"
 viewBox="0.00 0.00 452.00 86.00" xmlns="http://www.w3.org/2000/svg" xmlns:xlink="http://www.w3.org/1999/xlink">
<g id="graph0" class="graph" transform="scale(1 1) rotate(0) translate(4 82)">
<title>zero_mate::peripheral::CRAM::Reset</title>
<!-- Node1 -->
<g id="Node000001" class="node">
<title>Node1</title>
<g id="a_Node000001"><a xlink:title="Resets/re&#45;initializes the RAM (IPeripheral interface).">
<polygon fill="#999999" stroke="#666666" points="444,-54 320,-54 320,-24 444,-24 444,-54"/>
<text text-anchor="start" x="328" y="-42" font-family="Helvetica,sans-Serif" font-size="10.00">zero_mate::peripheral</text>
<text text-anchor="middle" x="382" y="-31" font-family="Helvetica,sans-Serif" font-size="10.00">::CRAM::Reset</text>
</a>
</g>
</g>
<!-- Node2 -->
<g id="Node000002" class="node">
<title>Node2</title>
<g id="a_Node000002"><a xlink:href="classzero__mate_1_1peripheral_1_1CRAM.html#ab231821e251900b34a6a8beddb6b90a5" target="_top" xlink:title="Initializes the RAM.">
<polygon fill="white" stroke="#666666" points="284,-54 160,-54 160,-24 284,-24 284,-54"/>
<text text-anchor="start" x="168" y="-42" font-family="Helvetica,sans-Serif" font-size="10.00">zero_mate::peripheral</text>
<text text-anchor="middle" x="222" y="-31" font-family="Helvetica,sans-Serif" font-size="10.00">::CRAM::Init</text>
</a>
</g>
</g>
<!-- Node1&#45;&gt;Node2 -->
<g id="edge1_Node000001_Node000002" class="edge">
<title>Node1&#45;&gt;Node2</title>
<g id="a_edge1_Node000001_Node000002"><a xlink:title=" ">
<path fill="none" stroke="#63b8ff" d="M309.63,-39C301.14,-39 292.52,-39 284.18,-39"/>
<polygon fill="#63b8ff" stroke="#63b8ff" points="309.91,-42.5 319.91,-39 309.91,-35.5 309.91,-42.5"/>
</a>
</g>
</g>
<!-- Node3 -->
<g id="Node000003" class="node">
<title>Node3</title>
<g id="a_Node000003"><a xlink:href="classzero__mate_1_1peripheral_1_1CRAM.html#ae877434289c7f006b1c8a2f89d3e4b4b" target="_top" xlink:title="Creates an instance of the class.">
<polygon fill="white" stroke="#666666" points="124,-78 0,-78 0,-48 124,-48 124,-78"/>
<text text-anchor="start" x="8" y="-66" font-family="Helvetica,sans-Serif" font-size="10.00">zero_mate::peripheral</text>
<text text-anchor="middle" x="62" y="-55" font-family="Helvetica,sans-Serif" font-size="10.00">::CRAM::CRAM</text>
</a>
</g>
</g>
<!-- Node2&#45;&gt;Node3 -->
<g id="edge2_Node000002_Node000003" class="edge">
<title>Node2&#45;&gt;Node3</title>
<g id="a_edge2_Node000002_Node000003"><a xlink:title=" ">
<path fill="none" stroke="#63b8ff" d="M149.91,-49.8C141.33,-51.1 132.61,-52.43 124.18,-53.71"/>
<polygon fill="#63b8ff" stroke="#63b8ff" points="150.55,-53.24 159.91,-48.28 149.5,-46.32 150.55,-53.24"/>
</a>
</g>
</g>
<!-- Node4 -->
<g id="Node000004" class="node">
<title>Node4</title>
<g id="a_Node000004"><a xlink:href="classzero__mate_1_1peripheral_1_1CRAM.html#a6b5614c93b9064c353097e8c32570c96" target="_top" xlink:title="Creates an instance of the class.">
<polygon fill="white" stroke="#666666" points="124,-30 0,-30 0,0 124,0 124,-30"/>
<text text-anchor="start" x="8" y="-18" font-family="Helvetica,sans-Serif" font-size="10.00">zero_mate::peripheral</text>
<text text-anchor="middle" x="62" y="-7" font-family="Helvetica,sans-Serif" font-size="10.00">::CRAM::CRAM</text>
</a>
</g>
</g>
<!-- Node2&#45;&gt;Node4 -->
<g id="edge3_Node000002_Node000004" class="edge">
<title>Node2&#45;&gt;Node4</title>
<g id="a_edge3_Node000002_Node000004"><a xlink:title=" ">
<path fill="none" stroke="#63b8ff" d="M149.91,-28.2C141.33,-26.9 132.61,-25.57 124.18,-24.29"/>
<polygon fill="#63b8ff" stroke="#63b8ff" points="149.5,-31.68 159.91,-29.72 150.55,-24.76 149.5,-31.68"/>
</a>
</g>
</g>
</g>
</svg>
