<?xml version="1.0" encoding="UTF-8" standalone="no"?>
<!DOCTYPE svg PUBLIC "-//W3C//DTD SVG 1.1//EN"
 "http://www.w3.org/Graphics/SVG/1.1/DTD/svg11.dtd">
<!-- Generated by graphviz version 2.43.0 (0)
 -->
<!-- Title: zero_mate::arm1176jzf_s::CCPU_Context::Set_Flag Pages: 1 -->
<svg width="707pt" height="349pt"
 viewBox="0.00 0.00 707.00 349.00" xmlns="http://www.w3.org/2000/svg" xmlns:xlink="http://www.w3.org/1999/xlink">
<g id="graph0" class="graph" transform="scale(1 1) rotate(0) translate(4 345)">
<title>zero_mate::arm1176jzf_s::CCPU_Context::Set_Flag</title>
<!-- Node1 -->
<g id="Node000001" class="node">
<title>Node1</title>
<g id="a_Node000001"><a xlink:title="Sets/resets a flag in the CPSR register of the current CPU mode.">
<polygon fill="#999999" stroke="#666666" points="699,-185.5 547,-185.5 547,-155.5 699,-155.5 699,-185.5"/>
<text text-anchor="start" x="555" y="-173.5" font-family="Helvetica,sans-Serif" font-size="10.00">zero_mate::arm1176jzf</text>
<text text-anchor="middle" x="623" y="-162.5" font-family="Helvetica,sans-Serif" font-size="10.00">_s::CCPU_Context::Set_Flag</text>
</a>
</g>
</g>
<!-- Node2 -->
<g id="Node000002" class="node">
<title>Node2</title>
<g id="a_Node000002"><a xlink:href="classzero__mate_1_1arm1176jzf__s_1_1CCPU__Context.html#a2dd5a3a65e28cce65d01bdef2746cf1a" target="_top" xlink:title="Globally enables/disables FIQ (fast interrupts)">
<polygon fill="white" stroke="#666666" points="510.5,-329.5 346.5,-329.5 346.5,-299.5 510.5,-299.5 510.5,-329.5"/>
<text text-anchor="start" x="354.5" y="-317.5" font-family="Helvetica,sans-Serif" font-size="10.00">zero_mate::arm1176jzf</text>
<text text-anchor="middle" x="428.5" y="-306.5" font-family="Helvetica,sans-Serif" font-size="10.00">_s::CCPU_Context::Enable_FIQ</text>
</a>
</g>
</g>
<!-- Node1&#45;&gt;Node2 -->
<g id="edge1_Node000001_Node000002" class="edge">
<title>Node1&#45;&gt;Node2</title>
<g id="a_edge1_Node000001_Node000002"><a xlink:title=" ">
<path fill="none" stroke="#63b8ff" d="M606.03,-194.38C586.66,-221.53 551.51,-265.36 511,-290.5 505.49,-293.92 499.46,-296.88 493.26,-299.42"/>
<polygon fill="#63b8ff" stroke="#63b8ff" points="609.13,-196.06 611.98,-185.86 603.39,-192.05 609.13,-196.06"/>
</a>
</g>
</g>
<!-- Node6 -->
<g id="Node000006" class="node">
<title>Node6</title>
<g id="a_Node000006"><a xlink:href="classzero__mate_1_1arm1176jzf__s_1_1CCPU__Context.html#a4b48d0f9508c738b62d96e5593e6d704" target="_top" xlink:title="Globally enables/disables IRQ (interrupts)">
<polygon fill="white" stroke="#666666" points="511,-281.5 346,-281.5 346,-251.5 511,-251.5 511,-281.5"/>
<text text-anchor="start" x="354" y="-269.5" font-family="Helvetica,sans-Serif" font-size="10.00">zero_mate::arm1176jzf</text>
<text text-anchor="middle" x="428.5" y="-258.5" font-family="Helvetica,sans-Serif" font-size="10.00">_s::CCPU_Context::Enable_IRQ</text>
</a>
</g>
</g>
<!-- Node1&#45;&gt;Node6 -->
<g id="edge5_Node000001_Node000006" class="edge">
<title>Node1&#45;&gt;Node6</title>
<g id="a_edge5_Node000001_Node000006"><a xlink:title=" ">
<path fill="none" stroke="#63b8ff" d="M594.46,-191.6C572.76,-207.4 541.22,-228.61 511,-242.5 503.76,-245.83 495.95,-248.82 488.13,-251.47"/>
<polygon fill="#63b8ff" stroke="#63b8ff" points="596.59,-194.37 602.56,-185.62 592.43,-188.74 596.59,-194.37"/>
</a>
</g>
</g>
<!-- Node7 -->
<g id="Node000007" class="node">
<title>Node7</title>
<g id="a_Node000007"><a xlink:href="classzero__mate_1_1arm1176jzf__s_1_1CCPU__Core.html#a92c997ad914fb73cec7feb5fa26d8ead" target="_top" xlink:title="Executes a data processing instruction.">
<polygon fill="white" stroke="#666666" points="494.5,-233.5 362.5,-233.5 362.5,-203.5 494.5,-203.5 494.5,-233.5"/>
<text text-anchor="start" x="370.5" y="-221.5" font-family="Helvetica,sans-Serif" font-size="10.00">zero_mate::arm1176jzf</text>
<text text-anchor="middle" x="428.5" y="-210.5" font-family="Helvetica,sans-Serif" font-size="10.00">_s::CCPU_Core::Execute</text>
</a>
</g>
</g>
<!-- Node1&#45;&gt;Node7 -->
<g id="edge7_Node000001_Node000007" class="edge">
<title>Node1&#45;&gt;Node7</title>
<g id="a_edge7_Node000001_Node000007"><a xlink:title=" ">
<path fill="none" stroke="#63b8ff" d="M551.77,-188.01C531.41,-193.09 509.36,-198.59 489.67,-203.5"/>
<polygon fill="#63b8ff" stroke="#63b8ff" points="552.76,-191.37 561.62,-185.56 551.07,-184.58 552.76,-191.37"/>
</a>
</g>
</g>
<!-- Node8 -->
<g id="Node000008" class="node">
<title>Node8</title>
<g id="a_Node000008"><a xlink:href="classzero__mate_1_1arm1176jzf__s_1_1CCPU__Core.html#a576d9777886ed0e80a7bac6366848911" target="_top" xlink:title="Executes a multiply instruction.">
<polygon fill="white" stroke="#666666" points="494.5,-185.5 362.5,-185.5 362.5,-155.5 494.5,-155.5 494.5,-185.5"/>
<text text-anchor="start" x="370.5" y="-173.5" font-family="Helvetica,sans-Serif" font-size="10.00">zero_mate::arm1176jzf</text>
<text text-anchor="middle" x="428.5" y="-162.5" font-family="Helvetica,sans-Serif" font-size="10.00">_s::CCPU_Core::Execute</text>
</a>
</g>
</g>
<!-- Node1&#45;&gt;Node8 -->
<g id="edge8_Node000001_Node000008" class="edge">
<title>Node1&#45;&gt;Node8</title>
<g id="a_edge8_Node000001_Node000008"><a xlink:title=" ">
<path fill="none" stroke="#63b8ff" d="M536.59,-170.5C522.53,-170.5 508.16,-170.5 494.7,-170.5"/>
<polygon fill="#63b8ff" stroke="#63b8ff" points="536.75,-174 546.75,-170.5 536.75,-167 536.75,-174"/>
</a>
</g>
</g>
<!-- Node9 -->
<g id="Node000009" class="node">
<title>Node9</title>
<g id="a_Node000009"><a xlink:href="classzero__mate_1_1arm1176jzf__s_1_1CCPU__Core.html#a6c7c210cc765ad53ae40a557a1097eac" target="_top" xlink:title="Executes a multiply long instruction.">
<polygon fill="white" stroke="#666666" points="494.5,-137.5 362.5,-137.5 362.5,-107.5 494.5,-107.5 494.5,-137.5"/>
<text text-anchor="start" x="370.5" y="-125.5" font-family="Helvetica,sans-Serif" font-size="10.00">zero_mate::arm1176jzf</text>
<text text-anchor="middle" x="428.5" y="-114.5" font-family="Helvetica,sans-Serif" font-size="10.00">_s::CCPU_Core::Execute</text>
</a>
</g>
</g>
<!-- Node1&#45;&gt;Node9 -->
<g id="edge9_Node000001_Node000009" class="edge">
<title>Node1&#45;&gt;Node9</title>
<g id="a_edge9_Node000001_Node000009"><a xlink:title=" ">
<path fill="none" stroke="#63b8ff" d="M551.77,-152.99C531.41,-147.91 509.36,-142.41 489.67,-137.5"/>
<polygon fill="#63b8ff" stroke="#63b8ff" points="551.07,-156.42 561.62,-155.44 552.76,-149.63 551.07,-156.42"/>
</a>
</g>
</g>
<!-- Node10 -->
<g id="Node000010" class="node">
<title>Node10</title>
<g id="a_Node000010"><a xlink:href="classzero__mate_1_1coprocessor_1_1cp10_1_1CCP10.html#a86ffa2d30274ae4ebf55cf7e06447a8f" target="_top" xlink:title="Executes a VMRS floating point instruction.">
<polygon fill="white" stroke="#666666" points="495,-89.5 362,-89.5 362,-59.5 495,-59.5 495,-89.5"/>
<text text-anchor="start" x="370" y="-77.5" font-family="Helvetica,sans-Serif" font-size="10.00">zero_mate::coprocessor</text>
<text text-anchor="middle" x="428.5" y="-66.5" font-family="Helvetica,sans-Serif" font-size="10.00">::cp10::CCP10::Execute</text>
</a>
</g>
</g>
<!-- Node1&#45;&gt;Node10 -->
<g id="edge10_Node000001_Node000010" class="edge">
<title>Node1&#45;&gt;Node10</title>
<g id="a_edge10_Node000001_Node000010"><a xlink:title=" ">
<path fill="none" stroke="#63b8ff" d="M594.46,-149.4C572.76,-133.6 541.22,-112.39 511,-98.5 503.76,-95.17 495.95,-92.18 488.13,-89.53"/>
<polygon fill="#63b8ff" stroke="#63b8ff" points="592.43,-152.26 602.56,-155.38 596.59,-146.63 592.43,-152.26"/>
</a>
</g>
</g>
<!-- Node11 -->
<g id="Node000011" class="node">
<title>Node11</title>
<g id="a_Node000011"><a xlink:href="classzero__mate_1_1arm1176jzf__s_1_1CCPU__Core.html#a568509274f1d8ed69a2b263a7a0ec00f" target="_top" xlink:title="Sets interrupt mask bits (A, I, and F) in the given value that is treated as the new value of the CPS...">
<polygon fill="white" stroke="#666666" points="507,-41 350,-41 350,0 507,0 507,-41"/>
<text text-anchor="start" x="358" y="-29" font-family="Helvetica,sans-Serif" font-size="10.00">zero_mate::arm1176jzf</text>
<text text-anchor="start" x="358" y="-18" font-family="Helvetica,sans-Serif" font-size="10.00">_s::CCPU_Core::Set_Interrupt</text>
<text text-anchor="middle" x="428.5" y="-7" font-family="Helvetica,sans-Serif" font-size="10.00">_Mask_Bits</text>
</a>
</g>
</g>
<!-- Node1&#45;&gt;Node11 -->
<g id="edge11_Node000001_Node000011" class="edge">
<title>Node1&#45;&gt;Node11</title>
<g id="a_edge11_Node000001_Node000011"><a xlink:title=" ">
<path fill="none" stroke="#63b8ff" d="M605.73,-147.1C586.07,-120.38 550.66,-76.97 511,-50.5 505.86,-47.07 500.27,-43.97 494.52,-41.18"/>
<polygon fill="#63b8ff" stroke="#63b8ff" points="603.08,-149.41 611.78,-155.47 608.76,-145.31 603.08,-149.41"/>
</a>
</g>
</g>
<!-- Node3 -->
<g id="Node000003" class="node">
<title>Node3</title>
<g id="a_Node000003"><a xlink:href="classzero__mate_1_1arm1176jzf__s_1_1CCPU__Context.html#a286edf7ca93bc920f9896b5b777b4b8b" target="_top" xlink:title="Resets the context of the CPU.">
<polygon fill="white" stroke="#666666" points="310,-305.5 173,-305.5 173,-275.5 310,-275.5 310,-305.5"/>
<text text-anchor="start" x="181" y="-293.5" font-family="Helvetica,sans-Serif" font-size="10.00">zero_mate::arm1176jzf</text>
<text text-anchor="middle" x="241.5" y="-282.5" font-family="Helvetica,sans-Serif" font-size="10.00">_s::CCPU_Context::Reset</text>
</a>
</g>
</g>
<!-- Node2&#45;&gt;Node3 -->
<g id="edge2_Node000002_Node000003" class="edge">
<title>Node2&#45;&gt;Node3</title>
<g id="a_edge2_Node000002_Node000003"><a xlink:title=" ">
<path fill="none" stroke="#63b8ff" d="M336.36,-302.68C327.48,-301.52 318.59,-300.37 310.01,-299.26"/>
<polygon fill="#63b8ff" stroke="#63b8ff" points="335.99,-306.16 346.36,-303.97 336.89,-299.22 335.99,-306.16"/>
</a>
</g>
</g>
<!-- Node4 -->
<g id="Node000004" class="node">
<title>Node4</title>
<g id="a_Node000004"><a xlink:href="classzero__mate_1_1arm1176jzf__s_1_1CCPU__Context.html#afb2bc49ac16284a27b81cec3322f8898" target="_top" xlink:title="Constructor of the class.">
<polygon fill="white" stroke="#666666" points="137,-341 0,-341 0,-300 137,-300 137,-341"/>
<text text-anchor="start" x="8" y="-329" font-family="Helvetica,sans-Serif" font-size="10.00">zero_mate::arm1176jzf</text>
<text text-anchor="start" x="8" y="-318" font-family="Helvetica,sans-Serif" font-size="10.00">_s::CCPU_Context::CCPU</text>
<text text-anchor="middle" x="68.5" y="-307" font-family="Helvetica,sans-Serif" font-size="10.00">_Context</text>
</a>
</g>
</g>
<!-- Node3&#45;&gt;Node4 -->
<g id="edge3_Node000003_Node000004" class="edge">
<title>Node3&#45;&gt;Node4</title>
<g id="a_edge3_Node000003_Node000004"><a xlink:title=" ">
<path fill="none" stroke="#63b8ff" d="M162.9,-304.11C154.31,-305.62 145.61,-307.15 137.15,-308.63"/>
<polygon fill="#63b8ff" stroke="#63b8ff" points="163.67,-307.53 172.92,-302.36 162.46,-300.64 163.67,-307.53"/>
</a>
</g>
</g>
<!-- Node5 -->
<g id="Node000005" class="node">
<title>Node5</title>
<g id="a_Node000005"><a xlink:href="classzero__mate_1_1arm1176jzf__s_1_1CCPU__Core.html#acb9dcca2bec495d4424c6183c6ac7064" target="_top" xlink:title="Resets the CPU context.">
<polygon fill="white" stroke="#666666" points="133.5,-282 3.5,-282 3.5,-241 133.5,-241 133.5,-282"/>
<text text-anchor="start" x="11.5" y="-270" font-family="Helvetica,sans-Serif" font-size="10.00">zero_mate::arm1176jzf</text>
<text text-anchor="start" x="11.5" y="-259" font-family="Helvetica,sans-Serif" font-size="10.00">_s::CCPU_Core::Reset</text>
<text text-anchor="middle" x="68.5" y="-248" font-family="Helvetica,sans-Serif" font-size="10.00">_Context</text>
</a>
</g>
</g>
<!-- Node3&#45;&gt;Node5 -->
<g id="edge4_Node000003_Node000005" class="edge">
<title>Node3&#45;&gt;Node5</title>
<g id="a_edge4_Node000003_Node000005"><a xlink:title=" ">
<path fill="none" stroke="#63b8ff" d="M162.79,-277.32C153,-275.66 143.07,-273.98 133.53,-272.36"/>
<polygon fill="#63b8ff" stroke="#63b8ff" points="162.47,-280.82 172.92,-279.04 163.64,-273.92 162.47,-280.82"/>
</a>
</g>
</g>
<!-- Node6&#45;&gt;Node3 -->
<g id="edge6_Node000006_Node000003" class="edge">
<title>Node6&#45;&gt;Node3</title>
<g id="a_edge6_Node000006_Node000003"><a xlink:title=" ">
<path fill="none" stroke="#63b8ff" d="M335.73,-278.4C327.12,-279.52 318.51,-280.64 310.18,-281.72"/>
<polygon fill="#63b8ff" stroke="#63b8ff" points="336.35,-281.85 345.82,-277.1 335.45,-274.91 336.35,-281.85"/>
</a>
</g>
</g>
<!-- Node12 -->
<g id="Node000012" class="node">
<title>Node12</title>
<g id="a_Node000012"><a xlink:href="classzero__mate_1_1arm1176jzf__s_1_1CCPU__Core.html#acd8902811a86afabf464f121d58628ee" target="_top" xlink:title="Executes a CPS instruction.">
<polygon fill="white" stroke="#666666" points="307.5,-35.5 175.5,-35.5 175.5,-5.5 307.5,-5.5 307.5,-35.5"/>
<text text-anchor="start" x="183.5" y="-23.5" font-family="Helvetica,sans-Serif" font-size="10.00">zero_mate::arm1176jzf</text>
<text text-anchor="middle" x="241.5" y="-12.5" font-family="Helvetica,sans-Serif" font-size="10.00">_s::CCPU_Core::Execute</text>
</a>
</g>
</g>
<!-- Node11&#45;&gt;Node12 -->
<g id="edge12_Node000011_Node000012" class="edge">
<title>Node11&#45;&gt;Node12</title>
<g id="a_edge12_Node000011_Node000012"><a xlink:title=" ">
<path fill="none" stroke="#63b8ff" d="M339.58,-20.5C328.83,-20.5 317.99,-20.5 307.66,-20.5"/>
<polygon fill="#63b8ff" stroke="#63b8ff" points="339.85,-24 349.85,-20.5 339.85,-17 339.85,-24"/>
</a>
</g>
</g>
</g>
</svg>
