<?xml version="1.0" encoding="UTF-8" standalone="no"?>
<!DOCTYPE svg PUBLIC "-//W3C//DTD SVG 1.1//EN"
 "http://www.w3.org/Graphics/SVG/1.1/DTD/svg11.dtd">
<!-- Generated by graphviz version 2.43.0 (0)
 -->
<!-- Title: zero_mate::peripheral::CGPIO_Manager::Get_Register_Index Pages: 1 -->
<svg width="655pt" height="108pt"
 viewBox="0.00 0.00 655.00 108.00" xmlns="http://www.w3.org/2000/svg" xmlns:xlink="http://www.w3.org/1999/xlink">
<g id="graph0" class="graph" transform="scale(1 1) rotate(0) translate(4 104)">
<title>zero_mate::peripheral::CGPIO_Manager::Get_Register_Index</title>
<!-- Node1 -->
<g id="Node000001" class="node">
<title>Node1</title>
<g id="a_Node000001"><a xlink:title="Returns the index of the register (out of the two alternatives) based on the pin index.">
<polygon fill="#999999" stroke="#666666" points="647,-70 522,-70 522,-29 647,-29 647,-70"/>
<text text-anchor="start" x="530" y="-58" font-family="Helvetica,sans-Serif" font-size="10.00">zero_mate::peripheral</text>
<text text-anchor="start" x="530" y="-47" font-family="Helvetica,sans-Serif" font-size="10.00">::CGPIO_Manager::Get</text>
<text text-anchor="middle" x="584.5" y="-36" font-family="Helvetica,sans-Serif" font-size="10.00">_Register_Index</text>
</a>
</g>
</g>
<!-- Node2 -->
<g id="Node000002" class="node">
<title>Node2</title>
<g id="a_Node000002"><a xlink:href="classzero__mate_1_1peripheral_1_1CGPIO__Manager.html#afb4a55159afdaa47cd3640dfd1e0106b" target="_top" xlink:title="Mirrors the state of a given in in the GPLEV register.">
<polygon fill="white" stroke="#666666" points="486,-70 349,-70 349,-29 486,-29 486,-70"/>
<text text-anchor="start" x="357" y="-58" font-family="Helvetica,sans-Serif" font-size="10.00">zero_mate::peripheral</text>
<text text-anchor="start" x="357" y="-47" font-family="Helvetica,sans-Serif" font-size="10.00">::CGPIO_Manager::Mirror</text>
<text text-anchor="middle" x="417.5" y="-36" font-family="Helvetica,sans-Serif" font-size="10.00">_Pin_State_In_GPLEVn</text>
</a>
</g>
</g>
<!-- Node1&#45;&gt;Node2 -->
<g id="edge1_Node000001_Node000002" class="edge">
<title>Node1&#45;&gt;Node2</title>
<g id="a_edge1_Node000001_Node000002"><a xlink:title=" ">
<path fill="none" stroke="#63b8ff" d="M511.4,-49.5C502.96,-49.5 494.38,-49.5 486.01,-49.5"/>
<polygon fill="#63b8ff" stroke="#63b8ff" points="511.59,-53 521.59,-49.5 511.59,-46 511.59,-53"/>
</a>
</g>
</g>
<!-- Node3 -->
<g id="Node000003" class="node">
<title>Node3</title>
<g id="a_Node000003"><a xlink:href="classzero__mate_1_1peripheral_1_1CGPIO__Manager.html#a9d695b8f3fc211eaaf4c15a982d3f504" target="_top" xlink:title="Sets a new state of a given pin.">
<polygon fill="white" stroke="#666666" points="303.5,-100 179.5,-100 179.5,-59 303.5,-59 303.5,-100"/>
<text text-anchor="start" x="187.5" y="-88" font-family="Helvetica,sans-Serif" font-size="10.00">zero_mate::peripheral</text>
<text text-anchor="start" x="187.5" y="-77" font-family="Helvetica,sans-Serif" font-size="10.00">::CGPIO_Manager::Set</text>
<text text-anchor="middle" x="241.5" y="-66" font-family="Helvetica,sans-Serif" font-size="10.00">_Pin_State</text>
</a>
</g>
</g>
<!-- Node2&#45;&gt;Node3 -->
<g id="edge2_Node000002_Node000003" class="edge">
<title>Node2&#45;&gt;Node3</title>
<g id="a_edge2_Node000002_Node000003"><a xlink:title=" ">
<path fill="none" stroke="#63b8ff" d="M338.87,-62.89C327.04,-64.92 314.97,-67 303.56,-68.97"/>
<polygon fill="#63b8ff" stroke="#63b8ff" points="339.47,-66.33 348.73,-61.18 338.28,-59.43 339.47,-66.33"/>
</a>
</g>
</g>
<!-- Node4 -->
<g id="Node000004" class="node">
<title>Node4</title>
<g id="a_Node000004"><a xlink:href="classzero__mate_1_1peripheral_1_1CGPIO__Manager.html#ae93785da50eefb8a8cc21c1c59a32726" target="_top" xlink:title="Updates the state of all pins within a given register.">
<polygon fill="white" stroke="#666666" points="313,-41 170,-41 170,0 313,0 313,-41"/>
<text text-anchor="start" x="178" y="-29" font-family="Helvetica,sans-Serif" font-size="10.00">zero_mate::peripheral</text>
<text text-anchor="start" x="178" y="-18" font-family="Helvetica,sans-Serif" font-size="10.00">::CGPIO_Manager::Update</text>
<text text-anchor="middle" x="241.5" y="-7" font-family="Helvetica,sans-Serif" font-size="10.00">_Pin_State</text>
</a>
</g>
</g>
<!-- Node2&#45;&gt;Node4 -->
<g id="edge3_Node000002_Node000004" class="edge">
<title>Node2&#45;&gt;Node4</title>
<g id="a_edge3_Node000002_Node000004"><a xlink:title=" ">
<path fill="none" stroke="#63b8ff" d="M338.81,-36.55C330.3,-35.13 321.67,-33.69 313.25,-32.29"/>
<polygon fill="#63b8ff" stroke="#63b8ff" points="338.29,-40.01 348.73,-38.2 339.44,-33.11 338.29,-40.01"/>
</a>
</g>
</g>
<!-- Node5 -->
<g id="Node000005" class="node">
<title>Node5</title>
<g id="a_Node000005"><a xlink:href="classzero__mate_1_1peripheral_1_1CGPIO__Manager.html#a26aa957dbb7682447e4ebf9aa078c00c" target="_top" xlink:title="Writes data to the peripheral (IPeripheral interface).">
<polygon fill="white" stroke="#666666" points="134,-35.5 0,-35.5 0,-5.5 134,-5.5 134,-35.5"/>
<text text-anchor="start" x="8" y="-23.5" font-family="Helvetica,sans-Serif" font-size="10.00">zero_mate::peripheral</text>
<text text-anchor="middle" x="67" y="-12.5" font-family="Helvetica,sans-Serif" font-size="10.00">::CGPIO_Manager::Write</text>
</a>
</g>
</g>
<!-- Node4&#45;&gt;Node5 -->
<g id="edge4_Node000004_Node000005" class="edge">
<title>Node4&#45;&gt;Node5</title>
<g id="a_edge4_Node000004_Node000005"><a xlink:title=" ">
<path fill="none" stroke="#63b8ff" d="M159.79,-20.5C151.19,-20.5 142.51,-20.5 134.11,-20.5"/>
<polygon fill="#63b8ff" stroke="#63b8ff" points="159.84,-24 169.84,-20.5 159.84,-17 159.84,-24"/>
</a>
</g>
</g>
</g>
</svg>
