<?xml version="1.0" encoding="UTF-8" standalone="no"?>
<!DOCTYPE svg PUBLIC "-//W3C//DTD SVG 1.1//EN"
 "http://www.w3.org/Graphics/SVG/1.1/DTD/svg11.dtd">
<!-- Generated by graphviz version 2.43.0 (0)
 -->
<!-- Title: zero_mate::peripheral::CGPIO_Manager::CPin::Get_State Pages: 1 -->
<svg width="651pt" height="103pt"
 viewBox="0.00 0.00 651.00 103.00" xmlns="http://www.w3.org/2000/svg" xmlns:xlink="http://www.w3.org/1999/xlink">
<g id="graph0" class="graph" transform="scale(1 1) rotate(0) translate(4 99)">
<title>zero_mate::peripheral::CGPIO_Manager::CPin::Get_State</title>
<!-- Node1 -->
<g id="Node000001" class="node">
<title>Node1</title>
<g id="a_Node000001"><a xlink:title="Returns the current state of the pin.">
<polygon fill="#999999" stroke="#666666" points="643,-68 514,-68 514,-27 643,-27 643,-68"/>
<text text-anchor="start" x="522" y="-56" font-family="Helvetica,sans-Serif" font-size="10.00">zero_mate::peripheral</text>
<text text-anchor="start" x="522" y="-45" font-family="Helvetica,sans-Serif" font-size="10.00">::CGPIO_Manager::CPin</text>
<text text-anchor="middle" x="578.5" y="-34" font-family="Helvetica,sans-Serif" font-size="10.00">::Get_State</text>
</a>
</g>
</g>
<!-- Node2 -->
<g id="Node000002" class="node">
<title>Node2</title>
<g id="a_Node000002"><a xlink:href="classzero__mate_1_1peripheral_1_1CGPIO__Manager.html#a8ff64f4f3cdf0a19f5922ae80423a476" target="_top" xlink:title="Returns the current state of a given pin.">
<polygon fill="white" stroke="#666666" points="469,-95 337,-95 337,-54 469,-54 469,-95"/>
<text text-anchor="start" x="345" y="-83" font-family="Helvetica,sans-Serif" font-size="10.00">zero_mate::peripheral</text>
<text text-anchor="start" x="345" y="-72" font-family="Helvetica,sans-Serif" font-size="10.00">::CGPIO_Manager::Read</text>
<text text-anchor="middle" x="403" y="-61" font-family="Helvetica,sans-Serif" font-size="10.00">_GPIO_Pin</text>
</a>
</g>
</g>
<!-- Node1&#45;&gt;Node2 -->
<g id="edge1_Node000001_Node000002" class="edge">
<title>Node1&#45;&gt;Node2</title>
<g id="a_edge1_Node000001_Node000002"><a xlink:title=" ">
<path fill="none" stroke="#63b8ff" d="M503.83,-58.96C492.28,-60.76 480.41,-62.61 469.07,-64.37"/>
<polygon fill="#63b8ff" stroke="#63b8ff" points="504.54,-62.4 513.88,-57.4 503.46,-55.48 504.54,-62.4"/>
</a>
</g>
</g>
<!-- Node3 -->
<g id="Node000003" class="node">
<title>Node3</title>
<g id="a_Node000003"><a xlink:href="classzero__mate_1_1gui_1_1CGPIO__Window.html#aeeb6f57b70b2367e666550cb69bd5d13" target="_top" xlink:title="Renders information about a single GPIO pin (table row).">
<polygon fill="white" stroke="#666666" points="478,-35.5 328,-35.5 328,-5.5 478,-5.5 478,-35.5"/>
<text text-anchor="start" x="336" y="-23.5" font-family="Helvetica,sans-Serif" font-size="10.00">zero_mate::gui::CGPIO</text>
<text text-anchor="middle" x="403" y="-12.5" font-family="Helvetica,sans-Serif" font-size="10.00">_Window::Render_GPIO_Pin</text>
</a>
</g>
</g>
<!-- Node1&#45;&gt;Node3 -->
<g id="edge2_Node000001_Node000003" class="edge">
<title>Node1&#45;&gt;Node3</title>
<g id="a_edge2_Node000001_Node000003"><a xlink:title=" ">
<path fill="none" stroke="#63b8ff" d="M503.97,-36.06C495.44,-34.73 486.73,-33.37 478.19,-32.05"/>
<polygon fill="#63b8ff" stroke="#63b8ff" points="503.46,-39.52 513.88,-37.6 504.54,-32.6 503.46,-39.52"/>
</a>
</g>
</g>
<!-- Node4 -->
<g id="Node000004" class="node">
<title>Node4</title>
<g id="a_Node000004"><a xlink:href="classzero__mate_1_1gui_1_1CGPIO__Window.html#ad1affc13af41a19f9c66ae37082d5cb6" target="_top" xlink:title="Renders a table with all GPIO pins.">
<polygon fill="white" stroke="#666666" points="292,-41 162,-41 162,0 292,0 292,-41"/>
<text text-anchor="start" x="170" y="-29" font-family="Helvetica,sans-Serif" font-size="10.00">zero_mate::gui::CGPIO</text>
<text text-anchor="start" x="170" y="-18" font-family="Helvetica,sans-Serif" font-size="10.00">_Window::Render_GPIO</text>
<text text-anchor="middle" x="227" y="-7" font-family="Helvetica,sans-Serif" font-size="10.00">_Pins_Table</text>
</a>
</g>
</g>
<!-- Node3&#45;&gt;Node4 -->
<g id="edge3_Node000003_Node000004" class="edge">
<title>Node3&#45;&gt;Node4</title>
<g id="a_edge3_Node000003_Node000004"><a xlink:title=" ">
<path fill="none" stroke="#63b8ff" d="M317.83,-20.5C309.17,-20.5 300.48,-20.5 292.09,-20.5"/>
<polygon fill="#63b8ff" stroke="#63b8ff" points="317.96,-24 327.96,-20.5 317.96,-17 317.96,-24"/>
</a>
</g>
</g>
<!-- Node5 -->
<g id="Node000005" class="node">
<title>Node5</title>
<g id="a_Node000005"><a xlink:href="classzero__mate_1_1gui_1_1CGPIO__Window.html#a8ce2c10cab6d91789adc071291c9a5be" target="_top" xlink:title="Renders GPIO pins (IGUI_Window interface).">
<polygon fill="white" stroke="#666666" points="126,-35.5 0,-35.5 0,-5.5 126,-5.5 126,-35.5"/>
<text text-anchor="start" x="8" y="-23.5" font-family="Helvetica,sans-Serif" font-size="10.00">zero_mate::gui::CGPIO</text>
<text text-anchor="middle" x="63" y="-12.5" font-family="Helvetica,sans-Serif" font-size="10.00">_Window::Render</text>
</a>
</g>
</g>
<!-- Node4&#45;&gt;Node5 -->
<g id="edge4_Node000004_Node000005" class="edge">
<title>Node4&#45;&gt;Node5</title>
<g id="a_edge4_Node000004_Node000005"><a xlink:title=" ">
<path fill="none" stroke="#63b8ff" d="M151.95,-20.5C143.36,-20.5 134.65,-20.5 126.24,-20.5"/>
<polygon fill="#63b8ff" stroke="#63b8ff" points="151.97,-24 161.97,-20.5 151.97,-17 151.97,-24"/>
</a>
</g>
</g>
</g>
</svg>
