<?xml version="1.0" encoding="UTF-8" standalone="no"?>
<!DOCTYPE svg PUBLIC "-//W3C//DTD SVG 1.1//EN"
 "http://www.w3.org/Graphics/SVG/1.1/DTD/svg11.dtd">
<!-- Generated by graphviz version 2.43.0 (0)
 -->
<!-- Title: zero_mate::gui::CTop_Bar_Menu::Reload_Kernel Pages: 1 -->
<svg width="901pt" height="209pt"
 viewBox="0.00 0.00 901.00 209.00" xmlns="http://www.w3.org/2000/svg" xmlns:xlink="http://www.w3.org/1999/xlink">
<g id="graph0" class="graph" transform="scale(1 1) rotate(0) translate(4 205)">
<title>zero_mate::gui::CTop_Bar_Menu::Reload_Kernel</title>
<!-- Node1 -->
<g id="Node000001" class="node">
<title>Node1</title>
<g id="a_Node000001"><a xlink:title="Reloads the kernel.">
<polygon fill="#999999" stroke="#666666" points="146,-147 0,-147 0,-117 146,-117 146,-147"/>
<text text-anchor="start" x="8" y="-135" font-family="Helvetica,sans-Serif" font-size="10.00">zero_mate::gui::CTop</text>
<text text-anchor="middle" x="73" y="-124" font-family="Helvetica,sans-Serif" font-size="10.00">_Bar_Menu::Reload_Kernel</text>
</a>
</g>
</g>
<!-- Node2 -->
<g id="Node000002" class="node">
<title>Node2</title>
<g id="a_Node000002"><a xlink:href="classzero__mate_1_1utils_1_1CLogging__System.html#a57ed77e1a5cf822cea532cc5e05c3f60" target="_top" xlink:title="Logs an error message via all registered loggers.">
<polygon fill="white" stroke="#666666" points="509,-174 363,-174 363,-144 509,-144 509,-174"/>
<text text-anchor="start" x="371" y="-162" font-family="Helvetica,sans-Serif" font-size="10.00">zero_mate::utils::CLogging</text>
<text text-anchor="middle" x="436" y="-151" font-family="Helvetica,sans-Serif" font-size="10.00">_System::Error</text>
</a>
</g>
</g>
<!-- Node1&#45;&gt;Node2 -->
<g id="edge1_Node000001_Node000002" class="edge">
<title>Node1&#45;&gt;Node2</title>
<g id="a_edge1_Node000001_Node000002"><a xlink:title=" ">
<path fill="none" stroke="#63b8ff" d="M146.19,-137.4C205.83,-141.86 290.51,-148.19 352.76,-152.85"/>
<polygon fill="#63b8ff" stroke="#63b8ff" points="352.71,-156.35 362.94,-153.61 353.23,-149.37 352.71,-156.35"/>
</a>
</g>
</g>
<!-- Node7 -->
<g id="Node000007" class="node">
<title>Node7</title>
<g id="a_Node000007"><a xlink:href="classzero__mate_1_1gui_1_1CTop__Bar__Menu.html#af8e80293dff0c20be7ea071d50dec62c" target="_top" xlink:title="Loads a single ELF file.">
<polygon fill="white" stroke="#666666" points="327,-126 182,-126 182,-96 327,-96 327,-126"/>
<text text-anchor="start" x="190" y="-114" font-family="Helvetica,sans-Serif" font-size="10.00">zero_mate::gui::CTop</text>
<text text-anchor="middle" x="254.5" y="-103" font-family="Helvetica,sans-Serif" font-size="10.00">_Bar_Menu::Load_ELF_File</text>
</a>
</g>
</g>
<!-- Node1&#45;&gt;Node7 -->
<g id="edge6_Node000001_Node000007" class="edge">
<title>Node1&#45;&gt;Node7</title>
<g id="a_edge6_Node000001_Node000007"><a xlink:title=" ">
<path fill="none" stroke="#63b8ff" d="M146.23,-123.55C154.71,-122.56 163.4,-121.54 171.98,-120.54"/>
<polygon fill="#63b8ff" stroke="#63b8ff" points="172.47,-124 182,-119.37 171.66,-117.05 172.47,-124"/>
</a>
</g>
</g>
<!-- Node3 -->
<g id="Node000003" class="node">
<title>Node3</title>
<g id="a_Node000003"><a xlink:href="classzero__mate_1_1utils_1_1CLogging__System.html#a71ed11c796553cbe8fd99773406a1060" target="_top" xlink:title="Creates a formatted message to be logged.">
<polygon fill="white" stroke="#666666" points="697,-182.5 545,-182.5 545,-141.5 697,-141.5 697,-182.5"/>
<text text-anchor="start" x="553" y="-170.5" font-family="Helvetica,sans-Serif" font-size="10.00">zero_mate::utils::CLogging</text>
<text text-anchor="start" x="553" y="-159.5" font-family="Helvetica,sans-Serif" font-size="10.00">_System::Create_Formatted</text>
<text text-anchor="middle" x="621" y="-148.5" font-family="Helvetica,sans-Serif" font-size="10.00">_Log_Msg</text>
</a>
</g>
</g>
<!-- Node2&#45;&gt;Node3 -->
<g id="edge2_Node000002_Node000003" class="edge">
<title>Node2&#45;&gt;Node3</title>
<g id="a_edge2_Node000002_Node000003"><a xlink:title=" ">
<path fill="none" stroke="#63b8ff" d="M509.06,-160.18C517.55,-160.32 526.26,-160.46 534.9,-160.6"/>
<polygon fill="#63b8ff" stroke="#63b8ff" points="534.94,-164.11 544.99,-160.77 535.05,-157.11 534.94,-164.11"/>
</a>
</g>
</g>
<!-- Node6 -->
<g id="Node000006" class="node">
<title>Node6</title>
<g id="a_Node000006"><a xlink:href="classzero__mate_1_1utils_1_1CLogging__System.html#ad371c67ef65763966ccf9291002e86f3" target="_top" xlink:title="Extract the filename from a given location within the source files.">
<polygon fill="white" stroke="#666666" points="695.5,-123 546.5,-123 546.5,-93 695.5,-93 695.5,-123"/>
<text text-anchor="start" x="554.5" y="-111" font-family="Helvetica,sans-Serif" font-size="10.00">zero_mate::utils::CLogging</text>
<text text-anchor="middle" x="621" y="-100" font-family="Helvetica,sans-Serif" font-size="10.00">_System::Extract_Filename</text>
</a>
</g>
</g>
<!-- Node2&#45;&gt;Node6 -->
<g id="edge5_Node000002_Node000006" class="edge">
<title>Node2&#45;&gt;Node6</title>
<g id="a_edge5_Node000002_Node000006"><a xlink:title=" ">
<path fill="none" stroke="#63b8ff" d="M490.92,-143.97C511.49,-138.24 535.13,-131.65 556.51,-125.69"/>
<polygon fill="#63b8ff" stroke="#63b8ff" points="557.46,-129.06 566.15,-123.01 555.58,-122.32 557.46,-129.06"/>
</a>
</g>
</g>
<!-- Node4 -->
<g id="Node000004" class="node">
<title>Node4</title>
<g id="a_Node000004"><a xlink:href="classzero__mate_1_1utils_1_1CLogging__System.html#aa70c102c805079042ffea2a6f2a5ad64" target="_top" xlink:title="Formats a given timestamp.">
<polygon fill="white" stroke="#666666" points="893,-201 733,-201 733,-171 893,-171 893,-201"/>
<text text-anchor="start" x="741" y="-189" font-family="Helvetica,sans-Serif" font-size="10.00">zero_mate::utils::CLogging</text>
<text text-anchor="middle" x="813" y="-178" font-family="Helvetica,sans-Serif" font-size="10.00">_System::Format_Timestamp</text>
</a>
</g>
</g>
<!-- Node3&#45;&gt;Node4 -->
<g id="edge3_Node000003_Node000004" class="edge">
<title>Node3&#45;&gt;Node4</title>
<g id="a_edge3_Node000003_Node000004"><a xlink:title=" ">
<path fill="none" stroke="#63b8ff" d="M697.09,-171.49C705.52,-172.55 714.16,-173.64 722.74,-174.73"/>
<polygon fill="#63b8ff" stroke="#63b8ff" points="722.41,-178.21 732.77,-175.99 723.29,-171.27 722.41,-178.21"/>
</a>
</g>
</g>
<!-- Node5 -->
<g id="Node000005" class="node">
<title>Node5</title>
<g id="a_Node000005"><a xlink:href="classzero__mate_1_1utils_1_1CLogging__System.html#ae3ca637537dde05e0b9119145c840331" target="_top" xlink:title="Returns the current timestamp that will be used in a log message.">
<polygon fill="white" stroke="#666666" points="886,-153 740,-153 740,-123 886,-123 886,-153"/>
<text text-anchor="start" x="748" y="-141" font-family="Helvetica,sans-Serif" font-size="10.00">zero_mate::utils::CLogging</text>
<text text-anchor="middle" x="813" y="-130" font-family="Helvetica,sans-Serif" font-size="10.00">_System::Get_Timestamp</text>
</a>
</g>
</g>
<!-- Node3&#45;&gt;Node5 -->
<g id="edge4_Node000003_Node000005" class="edge">
<title>Node3&#45;&gt;Node5</title>
<g id="a_edge4_Node000003_Node000005"><a xlink:title=" ">
<path fill="none" stroke="#63b8ff" d="M697.09,-152.51C707.89,-151.15 719.05,-149.74 729.98,-148.36"/>
<polygon fill="#63b8ff" stroke="#63b8ff" points="730.45,-151.83 739.93,-147.1 729.57,-144.88 730.45,-151.83"/>
</a>
</g>
</g>
<!-- Node7&#45;&gt;Node2 -->
<g id="edge7_Node000007_Node000002" class="edge">
<title>Node7&#45;&gt;Node2</title>
<g id="a_edge7_Node000007_Node000002"><a xlink:title=" ">
<path fill="none" stroke="#63b8ff" d="M311.8,-126.06C330.01,-130.93 350.37,-136.37 369.21,-141.41"/>
<polygon fill="#63b8ff" stroke="#63b8ff" points="368.33,-144.8 378.9,-144 370.14,-138.03 368.33,-144.8"/>
</a>
</g>
</g>
<!-- Node8 -->
<g id="Node000008" class="node">
<title>Node8</title>
<g id="a_Node000008"><a xlink:href="classzero__mate_1_1gui_1_1CTop__Bar__Menu.html#a9374e039e857fa2f4d1e65f7edcd707f" target="_top" xlink:title="Returns a filename of a given filepath.">
<polygon fill="white" stroke="#666666" points="508,-78 364,-78 364,-48 508,-48 508,-78"/>
<text text-anchor="start" x="372" y="-66" font-family="Helvetica,sans-Serif" font-size="10.00">zero_mate::gui::CTop</text>
<text text-anchor="middle" x="436" y="-55" font-family="Helvetica,sans-Serif" font-size="10.00">_Bar_Menu::Get_Filename</text>
</a>
</g>
</g>
<!-- Node7&#45;&gt;Node8 -->
<g id="edge8_Node000007_Node000008" class="edge">
<title>Node7&#45;&gt;Node8</title>
<g id="a_edge8_Node000007_Node000008"><a xlink:title=" ">
<path fill="none" stroke="#63b8ff" d="M311.8,-95.94C330.01,-91.07 350.37,-85.63 369.21,-80.59"/>
<polygon fill="#63b8ff" stroke="#63b8ff" points="370.14,-83.97 378.9,-78 368.33,-77.2 370.14,-83.97"/>
</a>
</g>
</g>
<!-- Node9 -->
<g id="Node000009" class="node">
<title>Node9</title>
<g id="a_Node000009"><a xlink:href="classzero__mate_1_1utils_1_1CLogging__System.html#a455d99c3614dc92ffbdbdcdb6b8b8bb8" target="_top" xlink:title="Logs an info message via all registered loggers.">
<polygon fill="white" stroke="#666666" points="509,-126 363,-126 363,-96 509,-96 509,-126"/>
<text text-anchor="start" x="371" y="-114" font-family="Helvetica,sans-Serif" font-size="10.00">zero_mate::utils::CLogging</text>
<text text-anchor="middle" x="436" y="-103" font-family="Helvetica,sans-Serif" font-size="10.00">_System::Info</text>
</a>
</g>
</g>
<!-- Node7&#45;&gt;Node9 -->
<g id="edge9_Node000007_Node000009" class="edge">
<title>Node7&#45;&gt;Node9</title>
<g id="a_edge9_Node000007_Node000009"><a xlink:title=" ">
<path fill="none" stroke="#63b8ff" d="M327.22,-111C335.55,-111 344.1,-111 352.56,-111"/>
<polygon fill="#63b8ff" stroke="#63b8ff" points="352.81,-114.5 362.81,-111 352.81,-107.5 352.81,-114.5"/>
</a>
</g>
</g>
<!-- Node10 -->
<g id="Node000010" class="node">
<title>Node10</title>
<g id="a_Node000010"><a xlink:href="namespacezero__mate_1_1utils_1_1elf.html#a9f6c82c3b8cd3f725d004c7b9022d69a" target="_top" xlink:title="Loads a given ELF file (kernel) into the memory.">
<polygon fill="white" stroke="#666666" points="493,-30 379,-30 379,0 493,0 493,-30"/>
<text text-anchor="start" x="387" y="-18" font-family="Helvetica,sans-Serif" font-size="10.00">zero_mate::utils::elf</text>
<text text-anchor="middle" x="436" y="-7" font-family="Helvetica,sans-Serif" font-size="10.00">::Load_ELF</text>
</a>
</g>
</g>
<!-- Node7&#45;&gt;Node10 -->
<g id="edge12_Node000007_Node000010" class="edge">
<title>Node7&#45;&gt;Node10</title>
<g id="a_edge12_Node000007_Node000010"><a xlink:title=" ">
<path fill="none" stroke="#63b8ff" d="M274.74,-95.78C295.53,-79.9 330.13,-55.12 363,-39 366.73,-37.17 370.63,-35.43 374.6,-33.78"/>
<polygon fill="#63b8ff" stroke="#63b8ff" points="375.93,-37.02 383.96,-30.11 373.37,-30.51 375.93,-37.02"/>
</a>
</g>
</g>
<!-- Node9&#45;&gt;Node3 -->
<g id="edge10_Node000009_Node000003" class="edge">
<title>Node9&#45;&gt;Node3</title>
<g id="a_edge10_Node000009_Node000003"><a xlink:title=" ">
<path fill="none" stroke="#63b8ff" d="M490.92,-126.03C505.1,-129.98 520.74,-134.34 536.1,-138.62"/>
<polygon fill="#63b8ff" stroke="#63b8ff" points="535.55,-142.1 546.13,-141.41 537.43,-135.36 535.55,-142.1"/>
</a>
</g>
</g>
<!-- Node9&#45;&gt;Node6 -->
<g id="edge11_Node000009_Node000006" class="edge">
<title>Node9&#45;&gt;Node6</title>
<g id="a_edge11_Node000009_Node000006"><a xlink:title=" ">
<path fill="none" stroke="#63b8ff" d="M509.06,-109.82C518,-109.67 527.2,-109.52 536.29,-109.37"/>
<polygon fill="#63b8ff" stroke="#63b8ff" points="536.56,-112.87 546.5,-109.2 536.44,-105.87 536.56,-112.87"/>
</a>
</g>
</g>
</g>
</svg>
