<?xml version="1.0" encoding="UTF-8" standalone="no"?>
<!DOCTYPE svg PUBLIC "-//W3C//DTD SVG 1.1//EN"
 "http://www.w3.org/Graphics/SVG/1.1/DTD/svg11.dtd">
<!-- Generated by graphviz version 2.43.0 (0)
 -->
<!-- Title: zero_mate::coprocessor::cp10::CCP10::Perform_Data_Transfer Pages: 1 -->
<svg width="883pt" height="250pt"
 viewBox="0.00 0.00 883.00 249.97" xmlns="http://www.w3.org/2000/svg" xmlns:xlink="http://www.w3.org/1999/xlink">
<g id="graph0" class="graph" transform="scale(1 1) rotate(0) translate(4 245.97)">
<title>zero_mate::coprocessor::cp10::CCP10::Perform_Data_Transfer</title>
<!-- Node1 -->
<g id="Node000001" class="node">
<title>Node1</title>
<g id="a_Node000001"><a xlink:title="Performs a coprocessor data transfer instruction (ICoprocessor interface).">
<polygon fill="#999999" stroke="#666666" points="133,-159 0,-159 0,-118 133,-118 133,-159"/>
<text text-anchor="start" x="8" y="-147" font-family="Helvetica,sans-Serif" font-size="10.00">zero_mate::coprocessor</text>
<text text-anchor="start" x="8" y="-136" font-family="Helvetica,sans-Serif" font-size="10.00">::cp10::CCP10::Perform</text>
<text text-anchor="middle" x="66.5" y="-125" font-family="Helvetica,sans-Serif" font-size="10.00">_Data_Transfer</text>
</a>
</g>
</g>
<!-- Node2 -->
<g id="Node000002" class="node">
<title>Node2</title>
<g id="a_Node000002"><a xlink:href="classzero__mate_1_1utils_1_1CLogging__System.html#a57ed77e1a5cf822cea532cc5e05c3f60" target="_top" xlink:title="Logs an error message via all registered loggers.">
<polygon fill="white" stroke="#666666" points="488.5,-172.5 342.5,-172.5 342.5,-142.5 488.5,-142.5 488.5,-172.5"/>
<text text-anchor="start" x="350.5" y="-160.5" font-family="Helvetica,sans-Serif" font-size="10.00">zero_mate::utils::CLogging</text>
<text text-anchor="middle" x="415.5" y="-149.5" font-family="Helvetica,sans-Serif" font-size="10.00">_System::Error</text>
</a>
</g>
</g>
<!-- Node1&#45;&gt;Node2 -->
<g id="edge1_Node000001_Node000002" class="edge">
<title>Node1&#45;&gt;Node2</title>
<g id="a_edge1_Node000001_Node000002"><a xlink:title=" ">
<path fill="none" stroke="#63b8ff" d="M83.14,-159.08C101.1,-180.84 132.81,-213.88 169,-227.5 225.16,-248.63 246.38,-244.22 304,-227.5 336.54,-218.06 368.68,-195.85 389.84,-178.96"/>
<polygon fill="#63b8ff" stroke="#63b8ff" points="392.14,-181.6 397.66,-172.55 387.7,-176.18 392.14,-181.6"/>
</a>
</g>
</g>
<!-- Node7 -->
<g id="Node000007" class="node">
<title>Node7</title>
<g id="a_Node000007"><a xlink:href="classzero__mate_1_1coprocessor_1_1cp10_1_1CCP10.html#a035900a2965ea8fb03d14f020a5adab1" target="_top" xlink:title="Executes a VLDR and VSTR floating point instructions.">
<polygon fill="white" stroke="#666666" points="303,-218 170,-218 170,-177 303,-177 303,-218"/>
<text text-anchor="start" x="178" y="-206" font-family="Helvetica,sans-Serif" font-size="10.00">zero_mate::coprocessor</text>
<text text-anchor="start" x="178" y="-195" font-family="Helvetica,sans-Serif" font-size="10.00">::cp10::CCP10::Execute</text>
<text text-anchor="middle" x="236.5" y="-184" font-family="Helvetica,sans-Serif" font-size="10.00">_VLDR_VSTR</text>
</a>
</g>
</g>
<!-- Node1&#45;&gt;Node7 -->
<g id="edge6_Node000001_Node000007" class="edge">
<title>Node1&#45;&gt;Node7</title>
<g id="a_edge6_Node000001_Node000007"><a xlink:title=" ">
<path fill="none" stroke="#63b8ff" d="M126.26,-159.14C139.51,-163.79 153.68,-168.77 167.28,-173.54"/>
<polygon fill="#63b8ff" stroke="#63b8ff" points="166.46,-176.96 177.06,-176.98 168.78,-170.36 166.46,-176.96"/>
</a>
</g>
</g>
<!-- Node8 -->
<g id="Node000008" class="node">
<title>Node8</title>
<g id="a_Node000008"><a xlink:href="classzero__mate_1_1coprocessor_1_1cp10_1_1CCP10.html#ae51b18ce5475147e5deb626eb7439b6e" target="_top" xlink:title="Executes a VSTM and VLDM floating point instructions.">
<polygon fill="white" stroke="#666666" points="303,-159 170,-159 170,-118 303,-118 303,-159"/>
<text text-anchor="start" x="178" y="-147" font-family="Helvetica,sans-Serif" font-size="10.00">zero_mate::coprocessor</text>
<text text-anchor="start" x="178" y="-136" font-family="Helvetica,sans-Serif" font-size="10.00">::cp10::CCP10::Execute</text>
<text text-anchor="middle" x="236.5" y="-125" font-family="Helvetica,sans-Serif" font-size="10.00">_VSTM_VLDM</text>
</a>
</g>
</g>
<!-- Node1&#45;&gt;Node8 -->
<g id="edge7_Node000001_Node000008" class="edge">
<title>Node1&#45;&gt;Node8</title>
<g id="a_edge7_Node000001_Node000008"><a xlink:title=" ">
<path fill="none" stroke="#63b8ff" d="M133.42,-138.5C142.01,-138.5 150.86,-138.5 159.6,-138.5"/>
<polygon fill="#63b8ff" stroke="#63b8ff" points="159.77,-142 169.77,-138.5 159.77,-135 159.77,-142"/>
</a>
</g>
</g>
<!-- Node9 -->
<g id="Node000009" class="node">
<title>Node9</title>
<g id="a_Node000009"><a xlink:href="classzero__mate_1_1coprocessor_1_1cp10_1_1isa_1_1CCP__Data__Transfer__Inst.html#ac490656635197503e5b572d091f56067" target="_top" xlink:title="Returns the type of the instruction.">
<polygon fill="white" stroke="#666666" points="304,-100 169,-100 169,-59 304,-59 304,-100"/>
<text text-anchor="start" x="177" y="-88" font-family="Helvetica,sans-Serif" font-size="10.00">zero_mate::coprocessor</text>
<text text-anchor="start" x="177" y="-77" font-family="Helvetica,sans-Serif" font-size="10.00">::cp10::isa::CCP_Data</text>
<text text-anchor="middle" x="236.5" y="-66" font-family="Helvetica,sans-Serif" font-size="10.00">_Transfer_Inst::Get_Type</text>
</a>
</g>
</g>
<!-- Node1&#45;&gt;Node9 -->
<g id="edge8_Node000001_Node000009" class="edge">
<title>Node1&#45;&gt;Node9</title>
<g id="a_edge8_Node000001_Node000009"><a xlink:title=" ">
<path fill="none" stroke="#63b8ff" d="M126.26,-117.86C139.51,-113.21 153.68,-108.23 167.28,-103.46"/>
<polygon fill="#63b8ff" stroke="#63b8ff" points="168.78,-106.64 177.06,-100.02 166.46,-100.04 168.78,-106.64"/>
</a>
</g>
</g>
<!-- Node10 -->
<g id="Node000010" class="node">
<title>Node10</title>
<g id="a_Node000010"><a xlink:href="classzero__mate_1_1coprocessor_1_1cp10_1_1CCP10.html#a42519c95eeada09e8b8f277f899f9185" target="_top" xlink:title="Checks whether the coprocessor is enabled or not.">
<polygon fill="white" stroke="#666666" points="303,-41 170,-41 170,0 303,0 303,-41"/>
<text text-anchor="start" x="178" y="-29" font-family="Helvetica,sans-Serif" font-size="10.00">zero_mate::coprocessor</text>
<text text-anchor="start" x="178" y="-18" font-family="Helvetica,sans-Serif" font-size="10.00">::cp10::CCP10::Is_FPU</text>
<text text-anchor="middle" x="236.5" y="-7" font-family="Helvetica,sans-Serif" font-size="10.00">_Enabled</text>
</a>
</g>
</g>
<!-- Node1&#45;&gt;Node10 -->
<g id="edge9_Node000001_Node000010" class="edge">
<title>Node1&#45;&gt;Node10</title>
<g id="a_edge9_Node000001_Node000010"><a xlink:title=" ">
<path fill="none" stroke="#63b8ff" d="M87.36,-117.71C106.8,-98.22 137.93,-69.22 169,-49.5 170.9,-48.29 172.86,-47.11 174.86,-45.96"/>
<polygon fill="#63b8ff" stroke="#63b8ff" points="176.71,-48.94 183.84,-41.11 173.38,-42.79 176.71,-48.94"/>
</a>
</g>
</g>
<!-- Node3 -->
<g id="Node000003" class="node">
<title>Node3</title>
<g id="a_Node000003"><a xlink:href="classzero__mate_1_1utils_1_1CLogging__System.html#a71ed11c796553cbe8fd99773406a1060" target="_top" xlink:title="Creates a formatted message to be logged.">
<polygon fill="white" stroke="#666666" points="679,-205 527,-205 527,-164 679,-164 679,-205"/>
<text text-anchor="start" x="535" y="-193" font-family="Helvetica,sans-Serif" font-size="10.00">zero_mate::utils::CLogging</text>
<text text-anchor="start" x="535" y="-182" font-family="Helvetica,sans-Serif" font-size="10.00">_System::Create_Formatted</text>
<text text-anchor="middle" x="603" y="-171" font-family="Helvetica,sans-Serif" font-size="10.00">_Log_Msg</text>
</a>
</g>
</g>
<!-- Node2&#45;&gt;Node3 -->
<g id="edge2_Node000002_Node000003" class="edge">
<title>Node2&#45;&gt;Node3</title>
<g id="a_edge2_Node000002_Node000003"><a xlink:title=" ">
<path fill="none" stroke="#63b8ff" d="M488.75,-168.02C497.94,-169.35 507.41,-170.73 516.78,-172.1"/>
<polygon fill="#63b8ff" stroke="#63b8ff" points="516.49,-175.59 526.89,-173.57 517.49,-168.66 516.49,-175.59"/>
</a>
</g>
</g>
<!-- Node6 -->
<g id="Node000006" class="node">
<title>Node6</title>
<g id="a_Node000006"><a xlink:href="classzero__mate_1_1utils_1_1CLogging__System.html#ad371c67ef65763966ccf9291002e86f3" target="_top" xlink:title="Extract the filename from a given location within the source files.">
<polygon fill="white" stroke="#666666" points="677.5,-145.5 528.5,-145.5 528.5,-115.5 677.5,-115.5 677.5,-145.5"/>
<text text-anchor="start" x="536.5" y="-133.5" font-family="Helvetica,sans-Serif" font-size="10.00">zero_mate::utils::CLogging</text>
<text text-anchor="middle" x="603" y="-122.5" font-family="Helvetica,sans-Serif" font-size="10.00">_System::Extract_Filename</text>
</a>
</g>
</g>
<!-- Node2&#45;&gt;Node6 -->
<g id="edge5_Node000002_Node000006" class="edge">
<title>Node2&#45;&gt;Node6</title>
<g id="a_edge5_Node000002_Node000006"><a xlink:title=" ">
<path fill="none" stroke="#63b8ff" d="M488.75,-146.98C498.41,-145.58 508.39,-144.12 518.23,-142.69"/>
<polygon fill="#63b8ff" stroke="#63b8ff" points="519.03,-146.11 528.42,-141.21 518.02,-139.19 519.03,-146.11"/>
</a>
</g>
</g>
<!-- Node4 -->
<g id="Node000004" class="node">
<title>Node4</title>
<g id="a_Node000004"><a xlink:href="classzero__mate_1_1utils_1_1CLogging__System.html#aa70c102c805079042ffea2a6f2a5ad64" target="_top" xlink:title="Formats a given timestamp.">
<polygon fill="white" stroke="#666666" points="875,-223.5 715,-223.5 715,-193.5 875,-193.5 875,-223.5"/>
<text text-anchor="start" x="723" y="-211.5" font-family="Helvetica,sans-Serif" font-size="10.00">zero_mate::utils::CLogging</text>
<text text-anchor="middle" x="795" y="-200.5" font-family="Helvetica,sans-Serif" font-size="10.00">_System::Format_Timestamp</text>
</a>
</g>
</g>
<!-- Node3&#45;&gt;Node4 -->
<g id="edge3_Node000003_Node000004" class="edge">
<title>Node3&#45;&gt;Node4</title>
<g id="a_edge3_Node000003_Node000004"><a xlink:title=" ">
<path fill="none" stroke="#63b8ff" d="M679.09,-193.99C687.52,-195.05 696.16,-196.14 704.74,-197.23"/>
<polygon fill="#63b8ff" stroke="#63b8ff" points="704.41,-200.71 714.77,-198.49 705.29,-193.77 704.41,-200.71"/>
</a>
</g>
</g>
<!-- Node5 -->
<g id="Node000005" class="node">
<title>Node5</title>
<g id="a_Node000005"><a xlink:href="classzero__mate_1_1utils_1_1CLogging__System.html#ae3ca637537dde05e0b9119145c840331" target="_top" xlink:title="Returns the current timestamp that will be used in a log message.">
<polygon fill="white" stroke="#666666" points="868,-175.5 722,-175.5 722,-145.5 868,-145.5 868,-175.5"/>
<text text-anchor="start" x="730" y="-163.5" font-family="Helvetica,sans-Serif" font-size="10.00">zero_mate::utils::CLogging</text>
<text text-anchor="middle" x="795" y="-152.5" font-family="Helvetica,sans-Serif" font-size="10.00">_System::Get_Timestamp</text>
</a>
</g>
</g>
<!-- Node3&#45;&gt;Node5 -->
<g id="edge4_Node000003_Node000005" class="edge">
<title>Node3&#45;&gt;Node5</title>
<g id="a_edge4_Node000003_Node000005"><a xlink:title=" ">
<path fill="none" stroke="#63b8ff" d="M679.09,-175.01C689.89,-173.65 701.05,-172.24 711.98,-170.86"/>
<polygon fill="#63b8ff" stroke="#63b8ff" points="712.45,-174.33 721.93,-169.6 711.57,-167.38 712.45,-174.33"/>
</a>
</g>
</g>
<!-- Node10&#45;&gt;Node2 -->
<g id="edge10_Node000010_Node000002" class="edge">
<title>Node10&#45;&gt;Node2</title>
<g id="a_edge10_Node000010_Node000002"><a xlink:title=" ">
<path fill="none" stroke="#63b8ff" d="M289.67,-41.04C294.65,-43.65 299.51,-46.48 304,-49.5 340.23,-73.89 375.07,-110.94 395.63,-134.68"/>
<polygon fill="#63b8ff" stroke="#63b8ff" points="393.14,-137.15 402.29,-142.48 398.46,-132.6 393.14,-137.15"/>
</a>
</g>
</g>
<!-- Node11 -->
<g id="Node000011" class="node">
<title>Node11</title>
<g id="a_Node000011"><a xlink:href="classzero__mate_1_1coprocessor_1_1cp10_1_1CFPEXC.html#a1e9712b7b92c2a1ef3e09f00ada91cf9" target="_top" xlink:title="Checks whether a given flag is set or not.">
<polygon fill="white" stroke="#666666" points="491,-35.5 340,-35.5 340,-5.5 491,-5.5 491,-35.5"/>
<text text-anchor="start" x="348" y="-23.5" font-family="Helvetica,sans-Serif" font-size="10.00">zero_mate::coprocessor</text>
<text text-anchor="middle" x="415.5" y="-12.5" font-family="Helvetica,sans-Serif" font-size="10.00">::cp10::CFPEXC::Is_Flag_Set</text>
</a>
</g>
</g>
<!-- Node10&#45;&gt;Node11 -->
<g id="edge11_Node000010_Node000011" class="edge">
<title>Node10&#45;&gt;Node11</title>
<g id="a_edge11_Node000010_Node000011"><a xlink:title=" ">
<path fill="none" stroke="#63b8ff" d="M303.16,-20.5C311.81,-20.5 320.77,-20.5 329.68,-20.5"/>
<polygon fill="#63b8ff" stroke="#63b8ff" points="329.7,-24 339.7,-20.5 329.7,-17 329.7,-24"/>
</a>
</g>
</g>
</g>
</svg>
