<?xml version="1.0" encoding="UTF-8" standalone="no"?>
<!DOCTYPE svg PUBLIC "-//W3C//DTD SVG 1.1//EN"
 "http://www.w3.org/Graphics/SVG/1.1/DTD/svg11.dtd">
<!-- Generated by graphviz version 2.43.0 (0)
 -->
<!-- Title: zero_mate::peripheral::CGPIO_Manager::Clear_IRQ Pages: 1 -->
<svg width="729pt" height="197pt"
 viewBox="0.00 0.00 729.00 197.00" xmlns="http://www.w3.org/2000/svg" xmlns:xlink="http://www.w3.org/1999/xlink">
<g id="graph0" class="graph" transform="scale(1 1) rotate(0) translate(4 193)">
<title>zero_mate::peripheral::CGPIO_Manager::Clear_IRQ</title>
<!-- Node1 -->
<g id="Node000001" class="node">
<title>Node1</title>
<g id="a_Node000001"><a xlink:title="Clears a pending interrupt by writing a 1 to the GPEDS register.">
<polygon fill="#999999" stroke="#666666" points="155,-84 0,-84 0,-54 155,-54 155,-84"/>
<text text-anchor="start" x="8" y="-72" font-family="Helvetica,sans-Serif" font-size="10.00">zero_mate::peripheral</text>
<text text-anchor="middle" x="77.5" y="-61" font-family="Helvetica,sans-Serif" font-size="10.00">::CGPIO_Manager::Clear_IRQ</text>
</a>
</g>
</g>
<!-- Node2 -->
<g id="Node000002" class="node">
<title>Node2</title>
<g id="a_Node000002"><a xlink:href="classzero__mate_1_1utils_1_1CLogging__System.html#ade996da881888272ace7deaa82c975e9" target="_top" xlink:title="Logs a debug message via all registered loggers.">
<polygon fill="white" stroke="#666666" points="337,-138 191,-138 191,-108 337,-108 337,-138"/>
<text text-anchor="start" x="199" y="-126" font-family="Helvetica,sans-Serif" font-size="10.00">zero_mate::utils::CLogging</text>
<text text-anchor="middle" x="264" y="-115" font-family="Helvetica,sans-Serif" font-size="10.00">_System::Debug</text>
</a>
</g>
</g>
<!-- Node1&#45;&gt;Node2 -->
<g id="edge1_Node000001_Node000002" class="edge">
<title>Node1&#45;&gt;Node2</title>
<g id="a_edge1_Node000001_Node000002"><a xlink:title=" ">
<path fill="none" stroke="#63b8ff" d="M129.89,-84.04C152.19,-90.57 178.48,-98.26 201.78,-105.08"/>
<polygon fill="#63b8ff" stroke="#63b8ff" points="200.98,-108.5 211.56,-107.95 202.95,-101.78 200.98,-108.5"/>
</a>
</g>
</g>
<!-- Node7 -->
<g id="Node000007" class="node">
<title>Node7</title>
<g id="a_Node000007"><a xlink:href="classzero__mate_1_1peripheral_1_1CInterrupt__Controller.html#a35b97d4871edb1ee3a0fbda305c58b95" target="_top" xlink:title="Returns the corresponding IRQ source for a given GPIO pin.">
<polygon fill="white" stroke="#666666" points="326.5,-89.5 201.5,-89.5 201.5,-48.5 326.5,-48.5 326.5,-89.5"/>
<text text-anchor="start" x="209.5" y="-77.5" font-family="Helvetica,sans-Serif" font-size="10.00">zero_mate::peripheral</text>
<text text-anchor="start" x="209.5" y="-66.5" font-family="Helvetica,sans-Serif" font-size="10.00">::CInterrupt_Controller</text>
<text text-anchor="middle" x="264" y="-55.5" font-family="Helvetica,sans-Serif" font-size="10.00">::Get_IRQ_Source</text>
</a>
</g>
</g>
<!-- Node1&#45;&gt;Node7 -->
<g id="edge6_Node000001_Node000007" class="edge">
<title>Node1&#45;&gt;Node7</title>
<g id="a_edge6_Node000001_Node000007"><a xlink:title=" ">
<path fill="none" stroke="#63b8ff" d="M155.14,-69C167.09,-69 179.39,-69 191.22,-69"/>
<polygon fill="#63b8ff" stroke="#63b8ff" points="191.48,-72.5 201.48,-69 191.48,-65.5 191.48,-72.5"/>
</a>
</g>
</g>
<!-- Node8 -->
<g id="Node000008" class="node">
<title>Node8</title>
<g id="a_Node000008"><a xlink:href="namespacezero__mate_1_1utils_1_1math.html#af7d93c996dab2ff1b91c5a399dcfe29f" target="_top" xlink:title="Tests whether a bit is set in the given integral variable.">
<polygon fill="white" stroke="#666666" points="327.5,-30 200.5,-30 200.5,0 327.5,0 327.5,-30"/>
<text text-anchor="start" x="208.5" y="-18" font-family="Helvetica,sans-Serif" font-size="10.00">zero_mate::utils::math</text>
<text text-anchor="middle" x="264" y="-7" font-family="Helvetica,sans-Serif" font-size="10.00">::Is_Bit_Set</text>
</a>
</g>
</g>
<!-- Node1&#45;&gt;Node8 -->
<g id="edge7_Node000001_Node000008" class="edge">
<title>Node1&#45;&gt;Node8</title>
<g id="a_edge7_Node000001_Node000008"><a xlink:title=" ">
<path fill="none" stroke="#63b8ff" d="M129.89,-53.96C152.19,-47.43 178.48,-39.74 201.78,-32.92"/>
<polygon fill="#63b8ff" stroke="#63b8ff" points="202.95,-36.22 211.56,-30.05 200.98,-29.5 202.95,-36.22"/>
</a>
</g>
</g>
<!-- Node3 -->
<g id="Node000003" class="node">
<title>Node3</title>
<g id="a_Node000003"><a xlink:href="classzero__mate_1_1utils_1_1CLogging__System.html#a71ed11c796553cbe8fd99773406a1060" target="_top" xlink:title="Creates a formatted message to be logged.">
<polygon fill="white" stroke="#666666" points="525,-170.5 373,-170.5 373,-129.5 525,-129.5 525,-170.5"/>
<text text-anchor="start" x="381" y="-158.5" font-family="Helvetica,sans-Serif" font-size="10.00">zero_mate::utils::CLogging</text>
<text text-anchor="start" x="381" y="-147.5" font-family="Helvetica,sans-Serif" font-size="10.00">_System::Create_Formatted</text>
<text text-anchor="middle" x="449" y="-136.5" font-family="Helvetica,sans-Serif" font-size="10.00">_Log_Msg</text>
</a>
</g>
</g>
<!-- Node2&#45;&gt;Node3 -->
<g id="edge2_Node000002_Node000003" class="edge">
<title>Node2&#45;&gt;Node3</title>
<g id="a_edge2_Node000002_Node000003"><a xlink:title=" ">
<path fill="none" stroke="#63b8ff" d="M337.06,-133.63C345.55,-134.88 354.26,-136.17 362.9,-137.44"/>
<polygon fill="#63b8ff" stroke="#63b8ff" points="362.59,-140.94 372.99,-138.93 363.61,-134.01 362.59,-140.94"/>
</a>
</g>
</g>
<!-- Node6 -->
<g id="Node000006" class="node">
<title>Node6</title>
<g id="a_Node000006"><a xlink:href="classzero__mate_1_1utils_1_1CLogging__System.html#ad371c67ef65763966ccf9291002e86f3" target="_top" xlink:title="Extract the filename from a given location within the source files.">
<polygon fill="white" stroke="#666666" points="523.5,-111 374.5,-111 374.5,-81 523.5,-81 523.5,-111"/>
<text text-anchor="start" x="382.5" y="-99" font-family="Helvetica,sans-Serif" font-size="10.00">zero_mate::utils::CLogging</text>
<text text-anchor="middle" x="449" y="-88" font-family="Helvetica,sans-Serif" font-size="10.00">_System::Extract_Filename</text>
</a>
</g>
</g>
<!-- Node2&#45;&gt;Node6 -->
<g id="edge5_Node000002_Node000006" class="edge">
<title>Node2&#45;&gt;Node6</title>
<g id="a_edge5_Node000002_Node000006"><a xlink:title=" ">
<path fill="none" stroke="#63b8ff" d="M337.06,-112.37C346.1,-111.03 355.4,-109.66 364.59,-108.31"/>
<polygon fill="#63b8ff" stroke="#63b8ff" points="365.12,-111.77 374.5,-106.84 364.1,-104.84 365.12,-111.77"/>
</a>
</g>
</g>
<!-- Node4 -->
<g id="Node000004" class="node">
<title>Node4</title>
<g id="a_Node000004"><a xlink:href="classzero__mate_1_1utils_1_1CLogging__System.html#aa70c102c805079042ffea2a6f2a5ad64" target="_top" xlink:title="Formats a given timestamp.">
<polygon fill="white" stroke="#666666" points="721,-189 561,-189 561,-159 721,-159 721,-189"/>
<text text-anchor="start" x="569" y="-177" font-family="Helvetica,sans-Serif" font-size="10.00">zero_mate::utils::CLogging</text>
<text text-anchor="middle" x="641" y="-166" font-family="Helvetica,sans-Serif" font-size="10.00">_System::Format_Timestamp</text>
</a>
</g>
</g>
<!-- Node3&#45;&gt;Node4 -->
<g id="edge3_Node000003_Node000004" class="edge">
<title>Node3&#45;&gt;Node4</title>
<g id="a_edge3_Node000003_Node000004"><a xlink:title=" ">
<path fill="none" stroke="#63b8ff" d="M525.09,-159.49C533.52,-160.55 542.16,-161.64 550.74,-162.73"/>
<polygon fill="#63b8ff" stroke="#63b8ff" points="550.41,-166.21 560.77,-163.99 551.29,-159.27 550.41,-166.21"/>
</a>
</g>
</g>
<!-- Node5 -->
<g id="Node000005" class="node">
<title>Node5</title>
<g id="a_Node000005"><a xlink:href="classzero__mate_1_1utils_1_1CLogging__System.html#ae3ca637537dde05e0b9119145c840331" target="_top" xlink:title="Returns the current timestamp that will be used in a log message.">
<polygon fill="white" stroke="#666666" points="714,-141 568,-141 568,-111 714,-111 714,-141"/>
<text text-anchor="start" x="576" y="-129" font-family="Helvetica,sans-Serif" font-size="10.00">zero_mate::utils::CLogging</text>
<text text-anchor="middle" x="641" y="-118" font-family="Helvetica,sans-Serif" font-size="10.00">_System::Get_Timestamp</text>
</a>
</g>
</g>
<!-- Node3&#45;&gt;Node5 -->
<g id="edge4_Node000003_Node000005" class="edge">
<title>Node3&#45;&gt;Node5</title>
<g id="a_edge4_Node000003_Node000005"><a xlink:title=" ">
<path fill="none" stroke="#63b8ff" d="M525.09,-140.51C535.89,-139.15 547.05,-137.74 557.98,-136.36"/>
<polygon fill="#63b8ff" stroke="#63b8ff" points="558.45,-139.83 567.93,-135.1 557.57,-132.88 558.45,-139.83"/>
</a>
</g>
</g>
</g>
</svg>
