<?xml version="1.0" encoding="UTF-8" standalone="no"?>
<!DOCTYPE svg PUBLIC "-//W3C//DTD SVG 1.1//EN"
 "http://www.w3.org/Graphics/SVG/1.1/DTD/svg11.dtd">
<!-- Generated by graphviz version 2.43.0 (0)
 -->
<!-- Title: zero_mate::coprocessor::cp15::CC1::CC1 Pages: 1 -->
<svg width="317pt" height="86pt"
 viewBox="0.00 0.00 317.00 86.00" xmlns="http://www.w3.org/2000/svg" xmlns:xlink="http://www.w3.org/1999/xlink">
<g id="graph0" class="graph" transform="scale(1 1) rotate(0) translate(4 82)">
<title>zero_mate::coprocessor::cp15::CC1::CC1</title>
<!-- Node1 -->
<g id="Node000001" class="node">
<title>Node1</title>
<g id="a_Node000001"><a xlink:title="Creates an instance of the class.">
<polygon fill="#999999" stroke="#666666" points="133,-54 0,-54 0,-24 133,-24 133,-54"/>
<text text-anchor="start" x="8" y="-42" font-family="Helvetica,sans-Serif" font-size="10.00">zero_mate::coprocessor</text>
<text text-anchor="middle" x="66.5" y="-31" font-family="Helvetica,sans-Serif" font-size="10.00">::cp15::CC1::CC1</text>
</a>
</g>
</g>
<!-- Node2 -->
<g id="Node000002" class="node">
<title>Node2</title>
<g id="a_Node000002"><a xlink:href="classzero__mate_1_1coprocessor_1_1cp15_1_1CC1.html#abd6005a7102398c012f1f7cadf1ff7d7" target="_top" xlink:title="Initializes secondary register C0.">
<polygon fill="white" stroke="#666666" points="309,-78 169,-78 169,-48 309,-48 309,-78"/>
<text text-anchor="start" x="177" y="-66" font-family="Helvetica,sans-Serif" font-size="10.00">zero_mate::coprocessor</text>
<text text-anchor="middle" x="239" y="-55" font-family="Helvetica,sans-Serif" font-size="10.00">::cp15::CC1::Init_CRm_R0</text>
</a>
</g>
</g>
<!-- Node1&#45;&gt;Node2 -->
<g id="edge1_Node000001_Node000002" class="edge">
<title>Node1&#45;&gt;Node2</title>
<g id="a_edge1_Node000001_Node000002"><a xlink:title=" ">
<path fill="none" stroke="#63b8ff" d="M133.42,-48.28C141.77,-49.45 150.38,-50.67 158.91,-51.87"/>
<polygon fill="#63b8ff" stroke="#63b8ff" points="158.48,-55.34 168.87,-53.27 159.46,-48.41 158.48,-55.34"/>
</a>
</g>
</g>
<!-- Node3 -->
<g id="Node000003" class="node">
<title>Node3</title>
<g id="a_Node000003"><a xlink:href="classzero__mate_1_1coprocessor_1_1cp15_1_1CC1.html#a4d1ec76aeccc474aaf3ee6d8fbcdd8aa" target="_top" xlink:title="Initializes secondary register C1.">
<polygon fill="white" stroke="#666666" points="309,-30 169,-30 169,0 309,0 309,-30"/>
<text text-anchor="start" x="177" y="-18" font-family="Helvetica,sans-Serif" font-size="10.00">zero_mate::coprocessor</text>
<text text-anchor="middle" x="239" y="-7" font-family="Helvetica,sans-Serif" font-size="10.00">::cp15::CC1::Init_CRm_R1</text>
</a>
</g>
</g>
<!-- Node1&#45;&gt;Node3 -->
<g id="edge2_Node000001_Node000003" class="edge">
<title>Node1&#45;&gt;Node3</title>
<g id="a_edge2_Node000001_Node000003"><a xlink:title=" ">
<path fill="none" stroke="#63b8ff" d="M133.42,-29.72C141.77,-28.55 150.38,-27.33 158.91,-26.13"/>
<polygon fill="#63b8ff" stroke="#63b8ff" points="159.46,-29.59 168.87,-24.73 158.48,-22.66 159.46,-29.59"/>
</a>
</g>
</g>
</g>
</svg>
