<?xml version="1.0" encoding="UTF-8" standalone="no"?>
<!DOCTYPE svg PUBLIC "-//W3C//DTD SVG 1.1//EN"
 "http://www.w3.org/Graphics/SVG/1.1/DTD/svg11.dtd">
<!-- Generated by graphviz version 2.43.0 (0)
 -->
<!-- Title: zero_mate::gui::CTop_Bar_Menu::Render_File_Browser Pages: 1 -->
<svg width="1075pt" height="209pt"
 viewBox="0.00 0.00 1075.00 209.00" xmlns="http://www.w3.org/2000/svg" xmlns:xlink="http://www.w3.org/1999/xlink">
<g id="graph0" class="graph" transform="scale(1 1) rotate(0) translate(4 205)">
<title>zero_mate::gui::CTop_Bar_Menu::Render_File_Browser</title>
<!-- Node1 -->
<g id="Node000001" class="node">
<title>Node1</title>
<g id="a_Node000001"><a xlink:title="Renders the file browser.">
<polygon fill="#999999" stroke="#666666" points="134,-83.5 0,-83.5 0,-42.5 134,-42.5 134,-83.5"/>
<text text-anchor="start" x="8" y="-71.5" font-family="Helvetica,sans-Serif" font-size="10.00">zero_mate::gui::CTop</text>
<text text-anchor="start" x="8" y="-60.5" font-family="Helvetica,sans-Serif" font-size="10.00">_Bar_Menu::Render_File</text>
<text text-anchor="middle" x="67" y="-49.5" font-family="Helvetica,sans-Serif" font-size="10.00">_Browser</text>
</a>
</g>
</g>
<!-- Node2 -->
<g id="Node000002" class="node">
<title>Node2</title>
<g id="a_Node000002"><a xlink:href="classzero__mate_1_1gui_1_1CTop__Bar__Menu.html#a7fee26ed69f7536b8396d3fe2f97c5e4" target="_top" xlink:title="Loads ELF files selected by the user using the file browser.">
<polygon fill="white" stroke="#666666" points="320,-102 170,-102 170,-72 320,-72 320,-102"/>
<text text-anchor="start" x="178" y="-90" font-family="Helvetica,sans-Serif" font-size="10.00">zero_mate::gui::CTop</text>
<text text-anchor="middle" x="245" y="-79" font-family="Helvetica,sans-Serif" font-size="10.00">_Bar_Menu::Load_ELF_Files</text>
</a>
</g>
</g>
<!-- Node1&#45;&gt;Node2 -->
<g id="edge1_Node000001_Node000002" class="edge">
<title>Node1&#45;&gt;Node2</title>
<g id="a_edge1_Node000001_Node000002"><a xlink:title=" ">
<path fill="none" stroke="#63b8ff" d="M134.04,-72C142.45,-73.15 151.15,-74.34 159.8,-75.52"/>
<polygon fill="#63b8ff" stroke="#63b8ff" points="159.53,-79.01 169.91,-76.9 160.47,-72.08 159.53,-79.01"/>
</a>
</g>
</g>
<!-- Node12 -->
<g id="Node000012" class="node">
<title>Node12</title>
<g id="a_Node000012"><a xlink:href="namespacezero__mate_1_1utils_1_1prefs.html#a386ecc705e26c03fab40bbdcc2716a3d" target="_top" xlink:title="Sets a given application preference.">
<polygon fill="white" stroke="#666666" points="308,-54 182,-54 182,-24 308,-24 308,-54"/>
<text text-anchor="start" x="190" y="-42" font-family="Helvetica,sans-Serif" font-size="10.00">zero_mate::utils::prefs</text>
<text text-anchor="middle" x="245" y="-31" font-family="Helvetica,sans-Serif" font-size="10.00">::Set_Preference</text>
</a>
</g>
</g>
<!-- Node1&#45;&gt;Node12 -->
<g id="edge13_Node000001_Node000012" class="edge">
<title>Node1&#45;&gt;Node12</title>
<g id="a_edge13_Node000001_Node000012"><a xlink:title=" ">
<path fill="none" stroke="#63b8ff" d="M134.04,-54C146.43,-52.31 159.44,-50.53 172,-48.82"/>
<polygon fill="#63b8ff" stroke="#63b8ff" points="172.52,-52.28 181.96,-47.46 171.58,-45.34 172.52,-52.28"/>
</a>
</g>
</g>
<!-- Node3 -->
<g id="Node000003" class="node">
<title>Node3</title>
<g id="a_Node000003"><a xlink:href="classzero__mate_1_1gui_1_1CTop__Bar__Menu.html#af8e80293dff0c20be7ea071d50dec62c" target="_top" xlink:title="Loads a single ELF file.">
<polygon fill="white" stroke="#666666" points="501,-102 356,-102 356,-72 501,-72 501,-102"/>
<text text-anchor="start" x="364" y="-90" font-family="Helvetica,sans-Serif" font-size="10.00">zero_mate::gui::CTop</text>
<text text-anchor="middle" x="428.5" y="-79" font-family="Helvetica,sans-Serif" font-size="10.00">_Bar_Menu::Load_ELF_File</text>
</a>
</g>
</g>
<!-- Node2&#45;&gt;Node3 -->
<g id="edge2_Node000002_Node000003" class="edge">
<title>Node2&#45;&gt;Node3</title>
<g id="a_edge2_Node000002_Node000003"><a xlink:title=" ">
<path fill="none" stroke="#63b8ff" d="M320.08,-87C328.61,-87 337.34,-87 345.95,-87"/>
<polygon fill="#63b8ff" stroke="#63b8ff" points="346,-90.5 356,-87 346,-83.5 346,-90.5"/>
</a>
</g>
</g>
<!-- Node4 -->
<g id="Node000004" class="node">
<title>Node4</title>
<g id="a_Node000004"><a xlink:href="classzero__mate_1_1utils_1_1CLogging__System.html#a57ed77e1a5cf822cea532cc5e05c3f60" target="_top" xlink:title="Logs an error message via all registered loggers.">
<polygon fill="white" stroke="#666666" points="683,-174 537,-174 537,-144 683,-144 683,-174"/>
<text text-anchor="start" x="545" y="-162" font-family="Helvetica,sans-Serif" font-size="10.00">zero_mate::utils::CLogging</text>
<text text-anchor="middle" x="610" y="-151" font-family="Helvetica,sans-Serif" font-size="10.00">_System::Error</text>
</a>
</g>
</g>
<!-- Node3&#45;&gt;Node4 -->
<g id="edge3_Node000003_Node000004" class="edge">
<title>Node3&#45;&gt;Node4</title>
<g id="a_edge3_Node000003_Node000004"><a xlink:title=" ">
<path fill="none" stroke="#63b8ff" d="M461.14,-102.11C482.37,-112.01 511.09,-124.93 537,-135 541.79,-136.86 546.79,-138.71 551.83,-140.52"/>
<polygon fill="#63b8ff" stroke="#63b8ff" points="550.92,-143.91 561.51,-143.91 553.23,-137.3 550.92,-143.91"/>
</a>
</g>
</g>
<!-- Node9 -->
<g id="Node000009" class="node">
<title>Node9</title>
<g id="a_Node000009"><a xlink:href="classzero__mate_1_1gui_1_1CTop__Bar__Menu.html#a9374e039e857fa2f4d1e65f7edcd707f" target="_top" xlink:title="Returns a filename of a given filepath.">
<polygon fill="white" stroke="#666666" points="682,-78 538,-78 538,-48 682,-48 682,-78"/>
<text text-anchor="start" x="546" y="-66" font-family="Helvetica,sans-Serif" font-size="10.00">zero_mate::gui::CTop</text>
<text text-anchor="middle" x="610" y="-55" font-family="Helvetica,sans-Serif" font-size="10.00">_Bar_Menu::Get_Filename</text>
</a>
</g>
</g>
<!-- Node3&#45;&gt;Node9 -->
<g id="edge8_Node000003_Node000009" class="edge">
<title>Node3&#45;&gt;Node9</title>
<g id="a_edge8_Node000003_Node000009"><a xlink:title=" ">
<path fill="none" stroke="#63b8ff" d="M501.22,-77.41C510.01,-76.23 519.05,-75.03 527.98,-73.83"/>
<polygon fill="#63b8ff" stroke="#63b8ff" points="528.53,-77.29 537.98,-72.5 527.61,-70.35 528.53,-77.29"/>
</a>
</g>
</g>
<!-- Node10 -->
<g id="Node000010" class="node">
<title>Node10</title>
<g id="a_Node000010"><a xlink:href="classzero__mate_1_1utils_1_1CLogging__System.html#a455d99c3614dc92ffbdbdcdb6b8b8bb8" target="_top" xlink:title="Logs an info message via all registered loggers.">
<polygon fill="white" stroke="#666666" points="683,-126 537,-126 537,-96 683,-96 683,-126"/>
<text text-anchor="start" x="545" y="-114" font-family="Helvetica,sans-Serif" font-size="10.00">zero_mate::utils::CLogging</text>
<text text-anchor="middle" x="610" y="-103" font-family="Helvetica,sans-Serif" font-size="10.00">_System::Info</text>
</a>
</g>
</g>
<!-- Node3&#45;&gt;Node10 -->
<g id="edge9_Node000003_Node000010" class="edge">
<title>Node3&#45;&gt;Node10</title>
<g id="a_edge9_Node000003_Node000010"><a xlink:title=" ">
<path fill="none" stroke="#63b8ff" d="M501.22,-96.59C509.64,-97.72 518.28,-98.87 526.83,-100.01"/>
<polygon fill="#63b8ff" stroke="#63b8ff" points="526.44,-103.49 536.81,-101.35 527.36,-96.55 526.44,-103.49"/>
</a>
</g>
</g>
<!-- Node11 -->
<g id="Node000011" class="node">
<title>Node11</title>
<g id="a_Node000011"><a xlink:href="namespacezero__mate_1_1utils_1_1elf.html#a9f6c82c3b8cd3f725d004c7b9022d69a" target="_top" xlink:title="Loads a given ELF file (kernel) into the memory.">
<polygon fill="white" stroke="#666666" points="667,-30 553,-30 553,0 667,0 667,-30"/>
<text text-anchor="start" x="561" y="-18" font-family="Helvetica,sans-Serif" font-size="10.00">zero_mate::utils::elf</text>
<text text-anchor="middle" x="610" y="-7" font-family="Helvetica,sans-Serif" font-size="10.00">::Load_ELF</text>
</a>
</g>
</g>
<!-- Node3&#45;&gt;Node11 -->
<g id="edge12_Node000003_Node000011" class="edge">
<title>Node3&#45;&gt;Node11</title>
<g id="a_edge12_Node000003_Node000011"><a xlink:title=" ">
<path fill="none" stroke="#63b8ff" d="M461.14,-71.89C482.37,-61.99 511.09,-49.07 537,-39 541.79,-37.14 546.79,-35.29 551.83,-33.48"/>
<polygon fill="#63b8ff" stroke="#63b8ff" points="553.23,-36.7 561.51,-30.09 550.92,-30.09 553.23,-36.7"/>
</a>
</g>
</g>
<!-- Node5 -->
<g id="Node000005" class="node">
<title>Node5</title>
<g id="a_Node000005"><a xlink:href="classzero__mate_1_1utils_1_1CLogging__System.html#a71ed11c796553cbe8fd99773406a1060" target="_top" xlink:title="Creates a formatted message to be logged.">
<polygon fill="white" stroke="#666666" points="871,-182.5 719,-182.5 719,-141.5 871,-141.5 871,-182.5"/>
<text text-anchor="start" x="727" y="-170.5" font-family="Helvetica,sans-Serif" font-size="10.00">zero_mate::utils::CLogging</text>
<text text-anchor="start" x="727" y="-159.5" font-family="Helvetica,sans-Serif" font-size="10.00">_System::Create_Formatted</text>
<text text-anchor="middle" x="795" y="-148.5" font-family="Helvetica,sans-Serif" font-size="10.00">_Log_Msg</text>
</a>
</g>
</g>
<!-- Node4&#45;&gt;Node5 -->
<g id="edge4_Node000004_Node000005" class="edge">
<title>Node4&#45;&gt;Node5</title>
<g id="a_edge4_Node000004_Node000005"><a xlink:title=" ">
<path fill="none" stroke="#63b8ff" d="M683.06,-160.18C691.55,-160.32 700.26,-160.46 708.9,-160.6"/>
<polygon fill="#63b8ff" stroke="#63b8ff" points="708.94,-164.11 718.99,-160.77 709.05,-157.11 708.94,-164.11"/>
</a>
</g>
</g>
<!-- Node8 -->
<g id="Node000008" class="node">
<title>Node8</title>
<g id="a_Node000008"><a xlink:href="classzero__mate_1_1utils_1_1CLogging__System.html#ad371c67ef65763966ccf9291002e86f3" target="_top" xlink:title="Extract the filename from a given location within the source files.">
<polygon fill="white" stroke="#666666" points="869.5,-123 720.5,-123 720.5,-93 869.5,-93 869.5,-123"/>
<text text-anchor="start" x="728.5" y="-111" font-family="Helvetica,sans-Serif" font-size="10.00">zero_mate::utils::CLogging</text>
<text text-anchor="middle" x="795" y="-100" font-family="Helvetica,sans-Serif" font-size="10.00">_System::Extract_Filename</text>
</a>
</g>
</g>
<!-- Node4&#45;&gt;Node8 -->
<g id="edge7_Node000004_Node000008" class="edge">
<title>Node4&#45;&gt;Node8</title>
<g id="a_edge7_Node000004_Node000008"><a xlink:title=" ">
<path fill="none" stroke="#63b8ff" d="M664.92,-143.97C685.49,-138.24 709.13,-131.65 730.51,-125.69"/>
<polygon fill="#63b8ff" stroke="#63b8ff" points="731.46,-129.06 740.15,-123.01 729.58,-122.32 731.46,-129.06"/>
</a>
</g>
</g>
<!-- Node6 -->
<g id="Node000006" class="node">
<title>Node6</title>
<g id="a_Node000006"><a xlink:href="classzero__mate_1_1utils_1_1CLogging__System.html#aa70c102c805079042ffea2a6f2a5ad64" target="_top" xlink:title="Formats a given timestamp.">
<polygon fill="white" stroke="#666666" points="1067,-201 907,-201 907,-171 1067,-171 1067,-201"/>
<text text-anchor="start" x="915" y="-189" font-family="Helvetica,sans-Serif" font-size="10.00">zero_mate::utils::CLogging</text>
<text text-anchor="middle" x="987" y="-178" font-family="Helvetica,sans-Serif" font-size="10.00">_System::Format_Timestamp</text>
</a>
</g>
</g>
<!-- Node5&#45;&gt;Node6 -->
<g id="edge5_Node000005_Node000006" class="edge">
<title>Node5&#45;&gt;Node6</title>
<g id="a_edge5_Node000005_Node000006"><a xlink:title=" ">
<path fill="none" stroke="#63b8ff" d="M871.09,-171.49C879.52,-172.55 888.16,-173.64 896.74,-174.73"/>
<polygon fill="#63b8ff" stroke="#63b8ff" points="896.41,-178.21 906.77,-175.99 897.29,-171.27 896.41,-178.21"/>
</a>
</g>
</g>
<!-- Node7 -->
<g id="Node000007" class="node">
<title>Node7</title>
<g id="a_Node000007"><a xlink:href="classzero__mate_1_1utils_1_1CLogging__System.html#ae3ca637537dde05e0b9119145c840331" target="_top" xlink:title="Returns the current timestamp that will be used in a log message.">
<polygon fill="white" stroke="#666666" points="1060,-153 914,-153 914,-123 1060,-123 1060,-153"/>
<text text-anchor="start" x="922" y="-141" font-family="Helvetica,sans-Serif" font-size="10.00">zero_mate::utils::CLogging</text>
<text text-anchor="middle" x="987" y="-130" font-family="Helvetica,sans-Serif" font-size="10.00">_System::Get_Timestamp</text>
</a>
</g>
</g>
<!-- Node5&#45;&gt;Node7 -->
<g id="edge6_Node000005_Node000007" class="edge">
<title>Node5&#45;&gt;Node7</title>
<g id="a_edge6_Node000005_Node000007"><a xlink:title=" ">
<path fill="none" stroke="#63b8ff" d="M871.09,-152.51C881.89,-151.15 893.05,-149.74 903.98,-148.36"/>
<polygon fill="#63b8ff" stroke="#63b8ff" points="904.45,-151.83 913.93,-147.1 903.57,-144.88 904.45,-151.83"/>
</a>
</g>
</g>
<!-- Node10&#45;&gt;Node5 -->
<g id="edge10_Node000010_Node000005" class="edge">
<title>Node10&#45;&gt;Node5</title>
<g id="a_edge10_Node000010_Node000005"><a xlink:title=" ">
<path fill="none" stroke="#63b8ff" d="M664.92,-126.03C679.1,-129.98 694.74,-134.34 710.1,-138.62"/>
<polygon fill="#63b8ff" stroke="#63b8ff" points="709.55,-142.1 720.13,-141.41 711.43,-135.36 709.55,-142.1"/>
</a>
</g>
</g>
<!-- Node10&#45;&gt;Node8 -->
<g id="edge11_Node000010_Node000008" class="edge">
<title>Node10&#45;&gt;Node8</title>
<g id="a_edge11_Node000010_Node000008"><a xlink:title=" ">
<path fill="none" stroke="#63b8ff" d="M683.06,-109.82C692,-109.67 701.2,-109.52 710.29,-109.37"/>
<polygon fill="#63b8ff" stroke="#63b8ff" points="710.56,-112.87 720.5,-109.2 710.44,-105.87 710.56,-112.87"/>
</a>
</g>
</g>
</g>
</svg>
