<?xml version="1.0" encoding="UTF-8" standalone="no"?>
<!DOCTYPE svg PUBLIC "-//W3C//DTD SVG 1.1//EN"
 "http://www.w3.org/Graphics/SVG/1.1/DTD/svg11.dtd">
<!-- Generated by graphviz version 2.43.0 (0)
 -->
<!-- Title: zero_mate::CBus::Get_Peripheral Pages: 1 -->
<svg width="294pt" height="56pt"
 viewBox="0.00 0.00 294.00 56.00" xmlns="http://www.w3.org/2000/svg" xmlns:xlink="http://www.w3.org/1999/xlink">
<g id="graph0" class="graph" transform="scale(1 1) rotate(0) translate(4 52)">
<title>zero_mate::CBus::Get_Peripheral</title>
<!-- Node1 -->
<g id="Node000001" class="node">
<title>Node1</title>
<g id="a_Node000001"><a xlink:title="Returns the corresponding peripheral based on the given address.">
<polygon fill="#999999" stroke="#666666" points="122,-30 0,-30 0,0 122,0 122,-30"/>
<text text-anchor="start" x="8" y="-18" font-family="Helvetica,sans-Serif" font-size="10.00">zero_mate::CBus::Get</text>
<text text-anchor="middle" x="61" y="-7" font-family="Helvetica,sans-Serif" font-size="10.00">_Peripheral</text>
</a>
</g>
</g>
<!-- Node1&#45;&gt;Node1 -->
<g id="edge1_Node000001_Node000001" class="edge">
<title>Node1&#45;&gt;Node1</title>
<g id="a_edge1_Node000001_Node000001"><a xlink:title=" ">
<path fill="none" stroke="#63b8ff" d="M32.88,-30.28C26.62,-39.41 36,-48 61,-48 75.84,-48 85.18,-44.97 89.01,-40.6"/>
<polygon fill="#63b8ff" stroke="#63b8ff" points="92.51,-40.32 89.12,-30.28 85.51,-40.23 92.51,-40.32"/>
</a>
</g>
</g>
<!-- Node2 -->
<g id="Node000002" class="node">
<title>Node2</title>
<g id="a_Node000002"><a xlink:href="classzero__mate_1_1CBus.html#a6331d83a0dcf19b139ff42a6f2693787" target="_top" xlink:title="Checks if a peripheral was found and is accessible.">
<polygon fill="white" stroke="#666666" points="286,-30 158,-30 158,0 286,0 286,-30"/>
<text text-anchor="start" x="166" y="-18" font-family="Helvetica,sans-Serif" font-size="10.00">zero_mate::CBus::Is</text>
<text text-anchor="middle" x="222" y="-7" font-family="Helvetica,sans-Serif" font-size="10.00">_Peripheral_Accessible</text>
</a>
</g>
</g>
<!-- Node1&#45;&gt;Node2 -->
<g id="edge2_Node000001_Node000002" class="edge">
<title>Node1&#45;&gt;Node2</title>
<g id="a_edge2_Node000001_Node000002"><a xlink:title=" ">
<path fill="none" stroke="#63b8ff" d="M122.11,-15C130.52,-15 139.23,-15 147.85,-15"/>
<polygon fill="#63b8ff" stroke="#63b8ff" points="147.89,-18.5 157.89,-15 147.89,-11.5 147.89,-18.5"/>
</a>
</g>
</g>
</g>
</svg>
