<?xml version="1.0" encoding="UTF-8" standalone="no"?>
<!DOCTYPE svg PUBLIC "-//W3C//DTD SVG 1.1//EN"
 "http://www.w3.org/Graphics/SVG/1.1/DTD/svg11.dtd">
<!-- Generated by graphviz version 2.43.0 (0)
 -->
<!-- Title: zero_mate::gui::CLog_Window Pages: 1 -->
<svg width="350pt" height="135pt"
 viewBox="0.00 0.00 350.00 135.00" xmlns="http://www.w3.org/2000/svg" xmlns:xlink="http://www.w3.org/1999/xlink">
<g id="graph0" class="graph" transform="scale(1 1) rotate(0) translate(4 131)">
<title>zero_mate::gui::CLog_Window</title>
<!-- Node1 -->
<g id="Node000001" class="node">
<title>Node1</title>
<g id="a_Node000001"><a xlink:title="This class represents a window that displays log messages.">
<polygon fill="#999999" stroke="#666666" points="342,-89.5 223,-89.5 223,-59.5 342,-59.5 342,-89.5"/>
<text text-anchor="start" x="231" y="-77.5" font-family="Helvetica,sans-Serif" font-size="10.00">zero_mate::gui::CLog</text>
<text text-anchor="middle" x="282.5" y="-66.5" font-family="Helvetica,sans-Serif" font-size="10.00">_Window</text>
</a>
</g>
</g>
<!-- Node2 -->
<g id="Node000002" class="node">
<title>Node2</title>
<g id="a_Node000002"><a xlink:href="classzero__mate_1_1utils_1_1ILogger.html" target="_top" xlink:title="This class represents a logging_system interface.">
<polygon fill="white" stroke="#666666" points="138.5,-127 1.5,-127 1.5,-108 138.5,-108 138.5,-127"/>
<text text-anchor="middle" x="70" y="-115" font-family="Helvetica,sans-Serif" font-size="10.00">zero_mate::utils::ILogger</text>
</a>
</g>
</g>
<!-- Node2&#45;&gt;Node1 -->
<g id="edge1_Node000001_Node000002" class="edge">
<title>Node2&#45;&gt;Node1</title>
<g id="a_edge1_Node000001_Node000002"><a xlink:title=" ">
<path fill="none" stroke="#63b8ff" d="M127.84,-105.89C157.28,-99.88 193.17,-92.54 222.86,-86.48"/>
<polygon fill="#63b8ff" stroke="#63b8ff" points="126.81,-102.53 117.72,-107.96 128.21,-109.38 126.81,-102.53"/>
</a>
</g>
</g>
<!-- Node3 -->
<g id="Node000003" class="node">
<title>Node3</title>
<g id="a_Node000003"><a xlink:href="classzero__mate_1_1gui_1_1IGUI__Window.html" target="_top" xlink:title="Common interface for all GUI windows.">
<polygon fill="white" stroke="#666666" points="128,-89.5 12,-89.5 12,-59.5 128,-59.5 128,-89.5"/>
<text text-anchor="start" x="20" y="-77.5" font-family="Helvetica,sans-Serif" font-size="10.00">zero_mate::gui::IGUI</text>
<text text-anchor="middle" x="70" y="-66.5" font-family="Helvetica,sans-Serif" font-size="10.00">_Window</text>
</a>
</g>
</g>
<!-- Node3&#45;&gt;Node1 -->
<g id="edge2_Node000001_Node000003" class="edge">
<title>Node3&#45;&gt;Node1</title>
<g id="a_edge2_Node000001_Node000003"><a xlink:title=" ">
<path fill="none" stroke="#63b8ff" d="M138.44,-74.5C165.59,-74.5 196.6,-74.5 222.8,-74.5"/>
<polygon fill="#63b8ff" stroke="#63b8ff" points="138.24,-71 128.24,-74.5 138.24,-78 138.24,-71"/>
</a>
</g>
</g>
<!-- Node4 -->
<g id="Node000004" class="node">
<title>Node4</title>
<g id="a_Node000004"><a xlink:href="classzero__mate_1_1gui_1_1CCircular__Log__Buffer.html" target="_top" xlink:title=" ">
<polygon fill="white" stroke="#666666" points="140,-41 0,-41 0,0 140,0 140,-41"/>
<text text-anchor="start" x="8" y="-29" font-family="Helvetica,sans-Serif" font-size="10.00">zero_mate::gui::CCircular</text>
<text text-anchor="start" x="8" y="-18" font-family="Helvetica,sans-Serif" font-size="10.00">_Log_Buffer&lt; std::string,</text>
<text text-anchor="middle" x="70" y="-7" font-family="Helvetica,sans-Serif" font-size="10.00"> Max_Logs &gt;</text>
</a>
</g>
</g>
<!-- Node4&#45;&gt;Node1 -->
<g id="edge3_Node000001_Node000004" class="edge">
<title>Node4&#45;&gt;Node1</title>
<g id="a_edge3_Node000001_Node000004"><a xlink:title=" ">
<path fill="none" stroke="#9a32cd" stroke-dasharray="5,2" d="M150.07,-40.78C174.2,-46.97 200.29,-53.67 222.82,-59.45"/>
<polygon fill="#9a32cd" stroke="#9a32cd" points="150.77,-37.35 140.22,-38.26 149.03,-44.13 150.77,-37.35"/>
</a>
</g>
<text text-anchor="middle" x="181.5" y="-56.5" font-family="Helvetica,sans-Serif" font-size="10.00" fill="grey"> m_buffer</text>
</g>
</g>
</svg>
