<?xml version="1.0" encoding="UTF-8" standalone="no"?>
<!DOCTYPE svg PUBLIC "-//W3C//DTD SVG 1.1//EN"
 "http://www.w3.org/Graphics/SVG/1.1/DTD/svg11.dtd">
<!-- Generated by graphviz version 2.43.0 (0)
 -->
<!-- Title: zero_mate::gui::CARM_Timer_Window::Render_Table Pages: 1 -->
<svg width="513pt" height="108pt"
 viewBox="0.00 0.00 513.00 108.00" xmlns="http://www.w3.org/2000/svg" xmlns:xlink="http://www.w3.org/1999/xlink">
<g id="graph0" class="graph" transform="scale(1 1) rotate(0) translate(4 104)">
<title>zero_mate::gui::CARM_Timer_Window::Render_Table</title>
<!-- Node1 -->
<g id="Node000001" class="node">
<title>Node1</title>
<g id="a_Node000001"><a xlink:title="Renders a table (register values).">
<polygon fill="#999999" stroke="#666666" points="505,-64.5 340,-64.5 340,-34.5 505,-34.5 505,-64.5"/>
<text text-anchor="start" x="348" y="-52.5" font-family="Helvetica,sans-Serif" font-size="10.00">zero_mate::gui::CARM</text>
<text text-anchor="middle" x="422.5" y="-41.5" font-family="Helvetica,sans-Serif" font-size="10.00">_Timer_Window::Render_Table</text>
</a>
</g>
</g>
<!-- Node2 -->
<g id="Node000002" class="node">
<title>Node2</title>
<g id="a_Node000002"><a xlink:href="classzero__mate_1_1gui_1_1CARM__Timer__Window.html#ae81010b350ca24a45d2bd7bb6e979d72" target="_top" xlink:title="Render individual bits of the ARM timer control register.">
<polygon fill="white" stroke="#666666" points="304,-100 170,-100 170,-59 304,-59 304,-100"/>
<text text-anchor="start" x="178" y="-88" font-family="Helvetica,sans-Serif" font-size="10.00">zero_mate::gui::CARM</text>
<text text-anchor="start" x="178" y="-77" font-family="Helvetica,sans-Serif" font-size="10.00">_Timer_Window::Render</text>
<text text-anchor="middle" x="237" y="-66" font-family="Helvetica,sans-Serif" font-size="10.00">_Control_Register</text>
</a>
</g>
</g>
<!-- Node1&#45;&gt;Node2 -->
<g id="edge1_Node000001_Node000002" class="edge">
<title>Node1&#45;&gt;Node2</title>
<g id="a_edge1_Node000001_Node000002"><a xlink:title=" ">
<path fill="none" stroke="#63b8ff" d="M329.81,-64.49C321.17,-65.9 312.52,-67.32 304.18,-68.68"/>
<polygon fill="#63b8ff" stroke="#63b8ff" points="330.64,-67.9 339.95,-62.83 329.51,-60.99 330.64,-67.9"/>
</a>
</g>
</g>
<!-- Node4 -->
<g id="Node000004" class="node">
<title>Node4</title>
<g id="a_Node000004"><a xlink:href="classzero__mate_1_1gui_1_1CARM__Timer__Window.html#a9285c91bad23db6dc55b0fab3bd8161a" target="_top" xlink:title="Renders ARM timer registers (value, load, etc.).">
<polygon fill="white" stroke="#666666" points="304,-41 170,-41 170,0 304,0 304,-41"/>
<text text-anchor="start" x="178" y="-29" font-family="Helvetica,sans-Serif" font-size="10.00">zero_mate::gui::CARM</text>
<text text-anchor="start" x="178" y="-18" font-family="Helvetica,sans-Serif" font-size="10.00">_Timer_Window::Render</text>
<text text-anchor="middle" x="237" y="-7" font-family="Helvetica,sans-Serif" font-size="10.00">_Registers</text>
</a>
</g>
</g>
<!-- Node1&#45;&gt;Node4 -->
<g id="edge3_Node000001_Node000004" class="edge">
<title>Node1&#45;&gt;Node4</title>
<g id="a_edge3_Node000001_Node000004"><a xlink:title=" ">
<path fill="none" stroke="#63b8ff" d="M329.81,-35.01C321.17,-33.64 312.52,-32.28 304.18,-30.96"/>
<polygon fill="#63b8ff" stroke="#63b8ff" points="329.52,-38.51 339.95,-36.61 330.61,-31.59 329.52,-38.51"/>
</a>
</g>
</g>
<!-- Node3 -->
<g id="Node000003" class="node">
<title>Node3</title>
<g id="a_Node000003"><a xlink:href="classzero__mate_1_1gui_1_1CARM__Timer__Window.html#aaf519012bb20d98b58690c86ce7f2009" target="_top" xlink:title="Renders the ARM timer registers (IGUI_Window interface).">
<polygon fill="white" stroke="#666666" points="134,-64.5 0,-64.5 0,-34.5 134,-34.5 134,-64.5"/>
<text text-anchor="start" x="8" y="-52.5" font-family="Helvetica,sans-Serif" font-size="10.00">zero_mate::gui::CARM</text>
<text text-anchor="middle" x="67" y="-41.5" font-family="Helvetica,sans-Serif" font-size="10.00">_Timer_Window::Render</text>
</a>
</g>
</g>
<!-- Node2&#45;&gt;Node3 -->
<g id="edge2_Node000002_Node000003" class="edge">
<title>Node2&#45;&gt;Node3</title>
<g id="a_edge2_Node000002_Node000003"><a xlink:title=" ">
<path fill="none" stroke="#63b8ff" d="M159.68,-65.87C151.17,-64.35 142.56,-62.81 134.19,-61.32"/>
<polygon fill="#63b8ff" stroke="#63b8ff" points="159.14,-69.33 169.6,-67.64 160.37,-62.44 159.14,-69.33"/>
</a>
</g>
</g>
<!-- Node4&#45;&gt;Node3 -->
<g id="edge4_Node000004_Node000003" class="edge">
<title>Node4&#45;&gt;Node3</title>
<g id="a_edge4_Node000004_Node000003"><a xlink:title=" ">
<path fill="none" stroke="#63b8ff" d="M159.68,-33.67C151.17,-35.14 142.56,-36.63 134.19,-38.07"/>
<polygon fill="#63b8ff" stroke="#63b8ff" points="160.34,-37.11 169.6,-31.96 159.15,-30.21 160.34,-37.11"/>
</a>
</g>
</g>
</g>
</svg>
