<?xml version="1.0" encoding="UTF-8" standalone="no"?>
<!DOCTYPE svg PUBLIC "-//W3C//DTD SVG 1.1//EN"
 "http://www.w3.org/Graphics/SVG/1.1/DTD/svg11.dtd">
<!-- Generated by graphviz version 2.43.0 (0)
 -->
<!-- Title: zero_mate::gui::CTop_Bar_Menu::Load_ELF_File Pages: 1 -->
<svg width="719pt" height="209pt"
 viewBox="0.00 0.00 719.00 209.00" xmlns="http://www.w3.org/2000/svg" xmlns:xlink="http://www.w3.org/1999/xlink">
<g id="graph0" class="graph" transform="scale(1 1) rotate(0) translate(4 205)">
<title>zero_mate::gui::CTop_Bar_Menu::Load_ELF_File</title>
<!-- Node1 -->
<g id="Node000001" class="node">
<title>Node1</title>
<g id="a_Node000001"><a xlink:title="Loads a single ELF file.">
<polygon fill="#999999" stroke="#666666" points="145,-102 0,-102 0,-72 145,-72 145,-102"/>
<text text-anchor="start" x="8" y="-90" font-family="Helvetica,sans-Serif" font-size="10.00">zero_mate::gui::CTop</text>
<text text-anchor="middle" x="72.5" y="-79" font-family="Helvetica,sans-Serif" font-size="10.00">_Bar_Menu::Load_ELF_File</text>
</a>
</g>
</g>
<!-- Node2 -->
<g id="Node000002" class="node">
<title>Node2</title>
<g id="a_Node000002"><a xlink:href="classzero__mate_1_1utils_1_1CLogging__System.html#a57ed77e1a5cf822cea532cc5e05c3f60" target="_top" xlink:title="Logs an error message via all registered loggers.">
<polygon fill="white" stroke="#666666" points="327,-174 181,-174 181,-144 327,-144 327,-174"/>
<text text-anchor="start" x="189" y="-162" font-family="Helvetica,sans-Serif" font-size="10.00">zero_mate::utils::CLogging</text>
<text text-anchor="middle" x="254" y="-151" font-family="Helvetica,sans-Serif" font-size="10.00">_System::Error</text>
</a>
</g>
</g>
<!-- Node1&#45;&gt;Node2 -->
<g id="edge1_Node000001_Node000002" class="edge">
<title>Node1&#45;&gt;Node2</title>
<g id="a_edge1_Node000001_Node000002"><a xlink:title=" ">
<path fill="none" stroke="#63b8ff" d="M105.14,-102.11C126.37,-112.01 155.09,-124.93 181,-135 185.79,-136.86 190.79,-138.71 195.83,-140.52"/>
<polygon fill="#63b8ff" stroke="#63b8ff" points="194.92,-143.91 205.51,-143.91 197.23,-137.3 194.92,-143.91"/>
</a>
</g>
</g>
<!-- Node7 -->
<g id="Node000007" class="node">
<title>Node7</title>
<g id="a_Node000007"><a xlink:href="classzero__mate_1_1gui_1_1CTop__Bar__Menu.html#a9374e039e857fa2f4d1e65f7edcd707f" target="_top" xlink:title="Returns a filename of a given filepath.">
<polygon fill="white" stroke="#666666" points="326,-78 182,-78 182,-48 326,-48 326,-78"/>
<text text-anchor="start" x="190" y="-66" font-family="Helvetica,sans-Serif" font-size="10.00">zero_mate::gui::CTop</text>
<text text-anchor="middle" x="254" y="-55" font-family="Helvetica,sans-Serif" font-size="10.00">_Bar_Menu::Get_Filename</text>
</a>
</g>
</g>
<!-- Node1&#45;&gt;Node7 -->
<g id="edge6_Node000001_Node000007" class="edge">
<title>Node1&#45;&gt;Node7</title>
<g id="a_edge6_Node000001_Node000007"><a xlink:title=" ">
<path fill="none" stroke="#63b8ff" d="M145.22,-77.41C154.01,-76.23 163.05,-75.03 171.98,-73.83"/>
<polygon fill="#63b8ff" stroke="#63b8ff" points="172.53,-77.29 181.98,-72.5 171.61,-70.35 172.53,-77.29"/>
</a>
</g>
</g>
<!-- Node8 -->
<g id="Node000008" class="node">
<title>Node8</title>
<g id="a_Node000008"><a xlink:href="classzero__mate_1_1utils_1_1CLogging__System.html#a455d99c3614dc92ffbdbdcdb6b8b8bb8" target="_top" xlink:title="Logs an info message via all registered loggers.">
<polygon fill="white" stroke="#666666" points="327,-126 181,-126 181,-96 327,-96 327,-126"/>
<text text-anchor="start" x="189" y="-114" font-family="Helvetica,sans-Serif" font-size="10.00">zero_mate::utils::CLogging</text>
<text text-anchor="middle" x="254" y="-103" font-family="Helvetica,sans-Serif" font-size="10.00">_System::Info</text>
</a>
</g>
</g>
<!-- Node1&#45;&gt;Node8 -->
<g id="edge7_Node000001_Node000008" class="edge">
<title>Node1&#45;&gt;Node8</title>
<g id="a_edge7_Node000001_Node000008"><a xlink:title=" ">
<path fill="none" stroke="#63b8ff" d="M145.22,-96.59C153.64,-97.72 162.28,-98.87 170.83,-100.01"/>
<polygon fill="#63b8ff" stroke="#63b8ff" points="170.44,-103.49 180.81,-101.35 171.36,-96.55 170.44,-103.49"/>
</a>
</g>
</g>
<!-- Node9 -->
<g id="Node000009" class="node">
<title>Node9</title>
<g id="a_Node000009"><a xlink:href="namespacezero__mate_1_1utils_1_1elf.html#a9f6c82c3b8cd3f725d004c7b9022d69a" target="_top" xlink:title="Loads a given ELF file (kernel) into the memory.">
<polygon fill="white" stroke="#666666" points="311,-30 197,-30 197,0 311,0 311,-30"/>
<text text-anchor="start" x="205" y="-18" font-family="Helvetica,sans-Serif" font-size="10.00">zero_mate::utils::elf</text>
<text text-anchor="middle" x="254" y="-7" font-family="Helvetica,sans-Serif" font-size="10.00">::Load_ELF</text>
</a>
</g>
</g>
<!-- Node1&#45;&gt;Node9 -->
<g id="edge10_Node000001_Node000009" class="edge">
<title>Node1&#45;&gt;Node9</title>
<g id="a_edge10_Node000001_Node000009"><a xlink:title=" ">
<path fill="none" stroke="#63b8ff" d="M105.14,-71.89C126.37,-61.99 155.09,-49.07 181,-39 185.79,-37.14 190.79,-35.29 195.83,-33.48"/>
<polygon fill="#63b8ff" stroke="#63b8ff" points="197.23,-36.7 205.51,-30.09 194.92,-30.09 197.23,-36.7"/>
</a>
</g>
</g>
<!-- Node3 -->
<g id="Node000003" class="node">
<title>Node3</title>
<g id="a_Node000003"><a xlink:href="classzero__mate_1_1utils_1_1CLogging__System.html#a71ed11c796553cbe8fd99773406a1060" target="_top" xlink:title="Creates a formatted message to be logged.">
<polygon fill="white" stroke="#666666" points="515,-182.5 363,-182.5 363,-141.5 515,-141.5 515,-182.5"/>
<text text-anchor="start" x="371" y="-170.5" font-family="Helvetica,sans-Serif" font-size="10.00">zero_mate::utils::CLogging</text>
<text text-anchor="start" x="371" y="-159.5" font-family="Helvetica,sans-Serif" font-size="10.00">_System::Create_Formatted</text>
<text text-anchor="middle" x="439" y="-148.5" font-family="Helvetica,sans-Serif" font-size="10.00">_Log_Msg</text>
</a>
</g>
</g>
<!-- Node2&#45;&gt;Node3 -->
<g id="edge2_Node000002_Node000003" class="edge">
<title>Node2&#45;&gt;Node3</title>
<g id="a_edge2_Node000002_Node000003"><a xlink:title=" ">
<path fill="none" stroke="#63b8ff" d="M327.06,-160.18C335.55,-160.32 344.26,-160.46 352.9,-160.6"/>
<polygon fill="#63b8ff" stroke="#63b8ff" points="352.94,-164.11 362.99,-160.77 353.05,-157.11 352.94,-164.11"/>
</a>
</g>
</g>
<!-- Node6 -->
<g id="Node000006" class="node">
<title>Node6</title>
<g id="a_Node000006"><a xlink:href="classzero__mate_1_1utils_1_1CLogging__System.html#ad371c67ef65763966ccf9291002e86f3" target="_top" xlink:title="Extract the filename from a given location within the source files.">
<polygon fill="white" stroke="#666666" points="513.5,-123 364.5,-123 364.5,-93 513.5,-93 513.5,-123"/>
<text text-anchor="start" x="372.5" y="-111" font-family="Helvetica,sans-Serif" font-size="10.00">zero_mate::utils::CLogging</text>
<text text-anchor="middle" x="439" y="-100" font-family="Helvetica,sans-Serif" font-size="10.00">_System::Extract_Filename</text>
</a>
</g>
</g>
<!-- Node2&#45;&gt;Node6 -->
<g id="edge5_Node000002_Node000006" class="edge">
<title>Node2&#45;&gt;Node6</title>
<g id="a_edge5_Node000002_Node000006"><a xlink:title=" ">
<path fill="none" stroke="#63b8ff" d="M308.92,-143.97C329.49,-138.24 353.13,-131.65 374.51,-125.69"/>
<polygon fill="#63b8ff" stroke="#63b8ff" points="375.46,-129.06 384.15,-123.01 373.58,-122.32 375.46,-129.06"/>
</a>
</g>
</g>
<!-- Node4 -->
<g id="Node000004" class="node">
<title>Node4</title>
<g id="a_Node000004"><a xlink:href="classzero__mate_1_1utils_1_1CLogging__System.html#aa70c102c805079042ffea2a6f2a5ad64" target="_top" xlink:title="Formats a given timestamp.">
<polygon fill="white" stroke="#666666" points="711,-201 551,-201 551,-171 711,-171 711,-201"/>
<text text-anchor="start" x="559" y="-189" font-family="Helvetica,sans-Serif" font-size="10.00">zero_mate::utils::CLogging</text>
<text text-anchor="middle" x="631" y="-178" font-family="Helvetica,sans-Serif" font-size="10.00">_System::Format_Timestamp</text>
</a>
</g>
</g>
<!-- Node3&#45;&gt;Node4 -->
<g id="edge3_Node000003_Node000004" class="edge">
<title>Node3&#45;&gt;Node4</title>
<g id="a_edge3_Node000003_Node000004"><a xlink:title=" ">
<path fill="none" stroke="#63b8ff" d="M515.09,-171.49C523.52,-172.55 532.16,-173.64 540.74,-174.73"/>
<polygon fill="#63b8ff" stroke="#63b8ff" points="540.41,-178.21 550.77,-175.99 541.29,-171.27 540.41,-178.21"/>
</a>
</g>
</g>
<!-- Node5 -->
<g id="Node000005" class="node">
<title>Node5</title>
<g id="a_Node000005"><a xlink:href="classzero__mate_1_1utils_1_1CLogging__System.html#ae3ca637537dde05e0b9119145c840331" target="_top" xlink:title="Returns the current timestamp that will be used in a log message.">
<polygon fill="white" stroke="#666666" points="704,-153 558,-153 558,-123 704,-123 704,-153"/>
<text text-anchor="start" x="566" y="-141" font-family="Helvetica,sans-Serif" font-size="10.00">zero_mate::utils::CLogging</text>
<text text-anchor="middle" x="631" y="-130" font-family="Helvetica,sans-Serif" font-size="10.00">_System::Get_Timestamp</text>
</a>
</g>
</g>
<!-- Node3&#45;&gt;Node5 -->
<g id="edge4_Node000003_Node000005" class="edge">
<title>Node3&#45;&gt;Node5</title>
<g id="a_edge4_Node000003_Node000005"><a xlink:title=" ">
<path fill="none" stroke="#63b8ff" d="M515.09,-152.51C525.89,-151.15 537.05,-149.74 547.98,-148.36"/>
<polygon fill="#63b8ff" stroke="#63b8ff" points="548.45,-151.83 557.93,-147.1 547.57,-144.88 548.45,-151.83"/>
</a>
</g>
</g>
<!-- Node8&#45;&gt;Node3 -->
<g id="edge8_Node000008_Node000003" class="edge">
<title>Node8&#45;&gt;Node3</title>
<g id="a_edge8_Node000008_Node000003"><a xlink:title=" ">
<path fill="none" stroke="#63b8ff" d="M308.92,-126.03C323.1,-129.98 338.74,-134.34 354.1,-138.62"/>
<polygon fill="#63b8ff" stroke="#63b8ff" points="353.55,-142.1 364.13,-141.41 355.43,-135.36 353.55,-142.1"/>
</a>
</g>
</g>
<!-- Node8&#45;&gt;Node6 -->
<g id="edge9_Node000008_Node000006" class="edge">
<title>Node8&#45;&gt;Node6</title>
<g id="a_edge9_Node000008_Node000006"><a xlink:title=" ">
<path fill="none" stroke="#63b8ff" d="M327.06,-109.82C336,-109.67 345.2,-109.52 354.29,-109.37"/>
<polygon fill="#63b8ff" stroke="#63b8ff" points="354.56,-112.87 364.5,-109.2 354.44,-105.87 354.56,-112.87"/>
</a>
</g>
</g>
</g>
</svg>
