<?xml version="1.0" encoding="UTF-8" standalone="no"?>
<!DOCTYPE svg PUBLIC "-//W3C//DTD SVG 1.1//EN"
 "http://www.w3.org/Graphics/SVG/1.1/DTD/svg11.dtd">
<!-- Generated by graphviz version 2.43.0 (0)
 -->
<!-- Title: zero_mate::peripheral::CInterrupt_Controller Pages: 1 -->
<svg width="692pt" height="193pt"
 viewBox="0.00 0.00 692.00 193.00" xmlns="http://www.w3.org/2000/svg" xmlns:xlink="http://www.w3.org/1999/xlink">
<g id="graph0" class="graph" transform="scale(1 1) rotate(0) translate(4 189)">
<title>zero_mate::peripheral::CInterrupt_Controller</title>
<!-- Node1 -->
<g id="Node000001" class="node">
<title>Node1</title>
<g id="a_Node000001"><a xlink:title="This class represents the interrupt controller used in BCM2835.">
<polygon fill="#999999" stroke="#666666" points="684,-106 559,-106 559,-76 684,-76 684,-106"/>
<text text-anchor="start" x="567" y="-94" font-family="Helvetica,sans-Serif" font-size="10.00">zero_mate::peripheral</text>
<text text-anchor="middle" x="621.5" y="-83" font-family="Helvetica,sans-Serif" font-size="10.00">::CInterrupt_Controller</text>
</a>
</g>
</g>
<!-- Node2 -->
<g id="Node000002" class="node">
<title>Node2</title>
<g id="a_Node000002"><a xlink:href="classzero__mate_1_1peripheral_1_1IPeripheral.html" target="_top" xlink:title="This class represents a general interface of a memory&#45;mapped peripheral.">
<polygon fill="white" stroke="#666666" points="405,-185 281,-185 281,-155 405,-155 405,-185"/>
<text text-anchor="start" x="289" y="-173" font-family="Helvetica,sans-Serif" font-size="10.00">zero_mate::peripheral</text>
<text text-anchor="middle" x="343" y="-162" font-family="Helvetica,sans-Serif" font-size="10.00">::IPeripheral</text>
</a>
</g>
</g>
<!-- Node2&#45;&gt;Node1 -->
<g id="edge1_Node000001_Node000002" class="edge">
<title>Node2&#45;&gt;Node1</title>
<g id="a_edge1_Node000001_Node000002"><a xlink:title=" ">
<path fill="none" stroke="#63b8ff" d="M415.11,-161.9C453.17,-156.27 500.43,-147.16 541,-133 560.6,-126.16 581.29,-115.09 596.65,-106.03"/>
<polygon fill="#63b8ff" stroke="#63b8ff" points="414.54,-158.45 405.14,-163.33 415.54,-165.38 414.54,-158.45"/>
</a>
</g>
</g>
<!-- Node3 -->
<g id="Node000003" class="node">
<title>Node3</title>
<g id="a_Node000003"><a xlink:href="structzero__mate_1_1peripheral_1_1CInterrupt__Controller_1_1TInterrupt__Info.html" target="_top" xlink:title="This structure holds information about each IRQ/Basic IRQ source.">
<polygon fill="white" stroke="#666666" points="405.5,-136.5 280.5,-136.5 280.5,-95.5 405.5,-95.5 405.5,-136.5"/>
<text text-anchor="start" x="288.5" y="-124.5" font-family="Helvetica,sans-Serif" font-size="10.00">zero_mate::peripheral</text>
<text text-anchor="start" x="288.5" y="-113.5" font-family="Helvetica,sans-Serif" font-size="10.00">::CInterrupt_Controller</text>
<text text-anchor="middle" x="343" y="-102.5" font-family="Helvetica,sans-Serif" font-size="10.00">::TInterrupt_Info</text>
</a>
</g>
</g>
<!-- Node3&#45;&gt;Node1 -->
<g id="edge2_Node000001_Node000003" class="edge">
<title>Node3&#45;&gt;Node1</title>
<g id="a_edge2_Node000001_Node000003"><a xlink:title=" ">
<path fill="none" stroke="#9a32cd" stroke-dasharray="5,2" d="M415.85,-109.5C460.26,-105.49 516.64,-100.39 558.98,-96.56"/>
<polygon fill="#9a32cd" stroke="#9a32cd" points="415.35,-106.03 405.71,-110.42 415.98,-113.01 415.35,-106.03"/>
</a>
</g>
<text text-anchor="start" x="426" y="-121" font-family="Helvetica,sans-Serif" font-size="10.00" fill="grey"> Disabled_Non_Pending</text>
<text text-anchor="middle" x="483.5" y="-110" font-family="Helvetica,sans-Serif" font-size="10.00" fill="grey">_Interrupt</text>
</g>
<!-- Node4 -->
<g id="Node000004" class="node">
<title>Node4</title>
<g id="a_Node000004"><a xlink:href="classzero__mate_1_1arm1176jzf__s_1_1CCPU__Context.html" target="_top" xlink:title="This class represents the context (registers) of the CPU.">
<polygon fill="white" stroke="#666666" points="408,-30 278,-30 278,0 408,0 408,-30"/>
<text text-anchor="start" x="286" y="-18" font-family="Helvetica,sans-Serif" font-size="10.00">zero_mate::arm1176jzf</text>
<text text-anchor="middle" x="343" y="-7" font-family="Helvetica,sans-Serif" font-size="10.00">_s::CCPU_Context</text>
</a>
</g>
</g>
<!-- Node4&#45;&gt;Node1 -->
<g id="edge3_Node000001_Node000004" class="edge">
<title>Node4&#45;&gt;Node1</title>
<g id="a_edge3_Node000001_Node000004"><a xlink:title=" ">
<path fill="none" stroke="#9a32cd" stroke-dasharray="5,2" d="M418.57,-17.3C456.19,-20.34 502,-26.92 541,-41 563.55,-49.14 586.41,-64.41 601.8,-75.95"/>
<polygon fill="#9a32cd" stroke="#9a32cd" points="418.41,-13.78 408.18,-16.54 417.9,-20.77 418.41,-13.78"/>
</a>
</g>
<text text-anchor="middle" x="483.5" y="-44" font-family="Helvetica,sans-Serif" font-size="10.00" fill="grey"> m_cpu_context</text>
</g>
<!-- Node5 -->
<g id="Node000005" class="node">
<title>Node5</title>
<g id="a_Node000005"><a xlink:href="classzero__mate_1_1utils_1_1CLogging__System.html" target="_top" xlink:title="This class defines a logging system that is used throughout the project.">
<polygon fill="white" stroke="#666666" points="146,-56 0,-56 0,-26 146,-26 146,-56"/>
<text text-anchor="start" x="8" y="-44" font-family="Helvetica,sans-Serif" font-size="10.00">zero_mate::utils::CLogging</text>
<text text-anchor="middle" x="73" y="-33" font-family="Helvetica,sans-Serif" font-size="10.00">_System</text>
</a>
</g>
</g>
<!-- Node5&#45;&gt;Node1 -->
<g id="edge5_Node000001_Node000005" class="edge">
<title>Node5&#45;&gt;Node1</title>
<g id="a_edge5_Node000001_Node000005"><a xlink:title=" ">
<path fill="none" stroke="#9a32cd" stroke-dasharray="5,2" d="M156.09,-48.51C266.45,-58.61 460.16,-76.33 558.89,-85.36"/>
<polygon fill="#9a32cd" stroke="#9a32cd" points="156.28,-45.01 146.01,-47.59 155.65,-51.98 156.28,-45.01"/>
</a>
</g>
<text text-anchor="middle" x="343" y="-74" font-family="Helvetica,sans-Serif" font-size="10.00" fill="grey"> m_logging_system</text>
</g>
<!-- Node5&#45;&gt;Node4 -->
<g id="edge4_Node000004_Node000005" class="edge">
<title>Node5&#45;&gt;Node4</title>
<g id="a_edge4_Node000004_Node000005"><a xlink:title=" ">
<path fill="none" stroke="#9a32cd" stroke-dasharray="5,2" d="M156.47,-33C195.55,-29.21 241.52,-24.75 277.93,-21.22"/>
<polygon fill="#9a32cd" stroke="#9a32cd" points="155.79,-29.55 146.17,-34 156.46,-36.52 155.79,-29.55"/>
</a>
</g>
<text text-anchor="middle" x="212" y="-35" font-family="Helvetica,sans-Serif" font-size="10.00" fill="grey"> m_logging_system</text>
</g>
</g>
</svg>
