<?xml version="1.0" encoding="UTF-8" standalone="no"?>
<!DOCTYPE svg PUBLIC "-//W3C//DTD SVG 1.1//EN"
 "http://www.w3.org/Graphics/SVG/1.1/DTD/svg11.dtd">
<!-- Generated by graphviz version 2.43.0 (0)
 -->
<!-- Title: zero_mate::gui::CControl_Window::Print_No_ELF_File_Loaded_Error_Msg Pages: 1 -->
<svg width="711pt" height="86pt"
 viewBox="0.00 0.00 711.00 86.00" xmlns="http://www.w3.org/2000/svg" xmlns:xlink="http://www.w3.org/1999/xlink">
<g id="graph0" class="graph" transform="scale(1 1) rotate(0) translate(4 82)">
<title>zero_mate::gui::CControl_Window::Print_No_ELF_File_Loaded_Error_Msg</title>
<!-- Node1 -->
<g id="Node000001" class="node">
<title>Node1</title>
<g id="a_Node000001"><a xlink:title="Log an error message saying that no ELF file (kernel) has been loaded yet.">
<polygon fill="#999999" stroke="#666666" points="703,-59.5 551,-59.5 551,-18.5 703,-18.5 703,-59.5"/>
<text text-anchor="start" x="559" y="-47.5" font-family="Helvetica,sans-Serif" font-size="10.00">zero_mate::gui::CControl</text>
<text text-anchor="start" x="559" y="-36.5" font-family="Helvetica,sans-Serif" font-size="10.00">_Window::Print_No_ELF_File</text>
<text text-anchor="middle" x="627" y="-25.5" font-family="Helvetica,sans-Serif" font-size="10.00">_Loaded_Error_Msg</text>
</a>
</g>
</g>
<!-- Node2 -->
<g id="Node000002" class="node">
<title>Node2</title>
<g id="a_Node000002"><a xlink:href="classzero__mate_1_1gui_1_1CControl__Window.html#ac547361a03efba8bcb05e216ae512dac" target="_top" xlink:title="Renders the run control button.">
<polygon fill="white" stroke="#666666" points="513.5,-78 351.5,-78 351.5,-48 513.5,-48 513.5,-78"/>
<text text-anchor="start" x="359.5" y="-66" font-family="Helvetica,sans-Serif" font-size="10.00">zero_mate::gui::CControl</text>
<text text-anchor="middle" x="432.5" y="-55" font-family="Helvetica,sans-Serif" font-size="10.00">_Window::Render_Run_Button</text>
</a>
</g>
</g>
<!-- Node1&#45;&gt;Node2 -->
<g id="edge1_Node000001_Node000002" class="edge">
<title>Node1&#45;&gt;Node2</title>
<g id="a_edge1_Node000001_Node000002"><a xlink:title=" ">
<path fill="none" stroke="#63b8ff" d="M540.71,-49.63C531.76,-50.75 522.68,-51.88 513.79,-52.99"/>
<polygon fill="#63b8ff" stroke="#63b8ff" points="541.26,-53.09 550.75,-48.38 540.39,-46.15 541.26,-53.09"/>
</a>
</g>
</g>
<!-- Node5 -->
<g id="Node000005" class="node">
<title>Node5</title>
<g id="a_Node000005"><a xlink:href="classzero__mate_1_1gui_1_1CControl__Window.html#a9dabdbd3011cc2a5a13e7409a65deb3e" target="_top" xlink:title="Renders the step control button.">
<polygon fill="white" stroke="#666666" points="515,-30 350,-30 350,0 515,0 515,-30"/>
<text text-anchor="start" x="358" y="-18" font-family="Helvetica,sans-Serif" font-size="10.00">zero_mate::gui::CControl</text>
<text text-anchor="middle" x="432.5" y="-7" font-family="Helvetica,sans-Serif" font-size="10.00">_Window::Render_Step_Button</text>
</a>
</g>
</g>
<!-- Node1&#45;&gt;Node5 -->
<g id="edge4_Node000001_Node000005" class="edge">
<title>Node1&#45;&gt;Node5</title>
<g id="a_edge4_Node000001_Node000005"><a xlink:title=" ">
<path fill="none" stroke="#63b8ff" d="M540.78,-28.38C532.24,-27.31 523.57,-26.23 515.06,-25.17"/>
<polygon fill="#63b8ff" stroke="#63b8ff" points="540.39,-31.85 550.75,-29.62 541.26,-24.91 540.39,-31.85"/>
</a>
</g>
</g>
<!-- Node3 -->
<g id="Node000003" class="node">
<title>Node3</title>
<g id="a_Node000003"><a xlink:href="classzero__mate_1_1gui_1_1CControl__Window.html#a9be0d8c611ece954a13f3763744b074f" target="_top" xlink:title="Renders the control button (step, stop, run)">
<polygon fill="white" stroke="#666666" points="314,-59.5 173,-59.5 173,-18.5 314,-18.5 314,-59.5"/>
<text text-anchor="start" x="181" y="-47.5" font-family="Helvetica,sans-Serif" font-size="10.00">zero_mate::gui::CControl</text>
<text text-anchor="start" x="181" y="-36.5" font-family="Helvetica,sans-Serif" font-size="10.00">_Window::Render_Control</text>
<text text-anchor="middle" x="243.5" y="-25.5" font-family="Helvetica,sans-Serif" font-size="10.00">_Buttons</text>
</a>
</g>
</g>
<!-- Node2&#45;&gt;Node3 -->
<g id="edge2_Node000002_Node000003" class="edge">
<title>Node2&#45;&gt;Node3</title>
<g id="a_edge2_Node000002_Node000003"><a xlink:title=" ">
<path fill="none" stroke="#63b8ff" d="M341.46,-51.44C332.28,-50.27 323.05,-49.08 314.14,-47.94"/>
<polygon fill="#63b8ff" stroke="#63b8ff" points="341.02,-54.92 351.38,-52.72 341.91,-47.97 341.02,-54.92"/>
</a>
</g>
</g>
<!-- Node4 -->
<g id="Node000004" class="node">
<title>Node4</title>
<g id="a_Node000004"><a xlink:href="classzero__mate_1_1gui_1_1CControl__Window.html#aabafaf7d45b7c4516719dce03772ee5a" target="_top" xlink:title="Renders the window (IGUI_Window interface).">
<polygon fill="white" stroke="#666666" points="137,-54 0,-54 0,-24 137,-24 137,-54"/>
<text text-anchor="start" x="8" y="-42" font-family="Helvetica,sans-Serif" font-size="10.00">zero_mate::gui::CControl</text>
<text text-anchor="middle" x="68.5" y="-31" font-family="Helvetica,sans-Serif" font-size="10.00">_Window::Render</text>
</a>
</g>
</g>
<!-- Node3&#45;&gt;Node4 -->
<g id="edge3_Node000003_Node000004" class="edge">
<title>Node3&#45;&gt;Node4</title>
<g id="a_edge3_Node000003_Node000004"><a xlink:title=" ">
<path fill="none" stroke="#63b8ff" d="M162.38,-39C153.93,-39 145.39,-39 137.1,-39"/>
<polygon fill="#63b8ff" stroke="#63b8ff" points="162.63,-42.5 172.63,-39 162.63,-35.5 162.63,-42.5"/>
</a>
</g>
</g>
<!-- Node5&#45;&gt;Node3 -->
<g id="edge5_Node000005_Node000003" class="edge">
<title>Node5&#45;&gt;Node3</title>
<g id="a_edge5_Node000005_Node000003"><a xlink:title=" ">
<path fill="none" stroke="#63b8ff" d="M339.67,-26.79C331.07,-27.89 322.44,-29 314.09,-30.07"/>
<polygon fill="#63b8ff" stroke="#63b8ff" points="340.28,-30.24 349.75,-25.49 339.39,-23.29 340.28,-30.24"/>
</a>
</g>
</g>
</g>
</svg>
