<?xml version="1.0" encoding="UTF-8" standalone="no"?>
<!DOCTYPE svg PUBLIC "-//W3C//DTD SVG 1.1//EN"
 "http://www.w3.org/Graphics/SVG/1.1/DTD/svg11.dtd">
<!-- Generated by graphviz version 2.43.0 (0)
 -->
<!-- Title: zero_mate::coprocessor::cp10::CCP10::Perform_Data_Operation Pages: 1 -->
<svg width="913pt" height="850pt"
 viewBox="0.00 0.00 913.00 850.00" xmlns="http://www.w3.org/2000/svg" xmlns:xlink="http://www.w3.org/1999/xlink">
<g id="graph0" class="graph" transform="scale(1 1) rotate(0) translate(4 846)">
<title>zero_mate::coprocessor::cp10::CCP10::Perform_Data_Operation</title>
<!-- Node1 -->
<g id="Node000001" class="node">
<title>Node1</title>
<g id="a_Node000001"><a xlink:title="Performs a coprocessor data operation instruction (ICoprocessor interface).">
<polygon fill="#999999" stroke="#666666" points="133,-433 0,-433 0,-392 133,-392 133,-433"/>
<text text-anchor="start" x="8" y="-421" font-family="Helvetica,sans-Serif" font-size="10.00">zero_mate::coprocessor</text>
<text text-anchor="start" x="8" y="-410" font-family="Helvetica,sans-Serif" font-size="10.00">::cp10::CCP10::Perform</text>
<text text-anchor="middle" x="66.5" y="-399" font-family="Helvetica,sans-Serif" font-size="10.00">_Data_Operation</text>
</a>
</g>
</g>
<!-- Node2 -->
<g id="Node000002" class="node">
<title>Node2</title>
<g id="a_Node000002"><a xlink:href="classzero__mate_1_1utils_1_1CLogging__System.html#a57ed77e1a5cf822cea532cc5e05c3f60" target="_top" xlink:title="Logs an error message via all registered loggers.">
<polygon fill="white" stroke="#666666" points="518.5,-317.5 372.5,-317.5 372.5,-287.5 518.5,-287.5 518.5,-317.5"/>
<text text-anchor="start" x="380.5" y="-305.5" font-family="Helvetica,sans-Serif" font-size="10.00">zero_mate::utils::CLogging</text>
<text text-anchor="middle" x="445.5" y="-294.5" font-family="Helvetica,sans-Serif" font-size="10.00">_System::Error</text>
</a>
</g>
</g>
<!-- Node1&#45;&gt;Node2 -->
<g id="edge1_Node000001_Node000002" class="edge">
<title>Node1&#45;&gt;Node2</title>
<g id="a_edge1_Node000001_Node000002"><a xlink:title=" ">
<path fill="none" stroke="#63b8ff" d="M79.86,-433.05C96.46,-458.44 128.62,-500.37 169,-517.5 236.51,-546.14 271.41,-555.71 334,-517.5 403.12,-475.31 430.82,-374.56 440.27,-327.51"/>
<polygon fill="#63b8ff" stroke="#63b8ff" points="443.74,-328.02 442.16,-317.54 436.86,-326.72 443.74,-328.02"/>
</a>
</g>
</g>
<!-- Node7 -->
<g id="Node000007" class="node">
<title>Node7</title>
<g id="a_Node000007"><a xlink:href="classzero__mate_1_1coprocessor_1_1cp10_1_1CCP10.html#a16093f04e482de31680843bad658a93a" target="_top" xlink:title="Executes a VABS floating point instruction.">
<polygon fill="white" stroke="#666666" points="330.5,-782.5 172.5,-782.5 172.5,-752.5 330.5,-752.5 330.5,-782.5"/>
<text text-anchor="start" x="180.5" y="-770.5" font-family="Helvetica,sans-Serif" font-size="10.00">zero_mate::coprocessor</text>
<text text-anchor="middle" x="251.5" y="-759.5" font-family="Helvetica,sans-Serif" font-size="10.00">::cp10::CCP10::Execute_VABS</text>
</a>
</g>
</g>
<!-- Node1&#45;&gt;Node7 -->
<g id="edge6_Node000001_Node000007" class="edge">
<title>Node1&#45;&gt;Node7</title>
<g id="a_edge6_Node000001_Node000007"><a xlink:title=" ">
<path fill="none" stroke="#63b8ff" d="M67.48,-433.36C68.6,-491.24 79.89,-655.38 169,-743.5 170.08,-744.57 171.21,-745.59 172.37,-746.57"/>
<polygon fill="#63b8ff" stroke="#63b8ff" points="170.41,-749.46 180.59,-752.38 174.45,-743.75 170.41,-749.46"/>
</a>
</g>
</g>
<!-- Node8 -->
<g id="Node000008" class="node">
<title>Node8</title>
<g id="a_Node000008"><a xlink:href="classzero__mate_1_1coprocessor_1_1cp10_1_1CCP10.html#ada7b266c79cb6ab0b8cbbb33db8581c4" target="_top" xlink:title="Executes a VADD floating point instruction.">
<polygon fill="white" stroke="#666666" points="332,-734.5 171,-734.5 171,-704.5 332,-704.5 332,-734.5"/>
<text text-anchor="start" x="179" y="-722.5" font-family="Helvetica,sans-Serif" font-size="10.00">zero_mate::coprocessor</text>
<text text-anchor="middle" x="251.5" y="-711.5" font-family="Helvetica,sans-Serif" font-size="10.00">::cp10::CCP10::Execute_VADD</text>
</a>
</g>
</g>
<!-- Node1&#45;&gt;Node8 -->
<g id="edge7_Node000001_Node000008" class="edge">
<title>Node1&#45;&gt;Node8</title>
<g id="a_edge7_Node000001_Node000008"><a xlink:title=" ">
<path fill="none" stroke="#63b8ff" d="M68.74,-433.36C72.99,-485.44 91.37,-622.24 169,-695.5 170.14,-696.58 171.33,-697.6 172.55,-698.59"/>
<polygon fill="#63b8ff" stroke="#63b8ff" points="170.92,-701.71 181.16,-704.42 174.85,-695.91 170.92,-701.71"/>
</a>
</g>
</g>
<!-- Node9 -->
<g id="Node000009" class="node">
<title>Node9</title>
<g id="a_Node000009"><a xlink:href="classzero__mate_1_1coprocessor_1_1cp10_1_1CCP10.html#a648564bc18e05cbdd009c5e76cace9b3" target="_top" xlink:title="Executes a VCMP and CMPE float point instructions.">
<polygon fill="white" stroke="#666666" points="318,-842 185,-842 185,-801 318,-801 318,-842"/>
<text text-anchor="start" x="193" y="-830" font-family="Helvetica,sans-Serif" font-size="10.00">zero_mate::coprocessor</text>
<text text-anchor="start" x="193" y="-819" font-family="Helvetica,sans-Serif" font-size="10.00">::cp10::CCP10::Execute</text>
<text text-anchor="middle" x="251.5" y="-808" font-family="Helvetica,sans-Serif" font-size="10.00">_VCMP_VCMPE</text>
</a>
</g>
</g>
<!-- Node1&#45;&gt;Node9 -->
<g id="edge8_Node000001_Node000009" class="edge">
<title>Node1&#45;&gt;Node9</title>
<g id="a_edge8_Node000001_Node000009"><a xlink:title=" ">
<path fill="none" stroke="#63b8ff" d="M66.83,-433.23C65.95,-495.82 71.87,-685.1 169,-791.5 171.29,-794.01 173.8,-796.3 176.49,-798.41"/>
<polygon fill="#63b8ff" stroke="#63b8ff" points="174.75,-801.46 184.99,-804.17 178.67,-795.66 174.75,-801.46"/>
</a>
</g>
</g>
<!-- Node11 -->
<g id="Node000011" class="node">
<title>Node11</title>
<g id="a_Node000011"><a xlink:href="classzero__mate_1_1coprocessor_1_1cp10_1_1CCP10.html#a8c8d7242a607176e4d1f58b1d622668d" target="_top" xlink:title="Executes a VCVT (double&#45;precision to single&#45;precision) instruction.">
<polygon fill="white" stroke="#666666" points="320,-616.5 183,-616.5 183,-564.5 320,-564.5 320,-616.5"/>
<text text-anchor="start" x="191" y="-604.5" font-family="Helvetica,sans-Serif" font-size="10.00">zero_mate::coprocessor</text>
<text text-anchor="start" x="191" y="-593.5" font-family="Helvetica,sans-Serif" font-size="10.00">::cp10::CCP10::Execute</text>
<text text-anchor="start" x="191" y="-582.5" font-family="Helvetica,sans-Serif" font-size="10.00">_VCVT_Double_Precision</text>
<text text-anchor="middle" x="251.5" y="-571.5" font-family="Helvetica,sans-Serif" font-size="10.00">_Single_Precision</text>
</a>
</g>
</g>
<!-- Node1&#45;&gt;Node11 -->
<g id="edge10_Node000001_Node000011" class="edge">
<title>Node1&#45;&gt;Node11</title>
<g id="a_edge10_Node000001_Node000011"><a xlink:title=" ">
<path fill="none" stroke="#63b8ff" d="M78.44,-433.18C94.81,-462.49 128.16,-516.35 169,-550.5 172.5,-553.42 176.24,-556.2 180.13,-558.81"/>
<polygon fill="#63b8ff" stroke="#63b8ff" points="178.53,-561.94 188.86,-564.3 182.26,-556.01 178.53,-561.94"/>
</a>
</g>
</g>
<!-- Node12 -->
<g id="Node000012" class="node">
<title>Node12</title>
<g id="a_Node000012"><a xlink:href="classzero__mate_1_1coprocessor_1_1cp10_1_1CCP10.html#ad824ae13f53109fd238a3f3bf0be77c8" target="_top" xlink:title="Executes a VCVT and VCVTR floating point instructions.">
<polygon fill="white" stroke="#666666" points="332,-686.5 171,-686.5 171,-634.5 332,-634.5 332,-686.5"/>
<text text-anchor="start" x="179" y="-674.5" font-family="Helvetica,sans-Serif" font-size="10.00">zero_mate::coprocessor</text>
<text text-anchor="start" x="179" y="-663.5" font-family="Helvetica,sans-Serif" font-size="10.00">::cp10::CCP10::Execute</text>
<text text-anchor="start" x="179" y="-652.5" font-family="Helvetica,sans-Serif" font-size="10.00">_VCVT_VCVTR_Floating_Point</text>
<text text-anchor="middle" x="251.5" y="-641.5" font-family="Helvetica,sans-Serif" font-size="10.00">_Integer</text>
</a>
</g>
</g>
<!-- Node1&#45;&gt;Node12 -->
<g id="edge11_Node000001_Node000012" class="edge">
<title>Node1&#45;&gt;Node12</title>
<g id="a_edge11_Node000001_Node000012"><a xlink:title=" ">
<path fill="none" stroke="#63b8ff" d="M72.16,-433.26C82.52,-475.04 111.28,-569.99 169,-625.5 169.94,-626.4 170.9,-627.28 171.89,-628.14"/>
<polygon fill="#63b8ff" stroke="#63b8ff" points="169.83,-630.97 179.88,-634.32 174.11,-625.43 169.83,-630.97"/>
</a>
</g>
</g>
<!-- Node15 -->
<g id="Node000015" class="node">
<title>Node15</title>
<g id="a_Node000015"><a xlink:href="classzero__mate_1_1coprocessor_1_1cp10_1_1CCP10.html#a459029468d45e1d459286fcdc1c3c40f" target="_top" xlink:title="Executes a VDIV floating point instruction.">
<polygon fill="white" stroke="#666666" points="330,-508.5 173,-508.5 173,-478.5 330,-478.5 330,-508.5"/>
<text text-anchor="start" x="181" y="-496.5" font-family="Helvetica,sans-Serif" font-size="10.00">zero_mate::coprocessor</text>
<text text-anchor="middle" x="251.5" y="-485.5" font-family="Helvetica,sans-Serif" font-size="10.00">::cp10::CCP10::Execute_VDIV</text>
</a>
</g>
</g>
<!-- Node1&#45;&gt;Node15 -->
<g id="edge14_Node000001_Node000015" class="edge">
<title>Node1&#45;&gt;Node15</title>
<g id="a_edge14_Node000001_Node000015"><a xlink:title=" ">
<path fill="none" stroke="#63b8ff" d="M100.92,-433.23C120.3,-444.67 145.47,-458.53 169,-468.5 174.41,-470.79 180.11,-472.98 185.87,-475.03"/>
<polygon fill="#63b8ff" stroke="#63b8ff" points="184.99,-478.43 195.58,-478.36 187.25,-471.81 184.99,-478.43"/>
</a>
</g>
</g>
<!-- Node16 -->
<g id="Node000016" class="node">
<title>Node16</title>
<g id="a_Node000016"><a xlink:href="classzero__mate_1_1coprocessor_1_1cp10_1_1CCP10.html#aec78a50a1ff14c14ed085a80191ca6c3" target="_top" xlink:title="Executes VMLA and VMLS floating point instructions.">
<polygon fill="white" stroke="#666666" points="318,-460 185,-460 185,-419 318,-419 318,-460"/>
<text text-anchor="start" x="193" y="-448" font-family="Helvetica,sans-Serif" font-size="10.00">zero_mate::coprocessor</text>
<text text-anchor="start" x="193" y="-437" font-family="Helvetica,sans-Serif" font-size="10.00">::cp10::CCP10::Execute</text>
<text text-anchor="middle" x="251.5" y="-426" font-family="Helvetica,sans-Serif" font-size="10.00">_VMLA_VMLS</text>
</a>
</g>
</g>
<!-- Node1&#45;&gt;Node16 -->
<g id="edge15_Node000001_Node000016" class="edge">
<title>Node1&#45;&gt;Node16</title>
<g id="a_edge15_Node000001_Node000016"><a xlink:title=" ">
<path fill="none" stroke="#63b8ff" d="M133.05,-422.17C146.58,-424.17 160.95,-426.29 174.81,-428.33"/>
<polygon fill="#63b8ff" stroke="#63b8ff" points="174.39,-431.81 184.79,-429.81 175.41,-424.88 174.39,-431.81"/>
</a>
</g>
</g>
<!-- Node17 -->
<g id="Node000017" class="node">
<title>Node17</title>
<g id="a_Node000017"><a xlink:href="classzero__mate_1_1coprocessor_1_1cp10_1_1CCP10.html#afa890dda0cd156b82462bb078d87e760" target="_top" xlink:title="Executes a VMOV floating point instruction.">
<polygon fill="white" stroke="#666666" points="333,-400.5 170,-400.5 170,-370.5 333,-370.5 333,-400.5"/>
<text text-anchor="start" x="178" y="-388.5" font-family="Helvetica,sans-Serif" font-size="10.00">zero_mate::coprocessor</text>
<text text-anchor="middle" x="251.5" y="-377.5" font-family="Helvetica,sans-Serif" font-size="10.00">::cp10::CCP10::Execute_VMOV</text>
</a>
</g>
</g>
<!-- Node1&#45;&gt;Node17 -->
<g id="edge16_Node000001_Node000017" class="edge">
<title>Node1&#45;&gt;Node17</title>
<g id="a_edge16_Node000001_Node000017"><a xlink:title=" ">
<path fill="none" stroke="#63b8ff" d="M133.05,-402.83C141.69,-401.55 150.67,-400.23 159.65,-398.9"/>
<polygon fill="#63b8ff" stroke="#63b8ff" points="160.37,-402.34 169.75,-397.41 159.35,-395.41 160.37,-402.34"/>
</a>
</g>
</g>
<!-- Node18 -->
<g id="Node000018" class="node">
<title>Node18</title>
<g id="a_Node000018"><a xlink:href="classzero__mate_1_1coprocessor_1_1cp10_1_1CCP10.html#a086d23f857f90771fc856d7086cec293" target="_top" xlink:title="Executes a VMUL floating point instruction.">
<polygon fill="white" stroke="#666666" points="332,-352.5 171,-352.5 171,-322.5 332,-322.5 332,-352.5"/>
<text text-anchor="start" x="179" y="-340.5" font-family="Helvetica,sans-Serif" font-size="10.00">zero_mate::coprocessor</text>
<text text-anchor="middle" x="251.5" y="-329.5" font-family="Helvetica,sans-Serif" font-size="10.00">::cp10::CCP10::Execute_VMUL</text>
</a>
</g>
</g>
<!-- Node1&#45;&gt;Node18 -->
<g id="edge17_Node000001_Node000018" class="edge">
<title>Node1&#45;&gt;Node18</title>
<g id="a_edge17_Node000001_Node000018"><a xlink:title=" ">
<path fill="none" stroke="#63b8ff" d="M104.36,-391.97C123.31,-381.94 146.99,-370.19 169,-361.5 174.06,-359.5 179.35,-357.58 184.71,-355.76"/>
<polygon fill="#63b8ff" stroke="#63b8ff" points="185.96,-359.03 194.37,-352.59 183.78,-352.38 185.96,-359.03"/>
</a>
</g>
</g>
<!-- Node19 -->
<g id="Node000019" class="node">
<title>Node19</title>
<g id="a_Node000019"><a xlink:href="classzero__mate_1_1coprocessor_1_1cp10_1_1CCP10.html#ab28b0d5642400307460b25383c7d1484" target="_top" xlink:title="Executes a VNEG floating point instruction.">
<polygon fill="white" stroke="#666666" points="332,-304.5 171,-304.5 171,-274.5 332,-274.5 332,-304.5"/>
<text text-anchor="start" x="179" y="-292.5" font-family="Helvetica,sans-Serif" font-size="10.00">zero_mate::coprocessor</text>
<text text-anchor="middle" x="251.5" y="-281.5" font-family="Helvetica,sans-Serif" font-size="10.00">::cp10::CCP10::Execute_VNEG</text>
</a>
</g>
</g>
<!-- Node1&#45;&gt;Node19 -->
<g id="edge18_Node000001_Node000019" class="edge">
<title>Node1&#45;&gt;Node19</title>
<g id="a_edge18_Node000001_Node000019"><a xlink:title=" ">
<path fill="none" stroke="#63b8ff" d="M83.57,-391.64C101.92,-369.22 133.95,-334.02 169,-313.5 172.02,-311.73 175.18,-310.09 178.43,-308.55"/>
<polygon fill="#63b8ff" stroke="#63b8ff" points="179.97,-311.7 187.77,-304.53 177.2,-305.27 179.97,-311.7"/>
</a>
</g>
</g>
<!-- Node20 -->
<g id="Node000020" class="node">
<title>Node20</title>
<g id="a_Node000020"><a xlink:href="classzero__mate_1_1coprocessor_1_1cp10_1_1CCP10.html#a021f5937f594c636f8368f100bb6f414" target="_top" xlink:title="Executes VNMLA, VNMLS, and VNMUL floating point instructions.">
<polygon fill="white" stroke="#666666" points="321,-256 182,-256 182,-215 321,-215 321,-256"/>
<text text-anchor="start" x="190" y="-244" font-family="Helvetica,sans-Serif" font-size="10.00">zero_mate::coprocessor</text>
<text text-anchor="start" x="190" y="-233" font-family="Helvetica,sans-Serif" font-size="10.00">::cp10::CCP10::Execute</text>
<text text-anchor="middle" x="251.5" y="-222" font-family="Helvetica,sans-Serif" font-size="10.00">_VNMLA_VNMLS_VNMUL</text>
</a>
</g>
</g>
<!-- Node1&#45;&gt;Node20 -->
<g id="edge19_Node000001_Node000020" class="edge">
<title>Node1&#45;&gt;Node20</title>
<g id="a_edge19_Node000001_Node000020"><a xlink:title=" ">
<path fill="none" stroke="#63b8ff" d="M76.61,-391.94C91.56,-360.45 124.15,-300.28 169,-265.5 170.84,-264.07 172.75,-262.71 174.73,-261.41"/>
<polygon fill="#63b8ff" stroke="#63b8ff" points="176.89,-264.19 183.7,-256.08 173.32,-258.17 176.89,-264.19"/>
</a>
</g>
</g>
<!-- Node21 -->
<g id="Node000021" class="node">
<title>Node21</title>
<g id="a_Node000021"><a xlink:href="classzero__mate_1_1coprocessor_1_1cp10_1_1CCP10.html#aa2f1e79742997b349b0014d6550a16b0" target="_top" xlink:title="Executes a VSQRT floating point instruction.">
<polygon fill="white" stroke="#666666" points="334,-196.5 169,-196.5 169,-166.5 334,-166.5 334,-196.5"/>
<text text-anchor="start" x="177" y="-184.5" font-family="Helvetica,sans-Serif" font-size="10.00">zero_mate::coprocessor</text>
<text text-anchor="middle" x="251.5" y="-173.5" font-family="Helvetica,sans-Serif" font-size="10.00">::cp10::CCP10::Execute_VSQRT</text>
</a>
</g>
</g>
<!-- Node1&#45;&gt;Node21 -->
<g id="edge20_Node000001_Node000021" class="edge">
<title>Node1&#45;&gt;Node21</title>
<g id="a_edge20_Node000001_Node000021"><a xlink:title=" ">
<path fill="none" stroke="#63b8ff" d="M71.8,-391.73C81.53,-350.07 109.18,-255.95 169,-205.5 170.52,-204.22 172.11,-203 173.75,-201.85"/>
<polygon fill="#63b8ff" stroke="#63b8ff" points="175.64,-204.8 182.38,-196.62 172.01,-198.82 175.64,-204.8"/>
</a>
</g>
</g>
<!-- Node22 -->
<g id="Node000022" class="node">
<title>Node22</title>
<g id="a_Node000022"><a xlink:href="classzero__mate_1_1coprocessor_1_1cp10_1_1CCP10.html#a6a54081b5426f55b309a71f3d7fa9754" target="_top" xlink:title="Executes a VSUB floating point instruction.">
<polygon fill="white" stroke="#666666" points="331.5,-148.5 171.5,-148.5 171.5,-118.5 331.5,-118.5 331.5,-148.5"/>
<text text-anchor="start" x="179.5" y="-136.5" font-family="Helvetica,sans-Serif" font-size="10.00">zero_mate::coprocessor</text>
<text text-anchor="middle" x="251.5" y="-125.5" font-family="Helvetica,sans-Serif" font-size="10.00">::cp10::CCP10::Execute_VSUB</text>
</a>
</g>
</g>
<!-- Node1&#45;&gt;Node22 -->
<g id="edge21_Node000001_Node000022" class="edge">
<title>Node1&#45;&gt;Node22</title>
<g id="a_edge21_Node000001_Node000022"><a xlink:title=" ">
<path fill="none" stroke="#63b8ff" d="M69.65,-391.9C75.8,-343.62 97.87,-222.34 169,-157.5 170.31,-156.3 171.68,-155.17 173.1,-154.09"/>
<polygon fill="#63b8ff" stroke="#63b8ff" points="175.21,-156.89 181.68,-148.5 171.39,-151.02 175.21,-156.89"/>
</a>
</g>
</g>
<!-- Node23 -->
<g id="Node000023" class="node">
<title>Node23</title>
<g id="a_Node000023"><a xlink:href="classzero__mate_1_1coprocessor_1_1cp10_1_1isa_1_1CCP__Data__Processing__Inst.html#a2cc04522678dbc4d71afc612e6db6f28" target="_top" xlink:title="Returns the type of the instruction.">
<polygon fill="white" stroke="#666666" points="326,-100 177,-100 177,-59 326,-59 326,-100"/>
<text text-anchor="start" x="185" y="-88" font-family="Helvetica,sans-Serif" font-size="10.00">zero_mate::coprocessor</text>
<text text-anchor="start" x="185" y="-77" font-family="Helvetica,sans-Serif" font-size="10.00">::cp10::isa::CCP_Data</text>
<text text-anchor="middle" x="251.5" y="-66" font-family="Helvetica,sans-Serif" font-size="10.00">_Processing_Inst::Get_Type</text>
</a>
</g>
</g>
<!-- Node1&#45;&gt;Node23 -->
<g id="edge22_Node000001_Node000023" class="edge">
<title>Node1&#45;&gt;Node23</title>
<g id="a_edge22_Node000001_Node000023"><a xlink:title=" ">
<path fill="none" stroke="#63b8ff" d="M68.49,-391.72C72.18,-337.73 89.39,-191.49 169,-109.5 170.08,-108.38 171.21,-107.31 172.38,-106.28"/>
<polygon fill="#63b8ff" stroke="#63b8ff" points="174.77,-108.85 180.6,-100.01 170.53,-103.28 174.77,-108.85"/>
</a>
</g>
</g>
<!-- Node24 -->
<g id="Node000024" class="node">
<title>Node24</title>
<g id="a_Node000024"><a xlink:href="classzero__mate_1_1coprocessor_1_1cp10_1_1CCP10.html#a42519c95eeada09e8b8f277f899f9185" target="_top" xlink:title="Checks whether the coprocessor is enabled or not.">
<polygon fill="white" stroke="#666666" points="318,-41 185,-41 185,0 318,0 318,-41"/>
<text text-anchor="start" x="193" y="-29" font-family="Helvetica,sans-Serif" font-size="10.00">zero_mate::coprocessor</text>
<text text-anchor="start" x="193" y="-18" font-family="Helvetica,sans-Serif" font-size="10.00">::cp10::CCP10::Is_FPU</text>
<text text-anchor="middle" x="251.5" y="-7" font-family="Helvetica,sans-Serif" font-size="10.00">_Enabled</text>
</a>
</g>
</g>
<!-- Node1&#45;&gt;Node24 -->
<g id="edge23_Node000001_Node000024" class="edge">
<title>Node1&#45;&gt;Node24</title>
<g id="a_edge23_Node000001_Node000024"><a xlink:title=" ">
<path fill="none" stroke="#63b8ff" d="M67.07,-391.72C66.97,-330.73 75.03,-150.21 169,-49.5 171.25,-47.08 173.72,-44.87 176.35,-42.84"/>
<polygon fill="#63b8ff" stroke="#63b8ff" points="178.3,-45.75 184.67,-37.28 174.41,-39.93 178.3,-45.75"/>
</a>
</g>
</g>
<!-- Node3 -->
<g id="Node000003" class="node">
<title>Node3</title>
<g id="a_Node000003"><a xlink:href="classzero__mate_1_1utils_1_1CLogging__System.html#a71ed11c796553cbe8fd99773406a1060" target="_top" xlink:title="Creates a formatted message to be logged.">
<polygon fill="white" stroke="#666666" points="709,-350 557,-350 557,-309 709,-309 709,-350"/>
<text text-anchor="start" x="565" y="-338" font-family="Helvetica,sans-Serif" font-size="10.00">zero_mate::utils::CLogging</text>
<text text-anchor="start" x="565" y="-327" font-family="Helvetica,sans-Serif" font-size="10.00">_System::Create_Formatted</text>
<text text-anchor="middle" x="633" y="-316" font-family="Helvetica,sans-Serif" font-size="10.00">_Log_Msg</text>
</a>
</g>
</g>
<!-- Node2&#45;&gt;Node3 -->
<g id="edge2_Node000002_Node000003" class="edge">
<title>Node2&#45;&gt;Node3</title>
<g id="a_edge2_Node000002_Node000003"><a xlink:title=" ">
<path fill="none" stroke="#63b8ff" d="M518.75,-313.02C527.94,-314.35 537.41,-315.73 546.78,-317.1"/>
<polygon fill="#63b8ff" stroke="#63b8ff" points="546.49,-320.59 556.89,-318.57 547.49,-313.66 546.49,-320.59"/>
</a>
</g>
</g>
<!-- Node6 -->
<g id="Node000006" class="node">
<title>Node6</title>
<g id="a_Node000006"><a xlink:href="classzero__mate_1_1utils_1_1CLogging__System.html#ad371c67ef65763966ccf9291002e86f3" target="_top" xlink:title="Extract the filename from a given location within the source files.">
<polygon fill="white" stroke="#666666" points="707.5,-290.5 558.5,-290.5 558.5,-260.5 707.5,-260.5 707.5,-290.5"/>
<text text-anchor="start" x="566.5" y="-278.5" font-family="Helvetica,sans-Serif" font-size="10.00">zero_mate::utils::CLogging</text>
<text text-anchor="middle" x="633" y="-267.5" font-family="Helvetica,sans-Serif" font-size="10.00">_System::Extract_Filename</text>
</a>
</g>
</g>
<!-- Node2&#45;&gt;Node6 -->
<g id="edge5_Node000002_Node000006" class="edge">
<title>Node2&#45;&gt;Node6</title>
<g id="a_edge5_Node000002_Node000006"><a xlink:title=" ">
<path fill="none" stroke="#63b8ff" d="M518.75,-291.98C528.41,-290.58 538.39,-289.12 548.23,-287.69"/>
<polygon fill="#63b8ff" stroke="#63b8ff" points="549.03,-291.11 558.42,-286.21 548.02,-284.19 549.03,-291.11"/>
</a>
</g>
</g>
<!-- Node4 -->
<g id="Node000004" class="node">
<title>Node4</title>
<g id="a_Node000004"><a xlink:href="classzero__mate_1_1utils_1_1CLogging__System.html#aa70c102c805079042ffea2a6f2a5ad64" target="_top" xlink:title="Formats a given timestamp.">
<polygon fill="white" stroke="#666666" points="905,-368.5 745,-368.5 745,-338.5 905,-338.5 905,-368.5"/>
<text text-anchor="start" x="753" y="-356.5" font-family="Helvetica,sans-Serif" font-size="10.00">zero_mate::utils::CLogging</text>
<text text-anchor="middle" x="825" y="-345.5" font-family="Helvetica,sans-Serif" font-size="10.00">_System::Format_Timestamp</text>
</a>
</g>
</g>
<!-- Node3&#45;&gt;Node4 -->
<g id="edge3_Node000003_Node000004" class="edge">
<title>Node3&#45;&gt;Node4</title>
<g id="a_edge3_Node000003_Node000004"><a xlink:title=" ">
<path fill="none" stroke="#63b8ff" d="M709.09,-338.99C717.52,-340.05 726.16,-341.14 734.74,-342.23"/>
<polygon fill="#63b8ff" stroke="#63b8ff" points="734.41,-345.71 744.77,-343.49 735.29,-338.77 734.41,-345.71"/>
</a>
</g>
</g>
<!-- Node5 -->
<g id="Node000005" class="node">
<title>Node5</title>
<g id="a_Node000005"><a xlink:href="classzero__mate_1_1utils_1_1CLogging__System.html#ae3ca637537dde05e0b9119145c840331" target="_top" xlink:title="Returns the current timestamp that will be used in a log message.">
<polygon fill="white" stroke="#666666" points="898,-320.5 752,-320.5 752,-290.5 898,-290.5 898,-320.5"/>
<text text-anchor="start" x="760" y="-308.5" font-family="Helvetica,sans-Serif" font-size="10.00">zero_mate::utils::CLogging</text>
<text text-anchor="middle" x="825" y="-297.5" font-family="Helvetica,sans-Serif" font-size="10.00">_System::Get_Timestamp</text>
</a>
</g>
</g>
<!-- Node3&#45;&gt;Node5 -->
<g id="edge4_Node000003_Node000005" class="edge">
<title>Node3&#45;&gt;Node5</title>
<g id="a_edge4_Node000003_Node000005"><a xlink:title=" ">
<path fill="none" stroke="#63b8ff" d="M709.09,-320.01C719.89,-318.65 731.05,-317.24 741.98,-315.86"/>
<polygon fill="#63b8ff" stroke="#63b8ff" points="742.45,-319.33 751.93,-314.6 741.57,-312.38 742.45,-319.33"/>
</a>
</g>
</g>
<!-- Node10 -->
<g id="Node000010" class="node">
<title>Node10</title>
<g id="a_Node000010"><a xlink:href="classzero__mate_1_1coprocessor_1_1cp10_1_1CFPSCR.html#a93a3f7ff894b184a01146047be25c3d5" target="_top" xlink:title="Sets a given flag in the register value.">
<polygon fill="white" stroke="#666666" points="514.5,-836.5 376.5,-836.5 376.5,-806.5 514.5,-806.5 514.5,-836.5"/>
<text text-anchor="start" x="384.5" y="-824.5" font-family="Helvetica,sans-Serif" font-size="10.00">zero_mate::coprocessor</text>
<text text-anchor="middle" x="445.5" y="-813.5" font-family="Helvetica,sans-Serif" font-size="10.00">::cp10::CFPSCR::Set_Flag</text>
</a>
</g>
</g>
<!-- Node9&#45;&gt;Node10 -->
<g id="edge9_Node000009_Node000010" class="edge">
<title>Node9&#45;&gt;Node10</title>
<g id="a_edge9_Node000009_Node000010"><a xlink:title=" ">
<path fill="none" stroke="#63b8ff" d="M318.04,-821.5C333.46,-821.5 350.04,-821.5 365.96,-821.5"/>
<polygon fill="#63b8ff" stroke="#63b8ff" points="366.31,-825 376.31,-821.5 366.31,-818 366.31,-825"/>
</a>
</g>
</g>
<!-- Node13 -->
<g id="Node000013" class="node">
<title>Node13</title>
<g id="a_Node000013"><a xlink:href="classzero__mate_1_1coprocessor_1_1cp10_1_1CCP10.html#ae202127183b1981232465e8d4dee2a07" target="_top" xlink:title="Converts (casts) a floating point value into an integer.">
<polygon fill="white" stroke="#666666" points="512,-651 379,-651 379,-610 512,-610 512,-651"/>
<text text-anchor="start" x="387" y="-639" font-family="Helvetica,sans-Serif" font-size="10.00">zero_mate::coprocessor</text>
<text text-anchor="start" x="387" y="-628" font-family="Helvetica,sans-Serif" font-size="10.00">::cp10::CCP10::Convert</text>
<text text-anchor="middle" x="445.5" y="-617" font-family="Helvetica,sans-Serif" font-size="10.00">_Float_To_Int</text>
</a>
</g>
</g>
<!-- Node12&#45;&gt;Node13 -->
<g id="edge12_Node000012_Node000013" class="edge">
<title>Node12&#45;&gt;Node13</title>
<g id="a_edge12_Node000012_Node000013"><a xlink:title=" ">
<path fill="none" stroke="#63b8ff" d="M332.26,-648.04C344.41,-646.14 356.92,-644.18 368.98,-642.3"/>
<polygon fill="#63b8ff" stroke="#63b8ff" points="369.65,-645.74 378.99,-640.74 368.57,-638.82 369.65,-645.74"/>
</a>
</g>
</g>
<!-- Node14 -->
<g id="Node000014" class="node">
<title>Node14</title>
<g id="a_Node000014"><a xlink:href="classzero__mate_1_1coprocessor_1_1cp10_1_1CCP10.html#aba83e81d43442cb7b7f01fb21a296d8c" target="_top" xlink:title="Converts (casts) an integer value into a floating point value.">
<polygon fill="white" stroke="#666666" points="512,-710 379,-710 379,-669 512,-669 512,-710"/>
<text text-anchor="start" x="387" y="-698" font-family="Helvetica,sans-Serif" font-size="10.00">zero_mate::coprocessor</text>
<text text-anchor="start" x="387" y="-687" font-family="Helvetica,sans-Serif" font-size="10.00">::cp10::CCP10::Convert</text>
<text text-anchor="middle" x="445.5" y="-676" font-family="Helvetica,sans-Serif" font-size="10.00">_Int_To_Float</text>
</a>
</g>
</g>
<!-- Node12&#45;&gt;Node14 -->
<g id="edge13_Node000012_Node000014" class="edge">
<title>Node12&#45;&gt;Node14</title>
<g id="a_edge13_Node000012_Node000014"><a xlink:title=" ">
<path fill="none" stroke="#63b8ff" d="M332.26,-672.55C344.41,-674.38 356.92,-676.27 368.98,-678.09"/>
<polygon fill="#63b8ff" stroke="#63b8ff" points="368.58,-681.57 378.99,-679.61 369.62,-674.65 368.58,-681.57"/>
</a>
</g>
</g>
<!-- Node24&#45;&gt;Node2 -->
<g id="edge24_Node000024_Node000002" class="edge">
<title>Node24&#45;&gt;Node2</title>
<g id="a_edge24_Node000024_Node000002"><a xlink:title=" ">
<path fill="none" stroke="#63b8ff" d="M318.06,-38.17C323.84,-41.35 329.28,-45.1 334,-49.5 402.42,-113.3 430.74,-226.88 440.34,-277.25"/>
<polygon fill="#63b8ff" stroke="#63b8ff" points="436.93,-278.05 442.16,-287.27 443.82,-276.8 436.93,-278.05"/>
</a>
</g>
</g>
<!-- Node25 -->
<g id="Node000025" class="node">
<title>Node25</title>
<g id="a_Node000025"><a xlink:href="classzero__mate_1_1coprocessor_1_1cp10_1_1CFPEXC.html#a1e9712b7b92c2a1ef3e09f00ada91cf9" target="_top" xlink:title="Checks whether a given flag is set or not.">
<polygon fill="white" stroke="#666666" points="521,-35.5 370,-35.5 370,-5.5 521,-5.5 521,-35.5"/>
<text text-anchor="start" x="378" y="-23.5" font-family="Helvetica,sans-Serif" font-size="10.00">zero_mate::coprocessor</text>
<text text-anchor="middle" x="445.5" y="-12.5" font-family="Helvetica,sans-Serif" font-size="10.00">::cp10::CFPEXC::Is_Flag_Set</text>
</a>
</g>
</g>
<!-- Node24&#45;&gt;Node25 -->
<g id="edge25_Node000024_Node000025" class="edge">
<title>Node24&#45;&gt;Node25</title>
<g id="a_edge25_Node000024_Node000025"><a xlink:title=" ">
<path fill="none" stroke="#63b8ff" d="M318.04,-20.5C331.41,-20.5 345.67,-20.5 359.61,-20.5"/>
<polygon fill="#63b8ff" stroke="#63b8ff" points="359.68,-24 369.68,-20.5 359.68,-17 359.68,-24"/>
</a>
</g>
</g>
</g>
</svg>
