<?xml version="1.0" encoding="UTF-8" standalone="no"?>
<!DOCTYPE svg PUBLIC "-//W3C//DTD SVG 1.1//EN"
 "http://www.w3.org/Graphics/SVG/1.1/DTD/svg11.dtd">
<!-- Generated by graphviz version 2.43.0 (0)
 -->
<!-- Title: zero_mate::arm1176jzf_s::CCPU_Core::Execute Pages: 1 -->
<svg width="912pt" height="384pt"
 viewBox="0.00 0.00 912.00 383.50" xmlns="http://www.w3.org/2000/svg" xmlns:xlink="http://www.w3.org/1999/xlink">
<g id="graph0" class="graph" transform="scale(1 1) rotate(0) translate(4 379.5)">
<title>zero_mate::arm1176jzf_s::CCPU_Core::Execute</title>
<!-- Node1 -->
<g id="Node000001" class="node">
<title>Node1</title>
<g id="a_Node000001"><a xlink:title="Executes a halfword data transfer instruction.">
<polygon fill="#999999" stroke="#666666" points="132,-141 0,-141 0,-111 132,-111 132,-141"/>
<text text-anchor="start" x="8" y="-129" font-family="Helvetica,sans-Serif" font-size="10.00">zero_mate::arm1176jzf</text>
<text text-anchor="middle" x="66" y="-118" font-family="Helvetica,sans-Serif" font-size="10.00">_s::CCPU_Core::Execute</text>
</a>
</g>
</g>
<!-- Node2 -->
<g id="Node000002" class="node">
<title>Node2</title>
<g id="a_Node000002"><a xlink:href="classzero__mate_1_1arm1176jzf__s_1_1CCPU__Core.html#ab8055407426b0f25544d2b33a89b22a7" target="_top" xlink:title="Calculates the offset from the base address in a single data transfer instruction.">
<polygon fill="white" stroke="#666666" points="326,-252 180,-252 180,-222 326,-222 326,-252"/>
<text text-anchor="start" x="188" y="-240" font-family="Helvetica,sans-Serif" font-size="10.00">zero_mate::arm1176jzf</text>
<text text-anchor="middle" x="253" y="-229" font-family="Helvetica,sans-Serif" font-size="10.00">_s::CCPU_Core::Get_Offset</text>
</a>
</g>
</g>
<!-- Node1&#45;&gt;Node2 -->
<g id="edge1_Node000001_Node000002" class="edge">
<title>Node1&#45;&gt;Node2</title>
<g id="a_edge1_Node000001_Node000002"><a xlink:title=" ">
<path fill="none" stroke="#63b8ff" d="M92.34,-141.2C125,-160.8 181.89,-194.93 218.21,-216.72"/>
<polygon fill="#63b8ff" stroke="#63b8ff" points="216.59,-219.84 226.97,-221.98 220.2,-213.84 216.59,-219.84"/>
</a>
</g>
</g>
<!-- Node7 -->
<g id="Node000007" class="node">
<title>Node7</title>
<g id="a_Node000007"><a xlink:href="classzero__mate_1_1arm1176jzf__s_1_1CCPU__Core.html#a066aca0627655bc1e068b181fb0964bd" target="_top" xlink:title="Performs a halfword data read from a given address.">
<polygon fill="white" stroke="#666666" points="337,-146.5 169,-146.5 169,-105.5 337,-105.5 337,-146.5"/>
<text text-anchor="start" x="177" y="-134.5" font-family="Helvetica,sans-Serif" font-size="10.00">zero_mate::arm1176jzf</text>
<text text-anchor="start" x="177" y="-123.5" font-family="Helvetica,sans-Serif" font-size="10.00">_s::CCPU_Core::Perform</text>
<text text-anchor="middle" x="253" y="-112.5" font-family="Helvetica,sans-Serif" font-size="10.00">_Halfword_Data_Transfer_Read</text>
</a>
</g>
</g>
<!-- Node1&#45;&gt;Node7 -->
<g id="edge6_Node000001_Node000007" class="edge">
<title>Node1&#45;&gt;Node7</title>
<g id="a_edge6_Node000001_Node000007"><a xlink:title=" ">
<path fill="none" stroke="#63b8ff" d="M132.22,-126C140.84,-126 149.8,-126 158.78,-126"/>
<polygon fill="#63b8ff" stroke="#63b8ff" points="158.89,-129.5 168.89,-126 158.89,-122.5 158.89,-129.5"/>
</a>
</g>
</g>
<!-- Node10 -->
<g id="Node000010" class="node">
<title>Node10</title>
<g id="a_Node000010"><a xlink:href="classzero__mate_1_1arm1176jzf__s_1_1CCPU__Core.html#a00f4cf1169d774a50886f60f5f166f8b" target="_top" xlink:title="Performs a halfword data write to a given address.">
<polygon fill="white" stroke="#666666" points="338,-87.5 168,-87.5 168,-46.5 338,-46.5 338,-87.5"/>
<text text-anchor="start" x="176" y="-75.5" font-family="Helvetica,sans-Serif" font-size="10.00">zero_mate::arm1176jzf</text>
<text text-anchor="start" x="176" y="-64.5" font-family="Helvetica,sans-Serif" font-size="10.00">_s::CCPU_Core::Perform</text>
<text text-anchor="middle" x="253" y="-53.5" font-family="Helvetica,sans-Serif" font-size="10.00">_Halfword_Data_Transfer_Write</text>
</a>
</g>
</g>
<!-- Node1&#45;&gt;Node10 -->
<g id="edge9_Node000001_Node000010" class="edge">
<title>Node1&#45;&gt;Node10</title>
<g id="a_edge9_Node000001_Node000010"><a xlink:title=" ">
<path fill="none" stroke="#63b8ff" d="M114.16,-110.96C133.47,-104.8 156.28,-97.53 177.73,-90.69"/>
<polygon fill="#63b8ff" stroke="#63b8ff" points="179.01,-93.95 187.47,-87.58 176.88,-87.28 179.01,-93.95"/>
</a>
</g>
</g>
<!-- Node3 -->
<g id="Node000003" class="node">
<title>Node3</title>
<g id="a_Node000003"><a xlink:href="classzero__mate_1_1arm1176jzf__s_1_1isa_1_1CData__Processing.html#a73d5c3a98f3fe036a1348d4d7485d0e9" target="_top" xlink:title="Returns the index of the second operand register (Rm).">
<polygon fill="white" stroke="#666666" points="517.5,-375.5 376.5,-375.5 376.5,-334.5 517.5,-334.5 517.5,-375.5"/>
<text text-anchor="start" x="384.5" y="-363.5" font-family="Helvetica,sans-Serif" font-size="10.00">zero_mate::arm1176jzf</text>
<text text-anchor="start" x="384.5" y="-352.5" font-family="Helvetica,sans-Serif" font-size="10.00">_s::isa::CData_Processing</text>
<text text-anchor="middle" x="447" y="-341.5" font-family="Helvetica,sans-Serif" font-size="10.00">::Get_Rm_Idx</text>
</a>
</g>
</g>
<!-- Node2&#45;&gt;Node3 -->
<g id="edge2_Node000002_Node000003" class="edge">
<title>Node2&#45;&gt;Node3</title>
<g id="a_edge2_Node000002_Node000003"><a xlink:title=" ">
<path fill="none" stroke="#63b8ff" d="M271.32,-252.09C293.81,-271.14 334.85,-304.07 374,-326 376.48,-327.39 379.04,-328.75 381.65,-330.07"/>
<polygon fill="#63b8ff" stroke="#63b8ff" points="380.15,-333.23 390.67,-334.41 383.18,-326.92 380.15,-333.23"/>
</a>
</g>
</g>
<!-- Node4 -->
<g id="Node000004" class="node">
<title>Node4</title>
<g id="a_Node000004"><a xlink:href="classzero__mate_1_1arm1176jzf__s_1_1isa_1_1CData__Processing.html#ae851afadd74822ec9363797ab332f45a" target="_top" xlink:title="Returns the shift amount used when constructing the second operand (immediate second operand).">
<polygon fill="white" stroke="#666666" points="517.5,-316.5 376.5,-316.5 376.5,-275.5 517.5,-275.5 517.5,-316.5"/>
<text text-anchor="start" x="384.5" y="-304.5" font-family="Helvetica,sans-Serif" font-size="10.00">zero_mate::arm1176jzf</text>
<text text-anchor="start" x="384.5" y="-293.5" font-family="Helvetica,sans-Serif" font-size="10.00">_s::isa::CData_Processing</text>
<text text-anchor="middle" x="447" y="-282.5" font-family="Helvetica,sans-Serif" font-size="10.00">::Get_Shift_Amount</text>
</a>
</g>
</g>
<!-- Node2&#45;&gt;Node4 -->
<g id="edge3_Node000002_Node000004" class="edge">
<title>Node2&#45;&gt;Node4</title>
<g id="a_edge3_Node000002_Node000004"><a xlink:title=" ">
<path fill="none" stroke="#63b8ff" d="M302.95,-252.04C323.08,-258.23 346.87,-265.54 369.22,-272.41"/>
<polygon fill="#63b8ff" stroke="#63b8ff" points="368.45,-275.83 379.03,-275.42 370.5,-269.14 368.45,-275.83"/>
</a>
</g>
</g>
<!-- Node5 -->
<g id="Node000005" class="node">
<title>Node5</title>
<g id="a_Node000005"><a xlink:href="classzero__mate_1_1arm1176jzf__s_1_1isa_1_1CData__Processing.html#ae43548d291eecc463c519086e7527ff2" target="_top" xlink:title="Returns the shift type used when constructing the second operand.">
<polygon fill="white" stroke="#666666" points="517.5,-257.5 376.5,-257.5 376.5,-216.5 517.5,-216.5 517.5,-257.5"/>
<text text-anchor="start" x="384.5" y="-245.5" font-family="Helvetica,sans-Serif" font-size="10.00">zero_mate::arm1176jzf</text>
<text text-anchor="start" x="384.5" y="-234.5" font-family="Helvetica,sans-Serif" font-size="10.00">_s::isa::CData_Processing</text>
<text text-anchor="middle" x="447" y="-223.5" font-family="Helvetica,sans-Serif" font-size="10.00">::Get_Shift_Type</text>
</a>
</g>
</g>
<!-- Node2&#45;&gt;Node5 -->
<g id="edge4_Node000002_Node000005" class="edge">
<title>Node2&#45;&gt;Node5</title>
<g id="a_edge4_Node000002_Node000005"><a xlink:title=" ">
<path fill="none" stroke="#63b8ff" d="M326.04,-237C339.18,-237 352.97,-237 366.32,-237"/>
<polygon fill="#63b8ff" stroke="#63b8ff" points="366.42,-240.5 376.42,-237 366.42,-233.5 366.42,-240.5"/>
</a>
</g>
</g>
<!-- Node6 -->
<g id="Node000006" class="node">
<title>Node6</title>
<g id="a_Node000006"><a xlink:href="classzero__mate_1_1arm1176jzf__s_1_1isa_1_1CData__Processing.html#a1dc73c441b156452b1467eaa5cab46f5" target="_top" xlink:title="Returns the value of the I bit (bit 25 = immediate second operand).">
<polygon fill="white" stroke="#666666" points="517.5,-198.5 376.5,-198.5 376.5,-157.5 517.5,-157.5 517.5,-198.5"/>
<text text-anchor="start" x="384.5" y="-186.5" font-family="Helvetica,sans-Serif" font-size="10.00">zero_mate::arm1176jzf</text>
<text text-anchor="start" x="384.5" y="-175.5" font-family="Helvetica,sans-Serif" font-size="10.00">_s::isa::CData_Processing</text>
<text text-anchor="middle" x="447" y="-164.5" font-family="Helvetica,sans-Serif" font-size="10.00">::Is_I_Bit_Set</text>
</a>
</g>
</g>
<!-- Node2&#45;&gt;Node6 -->
<g id="edge5_Node000002_Node000006" class="edge">
<title>Node2&#45;&gt;Node6</title>
<g id="a_edge5_Node000002_Node000006"><a xlink:title=" ">
<path fill="none" stroke="#63b8ff" d="M302.95,-221.96C323.08,-215.77 346.87,-208.46 369.22,-201.59"/>
<polygon fill="#63b8ff" stroke="#63b8ff" points="370.5,-204.86 379.03,-198.58 368.45,-198.17 370.5,-204.86"/>
</a>
</g>
</g>
<!-- Node8 -->
<g id="Node000008" class="node">
<title>Node8</title>
<g id="a_Node000008"><a xlink:href="namespacezero__mate_1_1utils_1_1math.html#afda20fa50949a9cd3a80f811b0085221" target="_top" xlink:title="Sign&#45;extends the given integral value.">
<polygon fill="white" stroke="#666666" points="510.5,-139 383.5,-139 383.5,-109 510.5,-109 510.5,-139"/>
<text text-anchor="start" x="391.5" y="-127" font-family="Helvetica,sans-Serif" font-size="10.00">zero_mate::utils::math</text>
<text text-anchor="middle" x="447" y="-116" font-family="Helvetica,sans-Serif" font-size="10.00">::Sign_Extend_Value</text>
</a>
</g>
</g>
<!-- Node7&#45;&gt;Node8 -->
<g id="edge7_Node000007_Node000008" class="edge">
<title>Node7&#45;&gt;Node8</title>
<g id="a_edge7_Node000007_Node000008"><a xlink:title=" ">
<path fill="none" stroke="#63b8ff" d="M337.1,-125.13C349.09,-125.01 361.36,-124.88 373.13,-124.76"/>
<polygon fill="#63b8ff" stroke="#63b8ff" points="373.37,-128.26 383.33,-124.65 373.29,-121.26 373.37,-128.26"/>
</a>
</g>
</g>
<!-- Node9 -->
<g id="Node000009" class="node">
<title>Node9</title>
<g id="a_Node000009"><a xlink:href="namespacezero__mate_1_1utils_1_1math.html#af7d93c996dab2ff1b91c5a399dcfe29f" target="_top" xlink:title="Tests whether a bit is set in the given integral variable.">
<polygon fill="white" stroke="#666666" points="695.5,-139 568.5,-139 568.5,-109 695.5,-109 695.5,-139"/>
<text text-anchor="start" x="576.5" y="-127" font-family="Helvetica,sans-Serif" font-size="10.00">zero_mate::utils::math</text>
<text text-anchor="middle" x="632" y="-116" font-family="Helvetica,sans-Serif" font-size="10.00">::Is_Bit_Set</text>
</a>
</g>
</g>
<!-- Node8&#45;&gt;Node9 -->
<g id="edge8_Node000008_Node000009" class="edge">
<title>Node8&#45;&gt;Node9</title>
<g id="a_edge8_Node000008_Node000009"><a xlink:title=" ">
<path fill="none" stroke="#63b8ff" d="M510.72,-124C526,-124 542.47,-124 558.17,-124"/>
<polygon fill="#63b8ff" stroke="#63b8ff" points="558.36,-127.5 568.36,-124 558.36,-120.5 558.36,-127.5"/>
</a>
</g>
</g>
<!-- Node11 -->
<g id="Node000011" class="node">
<title>Node11</title>
<g id="a_Node000011"><a xlink:href="classzero__mate_1_1utils_1_1CLogging__System.html#a2bb4d37b178f29335f726875bad91bd4" target="_top" xlink:title="Logs a warning message via all registered loggers.">
<polygon fill="white" stroke="#666666" points="520,-82 374,-82 374,-52 520,-52 520,-82"/>
<text text-anchor="start" x="382" y="-70" font-family="Helvetica,sans-Serif" font-size="10.00">zero_mate::utils::CLogging</text>
<text text-anchor="middle" x="447" y="-59" font-family="Helvetica,sans-Serif" font-size="10.00">_System::Warning</text>
</a>
</g>
</g>
<!-- Node10&#45;&gt;Node11 -->
<g id="edge10_Node000010_Node000011" class="edge">
<title>Node10&#45;&gt;Node11</title>
<g id="a_edge10_Node000010_Node000011"><a xlink:title=" ">
<path fill="none" stroke="#63b8ff" d="M338.21,-67C346.67,-67 355.24,-67 363.68,-67"/>
<polygon fill="#63b8ff" stroke="#63b8ff" points="363.87,-70.5 373.87,-67 363.87,-63.5 363.87,-70.5"/>
</a>
</g>
</g>
<!-- Node12 -->
<g id="Node000012" class="node">
<title>Node12</title>
<g id="a_Node000012"><a xlink:href="classzero__mate_1_1utils_1_1CLogging__System.html#a71ed11c796553cbe8fd99773406a1060" target="_top" xlink:title="Creates a formatted message to be logged.">
<polygon fill="white" stroke="#666666" points="708,-89.5 556,-89.5 556,-48.5 708,-48.5 708,-89.5"/>
<text text-anchor="start" x="564" y="-77.5" font-family="Helvetica,sans-Serif" font-size="10.00">zero_mate::utils::CLogging</text>
<text text-anchor="start" x="564" y="-66.5" font-family="Helvetica,sans-Serif" font-size="10.00">_System::Create_Formatted</text>
<text text-anchor="middle" x="632" y="-55.5" font-family="Helvetica,sans-Serif" font-size="10.00">_Log_Msg</text>
</a>
</g>
</g>
<!-- Node11&#45;&gt;Node12 -->
<g id="edge11_Node000011_Node000012" class="edge">
<title>Node11&#45;&gt;Node12</title>
<g id="a_edge11_Node000011_Node000012"><a xlink:title=" ">
<path fill="none" stroke="#63b8ff" d="M520.06,-67.79C528.55,-67.88 537.26,-67.98 545.9,-68.07"/>
<polygon fill="#63b8ff" stroke="#63b8ff" points="545.95,-71.57 555.99,-68.18 546.03,-64.57 545.95,-71.57"/>
</a>
</g>
</g>
<!-- Node15 -->
<g id="Node000015" class="node">
<title>Node15</title>
<g id="a_Node000015"><a xlink:href="classzero__mate_1_1utils_1_1CLogging__System.html#ad371c67ef65763966ccf9291002e86f3" target="_top" xlink:title="Extract the filename from a given location within the source files.">
<polygon fill="white" stroke="#666666" points="706.5,-30 557.5,-30 557.5,0 706.5,0 706.5,-30"/>
<text text-anchor="start" x="565.5" y="-18" font-family="Helvetica,sans-Serif" font-size="10.00">zero_mate::utils::CLogging</text>
<text text-anchor="middle" x="632" y="-7" font-family="Helvetica,sans-Serif" font-size="10.00">_System::Extract_Filename</text>
</a>
</g>
</g>
<!-- Node11&#45;&gt;Node15 -->
<g id="edge14_Node000011_Node000015" class="edge">
<title>Node11&#45;&gt;Node15</title>
<g id="a_edge14_Node000011_Node000015"><a xlink:title=" ">
<path fill="none" stroke="#63b8ff" d="M500.93,-51.96C521.99,-45.98 546.37,-39.05 568.31,-32.81"/>
<polygon fill="#63b8ff" stroke="#63b8ff" points="569.53,-36.11 578.19,-30.01 567.61,-29.37 569.53,-36.11"/>
</a>
</g>
</g>
<!-- Node13 -->
<g id="Node000013" class="node">
<title>Node13</title>
<g id="a_Node000013"><a xlink:href="classzero__mate_1_1utils_1_1CLogging__System.html#aa70c102c805079042ffea2a6f2a5ad64" target="_top" xlink:title="Formats a given timestamp.">
<polygon fill="white" stroke="#666666" points="904,-108 744,-108 744,-78 904,-78 904,-108"/>
<text text-anchor="start" x="752" y="-96" font-family="Helvetica,sans-Serif" font-size="10.00">zero_mate::utils::CLogging</text>
<text text-anchor="middle" x="824" y="-85" font-family="Helvetica,sans-Serif" font-size="10.00">_System::Format_Timestamp</text>
</a>
</g>
</g>
<!-- Node12&#45;&gt;Node13 -->
<g id="edge12_Node000012_Node000013" class="edge">
<title>Node12&#45;&gt;Node13</title>
<g id="a_edge12_Node000012_Node000013"><a xlink:title=" ">
<path fill="none" stroke="#63b8ff" d="M708.09,-78.49C716.52,-79.55 725.16,-80.64 733.74,-81.73"/>
<polygon fill="#63b8ff" stroke="#63b8ff" points="733.41,-85.21 743.77,-82.99 734.29,-78.27 733.41,-85.21"/>
</a>
</g>
</g>
<!-- Node14 -->
<g id="Node000014" class="node">
<title>Node14</title>
<g id="a_Node000014"><a xlink:href="classzero__mate_1_1utils_1_1CLogging__System.html#ae3ca637537dde05e0b9119145c840331" target="_top" xlink:title="Returns the current timestamp that will be used in a log message.">
<polygon fill="white" stroke="#666666" points="897,-60 751,-60 751,-30 897,-30 897,-60"/>
<text text-anchor="start" x="759" y="-48" font-family="Helvetica,sans-Serif" font-size="10.00">zero_mate::utils::CLogging</text>
<text text-anchor="middle" x="824" y="-37" font-family="Helvetica,sans-Serif" font-size="10.00">_System::Get_Timestamp</text>
</a>
</g>
</g>
<!-- Node12&#45;&gt;Node14 -->
<g id="edge13_Node000012_Node000014" class="edge">
<title>Node12&#45;&gt;Node14</title>
<g id="a_edge13_Node000012_Node000014"><a xlink:title=" ">
<path fill="none" stroke="#63b8ff" d="M708.09,-59.51C718.89,-58.15 730.05,-56.74 740.98,-55.36"/>
<polygon fill="#63b8ff" stroke="#63b8ff" points="741.45,-58.83 750.93,-54.1 740.57,-51.88 741.45,-58.83"/>
</a>
</g>
</g>
</g>
</svg>
