<?xml version="1.0" encoding="UTF-8" standalone="no"?>
<!DOCTYPE svg PUBLIC "-//W3C//DTD SVG 1.1//EN"
 "http://www.w3.org/Graphics/SVG/1.1/DTD/svg11.dtd">
<!-- Generated by graphviz version 2.43.0 (0)
 -->
<!-- Title: zero_mate::arm1176jzf_s::CCPU_Core::Checks_Coprocessor_Access_Mode Pages: 1 -->
<svg width="727pt" height="176pt"
 viewBox="0.00 0.00 727.00 175.50" xmlns="http://www.w3.org/2000/svg" xmlns:xlink="http://www.w3.org/1999/xlink">
<g id="graph0" class="graph" transform="scale(1 1) rotate(0) translate(4 171.5)">
<title>zero_mate::arm1176jzf_s::CCPU_Core::Checks_Coprocessor_Access_Mode</title>
<!-- Node1 -->
<g id="Node000001" class="node">
<title>Node1</title>
<g id="a_Node000001"><a xlink:title="Checks whether a given coprocessor can be accessed from the current CPU mode.">
<polygon fill="#999999" stroke="#666666" points="153,-68 0,-68 0,-27 153,-27 153,-68"/>
<text text-anchor="start" x="8" y="-56" font-family="Helvetica,sans-Serif" font-size="10.00">zero_mate::arm1176jzf</text>
<text text-anchor="start" x="8" y="-45" font-family="Helvetica,sans-Serif" font-size="10.00">_s::CCPU_Core::Checks</text>
<text text-anchor="middle" x="76.5" y="-34" font-family="Helvetica,sans-Serif" font-size="10.00">_Coprocessor_Access_Mode</text>
</a>
</g>
</g>
<!-- Node2 -->
<g id="Node000002" class="node">
<title>Node2</title>
<g id="a_Node000002"><a xlink:href="classzero__mate_1_1utils_1_1CLogging__System.html#a57ed77e1a5cf822cea532cc5e05c3f60" target="_top" xlink:title="Logs an error message via all registered loggers.">
<polygon fill="white" stroke="#666666" points="335,-89.5 189,-89.5 189,-59.5 335,-59.5 335,-89.5"/>
<text text-anchor="start" x="197" y="-77.5" font-family="Helvetica,sans-Serif" font-size="10.00">zero_mate::utils::CLogging</text>
<text text-anchor="middle" x="262" y="-66.5" font-family="Helvetica,sans-Serif" font-size="10.00">_System::Error</text>
</a>
</g>
</g>
<!-- Node1&#45;&gt;Node2 -->
<g id="edge1_Node000001_Node000002" class="edge">
<title>Node1&#45;&gt;Node2</title>
<g id="a_edge1_Node000001_Node000002"><a xlink:title=" ">
<path fill="none" stroke="#63b8ff" d="M153.2,-58.64C161.64,-59.88 170.27,-61.15 178.79,-62.4"/>
<polygon fill="#63b8ff" stroke="#63b8ff" points="178.32,-65.87 188.72,-63.87 179.34,-58.95 178.32,-65.87"/>
</a>
</g>
</g>
<!-- Node7 -->
<g id="Node000007" class="node">
<title>Node7</title>
<g id="a_Node000007"><a xlink:href="classzero__mate_1_1arm1176jzf__s_1_1CCPU__Context.html#a573470217091c27cf30f1411ea453e5d" target="_top" xlink:title="Checks if the CPU is in a privileged mode.">
<polygon fill="white" stroke="#666666" points="327,-41 197,-41 197,0 327,0 327,-41"/>
<text text-anchor="start" x="205" y="-29" font-family="Helvetica,sans-Serif" font-size="10.00">zero_mate::arm1176jzf</text>
<text text-anchor="start" x="205" y="-18" font-family="Helvetica,sans-Serif" font-size="10.00">_s::CCPU_Context::Is</text>
<text text-anchor="middle" x="262" y="-7" font-family="Helvetica,sans-Serif" font-size="10.00">_In_Privileged_Mode</text>
</a>
</g>
</g>
<!-- Node1&#45;&gt;Node7 -->
<g id="edge6_Node000001_Node000007" class="edge">
<title>Node1&#45;&gt;Node7</title>
<g id="a_edge6_Node000001_Node000007"><a xlink:title=" ">
<path fill="none" stroke="#63b8ff" d="M153.2,-36.36C164.31,-34.73 175.74,-33.04 186.82,-31.41"/>
<polygon fill="#63b8ff" stroke="#63b8ff" points="187.5,-34.85 196.88,-29.93 186.48,-27.93 187.5,-34.85"/>
</a>
</g>
</g>
<!-- Node3 -->
<g id="Node000003" class="node">
<title>Node3</title>
<g id="a_Node000003"><a xlink:href="classzero__mate_1_1utils_1_1CLogging__System.html#a71ed11c796553cbe8fd99773406a1060" target="_top" xlink:title="Creates a formatted message to be logged.">
<polygon fill="white" stroke="#666666" points="523,-149 371,-149 371,-108 523,-108 523,-149"/>
<text text-anchor="start" x="379" y="-137" font-family="Helvetica,sans-Serif" font-size="10.00">zero_mate::utils::CLogging</text>
<text text-anchor="start" x="379" y="-126" font-family="Helvetica,sans-Serif" font-size="10.00">_System::Create_Formatted</text>
<text text-anchor="middle" x="447" y="-115" font-family="Helvetica,sans-Serif" font-size="10.00">_Log_Msg</text>
</a>
</g>
</g>
<!-- Node2&#45;&gt;Node3 -->
<g id="edge2_Node000002_Node000003" class="edge">
<title>Node2&#45;&gt;Node3</title>
<g id="a_edge2_Node000002_Node000003"><a xlink:title=" ">
<path fill="none" stroke="#63b8ff" d="M313.98,-89.54C330.31,-94.36 348.79,-99.82 366.65,-105.09"/>
<polygon fill="#63b8ff" stroke="#63b8ff" points="365.91,-108.52 376.49,-107.99 367.89,-101.8 365.91,-108.52"/>
</a>
</g>
</g>
<!-- Node6 -->
<g id="Node000006" class="node">
<title>Node6</title>
<g id="a_Node000006"><a xlink:href="classzero__mate_1_1utils_1_1CLogging__System.html#ad371c67ef65763966ccf9291002e86f3" target="_top" xlink:title="Extract the filename from a given location within the source files.">
<polygon fill="white" stroke="#666666" points="521.5,-89.5 372.5,-89.5 372.5,-59.5 521.5,-59.5 521.5,-89.5"/>
<text text-anchor="start" x="380.5" y="-77.5" font-family="Helvetica,sans-Serif" font-size="10.00">zero_mate::utils::CLogging</text>
<text text-anchor="middle" x="447" y="-66.5" font-family="Helvetica,sans-Serif" font-size="10.00">_System::Extract_Filename</text>
</a>
</g>
</g>
<!-- Node2&#45;&gt;Node6 -->
<g id="edge5_Node000002_Node000006" class="edge">
<title>Node2&#45;&gt;Node6</title>
<g id="a_edge5_Node000002_Node000006"><a xlink:title=" ">
<path fill="none" stroke="#63b8ff" d="M335.06,-74.5C344,-74.5 353.2,-74.5 362.29,-74.5"/>
<polygon fill="#63b8ff" stroke="#63b8ff" points="362.5,-78 372.5,-74.5 362.5,-71 362.5,-78"/>
</a>
</g>
</g>
<!-- Node4 -->
<g id="Node000004" class="node">
<title>Node4</title>
<g id="a_Node000004"><a xlink:href="classzero__mate_1_1utils_1_1CLogging__System.html#aa70c102c805079042ffea2a6f2a5ad64" target="_top" xlink:title="Formats a given timestamp.">
<polygon fill="white" stroke="#666666" points="719,-167.5 559,-167.5 559,-137.5 719,-137.5 719,-167.5"/>
<text text-anchor="start" x="567" y="-155.5" font-family="Helvetica,sans-Serif" font-size="10.00">zero_mate::utils::CLogging</text>
<text text-anchor="middle" x="639" y="-144.5" font-family="Helvetica,sans-Serif" font-size="10.00">_System::Format_Timestamp</text>
</a>
</g>
</g>
<!-- Node3&#45;&gt;Node4 -->
<g id="edge3_Node000003_Node000004" class="edge">
<title>Node3&#45;&gt;Node4</title>
<g id="a_edge3_Node000003_Node000004"><a xlink:title=" ">
<path fill="none" stroke="#63b8ff" d="M523.09,-137.99C531.52,-139.05 540.16,-140.14 548.74,-141.23"/>
<polygon fill="#63b8ff" stroke="#63b8ff" points="548.41,-144.71 558.77,-142.49 549.29,-137.77 548.41,-144.71"/>
</a>
</g>
</g>
<!-- Node5 -->
<g id="Node000005" class="node">
<title>Node5</title>
<g id="a_Node000005"><a xlink:href="classzero__mate_1_1utils_1_1CLogging__System.html#ae3ca637537dde05e0b9119145c840331" target="_top" xlink:title="Returns the current timestamp that will be used in a log message.">
<polygon fill="white" stroke="#666666" points="712,-119.5 566,-119.5 566,-89.5 712,-89.5 712,-119.5"/>
<text text-anchor="start" x="574" y="-107.5" font-family="Helvetica,sans-Serif" font-size="10.00">zero_mate::utils::CLogging</text>
<text text-anchor="middle" x="639" y="-96.5" font-family="Helvetica,sans-Serif" font-size="10.00">_System::Get_Timestamp</text>
</a>
</g>
</g>
<!-- Node3&#45;&gt;Node5 -->
<g id="edge4_Node000003_Node000005" class="edge">
<title>Node3&#45;&gt;Node5</title>
<g id="a_edge4_Node000003_Node000005"><a xlink:title=" ">
<path fill="none" stroke="#63b8ff" d="M523.09,-119.01C533.89,-117.65 545.05,-116.24 555.98,-114.86"/>
<polygon fill="#63b8ff" stroke="#63b8ff" points="556.45,-118.33 565.93,-113.6 555.57,-111.38 556.45,-118.33"/>
</a>
</g>
</g>
<!-- Node8 -->
<g id="Node000008" class="node">
<title>Node8</title>
<g id="a_Node000008"><a xlink:href="classzero__mate_1_1arm1176jzf__s_1_1CCPU__Context.html#aa740f9219bb413d707ac72f373e60d3a" target="_top" xlink:title="Returns the current mode of the CPU.">
<polygon fill="white" stroke="#666666" points="512,-41 382,-41 382,0 512,0 512,-41"/>
<text text-anchor="start" x="390" y="-29" font-family="Helvetica,sans-Serif" font-size="10.00">zero_mate::arm1176jzf</text>
<text text-anchor="start" x="390" y="-18" font-family="Helvetica,sans-Serif" font-size="10.00">_s::CCPU_Context::Get</text>
<text text-anchor="middle" x="447" y="-7" font-family="Helvetica,sans-Serif" font-size="10.00">_CPU_Mode</text>
</a>
</g>
</g>
<!-- Node7&#45;&gt;Node8 -->
<g id="edge7_Node000007_Node000008" class="edge">
<title>Node7&#45;&gt;Node8</title>
<g id="a_edge7_Node000007_Node000008"><a xlink:title=" ">
<path fill="none" stroke="#63b8ff" d="M327,-20.5C341.41,-20.5 356.81,-20.5 371.6,-20.5"/>
<polygon fill="#63b8ff" stroke="#63b8ff" points="371.72,-24 381.72,-20.5 371.72,-17 371.72,-24"/>
</a>
</g>
</g>
</g>
</svg>
