<?xml version="1.0" encoding="UTF-8" standalone="no"?>
<!DOCTYPE svg PUBLIC "-//W3C//DTD SVG 1.1//EN"
 "http://www.w3.org/Graphics/SVG/1.1/DTD/svg11.dtd">
<!-- Generated by graphviz version 2.43.0 (0)
 -->
<!-- Title: zero_mate::gui::CRegisters_Window::Render Pages: 1 -->
<svg width="1719pt" height="292pt"
 viewBox="0.00 0.00 1719.00 291.50" xmlns="http://www.w3.org/2000/svg" xmlns:xlink="http://www.w3.org/1999/xlink">
<g id="graph0" class="graph" transform="scale(1 1) rotate(0) translate(4 287.5)">
<title>zero_mate::gui::CRegisters_Window::Render</title>
<!-- Node1 -->
<g id="Node000001" class="node">
<title>Node1</title>
<g id="a_Node000001"><a xlink:title="Renders the windows (IGUI_Window interface).">
<polygon fill="#999999" stroke="#666666" points="148,-221 0,-221 0,-191 148,-191 148,-221"/>
<text text-anchor="start" x="8" y="-209" font-family="Helvetica,sans-Serif" font-size="10.00">zero_mate::gui::CRegisters</text>
<text text-anchor="middle" x="74" y="-198" font-family="Helvetica,sans-Serif" font-size="10.00">_Window::Render</text>
</a>
</g>
</g>
<!-- Node2 -->
<g id="Node000002" class="node">
<title>Node2</title>
<g id="a_Node000002"><a xlink:href="classzero__mate_1_1gui_1_1CRegisters__Window.html#a5d2aecdd70593ed8765fb5a72d28ff0c" target="_top" xlink:title="Checks if the CPU mode has changed.">
<polygon fill="white" stroke="#666666" points="350,-280.5 184,-280.5 184,-239.5 350,-239.5 350,-280.5"/>
<text text-anchor="start" x="192" y="-268.5" font-family="Helvetica,sans-Serif" font-size="10.00">zero_mate::gui::CRegisters</text>
<text text-anchor="start" x="192" y="-257.5" font-family="Helvetica,sans-Serif" font-size="10.00">_Window::Check_If_CPU_Mode</text>
<text text-anchor="middle" x="267" y="-246.5" font-family="Helvetica,sans-Serif" font-size="10.00">_Changes</text>
</a>
</g>
</g>
<!-- Node1&#45;&gt;Node2 -->
<g id="edge1_Node000001_Node000002" class="edge">
<title>Node1&#45;&gt;Node2</title>
<g id="a_edge1_Node000001_Node000002"><a xlink:title=" ">
<path fill="none" stroke="#63b8ff" d="M128.2,-221.04C145.41,-225.91 164.9,-231.42 183.7,-236.73"/>
<polygon fill="#63b8ff" stroke="#63b8ff" points="182.88,-240.14 193.45,-239.49 184.78,-233.4 182.88,-240.14"/>
</a>
</g>
</g>
<!-- Node4 -->
<g id="Node000004" class="node">
<title>Node4</title>
<g id="a_Node000004"><a xlink:href="classzero__mate_1_1gui_1_1CRegisters__Window.html#afee27571a09be2cad3cd096b1c36040a" target="_top" xlink:title="Renders a label displaying the current CPU mode.">
<polygon fill="white" stroke="#666666" points="346,-221 188,-221 188,-191 346,-191 346,-221"/>
<text text-anchor="start" x="196" y="-209" font-family="Helvetica,sans-Serif" font-size="10.00">zero_mate::gui::CRegisters</text>
<text text-anchor="middle" x="267" y="-198" font-family="Helvetica,sans-Serif" font-size="10.00">_Window::Render_CPU_Mode</text>
</a>
</g>
</g>
<!-- Node1&#45;&gt;Node4 -->
<g id="edge3_Node000001_Node000004" class="edge">
<title>Node1&#45;&gt;Node4</title>
<g id="a_edge3_Node000001_Node000004"><a xlink:title=" ">
<path fill="none" stroke="#63b8ff" d="M148.03,-206C157.72,-206 167.74,-206 177.65,-206"/>
<polygon fill="#63b8ff" stroke="#63b8ff" points="177.93,-209.5 187.93,-206 177.93,-202.5 177.93,-209.5"/>
</a>
</g>
</g>
<!-- Node5 -->
<g id="Node000005" class="node">
<title>Node5</title>
<g id="a_Node000005"><a xlink:href="classzero__mate_1_1gui_1_1CRegisters__Window.html#ac9b00209a3db86452bf51d8f4c9dbf72" target="_top" xlink:title="Renders tabs for different CPU modes (SVC, IRQ, FIQ, etc.)">
<polygon fill="white" stroke="#666666" points="341,-172.5 193,-172.5 193,-131.5 341,-131.5 341,-172.5"/>
<text text-anchor="start" x="201" y="-160.5" font-family="Helvetica,sans-Serif" font-size="10.00">zero_mate::gui::CRegisters</text>
<text text-anchor="start" x="201" y="-149.5" font-family="Helvetica,sans-Serif" font-size="10.00">_Window::Render_Register</text>
<text text-anchor="middle" x="267" y="-138.5" font-family="Helvetica,sans-Serif" font-size="10.00">_Modes_Tabs</text>
</a>
</g>
</g>
<!-- Node1&#45;&gt;Node5 -->
<g id="edge5_Node000001_Node000005" class="edge">
<title>Node1&#45;&gt;Node5</title>
<g id="a_edge5_Node000001_Node000005"><a xlink:title=" ">
<path fill="none" stroke="#63b8ff" d="M128.2,-190.96C145.41,-186.09 164.9,-180.58 183.7,-175.27"/>
<polygon fill="#63b8ff" stroke="#63b8ff" points="184.78,-178.6 193.45,-172.51 182.88,-171.86 184.78,-178.6"/>
</a>
</g>
</g>
<!-- Node3 -->
<g id="Node000003" class="node">
<title>Node3</title>
<g id="a_Node000003"><a xlink:href="classzero__mate_1_1arm1176jzf__s_1_1CCPU__Context.html#aa740f9219bb413d707ac72f373e60d3a" target="_top" xlink:title="Returns the current mode of the CPU.">
<polygon fill="white" stroke="#666666" points="537.5,-253.5 407.5,-253.5 407.5,-212.5 537.5,-212.5 537.5,-253.5"/>
<text text-anchor="start" x="415.5" y="-241.5" font-family="Helvetica,sans-Serif" font-size="10.00">zero_mate::arm1176jzf</text>
<text text-anchor="start" x="415.5" y="-230.5" font-family="Helvetica,sans-Serif" font-size="10.00">_s::CCPU_Context::Get</text>
<text text-anchor="middle" x="472.5" y="-219.5" font-family="Helvetica,sans-Serif" font-size="10.00">_CPU_Mode</text>
</a>
</g>
</g>
<!-- Node2&#45;&gt;Node3 -->
<g id="edge2_Node000002_Node000003" class="edge">
<title>Node2&#45;&gt;Node3</title>
<g id="a_edge2_Node000002_Node000003"><a xlink:title=" ">
<path fill="none" stroke="#63b8ff" d="M350.18,-249.1C365.84,-247.02 382.14,-244.86 397.52,-242.82"/>
<polygon fill="#63b8ff" stroke="#63b8ff" points="398.02,-246.28 407.47,-241.49 397.1,-239.34 398.02,-246.28"/>
</a>
</g>
</g>
<!-- Node4&#45;&gt;Node3 -->
<g id="edge4_Node000004_Node000003" class="edge">
<title>Node4&#45;&gt;Node3</title>
<g id="a_edge4_Node000004_Node000003"><a xlink:title=" ">
<path fill="none" stroke="#63b8ff" d="M346.1,-216.36C362.9,-218.59 380.61,-220.94 397.26,-223.15"/>
<polygon fill="#63b8ff" stroke="#63b8ff" points="397.1,-226.66 407.47,-224.5 398.02,-219.72 397.1,-226.66"/>
</a>
</g>
</g>
<!-- Node6 -->
<g id="Node000006" class="node">
<title>Node6</title>
<g id="a_Node000006"><a xlink:href="classzero__mate_1_1gui_1_1CRegisters__Window.html#a25928c2ab0086154b73843f84a831953" target="_top" xlink:title="Renders different format tabs of a given CPU mode.">
<polygon fill="white" stroke="#666666" points="559,-167 386,-167 386,-137 559,-137 559,-167"/>
<text text-anchor="start" x="394" y="-155" font-family="Helvetica,sans-Serif" font-size="10.00">zero_mate::gui::CRegisters</text>
<text text-anchor="middle" x="472.5" y="-144" font-family="Helvetica,sans-Serif" font-size="10.00">_Window::Render_Register_Tabs</text>
</a>
</g>
</g>
<!-- Node5&#45;&gt;Node6 -->
<g id="edge6_Node000005_Node000006" class="edge">
<title>Node5&#45;&gt;Node6</title>
<g id="a_edge6_Node000005_Node000006"><a xlink:title=" ">
<path fill="none" stroke="#63b8ff" d="M341.18,-152C352.37,-152 364.07,-152 375.66,-152"/>
<polygon fill="#63b8ff" stroke="#63b8ff" points="375.81,-155.5 385.81,-152 375.81,-148.5 375.81,-155.5"/>
</a>
</g>
</g>
<!-- Node7 -->
<g id="Node000007" class="node">
<title>Node7</title>
<g id="a_Node000007"><a xlink:href="classzero__mate_1_1gui_1_1CRegisters__Window.html#ab910a37cb5f1cd13e2566c87a6bc0121" target="_top" xlink:title="Renders flags of the CPSR register.">
<polygon fill="white" stroke="#666666" points="767.5,-234 604.5,-234 604.5,-204 767.5,-204 767.5,-234"/>
<text text-anchor="start" x="612.5" y="-222" font-family="Helvetica,sans-Serif" font-size="10.00">zero_mate::gui::CRegisters</text>
<text text-anchor="middle" x="686" y="-211" font-family="Helvetica,sans-Serif" font-size="10.00">_Window::Render_CPSR_Flags</text>
</a>
</g>
</g>
<!-- Node6&#45;&gt;Node7 -->
<g id="edge7_Node000006_Node000007" class="edge">
<title>Node6&#45;&gt;Node7</title>
<g id="a_edge7_Node000006_Node000007"><a xlink:title=" ">
<path fill="none" stroke="#63b8ff" d="M520.96,-167.04C552.56,-177.04 594.24,-190.25 627.68,-200.84"/>
<polygon fill="#63b8ff" stroke="#63b8ff" points="626.74,-204.21 637.33,-203.9 628.85,-197.54 626.74,-204.21"/>
</a>
</g>
</g>
<!-- Node9 -->
<g id="Node000009" class="node">
<title>Node9</title>
<g id="a_Node000009"><a xlink:href="classzero__mate_1_1gui_1_1CRegisters__Window.html#a1779ad3caf45c3e8dd342ef8057dfff7" target="_top" xlink:title="Renders table with CPU registers of a given CPU mode.">
<polygon fill="white" stroke="#666666" points="777,-143 595,-143 595,-113 777,-113 777,-143"/>
<text text-anchor="start" x="603" y="-131" font-family="Helvetica,sans-Serif" font-size="10.00">zero_mate::gui::CRegisters</text>
<text text-anchor="middle" x="686" y="-120" font-family="Helvetica,sans-Serif" font-size="10.00">_Window::Render_Registers_Table</text>
</a>
</g>
</g>
<!-- Node6&#45;&gt;Node9 -->
<g id="edge9_Node000006_Node000009" class="edge">
<title>Node6&#45;&gt;Node9</title>
<g id="a_edge9_Node000006_Node000009"><a xlink:title=" ">
<path fill="none" stroke="#63b8ff" d="M559.22,-142.27C567.61,-141.32 576.18,-140.35 584.71,-139.38"/>
<polygon fill="#63b8ff" stroke="#63b8ff" points="585.13,-142.85 594.68,-138.25 584.35,-135.9 585.13,-142.85"/>
</a>
</g>
</g>
<!-- Node8 -->
<g id="Node000008" class="node">
<title>Node8</title>
<g id="a_Node000008"><a xlink:href="classzero__mate_1_1arm1176jzf__s_1_1CCPU__Context.html#a0013811c3eef6d91ddfd2423a08889ef" target="_top" xlink:title="Checks whether a given flag is set in the CPSR register of the current CPU mode.">
<polygon fill="white" stroke="#666666" points="957.5,-283.5 827.5,-283.5 827.5,-242.5 957.5,-242.5 957.5,-283.5"/>
<text text-anchor="start" x="835.5" y="-271.5" font-family="Helvetica,sans-Serif" font-size="10.00">zero_mate::arm1176jzf</text>
<text text-anchor="start" x="835.5" y="-260.5" font-family="Helvetica,sans-Serif" font-size="10.00">_s::CCPU_Context::Is</text>
<text text-anchor="middle" x="892.5" y="-249.5" font-family="Helvetica,sans-Serif" font-size="10.00">_Flag_Set</text>
</a>
</g>
</g>
<!-- Node7&#45;&gt;Node8 -->
<g id="edge8_Node000007_Node000008" class="edge">
<title>Node7&#45;&gt;Node8</title>
<g id="a_edge8_Node000007_Node000008"><a xlink:title=" ">
<path fill="none" stroke="#63b8ff" d="M756.81,-234.02C776.31,-238.21 797.56,-242.79 817.3,-247.04"/>
<polygon fill="#63b8ff" stroke="#63b8ff" points="816.65,-250.48 827.17,-249.16 818.13,-243.63 816.65,-250.48"/>
</a>
</g>
</g>
<!-- Node10 -->
<g id="Node000010" class="node">
<title>Node10</title>
<g id="a_Node000010"><a xlink:href="classzero__mate_1_1arm1176jzf__s_1_1CCPU__Context.html#acf66c6ff905975912dbf52133ddfeceb" target="_top" xlink:title="Returns a reference the CPSR register of the current CPU mode.">
<polygon fill="white" stroke="#666666" points="971.5,-224 813.5,-224 813.5,-194 971.5,-194 971.5,-224"/>
<text text-anchor="start" x="821.5" y="-212" font-family="Helvetica,sans-Serif" font-size="10.00">zero_mate::arm1176jzf</text>
<text text-anchor="middle" x="892.5" y="-201" font-family="Helvetica,sans-Serif" font-size="10.00">_s::CCPU_Context::Get_CPSR</text>
</a>
</g>
</g>
<!-- Node9&#45;&gt;Node10 -->
<g id="edge10_Node000009_Node000010" class="edge">
<title>Node9&#45;&gt;Node10</title>
<g id="a_edge10_Node000009_Node000010"><a xlink:title=" ">
<path fill="none" stroke="#63b8ff" d="M717.35,-143.05C742.59,-155.25 779.64,-172.41 813,-185 818.17,-186.95 823.57,-188.86 829.01,-190.69"/>
<polygon fill="#63b8ff" stroke="#63b8ff" points="828.23,-194.12 838.83,-193.91 830.42,-187.47 828.23,-194.12"/>
</a>
</g>
</g>
<!-- Node11 -->
<g id="Node000011" class="node">
<title>Node11</title>
<g id="a_Node000011"><a xlink:href="classzero__mate_1_1arm1176jzf__s_1_1CCPU__Context.html#a22efcb34f3c1bd9f46f1f75771103ef9" target="_top" xlink:title="Returns a const reference to a register of a particular CPU mode.">
<polygon fill="white" stroke="#666666" points="957.5,-175.5 827.5,-175.5 827.5,-134.5 957.5,-134.5 957.5,-175.5"/>
<text text-anchor="start" x="835.5" y="-163.5" font-family="Helvetica,sans-Serif" font-size="10.00">zero_mate::arm1176jzf</text>
<text text-anchor="start" x="835.5" y="-152.5" font-family="Helvetica,sans-Serif" font-size="10.00">_s::CCPU_Context::Get</text>
<text text-anchor="middle" x="892.5" y="-141.5" font-family="Helvetica,sans-Serif" font-size="10.00">_Register</text>
</a>
</g>
</g>
<!-- Node9&#45;&gt;Node11 -->
<g id="edge11_Node000009_Node000011" class="edge">
<title>Node9&#45;&gt;Node11</title>
<g id="a_edge11_Node000009_Node000011"><a xlink:title=" ">
<path fill="none" stroke="#63b8ff" d="M777.29,-139.92C790.63,-141.68 804.25,-143.48 817.21,-145.19"/>
<polygon fill="#63b8ff" stroke="#63b8ff" points="817.08,-148.7 827.45,-146.54 818,-141.76 817.08,-148.7"/>
</a>
</g>
</g>
<!-- Node12 -->
<g id="Node000012" class="node">
<title>Node12</title>
<g id="a_Node000012"><a xlink:href="classzero__mate_1_1arm1176jzf__s_1_1CCPU__Context.html#ae00681efcbc4adfcfde001a67c5baeca" target="_top" xlink:title="Returns the value of the SPSR register of the current CPU mode.">
<polygon fill="white" stroke="#666666" points="971,-116 814,-116 814,-86 971,-86 971,-116"/>
<text text-anchor="start" x="822" y="-104" font-family="Helvetica,sans-Serif" font-size="10.00">zero_mate::arm1176jzf</text>
<text text-anchor="middle" x="892.5" y="-93" font-family="Helvetica,sans-Serif" font-size="10.00">_s::CCPU_Context::Get_SPSR</text>
</a>
</g>
</g>
<!-- Node9&#45;&gt;Node12 -->
<g id="edge12_Node000009_Node000012" class="edge">
<title>Node9&#45;&gt;Node12</title>
<g id="a_edge12_Node000009_Node000012"><a xlink:title=" ">
<path fill="none" stroke="#63b8ff" d="M777.29,-116.08C786.06,-114.92 794.95,-113.75 803.69,-112.59"/>
<polygon fill="#63b8ff" stroke="#63b8ff" points="804.41,-116.03 813.87,-111.25 803.5,-109.09 804.41,-116.03"/>
</a>
</g>
</g>
<!-- Node19 -->
<g id="Node000019" class="node">
<title>Node19</title>
<g id="a_Node000019"><a xlink:href="classzero__mate_1_1arm1176jzf__s_1_1CCPU__Context.html#a6fc387fa0b0dd040c4e2463606d933e4" target="_top" xlink:title="Checks if the CPU mode passed in as a parameter supports the SPSR register or not.">
<polygon fill="white" stroke="#666666" points="1319,-78.5 1189,-78.5 1189,-37.5 1319,-37.5 1319,-78.5"/>
<text text-anchor="start" x="1197" y="-66.5" font-family="Helvetica,sans-Serif" font-size="10.00">zero_mate::arm1176jzf</text>
<text text-anchor="start" x="1197" y="-55.5" font-family="Helvetica,sans-Serif" font-size="10.00">_s::CCPU_Context::Is</text>
<text text-anchor="middle" x="1254" y="-44.5" font-family="Helvetica,sans-Serif" font-size="10.00">_Mode_With_No_SPSR</text>
</a>
</g>
</g>
<!-- Node9&#45;&gt;Node19 -->
<g id="edge20_Node000009_Node000019" class="edge">
<title>Node9&#45;&gt;Node19</title>
<g id="a_edge20_Node000009_Node000019"><a xlink:title=" ">
<path fill="none" stroke="#63b8ff" d="M716.13,-112.87C741.09,-100.73 778.41,-84.51 813,-77 939.14,-49.6 1090.25,-50.08 1178.55,-53.58"/>
<polygon fill="#63b8ff" stroke="#63b8ff" points="1178.6,-57.08 1188.74,-54.01 1178.89,-50.09 1178.6,-57.08"/>
</a>
</g>
</g>
<!-- Node20 -->
<g id="Node000020" class="node">
<title>Node20</title>
<g id="a_Node000020"><a xlink:href="classzero__mate_1_1gui_1_1CRegisters__Window.html#a5240e615ada1d612975e9339ae715f1e" target="_top" xlink:title="Renders a raw integer value in a given format.">
<polygon fill="white" stroke="#666666" points="972,-30 813,-30 813,0 972,0 972,-30"/>
<text text-anchor="start" x="821" y="-18" font-family="Helvetica,sans-Serif" font-size="10.00">zero_mate::gui::CRegisters</text>
<text text-anchor="middle" x="892.5" y="-7" font-family="Helvetica,sans-Serif" font-size="10.00">_Window::Render_Raw_Value</text>
</a>
</g>
</g>
<!-- Node9&#45;&gt;Node20 -->
<g id="edge21_Node000009_Node000020" class="edge">
<title>Node9&#45;&gt;Node20</title>
<g id="a_edge21_Node000009_Node000020"><a xlink:title=" ">
<path fill="none" stroke="#63b8ff" d="M706.62,-112.8C730.68,-94.67 773.17,-64.28 813,-44 820.18,-40.34 827.93,-36.91 835.67,-33.78"/>
<polygon fill="#63b8ff" stroke="#63b8ff" points="837.03,-37.01 845.07,-30.11 834.48,-30.49 837.03,-37.01"/>
</a>
</g>
</g>
<!-- Node13 -->
<g id="Node000013" class="node">
<title>Node13</title>
<g id="a_Node000013"><a xlink:href="classzero__mate_1_1arm1176jzf__s_1_1CCPU__Context.html#a050dada520ca82a21874045815c596a8" target="_top" xlink:title=" ">
<polygon fill="white" stroke="#666666" points="1145,-127.5 1008,-127.5 1008,-86.5 1145,-86.5 1145,-127.5"/>
<text text-anchor="start" x="1016" y="-115.5" font-family="Helvetica,sans-Serif" font-size="10.00">zero_mate::arm1176jzf</text>
<text text-anchor="start" x="1016" y="-104.5" font-family="Helvetica,sans-Serif" font-size="10.00">_s::CCPU_Context::Verify</text>
<text text-anchor="middle" x="1076.5" y="-93.5" font-family="Helvetica,sans-Serif" font-size="10.00">_SPSR_Accessibility</text>
</a>
</g>
</g>
<!-- Node12&#45;&gt;Node13 -->
<g id="edge13_Node000012_Node000013" class="edge">
<title>Node12&#45;&gt;Node13</title>
<g id="a_edge13_Node000012_Node000013"><a xlink:title=" ">
<path fill="none" stroke="#63b8ff" d="M971.21,-103.56C979.96,-103.85 988.88,-104.14 997.63,-104.43"/>
<polygon fill="#63b8ff" stroke="#63b8ff" points="997.7,-107.94 1007.81,-104.77 997.93,-100.94 997.7,-107.94"/>
</a>
</g>
</g>
<!-- Node14 -->
<g id="Node000014" class="node">
<title>Node14</title>
<g id="a_Node000014"><a xlink:href="classzero__mate_1_1utils_1_1CLogging__System.html#a57ed77e1a5cf822cea532cc5e05c3f60" target="_top" xlink:title="Logs an error message via all registered loggers.">
<polygon fill="white" stroke="#666666" points="1327,-127 1181,-127 1181,-97 1327,-97 1327,-127"/>
<text text-anchor="start" x="1189" y="-115" font-family="Helvetica,sans-Serif" font-size="10.00">zero_mate::utils::CLogging</text>
<text text-anchor="middle" x="1254" y="-104" font-family="Helvetica,sans-Serif" font-size="10.00">_System::Error</text>
</a>
</g>
</g>
<!-- Node13&#45;&gt;Node14 -->
<g id="edge14_Node000013_Node000014" class="edge">
<title>Node13&#45;&gt;Node14</title>
<g id="a_edge14_Node000013_Node000014"><a xlink:title=" ">
<path fill="none" stroke="#63b8ff" d="M1145.1,-108.93C1153.5,-109.17 1162.16,-109.41 1170.75,-109.66"/>
<polygon fill="#63b8ff" stroke="#63b8ff" points="1170.68,-113.16 1180.77,-109.94 1170.88,-106.16 1170.68,-113.16"/>
</a>
</g>
</g>
<!-- Node13&#45;&gt;Node19 -->
<g id="edge19_Node000013_Node000019" class="edge">
<title>Node13&#45;&gt;Node19</title>
<g id="a_edge19_Node000013_Node000019"><a xlink:title=" ">
<path fill="none" stroke="#63b8ff" d="M1145.1,-88.13C1156.23,-85.02 1167.81,-81.78 1179.09,-78.64"/>
<polygon fill="#63b8ff" stroke="#63b8ff" points="1180.2,-81.96 1188.89,-75.9 1178.32,-75.22 1180.2,-81.96"/>
</a>
</g>
</g>
<!-- Node15 -->
<g id="Node000015" class="node">
<title>Node15</title>
<g id="a_Node000015"><a xlink:href="classzero__mate_1_1utils_1_1CLogging__System.html#a71ed11c796553cbe8fd99773406a1060" target="_top" xlink:title="Creates a formatted message to be logged.">
<polygon fill="white" stroke="#666666" points="1515,-159.5 1363,-159.5 1363,-118.5 1515,-118.5 1515,-159.5"/>
<text text-anchor="start" x="1371" y="-147.5" font-family="Helvetica,sans-Serif" font-size="10.00">zero_mate::utils::CLogging</text>
<text text-anchor="start" x="1371" y="-136.5" font-family="Helvetica,sans-Serif" font-size="10.00">_System::Create_Formatted</text>
<text text-anchor="middle" x="1439" y="-125.5" font-family="Helvetica,sans-Serif" font-size="10.00">_Log_Msg</text>
</a>
</g>
</g>
<!-- Node14&#45;&gt;Node15 -->
<g id="edge15_Node000014_Node000015" class="edge">
<title>Node14&#45;&gt;Node15</title>
<g id="a_edge15_Node000014_Node000015"><a xlink:title=" ">
<path fill="none" stroke="#63b8ff" d="M1327.06,-122.63C1335.55,-123.88 1344.26,-125.17 1352.9,-126.44"/>
<polygon fill="#63b8ff" stroke="#63b8ff" points="1352.59,-129.94 1362.99,-127.93 1353.61,-123.01 1352.59,-129.94"/>
</a>
</g>
</g>
<!-- Node18 -->
<g id="Node000018" class="node">
<title>Node18</title>
<g id="a_Node000018"><a xlink:href="classzero__mate_1_1utils_1_1CLogging__System.html#ad371c67ef65763966ccf9291002e86f3" target="_top" xlink:title="Extract the filename from a given location within the source files.">
<polygon fill="white" stroke="#666666" points="1513.5,-100 1364.5,-100 1364.5,-70 1513.5,-70 1513.5,-100"/>
<text text-anchor="start" x="1372.5" y="-88" font-family="Helvetica,sans-Serif" font-size="10.00">zero_mate::utils::CLogging</text>
<text text-anchor="middle" x="1439" y="-77" font-family="Helvetica,sans-Serif" font-size="10.00">_System::Extract_Filename</text>
</a>
</g>
</g>
<!-- Node14&#45;&gt;Node18 -->
<g id="edge18_Node000014_Node000018" class="edge">
<title>Node14&#45;&gt;Node18</title>
<g id="a_edge18_Node000014_Node000018"><a xlink:title=" ">
<path fill="none" stroke="#63b8ff" d="M1327.06,-101.37C1336.1,-100.03 1345.4,-98.66 1354.59,-97.31"/>
<polygon fill="#63b8ff" stroke="#63b8ff" points="1355.12,-100.77 1364.5,-95.84 1354.1,-93.84 1355.12,-100.77"/>
</a>
</g>
</g>
<!-- Node16 -->
<g id="Node000016" class="node">
<title>Node16</title>
<g id="a_Node000016"><a xlink:href="classzero__mate_1_1utils_1_1CLogging__System.html#aa70c102c805079042ffea2a6f2a5ad64" target="_top" xlink:title="Formats a given timestamp.">
<polygon fill="white" stroke="#666666" points="1711,-178 1551,-178 1551,-148 1711,-148 1711,-178"/>
<text text-anchor="start" x="1559" y="-166" font-family="Helvetica,sans-Serif" font-size="10.00">zero_mate::utils::CLogging</text>
<text text-anchor="middle" x="1631" y="-155" font-family="Helvetica,sans-Serif" font-size="10.00">_System::Format_Timestamp</text>
</a>
</g>
</g>
<!-- Node15&#45;&gt;Node16 -->
<g id="edge16_Node000015_Node000016" class="edge">
<title>Node15&#45;&gt;Node16</title>
<g id="a_edge16_Node000015_Node000016"><a xlink:title=" ">
<path fill="none" stroke="#63b8ff" d="M1515.09,-148.49C1523.52,-149.55 1532.16,-150.64 1540.74,-151.73"/>
<polygon fill="#63b8ff" stroke="#63b8ff" points="1540.41,-155.21 1550.77,-152.99 1541.29,-148.27 1540.41,-155.21"/>
</a>
</g>
</g>
<!-- Node17 -->
<g id="Node000017" class="node">
<title>Node17</title>
<g id="a_Node000017"><a xlink:href="classzero__mate_1_1utils_1_1CLogging__System.html#ae3ca637537dde05e0b9119145c840331" target="_top" xlink:title="Returns the current timestamp that will be used in a log message.">
<polygon fill="white" stroke="#666666" points="1704,-130 1558,-130 1558,-100 1704,-100 1704,-130"/>
<text text-anchor="start" x="1566" y="-118" font-family="Helvetica,sans-Serif" font-size="10.00">zero_mate::utils::CLogging</text>
<text text-anchor="middle" x="1631" y="-107" font-family="Helvetica,sans-Serif" font-size="10.00">_System::Get_Timestamp</text>
</a>
</g>
</g>
<!-- Node15&#45;&gt;Node17 -->
<g id="edge17_Node000015_Node000017" class="edge">
<title>Node15&#45;&gt;Node17</title>
<g id="a_edge17_Node000015_Node000017"><a xlink:title=" ">
<path fill="none" stroke="#63b8ff" d="M1515.09,-129.51C1525.89,-128.15 1537.05,-126.74 1547.98,-125.36"/>
<polygon fill="#63b8ff" stroke="#63b8ff" points="1548.45,-128.83 1557.93,-124.1 1547.57,-121.88 1548.45,-128.83"/>
</a>
</g>
</g>
</g>
</svg>
