<?xml version="1.0" encoding="UTF-8" standalone="no"?>
<!DOCTYPE svg PUBLIC "-//W3C//DTD SVG 1.1//EN"
 "http://www.w3.org/Graphics/SVG/1.1/DTD/svg11.dtd">
<!-- Generated by graphviz version 2.43.0 (0)
 -->
<!-- Title: zero_mate::gui::CLog_Window::Render_Top_Bar Pages: 1 -->
<svg width="664pt" height="157pt"
 viewBox="0.00 0.00 664.00 157.00" xmlns="http://www.w3.org/2000/svg" xmlns:xlink="http://www.w3.org/1999/xlink">
<g id="graph0" class="graph" transform="scale(1 1) rotate(0) translate(4 153)">
<title>zero_mate::gui::CLog_Window::Render_Top_Bar</title>
<!-- Node1 -->
<g id="Node000001" class="node">
<title>Node1</title>
<g id="a_Node000001"><a xlink:title="Renders the top bar of the window (the options, clear button, and the filter)">
<polygon fill="#999999" stroke="#666666" points="144,-89.5 0,-89.5 0,-59.5 144,-59.5 144,-89.5"/>
<text text-anchor="start" x="8" y="-77.5" font-family="Helvetica,sans-Serif" font-size="10.00">zero_mate::gui::CLog</text>
<text text-anchor="middle" x="72" y="-66.5" font-family="Helvetica,sans-Serif" font-size="10.00">_Window::Render_Top_Bar</text>
</a>
</g>
</g>
<!-- Node2 -->
<g id="Node000002" class="node">
<title>Node2</title>
<g id="a_Node000002"><a xlink:href="classzero__mate_1_1gui_1_1CLog__Window.html#aada4dbfcfe761cd1f7f050a866a4e02c" target="_top" xlink:title="Renders a clear button for clearing the message area.">
<polygon fill="white" stroke="#666666" points="318,-149 187,-149 187,-108 318,-108 318,-149"/>
<text text-anchor="start" x="195" y="-137" font-family="Helvetica,sans-Serif" font-size="10.00">zero_mate::gui::CLog</text>
<text text-anchor="start" x="195" y="-126" font-family="Helvetica,sans-Serif" font-size="10.00">_Window::Render_Clear</text>
<text text-anchor="middle" x="252.5" y="-115" font-family="Helvetica,sans-Serif" font-size="10.00">_Button</text>
</a>
</g>
</g>
<!-- Node1&#45;&gt;Node2 -->
<g id="edge1_Node000001_Node000002" class="edge">
<title>Node1&#45;&gt;Node2</title>
<g id="a_edge1_Node000001_Node000002"><a xlink:title=" ">
<path fill="none" stroke="#63b8ff" d="M122.72,-89.54C139.51,-94.62 158.64,-100.41 176.92,-105.94"/>
<polygon fill="#63b8ff" stroke="#63b8ff" points="176.09,-109.34 186.68,-108.89 178.12,-102.64 176.09,-109.34"/>
</a>
</g>
</g>
<!-- Node5 -->
<g id="Node000005" class="node">
<title>Node5</title>
<g id="a_Node000005"><a xlink:href="classzero__mate_1_1gui_1_1CLog__Window.html#a249f1f3cca8a46de6d042bdf3f837ace" target="_top" xlink:title="Renders a message filer.">
<polygon fill="white" stroke="#666666" points="318,-89.5 187,-89.5 187,-59.5 318,-59.5 318,-89.5"/>
<text text-anchor="start" x="195" y="-77.5" font-family="Helvetica,sans-Serif" font-size="10.00">zero_mate::gui::CLog</text>
<text text-anchor="middle" x="252.5" y="-66.5" font-family="Helvetica,sans-Serif" font-size="10.00">_Window::Render_Filter</text>
</a>
</g>
</g>
<!-- Node1&#45;&gt;Node5 -->
<g id="edge4_Node000001_Node000005" class="edge">
<title>Node1&#45;&gt;Node5</title>
<g id="a_edge4_Node000001_Node000005"><a xlink:title=" ">
<path fill="none" stroke="#63b8ff" d="M144.06,-74.5C154.74,-74.5 165.79,-74.5 176.55,-74.5"/>
<polygon fill="#63b8ff" stroke="#63b8ff" points="176.76,-78 186.76,-74.5 176.76,-71 176.76,-78"/>
</a>
</g>
</g>
<!-- Node6 -->
<g id="Node000006" class="node">
<title>Node6</title>
<g id="a_Node000006"><a xlink:href="classzero__mate_1_1gui_1_1CLog__Window.html#a0126c0d93a1bfb3689f3b9cb35f8e996" target="_top" xlink:title="Renders a popup menu (options).">
<polygon fill="white" stroke="#666666" points="325,-41 180,-41 180,0 325,0 325,-41"/>
<text text-anchor="start" x="188" y="-29" font-family="Helvetica,sans-Serif" font-size="10.00">zero_mate::gui::CLog</text>
<text text-anchor="start" x="188" y="-18" font-family="Helvetica,sans-Serif" font-size="10.00">_Window::Render_Window</text>
<text text-anchor="middle" x="252.5" y="-7" font-family="Helvetica,sans-Serif" font-size="10.00">_Options</text>
</a>
</g>
</g>
<!-- Node1&#45;&gt;Node6 -->
<g id="edge5_Node000001_Node000006" class="edge">
<title>Node1&#45;&gt;Node6</title>
<g id="a_edge5_Node000001_Node000006"><a xlink:title=" ">
<path fill="none" stroke="#63b8ff" d="M122.72,-59.46C138.65,-54.64 156.68,-49.18 174.1,-43.91"/>
<polygon fill="#63b8ff" stroke="#63b8ff" points="175.14,-47.26 183.7,-41.01 173.12,-40.56 175.14,-47.26"/>
</a>
</g>
</g>
<!-- Node3 -->
<g id="Node000003" class="node">
<title>Node3</title>
<g id="a_Node000003"><a xlink:href="classzero__mate_1_1gui_1_1CLog__Window.html#aab3c1c25eedfe7230d905ae5355265c0" target="_top" xlink:title="Clears all log messages.">
<polygon fill="white" stroke="#666666" points="480,-143.5 361,-143.5 361,-113.5 480,-113.5 480,-143.5"/>
<text text-anchor="start" x="369" y="-131.5" font-family="Helvetica,sans-Serif" font-size="10.00">zero_mate::gui::CLog</text>
<text text-anchor="middle" x="420.5" y="-120.5" font-family="Helvetica,sans-Serif" font-size="10.00">_Window::Clear</text>
</a>
</g>
</g>
<!-- Node2&#45;&gt;Node3 -->
<g id="edge2_Node000002_Node000003" class="edge">
<title>Node2&#45;&gt;Node3</title>
<g id="a_edge2_Node000002_Node000003"><a xlink:title=" ">
<path fill="none" stroke="#63b8ff" d="M318.16,-128.5C328.85,-128.5 339.97,-128.5 350.76,-128.5"/>
<polygon fill="#63b8ff" stroke="#63b8ff" points="350.98,-132 360.98,-128.5 350.98,-125 350.98,-132"/>
</a>
</g>
</g>
<!-- Node4 -->
<g id="Node000004" class="node">
<title>Node4</title>
<g id="a_Node000004"><a xlink:href="classzero__mate_1_1gui_1_1CCircular__Log__Buffer.html#af165b3edecdde5d0ea7a10957849921b" target="_top" xlink:title="Clears the circular buffer (deletes all log messages).">
<polygon fill="white" stroke="#666666" points="656,-143.5 516,-143.5 516,-113.5 656,-113.5 656,-143.5"/>
<text text-anchor="start" x="524" y="-131.5" font-family="Helvetica,sans-Serif" font-size="10.00">zero_mate::gui::CCircular</text>
<text text-anchor="middle" x="586" y="-120.5" font-family="Helvetica,sans-Serif" font-size="10.00">_Log_Buffer::Clear</text>
</a>
</g>
</g>
<!-- Node3&#45;&gt;Node4 -->
<g id="edge3_Node000003_Node000004" class="edge">
<title>Node3&#45;&gt;Node4</title>
<g id="a_edge3_Node000003_Node000004"><a xlink:title=" ">
<path fill="none" stroke="#63b8ff" d="M480.07,-128.5C488.43,-128.5 497.15,-128.5 505.82,-128.5"/>
<polygon fill="#63b8ff" stroke="#63b8ff" points="505.97,-132 515.97,-128.5 505.97,-125 505.97,-132"/>
</a>
</g>
</g>
</g>
</svg>
