<?xml version="1.0" encoding="UTF-8" standalone="no"?>
<!DOCTYPE svg PUBLIC "-//W3C//DTD SVG 1.1//EN"
 "http://www.w3.org/Graphics/SVG/1.1/DTD/svg11.dtd">
<!-- Generated by graphviz version 2.43.0 (0)
 -->
<!-- Title: zero_mate::arm1176jzf_s::CCPU_Context::Set_CPU_Mode Pages: 1 -->
<svg width="859pt" height="338pt"
 viewBox="0.00 0.00 859.00 338.00" xmlns="http://www.w3.org/2000/svg" xmlns:xlink="http://www.w3.org/1999/xlink">
<g id="graph0" class="graph" transform="scale(1 1) rotate(0) translate(4 334)">
<title>zero_mate::arm1176jzf_s::CCPU_Context::Set_CPU_Mode</title>
<!-- Node1 -->
<g id="Node000001" class="node">
<title>Node1</title>
<g id="a_Node000001"><a xlink:title="Sets the mode of the CPU.">
<polygon fill="#999999" stroke="#666666" points="851,-206.5 721,-206.5 721,-165.5 851,-165.5 851,-206.5"/>
<text text-anchor="start" x="729" y="-194.5" font-family="Helvetica,sans-Serif" font-size="10.00">zero_mate::arm1176jzf</text>
<text text-anchor="start" x="729" y="-183.5" font-family="Helvetica,sans-Serif" font-size="10.00">_s::CCPU_Context::Set</text>
<text text-anchor="middle" x="786" y="-172.5" font-family="Helvetica,sans-Serif" font-size="10.00">_CPU_Mode</text>
</a>
</g>
</g>
<!-- Node2 -->
<g id="Node000002" class="node">
<title>Node2</title>
<g id="a_Node000002"><a xlink:href="classzero__mate_1_1arm1176jzf__s_1_1CCPU__Core.html#a85e6ef006a36e1adb56abd3ecc6481be" target="_top" xlink:title="Executes a CPU exception.">
<polygon fill="white" stroke="#666666" points="673,-281.5 541,-281.5 541,-240.5 673,-240.5 673,-281.5"/>
<text text-anchor="start" x="549" y="-269.5" font-family="Helvetica,sans-Serif" font-size="10.00">zero_mate::arm1176jzf</text>
<text text-anchor="start" x="549" y="-258.5" font-family="Helvetica,sans-Serif" font-size="10.00">_s::CCPU_Core::Execute</text>
<text text-anchor="middle" x="607" y="-247.5" font-family="Helvetica,sans-Serif" font-size="10.00">_Exception</text>
</a>
</g>
</g>
<!-- Node1&#45;&gt;Node2 -->
<g id="edge1_Node000001_Node000002" class="edge">
<title>Node1&#45;&gt;Node2</title>
<g id="a_edge1_Node000001_Node000002"><a xlink:title=" ">
<path fill="none" stroke="#63b8ff" d="M726.65,-210.72C703.99,-220.33 678.32,-231.2 656.68,-240.37"/>
<polygon fill="#63b8ff" stroke="#63b8ff" points="728.32,-213.82 736.17,-206.69 725.59,-207.37 728.32,-213.82"/>
</a>
</g>
</g>
<!-- Node8 -->
<g id="Node000008" class="node">
<title>Node8</title>
<g id="a_Node000008"><a xlink:href="classzero__mate_1_1arm1176jzf__s_1_1CCPU__Context.html#a53765299c790cc790e15deb2c701bd2a" target="_top" xlink:title="Sets a new value to the CPSR register.">
<polygon fill="white" stroke="#666666" points="685,-150 529,-150 529,-120 685,-120 685,-150"/>
<text text-anchor="start" x="537" y="-138" font-family="Helvetica,sans-Serif" font-size="10.00">zero_mate::arm1176jzf</text>
<text text-anchor="middle" x="607" y="-127" font-family="Helvetica,sans-Serif" font-size="10.00">_s::CCPU_Context::Set_CPSR</text>
</a>
</g>
</g>
<!-- Node1&#45;&gt;Node8 -->
<g id="edge7_Node000001_Node000008" class="edge">
<title>Node1&#45;&gt;Node8</title>
<g id="a_edge7_Node000001_Node000008"><a xlink:title=" ">
<path fill="none" stroke="#63b8ff" d="M710.94,-164.66C693.93,-159.76 676.18,-154.65 660.32,-150.07"/>
<polygon fill="#63b8ff" stroke="#63b8ff" points="710.27,-168.11 720.85,-167.52 712.21,-161.38 710.27,-168.11"/>
</a>
</g>
</g>
<!-- Node3 -->
<g id="Node000003" class="node">
<title>Node3</title>
<g id="a_Node000003"><a xlink:href="classzero__mate_1_1arm1176jzf__s_1_1CCPU__Core.html#ac81ae05305c6916b7eda83abff602dcf" target="_top" xlink:title="Executes a single instruction.">
<polygon fill="white" stroke="#666666" points="479.5,-330 347.5,-330 347.5,-300 479.5,-300 479.5,-330"/>
<text text-anchor="start" x="355.5" y="-318" font-family="Helvetica,sans-Serif" font-size="10.00">zero_mate::arm1176jzf</text>
<text text-anchor="middle" x="413.5" y="-307" font-family="Helvetica,sans-Serif" font-size="10.00">_s::CCPU_Core::Execute</text>
</a>
</g>
</g>
<!-- Node2&#45;&gt;Node3 -->
<g id="edge2_Node000002_Node000003" class="edge">
<title>Node2&#45;&gt;Node3</title>
<g id="a_edge2_Node000002_Node000003"><a xlink:title=" ">
<path fill="none" stroke="#63b8ff" d="M531.02,-282.14C509.97,-288.08 487.5,-294.41 467.98,-299.92"/>
<polygon fill="#63b8ff" stroke="#63b8ff" points="532.22,-285.44 540.9,-279.36 530.33,-278.7 532.22,-285.44"/>
</a>
</g>
</g>
<!-- Node4 -->
<g id="Node000004" class="node">
<title>Node4</title>
<g id="a_Node000004"><a xlink:href="classzero__mate_1_1arm1176jzf__s_1_1CCPU__Core.html#aa327755c4c57c01f03e16fb3d1195f6a" target="_top" xlink:title="Fetches the next instruction.">
<polygon fill="white" stroke="#666666" points="478.5,-281.5 348.5,-281.5 348.5,-240.5 478.5,-240.5 478.5,-281.5"/>
<text text-anchor="start" x="356.5" y="-269.5" font-family="Helvetica,sans-Serif" font-size="10.00">zero_mate::arm1176jzf</text>
<text text-anchor="start" x="356.5" y="-258.5" font-family="Helvetica,sans-Serif" font-size="10.00">_s::CCPU_Core::Fetch</text>
<text text-anchor="middle" x="413.5" y="-247.5" font-family="Helvetica,sans-Serif" font-size="10.00">_Instruction</text>
</a>
</g>
</g>
<!-- Node2&#45;&gt;Node4 -->
<g id="edge3_Node000002_Node000004" class="edge">
<title>Node2&#45;&gt;Node4</title>
<g id="a_edge3_Node000002_Node000004"><a xlink:title=" ">
<path fill="none" stroke="#63b8ff" d="M530.88,-261C513.66,-261 495.49,-261 478.77,-261"/>
<polygon fill="#63b8ff" stroke="#63b8ff" points="530.9,-264.5 540.9,-261 530.9,-257.5 530.9,-264.5"/>
</a>
</g>
</g>
<!-- Node5 -->
<g id="Node000005" class="node">
<title>Node5</title>
<g id="a_Node000005"><a xlink:href="classzero__mate_1_1arm1176jzf__s_1_1CCPU__Core.html#a1665360d8ae71ed541b4c10f39e655a5" target="_top" xlink:title=" ">
<polygon fill="white" stroke="#666666" points="297,-276 167,-276 167,-246 297,-246 297,-276"/>
<text text-anchor="start" x="175" y="-264" font-family="Helvetica,sans-Serif" font-size="10.00">zero_mate::arm1176jzf</text>
<text text-anchor="middle" x="232" y="-253" font-family="Helvetica,sans-Serif" font-size="10.00">_s::CCPU_Core::Step</text>
</a>
</g>
</g>
<!-- Node4&#45;&gt;Node5 -->
<g id="edge4_Node000004_Node000005" class="edge">
<title>Node4&#45;&gt;Node5</title>
<g id="a_edge4_Node000004_Node000005"><a xlink:title=" ">
<path fill="none" stroke="#63b8ff" d="M338.13,-261C324.48,-261 310.34,-261 297.02,-261"/>
<polygon fill="#63b8ff" stroke="#63b8ff" points="338.46,-264.5 348.46,-261 338.46,-257.5 338.46,-264.5"/>
</a>
</g>
</g>
<!-- Node6 -->
<g id="Node000006" class="node">
<title>Node6</title>
<g id="a_Node000006"><a xlink:href="classzero__mate_1_1arm1176jzf__s_1_1CCPU__Core.html#ad07b9956fd3f7b6c64b93c69243092f4" target="_top" xlink:title="Starts the execution.">
<polygon fill="white" stroke="#666666" points="130,-300 0,-300 0,-270 130,-270 130,-300"/>
<text text-anchor="start" x="8" y="-288" font-family="Helvetica,sans-Serif" font-size="10.00">zero_mate::arm1176jzf</text>
<text text-anchor="middle" x="65" y="-277" font-family="Helvetica,sans-Serif" font-size="10.00">_s::CCPU_Core::Run</text>
</a>
</g>
</g>
<!-- Node5&#45;&gt;Node6 -->
<g id="edge5_Node000005_Node000006" class="edge">
<title>Node5&#45;&gt;Node6</title>
<g id="a_edge5_Node000005_Node000006"><a xlink:title=" ">
<path fill="none" stroke="#63b8ff" d="M156.76,-271.8C147.86,-273.09 138.83,-274.41 130.09,-275.68"/>
<polygon fill="#63b8ff" stroke="#63b8ff" points="157.34,-275.25 166.73,-270.35 156.33,-268.32 157.34,-275.25"/>
</a>
</g>
</g>
<!-- Node7 -->
<g id="Node000007" class="node">
<title>Node7</title>
<g id="a_Node000007"><a xlink:href="classzero__mate_1_1arm1176jzf__s_1_1CCPU__Core.html#a16544e9981489e1f4a25405248e5a5c0" target="_top" xlink:title=" ">
<polygon fill="white" stroke="#666666" points="130,-252 0,-252 0,-222 130,-222 130,-252"/>
<text text-anchor="start" x="8" y="-240" font-family="Helvetica,sans-Serif" font-size="10.00">zero_mate::arm1176jzf</text>
<text text-anchor="middle" x="65" y="-229" font-family="Helvetica,sans-Serif" font-size="10.00">_s::CCPU_Core::Steps</text>
</a>
</g>
</g>
<!-- Node5&#45;&gt;Node7 -->
<g id="edge6_Node000005_Node000007" class="edge">
<title>Node5&#45;&gt;Node7</title>
<g id="a_edge6_Node000005_Node000007"><a xlink:title=" ">
<path fill="none" stroke="#63b8ff" d="M156.76,-250.2C147.86,-248.91 138.83,-247.59 130.09,-246.32"/>
<polygon fill="#63b8ff" stroke="#63b8ff" points="156.33,-253.68 166.73,-251.65 157.34,-246.75 156.33,-253.68"/>
</a>
</g>
</g>
<!-- Node9 -->
<g id="Node000009" class="node">
<title>Node9</title>
<g id="a_Node000009"><a xlink:href="classzero__mate_1_1arm1176jzf__s_1_1CCPU__Core.html#a524d4d2622a78e1c416bf4528700bc00" target="_top" xlink:title="Executes a block data transfer instruction.">
<polygon fill="white" stroke="#666666" points="479.5,-222 347.5,-222 347.5,-192 479.5,-192 479.5,-222"/>
<text text-anchor="start" x="355.5" y="-210" font-family="Helvetica,sans-Serif" font-size="10.00">zero_mate::arm1176jzf</text>
<text text-anchor="middle" x="413.5" y="-199" font-family="Helvetica,sans-Serif" font-size="10.00">_s::CCPU_Core::Execute</text>
</a>
</g>
</g>
<!-- Node8&#45;&gt;Node9 -->
<g id="edge8_Node000008_Node000009" class="edge">
<title>Node8&#45;&gt;Node9</title>
<g id="a_edge8_Node000008_Node000009"><a xlink:title=" ">
<path fill="none" stroke="#63b8ff" d="M563.46,-154.32C542.46,-163.54 516.62,-174.4 493,-183 484.56,-186.07 475.53,-189.09 466.69,-191.88"/>
<polygon fill="#63b8ff" stroke="#63b8ff" points="565.01,-157.46 572.74,-150.22 562.18,-151.06 565.01,-157.46"/>
</a>
</g>
</g>
<!-- Node10 -->
<g id="Node000010" class="node">
<title>Node10</title>
<g id="a_Node000010"><a xlink:href="classzero__mate_1_1arm1176jzf__s_1_1CCPU__Core.html#acd8902811a86afabf464f121d58628ee" target="_top" xlink:title="Executes a CPS instruction.">
<polygon fill="white" stroke="#666666" points="479.5,-174 347.5,-174 347.5,-144 479.5,-144 479.5,-174"/>
<text text-anchor="start" x="355.5" y="-162" font-family="Helvetica,sans-Serif" font-size="10.00">zero_mate::arm1176jzf</text>
<text text-anchor="middle" x="413.5" y="-151" font-family="Helvetica,sans-Serif" font-size="10.00">_s::CCPU_Core::Execute</text>
</a>
</g>
</g>
<!-- Node8&#45;&gt;Node10 -->
<g id="edge9_Node000008_Node000010" class="edge">
<title>Node8&#45;&gt;Node10</title>
<g id="a_edge9_Node000008_Node000010"><a xlink:title=" ">
<path fill="none" stroke="#63b8ff" d="M518.92,-145.91C505.74,-147.57 492.33,-149.25 479.72,-150.83"/>
<polygon fill="#63b8ff" stroke="#63b8ff" points="519.45,-149.37 528.94,-144.66 518.58,-142.43 519.45,-149.37"/>
</a>
</g>
</g>
<!-- Node11 -->
<g id="Node000011" class="node">
<title>Node11</title>
<g id="a_Node000011"><a xlink:href="classzero__mate_1_1arm1176jzf__s_1_1CCPU__Core.html#a92c997ad914fb73cec7feb5fa26d8ead" target="_top" xlink:title="Executes a data processing instruction.">
<polygon fill="white" stroke="#666666" points="479.5,-126 347.5,-126 347.5,-96 479.5,-96 479.5,-126"/>
<text text-anchor="start" x="355.5" y="-114" font-family="Helvetica,sans-Serif" font-size="10.00">zero_mate::arm1176jzf</text>
<text text-anchor="middle" x="413.5" y="-103" font-family="Helvetica,sans-Serif" font-size="10.00">_s::CCPU_Core::Execute</text>
</a>
</g>
</g>
<!-- Node8&#45;&gt;Node11 -->
<g id="edge10_Node000008_Node000011" class="edge">
<title>Node8&#45;&gt;Node11</title>
<g id="a_edge10_Node000008_Node000011"><a xlink:title=" ">
<path fill="none" stroke="#63b8ff" d="M518.92,-124.09C505.74,-122.43 492.33,-120.75 479.72,-119.17"/>
<polygon fill="#63b8ff" stroke="#63b8ff" points="518.58,-127.57 528.94,-125.34 519.45,-120.63 518.58,-127.57"/>
</a>
</g>
</g>
<!-- Node12 -->
<g id="Node000012" class="node">
<title>Node12</title>
<g id="a_Node000012"><a xlink:href="classzero__mate_1_1arm1176jzf__s_1_1CCPU__Core.html#a28607032a48bea557d81eec0460f4aa6" target="_top" xlink:title="Executes an RFE instruction.">
<polygon fill="white" stroke="#666666" points="479.5,-78 347.5,-78 347.5,-48 479.5,-48 479.5,-78"/>
<text text-anchor="start" x="355.5" y="-66" font-family="Helvetica,sans-Serif" font-size="10.00">zero_mate::arm1176jzf</text>
<text text-anchor="middle" x="413.5" y="-55" font-family="Helvetica,sans-Serif" font-size="10.00">_s::CCPU_Core::Execute</text>
</a>
</g>
</g>
<!-- Node8&#45;&gt;Node12 -->
<g id="edge11_Node000008_Node000012" class="edge">
<title>Node8&#45;&gt;Node12</title>
<g id="a_edge11_Node000008_Node000012"><a xlink:title=" ">
<path fill="none" stroke="#63b8ff" d="M563.46,-115.68C542.46,-106.46 516.62,-95.6 493,-87 484.56,-83.93 475.53,-80.91 466.69,-78.12"/>
<polygon fill="#63b8ff" stroke="#63b8ff" points="562.18,-118.94 572.74,-119.78 565.01,-112.54 562.18,-118.94"/>
</a>
</g>
</g>
<!-- Node13 -->
<g id="Node000013" class="node">
<title>Node13</title>
<g id="a_Node000013"><a xlink:href="classzero__mate_1_1arm1176jzf__s_1_1CCPU__Core.html#abe7461d09a52f28f99037717f61975c6" target="_top" xlink:title="Executes an MSR instruction (move data to CPSR/SPSR from an ARM register).">
<polygon fill="white" stroke="#666666" points="493,-30 334,-30 334,0 493,0 493,-30"/>
<text text-anchor="start" x="342" y="-18" font-family="Helvetica,sans-Serif" font-size="10.00">zero_mate::arm1176jzf</text>
<text text-anchor="middle" x="413.5" y="-7" font-family="Helvetica,sans-Serif" font-size="10.00">_s::CCPU_Core::Execute_MSR</text>
</a>
</g>
</g>
<!-- Node8&#45;&gt;Node13 -->
<g id="edge12_Node000008_Node000013" class="edge">
<title>Node8&#45;&gt;Node13</title>
<g id="a_edge12_Node000008_Node000013"><a xlink:title=" ">
<path fill="none" stroke="#63b8ff" d="M584.9,-112.36C563.6,-90.73 528.8,-58.58 493,-39 486.87,-35.65 480.22,-32.7 473.46,-30.13"/>
<polygon fill="#63b8ff" stroke="#63b8ff" points="582.65,-115.07 592.12,-119.82 587.68,-110.2 582.65,-115.07"/>
</a>
</g>
</g>
<!-- Node14 -->
<g id="Node000014" class="node">
<title>Node14</title>
<g id="a_Node000014"><a xlink:href="classzero__mate_1_1arm1176jzf__s_1_1CCPU__Core.html#a3a90c040b3cbe4545a9acc5e35acdd45" target="_top" xlink:title="Executes a PSR transfer instruction.">
<polygon fill="white" stroke="#666666" points="298,-30 166,-30 166,0 298,0 298,-30"/>
<text text-anchor="start" x="174" y="-18" font-family="Helvetica,sans-Serif" font-size="10.00">zero_mate::arm1176jzf</text>
<text text-anchor="middle" x="232" y="-7" font-family="Helvetica,sans-Serif" font-size="10.00">_s::CCPU_Core::Execute</text>
</a>
</g>
</g>
<!-- Node13&#45;&gt;Node14 -->
<g id="edge13_Node000013_Node000014" class="edge">
<title>Node13&#45;&gt;Node14</title>
<g id="a_edge13_Node000013_Node000014"><a xlink:title=" ">
<path fill="none" stroke="#63b8ff" d="M323.71,-15C315.12,-15 306.52,-15 298.23,-15"/>
<polygon fill="#63b8ff" stroke="#63b8ff" points="323.77,-18.5 333.77,-15 323.77,-11.5 323.77,-18.5"/>
</a>
</g>
</g>
</g>
</svg>
