<?xml version="1.0" encoding="UTF-8" standalone="no"?>
<!DOCTYPE svg PUBLIC "-//W3C//DTD SVG 1.1//EN"
 "http://www.w3.org/Graphics/SVG/1.1/DTD/svg11.dtd">
<!-- Generated by graphviz version 2.43.0 (0)
 -->
<!-- Title: zero_mate::arm1176jzf_s::CCPU_Core Pages: 1 -->
<svg width="713pt" height="181pt"
 viewBox="0.00 0.00 713.00 181.00" xmlns="http://www.w3.org/2000/svg" xmlns:xlink="http://www.w3.org/1999/xlink">
<g id="graph0" class="graph" transform="scale(1 1) rotate(0) translate(4 177)">
<title>zero_mate::arm1176jzf_s::CCPU_Core</title>
<!-- Node1 -->
<g id="Node000001" class="node">
<title>Node1</title>
<g id="a_Node000001"><a xlink:title="Raspberry Pi Zero CPU core (arm1176jzf_s).">
<polygon fill="#999999" stroke="#666666" points="705,-115 575,-115 575,-85 705,-85 705,-115"/>
<text text-anchor="start" x="583" y="-103" font-family="Helvetica,sans-Serif" font-size="10.00">zero_mate::arm1176jzf</text>
<text text-anchor="middle" x="640" y="-92" font-family="Helvetica,sans-Serif" font-size="10.00">_s::CCPU_Core</text>
</a>
</g>
</g>
<!-- Node2 -->
<g id="Node000002" class="node">
<title>Node2</title>
<g id="a_Node000002"><a xlink:title=" ">
<polygon fill="white" stroke="#666666" points="424,-173 278,-173 278,-143 424,-143 424,-173"/>
<text text-anchor="start" x="286" y="-161" font-family="Helvetica,sans-Serif" font-size="10.00">std::enable_shared</text>
<text text-anchor="middle" x="351" y="-150" font-family="Helvetica,sans-Serif" font-size="10.00">_from_this&lt; CCPU_Core &gt;</text>
</a>
</g>
</g>
<!-- Node2&#45;&gt;Node1 -->
<g id="edge1_Node000001_Node000002" class="edge">
<title>Node2&#45;&gt;Node1</title>
<g id="a_edge1_Node000001_Node000002"><a xlink:title=" ">
<path fill="none" stroke="#63b8ff" d="M434.18,-149.48C471.9,-144.67 517.04,-137.66 557,-128 571.18,-124.57 586.39,-119.72 599.81,-115.02"/>
<polygon fill="#63b8ff" stroke="#63b8ff" points="433.74,-146.01 424.25,-150.71 434.6,-152.95 433.74,-146.01"/>
</a>
</g>
</g>
<!-- Node3 -->
<g id="Node000003" class="node">
<title>Node3</title>
<g id="a_Node000003"><a xlink:href="classzero__mate_1_1arm1176jzf__s_1_1CCPU__Context.html" target="_top" xlink:title="This class represents the context (registers) of the CPU.">
<polygon fill="white" stroke="#666666" points="416,-78 286,-78 286,-48 416,-48 416,-78"/>
<text text-anchor="start" x="294" y="-66" font-family="Helvetica,sans-Serif" font-size="10.00">zero_mate::arm1176jzf</text>
<text text-anchor="middle" x="351" y="-55" font-family="Helvetica,sans-Serif" font-size="10.00">_s::CCPU_Context</text>
</a>
</g>
</g>
<!-- Node3&#45;&gt;Node1 -->
<g id="edge2_Node000001_Node000003" class="edge">
<title>Node3&#45;&gt;Node1</title>
<g id="a_edge2_Node000001_Node000003"><a xlink:title=" ">
<path fill="none" stroke="#9a32cd" stroke-dasharray="5,2" d="M426.38,-72.3C465.3,-77.2 513.73,-83.35 557,-89 562.84,-89.76 568.91,-90.56 574.99,-91.37"/>
<polygon fill="#9a32cd" stroke="#9a32cd" points="426.55,-68.8 416.19,-71.02 425.67,-75.74 426.55,-68.8"/>
</a>
</g>
<text text-anchor="middle" x="499.5" y="-92" font-family="Helvetica,sans-Serif" font-size="10.00" fill="grey"> m_context</text>
</g>
<!-- Node4 -->
<g id="Node000004" class="node">
<title>Node4</title>
<g id="a_Node000004"><a xlink:href="classzero__mate_1_1utils_1_1CLogging__System.html" target="_top" xlink:title="This class defines a logging system that is used throughout the project.">
<polygon fill="white" stroke="#666666" points="146,-109 0,-109 0,-79 146,-79 146,-109"/>
<text text-anchor="start" x="8" y="-97" font-family="Helvetica,sans-Serif" font-size="10.00">zero_mate::utils::CLogging</text>
<text text-anchor="middle" x="73" y="-86" font-family="Helvetica,sans-Serif" font-size="10.00">_System</text>
</a>
</g>
</g>
<!-- Node4&#45;&gt;Node1 -->
<g id="edge5_Node000001_Node000004" class="edge">
<title>Node4&#45;&gt;Node1</title>
<g id="a_edge5_Node000001_Node000004"><a xlink:title=" ">
<path fill="none" stroke="#9a32cd" stroke-dasharray="5,2" d="M156.3,-97.78C158.9,-97.86 161.47,-97.93 164,-98 310.95,-101.79 483.55,-101.27 574.83,-100.61"/>
<polygon fill="#9a32cd" stroke="#9a32cd" points="156.31,-94.28 146.2,-97.45 156.08,-101.28 156.31,-94.28"/>
</a>
</g>
<text text-anchor="middle" x="351" y="-104" font-family="Helvetica,sans-Serif" font-size="10.00" fill="grey"> m_logging_system</text>
</g>
<!-- Node4&#45;&gt;Node3 -->
<g id="edge3_Node000003_Node000004" class="edge">
<title>Node4&#45;&gt;Node3</title>
<g id="a_edge3_Node000003_Node000004"><a xlink:title=" ">
<path fill="none" stroke="#9a32cd" stroke-dasharray="5,2" d="M156.23,-84.76C197.68,-80.11 247.19,-74.55 285.8,-70.21"/>
<polygon fill="#9a32cd" stroke="#9a32cd" points="155.7,-81.3 146.16,-85.9 156.48,-88.26 155.7,-81.3"/>
</a>
</g>
<text text-anchor="middle" x="212" y="-86" font-family="Helvetica,sans-Serif" font-size="10.00" fill="grey"> m_logging_system</text>
</g>
<!-- Node5 -->
<g id="Node000005" class="node">
<title>Node5</title>
<g id="a_Node000005"><a xlink:href="classzero__mate_1_1arm1176jzf__s_1_1isa_1_1CISA__Decoder.html" target="_top" xlink:title="This class represents an instruction decoder.">
<polygon fill="white" stroke="#666666" points="416,-30 286,-30 286,0 416,0 416,-30"/>
<text text-anchor="start" x="294" y="-18" font-family="Helvetica,sans-Serif" font-size="10.00">zero_mate::arm1176jzf</text>
<text text-anchor="middle" x="351" y="-7" font-family="Helvetica,sans-Serif" font-size="10.00">_s::isa::CISA_Decoder</text>
</a>
</g>
</g>
<!-- Node5&#45;&gt;Node1 -->
<g id="edge4_Node000001_Node000005" class="edge">
<title>Node5&#45;&gt;Node1</title>
<g id="a_edge4_Node000001_Node000005"><a xlink:title=" ">
<path fill="none" stroke="#9a32cd" stroke-dasharray="5,2" d="M426.48,-26.32C465.93,-33.47 514.82,-44.2 557,-59 576.52,-65.85 597.36,-76.32 613.15,-84.96"/>
<polygon fill="#9a32cd" stroke="#9a32cd" points="426.86,-22.83 416.4,-24.53 425.63,-29.72 426.86,-22.83"/>
</a>
</g>
<text text-anchor="middle" x="499.5" y="-62" font-family="Helvetica,sans-Serif" font-size="10.00" fill="grey"> m_instruction_decoder</text>
</g>
</g>
</svg>
