<?xml version="1.0" encoding="UTF-8" standalone="no"?>
<!DOCTYPE svg PUBLIC "-//W3C//DTD SVG 1.1//EN"
 "http://www.w3.org/Graphics/SVG/1.1/DTD/svg11.dtd">
<!-- Generated by graphviz version 2.43.0 (0)
 -->
<!-- Title: zero_mate::peripheral::CGPIO_Manager Pages: 1 -->
<svg width="296pt" height="115pt"
 viewBox="0.00 0.00 296.00 115.00" xmlns="http://www.w3.org/2000/svg" xmlns:xlink="http://www.w3.org/1999/xlink">
<g id="graph0" class="graph" transform="scale(1 1) rotate(0) translate(4 111)">
<title>zero_mate::peripheral::CGPIO_Manager</title>
<!-- Node1 -->
<g id="Node000001" class="node">
<title>Node1</title>
<g id="a_Node000001"><a xlink:title="This class represents a GPIO (general&#45;purpose I/O) manager.">
<polygon fill="#999999" stroke="#666666" points="200,-30 76,-30 76,0 200,0 200,-30"/>
<text text-anchor="start" x="84" y="-18" font-family="Helvetica,sans-Serif" font-size="10.00">zero_mate::peripheral</text>
<text text-anchor="middle" x="138" y="-7" font-family="Helvetica,sans-Serif" font-size="10.00">::CGPIO_Manager</text>
</a>
</g>
</g>
<!-- Node2 -->
<g id="Node000002" class="node">
<title>Node2</title>
<g id="a_Node000002"><a xlink:href="classzero__mate_1_1peripheral_1_1IPeripheral.html" target="_top" xlink:title="This class represents a general interface of a memory&#45;mapped peripheral.">
<polygon fill="white" stroke="#666666" points="124,-107 0,-107 0,-77 124,-77 124,-107"/>
<text text-anchor="start" x="8" y="-95" font-family="Helvetica,sans-Serif" font-size="10.00">zero_mate::peripheral</text>
<text text-anchor="middle" x="62" y="-84" font-family="Helvetica,sans-Serif" font-size="10.00">::IPeripheral</text>
</a>
</g>
</g>
<!-- Node2&#45;&gt;Node1 -->
<g id="edge1_Node000001_Node000002" class="edge">
<title>Node2&#45;&gt;Node1</title>
<g id="a_edge1_Node000001_Node000002"><a xlink:title=" ">
<path fill="none" stroke="#63b8ff" d="M83.47,-69.82C96.37,-57.08 112.43,-41.24 123.77,-30.04"/>
<polygon fill="#63b8ff" stroke="#63b8ff" points="80.95,-67.38 76.3,-76.89 85.87,-72.36 80.95,-67.38"/>
</a>
</g>
</g>
<!-- Node3 -->
<g id="Node000003" class="node">
<title>Node3</title>
<g id="a_Node000003"><a xlink:href="classzero__mate_1_1utils_1_1CLogging__System.html" target="_top" xlink:title="This class defines a logging system that is used throughout the project.">
<polygon fill="white" stroke="#666666" points="288,-107 142,-107 142,-77 288,-77 288,-107"/>
<text text-anchor="start" x="150" y="-95" font-family="Helvetica,sans-Serif" font-size="10.00">zero_mate::utils::CLogging</text>
<text text-anchor="middle" x="215" y="-84" font-family="Helvetica,sans-Serif" font-size="10.00">_System</text>
</a>
</g>
</g>
<!-- Node3&#45;&gt;Node1 -->
<g id="edge2_Node000001_Node000003" class="edge">
<title>Node3&#45;&gt;Node1</title>
<g id="a_edge2_Node000001_Node000003"><a xlink:title=" ">
<path fill="none" stroke="#9a32cd" stroke-dasharray="5,2" d="M193.25,-69.82C180.18,-57.08 163.91,-41.24 152.42,-30.04"/>
<polygon fill="#9a32cd" stroke="#9a32cd" points="190.91,-72.42 200.52,-76.89 195.8,-67.41 190.91,-72.42"/>
</a>
</g>
<text text-anchor="middle" x="230" y="-51" font-family="Helvetica,sans-Serif" font-size="10.00" fill="grey"> m_logging_system</text>
</g>
</g>
</svg>
