<?xml version="1.0" encoding="UTF-8" standalone="no"?>
<!DOCTYPE svg PUBLIC "-//W3C//DTD SVG 1.1//EN"
 "http://www.w3.org/Graphics/SVG/1.1/DTD/svg11.dtd">
<!-- Generated by graphviz version 2.43.0 (0)
 -->
<!-- Title: zero_mate::arm1176jzf_s::CCPU_Context::Get_SPSR Pages: 1 -->
<svg width="960pt" height="284pt"
 viewBox="0.00 0.00 960.00 283.50" xmlns="http://www.w3.org/2000/svg" xmlns:xlink="http://www.w3.org/1999/xlink">
<g id="graph0" class="graph" transform="scale(1 1) rotate(0) translate(4 279.5)">
<title>zero_mate::arm1176jzf_s::CCPU_Context::Get_SPSR</title>
<!-- Node1 -->
<g id="Node000001" class="node">
<title>Node1</title>
<g id="a_Node000001"><a xlink:title="Returns the value of the SPSR register of the current CPU mode.">
<polygon fill="#999999" stroke="#666666" points="952,-155.5 795,-155.5 795,-125.5 952,-125.5 952,-155.5"/>
<text text-anchor="start" x="803" y="-143.5" font-family="Helvetica,sans-Serif" font-size="10.00">zero_mate::arm1176jzf</text>
<text text-anchor="middle" x="873.5" y="-132.5" font-family="Helvetica,sans-Serif" font-size="10.00">_s::CCPU_Context::Get_SPSR</text>
</a>
</g>
</g>
<!-- Node2 -->
<g id="Node000002" class="node">
<title>Node2</title>
<g id="a_Node000002"><a xlink:href="classzero__mate_1_1arm1176jzf__s_1_1CCPU__Core.html#a524d4d2622a78e1c416bf4528700bc00" target="_top" xlink:title="Executes a block data transfer instruction.">
<polygon fill="white" stroke="#666666" points="734,-275.5 602,-275.5 602,-245.5 734,-245.5 734,-275.5"/>
<text text-anchor="start" x="610" y="-263.5" font-family="Helvetica,sans-Serif" font-size="10.00">zero_mate::arm1176jzf</text>
<text text-anchor="middle" x="668" y="-252.5" font-family="Helvetica,sans-Serif" font-size="10.00">_s::CCPU_Core::Execute</text>
</a>
</g>
</g>
<!-- Node1&#45;&gt;Node2 -->
<g id="edge1_Node000001_Node000002" class="edge">
<title>Node1&#45;&gt;Node2</title>
<g id="a_edge1_Node000001_Node000002"><a xlink:title=" ">
<path fill="none" stroke="#63b8ff" d="M852.08,-162.76C830.84,-184.61 795.63,-217.37 759,-236.5 751.26,-240.54 742.78,-243.95 734.22,-246.8"/>
<polygon fill="#63b8ff" stroke="#63b8ff" points="854.61,-165.18 858.99,-155.53 849.55,-160.34 854.61,-165.18"/>
</a>
</g>
</g>
<!-- Node3 -->
<g id="Node000003" class="node">
<title>Node3</title>
<g id="a_Node000003"><a xlink:href="classzero__mate_1_1arm1176jzf__s_1_1CCPU__Core.html#a92c997ad914fb73cec7feb5fa26d8ead" target="_top" xlink:title="Executes a data processing instruction.">
<polygon fill="white" stroke="#666666" points="734,-227.5 602,-227.5 602,-197.5 734,-197.5 734,-227.5"/>
<text text-anchor="start" x="610" y="-215.5" font-family="Helvetica,sans-Serif" font-size="10.00">zero_mate::arm1176jzf</text>
<text text-anchor="middle" x="668" y="-204.5" font-family="Helvetica,sans-Serif" font-size="10.00">_s::CCPU_Core::Execute</text>
</a>
</g>
</g>
<!-- Node1&#45;&gt;Node3 -->
<g id="edge2_Node000001_Node000003" class="edge">
<title>Node1&#45;&gt;Node3</title>
<g id="a_edge2_Node000001_Node000003"><a xlink:title=" ">
<path fill="none" stroke="#63b8ff" d="M830.82,-159.77C809.6,-169.17 783.22,-180.19 759,-188.5 749.82,-191.65 740,-194.64 730.35,-197.37"/>
<polygon fill="#63b8ff" stroke="#63b8ff" points="832.49,-162.86 840.19,-155.59 829.63,-156.47 832.49,-162.86"/>
</a>
</g>
</g>
<!-- Node4 -->
<g id="Node000004" class="node">
<title>Node4</title>
<g id="a_Node000004"><a xlink:href="classzero__mate_1_1arm1176jzf__s_1_1CCPU__Core.html#aa96f69190ff05fe80c310e85b4d1002c" target="_top" xlink:title="Executes an SRS instruction.">
<polygon fill="white" stroke="#666666" points="734,-179.5 602,-179.5 602,-149.5 734,-149.5 734,-179.5"/>
<text text-anchor="start" x="610" y="-167.5" font-family="Helvetica,sans-Serif" font-size="10.00">zero_mate::arm1176jzf</text>
<text text-anchor="middle" x="668" y="-156.5" font-family="Helvetica,sans-Serif" font-size="10.00">_s::CCPU_Core::Execute</text>
</a>
</g>
</g>
<!-- Node1&#45;&gt;Node4 -->
<g id="edge3_Node000001_Node000004" class="edge">
<title>Node1&#45;&gt;Node4</title>
<g id="a_edge3_Node000001_Node000004"><a xlink:title=" ">
<path fill="none" stroke="#63b8ff" d="M785,-150.82C767.9,-152.84 750.25,-154.92 734.04,-156.83"/>
<polygon fill="#63b8ff" stroke="#63b8ff" points="785.46,-154.29 794.98,-149.64 784.64,-147.34 785.46,-154.29"/>
</a>
</g>
</g>
<!-- Node5 -->
<g id="Node000005" class="node">
<title>Node5</title>
<g id="a_Node000005"><a xlink:href="classzero__mate_1_1arm1176jzf__s_1_1CCPU__Core.html#a82f0fa55ec787c7a39bac81b7437aec2" target="_top" xlink:title="Executes an MRS instruction (move data from CPSR/SPSR to an ARM register).">
<polygon fill="white" stroke="#666666" points="747.5,-131.5 588.5,-131.5 588.5,-101.5 747.5,-101.5 747.5,-131.5"/>
<text text-anchor="start" x="596.5" y="-119.5" font-family="Helvetica,sans-Serif" font-size="10.00">zero_mate::arm1176jzf</text>
<text text-anchor="middle" x="668" y="-108.5" font-family="Helvetica,sans-Serif" font-size="10.00">_s::CCPU_Core::Execute_MRS</text>
</a>
</g>
</g>
<!-- Node1&#45;&gt;Node5 -->
<g id="edge4_Node000001_Node000005" class="edge">
<title>Node1&#45;&gt;Node5</title>
<g id="a_edge4_Node000001_Node000005"><a xlink:title=" ">
<path fill="none" stroke="#63b8ff" d="M784.71,-130.15C772.39,-128.69 759.79,-127.21 747.65,-125.78"/>
<polygon fill="#63b8ff" stroke="#63b8ff" points="784.64,-133.66 794.98,-131.36 785.46,-126.71 784.64,-133.66"/>
</a>
</g>
</g>
<!-- Node7 -->
<g id="Node000007" class="node">
<title>Node7</title>
<g id="a_Node000007"><a xlink:href="classzero__mate_1_1arm1176jzf__s_1_1CCPU__Core.html#abe7461d09a52f28f99037717f61975c6" target="_top" xlink:title="Executes an MSR instruction (move data to CPSR/SPSR from an ARM register).">
<polygon fill="white" stroke="#666666" points="747.5,-83.5 588.5,-83.5 588.5,-53.5 747.5,-53.5 747.5,-83.5"/>
<text text-anchor="start" x="596.5" y="-71.5" font-family="Helvetica,sans-Serif" font-size="10.00">zero_mate::arm1176jzf</text>
<text text-anchor="middle" x="668" y="-60.5" font-family="Helvetica,sans-Serif" font-size="10.00">_s::CCPU_Core::Execute_MSR</text>
</a>
</g>
</g>
<!-- Node1&#45;&gt;Node7 -->
<g id="edge6_Node000001_Node000007" class="edge">
<title>Node1&#45;&gt;Node7</title>
<g id="a_edge6_Node000001_Node000007"><a xlink:title=" ">
<path fill="none" stroke="#63b8ff" d="M830.82,-121.23C809.6,-111.83 783.22,-100.81 759,-92.5 749.82,-89.35 740,-86.36 730.35,-83.63"/>
<polygon fill="#63b8ff" stroke="#63b8ff" points="829.63,-124.53 840.19,-125.41 832.49,-118.14 829.63,-124.53"/>
</a>
</g>
</g>
<!-- Node8 -->
<g id="Node000008" class="node">
<title>Node8</title>
<g id="a_Node000008"><a xlink:href="classzero__mate_1_1gui_1_1CRegisters__Window.html#a1779ad3caf45c3e8dd342ef8057dfff7" target="_top" xlink:title="Renders table with CPU registers of a given CPU mode.">
<polygon fill="white" stroke="#666666" points="759,-35.5 577,-35.5 577,-5.5 759,-5.5 759,-35.5"/>
<text text-anchor="start" x="585" y="-23.5" font-family="Helvetica,sans-Serif" font-size="10.00">zero_mate::gui::CRegisters</text>
<text text-anchor="middle" x="668" y="-12.5" font-family="Helvetica,sans-Serif" font-size="10.00">_Window::Render_Registers_Table</text>
</a>
</g>
</g>
<!-- Node1&#45;&gt;Node8 -->
<g id="edge8_Node000001_Node000008" class="edge">
<title>Node1&#45;&gt;Node8</title>
<g id="a_edge8_Node000001_Node000008"><a xlink:title=" ">
<path fill="none" stroke="#63b8ff" d="M852.08,-118.24C830.84,-96.39 795.63,-63.63 759,-44.5 752.41,-41.06 745.28,-38.08 738.02,-35.5"/>
<polygon fill="#63b8ff" stroke="#63b8ff" points="849.55,-120.66 858.99,-125.47 854.61,-115.82 849.55,-120.66"/>
</a>
</g>
</g>
<!-- Node6 -->
<g id="Node000006" class="node">
<title>Node6</title>
<g id="a_Node000006"><a xlink:href="classzero__mate_1_1arm1176jzf__s_1_1CCPU__Core.html#a3a90c040b3cbe4545a9acc5e35acdd45" target="_top" xlink:title="Executes a PSR transfer instruction.">
<polygon fill="white" stroke="#666666" points="520.5,-107.5 388.5,-107.5 388.5,-77.5 520.5,-77.5 520.5,-107.5"/>
<text text-anchor="start" x="396.5" y="-95.5" font-family="Helvetica,sans-Serif" font-size="10.00">zero_mate::arm1176jzf</text>
<text text-anchor="middle" x="454.5" y="-84.5" font-family="Helvetica,sans-Serif" font-size="10.00">_s::CCPU_Core::Execute</text>
</a>
</g>
</g>
<!-- Node5&#45;&gt;Node6 -->
<g id="edge5_Node000005_Node000006" class="edge">
<title>Node5&#45;&gt;Node6</title>
<g id="a_edge5_Node000005_Node000006"><a xlink:title=" ">
<path fill="none" stroke="#63b8ff" d="M578.26,-106.43C559.01,-104.25 538.99,-101.97 520.83,-99.91"/>
<polygon fill="#63b8ff" stroke="#63b8ff" points="577.91,-109.91 588.25,-107.56 578.7,-102.96 577.91,-109.91"/>
</a>
</g>
</g>
<!-- Node7&#45;&gt;Node6 -->
<g id="edge7_Node000007_Node000006" class="edge">
<title>Node7&#45;&gt;Node6</title>
<g id="a_edge7_Node000007_Node000006"><a xlink:title=" ">
<path fill="none" stroke="#63b8ff" d="M578.26,-78.57C559.01,-80.75 538.99,-83.03 520.83,-85.09"/>
<polygon fill="#63b8ff" stroke="#63b8ff" points="578.7,-82.04 588.25,-77.44 577.91,-75.09 578.7,-82.04"/>
</a>
</g>
</g>
<!-- Node9 -->
<g id="Node000009" class="node">
<title>Node9</title>
<g id="a_Node000009"><a xlink:href="classzero__mate_1_1gui_1_1CRegisters__Window.html#a25928c2ab0086154b73843f84a831953" target="_top" xlink:title="Renders different format tabs of a given CPU mode.">
<polygon fill="white" stroke="#666666" points="541,-35.5 368,-35.5 368,-5.5 541,-5.5 541,-35.5"/>
<text text-anchor="start" x="376" y="-23.5" font-family="Helvetica,sans-Serif" font-size="10.00">zero_mate::gui::CRegisters</text>
<text text-anchor="middle" x="454.5" y="-12.5" font-family="Helvetica,sans-Serif" font-size="10.00">_Window::Render_Register_Tabs</text>
</a>
</g>
</g>
<!-- Node8&#45;&gt;Node9 -->
<g id="edge9_Node000008_Node000009" class="edge">
<title>Node8&#45;&gt;Node9</title>
<g id="a_edge9_Node000008_Node000009"><a xlink:title=" ">
<path fill="none" stroke="#63b8ff" d="M566.89,-20.5C558.25,-20.5 549.56,-20.5 541.05,-20.5"/>
<polygon fill="#63b8ff" stroke="#63b8ff" points="567,-24 577,-20.5 567,-17 567,-24"/>
</a>
</g>
</g>
<!-- Node10 -->
<g id="Node000010" class="node">
<title>Node10</title>
<g id="a_Node000010"><a xlink:href="classzero__mate_1_1gui_1_1CRegisters__Window.html#ac9b00209a3db86452bf51d8f4c9dbf72" target="_top" xlink:title="Renders tabs for different CPU modes (SVC, IRQ, FIQ, etc.)">
<polygon fill="white" stroke="#666666" points="332,-41 184,-41 184,0 332,0 332,-41"/>
<text text-anchor="start" x="192" y="-29" font-family="Helvetica,sans-Serif" font-size="10.00">zero_mate::gui::CRegisters</text>
<text text-anchor="start" x="192" y="-18" font-family="Helvetica,sans-Serif" font-size="10.00">_Window::Render_Register</text>
<text text-anchor="middle" x="258" y="-7" font-family="Helvetica,sans-Serif" font-size="10.00">_Modes_Tabs</text>
</a>
</g>
</g>
<!-- Node9&#45;&gt;Node10 -->
<g id="edge10_Node000009_Node000010" class="edge">
<title>Node9&#45;&gt;Node10</title>
<g id="a_edge10_Node000009_Node000010"><a xlink:title=" ">
<path fill="none" stroke="#63b8ff" d="M357.81,-20.5C349.18,-20.5 340.54,-20.5 332.15,-20.5"/>
<polygon fill="#63b8ff" stroke="#63b8ff" points="357.91,-24 367.91,-20.5 357.91,-17 357.91,-24"/>
</a>
</g>
</g>
<!-- Node11 -->
<g id="Node000011" class="node">
<title>Node11</title>
<g id="a_Node000011"><a xlink:href="classzero__mate_1_1gui_1_1CRegisters__Window.html#a12beb19205052a340193be90b32e5717" target="_top" xlink:title="Renders the windows (IGUI_Window interface).">
<polygon fill="white" stroke="#666666" points="148,-35.5 0,-35.5 0,-5.5 148,-5.5 148,-35.5"/>
<text text-anchor="start" x="8" y="-23.5" font-family="Helvetica,sans-Serif" font-size="10.00">zero_mate::gui::CRegisters</text>
<text text-anchor="middle" x="74" y="-12.5" font-family="Helvetica,sans-Serif" font-size="10.00">_Window::Render</text>
</a>
</g>
</g>
<!-- Node10&#45;&gt;Node11 -->
<g id="edge11_Node000010_Node000011" class="edge">
<title>Node10&#45;&gt;Node11</title>
<g id="a_edge11_Node000010_Node000011"><a xlink:title=" ">
<path fill="none" stroke="#63b8ff" d="M173.48,-20.5C165.01,-20.5 156.44,-20.5 148.09,-20.5"/>
<polygon fill="#63b8ff" stroke="#63b8ff" points="173.76,-24 183.76,-20.5 173.76,-17 173.76,-24"/>
</a>
</g>
</g>
</g>
</svg>
