<?xml version="1.0" encoding="UTF-8" standalone="no"?>
<!DOCTYPE svg PUBLIC "-//W3C//DTD SVG 1.1//EN"
 "http://www.w3.org/Graphics/SVG/1.1/DTD/svg11.dtd">
<!-- Generated by graphviz version 2.43.0 (0)
 -->
<!-- Title: zero_mate::coprocessor::cp10::CFPSCR::Is_Flag_Set Pages: 1 -->
<svg width="496pt" height="86pt"
 viewBox="0.00 0.00 496.00 86.00" xmlns="http://www.w3.org/2000/svg" xmlns:xlink="http://www.w3.org/1999/xlink">
<g id="graph0" class="graph" transform="scale(1 1) rotate(0) translate(4 82)">
<title>zero_mate::coprocessor::cp10::CFPSCR::Is_Flag_Set</title>
<!-- Node1 -->
<g id="Node000001" class="node">
<title>Node1</title>
<g id="a_Node000001"><a xlink:title="Checks whether a given flag is set or not.">
<polygon fill="#999999" stroke="#666666" points="488,-54 336,-54 336,-24 488,-24 488,-54"/>
<text text-anchor="start" x="344" y="-42" font-family="Helvetica,sans-Serif" font-size="10.00">zero_mate::coprocessor</text>
<text text-anchor="middle" x="412" y="-31" font-family="Helvetica,sans-Serif" font-size="10.00">::cp10::CFPSCR::Is_Flag_Set</text>
</a>
</g>
</g>
<!-- Node2 -->
<g id="Node000002" class="node">
<title>Node2</title>
<g id="a_Node000002"><a xlink:href="classzero__mate_1_1coprocessor_1_1cp10_1_1CCP10.html#a86ffa2d30274ae4ebf55cf7e06447a8f" target="_top" xlink:title="Executes a VMRS floating point instruction.">
<polygon fill="white" stroke="#666666" points="298,-78 165,-78 165,-48 298,-48 298,-78"/>
<text text-anchor="start" x="173" y="-66" font-family="Helvetica,sans-Serif" font-size="10.00">zero_mate::coprocessor</text>
<text text-anchor="middle" x="231.5" y="-55" font-family="Helvetica,sans-Serif" font-size="10.00">::cp10::CCP10::Execute</text>
</a>
</g>
</g>
<!-- Node1&#45;&gt;Node2 -->
<g id="edge1_Node000001_Node000002" class="edge">
<title>Node1&#45;&gt;Node2</title>
<g id="a_edge1_Node000001_Node000002"><a xlink:title=" ">
<path fill="none" stroke="#63b8ff" d="M325.81,-50.45C316.55,-51.7 307.23,-52.95 298.25,-54.16"/>
<polygon fill="#63b8ff" stroke="#63b8ff" points="326.37,-53.91 335.82,-49.11 325.44,-46.97 326.37,-53.91"/>
</a>
</g>
</g>
<!-- Node3 -->
<g id="Node000003" class="node">
<title>Node3</title>
<g id="a_Node000003"><a xlink:href="classzero__mate_1_1gui_1_1CCP10__Window.html#ac90d2ac5479e7790de0ee116dce5c248" target="_top" xlink:title="Renders the flags in the FPSCR register.">
<polygon fill="white" stroke="#666666" points="300,-30 163,-30 163,0 300,0 300,-30"/>
<text text-anchor="start" x="171" y="-18" font-family="Helvetica,sans-Serif" font-size="10.00">zero_mate::gui::CCP10</text>
<text text-anchor="middle" x="231.5" y="-7" font-family="Helvetica,sans-Serif" font-size="10.00">_Window::Render_FPSCR</text>
</a>
</g>
</g>
<!-- Node1&#45;&gt;Node3 -->
<g id="edge2_Node000001_Node000003" class="edge">
<title>Node1&#45;&gt;Node3</title>
<g id="a_edge2_Node000001_Node000003"><a xlink:title=" ">
<path fill="none" stroke="#63b8ff" d="M325.79,-27.54C317.21,-26.39 308.58,-25.23 300.22,-24.1"/>
<polygon fill="#63b8ff" stroke="#63b8ff" points="325.44,-31.03 335.82,-28.89 326.37,-24.09 325.44,-31.03"/>
</a>
</g>
</g>
<!-- Node4 -->
<g id="Node000004" class="node">
<title>Node4</title>
<g id="a_Node000004"><a xlink:href="classzero__mate_1_1gui_1_1CCP10__Window.html#a6d34cb82a44d4329c61c0e40028c6a54" target="_top" xlink:title="Renders the window (IGUI_Window interface).">
<polygon fill="white" stroke="#666666" points="127,-30 0,-30 0,0 127,0 127,-30"/>
<text text-anchor="start" x="8" y="-18" font-family="Helvetica,sans-Serif" font-size="10.00">zero_mate::gui::CCP10</text>
<text text-anchor="middle" x="63.5" y="-7" font-family="Helvetica,sans-Serif" font-size="10.00">_Window::Render</text>
</a>
</g>
</g>
<!-- Node3&#45;&gt;Node4 -->
<g id="edge3_Node000003_Node000004" class="edge">
<title>Node3&#45;&gt;Node4</title>
<g id="a_edge3_Node000003_Node000004"><a xlink:title=" ">
<path fill="none" stroke="#63b8ff" d="M152.9,-15C144.27,-15 135.55,-15 127.14,-15"/>
<polygon fill="#63b8ff" stroke="#63b8ff" points="152.98,-18.5 162.98,-15 152.98,-11.5 152.98,-18.5"/>
</a>
</g>
</g>
</g>
</svg>
