<?xml version="1.0" encoding="UTF-8" standalone="no"?>
<!DOCTYPE svg PUBLIC "-//W3C//DTD SVG 1.1//EN"
 "http://www.w3.org/Graphics/SVG/1.1/DTD/svg11.dtd">
<!-- Generated by graphviz version 2.43.0 (0)
 -->
<!-- Title: zero_mate::gui::CCircular_Log_Buffer::Add Pages: 1 -->
<svg width="303pt" height="230pt"
 viewBox="0.00 0.00 303.00 230.00" xmlns="http://www.w3.org/2000/svg" xmlns:xlink="http://www.w3.org/1999/xlink">
<g id="graph0" class="graph" transform="scale(1 1) rotate(0) translate(4 226)">
<title>zero_mate::gui::CCircular_Log_Buffer::Add</title>
<!-- Node1 -->
<g id="Node000001" class="node">
<title>Node1</title>
<g id="a_Node000001"><a xlink:title="Adds a log message into the buffer.">
<polygon fill="#999999" stroke="#666666" points="295,-126 155,-126 155,-96 295,-96 295,-126"/>
<text text-anchor="start" x="163" y="-114" font-family="Helvetica,sans-Serif" font-size="10.00">zero_mate::gui::CCircular</text>
<text text-anchor="middle" x="225" y="-103" font-family="Helvetica,sans-Serif" font-size="10.00">_Log_Buffer::Add</text>
</a>
</g>
</g>
<!-- Node2 -->
<g id="Node000002" class="node">
<title>Node2</title>
<g id="a_Node000002"><a xlink:href="classzero__mate_1_1gui_1_1CLog__Window.html#a6b4f83e40bffb362563b26c9d806819c" target="_top" xlink:title="Logs a debug message (utils::ILogger interface).">
<polygon fill="white" stroke="#666666" points="119,-222 0,-222 0,-192 119,-192 119,-222"/>
<text text-anchor="start" x="8" y="-210" font-family="Helvetica,sans-Serif" font-size="10.00">zero_mate::gui::CLog</text>
<text text-anchor="middle" x="59.5" y="-199" font-family="Helvetica,sans-Serif" font-size="10.00">_Window::Debug</text>
</a>
</g>
</g>
<!-- Node1&#45;&gt;Node2 -->
<g id="edge1_Node000001_Node000002" class="edge">
<title>Node1&#45;&gt;Node2</title>
<g id="a_edge1_Node000001_Node000002"><a xlink:title=" ">
<path fill="none" stroke="#63b8ff" d="M196.67,-132.12C176.06,-147.45 146.69,-168.04 119,-183 113.11,-186.18 106.7,-189.21 100.36,-191.98"/>
<polygon fill="#63b8ff" stroke="#63b8ff" points="198.78,-134.92 204.67,-126.11 194.57,-129.32 198.78,-134.92"/>
</a>
</g>
</g>
<!-- Node3 -->
<g id="Node000003" class="node">
<title>Node3</title>
<g id="a_Node000003"><a xlink:href="classzero__mate_1_1gui_1_1CLog__Window.html#af9c372af23e3c9aacde724f08663cbed" target="_top" xlink:title="Logs an error message (utils::ILogger interface).">
<polygon fill="white" stroke="#666666" points="119,-174 0,-174 0,-144 119,-144 119,-174"/>
<text text-anchor="start" x="8" y="-162" font-family="Helvetica,sans-Serif" font-size="10.00">zero_mate::gui::CLog</text>
<text text-anchor="middle" x="59.5" y="-151" font-family="Helvetica,sans-Serif" font-size="10.00">_Window::Error</text>
</a>
</g>
</g>
<!-- Node1&#45;&gt;Node3 -->
<g id="edge2_Node000001_Node000003" class="edge">
<title>Node1&#45;&gt;Node3</title>
<g id="a_edge2_Node000001_Node000003"><a xlink:title=" ">
<path fill="none" stroke="#63b8ff" d="M162.94,-128.93C146.03,-133.89 127.87,-139.22 111.6,-144"/>
<polygon fill="#63b8ff" stroke="#63b8ff" points="164.11,-132.23 172.72,-126.06 162.14,-125.51 164.11,-132.23"/>
</a>
</g>
</g>
<!-- Node4 -->
<g id="Node000004" class="node">
<title>Node4</title>
<g id="a_Node000004"><a xlink:href="classzero__mate_1_1gui_1_1CLog__Window.html#a3f33c514782679e209eab04e72d57a5a" target="_top" xlink:title="Logs an info message (utils::ILogger interface).">
<polygon fill="white" stroke="#666666" points="119,-126 0,-126 0,-96 119,-96 119,-126"/>
<text text-anchor="start" x="8" y="-114" font-family="Helvetica,sans-Serif" font-size="10.00">zero_mate::gui::CLog</text>
<text text-anchor="middle" x="59.5" y="-103" font-family="Helvetica,sans-Serif" font-size="10.00">_Window::Info</text>
</a>
</g>
</g>
<!-- Node1&#45;&gt;Node4 -->
<g id="edge3_Node000001_Node000004" class="edge">
<title>Node1&#45;&gt;Node4</title>
<g id="a_edge3_Node000001_Node000004"><a xlink:title=" ">
<path fill="none" stroke="#63b8ff" d="M144.61,-111C136.02,-111 127.39,-111 119.11,-111"/>
<polygon fill="#63b8ff" stroke="#63b8ff" points="144.66,-114.5 154.66,-111 144.66,-107.5 144.66,-114.5"/>
</a>
</g>
</g>
<!-- Node5 -->
<g id="Node000005" class="node">
<title>Node5</title>
<g id="a_Node000005"><a xlink:href="classzero__mate_1_1gui_1_1CLog__Window.html#a7eb5c6c3430e5ce1dd6052a2b14e05ce" target="_top" xlink:title="Logs a plain&#45;text message (no formatting is taking place, utils::ILogger interface).">
<polygon fill="white" stroke="#666666" points="119,-78 0,-78 0,-48 119,-48 119,-78"/>
<text text-anchor="start" x="8" y="-66" font-family="Helvetica,sans-Serif" font-size="10.00">zero_mate::gui::CLog</text>
<text text-anchor="middle" x="59.5" y="-55" font-family="Helvetica,sans-Serif" font-size="10.00">_Window::Print</text>
</a>
</g>
</g>
<!-- Node1&#45;&gt;Node5 -->
<g id="edge4_Node000001_Node000005" class="edge">
<title>Node1&#45;&gt;Node5</title>
<g id="a_edge4_Node000001_Node000005"><a xlink:title=" ">
<path fill="none" stroke="#63b8ff" d="M162.94,-93.07C146.03,-88.11 127.87,-82.78 111.6,-78"/>
<polygon fill="#63b8ff" stroke="#63b8ff" points="162.14,-96.49 172.72,-95.94 164.11,-89.77 162.14,-96.49"/>
</a>
</g>
</g>
<!-- Node6 -->
<g id="Node000006" class="node">
<title>Node6</title>
<g id="a_Node000006"><a xlink:href="classzero__mate_1_1gui_1_1CLog__Window.html#aa04e47cb002e6d244ab1bb0e20a99628" target="_top" xlink:title="Logs a warning message (utils::ILogger interface).">
<polygon fill="white" stroke="#666666" points="119,-30 0,-30 0,0 119,0 119,-30"/>
<text text-anchor="start" x="8" y="-18" font-family="Helvetica,sans-Serif" font-size="10.00">zero_mate::gui::CLog</text>
<text text-anchor="middle" x="59.5" y="-7" font-family="Helvetica,sans-Serif" font-size="10.00">_Window::Warning</text>
</a>
</g>
</g>
<!-- Node1&#45;&gt;Node6 -->
<g id="edge5_Node000001_Node000006" class="edge">
<title>Node1&#45;&gt;Node6</title>
<g id="a_edge5_Node000001_Node000006"><a xlink:title=" ">
<path fill="none" stroke="#63b8ff" d="M196.67,-89.88C176.06,-74.55 146.69,-53.96 119,-39 113.11,-35.82 106.7,-32.79 100.36,-30.02"/>
<polygon fill="#63b8ff" stroke="#63b8ff" points="194.57,-92.68 204.67,-95.89 198.78,-87.08 194.57,-92.68"/>
</a>
</g>
</g>
</g>
</svg>
