<?xml version="1.0" encoding="UTF-8" standalone="no"?>
<!DOCTYPE svg PUBLIC "-//W3C//DTD SVG 1.1//EN"
 "http://www.w3.org/Graphics/SVG/1.1/DTD/svg11.dtd">
<!-- Generated by graphviz version 2.43.0 (0)
 -->
<!-- Title: zero_mate::arm1176jzf_s::CCPU_Context::Init_IRQ_Banked_Regs Pages: 1 -->
<svg width="650pt" height="108pt"
 viewBox="0.00 0.00 650.00 108.00" xmlns="http://www.w3.org/2000/svg" xmlns:xlink="http://www.w3.org/1999/xlink">
<g id="graph0" class="graph" transform="scale(1 1) rotate(0) translate(4 104)">
<title>zero_mate::arm1176jzf_s::CCPU_Context::Init_IRQ_Banked_Regs</title>
<!-- Node1 -->
<g id="Node000001" class="node">
<title>Node1</title>
<g id="a_Node000001"><a xlink:title="Resets the banked registers of the IRQ mode to 0.">
<polygon fill="#999999" stroke="#666666" points="642,-70 512,-70 512,-29 642,-29 642,-70"/>
<text text-anchor="start" x="520" y="-58" font-family="Helvetica,sans-Serif" font-size="10.00">zero_mate::arm1176jzf</text>
<text text-anchor="start" x="520" y="-47" font-family="Helvetica,sans-Serif" font-size="10.00">_s::CCPU_Context::Init</text>
<text text-anchor="middle" x="577" y="-36" font-family="Helvetica,sans-Serif" font-size="10.00">_IRQ_Banked_Regs</text>
</a>
</g>
</g>
<!-- Node2 -->
<g id="Node000002" class="node">
<title>Node2</title>
<g id="a_Node000002"><a xlink:href="classzero__mate_1_1arm1176jzf__s_1_1CCPU__Context.html#a2f550e28044af7ff0ddb866527a95356" target="_top" xlink:title="Initializes (resets) all CPU registers.">
<polygon fill="white" stroke="#666666" points="476,-70 346,-70 346,-29 476,-29 476,-70"/>
<text text-anchor="start" x="354" y="-58" font-family="Helvetica,sans-Serif" font-size="10.00">zero_mate::arm1176jzf</text>
<text text-anchor="start" x="354" y="-47" font-family="Helvetica,sans-Serif" font-size="10.00">_s::CCPU_Context::Init</text>
<text text-anchor="middle" x="411" y="-36" font-family="Helvetica,sans-Serif" font-size="10.00">_Registers</text>
</a>
</g>
</g>
<!-- Node1&#45;&gt;Node2 -->
<g id="edge1_Node000001_Node000002" class="edge">
<title>Node1&#45;&gt;Node2</title>
<g id="a_edge1_Node000001_Node000002"><a xlink:title=" ">
<path fill="none" stroke="#63b8ff" d="M501.44,-49.5C493,-49.5 484.45,-49.5 476.16,-49.5"/>
<polygon fill="#63b8ff" stroke="#63b8ff" points="501.65,-53 511.65,-49.5 501.65,-46 501.65,-53"/>
</a>
</g>
</g>
<!-- Node3 -->
<g id="Node000003" class="node">
<title>Node3</title>
<g id="a_Node000003"><a xlink:href="classzero__mate_1_1arm1176jzf__s_1_1CCPU__Context.html#a286edf7ca93bc920f9896b5b777b4b8b" target="_top" xlink:title="Resets the context of the CPU.">
<polygon fill="white" stroke="#666666" points="310,-64.5 173,-64.5 173,-34.5 310,-34.5 310,-64.5"/>
<text text-anchor="start" x="181" y="-52.5" font-family="Helvetica,sans-Serif" font-size="10.00">zero_mate::arm1176jzf</text>
<text text-anchor="middle" x="241.5" y="-41.5" font-family="Helvetica,sans-Serif" font-size="10.00">_s::CCPU_Context::Reset</text>
</a>
</g>
</g>
<!-- Node2&#45;&gt;Node3 -->
<g id="edge2_Node000002_Node000003" class="edge">
<title>Node2&#45;&gt;Node3</title>
<g id="a_edge2_Node000002_Node000003"><a xlink:title=" ">
<path fill="none" stroke="#63b8ff" d="M335.53,-49.5C327.1,-49.5 318.55,-49.5 310.22,-49.5"/>
<polygon fill="#63b8ff" stroke="#63b8ff" points="335.72,-53 345.72,-49.5 335.72,-46 335.72,-53"/>
</a>
</g>
</g>
<!-- Node4 -->
<g id="Node000004" class="node">
<title>Node4</title>
<g id="a_Node000004"><a xlink:href="classzero__mate_1_1arm1176jzf__s_1_1CCPU__Context.html#afb2bc49ac16284a27b81cec3322f8898" target="_top" xlink:title="Constructor of the class.">
<polygon fill="white" stroke="#666666" points="137,-100 0,-100 0,-59 137,-59 137,-100"/>
<text text-anchor="start" x="8" y="-88" font-family="Helvetica,sans-Serif" font-size="10.00">zero_mate::arm1176jzf</text>
<text text-anchor="start" x="8" y="-77" font-family="Helvetica,sans-Serif" font-size="10.00">_s::CCPU_Context::CCPU</text>
<text text-anchor="middle" x="68.5" y="-66" font-family="Helvetica,sans-Serif" font-size="10.00">_Context</text>
</a>
</g>
</g>
<!-- Node3&#45;&gt;Node4 -->
<g id="edge3_Node000003_Node000004" class="edge">
<title>Node3&#45;&gt;Node4</title>
<g id="a_edge3_Node000003_Node000004"><a xlink:title=" ">
<path fill="none" stroke="#63b8ff" d="M162.9,-63.11C154.31,-64.62 145.61,-66.15 137.15,-67.63"/>
<polygon fill="#63b8ff" stroke="#63b8ff" points="163.67,-66.53 172.92,-61.36 162.46,-59.64 163.67,-66.53"/>
</a>
</g>
</g>
<!-- Node5 -->
<g id="Node000005" class="node">
<title>Node5</title>
<g id="a_Node000005"><a xlink:href="classzero__mate_1_1arm1176jzf__s_1_1CCPU__Core.html#acb9dcca2bec495d4424c6183c6ac7064" target="_top" xlink:title="Resets the CPU context.">
<polygon fill="white" stroke="#666666" points="133.5,-41 3.5,-41 3.5,0 133.5,0 133.5,-41"/>
<text text-anchor="start" x="11.5" y="-29" font-family="Helvetica,sans-Serif" font-size="10.00">zero_mate::arm1176jzf</text>
<text text-anchor="start" x="11.5" y="-18" font-family="Helvetica,sans-Serif" font-size="10.00">_s::CCPU_Core::Reset</text>
<text text-anchor="middle" x="68.5" y="-7" font-family="Helvetica,sans-Serif" font-size="10.00">_Context</text>
</a>
</g>
</g>
<!-- Node3&#45;&gt;Node5 -->
<g id="edge4_Node000003_Node000005" class="edge">
<title>Node3&#45;&gt;Node5</title>
<g id="a_edge4_Node000003_Node000005"><a xlink:title=" ">
<path fill="none" stroke="#63b8ff" d="M162.79,-36.32C153,-34.66 143.07,-32.98 133.53,-31.36"/>
<polygon fill="#63b8ff" stroke="#63b8ff" points="162.47,-39.82 172.92,-38.04 163.64,-32.92 162.47,-39.82"/>
</a>
</g>
</g>
</g>
</svg>
