<?xml version="1.0" encoding="UTF-8" standalone="no"?>
<!DOCTYPE svg PUBLIC "-//W3C//DTD SVG 1.1//EN"
 "http://www.w3.org/Graphics/SVG/1.1/DTD/svg11.dtd">
<!-- Generated by graphviz version 2.43.0 (0)
 -->
<!-- Title: zero_mate::gui::CGPIO_Window::Render_GPIO_Pin Pages: 1 -->
<svg width="325pt" height="285pt"
 viewBox="0.00 0.00 325.00 285.00" xmlns="http://www.w3.org/2000/svg" xmlns:xlink="http://www.w3.org/1999/xlink">
<g id="graph0" class="graph" transform="scale(1 1) rotate(0) translate(4 281)">
<title>zero_mate::gui::CGPIO_Window::Render_GPIO_Pin</title>
<!-- Node1 -->
<g id="Node000001" class="node">
<title>Node1</title>
<g id="a_Node000001"><a xlink:title="Renders information about a single GPIO pin (table row).">
<polygon fill="#999999" stroke="#666666" points="150,-153.5 0,-153.5 0,-123.5 150,-123.5 150,-153.5"/>
<text text-anchor="start" x="8" y="-141.5" font-family="Helvetica,sans-Serif" font-size="10.00">zero_mate::gui::CGPIO</text>
<text text-anchor="middle" x="75" y="-130.5" font-family="Helvetica,sans-Serif" font-size="10.00">_Window::Render_GPIO_Pin</text>
</a>
</g>
</g>
<!-- Node2 -->
<g id="Node000002" class="node">
<title>Node2</title>
<g id="a_Node000002"><a xlink:href="classzero__mate_1_1peripheral_1_1CGPIO__Manager_1_1CPin.html#acf6b92ed8408ada497c28c405af395d6" target="_top" xlink:title="Returns the current function of the pin.">
<polygon fill="white" stroke="#666666" points="316,-277 187,-277 187,-236 316,-236 316,-277"/>
<text text-anchor="start" x="195" y="-265" font-family="Helvetica,sans-Serif" font-size="10.00">zero_mate::peripheral</text>
<text text-anchor="start" x="195" y="-254" font-family="Helvetica,sans-Serif" font-size="10.00">::CGPIO_Manager::CPin</text>
<text text-anchor="middle" x="251.5" y="-243" font-family="Helvetica,sans-Serif" font-size="10.00">::Get_Function</text>
</a>
</g>
</g>
<!-- Node1&#45;&gt;Node2 -->
<g id="edge1_Node000001_Node000002" class="edge">
<title>Node1&#45;&gt;Node2</title>
<g id="a_edge1_Node000001_Node000002"><a xlink:title=" ">
<path fill="none" stroke="#63b8ff" d="M92.13,-153.81C112.73,-172.8 150.01,-205.37 186,-227.5 187.95,-228.7 189.97,-229.88 192.02,-231.04"/>
<polygon fill="#63b8ff" stroke="#63b8ff" points="190.74,-234.32 201.21,-235.95 194.04,-228.15 190.74,-234.32"/>
</a>
</g>
</g>
<!-- Node3 -->
<g id="Node000003" class="node">
<title>Node3</title>
<g id="a_Node000003"><a xlink:href="classzero__mate_1_1gui_1_1CGPIO__Window.html#a0ee3deaa24f122b1b4c9bb4fc5814953" target="_top" xlink:title="Converts an interrupt index into an enumeration along with its string representation.">
<polygon fill="white" stroke="#666666" points="317,-218 186,-218 186,-177 317,-177 317,-218"/>
<text text-anchor="start" x="194" y="-206" font-family="Helvetica,sans-Serif" font-size="10.00">zero_mate::gui::CGPIO</text>
<text text-anchor="start" x="194" y="-195" font-family="Helvetica,sans-Serif" font-size="10.00">_Window::Get_Interrupt</text>
<text text-anchor="middle" x="251.5" y="-184" font-family="Helvetica,sans-Serif" font-size="10.00">_Type_From_Idx</text>
</a>
</g>
</g>
<!-- Node1&#45;&gt;Node3 -->
<g id="edge2_Node000001_Node000003" class="edge">
<title>Node1&#45;&gt;Node3</title>
<g id="a_edge2_Node000001_Node000003"><a xlink:title=" ">
<path fill="none" stroke="#63b8ff" d="M120.49,-153.54C138.53,-159.64 159.83,-166.84 179.9,-173.63"/>
<polygon fill="#63b8ff" stroke="#63b8ff" points="179.04,-177.03 189.64,-176.92 181.28,-170.4 179.04,-177.03"/>
</a>
</g>
</g>
<!-- Node4 -->
<g id="Node000004" class="node">
<title>Node4</title>
<g id="a_Node000004"><a xlink:href="classzero__mate_1_1peripheral_1_1CGPIO__Manager_1_1CPin.html#ab910baeb4caa3129739eccf087d06dd4" target="_top" xlink:title="Returns the current state of the pin.">
<polygon fill="white" stroke="#666666" points="316,-159 187,-159 187,-118 316,-118 316,-159"/>
<text text-anchor="start" x="195" y="-147" font-family="Helvetica,sans-Serif" font-size="10.00">zero_mate::peripheral</text>
<text text-anchor="start" x="195" y="-136" font-family="Helvetica,sans-Serif" font-size="10.00">::CGPIO_Manager::CPin</text>
<text text-anchor="middle" x="251.5" y="-125" font-family="Helvetica,sans-Serif" font-size="10.00">::Get_State</text>
</a>
</g>
</g>
<!-- Node1&#45;&gt;Node4 -->
<g id="edge3_Node000001_Node000004" class="edge">
<title>Node1&#45;&gt;Node4</title>
<g id="a_edge3_Node000001_Node000004"><a xlink:title=" ">
<path fill="none" stroke="#63b8ff" d="M150,-138.5C158.82,-138.5 167.81,-138.5 176.63,-138.5"/>
<polygon fill="#63b8ff" stroke="#63b8ff" points="176.86,-142 186.86,-138.5 176.86,-135 176.86,-142"/>
</a>
</g>
</g>
<!-- Node5 -->
<g id="Node000005" class="node">
<title>Node5</title>
<g id="a_Node000005"><a xlink:href="classzero__mate_1_1peripheral_1_1CGPIO__Manager_1_1CPin.html#a0536631c62e1aa7a96404501768f31a6" target="_top" xlink:title="Checks if there is a pending interrupt on the pin.">
<polygon fill="white" stroke="#666666" points="316,-100 187,-100 187,-59 316,-59 316,-100"/>
<text text-anchor="start" x="195" y="-88" font-family="Helvetica,sans-Serif" font-size="10.00">zero_mate::peripheral</text>
<text text-anchor="start" x="195" y="-77" font-family="Helvetica,sans-Serif" font-size="10.00">::CGPIO_Manager::CPin</text>
<text text-anchor="middle" x="251.5" y="-66" font-family="Helvetica,sans-Serif" font-size="10.00">::Has_Pending_IRQ</text>
</a>
</g>
</g>
<!-- Node1&#45;&gt;Node5 -->
<g id="edge4_Node000001_Node000005" class="edge">
<title>Node1&#45;&gt;Node5</title>
<g id="a_edge4_Node000001_Node000005"><a xlink:title=" ">
<path fill="none" stroke="#63b8ff" d="M120.49,-123.46C138.53,-117.36 159.83,-110.16 179.9,-103.37"/>
<polygon fill="#63b8ff" stroke="#63b8ff" points="181.28,-106.6 189.64,-100.08 179.04,-99.97 181.28,-106.6"/>
</a>
</g>
</g>
<!-- Node6 -->
<g id="Node000006" class="node">
<title>Node6</title>
<g id="a_Node000006"><a xlink:href="classzero__mate_1_1peripheral_1_1CGPIO__Manager_1_1CPin.html#a9330f754330cb20d555969ec55c0a679" target="_top" xlink:title="Checks whether or not an interrupt is enabled on the pin.">
<polygon fill="white" stroke="#666666" points="316,-41 187,-41 187,0 316,0 316,-41"/>
<text text-anchor="start" x="195" y="-29" font-family="Helvetica,sans-Serif" font-size="10.00">zero_mate::peripheral</text>
<text text-anchor="start" x="195" y="-18" font-family="Helvetica,sans-Serif" font-size="10.00">::CGPIO_Manager::CPin</text>
<text text-anchor="middle" x="251.5" y="-7" font-family="Helvetica,sans-Serif" font-size="10.00">::Is_Interrupt_Enabled</text>
</a>
</g>
</g>
<!-- Node1&#45;&gt;Node6 -->
<g id="edge5_Node000001_Node000006" class="edge">
<title>Node1&#45;&gt;Node6</title>
<g id="a_edge5_Node000001_Node000006"><a xlink:title=" ">
<path fill="none" stroke="#63b8ff" d="M92.21,-123.45C112.88,-104.77 150.25,-72.67 186,-50.5 188.59,-48.89 191.29,-47.32 194.04,-45.78"/>
<polygon fill="#63b8ff" stroke="#63b8ff" points="195.78,-48.81 202.96,-41.02 192.49,-42.64 195.78,-48.81"/>
</a>
</g>
</g>
</g>
</svg>
