<?xml version="1.0" encoding="UTF-8" standalone="no"?>
<!DOCTYPE svg PUBLIC "-//W3C//DTD SVG 1.1//EN"
 "http://www.w3.org/Graphics/SVG/1.1/DTD/svg11.dtd">
<!-- Generated by graphviz version 2.43.0 (0)
 -->
<!-- Title: zero_mate::peripheral::CGPIO_Manager::Set_Pin_State Pages: 1 -->
<svg width="510pt" height="216pt"
 viewBox="0.00 0.00 510.00 215.50" xmlns="http://www.w3.org/2000/svg" xmlns:xlink="http://www.w3.org/1999/xlink">
<g id="graph0" class="graph" transform="scale(1 1) rotate(0) translate(4 211.5)">
<title>zero_mate::peripheral::CGPIO_Manager::Set_Pin_State</title>
<!-- Node1 -->
<g id="Node000001" class="node">
<title>Node1</title>
<g id="a_Node000001"><a xlink:title="Sets a new state of a given pin.">
<polygon fill="#999999" stroke="#666666" points="124,-118.5 0,-118.5 0,-77.5 124,-77.5 124,-118.5"/>
<text text-anchor="start" x="8" y="-106.5" font-family="Helvetica,sans-Serif" font-size="10.00">zero_mate::peripheral</text>
<text text-anchor="start" x="8" y="-95.5" font-family="Helvetica,sans-Serif" font-size="10.00">::CGPIO_Manager::Set</text>
<text text-anchor="middle" x="62" y="-84.5" font-family="Helvetica,sans-Serif" font-size="10.00">_Pin_State</text>
</a>
</g>
</g>
<!-- Node2 -->
<g id="Node000002" class="node">
<title>Node2</title>
<g id="a_Node000002"><a xlink:href="classzero__mate_1_1peripheral_1_1CInterrupt__Controller.html#a35b97d4871edb1ee3a0fbda305c58b95" target="_top" xlink:title="Returns the corresponding IRQ source for a given GPIO pin.">
<polygon fill="white" stroke="#666666" points="313,-207.5 188,-207.5 188,-166.5 313,-166.5 313,-207.5"/>
<text text-anchor="start" x="196" y="-195.5" font-family="Helvetica,sans-Serif" font-size="10.00">zero_mate::peripheral</text>
<text text-anchor="start" x="196" y="-184.5" font-family="Helvetica,sans-Serif" font-size="10.00">::CInterrupt_Controller</text>
<text text-anchor="middle" x="250.5" y="-173.5" font-family="Helvetica,sans-Serif" font-size="10.00">::Get_IRQ_Source</text>
</a>
</g>
</g>
<!-- Node1&#45;&gt;Node2 -->
<g id="edge1_Node000001_Node000002" class="edge">
<title>Node1&#45;&gt;Node2</title>
<g id="a_edge1_Node000001_Node000002"><a xlink:title=" ">
<path fill="none" stroke="#63b8ff" d="M92.11,-118.58C110.85,-131.17 136.1,-146.93 160,-158 165.74,-160.66 171.79,-163.17 177.93,-165.53"/>
<polygon fill="#63b8ff" stroke="#63b8ff" points="177.01,-168.93 187.61,-169.1 179.44,-162.36 177.01,-168.93"/>
</a>
</g>
</g>
<!-- Node3 -->
<g id="Node000003" class="node">
<title>Node3</title>
<g id="a_Node000003"><a xlink:href="classzero__mate_1_1peripheral_1_1CGPIO__Manager.html#afb4a55159afdaa47cd3640dfd1e0106b" target="_top" xlink:title="Mirrors the state of a given in in the GPLEV register.">
<polygon fill="white" stroke="#666666" points="319,-148.5 182,-148.5 182,-107.5 319,-107.5 319,-148.5"/>
<text text-anchor="start" x="190" y="-136.5" font-family="Helvetica,sans-Serif" font-size="10.00">zero_mate::peripheral</text>
<text text-anchor="start" x="190" y="-125.5" font-family="Helvetica,sans-Serif" font-size="10.00">::CGPIO_Manager::Mirror</text>
<text text-anchor="middle" x="250.5" y="-114.5" font-family="Helvetica,sans-Serif" font-size="10.00">_Pin_State_In_GPLEVn</text>
</a>
</g>
</g>
<!-- Node1&#45;&gt;Node3 -->
<g id="edge2_Node000001_Node000003" class="edge">
<title>Node1&#45;&gt;Node3</title>
<g id="a_edge2_Node000001_Node000003"><a xlink:title=" ">
<path fill="none" stroke="#63b8ff" d="M124.07,-107.82C139.23,-110.26 155.69,-112.91 171.54,-115.46"/>
<polygon fill="#63b8ff" stroke="#63b8ff" points="171.42,-118.98 181.85,-117.12 172.53,-112.07 171.42,-118.98"/>
</a>
</g>
</g>
<!-- Node5 -->
<g id="Node000005" class="node">
<title>Node5</title>
<g id="a_Node000005"><a xlink:href="classzero__mate_1_1peripheral_1_1CGPIO__Manager.html#a623c62636a57d6c63db1331a42100452" target="_top" xlink:title="Notifies external peripherals that subscribe to the given pin about the change of its state.">
<polygon fill="white" stroke="#666666" points="319,-89.5 182,-89.5 182,-48.5 319,-48.5 319,-89.5"/>
<text text-anchor="start" x="190" y="-77.5" font-family="Helvetica,sans-Serif" font-size="10.00">zero_mate::peripheral</text>
<text text-anchor="start" x="190" y="-66.5" font-family="Helvetica,sans-Serif" font-size="10.00">::CGPIO_Manager::Notify</text>
<text text-anchor="middle" x="250.5" y="-55.5" font-family="Helvetica,sans-Serif" font-size="10.00">_External_Peripherals</text>
</a>
</g>
</g>
<!-- Node1&#45;&gt;Node5 -->
<g id="edge4_Node000001_Node000005" class="edge">
<title>Node1&#45;&gt;Node5</title>
<g id="a_edge4_Node000001_Node000005"><a xlink:title=" ">
<path fill="none" stroke="#63b8ff" d="M124.07,-88.5C139.23,-86.15 155.69,-83.59 171.54,-81.12"/>
<polygon fill="#63b8ff" stroke="#63b8ff" points="172.5,-84.51 181.85,-79.52 171.43,-77.6 172.5,-84.51"/>
</a>
</g>
</g>
<!-- Node6 -->
<g id="Node000006" class="node">
<title>Node6</title>
<g id="a_Node000006"><a xlink:href="classzero__mate_1_1peripheral_1_1CGPIO__Manager.html#a8e4591c379574b393dc9fcf6ecc5891c" target="_top" xlink:title="Reflects the state of a pending IRQ in the GPEDS register.">
<polygon fill="white" stroke="#666666" points="341,-30 160,-30 160,0 341,0 341,-30"/>
<text text-anchor="start" x="168" y="-18" font-family="Helvetica,sans-Serif" font-size="10.00">zero_mate::peripheral</text>
<text text-anchor="middle" x="250.5" y="-7" font-family="Helvetica,sans-Serif" font-size="10.00">::CGPIO_Manager::Update_GPEDS</text>
</a>
</g>
</g>
<!-- Node1&#45;&gt;Node6 -->
<g id="edge5_Node000001_Node000006" class="edge">
<title>Node1&#45;&gt;Node6</title>
<g id="a_edge5_Node000001_Node000006"><a xlink:title=" ">
<path fill="none" stroke="#63b8ff" d="M92.9,-77.27C111.54,-65.09 136.38,-50.14 160,-40 165.64,-37.58 171.59,-35.32 177.61,-33.24"/>
<polygon fill="#63b8ff" stroke="#63b8ff" points="178.73,-36.56 187.13,-30.11 176.54,-29.91 178.73,-36.56"/>
</a>
</g>
</g>
<!-- Node4 -->
<g id="Node000004" class="node">
<title>Node4</title>
<g id="a_Node000004"><a xlink:href="classzero__mate_1_1peripheral_1_1CGPIO__Manager.html#aa6b0515a8e4fecb78bebfbb79a13994b" target="_top" xlink:title="Returns the index of the register (out of the two alternatives) based on the pin index.">
<polygon fill="white" stroke="#666666" points="502,-148.5 377,-148.5 377,-107.5 502,-107.5 502,-148.5"/>
<text text-anchor="start" x="385" y="-136.5" font-family="Helvetica,sans-Serif" font-size="10.00">zero_mate::peripheral</text>
<text text-anchor="start" x="385" y="-125.5" font-family="Helvetica,sans-Serif" font-size="10.00">::CGPIO_Manager::Get</text>
<text text-anchor="middle" x="439.5" y="-114.5" font-family="Helvetica,sans-Serif" font-size="10.00">_Register_Index</text>
</a>
</g>
</g>
<!-- Node3&#45;&gt;Node4 -->
<g id="edge3_Node000003_Node000004" class="edge">
<title>Node3&#45;&gt;Node4</title>
<g id="a_edge3_Node000003_Node000004"><a xlink:title=" ">
<path fill="none" stroke="#63b8ff" d="M319.01,-128C334.54,-128 351.12,-128 366.82,-128"/>
<polygon fill="#63b8ff" stroke="#63b8ff" points="366.99,-131.5 376.99,-128 366.99,-124.5 366.99,-131.5"/>
</a>
</g>
</g>
</g>
</svg>
