<?xml version="1.0" encoding="UTF-8" standalone="no"?>
<!DOCTYPE svg PUBLIC "-//W3C//DTD SVG 1.1//EN"
 "http://www.w3.org/Graphics/SVG/1.1/DTD/svg11.dtd">
<!-- Generated by graphviz version 2.43.0 (0)
 -->
<!-- Title: zero_mate::coprocessor::cp15::CC7::CC7 Pages: 1 -->
<svg width="323pt" height="182pt"
 viewBox="0.00 0.00 323.00 182.00" xmlns="http://www.w3.org/2000/svg" xmlns:xlink="http://www.w3.org/1999/xlink">
<g id="graph0" class="graph" transform="scale(1 1) rotate(0) translate(4 178)">
<title>zero_mate::coprocessor::cp15::CC7::CC7</title>
<!-- Node1 -->
<g id="Node000001" class="node">
<title>Node1</title>
<g id="a_Node000001"><a xlink:title="Creates an instance of the class.">
<polygon fill="#999999" stroke="#666666" points="133,-102 0,-102 0,-72 133,-72 133,-102"/>
<text text-anchor="start" x="8" y="-90" font-family="Helvetica,sans-Serif" font-size="10.00">zero_mate::coprocessor</text>
<text text-anchor="middle" x="66.5" y="-79" font-family="Helvetica,sans-Serif" font-size="10.00">::cp15::CC7::CC7</text>
</a>
</g>
</g>
<!-- Node2 -->
<g id="Node000002" class="node">
<title>Node2</title>
<g id="a_Node000002"><a xlink:href="classzero__mate_1_1coprocessor_1_1cp15_1_1CC7.html#a1a496cc655b5b4bb5b89da2509cadb43" target="_top" xlink:title="Initializes secondary register C10.">
<polygon fill="white" stroke="#666666" points="315,-174 169,-174 169,-144 315,-144 315,-174"/>
<text text-anchor="start" x="177" y="-162" font-family="Helvetica,sans-Serif" font-size="10.00">zero_mate::coprocessor</text>
<text text-anchor="middle" x="242" y="-151" font-family="Helvetica,sans-Serif" font-size="10.00">::cp15::CC7::Init_CRm_R10</text>
</a>
</g>
</g>
<!-- Node1&#45;&gt;Node2 -->
<g id="edge1_Node000001_Node000002" class="edge">
<title>Node1&#45;&gt;Node2</title>
<g id="a_edge1_Node000001_Node000002"><a xlink:title=" ">
<path fill="none" stroke="#63b8ff" d="M96.84,-102.02C116.89,-112 144.22,-125.05 169,-135 173.69,-136.88 178.6,-138.74 183.55,-140.54"/>
<polygon fill="#63b8ff" stroke="#63b8ff" points="182.48,-143.88 193.07,-143.92 184.81,-137.28 182.48,-143.88"/>
</a>
</g>
</g>
<!-- Node3 -->
<g id="Node000003" class="node">
<title>Node3</title>
<g id="a_Node000003"><a xlink:href="classzero__mate_1_1coprocessor_1_1cp15_1_1CC7.html#a31c5fe8418ae116c34ad7bd06466ed55" target="_top" xlink:title="Initializes secondary register C5.">
<polygon fill="white" stroke="#666666" points="312,-126 172,-126 172,-96 312,-96 312,-126"/>
<text text-anchor="start" x="180" y="-114" font-family="Helvetica,sans-Serif" font-size="10.00">zero_mate::coprocessor</text>
<text text-anchor="middle" x="242" y="-103" font-family="Helvetica,sans-Serif" font-size="10.00">::cp15::CC7::Init_CRm_R5</text>
</a>
</g>
</g>
<!-- Node1&#45;&gt;Node3 -->
<g id="edge2_Node000001_Node000003" class="edge">
<title>Node1&#45;&gt;Node3</title>
<g id="a_edge2_Node000001_Node000003"><a xlink:title=" ">
<path fill="none" stroke="#63b8ff" d="M133.09,-96.07C142.49,-97.37 152.25,-98.72 161.88,-100.05"/>
<polygon fill="#63b8ff" stroke="#63b8ff" points="161.46,-103.53 171.84,-101.43 162.42,-96.6 161.46,-103.53"/>
</a>
</g>
</g>
<!-- Node4 -->
<g id="Node000004" class="node">
<title>Node4</title>
<g id="a_Node000004"><a xlink:href="classzero__mate_1_1coprocessor_1_1cp15_1_1CC7.html#a29df49db0d8060ff3612b1a83f08f970" target="_top" xlink:title="Initializes secondary register C6.">
<polygon fill="white" stroke="#666666" points="312,-78 172,-78 172,-48 312,-48 312,-78"/>
<text text-anchor="start" x="180" y="-66" font-family="Helvetica,sans-Serif" font-size="10.00">zero_mate::coprocessor</text>
<text text-anchor="middle" x="242" y="-55" font-family="Helvetica,sans-Serif" font-size="10.00">::cp15::CC7::Init_CRm_R6</text>
</a>
</g>
</g>
<!-- Node1&#45;&gt;Node4 -->
<g id="edge3_Node000001_Node000004" class="edge">
<title>Node1&#45;&gt;Node4</title>
<g id="a_edge3_Node000001_Node000004"><a xlink:title=" ">
<path fill="none" stroke="#63b8ff" d="M133.09,-77.93C142.49,-76.63 152.25,-75.28 161.88,-73.95"/>
<polygon fill="#63b8ff" stroke="#63b8ff" points="162.42,-77.4 171.84,-72.57 161.46,-70.47 162.42,-77.4"/>
</a>
</g>
</g>
<!-- Node5 -->
<g id="Node000005" class="node">
<title>Node5</title>
<g id="a_Node000005"><a xlink:href="classzero__mate_1_1coprocessor_1_1cp15_1_1CC7.html#af6479adb55ea09d7c11a0eb75d0f3c64" target="_top" xlink:title="Initializes secondary register C7.">
<polygon fill="white" stroke="#666666" points="312,-30 172,-30 172,0 312,0 312,-30"/>
<text text-anchor="start" x="180" y="-18" font-family="Helvetica,sans-Serif" font-size="10.00">zero_mate::coprocessor</text>
<text text-anchor="middle" x="242" y="-7" font-family="Helvetica,sans-Serif" font-size="10.00">::cp15::CC7::Init_CRm_R7</text>
</a>
</g>
</g>
<!-- Node1&#45;&gt;Node5 -->
<g id="edge4_Node000001_Node000005" class="edge">
<title>Node1&#45;&gt;Node5</title>
<g id="a_edge4_Node000001_Node000005"><a xlink:title=" ">
<path fill="none" stroke="#63b8ff" d="M96.84,-71.98C116.89,-62 144.22,-48.95 169,-39 173.69,-37.12 178.6,-35.26 183.55,-33.46"/>
<polygon fill="#63b8ff" stroke="#63b8ff" points="184.81,-36.72 193.07,-30.08 182.48,-30.12 184.81,-36.72"/>
</a>
</g>
</g>
</g>
</svg>
