<?xml version="1.0" encoding="UTF-8" standalone="no"?>
<!DOCTYPE svg PUBLIC "-//W3C//DTD SVG 1.1//EN"
 "http://www.w3.org/Graphics/SVG/1.1/DTD/svg11.dtd">
<!-- Generated by graphviz version 2.43.0 (0)
 -->
<!-- Title: zero_mate::coprocessor::cp10::CRegister::Get_Value_As Pages: 1 -->
<svg width="340pt" height="194pt"
 viewBox="0.00 0.00 340.00 193.50" xmlns="http://www.w3.org/2000/svg" xmlns:xlink="http://www.w3.org/1999/xlink">
<g id="graph0" class="graph" transform="scale(1 1) rotate(0) translate(4 189.5)">
<title>zero_mate::coprocessor::cp10::CRegister::Get_Value_As</title>
<!-- Node1 -->
<g id="Node000001" class="node">
<title>Node1</title>
<g id="a_Node000001"><a xlink:title="Returns the register value as a desired data type.">
<polygon fill="#999999" stroke="#666666" points="332,-119 199,-119 199,-78 332,-78 332,-119"/>
<text text-anchor="start" x="207" y="-107" font-family="Helvetica,sans-Serif" font-size="10.00">zero_mate::coprocessor</text>
<text text-anchor="start" x="207" y="-96" font-family="Helvetica,sans-Serif" font-size="10.00">::cp10::CRegister::Get</text>
<text text-anchor="middle" x="265.5" y="-85" font-family="Helvetica,sans-Serif" font-size="10.00">_Value_As</text>
</a>
</g>
</g>
<!-- Node2 -->
<g id="Node000002" class="node">
<title>Node2</title>
<g id="a_Node000002"><a xlink:href="classzero__mate_1_1coprocessor_1_1cp10_1_1CRegister.html#a4bfa2b6208cdd41c26c2b357a4a681bc" target="_top" xlink:title="Overloaded += operator.">
<polygon fill="white" stroke="#666666" points="163,-185.5 0,-185.5 0,-155.5 163,-155.5 163,-185.5"/>
<text text-anchor="start" x="8" y="-173.5" font-family="Helvetica,sans-Serif" font-size="10.00">zero_mate::coprocessor</text>
<text text-anchor="middle" x="81.5" y="-162.5" font-family="Helvetica,sans-Serif" font-size="10.00">::cp10::CRegister::operator+=</text>
</a>
</g>
</g>
<!-- Node1&#45;&gt;Node2 -->
<g id="edge1_Node000001_Node000002" class="edge">
<title>Node1&#45;&gt;Node2</title>
<g id="a_edge1_Node000001_Node000002"><a xlink:title=" ">
<path fill="none" stroke="#63b8ff" d="M215.23,-123.64C198.84,-131.51 180.35,-139.86 163,-146.5 154.69,-149.68 145.77,-152.71 137.01,-155.48"/>
<polygon fill="#63b8ff" stroke="#63b8ff" points="217.15,-126.6 224.61,-119.09 214.09,-120.31 217.15,-126.6"/>
</a>
</g>
</g>
<!-- Node3 -->
<g id="Node000003" class="node">
<title>Node3</title>
<g id="a_Node000003"><a xlink:href="classzero__mate_1_1coprocessor_1_1cp10_1_1CRegister.html#ae797aad92051b6a5e1388698b2895680" target="_top" xlink:title="Overloaded &#45;= operator.">
<polygon fill="white" stroke="#666666" points="160.5,-137.5 2.5,-137.5 2.5,-107.5 160.5,-107.5 160.5,-137.5"/>
<text text-anchor="start" x="10.5" y="-125.5" font-family="Helvetica,sans-Serif" font-size="10.00">zero_mate::coprocessor</text>
<text text-anchor="middle" x="81.5" y="-114.5" font-family="Helvetica,sans-Serif" font-size="10.00">::cp10::CRegister::operator&#45;=</text>
</a>
</g>
</g>
<!-- Node1&#45;&gt;Node3 -->
<g id="edge2_Node000001_Node000003" class="edge">
<title>Node1&#45;&gt;Node3</title>
<g id="a_edge2_Node000001_Node000003"><a xlink:title=" ">
<path fill="none" stroke="#63b8ff" d="M188.77,-108.49C179.43,-109.72 169.88,-110.98 160.51,-112.21"/>
<polygon fill="#63b8ff" stroke="#63b8ff" points="189.34,-111.94 198.79,-107.16 188.42,-105 189.34,-111.94"/>
</a>
</g>
</g>
<!-- Node4 -->
<g id="Node000004" class="node">
<title>Node4</title>
<g id="a_Node000004"><a xlink:href="classzero__mate_1_1coprocessor_1_1cp10_1_1CRegister.html#af455da39427a69cfac7f5764da270b84" target="_top" xlink:title="Overloaded == operator.">
<polygon fill="white" stroke="#666666" points="163,-89.5 0,-89.5 0,-59.5 163,-59.5 163,-89.5"/>
<text text-anchor="start" x="8" y="-77.5" font-family="Helvetica,sans-Serif" font-size="10.00">zero_mate::coprocessor</text>
<text text-anchor="middle" x="81.5" y="-66.5" font-family="Helvetica,sans-Serif" font-size="10.00">::cp10::CRegister::operator==</text>
</a>
</g>
</g>
<!-- Node1&#45;&gt;Node4 -->
<g id="edge3_Node000001_Node000004" class="edge">
<title>Node1&#45;&gt;Node4</title>
<g id="a_edge3_Node000001_Node000004"><a xlink:title=" ">
<path fill="none" stroke="#63b8ff" d="M188.88,-88.53C180.34,-87.4 171.62,-86.25 163.02,-85.12"/>
<polygon fill="#63b8ff" stroke="#63b8ff" points="188.42,-92 198.79,-89.84 189.34,-85.06 188.42,-92"/>
</a>
</g>
</g>
<!-- Node5 -->
<g id="Node000005" class="node">
<title>Node5</title>
<g id="a_Node000005"><a xlink:href="classzero__mate_1_1coprocessor_1_1cp10_1_1CRegister.html#a1e198241f00a01af3a1a9c36f8c9e207" target="_top" xlink:title="Performs a given arithmetic operation and stores the result into this register.">
<polygon fill="white" stroke="#666666" points="153.5,-41 9.5,-41 9.5,0 153.5,0 153.5,-41"/>
<text text-anchor="start" x="17.5" y="-29" font-family="Helvetica,sans-Serif" font-size="10.00">zero_mate::coprocessor</text>
<text text-anchor="start" x="17.5" y="-18" font-family="Helvetica,sans-Serif" font-size="10.00">::cp10::CRegister::Perform</text>
<text text-anchor="middle" x="81.5" y="-7" font-family="Helvetica,sans-Serif" font-size="10.00">_Operation</text>
</a>
</g>
</g>
<!-- Node1&#45;&gt;Node5 -->
<g id="edge4_Node000001_Node000005" class="edge">
<title>Node1&#45;&gt;Node5</title>
<g id="a_edge4_Node000001_Node000005"><a xlink:title=" ">
<path fill="none" stroke="#63b8ff" d="M213.66,-73.42C197.58,-65.77 179.66,-57.53 163,-50.5 155.44,-47.31 147.42,-44.11 139.47,-41.04"/>
<polygon fill="#63b8ff" stroke="#63b8ff" points="212.36,-76.68 222.89,-77.84 215.38,-70.36 212.36,-76.68"/>
</a>
</g>
</g>
</g>
</svg>
