<?xml version="1.0" encoding="UTF-8" standalone="no"?>
<!DOCTYPE svg PUBLIC "-//W3C//DTD SVG 1.1//EN"
 "http://www.w3.org/Graphics/SVG/1.1/DTD/svg11.dtd">
<!-- Generated by graphviz version 2.43.0 (0)
 -->
<!-- Title: zero_mate::arm1176jzf_s::CCPU_Context::Get_Register Pages: 1 -->
<svg width="933pt" height="309pt"
 viewBox="0.00 0.00 933.00 308.50" xmlns="http://www.w3.org/2000/svg" xmlns:xlink="http://www.w3.org/1999/xlink">
<g id="graph0" class="graph" transform="scale(1 1) rotate(0) translate(4 304.5)">
<title>zero_mate::arm1176jzf_s::CCPU_Context::Get_Register</title>
<!-- Node1 -->
<g id="Node000001" class="node">
<title>Node1</title>
<g id="a_Node000001"><a xlink:title="Returns a const reference to a register of a particular CPU mode.">
<polygon fill="#999999" stroke="#666666" points="925,-180 795,-180 795,-139 925,-139 925,-180"/>
<text text-anchor="start" x="803" y="-168" font-family="Helvetica,sans-Serif" font-size="10.00">zero_mate::arm1176jzf</text>
<text text-anchor="start" x="803" y="-157" font-family="Helvetica,sans-Serif" font-size="10.00">_s::CCPU_Context::Get</text>
<text text-anchor="middle" x="860" y="-146" font-family="Helvetica,sans-Serif" font-size="10.00">_Register</text>
</a>
</g>
</g>
<!-- Node2 -->
<g id="Node000002" class="node">
<title>Node2</title>
<g id="a_Node000002"><a xlink:href="classzero__mate_1_1arm1176jzf__s_1_1CCPU__Core.html#a65fef8be920aaccdf3cfea5b0e3d0cee" target="_top" xlink:title="Calculates the base address of a data transfer instruction.">
<polygon fill="white" stroke="#666666" points="738,-229 598,-229 598,-188 738,-188 738,-229"/>
<text text-anchor="start" x="606" y="-217" font-family="Helvetica,sans-Serif" font-size="10.00">zero_mate::arm1176jzf</text>
<text text-anchor="start" x="606" y="-206" font-family="Helvetica,sans-Serif" font-size="10.00">_s::CCPU_Core::Calculate</text>
<text text-anchor="middle" x="668" y="-195" font-family="Helvetica,sans-Serif" font-size="10.00">_Base_Address</text>
</a>
</g>
</g>
<!-- Node1&#45;&gt;Node2 -->
<g id="edge1_Node000001_Node000002" class="edge">
<title>Node1&#45;&gt;Node2</title>
<g id="a_edge1_Node000001_Node000002"><a xlink:title=" ">
<path fill="none" stroke="#63b8ff" d="M784.98,-178.59C769.62,-182.55 753.5,-186.71 738.32,-190.62"/>
<polygon fill="#63b8ff" stroke="#63b8ff" points="786.13,-181.91 794.94,-176.02 784.38,-175.13 786.13,-181.91"/>
</a>
</g>
</g>
<!-- Node3 -->
<g id="Node000003" class="node">
<title>Node3</title>
<g id="a_Node000003"><a xlink:href="classzero__mate_1_1arm1176jzf__s_1_1CCPU__Core.html#a524d4d2622a78e1c416bf4528700bc00" target="_top" xlink:title="Executes a block data transfer instruction.">
<polygon fill="white" stroke="#666666" points="520.5,-300.5 388.5,-300.5 388.5,-270.5 520.5,-270.5 520.5,-300.5"/>
<text text-anchor="start" x="396.5" y="-288.5" font-family="Helvetica,sans-Serif" font-size="10.00">zero_mate::arm1176jzf</text>
<text text-anchor="middle" x="454.5" y="-277.5" font-family="Helvetica,sans-Serif" font-size="10.00">_s::CCPU_Core::Execute</text>
</a>
</g>
</g>
<!-- Node1&#45;&gt;Node3 -->
<g id="edge5_Node000001_Node000003" class="edge">
<title>Node1&#45;&gt;Node3</title>
<g id="a_edge5_Node000001_Node000003"><a xlink:title=" ">
<path fill="none" stroke="#63b8ff" d="M839.12,-188.5C821.18,-212.09 792.51,-243.91 759,-259.5 682.88,-294.91 584.46,-296.4 520.66,-292.43"/>
<polygon fill="#63b8ff" stroke="#63b8ff" points="842.11,-190.36 845.24,-180.23 836.48,-186.19 842.11,-190.36"/>
</a>
</g>
</g>
<!-- Node4 -->
<g id="Node000004" class="node">
<title>Node4</title>
<g id="a_Node000004"><a xlink:href="classzero__mate_1_1arm1176jzf__s_1_1CCPU__Core.html#a28607032a48bea557d81eec0460f4aa6" target="_top" xlink:title="Executes an RFE instruction.">
<polygon fill="white" stroke="#666666" points="520.5,-233.5 388.5,-233.5 388.5,-203.5 520.5,-203.5 520.5,-233.5"/>
<text text-anchor="start" x="396.5" y="-221.5" font-family="Helvetica,sans-Serif" font-size="10.00">zero_mate::arm1176jzf</text>
<text text-anchor="middle" x="454.5" y="-210.5" font-family="Helvetica,sans-Serif" font-size="10.00">_s::CCPU_Core::Execute</text>
</a>
</g>
</g>
<!-- Node1&#45;&gt;Node4 -->
<g id="edge6_Node000001_Node000004" class="edge">
<title>Node1&#45;&gt;Node4</title>
<g id="a_edge6_Node000001_Node000004"><a xlink:title=" ">
<path fill="none" stroke="#63b8ff" d="M833.33,-187.9C814.74,-206.23 787.89,-228.46 759,-238.5 673.83,-268.08 567.25,-249.31 505.72,-233.52"/>
<polygon fill="#63b8ff" stroke="#63b8ff" points="836.26,-189.91 840.77,-180.32 831.27,-185 836.26,-189.91"/>
</a>
</g>
</g>
<!-- Node5 -->
<g id="Node000005" class="node">
<title>Node5</title>
<g id="a_Node000005"><a xlink:href="classzero__mate_1_1arm1176jzf__s_1_1CCPU__Core.html#aa96f69190ff05fe80c310e85b4d1002c" target="_top" xlink:title="Executes an SRS instruction.">
<polygon fill="white" stroke="#666666" points="520.5,-179.5 388.5,-179.5 388.5,-149.5 520.5,-149.5 520.5,-179.5"/>
<text text-anchor="start" x="396.5" y="-167.5" font-family="Helvetica,sans-Serif" font-size="10.00">zero_mate::arm1176jzf</text>
<text text-anchor="middle" x="454.5" y="-156.5" font-family="Helvetica,sans-Serif" font-size="10.00">_s::CCPU_Core::Execute</text>
</a>
</g>
</g>
<!-- Node1&#45;&gt;Node5 -->
<g id="edge7_Node000001_Node000005" class="edge">
<title>Node1&#45;&gt;Node5</title>
<g id="a_edge7_Node000001_Node000005"><a xlink:title=" ">
<path fill="none" stroke="#63b8ff" d="M784.21,-160.43C708.53,-161.36 592.69,-162.8 520.66,-163.69"/>
<polygon fill="#63b8ff" stroke="#63b8ff" points="784.66,-163.92 794.62,-160.3 784.58,-156.92 784.66,-163.92"/>
</a>
</g>
</g>
<!-- Node6 -->
<g id="Node000006" class="node">
<title>Node6</title>
<g id="a_Node000006"><a xlink:href="classzero__mate_1_1arm1176jzf__s_1_1CCPU__Context.html#a8bafb3630715a269d6f808379e1e8707" target="_top" xlink:title="Returns a reference to a register of the current CPU mode.">
<polygon fill="white" stroke="#666666" points="747,-131.5 589,-131.5 589,-101.5 747,-101.5 747,-131.5"/>
<text text-anchor="start" x="597" y="-119.5" font-family="Helvetica,sans-Serif" font-size="10.00">zero_mate::arm1176jzf</text>
<text text-anchor="middle" x="668" y="-108.5" font-family="Helvetica,sans-Serif" font-size="10.00">_s::CCPU_Context::operator[]</text>
</a>
</g>
</g>
<!-- Node1&#45;&gt;Node6 -->
<g id="edge8_Node000001_Node000006" class="edge">
<title>Node1&#45;&gt;Node6</title>
<g id="a_edge8_Node000001_Node000006"><a xlink:title=" ">
<path fill="none" stroke="#63b8ff" d="M784.9,-142.73C768.57,-139.04 751.38,-135.14 735.38,-131.52"/>
<polygon fill="#63b8ff" stroke="#63b8ff" points="784.41,-146.21 794.94,-145 785.96,-139.38 784.41,-146.21"/>
</a>
</g>
</g>
<!-- Node7 -->
<g id="Node000007" class="node">
<title>Node7</title>
<g id="a_Node000007"><a xlink:href="classzero__mate_1_1arm1176jzf__s_1_1CCPU__Context.html#a509b98ecf06c3100d69232f696d50150" target="_top" xlink:title="Returns a const reference to a register of the current CPU mode.">
<polygon fill="white" stroke="#666666" points="747,-83.5 589,-83.5 589,-53.5 747,-53.5 747,-83.5"/>
<text text-anchor="start" x="597" y="-71.5" font-family="Helvetica,sans-Serif" font-size="10.00">zero_mate::arm1176jzf</text>
<text text-anchor="middle" x="668" y="-60.5" font-family="Helvetica,sans-Serif" font-size="10.00">_s::CCPU_Context::operator[]</text>
</a>
</g>
</g>
<!-- Node1&#45;&gt;Node7 -->
<g id="edge9_Node000001_Node000007" class="edge">
<title>Node1&#45;&gt;Node7</title>
<g id="a_edge9_Node000001_Node000007"><a xlink:title=" ">
<path fill="none" stroke="#63b8ff" d="M825.09,-132.68C806.47,-119.03 782.44,-103.12 759,-92.5 751.64,-89.16 743.71,-86.21 735.74,-83.63"/>
<polygon fill="#63b8ff" stroke="#63b8ff" points="823.14,-135.59 833.25,-138.76 827.33,-129.98 823.14,-135.59"/>
</a>
</g>
</g>
<!-- Node8 -->
<g id="Node000008" class="node">
<title>Node8</title>
<g id="a_Node000008"><a xlink:href="classzero__mate_1_1gui_1_1CRegisters__Window.html#a1779ad3caf45c3e8dd342ef8057dfff7" target="_top" xlink:title="Renders table with CPU registers of a given CPU mode.">
<polygon fill="white" stroke="#666666" points="759,-35.5 577,-35.5 577,-5.5 759,-5.5 759,-35.5"/>
<text text-anchor="start" x="585" y="-23.5" font-family="Helvetica,sans-Serif" font-size="10.00">zero_mate::gui::CRegisters</text>
<text text-anchor="middle" x="668" y="-12.5" font-family="Helvetica,sans-Serif" font-size="10.00">_Window::Render_Registers_Table</text>
</a>
</g>
</g>
<!-- Node1&#45;&gt;Node8 -->
<g id="edge10_Node000001_Node000008" class="edge">
<title>Node1&#45;&gt;Node8</title>
<g id="a_edge10_Node000001_Node000008"><a xlink:title=" ">
<path fill="none" stroke="#63b8ff" d="M840.98,-130.28C823.28,-104 793.89,-66.27 759,-44.5 753.51,-41.08 747.54,-38.14 741.37,-35.61"/>
<polygon fill="#63b8ff" stroke="#63b8ff" points="838.11,-132.28 846.53,-138.71 843.96,-128.44 838.11,-132.28"/>
</a>
</g>
</g>
<!-- Node2&#45;&gt;Node3 -->
<g id="edge2_Node000002_Node000003" class="edge">
<title>Node2&#45;&gt;Node3</title>
<g id="a_edge2_Node000002_Node000003"><a xlink:title=" ">
<path fill="none" stroke="#63b8ff" d="M601.19,-232.46C567.16,-244.85 526.66,-259.59 497.01,-270.39"/>
<polygon fill="#63b8ff" stroke="#63b8ff" points="602.4,-235.74 610.6,-229.03 600.01,-229.17 602.4,-235.74"/>
</a>
</g>
</g>
<!-- Node2&#45;&gt;Node4 -->
<g id="edge3_Node000002_Node000004" class="edge">
<title>Node2&#45;&gt;Node4</title>
<g id="a_edge3_Node000002_Node000004"><a xlink:title=" ">
<path fill="none" stroke="#63b8ff" d="M587.71,-212.25C565.59,-213.3 541.81,-214.42 520.6,-215.42"/>
<polygon fill="#63b8ff" stroke="#63b8ff" points="587.92,-215.74 597.75,-211.77 587.59,-208.75 587.92,-215.74"/>
</a>
</g>
</g>
<!-- Node2&#45;&gt;Node5 -->
<g id="edge4_Node000002_Node000005" class="edge">
<title>Node2&#45;&gt;Node5</title>
<g id="a_edge4_Node000002_Node000005"><a xlink:title=" ">
<path fill="none" stroke="#63b8ff" d="M587.71,-192.01C565.59,-187.4 541.81,-182.46 520.6,-178.04"/>
<polygon fill="#63b8ff" stroke="#63b8ff" points="587.24,-195.48 597.75,-194.09 588.67,-188.63 587.24,-195.48"/>
</a>
</g>
</g>
<!-- Node9 -->
<g id="Node000009" class="node">
<title>Node9</title>
<g id="a_Node000009"><a xlink:href="classzero__mate_1_1gui_1_1CRegisters__Window.html#a25928c2ab0086154b73843f84a831953" target="_top" xlink:title="Renders different format tabs of a given CPU mode.">
<polygon fill="white" stroke="#666666" points="541,-35.5 368,-35.5 368,-5.5 541,-5.5 541,-35.5"/>
<text text-anchor="start" x="376" y="-23.5" font-family="Helvetica,sans-Serif" font-size="10.00">zero_mate::gui::CRegisters</text>
<text text-anchor="middle" x="454.5" y="-12.5" font-family="Helvetica,sans-Serif" font-size="10.00">_Window::Render_Register_Tabs</text>
</a>
</g>
</g>
<!-- Node8&#45;&gt;Node9 -->
<g id="edge11_Node000008_Node000009" class="edge">
<title>Node8&#45;&gt;Node9</title>
<g id="a_edge11_Node000008_Node000009"><a xlink:title=" ">
<path fill="none" stroke="#63b8ff" d="M566.89,-20.5C558.25,-20.5 549.56,-20.5 541.05,-20.5"/>
<polygon fill="#63b8ff" stroke="#63b8ff" points="567,-24 577,-20.5 567,-17 567,-24"/>
</a>
</g>
</g>
<!-- Node10 -->
<g id="Node000010" class="node">
<title>Node10</title>
<g id="a_Node000010"><a xlink:href="classzero__mate_1_1gui_1_1CRegisters__Window.html#ac9b00209a3db86452bf51d8f4c9dbf72" target="_top" xlink:title="Renders tabs for different CPU modes (SVC, IRQ, FIQ, etc.)">
<polygon fill="white" stroke="#666666" points="332,-41 184,-41 184,0 332,0 332,-41"/>
<text text-anchor="start" x="192" y="-29" font-family="Helvetica,sans-Serif" font-size="10.00">zero_mate::gui::CRegisters</text>
<text text-anchor="start" x="192" y="-18" font-family="Helvetica,sans-Serif" font-size="10.00">_Window::Render_Register</text>
<text text-anchor="middle" x="258" y="-7" font-family="Helvetica,sans-Serif" font-size="10.00">_Modes_Tabs</text>
</a>
</g>
</g>
<!-- Node9&#45;&gt;Node10 -->
<g id="edge12_Node000009_Node000010" class="edge">
<title>Node9&#45;&gt;Node10</title>
<g id="a_edge12_Node000009_Node000010"><a xlink:title=" ">
<path fill="none" stroke="#63b8ff" d="M357.81,-20.5C349.18,-20.5 340.54,-20.5 332.15,-20.5"/>
<polygon fill="#63b8ff" stroke="#63b8ff" points="357.91,-24 367.91,-20.5 357.91,-17 357.91,-24"/>
</a>
</g>
</g>
<!-- Node11 -->
<g id="Node000011" class="node">
<title>Node11</title>
<g id="a_Node000011"><a xlink:href="classzero__mate_1_1gui_1_1CRegisters__Window.html#a12beb19205052a340193be90b32e5717" target="_top" xlink:title="Renders the windows (IGUI_Window interface).">
<polygon fill="white" stroke="#666666" points="148,-35.5 0,-35.5 0,-5.5 148,-5.5 148,-35.5"/>
<text text-anchor="start" x="8" y="-23.5" font-family="Helvetica,sans-Serif" font-size="10.00">zero_mate::gui::CRegisters</text>
<text text-anchor="middle" x="74" y="-12.5" font-family="Helvetica,sans-Serif" font-size="10.00">_Window::Render</text>
</a>
</g>
</g>
<!-- Node10&#45;&gt;Node11 -->
<g id="edge13_Node000010_Node000011" class="edge">
<title>Node10&#45;&gt;Node11</title>
<g id="a_edge13_Node000010_Node000011"><a xlink:title=" ">
<path fill="none" stroke="#63b8ff" d="M173.48,-20.5C165.01,-20.5 156.44,-20.5 148.09,-20.5"/>
<polygon fill="#63b8ff" stroke="#63b8ff" points="173.76,-24 183.76,-20.5 173.76,-17 173.76,-24"/>
</a>
</g>
</g>
</g>
</svg>
