<?xml version="1.0" encoding="UTF-8" standalone="no"?>
<!DOCTYPE svg PUBLIC "-//W3C//DTD SVG 1.1//EN"
 "http://www.w3.org/Graphics/SVG/1.1/DTD/svg11.dtd">
<!-- Generated by graphviz version 2.43.0 (0)
 -->
<!-- Title: zero_mate::arm1176jzf_s::CCPU_Core::Execute Pages: 1 -->
<svg width="1285pt" height="452pt"
 viewBox="0.00 0.00 1285.00 451.50" xmlns="http://www.w3.org/2000/svg" xmlns:xlink="http://www.w3.org/1999/xlink">
<g id="graph0" class="graph" transform="scale(1 1) rotate(0) translate(4 447.5)">
<title>zero_mate::arm1176jzf_s::CCPU_Core::Execute</title>
<!-- Node1 -->
<g id="Node000001" class="node">
<title>Node1</title>
<g id="a_Node000001"><a xlink:title="Executes a PSR transfer instruction.">
<polygon fill="#999999" stroke="#666666" points="132,-371.5 0,-371.5 0,-341.5 132,-341.5 132,-371.5"/>
<text text-anchor="start" x="8" y="-359.5" font-family="Helvetica,sans-Serif" font-size="10.00">zero_mate::arm1176jzf</text>
<text text-anchor="middle" x="66" y="-348.5" font-family="Helvetica,sans-Serif" font-size="10.00">_s::CCPU_Core::Execute</text>
</a>
</g>
</g>
<!-- Node2 -->
<g id="Node000002" class="node">
<title>Node2</title>
<g id="a_Node000002"><a xlink:href="classzero__mate_1_1arm1176jzf__s_1_1CCPU__Core.html#a82f0fa55ec787c7a39bac81b7437aec2" target="_top" xlink:title="Executes an MRS instruction (move data from CPSR/SPSR to an ARM register).">
<polygon fill="white" stroke="#666666" points="327,-395.5 168,-395.5 168,-365.5 327,-365.5 327,-395.5"/>
<text text-anchor="start" x="176" y="-383.5" font-family="Helvetica,sans-Serif" font-size="10.00">zero_mate::arm1176jzf</text>
<text text-anchor="middle" x="247.5" y="-372.5" font-family="Helvetica,sans-Serif" font-size="10.00">_s::CCPU_Core::Execute_MRS</text>
</a>
</g>
</g>
<!-- Node1&#45;&gt;Node2 -->
<g id="edge1_Node000001_Node000002" class="edge">
<title>Node1&#45;&gt;Node2</title>
<g id="a_edge1_Node000001_Node000002"><a xlink:title=" ">
<path fill="none" stroke="#63b8ff" d="M132.06,-365.2C140.42,-366.32 149.1,-367.48 157.76,-368.64"/>
<polygon fill="#63b8ff" stroke="#63b8ff" points="157.53,-372.14 167.91,-369.99 158.46,-365.2 157.53,-372.14"/>
</a>
</g>
</g>
<!-- Node12 -->
<g id="Node000012" class="node">
<title>Node12</title>
<g id="a_Node000012"><a xlink:href="classzero__mate_1_1arm1176jzf__s_1_1CCPU__Core.html#abe7461d09a52f28f99037717f61975c6" target="_top" xlink:title="Executes an MSR instruction (move data to CPSR/SPSR from an ARM register).">
<polygon fill="white" stroke="#666666" points="327,-347.5 168,-347.5 168,-317.5 327,-317.5 327,-347.5"/>
<text text-anchor="start" x="176" y="-335.5" font-family="Helvetica,sans-Serif" font-size="10.00">zero_mate::arm1176jzf</text>
<text text-anchor="middle" x="247.5" y="-324.5" font-family="Helvetica,sans-Serif" font-size="10.00">_s::CCPU_Core::Execute_MSR</text>
</a>
</g>
</g>
<!-- Node1&#45;&gt;Node12 -->
<g id="edge11_Node000001_Node000012" class="edge">
<title>Node1&#45;&gt;Node12</title>
<g id="a_edge11_Node000001_Node000012"><a xlink:title=" ">
<path fill="none" stroke="#63b8ff" d="M132.06,-347.8C140.42,-346.68 149.1,-345.52 157.76,-344.36"/>
<polygon fill="#63b8ff" stroke="#63b8ff" points="158.46,-347.8 167.91,-343.01 157.53,-340.86 158.46,-347.8"/>
</a>
</g>
</g>
<!-- Node3 -->
<g id="Node000003" class="node">
<title>Node3</title>
<g id="a_Node000003"><a xlink:href="classzero__mate_1_1arm1176jzf__s_1_1CCPU__Context.html#acf66c6ff905975912dbf52133ddfeceb" target="_top" xlink:title="Returns a reference the CPSR register of the current CPU mode.">
<polygon fill="white" stroke="#666666" points="521,-443.5 363,-443.5 363,-413.5 521,-413.5 521,-443.5"/>
<text text-anchor="start" x="371" y="-431.5" font-family="Helvetica,sans-Serif" font-size="10.00">zero_mate::arm1176jzf</text>
<text text-anchor="middle" x="442" y="-420.5" font-family="Helvetica,sans-Serif" font-size="10.00">_s::CCPU_Context::Get_CPSR</text>
</a>
</g>
</g>
<!-- Node2&#45;&gt;Node3 -->
<g id="edge2_Node000002_Node000003" class="edge">
<title>Node2&#45;&gt;Node3</title>
<g id="a_edge2_Node000002_Node000003"><a xlink:title=" ">
<path fill="none" stroke="#63b8ff" d="M308.88,-395.56C328.59,-400.47 350.64,-405.97 371,-411.04"/>
<polygon fill="#63b8ff" stroke="#63b8ff" points="370.28,-414.47 380.83,-413.5 371.98,-407.68 370.28,-414.47"/>
</a>
</g>
</g>
<!-- Node4 -->
<g id="Node000004" class="node">
<title>Node4</title>
<g id="a_Node000004"><a xlink:href="classzero__mate_1_1arm1176jzf__s_1_1CCPU__Context.html#ae00681efcbc4adfcfde001a67c5baeca" target="_top" xlink:title="Returns the value of the SPSR register of the current CPU mode.">
<polygon fill="white" stroke="#666666" points="520.5,-395.5 363.5,-395.5 363.5,-365.5 520.5,-365.5 520.5,-395.5"/>
<text text-anchor="start" x="371.5" y="-383.5" font-family="Helvetica,sans-Serif" font-size="10.00">zero_mate::arm1176jzf</text>
<text text-anchor="middle" x="442" y="-372.5" font-family="Helvetica,sans-Serif" font-size="10.00">_s::CCPU_Context::Get_SPSR</text>
</a>
</g>
</g>
<!-- Node2&#45;&gt;Node4 -->
<g id="edge3_Node000002_Node000004" class="edge">
<title>Node2&#45;&gt;Node4</title>
<g id="a_edge3_Node000002_Node000004"><a xlink:title=" ">
<path fill="none" stroke="#63b8ff" d="M327.07,-380.5C335.67,-380.5 344.46,-380.5 353.15,-380.5"/>
<polygon fill="#63b8ff" stroke="#63b8ff" points="353.3,-384 363.3,-380.5 353.3,-377 353.3,-384"/>
</a>
</g>
</g>
<!-- Node5 -->
<g id="Node000005" class="node">
<title>Node5</title>
<g id="a_Node000005"><a xlink:href="classzero__mate_1_1arm1176jzf__s_1_1CCPU__Context.html#a050dada520ca82a21874045815c596a8" target="_top" xlink:title=" ">
<polygon fill="white" stroke="#666666" points="702.5,-412 565.5,-412 565.5,-371 702.5,-371 702.5,-412"/>
<text text-anchor="start" x="573.5" y="-400" font-family="Helvetica,sans-Serif" font-size="10.00">zero_mate::arm1176jzf</text>
<text text-anchor="start" x="573.5" y="-389" font-family="Helvetica,sans-Serif" font-size="10.00">_s::CCPU_Context::Verify</text>
<text text-anchor="middle" x="634" y="-378" font-family="Helvetica,sans-Serif" font-size="10.00">_SPSR_Accessibility</text>
</a>
</g>
</g>
<!-- Node4&#45;&gt;Node5 -->
<g id="edge4_Node000004_Node000005" class="edge">
<title>Node4&#45;&gt;Node5</title>
<g id="a_edge4_Node000004_Node000005"><a xlink:title=" ">
<path fill="none" stroke="#63b8ff" d="M520.55,-384.99C532.06,-385.66 543.92,-386.34 555.43,-387.01"/>
<polygon fill="#63b8ff" stroke="#63b8ff" points="555.25,-390.5 565.44,-387.59 555.65,-383.52 555.25,-390.5"/>
</a>
</g>
</g>
<!-- Node6 -->
<g id="Node000006" class="node">
<title>Node6</title>
<g id="a_Node000006"><a xlink:href="classzero__mate_1_1utils_1_1CLogging__System.html#a57ed77e1a5cf822cea532cc5e05c3f60" target="_top" xlink:title="Logs an error message via all registered loggers.">
<polygon fill="white" stroke="#666666" points="893,-295.5 747,-295.5 747,-265.5 893,-265.5 893,-295.5"/>
<text text-anchor="start" x="755" y="-283.5" font-family="Helvetica,sans-Serif" font-size="10.00">zero_mate::utils::CLogging</text>
<text text-anchor="middle" x="820" y="-272.5" font-family="Helvetica,sans-Serif" font-size="10.00">_System::Error</text>
</a>
</g>
</g>
<!-- Node5&#45;&gt;Node6 -->
<g id="edge5_Node000005_Node000006" class="edge">
<title>Node5&#45;&gt;Node6</title>
<g id="a_edge5_Node000005_Node000006"><a xlink:title=" ">
<path fill="none" stroke="#63b8ff" d="M693.86,-370.98C699.76,-368.35 705.57,-365.52 711,-362.5 741.71,-345.45 773.3,-320.42 794.32,-302.5"/>
<polygon fill="#63b8ff" stroke="#63b8ff" points="796.83,-304.97 802.11,-295.78 792.25,-299.67 796.83,-304.97"/>
</a>
</g>
</g>
<!-- Node11 -->
<g id="Node000011" class="node">
<title>Node11</title>
<g id="a_Node000011"><a xlink:href="classzero__mate_1_1arm1176jzf__s_1_1CCPU__Context.html#a6fc387fa0b0dd040c4e2463606d933e4" target="_top" xlink:title="Checks if the CPU mode passed in as a parameter supports the SPSR register or not.">
<polygon fill="white" stroke="#666666" points="885,-412 755,-412 755,-371 885,-371 885,-412"/>
<text text-anchor="start" x="763" y="-400" font-family="Helvetica,sans-Serif" font-size="10.00">zero_mate::arm1176jzf</text>
<text text-anchor="start" x="763" y="-389" font-family="Helvetica,sans-Serif" font-size="10.00">_s::CCPU_Context::Is</text>
<text text-anchor="middle" x="820" y="-378" font-family="Helvetica,sans-Serif" font-size="10.00">_Mode_With_No_SPSR</text>
</a>
</g>
</g>
<!-- Node5&#45;&gt;Node11 -->
<g id="edge10_Node000005_Node000011" class="edge">
<title>Node5&#45;&gt;Node11</title>
<g id="a_edge10_Node000005_Node000011"><a xlink:title=" ">
<path fill="none" stroke="#63b8ff" d="M702.73,-391.5C716.42,-391.5 730.88,-391.5 744.78,-391.5"/>
<polygon fill="#63b8ff" stroke="#63b8ff" points="744.78,-395 754.78,-391.5 744.78,-388 744.78,-395"/>
</a>
</g>
</g>
<!-- Node7 -->
<g id="Node000007" class="node">
<title>Node7</title>
<g id="a_Node000007"><a xlink:href="classzero__mate_1_1utils_1_1CLogging__System.html#a71ed11c796553cbe8fd99773406a1060" target="_top" xlink:title="Creates a formatted message to be logged.">
<polygon fill="white" stroke="#666666" points="1081,-328 929,-328 929,-287 1081,-287 1081,-328"/>
<text text-anchor="start" x="937" y="-316" font-family="Helvetica,sans-Serif" font-size="10.00">zero_mate::utils::CLogging</text>
<text text-anchor="start" x="937" y="-305" font-family="Helvetica,sans-Serif" font-size="10.00">_System::Create_Formatted</text>
<text text-anchor="middle" x="1005" y="-294" font-family="Helvetica,sans-Serif" font-size="10.00">_Log_Msg</text>
</a>
</g>
</g>
<!-- Node6&#45;&gt;Node7 -->
<g id="edge6_Node000006_Node000007" class="edge">
<title>Node6&#45;&gt;Node7</title>
<g id="a_edge6_Node000006_Node000007"><a xlink:title=" ">
<path fill="none" stroke="#63b8ff" d="M893.06,-291.13C901.55,-292.38 910.26,-293.67 918.9,-294.94"/>
<polygon fill="#63b8ff" stroke="#63b8ff" points="918.59,-298.44 928.99,-296.43 919.61,-291.51 918.59,-298.44"/>
</a>
</g>
</g>
<!-- Node10 -->
<g id="Node000010" class="node">
<title>Node10</title>
<g id="a_Node000010"><a xlink:href="classzero__mate_1_1utils_1_1CLogging__System.html#ad371c67ef65763966ccf9291002e86f3" target="_top" xlink:title="Extract the filename from a given location within the source files.">
<polygon fill="white" stroke="#666666" points="1079.5,-268.5 930.5,-268.5 930.5,-238.5 1079.5,-238.5 1079.5,-268.5"/>
<text text-anchor="start" x="938.5" y="-256.5" font-family="Helvetica,sans-Serif" font-size="10.00">zero_mate::utils::CLogging</text>
<text text-anchor="middle" x="1005" y="-245.5" font-family="Helvetica,sans-Serif" font-size="10.00">_System::Extract_Filename</text>
</a>
</g>
</g>
<!-- Node6&#45;&gt;Node10 -->
<g id="edge9_Node000006_Node000010" class="edge">
<title>Node6&#45;&gt;Node10</title>
<g id="a_edge9_Node000006_Node000010"><a xlink:title=" ">
<path fill="none" stroke="#63b8ff" d="M893.06,-269.87C902.1,-268.53 911.4,-267.16 920.59,-265.81"/>
<polygon fill="#63b8ff" stroke="#63b8ff" points="921.12,-269.27 930.5,-264.34 920.1,-262.34 921.12,-269.27"/>
</a>
</g>
</g>
<!-- Node8 -->
<g id="Node000008" class="node">
<title>Node8</title>
<g id="a_Node000008"><a xlink:href="classzero__mate_1_1utils_1_1CLogging__System.html#aa70c102c805079042ffea2a6f2a5ad64" target="_top" xlink:title="Formats a given timestamp.">
<polygon fill="white" stroke="#666666" points="1277,-346.5 1117,-346.5 1117,-316.5 1277,-316.5 1277,-346.5"/>
<text text-anchor="start" x="1125" y="-334.5" font-family="Helvetica,sans-Serif" font-size="10.00">zero_mate::utils::CLogging</text>
<text text-anchor="middle" x="1197" y="-323.5" font-family="Helvetica,sans-Serif" font-size="10.00">_System::Format_Timestamp</text>
</a>
</g>
</g>
<!-- Node7&#45;&gt;Node8 -->
<g id="edge7_Node000007_Node000008" class="edge">
<title>Node7&#45;&gt;Node8</title>
<g id="a_edge7_Node000007_Node000008"><a xlink:title=" ">
<path fill="none" stroke="#63b8ff" d="M1081.09,-316.99C1089.52,-318.05 1098.16,-319.14 1106.74,-320.23"/>
<polygon fill="#63b8ff" stroke="#63b8ff" points="1106.41,-323.71 1116.77,-321.49 1107.29,-316.77 1106.41,-323.71"/>
</a>
</g>
</g>
<!-- Node9 -->
<g id="Node000009" class="node">
<title>Node9</title>
<g id="a_Node000009"><a xlink:href="classzero__mate_1_1utils_1_1CLogging__System.html#ae3ca637537dde05e0b9119145c840331" target="_top" xlink:title="Returns the current timestamp that will be used in a log message.">
<polygon fill="white" stroke="#666666" points="1270,-298.5 1124,-298.5 1124,-268.5 1270,-268.5 1270,-298.5"/>
<text text-anchor="start" x="1132" y="-286.5" font-family="Helvetica,sans-Serif" font-size="10.00">zero_mate::utils::CLogging</text>
<text text-anchor="middle" x="1197" y="-275.5" font-family="Helvetica,sans-Serif" font-size="10.00">_System::Get_Timestamp</text>
</a>
</g>
</g>
<!-- Node7&#45;&gt;Node9 -->
<g id="edge8_Node000007_Node000009" class="edge">
<title>Node7&#45;&gt;Node9</title>
<g id="a_edge8_Node000007_Node000009"><a xlink:title=" ">
<path fill="none" stroke="#63b8ff" d="M1081.09,-298.01C1091.89,-296.65 1103.05,-295.24 1113.98,-293.86"/>
<polygon fill="#63b8ff" stroke="#63b8ff" points="1114.45,-297.33 1123.93,-292.6 1113.57,-290.38 1114.45,-297.33"/>
</a>
</g>
</g>
<!-- Node12&#45;&gt;Node3 -->
<g id="edge12_Node000012_Node000003" class="edge">
<title>Node12&#45;&gt;Node3</title>
<g id="a_edge12_Node000012_Node000003"><a xlink:title=" ">
<path fill="none" stroke="#63b8ff" d="M311.08,-347.57C316.7,-350.1 322.1,-353.06 327,-356.5 348.83,-371.82 341.19,-389.16 363,-404.5 365.13,-406 367.36,-407.4 369.65,-408.72"/>
<polygon fill="#63b8ff" stroke="#63b8ff" points="368.32,-411.97 378.81,-413.4 371.5,-405.74 368.32,-411.97"/>
</a>
</g>
</g>
<!-- Node12&#45;&gt;Node4 -->
<g id="edge18_Node000012_Node000004" class="edge">
<title>Node12&#45;&gt;Node4</title>
<g id="a_edge18_Node000012_Node000004"><a xlink:title=" ">
<path fill="none" stroke="#63b8ff" d="M308.88,-347.56C328.59,-352.47 350.64,-357.97 371,-363.04"/>
<polygon fill="#63b8ff" stroke="#63b8ff" points="370.28,-366.47 380.83,-365.5 371.98,-359.68 370.28,-366.47"/>
</a>
</g>
</g>
<!-- Node13 -->
<g id="Node000013" class="node">
<title>Node13</title>
<g id="a_Node000013"><a xlink:href="classzero__mate_1_1arm1176jzf__s_1_1CCPU__Core.html#a4b9e6a828e9739a227ab6da615fb4b15" target="_top" xlink:title="Calculates the second immediate operand of a given instruction.">
<polygon fill="white" stroke="#666666" points="518,-124 366,-124 366,-83 518,-83 518,-124"/>
<text text-anchor="start" x="374" y="-112" font-family="Helvetica,sans-Serif" font-size="10.00">zero_mate::arm1176jzf</text>
<text text-anchor="start" x="374" y="-101" font-family="Helvetica,sans-Serif" font-size="10.00">_s::CCPU_Core::Get_Second</text>
<text text-anchor="middle" x="442" y="-90" font-family="Helvetica,sans-Serif" font-size="10.00">_Operand_Imm</text>
</a>
</g>
</g>
<!-- Node12&#45;&gt;Node13 -->
<g id="edge13_Node000012_Node000013" class="edge">
<title>Node12&#45;&gt;Node13</title>
<g id="a_edge13_Node000012_Node000013"><a xlink:title=" ">
<path fill="none" stroke="#63b8ff" d="M261.13,-317.47C292.82,-279.77 376.12,-180.68 417.28,-131.72"/>
<polygon fill="#63b8ff" stroke="#63b8ff" points="419.99,-133.93 423.75,-124.02 414.63,-129.43 419.99,-133.93"/>
</a>
</g>
</g>
<!-- Node18 -->
<g id="Node000018" class="node">
<title>Node18</title>
<g id="a_Node000018"><a xlink:href="classzero__mate_1_1arm1176jzf__s_1_1CCPU__Context.html#a53765299c790cc790e15deb2c701bd2a" target="_top" xlink:title="Sets a new value to the CPSR register.">
<polygon fill="white" stroke="#666666" points="520,-288.5 364,-288.5 364,-258.5 520,-258.5 520,-288.5"/>
<text text-anchor="start" x="372" y="-276.5" font-family="Helvetica,sans-Serif" font-size="10.00">zero_mate::arm1176jzf</text>
<text text-anchor="middle" x="442" y="-265.5" font-family="Helvetica,sans-Serif" font-size="10.00">_s::CCPU_Context::Set_CPSR</text>
</a>
</g>
</g>
<!-- Node12&#45;&gt;Node18 -->
<g id="edge19_Node000012_Node000018" class="edge">
<title>Node12&#45;&gt;Node18</title>
<g id="a_edge19_Node000012_Node000018"><a xlink:title=" ">
<path fill="none" stroke="#63b8ff" d="M297.57,-317.46C323.37,-309.55 355.17,-299.81 382.27,-291.5"/>
<polygon fill="#63b8ff" stroke="#63b8ff" points="383.48,-294.79 392.02,-288.51 381.43,-288.1 383.48,-294.79"/>
</a>
</g>
</g>
<!-- Node22 -->
<g id="Node000022" class="node">
<title>Node22</title>
<g id="a_Node000022"><a xlink:href="classzero__mate_1_1arm1176jzf__s_1_1CCPU__Context.html#a1b322131a1168763d2b8083c17a1079b" target="_top" xlink:title="Sets the value of the SPSR register in the CPU mode passed in as a parameter.">
<polygon fill="white" stroke="#666666" points="519.5,-347.5 364.5,-347.5 364.5,-317.5 519.5,-317.5 519.5,-347.5"/>
<text text-anchor="start" x="372.5" y="-335.5" font-family="Helvetica,sans-Serif" font-size="10.00">zero_mate::arm1176jzf</text>
<text text-anchor="middle" x="442" y="-324.5" font-family="Helvetica,sans-Serif" font-size="10.00">_s::CCPU_Context::Set_SPSR</text>
</a>
</g>
</g>
<!-- Node12&#45;&gt;Node22 -->
<g id="edge24_Node000012_Node000022" class="edge">
<title>Node12&#45;&gt;Node22</title>
<g id="a_edge24_Node000012_Node000022"><a xlink:title=" ">
<path fill="none" stroke="#63b8ff" d="M327.07,-332.5C335.99,-332.5 345.11,-332.5 354.12,-332.5"/>
<polygon fill="#63b8ff" stroke="#63b8ff" points="354.23,-336 364.23,-332.5 354.23,-329 354.23,-336"/>
</a>
</g>
</g>
<!-- Node14 -->
<g id="Node000014" class="node">
<title>Node14</title>
<g id="a_Node000014"><a xlink:href="classzero__mate_1_1arm1176jzf__s_1_1isa_1_1CData__Processing.html#a5c64aa0622ddf4f42bccfa900673d005" target="_top" xlink:title="Return the immediate value (unsigned 8&#45;bit value).">
<polygon fill="white" stroke="#666666" points="704.5,-100 563.5,-100 563.5,-59 704.5,-59 704.5,-100"/>
<text text-anchor="start" x="571.5" y="-88" font-family="Helvetica,sans-Serif" font-size="10.00">zero_mate::arm1176jzf</text>
<text text-anchor="start" x="571.5" y="-77" font-family="Helvetica,sans-Serif" font-size="10.00">_s::isa::CData_Processing</text>
<text text-anchor="middle" x="634" y="-66" font-family="Helvetica,sans-Serif" font-size="10.00">::Get_Immediate</text>
</a>
</g>
</g>
<!-- Node13&#45;&gt;Node14 -->
<g id="edge14_Node000013_Node000014" class="edge">
<title>Node13&#45;&gt;Node14</title>
<g id="a_edge14_Node000013_Node000014"><a xlink:title=" ">
<path fill="none" stroke="#63b8ff" d="M518.09,-94.01C529.65,-92.56 541.61,-91.04 553.26,-89.57"/>
<polygon fill="#63b8ff" stroke="#63b8ff" points="553.91,-93.02 563.4,-88.29 553.04,-86.07 553.91,-93.02"/>
</a>
</g>
</g>
<!-- Node15 -->
<g id="Node000015" class="node">
<title>Node15</title>
<g id="a_Node000015"><a xlink:href="classzero__mate_1_1arm1176jzf__s_1_1isa_1_1CData__Processing.html#acd5c9629ee16e0512678279f85158b72" target="_top" xlink:title="Returns the shift amount to be applied to the immediate value.">
<polygon fill="white" stroke="#666666" points="704.5,-41 563.5,-41 563.5,0 704.5,0 704.5,-41"/>
<text text-anchor="start" x="571.5" y="-29" font-family="Helvetica,sans-Serif" font-size="10.00">zero_mate::arm1176jzf</text>
<text text-anchor="start" x="571.5" y="-18" font-family="Helvetica,sans-Serif" font-size="10.00">_s::isa::CData_Processing</text>
<text text-anchor="middle" x="634" y="-7" font-family="Helvetica,sans-Serif" font-size="10.00">::Get_Rotate</text>
</a>
</g>
</g>
<!-- Node13&#45;&gt;Node15 -->
<g id="edge15_Node000013_Node000015" class="edge">
<title>Node13&#45;&gt;Node15</title>
<g id="a_edge15_Node000013_Node000015"><a xlink:title=" ">
<path fill="none" stroke="#63b8ff" d="M485.77,-82.89C507.04,-72.82 533.23,-60.7 557,-50.5 561.33,-48.64 565.82,-46.76 570.36,-44.89"/>
<polygon fill="#63b8ff" stroke="#63b8ff" points="571.75,-48.1 579.68,-41.08 569.1,-41.62 571.75,-48.1"/>
</a>
</g>
</g>
<!-- Node16 -->
<g id="Node000016" class="node">
<title>Node16</title>
<g id="a_Node000016"><a xlink:href="namespacezero__mate_1_1utils_1_1math.html#acec3045831345d7d2e2b3a20ff2fd4fd" target="_top" xlink:title="Performs an ROR (rotate right extended) operation on the given integral value.">
<polygon fill="white" stroke="#666666" points="711,-137 557,-137 557,-118 711,-118 711,-137"/>
<text text-anchor="middle" x="634" y="-125" font-family="Helvetica,sans-Serif" font-size="10.00">zero_mate::utils::math::ROR</text>
</a>
</g>
</g>
<!-- Node13&#45;&gt;Node16 -->
<g id="edge16_Node000013_Node000016" class="edge">
<title>Node13&#45;&gt;Node16</title>
<g id="a_edge16_Node000013_Node000016"><a xlink:title=" ">
<path fill="none" stroke="#63b8ff" d="M518.09,-112.99C527.72,-114.2 537.62,-115.45 547.4,-116.69"/>
<polygon fill="#63b8ff" stroke="#63b8ff" points="547.16,-120.18 557.52,-117.97 548.04,-113.24 547.16,-120.18"/>
</a>
</g>
</g>
<!-- Node17 -->
<g id="Node000017" class="node">
<title>Node17</title>
<g id="a_Node000017"><a xlink:href="namespacezero__mate_1_1utils_1_1math.html#af7d93c996dab2ff1b91c5a399dcfe29f" target="_top" xlink:title="Tests whether a bit is set in the given integral variable.">
<polygon fill="white" stroke="#666666" points="883.5,-142.5 756.5,-142.5 756.5,-112.5 883.5,-112.5 883.5,-142.5"/>
<text text-anchor="start" x="764.5" y="-130.5" font-family="Helvetica,sans-Serif" font-size="10.00">zero_mate::utils::math</text>
<text text-anchor="middle" x="820" y="-119.5" font-family="Helvetica,sans-Serif" font-size="10.00">::Is_Bit_Set</text>
</a>
</g>
</g>
<!-- Node16&#45;&gt;Node17 -->
<g id="edge17_Node000016_Node000017" class="edge">
<title>Node16&#45;&gt;Node17</title>
<g id="a_edge17_Node000016_Node000017"><a xlink:title=" ">
<path fill="none" stroke="#63b8ff" d="M711.17,-127.5C722.79,-127.5 734.76,-127.5 746.31,-127.5"/>
<polygon fill="#63b8ff" stroke="#63b8ff" points="746.32,-131 756.32,-127.5 746.32,-124 746.32,-131"/>
</a>
</g>
</g>
<!-- Node18&#45;&gt;Node6 -->
<g id="edge20_Node000018_Node000006" class="edge">
<title>Node18&#45;&gt;Node6</title>
<g id="a_edge20_Node000018_Node000006"><a xlink:title=" ">
<path fill="none" stroke="#63b8ff" d="M491.03,-258.45C511.19,-252.88 535.01,-247.25 557,-244.5 624.91,-236 643.44,-233.54 711,-244.5 732.1,-247.92 754.65,-254.88 773.65,-261.77"/>
<polygon fill="#63b8ff" stroke="#63b8ff" points="772.65,-265.13 783.24,-265.35 775.1,-258.58 772.65,-265.13"/>
</a>
</g>
</g>
<!-- Node19 -->
<g id="Node000019" class="node">
<title>Node19</title>
<g id="a_Node000019"><a xlink:href="classzero__mate_1_1arm1176jzf__s_1_1CCPU__Context.html#aa740f9219bb413d707ac72f373e60d3a" target="_top" xlink:title="Returns the current mode of the CPU.">
<polygon fill="white" stroke="#666666" points="699,-196 569,-196 569,-155 699,-155 699,-196"/>
<text text-anchor="start" x="577" y="-184" font-family="Helvetica,sans-Serif" font-size="10.00">zero_mate::arm1176jzf</text>
<text text-anchor="start" x="577" y="-173" font-family="Helvetica,sans-Serif" font-size="10.00">_s::CCPU_Context::Get</text>
<text text-anchor="middle" x="634" y="-162" font-family="Helvetica,sans-Serif" font-size="10.00">_CPU_Mode</text>
</a>
</g>
</g>
<!-- Node18&#45;&gt;Node19 -->
<g id="edge21_Node000018_Node000019" class="edge">
<title>Node18&#45;&gt;Node19</title>
<g id="a_edge21_Node000018_Node000019"><a xlink:title=" ">
<path fill="none" stroke="#63b8ff" d="M468.97,-258.44C491.89,-245.31 526.33,-226.01 557,-210.5 563.59,-207.16 570.57,-203.77 577.51,-200.48"/>
<polygon fill="#63b8ff" stroke="#63b8ff" points="579.36,-203.48 586.92,-196.06 576.39,-197.14 579.36,-203.48"/>
</a>
</g>
</g>
<!-- Node20 -->
<g id="Node000020" class="node">
<title>Node20</title>
<g id="a_Node000020"><a xlink:href="classzero__mate_1_1arm1176jzf__s_1_1CCPU__Context.html#aa53dae8f0dd16d916a852e572dfa95ba" target="_top" xlink:title="Checks if there is an invalid attempt to change the control bits of the CPSR register.">
<polygon fill="white" stroke="#666666" points="705.5,-353 562.5,-353 562.5,-312 705.5,-312 705.5,-353"/>
<text text-anchor="start" x="570.5" y="-341" font-family="Helvetica,sans-Serif" font-size="10.00">zero_mate::arm1176jzf</text>
<text text-anchor="start" x="570.5" y="-330" font-family="Helvetica,sans-Serif" font-size="10.00">_s::CCPU_Context::Invalid</text>
<text text-anchor="middle" x="634" y="-319" font-family="Helvetica,sans-Serif" font-size="10.00">_Change_Of_Control_Bits</text>
</a>
</g>
</g>
<!-- Node18&#45;&gt;Node20 -->
<g id="edge22_Node000018_Node000020" class="edge">
<title>Node18&#45;&gt;Node20</title>
<g id="a_edge22_Node000018_Node000020"><a xlink:title=" ">
<path fill="none" stroke="#63b8ff" d="M491.44,-288.54C511.36,-294.73 534.91,-302.04 557.02,-308.91"/>
<polygon fill="#63b8ff" stroke="#63b8ff" points="556.14,-312.3 566.73,-311.92 558.22,-305.61 556.14,-312.3"/>
</a>
</g>
</g>
<!-- Node21 -->
<g id="Node000021" class="node">
<title>Node21</title>
<g id="a_Node000021"><a xlink:href="classzero__mate_1_1arm1176jzf__s_1_1CCPU__Context.html#a7efff674f8141eab73cb69099220f0d5" target="_top" xlink:title="Sets the mode of the CPU.">
<polygon fill="white" stroke="#666666" points="699,-294 569,-294 569,-253 699,-253 699,-294"/>
<text text-anchor="start" x="577" y="-282" font-family="Helvetica,sans-Serif" font-size="10.00">zero_mate::arm1176jzf</text>
<text text-anchor="start" x="577" y="-271" font-family="Helvetica,sans-Serif" font-size="10.00">_s::CCPU_Context::Set</text>
<text text-anchor="middle" x="634" y="-260" font-family="Helvetica,sans-Serif" font-size="10.00">_CPU_Mode</text>
</a>
</g>
</g>
<!-- Node18&#45;&gt;Node21 -->
<g id="edge23_Node000018_Node000021" class="edge">
<title>Node18&#45;&gt;Node21</title>
<g id="a_edge23_Node000018_Node000021"><a xlink:title=" ">
<path fill="none" stroke="#63b8ff" d="M520.01,-273.5C532.83,-273.5 546.11,-273.5 558.86,-273.5"/>
<polygon fill="#63b8ff" stroke="#63b8ff" points="558.96,-277 568.96,-273.5 558.96,-270 558.96,-277"/>
</a>
</g>
</g>
<!-- Node22&#45;&gt;Node5 -->
<g id="edge25_Node000022_Node000005" class="edge">
<title>Node22&#45;&gt;Node5</title>
<g id="a_edge25_Node000022_Node000005"><a xlink:title=" ">
<path fill="none" stroke="#63b8ff" d="M492.11,-347.57C501.69,-350.53 511.66,-353.6 521,-356.5 532.82,-360.17 545.34,-364.06 557.56,-367.88"/>
<polygon fill="#63b8ff" stroke="#63b8ff" points="556.69,-371.27 567.28,-370.91 558.77,-364.59 556.69,-371.27"/>
</a>
</g>
</g>
</g>
</svg>
