<?xml version="1.0" encoding="UTF-8" standalone="no"?>
<!DOCTYPE svg PUBLIC "-//W3C//DTD SVG 1.1//EN"
 "http://www.w3.org/Graphics/SVG/1.1/DTD/svg11.dtd">
<!-- Generated by graphviz version 2.43.0 (0)
 -->
<!-- Title: zero_mate::gui::CAUX_Window::Render Pages: 1 -->
<svg width="517pt" height="226pt"
 viewBox="0.00 0.00 517.00 226.00" xmlns="http://www.w3.org/2000/svg" xmlns:xlink="http://www.w3.org/1999/xlink">
<g id="graph0" class="graph" transform="scale(1 1) rotate(0) translate(4 222)">
<title>zero_mate::gui::CAUX_Window::Render</title>
<!-- Node1 -->
<g id="Node000001" class="node">
<title>Node1</title>
<g id="a_Node000001"><a xlink:title="Renders GPIO pins (IGUI_Window interface).">
<polygon fill="#999999" stroke="#666666" points="123,-147.5 0,-147.5 0,-117.5 123,-117.5 123,-147.5"/>
<text text-anchor="start" x="8" y="-135.5" font-family="Helvetica,sans-Serif" font-size="10.00">zero_mate::gui::CAUX</text>
<text text-anchor="middle" x="61.5" y="-124.5" font-family="Helvetica,sans-Serif" font-size="10.00">_Window::Render</text>
</a>
</g>
</g>
<!-- Node2 -->
<g id="Node000002" class="node">
<title>Node2</title>
<g id="a_Node000002"><a xlink:href="classzero__mate_1_1gui_1_1CAUX__Window.html#a8e358814f5acb7ee712a6193dbfc908f" target="_top" xlink:title="Renders the ENABLES and IRQ register of the AUX peripheral.">
<polygon fill="white" stroke="#666666" points="301.5,-171.5 174.5,-171.5 174.5,-141.5 301.5,-141.5 301.5,-171.5"/>
<text text-anchor="start" x="182.5" y="-159.5" font-family="Helvetica,sans-Serif" font-size="10.00">zero_mate::gui::CAUX</text>
<text text-anchor="middle" x="238" y="-148.5" font-family="Helvetica,sans-Serif" font-size="10.00">_Window::Render_AUX</text>
</a>
</g>
</g>
<!-- Node1&#45;&gt;Node2 -->
<g id="edge1_Node000001_Node000002" class="edge">
<title>Node1&#45;&gt;Node2</title>
<g id="a_edge1_Node000001_Node000002"><a xlink:title=" ">
<path fill="none" stroke="#63b8ff" d="M123.04,-140.83C136.43,-142.67 150.74,-144.64 164.55,-146.54"/>
<polygon fill="#63b8ff" stroke="#63b8ff" points="164.11,-150.01 174.49,-147.9 165.06,-143.07 164.11,-150.01"/>
</a>
</g>
</g>
<!-- Node3 -->
<g id="Node000003" class="node">
<title>Node3</title>
<g id="a_Node000003"><a xlink:href="classzero__mate_1_1gui_1_1CAUX__Window.html#a84134555bb7100075f909c0de2f0829b" target="_top" xlink:title="Renders information related to the mini UART auxiliary peripheral.">
<polygon fill="white" stroke="#666666" points="317,-123.5 159,-123.5 159,-93.5 317,-93.5 317,-123.5"/>
<text text-anchor="start" x="167" y="-111.5" font-family="Helvetica,sans-Serif" font-size="10.00">zero_mate::gui::CAUX</text>
<text text-anchor="middle" x="238" y="-100.5" font-family="Helvetica,sans-Serif" font-size="10.00">_Window::Render_Mini_UART</text>
</a>
</g>
</g>
<!-- Node1&#45;&gt;Node3 -->
<g id="edge2_Node000001_Node000003" class="edge">
<title>Node1&#45;&gt;Node3</title>
<g id="a_edge2_Node000001_Node000003"><a xlink:title=" ">
<path fill="none" stroke="#63b8ff" d="M123.04,-124.17C131.32,-123.03 139.95,-121.85 148.6,-120.66"/>
<polygon fill="#63b8ff" stroke="#63b8ff" points="149.31,-124.09 158.74,-119.26 148.36,-117.16 149.31,-124.09"/>
</a>
</g>
</g>
<!-- Node4 -->
<g id="Node000004" class="node">
<title>Node4</title>
<g id="a_Node000004"><a xlink:href="classzero__mate_1_1peripheral_1_1CMini__UART.html#a3ab953c18059ccd52099be9bb7b6edac" target="_top" xlink:title="Returns the set up baud rate.">
<polygon fill="white" stroke="#666666" points="498,-218 364,-218 364,-177 498,-177 498,-218"/>
<text text-anchor="start" x="372" y="-206" font-family="Helvetica,sans-Serif" font-size="10.00">zero_mate::peripheral</text>
<text text-anchor="start" x="372" y="-195" font-family="Helvetica,sans-Serif" font-size="10.00">::CMini_UART::Get_Baud</text>
<text text-anchor="middle" x="431" y="-184" font-family="Helvetica,sans-Serif" font-size="10.00">_Rate_Counter</text>
</a>
</g>
</g>
<!-- Node3&#45;&gt;Node4 -->
<g id="edge3_Node000003_Node000004" class="edge">
<title>Node3&#45;&gt;Node4</title>
<g id="a_edge3_Node000003_Node000004"><a xlink:title=" ">
<path fill="none" stroke="#63b8ff" d="M298.67,-123.5C305.06,-126.08 311.3,-129.07 317,-132.5 336.39,-144.17 333.98,-156.24 353,-168.5 354.9,-169.73 356.86,-170.91 358.87,-172.06"/>
<polygon fill="#63b8ff" stroke="#63b8ff" points="357.43,-175.26 367.91,-176.82 360.69,-169.06 357.43,-175.26"/>
</a>
</g>
</g>
<!-- Node5 -->
<g id="Node000005" class="node">
<title>Node5</title>
<g id="a_Node000005"><a xlink:href="classzero__mate_1_1peripheral_1_1CMini__UART.html#a2f29b39f721b4ae5acf81f61ab210325" target="_top" xlink:title="Returns the length of payload (7 or 8 bits).">
<polygon fill="white" stroke="#666666" points="497,-159 365,-159 365,-118 497,-118 497,-159"/>
<text text-anchor="start" x="373" y="-147" font-family="Helvetica,sans-Serif" font-size="10.00">zero_mate::peripheral</text>
<text text-anchor="start" x="373" y="-136" font-family="Helvetica,sans-Serif" font-size="10.00">::CMini_UART::Get_Char</text>
<text text-anchor="middle" x="431" y="-125" font-family="Helvetica,sans-Serif" font-size="10.00">_Length</text>
</a>
</g>
</g>
<!-- Node3&#45;&gt;Node5 -->
<g id="edge4_Node000003_Node000005" class="edge">
<title>Node3&#45;&gt;Node5</title>
<g id="a_edge4_Node000003_Node000005"><a xlink:title=" ">
<path fill="none" stroke="#63b8ff" d="M317.24,-120.79C329.63,-122.74 342.43,-124.75 354.75,-126.68"/>
<polygon fill="#63b8ff" stroke="#63b8ff" points="354.55,-130.19 364.98,-128.29 355.64,-123.28 354.55,-130.19"/>
</a>
</g>
</g>
<!-- Node6 -->
<g id="Node000006" class="node">
<title>Node6</title>
<g id="a_Node000006"><a xlink:href="classzero__mate_1_1peripheral_1_1CMini__UART.html#a2a71009ed1f6227341dad8926bd73d81" target="_top" xlink:title="Returns information about whether the receiver is enabled or not.">
<polygon fill="white" stroke="#666666" points="502.5,-100 359.5,-100 359.5,-59 502.5,-59 502.5,-100"/>
<text text-anchor="start" x="367.5" y="-88" font-family="Helvetica,sans-Serif" font-size="10.00">zero_mate::peripheral</text>
<text text-anchor="start" x="367.5" y="-77" font-family="Helvetica,sans-Serif" font-size="10.00">::CMini_UART::Is_Receiver</text>
<text text-anchor="middle" x="431" y="-66" font-family="Helvetica,sans-Serif" font-size="10.00">_Enabled</text>
</a>
</g>
</g>
<!-- Node3&#45;&gt;Node6 -->
<g id="edge5_Node000003_Node000006" class="edge">
<title>Node3&#45;&gt;Node6</title>
<g id="a_edge5_Node000003_Node000006"><a xlink:title=" ">
<path fill="none" stroke="#63b8ff" d="M317.24,-96.62C327.78,-95.02 338.61,-93.38 349.19,-91.77"/>
<polygon fill="#63b8ff" stroke="#63b8ff" points="349.88,-95.2 359.24,-90.24 348.83,-88.28 349.88,-95.2"/>
</a>
</g>
</g>
<!-- Node7 -->
<g id="Node000007" class="node">
<title>Node7</title>
<g id="a_Node000007"><a xlink:href="classzero__mate_1_1peripheral_1_1CMini__UART.html#a968340fbf2802af5178531146bca03c8" target="_top" xlink:title="Returns information about whether the transmitter is enabled or not.">
<polygon fill="white" stroke="#666666" points="509,-41 353,-41 353,0 509,0 509,-41"/>
<text text-anchor="start" x="361" y="-29" font-family="Helvetica,sans-Serif" font-size="10.00">zero_mate::peripheral</text>
<text text-anchor="start" x="361" y="-18" font-family="Helvetica,sans-Serif" font-size="10.00">::CMini_UART::Is_Transmitter</text>
<text text-anchor="middle" x="431" y="-7" font-family="Helvetica,sans-Serif" font-size="10.00">_Enabled</text>
</a>
</g>
</g>
<!-- Node3&#45;&gt;Node7 -->
<g id="edge6_Node000003_Node000007" class="edge">
<title>Node3&#45;&gt;Node7</title>
<g id="a_edge6_Node000003_Node000007"><a xlink:title=" ">
<path fill="none" stroke="#63b8ff" d="M266.73,-93.41C289.59,-81.22 323.01,-63.93 353,-50.5 357.09,-48.67 361.32,-46.84 365.61,-45.04"/>
<polygon fill="#63b8ff" stroke="#63b8ff" points="367.13,-48.19 375.04,-41.14 364.46,-41.72 367.13,-48.19"/>
</a>
</g>
</g>
</g>
</svg>
