<?xml version="1.0" encoding="UTF-8" standalone="no"?>
<!DOCTYPE svg PUBLIC "-//W3C//DTD SVG 1.1//EN"
 "http://www.w3.org/Graphics/SVG/1.1/DTD/svg11.dtd">
<!-- Generated by graphviz version 2.43.0 (0)
 -->
<!-- Title: zero_mate::gui::CGPIO_Window::Render Pages: 1 -->
<svg width="653pt" height="285pt"
 viewBox="0.00 0.00 653.00 285.00" xmlns="http://www.w3.org/2000/svg" xmlns:xlink="http://www.w3.org/1999/xlink">
<g id="graph0" class="graph" transform="scale(1 1) rotate(0) translate(4 281)">
<title>zero_mate::gui::CGPIO_Window::Render</title>
<!-- Node1 -->
<g id="Node000001" class="node">
<title>Node1</title>
<g id="a_Node000001"><a xlink:title="Renders GPIO pins (IGUI_Window interface).">
<polygon fill="#999999" stroke="#666666" points="126,-153.5 0,-153.5 0,-123.5 126,-123.5 126,-153.5"/>
<text text-anchor="start" x="8" y="-141.5" font-family="Helvetica,sans-Serif" font-size="10.00">zero_mate::gui::CGPIO</text>
<text text-anchor="middle" x="63" y="-130.5" font-family="Helvetica,sans-Serif" font-size="10.00">_Window::Render</text>
</a>
</g>
</g>
<!-- Node2 -->
<g id="Node000002" class="node">
<title>Node2</title>
<g id="a_Node000002"><a xlink:href="classzero__mate_1_1gui_1_1CGPIO__Window.html#ad1affc13af41a19f9c66ae37082d5cb6" target="_top" xlink:title="Renders a table with all GPIO pins.">
<polygon fill="white" stroke="#666666" points="292,-159 162,-159 162,-118 292,-118 292,-159"/>
<text text-anchor="start" x="170" y="-147" font-family="Helvetica,sans-Serif" font-size="10.00">zero_mate::gui::CGPIO</text>
<text text-anchor="start" x="170" y="-136" font-family="Helvetica,sans-Serif" font-size="10.00">_Window::Render_GPIO</text>
<text text-anchor="middle" x="227" y="-125" font-family="Helvetica,sans-Serif" font-size="10.00">_Pins_Table</text>
</a>
</g>
</g>
<!-- Node1&#45;&gt;Node2 -->
<g id="edge1_Node000001_Node000002" class="edge">
<title>Node1&#45;&gt;Node2</title>
<g id="a_edge1_Node000001_Node000002"><a xlink:title=" ">
<path fill="none" stroke="#63b8ff" d="M126.17,-138.5C134.57,-138.5 143.26,-138.5 151.84,-138.5"/>
<polygon fill="#63b8ff" stroke="#63b8ff" points="151.85,-142 161.85,-138.5 151.85,-135 151.85,-142"/>
</a>
</g>
</g>
<!-- Node3 -->
<g id="Node000003" class="node">
<title>Node3</title>
<g id="a_Node000003"><a xlink:href="classzero__mate_1_1gui_1_1CGPIO__Window.html#aeeb6f57b70b2367e666550cb69bd5d13" target="_top" xlink:title="Renders information about a single GPIO pin (table row).">
<polygon fill="white" stroke="#666666" points="478,-153.5 328,-153.5 328,-123.5 478,-123.5 478,-153.5"/>
<text text-anchor="start" x="336" y="-141.5" font-family="Helvetica,sans-Serif" font-size="10.00">zero_mate::gui::CGPIO</text>
<text text-anchor="middle" x="403" y="-130.5" font-family="Helvetica,sans-Serif" font-size="10.00">_Window::Render_GPIO_Pin</text>
</a>
</g>
</g>
<!-- Node2&#45;&gt;Node3 -->
<g id="edge2_Node000002_Node000003" class="edge">
<title>Node2&#45;&gt;Node3</title>
<g id="a_edge2_Node000002_Node000003"><a xlink:title=" ">
<path fill="none" stroke="#63b8ff" d="M292.3,-138.5C300.65,-138.5 309.3,-138.5 317.91,-138.5"/>
<polygon fill="#63b8ff" stroke="#63b8ff" points="317.98,-142 327.98,-138.5 317.98,-135 317.98,-142"/>
</a>
</g>
</g>
<!-- Node4 -->
<g id="Node000004" class="node">
<title>Node4</title>
<g id="a_Node000004"><a xlink:href="classzero__mate_1_1peripheral_1_1CGPIO__Manager_1_1CPin.html#acf6b92ed8408ada497c28c405af395d6" target="_top" xlink:title="Returns the current function of the pin.">
<polygon fill="white" stroke="#666666" points="644,-277 515,-277 515,-236 644,-236 644,-277"/>
<text text-anchor="start" x="523" y="-265" font-family="Helvetica,sans-Serif" font-size="10.00">zero_mate::peripheral</text>
<text text-anchor="start" x="523" y="-254" font-family="Helvetica,sans-Serif" font-size="10.00">::CGPIO_Manager::CPin</text>
<text text-anchor="middle" x="579.5" y="-243" font-family="Helvetica,sans-Serif" font-size="10.00">::Get_Function</text>
</a>
</g>
</g>
<!-- Node3&#45;&gt;Node4 -->
<g id="edge3_Node000003_Node000004" class="edge">
<title>Node3&#45;&gt;Node4</title>
<g id="a_edge3_Node000003_Node000004"><a xlink:title=" ">
<path fill="none" stroke="#63b8ff" d="M420.13,-153.81C440.73,-172.8 478.01,-205.37 514,-227.5 515.95,-228.7 517.97,-229.88 520.02,-231.04"/>
<polygon fill="#63b8ff" stroke="#63b8ff" points="518.74,-234.32 529.21,-235.95 522.04,-228.15 518.74,-234.32"/>
</a>
</g>
</g>
<!-- Node5 -->
<g id="Node000005" class="node">
<title>Node5</title>
<g id="a_Node000005"><a xlink:href="classzero__mate_1_1gui_1_1CGPIO__Window.html#a0ee3deaa24f122b1b4c9bb4fc5814953" target="_top" xlink:title="Converts an interrupt index into an enumeration along with its string representation.">
<polygon fill="white" stroke="#666666" points="645,-218 514,-218 514,-177 645,-177 645,-218"/>
<text text-anchor="start" x="522" y="-206" font-family="Helvetica,sans-Serif" font-size="10.00">zero_mate::gui::CGPIO</text>
<text text-anchor="start" x="522" y="-195" font-family="Helvetica,sans-Serif" font-size="10.00">_Window::Get_Interrupt</text>
<text text-anchor="middle" x="579.5" y="-184" font-family="Helvetica,sans-Serif" font-size="10.00">_Type_From_Idx</text>
</a>
</g>
</g>
<!-- Node3&#45;&gt;Node5 -->
<g id="edge4_Node000003_Node000005" class="edge">
<title>Node3&#45;&gt;Node5</title>
<g id="a_edge4_Node000003_Node000005"><a xlink:title=" ">
<path fill="none" stroke="#63b8ff" d="M448.49,-153.54C466.53,-159.64 487.83,-166.84 507.9,-173.63"/>
<polygon fill="#63b8ff" stroke="#63b8ff" points="507.04,-177.03 517.64,-176.92 509.28,-170.4 507.04,-177.03"/>
</a>
</g>
</g>
<!-- Node6 -->
<g id="Node000006" class="node">
<title>Node6</title>
<g id="a_Node000006"><a xlink:href="classzero__mate_1_1peripheral_1_1CGPIO__Manager_1_1CPin.html#ab910baeb4caa3129739eccf087d06dd4" target="_top" xlink:title="Returns the current state of the pin.">
<polygon fill="white" stroke="#666666" points="644,-159 515,-159 515,-118 644,-118 644,-159"/>
<text text-anchor="start" x="523" y="-147" font-family="Helvetica,sans-Serif" font-size="10.00">zero_mate::peripheral</text>
<text text-anchor="start" x="523" y="-136" font-family="Helvetica,sans-Serif" font-size="10.00">::CGPIO_Manager::CPin</text>
<text text-anchor="middle" x="579.5" y="-125" font-family="Helvetica,sans-Serif" font-size="10.00">::Get_State</text>
</a>
</g>
</g>
<!-- Node3&#45;&gt;Node6 -->
<g id="edge5_Node000003_Node000006" class="edge">
<title>Node3&#45;&gt;Node6</title>
<g id="a_edge5_Node000003_Node000006"><a xlink:title=" ">
<path fill="none" stroke="#63b8ff" d="M478,-138.5C486.82,-138.5 495.81,-138.5 504.63,-138.5"/>
<polygon fill="#63b8ff" stroke="#63b8ff" points="504.86,-142 514.86,-138.5 504.86,-135 504.86,-142"/>
</a>
</g>
</g>
<!-- Node7 -->
<g id="Node000007" class="node">
<title>Node7</title>
<g id="a_Node000007"><a xlink:href="classzero__mate_1_1peripheral_1_1CGPIO__Manager_1_1CPin.html#a0536631c62e1aa7a96404501768f31a6" target="_top" xlink:title="Checks if there is a pending interrupt on the pin.">
<polygon fill="white" stroke="#666666" points="644,-100 515,-100 515,-59 644,-59 644,-100"/>
<text text-anchor="start" x="523" y="-88" font-family="Helvetica,sans-Serif" font-size="10.00">zero_mate::peripheral</text>
<text text-anchor="start" x="523" y="-77" font-family="Helvetica,sans-Serif" font-size="10.00">::CGPIO_Manager::CPin</text>
<text text-anchor="middle" x="579.5" y="-66" font-family="Helvetica,sans-Serif" font-size="10.00">::Has_Pending_IRQ</text>
</a>
</g>
</g>
<!-- Node3&#45;&gt;Node7 -->
<g id="edge6_Node000003_Node000007" class="edge">
<title>Node3&#45;&gt;Node7</title>
<g id="a_edge6_Node000003_Node000007"><a xlink:title=" ">
<path fill="none" stroke="#63b8ff" d="M448.49,-123.46C466.53,-117.36 487.83,-110.16 507.9,-103.37"/>
<polygon fill="#63b8ff" stroke="#63b8ff" points="509.28,-106.6 517.64,-100.08 507.04,-99.97 509.28,-106.6"/>
</a>
</g>
</g>
<!-- Node8 -->
<g id="Node000008" class="node">
<title>Node8</title>
<g id="a_Node000008"><a xlink:href="classzero__mate_1_1peripheral_1_1CGPIO__Manager_1_1CPin.html#a9330f754330cb20d555969ec55c0a679" target="_top" xlink:title="Checks whether or not an interrupt is enabled on the pin.">
<polygon fill="white" stroke="#666666" points="644,-41 515,-41 515,0 644,0 644,-41"/>
<text text-anchor="start" x="523" y="-29" font-family="Helvetica,sans-Serif" font-size="10.00">zero_mate::peripheral</text>
<text text-anchor="start" x="523" y="-18" font-family="Helvetica,sans-Serif" font-size="10.00">::CGPIO_Manager::CPin</text>
<text text-anchor="middle" x="579.5" y="-7" font-family="Helvetica,sans-Serif" font-size="10.00">::Is_Interrupt_Enabled</text>
</a>
</g>
</g>
<!-- Node3&#45;&gt;Node8 -->
<g id="edge7_Node000003_Node000008" class="edge">
<title>Node3&#45;&gt;Node8</title>
<g id="a_edge7_Node000003_Node000008"><a xlink:title=" ">
<path fill="none" stroke="#63b8ff" d="M420.21,-123.45C440.88,-104.77 478.25,-72.67 514,-50.5 516.59,-48.89 519.29,-47.32 522.04,-45.78"/>
<polygon fill="#63b8ff" stroke="#63b8ff" points="523.78,-48.81 530.96,-41.02 520.49,-42.64 523.78,-48.81"/>
</a>
</g>
</g>
</g>
</svg>
