<?xml version="1.0" encoding="UTF-8" standalone="no"?>
<!DOCTYPE svg PUBLIC "-//W3C//DTD SVG 1.1//EN"
 "http://www.w3.org/Graphics/SVG/1.1/DTD/svg11.dtd">
<!-- Generated by graphviz version 2.43.0 (0)
 -->
<!-- Title: zero_mate::gui::CRegisters_Window Pages: 1 -->
<svg width="444pt" height="86pt"
 viewBox="0.00 0.00 444.00 86.00" xmlns="http://www.w3.org/2000/svg" xmlns:xlink="http://www.w3.org/1999/xlink">
<g id="graph0" class="graph" transform="scale(1 1) rotate(0) translate(4 82)">
<title>zero_mate::gui::CRegisters_Window</title>
<!-- Node1 -->
<g id="Node000001" class="node">
<title>Node1</title>
<g id="a_Node000001"><a xlink:title="This class represents the window that displays the contents of all CPU registers.">
<polygon fill="#999999" stroke="#666666" points="436,-54 288,-54 288,-24 436,-24 436,-54"/>
<text text-anchor="start" x="296" y="-42" font-family="Helvetica,sans-Serif" font-size="10.00">zero_mate::gui::CRegisters</text>
<text text-anchor="middle" x="362" y="-31" font-family="Helvetica,sans-Serif" font-size="10.00">_Window</text>
</a>
</g>
</g>
<!-- Node2 -->
<g id="Node000002" class="node">
<title>Node2</title>
<g id="a_Node000002"><a xlink:href="classzero__mate_1_1gui_1_1IGUI__Window.html" target="_top" xlink:title="Common interface for all GUI windows.">
<polygon fill="white" stroke="#666666" points="149,-78 33,-78 33,-48 149,-48 149,-78"/>
<text text-anchor="start" x="41" y="-66" font-family="Helvetica,sans-Serif" font-size="10.00">zero_mate::gui::IGUI</text>
<text text-anchor="middle" x="91" y="-55" font-family="Helvetica,sans-Serif" font-size="10.00">_Window</text>
</a>
</g>
</g>
<!-- Node2&#45;&gt;Node1 -->
<g id="edge1_Node000001_Node000002" class="edge">
<title>Node2&#45;&gt;Node1</title>
<g id="a_edge1_Node000001_Node000002"><a xlink:title=" ">
<path fill="none" stroke="#63b8ff" d="M159.26,-57C198.33,-53.51 247.59,-49.12 287.65,-45.54"/>
<polygon fill="#63b8ff" stroke="#63b8ff" points="158.7,-53.54 149.05,-57.91 159.32,-60.51 158.7,-53.54"/>
</a>
</g>
</g>
<!-- Node3 -->
<g id="Node000003" class="node">
<title>Node3</title>
<g id="a_Node000003"><a xlink:href="structzero__mate_1_1gui_1_1CRegisters__Window_1_1TCPU__Mode__Tab__States.html" target="_top" xlink:title="Structure containing information about what tab (CPU mode) is currently selected.">
<polygon fill="white" stroke="#666666" points="182,-30 0,-30 0,0 182,0 182,-30"/>
<text text-anchor="start" x="8" y="-18" font-family="Helvetica,sans-Serif" font-size="10.00">zero_mate::gui::CRegisters</text>
<text text-anchor="middle" x="91" y="-7" font-family="Helvetica,sans-Serif" font-size="10.00">_Window::TCPU_Mode_Tab_States</text>
</a>
</g>
</g>
<!-- Node3&#45;&gt;Node1 -->
<g id="edge2_Node000001_Node000003" class="edge">
<title>Node3&#45;&gt;Node1</title>
<g id="a_edge2_Node000001_Node000003"><a xlink:title=" ">
<path fill="none" stroke="#9a32cd" stroke-dasharray="5,2" d="M192.5,-23.97C224.16,-26.79 258.51,-29.86 287.88,-32.48"/>
<polygon fill="#9a32cd" stroke="#9a32cd" points="192.59,-20.46 182.32,-23.06 191.97,-27.43 192.59,-20.46"/>
</a>
</g>
<text text-anchor="middle" x="235" y="-33" font-family="Helvetica,sans-Serif" font-size="10.00" fill="grey"> m_tab_states</text>
</g>
</g>
</svg>
