<?xml version="1.0" encoding="UTF-8" standalone="no"?>
<!DOCTYPE svg PUBLIC "-//W3C//DTD SVG 1.1//EN"
 "http://www.w3.org/Graphics/SVG/1.1/DTD/svg11.dtd">
<!-- Generated by graphviz version 2.43.0 (0)
 -->
<!-- Title: zero_mate::utils::ILogger Pages: 1 -->
<svg width="318pt" height="93pt"
 viewBox="0.00 0.00 318.00 93.00" xmlns="http://www.w3.org/2000/svg" xmlns:xlink="http://www.w3.org/1999/xlink">
<g id="graph0" class="graph" transform="scale(1 1) rotate(0) translate(4 89)">
<title>zero_mate::utils::ILogger</title>
<!-- Node1 -->
<g id="Node000001" class="node">
<title>Node1</title>
<g id="a_Node000001"><a xlink:title="This class represents a logging_system interface.">
<polygon fill="#999999" stroke="#666666" points="210,-85 73,-85 73,-66 210,-66 210,-85"/>
<text text-anchor="middle" x="141.5" y="-73" font-family="Helvetica,sans-Serif" font-size="10.00">zero_mate::utils::ILogger</text>
</a>
</g>
</g>
<!-- Node2 -->
<g id="Node000002" class="node">
<title>Node2</title>
<g id="a_Node000002"><a xlink:href="classzero__mate_1_1gui_1_1CLog__Window.html" target="_top" xlink:title="This class represents a window that displays log messages.">
<polygon fill="white" stroke="#666666" points="119,-30 0,-30 0,0 119,0 119,-30"/>
<text text-anchor="start" x="8" y="-18" font-family="Helvetica,sans-Serif" font-size="10.00">zero_mate::gui::CLog</text>
<text text-anchor="middle" x="59.5" y="-7" font-family="Helvetica,sans-Serif" font-size="10.00">_Window</text>
</a>
</g>
</g>
<!-- Node1&#45;&gt;Node2 -->
<g id="edge1_Node000001_Node000002" class="edge">
<title>Node1&#45;&gt;Node2</title>
<g id="a_edge1_Node000001_Node000002"><a xlink:title=" ">
<path fill="none" stroke="#63b8ff" d="M121.22,-60.03C108.42,-50.9 91.98,-39.17 79.28,-30.11"/>
<polygon fill="#63b8ff" stroke="#63b8ff" points="119.23,-62.91 129.4,-65.87 123.29,-57.21 119.23,-62.91"/>
</a>
</g>
</g>
<!-- Node3 -->
<g id="Node000003" class="node">
<title>Node3</title>
<g id="a_Node000003"><a xlink:href="classzero__mate_1_1utils_1_1CLogger__STDO.html" target="_top" xlink:title="This class represents a logging_system that logs messages to the standard output (STDO).">
<polygon fill="white" stroke="#666666" points="310,-24.5 137,-24.5 137,-5.5 310,-5.5 310,-24.5"/>
<text text-anchor="middle" x="223.5" y="-12.5" font-family="Helvetica,sans-Serif" font-size="10.00">zero_mate::utils::CLogger_STDO</text>
</a>
</g>
</g>
<!-- Node1&#45;&gt;Node3 -->
<g id="edge2_Node000001_Node000003" class="edge">
<title>Node1&#45;&gt;Node3</title>
<g id="a_edge2_Node000001_Node000003"><a xlink:title=" ">
<path fill="none" stroke="#63b8ff" d="M162.04,-59.85C177.57,-48.77 198.37,-33.93 211.35,-24.67"/>
<polygon fill="#63b8ff" stroke="#63b8ff" points="159.71,-57.21 153.6,-65.87 163.77,-62.91 159.71,-57.21"/>
</a>
</g>
</g>
</g>
</svg>
