<?xml version="1.0" encoding="UTF-8" standalone="no"?>
<!DOCTYPE svg PUBLIC "-//W3C//DTD SVG 1.1//EN"
 "http://www.w3.org/Graphics/SVG/1.1/DTD/svg11.dtd">
<!-- Generated by graphviz version 2.43.0 (0)
 -->
<!-- Title: zero_mate::peripheral::CARM_Timer::Read Pages: 1 -->
<svg width="698pt" height="116pt"
 viewBox="0.00 0.00 698.00 116.00" xmlns="http://www.w3.org/2000/svg" xmlns:xlink="http://www.w3.org/1999/xlink">
<g id="graph0" class="graph" transform="scale(1 1) rotate(0) translate(4 112)">
<title>zero_mate::peripheral::CARM_Timer::Read</title>
<!-- Node1 -->
<g id="Node000001" class="node">
<title>Node1</title>
<g id="a_Node000001"><a xlink:title="Reads data from the peripheral (IPeripheral interface).">
<polygon fill="#999999" stroke="#666666" points="124,-57 0,-57 0,-27 124,-27 124,-57"/>
<text text-anchor="start" x="8" y="-45" font-family="Helvetica,sans-Serif" font-size="10.00">zero_mate::peripheral</text>
<text text-anchor="middle" x="62" y="-34" font-family="Helvetica,sans-Serif" font-size="10.00">::CARM_Timer::Read</text>
</a>
</g>
</g>
<!-- Node2 -->
<g id="Node000002" class="node">
<title>Node2</title>
<g id="a_Node000002"><a xlink:href="classzero__mate_1_1utils_1_1CLogging__System.html#a2bb4d37b178f29335f726875bad91bd4" target="_top" xlink:title="Logs a warning message via all registered loggers.">
<polygon fill="white" stroke="#666666" points="306,-57 160,-57 160,-27 306,-27 306,-57"/>
<text text-anchor="start" x="168" y="-45" font-family="Helvetica,sans-Serif" font-size="10.00">zero_mate::utils::CLogging</text>
<text text-anchor="middle" x="233" y="-34" font-family="Helvetica,sans-Serif" font-size="10.00">_System::Warning</text>
</a>
</g>
</g>
<!-- Node1&#45;&gt;Node2 -->
<g id="edge1_Node000001_Node000002" class="edge">
<title>Node1&#45;&gt;Node2</title>
<g id="a_edge1_Node000001_Node000002"><a xlink:title=" ">
<path fill="none" stroke="#63b8ff" d="M124.01,-42C132.37,-42 141.06,-42 149.72,-42"/>
<polygon fill="#63b8ff" stroke="#63b8ff" points="149.85,-45.5 159.85,-42 149.85,-38.5 149.85,-45.5"/>
</a>
</g>
</g>
<!-- Node3 -->
<g id="Node000003" class="node">
<title>Node3</title>
<g id="a_Node000003"><a xlink:href="classzero__mate_1_1utils_1_1CLogging__System.html#a71ed11c796553cbe8fd99773406a1060" target="_top" xlink:title="Creates a formatted message to be logged.">
<polygon fill="white" stroke="#666666" points="494,-89.5 342,-89.5 342,-48.5 494,-48.5 494,-89.5"/>
<text text-anchor="start" x="350" y="-77.5" font-family="Helvetica,sans-Serif" font-size="10.00">zero_mate::utils::CLogging</text>
<text text-anchor="start" x="350" y="-66.5" font-family="Helvetica,sans-Serif" font-size="10.00">_System::Create_Formatted</text>
<text text-anchor="middle" x="418" y="-55.5" font-family="Helvetica,sans-Serif" font-size="10.00">_Log_Msg</text>
</a>
</g>
</g>
<!-- Node2&#45;&gt;Node3 -->
<g id="edge2_Node000002_Node000003" class="edge">
<title>Node2&#45;&gt;Node3</title>
<g id="a_edge2_Node000002_Node000003"><a xlink:title=" ">
<path fill="none" stroke="#63b8ff" d="M306.06,-52.63C314.55,-53.88 323.26,-55.17 331.9,-56.44"/>
<polygon fill="#63b8ff" stroke="#63b8ff" points="331.59,-59.94 341.99,-57.93 332.61,-53.01 331.59,-59.94"/>
</a>
</g>
</g>
<!-- Node6 -->
<g id="Node000006" class="node">
<title>Node6</title>
<g id="a_Node000006"><a xlink:href="classzero__mate_1_1utils_1_1CLogging__System.html#ad371c67ef65763966ccf9291002e86f3" target="_top" xlink:title="Extract the filename from a given location within the source files.">
<polygon fill="white" stroke="#666666" points="492.5,-30 343.5,-30 343.5,0 492.5,0 492.5,-30"/>
<text text-anchor="start" x="351.5" y="-18" font-family="Helvetica,sans-Serif" font-size="10.00">zero_mate::utils::CLogging</text>
<text text-anchor="middle" x="418" y="-7" font-family="Helvetica,sans-Serif" font-size="10.00">_System::Extract_Filename</text>
</a>
</g>
</g>
<!-- Node2&#45;&gt;Node6 -->
<g id="edge5_Node000002_Node000006" class="edge">
<title>Node2&#45;&gt;Node6</title>
<g id="a_edge5_Node000002_Node000006"><a xlink:title=" ">
<path fill="none" stroke="#63b8ff" d="M306.06,-31.37C315.1,-30.03 324.4,-28.66 333.59,-27.31"/>
<polygon fill="#63b8ff" stroke="#63b8ff" points="334.12,-30.77 343.5,-25.84 333.1,-23.84 334.12,-30.77"/>
</a>
</g>
</g>
<!-- Node4 -->
<g id="Node000004" class="node">
<title>Node4</title>
<g id="a_Node000004"><a xlink:href="classzero__mate_1_1utils_1_1CLogging__System.html#aa70c102c805079042ffea2a6f2a5ad64" target="_top" xlink:title="Formats a given timestamp.">
<polygon fill="white" stroke="#666666" points="690,-108 530,-108 530,-78 690,-78 690,-108"/>
<text text-anchor="start" x="538" y="-96" font-family="Helvetica,sans-Serif" font-size="10.00">zero_mate::utils::CLogging</text>
<text text-anchor="middle" x="610" y="-85" font-family="Helvetica,sans-Serif" font-size="10.00">_System::Format_Timestamp</text>
</a>
</g>
</g>
<!-- Node3&#45;&gt;Node4 -->
<g id="edge3_Node000003_Node000004" class="edge">
<title>Node3&#45;&gt;Node4</title>
<g id="a_edge3_Node000003_Node000004"><a xlink:title=" ">
<path fill="none" stroke="#63b8ff" d="M494.09,-78.49C502.52,-79.55 511.16,-80.64 519.74,-81.73"/>
<polygon fill="#63b8ff" stroke="#63b8ff" points="519.41,-85.21 529.77,-82.99 520.29,-78.27 519.41,-85.21"/>
</a>
</g>
</g>
<!-- Node5 -->
<g id="Node000005" class="node">
<title>Node5</title>
<g id="a_Node000005"><a xlink:href="classzero__mate_1_1utils_1_1CLogging__System.html#ae3ca637537dde05e0b9119145c840331" target="_top" xlink:title="Returns the current timestamp that will be used in a log message.">
<polygon fill="white" stroke="#666666" points="683,-60 537,-60 537,-30 683,-30 683,-60"/>
<text text-anchor="start" x="545" y="-48" font-family="Helvetica,sans-Serif" font-size="10.00">zero_mate::utils::CLogging</text>
<text text-anchor="middle" x="610" y="-37" font-family="Helvetica,sans-Serif" font-size="10.00">_System::Get_Timestamp</text>
</a>
</g>
</g>
<!-- Node3&#45;&gt;Node5 -->
<g id="edge4_Node000003_Node000005" class="edge">
<title>Node3&#45;&gt;Node5</title>
<g id="a_edge4_Node000003_Node000005"><a xlink:title=" ">
<path fill="none" stroke="#63b8ff" d="M494.09,-59.51C504.89,-58.15 516.05,-56.74 526.98,-55.36"/>
<polygon fill="#63b8ff" stroke="#63b8ff" points="527.45,-58.83 536.93,-54.1 526.57,-51.88 527.45,-58.83"/>
</a>
</g>
</g>
</g>
</svg>
