<?xml version="1.0" encoding="UTF-8" standalone="no"?>
<!DOCTYPE svg PUBLIC "-//W3C//DTD SVG 1.1//EN"
 "http://www.w3.org/Graphics/SVG/1.1/DTD/svg11.dtd">
<!-- Generated by graphviz version 2.43.0 (0)
 -->
<!-- Title: zero_mate::arm1176jzf_s::CCPU_Core::Run Pages: 1 -->
<svg width="1211pt" height="421pt"
 viewBox="0.00 0.00 1211.00 421.00" xmlns="http://www.w3.org/2000/svg" xmlns:xlink="http://www.w3.org/1999/xlink">
<g id="graph0" class="graph" transform="scale(1 1) rotate(0) translate(4 417)">
<title>zero_mate::arm1176jzf_s::CCPU_Core::Run</title>
<!-- Node1 -->
<g id="Node000001" class="node">
<title>Node1</title>
<g id="a_Node000001"><a xlink:title="Starts the execution.">
<polygon fill="#999999" stroke="#666666" points="130,-382 0,-382 0,-352 130,-352 130,-382"/>
<text text-anchor="start" x="8" y="-370" font-family="Helvetica,sans-Serif" font-size="10.00">zero_mate::arm1176jzf</text>
<text text-anchor="middle" x="65" y="-359" font-family="Helvetica,sans-Serif" font-size="10.00">_s::CCPU_Core::Run</text>
</a>
</g>
</g>
<!-- Node2 -->
<g id="Node000002" class="node">
<title>Node2</title>
<g id="a_Node000002"><a xlink:href="classzero__mate_1_1arm1176jzf__s_1_1CCPU__Core.html#a423eacd01e574e782a2b7cf51f28c56c" target="_top" xlink:title="Returns a reference to the PC register (r15)">
<polygon fill="white" stroke="#666666" points="808.5,-413 678.5,-413 678.5,-383 808.5,-383 808.5,-413"/>
<text text-anchor="start" x="686.5" y="-401" font-family="Helvetica,sans-Serif" font-size="10.00">zero_mate::arm1176jzf</text>
<text text-anchor="middle" x="743.5" y="-390" font-family="Helvetica,sans-Serif" font-size="10.00">_s::CCPU_Core::PC</text>
</a>
</g>
</g>
<!-- Node1&#45;&gt;Node2 -->
<g id="edge1_Node000001_Node000002" class="edge">
<title>Node1&#45;&gt;Node2</title>
<g id="a_edge1_Node000001_Node000002"><a xlink:title=" ">
<path fill="none" stroke="#63b8ff" d="M130.27,-372.75C214.93,-380.03 368.48,-392.19 500,-397 556.35,-399.06 620.1,-399.24 668.1,-398.94"/>
<polygon fill="#63b8ff" stroke="#63b8ff" points="668.43,-402.44 678.4,-398.87 668.38,-395.44 668.43,-402.44"/>
</a>
</g>
</g>
<!-- Node3 -->
<g id="Node000003" class="node">
<title>Node3</title>
<g id="a_Node000003"><a xlink:href="classzero__mate_1_1arm1176jzf__s_1_1CCPU__Core.html#a1665360d8ae71ed541b4c10f39e655a5" target="_top" xlink:title=" ">
<polygon fill="white" stroke="#666666" points="296,-361 166,-361 166,-331 296,-331 296,-361"/>
<text text-anchor="start" x="174" y="-349" font-family="Helvetica,sans-Serif" font-size="10.00">zero_mate::arm1176jzf</text>
<text text-anchor="middle" x="231" y="-338" font-family="Helvetica,sans-Serif" font-size="10.00">_s::CCPU_Core::Step</text>
</a>
</g>
</g>
<!-- Node1&#45;&gt;Node3 -->
<g id="edge2_Node000001_Node000003" class="edge">
<title>Node1&#45;&gt;Node3</title>
<g id="a_edge2_Node000001_Node000003"><a xlink:title=" ">
<path fill="none" stroke="#63b8ff" d="M130.35,-358.76C138.73,-357.69 147.37,-356.58 155.9,-355.49"/>
<polygon fill="#63b8ff" stroke="#63b8ff" points="156.36,-358.96 165.84,-354.22 155.48,-352.01 156.36,-358.96"/>
</a>
</g>
</g>
<!-- Node3&#45;&gt;Node2 -->
<g id="edge21_Node000003_Node000002" class="edge">
<title>Node3&#45;&gt;Node2</title>
<g id="a_edge21_Node000003_Node000002"><a xlink:title=" ">
<path fill="none" stroke="#63b8ff" d="M296.23,-355.44C308.11,-357.06 320.42,-358.65 332,-360 449.38,-373.64 586.11,-385.49 668.4,-392.19"/>
<polygon fill="#63b8ff" stroke="#63b8ff" points="668.16,-395.68 678.41,-393 668.73,-388.71 668.16,-395.68"/>
</a>
</g>
</g>
<!-- Node4 -->
<g id="Node000004" class="node">
<title>Node4</title>
<g id="a_Node000004"><a xlink:href="classzero__mate_1_1arm1176jzf__s_1_1CCPU__Core.html#af500d91bd836a74df0e758990c4ecc7d" target="_top" xlink:title=" ">
<polygon fill="white" stroke="#666666" points="464,-333 332,-333 332,-303 464,-303 464,-333"/>
<text text-anchor="start" x="340" y="-321" font-family="Helvetica,sans-Serif" font-size="10.00">zero_mate::arm1176jzf</text>
<text text-anchor="middle" x="398" y="-310" font-family="Helvetica,sans-Serif" font-size="10.00">_s::CCPU_Core::Execute</text>
</a>
</g>
</g>
<!-- Node3&#45;&gt;Node4 -->
<g id="edge3_Node000003_Node000004" class="edge">
<title>Node3&#45;&gt;Node4</title>
<g id="a_edge3_Node000003_Node000004"><a xlink:title=" ">
<path fill="none" stroke="#63b8ff" d="M296.27,-335.09C304.66,-333.67 313.31,-332.2 321.86,-330.75"/>
<polygon fill="#63b8ff" stroke="#63b8ff" points="322.55,-334.18 331.82,-329.06 321.38,-327.28 322.55,-334.18"/>
</a>
</g>
</g>
<!-- Node5 -->
<g id="Node000005" class="node">
<title>Node5</title>
<g id="a_Node000005"><a xlink:href="classzero__mate_1_1arm1176jzf__s_1_1CCPU__Core.html#aa327755c4c57c01f03e16fb3d1195f6a" target="_top" xlink:title="Fetches the next instruction.">
<polygon fill="white" stroke="#666666" points="463,-284.5 333,-284.5 333,-243.5 463,-243.5 463,-284.5"/>
<text text-anchor="start" x="341" y="-272.5" font-family="Helvetica,sans-Serif" font-size="10.00">zero_mate::arm1176jzf</text>
<text text-anchor="start" x="341" y="-261.5" font-family="Helvetica,sans-Serif" font-size="10.00">_s::CCPU_Core::Fetch</text>
<text text-anchor="middle" x="398" y="-250.5" font-family="Helvetica,sans-Serif" font-size="10.00">_Instruction</text>
</a>
</g>
</g>
<!-- Node3&#45;&gt;Node5 -->
<g id="edge5_Node000003_Node000005" class="edge">
<title>Node3&#45;&gt;Node5</title>
<g id="a_edge5_Node000003_Node000005"><a xlink:title=" ">
<path fill="none" stroke="#63b8ff" d="M260.27,-330.85C280.2,-320.28 307.58,-305.98 332,-294 335.48,-292.29 339.07,-290.56 342.71,-288.83"/>
<polygon fill="#63b8ff" stroke="#63b8ff" points="344.22,-291.98 351.76,-284.55 341.23,-285.65 344.22,-291.98"/>
</a>
</g>
</g>
<!-- Node4&#45;&gt;Node4 -->
<g id="edge4_Node000004_Node000004" class="edge">
<title>Node4&#45;&gt;Node4</title>
<g id="a_edge4_Node000004_Node000004"><a xlink:title=" ">
<path fill="none" stroke="#63b8ff" d="M368.82,-333.28C362.34,-342.41 372.06,-351 398,-351 413.4,-351 423.09,-347.97 427.06,-343.6"/>
<polygon fill="#63b8ff" stroke="#63b8ff" points="430.56,-343.32 427.18,-333.28 423.56,-343.23 430.56,-343.32"/>
</a>
</g>
</g>
<!-- Node5&#45;&gt;Node2 -->
<g id="edge20_Node000005_Node000002" class="edge">
<title>Node5&#45;&gt;Node2</title>
<g id="a_edge20_Node000005_Node000002"><a xlink:title=" ">
<path fill="none" stroke="#63b8ff" d="M446.19,-284.58C499.57,-307.56 589.32,-345.29 668,-374 673.19,-375.89 678.6,-377.79 684.04,-379.64"/>
<polygon fill="#63b8ff" stroke="#63b8ff" points="683.23,-383.06 693.83,-382.91 685.45,-376.42 683.23,-383.06"/>
</a>
</g>
</g>
<!-- Node6 -->
<g id="Node000006" class="node">
<title>Node6</title>
<g id="a_Node000006"><a xlink:href="classzero__mate_1_1arm1176jzf__s_1_1CCPU__Core.html#a85e6ef006a36e1adb56abd3ecc6481be" target="_top" xlink:title="Executes a CPU exception.">
<polygon fill="white" stroke="#666666" points="632,-249.5 500,-249.5 500,-208.5 632,-208.5 632,-249.5"/>
<text text-anchor="start" x="508" y="-237.5" font-family="Helvetica,sans-Serif" font-size="10.00">zero_mate::arm1176jzf</text>
<text text-anchor="start" x="508" y="-226.5" font-family="Helvetica,sans-Serif" font-size="10.00">_s::CCPU_Core::Execute</text>
<text text-anchor="middle" x="566" y="-215.5" font-family="Helvetica,sans-Serif" font-size="10.00">_Exception</text>
</a>
</g>
</g>
<!-- Node5&#45;&gt;Node6 -->
<g id="edge6_Node000005_Node000006" class="edge">
<title>Node5&#45;&gt;Node6</title>
<g id="a_edge6_Node000005_Node000006"><a xlink:title=" ">
<path fill="none" stroke="#63b8ff" d="M463.18,-250.47C471.93,-248.62 480.97,-246.72 489.9,-244.84"/>
<polygon fill="#63b8ff" stroke="#63b8ff" points="490.83,-248.21 499.89,-242.73 489.39,-241.37 490.83,-248.21"/>
</a>
</g>
</g>
<!-- Node6&#45;&gt;Node2 -->
<g id="edge13_Node000006_Node000002" class="edge">
<title>Node6&#45;&gt;Node2</title>
<g id="a_edge13_Node000006_Node000002"><a xlink:title=" ">
<path fill="none" stroke="#63b8ff" d="M586.85,-249.58C600.49,-264.32 618.49,-285 632,-305 651.37,-333.66 641.56,-351.7 668,-374 669.52,-375.28 671.11,-376.49 672.75,-377.64"/>
<polygon fill="#63b8ff" stroke="#63b8ff" points="671.02,-380.69 681.39,-382.87 674.65,-374.7 671.02,-380.69"/>
</a>
</g>
</g>
<!-- Node7 -->
<g id="Node000007" class="node">
<title>Node7</title>
<g id="a_Node000007"><a xlink:href="classzero__mate_1_1arm1176jzf__s_1_1exceptions_1_1CCPU__Exception.html#ab18a4a4b6a54029ccf141784cfe9c737" target="_top" xlink:title="Returns the mode into which the CPU will switch when the exception is thrown.">
<polygon fill="white" stroke="#666666" points="819,-364.5 668,-364.5 668,-323.5 819,-323.5 819,-364.5"/>
<text text-anchor="start" x="676" y="-352.5" font-family="Helvetica,sans-Serif" font-size="10.00">zero_mate::arm1176jzf</text>
<text text-anchor="start" x="676" y="-341.5" font-family="Helvetica,sans-Serif" font-size="10.00">_s::exceptions::CCPU</text>
<text text-anchor="middle" x="743.5" y="-330.5" font-family="Helvetica,sans-Serif" font-size="10.00">_Exception::Get_CPU_Mode</text>
</a>
</g>
</g>
<!-- Node6&#45;&gt;Node7 -->
<g id="edge7_Node000006_Node000007" class="edge">
<title>Node6&#45;&gt;Node7</title>
<g id="a_edge7_Node000006_Node000007"><a xlink:title=" ">
<path fill="none" stroke="#63b8ff" d="M587.54,-249.71C606.95,-268.4 637.55,-295.7 668,-314 670.81,-315.69 673.73,-317.32 676.72,-318.89"/>
<polygon fill="#63b8ff" stroke="#63b8ff" points="675.33,-322.11 685.84,-323.41 678.44,-315.84 675.33,-322.11"/>
</a>
</g>
</g>
<!-- Node8 -->
<g id="Node000008" class="node">
<title>Node8</title>
<g id="a_Node000008"><a xlink:href="classzero__mate_1_1arm1176jzf__s_1_1exceptions_1_1CCPU__Exception.html#ae87c33c76ed6571b2408fd293710b6c4" target="_top" xlink:title="Returns the address of the handler of the exception.">
<polygon fill="white" stroke="#666666" points="816.5,-305 670.5,-305 670.5,-253 816.5,-253 816.5,-305"/>
<text text-anchor="start" x="678.5" y="-293" font-family="Helvetica,sans-Serif" font-size="10.00">zero_mate::arm1176jzf</text>
<text text-anchor="start" x="678.5" y="-282" font-family="Helvetica,sans-Serif" font-size="10.00">_s::exceptions::CCPU</text>
<text text-anchor="start" x="678.5" y="-271" font-family="Helvetica,sans-Serif" font-size="10.00">_Exception::Get_Exception</text>
<text text-anchor="middle" x="743.5" y="-260" font-family="Helvetica,sans-Serif" font-size="10.00">_Vector</text>
</a>
</g>
</g>
<!-- Node6&#45;&gt;Node8 -->
<g id="edge8_Node000006_Node000008" class="edge">
<title>Node6&#45;&gt;Node8</title>
<g id="a_edge8_Node000006_Node000008"><a xlink:title=" ">
<path fill="none" stroke="#63b8ff" d="M632.35,-247.62C641.54,-250.24 651.07,-252.95 660.52,-255.64"/>
<polygon fill="#63b8ff" stroke="#63b8ff" points="659.74,-259.06 670.31,-258.43 661.66,-252.33 659.74,-259.06"/>
</a>
</g>
</g>
<!-- Node9 -->
<g id="Node000009" class="node">
<title>Node9</title>
<g id="a_Node000009"><a xlink:href="classzero__mate_1_1arm1176jzf__s_1_1exceptions_1_1CCPU__Exception.html#aabb81de8a3e09534245ef3851a31c3c0" target="_top" xlink:title="Returns the type of the exception.">
<polygon fill="white" stroke="#666666" points="808.5,-234.5 678.5,-234.5 678.5,-193.5 808.5,-193.5 808.5,-234.5"/>
<text text-anchor="start" x="686.5" y="-222.5" font-family="Helvetica,sans-Serif" font-size="10.00">zero_mate::arm1176jzf</text>
<text text-anchor="start" x="686.5" y="-211.5" font-family="Helvetica,sans-Serif" font-size="10.00">_s::exceptions::CCPU</text>
<text text-anchor="middle" x="743.5" y="-200.5" font-family="Helvetica,sans-Serif" font-size="10.00">_Exception::Get_Type</text>
</a>
</g>
</g>
<!-- Node6&#45;&gt;Node9 -->
<g id="edge9_Node000006_Node000009" class="edge">
<title>Node6&#45;&gt;Node9</title>
<g id="a_edge9_Node000006_Node000009"><a xlink:title=" ">
<path fill="none" stroke="#63b8ff" d="M632.35,-223.41C643.96,-222.42 656.13,-221.38 667.97,-220.37"/>
<polygon fill="#63b8ff" stroke="#63b8ff" points="668.6,-223.83 678.26,-219.49 668,-216.85 668.6,-223.83"/>
</a>
</g>
</g>
<!-- Node10 -->
<g id="Node000010" class="node">
<title>Node10</title>
<g id="a_Node000010"><a xlink:href="classzero__mate_1_1arm1176jzf__s_1_1CCPU__Core.html#ad6dadfc114c7d0d6b43496f9f5651be7" target="_top" xlink:title="Checks if the IVT (interrupt vector table) has been reallocated to the higher address (0xFFFF0000).">
<polygon fill="white" stroke="#666666" points="819,-175.5 668,-175.5 668,-134.5 819,-134.5 819,-175.5"/>
<text text-anchor="start" x="676" y="-163.5" font-family="Helvetica,sans-Serif" font-size="10.00">zero_mate::arm1176jzf</text>
<text text-anchor="start" x="676" y="-152.5" font-family="Helvetica,sans-Serif" font-size="10.00">_s::CCPU_Core::Is_IVT</text>
<text text-anchor="middle" x="743.5" y="-141.5" font-family="Helvetica,sans-Serif" font-size="10.00">_Reallocated_To_High_Addr</text>
</a>
</g>
</g>
<!-- Node6&#45;&gt;Node10 -->
<g id="edge10_Node000006_Node000010" class="edge">
<title>Node6&#45;&gt;Node10</title>
<g id="a_edge10_Node000006_Node000010"><a xlink:title=" ">
<path fill="none" stroke="#63b8ff" d="M613.39,-208.46C630.51,-200.97 650.1,-192.5 668,-185 672.35,-183.18 676.86,-181.31 681.39,-179.45"/>
<polygon fill="#63b8ff" stroke="#63b8ff" points="682.79,-182.66 690.72,-175.63 680.14,-176.18 682.79,-182.66"/>
</a>
</g>
</g>
<!-- Node13 -->
<g id="Node000013" class="node">
<title>Node13</title>
<g id="a_Node000013"><a xlink:href="classzero__mate_1_1arm1176jzf__s_1_1CCPU__Context.html#a7efff674f8141eab73cb69099220f0d5" target="_top" xlink:title="Sets the mode of the CPU.">
<polygon fill="white" stroke="#666666" points="808.5,-116.5 678.5,-116.5 678.5,-75.5 808.5,-75.5 808.5,-116.5"/>
<text text-anchor="start" x="686.5" y="-104.5" font-family="Helvetica,sans-Serif" font-size="10.00">zero_mate::arm1176jzf</text>
<text text-anchor="start" x="686.5" y="-93.5" font-family="Helvetica,sans-Serif" font-size="10.00">_s::CCPU_Context::Set</text>
<text text-anchor="middle" x="743.5" y="-82.5" font-family="Helvetica,sans-Serif" font-size="10.00">_CPU_Mode</text>
</a>
</g>
</g>
<!-- Node6&#45;&gt;Node13 -->
<g id="edge14_Node000006_Node000013" class="edge">
<title>Node6&#45;&gt;Node13</title>
<g id="a_edge14_Node000006_Node000013"><a xlink:title=" ">
<path fill="none" stroke="#63b8ff" d="M582.85,-208.32C601.23,-185.55 633.43,-149.1 668,-126 670.39,-124.4 672.88,-122.87 675.44,-121.4"/>
<polygon fill="#63b8ff" stroke="#63b8ff" points="677.17,-124.44 684.34,-116.63 673.87,-118.26 677.17,-124.44"/>
</a>
</g>
</g>
<!-- Node14 -->
<g id="Node000014" class="node">
<title>Node14</title>
<g id="a_Node000014"><a xlink:href="classzero__mate_1_1utils_1_1CLogging__System.html#a2bb4d37b178f29335f726875bad91bd4" target="_top" xlink:title="Logs a warning message via all registered loggers.">
<polygon fill="white" stroke="#666666" points="816.5,-57 670.5,-57 670.5,-27 816.5,-27 816.5,-57"/>
<text text-anchor="start" x="678.5" y="-45" font-family="Helvetica,sans-Serif" font-size="10.00">zero_mate::utils::CLogging</text>
<text text-anchor="middle" x="743.5" y="-34" font-family="Helvetica,sans-Serif" font-size="10.00">_System::Warning</text>
</a>
</g>
</g>
<!-- Node6&#45;&gt;Node14 -->
<g id="edge15_Node000006_Node000014" class="edge">
<title>Node6&#45;&gt;Node14</title>
<g id="a_edge15_Node000006_Node000014"><a xlink:title=" ">
<path fill="none" stroke="#63b8ff" d="M574.26,-208.5C587.51,-174.02 618.84,-104.46 668,-66 669.78,-64.61 671.65,-63.29 673.58,-62.05"/>
<polygon fill="#63b8ff" stroke="#63b8ff" points="675.41,-65.04 682.41,-57.09 671.97,-58.94 675.41,-65.04"/>
</a>
</g>
</g>
<!-- Node11 -->
<g id="Node000011" class="node">
<title>Node11</title>
<g id="a_Node000011"><a xlink:href="classzero__mate_1_1coprocessor_1_1cp15_1_1CC1.html#ac6b22a989b3f58443f36e32999150eb6" target="_top" xlink:title=" ">
<polygon fill="white" stroke="#666666" points="997.5,-175.5 864.5,-175.5 864.5,-134.5 997.5,-134.5 997.5,-175.5"/>
<text text-anchor="start" x="872.5" y="-163.5" font-family="Helvetica,sans-Serif" font-size="10.00">zero_mate::coprocessor</text>
<text text-anchor="start" x="872.5" y="-152.5" font-family="Helvetica,sans-Serif" font-size="10.00">::cp15::CC1::Is_Control</text>
<text text-anchor="middle" x="931" y="-141.5" font-family="Helvetica,sans-Serif" font-size="10.00">_Flag_Set</text>
</a>
</g>
</g>
<!-- Node10&#45;&gt;Node11 -->
<g id="edge11_Node000010_Node000011" class="edge">
<title>Node10&#45;&gt;Node11</title>
<g id="a_edge11_Node000010_Node000011"><a xlink:title=" ">
<path fill="none" stroke="#63b8ff" d="M819.15,-155C830.75,-155 842.75,-155 854.37,-155"/>
<polygon fill="#63b8ff" stroke="#63b8ff" points="854.47,-158.5 864.47,-155 854.47,-151.5 854.47,-158.5"/>
</a>
</g>
</g>
<!-- Node12 -->
<g id="Node000012" class="node">
<title>Node12</title>
<g id="a_Node000012"><a xlink:href="classzero__mate_1_1coprocessor_1_1cp15_1_1IPrimary__Reg.html#a0780610d57b65a633a1776be372116a6" target="_top" xlink:title="Checks whether a flag is set in a given register.">
<polygon fill="white" stroke="#666666" points="1189.5,-175.5 1056.5,-175.5 1056.5,-134.5 1189.5,-134.5 1189.5,-175.5"/>
<text text-anchor="start" x="1064.5" y="-163.5" font-family="Helvetica,sans-Serif" font-size="10.00">zero_mate::coprocessor</text>
<text text-anchor="start" x="1064.5" y="-152.5" font-family="Helvetica,sans-Serif" font-size="10.00">::cp15::IPrimary_Reg::</text>
<text text-anchor="middle" x="1123" y="-141.5" font-family="Helvetica,sans-Serif" font-size="10.00">Is_Flag_Set</text>
</a>
</g>
</g>
<!-- Node11&#45;&gt;Node12 -->
<g id="edge12_Node000011_Node000012" class="edge">
<title>Node11&#45;&gt;Node12</title>
<g id="a_edge12_Node000011_Node000012"><a xlink:title=" ">
<path fill="none" stroke="#63b8ff" d="M997.65,-155C1013.23,-155 1029.97,-155 1045.96,-155"/>
<polygon fill="#63b8ff" stroke="#63b8ff" points="1046.34,-158.5 1056.34,-155 1046.34,-151.5 1046.34,-158.5"/>
</a>
</g>
</g>
<!-- Node15 -->
<g id="Node000015" class="node">
<title>Node15</title>
<g id="a_Node000015"><a xlink:href="classzero__mate_1_1utils_1_1CLogging__System.html#a71ed11c796553cbe8fd99773406a1060" target="_top" xlink:title="Creates a formatted message to be logged.">
<polygon fill="white" stroke="#666666" points="1007,-89.5 855,-89.5 855,-48.5 1007,-48.5 1007,-89.5"/>
<text text-anchor="start" x="863" y="-77.5" font-family="Helvetica,sans-Serif" font-size="10.00">zero_mate::utils::CLogging</text>
<text text-anchor="start" x="863" y="-66.5" font-family="Helvetica,sans-Serif" font-size="10.00">_System::Create_Formatted</text>
<text text-anchor="middle" x="931" y="-55.5" font-family="Helvetica,sans-Serif" font-size="10.00">_Log_Msg</text>
</a>
</g>
</g>
<!-- Node14&#45;&gt;Node15 -->
<g id="edge16_Node000014_Node000015" class="edge">
<title>Node14&#45;&gt;Node15</title>
<g id="a_edge16_Node000014_Node000015"><a xlink:title=" ">
<path fill="none" stroke="#63b8ff" d="M816.75,-52.52C825.94,-53.85 835.41,-55.23 844.78,-56.6"/>
<polygon fill="#63b8ff" stroke="#63b8ff" points="844.49,-60.09 854.89,-58.07 845.49,-53.16 844.49,-60.09"/>
</a>
</g>
</g>
<!-- Node18 -->
<g id="Node000018" class="node">
<title>Node18</title>
<g id="a_Node000018"><a xlink:href="classzero__mate_1_1utils_1_1CLogging__System.html#ad371c67ef65763966ccf9291002e86f3" target="_top" xlink:title="Extract the filename from a given location within the source files.">
<polygon fill="white" stroke="#666666" points="1005.5,-30 856.5,-30 856.5,0 1005.5,0 1005.5,-30"/>
<text text-anchor="start" x="864.5" y="-18" font-family="Helvetica,sans-Serif" font-size="10.00">zero_mate::utils::CLogging</text>
<text text-anchor="middle" x="931" y="-7" font-family="Helvetica,sans-Serif" font-size="10.00">_System::Extract_Filename</text>
</a>
</g>
</g>
<!-- Node14&#45;&gt;Node18 -->
<g id="edge19_Node000014_Node000018" class="edge">
<title>Node14&#45;&gt;Node18</title>
<g id="a_edge19_Node000014_Node000018"><a xlink:title=" ">
<path fill="none" stroke="#63b8ff" d="M816.75,-31.48C826.41,-30.08 836.39,-28.62 846.23,-27.19"/>
<polygon fill="#63b8ff" stroke="#63b8ff" points="847.03,-30.61 856.42,-25.71 846.02,-23.69 847.03,-30.61"/>
</a>
</g>
</g>
<!-- Node16 -->
<g id="Node000016" class="node">
<title>Node16</title>
<g id="a_Node000016"><a xlink:href="classzero__mate_1_1utils_1_1CLogging__System.html#aa70c102c805079042ffea2a6f2a5ad64" target="_top" xlink:title="Formats a given timestamp.">
<polygon fill="white" stroke="#666666" points="1203,-100 1043,-100 1043,-70 1203,-70 1203,-100"/>
<text text-anchor="start" x="1051" y="-88" font-family="Helvetica,sans-Serif" font-size="10.00">zero_mate::utils::CLogging</text>
<text text-anchor="middle" x="1123" y="-77" font-family="Helvetica,sans-Serif" font-size="10.00">_System::Format_Timestamp</text>
</a>
</g>
</g>
<!-- Node15&#45;&gt;Node16 -->
<g id="edge17_Node000015_Node000016" class="edge">
<title>Node15&#45;&gt;Node16</title>
<g id="a_edge17_Node000015_Node000016"><a xlink:title=" ">
<path fill="none" stroke="#63b8ff" d="M1007.09,-75.32C1015.52,-76.03 1024.16,-76.76 1032.74,-77.48"/>
<polygon fill="#63b8ff" stroke="#63b8ff" points="1032.51,-80.98 1042.77,-78.33 1033.1,-74 1032.51,-80.98"/>
</a>
</g>
</g>
<!-- Node17 -->
<g id="Node000017" class="node">
<title>Node17</title>
<g id="a_Node000017"><a xlink:href="classzero__mate_1_1utils_1_1CLogging__System.html#ae3ca637537dde05e0b9119145c840331" target="_top" xlink:title="Returns the current timestamp that will be used in a log message.">
<polygon fill="white" stroke="#666666" points="1196,-52 1050,-52 1050,-22 1196,-22 1196,-52"/>
<text text-anchor="start" x="1058" y="-40" font-family="Helvetica,sans-Serif" font-size="10.00">zero_mate::utils::CLogging</text>
<text text-anchor="middle" x="1123" y="-29" font-family="Helvetica,sans-Serif" font-size="10.00">_System::Get_Timestamp</text>
</a>
</g>
</g>
<!-- Node15&#45;&gt;Node17 -->
<g id="edge18_Node000015_Node000017" class="edge">
<title>Node15&#45;&gt;Node17</title>
<g id="a_edge18_Node000015_Node000017"><a xlink:title=" ">
<path fill="none" stroke="#63b8ff" d="M1007.09,-56.35C1017.89,-54.53 1029.05,-52.65 1039.98,-50.81"/>
<polygon fill="#63b8ff" stroke="#63b8ff" points="1040.65,-54.25 1049.93,-49.14 1039.49,-47.35 1040.65,-54.25"/>
</a>
</g>
</g>
</g>
</svg>
