<?xml version="1.0" encoding="UTF-8" standalone="no"?>
<!DOCTYPE svg PUBLIC "-//W3C//DTD SVG 1.1//EN"
 "http://www.w3.org/Graphics/SVG/1.1/DTD/svg11.dtd">
<!-- Generated by graphviz version 2.43.0 (0)
 -->
<!-- Title: zero_mate::coprocessor::cp10::CFPSCR::Set_Flag Pages: 1 -->
<svg width="484pt" height="49pt"
 viewBox="0.00 0.00 484.00 49.00" xmlns="http://www.w3.org/2000/svg" xmlns:xlink="http://www.w3.org/1999/xlink">
<g id="graph0" class="graph" transform="scale(1 1) rotate(0) translate(4 45)">
<title>zero_mate::coprocessor::cp10::CFPSCR::Set_Flag</title>
<!-- Node1 -->
<g id="Node000001" class="node">
<title>Node1</title>
<g id="a_Node000001"><a xlink:title="Sets a given flag in the register value.">
<polygon fill="#999999" stroke="#666666" points="476,-35.5 338,-35.5 338,-5.5 476,-5.5 476,-35.5"/>
<text text-anchor="start" x="346" y="-23.5" font-family="Helvetica,sans-Serif" font-size="10.00">zero_mate::coprocessor</text>
<text text-anchor="middle" x="407" y="-12.5" font-family="Helvetica,sans-Serif" font-size="10.00">::cp10::CFPSCR::Set_Flag</text>
</a>
</g>
</g>
<!-- Node2 -->
<g id="Node000002" class="node">
<title>Node2</title>
<g id="a_Node000002"><a xlink:href="classzero__mate_1_1coprocessor_1_1cp10_1_1CCP10.html#a648564bc18e05cbdd009c5e76cace9b3" target="_top" xlink:title="Executes a VCMP and CMPE float point instructions.">
<polygon fill="white" stroke="#666666" points="302,-41 169,-41 169,0 302,0 302,-41"/>
<text text-anchor="start" x="177" y="-29" font-family="Helvetica,sans-Serif" font-size="10.00">zero_mate::coprocessor</text>
<text text-anchor="start" x="177" y="-18" font-family="Helvetica,sans-Serif" font-size="10.00">::cp10::CCP10::Execute</text>
<text text-anchor="middle" x="235.5" y="-7" font-family="Helvetica,sans-Serif" font-size="10.00">_VCMP_VCMPE</text>
</a>
</g>
</g>
<!-- Node1&#45;&gt;Node2 -->
<g id="edge1_Node000001_Node000002" class="edge">
<title>Node1&#45;&gt;Node2</title>
<g id="a_edge1_Node000001_Node000002"><a xlink:title=" ">
<path fill="none" stroke="#63b8ff" d="M327.34,-20.5C318.93,-20.5 310.43,-20.5 302.19,-20.5"/>
<polygon fill="#63b8ff" stroke="#63b8ff" points="327.55,-24 337.55,-20.5 327.55,-17 327.55,-24"/>
</a>
</g>
</g>
<!-- Node3 -->
<g id="Node000003" class="node">
<title>Node3</title>
<g id="a_Node000003"><a xlink:href="classzero__mate_1_1coprocessor_1_1cp10_1_1CCP10.html#ad976e02e1423e39d963927ffc922f653" target="_top" xlink:title="Performs a coprocessor data operation instruction (ICoprocessor interface).">
<polygon fill="white" stroke="#666666" points="133,-41 0,-41 0,0 133,0 133,-41"/>
<text text-anchor="start" x="8" y="-29" font-family="Helvetica,sans-Serif" font-size="10.00">zero_mate::coprocessor</text>
<text text-anchor="start" x="8" y="-18" font-family="Helvetica,sans-Serif" font-size="10.00">::cp10::CCP10::Perform</text>
<text text-anchor="middle" x="66.5" y="-7" font-family="Helvetica,sans-Serif" font-size="10.00">_Data_Operation</text>
</a>
</g>
</g>
<!-- Node2&#45;&gt;Node3 -->
<g id="edge2_Node000002_Node000003" class="edge">
<title>Node2&#45;&gt;Node3</title>
<g id="a_edge2_Node000002_Node000003"><a xlink:title=" ">
<path fill="none" stroke="#63b8ff" d="M158.93,-20.5C150.32,-20.5 141.58,-20.5 133.11,-20.5"/>
<polygon fill="#63b8ff" stroke="#63b8ff" points="158.98,-24 168.98,-20.5 158.98,-17 158.98,-24"/>
</a>
</g>
</g>
</g>
</svg>
