<?xml version="1.0" encoding="UTF-8" standalone="no"?>
<!DOCTYPE svg PUBLIC "-//W3C//DTD SVG 1.1//EN"
 "http://www.w3.org/Graphics/SVG/1.1/DTD/svg11.dtd">
<!-- Generated by graphviz version 2.43.0 (0)
 -->
<!-- Title: zero_mate::gui::CLog_Window::Render_All_Log_Messages Pages: 1 -->
<svg width="369pt" height="86pt"
 viewBox="0.00 0.00 369.00 86.00" xmlns="http://www.w3.org/2000/svg" xmlns:xlink="http://www.w3.org/1999/xlink">
<g id="graph0" class="graph" transform="scale(1 1) rotate(0) translate(4 82)">
<title>zero_mate::gui::CLog_Window::Render_All_Log_Messages</title>
<!-- Node1 -->
<g id="Node000001" class="node">
<title>Node1</title>
<g id="a_Node000001"><a xlink:title="Renders all log messages (no filter activated).">
<polygon fill="#999999" stroke="#666666" points="141,-59.5 0,-59.5 0,-18.5 141,-18.5 141,-59.5"/>
<text text-anchor="start" x="8" y="-47.5" font-family="Helvetica,sans-Serif" font-size="10.00">zero_mate::gui::CLog</text>
<text text-anchor="start" x="8" y="-36.5" font-family="Helvetica,sans-Serif" font-size="10.00">_Window::Render_All_Log</text>
<text text-anchor="middle" x="70.5" y="-25.5" font-family="Helvetica,sans-Serif" font-size="10.00">_Messages</text>
</a>
</g>
</g>
<!-- Node2 -->
<g id="Node000002" class="node">
<title>Node2</title>
<g id="a_Node000002"><a xlink:href="classzero__mate_1_1gui_1_1CCircular__Log__Buffer.html#a6881d9292ac339ecee1a025426bb708b" target="_top" xlink:title="Returns a collection of log messages currently stored in the buffer.">
<polygon fill="white" stroke="#666666" points="339,-78 199,-78 199,-48 339,-48 339,-78"/>
<text text-anchor="start" x="207" y="-66" font-family="Helvetica,sans-Serif" font-size="10.00">zero_mate::gui::CCircular</text>
<text text-anchor="middle" x="269" y="-55" font-family="Helvetica,sans-Serif" font-size="10.00">_Log_Buffer::Get_Data</text>
</a>
</g>
</g>
<!-- Node1&#45;&gt;Node2 -->
<g id="edge1_Node000001_Node000002" class="edge">
<title>Node1&#45;&gt;Node2</title>
<g id="a_edge1_Node000001_Node000002"><a xlink:title=" ">
<path fill="none" stroke="#63b8ff" d="M141.06,-47.5C156.45,-49.38 172.88,-51.38 188.63,-53.31"/>
<polygon fill="#63b8ff" stroke="#63b8ff" points="188.52,-56.82 198.87,-54.56 189.37,-49.87 188.52,-56.82"/>
</a>
</g>
</g>
<!-- Node3 -->
<g id="Node000003" class="node">
<title>Node3</title>
<g id="a_Node000003"><a xlink:href="classzero__mate_1_1gui_1_1CLog__Window.html#acd4c871dccefcf04fb9b3bb8973086c0" target="_top" xlink:title="Sets the color of a log message based on its type (error, info, etc.)">
<polygon fill="white" stroke="#666666" points="361,-30 177,-30 177,0 361,0 361,-30"/>
<text text-anchor="start" x="185" y="-18" font-family="Helvetica,sans-Serif" font-size="10.00">zero_mate::gui::CLog</text>
<text text-anchor="middle" x="269" y="-7" font-family="Helvetica,sans-Serif" font-size="10.00">_Window::Set_Log_Message_Color</text>
</a>
</g>
</g>
<!-- Node1&#45;&gt;Node3 -->
<g id="edge2_Node000001_Node000003" class="edge">
<title>Node1&#45;&gt;Node3</title>
<g id="a_edge2_Node000001_Node000003"><a xlink:title=" ">
<path fill="none" stroke="#63b8ff" d="M141.06,-30.5C149.39,-29.49 158.02,-28.43 166.69,-27.37"/>
<polygon fill="#63b8ff" stroke="#63b8ff" points="167.36,-30.82 176.86,-26.13 166.51,-23.87 167.36,-30.82"/>
</a>
</g>
</g>
</g>
</svg>
