<?xml version="1.0" encoding="UTF-8" standalone="no"?>
<!DOCTYPE svg PUBLIC "-//W3C//DTD SVG 1.1//EN"
 "http://www.w3.org/Graphics/SVG/1.1/DTD/svg11.dtd">
<!-- Generated by graphviz version 2.43.0 (0)
 -->
<!-- Title: zero_mate::arm1176jzf_s::CCPU_Core::Execute Pages: 1 -->
<svg width="1078pt" height="457pt"
 viewBox="0.00 0.00 1078.00 457.05" xmlns="http://www.w3.org/2000/svg" xmlns:xlink="http://www.w3.org/1999/xlink">
<g id="graph0" class="graph" transform="scale(1 1) rotate(0) translate(4 453.05)">
<title>zero_mate::arm1176jzf_s::CCPU_Core::Execute</title>
<!-- Node1 -->
<g id="Node000001" class="node">
<title>Node1</title>
<g id="a_Node000001"><a xlink:title="Executes a block data transfer instruction.">
<polygon fill="#999999" stroke="#666666" points="132,-217.55 0,-217.55 0,-187.55 132,-187.55 132,-217.55"/>
<text text-anchor="start" x="8" y="-205.55" font-family="Helvetica,sans-Serif" font-size="10.00">zero_mate::arm1176jzf</text>
<text text-anchor="middle" x="66" y="-194.55" font-family="Helvetica,sans-Serif" font-size="10.00">_s::CCPU_Core::Execute</text>
</a>
</g>
</g>
<!-- Node2 -->
<g id="Node000002" class="node">
<title>Node2</title>
<g id="a_Node000002"><a xlink:href="classzero__mate_1_1arm1176jzf__s_1_1CCPU__Core.html#a65fef8be920aaccdf3cfea5b0e3d0cee" target="_top" xlink:title="Calculates the base address of a data transfer instruction.">
<polygon fill="white" stroke="#666666" points="316.5,-438.05 176.5,-438.05 176.5,-397.05 316.5,-397.05 316.5,-438.05"/>
<text text-anchor="start" x="184.5" y="-426.05" font-family="Helvetica,sans-Serif" font-size="10.00">zero_mate::arm1176jzf</text>
<text text-anchor="start" x="184.5" y="-415.05" font-family="Helvetica,sans-Serif" font-size="10.00">_s::CCPU_Core::Calculate</text>
<text text-anchor="middle" x="246.5" y="-404.05" font-family="Helvetica,sans-Serif" font-size="10.00">_Base_Address</text>
</a>
</g>
</g>
<!-- Node1&#45;&gt;Node2 -->
<g id="edge1_Node000001_Node000002" class="edge">
<title>Node1&#45;&gt;Node2</title>
<g id="a_edge1_Node000001_Node000002"><a xlink:title=" ">
<path fill="none" stroke="#63b8ff" d="M72.96,-217.89C86.04,-249.95 119.94,-324.97 168,-372.55 175.13,-379.61 183.59,-385.97 192.25,-391.53"/>
<polygon fill="#63b8ff" stroke="#63b8ff" points="190.58,-394.61 200.94,-396.83 194.22,-388.63 190.58,-394.61"/>
</a>
</g>
</g>
<!-- Node3 -->
<g id="Node000003" class="node">
<title>Node3</title>
<g id="a_Node000003"><a xlink:href="classzero__mate_1_1arm1176jzf__s_1_1CCPU__Context.html#a22efcb34f3c1bd9f46f1f75771103ef9" target="_top" xlink:title="Returns a const reference to a register of a particular CPU mode.">
<polygon fill="white" stroke="#666666" points="497.5,-449.05 367.5,-449.05 367.5,-408.05 497.5,-408.05 497.5,-449.05"/>
<text text-anchor="start" x="375.5" y="-437.05" font-family="Helvetica,sans-Serif" font-size="10.00">zero_mate::arm1176jzf</text>
<text text-anchor="start" x="375.5" y="-426.05" font-family="Helvetica,sans-Serif" font-size="10.00">_s::CCPU_Context::Get</text>
<text text-anchor="middle" x="432.5" y="-415.05" font-family="Helvetica,sans-Serif" font-size="10.00">_Register</text>
</a>
</g>
</g>
<!-- Node1&#45;&gt;Node3 -->
<g id="edge12_Node000001_Node000003" class="edge">
<title>Node1&#45;&gt;Node3</title>
<g id="a_edge12_Node000001_Node000003"><a xlink:title=" ">
<path fill="none" stroke="#63b8ff" d="M76.76,-217.69C93.05,-241.92 127.96,-289.61 168,-318.55 185.16,-330.95 296.75,-375.78 369.11,-404.24"/>
<polygon fill="#63b8ff" stroke="#63b8ff" points="368.02,-407.57 378.6,-407.97 370.57,-401.06 368.02,-407.57"/>
</a>
</g>
</g>
<!-- Node4 -->
<g id="Node000004" class="node">
<title>Node4</title>
<g id="a_Node000004"><a xlink:href="classzero__mate_1_1arm1176jzf__s_1_1CCPU__Core.html#a78980460ec7632099c51e96226a08f31" target="_top" xlink:title="Determines the mode of the CPU that should be used in a block data transfer instruction.">
<polygon fill="white" stroke="#666666" points="319.5,-223.05 173.5,-223.05 173.5,-182.05 319.5,-182.05 319.5,-223.05"/>
<text text-anchor="start" x="181.5" y="-211.05" font-family="Helvetica,sans-Serif" font-size="10.00">zero_mate::arm1176jzf</text>
<text text-anchor="start" x="181.5" y="-200.05" font-family="Helvetica,sans-Serif" font-size="10.00">_s::CCPU_Core::Determine</text>
<text text-anchor="middle" x="246.5" y="-189.05" font-family="Helvetica,sans-Serif" font-size="10.00">_CPU_Mode</text>
</a>
</g>
</g>
<!-- Node1&#45;&gt;Node4 -->
<g id="edge3_Node000001_Node000004" class="edge">
<title>Node1&#45;&gt;Node4</title>
<g id="a_edge3_Node000001_Node000004"><a xlink:title=" ">
<path fill="none" stroke="#63b8ff" d="M132.2,-202.55C142.21,-202.55 152.65,-202.55 162.98,-202.55"/>
<polygon fill="#63b8ff" stroke="#63b8ff" points="163.24,-206.05 173.24,-202.55 163.24,-199.05 163.24,-206.05"/>
</a>
</g>
</g>
<!-- Node5 -->
<g id="Node000005" class="node">
<title>Node5</title>
<g id="a_Node000005"><a xlink:href="classzero__mate_1_1arm1176jzf__s_1_1CCPU__Context.html#aa740f9219bb413d707ac72f373e60d3a" target="_top" xlink:title="Returns the current mode of the CPU.">
<polygon fill="white" stroke="#666666" points="497.5,-233.05 367.5,-233.05 367.5,-192.05 497.5,-192.05 497.5,-233.05"/>
<text text-anchor="start" x="375.5" y="-221.05" font-family="Helvetica,sans-Serif" font-size="10.00">zero_mate::arm1176jzf</text>
<text text-anchor="start" x="375.5" y="-210.05" font-family="Helvetica,sans-Serif" font-size="10.00">_s::CCPU_Context::Get</text>
<text text-anchor="middle" x="432.5" y="-199.05" font-family="Helvetica,sans-Serif" font-size="10.00">_CPU_Mode</text>
</a>
</g>
</g>
<!-- Node1&#45;&gt;Node5 -->
<g id="edge11_Node000001_Node000005" class="edge">
<title>Node1&#45;&gt;Node5</title>
<g id="a_edge11_Node000001_Node000005"><a xlink:title=" ">
<path fill="none" stroke="#63b8ff" d="M107.68,-217.55C125.86,-223.49 147.73,-229.6 168,-232.55 237.05,-242.59 255.52,-239.02 325,-232.55 335.54,-231.57 346.59,-230.05 357.42,-228.28"/>
<polygon fill="#63b8ff" stroke="#63b8ff" points="358.02,-231.73 367.29,-226.59 356.84,-224.83 358.02,-231.73"/>
</a>
</g>
</g>
<!-- Node6 -->
<g id="Node000006" class="node">
<title>Node6</title>
<g id="a_Node000006"><a xlink:href="namespacezero__mate_1_1utils_1_1math.html#af7d93c996dab2ff1b91c5a399dcfe29f" target="_top" xlink:title="Tests whether a bit is set in the given integral variable.">
<polygon fill="white" stroke="#666666" points="496,-173.55 369,-173.55 369,-143.55 496,-143.55 496,-173.55"/>
<text text-anchor="start" x="377" y="-161.55" font-family="Helvetica,sans-Serif" font-size="10.00">zero_mate::utils::math</text>
<text text-anchor="middle" x="432.5" y="-150.55" font-family="Helvetica,sans-Serif" font-size="10.00">::Is_Bit_Set</text>
</a>
</g>
</g>
<!-- Node1&#45;&gt;Node6 -->
<g id="edge17_Node000001_Node000006" class="edge">
<title>Node1&#45;&gt;Node6</title>
<g id="a_edge17_Node000001_Node000006"><a xlink:title=" ">
<path fill="none" stroke="#63b8ff" d="M111.25,-187.53C128.73,-182.21 149.12,-176.76 168,-173.55 231.87,-162.7 305.57,-159.26 358.75,-158.35"/>
<polygon fill="#63b8ff" stroke="#63b8ff" points="358.82,-161.85 368.77,-158.21 358.72,-154.85 358.82,-161.85"/>
</a>
</g>
</g>
<!-- Node7 -->
<g id="Node000007" class="node">
<title>Node7</title>
<g id="a_Node000007"><a xlink:href="classzero__mate_1_1utils_1_1CLogging__System.html#a57ed77e1a5cf822cea532cc5e05c3f60" target="_top" xlink:title="Logs an error message via all registered loggers.">
<polygon fill="white" stroke="#666666" points="686,-130.55 540,-130.55 540,-100.55 686,-100.55 686,-130.55"/>
<text text-anchor="start" x="548" y="-118.55" font-family="Helvetica,sans-Serif" font-size="10.00">zero_mate::utils::CLogging</text>
<text text-anchor="middle" x="613" y="-107.55" font-family="Helvetica,sans-Serif" font-size="10.00">_System::Error</text>
</a>
</g>
</g>
<!-- Node1&#45;&gt;Node7 -->
<g id="edge6_Node000001_Node000007" class="edge">
<title>Node1&#45;&gt;Node7</title>
<g id="a_edge6_Node000001_Node000007"><a xlink:title=" ">
<path fill="none" stroke="#63b8ff" d="M92.62,-187.36C112.49,-176.34 141.08,-162.1 168,-154.55 290.68,-120.14 439.22,-113.86 529.61,-113.76"/>
<polygon fill="#63b8ff" stroke="#63b8ff" points="529.79,-117.26 539.8,-113.77 529.8,-110.26 529.79,-117.26"/>
</a>
</g>
</g>
<!-- Node12 -->
<g id="Node000012" class="node">
<title>Node12</title>
<g id="a_Node000012"><a xlink:href="classzero__mate_1_1arm1176jzf__s_1_1CCPU__Context.html#ae00681efcbc4adfcfde001a67c5baeca" target="_top" xlink:title="Returns the value of the SPSR register of the current CPU mode.">
<polygon fill="white" stroke="#666666" points="325,-84.55 168,-84.55 168,-54.55 325,-54.55 325,-84.55"/>
<text text-anchor="start" x="176" y="-72.55" font-family="Helvetica,sans-Serif" font-size="10.00">zero_mate::arm1176jzf</text>
<text text-anchor="middle" x="246.5" y="-61.55" font-family="Helvetica,sans-Serif" font-size="10.00">_s::CCPU_Context::Get_SPSR</text>
</a>
</g>
</g>
<!-- Node1&#45;&gt;Node12 -->
<g id="edge13_Node000001_Node000012" class="edge">
<title>Node1&#45;&gt;Node12</title>
<g id="a_edge13_Node000001_Node000012"><a xlink:title=" ">
<path fill="none" stroke="#63b8ff" d="M78.89,-187.32C96.41,-165.75 131.08,-126.19 168,-101.55 175.14,-96.79 183.09,-92.52 191.12,-88.77"/>
<polygon fill="#63b8ff" stroke="#63b8ff" points="192.79,-91.86 200.52,-84.62 189.96,-85.46 192.79,-91.86"/>
</a>
</g>
</g>
<!-- Node14 -->
<g id="Node000014" class="node">
<title>Node14</title>
<g id="a_Node000014"><a xlink:href="classzero__mate_1_1arm1176jzf__s_1_1CCPU__Context.html#a6fc387fa0b0dd040c4e2463606d933e4" target="_top" xlink:title="Checks if the CPU mode passed in as a parameter supports the SPSR register or not.">
<polygon fill="white" stroke="#666666" points="678,-60.05 548,-60.05 548,-19.05 678,-19.05 678,-60.05"/>
<text text-anchor="start" x="556" y="-48.05" font-family="Helvetica,sans-Serif" font-size="10.00">zero_mate::arm1176jzf</text>
<text text-anchor="start" x="556" y="-37.05" font-family="Helvetica,sans-Serif" font-size="10.00">_s::CCPU_Context::Is</text>
<text text-anchor="middle" x="613" y="-26.05" font-family="Helvetica,sans-Serif" font-size="10.00">_Mode_With_No_SPSR</text>
</a>
</g>
</g>
<!-- Node1&#45;&gt;Node14 -->
<g id="edge18_Node000001_Node000014" class="edge">
<title>Node1&#45;&gt;Node14</title>
<g id="a_edge18_Node000001_Node000014"><a xlink:title=" ">
<path fill="none" stroke="#63b8ff" d="M71.48,-187.45C82.09,-154.76 112.12,-77.76 168,-45.55 283.19,20.84 444.69,0.5 537.82,-19.84"/>
<polygon fill="#63b8ff" stroke="#63b8ff" points="537.2,-23.29 547.72,-22.06 538.73,-16.46 537.2,-23.29"/>
</a>
</g>
</g>
<!-- Node15 -->
<g id="Node000015" class="node">
<title>Node15</title>
<g id="a_Node000015"><a xlink:href="classzero__mate_1_1arm1176jzf__s_1_1CCPU__Context.html#a53765299c790cc790e15deb2c701bd2a" target="_top" xlink:title="Sets a new value to the CPSR register.">
<polygon fill="white" stroke="#666666" points="324.5,-309.55 168.5,-309.55 168.5,-279.55 324.5,-279.55 324.5,-309.55"/>
<text text-anchor="start" x="176.5" y="-297.55" font-family="Helvetica,sans-Serif" font-size="10.00">zero_mate::arm1176jzf</text>
<text text-anchor="middle" x="246.5" y="-286.55" font-family="Helvetica,sans-Serif" font-size="10.00">_s::CCPU_Context::Set_CPSR</text>
</a>
</g>
</g>
<!-- Node1&#45;&gt;Node15 -->
<g id="edge19_Node000001_Node000015" class="edge">
<title>Node1&#45;&gt;Node15</title>
<g id="a_edge19_Node000001_Node000015"><a xlink:title=" ">
<path fill="none" stroke="#63b8ff" d="M88.34,-217.62C108.3,-231.28 139.27,-251.39 168,-265.55 175.33,-269.16 183.23,-272.6 191.08,-275.76"/>
<polygon fill="#63b8ff" stroke="#63b8ff" points="190,-279.1 200.59,-279.48 192.55,-272.58 190,-279.1"/>
</a>
</g>
</g>
<!-- Node2&#45;&gt;Node3 -->
<g id="edge2_Node000002_Node000003" class="edge">
<title>Node2&#45;&gt;Node3</title>
<g id="a_edge2_Node000002_Node000003"><a xlink:title=" ">
<path fill="none" stroke="#63b8ff" d="M316.54,-421.68C329.78,-422.47 343.71,-423.3 357.11,-424.1"/>
<polygon fill="#63b8ff" stroke="#63b8ff" points="357.05,-427.6 367.24,-424.71 357.47,-420.62 357.05,-427.6"/>
</a>
</g>
</g>
<!-- Node4&#45;&gt;Node5 -->
<g id="edge4_Node000004_Node000005" class="edge">
<title>Node4&#45;&gt;Node5</title>
<g id="a_edge4_Node000004_Node000005"><a xlink:title=" ">
<path fill="none" stroke="#63b8ff" d="M319.69,-206.47C331.96,-207.14 344.73,-207.83 357.06,-208.5"/>
<polygon fill="#63b8ff" stroke="#63b8ff" points="357.11,-212.01 367.29,-209.06 357.49,-205.02 357.11,-212.01"/>
</a>
</g>
</g>
<!-- Node4&#45;&gt;Node6 -->
<g id="edge5_Node000004_Node000006" class="edge">
<title>Node4&#45;&gt;Node6</title>
<g id="a_edge5_Node000004_Node000006"><a xlink:title=" ">
<path fill="none" stroke="#63b8ff" d="M319.69,-185.28C332.61,-182.2 346.07,-178.98 359,-175.89"/>
<polygon fill="#63b8ff" stroke="#63b8ff" points="359.85,-179.28 368.76,-173.55 358.22,-172.47 359.85,-179.28"/>
</a>
</g>
</g>
<!-- Node8 -->
<g id="Node000008" class="node">
<title>Node8</title>
<g id="a_Node000008"><a xlink:href="classzero__mate_1_1utils_1_1CLogging__System.html#a71ed11c796553cbe8fd99773406a1060" target="_top" xlink:title="Creates a formatted message to be logged.">
<polygon fill="white" stroke="#666666" points="874,-163.05 722,-163.05 722,-122.05 874,-122.05 874,-163.05"/>
<text text-anchor="start" x="730" y="-151.05" font-family="Helvetica,sans-Serif" font-size="10.00">zero_mate::utils::CLogging</text>
<text text-anchor="start" x="730" y="-140.05" font-family="Helvetica,sans-Serif" font-size="10.00">_System::Create_Formatted</text>
<text text-anchor="middle" x="798" y="-129.05" font-family="Helvetica,sans-Serif" font-size="10.00">_Log_Msg</text>
</a>
</g>
</g>
<!-- Node7&#45;&gt;Node8 -->
<g id="edge7_Node000007_Node000008" class="edge">
<title>Node7&#45;&gt;Node8</title>
<g id="a_edge7_Node000007_Node000008"><a xlink:title=" ">
<path fill="none" stroke="#63b8ff" d="M686.06,-126.18C694.55,-127.43 703.26,-128.72 711.9,-129.99"/>
<polygon fill="#63b8ff" stroke="#63b8ff" points="711.59,-133.48 721.99,-131.48 712.61,-126.56 711.59,-133.48"/>
</a>
</g>
</g>
<!-- Node11 -->
<g id="Node000011" class="node">
<title>Node11</title>
<g id="a_Node000011"><a xlink:href="classzero__mate_1_1utils_1_1CLogging__System.html#ad371c67ef65763966ccf9291002e86f3" target="_top" xlink:title="Extract the filename from a given location within the source files.">
<polygon fill="white" stroke="#666666" points="872.5,-103.55 723.5,-103.55 723.5,-73.55 872.5,-73.55 872.5,-103.55"/>
<text text-anchor="start" x="731.5" y="-91.55" font-family="Helvetica,sans-Serif" font-size="10.00">zero_mate::utils::CLogging</text>
<text text-anchor="middle" x="798" y="-80.55" font-family="Helvetica,sans-Serif" font-size="10.00">_System::Extract_Filename</text>
</a>
</g>
</g>
<!-- Node7&#45;&gt;Node11 -->
<g id="edge10_Node000007_Node000011" class="edge">
<title>Node7&#45;&gt;Node11</title>
<g id="a_edge10_Node000007_Node000011"><a xlink:title=" ">
<path fill="none" stroke="#63b8ff" d="M686.06,-104.92C695.1,-103.58 704.4,-102.21 713.59,-100.85"/>
<polygon fill="#63b8ff" stroke="#63b8ff" points="714.12,-104.31 723.5,-99.39 713.1,-97.39 714.12,-104.31"/>
</a>
</g>
</g>
<!-- Node9 -->
<g id="Node000009" class="node">
<title>Node9</title>
<g id="a_Node000009"><a xlink:href="classzero__mate_1_1utils_1_1CLogging__System.html#aa70c102c805079042ffea2a6f2a5ad64" target="_top" xlink:title="Formats a given timestamp.">
<polygon fill="white" stroke="#666666" points="1070,-181.55 910,-181.55 910,-151.55 1070,-151.55 1070,-181.55"/>
<text text-anchor="start" x="918" y="-169.55" font-family="Helvetica,sans-Serif" font-size="10.00">zero_mate::utils::CLogging</text>
<text text-anchor="middle" x="990" y="-158.55" font-family="Helvetica,sans-Serif" font-size="10.00">_System::Format_Timestamp</text>
</a>
</g>
</g>
<!-- Node8&#45;&gt;Node9 -->
<g id="edge8_Node000008_Node000009" class="edge">
<title>Node8&#45;&gt;Node9</title>
<g id="a_edge8_Node000008_Node000009"><a xlink:title=" ">
<path fill="none" stroke="#63b8ff" d="M874.09,-152.03C882.52,-153.1 891.16,-154.19 899.74,-155.27"/>
<polygon fill="#63b8ff" stroke="#63b8ff" points="899.41,-158.76 909.77,-156.54 900.29,-151.81 899.41,-158.76"/>
</a>
</g>
</g>
<!-- Node10 -->
<g id="Node000010" class="node">
<title>Node10</title>
<g id="a_Node000010"><a xlink:href="classzero__mate_1_1utils_1_1CLogging__System.html#ae3ca637537dde05e0b9119145c840331" target="_top" xlink:title="Returns the current timestamp that will be used in a log message.">
<polygon fill="white" stroke="#666666" points="1063,-133.55 917,-133.55 917,-103.55 1063,-103.55 1063,-133.55"/>
<text text-anchor="start" x="925" y="-121.55" font-family="Helvetica,sans-Serif" font-size="10.00">zero_mate::utils::CLogging</text>
<text text-anchor="middle" x="990" y="-110.55" font-family="Helvetica,sans-Serif" font-size="10.00">_System::Get_Timestamp</text>
</a>
</g>
</g>
<!-- Node8&#45;&gt;Node10 -->
<g id="edge9_Node000008_Node000010" class="edge">
<title>Node8&#45;&gt;Node10</title>
<g id="a_edge9_Node000008_Node000010"><a xlink:title=" ">
<path fill="none" stroke="#63b8ff" d="M874.09,-133.06C884.89,-131.7 896.05,-130.29 906.98,-128.91"/>
<polygon fill="#63b8ff" stroke="#63b8ff" points="907.45,-132.38 916.93,-127.65 906.57,-125.43 907.45,-132.38"/>
</a>
</g>
</g>
<!-- Node13 -->
<g id="Node000013" class="node">
<title>Node13</title>
<g id="a_Node000013"><a xlink:href="classzero__mate_1_1arm1176jzf__s_1_1CCPU__Context.html#a050dada520ca82a21874045815c596a8" target="_top" xlink:title=" ">
<polygon fill="white" stroke="#666666" points="501,-87.05 364,-87.05 364,-46.05 501,-46.05 501,-87.05"/>
<text text-anchor="start" x="372" y="-75.05" font-family="Helvetica,sans-Serif" font-size="10.00">zero_mate::arm1176jzf</text>
<text text-anchor="start" x="372" y="-64.05" font-family="Helvetica,sans-Serif" font-size="10.00">_s::CCPU_Context::Verify</text>
<text text-anchor="middle" x="432.5" y="-53.05" font-family="Helvetica,sans-Serif" font-size="10.00">_SPSR_Accessibility</text>
</a>
</g>
</g>
<!-- Node12&#45;&gt;Node13 -->
<g id="edge14_Node000012_Node000013" class="edge">
<title>Node12&#45;&gt;Node13</title>
<g id="a_edge14_Node000012_Node000013"><a xlink:title=" ">
<path fill="none" stroke="#63b8ff" d="M325.27,-68.28C334.7,-68.13 344.34,-67.97 353.78,-67.82"/>
<polygon fill="#63b8ff" stroke="#63b8ff" points="353.97,-71.31 363.92,-67.65 353.86,-64.31 353.97,-71.31"/>
</a>
</g>
</g>
<!-- Node13&#45;&gt;Node7 -->
<g id="edge15_Node000013_Node000007" class="edge">
<title>Node13&#45;&gt;Node7</title>
<g id="a_edge15_Node000013_Node000007"><a xlink:title=" ">
<path fill="none" stroke="#63b8ff" d="M501.24,-85.14C516.45,-89.32 532.54,-93.74 547.61,-97.87"/>
<polygon fill="#63b8ff" stroke="#63b8ff" points="546.78,-101.27 557.35,-100.55 548.63,-94.52 546.78,-101.27"/>
</a>
</g>
</g>
<!-- Node13&#45;&gt;Node14 -->
<g id="edge16_Node000013_Node000014" class="edge">
<title>Node13&#45;&gt;Node14</title>
<g id="a_edge16_Node000013_Node000014"><a xlink:title=" ">
<path fill="none" stroke="#63b8ff" d="M501.24,-56.3C513.18,-54.5 525.67,-52.61 537.78,-50.77"/>
<polygon fill="#63b8ff" stroke="#63b8ff" points="538.48,-54.21 547.84,-49.25 537.43,-47.29 538.48,-54.21"/>
</a>
</g>
</g>
<!-- Node15&#45;&gt;Node5 -->
<g id="edge21_Node000015_Node000005" class="edge">
<title>Node15&#45;&gt;Node5</title>
<g id="a_edge21_Node000015_Node000005"><a xlink:title=" ">
<path fill="none" stroke="#63b8ff" d="M292.85,-279.4C303.58,-275.32 314.85,-270.62 325,-265.55 341.99,-257.06 344.21,-251.41 361,-242.55 364.25,-240.83 367.62,-239.14 371.05,-237.48"/>
<polygon fill="#63b8ff" stroke="#63b8ff" points="372.63,-240.6 380.2,-233.19 369.66,-234.27 372.63,-240.6"/>
</a>
</g>
</g>
<!-- Node15&#45;&gt;Node7 -->
<g id="edge20_Node000015_Node000007" class="edge">
<title>Node15&#45;&gt;Node7</title>
<g id="a_edge20_Node000015_Node000007"><a xlink:title=" ">
<path fill="none" stroke="#63b8ff" d="M294.11,-309.57C348.41,-324.12 438.95,-339 504,-301.55 564.86,-266.51 594.59,-182.57 606.08,-140.49"/>
<polygon fill="#63b8ff" stroke="#63b8ff" points="609.48,-141.31 608.61,-130.75 602.71,-139.54 609.48,-141.31"/>
</a>
</g>
</g>
<!-- Node16 -->
<g id="Node000016" class="node">
<title>Node16</title>
<g id="a_Node000016"><a xlink:href="classzero__mate_1_1arm1176jzf__s_1_1CCPU__Context.html#aa53dae8f0dd16d916a852e572dfa95ba" target="_top" xlink:title="Checks if there is an invalid attempt to change the control bits of the CPSR register.">
<polygon fill="white" stroke="#666666" points="504,-292.05 361,-292.05 361,-251.05 504,-251.05 504,-292.05"/>
<text text-anchor="start" x="369" y="-280.05" font-family="Helvetica,sans-Serif" font-size="10.00">zero_mate::arm1176jzf</text>
<text text-anchor="start" x="369" y="-269.05" font-family="Helvetica,sans-Serif" font-size="10.00">_s::CCPU_Context::Invalid</text>
<text text-anchor="middle" x="432.5" y="-258.05" font-family="Helvetica,sans-Serif" font-size="10.00">_Change_Of_Control_Bits</text>
</a>
</g>
</g>
<!-- Node15&#45;&gt;Node16 -->
<g id="edge22_Node000015_Node000016" class="edge">
<title>Node15&#45;&gt;Node16</title>
<g id="a_edge22_Node000015_Node000016"><a xlink:title=" ">
<path fill="none" stroke="#63b8ff" d="M324.73,-284.89C333.36,-283.82 342.16,-282.72 350.82,-281.63"/>
<polygon fill="#63b8ff" stroke="#63b8ff" points="351.43,-285.08 360.91,-280.37 350.56,-278.14 351.43,-285.08"/>
</a>
</g>
</g>
<!-- Node17 -->
<g id="Node000017" class="node">
<title>Node17</title>
<g id="a_Node000017"><a xlink:href="classzero__mate_1_1arm1176jzf__s_1_1CCPU__Context.html#a7efff674f8141eab73cb69099220f0d5" target="_top" xlink:title="Sets the mode of the CPU.">
<polygon fill="white" stroke="#666666" points="497.5,-390.05 367.5,-390.05 367.5,-349.05 497.5,-349.05 497.5,-390.05"/>
<text text-anchor="start" x="375.5" y="-378.05" font-family="Helvetica,sans-Serif" font-size="10.00">zero_mate::arm1176jzf</text>
<text text-anchor="start" x="375.5" y="-367.05" font-family="Helvetica,sans-Serif" font-size="10.00">_s::CCPU_Context::Set</text>
<text text-anchor="middle" x="432.5" y="-356.05" font-family="Helvetica,sans-Serif" font-size="10.00">_CPU_Mode</text>
</a>
</g>
</g>
<!-- Node15&#45;&gt;Node17 -->
<g id="edge23_Node000015_Node000017" class="edge">
<title>Node15&#45;&gt;Node17</title>
<g id="a_edge23_Node000015_Node000017"><a xlink:title=" ">
<path fill="none" stroke="#63b8ff" d="M284.74,-309.73C309.64,-319.88 342.97,-333.46 371.57,-345.12"/>
<polygon fill="#63b8ff" stroke="#63b8ff" points="370.49,-348.46 381.07,-348.99 373.13,-341.98 370.49,-348.46"/>
</a>
</g>
</g>
</g>
</svg>
