<?xml version="1.0" encoding="UTF-8" standalone="no"?>
<!DOCTYPE svg PUBLIC "-//W3C//DTD SVG 1.1//EN"
 "http://www.w3.org/Graphics/SVG/1.1/DTD/svg11.dtd">
<!-- Generated by graphviz version 2.43.0 (0)
 -->
<!-- Title: zero_mate::arm1176jzf_s::CCPU_Core::Get_Second_Operand_Imm Pages: 1 -->
<svg width="513pt" height="151pt"
 viewBox="0.00 0.00 513.00 150.50" xmlns="http://www.w3.org/2000/svg" xmlns:xlink="http://www.w3.org/1999/xlink">
<g id="graph0" class="graph" transform="scale(1 1) rotate(0) translate(4 146.5)">
<title>zero_mate::arm1176jzf_s::CCPU_Core::Get_Second_Operand_Imm</title>
<!-- Node1 -->
<g id="Node000001" class="node">
<title>Node1</title>
<g id="a_Node000001"><a xlink:title="Calculates the second immediate operand of a given instruction.">
<polygon fill="#999999" stroke="#666666" points="152,-83.5 0,-83.5 0,-42.5 152,-42.5 152,-83.5"/>
<text text-anchor="start" x="8" y="-71.5" font-family="Helvetica,sans-Serif" font-size="10.00">zero_mate::arm1176jzf</text>
<text text-anchor="start" x="8" y="-60.5" font-family="Helvetica,sans-Serif" font-size="10.00">_s::CCPU_Core::Get_Second</text>
<text text-anchor="middle" x="76" y="-49.5" font-family="Helvetica,sans-Serif" font-size="10.00">_Operand_Imm</text>
</a>
</g>
</g>
<!-- Node2 -->
<g id="Node000002" class="node">
<title>Node2</title>
<g id="a_Node000002"><a xlink:href="classzero__mate_1_1arm1176jzf__s_1_1isa_1_1CData__Processing.html#a5c64aa0622ddf4f42bccfa900673d005" target="_top" xlink:title="Return the immediate value (unsigned 8&#45;bit value).">
<polygon fill="white" stroke="#666666" points="335.5,-142.5 194.5,-142.5 194.5,-101.5 335.5,-101.5 335.5,-142.5"/>
<text text-anchor="start" x="202.5" y="-130.5" font-family="Helvetica,sans-Serif" font-size="10.00">zero_mate::arm1176jzf</text>
<text text-anchor="start" x="202.5" y="-119.5" font-family="Helvetica,sans-Serif" font-size="10.00">_s::isa::CData_Processing</text>
<text text-anchor="middle" x="265" y="-108.5" font-family="Helvetica,sans-Serif" font-size="10.00">::Get_Immediate</text>
</a>
</g>
</g>
<!-- Node1&#45;&gt;Node2 -->
<g id="edge1_Node000001_Node000002" class="edge">
<title>Node1&#45;&gt;Node2</title>
<g id="a_edge1_Node000001_Node000002"><a xlink:title=" ">
<path fill="none" stroke="#63b8ff" d="M142.14,-83.55C157.33,-88.34 173.62,-93.48 189.19,-98.4"/>
<polygon fill="#63b8ff" stroke="#63b8ff" points="188.19,-101.75 198.78,-101.42 190.29,-95.07 188.19,-101.75"/>
</a>
</g>
</g>
<!-- Node3 -->
<g id="Node000003" class="node">
<title>Node3</title>
<g id="a_Node000003"><a xlink:href="classzero__mate_1_1arm1176jzf__s_1_1isa_1_1CData__Processing.html#acd5c9629ee16e0512678279f85158b72" target="_top" xlink:title="Returns the shift amount to be applied to the immediate value.">
<polygon fill="white" stroke="#666666" points="335.5,-83.5 194.5,-83.5 194.5,-42.5 335.5,-42.5 335.5,-83.5"/>
<text text-anchor="start" x="202.5" y="-71.5" font-family="Helvetica,sans-Serif" font-size="10.00">zero_mate::arm1176jzf</text>
<text text-anchor="start" x="202.5" y="-60.5" font-family="Helvetica,sans-Serif" font-size="10.00">_s::isa::CData_Processing</text>
<text text-anchor="middle" x="265" y="-49.5" font-family="Helvetica,sans-Serif" font-size="10.00">::Get_Rotate</text>
</a>
</g>
</g>
<!-- Node1&#45;&gt;Node3 -->
<g id="edge2_Node000001_Node000003" class="edge">
<title>Node1&#45;&gt;Node3</title>
<g id="a_edge2_Node000001_Node000003"><a xlink:title=" ">
<path fill="none" stroke="#63b8ff" d="M152.25,-63C162.79,-63 173.65,-63 184.26,-63"/>
<polygon fill="#63b8ff" stroke="#63b8ff" points="184.35,-66.5 194.35,-63 184.35,-59.5 184.35,-66.5"/>
</a>
</g>
</g>
<!-- Node4 -->
<g id="Node000004" class="node">
<title>Node4</title>
<g id="a_Node000004"><a xlink:href="namespacezero__mate_1_1utils_1_1math.html#acec3045831345d7d2e2b3a20ff2fd4fd" target="_top" xlink:title="Performs an ROR (rotate right extended) operation on the given integral value.">
<polygon fill="white" stroke="#666666" points="342,-24.5 188,-24.5 188,-5.5 342,-5.5 342,-24.5"/>
<text text-anchor="middle" x="265" y="-12.5" font-family="Helvetica,sans-Serif" font-size="10.00">zero_mate::utils::math::ROR</text>
</a>
</g>
</g>
<!-- Node1&#45;&gt;Node4 -->
<g id="edge3_Node000001_Node000004" class="edge">
<title>Node1&#45;&gt;Node4</title>
<g id="a_edge3_Node000001_Node000004"><a xlink:title=" ">
<path fill="none" stroke="#63b8ff" d="M152.2,-43.24C164.17,-40.13 176.42,-36.96 188,-34 196.9,-31.72 206.4,-29.33 215.56,-27.03"/>
<polygon fill="#63b8ff" stroke="#63b8ff" points="216.47,-30.41 225.32,-24.59 214.77,-23.62 216.47,-30.41"/>
</a>
</g>
</g>
<!-- Node5 -->
<g id="Node000005" class="node">
<title>Node5</title>
<g id="a_Node000005"><a xlink:href="namespacezero__mate_1_1utils_1_1math.html#af7d93c996dab2ff1b91c5a399dcfe29f" target="_top" xlink:title="Tests whether a bit is set in the given integral variable.">
<polygon fill="white" stroke="#666666" points="505,-30 378,-30 378,0 505,0 505,-30"/>
<text text-anchor="start" x="386" y="-18" font-family="Helvetica,sans-Serif" font-size="10.00">zero_mate::utils::math</text>
<text text-anchor="middle" x="441.5" y="-7" font-family="Helvetica,sans-Serif" font-size="10.00">::Is_Bit_Set</text>
</a>
</g>
</g>
<!-- Node4&#45;&gt;Node5 -->
<g id="edge4_Node000004_Node000005" class="edge">
<title>Node4&#45;&gt;Node5</title>
<g id="a_edge4_Node000004_Node000005"><a xlink:title=" ">
<path fill="none" stroke="#63b8ff" d="M342.03,-15C350.52,-15 359.15,-15 367.6,-15"/>
<polygon fill="#63b8ff" stroke="#63b8ff" points="367.79,-18.5 377.79,-15 367.79,-11.5 367.79,-18.5"/>
</a>
</g>
</g>
</g>
</svg>
