<?xml version="1.0" encoding="UTF-8" standalone="no"?>
<!DOCTYPE svg PUBLIC "-//W3C//DTD SVG 1.1//EN"
 "http://www.w3.org/Graphics/SVG/1.1/DTD/svg11.dtd">
<!-- Generated by graphviz version 2.43.0 (0)
 -->
<!-- Title: zero_mate::arm1176jzf_s::CCPU_Core::Step Pages: 1 -->
<svg width="1045pt" height="394pt"
 viewBox="0.00 0.00 1045.00 393.50" xmlns="http://www.w3.org/2000/svg" xmlns:xlink="http://www.w3.org/1999/xlink">
<g id="graph0" class="graph" transform="scale(1 1) rotate(0) translate(4 389.5)">
<title>zero_mate::arm1176jzf_s::CCPU_Core::Step</title>
<!-- Node1 -->
<g id="Node000001" class="node">
<title>Node1</title>
<g id="a_Node000001"><a xlink:title=" ">
<polygon fill="#999999" stroke="#666666" points="130,-79 0,-79 0,-49 130,-49 130,-79"/>
<text text-anchor="start" x="8" y="-67" font-family="Helvetica,sans-Serif" font-size="10.00">zero_mate::arm1176jzf</text>
<text text-anchor="middle" x="65" y="-56" font-family="Helvetica,sans-Serif" font-size="10.00">_s::CCPU_Core::Step</text>
</a>
</g>
</g>
<!-- Node2 -->
<g id="Node000002" class="node">
<title>Node2</title>
<g id="a_Node000002"><a xlink:href="classzero__mate_1_1arm1176jzf__s_1_1CCPU__Core.html#af500d91bd836a74df0e758990c4ecc7d" target="_top" xlink:title=" ">
<polygon fill="white" stroke="#666666" points="298,-133 166,-133 166,-103 298,-103 298,-133"/>
<text text-anchor="start" x="174" y="-121" font-family="Helvetica,sans-Serif" font-size="10.00">zero_mate::arm1176jzf</text>
<text text-anchor="middle" x="232" y="-110" font-family="Helvetica,sans-Serif" font-size="10.00">_s::CCPU_Core::Execute</text>
</a>
</g>
</g>
<!-- Node1&#45;&gt;Node2 -->
<g id="edge1_Node000001_Node000002" class="edge">
<title>Node1&#45;&gt;Node2</title>
<g id="a_edge1_Node000001_Node000002"><a xlink:title=" ">
<path fill="none" stroke="#63b8ff" d="M111.96,-79.04C131.64,-85.48 154.78,-93.06 175.41,-99.81"/>
<polygon fill="#63b8ff" stroke="#63b8ff" points="174.41,-103.16 185,-102.95 176.58,-96.51 174.41,-103.16"/>
</a>
</g>
</g>
<!-- Node3 -->
<g id="Node000003" class="node">
<title>Node3</title>
<g id="a_Node000003"><a xlink:href="classzero__mate_1_1arm1176jzf__s_1_1CCPU__Core.html#aa327755c4c57c01f03e16fb3d1195f6a" target="_top" xlink:title="Fetches the next instruction.">
<polygon fill="white" stroke="#666666" points="297,-84.5 167,-84.5 167,-43.5 297,-43.5 297,-84.5"/>
<text text-anchor="start" x="175" y="-72.5" font-family="Helvetica,sans-Serif" font-size="10.00">zero_mate::arm1176jzf</text>
<text text-anchor="start" x="175" y="-61.5" font-family="Helvetica,sans-Serif" font-size="10.00">_s::CCPU_Core::Fetch</text>
<text text-anchor="middle" x="232" y="-50.5" font-family="Helvetica,sans-Serif" font-size="10.00">_Instruction</text>
</a>
</g>
</g>
<!-- Node1&#45;&gt;Node3 -->
<g id="edge3_Node000001_Node000003" class="edge">
<title>Node1&#45;&gt;Node3</title>
<g id="a_edge3_Node000001_Node000003"><a xlink:title=" ">
<path fill="none" stroke="#63b8ff" d="M130.27,-64C138.92,-64 147.85,-64 156.65,-64"/>
<polygon fill="#63b8ff" stroke="#63b8ff" points="156.91,-67.5 166.91,-64 156.91,-60.5 156.91,-67.5"/>
</a>
</g>
</g>
<!-- Node11 -->
<g id="Node000011" class="node">
<title>Node11</title>
<g id="a_Node000011"><a xlink:href="classzero__mate_1_1arm1176jzf__s_1_1CCPU__Core.html#a423eacd01e574e782a2b7cf51f28c56c" target="_top" xlink:title="Returns a reference to the PC register (r15)">
<polygon fill="white" stroke="#666666" points="642.5,-30 512.5,-30 512.5,0 642.5,0 642.5,-30"/>
<text text-anchor="start" x="520.5" y="-18" font-family="Helvetica,sans-Serif" font-size="10.00">zero_mate::arm1176jzf</text>
<text text-anchor="middle" x="577.5" y="-7" font-family="Helvetica,sans-Serif" font-size="10.00">_s::CCPU_Core::PC</text>
</a>
</g>
</g>
<!-- Node1&#45;&gt;Node11 -->
<g id="edge19_Node000001_Node000011" class="edge">
<title>Node1&#45;&gt;Node11</title>
<g id="a_edge19_Node000001_Node000011"><a xlink:title=" ">
<path fill="none" stroke="#63b8ff" d="M107.79,-48.97C125.5,-43.25 146.52,-37.32 166,-34 282.29,-14.17 419.62,-12.03 502.29,-13"/>
<polygon fill="#63b8ff" stroke="#63b8ff" points="502.29,-16.5 512.34,-13.14 502.39,-9.5 502.29,-16.5"/>
</a>
</g>
</g>
<!-- Node2&#45;&gt;Node2 -->
<g id="edge2_Node000002_Node000002" class="edge">
<title>Node2&#45;&gt;Node2</title>
<g id="a_edge2_Node000002_Node000002"><a xlink:title=" ">
<path fill="none" stroke="#63b8ff" d="M202.82,-133.28C196.34,-142.41 206.06,-151 232,-151 247.4,-151 257.09,-147.97 261.06,-143.6"/>
<polygon fill="#63b8ff" stroke="#63b8ff" points="264.56,-143.32 261.18,-133.28 257.56,-143.23 264.56,-143.32"/>
</a>
</g>
</g>
<!-- Node4 -->
<g id="Node000004" class="node">
<title>Node4</title>
<g id="a_Node000004"><a xlink:href="classzero__mate_1_1arm1176jzf__s_1_1CCPU__Core.html#a85e6ef006a36e1adb56abd3ecc6481be" target="_top" xlink:title="Executes a CPU exception.">
<polygon fill="white" stroke="#666666" points="466,-166.5 334,-166.5 334,-125.5 466,-125.5 466,-166.5"/>
<text text-anchor="start" x="342" y="-154.5" font-family="Helvetica,sans-Serif" font-size="10.00">zero_mate::arm1176jzf</text>
<text text-anchor="start" x="342" y="-143.5" font-family="Helvetica,sans-Serif" font-size="10.00">_s::CCPU_Core::Execute</text>
<text text-anchor="middle" x="400" y="-132.5" font-family="Helvetica,sans-Serif" font-size="10.00">_Exception</text>
</a>
</g>
</g>
<!-- Node3&#45;&gt;Node4 -->
<g id="edge4_Node000003_Node000004" class="edge">
<title>Node3&#45;&gt;Node4</title>
<g id="a_edge4_Node000003_Node000004"><a xlink:title=" ">
<path fill="none" stroke="#63b8ff" d="M278.23,-84.57C284.88,-87.68 291.63,-90.89 298,-94 315.35,-102.46 334.19,-112.06 350.86,-120.68"/>
<polygon fill="#63b8ff" stroke="#63b8ff" points="349.38,-123.85 359.87,-125.36 352.6,-117.64 349.38,-123.85"/>
</a>
</g>
</g>
<!-- Node3&#45;&gt;Node11 -->
<g id="edge18_Node000003_Node000011" class="edge">
<title>Node3&#45;&gt;Node11</title>
<g id="a_edge18_Node000003_Node000011"><a xlink:title=" ">
<path fill="none" stroke="#63b8ff" d="M297.21,-54.84C355.42,-46.54 441.23,-34.3 502.35,-25.58"/>
<polygon fill="#63b8ff" stroke="#63b8ff" points="502.91,-29.03 512.32,-24.16 501.92,-22.1 502.91,-29.03"/>
</a>
</g>
</g>
<!-- Node5 -->
<g id="Node000005" class="node">
<title>Node5</title>
<g id="a_Node000005"><a xlink:href="classzero__mate_1_1arm1176jzf__s_1_1exceptions_1_1CCPU__Exception.html#ab18a4a4b6a54029ccf141784cfe9c737" target="_top" xlink:title="Returns the mode into which the CPU will switch when the exception is thrown.">
<polygon fill="white" stroke="#666666" points="653,-385.5 502,-385.5 502,-344.5 653,-344.5 653,-385.5"/>
<text text-anchor="start" x="510" y="-373.5" font-family="Helvetica,sans-Serif" font-size="10.00">zero_mate::arm1176jzf</text>
<text text-anchor="start" x="510" y="-362.5" font-family="Helvetica,sans-Serif" font-size="10.00">_s::exceptions::CCPU</text>
<text text-anchor="middle" x="577.5" y="-351.5" font-family="Helvetica,sans-Serif" font-size="10.00">_Exception::Get_CPU_Mode</text>
</a>
</g>
</g>
<!-- Node4&#45;&gt;Node5 -->
<g id="edge5_Node000004_Node000005" class="edge">
<title>Node4&#45;&gt;Node5</title>
<g id="a_edge5_Node000004_Node000005"><a xlink:title=" ">
<path fill="none" stroke="#63b8ff" d="M406.81,-166.59C418.61,-204.83 448.84,-287.29 502,-335 503.48,-336.33 505.02,-337.6 506.62,-338.82"/>
<polygon fill="#63b8ff" stroke="#63b8ff" points="504.77,-341.79 515.02,-344.49 508.69,-335.99 504.77,-341.79"/>
</a>
</g>
</g>
<!-- Node6 -->
<g id="Node000006" class="node">
<title>Node6</title>
<g id="a_Node000006"><a xlink:href="classzero__mate_1_1arm1176jzf__s_1_1exceptions_1_1CCPU__Exception.html#ae87c33c76ed6571b2408fd293710b6c4" target="_top" xlink:title="Returns the address of the handler of the exception.">
<polygon fill="white" stroke="#666666" points="650.5,-326 504.5,-326 504.5,-274 650.5,-274 650.5,-326"/>
<text text-anchor="start" x="512.5" y="-314" font-family="Helvetica,sans-Serif" font-size="10.00">zero_mate::arm1176jzf</text>
<text text-anchor="start" x="512.5" y="-303" font-family="Helvetica,sans-Serif" font-size="10.00">_s::exceptions::CCPU</text>
<text text-anchor="start" x="512.5" y="-292" font-family="Helvetica,sans-Serif" font-size="10.00">_Exception::Get_Exception</text>
<text text-anchor="middle" x="577.5" y="-281" font-family="Helvetica,sans-Serif" font-size="10.00">_Vector</text>
</a>
</g>
</g>
<!-- Node4&#45;&gt;Node6 -->
<g id="edge6_Node000004_Node000006" class="edge">
<title>Node4&#45;&gt;Node6</title>
<g id="a_edge6_Node000004_Node000006"><a xlink:title=" ">
<path fill="none" stroke="#63b8ff" d="M414.53,-166.88C432.12,-192.7 464.98,-236.68 502,-265 503.4,-266.07 504.85,-267.13 506.32,-268.16"/>
<polygon fill="#63b8ff" stroke="#63b8ff" points="504.76,-271.32 515.06,-273.81 508.56,-265.44 504.76,-271.32"/>
</a>
</g>
</g>
<!-- Node7 -->
<g id="Node000007" class="node">
<title>Node7</title>
<g id="a_Node000007"><a xlink:href="classzero__mate_1_1arm1176jzf__s_1_1exceptions_1_1CCPU__Exception.html#aabb81de8a3e09534245ef3851a31c3c0" target="_top" xlink:title="Returns the type of the exception.">
<polygon fill="white" stroke="#666666" points="642.5,-255.5 512.5,-255.5 512.5,-214.5 642.5,-214.5 642.5,-255.5"/>
<text text-anchor="start" x="520.5" y="-243.5" font-family="Helvetica,sans-Serif" font-size="10.00">zero_mate::arm1176jzf</text>
<text text-anchor="start" x="520.5" y="-232.5" font-family="Helvetica,sans-Serif" font-size="10.00">_s::exceptions::CCPU</text>
<text text-anchor="middle" x="577.5" y="-221.5" font-family="Helvetica,sans-Serif" font-size="10.00">_Exception::Get_Type</text>
</a>
</g>
</g>
<!-- Node4&#45;&gt;Node7 -->
<g id="edge7_Node000004_Node000007" class="edge">
<title>Node4&#45;&gt;Node7</title>
<g id="a_edge7_Node000004_Node000007"><a xlink:title=" ">
<path fill="none" stroke="#63b8ff" d="M432.55,-166.57C452.1,-178.85 477.98,-194.29 502,-206 505.09,-207.51 508.27,-208.99 511.51,-210.45"/>
<polygon fill="#63b8ff" stroke="#63b8ff" points="510.17,-213.68 520.73,-214.46 512.96,-207.26 510.17,-213.68"/>
</a>
</g>
</g>
<!-- Node8 -->
<g id="Node000008" class="node">
<title>Node8</title>
<g id="a_Node000008"><a xlink:href="classzero__mate_1_1arm1176jzf__s_1_1CCPU__Core.html#ad6dadfc114c7d0d6b43496f9f5651be7" target="_top" xlink:title="Checks if the IVT (interrupt vector table) has been reallocated to the higher address (0xFFFF0000).">
<polygon fill="white" stroke="#666666" points="653,-196.5 502,-196.5 502,-155.5 653,-155.5 653,-196.5"/>
<text text-anchor="start" x="510" y="-184.5" font-family="Helvetica,sans-Serif" font-size="10.00">zero_mate::arm1176jzf</text>
<text text-anchor="start" x="510" y="-173.5" font-family="Helvetica,sans-Serif" font-size="10.00">_s::CCPU_Core::Is_IVT</text>
<text text-anchor="middle" x="577.5" y="-162.5" font-family="Helvetica,sans-Serif" font-size="10.00">_Reallocated_To_High_Addr</text>
</a>
</g>
</g>
<!-- Node4&#45;&gt;Node8 -->
<g id="edge8_Node000004_Node000008" class="edge">
<title>Node4&#45;&gt;Node8</title>
<g id="a_edge8_Node000004_Node000008"><a xlink:title=" ">
<path fill="none" stroke="#63b8ff" d="M466.35,-157.17C474.69,-158.6 483.31,-160.07 491.89,-161.54"/>
<polygon fill="#63b8ff" stroke="#63b8ff" points="491.49,-165.02 501.93,-163.25 492.67,-158.12 491.49,-165.02"/>
</a>
</g>
</g>
<!-- Node4&#45;&gt;Node11 -->
<g id="edge11_Node000004_Node000011" class="edge">
<title>Node4&#45;&gt;Node11</title>
<g id="a_edge11_Node000004_Node000011"><a xlink:title=" ">
<path fill="none" stroke="#63b8ff" d="M419.41,-125.42C445.78,-96.1 492.22,-45.17 502,-39 504.62,-37.35 507.36,-35.8 510.18,-34.35"/>
<polygon fill="#63b8ff" stroke="#63b8ff" points="511.82,-37.45 519.41,-30.05 508.87,-31.1 511.82,-37.45"/>
</a>
</g>
</g>
<!-- Node12 -->
<g id="Node000012" class="node">
<title>Node12</title>
<g id="a_Node000012"><a xlink:href="classzero__mate_1_1arm1176jzf__s_1_1CCPU__Context.html#a7efff674f8141eab73cb69099220f0d5" target="_top" xlink:title="Sets the mode of the CPU.">
<polygon fill="white" stroke="#666666" points="642.5,-137.5 512.5,-137.5 512.5,-96.5 642.5,-96.5 642.5,-137.5"/>
<text text-anchor="start" x="520.5" y="-125.5" font-family="Helvetica,sans-Serif" font-size="10.00">zero_mate::arm1176jzf</text>
<text text-anchor="start" x="520.5" y="-114.5" font-family="Helvetica,sans-Serif" font-size="10.00">_s::CCPU_Context::Set</text>
<text text-anchor="middle" x="577.5" y="-103.5" font-family="Helvetica,sans-Serif" font-size="10.00">_CPU_Mode</text>
</a>
</g>
</g>
<!-- Node4&#45;&gt;Node12 -->
<g id="edge12_Node000004_Node000012" class="edge">
<title>Node4&#45;&gt;Node12</title>
<g id="a_edge12_Node000004_Node000012"><a xlink:title=" ">
<path fill="none" stroke="#63b8ff" d="M466.35,-135.2C478.07,-133.26 490.37,-131.23 502.32,-129.26"/>
<polygon fill="#63b8ff" stroke="#63b8ff" points="502.97,-132.7 512.26,-127.61 501.83,-125.79 502.97,-132.7"/>
</a>
</g>
</g>
<!-- Node13 -->
<g id="Node000013" class="node">
<title>Node13</title>
<g id="a_Node000013"><a xlink:href="classzero__mate_1_1utils_1_1CLogging__System.html#a2bb4d37b178f29335f726875bad91bd4" target="_top" xlink:title="Logs a warning message via all registered loggers.">
<polygon fill="white" stroke="#666666" points="650.5,-78 504.5,-78 504.5,-48 650.5,-48 650.5,-78"/>
<text text-anchor="start" x="512.5" y="-66" font-family="Helvetica,sans-Serif" font-size="10.00">zero_mate::utils::CLogging</text>
<text text-anchor="middle" x="577.5" y="-55" font-family="Helvetica,sans-Serif" font-size="10.00">_System::Warning</text>
</a>
</g>
</g>
<!-- Node4&#45;&gt;Node13 -->
<g id="edge13_Node000004_Node000013" class="edge">
<title>Node4&#45;&gt;Node13</title>
<g id="a_edge13_Node000004_Node000013"><a xlink:title=" ">
<path fill="none" stroke="#63b8ff" d="M432.35,-125.3C451.83,-113.05 477.71,-97.85 502,-87 506.16,-85.14 510.51,-83.36 514.92,-81.66"/>
<polygon fill="#63b8ff" stroke="#63b8ff" points="516.47,-84.82 524.65,-78.09 514.06,-78.25 516.47,-84.82"/>
</a>
</g>
</g>
<!-- Node9 -->
<g id="Node000009" class="node">
<title>Node9</title>
<g id="a_Node000009"><a xlink:href="classzero__mate_1_1coprocessor_1_1cp15_1_1CC1.html#ac6b22a989b3f58443f36e32999150eb6" target="_top" xlink:title=" ">
<polygon fill="white" stroke="#666666" points="831.5,-196.5 698.5,-196.5 698.5,-155.5 831.5,-155.5 831.5,-196.5"/>
<text text-anchor="start" x="706.5" y="-184.5" font-family="Helvetica,sans-Serif" font-size="10.00">zero_mate::coprocessor</text>
<text text-anchor="start" x="706.5" y="-173.5" font-family="Helvetica,sans-Serif" font-size="10.00">::cp15::CC1::Is_Control</text>
<text text-anchor="middle" x="765" y="-162.5" font-family="Helvetica,sans-Serif" font-size="10.00">_Flag_Set</text>
</a>
</g>
</g>
<!-- Node8&#45;&gt;Node9 -->
<g id="edge9_Node000008_Node000009" class="edge">
<title>Node8&#45;&gt;Node9</title>
<g id="a_edge9_Node000008_Node000009"><a xlink:title=" ">
<path fill="none" stroke="#63b8ff" d="M653.15,-176C664.75,-176 676.75,-176 688.37,-176"/>
<polygon fill="#63b8ff" stroke="#63b8ff" points="688.47,-179.5 698.47,-176 688.47,-172.5 688.47,-179.5"/>
</a>
</g>
</g>
<!-- Node10 -->
<g id="Node000010" class="node">
<title>Node10</title>
<g id="a_Node000010"><a xlink:href="classzero__mate_1_1coprocessor_1_1cp15_1_1IPrimary__Reg.html#a0780610d57b65a633a1776be372116a6" target="_top" xlink:title="Checks whether a flag is set in a given register.">
<polygon fill="white" stroke="#666666" points="1023.5,-196.5 890.5,-196.5 890.5,-155.5 1023.5,-155.5 1023.5,-196.5"/>
<text text-anchor="start" x="898.5" y="-184.5" font-family="Helvetica,sans-Serif" font-size="10.00">zero_mate::coprocessor</text>
<text text-anchor="start" x="898.5" y="-173.5" font-family="Helvetica,sans-Serif" font-size="10.00">::cp15::IPrimary_Reg::</text>
<text text-anchor="middle" x="957" y="-162.5" font-family="Helvetica,sans-Serif" font-size="10.00">Is_Flag_Set</text>
</a>
</g>
</g>
<!-- Node9&#45;&gt;Node10 -->
<g id="edge10_Node000009_Node000010" class="edge">
<title>Node9&#45;&gt;Node10</title>
<g id="a_edge10_Node000009_Node000010"><a xlink:title=" ">
<path fill="none" stroke="#63b8ff" d="M831.65,-176C847.23,-176 863.97,-176 879.96,-176"/>
<polygon fill="#63b8ff" stroke="#63b8ff" points="880.34,-179.5 890.34,-176 880.34,-172.5 880.34,-179.5"/>
</a>
</g>
</g>
<!-- Node14 -->
<g id="Node000014" class="node">
<title>Node14</title>
<g id="a_Node000014"><a xlink:href="classzero__mate_1_1utils_1_1CLogging__System.html#a71ed11c796553cbe8fd99773406a1060" target="_top" xlink:title="Creates a formatted message to be logged.">
<polygon fill="white" stroke="#666666" points="841,-110.5 689,-110.5 689,-69.5 841,-69.5 841,-110.5"/>
<text text-anchor="start" x="697" y="-98.5" font-family="Helvetica,sans-Serif" font-size="10.00">zero_mate::utils::CLogging</text>
<text text-anchor="start" x="697" y="-87.5" font-family="Helvetica,sans-Serif" font-size="10.00">_System::Create_Formatted</text>
<text text-anchor="middle" x="765" y="-76.5" font-family="Helvetica,sans-Serif" font-size="10.00">_Log_Msg</text>
</a>
</g>
</g>
<!-- Node13&#45;&gt;Node14 -->
<g id="edge14_Node000013_Node000014" class="edge">
<title>Node13&#45;&gt;Node14</title>
<g id="a_edge14_Node000013_Node000014"><a xlink:title=" ">
<path fill="none" stroke="#63b8ff" d="M650.75,-73.52C659.94,-74.85 669.41,-76.23 678.78,-77.6"/>
<polygon fill="#63b8ff" stroke="#63b8ff" points="678.49,-81.09 688.89,-79.07 679.49,-74.16 678.49,-81.09"/>
</a>
</g>
</g>
<!-- Node17 -->
<g id="Node000017" class="node">
<title>Node17</title>
<g id="a_Node000017"><a xlink:href="classzero__mate_1_1utils_1_1CLogging__System.html#ad371c67ef65763966ccf9291002e86f3" target="_top" xlink:title="Extract the filename from a given location within the source files.">
<polygon fill="white" stroke="#666666" points="839.5,-51 690.5,-51 690.5,-21 839.5,-21 839.5,-51"/>
<text text-anchor="start" x="698.5" y="-39" font-family="Helvetica,sans-Serif" font-size="10.00">zero_mate::utils::CLogging</text>
<text text-anchor="middle" x="765" y="-28" font-family="Helvetica,sans-Serif" font-size="10.00">_System::Extract_Filename</text>
</a>
</g>
</g>
<!-- Node13&#45;&gt;Node17 -->
<g id="edge17_Node000013_Node000017" class="edge">
<title>Node13&#45;&gt;Node17</title>
<g id="a_edge17_Node000013_Node000017"><a xlink:title=" ">
<path fill="none" stroke="#63b8ff" d="M650.75,-52.48C660.41,-51.08 670.39,-49.62 680.23,-48.19"/>
<polygon fill="#63b8ff" stroke="#63b8ff" points="681.03,-51.61 690.42,-46.71 680.02,-44.69 681.03,-51.61"/>
</a>
</g>
</g>
<!-- Node15 -->
<g id="Node000015" class="node">
<title>Node15</title>
<g id="a_Node000015"><a xlink:href="classzero__mate_1_1utils_1_1CLogging__System.html#aa70c102c805079042ffea2a6f2a5ad64" target="_top" xlink:title="Formats a given timestamp.">
<polygon fill="white" stroke="#666666" points="1037,-121 877,-121 877,-91 1037,-91 1037,-121"/>
<text text-anchor="start" x="885" y="-109" font-family="Helvetica,sans-Serif" font-size="10.00">zero_mate::utils::CLogging</text>
<text text-anchor="middle" x="957" y="-98" font-family="Helvetica,sans-Serif" font-size="10.00">_System::Format_Timestamp</text>
</a>
</g>
</g>
<!-- Node14&#45;&gt;Node15 -->
<g id="edge15_Node000014_Node000015" class="edge">
<title>Node14&#45;&gt;Node15</title>
<g id="a_edge15_Node000014_Node000015"><a xlink:title=" ">
<path fill="none" stroke="#63b8ff" d="M841.09,-96.32C849.52,-97.03 858.16,-97.76 866.74,-98.48"/>
<polygon fill="#63b8ff" stroke="#63b8ff" points="866.51,-101.98 876.77,-99.33 867.1,-95 866.51,-101.98"/>
</a>
</g>
</g>
<!-- Node16 -->
<g id="Node000016" class="node">
<title>Node16</title>
<g id="a_Node000016"><a xlink:href="classzero__mate_1_1utils_1_1CLogging__System.html#ae3ca637537dde05e0b9119145c840331" target="_top" xlink:title="Returns the current timestamp that will be used in a log message.">
<polygon fill="white" stroke="#666666" points="1030,-73 884,-73 884,-43 1030,-43 1030,-73"/>
<text text-anchor="start" x="892" y="-61" font-family="Helvetica,sans-Serif" font-size="10.00">zero_mate::utils::CLogging</text>
<text text-anchor="middle" x="957" y="-50" font-family="Helvetica,sans-Serif" font-size="10.00">_System::Get_Timestamp</text>
</a>
</g>
</g>
<!-- Node14&#45;&gt;Node16 -->
<g id="edge16_Node000014_Node000016" class="edge">
<title>Node14&#45;&gt;Node16</title>
<g id="a_edge16_Node000014_Node000016"><a xlink:title=" ">
<path fill="none" stroke="#63b8ff" d="M841.09,-77.35C851.89,-75.53 863.05,-73.65 873.98,-71.81"/>
<polygon fill="#63b8ff" stroke="#63b8ff" points="874.65,-75.25 883.93,-70.14 873.49,-68.35 874.65,-75.25"/>
</a>
</g>
</g>
</g>
</svg>
