<?xml version="1.0" encoding="UTF-8" standalone="no"?>
<!DOCTYPE svg PUBLIC "-//W3C//DTD SVG 1.1//EN"
 "http://www.w3.org/Graphics/SVG/1.1/DTD/svg11.dtd">
<!-- Generated by graphviz version 2.43.0 (0)
 -->
<!-- Title: zero_mate::arm1176jzf_s::CCPU_Core::Execute Pages: 1 -->
<svg width="499pt" height="226pt"
 viewBox="0.00 0.00 499.00 226.00" xmlns="http://www.w3.org/2000/svg" xmlns:xlink="http://www.w3.org/1999/xlink">
<g id="graph0" class="graph" transform="scale(1 1) rotate(0) translate(4 222)">
<title>zero_mate::arm1176jzf_s::CCPU_Core::Execute</title>
<!-- Node1 -->
<g id="Node000001" class="node">
<title>Node1</title>
<g id="a_Node000001"><a xlink:title="Executes a single data transfer instruction.">
<polygon fill="#999999" stroke="#666666" points="132,-99.5 0,-99.5 0,-69.5 132,-69.5 132,-99.5"/>
<text text-anchor="start" x="8" y="-87.5" font-family="Helvetica,sans-Serif" font-size="10.00">zero_mate::arm1176jzf</text>
<text text-anchor="middle" x="66" y="-76.5" font-family="Helvetica,sans-Serif" font-size="10.00">_s::CCPU_Core::Execute</text>
</a>
</g>
</g>
<!-- Node2 -->
<g id="Node000002" class="node">
<title>Node2</title>
<g id="a_Node000002"><a xlink:href="classzero__mate_1_1arm1176jzf__s_1_1CCPU__Core.html#ab8055407426b0f25544d2b33a89b22a7" target="_top" xlink:title="Calculates the offset from the base address in a single data transfer instruction.">
<polygon fill="white" stroke="#666666" points="314,-123.5 168,-123.5 168,-93.5 314,-93.5 314,-123.5"/>
<text text-anchor="start" x="176" y="-111.5" font-family="Helvetica,sans-Serif" font-size="10.00">zero_mate::arm1176jzf</text>
<text text-anchor="middle" x="241" y="-100.5" font-family="Helvetica,sans-Serif" font-size="10.00">_s::CCPU_Core::Get_Offset</text>
</a>
</g>
</g>
<!-- Node1&#45;&gt;Node2 -->
<g id="edge1_Node000001_Node000002" class="edge">
<title>Node1&#45;&gt;Node2</title>
<g id="a_edge1_Node000001_Node000002"><a xlink:title=" ">
<path fill="none" stroke="#63b8ff" d="M132.4,-93.57C140.73,-94.73 149.32,-95.92 157.87,-97.11"/>
<polygon fill="#63b8ff" stroke="#63b8ff" points="157.46,-100.58 167.85,-98.49 158.42,-93.65 157.46,-100.58"/>
</a>
</g>
</g>
<!-- Node7 -->
<g id="Node000007" class="node">
<title>Node7</title>
<g id="a_Node000007"><a xlink:href="classzero__mate_1_1arm1176jzf__s_1_1CCPU__Core.html#a423eacd01e574e782a2b7cf51f28c56c" target="_top" xlink:title="Returns a reference to the PC register (r15)">
<polygon fill="white" stroke="#666666" points="306,-75.5 176,-75.5 176,-45.5 306,-45.5 306,-75.5"/>
<text text-anchor="start" x="184" y="-63.5" font-family="Helvetica,sans-Serif" font-size="10.00">zero_mate::arm1176jzf</text>
<text text-anchor="middle" x="241" y="-52.5" font-family="Helvetica,sans-Serif" font-size="10.00">_s::CCPU_Core::PC</text>
</a>
</g>
</g>
<!-- Node1&#45;&gt;Node7 -->
<g id="edge6_Node000001_Node000007" class="edge">
<title>Node1&#45;&gt;Node7</title>
<g id="a_edge6_Node000001_Node000007"><a xlink:title=" ">
<path fill="none" stroke="#63b8ff" d="M132.4,-75.43C143.32,-73.91 154.71,-72.33 165.83,-70.79"/>
<polygon fill="#63b8ff" stroke="#63b8ff" points="166.51,-74.23 175.94,-69.39 165.55,-67.29 166.51,-74.23"/>
</a>
</g>
</g>
<!-- Node3 -->
<g id="Node000003" class="node">
<title>Node3</title>
<g id="a_Node000003"><a xlink:href="classzero__mate_1_1arm1176jzf__s_1_1isa_1_1CData__Processing.html#a73d5c3a98f3fe036a1348d4d7485d0e9" target="_top" xlink:title="Returns the index of the second operand register (Rm).">
<polygon fill="white" stroke="#666666" points="491,-218 350,-218 350,-177 491,-177 491,-218"/>
<text text-anchor="start" x="358" y="-206" font-family="Helvetica,sans-Serif" font-size="10.00">zero_mate::arm1176jzf</text>
<text text-anchor="start" x="358" y="-195" font-family="Helvetica,sans-Serif" font-size="10.00">_s::isa::CData_Processing</text>
<text text-anchor="middle" x="420.5" y="-184" font-family="Helvetica,sans-Serif" font-size="10.00">::Get_Rm_Idx</text>
</a>
</g>
</g>
<!-- Node2&#45;&gt;Node3 -->
<g id="edge2_Node000002_Node000003" class="edge">
<title>Node2&#45;&gt;Node3</title>
<g id="a_edge2_Node000002_Node000003"><a xlink:title=" ">
<path fill="none" stroke="#63b8ff" d="M267.32,-123.63C288.94,-136.28 321.05,-154.47 350,-168.5 352.94,-169.93 355.97,-171.35 359.04,-172.76"/>
<polygon fill="#63b8ff" stroke="#63b8ff" points="357.79,-176.03 368.35,-176.92 360.65,-169.64 357.79,-176.03"/>
</a>
</g>
</g>
<!-- Node4 -->
<g id="Node000004" class="node">
<title>Node4</title>
<g id="a_Node000004"><a xlink:href="classzero__mate_1_1arm1176jzf__s_1_1isa_1_1CData__Processing.html#ae851afadd74822ec9363797ab332f45a" target="_top" xlink:title="Returns the shift amount used when constructing the second operand (immediate second operand).">
<polygon fill="white" stroke="#666666" points="491,-159 350,-159 350,-118 491,-118 491,-159"/>
<text text-anchor="start" x="358" y="-147" font-family="Helvetica,sans-Serif" font-size="10.00">zero_mate::arm1176jzf</text>
<text text-anchor="start" x="358" y="-136" font-family="Helvetica,sans-Serif" font-size="10.00">_s::isa::CData_Processing</text>
<text text-anchor="middle" x="420.5" y="-125" font-family="Helvetica,sans-Serif" font-size="10.00">::Get_Shift_Amount</text>
</a>
</g>
</g>
<!-- Node2&#45;&gt;Node4 -->
<g id="edge3_Node000002_Node000004" class="edge">
<title>Node2&#45;&gt;Node4</title>
<g id="a_edge3_Node000002_Node000004"><a xlink:title=" ">
<path fill="none" stroke="#63b8ff" d="M314.2,-120.7C322.68,-122.14 331.38,-123.61 339.95,-125.06"/>
<polygon fill="#63b8ff" stroke="#63b8ff" points="339.51,-128.53 349.95,-126.75 340.68,-121.63 339.51,-128.53"/>
</a>
</g>
</g>
<!-- Node5 -->
<g id="Node000005" class="node">
<title>Node5</title>
<g id="a_Node000005"><a xlink:href="classzero__mate_1_1arm1176jzf__s_1_1isa_1_1CData__Processing.html#ae43548d291eecc463c519086e7527ff2" target="_top" xlink:title="Returns the shift type used when constructing the second operand.">
<polygon fill="white" stroke="#666666" points="491,-100 350,-100 350,-59 491,-59 491,-100"/>
<text text-anchor="start" x="358" y="-88" font-family="Helvetica,sans-Serif" font-size="10.00">zero_mate::arm1176jzf</text>
<text text-anchor="start" x="358" y="-77" font-family="Helvetica,sans-Serif" font-size="10.00">_s::isa::CData_Processing</text>
<text text-anchor="middle" x="420.5" y="-66" font-family="Helvetica,sans-Serif" font-size="10.00">::Get_Shift_Type</text>
</a>
</g>
</g>
<!-- Node2&#45;&gt;Node5 -->
<g id="edge4_Node000002_Node000005" class="edge">
<title>Node2&#45;&gt;Node5</title>
<g id="a_edge4_Node000002_Node000005"><a xlink:title=" ">
<path fill="none" stroke="#63b8ff" d="M314.2,-96.7C322.68,-95.32 331.38,-93.9 339.95,-92.5"/>
<polygon fill="#63b8ff" stroke="#63b8ff" points="340.65,-95.93 349.95,-90.86 339.52,-89.02 340.65,-95.93"/>
</a>
</g>
</g>
<!-- Node6 -->
<g id="Node000006" class="node">
<title>Node6</title>
<g id="a_Node000006"><a xlink:href="classzero__mate_1_1arm1176jzf__s_1_1isa_1_1CData__Processing.html#a1dc73c441b156452b1467eaa5cab46f5" target="_top" xlink:title="Returns the value of the I bit (bit 25 = immediate second operand).">
<polygon fill="white" stroke="#666666" points="491,-41 350,-41 350,0 491,0 491,-41"/>
<text text-anchor="start" x="358" y="-29" font-family="Helvetica,sans-Serif" font-size="10.00">zero_mate::arm1176jzf</text>
<text text-anchor="start" x="358" y="-18" font-family="Helvetica,sans-Serif" font-size="10.00">_s::isa::CData_Processing</text>
<text text-anchor="middle" x="420.5" y="-7" font-family="Helvetica,sans-Serif" font-size="10.00">::Is_I_Bit_Set</text>
</a>
</g>
</g>
<!-- Node2&#45;&gt;Node6 -->
<g id="edge5_Node000002_Node000006" class="edge">
<title>Node2&#45;&gt;Node6</title>
<g id="a_edge5_Node000002_Node000006"><a xlink:title=" ">
<path fill="none" stroke="#63b8ff" d="M295.85,-93.46C302.16,-90.86 308.35,-87.88 314,-84.5 332.88,-73.2 331.62,-62.6 350,-50.5 352.42,-48.91 354.94,-47.37 357.52,-45.88"/>
<polygon fill="#63b8ff" stroke="#63b8ff" points="359.34,-48.87 366.48,-41.05 356.02,-42.71 359.34,-48.87"/>
</a>
</g>
</g>
</g>
</svg>
