<?xml version="1.0" encoding="UTF-8" standalone="no"?>
<!DOCTYPE svg PUBLIC "-//W3C//DTD SVG 1.1//EN"
 "http://www.w3.org/Graphics/SVG/1.1/DTD/svg11.dtd">
<!-- Generated by graphviz version 2.43.0 (0)
 -->
<!-- Title: zero_mate::gui::CSource_Code_Window::Render Pages: 1 -->
<svg width="1491pt" height="254pt"
 viewBox="0.00 0.00 1491.00 254.00" xmlns="http://www.w3.org/2000/svg" xmlns:xlink="http://www.w3.org/1999/xlink">
<g id="graph0" class="graph" transform="scale(1 1) rotate(0) translate(4 250)">
<title>zero_mate::gui::CSource_Code_Window::Render</title>
<!-- Node1 -->
<g id="Node000001" class="node">
<title>Node1</title>
<g id="a_Node000001"><a xlink:title="Renders the window (IGUI_Window interface).">
<polygon fill="#999999" stroke="#666666" points="135,-162 0,-162 0,-132 135,-132 135,-162"/>
<text text-anchor="start" x="8" y="-150" font-family="Helvetica,sans-Serif" font-size="10.00">zero_mate::gui::CSource</text>
<text text-anchor="middle" x="67.5" y="-139" font-family="Helvetica,sans-Serif" font-size="10.00">_Code_Window::Render</text>
</a>
</g>
</g>
<!-- Node2 -->
<g id="Node000002" class="node">
<title>Node2</title>
<g id="a_Node000002"><a xlink:href="classzero__mate_1_1gui_1_1CSource__Code__Window.html#abc0903527899c5a5a96df03979eab006" target="_top" xlink:title="Removes all tabs (ELF source files) which the user has closed.">
<polygon fill="white" stroke="#666666" points="374,-186 172,-186 172,-156 374,-156 374,-186"/>
<text text-anchor="start" x="180" y="-174" font-family="Helvetica,sans-Serif" font-size="10.00">zero_mate::gui::CSource</text>
<text text-anchor="middle" x="273" y="-163" font-family="Helvetica,sans-Serif" font-size="10.00">_Code_Window::Remove_Closed_Tabs</text>
</a>
</g>
</g>
<!-- Node1&#45;&gt;Node2 -->
<g id="edge1_Node000001_Node000002" class="edge">
<title>Node1&#45;&gt;Node2</title>
<g id="a_edge1_Node000001_Node000002"><a xlink:title=" ">
<path fill="none" stroke="#63b8ff" d="M135.13,-154.86C143.64,-155.86 152.52,-156.91 161.49,-157.97"/>
<polygon fill="#63b8ff" stroke="#63b8ff" points="161.3,-161.47 171.64,-159.16 162.12,-154.52 161.3,-161.47"/>
</a>
</g>
</g>
<!-- Node3 -->
<g id="Node000003" class="node">
<title>Node3</title>
<g id="a_Node000003"><a xlink:href="classzero__mate_1_1gui_1_1CSource__Code__Window.html#a1f2a59252814f5b499c09bf2959741ad" target="_top" xlink:title="Renders the disassembled contents of all ELF loaded into the emulator.">
<polygon fill="white" stroke="#666666" points="375,-138 171,-138 171,-108 375,-108 375,-138"/>
<text text-anchor="start" x="179" y="-126" font-family="Helvetica,sans-Serif" font-size="10.00">zero_mate::gui::CSource</text>
<text text-anchor="middle" x="273" y="-115" font-family="Helvetica,sans-Serif" font-size="10.00">_Code_Window::Render_Source_Codes</text>
</a>
</g>
</g>
<!-- Node1&#45;&gt;Node3 -->
<g id="edge2_Node000001_Node000003" class="edge">
<title>Node1&#45;&gt;Node3</title>
<g id="a_edge2_Node000001_Node000003"><a xlink:title=" ">
<path fill="none" stroke="#63b8ff" d="M135.13,-139.14C143.47,-138.16 152.17,-137.13 160.96,-136.1"/>
<polygon fill="#63b8ff" stroke="#63b8ff" points="161.39,-139.57 170.91,-134.92 160.57,-132.62 161.39,-139.57"/>
</a>
</g>
</g>
<!-- Node4 -->
<g id="Node000004" class="node">
<title>Node4</title>
<g id="a_Node000004"><a xlink:href="classzero__mate_1_1gui_1_1CSource__Code__Window.html#a2088711954d53ac5f57e4a085770590f" target="_top" xlink:title="Renders a single tab (ELF source file).">
<polygon fill="white" stroke="#666666" points="563,-138 411,-138 411,-108 563,-108 563,-138"/>
<text text-anchor="start" x="419" y="-126" font-family="Helvetica,sans-Serif" font-size="10.00">zero_mate::gui::CSource</text>
<text text-anchor="middle" x="487" y="-115" font-family="Helvetica,sans-Serif" font-size="10.00">_Code_Window::Render_Tab</text>
</a>
</g>
</g>
<!-- Node3&#45;&gt;Node4 -->
<g id="edge3_Node000003_Node000004" class="edge">
<title>Node3&#45;&gt;Node4</title>
<g id="a_edge3_Node000003_Node000004"><a xlink:title=" ">
<path fill="none" stroke="#63b8ff" d="M375.03,-123C383.6,-123 392.21,-123 400.64,-123"/>
<polygon fill="#63b8ff" stroke="#63b8ff" points="400.82,-126.5 410.82,-123 400.82,-119.5 400.82,-126.5"/>
</a>
</g>
</g>
<!-- Node5 -->
<g id="Node000005" class="node">
<title>Node5</title>
<g id="a_Node000005"><a xlink:href="classzero__mate_1_1gui_1_1CSource__Code__Window.html#af9afd629a519bacd1ce89faf8bbcdb9c" target="_top" xlink:title="Renders a block of code (a single function/method).">
<polygon fill="white" stroke="#666666" points="792,-138 599,-138 599,-108 792,-108 792,-138"/>
<text text-anchor="start" x="607" y="-126" font-family="Helvetica,sans-Serif" font-size="10.00">zero_mate::gui::CSource</text>
<text text-anchor="middle" x="695.5" y="-115" font-family="Helvetica,sans-Serif" font-size="10.00">_Code_Window::Render_Code_Block</text>
</a>
</g>
</g>
<!-- Node4&#45;&gt;Node5 -->
<g id="edge4_Node000004_Node000005" class="edge">
<title>Node4&#45;&gt;Node5</title>
<g id="a_edge4_Node000004_Node000005"><a xlink:title=" ">
<path fill="none" stroke="#63b8ff" d="M563.14,-123C571.51,-123 580.15,-123 588.81,-123"/>
<polygon fill="#63b8ff" stroke="#63b8ff" points="588.97,-126.5 598.97,-123 588.97,-119.5 588.97,-126.5"/>
</a>
</g>
</g>
<!-- Node6 -->
<g id="Node000006" class="node">
<title>Node6</title>
<g id="a_Node000006"><a xlink:href="namespacezero__mate_1_1gui_1_1color.html#a60970f5b5a08721617863b63cc7cc292" target="_top" xlink:title="Assigns a string its corresponding color based on its hash value.">
<polygon fill="white" stroke="#666666" points="1002.5,-246 856.5,-246 856.5,-216 1002.5,-216 1002.5,-246"/>
<text text-anchor="start" x="864.5" y="-234" font-family="Helvetica,sans-Serif" font-size="10.00">zero_mate::gui::color</text>
<text text-anchor="middle" x="929.5" y="-223" font-family="Helvetica,sans-Serif" font-size="10.00">::Assign_Color_From_Hash</text>
</a>
</g>
</g>
<!-- Node5&#45;&gt;Node6 -->
<g id="edge5_Node000005_Node000006" class="edge">
<title>Node5&#45;&gt;Node6</title>
<g id="a_edge5_Node000005_Node000006"><a xlink:title=" ">
<path fill="none" stroke="#63b8ff" d="M715.83,-138.32C740.49,-157.13 785.11,-188.79 828,-207 833.91,-209.51 840.12,-211.78 846.45,-213.84"/>
<polygon fill="#63b8ff" stroke="#63b8ff" points="845.87,-217.32 856.45,-216.9 847.91,-210.63 845.87,-217.32"/>
</a>
</g>
</g>
<!-- Node7 -->
<g id="Node000007" class="node">
<title>Node7</title>
<g id="a_Node000007"><a xlink:href="classzero__mate_1_1gui_1_1CSource__Code__Window.html#a8ab01667cca3406c621027962c2d22bd" target="_top" xlink:title="Extracts the class name from a given label (function name).">
<polygon fill="white" stroke="#666666" points="997,-197.5 862,-197.5 862,-156.5 997,-156.5 997,-197.5"/>
<text text-anchor="start" x="870" y="-185.5" font-family="Helvetica,sans-Serif" font-size="10.00">zero_mate::gui::CSource</text>
<text text-anchor="start" x="870" y="-174.5" font-family="Helvetica,sans-Serif" font-size="10.00">_Code_Window::Extract</text>
<text text-anchor="middle" x="929.5" y="-163.5" font-family="Helvetica,sans-Serif" font-size="10.00">_Class_Name</text>
</a>
</g>
</g>
<!-- Node5&#45;&gt;Node7 -->
<g id="edge6_Node000005_Node000007" class="edge">
<title>Node5&#45;&gt;Node7</title>
<g id="a_edge6_Node000005_Node000007"><a xlink:title=" ">
<path fill="none" stroke="#63b8ff" d="M761.12,-138.04C789.31,-144.6 822.57,-152.34 851.98,-159.19"/>
<polygon fill="#63b8ff" stroke="#63b8ff" points="851.27,-162.62 861.8,-161.47 852.85,-155.8 851.27,-162.62"/>
</a>
</g>
</g>
<!-- Node8 -->
<g id="Node000008" class="node">
<title>Node8</title>
<g id="a_Node000008"><a xlink:href="classzero__mate_1_1gui_1_1CSource__Code__Window.html#ad8c35af3bc3c8881eeca1de82afc6b35" target="_top" xlink:title="Renders a table that containing disassembled instructions.">
<polygon fill="white" stroke="#666666" points="1025,-138 834,-138 834,-108 1025,-108 1025,-138"/>
<text text-anchor="start" x="842" y="-126" font-family="Helvetica,sans-Serif" font-size="10.00">zero_mate::gui::CSource</text>
<text text-anchor="middle" x="929.5" y="-115" font-family="Helvetica,sans-Serif" font-size="10.00">_Code_Window::Render_Code_Table</text>
</a>
</g>
</g>
<!-- Node5&#45;&gt;Node8 -->
<g id="edge7_Node000005_Node000008" class="edge">
<title>Node5&#45;&gt;Node8</title>
<g id="a_edge7_Node000005_Node000008"><a xlink:title=" ">
<path fill="none" stroke="#63b8ff" d="M792.2,-123C802.61,-123 813.24,-123 823.74,-123"/>
<polygon fill="#63b8ff" stroke="#63b8ff" points="823.77,-126.5 833.77,-123 823.77,-119.5 823.77,-126.5"/>
</a>
</g>
</g>
<!-- Node12 -->
<g id="Node000012" class="node">
<title>Node12</title>
<g id="a_Node000012"><a xlink:href="classzero__mate_1_1gui_1_1CSource__Code__Window.html#ad485f4213e9fff6ac5327683e2e6abc7" target="_top" xlink:title="Checks if the block of code which is currently being rendered should be highlighted or not.">
<polygon fill="white" stroke="#666666" points="1009,-89.5 850,-89.5 850,-48.5 1009,-48.5 1009,-89.5"/>
<text text-anchor="start" x="858" y="-77.5" font-family="Helvetica,sans-Serif" font-size="10.00">zero_mate::gui::CSource</text>
<text text-anchor="start" x="858" y="-66.5" font-family="Helvetica,sans-Serif" font-size="10.00">_Code_Window::Should_Code</text>
<text text-anchor="middle" x="929.5" y="-55.5" font-family="Helvetica,sans-Serif" font-size="10.00">_Block_Be_Highlighted</text>
</a>
</g>
</g>
<!-- Node5&#45;&gt;Node12 -->
<g id="edge11_Node000005_Node000012" class="edge">
<title>Node5&#45;&gt;Node12</title>
<g id="a_edge11_Node000005_Node000012"><a xlink:title=" ">
<path fill="none" stroke="#63b8ff" d="M761.12,-107.96C785.5,-102.29 813.66,-95.73 839.85,-89.63"/>
<polygon fill="#63b8ff" stroke="#63b8ff" points="840.83,-93 849.78,-87.32 839.25,-86.18 840.83,-93"/>
</a>
</g>
</g>
<!-- Node13 -->
<g id="Node000013" class="node">
<title>Node13</title>
<g id="a_Node000013"><a xlink:href="classzero__mate_1_1gui_1_1CSource__Code__Window.html#a0fa8c26175b9585a867f343c1148d258" target="_top" xlink:title="Skips a block of code (function) which is collapsed and therefore not visible to the user.">
<polygon fill="white" stroke="#666666" points="1031,-30 828,-30 828,0 1031,0 1031,-30"/>
<text text-anchor="start" x="836" y="-18" font-family="Helvetica,sans-Serif" font-size="10.00">zero_mate::gui::CSource</text>
<text text-anchor="middle" x="929.5" y="-7" font-family="Helvetica,sans-Serif" font-size="10.00">_Code_Window::Skip_Collapsed_Block</text>
</a>
</g>
</g>
<!-- Node5&#45;&gt;Node13 -->
<g id="edge12_Node000005_Node000013" class="edge">
<title>Node5&#45;&gt;Node13</title>
<g id="a_edge12_Node000005_Node000013"><a xlink:title=" ">
<path fill="none" stroke="#63b8ff" d="M715.83,-107.68C740.49,-88.87 785.11,-57.21 828,-39 833.01,-36.88 838.23,-34.92 843.56,-33.12"/>
<polygon fill="#63b8ff" stroke="#63b8ff" points="844.77,-36.41 853.24,-30.04 842.65,-29.73 844.77,-36.41"/>
</a>
</g>
</g>
<!-- Node9 -->
<g id="Node000009" class="node">
<title>Node9</title>
<g id="a_Node000009"><a xlink:href="classzero__mate_1_1gui_1_1CSource__Code__Window.html#a92af51ccb5ebca752cddaac27c38f1f8" target="_top" xlink:title="Renders the body of a source code table.">
<polygon fill="white" stroke="#666666" points="1258,-165 1067,-165 1067,-135 1258,-135 1258,-165"/>
<text text-anchor="start" x="1075" y="-153" font-family="Helvetica,sans-Serif" font-size="10.00">zero_mate::gui::CSource</text>
<text text-anchor="middle" x="1162.5" y="-142" font-family="Helvetica,sans-Serif" font-size="10.00">_Code_Window::Render_Table_Body</text>
</a>
</g>
</g>
<!-- Node8&#45;&gt;Node9 -->
<g id="edge8_Node000008_Node000009" class="edge">
<title>Node8&#45;&gt;Node9</title>
<g id="a_edge8_Node000008_Node000009"><a xlink:title=" ">
<path fill="none" stroke="#63b8ff" d="M1025.12,-134.06C1035.51,-135.27 1046.13,-136.52 1056.63,-137.74"/>
<polygon fill="#63b8ff" stroke="#63b8ff" points="1056.31,-141.23 1066.65,-138.91 1057.12,-134.28 1056.31,-141.23"/>
</a>
</g>
</g>
<!-- Node11 -->
<g id="Node000011" class="node">
<title>Node11</title>
<g id="a_Node000011"><a xlink:href="classzero__mate_1_1gui_1_1CSource__Code__Window.html#aa46c591d1c9bb994ccee55d371919e37" target="_top" xlink:title="Renders table headings (breakpoint, address, opcode, disassembly)">
<polygon fill="white" stroke="#666666" points="1243,-116.5 1082,-116.5 1082,-75.5 1243,-75.5 1243,-116.5"/>
<text text-anchor="start" x="1090" y="-104.5" font-family="Helvetica,sans-Serif" font-size="10.00">zero_mate::gui::CSource</text>
<text text-anchor="start" x="1090" y="-93.5" font-family="Helvetica,sans-Serif" font-size="10.00">_Code_Window::Render_Table</text>
<text text-anchor="middle" x="1162.5" y="-82.5" font-family="Helvetica,sans-Serif" font-size="10.00">_Headings</text>
</a>
</g>
</g>
<!-- Node8&#45;&gt;Node11 -->
<g id="edge10_Node000008_Node000011" class="edge">
<title>Node8&#45;&gt;Node11</title>
<g id="a_edge10_Node000008_Node000011"><a xlink:title=" ">
<path fill="none" stroke="#63b8ff" d="M1025.12,-111.94C1040.56,-110.14 1056.5,-108.27 1071.81,-106.48"/>
<polygon fill="#63b8ff" stroke="#63b8ff" points="1072.25,-109.96 1081.77,-105.32 1071.43,-103 1072.25,-109.96"/>
</a>
</g>
</g>
<!-- Node10 -->
<g id="Node000010" class="node">
<title>Node10</title>
<g id="a_Node000010"><a xlink:href="classzero__mate_1_1gui_1_1CSource__Code__Window.html#a854994af8a4bb90df17e2e24c8d7a3a5" target="_top" xlink:title="Renders a single breakpoint.">
<polygon fill="white" stroke="#666666" points="1483,-165 1294,-165 1294,-135 1483,-135 1483,-165"/>
<text text-anchor="start" x="1302" y="-153" font-family="Helvetica,sans-Serif" font-size="10.00">zero_mate::gui::CSource</text>
<text text-anchor="middle" x="1388.5" y="-142" font-family="Helvetica,sans-Serif" font-size="10.00">_Code_Window::Render_Breakpoint</text>
</a>
</g>
</g>
<!-- Node9&#45;&gt;Node10 -->
<g id="edge9_Node000009_Node000010" class="edge">
<title>Node9&#45;&gt;Node10</title>
<g id="a_edge9_Node000009_Node000010"><a xlink:title=" ">
<path fill="none" stroke="#63b8ff" d="M1258.17,-150C1266.67,-150 1275.3,-150 1283.87,-150"/>
<polygon fill="#63b8ff" stroke="#63b8ff" points="1283.88,-153.5 1293.88,-150 1283.88,-146.5 1283.88,-153.5"/>
</a>
</g>
</g>
</g>
</svg>
