<?xml version="1.0" encoding="UTF-8" standalone="no"?>
<!DOCTYPE svg PUBLIC "-//W3C//DTD SVG 1.1//EN"
 "http://www.w3.org/Graphics/SVG/1.1/DTD/svg11.dtd">
<!-- Generated by graphviz version 2.43.0 (0)
 -->
<!-- Title: zero_mate::peripheral::CARM_Timer Pages: 1 -->
<svg width="410pt" height="182pt"
 viewBox="0.00 0.00 410.00 182.00" xmlns="http://www.w3.org/2000/svg" xmlns:xlink="http://www.w3.org/1999/xlink">
<g id="graph0" class="graph" transform="scale(1 1) rotate(0) translate(4 178)">
<title>zero_mate::peripheral::CARM_Timer</title>
<!-- Node1 -->
<g id="Node000001" class="node">
<title>Node1</title>
<g id="a_Node000001"><a xlink:title="This class represents the ARM timer used in BCM2835.">
<polygon fill="#999999" stroke="#666666" points="402,-102 278,-102 278,-72 402,-72 402,-102"/>
<text text-anchor="start" x="286" y="-90" font-family="Helvetica,sans-Serif" font-size="10.00">zero_mate::peripheral</text>
<text text-anchor="middle" x="340" y="-79" font-family="Helvetica,sans-Serif" font-size="10.00">::CARM_Timer</text>
</a>
</g>
</g>
<!-- Node2 -->
<g id="Node000002" class="node">
<title>Node2</title>
<g id="a_Node000002"><a xlink:href="classzero__mate_1_1peripheral_1_1IPeripheral.html" target="_top" xlink:title="This class represents a general interface of a memory&#45;mapped peripheral.">
<polygon fill="white" stroke="#666666" points="135,-174 11,-174 11,-144 135,-144 135,-174"/>
<text text-anchor="start" x="19" y="-162" font-family="Helvetica,sans-Serif" font-size="10.00">zero_mate::peripheral</text>
<text text-anchor="middle" x="73" y="-151" font-family="Helvetica,sans-Serif" font-size="10.00">::IPeripheral</text>
</a>
</g>
</g>
<!-- Node2&#45;&gt;Node1 -->
<g id="edge1_Node000001_Node000002" class="edge">
<title>Node2&#45;&gt;Node1</title>
<g id="a_edge1_Node000001_Node000002"><a xlink:title=" ">
<path fill="none" stroke="#63b8ff" d="M145.44,-141.99C180.15,-133.46 222.39,-122.69 260,-112 270.79,-108.93 282.34,-105.41 293.19,-102"/>
<polygon fill="#63b8ff" stroke="#63b8ff" points="144.28,-138.67 135.4,-144.45 145.94,-145.47 144.28,-138.67"/>
</a>
</g>
</g>
<!-- Node3 -->
<g id="Node000003" class="node">
<title>Node3</title>
<g id="a_Node000003"><a xlink:href="classzero__mate_1_1peripheral_1_1ISystem__Clock__Listener.html" target="_top" xlink:title="This class represents a general interface for a CPU clock listener.">
<polygon fill="white" stroke="#666666" points="142.5,-126 3.5,-126 3.5,-96 142.5,-96 142.5,-126"/>
<text text-anchor="start" x="11.5" y="-114" font-family="Helvetica,sans-Serif" font-size="10.00">zero_mate::peripheral</text>
<text text-anchor="middle" x="73" y="-103" font-family="Helvetica,sans-Serif" font-size="10.00">::ISystem_Clock_Listener</text>
</a>
</g>
</g>
<!-- Node3&#45;&gt;Node1 -->
<g id="edge2_Node000001_Node000003" class="edge">
<title>Node3&#45;&gt;Node1</title>
<g id="a_edge2_Node000001_Node000003"><a xlink:title=" ">
<path fill="none" stroke="#63b8ff" d="M152.59,-103.88C192.67,-100.25 240.67,-95.91 277.93,-92.53"/>
<polygon fill="#63b8ff" stroke="#63b8ff" points="152.23,-100.4 142.59,-104.79 152.86,-107.37 152.23,-100.4"/>
</a>
</g>
</g>
<!-- Node4 -->
<g id="Node000004" class="node">
<title>Node4</title>
<g id="a_Node000004"><a xlink:href="classzero__mate_1_1peripheral_1_1CARM__Timer_1_1CPrescaler.html" target="_top" xlink:title="This class represents a prescaler of the ARM timer.">
<polygon fill="white" stroke="#666666" points="144.5,-78 1.5,-78 1.5,-48 144.5,-48 144.5,-78"/>
<text text-anchor="start" x="9.5" y="-66" font-family="Helvetica,sans-Serif" font-size="10.00">zero_mate::peripheral</text>
<text text-anchor="middle" x="73" y="-55" font-family="Helvetica,sans-Serif" font-size="10.00">::CARM_Timer::CPrescaler</text>
</a>
</g>
</g>
<!-- Node4&#45;&gt;Node1 -->
<g id="edge3_Node000001_Node000004" class="edge">
<title>Node4&#45;&gt;Node1</title>
<g id="a_edge3_Node000001_Node000004"><a xlink:title=" ">
<path fill="none" stroke="#9a32cd" stroke-dasharray="5,2" d="M154.65,-69.67C187.36,-72.45 225.49,-75.77 260,-79 265.76,-79.54 271.76,-80.12 277.77,-80.71"/>
<polygon fill="#9a32cd" stroke="#9a32cd" points="154.94,-66.18 144.68,-68.83 154.35,-73.16 154.94,-66.18"/>
</a>
</g>
<text text-anchor="middle" x="212" y="-82" font-family="Helvetica,sans-Serif" font-size="10.00" fill="grey"> m_prescaler</text>
</g>
<!-- Node5 -->
<g id="Node000005" class="node">
<title>Node5</title>
<g id="a_Node000005"><a xlink:href="classzero__mate_1_1utils_1_1CLogging__System.html" target="_top" xlink:title="This class defines a logging system that is used throughout the project.">
<polygon fill="white" stroke="#666666" points="146,-30 0,-30 0,0 146,0 146,-30"/>
<text text-anchor="start" x="8" y="-18" font-family="Helvetica,sans-Serif" font-size="10.00">zero_mate::utils::CLogging</text>
<text text-anchor="middle" x="73" y="-7" font-family="Helvetica,sans-Serif" font-size="10.00">_System</text>
</a>
</g>
</g>
<!-- Node5&#45;&gt;Node1 -->
<g id="edge4_Node000001_Node000005" class="edge">
<title>Node5&#45;&gt;Node1</title>
<g id="a_edge4_Node000001_Node000005"><a xlink:title=" ">
<path fill="none" stroke="#9a32cd" stroke-dasharray="5,2" d="M156.24,-29.5C188.87,-36.08 226.53,-44.71 260,-55 275.28,-59.7 291.72,-66.13 305.63,-71.99"/>
<polygon fill="#9a32cd" stroke="#9a32cd" points="156.78,-26.04 146.29,-27.53 155.42,-32.9 156.78,-26.04"/>
</a>
</g>
<text text-anchor="middle" x="212" y="-58" font-family="Helvetica,sans-Serif" font-size="10.00" fill="grey"> m_logging_system</text>
</g>
</g>
</svg>
