<?xml version="1.0" encoding="UTF-8" standalone="no"?>
<!DOCTYPE svg PUBLIC "-//W3C//DTD SVG 1.1//EN"
 "http://www.w3.org/Graphics/SVG/1.1/DTD/svg11.dtd">
<!-- Generated by graphviz version 2.43.0 (0)
 -->
<!-- Title: zero_mate::arm1176jzf_s::CCPU_Core::Calculate_Base_Address Pages: 1 -->
<svg width="316pt" height="134pt"
 viewBox="0.00 0.00 316.00 134.00" xmlns="http://www.w3.org/2000/svg" xmlns:xlink="http://www.w3.org/1999/xlink">
<g id="graph0" class="graph" transform="scale(1 1) rotate(0) translate(4 130)">
<title>zero_mate::arm1176jzf_s::CCPU_Core::Calculate_Base_Address</title>
<!-- Node1 -->
<g id="Node000001" class="node">
<title>Node1</title>
<g id="a_Node000001"><a xlink:title="Calculates the base address of a data transfer instruction.">
<polygon fill="#999999" stroke="#666666" points="308,-83.5 168,-83.5 168,-42.5 308,-42.5 308,-83.5"/>
<text text-anchor="start" x="176" y="-71.5" font-family="Helvetica,sans-Serif" font-size="10.00">zero_mate::arm1176jzf</text>
<text text-anchor="start" x="176" y="-60.5" font-family="Helvetica,sans-Serif" font-size="10.00">_s::CCPU_Core::Calculate</text>
<text text-anchor="middle" x="238" y="-49.5" font-family="Helvetica,sans-Serif" font-size="10.00">_Base_Address</text>
</a>
</g>
</g>
<!-- Node2 -->
<g id="Node000002" class="node">
<title>Node2</title>
<g id="a_Node000002"><a xlink:href="classzero__mate_1_1arm1176jzf__s_1_1CCPU__Core.html#a524d4d2622a78e1c416bf4528700bc00" target="_top" xlink:title="Executes a block data transfer instruction.">
<polygon fill="white" stroke="#666666" points="132,-126 0,-126 0,-96 132,-96 132,-126"/>
<text text-anchor="start" x="8" y="-114" font-family="Helvetica,sans-Serif" font-size="10.00">zero_mate::arm1176jzf</text>
<text text-anchor="middle" x="66" y="-103" font-family="Helvetica,sans-Serif" font-size="10.00">_s::CCPU_Core::Execute</text>
</a>
</g>
</g>
<!-- Node1&#45;&gt;Node2 -->
<g id="edge1_Node000001_Node000002" class="edge">
<title>Node1&#45;&gt;Node2</title>
<g id="a_edge1_Node000001_Node000002"><a xlink:title=" ">
<path fill="none" stroke="#63b8ff" d="M158.09,-85.28C145.24,-88.91 132.21,-92.59 120.18,-95.99"/>
<polygon fill="#63b8ff" stroke="#63b8ff" points="159.18,-88.61 167.85,-82.52 157.28,-81.87 159.18,-88.61"/>
</a>
</g>
</g>
<!-- Node3 -->
<g id="Node000003" class="node">
<title>Node3</title>
<g id="a_Node000003"><a xlink:href="classzero__mate_1_1arm1176jzf__s_1_1CCPU__Core.html#a28607032a48bea557d81eec0460f4aa6" target="_top" xlink:title="Executes an RFE instruction.">
<polygon fill="white" stroke="#666666" points="132,-78 0,-78 0,-48 132,-48 132,-78"/>
<text text-anchor="start" x="8" y="-66" font-family="Helvetica,sans-Serif" font-size="10.00">zero_mate::arm1176jzf</text>
<text text-anchor="middle" x="66" y="-55" font-family="Helvetica,sans-Serif" font-size="10.00">_s::CCPU_Core::Execute</text>
</a>
</g>
</g>
<!-- Node1&#45;&gt;Node3 -->
<g id="edge2_Node000001_Node000003" class="edge">
<title>Node1&#45;&gt;Node3</title>
<g id="a_edge2_Node000001_Node000003"><a xlink:title=" ">
<path fill="none" stroke="#63b8ff" d="M157.85,-63C149.27,-63 140.62,-63 132.24,-63"/>
<polygon fill="#63b8ff" stroke="#63b8ff" points="157.85,-66.5 167.85,-63 157.85,-59.5 157.85,-66.5"/>
</a>
</g>
</g>
<!-- Node4 -->
<g id="Node000004" class="node">
<title>Node4</title>
<g id="a_Node000004"><a xlink:href="classzero__mate_1_1arm1176jzf__s_1_1CCPU__Core.html#aa96f69190ff05fe80c310e85b4d1002c" target="_top" xlink:title="Executes an SRS instruction.">
<polygon fill="white" stroke="#666666" points="132,-30 0,-30 0,0 132,0 132,-30"/>
<text text-anchor="start" x="8" y="-18" font-family="Helvetica,sans-Serif" font-size="10.00">zero_mate::arm1176jzf</text>
<text text-anchor="middle" x="66" y="-7" font-family="Helvetica,sans-Serif" font-size="10.00">_s::CCPU_Core::Execute</text>
</a>
</g>
</g>
<!-- Node1&#45;&gt;Node4 -->
<g id="edge3_Node000001_Node000004" class="edge">
<title>Node1&#45;&gt;Node4</title>
<g id="a_edge3_Node000001_Node000004"><a xlink:title=" ">
<path fill="none" stroke="#63b8ff" d="M158.09,-40.72C145.24,-37.09 132.21,-33.41 120.18,-30.01"/>
<polygon fill="#63b8ff" stroke="#63b8ff" points="157.28,-44.13 167.85,-43.48 159.18,-37.39 157.28,-44.13"/>
</a>
</g>
</g>
</g>
</svg>
