<?xml version="1.0" encoding="UTF-8" standalone="no"?>
<!DOCTYPE svg PUBLIC "-//W3C//DTD SVG 1.1//EN"
 "http://www.w3.org/Graphics/SVG/1.1/DTD/svg11.dtd">
<!-- Generated by graphviz version 2.43.0 (0)
 -->
<!-- Title: zero_mate::peripheral::CARM_Timer::CARM_Timer Pages: 1 -->
<svg width="502pt" height="98pt"
 viewBox="0.00 0.00 502.00 97.50" xmlns="http://www.w3.org/2000/svg" xmlns:xlink="http://www.w3.org/1999/xlink">
<g id="graph0" class="graph" transform="scale(1 1) rotate(0) translate(4 93.5)">
<title>zero_mate::peripheral::CARM_Timer::CARM_Timer</title>
<!-- Node1 -->
<g id="Node000001" class="node">
<title>Node1</title>
<g id="a_Node000001"><a xlink:title="Creates an instance of the class.">
<polygon fill="#999999" stroke="#666666" points="155,-62.5 0,-62.5 0,-32.5 155,-32.5 155,-62.5"/>
<text text-anchor="start" x="8" y="-50.5" font-family="Helvetica,sans-Serif" font-size="10.00">zero_mate::peripheral</text>
<text text-anchor="middle" x="77.5" y="-39.5" font-family="Helvetica,sans-Serif" font-size="10.00">::CARM_Timer::CARM_Timer</text>
</a>
</g>
</g>
<!-- Node2 -->
<g id="Node000002" class="node">
<title>Node2</title>
<g id="a_Node000002"><a xlink:href="classzero__mate_1_1peripheral_1_1CARM__Timer.html#a98d9eb00ca1545607ed62e4051063eb7" target="_top" xlink:title="Resets/re&#45;initializes the ARM timer (IPeripheral interface).">
<polygon fill="white" stroke="#666666" points="315,-62.5 191,-62.5 191,-32.5 315,-32.5 315,-62.5"/>
<text text-anchor="start" x="199" y="-50.5" font-family="Helvetica,sans-Serif" font-size="10.00">zero_mate::peripheral</text>
<text text-anchor="middle" x="253" y="-39.5" font-family="Helvetica,sans-Serif" font-size="10.00">::CARM_Timer::Reset</text>
</a>
</g>
</g>
<!-- Node1&#45;&gt;Node2 -->
<g id="edge1_Node000001_Node000002" class="edge">
<title>Node1&#45;&gt;Node2</title>
<g id="a_edge1_Node000001_Node000002"><a xlink:title=" ">
<path fill="none" stroke="#63b8ff" d="M155.1,-47.5C163.62,-47.5 172.27,-47.5 180.72,-47.5"/>
<polygon fill="#63b8ff" stroke="#63b8ff" points="180.91,-51 190.91,-47.5 180.91,-44 180.91,-51"/>
</a>
</g>
</g>
<!-- Node3 -->
<g id="Node000003" class="node">
<title>Node3</title>
<g id="a_Node000003"><a xlink:href="classzero__mate_1_1peripheral_1_1CARM__Timer.html#a8aa88bde21b52e4ae5132f8e2a5fb73a" target="_top" xlink:title="Returns the current content of a register.">
<polygon fill="white" stroke="#666666" points="489,-89.5 356,-89.5 356,-59.5 489,-59.5 489,-89.5"/>
<text text-anchor="start" x="364" y="-77.5" font-family="Helvetica,sans-Serif" font-size="10.00">zero_mate::peripheral</text>
<text text-anchor="middle" x="422.5" y="-66.5" font-family="Helvetica,sans-Serif" font-size="10.00">::CARM_Timer::Get_Reg</text>
</a>
</g>
</g>
<!-- Node2&#45;&gt;Node3 -->
<g id="edge2_Node000002_Node000003" class="edge">
<title>Node2&#45;&gt;Node3</title>
<g id="a_edge2_Node000002_Node000003"><a xlink:title=" ">
<path fill="none" stroke="#63b8ff" d="M315.42,-57.4C325.29,-58.99 335.61,-60.66 345.78,-62.29"/>
<polygon fill="#63b8ff" stroke="#63b8ff" points="345.43,-65.78 355.86,-63.92 346.55,-58.87 345.43,-65.78"/>
</a>
</g>
</g>
<!-- Node4 -->
<g id="Node000004" class="node">
<title>Node4</title>
<g id="a_Node000004"><a xlink:href="classzero__mate_1_1peripheral_1_1CARM__Timer_1_1CPrescaler.html#a4d0394597d809b327d0fc83ad8dfb900" target="_top" xlink:title="Resets the prescaler.">
<polygon fill="white" stroke="#666666" points="494,-41 351,-41 351,0 494,0 494,-41"/>
<text text-anchor="start" x="359" y="-29" font-family="Helvetica,sans-Serif" font-size="10.00">zero_mate::peripheral</text>
<text text-anchor="start" x="359" y="-18" font-family="Helvetica,sans-Serif" font-size="10.00">::CARM_Timer::CPrescaler</text>
<text text-anchor="middle" x="422.5" y="-7" font-family="Helvetica,sans-Serif" font-size="10.00">::Reset</text>
</a>
</g>
</g>
<!-- Node2&#45;&gt;Node4 -->
<g id="edge3_Node000002_Node000004" class="edge">
<title>Node2&#45;&gt;Node4</title>
<g id="a_edge3_Node000002_Node000004"><a xlink:title=" ">
<path fill="none" stroke="#63b8ff" d="M315.42,-37.6C323.67,-36.27 332.24,-34.89 340.77,-33.51"/>
<polygon fill="#63b8ff" stroke="#63b8ff" points="341.42,-36.95 350.73,-31.91 340.3,-30.04 341.42,-36.95"/>
</a>
</g>
</g>
</g>
</svg>
