<?xml version="1.0" encoding="UTF-8" standalone="no"?>
<!DOCTYPE svg PUBLIC "-//W3C//DTD SVG 1.1//EN"
 "http://www.w3.org/Graphics/SVG/1.1/DTD/svg11.dtd">
<!-- Generated by graphviz version 2.43.0 (0)
 -->
<!-- Title: zero_mate::gui::CCP15_Window::Render Pages: 1 -->
<svg width="662pt" height="285pt"
 viewBox="0.00 0.00 662.00 285.00" xmlns="http://www.w3.org/2000/svg" xmlns:xlink="http://www.w3.org/1999/xlink">
<g id="graph0" class="graph" transform="scale(1 1) rotate(0) translate(4 281)">
<title>zero_mate::gui::CCP15_Window::Render</title>
<!-- Node1 -->
<g id="Node000001" class="node">
<title>Node1</title>
<g id="a_Node000001"><a xlink:title="Renders the window (IGUI_Window interface).">
<polygon fill="#999999" stroke="#666666" points="127,-153.5 0,-153.5 0,-123.5 127,-123.5 127,-153.5"/>
<text text-anchor="start" x="8" y="-141.5" font-family="Helvetica,sans-Serif" font-size="10.00">zero_mate::gui::CCP15</text>
<text text-anchor="middle" x="63.5" y="-130.5" font-family="Helvetica,sans-Serif" font-size="10.00">_Window::Render</text>
</a>
</g>
</g>
<!-- Node2 -->
<g id="Node000002" class="node">
<title>Node2</title>
<g id="a_Node000002"><a xlink:href="classzero__mate_1_1gui_1_1CCP15__Window.html#a0d41be7f469e6b9493815c5cd094939a" target="_top" xlink:title="Renders tabs representing the primary registers of CP15.">
<polygon fill="white" stroke="#666666" points="307,-153.5 163,-153.5 163,-123.5 307,-123.5 307,-153.5"/>
<text text-anchor="start" x="171" y="-141.5" font-family="Helvetica,sans-Serif" font-size="10.00">zero_mate::gui::CCP15</text>
<text text-anchor="middle" x="235" y="-130.5" font-family="Helvetica,sans-Serif" font-size="10.00">_Window::Render_Tab_Bar</text>
</a>
</g>
</g>
<!-- Node1&#45;&gt;Node2 -->
<g id="edge1_Node000001_Node000002" class="edge">
<title>Node1&#45;&gt;Node2</title>
<g id="a_edge1_Node000001_Node000002"><a xlink:title=" ">
<path fill="none" stroke="#63b8ff" d="M127.13,-138.5C135.47,-138.5 144.12,-138.5 152.71,-138.5"/>
<polygon fill="#63b8ff" stroke="#63b8ff" points="152.76,-142 162.76,-138.5 152.76,-135 152.76,-142"/>
</a>
</g>
</g>
<!-- Node3 -->
<g id="Node000003" class="node">
<title>Node3</title>
<g id="a_Node000003"><a xlink:href="classzero__mate_1_1gui_1_1CCP15__Window.html#a27304ba7d10bb901f8fe474ccb61f57f" target="_top" xlink:title="Renders registers that fall under primary register C1.">
<polygon fill="white" stroke="#666666" points="487,-277 343,-277 343,-236 487,-236 487,-277"/>
<text text-anchor="start" x="351" y="-265" font-family="Helvetica,sans-Serif" font-size="10.00">zero_mate::gui::CCP15</text>
<text text-anchor="start" x="351" y="-254" font-family="Helvetica,sans-Serif" font-size="10.00">_Window::Render_Primary</text>
<text text-anchor="middle" x="415" y="-243" font-family="Helvetica,sans-Serif" font-size="10.00">_Register_C1</text>
</a>
</g>
</g>
<!-- Node2&#45;&gt;Node3 -->
<g id="edge2_Node000002_Node000003" class="edge">
<title>Node2&#45;&gt;Node3</title>
<g id="a_edge2_Node000002_Node000003"><a xlink:title=" ">
<path fill="none" stroke="#63b8ff" d="M251.15,-153.71C270.9,-172.9 307.16,-205.98 343,-227.5 345.2,-228.82 347.47,-230.1 349.78,-231.35"/>
<polygon fill="#63b8ff" stroke="#63b8ff" points="348.4,-234.58 358.9,-235.98 351.57,-228.34 348.4,-234.58"/>
</a>
</g>
</g>
<!-- Node5 -->
<g id="Node000005" class="node">
<title>Node5</title>
<g id="a_Node000005"><a xlink:href="classzero__mate_1_1gui_1_1CCP15__Window.html#ad49346264b18c4727c832ff376dba2a9" target="_top" xlink:title="Renders registers that fall under primary register C2.">
<polygon fill="white" stroke="#666666" points="487,-218 343,-218 343,-177 487,-177 487,-218"/>
<text text-anchor="start" x="351" y="-206" font-family="Helvetica,sans-Serif" font-size="10.00">zero_mate::gui::CCP15</text>
<text text-anchor="start" x="351" y="-195" font-family="Helvetica,sans-Serif" font-size="10.00">_Window::Render_Primary</text>
<text text-anchor="middle" x="415" y="-184" font-family="Helvetica,sans-Serif" font-size="10.00">_Register_C2</text>
</a>
</g>
</g>
<!-- Node2&#45;&gt;Node5 -->
<g id="edge4_Node000002_Node000005" class="edge">
<title>Node2&#45;&gt;Node5</title>
<g id="a_edge4_Node000002_Node000005"><a xlink:title=" ">
<path fill="none" stroke="#63b8ff" d="M281.38,-153.54C299.87,-159.67 321.71,-166.91 342.26,-173.72"/>
<polygon fill="#63b8ff" stroke="#63b8ff" points="341.32,-177.1 351.92,-176.92 343.53,-170.45 341.32,-177.1"/>
</a>
</g>
</g>
<!-- Node6 -->
<g id="Node000006" class="node">
<title>Node6</title>
<g id="a_Node000006"><a xlink:href="classzero__mate_1_1gui_1_1CCP15__Window.html#ae2d74a31c2235e1756f08800427f15a6" target="_top" xlink:title="Renders registers that fall under primary register C3.">
<polygon fill="white" stroke="#666666" points="487,-159 343,-159 343,-118 487,-118 487,-159"/>
<text text-anchor="start" x="351" y="-147" font-family="Helvetica,sans-Serif" font-size="10.00">zero_mate::gui::CCP15</text>
<text text-anchor="start" x="351" y="-136" font-family="Helvetica,sans-Serif" font-size="10.00">_Window::Render_Primary</text>
<text text-anchor="middle" x="415" y="-125" font-family="Helvetica,sans-Serif" font-size="10.00">_Register_C3</text>
</a>
</g>
</g>
<!-- Node2&#45;&gt;Node6 -->
<g id="edge6_Node000002_Node000006" class="edge">
<title>Node2&#45;&gt;Node6</title>
<g id="a_edge6_Node000002_Node000006"><a xlink:title=" ">
<path fill="none" stroke="#63b8ff" d="M307.12,-138.5C315.61,-138.5 324.33,-138.5 332.94,-138.5"/>
<polygon fill="#63b8ff" stroke="#63b8ff" points="333,-142 343,-138.5 333,-135 333,-142"/>
</a>
</g>
</g>
<!-- Node7 -->
<g id="Node000007" class="node">
<title>Node7</title>
<g id="a_Node000007"><a xlink:href="classzero__mate_1_1gui_1_1CCP15__Window.html#af6e61d67b6bbe3da5f321753d1891843" target="_top" xlink:title="Renders registers that fall under primary register C7.">
<polygon fill="white" stroke="#666666" points="487,-100 343,-100 343,-59 487,-59 487,-100"/>
<text text-anchor="start" x="351" y="-88" font-family="Helvetica,sans-Serif" font-size="10.00">zero_mate::gui::CCP15</text>
<text text-anchor="start" x="351" y="-77" font-family="Helvetica,sans-Serif" font-size="10.00">_Window::Render_Primary</text>
<text text-anchor="middle" x="415" y="-66" font-family="Helvetica,sans-Serif" font-size="10.00">_Register_C7</text>
</a>
</g>
</g>
<!-- Node2&#45;&gt;Node7 -->
<g id="edge8_Node000002_Node000007" class="edge">
<title>Node2&#45;&gt;Node7</title>
<g id="a_edge8_Node000002_Node000007"><a xlink:title=" ">
<path fill="none" stroke="#63b8ff" d="M281.38,-123.46C299.87,-117.33 321.71,-110.09 342.26,-103.28"/>
<polygon fill="#63b8ff" stroke="#63b8ff" points="343.53,-106.55 351.92,-100.08 341.32,-99.9 343.53,-106.55"/>
</a>
</g>
</g>
<!-- Node8 -->
<g id="Node000008" class="node">
<title>Node8</title>
<g id="a_Node000008"><a xlink:href="classzero__mate_1_1gui_1_1CCP15__Window.html#a5a84763e3c17b33b3a13e66ea82d22f7" target="_top" xlink:title="Renders registers that fall under primary register C8.">
<polygon fill="white" stroke="#666666" points="487,-41 343,-41 343,0 487,0 487,-41"/>
<text text-anchor="start" x="351" y="-29" font-family="Helvetica,sans-Serif" font-size="10.00">zero_mate::gui::CCP15</text>
<text text-anchor="start" x="351" y="-18" font-family="Helvetica,sans-Serif" font-size="10.00">_Window::Render_Primary</text>
<text text-anchor="middle" x="415" y="-7" font-family="Helvetica,sans-Serif" font-size="10.00">_Register_C8</text>
</a>
</g>
</g>
<!-- Node2&#45;&gt;Node8 -->
<g id="edge10_Node000002_Node000008" class="edge">
<title>Node2&#45;&gt;Node8</title>
<g id="a_edge10_Node000002_Node000008"><a xlink:title=" ">
<path fill="none" stroke="#63b8ff" d="M251.57,-123.21C271.47,-104.28 307.6,-71.91 343,-50.5 345.66,-48.89 348.43,-47.32 351.25,-45.81"/>
<polygon fill="#63b8ff" stroke="#63b8ff" points="353.1,-48.79 360.44,-41.15 349.94,-42.55 353.1,-48.79"/>
</a>
</g>
</g>
<!-- Node4 -->
<g id="Node000004" class="node">
<title>Node4</title>
<g id="a_Node000004"><a xlink:href="classzero__mate_1_1gui_1_1CCP15__Window.html#a71ccd1e5a97f92d1032a0ede67af6a79" target="_top" xlink:title="Renders a table (register values).">
<polygon fill="white" stroke="#666666" points="654,-153.5 523,-153.5 523,-123.5 654,-123.5 654,-153.5"/>
<text text-anchor="start" x="531" y="-141.5" font-family="Helvetica,sans-Serif" font-size="10.00">zero_mate::gui::CCP15</text>
<text text-anchor="middle" x="588.5" y="-130.5" font-family="Helvetica,sans-Serif" font-size="10.00">_Window::Render_Table</text>
</a>
</g>
</g>
<!-- Node3&#45;&gt;Node4 -->
<g id="edge3_Node000003_Node000004" class="edge">
<title>Node3&#45;&gt;Node4</title>
<g id="a_edge3_Node000003_Node000004"><a xlink:title=" ">
<path fill="none" stroke="#63b8ff" d="M471.57,-235.96C476.91,-233.35 482.14,-230.52 487,-227.5 517.23,-208.7 547.16,-180.66 566.39,-161.09"/>
<polygon fill="#63b8ff" stroke="#63b8ff" points="569.02,-163.41 573.46,-153.79 563.99,-158.54 569.02,-163.41"/>
</a>
</g>
</g>
<!-- Node5&#45;&gt;Node4 -->
<g id="edge5_Node000005_Node000004" class="edge">
<title>Node5&#45;&gt;Node4</title>
<g id="a_edge5_Node000005_Node000004"><a xlink:title=" ">
<path fill="none" stroke="#63b8ff" d="M475.98,-176.86C494.9,-170.36 515.65,-163.22 534.08,-156.88"/>
<polygon fill="#63b8ff" stroke="#63b8ff" points="535.44,-160.11 543.76,-153.55 533.17,-153.49 535.44,-160.11"/>
</a>
</g>
</g>
<!-- Node6&#45;&gt;Node4 -->
<g id="edge7_Node000006_Node000004" class="edge">
<title>Node6&#45;&gt;Node4</title>
<g id="a_edge7_Node000006_Node000004"><a xlink:title=" ">
<path fill="none" stroke="#63b8ff" d="M487.24,-138.5C495.62,-138.5 504.18,-138.5 512.6,-138.5"/>
<polygon fill="#63b8ff" stroke="#63b8ff" points="512.79,-142 522.79,-138.5 512.79,-135 512.79,-142"/>
</a>
</g>
</g>
<!-- Node7&#45;&gt;Node4 -->
<g id="edge9_Node000007_Node000004" class="edge">
<title>Node7&#45;&gt;Node4</title>
<g id="a_edge9_Node000007_Node000004"><a xlink:title=" ">
<path fill="none" stroke="#63b8ff" d="M475.98,-100.14C494.9,-106.64 515.65,-113.78 534.08,-120.12"/>
<polygon fill="#63b8ff" stroke="#63b8ff" points="533.17,-123.51 543.76,-123.45 535.44,-116.89 533.17,-123.51"/>
</a>
</g>
</g>
<!-- Node8&#45;&gt;Node4 -->
<g id="edge11_Node000008_Node000004" class="edge">
<title>Node8&#45;&gt;Node4</title>
<g id="a_edge11_Node000008_Node000004"><a xlink:title=" ">
<path fill="none" stroke="#63b8ff" d="M470.04,-41.16C475.9,-44.04 481.67,-47.16 487,-50.5 517.02,-69.3 546.99,-96.99 566.29,-116.27"/>
<polygon fill="#63b8ff" stroke="#63b8ff" points="563.87,-118.8 573.38,-123.46 568.85,-113.88 563.87,-118.8"/>
</a>
</g>
</g>
</g>
</svg>
