<?xml version="1.0" encoding="UTF-8" standalone="no"?>
<!DOCTYPE svg PUBLIC "-//W3C//DTD SVG 1.1//EN"
 "http://www.w3.org/Graphics/SVG/1.1/DTD/svg11.dtd">
<!-- Generated by graphviz version 2.43.0 (0)
 -->
<!-- Title: zero_mate::coprocessor::cp10::CCP10::Execute Pages: 1 -->
<svg width="329pt" height="134pt"
 viewBox="0.00 0.00 329.00 134.00" xmlns="http://www.w3.org/2000/svg" xmlns:xlink="http://www.w3.org/1999/xlink">
<g id="graph0" class="graph" transform="scale(1 1) rotate(0) translate(4 130)">
<title>zero_mate::coprocessor::cp10::CCP10::Execute</title>
<!-- Node1 -->
<g id="Node000001" class="node">
<title>Node1</title>
<g id="a_Node000001"><a xlink:title="Executes a VMRS floating point instruction.">
<polygon fill="#999999" stroke="#666666" points="133,-78 0,-78 0,-48 133,-48 133,-78"/>
<text text-anchor="start" x="8" y="-66" font-family="Helvetica,sans-Serif" font-size="10.00">zero_mate::coprocessor</text>
<text text-anchor="middle" x="66.5" y="-55" font-family="Helvetica,sans-Serif" font-size="10.00">::cp10::CCP10::Execute</text>
</a>
</g>
</g>
<!-- Node2 -->
<g id="Node000002" class="node">
<title>Node2</title>
<g id="a_Node000002"><a xlink:href="classzero__mate_1_1coprocessor_1_1cp10_1_1CFPSCR.html#a722cefceb80f479279b77151378f28ed" target="_top" xlink:title="Returns the value of the register.">
<polygon fill="white" stroke="#666666" points="318,-126 172,-126 172,-96 318,-96 318,-126"/>
<text text-anchor="start" x="180" y="-114" font-family="Helvetica,sans-Serif" font-size="10.00">zero_mate::coprocessor</text>
<text text-anchor="middle" x="245" y="-103" font-family="Helvetica,sans-Serif" font-size="10.00">::cp10::CFPSCR::Get_Value</text>
</a>
</g>
</g>
<!-- Node1&#45;&gt;Node2 -->
<g id="edge1_Node000001_Node000002" class="edge">
<title>Node1&#45;&gt;Node2</title>
<g id="a_edge1_Node000001_Node000002"><a xlink:title=" ">
<path fill="none" stroke="#63b8ff" d="M122.86,-78.06C140.69,-82.9 160.6,-88.32 179.05,-93.34"/>
<polygon fill="#63b8ff" stroke="#63b8ff" points="178.27,-96.75 188.84,-96 180.1,-90 178.27,-96.75"/>
</a>
</g>
</g>
<!-- Node3 -->
<g id="Node000003" class="node">
<title>Node3</title>
<g id="a_Node000003"><a xlink:href="classzero__mate_1_1coprocessor_1_1cp10_1_1CFPSCR.html#abeebabe5395572a30e15aff234571c84" target="_top" xlink:title="Checks whether a given flag is set or not.">
<polygon fill="white" stroke="#666666" points="321,-78 169,-78 169,-48 321,-48 321,-78"/>
<text text-anchor="start" x="177" y="-66" font-family="Helvetica,sans-Serif" font-size="10.00">zero_mate::coprocessor</text>
<text text-anchor="middle" x="245" y="-55" font-family="Helvetica,sans-Serif" font-size="10.00">::cp10::CFPSCR::Is_Flag_Set</text>
</a>
</g>
</g>
<!-- Node1&#45;&gt;Node3 -->
<g id="edge2_Node000001_Node000003" class="edge">
<title>Node1&#45;&gt;Node3</title>
<g id="a_edge2_Node000001_Node000003"><a xlink:title=" ">
<path fill="none" stroke="#63b8ff" d="M133.22,-63C141.53,-63 150.13,-63 158.69,-63"/>
<polygon fill="#63b8ff" stroke="#63b8ff" points="158.71,-66.5 168.71,-63 158.71,-59.5 158.71,-66.5"/>
</a>
</g>
</g>
<!-- Node4 -->
<g id="Node000004" class="node">
<title>Node4</title>
<g id="a_Node000004"><a xlink:href="classzero__mate_1_1arm1176jzf__s_1_1CCPU__Context.html#a984bace2773aca71cf04701aa0ce9c54" target="_top" xlink:title="Sets/resets a flag in the CPSR register of the current CPU mode.">
<polygon fill="white" stroke="#666666" points="321,-30 169,-30 169,0 321,0 321,-30"/>
<text text-anchor="start" x="177" y="-18" font-family="Helvetica,sans-Serif" font-size="10.00">zero_mate::arm1176jzf</text>
<text text-anchor="middle" x="245" y="-7" font-family="Helvetica,sans-Serif" font-size="10.00">_s::CCPU_Context::Set_Flag</text>
</a>
</g>
</g>
<!-- Node1&#45;&gt;Node4 -->
<g id="edge3_Node000001_Node000004" class="edge">
<title>Node1&#45;&gt;Node4</title>
<g id="a_edge3_Node000001_Node000004"><a xlink:title=" ">
<path fill="none" stroke="#63b8ff" d="M122.86,-47.94C140.69,-43.1 160.6,-37.68 179.05,-32.66"/>
<polygon fill="#63b8ff" stroke="#63b8ff" points="180.1,-36 188.84,-30 178.27,-29.25 180.1,-36"/>
</a>
</g>
</g>
</g>
</svg>
