<?xml version="1.0" encoding="UTF-8" standalone="no"?>
<!DOCTYPE svg PUBLIC "-//W3C//DTD SVG 1.1//EN"
 "http://www.w3.org/Graphics/SVG/1.1/DTD/svg11.dtd">
<!-- Generated by graphviz version 2.43.0 (0)
 -->
<!-- Title: zero_mate::arm1176jzf_s::CCPU_Core::Execute Pages: 1 -->
<svg width="1072pt" height="272pt"
 viewBox="0.00 0.00 1072.00 271.50" xmlns="http://www.w3.org/2000/svg" xmlns:xlink="http://www.w3.org/1999/xlink">
<g id="graph0" class="graph" transform="scale(1 1) rotate(0) translate(4 267.5)">
<title>zero_mate::arm1176jzf_s::CCPU_Core::Execute</title>
<!-- Node1 -->
<g id="Node000001" class="node">
<title>Node1</title>
<g id="a_Node000001"><a xlink:title="Executes an SRS instruction.">
<polygon fill="#999999" stroke="#666666" points="132,-152 0,-152 0,-122 132,-122 132,-152"/>
<text text-anchor="start" x="8" y="-140" font-family="Helvetica,sans-Serif" font-size="10.00">zero_mate::arm1176jzf</text>
<text text-anchor="middle" x="66" y="-129" font-family="Helvetica,sans-Serif" font-size="10.00">_s::CCPU_Core::Execute</text>
</a>
</g>
</g>
<!-- Node2 -->
<g id="Node000002" class="node">
<title>Node2</title>
<g id="a_Node000002"><a xlink:href="classzero__mate_1_1arm1176jzf__s_1_1CCPU__Core.html#a65fef8be920aaccdf3cfea5b0e3d0cee" target="_top" xlink:title="Calculates the base address of a data transfer instruction.">
<polygon fill="white" stroke="#666666" points="316.5,-263.5 176.5,-263.5 176.5,-222.5 316.5,-222.5 316.5,-263.5"/>
<text text-anchor="start" x="184.5" y="-251.5" font-family="Helvetica,sans-Serif" font-size="10.00">zero_mate::arm1176jzf</text>
<text text-anchor="start" x="184.5" y="-240.5" font-family="Helvetica,sans-Serif" font-size="10.00">_s::CCPU_Core::Calculate</text>
<text text-anchor="middle" x="246.5" y="-229.5" font-family="Helvetica,sans-Serif" font-size="10.00">_Base_Address</text>
</a>
</g>
</g>
<!-- Node1&#45;&gt;Node2 -->
<g id="edge1_Node000001_Node000002" class="edge">
<title>Node1&#45;&gt;Node2</title>
<g id="a_edge1_Node000001_Node000002"><a xlink:title=" ">
<path fill="none" stroke="#63b8ff" d="M86.02,-152.01C105.81,-167.23 138.03,-190.9 168,-208 173.94,-211.39 180.28,-214.7 186.66,-217.85"/>
<polygon fill="#63b8ff" stroke="#63b8ff" points="185.49,-221.17 196.02,-222.34 188.52,-214.86 185.49,-221.17"/>
</a>
</g>
</g>
<!-- Node3 -->
<g id="Node000003" class="node">
<title>Node3</title>
<g id="a_Node000003"><a xlink:href="classzero__mate_1_1arm1176jzf__s_1_1CCPU__Context.html#a22efcb34f3c1bd9f46f1f75771103ef9" target="_top" xlink:title="Returns a const reference to a register of a particular CPU mode.">
<polygon fill="white" stroke="#666666" points="494.5,-244.5 364.5,-244.5 364.5,-203.5 494.5,-203.5 494.5,-244.5"/>
<text text-anchor="start" x="372.5" y="-232.5" font-family="Helvetica,sans-Serif" font-size="10.00">zero_mate::arm1176jzf</text>
<text text-anchor="start" x="372.5" y="-221.5" font-family="Helvetica,sans-Serif" font-size="10.00">_s::CCPU_Context::Get</text>
<text text-anchor="middle" x="429.5" y="-210.5" font-family="Helvetica,sans-Serif" font-size="10.00">_Register</text>
</a>
</g>
</g>
<!-- Node1&#45;&gt;Node3 -->
<g id="edge9_Node000001_Node000003" class="edge">
<title>Node1&#45;&gt;Node3</title>
<g id="a_edge9_Node000001_Node000003"><a xlink:title=" ">
<path fill="none" stroke="#63b8ff" d="M109.44,-152.03C127.37,-158.08 148.57,-164.83 168,-170 230.27,-186.57 302.03,-201.12 354.45,-210.93"/>
<polygon fill="#63b8ff" stroke="#63b8ff" points="353.86,-214.38 364.34,-212.76 355.14,-207.49 353.86,-214.38"/>
</a>
</g>
</g>
<!-- Node4 -->
<g id="Node000004" class="node">
<title>Node4</title>
<g id="a_Node000004"><a xlink:href="classzero__mate_1_1utils_1_1CLogging__System.html#a57ed77e1a5cf822cea532cc5e05c3f60" target="_top" xlink:title="Logs an error message via all registered loggers.">
<polygon fill="white" stroke="#666666" points="680,-120 534,-120 534,-90 680,-90 680,-120"/>
<text text-anchor="start" x="542" y="-108" font-family="Helvetica,sans-Serif" font-size="10.00">zero_mate::utils::CLogging</text>
<text text-anchor="middle" x="607" y="-97" font-family="Helvetica,sans-Serif" font-size="10.00">_System::Error</text>
</a>
</g>
</g>
<!-- Node1&#45;&gt;Node4 -->
<g id="edge3_Node000001_Node000004" class="edge">
<title>Node1&#45;&gt;Node4</title>
<g id="a_edge3_Node000001_Node000004"><a xlink:title=" ">
<path fill="none" stroke="#63b8ff" d="M132.26,-139.83C216.93,-142.58 369.07,-144.37 498,-129 511.15,-127.43 525.04,-124.97 538.33,-122.21"/>
<polygon fill="#63b8ff" stroke="#63b8ff" points="539.32,-125.58 548.36,-120.05 537.84,-118.73 539.32,-125.58"/>
</a>
</g>
</g>
<!-- Node9 -->
<g id="Node000009" class="node">
<title>Node9</title>
<g id="a_Node000009"><a xlink:href="classzero__mate_1_1arm1176jzf__s_1_1CCPU__Context.html#aa740f9219bb413d707ac72f373e60d3a" target="_top" xlink:title="Returns the current mode of the CPU.">
<polygon fill="white" stroke="#666666" points="494.5,-119.5 364.5,-119.5 364.5,-78.5 494.5,-78.5 494.5,-119.5"/>
<text text-anchor="start" x="372.5" y="-107.5" font-family="Helvetica,sans-Serif" font-size="10.00">zero_mate::arm1176jzf</text>
<text text-anchor="start" x="372.5" y="-96.5" font-family="Helvetica,sans-Serif" font-size="10.00">_s::CCPU_Context::Get</text>
<text text-anchor="middle" x="429.5" y="-85.5" font-family="Helvetica,sans-Serif" font-size="10.00">_CPU_Mode</text>
</a>
</g>
</g>
<!-- Node1&#45;&gt;Node9 -->
<g id="edge8_Node000001_Node000009" class="edge">
<title>Node1&#45;&gt;Node9</title>
<g id="a_edge8_Node000001_Node000009"><a xlink:title=" ">
<path fill="none" stroke="#63b8ff" d="M132.05,-130.16C194.47,-123.6 288.65,-113.7 354.04,-106.83"/>
<polygon fill="#63b8ff" stroke="#63b8ff" points="354.7,-110.28 364.28,-105.75 353.97,-103.32 354.7,-110.28"/>
</a>
</g>
</g>
<!-- Node10 -->
<g id="Node000010" class="node">
<title>Node10</title>
<g id="a_Node000010"><a xlink:href="classzero__mate_1_1arm1176jzf__s_1_1CCPU__Context.html#ae00681efcbc4adfcfde001a67c5baeca" target="_top" xlink:title="Returns the value of the SPSR register of the current CPU mode.">
<polygon fill="white" stroke="#666666" points="325,-30 168,-30 168,0 325,0 325,-30"/>
<text text-anchor="start" x="176" y="-18" font-family="Helvetica,sans-Serif" font-size="10.00">zero_mate::arm1176jzf</text>
<text text-anchor="middle" x="246.5" y="-7" font-family="Helvetica,sans-Serif" font-size="10.00">_s::CCPU_Context::Get_SPSR</text>
</a>
</g>
</g>
<!-- Node1&#45;&gt;Node10 -->
<g id="edge10_Node000001_Node000010" class="edge">
<title>Node1&#45;&gt;Node10</title>
<g id="a_edge10_Node000001_Node000010"><a xlink:title=" ">
<path fill="none" stroke="#63b8ff" d="M78.71,-121.79C95.99,-100.33 130.38,-61.31 168,-39 170.85,-37.31 173.82,-35.73 176.88,-34.25"/>
<polygon fill="#63b8ff" stroke="#63b8ff" points="178.52,-37.35 186.26,-30.12 175.7,-30.95 178.52,-37.35"/>
</a>
</g>
</g>
<!-- Node13 -->
<g id="Node000013" class="node">
<title>Node13</title>
<g id="a_Node000013"><a xlink:href="classzero__mate_1_1arm1176jzf__s_1_1CCPU__Context.html#a573470217091c27cf30f1411ea453e5d" target="_top" xlink:title="Checks if the CPU is in a privileged mode.">
<polygon fill="white" stroke="#666666" points="311.5,-89.5 181.5,-89.5 181.5,-48.5 311.5,-48.5 311.5,-89.5"/>
<text text-anchor="start" x="189.5" y="-77.5" font-family="Helvetica,sans-Serif" font-size="10.00">zero_mate::arm1176jzf</text>
<text text-anchor="start" x="189.5" y="-66.5" font-family="Helvetica,sans-Serif" font-size="10.00">_s::CCPU_Context::Is</text>
<text text-anchor="middle" x="246.5" y="-55.5" font-family="Helvetica,sans-Serif" font-size="10.00">_In_Privileged_Mode</text>
</a>
</g>
</g>
<!-- Node1&#45;&gt;Node13 -->
<g id="edge14_Node000001_Node000013" class="edge">
<title>Node1&#45;&gt;Node13</title>
<g id="a_edge14_Node000001_Node000013"><a xlink:title=" ">
<path fill="none" stroke="#63b8ff" d="M106.61,-121.91C128.75,-113.48 156.85,-102.77 181.97,-93.2"/>
<polygon fill="#63b8ff" stroke="#63b8ff" points="183.34,-96.42 191.44,-89.59 180.85,-89.88 183.34,-96.42"/>
</a>
</g>
</g>
<!-- Node2&#45;&gt;Node3 -->
<g id="edge2_Node000002_Node000003" class="edge">
<title>Node2&#45;&gt;Node3</title>
<g id="a_edge2_Node000002_Node000003"><a xlink:title=" ">
<path fill="none" stroke="#63b8ff" d="M316.7,-235.74C328.94,-234.45 341.74,-233.11 354.11,-231.81"/>
<polygon fill="#63b8ff" stroke="#63b8ff" points="354.81,-235.25 364.39,-230.73 354.08,-228.29 354.81,-235.25"/>
</a>
</g>
</g>
<!-- Node5 -->
<g id="Node000005" class="node">
<title>Node5</title>
<g id="a_Node000005"><a xlink:href="classzero__mate_1_1utils_1_1CLogging__System.html#a71ed11c796553cbe8fd99773406a1060" target="_top" xlink:title="Creates a formatted message to be logged.">
<polygon fill="white" stroke="#666666" points="868,-152.5 716,-152.5 716,-111.5 868,-111.5 868,-152.5"/>
<text text-anchor="start" x="724" y="-140.5" font-family="Helvetica,sans-Serif" font-size="10.00">zero_mate::utils::CLogging</text>
<text text-anchor="start" x="724" y="-129.5" font-family="Helvetica,sans-Serif" font-size="10.00">_System::Create_Formatted</text>
<text text-anchor="middle" x="792" y="-118.5" font-family="Helvetica,sans-Serif" font-size="10.00">_Log_Msg</text>
</a>
</g>
</g>
<!-- Node4&#45;&gt;Node5 -->
<g id="edge4_Node000004_Node000005" class="edge">
<title>Node4&#45;&gt;Node5</title>
<g id="a_edge4_Node000004_Node000005"><a xlink:title=" ">
<path fill="none" stroke="#63b8ff" d="M680.06,-115.63C688.55,-116.88 697.26,-118.17 705.9,-119.44"/>
<polygon fill="#63b8ff" stroke="#63b8ff" points="705.59,-122.94 715.99,-120.93 706.61,-116.01 705.59,-122.94"/>
</a>
</g>
</g>
<!-- Node8 -->
<g id="Node000008" class="node">
<title>Node8</title>
<g id="a_Node000008"><a xlink:href="classzero__mate_1_1utils_1_1CLogging__System.html#ad371c67ef65763966ccf9291002e86f3" target="_top" xlink:title="Extract the filename from a given location within the source files.">
<polygon fill="white" stroke="#666666" points="866.5,-93 717.5,-93 717.5,-63 866.5,-63 866.5,-93"/>
<text text-anchor="start" x="725.5" y="-81" font-family="Helvetica,sans-Serif" font-size="10.00">zero_mate::utils::CLogging</text>
<text text-anchor="middle" x="792" y="-70" font-family="Helvetica,sans-Serif" font-size="10.00">_System::Extract_Filename</text>
</a>
</g>
</g>
<!-- Node4&#45;&gt;Node8 -->
<g id="edge7_Node000004_Node000008" class="edge">
<title>Node4&#45;&gt;Node8</title>
<g id="a_edge7_Node000004_Node000008"><a xlink:title=" ">
<path fill="none" stroke="#63b8ff" d="M680.06,-94.37C689.1,-93.03 698.4,-91.66 707.59,-90.31"/>
<polygon fill="#63b8ff" stroke="#63b8ff" points="708.12,-93.77 717.5,-88.84 707.1,-86.84 708.12,-93.77"/>
</a>
</g>
</g>
<!-- Node6 -->
<g id="Node000006" class="node">
<title>Node6</title>
<g id="a_Node000006"><a xlink:href="classzero__mate_1_1utils_1_1CLogging__System.html#aa70c102c805079042ffea2a6f2a5ad64" target="_top" xlink:title="Formats a given timestamp.">
<polygon fill="white" stroke="#666666" points="1064,-171 904,-171 904,-141 1064,-141 1064,-171"/>
<text text-anchor="start" x="912" y="-159" font-family="Helvetica,sans-Serif" font-size="10.00">zero_mate::utils::CLogging</text>
<text text-anchor="middle" x="984" y="-148" font-family="Helvetica,sans-Serif" font-size="10.00">_System::Format_Timestamp</text>
</a>
</g>
</g>
<!-- Node5&#45;&gt;Node6 -->
<g id="edge5_Node000005_Node000006" class="edge">
<title>Node5&#45;&gt;Node6</title>
<g id="a_edge5_Node000005_Node000006"><a xlink:title=" ">
<path fill="none" stroke="#63b8ff" d="M868.09,-141.49C876.52,-142.55 885.16,-143.64 893.74,-144.73"/>
<polygon fill="#63b8ff" stroke="#63b8ff" points="893.41,-148.21 903.77,-145.99 894.29,-141.27 893.41,-148.21"/>
</a>
</g>
</g>
<!-- Node7 -->
<g id="Node000007" class="node">
<title>Node7</title>
<g id="a_Node000007"><a xlink:href="classzero__mate_1_1utils_1_1CLogging__System.html#ae3ca637537dde05e0b9119145c840331" target="_top" xlink:title="Returns the current timestamp that will be used in a log message.">
<polygon fill="white" stroke="#666666" points="1057,-123 911,-123 911,-93 1057,-93 1057,-123"/>
<text text-anchor="start" x="919" y="-111" font-family="Helvetica,sans-Serif" font-size="10.00">zero_mate::utils::CLogging</text>
<text text-anchor="middle" x="984" y="-100" font-family="Helvetica,sans-Serif" font-size="10.00">_System::Get_Timestamp</text>
</a>
</g>
</g>
<!-- Node5&#45;&gt;Node7 -->
<g id="edge6_Node000005_Node000007" class="edge">
<title>Node5&#45;&gt;Node7</title>
<g id="a_edge6_Node000005_Node000007"><a xlink:title=" ">
<path fill="none" stroke="#63b8ff" d="M868.09,-122.51C878.89,-121.15 890.05,-119.74 900.98,-118.36"/>
<polygon fill="#63b8ff" stroke="#63b8ff" points="901.45,-121.83 910.93,-117.1 900.57,-114.88 901.45,-121.83"/>
</a>
</g>
</g>
<!-- Node11 -->
<g id="Node000011" class="node">
<title>Node11</title>
<g id="a_Node000011"><a xlink:href="classzero__mate_1_1arm1176jzf__s_1_1CCPU__Context.html#a050dada520ca82a21874045815c596a8" target="_top" xlink:title=" ">
<polygon fill="white" stroke="#666666" points="498,-44.5 361,-44.5 361,-3.5 498,-3.5 498,-44.5"/>
<text text-anchor="start" x="369" y="-32.5" font-family="Helvetica,sans-Serif" font-size="10.00">zero_mate::arm1176jzf</text>
<text text-anchor="start" x="369" y="-21.5" font-family="Helvetica,sans-Serif" font-size="10.00">_s::CCPU_Context::Verify</text>
<text text-anchor="middle" x="429.5" y="-10.5" font-family="Helvetica,sans-Serif" font-size="10.00">_SPSR_Accessibility</text>
</a>
</g>
</g>
<!-- Node10&#45;&gt;Node11 -->
<g id="edge11_Node000010_Node000011" class="edge">
<title>Node10&#45;&gt;Node11</title>
<g id="a_edge11_Node000010_Node000011"><a xlink:title=" ">
<path fill="none" stroke="#63b8ff" d="M325.05,-18.86C333.51,-19.28 342.12,-19.7 350.58,-20.13"/>
<polygon fill="#63b8ff" stroke="#63b8ff" points="350.65,-23.63 360.81,-20.63 351,-16.64 350.65,-23.63"/>
</a>
</g>
</g>
<!-- Node11&#45;&gt;Node4 -->
<g id="edge12_Node000011_Node000004" class="edge">
<title>Node11&#45;&gt;Node4</title>
<g id="a_edge12_Node000011_Node000004"><a xlink:title=" ">
<path fill="none" stroke="#63b8ff" d="M475.24,-44.65C502.58,-57.27 537.33,-73.31 564.13,-85.68"/>
<polygon fill="#63b8ff" stroke="#63b8ff" points="562.71,-88.87 573.26,-89.89 565.64,-82.52 562.71,-88.87"/>
</a>
</g>
</g>
<!-- Node12 -->
<g id="Node000012" class="node">
<title>Node12</title>
<g id="a_Node000012"><a xlink:href="classzero__mate_1_1arm1176jzf__s_1_1CCPU__Context.html#a6fc387fa0b0dd040c4e2463606d933e4" target="_top" xlink:title="Checks if the CPU mode passed in as a parameter supports the SPSR register or not.">
<polygon fill="white" stroke="#666666" points="672,-44.5 542,-44.5 542,-3.5 672,-3.5 672,-44.5"/>
<text text-anchor="start" x="550" y="-32.5" font-family="Helvetica,sans-Serif" font-size="10.00">zero_mate::arm1176jzf</text>
<text text-anchor="start" x="550" y="-21.5" font-family="Helvetica,sans-Serif" font-size="10.00">_s::CCPU_Context::Is</text>
<text text-anchor="middle" x="607" y="-10.5" font-family="Helvetica,sans-Serif" font-size="10.00">_Mode_With_No_SPSR</text>
</a>
</g>
</g>
<!-- Node11&#45;&gt;Node12 -->
<g id="edge13_Node000011_Node000012" class="edge">
<title>Node11&#45;&gt;Node12</title>
<g id="a_edge13_Node000011_Node000012"><a xlink:title=" ">
<path fill="none" stroke="#63b8ff" d="M498.1,-24C509.12,-24 520.58,-24 531.75,-24"/>
<polygon fill="#63b8ff" stroke="#63b8ff" points="531.89,-27.5 541.89,-24 531.89,-20.5 531.89,-27.5"/>
</a>
</g>
</g>
<!-- Node13&#45;&gt;Node9 -->
<g id="edge15_Node000013_Node000009" class="edge">
<title>Node13&#45;&gt;Node9</title>
<g id="a_edge15_Node000013_Node000009"><a xlink:title=" ">
<path fill="none" stroke="#63b8ff" d="M311.57,-79.62C325.32,-81.9 339.96,-84.32 354.06,-86.66"/>
<polygon fill="#63b8ff" stroke="#63b8ff" points="353.77,-90.16 364.21,-88.34 354.92,-83.26 353.77,-90.16"/>
</a>
</g>
</g>
</g>
</svg>
