<?xml version="1.0" encoding="UTF-8" standalone="no"?>
<!DOCTYPE svg PUBLIC "-//W3C//DTD SVG 1.1//EN"
 "http://www.w3.org/Graphics/SVG/1.1/DTD/svg11.dtd">
<!-- Generated by graphviz version 2.43.0 (0)
 -->
<!-- Title: zero_mate::peripheral::CMini_UART::Get_Char_Length_Value Pages: 1 -->
<svg width="844pt" height="108pt"
 viewBox="0.00 0.00 844.00 108.00" xmlns="http://www.w3.org/2000/svg" xmlns:xlink="http://www.w3.org/1999/xlink">
<g id="graph0" class="graph" transform="scale(1 1) rotate(0) translate(4 104)">
<title>zero_mate::peripheral::CMini_UART::Get_Char_Length_Value</title>
<!-- Node1 -->
<g id="Node000001" class="node">
<title>Node1</title>
<g id="a_Node000001"><a xlink:title="Returns the data length from a given enumeration.">
<polygon fill="#999999" stroke="#666666" points="836,-70 704,-70 704,-29 836,-29 836,-70"/>
<text text-anchor="start" x="712" y="-58" font-family="Helvetica,sans-Serif" font-size="10.00">zero_mate::peripheral</text>
<text text-anchor="start" x="712" y="-47" font-family="Helvetica,sans-Serif" font-size="10.00">::CMini_UART::Get_Char</text>
<text text-anchor="middle" x="770" y="-36" font-family="Helvetica,sans-Serif" font-size="10.00">_Length_Value</text>
</a>
</g>
</g>
<!-- Node2 -->
<g id="Node000002" class="node">
<title>Node2</title>
<g id="a_Node000002"><a xlink:href="classzero__mate_1_1peripheral_1_1CMini__UART.html#a50ba19a573540915346f49f559f8d595" target="_top" xlink:title="Receives another bit of the current payload (actual data).">
<polygon fill="white" stroke="#666666" points="668,-100 510,-100 510,-59 668,-59 668,-100"/>
<text text-anchor="start" x="518" y="-88" font-family="Helvetica,sans-Serif" font-size="10.00">zero_mate::peripheral</text>
<text text-anchor="start" x="518" y="-77" font-family="Helvetica,sans-Serif" font-size="10.00">::CMini_UART::UART_Receive</text>
<text text-anchor="middle" x="589" y="-66" font-family="Helvetica,sans-Serif" font-size="10.00">_Payload</text>
</a>
</g>
</g>
<!-- Node1&#45;&gt;Node2 -->
<g id="edge1_Node000001_Node000002" class="edge">
<title>Node1&#45;&gt;Node2</title>
<g id="a_edge1_Node000001_Node000002"><a xlink:title=" ">
<path fill="none" stroke="#63b8ff" d="M693.97,-62.08C685.44,-63.5 676.74,-64.96 668.17,-66.4"/>
<polygon fill="#63b8ff" stroke="#63b8ff" points="694.59,-65.52 703.87,-60.42 693.43,-58.62 694.59,-65.52"/>
</a>
</g>
</g>
<!-- Node6 -->
<g id="Node000006" class="node">
<title>Node6</title>
<g id="a_Node000006"><a xlink:href="classzero__mate_1_1peripheral_1_1CMini__UART.html#a2c1cebe25a3de866fb30387c9d3e1093" target="_top" xlink:title="Sends another bit of the current payload (actual data).">
<polygon fill="white" stroke="#666666" points="660.5,-41 517.5,-41 517.5,0 660.5,0 660.5,-41"/>
<text text-anchor="start" x="525.5" y="-29" font-family="Helvetica,sans-Serif" font-size="10.00">zero_mate::peripheral</text>
<text text-anchor="start" x="525.5" y="-18" font-family="Helvetica,sans-Serif" font-size="10.00">::CMini_UART::UART_Send</text>
<text text-anchor="middle" x="589" y="-7" font-family="Helvetica,sans-Serif" font-size="10.00">_Payload</text>
</a>
</g>
</g>
<!-- Node1&#45;&gt;Node6 -->
<g id="edge5_Node000001_Node000006" class="edge">
<title>Node1&#45;&gt;Node6</title>
<g id="a_edge5_Node000001_Node000006"><a xlink:title=" ">
<path fill="none" stroke="#63b8ff" d="M693.84,-37.32C682.8,-35.53 671.46,-33.7 660.52,-31.92"/>
<polygon fill="#63b8ff" stroke="#63b8ff" points="693.44,-40.8 703.87,-38.95 694.56,-33.89 693.44,-40.8"/>
</a>
</g>
</g>
<!-- Node3 -->
<g id="Node000003" class="node">
<title>Node3</title>
<g id="a_Node000003"><a xlink:href="classzero__mate_1_1peripheral_1_1CMini__UART.html#a6b04378225c55c43c00805cb5bdb99b3" target="_top" xlink:title="Updates the reception state machines.">
<polygon fill="white" stroke="#666666" points="474,-91.5 333,-91.5 333,-61.5 474,-61.5 474,-91.5"/>
<text text-anchor="start" x="341" y="-79.5" font-family="Helvetica,sans-Serif" font-size="10.00">zero_mate::peripheral</text>
<text text-anchor="middle" x="403.5" y="-68.5" font-family="Helvetica,sans-Serif" font-size="10.00">::CMini_UART::Update_RX</text>
</a>
</g>
</g>
<!-- Node2&#45;&gt;Node3 -->
<g id="edge2_Node000002_Node000003" class="edge">
<title>Node2&#45;&gt;Node3</title>
<g id="a_edge2_Node000002_Node000003"><a xlink:title=" ">
<path fill="none" stroke="#63b8ff" d="M499.82,-78.06C491.18,-77.92 482.51,-77.78 474.1,-77.64"/>
<polygon fill="#63b8ff" stroke="#63b8ff" points="499.86,-81.56 509.91,-78.22 499.97,-74.56 499.86,-81.56"/>
</a>
</g>
</g>
<!-- Node4 -->
<g id="Node000004" class="node">
<title>Node4</title>
<g id="a_Node000004"><a xlink:href="classzero__mate_1_1peripheral_1_1CMini__UART.html#a3b75064597a5fbfe9c4c7d1f2e0c7e5f" target="_top" xlink:title="Updates the state machines (transmission/reception).">
<polygon fill="white" stroke="#666666" points="297,-64.5 173,-64.5 173,-34.5 297,-34.5 297,-64.5"/>
<text text-anchor="start" x="181" y="-52.5" font-family="Helvetica,sans-Serif" font-size="10.00">zero_mate::peripheral</text>
<text text-anchor="middle" x="235" y="-41.5" font-family="Helvetica,sans-Serif" font-size="10.00">::CMini_UART::Update</text>
</a>
</g>
</g>
<!-- Node3&#45;&gt;Node4 -->
<g id="edge3_Node000003_Node000004" class="edge">
<title>Node3&#45;&gt;Node4</title>
<g id="a_edge3_Node000003_Node000004"><a xlink:title=" ">
<path fill="none" stroke="#63b8ff" d="M322.79,-63.57C314.17,-62.18 305.51,-60.77 297.16,-59.42"/>
<polygon fill="#63b8ff" stroke="#63b8ff" points="322.42,-67.06 332.85,-65.21 323.54,-60.15 322.42,-67.06"/>
</a>
</g>
</g>
<!-- Node5 -->
<g id="Node000005" class="node">
<title>Node5</title>
<g id="a_Node000005"><a xlink:href="classzero__mate_1_1peripheral_1_1CMini__UART.html#aae5f7e2bbffa6e3881675058a0aedf6f" target="_top" xlink:title="Updates the number of passed CPU cycles (forwarded from the AUX peripheral).">
<polygon fill="white" stroke="#666666" points="137,-70 0,-70 0,-29 137,-29 137,-70"/>
<text text-anchor="start" x="8" y="-58" font-family="Helvetica,sans-Serif" font-size="10.00">zero_mate::peripheral</text>
<text text-anchor="start" x="8" y="-47" font-family="Helvetica,sans-Serif" font-size="10.00">::CMini_UART::Increment</text>
<text text-anchor="middle" x="68.5" y="-36" font-family="Helvetica,sans-Serif" font-size="10.00">_Passed_Cycles</text>
</a>
</g>
</g>
<!-- Node4&#45;&gt;Node5 -->
<g id="edge4_Node000004_Node000005" class="edge">
<title>Node4&#45;&gt;Node5</title>
<g id="a_edge4_Node000004_Node000005"><a xlink:title=" ">
<path fill="none" stroke="#63b8ff" d="M162.56,-49.5C154.13,-49.5 145.54,-49.5 137.16,-49.5"/>
<polygon fill="#63b8ff" stroke="#63b8ff" points="162.75,-53 172.75,-49.5 162.75,-46 162.75,-53"/>
</a>
</g>
</g>
<!-- Node7 -->
<g id="Node000007" class="node">
<title>Node7</title>
<g id="a_Node000007"><a xlink:href="classzero__mate_1_1peripheral_1_1CMini__UART.html#a39f26f9ac5a5cb08b2a292f5c6fab6db" target="_top" xlink:title="Updates the transmission state machine.">
<polygon fill="white" stroke="#666666" points="473.5,-40.5 333.5,-40.5 333.5,-10.5 473.5,-10.5 473.5,-40.5"/>
<text text-anchor="start" x="341.5" y="-28.5" font-family="Helvetica,sans-Serif" font-size="10.00">zero_mate::peripheral</text>
<text text-anchor="middle" x="403.5" y="-17.5" font-family="Helvetica,sans-Serif" font-size="10.00">::CMini_UART::Update_TX</text>
</a>
</g>
</g>
<!-- Node6&#45;&gt;Node7 -->
<g id="edge6_Node000006_Node000007" class="edge">
<title>Node6&#45;&gt;Node7</title>
<g id="a_edge6_Node000006_Node000007"><a xlink:title=" ">
<path fill="none" stroke="#63b8ff" d="M507.14,-22.7C495.96,-23.01 484.57,-23.32 473.64,-23.62"/>
<polygon fill="#63b8ff" stroke="#63b8ff" points="507.42,-26.2 517.32,-22.43 507.22,-19.2 507.42,-26.2"/>
</a>
</g>
</g>
<!-- Node7&#45;&gt;Node4 -->
<g id="edge7_Node000007_Node000004" class="edge">
<title>Node7&#45;&gt;Node4</title>
<g id="a_edge7_Node000007_Node000004"><a xlink:title=" ">
<path fill="none" stroke="#63b8ff" d="M323.16,-36.94C314.45,-38.19 305.69,-39.45 297.25,-40.67"/>
<polygon fill="#63b8ff" stroke="#63b8ff" points="323.94,-40.36 333.34,-35.47 322.94,-33.43 323.94,-40.36"/>
</a>
</g>
</g>
</g>
</svg>
