<?xml version="1.0" encoding="UTF-8" standalone="no"?>
<!DOCTYPE svg PUBLIC "-//W3C//DTD SVG 1.1//EN"
 "http://www.w3.org/Graphics/SVG/1.1/DTD/svg11.dtd">
<!-- Generated by graphviz version 2.43.0 (0)
 -->
<!-- Title: zero_mate::gui::CControl_Window::Render Pages: 1 -->
<svg width="1293pt" height="275pt"
 viewBox="0.00 0.00 1293.00 274.50" xmlns="http://www.w3.org/2000/svg" xmlns:xlink="http://www.w3.org/1999/xlink">
<g id="graph0" class="graph" transform="scale(1 1) rotate(0) translate(4 270.5)">
<title>zero_mate::gui::CControl_Window::Render</title>
<!-- Node1 -->
<g id="Node000001" class="node">
<title>Node1</title>
<g id="a_Node000001"><a xlink:title="Renders the window (IGUI_Window interface).">
<polygon fill="#999999" stroke="#666666" points="137,-113.5 0,-113.5 0,-83.5 137,-83.5 137,-113.5"/>
<text text-anchor="start" x="8" y="-101.5" font-family="Helvetica,sans-Serif" font-size="10.00">zero_mate::gui::CControl</text>
<text text-anchor="middle" x="68.5" y="-90.5" font-family="Helvetica,sans-Serif" font-size="10.00">_Window::Render</text>
</a>
</g>
</g>
<!-- Node2 -->
<g id="Node000002" class="node">
<title>Node2</title>
<g id="a_Node000002"><a xlink:href="classzero__mate_1_1gui_1_1CControl__Window.html#a9be0d8c611ece954a13f3763744b074f" target="_top" xlink:title="Renders the control button (step, stop, run)">
<polygon fill="white" stroke="#666666" points="322,-215 181,-215 181,-174 322,-174 322,-215"/>
<text text-anchor="start" x="189" y="-203" font-family="Helvetica,sans-Serif" font-size="10.00">zero_mate::gui::CControl</text>
<text text-anchor="start" x="189" y="-192" font-family="Helvetica,sans-Serif" font-size="10.00">_Window::Render_Control</text>
<text text-anchor="middle" x="251.5" y="-181" font-family="Helvetica,sans-Serif" font-size="10.00">_Buttons</text>
</a>
</g>
</g>
<!-- Node1&#45;&gt;Node2 -->
<g id="edge1_Node000001_Node000002" class="edge">
<title>Node1&#45;&gt;Node2</title>
<g id="a_edge1_Node000001_Node000002"><a xlink:title=" ">
<path fill="none" stroke="#63b8ff" d="M97.78,-113.5C125.77,-128.35 169.16,-151.36 202.54,-169.06"/>
<polygon fill="#63b8ff" stroke="#63b8ff" points="201.2,-172.31 211.67,-173.91 204.48,-166.13 201.2,-172.31"/>
</a>
</g>
</g>
<!-- Node12 -->
<g id="Node000012" class="node">
<title>Node12</title>
<g id="a_Node000012"><a xlink:href="classzero__mate_1_1gui_1_1CControl__Window.html#a2b7970947b3c184bdddece580ba6d4f8" target="_top" xlink:title="Renders the current CPU state (running, breakpoint, ...)">
<polygon fill="white" stroke="#666666" points="330,-89.5 173,-89.5 173,-59.5 330,-59.5 330,-89.5"/>
<text text-anchor="start" x="181" y="-77.5" font-family="Helvetica,sans-Serif" font-size="10.00">zero_mate::gui::CControl</text>
<text text-anchor="middle" x="251.5" y="-66.5" font-family="Helvetica,sans-Serif" font-size="10.00">_Window::Render_CPU_State</text>
</a>
</g>
</g>
<!-- Node1&#45;&gt;Node12 -->
<g id="edge12_Node000001_Node000012" class="edge">
<title>Node1&#45;&gt;Node12</title>
<g id="a_edge12_Node000001_Node000012"><a xlink:title=" ">
<path fill="none" stroke="#63b8ff" d="M137.16,-89.53C145.53,-88.42 154.18,-87.27 162.79,-86.13"/>
<polygon fill="#63b8ff" stroke="#63b8ff" points="163.42,-89.58 172.88,-84.79 162.5,-82.64 163.42,-89.58"/>
</a>
</g>
</g>
<!-- Node13 -->
<g id="Node000013" class="node">
<title>Node13</title>
<g id="a_Node000013"><a xlink:href="classzero__mate_1_1gui_1_1CControl__Window.html#a7048a7ed9b551fa04d551d47fd0d03bc" target="_top" xlink:title="Renders the name (filepath) of the currently loaded kernel (ELF file).">
<polygon fill="white" stroke="#666666" points="327,-41 176,-41 176,0 327,0 327,-41"/>
<text text-anchor="start" x="184" y="-29" font-family="Helvetica,sans-Serif" font-size="10.00">zero_mate::gui::CControl</text>
<text text-anchor="start" x="184" y="-18" font-family="Helvetica,sans-Serif" font-size="10.00">_Window::Render_Currently</text>
<text text-anchor="middle" x="251.5" y="-7" font-family="Helvetica,sans-Serif" font-size="10.00">_Loaded_Kernel</text>
</a>
</g>
</g>
<!-- Node1&#45;&gt;Node13 -->
<g id="edge13_Node000001_Node000013" class="edge">
<title>Node1&#45;&gt;Node13</title>
<g id="a_edge13_Node000001_Node000013"><a xlink:title=" ">
<path fill="none" stroke="#63b8ff" d="M100.52,-83.48C120.95,-73.73 148.39,-60.96 173,-50.5 177.42,-48.62 181.99,-46.73 186.61,-44.85"/>
<polygon fill="#63b8ff" stroke="#63b8ff" points="188.14,-48.01 196.12,-41.04 185.53,-41.51 188.14,-48.01"/>
</a>
</g>
</g>
<!-- Node14 -->
<g id="Node000014" class="node">
<title>Node14</title>
<g id="a_Node000014"><a xlink:href="classzero__mate_1_1gui_1_1CControl__Window.html#a1c2dbf328ff8bb1d5be18824806b8995" target="_top" xlink:title="Starts CPU execution as a separate thread.">
<polygon fill="white" stroke="#666666" points="328.5,-137.5 174.5,-137.5 174.5,-107.5 328.5,-107.5 328.5,-137.5"/>
<text text-anchor="start" x="182.5" y="-125.5" font-family="Helvetica,sans-Serif" font-size="10.00">zero_mate::gui::CControl</text>
<text text-anchor="middle" x="251.5" y="-114.5" font-family="Helvetica,sans-Serif" font-size="10.00">_Window::Start_CPU_Thread</text>
</a>
</g>
</g>
<!-- Node1&#45;&gt;Node14 -->
<g id="edge14_Node000001_Node000014" class="edge">
<title>Node1&#45;&gt;Node14</title>
<g id="a_edge14_Node000001_Node000014"><a xlink:title=" ">
<path fill="none" stroke="#63b8ff" d="M137.16,-107.47C146.08,-108.65 155.32,-109.88 164.49,-111.1"/>
<polygon fill="#63b8ff" stroke="#63b8ff" points="164.04,-114.57 174.41,-112.41 164.96,-107.63 164.04,-114.57"/>
</a>
</g>
</g>
<!-- Node3 -->
<g id="Node000003" class="node">
<title>Node3</title>
<g id="a_Node000003"><a xlink:href="classzero__mate_1_1gui_1_1CControl__Window.html#ac547361a03efba8bcb05e216ae512dac" target="_top" xlink:title="Renders the run control button.">
<polygon fill="white" stroke="#666666" points="529.5,-266.5 367.5,-266.5 367.5,-236.5 529.5,-236.5 529.5,-266.5"/>
<text text-anchor="start" x="375.5" y="-254.5" font-family="Helvetica,sans-Serif" font-size="10.00">zero_mate::gui::CControl</text>
<text text-anchor="middle" x="448.5" y="-243.5" font-family="Helvetica,sans-Serif" font-size="10.00">_Window::Render_Run_Button</text>
</a>
</g>
</g>
<!-- Node2&#45;&gt;Node3 -->
<g id="edge2_Node000002_Node000003" class="edge">
<title>Node2&#45;&gt;Node3</title>
<g id="a_edge2_Node000002_Node000003"><a xlink:title=" ">
<path fill="none" stroke="#63b8ff" d="M322.07,-214.84C343.03,-220.96 365.88,-227.64 386.25,-233.6"/>
<polygon fill="#63b8ff" stroke="#63b8ff" points="385.46,-237.01 396.04,-236.46 387.43,-230.29 385.46,-237.01"/>
</a>
</g>
</g>
<!-- Node10 -->
<g id="Node000010" class="node">
<title>Node10</title>
<g id="a_Node000010"><a xlink:href="classzero__mate_1_1gui_1_1CControl__Window.html#a9dabdbd3011cc2a5a13e7409a65deb3e" target="_top" xlink:title="Renders the step control button.">
<polygon fill="white" stroke="#666666" points="531,-218.5 366,-218.5 366,-188.5 531,-188.5 531,-218.5"/>
<text text-anchor="start" x="374" y="-206.5" font-family="Helvetica,sans-Serif" font-size="10.00">zero_mate::gui::CControl</text>
<text text-anchor="middle" x="448.5" y="-195.5" font-family="Helvetica,sans-Serif" font-size="10.00">_Window::Render_Step_Button</text>
</a>
</g>
</g>
<!-- Node2&#45;&gt;Node10 -->
<g id="edge9_Node000002_Node000010" class="edge">
<title>Node2&#45;&gt;Node10</title>
<g id="a_edge9_Node000002_Node000010"><a xlink:title=" ">
<path fill="none" stroke="#63b8ff" d="M322.07,-197.71C332.96,-198.21 344.35,-198.74 355.65,-199.26"/>
<polygon fill="#63b8ff" stroke="#63b8ff" points="355.82,-202.77 365.97,-199.74 356.14,-195.78 355.82,-202.77"/>
</a>
</g>
</g>
<!-- Node11 -->
<g id="Node000011" class="node">
<title>Node11</title>
<g id="a_Node000011"><a xlink:href="classzero__mate_1_1gui_1_1CControl__Window.html#a7a5636aa7de9957ac3339ff8bff63038" target="_top" xlink:title="Renders the stop control button.">
<polygon fill="white" stroke="#666666" points="531,-170.5 366,-170.5 366,-140.5 531,-140.5 531,-170.5"/>
<text text-anchor="start" x="374" y="-158.5" font-family="Helvetica,sans-Serif" font-size="10.00">zero_mate::gui::CControl</text>
<text text-anchor="middle" x="448.5" y="-147.5" font-family="Helvetica,sans-Serif" font-size="10.00">_Window::Render_Stop_Button</text>
</a>
</g>
</g>
<!-- Node2&#45;&gt;Node11 -->
<g id="edge11_Node000002_Node000011" class="edge">
<title>Node2&#45;&gt;Node11</title>
<g id="a_edge11_Node000002_Node000011"><a xlink:title=" ">
<path fill="none" stroke="#63b8ff" d="M322.07,-180.59C335.06,-177.99 348.77,-175.25 362.17,-172.57"/>
<polygon fill="#63b8ff" stroke="#63b8ff" points="363.21,-175.93 372.33,-170.53 361.84,-169.06 363.21,-175.93"/>
</a>
</g>
</g>
<!-- Node4 -->
<g id="Node000004" class="node">
<title>Node4</title>
<g id="a_Node000004"><a xlink:href="classzero__mate_1_1gui_1_1CControl__Window.html#a46cc1dd042f93990abb7b0b68f566a2d" target="_top" xlink:title="Log an error message saying that no ELF file (kernel) has been loaded yet.">
<polygon fill="white" stroke="#666666" points="719,-224 567,-224 567,-183 719,-183 719,-224"/>
<text text-anchor="start" x="575" y="-212" font-family="Helvetica,sans-Serif" font-size="10.00">zero_mate::gui::CControl</text>
<text text-anchor="start" x="575" y="-201" font-family="Helvetica,sans-Serif" font-size="10.00">_Window::Print_No_ELF_File</text>
<text text-anchor="middle" x="643" y="-190" font-family="Helvetica,sans-Serif" font-size="10.00">_Loaded_Error_Msg</text>
</a>
</g>
</g>
<!-- Node3&#45;&gt;Node4 -->
<g id="edge3_Node000003_Node000004" class="edge">
<title>Node3&#45;&gt;Node4</title>
<g id="a_edge3_Node000003_Node000004"><a xlink:title=" ">
<path fill="none" stroke="#63b8ff" d="M509.88,-236.44C524.85,-232.71 541.18,-228.64 557.09,-224.67"/>
<polygon fill="#63b8ff" stroke="#63b8ff" points="558.07,-228.04 566.92,-222.22 556.37,-221.24 558.07,-228.04"/>
</a>
</g>
</g>
<!-- Node5 -->
<g id="Node000005" class="node">
<title>Node5</title>
<g id="a_Node000005"><a xlink:href="classzero__mate_1_1utils_1_1CLogging__System.html#a57ed77e1a5cf822cea532cc5e05c3f60" target="_top" xlink:title="Logs an error message via all registered loggers.">
<polygon fill="white" stroke="#666666" points="901,-209.5 755,-209.5 755,-179.5 901,-179.5 901,-209.5"/>
<text text-anchor="start" x="763" y="-197.5" font-family="Helvetica,sans-Serif" font-size="10.00">zero_mate::utils::CLogging</text>
<text text-anchor="middle" x="828" y="-186.5" font-family="Helvetica,sans-Serif" font-size="10.00">_System::Error</text>
</a>
</g>
</g>
<!-- Node4&#45;&gt;Node5 -->
<g id="edge4_Node000004_Node000005" class="edge">
<title>Node4&#45;&gt;Node5</title>
<g id="a_edge4_Node000004_Node000005"><a xlink:title=" ">
<path fill="none" stroke="#63b8ff" d="M719.23,-199.8C727.57,-199.39 736.09,-198.97 744.52,-198.56"/>
<polygon fill="#63b8ff" stroke="#63b8ff" points="744.9,-202.04 754.72,-198.05 744.56,-195.05 744.9,-202.04"/>
</a>
</g>
</g>
<!-- Node6 -->
<g id="Node000006" class="node">
<title>Node6</title>
<g id="a_Node000006"><a xlink:href="classzero__mate_1_1utils_1_1CLogging__System.html#a71ed11c796553cbe8fd99773406a1060" target="_top" xlink:title="Creates a formatted message to be logged.">
<polygon fill="white" stroke="#666666" points="1089,-215 937,-215 937,-174 1089,-174 1089,-215"/>
<text text-anchor="start" x="945" y="-203" font-family="Helvetica,sans-Serif" font-size="10.00">zero_mate::utils::CLogging</text>
<text text-anchor="start" x="945" y="-192" font-family="Helvetica,sans-Serif" font-size="10.00">_System::Create_Formatted</text>
<text text-anchor="middle" x="1013" y="-181" font-family="Helvetica,sans-Serif" font-size="10.00">_Log_Msg</text>
</a>
</g>
</g>
<!-- Node5&#45;&gt;Node6 -->
<g id="edge5_Node000005_Node000006" class="edge">
<title>Node5&#45;&gt;Node6</title>
<g id="a_edge5_Node000005_Node000006"><a xlink:title=" ">
<path fill="none" stroke="#63b8ff" d="M901.06,-194.5C909.55,-194.5 918.26,-194.5 926.9,-194.5"/>
<polygon fill="#63b8ff" stroke="#63b8ff" points="926.99,-198 936.99,-194.5 926.99,-191 926.99,-198"/>
</a>
</g>
</g>
<!-- Node9 -->
<g id="Node000009" class="node">
<title>Node9</title>
<g id="a_Node000009"><a xlink:href="classzero__mate_1_1utils_1_1CLogging__System.html#ad371c67ef65763966ccf9291002e86f3" target="_top" xlink:title="Extract the filename from a given location within the source files.">
<polygon fill="white" stroke="#666666" points="1087.5,-155.5 938.5,-155.5 938.5,-125.5 1087.5,-125.5 1087.5,-155.5"/>
<text text-anchor="start" x="946.5" y="-143.5" font-family="Helvetica,sans-Serif" font-size="10.00">zero_mate::utils::CLogging</text>
<text text-anchor="middle" x="1013" y="-132.5" font-family="Helvetica,sans-Serif" font-size="10.00">_System::Extract_Filename</text>
</a>
</g>
</g>
<!-- Node5&#45;&gt;Node9 -->
<g id="edge8_Node000005_Node000009" class="edge">
<title>Node5&#45;&gt;Node9</title>
<g id="a_edge8_Node000005_Node000009"><a xlink:title=" ">
<path fill="none" stroke="#63b8ff" d="M879.98,-179.46C902.09,-172.93 928.17,-165.24 951.28,-158.42"/>
<polygon fill="#63b8ff" stroke="#63b8ff" points="952.38,-161.74 960.98,-155.55 950.4,-155.03 952.38,-161.74"/>
</a>
</g>
</g>
<!-- Node7 -->
<g id="Node000007" class="node">
<title>Node7</title>
<g id="a_Node000007"><a xlink:href="classzero__mate_1_1utils_1_1CLogging__System.html#aa70c102c805079042ffea2a6f2a5ad64" target="_top" xlink:title="Formats a given timestamp.">
<polygon fill="white" stroke="#666666" points="1285,-233.5 1125,-233.5 1125,-203.5 1285,-203.5 1285,-233.5"/>
<text text-anchor="start" x="1133" y="-221.5" font-family="Helvetica,sans-Serif" font-size="10.00">zero_mate::utils::CLogging</text>
<text text-anchor="middle" x="1205" y="-210.5" font-family="Helvetica,sans-Serif" font-size="10.00">_System::Format_Timestamp</text>
</a>
</g>
</g>
<!-- Node6&#45;&gt;Node7 -->
<g id="edge6_Node000006_Node000007" class="edge">
<title>Node6&#45;&gt;Node7</title>
<g id="a_edge6_Node000006_Node000007"><a xlink:title=" ">
<path fill="none" stroke="#63b8ff" d="M1089.09,-203.99C1097.52,-205.05 1106.16,-206.14 1114.74,-207.23"/>
<polygon fill="#63b8ff" stroke="#63b8ff" points="1114.41,-210.71 1124.77,-208.49 1115.29,-203.77 1114.41,-210.71"/>
</a>
</g>
</g>
<!-- Node8 -->
<g id="Node000008" class="node">
<title>Node8</title>
<g id="a_Node000008"><a xlink:href="classzero__mate_1_1utils_1_1CLogging__System.html#ae3ca637537dde05e0b9119145c840331" target="_top" xlink:title="Returns the current timestamp that will be used in a log message.">
<polygon fill="white" stroke="#666666" points="1278,-185.5 1132,-185.5 1132,-155.5 1278,-155.5 1278,-185.5"/>
<text text-anchor="start" x="1140" y="-173.5" font-family="Helvetica,sans-Serif" font-size="10.00">zero_mate::utils::CLogging</text>
<text text-anchor="middle" x="1205" y="-162.5" font-family="Helvetica,sans-Serif" font-size="10.00">_System::Get_Timestamp</text>
</a>
</g>
</g>
<!-- Node6&#45;&gt;Node8 -->
<g id="edge7_Node000006_Node000008" class="edge">
<title>Node6&#45;&gt;Node8</title>
<g id="a_edge7_Node000006_Node000008"><a xlink:title=" ">
<path fill="none" stroke="#63b8ff" d="M1089.09,-185.01C1099.89,-183.65 1111.05,-182.24 1121.98,-180.86"/>
<polygon fill="#63b8ff" stroke="#63b8ff" points="1122.45,-184.33 1131.93,-179.6 1121.57,-177.38 1122.45,-184.33"/>
</a>
</g>
</g>
<!-- Node10&#45;&gt;Node4 -->
<g id="edge10_Node000010_Node000004" class="edge">
<title>Node10&#45;&gt;Node4</title>
<g id="a_edge10_Node000010_Node000004"><a xlink:title=" ">
<path fill="none" stroke="#63b8ff" d="M531.14,-203.5C539.68,-203.5 548.38,-203.5 556.96,-203.5"/>
<polygon fill="#63b8ff" stroke="#63b8ff" points="556.96,-207 566.96,-203.5 556.96,-200 556.96,-207"/>
</a>
</g>
</g>
<!-- Node15 -->
<g id="Node000015" class="node">
<title>Node15</title>
<g id="a_Node000015"><a xlink:href="classzero__mate_1_1gui_1_1CControl__Window.html#ad83b2651e1d6bf8ed72e3553526f17ca" target="_top" xlink:title="Runs CPU execution (separate thread).">
<polygon fill="white" stroke="#666666" points="711.5,-137.5 574.5,-137.5 574.5,-107.5 711.5,-107.5 711.5,-137.5"/>
<text text-anchor="start" x="582.5" y="-125.5" font-family="Helvetica,sans-Serif" font-size="10.00">zero_mate::gui::CControl</text>
<text text-anchor="middle" x="643" y="-114.5" font-family="Helvetica,sans-Serif" font-size="10.00">_Window::Run</text>
</a>
</g>
</g>
<!-- Node14&#45;&gt;Node15 -->
<g id="edge15_Node000014_Node000015" class="edge">
<title>Node14&#45;&gt;Node15</title>
<g id="a_edge15_Node000014_Node000015"><a xlink:title=" ">
<path fill="none" stroke="#63b8ff" d="M328.52,-122.5C396.44,-122.5 495.5,-122.5 564,-122.5"/>
<polygon fill="#63b8ff" stroke="#63b8ff" points="564.3,-126 574.3,-122.5 564.3,-119 564.3,-126"/>
</a>
</g>
</g>
<!-- Node16 -->
<g id="Node000016" class="node">
<title>Node16</title>
<g id="a_Node000016"><a xlink:href="classzero__mate_1_1utils_1_1CLogging__System.html#a455d99c3614dc92ffbdbdcdb6b8b8bb8" target="_top" xlink:title="Logs an info message via all registered loggers.">
<polygon fill="white" stroke="#666666" points="901,-155.5 755,-155.5 755,-125.5 901,-125.5 901,-155.5"/>
<text text-anchor="start" x="763" y="-143.5" font-family="Helvetica,sans-Serif" font-size="10.00">zero_mate::utils::CLogging</text>
<text text-anchor="middle" x="828" y="-132.5" font-family="Helvetica,sans-Serif" font-size="10.00">_System::Info</text>
</a>
</g>
</g>
<!-- Node15&#45;&gt;Node16 -->
<g id="edge16_Node000015_Node000016" class="edge">
<title>Node15&#45;&gt;Node16</title>
<g id="a_edge16_Node000015_Node000016"><a xlink:title=" ">
<path fill="none" stroke="#63b8ff" d="M711.62,-129.15C722.38,-130.21 733.61,-131.31 744.66,-132.4"/>
<polygon fill="#63b8ff" stroke="#63b8ff" points="744.45,-135.9 754.74,-133.39 745.13,-128.93 744.45,-135.9"/>
</a>
</g>
</g>
<!-- Node16&#45;&gt;Node6 -->
<g id="edge17_Node000016_Node000006" class="edge">
<title>Node16&#45;&gt;Node6</title>
<g id="a_edge17_Node000016_Node000006"><a xlink:title=" ">
<path fill="none" stroke="#63b8ff" d="M879.98,-155.54C896.31,-160.36 914.79,-165.82 932.65,-171.09"/>
<polygon fill="#63b8ff" stroke="#63b8ff" points="931.91,-174.52 942.49,-173.99 933.89,-167.8 931.91,-174.52"/>
</a>
</g>
</g>
<!-- Node16&#45;&gt;Node9 -->
<g id="edge18_Node000016_Node000009" class="edge">
<title>Node16&#45;&gt;Node9</title>
<g id="a_edge18_Node000016_Node000009"><a xlink:title=" ">
<path fill="none" stroke="#63b8ff" d="M901.06,-140.5C910,-140.5 919.2,-140.5 928.29,-140.5"/>
<polygon fill="#63b8ff" stroke="#63b8ff" points="928.5,-144 938.5,-140.5 928.5,-137 928.5,-144"/>
</a>
</g>
</g>
</g>
</svg>
