<?xml version="1.0" encoding="UTF-8" standalone="no"?>
<!DOCTYPE svg PUBLIC "-//W3C//DTD SVG 1.1//EN"
 "http://www.w3.org/Graphics/SVG/1.1/DTD/svg11.dtd">
<!-- Generated by graphviz version 2.43.0 (0)
 -->
<!-- Title: zero_mate::arm1176jzf_s::isa::CInstruction::Get_Value Pages: 1 -->
<svg width="345pt" height="1187pt"
 viewBox="0.00 0.00 345.00 1187.00" xmlns="http://www.w3.org/2000/svg" xmlns:xlink="http://www.w3.org/1999/xlink">
<g id="graph0" class="graph" transform="scale(1 1) rotate(0) translate(4 1183)">
<title>zero_mate::arm1176jzf_s::isa::CInstruction::Get_Value</title>
<!-- Node1 -->
<g id="Node000001" class="node">
<title>Node1</title>
<g id="a_Node000001"><a xlink:title="Returns the 32&#45;bit value (encoding of the instruction).">
<polygon fill="#999999" stroke="#666666" points="337,-571.5 207,-571.5 207,-530.5 337,-530.5 337,-571.5"/>
<text text-anchor="start" x="215" y="-559.5" font-family="Helvetica,sans-Serif" font-size="10.00">zero_mate::arm1176jzf</text>
<text text-anchor="start" x="215" y="-548.5" font-family="Helvetica,sans-Serif" font-size="10.00">_s::isa::CInstruction</text>
<text text-anchor="middle" x="272" y="-537.5" font-family="Helvetica,sans-Serif" font-size="10.00">::Get_Value</text>
</a>
</g>
</g>
<!-- Node2 -->
<g id="Node000002" class="node">
<title>Node2</title>
<g id="a_Node000002"><a xlink:href="classzero__mate_1_1arm1176jzf__s_1_1isa_1_1CBlock__Data__Transfer.html#ac6cb358f08a87becb57bb6a081abce4a" target="_top" xlink:title="Creates an instance of the class.">
<polygon fill="white" stroke="#666666" points="150.5,-1179 20.5,-1179 20.5,-1127 150.5,-1127 150.5,-1179"/>
<text text-anchor="start" x="28.5" y="-1167" font-family="Helvetica,sans-Serif" font-size="10.00">zero_mate::arm1176jzf</text>
<text text-anchor="start" x="28.5" y="-1156" font-family="Helvetica,sans-Serif" font-size="10.00">_s::isa::CBlock_Data</text>
<text text-anchor="start" x="28.5" y="-1145" font-family="Helvetica,sans-Serif" font-size="10.00">_Transfer::CBlock_Data</text>
<text text-anchor="middle" x="85.5" y="-1134" font-family="Helvetica,sans-Serif" font-size="10.00">_Transfer</text>
</a>
</g>
</g>
<!-- Node1&#45;&gt;Node2 -->
<g id="edge1_Node000001_Node000002" class="edge">
<title>Node1&#45;&gt;Node2</title>
<g id="a_edge1_Node000001_Node000002"><a xlink:title=" ">
<path fill="none" stroke="#63b8ff" d="M269.41,-581.57C263.38,-687.01 238.67,-1033.69 171,-1118 165.53,-1124.81 158.52,-1130.31 150.86,-1134.75"/>
<polygon fill="#63b8ff" stroke="#63b8ff" points="272.91,-581.76 269.97,-571.58 265.92,-581.37 272.91,-581.76"/>
</a>
</g>
</g>
<!-- Node3 -->
<g id="Node000003" class="node">
<title>Node3</title>
<g id="a_Node000003"><a xlink:href="classzero__mate_1_1arm1176jzf__s_1_1isa_1_1CBranch.html#a30056c7b5f585274dbcd776898dc8ad4" target="_top" xlink:title="Creates an instance of the class.">
<polygon fill="white" stroke="#666666" points="155.5,-1109 15.5,-1109 15.5,-1079 155.5,-1079 155.5,-1109"/>
<text text-anchor="start" x="23.5" y="-1097" font-family="Helvetica,sans-Serif" font-size="10.00">zero_mate::arm1176jzf</text>
<text text-anchor="middle" x="85.5" y="-1086" font-family="Helvetica,sans-Serif" font-size="10.00">_s::isa::CBranch::CBranch</text>
</a>
</g>
</g>
<!-- Node1&#45;&gt;Node3 -->
<g id="edge2_Node000001_Node000003" class="edge">
<title>Node1&#45;&gt;Node3</title>
<g id="a_edge2_Node000001_Node000003"><a xlink:title=" ">
<path fill="none" stroke="#63b8ff" d="M269.21,-581.87C262.76,-682.3 237.5,-997.49 171,-1070 166.67,-1074.72 161.49,-1078.54 155.85,-1081.62"/>
<polygon fill="#63b8ff" stroke="#63b8ff" points="272.71,-581.96 269.84,-571.76 265.72,-581.53 272.71,-581.96"/>
</a>
</g>
</g>
<!-- Node4 -->
<g id="Node000004" class="node">
<title>Node4</title>
<g id="a_Node000004"><a xlink:href="classzero__mate_1_1arm1176jzf__s_1_1isa_1_1CBranch__And__Exchange.html#aad700400022da84663d96606fffc90c3" target="_top" xlink:title="Creates an instance of the class.">
<polygon fill="white" stroke="#666666" points="155.5,-1061 15.5,-1061 15.5,-1009 155.5,-1009 155.5,-1061"/>
<text text-anchor="start" x="23.5" y="-1049" font-family="Helvetica,sans-Serif" font-size="10.00">zero_mate::arm1176jzf</text>
<text text-anchor="start" x="23.5" y="-1038" font-family="Helvetica,sans-Serif" font-size="10.00">_s::isa::CBranch_And</text>
<text text-anchor="start" x="23.5" y="-1027" font-family="Helvetica,sans-Serif" font-size="10.00">_Exchange::CBranch_And</text>
<text text-anchor="middle" x="85.5" y="-1016" font-family="Helvetica,sans-Serif" font-size="10.00">_Exchange</text>
</a>
</g>
</g>
<!-- Node1&#45;&gt;Node4 -->
<g id="edge3_Node000001_Node000004" class="edge">
<title>Node1&#45;&gt;Node4</title>
<g id="a_edge3_Node000001_Node000004"><a xlink:title=" ">
<path fill="none" stroke="#63b8ff" d="M267.83,-581.86C257.96,-672.48 225.17,-935.51 171,-1000 166.61,-1005.23 161.31,-1009.69 155.53,-1013.49"/>
<polygon fill="#63b8ff" stroke="#63b8ff" points="271.33,-582 268.92,-571.69 264.37,-581.26 271.33,-582"/>
</a>
</g>
</g>
<!-- Node5 -->
<g id="Node000005" class="node">
<title>Node5</title>
<g id="a_Node000005"><a xlink:href="classzero__mate_1_1arm1176jzf__s_1_1isa_1_1CCLZ.html#a46df676c42d4f7f3513ee9f7af32c0a5" target="_top" xlink:title="Creates an instance of the class.">
<polygon fill="white" stroke="#666666" points="150.5,-991 20.5,-991 20.5,-961 150.5,-961 150.5,-991"/>
<text text-anchor="start" x="28.5" y="-979" font-family="Helvetica,sans-Serif" font-size="10.00">zero_mate::arm1176jzf</text>
<text text-anchor="middle" x="85.5" y="-968" font-family="Helvetica,sans-Serif" font-size="10.00">_s::isa::CCLZ::CCLZ</text>
</a>
</g>
</g>
<!-- Node1&#45;&gt;Node5 -->
<g id="edge4_Node000001_Node000005" class="edge">
<title>Node1&#45;&gt;Node5</title>
<g id="a_edge4_Node000001_Node000005"><a xlink:title=" ">
<path fill="none" stroke="#63b8ff" d="M267.34,-581.65C256.67,-665.88 223.05,-898.24 171,-952 165.27,-957.92 158.2,-962.4 150.61,-965.8"/>
<polygon fill="#63b8ff" stroke="#63b8ff" points="270.81,-582.03 268.58,-571.68 263.87,-581.17 270.81,-582.03"/>
</a>
</g>
</g>
<!-- Node6 -->
<g id="Node000006" class="node">
<title>Node6</title>
<g id="a_Node000006"><a xlink:href="classzero__mate_1_1arm1176jzf__s_1_1isa_1_1CCoprocessor__Data__Operation.html#a8363ed08cf7dd20e91251d33c4eaa450" target="_top" xlink:title="Creates an instance of the class.">
<polygon fill="white" stroke="#666666" points="171,-943 0,-943 0,-891 171,-891 171,-943"/>
<text text-anchor="start" x="8" y="-931" font-family="Helvetica,sans-Serif" font-size="10.00">zero_mate::arm1176jzf</text>
<text text-anchor="start" x="8" y="-920" font-family="Helvetica,sans-Serif" font-size="10.00">_s::isa::CCoprocessor</text>
<text text-anchor="start" x="8" y="-909" font-family="Helvetica,sans-Serif" font-size="10.00">_Data_Operation::CCoprocessor</text>
<text text-anchor="middle" x="85.5" y="-898" font-family="Helvetica,sans-Serif" font-size="10.00">_Data_Operation</text>
</a>
</g>
</g>
<!-- Node1&#45;&gt;Node6 -->
<g id="edge5_Node000001_Node000006" class="edge">
<title>Node1&#45;&gt;Node6</title>
<g id="a_edge5_Node000001_Node000006"><a xlink:title=" ">
<path fill="none" stroke="#63b8ff" d="M270.14,-582.04C266.74,-646.14 250.22,-794.5 171,-882 168.12,-885.18 164.91,-888.08 161.47,-890.72"/>
<polygon fill="#63b8ff" stroke="#63b8ff" points="273.65,-581.93 270.61,-571.78 266.66,-581.61 273.65,-581.93"/>
</a>
</g>
</g>
<!-- Node7 -->
<g id="Node000007" class="node">
<title>Node7</title>
<g id="a_Node000007"><a xlink:href="classzero__mate_1_1arm1176jzf__s_1_1isa_1_1CCoprocessor__Data__Transfer.html#a0a783b6407be94b39ef6be5b0e148dae" target="_top" xlink:title="Creates an instance of the class.">
<polygon fill="white" stroke="#666666" points="166.5,-873 4.5,-873 4.5,-821 166.5,-821 166.5,-873"/>
<text text-anchor="start" x="12.5" y="-861" font-family="Helvetica,sans-Serif" font-size="10.00">zero_mate::arm1176jzf</text>
<text text-anchor="start" x="12.5" y="-850" font-family="Helvetica,sans-Serif" font-size="10.00">_s::isa::CCoprocessor</text>
<text text-anchor="start" x="12.5" y="-839" font-family="Helvetica,sans-Serif" font-size="10.00">_Data_Transfer::CCoprocessor</text>
<text text-anchor="middle" x="85.5" y="-828" font-family="Helvetica,sans-Serif" font-size="10.00">_Data_Transfer</text>
</a>
</g>
</g>
<!-- Node1&#45;&gt;Node7 -->
<g id="edge6_Node000001_Node000007" class="edge">
<title>Node1&#45;&gt;Node7</title>
<g id="a_edge6_Node000001_Node000007"><a xlink:title=" ">
<path fill="none" stroke="#63b8ff" d="M267.18,-581.79C258.99,-635.37 234.97,-746.29 171,-812 167.9,-815.19 164.46,-818.09 160.81,-820.75"/>
<polygon fill="#63b8ff" stroke="#63b8ff" points="270.69,-581.96 268.66,-571.57 263.76,-580.96 270.69,-581.96"/>
</a>
</g>
</g>
<!-- Node8 -->
<g id="Node000008" class="node">
<title>Node8</title>
<g id="a_Node000008"><a xlink:href="classzero__mate_1_1arm1176jzf__s_1_1isa_1_1CCoprocessor__Reg__Transfer.html#aa942a180ba6032a44e3e654948b46782" target="_top" xlink:title="Creates an instance of the class.">
<polygon fill="white" stroke="#666666" points="164.5,-803 6.5,-803 6.5,-751 164.5,-751 164.5,-803"/>
<text text-anchor="start" x="14.5" y="-791" font-family="Helvetica,sans-Serif" font-size="10.00">zero_mate::arm1176jzf</text>
<text text-anchor="start" x="14.5" y="-780" font-family="Helvetica,sans-Serif" font-size="10.00">_s::isa::CCoprocessor</text>
<text text-anchor="start" x="14.5" y="-769" font-family="Helvetica,sans-Serif" font-size="10.00">_Reg_Transfer::CCoprocessor</text>
<text text-anchor="middle" x="85.5" y="-758" font-family="Helvetica,sans-Serif" font-size="10.00">_Reg_Transfer</text>
</a>
</g>
</g>
<!-- Node1&#45;&gt;Node8 -->
<g id="edge7_Node000001_Node000008" class="edge">
<title>Node1&#45;&gt;Node8</title>
<g id="a_edge7_Node000001_Node000008"><a xlink:title=" ">
<path fill="none" stroke="#63b8ff" d="M262.36,-581.31C249.11,-622.79 220,-697.2 171,-742 167.48,-745.21 163.63,-748.16 159.57,-750.84"/>
<polygon fill="#63b8ff" stroke="#63b8ff" points="265.71,-582.34 265.32,-571.75 259.02,-580.27 265.71,-582.34"/>
</a>
</g>
</g>
<!-- Node9 -->
<g id="Node000009" class="node">
<title>Node9</title>
<g id="a_Node000009"><a xlink:href="classzero__mate_1_1arm1176jzf__s_1_1isa_1_1CCPS.html#a75cce5bda8c70e413d7f1f88e9323249" target="_top" xlink:title="Creates an instance of the class.">
<polygon fill="white" stroke="#666666" points="150.5,-733 20.5,-733 20.5,-703 150.5,-703 150.5,-733"/>
<text text-anchor="start" x="28.5" y="-721" font-family="Helvetica,sans-Serif" font-size="10.00">zero_mate::arm1176jzf</text>
<text text-anchor="middle" x="85.5" y="-710" font-family="Helvetica,sans-Serif" font-size="10.00">_s::isa::CCPS::CCPS</text>
</a>
</g>
</g>
<!-- Node1&#45;&gt;Node9 -->
<g id="edge8_Node000001_Node000009" class="edge">
<title>Node1&#45;&gt;Node9</title>
<g id="a_edge8_Node000001_Node000009"><a xlink:title=" ">
<path fill="none" stroke="#63b8ff" d="M257.83,-580.72C241.89,-613.3 211.99,-664.82 171,-694 164.79,-698.42 157.78,-702.03 150.52,-704.98"/>
<polygon fill="#63b8ff" stroke="#63b8ff" points="261,-582.2 262.14,-571.67 254.68,-579.19 261,-582.2"/>
</a>
</g>
</g>
<!-- Node10 -->
<g id="Node000010" class="node">
<title>Node10</title>
<g id="a_Node000010"><a xlink:href="classzero__mate_1_1arm1176jzf__s_1_1isa_1_1CData__Processing.html#a8f3ff59c8a7ab7d1481be7da9cdd87a5" target="_top" xlink:title="Creates an instance of the class.">
<polygon fill="white" stroke="#666666" points="156,-684.5 15,-684.5 15,-643.5 156,-643.5 156,-684.5"/>
<text text-anchor="start" x="23" y="-672.5" font-family="Helvetica,sans-Serif" font-size="10.00">zero_mate::arm1176jzf</text>
<text text-anchor="start" x="23" y="-661.5" font-family="Helvetica,sans-Serif" font-size="10.00">_s::isa::CData_Processing</text>
<text text-anchor="middle" x="85.5" y="-650.5" font-family="Helvetica,sans-Serif" font-size="10.00">::CData_Processing</text>
</a>
</g>
</g>
<!-- Node1&#45;&gt;Node10 -->
<g id="edge9_Node000001_Node000010" class="edge">
<title>Node1&#45;&gt;Node10</title>
<g id="a_edge9_Node000001_Node000010"><a xlink:title=" ">
<path fill="none" stroke="#63b8ff" d="M242.99,-578.87C223.98,-596.57 197.55,-618.91 171,-634 165.05,-637.39 158.64,-640.49 152.12,-643.32"/>
<polygon fill="#63b8ff" stroke="#63b8ff" points="245.55,-581.27 250.41,-571.85 240.74,-576.18 245.55,-581.27"/>
</a>
</g>
</g>
<!-- Node11 -->
<g id="Node000011" class="node">
<title>Node11</title>
<g id="a_Node000011"><a xlink:href="classzero__mate_1_1arm1176jzf__s_1_1isa_1_1CExtend.html#a012f2053c4d67990dac614de38ad3e25" target="_top" xlink:title="Creates an instance of the class.">
<polygon fill="white" stroke="#666666" points="155.5,-625 15.5,-625 15.5,-595 155.5,-595 155.5,-625"/>
<text text-anchor="start" x="23.5" y="-613" font-family="Helvetica,sans-Serif" font-size="10.00">zero_mate::arm1176jzf</text>
<text text-anchor="middle" x="85.5" y="-602" font-family="Helvetica,sans-Serif" font-size="10.00">_s::isa::CExtend::CExtend</text>
</a>
</g>
</g>
<!-- Node1&#45;&gt;Node11 -->
<g id="edge10_Node000001_Node000011" class="edge">
<title>Node1&#45;&gt;Node11</title>
<g id="a_edge10_Node000001_Node000011"><a xlink:title=" ">
<path fill="none" stroke="#63b8ff" d="M204.42,-574.93C193.3,-578.74 181.85,-582.56 171,-586 161.4,-589.04 151.14,-592.11 141.19,-594.98"/>
<polygon fill="#63b8ff" stroke="#63b8ff" points="205.78,-578.16 214.09,-571.58 203.49,-571.54 205.78,-578.16"/>
</a>
</g>
</g>
<!-- Node12 -->
<g id="Node000012" class="node">
<title>Node12</title>
<g id="a_Node000012"><a xlink:href="classzero__mate_1_1arm1176jzf__s_1_1isa_1_1CHalfword__Data__Transfer.html#aa1b7aabeade3143b665e1cb02baac9af" target="_top" xlink:title="Creates an instance of the class.">
<polygon fill="white" stroke="#666666" points="158.5,-577 12.5,-577 12.5,-525 158.5,-525 158.5,-577"/>
<text text-anchor="start" x="20.5" y="-565" font-family="Helvetica,sans-Serif" font-size="10.00">zero_mate::arm1176jzf</text>
<text text-anchor="start" x="20.5" y="-554" font-family="Helvetica,sans-Serif" font-size="10.00">_s::isa::CHalfword_Data</text>
<text text-anchor="start" x="20.5" y="-543" font-family="Helvetica,sans-Serif" font-size="10.00">_Transfer::CHalfword_Data</text>
<text text-anchor="middle" x="85.5" y="-532" font-family="Helvetica,sans-Serif" font-size="10.00">_Transfer</text>
</a>
</g>
</g>
<!-- Node1&#45;&gt;Node12 -->
<g id="edge11_Node000001_Node000012" class="edge">
<title>Node1&#45;&gt;Node12</title>
<g id="a_edge11_Node000001_Node000012"><a xlink:title=" ">
<path fill="none" stroke="#63b8ff" d="M196.97,-551C184.32,-551 171.2,-551 158.61,-551"/>
<polygon fill="#63b8ff" stroke="#63b8ff" points="196.99,-554.5 206.99,-551 196.99,-547.5 196.99,-554.5"/>
</a>
</g>
</g>
<!-- Node13 -->
<g id="Node000013" class="node">
<title>Node13</title>
<g id="a_Node000013"><a xlink:href="classzero__mate_1_1arm1176jzf__s_1_1isa_1_1CMultiply.html#abc30850917adde367b55e7f4c54324e2" target="_top" xlink:title="Creates an instance of the class.">
<polygon fill="white" stroke="#666666" points="161.5,-507 9.5,-507 9.5,-477 161.5,-477 161.5,-507"/>
<text text-anchor="start" x="17.5" y="-495" font-family="Helvetica,sans-Serif" font-size="10.00">zero_mate::arm1176jzf</text>
<text text-anchor="middle" x="85.5" y="-484" font-family="Helvetica,sans-Serif" font-size="10.00">_s::isa::CMultiply::CMultiply</text>
</a>
</g>
</g>
<!-- Node1&#45;&gt;Node13 -->
<g id="edge12_Node000001_Node000013" class="edge">
<title>Node1&#45;&gt;Node13</title>
<g id="a_edge12_Node000001_Node000013"><a xlink:title=" ">
<path fill="none" stroke="#63b8ff" d="M204.42,-527.07C193.3,-523.26 181.85,-519.44 171,-516 161.4,-512.96 151.14,-509.89 141.19,-507.02"/>
<polygon fill="#63b8ff" stroke="#63b8ff" points="203.49,-530.46 214.09,-530.42 205.78,-523.84 203.49,-530.46"/>
</a>
</g>
</g>
<!-- Node14 -->
<g id="Node000014" class="node">
<title>Node14</title>
<g id="a_Node000014"><a xlink:href="classzero__mate_1_1arm1176jzf__s_1_1isa_1_1CMultiply__Long.html#a408fee3fada26ed5ef79a58ff18506e5" target="_top" xlink:title="Creates an instance of the class.">
<polygon fill="white" stroke="#666666" points="150.5,-458.5 20.5,-458.5 20.5,-417.5 150.5,-417.5 150.5,-458.5"/>
<text text-anchor="start" x="28.5" y="-446.5" font-family="Helvetica,sans-Serif" font-size="10.00">zero_mate::arm1176jzf</text>
<text text-anchor="start" x="28.5" y="-435.5" font-family="Helvetica,sans-Serif" font-size="10.00">_s::isa::CMultiply_Long</text>
<text text-anchor="middle" x="85.5" y="-424.5" font-family="Helvetica,sans-Serif" font-size="10.00">::CMultiply_Long</text>
</a>
</g>
</g>
<!-- Node1&#45;&gt;Node14 -->
<g id="edge13_Node000001_Node000014" class="edge">
<title>Node1&#45;&gt;Node14</title>
<g id="a_edge13_Node000001_Node000014"><a xlink:title=" ">
<path fill="none" stroke="#63b8ff" d="M242.99,-523.13C223.98,-505.43 197.55,-483.09 171,-468 164.64,-464.38 157.77,-461.08 150.78,-458.11"/>
<polygon fill="#63b8ff" stroke="#63b8ff" points="240.74,-525.82 250.41,-530.15 245.55,-520.73 240.74,-525.82"/>
</a>
</g>
</g>
<!-- Node15 -->
<g id="Node000015" class="node">
<title>Node15</title>
<g id="a_Node000015"><a xlink:href="classzero__mate_1_1arm1176jzf__s_1_1isa_1_1CPSR__Transfer.html#ac8d8328d9bc45e281c062a7ea8e3bdfc" target="_top" xlink:title="Creates an instance of the class.">
<polygon fill="white" stroke="#666666" points="150.5,-399.5 20.5,-399.5 20.5,-358.5 150.5,-358.5 150.5,-399.5"/>
<text text-anchor="start" x="28.5" y="-387.5" font-family="Helvetica,sans-Serif" font-size="10.00">zero_mate::arm1176jzf</text>
<text text-anchor="start" x="28.5" y="-376.5" font-family="Helvetica,sans-Serif" font-size="10.00">_s::isa::CPSR_Transfer</text>
<text text-anchor="middle" x="85.5" y="-365.5" font-family="Helvetica,sans-Serif" font-size="10.00">::CPSR_Transfer</text>
</a>
</g>
</g>
<!-- Node1&#45;&gt;Node15 -->
<g id="edge14_Node000001_Node000015" class="edge">
<title>Node1&#45;&gt;Node15</title>
<g id="a_edge14_Node000001_Node000015"><a xlink:title=" ">
<path fill="none" stroke="#63b8ff" d="M256.94,-521.03C240.53,-489.06 210.51,-438.98 171,-409 164.8,-404.29 157.8,-400.28 150.54,-396.87"/>
<polygon fill="#63b8ff" stroke="#63b8ff" points="253.99,-522.95 261.6,-530.33 260.25,-519.82 253.99,-522.95"/>
</a>
</g>
</g>
<!-- Node16 -->
<g id="Node000016" class="node">
<title>Node16</title>
<g id="a_Node000016"><a xlink:href="classzero__mate_1_1arm1176jzf__s_1_1isa_1_1CRFE.html#a79c52e00518e3bf50f5815499e709e32" target="_top" xlink:title="Creates an instance of the class.">
<polygon fill="white" stroke="#666666" points="150.5,-340 20.5,-340 20.5,-310 150.5,-310 150.5,-340"/>
<text text-anchor="start" x="28.5" y="-328" font-family="Helvetica,sans-Serif" font-size="10.00">zero_mate::arm1176jzf</text>
<text text-anchor="middle" x="85.5" y="-317" font-family="Helvetica,sans-Serif" font-size="10.00">_s::isa::CRFE::CRFE</text>
</a>
</g>
</g>
<!-- Node1&#45;&gt;Node16 -->
<g id="edge15_Node000001_Node000016" class="edge">
<title>Node1&#45;&gt;Node16</title>
<g id="a_edge15_Node000001_Node000016"><a xlink:title=" ">
<path fill="none" stroke="#63b8ff" d="M264.01,-520.35C252.36,-476.21 224.75,-395.13 171,-350 165.02,-344.98 158.08,-340.97 150.78,-337.77"/>
<polygon fill="#63b8ff" stroke="#63b8ff" points="260.66,-521.38 266.51,-530.21 267.45,-519.66 260.66,-521.38"/>
</a>
</g>
</g>
<!-- Node17 -->
<g id="Node000017" class="node">
<title>Node17</title>
<g id="a_Node000017"><a xlink:href="classzero__mate_1_1arm1176jzf__s_1_1isa_1_1CSingle__Data__Transfer.html#ab14aef2f1825e2150fb6dc57a6c2b36e" target="_top" xlink:title="Creates an instance of the class.">
<polygon fill="white" stroke="#666666" points="151.5,-292 19.5,-292 19.5,-240 151.5,-240 151.5,-292"/>
<text text-anchor="start" x="27.5" y="-280" font-family="Helvetica,sans-Serif" font-size="10.00">zero_mate::arm1176jzf</text>
<text text-anchor="start" x="27.5" y="-269" font-family="Helvetica,sans-Serif" font-size="10.00">_s::isa::CSingle_Data</text>
<text text-anchor="start" x="27.5" y="-258" font-family="Helvetica,sans-Serif" font-size="10.00">_Transfer::CSingle_Data</text>
<text text-anchor="middle" x="85.5" y="-247" font-family="Helvetica,sans-Serif" font-size="10.00">_Transfer</text>
</a>
</g>
</g>
<!-- Node1&#45;&gt;Node17 -->
<g id="edge16_Node000001_Node000017" class="edge">
<title>Node1&#45;&gt;Node17</title>
<g id="a_edge16_Node000001_Node000017"><a xlink:title=" ">
<path fill="none" stroke="#63b8ff" d="M266.59,-520.34C257.63,-468.57 232.62,-363.38 171,-301 165.42,-295.35 158.8,-290.57 151.75,-286.54"/>
<polygon fill="#63b8ff" stroke="#63b8ff" points="263.15,-520.95 268.23,-530.25 270.05,-519.81 263.15,-520.95"/>
</a>
</g>
</g>
<!-- Node18 -->
<g id="Node000018" class="node">
<title>Node18</title>
<g id="a_Node000018"><a xlink:href="classzero__mate_1_1arm1176jzf__s_1_1isa_1_1CSMLAWy.html#a88765a48e4e4ffbbe28501765ab4e37d" target="_top" xlink:title="Creates an instance of the class.">
<polygon fill="white" stroke="#666666" points="164.5,-222 6.5,-222 6.5,-192 164.5,-192 164.5,-222"/>
<text text-anchor="start" x="14.5" y="-210" font-family="Helvetica,sans-Serif" font-size="10.00">zero_mate::arm1176jzf</text>
<text text-anchor="middle" x="85.5" y="-199" font-family="Helvetica,sans-Serif" font-size="10.00">_s::isa::CSMLAWy::CSMLAWy</text>
</a>
</g>
</g>
<!-- Node1&#45;&gt;Node18 -->
<g id="edge17_Node000001_Node000018" class="edge">
<title>Node1&#45;&gt;Node18</title>
<g id="a_edge17_Node000001_Node000018"><a xlink:title=" ">
<path fill="none" stroke="#63b8ff" d="M270.59,-520.23C268.02,-456.82 252.98,-310.86 171,-231 167.5,-227.59 163.56,-224.67 159.34,-222.15"/>
<polygon fill="#63b8ff" stroke="#63b8ff" points="267.09,-520.5 270.92,-530.38 274.09,-520.27 267.09,-520.5"/>
</a>
</g>
</g>
<!-- Node19 -->
<g id="Node000019" class="node">
<title>Node19</title>
<g id="a_Node000019"><a xlink:href="classzero__mate_1_1arm1176jzf__s_1_1isa_1_1CSMLAxy.html#a06e4535abdb0de48e9e9e69b2be183f7" target="_top" xlink:title="Creates an instance of the class.">
<polygon fill="white" stroke="#666666" points="161.5,-174 9.5,-174 9.5,-144 161.5,-144 161.5,-174"/>
<text text-anchor="start" x="17.5" y="-162" font-family="Helvetica,sans-Serif" font-size="10.00">zero_mate::arm1176jzf</text>
<text text-anchor="middle" x="85.5" y="-151" font-family="Helvetica,sans-Serif" font-size="10.00">_s::isa::CSMLAxy::CSMLAxy</text>
</a>
</g>
</g>
<!-- Node1&#45;&gt;Node19 -->
<g id="edge18_Node000001_Node000019" class="edge">
<title>Node1&#45;&gt;Node19</title>
<g id="a_edge18_Node000001_Node000019"><a xlink:title=" ">
<path fill="none" stroke="#63b8ff" d="M266.57,-520.2C254.56,-440.72 219,-231.55 171,-183 167.68,-179.64 163.92,-176.74 159.88,-174.24"/>
<polygon fill="#63b8ff" stroke="#63b8ff" points="263.11,-520.72 268.05,-530.09 270.04,-519.69 263.11,-520.72"/>
</a>
</g>
</g>
<!-- Node20 -->
<g id="Node000020" class="node">
<title>Node20</title>
<g id="a_Node000020"><a xlink:href="classzero__mate_1_1arm1176jzf__s_1_1isa_1_1CSMULWy.html#ae1dea64336553b5743ba6a728cd9a462" target="_top" xlink:title="Creates an instance of the class.">
<polygon fill="white" stroke="#666666" points="164.5,-126 6.5,-126 6.5,-96 164.5,-96 164.5,-126"/>
<text text-anchor="start" x="14.5" y="-114" font-family="Helvetica,sans-Serif" font-size="10.00">zero_mate::arm1176jzf</text>
<text text-anchor="middle" x="85.5" y="-103" font-family="Helvetica,sans-Serif" font-size="10.00">_s::isa::CSMULWy::CSMULWy</text>
</a>
</g>
</g>
<!-- Node1&#45;&gt;Node20 -->
<g id="edge19_Node000001_Node000020" class="edge">
<title>Node1&#45;&gt;Node20</title>
<g id="a_edge19_Node000001_Node000020"><a xlink:title=" ">
<path fill="none" stroke="#63b8ff" d="M267.64,-520.38C257.55,-434.02 224.89,-191.13 171,-135 167.73,-131.59 164.01,-128.65 160,-126.13"/>
<polygon fill="#63b8ff" stroke="#63b8ff" points="264.16,-520.81 268.78,-530.34 271.12,-520.01 264.16,-520.81"/>
</a>
</g>
</g>
<!-- Node21 -->
<g id="Node000021" class="node">
<title>Node21</title>
<g id="a_Node000021"><a xlink:href="classzero__mate_1_1arm1176jzf__s_1_1isa_1_1CSMULxy.html#ae096bd522f286fb8fe7f03be24e4b090" target="_top" xlink:title="Creates an instance of the class.">
<polygon fill="white" stroke="#666666" points="161.5,-78 9.5,-78 9.5,-48 161.5,-48 161.5,-78"/>
<text text-anchor="start" x="17.5" y="-66" font-family="Helvetica,sans-Serif" font-size="10.00">zero_mate::arm1176jzf</text>
<text text-anchor="middle" x="85.5" y="-55" font-family="Helvetica,sans-Serif" font-size="10.00">_s::isa::CSMULxy::CSMULxy</text>
</a>
</g>
</g>
<!-- Node1&#45;&gt;Node21 -->
<g id="edge20_Node000001_Node000021" class="edge">
<title>Node1&#45;&gt;Node21</title>
<g id="a_edge20_Node000001_Node000021"><a xlink:title=" ">
<path fill="none" stroke="#63b8ff" d="M268.43,-520.06C260.08,-426.75 230.7,-150.68 171,-87 167.77,-83.55 164.08,-80.59 160.09,-78.04"/>
<polygon fill="#63b8ff" stroke="#63b8ff" points="264.97,-520.6 269.33,-530.25 271.94,-519.99 264.97,-520.6"/>
</a>
</g>
</g>
<!-- Node22 -->
<g id="Node000022" class="node">
<title>Node22</title>
<g id="a_Node000022"><a xlink:href="classzero__mate_1_1arm1176jzf__s_1_1isa_1_1CSRS.html#a6b30d0a54171b3b227c068aa4f65b863" target="_top" xlink:title="Creates an instance of the class.">
<polygon fill="white" stroke="#666666" points="150.5,-30 20.5,-30 20.5,0 150.5,0 150.5,-30"/>
<text text-anchor="start" x="28.5" y="-18" font-family="Helvetica,sans-Serif" font-size="10.00">zero_mate::arm1176jzf</text>
<text text-anchor="middle" x="85.5" y="-7" font-family="Helvetica,sans-Serif" font-size="10.00">_s::isa::CSRS::CSRS</text>
</a>
</g>
</g>
<!-- Node1&#45;&gt;Node22 -->
<g id="edge21_Node000001_Node000022" class="edge">
<title>Node1&#45;&gt;Node22</title>
<g id="a_edge21_Node000001_Node000022"><a xlink:title=" ">
<path fill="none" stroke="#63b8ff" d="M269.12,-520.21C262.45,-420.75 236.65,-110.4 171,-39 165.43,-32.94 158.44,-28.37 150.9,-24.92"/>
<polygon fill="#63b8ff" stroke="#63b8ff" points="265.63,-520.47 269.78,-530.22 272.62,-520.01 265.63,-520.47"/>
</a>
</g>
</g>
</g>
</svg>
