<?xml version="1.0" encoding="UTF-8" standalone="no"?>
<!DOCTYPE svg PUBLIC "-//W3C//DTD SVG 1.1//EN"
 "http://www.w3.org/Graphics/SVG/1.1/DTD/svg11.dtd">
<!-- Generated by graphviz version 2.43.0 (0)
 -->
<!-- Title: zero_mate::peripheral::CMini_UART::UART_Receive_Stop_Bit Pages: 1 -->
<svg width="732pt" height="203pt"
 viewBox="0.00 0.00 732.00 202.50" xmlns="http://www.w3.org/2000/svg" xmlns:xlink="http://www.w3.org/1999/xlink">
<g id="graph0" class="graph" transform="scale(1 1) rotate(0) translate(4 198.5)">
<title>zero_mate::peripheral::CMini_UART::UART_Receive_Stop_Bit</title>
<!-- Node1 -->
<g id="Node000001" class="node">
<title>Node1</title>
<g id="a_Node000001"><a xlink:title="Receives a stop bit.">
<polygon fill="#999999" stroke="#666666" points="158,-95 0,-95 0,-54 158,-54 158,-95"/>
<text text-anchor="start" x="8" y="-83" font-family="Helvetica,sans-Serif" font-size="10.00">zero_mate::peripheral</text>
<text text-anchor="start" x="8" y="-72" font-family="Helvetica,sans-Serif" font-size="10.00">::CMini_UART::UART_Receive</text>
<text text-anchor="middle" x="79" y="-61" font-family="Helvetica,sans-Serif" font-size="10.00">_Stop_Bit</text>
</a>
</g>
</g>
<!-- Node2 -->
<g id="Node000002" class="node">
<title>Node2</title>
<g id="a_Node000002"><a xlink:href="classzero__mate_1_1utils_1_1CLogging__System.html#a57ed77e1a5cf822cea532cc5e05c3f60" target="_top" xlink:title="Logs an error message via all registered loggers.">
<polygon fill="white" stroke="#666666" points="340,-143.5 194,-143.5 194,-113.5 340,-113.5 340,-143.5"/>
<text text-anchor="start" x="202" y="-131.5" font-family="Helvetica,sans-Serif" font-size="10.00">zero_mate::utils::CLogging</text>
<text text-anchor="middle" x="267" y="-120.5" font-family="Helvetica,sans-Serif" font-size="10.00">_System::Error</text>
</a>
</g>
</g>
<!-- Node1&#45;&gt;Node2 -->
<g id="edge1_Node000001_Node000002" class="edge">
<title>Node1&#45;&gt;Node2</title>
<g id="a_edge1_Node000001_Node000002"><a xlink:title=" ">
<path fill="none" stroke="#63b8ff" d="M150.85,-95.07C168.44,-100.18 187.16,-105.61 204.27,-110.58"/>
<polygon fill="#63b8ff" stroke="#63b8ff" points="203.57,-114.02 214.15,-113.45 205.52,-107.3 203.57,-114.02"/>
</a>
</g>
</g>
<!-- Node7 -->
<g id="Node000007" class="node">
<title>Node7</title>
<g id="a_Node000007"><a xlink:href="classzero__mate_1_1peripheral_1_1CMini__UART.html#aafdd369ea20fb588fdba59b98e20b3b8" target="_top" xlink:title="Returns information about a receive interrupt is enabled.">
<polygon fill="white" stroke="#666666" points="337,-95 197,-95 197,-54 337,-54 337,-95"/>
<text text-anchor="start" x="205" y="-83" font-family="Helvetica,sans-Serif" font-size="10.00">zero_mate::peripheral</text>
<text text-anchor="start" x="205" y="-72" font-family="Helvetica,sans-Serif" font-size="10.00">::CMini_UART::Is_Receive</text>
<text text-anchor="middle" x="267" y="-61" font-family="Helvetica,sans-Serif" font-size="10.00">_Interrupt_Enabled</text>
</a>
</g>
</g>
<!-- Node1&#45;&gt;Node7 -->
<g id="edge6_Node000001_Node000007" class="edge">
<title>Node1&#45;&gt;Node7</title>
<g id="a_edge6_Node000001_Node000007"><a xlink:title=" ">
<path fill="none" stroke="#63b8ff" d="M158.07,-74.5C167.56,-74.5 177.27,-74.5 186.78,-74.5"/>
<polygon fill="#63b8ff" stroke="#63b8ff" points="187,-78 197,-74.5 187,-71 187,-78"/>
</a>
</g>
</g>
<!-- Node8 -->
<g id="Node000008" class="node">
<title>Node8</title>
<g id="a_Node000008"><a xlink:href="classzero__mate_1_1peripheral_1_1CMini__UART.html#a8711d81118c89d5174a68d5b63ad3fac" target="_top" xlink:title="Triggers an interrupt.">
<polygon fill="white" stroke="#666666" points="338.5,-35.5 195.5,-35.5 195.5,-5.5 338.5,-5.5 338.5,-35.5"/>
<text text-anchor="start" x="203.5" y="-23.5" font-family="Helvetica,sans-Serif" font-size="10.00">zero_mate::peripheral</text>
<text text-anchor="middle" x="267" y="-12.5" font-family="Helvetica,sans-Serif" font-size="10.00">::CMini_UART::Trigger_IRQ</text>
</a>
</g>
</g>
<!-- Node1&#45;&gt;Node8 -->
<g id="edge7_Node000001_Node000008" class="edge">
<title>Node1&#45;&gt;Node8</title>
<g id="a_edge7_Node000001_Node000008"><a xlink:title=" ">
<path fill="none" stroke="#63b8ff" d="M150.85,-53.93C168.44,-48.82 187.16,-43.39 204.27,-38.42"/>
<polygon fill="#63b8ff" stroke="#63b8ff" points="205.52,-41.7 214.15,-35.55 203.57,-34.98 205.52,-41.7"/>
</a>
</g>
</g>
<!-- Node3 -->
<g id="Node000003" class="node">
<title>Node3</title>
<g id="a_Node000003"><a xlink:href="classzero__mate_1_1utils_1_1CLogging__System.html#a71ed11c796553cbe8fd99773406a1060" target="_top" xlink:title="Creates a formatted message to be logged.">
<polygon fill="white" stroke="#666666" points="528,-176 376,-176 376,-135 528,-135 528,-176"/>
<text text-anchor="start" x="384" y="-164" font-family="Helvetica,sans-Serif" font-size="10.00">zero_mate::utils::CLogging</text>
<text text-anchor="start" x="384" y="-153" font-family="Helvetica,sans-Serif" font-size="10.00">_System::Create_Formatted</text>
<text text-anchor="middle" x="452" y="-142" font-family="Helvetica,sans-Serif" font-size="10.00">_Log_Msg</text>
</a>
</g>
</g>
<!-- Node2&#45;&gt;Node3 -->
<g id="edge2_Node000002_Node000003" class="edge">
<title>Node2&#45;&gt;Node3</title>
<g id="a_edge2_Node000002_Node000003"><a xlink:title=" ">
<path fill="none" stroke="#63b8ff" d="M340.06,-139.13C348.55,-140.38 357.26,-141.67 365.9,-142.94"/>
<polygon fill="#63b8ff" stroke="#63b8ff" points="365.59,-146.44 375.99,-144.43 366.61,-139.51 365.59,-146.44"/>
</a>
</g>
</g>
<!-- Node6 -->
<g id="Node000006" class="node">
<title>Node6</title>
<g id="a_Node000006"><a xlink:href="classzero__mate_1_1utils_1_1CLogging__System.html#ad371c67ef65763966ccf9291002e86f3" target="_top" xlink:title="Extract the filename from a given location within the source files.">
<polygon fill="white" stroke="#666666" points="526.5,-116.5 377.5,-116.5 377.5,-86.5 526.5,-86.5 526.5,-116.5"/>
<text text-anchor="start" x="385.5" y="-104.5" font-family="Helvetica,sans-Serif" font-size="10.00">zero_mate::utils::CLogging</text>
<text text-anchor="middle" x="452" y="-93.5" font-family="Helvetica,sans-Serif" font-size="10.00">_System::Extract_Filename</text>
</a>
</g>
</g>
<!-- Node2&#45;&gt;Node6 -->
<g id="edge5_Node000002_Node000006" class="edge">
<title>Node2&#45;&gt;Node6</title>
<g id="a_edge5_Node000002_Node000006"><a xlink:title=" ">
<path fill="none" stroke="#63b8ff" d="M340.06,-117.87C349.1,-116.53 358.4,-115.16 367.59,-113.81"/>
<polygon fill="#63b8ff" stroke="#63b8ff" points="368.12,-117.27 377.5,-112.34 367.1,-110.34 368.12,-117.27"/>
</a>
</g>
</g>
<!-- Node4 -->
<g id="Node000004" class="node">
<title>Node4</title>
<g id="a_Node000004"><a xlink:href="classzero__mate_1_1utils_1_1CLogging__System.html#aa70c102c805079042ffea2a6f2a5ad64" target="_top" xlink:title="Formats a given timestamp.">
<polygon fill="white" stroke="#666666" points="724,-194.5 564,-194.5 564,-164.5 724,-164.5 724,-194.5"/>
<text text-anchor="start" x="572" y="-182.5" font-family="Helvetica,sans-Serif" font-size="10.00">zero_mate::utils::CLogging</text>
<text text-anchor="middle" x="644" y="-171.5" font-family="Helvetica,sans-Serif" font-size="10.00">_System::Format_Timestamp</text>
</a>
</g>
</g>
<!-- Node3&#45;&gt;Node4 -->
<g id="edge3_Node000003_Node000004" class="edge">
<title>Node3&#45;&gt;Node4</title>
<g id="a_edge3_Node000003_Node000004"><a xlink:title=" ">
<path fill="none" stroke="#63b8ff" d="M528.09,-164.99C536.52,-166.05 545.16,-167.14 553.74,-168.23"/>
<polygon fill="#63b8ff" stroke="#63b8ff" points="553.41,-171.71 563.77,-169.49 554.29,-164.77 553.41,-171.71"/>
</a>
</g>
</g>
<!-- Node5 -->
<g id="Node000005" class="node">
<title>Node5</title>
<g id="a_Node000005"><a xlink:href="classzero__mate_1_1utils_1_1CLogging__System.html#ae3ca637537dde05e0b9119145c840331" target="_top" xlink:title="Returns the current timestamp that will be used in a log message.">
<polygon fill="white" stroke="#666666" points="717,-146.5 571,-146.5 571,-116.5 717,-116.5 717,-146.5"/>
<text text-anchor="start" x="579" y="-134.5" font-family="Helvetica,sans-Serif" font-size="10.00">zero_mate::utils::CLogging</text>
<text text-anchor="middle" x="644" y="-123.5" font-family="Helvetica,sans-Serif" font-size="10.00">_System::Get_Timestamp</text>
</a>
</g>
</g>
<!-- Node3&#45;&gt;Node5 -->
<g id="edge4_Node000003_Node000005" class="edge">
<title>Node3&#45;&gt;Node5</title>
<g id="a_edge4_Node000003_Node000005"><a xlink:title=" ">
<path fill="none" stroke="#63b8ff" d="M528.09,-146.01C538.89,-144.65 550.05,-143.24 560.98,-141.86"/>
<polygon fill="#63b8ff" stroke="#63b8ff" points="561.45,-145.33 570.93,-140.6 560.57,-138.38 561.45,-145.33"/>
</a>
</g>
</g>
<!-- Node9 -->
<g id="Node000009" class="node">
<title>Node9</title>
<g id="a_Node000009"><a xlink:href="classzero__mate_1_1peripheral_1_1CMini__UART.html#aeedc743fe9b70dfb0019b775e2ea714a" target="_top" xlink:title="Sets the type of a pending IRQ in the IIR register.">
<polygon fill="white" stroke="#666666" points="525.5,-41 378.5,-41 378.5,0 525.5,0 525.5,-41"/>
<text text-anchor="start" x="386.5" y="-29" font-family="Helvetica,sans-Serif" font-size="10.00">zero_mate::peripheral</text>
<text text-anchor="start" x="386.5" y="-18" font-family="Helvetica,sans-Serif" font-size="10.00">::CMini_UART::Set_Pending</text>
<text text-anchor="middle" x="452" y="-7" font-family="Helvetica,sans-Serif" font-size="10.00">_IRQ_Type</text>
</a>
</g>
</g>
<!-- Node8&#45;&gt;Node9 -->
<g id="edge8_Node000008_Node000009" class="edge">
<title>Node8&#45;&gt;Node9</title>
<g id="a_edge8_Node000008_Node000009"><a xlink:title=" ">
<path fill="none" stroke="#63b8ff" d="M338.75,-20.5C348.38,-20.5 358.34,-20.5 368.15,-20.5"/>
<polygon fill="#63b8ff" stroke="#63b8ff" points="368.32,-24 378.32,-20.5 368.32,-17 368.32,-24"/>
</a>
</g>
</g>
</g>
</svg>
