<?xml version="1.0" encoding="UTF-8" standalone="no"?>
<!DOCTYPE svg PUBLIC "-//W3C//DTD SVG 1.1//EN"
 "http://www.w3.org/Graphics/SVG/1.1/DTD/svg11.dtd">
<!-- Generated by graphviz version 2.43.0 (0)
 -->
<!-- Title: zero_mate::gui::CLog_Window::Render_Message_Area Pages: 1 -->
<svg width="584pt" height="108pt"
 viewBox="0.00 0.00 584.00 108.00" xmlns="http://www.w3.org/2000/svg" xmlns:xlink="http://www.w3.org/1999/xlink">
<g id="graph0" class="graph" transform="scale(1 1) rotate(0) translate(4 104)">
<title>zero_mate::gui::CLog_Window::Render_Message_Area</title>
<!-- Node1 -->
<g id="Node000001" class="node">
<title>Node1</title>
<g id="a_Node000001"><a xlink:title="Renders the message scrolling area.">
<polygon fill="#999999" stroke="#666666" points="177,-64.5 0,-64.5 0,-34.5 177,-34.5 177,-64.5"/>
<text text-anchor="start" x="8" y="-52.5" font-family="Helvetica,sans-Serif" font-size="10.00">zero_mate::gui::CLog</text>
<text text-anchor="middle" x="88.5" y="-41.5" font-family="Helvetica,sans-Serif" font-size="10.00">_Window::Render_Message_Area</text>
</a>
</g>
</g>
<!-- Node2 -->
<g id="Node000002" class="node">
<title>Node2</title>
<g id="a_Node000002"><a xlink:href="classzero__mate_1_1gui_1_1CLog__Window.html#a67b875f7111438d9100d927992e27c4f" target="_top" xlink:title="Renders all log messages (no filter activated).">
<polygon fill="white" stroke="#666666" points="355,-100 214,-100 214,-59 355,-59 355,-100"/>
<text text-anchor="start" x="222" y="-88" font-family="Helvetica,sans-Serif" font-size="10.00">zero_mate::gui::CLog</text>
<text text-anchor="start" x="222" y="-77" font-family="Helvetica,sans-Serif" font-size="10.00">_Window::Render_All_Log</text>
<text text-anchor="middle" x="284.5" y="-66" font-family="Helvetica,sans-Serif" font-size="10.00">_Messages</text>
</a>
</g>
</g>
<!-- Node1&#45;&gt;Node2 -->
<g id="edge1_Node000001_Node000002" class="edge">
<title>Node1&#45;&gt;Node2</title>
<g id="a_edge1_Node000001_Node000002"><a xlink:title=" ">
<path fill="none" stroke="#63b8ff" d="M177.14,-63.05C186.11,-64.44 195.19,-65.84 204.07,-67.22"/>
<polygon fill="#63b8ff" stroke="#63b8ff" points="203.57,-70.68 213.99,-68.75 204.64,-63.76 203.57,-70.68"/>
</a>
</g>
</g>
<!-- Node5 -->
<g id="Node000005" class="node">
<title>Node5</title>
<g id="a_Node000005"><a xlink:href="classzero__mate_1_1gui_1_1CLog__Window.html#adb7453fd69db4264b631251e48b68201" target="_top" xlink:title="Renders log messages that satisfy the criteria given by a message filter.">
<polygon fill="white" stroke="#666666" points="356,-41 213,-41 213,0 356,0 356,-41"/>
<text text-anchor="start" x="221" y="-29" font-family="Helvetica,sans-Serif" font-size="10.00">zero_mate::gui::CLog</text>
<text text-anchor="start" x="221" y="-18" font-family="Helvetica,sans-Serif" font-size="10.00">_Window::Render_Filtered</text>
<text text-anchor="middle" x="284.5" y="-7" font-family="Helvetica,sans-Serif" font-size="10.00">_Log_Messages</text>
</a>
</g>
</g>
<!-- Node1&#45;&gt;Node5 -->
<g id="edge4_Node000001_Node000005" class="edge">
<title>Node1&#45;&gt;Node5</title>
<g id="a_edge4_Node000001_Node000005"><a xlink:title=" ">
<path fill="none" stroke="#63b8ff" d="M177.14,-36.4C185.72,-35.12 194.41,-33.82 202.92,-32.54"/>
<polygon fill="#63b8ff" stroke="#63b8ff" points="203.45,-36.01 212.82,-31.07 202.41,-29.08 203.45,-36.01"/>
</a>
</g>
</g>
<!-- Node3 -->
<g id="Node000003" class="node">
<title>Node3</title>
<g id="a_Node000003"><a xlink:href="classzero__mate_1_1gui_1_1CCircular__Log__Buffer.html#a6881d9292ac339ecee1a025426bb708b" target="_top" xlink:title="Returns a collection of log messages currently stored in the buffer.">
<polygon fill="white" stroke="#666666" points="554,-91.5 414,-91.5 414,-61.5 554,-61.5 554,-91.5"/>
<text text-anchor="start" x="422" y="-79.5" font-family="Helvetica,sans-Serif" font-size="10.00">zero_mate::gui::CCircular</text>
<text text-anchor="middle" x="484" y="-68.5" font-family="Helvetica,sans-Serif" font-size="10.00">_Log_Buffer::Get_Data</text>
</a>
</g>
</g>
<!-- Node2&#45;&gt;Node3 -->
<g id="edge2_Node000002_Node000003" class="edge">
<title>Node2&#45;&gt;Node3</title>
<g id="a_edge2_Node000002_Node000003"><a xlink:title=" ">
<path fill="none" stroke="#63b8ff" d="M355.13,-78.44C370.8,-78.2 387.54,-77.95 403.58,-77.71"/>
<polygon fill="#63b8ff" stroke="#63b8ff" points="404.05,-81.2 414,-77.55 403.95,-74.2 404.05,-81.2"/>
</a>
</g>
</g>
<!-- Node4 -->
<g id="Node000004" class="node">
<title>Node4</title>
<g id="a_Node000004"><a xlink:href="classzero__mate_1_1gui_1_1CLog__Window.html#acd4c871dccefcf04fb9b3bb8973086c0" target="_top" xlink:title="Sets the color of a log message based on its type (error, info, etc.)">
<polygon fill="white" stroke="#666666" points="576,-40.5 392,-40.5 392,-10.5 576,-10.5 576,-40.5"/>
<text text-anchor="start" x="400" y="-28.5" font-family="Helvetica,sans-Serif" font-size="10.00">zero_mate::gui::CLog</text>
<text text-anchor="middle" x="484" y="-17.5" font-family="Helvetica,sans-Serif" font-size="10.00">_Window::Set_Log_Message_Color</text>
</a>
</g>
</g>
<!-- Node2&#45;&gt;Node4 -->
<g id="edge3_Node000002_Node000004" class="edge">
<title>Node2&#45;&gt;Node4</title>
<g id="a_edge3_Node000002_Node000004"><a xlink:title=" ">
<path fill="none" stroke="#63b8ff" d="M355.13,-60.46C375.65,-54.85 398.01,-48.74 418.21,-43.21"/>
<polygon fill="#63b8ff" stroke="#63b8ff" points="419.22,-46.57 427.94,-40.55 417.37,-39.82 419.22,-46.57"/>
</a>
</g>
</g>
<!-- Node5&#45;&gt;Node3 -->
<g id="edge5_Node000005_Node000003" class="edge">
<title>Node5&#45;&gt;Node3</title>
<g id="a_edge5_Node000005_Node000003"><a xlink:title=" ">
<path fill="none" stroke="#63b8ff" d="M356.24,-40.56C377.08,-46.47 399.72,-52.89 420.03,-58.64"/>
<polygon fill="#63b8ff" stroke="#63b8ff" points="419.22,-62.05 429.79,-61.41 421.13,-55.32 419.22,-62.05"/>
</a>
</g>
</g>
<!-- Node5&#45;&gt;Node4 -->
<g id="edge6_Node000005_Node000004" class="edge">
<title>Node5&#45;&gt;Node4</title>
<g id="a_edge6_Node000005_Node000004"><a xlink:title=" ">
<path fill="none" stroke="#63b8ff" d="M356.24,-22.29C364.52,-22.5 373.08,-22.72 381.66,-22.93"/>
<polygon fill="#63b8ff" stroke="#63b8ff" points="381.65,-26.44 391.74,-23.19 381.83,-19.44 381.65,-26.44"/>
</a>
</g>
</g>
</g>
</svg>
