<?xml version="1.0" encoding="UTF-8" standalone="no"?>
<!DOCTYPE svg PUBLIC "-//W3C//DTD SVG 1.1//EN"
 "http://www.w3.org/Graphics/SVG/1.1/DTD/svg11.dtd">
<!-- Generated by graphviz version 2.43.0 (0)
 -->
<!-- Title: zero_mate::coprocessor::ICoprocessor Pages: 1 -->
<svg width="177pt" height="192pt"
 viewBox="0.00 0.00 177.00 192.00" xmlns="http://www.w3.org/2000/svg" xmlns:xlink="http://www.w3.org/1999/xlink">
<g id="graph0" class="graph" transform="scale(1 1) rotate(0) translate(4 188)">
<title>zero_mate::coprocessor::ICoprocessor</title>
<!-- Node1 -->
<g id="Node000001" class="node">
<title>Node1</title>
<g id="a_Node000001"><a xlink:title="This class represents an interface of a coprocessor.">
<polygon fill="#999999" stroke="#666666" points="139.5,-30 6.5,-30 6.5,0 139.5,0 139.5,-30"/>
<text text-anchor="start" x="14.5" y="-18" font-family="Helvetica,sans-Serif" font-size="10.00">zero_mate::coprocessor</text>
<text text-anchor="middle" x="73" y="-7" font-family="Helvetica,sans-Serif" font-size="10.00">::ICoprocessor</text>
</a>
</g>
</g>
<!-- Node2 -->
<g id="Node000002" class="node">
<title>Node2</title>
<g id="a_Node000002"><a xlink:href="classzero__mate_1_1arm1176jzf__s_1_1CCPU__Context.html" target="_top" xlink:title="This class represents the context (registers) of the CPU.">
<polygon fill="white" stroke="#666666" points="138,-107 8,-107 8,-77 138,-77 138,-107"/>
<text text-anchor="start" x="16" y="-95" font-family="Helvetica,sans-Serif" font-size="10.00">zero_mate::arm1176jzf</text>
<text text-anchor="middle" x="73" y="-84" font-family="Helvetica,sans-Serif" font-size="10.00">_s::CCPU_Context</text>
</a>
</g>
</g>
<!-- Node2&#45;&gt;Node1 -->
<g id="edge1_Node000001_Node000002" class="edge">
<title>Node2&#45;&gt;Node1</title>
<g id="a_edge1_Node000001_Node000002"><a xlink:title=" ">
<path fill="none" stroke="#9a32cd" stroke-dasharray="5,2" d="M73,-66.54C73,-54.45 73,-40.29 73,-30.04"/>
<polygon fill="#9a32cd" stroke="#9a32cd" points="69.5,-66.89 73,-76.89 76.5,-66.89 69.5,-66.89"/>
</a>
</g>
<text text-anchor="middle" x="112" y="-51" font-family="Helvetica,sans-Serif" font-size="10.00" fill="grey"> m_cpu_context</text>
</g>
<!-- Node3 -->
<g id="Node000003" class="node">
<title>Node3</title>
<g id="a_Node000003"><a xlink:href="classzero__mate_1_1utils_1_1CLogging__System.html" target="_top" xlink:title="This class defines a logging system that is used throughout the project.">
<polygon fill="white" stroke="#666666" points="146,-184 0,-184 0,-154 146,-154 146,-184"/>
<text text-anchor="start" x="8" y="-172" font-family="Helvetica,sans-Serif" font-size="10.00">zero_mate::utils::CLogging</text>
<text text-anchor="middle" x="73" y="-161" font-family="Helvetica,sans-Serif" font-size="10.00">_System</text>
</a>
</g>
</g>
<!-- Node3&#45;&gt;Node2 -->
<g id="edge2_Node000002_Node000003" class="edge">
<title>Node3&#45;&gt;Node2</title>
<g id="a_edge2_Node000002_Node000003"><a xlink:title=" ">
<path fill="none" stroke="#9a32cd" stroke-dasharray="5,2" d="M73,-143.54C73,-131.45 73,-117.29 73,-107.04"/>
<polygon fill="#9a32cd" stroke="#9a32cd" points="69.5,-143.89 73,-153.89 76.5,-143.89 69.5,-143.89"/>
</a>
</g>
<text text-anchor="middle" x="121" y="-128" font-family="Helvetica,sans-Serif" font-size="10.00" fill="grey"> m_logging_system</text>
</g>
</g>
</svg>
