<?xml version="1.0" encoding="UTF-8" standalone="no"?>
<!DOCTYPE svg PUBLIC "-//W3C//DTD SVG 1.1//EN"
 "http://www.w3.org/Graphics/SVG/1.1/DTD/svg11.dtd">
<!-- Generated by graphviz version 2.43.0 (0)
 -->
<!-- Title: zero_mate::peripheral::CGPIO_Manager::Write Pages: 1 -->
<svg width="899pt" height="319pt"
 viewBox="0.00 0.00 899.00 319.00" xmlns="http://www.w3.org/2000/svg" xmlns:xlink="http://www.w3.org/1999/xlink">
<g id="graph0" class="graph" transform="scale(1 1) rotate(0) translate(4 315)">
<title>zero_mate::peripheral::CGPIO_Manager::Write</title>
<!-- Node1 -->
<g id="Node000001" class="node">
<title>Node1</title>
<g id="a_Node000001"><a xlink:title="Writes data to the peripheral (IPeripheral interface).">
<polygon fill="#999999" stroke="#666666" points="134,-197.5 0,-197.5 0,-167.5 134,-167.5 134,-197.5"/>
<text text-anchor="start" x="8" y="-185.5" font-family="Helvetica,sans-Serif" font-size="10.00">zero_mate::peripheral</text>
<text text-anchor="middle" x="67" y="-174.5" font-family="Helvetica,sans-Serif" font-size="10.00">::CGPIO_Manager::Write</text>
</a>
</g>
</g>
<!-- Node2 -->
<g id="Node000002" class="node">
<title>Node2</title>
<g id="a_Node000002"><a xlink:href="classzero__mate_1_1peripheral_1_1CGPIO__Manager.html#a4a4e9cf470ed6f7dbfb3ada75d35e47c" target="_top" xlink:title="Clears a pending interrupt by writing a 1 to the GPEDS register.">
<polygon fill="white" stroke="#666666" points="325,-251.5 170,-251.5 170,-221.5 325,-221.5 325,-251.5"/>
<text text-anchor="start" x="178" y="-239.5" font-family="Helvetica,sans-Serif" font-size="10.00">zero_mate::peripheral</text>
<text text-anchor="middle" x="247.5" y="-228.5" font-family="Helvetica,sans-Serif" font-size="10.00">::CGPIO_Manager::Clear_IRQ</text>
</a>
</g>
</g>
<!-- Node1&#45;&gt;Node2 -->
<g id="edge1_Node000001_Node000002" class="edge">
<title>Node1&#45;&gt;Node2</title>
<g id="a_edge1_Node000001_Node000002"><a xlink:title=" ">
<path fill="none" stroke="#63b8ff" d="M117.72,-197.54C139.2,-204.04 164.5,-211.69 186.97,-218.49"/>
<polygon fill="#63b8ff" stroke="#63b8ff" points="186.15,-221.9 196.74,-221.45 188.18,-215.2 186.15,-221.9"/>
</a>
</g>
</g>
<!-- Node10 -->
<g id="Node000010" class="node">
<title>Node10</title>
<g id="a_Node000010"><a xlink:href="classzero__mate_1_1peripheral_1_1CGPIO__Manager.html#ad29d57528b73baef90b0ca885a297e4d" target="_top" xlink:title="Enables/disables an interrupt for all pins within a given register.">
<polygon fill="white" stroke="#666666" points="309.5,-203 185.5,-203 185.5,-162 309.5,-162 309.5,-203"/>
<text text-anchor="start" x="193.5" y="-191" font-family="Helvetica,sans-Serif" font-size="10.00">zero_mate::peripheral</text>
<text text-anchor="start" x="193.5" y="-180" font-family="Helvetica,sans-Serif" font-size="10.00">::CGPIO_Manager::Set</text>
<text text-anchor="middle" x="247.5" y="-169" font-family="Helvetica,sans-Serif" font-size="10.00">_Interrupt</text>
</a>
</g>
</g>
<!-- Node1&#45;&gt;Node10 -->
<g id="edge9_Node000001_Node000010" class="edge">
<title>Node1&#45;&gt;Node10</title>
<g id="a_edge9_Node000001_Node000010"><a xlink:title=" ">
<path fill="none" stroke="#63b8ff" d="M134.21,-182.5C147.57,-182.5 161.68,-182.5 175.2,-182.5"/>
<polygon fill="#63b8ff" stroke="#63b8ff" points="175.41,-186 185.41,-182.5 175.41,-179 175.41,-186"/>
</a>
</g>
</g>
<!-- Node11 -->
<g id="Node000011" class="node">
<title>Node11</title>
<g id="a_Node000011"><a xlink:href="classzero__mate_1_1peripheral_1_1CGPIO__Manager.html#ad7c6aa486cf3b116ffae9f16eec64064" target="_top" xlink:title="Updates the function of all pins within a given register.">
<polygon fill="white" stroke="#666666" points="319,-311 176,-311 176,-270 319,-270 319,-311"/>
<text text-anchor="start" x="184" y="-299" font-family="Helvetica,sans-Serif" font-size="10.00">zero_mate::peripheral</text>
<text text-anchor="start" x="184" y="-288" font-family="Helvetica,sans-Serif" font-size="10.00">::CGPIO_Manager::Update</text>
<text text-anchor="middle" x="247.5" y="-277" font-family="Helvetica,sans-Serif" font-size="10.00">_Pin_Function</text>
</a>
</g>
</g>
<!-- Node1&#45;&gt;Node11 -->
<g id="edge12_Node000001_Node000011" class="edge">
<title>Node1&#45;&gt;Node11</title>
<g id="a_edge12_Node000001_Node000011"><a xlink:title=" ">
<path fill="none" stroke="#63b8ff" d="M84.65,-197.6C104.04,-214.6 137.57,-242.22 170,-260.5 173.08,-262.23 176.27,-263.91 179.54,-265.53"/>
<polygon fill="#63b8ff" stroke="#63b8ff" points="178.34,-268.83 188.87,-269.93 181.32,-262.5 178.34,-268.83"/>
</a>
</g>
</g>
<!-- Node12 -->
<g id="Node000012" class="node">
<title>Node12</title>
<g id="a_Node000012"><a xlink:href="classzero__mate_1_1peripheral_1_1CGPIO__Manager.html#ae93785da50eefb8a8cc21c1c59a32726" target="_top" xlink:title="Updates the state of all pins within a given register.">
<polygon fill="white" stroke="#666666" points="319,-144 176,-144 176,-103 319,-103 319,-144"/>
<text text-anchor="start" x="184" y="-132" font-family="Helvetica,sans-Serif" font-size="10.00">zero_mate::peripheral</text>
<text text-anchor="start" x="184" y="-121" font-family="Helvetica,sans-Serif" font-size="10.00">::CGPIO_Manager::Update</text>
<text text-anchor="middle" x="247.5" y="-110" font-family="Helvetica,sans-Serif" font-size="10.00">_Pin_State</text>
</a>
</g>
</g>
<!-- Node1&#45;&gt;Node12 -->
<g id="edge14_Node000001_Node000012" class="edge">
<title>Node1&#45;&gt;Node12</title>
<g id="a_edge14_Node000001_Node000012"><a xlink:title=" ">
<path fill="none" stroke="#63b8ff" d="M113.5,-167.46C132.05,-161.33 153.95,-154.09 174.56,-147.28"/>
<polygon fill="#63b8ff" stroke="#63b8ff" points="175.85,-150.54 184.24,-144.08 173.65,-143.89 175.85,-150.54"/>
</a>
</g>
</g>
<!-- Node16 -->
<g id="Node000016" class="node">
<title>Node16</title>
<g id="a_Node000016"><a xlink:href="classzero__mate_1_1utils_1_1CLogging__System.html#a2bb4d37b178f29335f726875bad91bd4" target="_top" xlink:title="Logs a warning message via all registered loggers.">
<polygon fill="white" stroke="#666666" points="507,-89.5 361,-89.5 361,-59.5 507,-59.5 507,-89.5"/>
<text text-anchor="start" x="369" y="-77.5" font-family="Helvetica,sans-Serif" font-size="10.00">zero_mate::utils::CLogging</text>
<text text-anchor="middle" x="434" y="-66.5" font-family="Helvetica,sans-Serif" font-size="10.00">_System::Warning</text>
</a>
</g>
</g>
<!-- Node1&#45;&gt;Node16 -->
<g id="edge23_Node000001_Node000016" class="edge">
<title>Node1&#45;&gt;Node16</title>
<g id="a_edge23_Node000001_Node000016"><a xlink:title=" ">
<path fill="none" stroke="#63b8ff" d="M79.93,-167.42C97.26,-146.78 131.56,-110.48 170,-94.5 227.2,-70.73 297.39,-66.49 350.87,-67.79"/>
<polygon fill="#63b8ff" stroke="#63b8ff" points="350.89,-71.29 360.99,-68.1 351.11,-64.29 350.89,-71.29"/>
</a>
</g>
</g>
<!-- Node3 -->
<g id="Node000003" class="node">
<title>Node3</title>
<g id="a_Node000003"><a xlink:href="classzero__mate_1_1utils_1_1CLogging__System.html#ade996da881888272ace7deaa82c975e9" target="_top" xlink:title="Logs a debug message via all registered loggers.">
<polygon fill="white" stroke="#666666" points="507,-245.5 361,-245.5 361,-215.5 507,-215.5 507,-245.5"/>
<text text-anchor="start" x="369" y="-233.5" font-family="Helvetica,sans-Serif" font-size="10.00">zero_mate::utils::CLogging</text>
<text text-anchor="middle" x="434" y="-222.5" font-family="Helvetica,sans-Serif" font-size="10.00">_System::Debug</text>
</a>
</g>
</g>
<!-- Node2&#45;&gt;Node3 -->
<g id="edge2_Node000002_Node000003" class="edge">
<title>Node2&#45;&gt;Node3</title>
<g id="a_edge2_Node000002_Node000003"><a xlink:title=" ">
<path fill="none" stroke="#63b8ff" d="M325.14,-234.01C333.52,-233.74 342.07,-233.46 350.51,-233.18"/>
<polygon fill="#63b8ff" stroke="#63b8ff" points="350.86,-236.67 360.74,-232.85 350.63,-229.68 350.86,-236.67"/>
</a>
</g>
</g>
<!-- Node8 -->
<g id="Node000008" class="node">
<title>Node8</title>
<g id="a_Node000008"><a xlink:href="classzero__mate_1_1peripheral_1_1CInterrupt__Controller.html#a35b97d4871edb1ee3a0fbda305c58b95" target="_top" xlink:title="Returns the corresponding IRQ source for a given GPIO pin.">
<polygon fill="white" stroke="#666666" points="496.5,-305 371.5,-305 371.5,-264 496.5,-264 496.5,-305"/>
<text text-anchor="start" x="379.5" y="-293" font-family="Helvetica,sans-Serif" font-size="10.00">zero_mate::peripheral</text>
<text text-anchor="start" x="379.5" y="-282" font-family="Helvetica,sans-Serif" font-size="10.00">::CInterrupt_Controller</text>
<text text-anchor="middle" x="434" y="-271" font-family="Helvetica,sans-Serif" font-size="10.00">::Get_IRQ_Source</text>
</a>
</g>
</g>
<!-- Node2&#45;&gt;Node8 -->
<g id="edge7_Node000002_Node000008" class="edge">
<title>Node2&#45;&gt;Node8</title>
<g id="a_edge7_Node000002_Node000008"><a xlink:title=" ">
<path fill="none" stroke="#63b8ff" d="M306.37,-251.56C323.84,-256.1 343.23,-261.14 361.47,-265.89"/>
<polygon fill="#63b8ff" stroke="#63b8ff" points="360.62,-269.29 371.18,-268.42 362.39,-262.51 360.62,-269.29"/>
</a>
</g>
</g>
<!-- Node9 -->
<g id="Node000009" class="node">
<title>Node9</title>
<g id="a_Node000009"><a xlink:href="namespacezero__mate_1_1utils_1_1math.html#af7d93c996dab2ff1b91c5a399dcfe29f" target="_top" xlink:title="Tests whether a bit is set in the given integral variable.">
<polygon fill="white" stroke="#666666" points="497.5,-197.5 370.5,-197.5 370.5,-167.5 497.5,-167.5 497.5,-197.5"/>
<text text-anchor="start" x="378.5" y="-185.5" font-family="Helvetica,sans-Serif" font-size="10.00">zero_mate::utils::math</text>
<text text-anchor="middle" x="434" y="-174.5" font-family="Helvetica,sans-Serif" font-size="10.00">::Is_Bit_Set</text>
</a>
</g>
</g>
<!-- Node2&#45;&gt;Node9 -->
<g id="edge8_Node000002_Node000009" class="edge">
<title>Node2&#45;&gt;Node9</title>
<g id="a_edge8_Node000002_Node000009"><a xlink:title=" ">
<path fill="none" stroke="#63b8ff" d="M299.89,-221.46C322.19,-214.93 348.48,-207.24 371.78,-200.42"/>
<polygon fill="#63b8ff" stroke="#63b8ff" points="372.95,-203.72 381.56,-197.55 370.98,-197 372.95,-203.72"/>
</a>
</g>
</g>
<!-- Node4 -->
<g id="Node000004" class="node">
<title>Node4</title>
<g id="a_Node000004"><a xlink:href="classzero__mate_1_1utils_1_1CLogging__System.html#a71ed11c796553cbe8fd99773406a1060" target="_top" xlink:title="Creates a formatted message to be logged.">
<polygon fill="white" stroke="#666666" points="695,-148 543,-148 543,-107 695,-107 695,-148"/>
<text text-anchor="start" x="551" y="-136" font-family="Helvetica,sans-Serif" font-size="10.00">zero_mate::utils::CLogging</text>
<text text-anchor="start" x="551" y="-125" font-family="Helvetica,sans-Serif" font-size="10.00">_System::Create_Formatted</text>
<text text-anchor="middle" x="619" y="-114" font-family="Helvetica,sans-Serif" font-size="10.00">_Log_Msg</text>
</a>
</g>
</g>
<!-- Node3&#45;&gt;Node4 -->
<g id="edge3_Node000003_Node000004" class="edge">
<title>Node3&#45;&gt;Node4</title>
<g id="a_edge3_Node000003_Node000004"><a xlink:title=" ">
<path fill="none" stroke="#63b8ff" d="M486.51,-215.42C493.53,-212.76 500.54,-209.78 507,-206.5 511.06,-204.44 550.41,-176.26 581.12,-154.14"/>
<polygon fill="#63b8ff" stroke="#63b8ff" points="583.45,-156.77 589.52,-148.09 579.36,-151.1 583.45,-156.77"/>
</a>
</g>
</g>
<!-- Node7 -->
<g id="Node000007" class="node">
<title>Node7</title>
<g id="a_Node000007"><a xlink:href="classzero__mate_1_1utils_1_1CLogging__System.html#ad371c67ef65763966ccf9291002e86f3" target="_top" xlink:title="Extract the filename from a given location within the source files.">
<polygon fill="white" stroke="#666666" points="693.5,-220.5 544.5,-220.5 544.5,-190.5 693.5,-190.5 693.5,-220.5"/>
<text text-anchor="start" x="552.5" y="-208.5" font-family="Helvetica,sans-Serif" font-size="10.00">zero_mate::utils::CLogging</text>
<text text-anchor="middle" x="619" y="-197.5" font-family="Helvetica,sans-Serif" font-size="10.00">_System::Extract_Filename</text>
</a>
</g>
</g>
<!-- Node3&#45;&gt;Node7 -->
<g id="edge6_Node000003_Node000007" class="edge">
<title>Node3&#45;&gt;Node7</title>
<g id="a_edge6_Node000003_Node000007"><a xlink:title=" ">
<path fill="none" stroke="#63b8ff" d="M507.06,-220.66C516.1,-219.42 525.4,-218.15 534.59,-216.9"/>
<polygon fill="#63b8ff" stroke="#63b8ff" points="535.07,-220.36 544.5,-215.54 534.12,-213.43 535.07,-220.36"/>
</a>
</g>
</g>
<!-- Node5 -->
<g id="Node000005" class="node">
<title>Node5</title>
<g id="a_Node000005"><a xlink:href="classzero__mate_1_1utils_1_1CLogging__System.html#aa70c102c805079042ffea2a6f2a5ad64" target="_top" xlink:title="Formats a given timestamp.">
<polygon fill="white" stroke="#666666" points="891,-166.5 731,-166.5 731,-136.5 891,-136.5 891,-166.5"/>
<text text-anchor="start" x="739" y="-154.5" font-family="Helvetica,sans-Serif" font-size="10.00">zero_mate::utils::CLogging</text>
<text text-anchor="middle" x="811" y="-143.5" font-family="Helvetica,sans-Serif" font-size="10.00">_System::Format_Timestamp</text>
</a>
</g>
</g>
<!-- Node4&#45;&gt;Node5 -->
<g id="edge4_Node000004_Node000005" class="edge">
<title>Node4&#45;&gt;Node5</title>
<g id="a_edge4_Node000004_Node000005"><a xlink:title=" ">
<path fill="none" stroke="#63b8ff" d="M695.09,-136.99C703.52,-138.05 712.16,-139.14 720.74,-140.23"/>
<polygon fill="#63b8ff" stroke="#63b8ff" points="720.41,-143.71 730.77,-141.49 721.29,-136.77 720.41,-143.71"/>
</a>
</g>
</g>
<!-- Node6 -->
<g id="Node000006" class="node">
<title>Node6</title>
<g id="a_Node000006"><a xlink:href="classzero__mate_1_1utils_1_1CLogging__System.html#ae3ca637537dde05e0b9119145c840331" target="_top" xlink:title="Returns the current timestamp that will be used in a log message.">
<polygon fill="white" stroke="#666666" points="884,-118.5 738,-118.5 738,-88.5 884,-88.5 884,-118.5"/>
<text text-anchor="start" x="746" y="-106.5" font-family="Helvetica,sans-Serif" font-size="10.00">zero_mate::utils::CLogging</text>
<text text-anchor="middle" x="811" y="-95.5" font-family="Helvetica,sans-Serif" font-size="10.00">_System::Get_Timestamp</text>
</a>
</g>
</g>
<!-- Node4&#45;&gt;Node6 -->
<g id="edge5_Node000004_Node000006" class="edge">
<title>Node4&#45;&gt;Node6</title>
<g id="a_edge5_Node000004_Node000006"><a xlink:title=" ">
<path fill="none" stroke="#63b8ff" d="M695.09,-118.01C705.89,-116.65 717.05,-115.24 727.98,-113.86"/>
<polygon fill="#63b8ff" stroke="#63b8ff" points="728.45,-117.33 737.93,-112.6 727.57,-110.38 728.45,-117.33"/>
</a>
</g>
</g>
<!-- Node10&#45;&gt;Node3 -->
<g id="edge10_Node000010_Node000003" class="edge">
<title>Node10&#45;&gt;Node3</title>
<g id="a_edge10_Node000010_Node000003"><a xlink:title=" ">
<path fill="none" stroke="#63b8ff" d="M309.68,-198.42C327.55,-203.07 347.18,-208.17 365.43,-212.92"/>
<polygon fill="#63b8ff" stroke="#63b8ff" points="364.55,-216.31 375.11,-215.44 366.32,-209.53 364.55,-216.31"/>
</a>
</g>
</g>
<!-- Node10&#45;&gt;Node9 -->
<g id="edge11_Node000010_Node000009" class="edge">
<title>Node10&#45;&gt;Node9</title>
<g id="a_edge11_Node000010_Node000009"><a xlink:title=" ">
<path fill="none" stroke="#63b8ff" d="M309.68,-182.5C325.84,-182.5 343.43,-182.5 360.14,-182.5"/>
<polygon fill="#63b8ff" stroke="#63b8ff" points="360.41,-186 370.41,-182.5 360.41,-179 360.41,-186"/>
</a>
</g>
</g>
<!-- Node11&#45;&gt;Node3 -->
<g id="edge13_Node000011_Node000003" class="edge">
<title>Node11&#45;&gt;Node3</title>
<g id="a_edge13_Node000011_Node000003"><a xlink:title=" ">
<path fill="none" stroke="#63b8ff" d="M311.74,-269.94C332.99,-263.02 356.53,-255.37 377.17,-248.66"/>
<polygon fill="#63b8ff" stroke="#63b8ff" points="378.31,-251.97 386.74,-245.54 376.15,-245.31 378.31,-251.97"/>
</a>
</g>
</g>
<!-- Node12&#45;&gt;Node3 -->
<g id="edge15_Node000012_Node000003" class="edge">
<title>Node12&#45;&gt;Node3</title>
<g id="a_edge15_Node000012_Node000003"><a xlink:title=" ">
<path fill="none" stroke="#63b8ff" d="M310.84,-144.14C315.85,-146.92 320.65,-150.03 325,-153.5 347.25,-171.27 338.3,-189.31 361,-206.5 362.84,-207.89 364.76,-209.2 366.74,-210.44"/>
<polygon fill="#63b8ff" stroke="#63b8ff" points="365.34,-213.66 375.79,-215.41 368.71,-207.53 365.34,-213.66"/>
</a>
</g>
</g>
<!-- Node12&#45;&gt;Node9 -->
<g id="edge16_Node000012_Node000009" class="edge">
<title>Node12&#45;&gt;Node9</title>
<g id="a_edge16_Node000012_Node000009"><a xlink:title=" ">
<path fill="none" stroke="#63b8ff" d="M312.77,-144.05C333.42,-150.65 356.13,-157.92 376.2,-164.33"/>
<polygon fill="#63b8ff" stroke="#63b8ff" points="375.22,-167.7 385.82,-167.41 377.36,-161.03 375.22,-167.7"/>
</a>
</g>
</g>
<!-- Node13 -->
<g id="Node000013" class="node">
<title>Node13</title>
<g id="a_Node000013"><a xlink:href="classzero__mate_1_1peripheral_1_1CGPIO__Manager.html#afb4a55159afdaa47cd3640dfd1e0106b" target="_top" xlink:title="Mirrors the state of a given in in the GPLEV register.">
<polygon fill="white" stroke="#666666" points="502.5,-41 365.5,-41 365.5,0 502.5,0 502.5,-41"/>
<text text-anchor="start" x="373.5" y="-29" font-family="Helvetica,sans-Serif" font-size="10.00">zero_mate::peripheral</text>
<text text-anchor="start" x="373.5" y="-18" font-family="Helvetica,sans-Serif" font-size="10.00">::CGPIO_Manager::Mirror</text>
<text text-anchor="middle" x="434" y="-7" font-family="Helvetica,sans-Serif" font-size="10.00">_Pin_State_In_GPLEVn</text>
</a>
</g>
</g>
<!-- Node12&#45;&gt;Node13 -->
<g id="edge17_Node000012_Node000013" class="edge">
<title>Node12&#45;&gt;Node13</title>
<g id="a_edge17_Node000012_Node000013"><a xlink:title=" ">
<path fill="none" stroke="#63b8ff" d="M277.23,-102.79C299.45,-87.28 331.34,-66.14 361,-50.5 364.31,-48.76 367.74,-47.04 371.23,-45.36"/>
<polygon fill="#63b8ff" stroke="#63b8ff" points="372.97,-48.41 380.57,-41.03 370.03,-42.06 372.97,-48.41"/>
</a>
</g>
</g>
<!-- Node15 -->
<g id="Node000015" class="node">
<title>Node15</title>
<g id="a_Node000015"><a xlink:href="classzero__mate_1_1peripheral_1_1CGPIO__Manager.html#a623c62636a57d6c63db1331a42100452" target="_top" xlink:title="Notifies external peripherals that subscribe to the given pin about the change of its state.">
<polygon fill="white" stroke="#666666" points="502.5,-149 365.5,-149 365.5,-108 502.5,-108 502.5,-149"/>
<text text-anchor="start" x="373.5" y="-137" font-family="Helvetica,sans-Serif" font-size="10.00">zero_mate::peripheral</text>
<text text-anchor="start" x="373.5" y="-126" font-family="Helvetica,sans-Serif" font-size="10.00">::CGPIO_Manager::Notify</text>
<text text-anchor="middle" x="434" y="-115" font-family="Helvetica,sans-Serif" font-size="10.00">_External_Peripherals</text>
</a>
</g>
</g>
<!-- Node12&#45;&gt;Node15 -->
<g id="edge19_Node000012_Node000015" class="edge">
<title>Node12&#45;&gt;Node15</title>
<g id="a_edge19_Node000012_Node000015"><a xlink:title=" ">
<path fill="none" stroke="#63b8ff" d="M319.04,-125.41C330.76,-125.73 342.98,-126.06 354.88,-126.38"/>
<polygon fill="#63b8ff" stroke="#63b8ff" points="355.14,-129.89 365.23,-126.66 355.33,-122.89 355.14,-129.89"/>
</a>
</g>
</g>
<!-- Node12&#45;&gt;Node16 -->
<g id="edge20_Node000012_Node000016" class="edge">
<title>Node12&#45;&gt;Node16</title>
<g id="a_edge20_Node000012_Node000016"><a xlink:title=" ">
<path fill="none" stroke="#63b8ff" d="M319.04,-104.77C334.56,-100.64 350.95,-96.29 366.32,-92.21"/>
<polygon fill="#63b8ff" stroke="#63b8ff" points="367.48,-95.52 376.25,-89.57 365.68,-88.76 367.48,-95.52"/>
</a>
</g>
</g>
<!-- Node14 -->
<g id="Node000014" class="node">
<title>Node14</title>
<g id="a_Node000014"><a xlink:href="classzero__mate_1_1peripheral_1_1CGPIO__Manager.html#aa6b0515a8e4fecb78bebfbb79a13994b" target="_top" xlink:title="Returns the index of the register (out of the two alternatives) based on the pin index.">
<polygon fill="white" stroke="#666666" points="681.5,-41 556.5,-41 556.5,0 681.5,0 681.5,-41"/>
<text text-anchor="start" x="564.5" y="-29" font-family="Helvetica,sans-Serif" font-size="10.00">zero_mate::peripheral</text>
<text text-anchor="start" x="564.5" y="-18" font-family="Helvetica,sans-Serif" font-size="10.00">::CGPIO_Manager::Get</text>
<text text-anchor="middle" x="619" y="-7" font-family="Helvetica,sans-Serif" font-size="10.00">_Register_Index</text>
</a>
</g>
</g>
<!-- Node13&#45;&gt;Node14 -->
<g id="edge18_Node000013_Node000014" class="edge">
<title>Node13&#45;&gt;Node14</title>
<g id="a_edge18_Node000013_Node000014"><a xlink:title=" ">
<path fill="none" stroke="#63b8ff" d="M502.62,-20.5C516.8,-20.5 531.79,-20.5 546.12,-20.5"/>
<polygon fill="#63b8ff" stroke="#63b8ff" points="546.4,-24 556.4,-20.5 546.4,-17 546.4,-24"/>
</a>
</g>
</g>
<!-- Node16&#45;&gt;Node4 -->
<g id="edge21_Node000016_Node000004" class="edge">
<title>Node16&#45;&gt;Node4</title>
<g id="a_edge21_Node000016_Node000004"><a xlink:title=" ">
<path fill="none" stroke="#63b8ff" d="M486.95,-89.55C502.59,-94.07 520.13,-99.15 537.17,-104.09"/>
<polygon fill="#63b8ff" stroke="#63b8ff" points="536.55,-107.55 547.13,-106.97 538.5,-100.83 536.55,-107.55"/>
</a>
</g>
</g>
<!-- Node16&#45;&gt;Node7 -->
<g id="edge22_Node000016_Node000007" class="edge">
<title>Node16&#45;&gt;Node7</title>
<g id="a_edge22_Node000016_Node000007"><a xlink:title=" ">
<path fill="none" stroke="#63b8ff" d="M490.9,-89.51C496.64,-92.31 502.14,-95.61 507,-99.5 530.69,-118.45 521.7,-135.9 543,-157.5 553.48,-168.13 566.73,-177.57 579.16,-185.2"/>
<polygon fill="#63b8ff" stroke="#63b8ff" points="577.63,-188.36 588.02,-190.44 581.19,-182.34 577.63,-188.36"/>
</a>
</g>
</g>
</g>
</svg>
