<?xml version="1.0" encoding="UTF-8" standalone="no"?>
<!DOCTYPE svg PUBLIC "-//W3C//DTD SVG 1.1//EN"
 "http://www.w3.org/Graphics/SVG/1.1/DTD/svg11.dtd">
<!-- Generated by graphviz version 2.43.0 (0)
 -->
<!-- Title: zero_mate::arm1176jzf_s::CCPU_Core::Sign_Multiply_Accumulate Pages: 1 -->
<svg width="336pt" height="86pt"
 viewBox="0.00 0.00 336.00 86.00" xmlns="http://www.w3.org/2000/svg" xmlns:xlink="http://www.w3.org/1999/xlink">
<g id="graph0" class="graph" transform="scale(1 1) rotate(0) translate(4 82)">
<title>zero_mate::arm1176jzf_s::CCPU_Core::Sign_Multiply_Accumulate</title>
<!-- Node1 -->
<g id="Node000001" class="node">
<title>Node1</title>
<g id="a_Node000001"><a xlink:title="Combines the functionality of the isa::CSMULxy and isa::CSMLAxy instructions.">
<polygon fill="#999999" stroke="#666666" points="328,-59.5 168,-59.5 168,-18.5 328,-18.5 328,-59.5"/>
<text text-anchor="start" x="176" y="-47.5" font-family="Helvetica,sans-Serif" font-size="10.00">zero_mate::arm1176jzf</text>
<text text-anchor="start" x="176" y="-36.5" font-family="Helvetica,sans-Serif" font-size="10.00">_s::CCPU_Core::Sign_Multiply</text>
<text text-anchor="middle" x="248" y="-25.5" font-family="Helvetica,sans-Serif" font-size="10.00">_Accumulate</text>
</a>
</g>
</g>
<!-- Node2 -->
<g id="Node000002" class="node">
<title>Node2</title>
<g id="a_Node000002"><a xlink:href="classzero__mate_1_1arm1176jzf__s_1_1CCPU__Core.html#ad53c1ad2fb28375116f2e43b437b2576" target="_top" xlink:title="Executes a CSMLAxy instruction.">
<polygon fill="white" stroke="#666666" points="132,-78 0,-78 0,-48 132,-48 132,-78"/>
<text text-anchor="start" x="8" y="-66" font-family="Helvetica,sans-Serif" font-size="10.00">zero_mate::arm1176jzf</text>
<text text-anchor="middle" x="66" y="-55" font-family="Helvetica,sans-Serif" font-size="10.00">_s::CCPU_Core::Execute</text>
</a>
</g>
</g>
<!-- Node1&#45;&gt;Node2 -->
<g id="edge1_Node000001_Node000002" class="edge">
<title>Node1&#45;&gt;Node2</title>
<g id="a_edge1_Node000001_Node000002"><a xlink:title=" ">
<path fill="none" stroke="#63b8ff" d="M157.72,-50.9C149.12,-52.05 140.52,-53.2 132.22,-54.3"/>
<polygon fill="#63b8ff" stroke="#63b8ff" points="158.34,-54.35 167.79,-49.56 157.41,-47.41 158.34,-54.35"/>
</a>
</g>
</g>
<!-- Node3 -->
<g id="Node000003" class="node">
<title>Node3</title>
<g id="a_Node000003"><a xlink:href="classzero__mate_1_1arm1176jzf__s_1_1CCPU__Core.html#a333a135e0771dc93fbe3e4b3a0e7a64b" target="_top" xlink:title="Executes a CSMULxy instruction.">
<polygon fill="white" stroke="#666666" points="132,-30 0,-30 0,0 132,0 132,-30"/>
<text text-anchor="start" x="8" y="-18" font-family="Helvetica,sans-Serif" font-size="10.00">zero_mate::arm1176jzf</text>
<text text-anchor="middle" x="66" y="-7" font-family="Helvetica,sans-Serif" font-size="10.00">_s::CCPU_Core::Execute</text>
</a>
</g>
</g>
<!-- Node1&#45;&gt;Node3 -->
<g id="edge2_Node000001_Node000003" class="edge">
<title>Node1&#45;&gt;Node3</title>
<g id="a_edge2_Node000001_Node000003"><a xlink:title=" ">
<path fill="none" stroke="#63b8ff" d="M157.72,-27.1C149.12,-25.95 140.52,-24.8 132.22,-23.7"/>
<polygon fill="#63b8ff" stroke="#63b8ff" points="157.41,-30.59 167.79,-28.44 158.34,-23.65 157.41,-30.59"/>
</a>
</g>
</g>
</g>
</svg>
