<?xml version="1.0" encoding="UTF-8" standalone="no"?>
<!DOCTYPE svg PUBLIC "-//W3C//DTD SVG 1.1//EN"
 "http://www.w3.org/Graphics/SVG/1.1/DTD/svg11.dtd">
<!-- Generated by graphviz version 2.43.0 (0)
 -->
<!-- Title: zero_mate::peripheral::CBSC::Control_Reg_Callback Pages: 1 -->
<svg width="925pt" height="208pt"
 viewBox="0.00 0.00 925.00 207.50" xmlns="http://www.w3.org/2000/svg" xmlns:xlink="http://www.w3.org/1999/xlink">
<g id="graph0" class="graph" transform="scale(1 1) rotate(0) translate(4 203.5)">
<title>zero_mate::peripheral::CBSC::Control_Reg_Callback</title>
<!-- Node1 -->
<g id="Node000001" class="node">
<title>Node1</title>
<g id="a_Node000001"><a xlink:title="Performs actions after the control register has been written to.">
<polygon fill="#999999" stroke="#666666" points="161,-121.5 0,-121.5 0,-91.5 161,-91.5 161,-121.5"/>
<text text-anchor="start" x="8" y="-109.5" font-family="Helvetica,sans-Serif" font-size="10.00">zero_mate::peripheral</text>
<text text-anchor="middle" x="80.5" y="-98.5" font-family="Helvetica,sans-Serif" font-size="10.00">::CBSC::Control_Reg_Callback</text>
</a>
</g>
</g>
<!-- Node2 -->
<g id="Node000002" class="node">
<title>Node2</title>
<g id="a_Node000002"><a xlink:href="classzero__mate_1_1peripheral_1_1CBSC.html#abb0839be28efd814d455b83af743e347" target="_top" xlink:title="Clears the FIFO.">
<polygon fill="white" stroke="#666666" points="336,-196.5 212,-196.5 212,-166.5 336,-166.5 336,-196.5"/>
<text text-anchor="start" x="220" y="-184.5" font-family="Helvetica,sans-Serif" font-size="10.00">zero_mate::peripheral</text>
<text text-anchor="middle" x="274" y="-173.5" font-family="Helvetica,sans-Serif" font-size="10.00">::CBSC::Clear_FIFO</text>
</a>
</g>
</g>
<!-- Node1&#45;&gt;Node2 -->
<g id="edge1_Node000001_Node000002" class="edge">
<title>Node1&#45;&gt;Node2</title>
<g id="a_edge1_Node000001_Node000002"><a xlink:title=" ">
<path fill="none" stroke="#63b8ff" d="M112.98,-121.52C135.98,-132.22 168.08,-146.59 197,-157.5 202.1,-159.42 207.42,-161.32 212.79,-163.16"/>
<polygon fill="#63b8ff" stroke="#63b8ff" points="211.86,-166.54 222.45,-166.39 214.08,-159.9 211.86,-166.54"/>
</a>
</g>
</g>
<!-- Node3 -->
<g id="Node000003" class="node">
<title>Node3</title>
<g id="a_Node000003"><a xlink:href="classzero__mate_1_1peripheral_1_1CBSC.html#a74b84158da1933e79f091706e27c12f5" target="_top" xlink:title="Sets the state of a given GPIO pin.">
<polygon fill="white" stroke="#666666" points="336,-148.5 212,-148.5 212,-118.5 336,-118.5 336,-148.5"/>
<text text-anchor="start" x="220" y="-136.5" font-family="Helvetica,sans-Serif" font-size="10.00">zero_mate::peripheral</text>
<text text-anchor="middle" x="274" y="-125.5" font-family="Helvetica,sans-Serif" font-size="10.00">::CBSC::Set_GPIO_pin</text>
</a>
</g>
</g>
<!-- Node1&#45;&gt;Node3 -->
<g id="edge2_Node000001_Node000003" class="edge">
<title>Node1&#45;&gt;Node3</title>
<g id="a_edge2_Node000001_Node000003"><a xlink:title=" ">
<path fill="none" stroke="#63b8ff" d="M161.05,-117.72C174.56,-119.62 188.52,-121.59 201.8,-123.46"/>
<polygon fill="#63b8ff" stroke="#63b8ff" points="201.41,-126.94 211.8,-124.87 202.39,-120.01 201.41,-126.94"/>
</a>
</g>
</g>
<!-- Node9 -->
<g id="Node000009" class="node">
<title>Node9</title>
<g id="a_Node000009"><a xlink:href="classzero__mate_1_1peripheral_1_1CBSC.html#a631f31f819abf852e17bc0d6a54daa58" target="_top" xlink:title="Checks whether the FIFO should be cleared or not.">
<polygon fill="white" stroke="#666666" points="341,-100 207,-100 207,-59 341,-59 341,-100"/>
<text text-anchor="start" x="215" y="-88" font-family="Helvetica,sans-Serif" font-size="10.00">zero_mate::peripheral</text>
<text text-anchor="start" x="215" y="-77" font-family="Helvetica,sans-Serif" font-size="10.00">::CBSC::Should_FIFO_Be</text>
<text text-anchor="middle" x="274" y="-66" font-family="Helvetica,sans-Serif" font-size="10.00">_Cleared</text>
</a>
</g>
</g>
<!-- Node1&#45;&gt;Node9 -->
<g id="edge8_Node000001_Node000009" class="edge">
<title>Node1&#45;&gt;Node9</title>
<g id="a_edge8_Node000001_Node000009"><a xlink:title=" ">
<path fill="none" stroke="#63b8ff" d="M161.05,-95.28C172.81,-93.63 184.91,-91.92 196.61,-90.27"/>
<polygon fill="#63b8ff" stroke="#63b8ff" points="197.35,-93.7 206.77,-88.84 196.37,-86.77 197.35,-93.7"/>
</a>
</g>
</g>
<!-- Node10 -->
<g id="Node000010" class="node">
<title>Node10</title>
<g id="a_Node000010"><a xlink:href="classzero__mate_1_1peripheral_1_1CBSC.html#af7243c8e41ac6d45e77d915ce2eb0a89" target="_top" xlink:title="Checks whether a new data transfer (transaction) should begin.">
<polygon fill="white" stroke="#666666" points="351,-41 197,-41 197,0 351,0 351,-41"/>
<text text-anchor="start" x="205" y="-29" font-family="Helvetica,sans-Serif" font-size="10.00">zero_mate::peripheral</text>
<text text-anchor="start" x="205" y="-18" font-family="Helvetica,sans-Serif" font-size="10.00">::CBSC::Should_Transaction_</text>
<text text-anchor="middle" x="274" y="-7" font-family="Helvetica,sans-Serif" font-size="10.00">Begin</text>
</a>
</g>
</g>
<!-- Node1&#45;&gt;Node10 -->
<g id="edge9_Node000001_Node000010" class="edge">
<title>Node1&#45;&gt;Node10</title>
<g id="a_edge9_Node000001_Node000010"><a xlink:title=" ">
<path fill="none" stroke="#63b8ff" d="M110.1,-91.45C133.26,-79.49 166.87,-62.65 197,-49.5 200.44,-48 203.98,-46.5 207.57,-45.01"/>
<polygon fill="#63b8ff" stroke="#63b8ff" points="209.19,-48.13 217.14,-41.13 206.55,-41.65 209.19,-48.13"/>
</a>
</g>
</g>
<!-- Node4 -->
<g id="Node000004" class="node">
<title>Node4</title>
<g id="a_Node000004"><a xlink:href="classzero__mate_1_1utils_1_1CLogging__System.html#a57ed77e1a5cf822cea532cc5e05c3f60" target="_top" xlink:title="Logs an error message via all registered loggers.">
<polygon fill="white" stroke="#666666" points="533,-148.5 387,-148.5 387,-118.5 533,-118.5 533,-148.5"/>
<text text-anchor="start" x="395" y="-136.5" font-family="Helvetica,sans-Serif" font-size="10.00">zero_mate::utils::CLogging</text>
<text text-anchor="middle" x="460" y="-125.5" font-family="Helvetica,sans-Serif" font-size="10.00">_System::Error</text>
</a>
</g>
</g>
<!-- Node3&#45;&gt;Node4 -->
<g id="edge3_Node000003_Node000004" class="edge">
<title>Node3&#45;&gt;Node4</title>
<g id="a_edge3_Node000003_Node000004"><a xlink:title=" ">
<path fill="none" stroke="#63b8ff" d="M336.01,-133.5C349.02,-133.5 362.96,-133.5 376.61,-133.5"/>
<polygon fill="#63b8ff" stroke="#63b8ff" points="376.98,-137 386.98,-133.5 376.98,-130 376.98,-137"/>
</a>
</g>
</g>
<!-- Node5 -->
<g id="Node000005" class="node">
<title>Node5</title>
<g id="a_Node000005"><a xlink:href="classzero__mate_1_1utils_1_1CLogging__System.html#a71ed11c796553cbe8fd99773406a1060" target="_top" xlink:title="Creates a formatted message to be logged.">
<polygon fill="white" stroke="#666666" points="721,-181 569,-181 569,-140 721,-140 721,-181"/>
<text text-anchor="start" x="577" y="-169" font-family="Helvetica,sans-Serif" font-size="10.00">zero_mate::utils::CLogging</text>
<text text-anchor="start" x="577" y="-158" font-family="Helvetica,sans-Serif" font-size="10.00">_System::Create_Formatted</text>
<text text-anchor="middle" x="645" y="-147" font-family="Helvetica,sans-Serif" font-size="10.00">_Log_Msg</text>
</a>
</g>
</g>
<!-- Node4&#45;&gt;Node5 -->
<g id="edge4_Node000004_Node000005" class="edge">
<title>Node4&#45;&gt;Node5</title>
<g id="a_edge4_Node000004_Node000005"><a xlink:title=" ">
<path fill="none" stroke="#63b8ff" d="M533.06,-144.13C541.55,-145.38 550.26,-146.67 558.9,-147.94"/>
<polygon fill="#63b8ff" stroke="#63b8ff" points="558.59,-151.44 568.99,-149.43 559.61,-144.51 558.59,-151.44"/>
</a>
</g>
</g>
<!-- Node8 -->
<g id="Node000008" class="node">
<title>Node8</title>
<g id="a_Node000008"><a xlink:href="classzero__mate_1_1utils_1_1CLogging__System.html#ad371c67ef65763966ccf9291002e86f3" target="_top" xlink:title="Extract the filename from a given location within the source files.">
<polygon fill="white" stroke="#666666" points="719.5,-121.5 570.5,-121.5 570.5,-91.5 719.5,-91.5 719.5,-121.5"/>
<text text-anchor="start" x="578.5" y="-109.5" font-family="Helvetica,sans-Serif" font-size="10.00">zero_mate::utils::CLogging</text>
<text text-anchor="middle" x="645" y="-98.5" font-family="Helvetica,sans-Serif" font-size="10.00">_System::Extract_Filename</text>
</a>
</g>
</g>
<!-- Node4&#45;&gt;Node8 -->
<g id="edge7_Node000004_Node000008" class="edge">
<title>Node4&#45;&gt;Node8</title>
<g id="a_edge7_Node000004_Node000008"><a xlink:title=" ">
<path fill="none" stroke="#63b8ff" d="M533.06,-122.87C542.1,-121.53 551.4,-120.16 560.59,-118.81"/>
<polygon fill="#63b8ff" stroke="#63b8ff" points="561.12,-122.27 570.5,-117.34 560.1,-115.34 561.12,-122.27"/>
</a>
</g>
</g>
<!-- Node6 -->
<g id="Node000006" class="node">
<title>Node6</title>
<g id="a_Node000006"><a xlink:href="classzero__mate_1_1utils_1_1CLogging__System.html#aa70c102c805079042ffea2a6f2a5ad64" target="_top" xlink:title="Formats a given timestamp.">
<polygon fill="white" stroke="#666666" points="917,-199.5 757,-199.5 757,-169.5 917,-169.5 917,-199.5"/>
<text text-anchor="start" x="765" y="-187.5" font-family="Helvetica,sans-Serif" font-size="10.00">zero_mate::utils::CLogging</text>
<text text-anchor="middle" x="837" y="-176.5" font-family="Helvetica,sans-Serif" font-size="10.00">_System::Format_Timestamp</text>
</a>
</g>
</g>
<!-- Node5&#45;&gt;Node6 -->
<g id="edge5_Node000005_Node000006" class="edge">
<title>Node5&#45;&gt;Node6</title>
<g id="a_edge5_Node000005_Node000006"><a xlink:title=" ">
<path fill="none" stroke="#63b8ff" d="M721.09,-169.99C729.52,-171.05 738.16,-172.14 746.74,-173.23"/>
<polygon fill="#63b8ff" stroke="#63b8ff" points="746.41,-176.71 756.77,-174.49 747.29,-169.77 746.41,-176.71"/>
</a>
</g>
</g>
<!-- Node7 -->
<g id="Node000007" class="node">
<title>Node7</title>
<g id="a_Node000007"><a xlink:href="classzero__mate_1_1utils_1_1CLogging__System.html#ae3ca637537dde05e0b9119145c840331" target="_top" xlink:title="Returns the current timestamp that will be used in a log message.">
<polygon fill="white" stroke="#666666" points="910,-151.5 764,-151.5 764,-121.5 910,-121.5 910,-151.5"/>
<text text-anchor="start" x="772" y="-139.5" font-family="Helvetica,sans-Serif" font-size="10.00">zero_mate::utils::CLogging</text>
<text text-anchor="middle" x="837" y="-128.5" font-family="Helvetica,sans-Serif" font-size="10.00">_System::Get_Timestamp</text>
</a>
</g>
</g>
<!-- Node5&#45;&gt;Node7 -->
<g id="edge6_Node000005_Node000007" class="edge">
<title>Node5&#45;&gt;Node7</title>
<g id="a_edge6_Node000005_Node000007"><a xlink:title=" ">
<path fill="none" stroke="#63b8ff" d="M721.09,-151.01C731.89,-149.65 743.05,-148.24 753.98,-146.86"/>
<polygon fill="#63b8ff" stroke="#63b8ff" points="754.45,-150.33 763.93,-145.6 753.57,-143.38 754.45,-150.33"/>
</a>
</g>
</g>
</g>
</svg>
