<?xml version="1.0" encoding="UTF-8" standalone="no"?>
<!DOCTYPE svg PUBLIC "-//W3C//DTD SVG 1.1//EN"
 "http://www.w3.org/Graphics/SVG/1.1/DTD/svg11.dtd">
<!-- Generated by graphviz version 2.43.0 (0)
 -->
<!-- Title: zero_mate::utils::CLogging_System::Create_Formatted_Log_Msg Pages: 1 -->
<svg width="356pt" height="86pt"
 viewBox="0.00 0.00 356.00 86.00" xmlns="http://www.w3.org/2000/svg" xmlns:xlink="http://www.w3.org/1999/xlink">
<g id="graph0" class="graph" transform="scale(1 1) rotate(0) translate(4 82)">
<title>zero_mate::utils::CLogging_System::Create_Formatted_Log_Msg</title>
<!-- Node1 -->
<g id="Node000001" class="node">
<title>Node1</title>
<g id="a_Node000001"><a xlink:title="Creates a formatted message to be logged.">
<polygon fill="#999999" stroke="#666666" points="152,-59.5 0,-59.5 0,-18.5 152,-18.5 152,-59.5"/>
<text text-anchor="start" x="8" y="-47.5" font-family="Helvetica,sans-Serif" font-size="10.00">zero_mate::utils::CLogging</text>
<text text-anchor="start" x="8" y="-36.5" font-family="Helvetica,sans-Serif" font-size="10.00">_System::Create_Formatted</text>
<text text-anchor="middle" x="76" y="-25.5" font-family="Helvetica,sans-Serif" font-size="10.00">_Log_Msg</text>
</a>
</g>
</g>
<!-- Node2 -->
<g id="Node000002" class="node">
<title>Node2</title>
<g id="a_Node000002"><a xlink:href="classzero__mate_1_1utils_1_1CLogging__System.html#aa70c102c805079042ffea2a6f2a5ad64" target="_top" xlink:title="Formats a given timestamp.">
<polygon fill="white" stroke="#666666" points="348,-78 188,-78 188,-48 348,-48 348,-78"/>
<text text-anchor="start" x="196" y="-66" font-family="Helvetica,sans-Serif" font-size="10.00">zero_mate::utils::CLogging</text>
<text text-anchor="middle" x="268" y="-55" font-family="Helvetica,sans-Serif" font-size="10.00">_System::Format_Timestamp</text>
</a>
</g>
</g>
<!-- Node1&#45;&gt;Node2 -->
<g id="edge1_Node000001_Node000002" class="edge">
<title>Node1&#45;&gt;Node2</title>
<g id="a_edge1_Node000001_Node000002"><a xlink:title=" ">
<path fill="none" stroke="#63b8ff" d="M152.09,-48.49C160.52,-49.55 169.16,-50.64 177.74,-51.73"/>
<polygon fill="#63b8ff" stroke="#63b8ff" points="177.41,-55.21 187.77,-52.99 178.29,-48.27 177.41,-55.21"/>
</a>
</g>
</g>
<!-- Node3 -->
<g id="Node000003" class="node">
<title>Node3</title>
<g id="a_Node000003"><a xlink:href="classzero__mate_1_1utils_1_1CLogging__System.html#ae3ca637537dde05e0b9119145c840331" target="_top" xlink:title="Returns the current timestamp that will be used in a log message.">
<polygon fill="white" stroke="#666666" points="341,-30 195,-30 195,0 341,0 341,-30"/>
<text text-anchor="start" x="203" y="-18" font-family="Helvetica,sans-Serif" font-size="10.00">zero_mate::utils::CLogging</text>
<text text-anchor="middle" x="268" y="-7" font-family="Helvetica,sans-Serif" font-size="10.00">_System::Get_Timestamp</text>
</a>
</g>
</g>
<!-- Node1&#45;&gt;Node3 -->
<g id="edge2_Node000001_Node000003" class="edge">
<title>Node1&#45;&gt;Node3</title>
<g id="a_edge2_Node000001_Node000003"><a xlink:title=" ">
<path fill="none" stroke="#63b8ff" d="M152.09,-29.51C162.89,-28.15 174.05,-26.74 184.98,-25.36"/>
<polygon fill="#63b8ff" stroke="#63b8ff" points="185.45,-28.83 194.93,-24.1 184.57,-21.88 185.45,-28.83"/>
</a>
</g>
</g>
</g>
</svg>
