<?xml version="1.0" encoding="UTF-8" standalone="no"?>
<!DOCTYPE svg PUBLIC "-//W3C//DTD SVG 1.1//EN"
 "http://www.w3.org/Graphics/SVG/1.1/DTD/svg11.dtd">
<!-- Generated by graphviz version 2.43.0 (0)
 -->
<!-- Title: zero_mate::arm1176jzf_s::CCPU_Context::CCPU_Context Pages: 1 -->
<svg width="711pt" height="432pt"
 viewBox="0.00 0.00 711.00 431.50" xmlns="http://www.w3.org/2000/svg" xmlns:xlink="http://www.w3.org/1999/xlink">
<g id="graph0" class="graph" transform="scale(1 1) rotate(0) translate(4 427.5)">
<title>zero_mate::arm1176jzf_s::CCPU_Context::CCPU_Context</title>
<!-- Node1 -->
<g id="Node000001" class="node">
<title>Node1</title>
<g id="a_Node000001"><a xlink:title="Constructor of the class.">
<polygon fill="#999999" stroke="#666666" points="137,-381 0,-381 0,-340 137,-340 137,-381"/>
<text text-anchor="start" x="8" y="-369" font-family="Helvetica,sans-Serif" font-size="10.00">zero_mate::arm1176jzf</text>
<text text-anchor="start" x="8" y="-358" font-family="Helvetica,sans-Serif" font-size="10.00">_s::CCPU_Context::CCPU</text>
<text text-anchor="middle" x="68.5" y="-347" font-family="Helvetica,sans-Serif" font-size="10.00">_Context</text>
</a>
</g>
</g>
<!-- Node2 -->
<g id="Node000002" class="node">
<title>Node2</title>
<g id="a_Node000002"><a xlink:href="classzero__mate_1_1arm1176jzf__s_1_1CCPU__Context.html#a286edf7ca93bc920f9896b5b777b4b8b" target="_top" xlink:title="Resets the context of the CPU.">
<polygon fill="white" stroke="#666666" points="310,-375.5 173,-375.5 173,-345.5 310,-345.5 310,-375.5"/>
<text text-anchor="start" x="181" y="-363.5" font-family="Helvetica,sans-Serif" font-size="10.00">zero_mate::arm1176jzf</text>
<text text-anchor="middle" x="241.5" y="-352.5" font-family="Helvetica,sans-Serif" font-size="10.00">_s::CCPU_Context::Reset</text>
</a>
</g>
</g>
<!-- Node1&#45;&gt;Node2 -->
<g id="edge1_Node000001_Node000002" class="edge">
<title>Node1&#45;&gt;Node2</title>
<g id="a_edge1_Node000001_Node000002"><a xlink:title=" ">
<path fill="none" stroke="#63b8ff" d="M137.08,-360.5C145.54,-360.5 154.24,-360.5 162.83,-360.5"/>
<polygon fill="#63b8ff" stroke="#63b8ff" points="162.85,-364 172.85,-360.5 162.85,-357 162.85,-364"/>
</a>
</g>
</g>
<!-- Node3 -->
<g id="Node000003" class="node">
<title>Node3</title>
<g id="a_Node000003"><a xlink:href="classzero__mate_1_1arm1176jzf__s_1_1CCPU__Context.html#a2dd5a3a65e28cce65d01bdef2746cf1a" target="_top" xlink:title="Globally enables/disables FIQ (fast interrupts)">
<polygon fill="white" stroke="#666666" points="510.5,-423.5 346.5,-423.5 346.5,-393.5 510.5,-393.5 510.5,-423.5"/>
<text text-anchor="start" x="354.5" y="-411.5" font-family="Helvetica,sans-Serif" font-size="10.00">zero_mate::arm1176jzf</text>
<text text-anchor="middle" x="428.5" y="-400.5" font-family="Helvetica,sans-Serif" font-size="10.00">_s::CCPU_Context::Enable_FIQ</text>
</a>
</g>
</g>
<!-- Node2&#45;&gt;Node3 -->
<g id="edge2_Node000002_Node000003" class="edge">
<title>Node2&#45;&gt;Node3</title>
<g id="a_edge2_Node000002_Node000003"><a xlink:title=" ">
<path fill="none" stroke="#63b8ff" d="M300.53,-375.56C319.38,-380.45 340.47,-385.92 359.96,-390.98"/>
<polygon fill="#63b8ff" stroke="#63b8ff" points="359.12,-394.37 369.68,-393.5 360.88,-387.6 359.12,-394.37"/>
</a>
</g>
</g>
<!-- Node5 -->
<g id="Node000005" class="node">
<title>Node5</title>
<g id="a_Node000005"><a xlink:href="classzero__mate_1_1arm1176jzf__s_1_1CCPU__Context.html#a4b48d0f9508c738b62d96e5593e6d704" target="_top" xlink:title="Globally enables/disables IRQ (interrupts)">
<polygon fill="white" stroke="#666666" points="511,-375.5 346,-375.5 346,-345.5 511,-345.5 511,-375.5"/>
<text text-anchor="start" x="354" y="-363.5" font-family="Helvetica,sans-Serif" font-size="10.00">zero_mate::arm1176jzf</text>
<text text-anchor="middle" x="428.5" y="-352.5" font-family="Helvetica,sans-Serif" font-size="10.00">_s::CCPU_Context::Enable_IRQ</text>
</a>
</g>
</g>
<!-- Node2&#45;&gt;Node5 -->
<g id="edge4_Node000002_Node000005" class="edge">
<title>Node2&#45;&gt;Node5</title>
<g id="a_edge4_Node000002_Node000005"><a xlink:title=" ">
<path fill="none" stroke="#63b8ff" d="M310.07,-360.5C318.46,-360.5 327.14,-360.5 335.81,-360.5"/>
<polygon fill="#63b8ff" stroke="#63b8ff" points="335.96,-364 345.96,-360.5 335.96,-357 335.96,-364"/>
</a>
</g>
</g>
<!-- Node6 -->
<g id="Node000006" class="node">
<title>Node6</title>
<g id="a_Node000006"><a xlink:href="classzero__mate_1_1arm1176jzf__s_1_1CCPU__Context.html#a2f550e28044af7ff0ddb866527a95356" target="_top" xlink:title="Initializes (resets) all CPU registers.">
<polygon fill="white" stroke="#666666" points="493.5,-238 363.5,-238 363.5,-197 493.5,-197 493.5,-238"/>
<text text-anchor="start" x="371.5" y="-226" font-family="Helvetica,sans-Serif" font-size="10.00">zero_mate::arm1176jzf</text>
<text text-anchor="start" x="371.5" y="-215" font-family="Helvetica,sans-Serif" font-size="10.00">_s::CCPU_Context::Init</text>
<text text-anchor="middle" x="428.5" y="-204" font-family="Helvetica,sans-Serif" font-size="10.00">_Registers</text>
</a>
</g>
</g>
<!-- Node2&#45;&gt;Node6 -->
<g id="edge6_Node000002_Node000006" class="edge">
<title>Node2&#45;&gt;Node6</title>
<g id="a_edge6_Node000002_Node000006"><a xlink:title=" ">
<path fill="none" stroke="#63b8ff" d="M261.95,-345.47C292.91,-321.53 353.86,-274.43 392.54,-244.53"/>
<polygon fill="#63b8ff" stroke="#63b8ff" points="395.14,-246.94 400.91,-238.06 390.85,-241.4 395.14,-246.94"/>
</a>
</g>
</g>
<!-- Node4 -->
<g id="Node000004" class="node">
<title>Node4</title>
<g id="a_Node000004"><a xlink:href="classzero__mate_1_1arm1176jzf__s_1_1CCPU__Context.html#a984bace2773aca71cf04701aa0ce9c54" target="_top" xlink:title="Sets/resets a flag in the CPSR register of the current CPU mode.">
<polygon fill="white" stroke="#666666" points="701,-423.5 549,-423.5 549,-393.5 701,-393.5 701,-423.5"/>
<text text-anchor="start" x="557" y="-411.5" font-family="Helvetica,sans-Serif" font-size="10.00">zero_mate::arm1176jzf</text>
<text text-anchor="middle" x="625" y="-400.5" font-family="Helvetica,sans-Serif" font-size="10.00">_s::CCPU_Context::Set_Flag</text>
</a>
</g>
</g>
<!-- Node3&#45;&gt;Node4 -->
<g id="edge3_Node000003_Node000004" class="edge">
<title>Node3&#45;&gt;Node4</title>
<g id="a_edge3_Node000003_Node000004"><a xlink:title=" ">
<path fill="none" stroke="#63b8ff" d="M510.58,-408.5C519.92,-408.5 529.46,-408.5 538.85,-408.5"/>
<polygon fill="#63b8ff" stroke="#63b8ff" points="538.96,-412 548.96,-408.5 538.96,-405 538.96,-412"/>
</a>
</g>
</g>
<!-- Node5&#45;&gt;Node4 -->
<g id="edge5_Node000005_Node000004" class="edge">
<title>Node5&#45;&gt;Node4</title>
<g id="a_edge5_Node000005_Node000004"><a xlink:title=" ">
<path fill="none" stroke="#63b8ff" d="M490.51,-375.56C510.42,-380.47 532.7,-385.97 553.27,-391.04"/>
<polygon fill="#63b8ff" stroke="#63b8ff" points="552.66,-394.5 563.21,-393.5 554.34,-387.7 552.66,-394.5"/>
</a>
</g>
</g>
<!-- Node7 -->
<g id="Node000007" class="node">
<title>Node7</title>
<g id="a_Node000007"><a xlink:href="classzero__mate_1_1arm1176jzf__s_1_1CCPU__Context.html#aacfb4cc6e44ca967a9e258ba583f588b" target="_top" xlink:title="Resets the banked registers of the Abort mode to 0.">
<polygon fill="white" stroke="#666666" points="690,-375 560,-375 560,-334 690,-334 690,-375"/>
<text text-anchor="start" x="568" y="-363" font-family="Helvetica,sans-Serif" font-size="10.00">zero_mate::arm1176jzf</text>
<text text-anchor="start" x="568" y="-352" font-family="Helvetica,sans-Serif" font-size="10.00">_s::CCPU_Context::Init</text>
<text text-anchor="middle" x="625" y="-341" font-family="Helvetica,sans-Serif" font-size="10.00">_Abort_Banked_Regs</text>
</a>
</g>
</g>
<!-- Node6&#45;&gt;Node7 -->
<g id="edge7_Node000006_Node000007" class="edge">
<title>Node6&#45;&gt;Node7</title>
<g id="a_edge7_Node000006_Node000007"><a xlink:title=" ">
<path fill="none" stroke="#63b8ff" d="M447.64,-238.08C469.32,-261.62 507.61,-300.07 547,-324.5 549.74,-326.2 552.6,-327.84 555.53,-329.4"/>
<polygon fill="#63b8ff" stroke="#63b8ff" points="553.97,-332.54 564.48,-333.89 557.11,-326.28 553.97,-332.54"/>
</a>
</g>
</g>
<!-- Node8 -->
<g id="Node000008" class="node">
<title>Node8</title>
<g id="a_Node000008"><a xlink:href="classzero__mate_1_1arm1176jzf__s_1_1CCPU__Context.html#a68f089f1b45e6f22295a7339eeeade33" target="_top" xlink:title="Resets the CPSR register in all CPU modes.">
<polygon fill="white" stroke="#666666" points="703,-315.5 547,-315.5 547,-285.5 703,-285.5 703,-315.5"/>
<text text-anchor="start" x="555" y="-303.5" font-family="Helvetica,sans-Serif" font-size="10.00">zero_mate::arm1176jzf</text>
<text text-anchor="middle" x="625" y="-292.5" font-family="Helvetica,sans-Serif" font-size="10.00">_s::CCPU_Context::Init_CPSR</text>
</a>
</g>
</g>
<!-- Node6&#45;&gt;Node8 -->
<g id="edge8_Node000006_Node000008" class="edge">
<title>Node6&#45;&gt;Node8</title>
<g id="a_edge8_Node000006_Node000008"><a xlink:title=" ">
<path fill="none" stroke="#63b8ff" d="M466.61,-238.09C489.38,-250.23 519.38,-265.35 547,-276.5 551.75,-278.42 556.71,-280.28 561.73,-282.05"/>
<polygon fill="#63b8ff" stroke="#63b8ff" points="560.81,-285.44 571.41,-285.37 563.08,-278.82 560.81,-285.44"/>
</a>
</g>
</g>
<!-- Node9 -->
<g id="Node000009" class="node">
<title>Node9</title>
<g id="a_Node000009"><a xlink:href="classzero__mate_1_1arm1176jzf__s_1_1CCPU__Context.html#a651a92dac2106063a9988c63fb80fcdd" target="_top" xlink:title="Resets the banked registers of the FIQ mode to 0.">
<polygon fill="white" stroke="#666666" points="690,-267 560,-267 560,-226 690,-226 690,-267"/>
<text text-anchor="start" x="568" y="-255" font-family="Helvetica,sans-Serif" font-size="10.00">zero_mate::arm1176jzf</text>
<text text-anchor="start" x="568" y="-244" font-family="Helvetica,sans-Serif" font-size="10.00">_s::CCPU_Context::Init</text>
<text text-anchor="middle" x="625" y="-233" font-family="Helvetica,sans-Serif" font-size="10.00">_FIQ_Banked_Regs</text>
</a>
</g>
</g>
<!-- Node6&#45;&gt;Node9 -->
<g id="edge9_Node000006_Node000009" class="edge">
<title>Node6&#45;&gt;Node9</title>
<g id="a_edge9_Node000006_Node000009"><a xlink:title=" ">
<path fill="none" stroke="#63b8ff" d="M493.73,-227.08C511.65,-229.75 531.28,-232.67 549.73,-235.43"/>
<polygon fill="#63b8ff" stroke="#63b8ff" points="549.43,-238.92 559.84,-236.93 550.47,-232 549.43,-238.92"/>
</a>
</g>
</g>
<!-- Node10 -->
<g id="Node000010" class="node">
<title>Node10</title>
<g id="a_Node000010"><a xlink:href="classzero__mate_1_1arm1176jzf__s_1_1CCPU__Context.html#a38524842c1e4f158af18c1e2cafd14ed" target="_top" xlink:title="Resets the banked registers of the IRQ mode to 0.">
<polygon fill="white" stroke="#666666" points="690,-208 560,-208 560,-167 690,-167 690,-208"/>
<text text-anchor="start" x="568" y="-196" font-family="Helvetica,sans-Serif" font-size="10.00">zero_mate::arm1176jzf</text>
<text text-anchor="start" x="568" y="-185" font-family="Helvetica,sans-Serif" font-size="10.00">_s::CCPU_Context::Init</text>
<text text-anchor="middle" x="625" y="-174" font-family="Helvetica,sans-Serif" font-size="10.00">_IRQ_Banked_Regs</text>
</a>
</g>
</g>
<!-- Node6&#45;&gt;Node10 -->
<g id="edge10_Node000006_Node000010" class="edge">
<title>Node6&#45;&gt;Node10</title>
<g id="a_edge10_Node000006_Node000010"><a xlink:title=" ">
<path fill="none" stroke="#63b8ff" d="M493.73,-207.59C511.65,-204.83 531.28,-201.8 549.73,-198.96"/>
<polygon fill="#63b8ff" stroke="#63b8ff" points="550.49,-202.38 559.84,-197.4 549.43,-195.46 550.49,-202.38"/>
</a>
</g>
</g>
<!-- Node11 -->
<g id="Node000011" class="node">
<title>Node11</title>
<g id="a_Node000011"><a xlink:href="classzero__mate_1_1arm1176jzf__s_1_1CCPU__Context.html#af24fe774c931e6fe4c0abe70956463de" target="_top" xlink:title="Resets all SPSR registers (in all CPU modes) to 0.">
<polygon fill="white" stroke="#666666" points="702.5,-148.5 547.5,-148.5 547.5,-118.5 702.5,-118.5 702.5,-148.5"/>
<text text-anchor="start" x="555.5" y="-136.5" font-family="Helvetica,sans-Serif" font-size="10.00">zero_mate::arm1176jzf</text>
<text text-anchor="middle" x="625" y="-125.5" font-family="Helvetica,sans-Serif" font-size="10.00">_s::CCPU_Context::Init_SPSR</text>
</a>
</g>
</g>
<!-- Node6&#45;&gt;Node11 -->
<g id="edge11_Node000006_Node000011" class="edge">
<title>Node6&#45;&gt;Node11</title>
<g id="a_edge11_Node000006_Node000011"><a xlink:title=" ">
<path fill="none" stroke="#63b8ff" d="M466.92,-196.88C489.68,-184.81 519.55,-169.77 547,-158.5 552.5,-156.24 558.28,-154.05 564.1,-151.96"/>
<polygon fill="#63b8ff" stroke="#63b8ff" points="565.6,-155.14 573.9,-148.55 563.3,-148.53 565.6,-155.14"/>
</a>
</g>
</g>
<!-- Node12 -->
<g id="Node000012" class="node">
<title>Node12</title>
<g id="a_Node000012"><a xlink:href="classzero__mate_1_1arm1176jzf__s_1_1CCPU__Context.html#a945204938f4a5e92be738c48711218c2" target="_top" xlink:title="Resets the banked registers of the Supervisor mode to 0.">
<polygon fill="white" stroke="#666666" points="697,-100 553,-100 553,-59 697,-59 697,-100"/>
<text text-anchor="start" x="561" y="-88" font-family="Helvetica,sans-Serif" font-size="10.00">zero_mate::arm1176jzf</text>
<text text-anchor="start" x="561" y="-77" font-family="Helvetica,sans-Serif" font-size="10.00">_s::CCPU_Context::Init</text>
<text text-anchor="middle" x="625" y="-66" font-family="Helvetica,sans-Serif" font-size="10.00">_Supervisor_Banked_Regs</text>
</a>
</g>
</g>
<!-- Node6&#45;&gt;Node12 -->
<g id="edge12_Node000006_Node000012" class="edge">
<title>Node6&#45;&gt;Node12</title>
<g id="a_edge12_Node000006_Node000012"><a xlink:title=" ">
<path fill="none" stroke="#63b8ff" d="M447.6,-196.72C469.24,-172.94 507.5,-134.12 547,-109.5 549.74,-107.79 552.59,-106.15 555.52,-104.58"/>
<polygon fill="#63b8ff" stroke="#63b8ff" points="557.1,-107.7 564.47,-100.08 553.96,-101.45 557.1,-107.7"/>
</a>
</g>
</g>
<!-- Node13 -->
<g id="Node000013" class="node">
<title>Node13</title>
<g id="a_Node000013"><a xlink:href="classzero__mate_1_1arm1176jzf__s_1_1CCPU__Context.html#a6eb0ee94a81e166d7b02a78f45b4d028" target="_top" xlink:title="Resets the banked registers of the Undefined mode to 0.">
<polygon fill="white" stroke="#666666" points="696,-41 554,-41 554,0 696,0 696,-41"/>
<text text-anchor="start" x="562" y="-29" font-family="Helvetica,sans-Serif" font-size="10.00">zero_mate::arm1176jzf</text>
<text text-anchor="start" x="562" y="-18" font-family="Helvetica,sans-Serif" font-size="10.00">_s::CCPU_Context::Init</text>
<text text-anchor="middle" x="625" y="-7" font-family="Helvetica,sans-Serif" font-size="10.00">_Undefined_Banked_Regs</text>
</a>
</g>
</g>
<!-- Node6&#45;&gt;Node13 -->
<g id="edge13_Node000006_Node000013" class="edge">
<title>Node6&#45;&gt;Node13</title>
<g id="a_edge13_Node000006_Node000013"><a xlink:title=" ">
<path fill="none" stroke="#63b8ff" d="M438.78,-196.92C455.56,-161.91 494.15,-90.54 547,-49.5 548.36,-48.45 549.76,-47.43 551.19,-46.44"/>
<polygon fill="#63b8ff" stroke="#63b8ff" points="553.08,-49.39 559.75,-41.17 549.4,-43.43 553.08,-49.39"/>
</a>
</g>
</g>
</g>
</svg>
