<?xml version="1.0" encoding="UTF-8" standalone="no"?>
<!DOCTYPE svg PUBLIC "-//W3C//DTD SVG 1.1//EN"
 "http://www.w3.org/Graphics/SVG/1.1/DTD/svg11.dtd">
<!-- Generated by graphviz version 2.43.0 (0)
 -->
<!-- Title: zero_mate::peripheral::CARM_Timer::Increment_Passed_Cycles Pages: 1 -->
<svg width="527pt" height="195pt"
 viewBox="0.00 0.00 527.00 194.50" xmlns="http://www.w3.org/2000/svg" xmlns:xlink="http://www.w3.org/1999/xlink">
<g id="graph0" class="graph" transform="scale(1 1) rotate(0) translate(4 190.5)">
<title>zero_mate::peripheral::CARM_Timer::Increment_Passed_Cycles</title>
<!-- Node1 -->
<g id="Node000001" class="node">
<title>Node1</title>
<g id="a_Node000001"><a xlink:title="Updates the timer (ISystem_Clock_Listener interface).">
<polygon fill="#999999" stroke="#666666" points="141,-124 0,-124 0,-83 141,-83 141,-124"/>
<text text-anchor="start" x="8" y="-112" font-family="Helvetica,sans-Serif" font-size="10.00">zero_mate::peripheral</text>
<text text-anchor="start" x="8" y="-101" font-family="Helvetica,sans-Serif" font-size="10.00">::CARM_Timer::Increment</text>
<text text-anchor="middle" x="70.5" y="-90" font-family="Helvetica,sans-Serif" font-size="10.00">_Passed_Cycles</text>
</a>
</g>
</g>
<!-- Node2 -->
<g id="Node000002" class="node">
<title>Node2</title>
<g id="a_Node000002"><a xlink:href="classzero__mate_1_1peripheral_1_1CARM__Timer.html#a6f089d92275345a7f7a363c942bc8692" target="_top" xlink:title="Returns the current content of the control register.">
<polygon fill="white" stroke="#666666" points="350,-186.5 177,-186.5 177,-156.5 350,-156.5 350,-186.5"/>
<text text-anchor="start" x="185" y="-174.5" font-family="Helvetica,sans-Serif" font-size="10.00">zero_mate::peripheral</text>
<text text-anchor="middle" x="263.5" y="-163.5" font-family="Helvetica,sans-Serif" font-size="10.00">::CARM_Timer::Get_Control_Reg</text>
</a>
</g>
</g>
<!-- Node1&#45;&gt;Node2 -->
<g id="edge1_Node000001_Node000002" class="edge">
<title>Node1&#45;&gt;Node2</title>
<g id="a_edge1_Node000001_Node000002"><a xlink:title=" ">
<path fill="none" stroke="#63b8ff" d="M126.15,-124.02C142.48,-130.07 160.43,-136.63 177,-142.5 186.85,-145.99 197.37,-149.63 207.55,-153.11"/>
<polygon fill="#63b8ff" stroke="#63b8ff" points="206.57,-156.47 217.16,-156.38 208.82,-149.84 206.57,-156.47"/>
</a>
</g>
</g>
<!-- Node3 -->
<g id="Node000003" class="node">
<title>Node3</title>
<g id="a_Node000003"><a xlink:href="classzero__mate_1_1peripheral_1_1CARM__Timer.html#a8aa88bde21b52e4ae5132f8e2a5fb73a" target="_top" xlink:title="Returns the current content of a register.">
<polygon fill="white" stroke="#666666" points="519,-143.5 386,-143.5 386,-113.5 519,-113.5 519,-143.5"/>
<text text-anchor="start" x="394" y="-131.5" font-family="Helvetica,sans-Serif" font-size="10.00">zero_mate::peripheral</text>
<text text-anchor="middle" x="452.5" y="-120.5" font-family="Helvetica,sans-Serif" font-size="10.00">::CARM_Timer::Get_Reg</text>
</a>
</g>
</g>
<!-- Node1&#45;&gt;Node3 -->
<g id="edge3_Node000001_Node000003" class="edge">
<title>Node1&#45;&gt;Node3</title>
<g id="a_edge3_Node000001_Node000003"><a xlink:title=" ">
<path fill="none" stroke="#63b8ff" d="M141.2,-108.09C207.54,-112.45 307.11,-119 375.47,-123.5"/>
<polygon fill="#63b8ff" stroke="#63b8ff" points="375.53,-127.01 385.74,-124.17 375.99,-120.02 375.53,-127.01"/>
</a>
</g>
</g>
<!-- Node4 -->
<g id="Node000004" class="node">
<title>Node4</title>
<g id="a_Node000004"><a xlink:href="classzero__mate_1_1peripheral_1_1CARM__Timer_1_1CPrescaler.html#a781c1f391f64fd775d32b65dee2ba98d" target="_top" xlink:title="Sets a new limit of the prescaler.">
<polygon fill="white" stroke="#666666" points="335,-100 192,-100 192,-59 335,-59 335,-100"/>
<text text-anchor="start" x="200" y="-88" font-family="Helvetica,sans-Serif" font-size="10.00">zero_mate::peripheral</text>
<text text-anchor="start" x="200" y="-77" font-family="Helvetica,sans-Serif" font-size="10.00">::CARM_Timer::CPrescaler</text>
<text text-anchor="middle" x="263.5" y="-66" font-family="Helvetica,sans-Serif" font-size="10.00">::Set_Limit</text>
</a>
</g>
</g>
<!-- Node1&#45;&gt;Node4 -->
<g id="edge4_Node000001_Node000004" class="edge">
<title>Node1&#45;&gt;Node4</title>
<g id="a_edge4_Node000001_Node000004"><a xlink:title=" ">
<path fill="none" stroke="#63b8ff" d="M141.27,-94.73C154.43,-93.08 168.3,-91.34 181.76,-89.65"/>
<polygon fill="#63b8ff" stroke="#63b8ff" points="182.48,-93.08 191.96,-88.36 181.6,-86.14 182.48,-93.08"/>
</a>
</g>
</g>
<!-- Node5 -->
<g id="Node000005" class="node">
<title>Node5</title>
<g id="a_Node000005"><a xlink:href="classzero__mate_1_1peripheral_1_1CARM__Timer.html#a9abc7d434c8ec8120e49e2add79e7346" target="_top" xlink:title="This procedure is called whenever the timer reaches 0 (helper function).">
<polygon fill="white" stroke="#666666" points="335.5,-41 191.5,-41 191.5,0 335.5,0 335.5,-41"/>
<text text-anchor="start" x="199.5" y="-29" font-family="Helvetica,sans-Serif" font-size="10.00">zero_mate::peripheral</text>
<text text-anchor="start" x="199.5" y="-18" font-family="Helvetica,sans-Serif" font-size="10.00">::CARM_Timer::Timer_Has</text>
<text text-anchor="middle" x="263.5" y="-7" font-family="Helvetica,sans-Serif" font-size="10.00">_Reached_Zero</text>
</a>
</g>
</g>
<!-- Node1&#45;&gt;Node5 -->
<g id="edge5_Node000001_Node000005" class="edge">
<title>Node1&#45;&gt;Node5</title>
<g id="a_edge5_Node000001_Node000005"><a xlink:title=" ">
<path fill="none" stroke="#63b8ff" d="M109.53,-82.91C129.35,-72.56 154.17,-60.19 177,-50.5 181.68,-48.51 186.53,-46.55 191.45,-44.64"/>
<polygon fill="#63b8ff" stroke="#63b8ff" points="192.85,-47.85 200.95,-41.03 190.36,-41.31 192.85,-47.85"/>
</a>
</g>
</g>
<!-- Node2&#45;&gt;Node3 -->
<g id="edge2_Node000002_Node000003" class="edge">
<title>Node2&#45;&gt;Node3</title>
<g id="a_edge2_Node000002_Node000003"><a xlink:title=" ">
<path fill="none" stroke="#63b8ff" d="M329.9,-156.46C344.85,-153.02 360.85,-149.34 376.18,-145.82"/>
<polygon fill="#63b8ff" stroke="#63b8ff" points="377.17,-149.18 386.13,-143.53 375.6,-142.36 377.17,-149.18"/>
</a>
</g>
</g>
<!-- Node5&#45;&gt;Node3 -->
<g id="edge6_Node000005_Node000003" class="edge">
<title>Node5&#45;&gt;Node3</title>
<g id="a_edge6_Node000005_Node000003"><a xlink:title=" ">
<path fill="none" stroke="#63b8ff" d="M330.32,-41.17C337.1,-44.02 343.78,-47.13 350,-50.5 378.86,-66.13 408.19,-89.68 427.85,-106.81"/>
<polygon fill="#63b8ff" stroke="#63b8ff" points="425.59,-109.48 435.4,-113.49 430.23,-104.24 425.59,-109.48"/>
</a>
</g>
</g>
</g>
</svg>
