<?xml version="1.0" encoding="UTF-8" standalone="no"?>
<!DOCTYPE svg PUBLIC "-//W3C//DTD SVG 1.1//EN"
 "http://www.w3.org/Graphics/SVG/1.1/DTD/svg11.dtd">
<!-- Generated by graphviz version 2.43.0 (0)
 -->
<!-- Title: zero_mate::gui::CAUX_Window::Render_Mini_UART Pages: 1 -->
<svg width="358pt" height="226pt"
 viewBox="0.00 0.00 358.00 226.00" xmlns="http://www.w3.org/2000/svg" xmlns:xlink="http://www.w3.org/1999/xlink">
<g id="graph0" class="graph" transform="scale(1 1) rotate(0) translate(4 222)">
<title>zero_mate::gui::CAUX_Window::Render_Mini_UART</title>
<!-- Node1 -->
<g id="Node000001" class="node">
<title>Node1</title>
<g id="a_Node000001"><a xlink:title="Renders information related to the mini UART auxiliary peripheral.">
<polygon fill="#999999" stroke="#666666" points="158,-123.5 0,-123.5 0,-93.5 158,-93.5 158,-123.5"/>
<text text-anchor="start" x="8" y="-111.5" font-family="Helvetica,sans-Serif" font-size="10.00">zero_mate::gui::CAUX</text>
<text text-anchor="middle" x="79" y="-100.5" font-family="Helvetica,sans-Serif" font-size="10.00">_Window::Render_Mini_UART</text>
</a>
</g>
</g>
<!-- Node2 -->
<g id="Node000002" class="node">
<title>Node2</title>
<g id="a_Node000002"><a xlink:href="classzero__mate_1_1peripheral_1_1CMini__UART.html#a3ab953c18059ccd52099be9bb7b6edac" target="_top" xlink:title="Returns the set up baud rate.">
<polygon fill="white" stroke="#666666" points="339,-218 205,-218 205,-177 339,-177 339,-218"/>
<text text-anchor="start" x="213" y="-206" font-family="Helvetica,sans-Serif" font-size="10.00">zero_mate::peripheral</text>
<text text-anchor="start" x="213" y="-195" font-family="Helvetica,sans-Serif" font-size="10.00">::CMini_UART::Get_Baud</text>
<text text-anchor="middle" x="272" y="-184" font-family="Helvetica,sans-Serif" font-size="10.00">_Rate_Counter</text>
</a>
</g>
</g>
<!-- Node1&#45;&gt;Node2 -->
<g id="edge1_Node000001_Node000002" class="edge">
<title>Node1&#45;&gt;Node2</title>
<g id="a_edge1_Node000001_Node000002"><a xlink:title=" ">
<path fill="none" stroke="#63b8ff" d="M106.26,-123.51C129.07,-136.27 163.2,-154.66 194,-168.5 197.39,-170.02 200.89,-171.54 204.44,-173.03"/>
<polygon fill="#63b8ff" stroke="#63b8ff" points="203.33,-176.36 213.91,-176.91 205.98,-169.88 203.33,-176.36"/>
</a>
</g>
</g>
<!-- Node3 -->
<g id="Node000003" class="node">
<title>Node3</title>
<g id="a_Node000003"><a xlink:href="classzero__mate_1_1peripheral_1_1CMini__UART.html#a2f29b39f721b4ae5acf81f61ab210325" target="_top" xlink:title="Returns the length of payload (7 or 8 bits).">
<polygon fill="white" stroke="#666666" points="338,-159 206,-159 206,-118 338,-118 338,-159"/>
<text text-anchor="start" x="214" y="-147" font-family="Helvetica,sans-Serif" font-size="10.00">zero_mate::peripheral</text>
<text text-anchor="start" x="214" y="-136" font-family="Helvetica,sans-Serif" font-size="10.00">::CMini_UART::Get_Char</text>
<text text-anchor="middle" x="272" y="-125" font-family="Helvetica,sans-Serif" font-size="10.00">_Length</text>
</a>
</g>
</g>
<!-- Node1&#45;&gt;Node3 -->
<g id="edge2_Node000001_Node000003" class="edge">
<title>Node1&#45;&gt;Node3</title>
<g id="a_edge2_Node000001_Node000003"><a xlink:title=" ">
<path fill="none" stroke="#63b8ff" d="M158.24,-120.79C170.63,-122.74 183.43,-124.75 195.75,-126.68"/>
<polygon fill="#63b8ff" stroke="#63b8ff" points="195.55,-130.19 205.98,-128.29 196.64,-123.28 195.55,-130.19"/>
</a>
</g>
</g>
<!-- Node4 -->
<g id="Node000004" class="node">
<title>Node4</title>
<g id="a_Node000004"><a xlink:href="classzero__mate_1_1peripheral_1_1CMini__UART.html#a2a71009ed1f6227341dad8926bd73d81" target="_top" xlink:title="Returns information about whether the receiver is enabled or not.">
<polygon fill="white" stroke="#666666" points="343.5,-100 200.5,-100 200.5,-59 343.5,-59 343.5,-100"/>
<text text-anchor="start" x="208.5" y="-88" font-family="Helvetica,sans-Serif" font-size="10.00">zero_mate::peripheral</text>
<text text-anchor="start" x="208.5" y="-77" font-family="Helvetica,sans-Serif" font-size="10.00">::CMini_UART::Is_Receiver</text>
<text text-anchor="middle" x="272" y="-66" font-family="Helvetica,sans-Serif" font-size="10.00">_Enabled</text>
</a>
</g>
</g>
<!-- Node1&#45;&gt;Node4 -->
<g id="edge3_Node000001_Node000004" class="edge">
<title>Node1&#45;&gt;Node4</title>
<g id="a_edge3_Node000001_Node000004"><a xlink:title=" ">
<path fill="none" stroke="#63b8ff" d="M158.24,-96.62C168.78,-95.02 179.61,-93.38 190.19,-91.77"/>
<polygon fill="#63b8ff" stroke="#63b8ff" points="190.88,-95.2 200.24,-90.24 189.83,-88.28 190.88,-95.2"/>
</a>
</g>
</g>
<!-- Node5 -->
<g id="Node000005" class="node">
<title>Node5</title>
<g id="a_Node000005"><a xlink:href="classzero__mate_1_1peripheral_1_1CMini__UART.html#a968340fbf2802af5178531146bca03c8" target="_top" xlink:title="Returns information about whether the transmitter is enabled or not.">
<polygon fill="white" stroke="#666666" points="350,-41 194,-41 194,0 350,0 350,-41"/>
<text text-anchor="start" x="202" y="-29" font-family="Helvetica,sans-Serif" font-size="10.00">zero_mate::peripheral</text>
<text text-anchor="start" x="202" y="-18" font-family="Helvetica,sans-Serif" font-size="10.00">::CMini_UART::Is_Transmitter</text>
<text text-anchor="middle" x="272" y="-7" font-family="Helvetica,sans-Serif" font-size="10.00">_Enabled</text>
</a>
</g>
</g>
<!-- Node1&#45;&gt;Node5 -->
<g id="edge4_Node000001_Node000005" class="edge">
<title>Node1&#45;&gt;Node5</title>
<g id="a_edge4_Node000001_Node000005"><a xlink:title=" ">
<path fill="none" stroke="#63b8ff" d="M107.73,-93.41C130.59,-81.22 164.01,-63.93 194,-50.5 198.09,-48.67 202.32,-46.84 206.61,-45.04"/>
<polygon fill="#63b8ff" stroke="#63b8ff" points="208.13,-48.19 216.04,-41.14 205.46,-41.72 208.13,-48.19"/>
</a>
</g>
</g>
</g>
</svg>
