<?xml version="1.0" encoding="UTF-8" standalone="no"?>
<!DOCTYPE svg PUBLIC "-//W3C//DTD SVG 1.1//EN"
 "http://www.w3.org/Graphics/SVG/1.1/DTD/svg11.dtd">
<!-- Generated by graphviz version 2.43.0 (0)
 -->
<!-- Title: zero_mate::peripheral::CBSC::Write Pages: 1 -->
<svg width="1085pt" height="208pt"
 viewBox="0.00 0.00 1085.00 207.50" xmlns="http://www.w3.org/2000/svg" xmlns:xlink="http://www.w3.org/1999/xlink">
<g id="graph0" class="graph" transform="scale(1 1) rotate(0) translate(4 203.5)">
<title>zero_mate::peripheral::CBSC::Write</title>
<!-- Node1 -->
<g id="Node000001" class="node">
<title>Node1</title>
<g id="a_Node000001"><a xlink:title="Writes data to the peripheral (IPeripheral interface).">
<polygon fill="#999999" stroke="#666666" points="124,-145.5 0,-145.5 0,-115.5 124,-115.5 124,-145.5"/>
<text text-anchor="start" x="8" y="-133.5" font-family="Helvetica,sans-Serif" font-size="10.00">zero_mate::peripheral</text>
<text text-anchor="middle" x="62" y="-122.5" font-family="Helvetica,sans-Serif" font-size="10.00">::CBSC::Write</text>
</a>
</g>
</g>
<!-- Node2 -->
<g id="Node000002" class="node">
<title>Node2</title>
<g id="a_Node000002"><a xlink:href="classzero__mate_1_1peripheral_1_1CBSC.html#ab30554a8b7d94ebd2beb2fd4e21c6869" target="_top" xlink:title="Adds data to the FIFO.">
<polygon fill="white" stroke="#666666" points="313.5,-169.5 167.5,-169.5 167.5,-139.5 313.5,-139.5 313.5,-169.5"/>
<text text-anchor="start" x="175.5" y="-157.5" font-family="Helvetica,sans-Serif" font-size="10.00">zero_mate::peripheral</text>
<text text-anchor="middle" x="240.5" y="-146.5" font-family="Helvetica,sans-Serif" font-size="10.00">::CBSC::Add_Data_To_FIFO</text>
</a>
</g>
</g>
<!-- Node1&#45;&gt;Node2 -->
<g id="edge1_Node000001_Node000002" class="edge">
<title>Node1&#45;&gt;Node2</title>
<g id="a_edge1_Node000001_Node000002"><a xlink:title=" ">
<path fill="none" stroke="#63b8ff" d="M124.24,-138.83C134.91,-140.28 146.16,-141.81 157.29,-143.32"/>
<polygon fill="#63b8ff" stroke="#63b8ff" points="157.07,-146.82 167.45,-144.7 158.01,-139.89 157.07,-146.82"/>
</a>
</g>
</g>
<!-- Node3 -->
<g id="Node000003" class="node">
<title>Node3</title>
<g id="a_Node000003"><a xlink:href="classzero__mate_1_1peripheral_1_1CBSC.html#ab743dd233479745864da73cf7020ba15" target="_top" xlink:title="Performs actions after the control register has been written to.">
<polygon fill="white" stroke="#666666" points="321,-121.5 160,-121.5 160,-91.5 321,-91.5 321,-121.5"/>
<text text-anchor="start" x="168" y="-109.5" font-family="Helvetica,sans-Serif" font-size="10.00">zero_mate::peripheral</text>
<text text-anchor="middle" x="240.5" y="-98.5" font-family="Helvetica,sans-Serif" font-size="10.00">::CBSC::Control_Reg_Callback</text>
</a>
</g>
</g>
<!-- Node1&#45;&gt;Node3 -->
<g id="edge2_Node000001_Node000003" class="edge">
<title>Node1&#45;&gt;Node3</title>
<g id="a_edge2_Node000001_Node000003"><a xlink:title=" ">
<path fill="none" stroke="#63b8ff" d="M124.24,-122.17C132.47,-121.05 141.04,-119.89 149.64,-118.72"/>
<polygon fill="#63b8ff" stroke="#63b8ff" points="150.28,-122.16 159.72,-117.35 149.34,-115.23 150.28,-122.16"/>
</a>
</g>
</g>
<!-- Node4 -->
<g id="Node000004" class="node">
<title>Node4</title>
<g id="a_Node000004"><a xlink:href="classzero__mate_1_1peripheral_1_1CBSC.html#abb0839be28efd814d455b83af743e347" target="_top" xlink:title="Clears the FIFO.">
<polygon fill="white" stroke="#666666" points="496,-196.5 372,-196.5 372,-166.5 496,-166.5 496,-196.5"/>
<text text-anchor="start" x="380" y="-184.5" font-family="Helvetica,sans-Serif" font-size="10.00">zero_mate::peripheral</text>
<text text-anchor="middle" x="434" y="-173.5" font-family="Helvetica,sans-Serif" font-size="10.00">::CBSC::Clear_FIFO</text>
</a>
</g>
</g>
<!-- Node3&#45;&gt;Node4 -->
<g id="edge3_Node000003_Node000004" class="edge">
<title>Node3&#45;&gt;Node4</title>
<g id="a_edge3_Node000003_Node000004"><a xlink:title=" ">
<path fill="none" stroke="#63b8ff" d="M300.17,-121.64C307.34,-124.23 314.44,-127.18 321,-130.5 338.85,-139.53 339.21,-148.36 357,-157.5 360.57,-159.33 364.3,-161.06 368.12,-162.68"/>
<polygon fill="#63b8ff" stroke="#63b8ff" points="367.14,-166.06 377.73,-166.48 369.72,-159.55 367.14,-166.06"/>
</a>
</g>
</g>
<!-- Node5 -->
<g id="Node000005" class="node">
<title>Node5</title>
<g id="a_Node000005"><a xlink:href="classzero__mate_1_1peripheral_1_1CBSC.html#a74b84158da1933e79f091706e27c12f5" target="_top" xlink:title="Sets the state of a given GPIO pin.">
<polygon fill="white" stroke="#666666" points="496,-148.5 372,-148.5 372,-118.5 496,-118.5 496,-148.5"/>
<text text-anchor="start" x="380" y="-136.5" font-family="Helvetica,sans-Serif" font-size="10.00">zero_mate::peripheral</text>
<text text-anchor="middle" x="434" y="-125.5" font-family="Helvetica,sans-Serif" font-size="10.00">::CBSC::Set_GPIO_pin</text>
</a>
</g>
</g>
<!-- Node3&#45;&gt;Node5 -->
<g id="edge4_Node000003_Node000005" class="edge">
<title>Node3&#45;&gt;Node5</title>
<g id="a_edge4_Node000003_Node000005"><a xlink:title=" ">
<path fill="none" stroke="#63b8ff" d="M321.05,-117.72C334.56,-119.62 348.52,-121.59 361.8,-123.46"/>
<polygon fill="#63b8ff" stroke="#63b8ff" points="361.41,-126.94 371.8,-124.87 362.39,-120.01 361.41,-126.94"/>
</a>
</g>
</g>
<!-- Node11 -->
<g id="Node000011" class="node">
<title>Node11</title>
<g id="a_Node000011"><a xlink:href="classzero__mate_1_1peripheral_1_1CBSC.html#a631f31f819abf852e17bc0d6a54daa58" target="_top" xlink:title="Checks whether the FIFO should be cleared or not.">
<polygon fill="white" stroke="#666666" points="501,-100 367,-100 367,-59 501,-59 501,-100"/>
<text text-anchor="start" x="375" y="-88" font-family="Helvetica,sans-Serif" font-size="10.00">zero_mate::peripheral</text>
<text text-anchor="start" x="375" y="-77" font-family="Helvetica,sans-Serif" font-size="10.00">::CBSC::Should_FIFO_Be</text>
<text text-anchor="middle" x="434" y="-66" font-family="Helvetica,sans-Serif" font-size="10.00">_Cleared</text>
</a>
</g>
</g>
<!-- Node3&#45;&gt;Node11 -->
<g id="edge10_Node000003_Node000011" class="edge">
<title>Node3&#45;&gt;Node11</title>
<g id="a_edge10_Node000003_Node000011"><a xlink:title=" ">
<path fill="none" stroke="#63b8ff" d="M321.05,-95.28C332.81,-93.63 344.91,-91.92 356.61,-90.27"/>
<polygon fill="#63b8ff" stroke="#63b8ff" points="357.35,-93.7 366.77,-88.84 356.37,-86.77 357.35,-93.7"/>
</a>
</g>
</g>
<!-- Node12 -->
<g id="Node000012" class="node">
<title>Node12</title>
<g id="a_Node000012"><a xlink:href="classzero__mate_1_1peripheral_1_1CBSC.html#af7243c8e41ac6d45e77d915ce2eb0a89" target="_top" xlink:title="Checks whether a new data transfer (transaction) should begin.">
<polygon fill="white" stroke="#666666" points="511,-41 357,-41 357,0 511,0 511,-41"/>
<text text-anchor="start" x="365" y="-29" font-family="Helvetica,sans-Serif" font-size="10.00">zero_mate::peripheral</text>
<text text-anchor="start" x="365" y="-18" font-family="Helvetica,sans-Serif" font-size="10.00">::CBSC::Should_Transaction_</text>
<text text-anchor="middle" x="434" y="-7" font-family="Helvetica,sans-Serif" font-size="10.00">Begin</text>
</a>
</g>
</g>
<!-- Node3&#45;&gt;Node12 -->
<g id="edge11_Node000003_Node000012" class="edge">
<title>Node3&#45;&gt;Node12</title>
<g id="a_edge11_Node000003_Node000012"><a xlink:title=" ">
<path fill="none" stroke="#63b8ff" d="M270.1,-91.45C293.26,-79.49 326.87,-62.65 357,-49.5 360.44,-48 363.98,-46.5 367.57,-45.01"/>
<polygon fill="#63b8ff" stroke="#63b8ff" points="369.19,-48.13 377.14,-41.13 366.55,-41.65 369.19,-48.13"/>
</a>
</g>
</g>
<!-- Node6 -->
<g id="Node000006" class="node">
<title>Node6</title>
<g id="a_Node000006"><a xlink:href="classzero__mate_1_1utils_1_1CLogging__System.html#a57ed77e1a5cf822cea532cc5e05c3f60" target="_top" xlink:title="Logs an error message via all registered loggers.">
<polygon fill="white" stroke="#666666" points="693,-148.5 547,-148.5 547,-118.5 693,-118.5 693,-148.5"/>
<text text-anchor="start" x="555" y="-136.5" font-family="Helvetica,sans-Serif" font-size="10.00">zero_mate::utils::CLogging</text>
<text text-anchor="middle" x="620" y="-125.5" font-family="Helvetica,sans-Serif" font-size="10.00">_System::Error</text>
</a>
</g>
</g>
<!-- Node5&#45;&gt;Node6 -->
<g id="edge5_Node000005_Node000006" class="edge">
<title>Node5&#45;&gt;Node6</title>
<g id="a_edge5_Node000005_Node000006"><a xlink:title=" ">
<path fill="none" stroke="#63b8ff" d="M496.01,-133.5C509.02,-133.5 522.96,-133.5 536.61,-133.5"/>
<polygon fill="#63b8ff" stroke="#63b8ff" points="536.98,-137 546.98,-133.5 536.98,-130 536.98,-137"/>
</a>
</g>
</g>
<!-- Node7 -->
<g id="Node000007" class="node">
<title>Node7</title>
<g id="a_Node000007"><a xlink:href="classzero__mate_1_1utils_1_1CLogging__System.html#a71ed11c796553cbe8fd99773406a1060" target="_top" xlink:title="Creates a formatted message to be logged.">
<polygon fill="white" stroke="#666666" points="881,-181 729,-181 729,-140 881,-140 881,-181"/>
<text text-anchor="start" x="737" y="-169" font-family="Helvetica,sans-Serif" font-size="10.00">zero_mate::utils::CLogging</text>
<text text-anchor="start" x="737" y="-158" font-family="Helvetica,sans-Serif" font-size="10.00">_System::Create_Formatted</text>
<text text-anchor="middle" x="805" y="-147" font-family="Helvetica,sans-Serif" font-size="10.00">_Log_Msg</text>
</a>
</g>
</g>
<!-- Node6&#45;&gt;Node7 -->
<g id="edge6_Node000006_Node000007" class="edge">
<title>Node6&#45;&gt;Node7</title>
<g id="a_edge6_Node000006_Node000007"><a xlink:title=" ">
<path fill="none" stroke="#63b8ff" d="M693.06,-144.13C701.55,-145.38 710.26,-146.67 718.9,-147.94"/>
<polygon fill="#63b8ff" stroke="#63b8ff" points="718.59,-151.44 728.99,-149.43 719.61,-144.51 718.59,-151.44"/>
</a>
</g>
</g>
<!-- Node10 -->
<g id="Node000010" class="node">
<title>Node10</title>
<g id="a_Node000010"><a xlink:href="classzero__mate_1_1utils_1_1CLogging__System.html#ad371c67ef65763966ccf9291002e86f3" target="_top" xlink:title="Extract the filename from a given location within the source files.">
<polygon fill="white" stroke="#666666" points="879.5,-121.5 730.5,-121.5 730.5,-91.5 879.5,-91.5 879.5,-121.5"/>
<text text-anchor="start" x="738.5" y="-109.5" font-family="Helvetica,sans-Serif" font-size="10.00">zero_mate::utils::CLogging</text>
<text text-anchor="middle" x="805" y="-98.5" font-family="Helvetica,sans-Serif" font-size="10.00">_System::Extract_Filename</text>
</a>
</g>
</g>
<!-- Node6&#45;&gt;Node10 -->
<g id="edge9_Node000006_Node000010" class="edge">
<title>Node6&#45;&gt;Node10</title>
<g id="a_edge9_Node000006_Node000010"><a xlink:title=" ">
<path fill="none" stroke="#63b8ff" d="M693.06,-122.87C702.1,-121.53 711.4,-120.16 720.59,-118.81"/>
<polygon fill="#63b8ff" stroke="#63b8ff" points="721.12,-122.27 730.5,-117.34 720.1,-115.34 721.12,-122.27"/>
</a>
</g>
</g>
<!-- Node8 -->
<g id="Node000008" class="node">
<title>Node8</title>
<g id="a_Node000008"><a xlink:href="classzero__mate_1_1utils_1_1CLogging__System.html#aa70c102c805079042ffea2a6f2a5ad64" target="_top" xlink:title="Formats a given timestamp.">
<polygon fill="white" stroke="#666666" points="1077,-199.5 917,-199.5 917,-169.5 1077,-169.5 1077,-199.5"/>
<text text-anchor="start" x="925" y="-187.5" font-family="Helvetica,sans-Serif" font-size="10.00">zero_mate::utils::CLogging</text>
<text text-anchor="middle" x="997" y="-176.5" font-family="Helvetica,sans-Serif" font-size="10.00">_System::Format_Timestamp</text>
</a>
</g>
</g>
<!-- Node7&#45;&gt;Node8 -->
<g id="edge7_Node000007_Node000008" class="edge">
<title>Node7&#45;&gt;Node8</title>
<g id="a_edge7_Node000007_Node000008"><a xlink:title=" ">
<path fill="none" stroke="#63b8ff" d="M881.09,-169.99C889.52,-171.05 898.16,-172.14 906.74,-173.23"/>
<polygon fill="#63b8ff" stroke="#63b8ff" points="906.41,-176.71 916.77,-174.49 907.29,-169.77 906.41,-176.71"/>
</a>
</g>
</g>
<!-- Node9 -->
<g id="Node000009" class="node">
<title>Node9</title>
<g id="a_Node000009"><a xlink:href="classzero__mate_1_1utils_1_1CLogging__System.html#ae3ca637537dde05e0b9119145c840331" target="_top" xlink:title="Returns the current timestamp that will be used in a log message.">
<polygon fill="white" stroke="#666666" points="1070,-151.5 924,-151.5 924,-121.5 1070,-121.5 1070,-151.5"/>
<text text-anchor="start" x="932" y="-139.5" font-family="Helvetica,sans-Serif" font-size="10.00">zero_mate::utils::CLogging</text>
<text text-anchor="middle" x="997" y="-128.5" font-family="Helvetica,sans-Serif" font-size="10.00">_System::Get_Timestamp</text>
</a>
</g>
</g>
<!-- Node7&#45;&gt;Node9 -->
<g id="edge8_Node000007_Node000009" class="edge">
<title>Node7&#45;&gt;Node9</title>
<g id="a_edge8_Node000007_Node000009"><a xlink:title=" ">
<path fill="none" stroke="#63b8ff" d="M881.09,-151.01C891.89,-149.65 903.05,-148.24 913.98,-146.86"/>
<polygon fill="#63b8ff" stroke="#63b8ff" points="914.45,-150.33 923.93,-145.6 913.57,-143.38 914.45,-150.33"/>
</a>
</g>
</g>
</g>
</svg>
