<?xml version="1.0" encoding="UTF-8" standalone="no"?>
<!DOCTYPE svg PUBLIC "-//W3C//DTD SVG 1.1//EN"
 "http://www.w3.org/Graphics/SVG/1.1/DTD/svg11.dtd">
<!-- Generated by graphviz version 2.43.0 (0)
 -->
<!-- Title: zero_mate::peripheral::CMini_UART Pages: 1 -->
<svg width="607pt" height="146pt"
 viewBox="0.00 0.00 607.00 145.50" xmlns="http://www.w3.org/2000/svg" xmlns:xlink="http://www.w3.org/1999/xlink">
<g id="graph0" class="graph" transform="scale(1 1) rotate(0) translate(4 141.5)">
<title>zero_mate::peripheral::CMini_UART</title>
<!-- Node1 -->
<g id="Node000001" class="node">
<title>Node1</title>
<g id="a_Node000001"><a xlink:title="This class represents the Mini UART used in BCM2835.">
<polygon fill="#999999" stroke="#666666" points="599,-57.5 475,-57.5 475,-27.5 599,-27.5 599,-57.5"/>
<text text-anchor="start" x="483" y="-45.5" font-family="Helvetica,sans-Serif" font-size="10.00">zero_mate::peripheral</text>
<text text-anchor="middle" x="537" y="-34.5" font-family="Helvetica,sans-Serif" font-size="10.00">::CMini_UART</text>
</a>
</g>
</g>
<!-- Node2 -->
<g id="Node000002" class="node">
<title>Node2</title>
<g id="a_Node000002"><a xlink:href="classzero__mate_1_1peripheral_1_1CAUX.html" target="_top" xlink:title="This class represents the auxiliaries (UART1 &amp; SPI1, and SPI2).">
<polygon fill="white" stroke="#666666" points="402,-89.5 278,-89.5 278,-59.5 402,-59.5 402,-89.5"/>
<text text-anchor="start" x="286" y="-77.5" font-family="Helvetica,sans-Serif" font-size="10.00">zero_mate::peripheral</text>
<text text-anchor="middle" x="340" y="-66.5" font-family="Helvetica,sans-Serif" font-size="10.00">::CAUX</text>
</a>
</g>
</g>
<!-- Node2&#45;&gt;Node1 -->
<g id="edge1_Node000001_Node000002" class="edge">
<title>Node2&#45;&gt;Node1</title>
<g id="a_edge1_Node000001_Node000002"><a xlink:title=" ">
<path fill="none" stroke="#9a32cd" stroke-dasharray="5,2" d="M412.09,-62.83C432.62,-59.47 454.84,-55.82 474.72,-52.56"/>
<polygon fill="#9a32cd" stroke="#9a32cd" points="411.47,-59.39 402.16,-64.46 412.6,-66.3 411.47,-59.39"/>
</a>
</g>
<text text-anchor="middle" x="438.5" y="-63.5" font-family="Helvetica,sans-Serif" font-size="10.00" fill="grey"> m_aux</text>
</g>
<!-- Node3 -->
<g id="Node000003" class="node">
<title>Node3</title>
<g id="a_Node000003"><a xlink:href="classzero__mate_1_1peripheral_1_1IPeripheral.html" target="_top" xlink:title="This class represents a general interface of a memory&#45;mapped peripheral.">
<polygon fill="white" stroke="#666666" points="135,-137.5 11,-137.5 11,-107.5 135,-107.5 135,-137.5"/>
<text text-anchor="start" x="19" y="-125.5" font-family="Helvetica,sans-Serif" font-size="10.00">zero_mate::peripheral</text>
<text text-anchor="middle" x="73" y="-114.5" font-family="Helvetica,sans-Serif" font-size="10.00">::IPeripheral</text>
</a>
</g>
</g>
<!-- Node3&#45;&gt;Node2 -->
<g id="edge2_Node000002_Node000003" class="edge">
<title>Node3&#45;&gt;Node2</title>
<g id="a_edge2_Node000002_Node000003"><a xlink:title=" ">
<path fill="none" stroke="#63b8ff" d="M145.14,-109.61C186.52,-102.12 238.15,-92.77 277.72,-85.6"/>
<polygon fill="#63b8ff" stroke="#63b8ff" points="144.35,-106.2 135.13,-111.43 145.59,-113.09 144.35,-106.2"/>
</a>
</g>
</g>
<!-- Node4 -->
<g id="Node000004" class="node">
<title>Node4</title>
<g id="a_Node000004"><a xlink:href="classzero__mate_1_1peripheral_1_1ISystem__Clock__Listener.html" target="_top" xlink:title="This class represents a general interface for a CPU clock listener.">
<polygon fill="white" stroke="#666666" points="142.5,-89.5 3.5,-89.5 3.5,-59.5 142.5,-59.5 142.5,-89.5"/>
<text text-anchor="start" x="11.5" y="-77.5" font-family="Helvetica,sans-Serif" font-size="10.00">zero_mate::peripheral</text>
<text text-anchor="middle" x="73" y="-66.5" font-family="Helvetica,sans-Serif" font-size="10.00">::ISystem_Clock_Listener</text>
</a>
</g>
</g>
<!-- Node4&#45;&gt;Node2 -->
<g id="edge3_Node000002_Node000004" class="edge">
<title>Node4&#45;&gt;Node2</title>
<g id="a_edge3_Node000002_Node000004"><a xlink:title=" ">
<path fill="none" stroke="#63b8ff" d="M152.59,-74.5C192.67,-74.5 240.67,-74.5 277.93,-74.5"/>
<polygon fill="#63b8ff" stroke="#63b8ff" points="152.59,-71 142.59,-74.5 152.59,-78 152.59,-71"/>
</a>
</g>
</g>
<!-- Node5 -->
<g id="Node000005" class="node">
<title>Node5</title>
<g id="a_Node000005"><a xlink:href="classzero__mate_1_1utils_1_1CLogging__System.html" target="_top" xlink:title="This class defines a logging system that is used throughout the project.">
<polygon fill="white" stroke="#666666" points="146,-41.5 0,-41.5 0,-11.5 146,-11.5 146,-41.5"/>
<text text-anchor="start" x="8" y="-29.5" font-family="Helvetica,sans-Serif" font-size="10.00">zero_mate::utils::CLogging</text>
<text text-anchor="middle" x="73" y="-18.5" font-family="Helvetica,sans-Serif" font-size="10.00">_System</text>
</a>
</g>
</g>
<!-- Node5&#45;&gt;Node2 -->
<g id="edge4_Node000002_Node000005" class="edge">
<title>Node5&#45;&gt;Node2</title>
<g id="a_edge4_Node000002_Node000005"><a xlink:title=" ">
<path fill="none" stroke="#9a32cd" stroke-dasharray="5,2" d="M155.91,-40.81C188.34,-46.54 225.94,-53.25 260,-59.5 265.77,-60.56 271.77,-61.67 277.77,-62.8"/>
<polygon fill="#9a32cd" stroke="#9a32cd" points="156.48,-37.36 146.02,-39.07 155.26,-44.25 156.48,-37.36"/>
</a>
</g>
<text text-anchor="middle" x="212" y="-62.5" font-family="Helvetica,sans-Serif" font-size="10.00" fill="grey"> m_logging_system</text>
</g>
<!-- Node6 -->
<g id="Node000006" class="node">
<title>Node6</title>
<g id="a_Node000006"><a xlink:href="structzero__mate_1_1peripheral_1_1CMini__UART_1_1TState__Machine__Data.html" target="_top" xlink:title="Encapsulation of state machine related data (transmission/reception).">
<polygon fill="white" stroke="#666666" points="402,-41 278,-41 278,0 402,0 402,-41"/>
<text text-anchor="start" x="286" y="-29" font-family="Helvetica,sans-Serif" font-size="10.00">zero_mate::peripheral</text>
<text text-anchor="start" x="286" y="-18" font-family="Helvetica,sans-Serif" font-size="10.00">::CMini_UART::TState</text>
<text text-anchor="middle" x="340" y="-7" font-family="Helvetica,sans-Serif" font-size="10.00">_Machine_Data</text>
</a>
</g>
</g>
<!-- Node6&#45;&gt;Node1 -->
<g id="edge5_Node000001_Node000006" class="edge">
<title>Node6&#45;&gt;Node1</title>
<g id="a_edge5_Node000001_Node000006"><a xlink:title=" ">
<path fill="none" stroke="#9a32cd" stroke-dasharray="5,2" d="M412.38,-21.68C427.17,-22.45 442.62,-23.66 457,-25.5 462.84,-26.25 468.9,-27.21 474.93,-28.29"/>
<polygon fill="#9a32cd" stroke="#9a32cd" points="412.42,-18.18 402.27,-21.21 412.1,-25.17 412.42,-18.18"/>
</a>
</g>
<text text-anchor="middle" x="438.5" y="-39.5" font-family="Helvetica,sans-Serif" font-size="10.00" fill="grey"> m_rx</text>
<text text-anchor="middle" x="438.5" y="-28.5" font-family="Helvetica,sans-Serif" font-size="10.00" fill="grey">m_tx</text>
</g>
</g>
</svg>
