<?xml version="1.0" encoding="UTF-8" standalone="no"?>
<!DOCTYPE svg PUBLIC "-//W3C//DTD SVG 1.1//EN"
 "http://www.w3.org/Graphics/SVG/1.1/DTD/svg11.dtd">
<!-- Generated by graphviz version 2.43.0 (0)
 -->
<!-- Title: zero_mate::peripheral::CMini_UART::Update_RX Pages: 1 -->
<svg width="482pt" height="49pt"
 viewBox="0.00 0.00 482.00 49.00" xmlns="http://www.w3.org/2000/svg" xmlns:xlink="http://www.w3.org/1999/xlink">
<g id="graph0" class="graph" transform="scale(1 1) rotate(0) translate(4 45)">
<title>zero_mate::peripheral::CMini_UART::Update_RX</title>
<!-- Node1 -->
<g id="Node000001" class="node">
<title>Node1</title>
<g id="a_Node000001"><a xlink:title="Updates the reception state machines.">
<polygon fill="#999999" stroke="#666666" points="474,-35.5 333,-35.5 333,-5.5 474,-5.5 474,-35.5"/>
<text text-anchor="start" x="341" y="-23.5" font-family="Helvetica,sans-Serif" font-size="10.00">zero_mate::peripheral</text>
<text text-anchor="middle" x="403.5" y="-12.5" font-family="Helvetica,sans-Serif" font-size="10.00">::CMini_UART::Update_RX</text>
</a>
</g>
</g>
<!-- Node2 -->
<g id="Node000002" class="node">
<title>Node2</title>
<g id="a_Node000002"><a xlink:href="classzero__mate_1_1peripheral_1_1CMini__UART.html#a3b75064597a5fbfe9c4c7d1f2e0c7e5f" target="_top" xlink:title="Updates the state machines (transmission/reception).">
<polygon fill="white" stroke="#666666" points="297,-35.5 173,-35.5 173,-5.5 297,-5.5 297,-35.5"/>
<text text-anchor="start" x="181" y="-23.5" font-family="Helvetica,sans-Serif" font-size="10.00">zero_mate::peripheral</text>
<text text-anchor="middle" x="235" y="-12.5" font-family="Helvetica,sans-Serif" font-size="10.00">::CMini_UART::Update</text>
</a>
</g>
</g>
<!-- Node1&#45;&gt;Node2 -->
<g id="edge1_Node000001_Node000002" class="edge">
<title>Node1&#45;&gt;Node2</title>
<g id="a_edge1_Node000001_Node000002"><a xlink:title=" ">
<path fill="none" stroke="#63b8ff" d="M322.79,-20.5C314.17,-20.5 305.51,-20.5 297.16,-20.5"/>
<polygon fill="#63b8ff" stroke="#63b8ff" points="322.85,-24 332.85,-20.5 322.85,-17 322.85,-24"/>
</a>
</g>
</g>
<!-- Node3 -->
<g id="Node000003" class="node">
<title>Node3</title>
<g id="a_Node000003"><a xlink:href="classzero__mate_1_1peripheral_1_1CMini__UART.html#aae5f7e2bbffa6e3881675058a0aedf6f" target="_top" xlink:title="Updates the number of passed CPU cycles (forwarded from the AUX peripheral).">
<polygon fill="white" stroke="#666666" points="137,-41 0,-41 0,0 137,0 137,-41"/>
<text text-anchor="start" x="8" y="-29" font-family="Helvetica,sans-Serif" font-size="10.00">zero_mate::peripheral</text>
<text text-anchor="start" x="8" y="-18" font-family="Helvetica,sans-Serif" font-size="10.00">::CMini_UART::Increment</text>
<text text-anchor="middle" x="68.5" y="-7" font-family="Helvetica,sans-Serif" font-size="10.00">_Passed_Cycles</text>
</a>
</g>
</g>
<!-- Node2&#45;&gt;Node3 -->
<g id="edge2_Node000002_Node000003" class="edge">
<title>Node2&#45;&gt;Node3</title>
<g id="a_edge2_Node000002_Node000003"><a xlink:title=" ">
<path fill="none" stroke="#63b8ff" d="M162.56,-20.5C154.13,-20.5 145.54,-20.5 137.16,-20.5"/>
<polygon fill="#63b8ff" stroke="#63b8ff" points="162.75,-24 172.75,-20.5 162.75,-17 162.75,-24"/>
</a>
</g>
</g>
</g>
</svg>
