<?xml version="1.0" encoding="UTF-8" standalone="no"?>
<!DOCTYPE svg PUBLIC "-//W3C//DTD SVG 1.1//EN"
 "http://www.w3.org/Graphics/SVG/1.1/DTD/svg11.dtd">
<!-- Generated by graphviz version 2.43.0 (0)
 -->
<!-- Title: zero_mate::peripheral::CMini_UART::Get_Baud_Rate_Counter Pages: 1 -->
<svg width="495pt" height="98pt"
 viewBox="0.00 0.00 495.00 97.50" xmlns="http://www.w3.org/2000/svg" xmlns:xlink="http://www.w3.org/1999/xlink">
<g id="graph0" class="graph" transform="scale(1 1) rotate(0) translate(4 93.5)">
<title>zero_mate::peripheral::CMini_UART::Get_Baud_Rate_Counter</title>
<!-- Node1 -->
<g id="Node000001" class="node">
<title>Node1</title>
<g id="a_Node000001"><a xlink:title="Returns the set up baud rate.">
<polygon fill="#999999" stroke="#666666" points="487,-62.5 353,-62.5 353,-21.5 487,-21.5 487,-62.5"/>
<text text-anchor="start" x="361" y="-50.5" font-family="Helvetica,sans-Serif" font-size="10.00">zero_mate::peripheral</text>
<text text-anchor="start" x="361" y="-39.5" font-family="Helvetica,sans-Serif" font-size="10.00">::CMini_UART::Get_Baud</text>
<text text-anchor="middle" x="420" y="-28.5" font-family="Helvetica,sans-Serif" font-size="10.00">_Rate_Counter</text>
</a>
</g>
</g>
<!-- Node2 -->
<g id="Node000002" class="node">
<title>Node2</title>
<g id="a_Node000002"><a xlink:href="classzero__mate_1_1peripheral_1_1CMini__UART.html#aae5f7e2bbffa6e3881675058a0aedf6f" target="_top" xlink:title="Updates the number of passed CPU cycles (forwarded from the AUX peripheral).">
<polygon fill="white" stroke="#666666" points="306.5,-89.5 169.5,-89.5 169.5,-48.5 306.5,-48.5 306.5,-89.5"/>
<text text-anchor="start" x="177.5" y="-77.5" font-family="Helvetica,sans-Serif" font-size="10.00">zero_mate::peripheral</text>
<text text-anchor="start" x="177.5" y="-66.5" font-family="Helvetica,sans-Serif" font-size="10.00">::CMini_UART::Increment</text>
<text text-anchor="middle" x="238" y="-55.5" font-family="Helvetica,sans-Serif" font-size="10.00">_Passed_Cycles</text>
</a>
</g>
</g>
<!-- Node1&#45;&gt;Node2 -->
<g id="edge1_Node000001_Node000002" class="edge">
<title>Node1&#45;&gt;Node2</title>
<g id="a_edge1_Node000001_Node000002"><a xlink:title=" ">
<path fill="none" stroke="#63b8ff" d="M342.93,-53.41C330.83,-55.23 318.39,-57.09 306.5,-58.87"/>
<polygon fill="#63b8ff" stroke="#63b8ff" points="343.63,-56.85 353,-51.9 342.59,-49.92 343.63,-56.85"/>
</a>
</g>
</g>
<!-- Node3 -->
<g id="Node000003" class="node">
<title>Node3</title>
<g id="a_Node000003"><a xlink:href="classzero__mate_1_1gui_1_1CAUX__Window.html#a84134555bb7100075f909c0de2f0829b" target="_top" xlink:title="Renders information related to the mini UART auxiliary peripheral.">
<polygon fill="white" stroke="#666666" points="317,-30 159,-30 159,0 317,0 317,-30"/>
<text text-anchor="start" x="167" y="-18" font-family="Helvetica,sans-Serif" font-size="10.00">zero_mate::gui::CAUX</text>
<text text-anchor="middle" x="238" y="-7" font-family="Helvetica,sans-Serif" font-size="10.00">_Window::Render_Mini_UART</text>
</a>
</g>
</g>
<!-- Node1&#45;&gt;Node3 -->
<g id="edge2_Node000001_Node000003" class="edge">
<title>Node1&#45;&gt;Node3</title>
<g id="a_edge2_Node000001_Node000003"><a xlink:title=" ">
<path fill="none" stroke="#63b8ff" d="M343.06,-30.61C334.51,-29.33 325.78,-28.02 317.21,-26.73"/>
<polygon fill="#63b8ff" stroke="#63b8ff" points="342.59,-34.08 353,-32.1 343.63,-27.15 342.59,-34.08"/>
</a>
</g>
</g>
<!-- Node4 -->
<g id="Node000004" class="node">
<title>Node4</title>
<g id="a_Node000004"><a xlink:href="classzero__mate_1_1gui_1_1CAUX__Window.html#a1441eb934e43fe96d1324da6f0b9d2a0" target="_top" xlink:title="Renders GPIO pins (IGUI_Window interface).">
<polygon fill="white" stroke="#666666" points="123,-30 0,-30 0,0 123,0 123,-30"/>
<text text-anchor="start" x="8" y="-18" font-family="Helvetica,sans-Serif" font-size="10.00">zero_mate::gui::CAUX</text>
<text text-anchor="middle" x="61.5" y="-7" font-family="Helvetica,sans-Serif" font-size="10.00">_Window::Render</text>
</a>
</g>
</g>
<!-- Node3&#45;&gt;Node4 -->
<g id="edge3_Node000003_Node000004" class="edge">
<title>Node3&#45;&gt;Node4</title>
<g id="a_edge3_Node000003_Node000004"><a xlink:title=" ">
<path fill="none" stroke="#63b8ff" d="M148.8,-15C140.14,-15 131.5,-15 123.22,-15"/>
<polygon fill="#63b8ff" stroke="#63b8ff" points="148.94,-18.5 158.94,-15 148.94,-11.5 148.94,-18.5"/>
</a>
</g>
</g>
</g>
</svg>
