<?xml version="1.0" encoding="UTF-8" standalone="no"?>
<!DOCTYPE svg PUBLIC "-//W3C//DTD SVG 1.1//EN"
 "http://www.w3.org/Graphics/SVG/1.1/DTD/svg11.dtd">
<!-- Generated by graphviz version 2.43.0 (0)
 -->
<!-- Title: zero_mate::coprocessor::cp15::CC2::Extract_Bits_From_TTB_Ctrl Pages: 1 -->
<svg width="536pt" height="134pt"
 viewBox="0.00 0.00 536.00 134.00" xmlns="http://www.w3.org/2000/svg" xmlns:xlink="http://www.w3.org/1999/xlink">
<g id="graph0" class="graph" transform="scale(1 1) rotate(0) translate(4 130)">
<title>zero_mate::coprocessor::cp15::CC2::Extract_Bits_From_TTB_Ctrl</title>
<!-- Node1 -->
<g id="Node000001" class="node">
<title>Node1</title>
<g id="a_Node000001"><a xlink:title="Extract bits from the NCRm_C0_Register::Translation_Table_Base_Control register.">
<polygon fill="#999999" stroke="#666666" points="528,-83.5 392,-83.5 392,-42.5 528,-42.5 528,-83.5"/>
<text text-anchor="start" x="400" y="-71.5" font-family="Helvetica,sans-Serif" font-size="10.00">zero_mate::coprocessor</text>
<text text-anchor="start" x="400" y="-60.5" font-family="Helvetica,sans-Serif" font-size="10.00">::cp15::CC2::Extract_Bits</text>
<text text-anchor="middle" x="460" y="-49.5" font-family="Helvetica,sans-Serif" font-size="10.00">_From_TTB_Ctrl</text>
</a>
</g>
</g>
<!-- Node2 -->
<g id="Node000002" class="node">
<title>Node2</title>
<g id="a_Node000002"><a xlink:href="classzero__mate_1_1coprocessor_1_1cp15_1_1CC2.html#a254552682bdf6d29017d76ac916f542b" target="_top" xlink:title="Returns the set boundary type that determines the use of either TTB0 or TTB1.">
<polygon fill="white" stroke="#666666" points="356,-126 182,-126 182,-96 356,-96 356,-126"/>
<text text-anchor="start" x="190" y="-114" font-family="Helvetica,sans-Serif" font-size="10.00">zero_mate::coprocessor</text>
<text text-anchor="middle" x="269" y="-103" font-family="Helvetica,sans-Serif" font-size="10.00">::cp15::CC2::Get_Boundary_Type</text>
</a>
</g>
</g>
<!-- Node1&#45;&gt;Node2 -->
<g id="edge1_Node000001_Node000002" class="edge">
<title>Node1&#45;&gt;Node2</title>
<g id="a_edge1_Node000001_Node000002"><a xlink:title=" ">
<path fill="none" stroke="#63b8ff" d="M382.11,-82.53C364.43,-87.02 345.89,-91.73 329.1,-95.99"/>
<polygon fill="#63b8ff" stroke="#63b8ff" points="383,-85.91 391.83,-80.06 381.28,-79.13 383,-85.91"/>
</a>
</g>
</g>
<!-- Node4 -->
<g id="Node000004" class="node">
<title>Node4</title>
<g id="a_Node000004"><a xlink:href="classzero__mate_1_1coprocessor_1_1cp15_1_1CC2.html#a85fa479b09932d809c634a76fd80dd0e" target="_top" xlink:title="Returns whether the PD0 is set or not (performing a page table walk).">
<polygon fill="white" stroke="#666666" points="335.5,-78 202.5,-78 202.5,-48 335.5,-48 335.5,-78"/>
<text text-anchor="start" x="210.5" y="-66" font-family="Helvetica,sans-Serif" font-size="10.00">zero_mate::coprocessor</text>
<text text-anchor="middle" x="269" y="-55" font-family="Helvetica,sans-Serif" font-size="10.00">::cp15::CC2::Is_PD0_Set</text>
</a>
</g>
</g>
<!-- Node1&#45;&gt;Node4 -->
<g id="edge3_Node000001_Node000004" class="edge">
<title>Node1&#45;&gt;Node4</title>
<g id="a_edge3_Node000001_Node000004"><a xlink:title=" ">
<path fill="none" stroke="#63b8ff" d="M381.43,-63C366.24,-63 350.44,-63 335.68,-63"/>
<polygon fill="#63b8ff" stroke="#63b8ff" points="381.83,-66.5 391.83,-63 381.83,-59.5 381.83,-66.5"/>
</a>
</g>
</g>
<!-- Node5 -->
<g id="Node000005" class="node">
<title>Node5</title>
<g id="a_Node000005"><a xlink:href="classzero__mate_1_1coprocessor_1_1cp15_1_1CC2.html#a51661f48f512622ebbf9fb532e42eafb" target="_top" xlink:title="Returns whether the PD1 is set or not (performing a page table walk).">
<polygon fill="white" stroke="#666666" points="335.5,-30 202.5,-30 202.5,0 335.5,0 335.5,-30"/>
<text text-anchor="start" x="210.5" y="-18" font-family="Helvetica,sans-Serif" font-size="10.00">zero_mate::coprocessor</text>
<text text-anchor="middle" x="269" y="-7" font-family="Helvetica,sans-Serif" font-size="10.00">::cp15::CC2::Is_PD1_Set</text>
</a>
</g>
</g>
<!-- Node1&#45;&gt;Node5 -->
<g id="edge4_Node000001_Node000005" class="edge">
<title>Node1&#45;&gt;Node5</title>
<g id="a_edge4_Node000001_Node000005"><a xlink:title=" ">
<path fill="none" stroke="#63b8ff" d="M382.11,-43.47C364.43,-38.98 345.89,-34.27 329.1,-30.01"/>
<polygon fill="#63b8ff" stroke="#63b8ff" points="381.28,-46.87 391.83,-45.94 383,-40.09 381.28,-46.87"/>
</a>
</g>
</g>
<!-- Node3 -->
<g id="Node000003" class="node">
<title>Node3</title>
<g id="a_Node000003"><a xlink:href="classzero__mate_1_1coprocessor_1_1cp15_1_1CC2.html#a62e92636b35bed43391605a1d9eb0593" target="_top" xlink:title="Returns the boundary value that determines the use of either TTB0 or TTB1.">
<polygon fill="white" stroke="#666666" points="146,-126 0,-126 0,-96 146,-96 146,-126"/>
<text text-anchor="start" x="8" y="-114" font-family="Helvetica,sans-Serif" font-size="10.00">zero_mate::coprocessor</text>
<text text-anchor="middle" x="73" y="-103" font-family="Helvetica,sans-Serif" font-size="10.00">::cp15::CC2::Get_Boundary</text>
</a>
</g>
</g>
<!-- Node2&#45;&gt;Node3 -->
<g id="edge2_Node000002_Node000003" class="edge">
<title>Node2&#45;&gt;Node3</title>
<g id="a_edge2_Node000002_Node000003"><a xlink:title=" ">
<path fill="none" stroke="#63b8ff" d="M171.67,-111C163.04,-111 154.4,-111 146.03,-111"/>
<polygon fill="#63b8ff" stroke="#63b8ff" points="171.78,-114.5 181.78,-111 171.78,-107.5 171.78,-114.5"/>
</a>
</g>
</g>
</g>
</svg>
