<?xml version="1.0" encoding="UTF-8" standalone="no"?>
<!DOCTYPE svg PUBLIC "-//W3C//DTD SVG 1.1//EN"
 "http://www.w3.org/Graphics/SVG/1.1/DTD/svg11.dtd">
<!-- Generated by graphviz version 2.43.0 (0)
 -->
<!-- Title: zero_mate::utils::CLogging_System::Warning Pages: 1 -->
<svg width="862pt" height="532pt"
 viewBox="0.00 0.00 862.00 532.00" xmlns="http://www.w3.org/2000/svg" xmlns:xlink="http://www.w3.org/1999/xlink">
<g id="graph0" class="graph" transform="scale(1 1) rotate(0) translate(4 528)">
<title>zero_mate::utils::CLogging_System::Warning</title>
<!-- Node1 -->
<g id="Node000001" class="node">
<title>Node1</title>
<g id="a_Node000001"><a xlink:title="Logs a warning message via all registered loggers.">
<polygon fill="#999999" stroke="#666666" points="854,-248 708,-248 708,-218 854,-218 854,-248"/>
<text text-anchor="start" x="716" y="-236" font-family="Helvetica,sans-Serif" font-size="10.00">zero_mate::utils::CLogging</text>
<text text-anchor="middle" x="781" y="-225" font-family="Helvetica,sans-Serif" font-size="10.00">_System::Warning</text>
</a>
</g>
</g>
<!-- Node2 -->
<g id="Node000002" class="node">
<title>Node2</title>
<g id="a_Node000002"><a xlink:href="classzero__mate_1_1arm1176jzf__s_1_1CCPU__Core.html#a85e6ef006a36e1adb56abd3ecc6481be" target="_top" xlink:title="Executes a CPU exception.">
<polygon fill="white" stroke="#666666" points="653,-475.5 521,-475.5 521,-434.5 653,-434.5 653,-475.5"/>
<text text-anchor="start" x="529" y="-463.5" font-family="Helvetica,sans-Serif" font-size="10.00">zero_mate::arm1176jzf</text>
<text text-anchor="start" x="529" y="-452.5" font-family="Helvetica,sans-Serif" font-size="10.00">_s::CCPU_Core::Execute</text>
<text text-anchor="middle" x="587" y="-441.5" font-family="Helvetica,sans-Serif" font-size="10.00">_Exception</text>
</a>
</g>
</g>
<!-- Node1&#45;&gt;Node2 -->
<g id="edge1_Node000001_Node000002" class="edge">
<title>Node1&#45;&gt;Node2</title>
<g id="a_edge1_Node000001_Node000002"><a xlink:title=" ">
<path fill="none" stroke="#63b8ff" d="M772.54,-257.93C759.07,-298.81 726.87,-380.11 672,-426 666.44,-430.65 660.09,-434.57 653.42,-437.88"/>
<polygon fill="#63b8ff" stroke="#63b8ff" points="775.93,-258.82 775.64,-248.23 769.26,-256.69 775.93,-258.82"/>
</a>
</g>
</g>
<!-- Node8 -->
<g id="Node000008" class="node">
<title>Node8</title>
<g id="a_Node000008"><a xlink:href="namespacezero__mate_1_1gui.html#af6a45e4660638d498cd499f94ddaad6f" target="_top" xlink:title="Main entry point of the GUI of the application.">
<polygon fill="white" stroke="#666666" points="658.5,-416.5 515.5,-416.5 515.5,-397.5 658.5,-397.5 658.5,-416.5"/>
<text text-anchor="middle" x="587" y="-404.5" font-family="Helvetica,sans-Serif" font-size="10.00">zero_mate::gui::Main_GUI</text>
</a>
</g>
</g>
<!-- Node1&#45;&gt;Node8 -->
<g id="edge7_Node000001_Node000008" class="edge">
<title>Node1&#45;&gt;Node8</title>
<g id="a_edge7_Node000001_Node000008"><a xlink:title=" ">
<path fill="none" stroke="#63b8ff" d="M769.96,-257.79C754.42,-292.84 721.14,-356.23 672,-389 666.91,-392.39 661.3,-395.16 655.46,-397.42"/>
<polygon fill="#63b8ff" stroke="#63b8ff" points="773.3,-258.87 774.04,-248.3 766.87,-256.11 773.3,-258.87"/>
</a>
</g>
</g>
<!-- Node10 -->
<g id="Node000010" class="node">
<title>Node10</title>
<g id="a_Node000010"><a xlink:href="classzero__mate_1_1arm1176jzf__s_1_1CCPU__Core.html#a00f4cf1169d774a50886f60f5f166f8b" target="_top" xlink:title="Performs a halfword data write to a given address.">
<polygon fill="white" stroke="#666666" points="672,-379.5 502,-379.5 502,-338.5 672,-338.5 672,-379.5"/>
<text text-anchor="start" x="510" y="-367.5" font-family="Helvetica,sans-Serif" font-size="10.00">zero_mate::arm1176jzf</text>
<text text-anchor="start" x="510" y="-356.5" font-family="Helvetica,sans-Serif" font-size="10.00">_s::CCPU_Core::Perform</text>
<text text-anchor="middle" x="587" y="-345.5" font-family="Helvetica,sans-Serif" font-size="10.00">_Halfword_Data_Transfer_Write</text>
</a>
</g>
</g>
<!-- Node1&#45;&gt;Node10 -->
<g id="edge9_Node000001_Node000010" class="edge">
<title>Node1&#45;&gt;Node10</title>
<g id="a_edge9_Node000001_Node000010"><a xlink:title=" ">
<path fill="none" stroke="#63b8ff" d="M759.49,-255.7C739.1,-277.11 706.02,-308.84 672,-329 666.14,-332.47 659.81,-335.64 653.35,-338.5"/>
<polygon fill="#63b8ff" stroke="#63b8ff" points="762.12,-258.01 766.41,-248.32 757.01,-253.22 762.12,-258.01"/>
</a>
</g>
</g>
<!-- Node12 -->
<g id="Node000012" class="node">
<title>Node12</title>
<g id="a_Node000012"><a xlink:href="classzero__mate_1_1peripheral_1_1CARM__Timer.html#a9c9fd268222fa96e4a81d65f7340235c" target="_top" xlink:title="Reads data from the peripheral (IPeripheral interface).">
<polygon fill="white" stroke="#666666" points="649,-320 525,-320 525,-290 649,-290 649,-320"/>
<text text-anchor="start" x="533" y="-308" font-family="Helvetica,sans-Serif" font-size="10.00">zero_mate::peripheral</text>
<text text-anchor="middle" x="587" y="-297" font-family="Helvetica,sans-Serif" font-size="10.00">::CARM_Timer::Read</text>
</a>
</g>
</g>
<!-- Node1&#45;&gt;Node12 -->
<g id="edge11_Node000001_Node000012" class="edge">
<title>Node1&#45;&gt;Node12</title>
<g id="a_edge11_Node000001_Node000012"><a xlink:title=" ">
<path fill="none" stroke="#63b8ff" d="M740.1,-252.34C719.96,-261.69 694.98,-272.66 672,-281 663.3,-284.16 653.98,-287.17 644.83,-289.93"/>
<polygon fill="#63b8ff" stroke="#63b8ff" points="741.71,-255.45 749.28,-248.03 738.74,-249.11 741.71,-255.45"/>
</a>
</g>
</g>
<!-- Node13 -->
<g id="Node000013" class="node">
<title>Node13</title>
<g id="a_Node000013"><a xlink:href="classzero__mate_1_1peripheral_1_1CAUX.html#aedef3fa569fbcba697c28a9a5a3ecab9" target="_top" xlink:title="Reads data from the peripheral (IPeripheral interface).">
<polygon fill="white" stroke="#666666" points="649,-272 525,-272 525,-242 649,-242 649,-272"/>
<text text-anchor="start" x="533" y="-260" font-family="Helvetica,sans-Serif" font-size="10.00">zero_mate::peripheral</text>
<text text-anchor="middle" x="587" y="-249" font-family="Helvetica,sans-Serif" font-size="10.00">::CAUX::Read</text>
</a>
</g>
</g>
<!-- Node1&#45;&gt;Node13 -->
<g id="edge12_Node000001_Node000013" class="edge">
<title>Node1&#45;&gt;Node13</title>
<g id="a_edge12_Node000001_Node000013"><a xlink:title=" ">
<path fill="none" stroke="#63b8ff" d="M697.87,-243.27C681.52,-245.31 664.62,-247.42 649.13,-249.36"/>
<polygon fill="#63b8ff" stroke="#63b8ff" points="698.47,-246.72 707.96,-242 697.6,-239.77 698.47,-246.72"/>
</a>
</g>
</g>
<!-- Node14 -->
<g id="Node000014" class="node">
<title>Node14</title>
<g id="a_Node000014"><a xlink:href="classzero__mate_1_1peripheral_1_1CGPIO__Manager.html#ac3edf689b30c39f2406fa6308fdeb2e9" target="_top" xlink:title="Reads data from the peripheral (IPeripheral interface).">
<polygon fill="white" stroke="#666666" points="653,-224 521,-224 521,-194 653,-194 653,-224"/>
<text text-anchor="start" x="529" y="-212" font-family="Helvetica,sans-Serif" font-size="10.00">zero_mate::peripheral</text>
<text text-anchor="middle" x="587" y="-201" font-family="Helvetica,sans-Serif" font-size="10.00">::CGPIO_Manager::Read</text>
</a>
</g>
</g>
<!-- Node1&#45;&gt;Node14 -->
<g id="edge13_Node000001_Node000014" class="edge">
<title>Node1&#45;&gt;Node14</title>
<g id="a_edge13_Node000001_Node000014"><a xlink:title=" ">
<path fill="none" stroke="#63b8ff" d="M697.74,-222.72C682.84,-220.85 667.49,-218.94 653.17,-217.15"/>
<polygon fill="#63b8ff" stroke="#63b8ff" points="697.6,-226.23 707.96,-224 698.47,-219.28 697.6,-226.23"/>
</a>
</g>
</g>
<!-- Node15 -->
<g id="Node000015" class="node">
<title>Node15</title>
<g id="a_Node000015"><a xlink:href="classzero__mate_1_1peripheral_1_1CGPIO__Manager.html#ae93785da50eefb8a8cc21c1c59a32726" target="_top" xlink:title="Updates the state of all pins within a given register.">
<polygon fill="white" stroke="#666666" points="658.5,-175.5 515.5,-175.5 515.5,-134.5 658.5,-134.5 658.5,-175.5"/>
<text text-anchor="start" x="523.5" y="-163.5" font-family="Helvetica,sans-Serif" font-size="10.00">zero_mate::peripheral</text>
<text text-anchor="start" x="523.5" y="-152.5" font-family="Helvetica,sans-Serif" font-size="10.00">::CGPIO_Manager::Update</text>
<text text-anchor="middle" x="587" y="-141.5" font-family="Helvetica,sans-Serif" font-size="10.00">_Pin_State</text>
</a>
</g>
</g>
<!-- Node1&#45;&gt;Node15 -->
<g id="edge14_Node000001_Node000015" class="edge">
<title>Node1&#45;&gt;Node15</title>
<g id="a_edge14_Node000001_Node000015"><a xlink:title=" ">
<path fill="none" stroke="#63b8ff" d="M738.53,-213.7C718.57,-204.63 694.2,-193.88 672,-185 664.09,-181.84 655.71,-178.65 647.41,-175.59"/>
<polygon fill="#63b8ff" stroke="#63b8ff" points="737.11,-216.89 747.66,-217.86 740.02,-210.53 737.11,-216.89"/>
</a>
</g>
</g>
<!-- Node16 -->
<g id="Node000016" class="node">
<title>Node16</title>
<g id="a_Node000016"><a xlink:href="classzero__mate_1_1peripheral_1_1CGPIO__Manager.html#a26aa957dbb7682447e4ebf9aa078c00c" target="_top" xlink:title="Writes data to the peripheral (IPeripheral interface).">
<polygon fill="white" stroke="#666666" points="466,-146 332,-146 332,-116 466,-116 466,-146"/>
<text text-anchor="start" x="340" y="-134" font-family="Helvetica,sans-Serif" font-size="10.00">zero_mate::peripheral</text>
<text text-anchor="middle" x="399" y="-123" font-family="Helvetica,sans-Serif" font-size="10.00">::CGPIO_Manager::Write</text>
</a>
</g>
</g>
<!-- Node1&#45;&gt;Node16 -->
<g id="edge18_Node000001_Node000016" class="edge">
<title>Node1&#45;&gt;Node16</title>
<g id="a_edge18_Node000001_Node000016"><a xlink:title=" ">
<path fill="none" stroke="#63b8ff" d="M765.08,-209.54C746.81,-183.24 713.16,-142.05 672,-125 604.14,-96.89 518.36,-105.14 461.47,-115.96"/>
<polygon fill="#63b8ff" stroke="#63b8ff" points="762.18,-211.5 770.68,-217.83 767.98,-207.58 762.18,-211.5"/>
</a>
</g>
</g>
<!-- Node17 -->
<g id="Node000017" class="node">
<title>Node17</title>
<g id="a_Node000017"><a xlink:href="classzero__mate_1_1peripheral_1_1CARM__Timer.html#adb5da1b77debf34bb53e590c1774af34" target="_top" xlink:title="Writes data to the peripheral (IPeripheral interface).">
<polygon fill="white" stroke="#666666" points="649,-78 525,-78 525,-48 649,-48 649,-78"/>
<text text-anchor="start" x="533" y="-66" font-family="Helvetica,sans-Serif" font-size="10.00">zero_mate::peripheral</text>
<text text-anchor="middle" x="587" y="-55" font-family="Helvetica,sans-Serif" font-size="10.00">::CARM_Timer::Write</text>
</a>
</g>
</g>
<!-- Node1&#45;&gt;Node17 -->
<g id="edge16_Node000001_Node000017" class="edge">
<title>Node1&#45;&gt;Node17</title>
<g id="a_edge16_Node000001_Node000017"><a xlink:title=" ">
<path fill="none" stroke="#63b8ff" d="M767.52,-209.01C750.13,-177.8 715.74,-123.55 672,-92 664.24,-86.4 655.31,-81.82 646.24,-78.08"/>
<polygon fill="#63b8ff" stroke="#63b8ff" points="764.51,-210.8 772.37,-217.91 770.66,-207.45 764.51,-210.8"/>
</a>
</g>
</g>
<!-- Node18 -->
<g id="Node000018" class="node">
<title>Node18</title>
<g id="a_Node000018"><a xlink:href="classzero__mate_1_1peripheral_1_1CAUX.html#a66c343e995d87042d200831e5692a3a9" target="_top" xlink:title="Writes data to the peripheral (IPeripheral interface).">
<polygon fill="white" stroke="#666666" points="649,-30 525,-30 525,0 649,0 649,-30"/>
<text text-anchor="start" x="533" y="-18" font-family="Helvetica,sans-Serif" font-size="10.00">zero_mate::peripheral</text>
<text text-anchor="middle" x="587" y="-7" font-family="Helvetica,sans-Serif" font-size="10.00">::CAUX::Write</text>
</a>
</g>
</g>
<!-- Node1&#45;&gt;Node18 -->
<g id="edge17_Node000001_Node000018" class="edge">
<title>Node1&#45;&gt;Node18</title>
<g id="a_edge17_Node000001_Node000018"><a xlink:title=" ">
<path fill="none" stroke="#63b8ff" d="M773.03,-208.17C760.12,-166.79 728.52,-83.83 672,-39 665.23,-33.63 657.31,-29.46 649.08,-26.22"/>
<polygon fill="#63b8ff" stroke="#63b8ff" points="769.68,-209.18 775.91,-217.75 776.38,-207.17 769.68,-209.18"/>
</a>
</g>
</g>
<!-- Node3 -->
<g id="Node000003" class="node">
<title>Node3</title>
<g id="a_Node000003"><a xlink:href="classzero__mate_1_1arm1176jzf__s_1_1CCPU__Core.html#ac81ae05305c6916b7eda83abff602dcf" target="_top" xlink:title="Executes a single instruction.">
<polygon fill="white" stroke="#666666" points="465,-524 333,-524 333,-494 465,-494 465,-524"/>
<text text-anchor="start" x="341" y="-512" font-family="Helvetica,sans-Serif" font-size="10.00">zero_mate::arm1176jzf</text>
<text text-anchor="middle" x="399" y="-501" font-family="Helvetica,sans-Serif" font-size="10.00">_s::CCPU_Core::Execute</text>
</a>
</g>
</g>
<!-- Node2&#45;&gt;Node3 -->
<g id="edge2_Node000002_Node000003" class="edge">
<title>Node2&#45;&gt;Node3</title>
<g id="a_edge2_Node000002_Node000003"><a xlink:title=" ">
<path fill="none" stroke="#63b8ff" d="M511.27,-476.7C491.34,-482.48 470.25,-488.61 451.84,-493.95"/>
<polygon fill="#63b8ff" stroke="#63b8ff" points="512.32,-480.04 520.95,-473.89 510.37,-473.31 512.32,-480.04"/>
</a>
</g>
</g>
<!-- Node4 -->
<g id="Node000004" class="node">
<title>Node4</title>
<g id="a_Node000004"><a xlink:href="classzero__mate_1_1arm1176jzf__s_1_1CCPU__Core.html#aa327755c4c57c01f03e16fb3d1195f6a" target="_top" xlink:title="Fetches the next instruction.">
<polygon fill="white" stroke="#666666" points="464,-475.5 334,-475.5 334,-434.5 464,-434.5 464,-475.5"/>
<text text-anchor="start" x="342" y="-463.5" font-family="Helvetica,sans-Serif" font-size="10.00">zero_mate::arm1176jzf</text>
<text text-anchor="start" x="342" y="-452.5" font-family="Helvetica,sans-Serif" font-size="10.00">_s::CCPU_Core::Fetch</text>
<text text-anchor="middle" x="399" y="-441.5" font-family="Helvetica,sans-Serif" font-size="10.00">_Instruction</text>
</a>
</g>
</g>
<!-- Node2&#45;&gt;Node4 -->
<g id="edge3_Node000002_Node000004" class="edge">
<title>Node2&#45;&gt;Node4</title>
<g id="a_edge3_Node000002_Node000004"><a xlink:title=" ">
<path fill="none" stroke="#63b8ff" d="M510.87,-455C495.36,-455 479.15,-455 464.08,-455"/>
<polygon fill="#63b8ff" stroke="#63b8ff" points="510.95,-458.5 520.95,-455 510.95,-451.5 510.95,-458.5"/>
</a>
</g>
</g>
<!-- Node5 -->
<g id="Node000005" class="node">
<title>Node5</title>
<g id="a_Node000005"><a xlink:href="classzero__mate_1_1arm1176jzf__s_1_1CCPU__Core.html#a1665360d8ae71ed541b4c10f39e655a5" target="_top" xlink:title=" ">
<polygon fill="white" stroke="#666666" points="296,-470 166,-470 166,-440 296,-440 296,-470"/>
<text text-anchor="start" x="174" y="-458" font-family="Helvetica,sans-Serif" font-size="10.00">zero_mate::arm1176jzf</text>
<text text-anchor="middle" x="231" y="-447" font-family="Helvetica,sans-Serif" font-size="10.00">_s::CCPU_Core::Step</text>
</a>
</g>
</g>
<!-- Node4&#45;&gt;Node5 -->
<g id="edge4_Node000004_Node000005" class="edge">
<title>Node4&#45;&gt;Node5</title>
<g id="a_edge4_Node000004_Node000005"><a xlink:title=" ">
<path fill="none" stroke="#63b8ff" d="M323.53,-455C314.35,-455 305.02,-455 296.01,-455"/>
<polygon fill="#63b8ff" stroke="#63b8ff" points="323.82,-458.5 333.82,-455 323.82,-451.5 323.82,-458.5"/>
</a>
</g>
</g>
<!-- Node6 -->
<g id="Node000006" class="node">
<title>Node6</title>
<g id="a_Node000006"><a xlink:href="classzero__mate_1_1arm1176jzf__s_1_1CCPU__Core.html#ad07b9956fd3f7b6c64b93c69243092f4" target="_top" xlink:title="Starts the execution.">
<polygon fill="white" stroke="#666666" points="130,-494 0,-494 0,-464 130,-464 130,-494"/>
<text text-anchor="start" x="8" y="-482" font-family="Helvetica,sans-Serif" font-size="10.00">zero_mate::arm1176jzf</text>
<text text-anchor="middle" x="65" y="-471" font-family="Helvetica,sans-Serif" font-size="10.00">_s::CCPU_Core::Run</text>
</a>
</g>
</g>
<!-- Node5&#45;&gt;Node6 -->
<g id="edge5_Node000005_Node000006" class="edge">
<title>Node5&#45;&gt;Node6</title>
<g id="a_edge5_Node000005_Node000006"><a xlink:title=" ">
<path fill="none" stroke="#63b8ff" d="M155.71,-465.87C147.18,-467.12 138.54,-468.38 130.16,-469.61"/>
<polygon fill="#63b8ff" stroke="#63b8ff" points="156.27,-469.33 165.65,-464.42 155.25,-462.4 156.27,-469.33"/>
</a>
</g>
</g>
<!-- Node7 -->
<g id="Node000007" class="node">
<title>Node7</title>
<g id="a_Node000007"><a xlink:href="classzero__mate_1_1arm1176jzf__s_1_1CCPU__Core.html#a16544e9981489e1f4a25405248e5a5c0" target="_top" xlink:title=" ">
<polygon fill="white" stroke="#666666" points="130,-446 0,-446 0,-416 130,-416 130,-446"/>
<text text-anchor="start" x="8" y="-434" font-family="Helvetica,sans-Serif" font-size="10.00">zero_mate::arm1176jzf</text>
<text text-anchor="middle" x="65" y="-423" font-family="Helvetica,sans-Serif" font-size="10.00">_s::CCPU_Core::Steps</text>
</a>
</g>
</g>
<!-- Node5&#45;&gt;Node7 -->
<g id="edge6_Node000005_Node000007" class="edge">
<title>Node5&#45;&gt;Node7</title>
<g id="a_edge6_Node000005_Node000007"><a xlink:title=" ">
<path fill="none" stroke="#63b8ff" d="M155.71,-444.13C147.18,-442.88 138.54,-441.62 130.16,-440.39"/>
<polygon fill="#63b8ff" stroke="#63b8ff" points="155.25,-447.6 165.65,-445.58 156.27,-440.67 155.25,-447.6"/>
</a>
</g>
</g>
<!-- Node9 -->
<g id="Node000009" class="node">
<title>Node9</title>
<g id="a_Node000009"><a xlink:href="main_8cpp.html#ac0f2228420376f4db7e1274f2b41667c" target="_top" xlink:title="Entry point of the application.">
<polygon fill="white" stroke="#666666" points="419.5,-416.5 378.5,-416.5 378.5,-397.5 419.5,-397.5 419.5,-416.5"/>
<text text-anchor="middle" x="399" y="-404.5" font-family="Helvetica,sans-Serif" font-size="10.00">main</text>
</a>
</g>
</g>
<!-- Node8&#45;&gt;Node9 -->
<g id="edge8_Node000008_Node000009" class="edge">
<title>Node8&#45;&gt;Node9</title>
<g id="a_edge8_Node000008_Node000009"><a xlink:title=" ">
<path fill="none" stroke="#63b8ff" d="M505.25,-407C473.69,-407 440.21,-407 419.7,-407"/>
<polygon fill="#63b8ff" stroke="#63b8ff" points="505.42,-410.5 515.42,-407 505.42,-403.5 505.42,-410.5"/>
</a>
</g>
</g>
<!-- Node11 -->
<g id="Node000011" class="node">
<title>Node11</title>
<g id="a_Node000011"><a xlink:href="classzero__mate_1_1arm1176jzf__s_1_1CCPU__Core.html#ae5fc1112d78d8c344841fd94d1356635" target="_top" xlink:title="Executes a halfword data transfer instruction.">
<polygon fill="white" stroke="#666666" points="465,-374 333,-374 333,-344 465,-344 465,-374"/>
<text text-anchor="start" x="341" y="-362" font-family="Helvetica,sans-Serif" font-size="10.00">zero_mate::arm1176jzf</text>
<text text-anchor="middle" x="399" y="-351" font-family="Helvetica,sans-Serif" font-size="10.00">_s::CCPU_Core::Execute</text>
</a>
</g>
</g>
<!-- Node10&#45;&gt;Node11 -->
<g id="edge10_Node000010_Node000011" class="edge">
<title>Node10&#45;&gt;Node11</title>
<g id="a_edge10_Node000010_Node000011"><a xlink:title=" ">
<path fill="none" stroke="#63b8ff" d="M491.84,-359C482.85,-359 473.87,-359 465.25,-359"/>
<polygon fill="#63b8ff" stroke="#63b8ff" points="491.98,-362.5 501.98,-359 491.98,-355.5 491.98,-362.5"/>
</a>
</g>
</g>
<!-- Node15&#45;&gt;Node16 -->
<g id="edge15_Node000015_Node000016" class="edge">
<title>Node15&#45;&gt;Node16</title>
<g id="a_edge15_Node000015_Node000016"><a xlink:title=" ">
<path fill="none" stroke="#63b8ff" d="M505.48,-144.61C492.39,-142.92 478.95,-141.19 466.24,-139.55"/>
<polygon fill="#63b8ff" stroke="#63b8ff" points="505.05,-148.08 515.42,-145.89 505.95,-141.14 505.05,-148.08"/>
</a>
</g>
</g>
</g>
</svg>
