<?xml version="1.0" encoding="UTF-8" standalone="no"?>
<!DOCTYPE svg PUBLIC "-//W3C//DTD SVG 1.1//EN"
 "http://www.w3.org/Graphics/SVG/1.1/DTD/svg11.dtd">
<!-- Generated by graphviz version 2.43.0 (0)
 -->
<!-- Title: zero_mate::gui::CDemo_Window::Render Pages: 1 -->
<svg width="347pt" height="86pt"
 viewBox="0.00 0.00 347.00 86.00" xmlns="http://www.w3.org/2000/svg" xmlns:xlink="http://www.w3.org/1999/xlink">
<g id="graph0" class="graph" transform="scale(1 1) rotate(0) translate(4 82)">
<title>zero_mate::gui::CDemo_Window::Render</title>
<!-- Node1 -->
<g id="Node000001" class="node">
<title>Node1</title>
<g id="a_Node000001"><a xlink:title="Renders the window (IGUI_Window interface).">
<polygon fill="#999999" stroke="#666666" points="131,-54 0,-54 0,-24 131,-24 131,-54"/>
<text text-anchor="start" x="8" y="-42" font-family="Helvetica,sans-Serif" font-size="10.00">zero_mate::gui::CDemo</text>
<text text-anchor="middle" x="65.5" y="-31" font-family="Helvetica,sans-Serif" font-size="10.00">_Window::Render</text>
</a>
</g>
</g>
<!-- Node2 -->
<g id="Node000002" class="node">
<title>Node2</title>
<g id="a_Node000002"><a xlink:href="classzero__mate_1_1gui_1_1CDemo__Window.html#a49fc965a62b870acb0081cc4b88af843" target="_top" xlink:title="Renders the ImGui demo window.">
<polygon fill="white" stroke="#666666" points="338.5,-78 167.5,-78 167.5,-48 338.5,-48 338.5,-78"/>
<text text-anchor="start" x="175.5" y="-66" font-family="Helvetica,sans-Serif" font-size="10.00">zero_mate::gui::CDemo</text>
<text text-anchor="middle" x="253" y="-55" font-family="Helvetica,sans-Serif" font-size="10.00">_Window::Render_ImGUI_Demo</text>
</a>
</g>
</g>
<!-- Node1&#45;&gt;Node2 -->
<g id="edge1_Node000001_Node000002" class="edge">
<title>Node1&#45;&gt;Node2</title>
<g id="a_edge1_Node000001_Node000002"><a xlink:title=" ">
<path fill="none" stroke="#63b8ff" d="M131.12,-47.36C139.63,-48.46 148.48,-49.61 157.37,-50.76"/>
<polygon fill="#63b8ff" stroke="#63b8ff" points="157.02,-54.24 167.38,-52.05 157.92,-47.3 157.02,-54.24"/>
</a>
</g>
</g>
<!-- Node3 -->
<g id="Node000003" class="node">
<title>Node3</title>
<g id="a_Node000003"><a xlink:href="classzero__mate_1_1gui_1_1CDemo__Window.html#afe28a31f82a54ce22ba832e0ef549dff" target="_top" xlink:title="Renders the ImPlot demo window.">
<polygon fill="white" stroke="#666666" points="339,-30 167,-30 167,0 339,0 339,-30"/>
<text text-anchor="start" x="175" y="-18" font-family="Helvetica,sans-Serif" font-size="10.00">zero_mate::gui::CDemo</text>
<text text-anchor="middle" x="253" y="-7" font-family="Helvetica,sans-Serif" font-size="10.00">_Window::Render_ImPlot_Demo</text>
</a>
</g>
</g>
<!-- Node1&#45;&gt;Node3 -->
<g id="edge2_Node000001_Node000003" class="edge">
<title>Node1&#45;&gt;Node3</title>
<g id="a_edge2_Node000001_Node000003"><a xlink:title=" ">
<path fill="none" stroke="#63b8ff" d="M131.12,-30.64C139.39,-29.57 147.98,-28.46 156.61,-27.34"/>
<polygon fill="#63b8ff" stroke="#63b8ff" points="157.26,-30.79 166.73,-26.03 156.36,-23.84 157.26,-30.79"/>
</a>
</g>
</g>
</g>
</svg>
