<?xml version="1.0" encoding="UTF-8" standalone="no"?>
<!DOCTYPE svg PUBLIC "-//W3C//DTD SVG 1.1//EN"
 "http://www.w3.org/Graphics/SVG/1.1/DTD/svg11.dtd">
<!-- Generated by graphviz version 2.43.0 (0)
 -->
<!-- Title: zero_mate::coprocessor::cp15::CCP15 Pages: 1 -->
<svg width="249pt" height="259pt"
 viewBox="0.00 0.00 249.00 259.00" xmlns="http://www.w3.org/2000/svg" xmlns:xlink="http://www.w3.org/1999/xlink">
<g id="graph0" class="graph" transform="scale(1 1) rotate(0) translate(4 255)">
<title>zero_mate::coprocessor::cp15::CCP15</title>
<!-- Node1 -->
<g id="Node000001" class="node">
<title>Node1</title>
<g id="a_Node000001"><a xlink:title="This class represents coprocessor CP15.">
<polygon fill="#999999" stroke="#666666" points="156.5,-30 23.5,-30 23.5,0 156.5,0 156.5,-30"/>
<text text-anchor="start" x="31.5" y="-18" font-family="Helvetica,sans-Serif" font-size="10.00">zero_mate::coprocessor</text>
<text text-anchor="middle" x="90" y="-7" font-family="Helvetica,sans-Serif" font-size="10.00">::cp15::CCP15</text>
</a>
</g>
</g>
<!-- Node2 -->
<g id="Node000002" class="node">
<title>Node2</title>
<g id="a_Node000002"><a xlink:href="classzero__mate_1_1coprocessor_1_1ICoprocessor.html" target="_top" xlink:title="This class represents an interface of a coprocessor.">
<polygon fill="white" stroke="#666666" points="230.5,-97 97.5,-97 97.5,-67 230.5,-67 230.5,-97"/>
<text text-anchor="start" x="105.5" y="-85" font-family="Helvetica,sans-Serif" font-size="10.00">zero_mate::coprocessor</text>
<text text-anchor="middle" x="164" y="-74" font-family="Helvetica,sans-Serif" font-size="10.00">::ICoprocessor</text>
</a>
</g>
</g>
<!-- Node2&#45;&gt;Node1 -->
<g id="edge1_Node000001_Node000002" class="edge">
<title>Node2&#45;&gt;Node1</title>
<g id="a_edge1_Node000001_Node000002"><a xlink:title=" ">
<path fill="none" stroke="#63b8ff" d="M140.2,-60.1C129.03,-50.28 116.01,-38.84 106.03,-30.08"/>
<polygon fill="#63b8ff" stroke="#63b8ff" points="138.12,-62.93 147.94,-66.9 142.74,-57.67 138.12,-62.93"/>
</a>
</g>
</g>
<!-- Node3 -->
<g id="Node000003" class="node">
<title>Node3</title>
<g id="a_Node000003"><a xlink:href="classzero__mate_1_1arm1176jzf__s_1_1CCPU__Context.html" target="_top" xlink:title="This class represents the context (registers) of the CPU.">
<polygon fill="white" stroke="#666666" points="228,-174 98,-174 98,-144 228,-144 228,-174"/>
<text text-anchor="start" x="106" y="-162" font-family="Helvetica,sans-Serif" font-size="10.00">zero_mate::arm1176jzf</text>
<text text-anchor="middle" x="163" y="-151" font-family="Helvetica,sans-Serif" font-size="10.00">_s::CCPU_Context</text>
</a>
</g>
</g>
<!-- Node3&#45;&gt;Node2 -->
<g id="edge2_Node000002_Node000003" class="edge">
<title>Node3&#45;&gt;Node2</title>
<g id="a_edge2_Node000002_Node000003"><a xlink:title=" ">
<path fill="none" stroke="#9a32cd" stroke-dasharray="5,2" d="M163.33,-133.54C163.49,-121.45 163.68,-107.29 163.81,-97.04"/>
<polygon fill="#9a32cd" stroke="#9a32cd" points="159.82,-133.85 163.19,-143.89 166.82,-133.94 159.82,-133.85"/>
</a>
</g>
<text text-anchor="middle" x="202" y="-118" font-family="Helvetica,sans-Serif" font-size="10.00" fill="grey"> m_cpu_context</text>
</g>
<!-- Node4 -->
<g id="Node000004" class="node">
<title>Node4</title>
<g id="a_Node000004"><a xlink:href="classzero__mate_1_1utils_1_1CLogging__System.html" target="_top" xlink:title="This class defines a logging system that is used throughout the project.">
<polygon fill="white" stroke="#666666" points="146,-251 0,-251 0,-221 146,-221 146,-251"/>
<text text-anchor="start" x="8" y="-239" font-family="Helvetica,sans-Serif" font-size="10.00">zero_mate::utils::CLogging</text>
<text text-anchor="middle" x="73" y="-228" font-family="Helvetica,sans-Serif" font-size="10.00">_System</text>
</a>
</g>
</g>
<!-- Node4&#45;&gt;Node1 -->
<g id="edge4_Node000001_Node000004" class="edge">
<title>Node4&#45;&gt;Node1</title>
<g id="a_edge4_Node000001_Node000004"><a xlink:title=" ">
<path fill="none" stroke="#9a32cd" stroke-dasharray="5,2" d="M67.93,-210.82C63.55,-186.53 58.57,-148.06 63,-115 67.14,-84.1 78.24,-49.18 84.84,-30.18"/>
<polygon fill="#9a32cd" stroke="#9a32cd" points="64.54,-211.75 69.86,-220.91 71.42,-210.43 64.54,-211.75"/>
</a>
</g>
<text text-anchor="middle" x="111" y="-118" font-family="Helvetica,sans-Serif" font-size="10.00" fill="grey"> m_logging_system</text>
</g>
<!-- Node4&#45;&gt;Node3 -->
<g id="edge3_Node000003_Node000004" class="edge">
<title>Node4&#45;&gt;Node3</title>
<g id="a_edge3_Node000003_Node000004"><a xlink:title=" ">
<path fill="none" stroke="#9a32cd" stroke-dasharray="5,2" d="M97.99,-214.17C113.34,-201.38 132.59,-185.34 146.15,-174.04"/>
<polygon fill="#9a32cd" stroke="#9a32cd" points="95.37,-211.8 89.93,-220.89 99.85,-217.18 95.37,-211.8"/>
</a>
</g>
<text text-anchor="middle" x="171" y="-195" font-family="Helvetica,sans-Serif" font-size="10.00" fill="grey"> m_logging_system</text>
</g>
</g>
</svg>
