<?xml version="1.0" encoding="UTF-8" standalone="no"?>
<!DOCTYPE svg PUBLIC "-//W3C//DTD SVG 1.1//EN"
 "http://www.w3.org/Graphics/SVG/1.1/DTD/svg11.dtd">
<!-- Generated by graphviz version 2.43.0 (0)
 -->
<!-- Title: zero_mate::gui::CCP10_Window::Render Pages: 1 -->
<svg width="511pt" height="134pt"
 viewBox="0.00 0.00 511.00 134.00" xmlns="http://www.w3.org/2000/svg" xmlns:xlink="http://www.w3.org/1999/xlink">
<g id="graph0" class="graph" transform="scale(1 1) rotate(0) translate(4 130)">
<title>zero_mate::gui::CCP10_Window::Render</title>
<!-- Node1 -->
<g id="Node000001" class="node">
<title>Node1</title>
<g id="a_Node000001"><a xlink:title="Renders the window (IGUI_Window interface).">
<polygon fill="#999999" stroke="#666666" points="127,-78 0,-78 0,-48 127,-48 127,-78"/>
<text text-anchor="start" x="8" y="-66" font-family="Helvetica,sans-Serif" font-size="10.00">zero_mate::gui::CCP10</text>
<text text-anchor="middle" x="63.5" y="-55" font-family="Helvetica,sans-Serif" font-size="10.00">_Window::Render</text>
</a>
</g>
</g>
<!-- Node2 -->
<g id="Node000002" class="node">
<title>Node2</title>
<g id="a_Node000002"><a xlink:href="classzero__mate_1_1gui_1_1CCP10__Window.html#a1a8979a63d198fe229266cfc6cd7e93f" target="_top" xlink:title="Renders the flags in the FPEXC register.">
<polygon fill="white" stroke="#666666" points="307.5,-126 170.5,-126 170.5,-96 307.5,-96 307.5,-126"/>
<text text-anchor="start" x="178.5" y="-114" font-family="Helvetica,sans-Serif" font-size="10.00">zero_mate::gui::CCP10</text>
<text text-anchor="middle" x="239" y="-103" font-family="Helvetica,sans-Serif" font-size="10.00">_Window::Render_FPEXC</text>
</a>
</g>
</g>
<!-- Node1&#45;&gt;Node2 -->
<g id="edge1_Node000001_Node000002" class="edge">
<title>Node1&#45;&gt;Node2</title>
<g id="a_edge1_Node000001_Node000002"><a xlink:title=" ">
<path fill="none" stroke="#63b8ff" d="M118.92,-78.06C136.36,-82.88 155.84,-88.27 173.9,-93.27"/>
<polygon fill="#63b8ff" stroke="#63b8ff" points="173.2,-96.7 183.77,-96 175.07,-89.96 173.2,-96.7"/>
</a>
</g>
</g>
<!-- Node4 -->
<g id="Node000004" class="node">
<title>Node4</title>
<g id="a_Node000004"><a xlink:href="classzero__mate_1_1gui_1_1CCP10__Window.html#ac90d2ac5479e7790de0ee116dce5c248" target="_top" xlink:title="Renders the flags in the FPSCR register.">
<polygon fill="white" stroke="#666666" points="307.5,-78 170.5,-78 170.5,-48 307.5,-48 307.5,-78"/>
<text text-anchor="start" x="178.5" y="-66" font-family="Helvetica,sans-Serif" font-size="10.00">zero_mate::gui::CCP10</text>
<text text-anchor="middle" x="239" y="-55" font-family="Helvetica,sans-Serif" font-size="10.00">_Window::Render_FPSCR</text>
</a>
</g>
</g>
<!-- Node1&#45;&gt;Node4 -->
<g id="edge3_Node000001_Node000004" class="edge">
<title>Node1&#45;&gt;Node4</title>
<g id="a_edge3_Node000001_Node000004"><a xlink:title=" ">
<path fill="none" stroke="#63b8ff" d="M127.14,-63C137.91,-63 149.23,-63 160.34,-63"/>
<polygon fill="#63b8ff" stroke="#63b8ff" points="160.47,-66.5 170.47,-63 160.47,-59.5 160.47,-66.5"/>
</a>
</g>
</g>
<!-- Node6 -->
<g id="Node000006" class="node">
<title>Node6</title>
<g id="a_Node000006"><a xlink:href="classzero__mate_1_1gui_1_1CCP10__Window.html#a5282cd642c9ac0d348764eecd919c294" target="_top" xlink:title="Renders single precision registers of the FPU (float).">
<polygon fill="white" stroke="#666666" points="315,-30 163,-30 163,0 315,0 315,-30"/>
<text text-anchor="start" x="171" y="-18" font-family="Helvetica,sans-Serif" font-size="10.00">zero_mate::gui::CCP10</text>
<text text-anchor="middle" x="239" y="-7" font-family="Helvetica,sans-Serif" font-size="10.00">_Window::Render_Registers</text>
</a>
</g>
</g>
<!-- Node1&#45;&gt;Node6 -->
<g id="edge5_Node000001_Node000006" class="edge">
<title>Node1&#45;&gt;Node6</title>
<g id="a_edge5_Node000001_Node000006"><a xlink:title=" ">
<path fill="none" stroke="#63b8ff" d="M118.92,-47.94C136.36,-43.12 155.84,-37.73 173.9,-32.73"/>
<polygon fill="#63b8ff" stroke="#63b8ff" points="175.07,-36.04 183.77,-30 173.2,-29.3 175.07,-36.04"/>
</a>
</g>
</g>
<!-- Node3 -->
<g id="Node000003" class="node">
<title>Node3</title>
<g id="a_Node000003"><a xlink:href="classzero__mate_1_1coprocessor_1_1cp10_1_1CFPEXC.html#a1e9712b7b92c2a1ef3e09f00ada91cf9" target="_top" xlink:title="Checks whether a given flag is set or not.">
<polygon fill="white" stroke="#666666" points="502.5,-126 351.5,-126 351.5,-96 502.5,-96 502.5,-126"/>
<text text-anchor="start" x="359.5" y="-114" font-family="Helvetica,sans-Serif" font-size="10.00">zero_mate::coprocessor</text>
<text text-anchor="middle" x="427" y="-103" font-family="Helvetica,sans-Serif" font-size="10.00">::cp10::CFPEXC::Is_Flag_Set</text>
</a>
</g>
</g>
<!-- Node2&#45;&gt;Node3 -->
<g id="edge2_Node000002_Node000003" class="edge">
<title>Node2&#45;&gt;Node3</title>
<g id="a_edge2_Node000002_Node000003"><a xlink:title=" ">
<path fill="none" stroke="#63b8ff" d="M307.68,-111C318.57,-111 329.97,-111 341.2,-111"/>
<polygon fill="#63b8ff" stroke="#63b8ff" points="341.46,-114.5 351.46,-111 341.46,-107.5 341.46,-114.5"/>
</a>
</g>
</g>
<!-- Node5 -->
<g id="Node000005" class="node">
<title>Node5</title>
<g id="a_Node000005"><a xlink:href="classzero__mate_1_1coprocessor_1_1cp10_1_1CFPSCR.html#abeebabe5395572a30e15aff234571c84" target="_top" xlink:title="Checks whether a given flag is set or not.">
<polygon fill="white" stroke="#666666" points="503,-78 351,-78 351,-48 503,-48 503,-78"/>
<text text-anchor="start" x="359" y="-66" font-family="Helvetica,sans-Serif" font-size="10.00">zero_mate::coprocessor</text>
<text text-anchor="middle" x="427" y="-55" font-family="Helvetica,sans-Serif" font-size="10.00">::cp10::CFPSCR::Is_Flag_Set</text>
</a>
</g>
</g>
<!-- Node4&#45;&gt;Node5 -->
<g id="edge4_Node000004_Node000005" class="edge">
<title>Node4&#45;&gt;Node5</title>
<g id="a_edge4_Node000004_Node000005"><a xlink:title=" ">
<path fill="none" stroke="#63b8ff" d="M307.68,-63C318.41,-63 329.64,-63 340.71,-63"/>
<polygon fill="#63b8ff" stroke="#63b8ff" points="340.83,-66.5 350.83,-63 340.83,-59.5 340.83,-66.5"/>
</a>
</g>
</g>
</g>
</svg>
