<?xml version="1.0" encoding="UTF-8" standalone="no"?>
<!DOCTYPE svg PUBLIC "-//W3C//DTD SVG 1.1//EN"
 "http://www.w3.org/Graphics/SVG/1.1/DTD/svg11.dtd">
<!-- Generated by graphviz version 2.43.0 (0)
 -->
<!-- Title: zero_mate::arm1176jzf_s::mmu::CMMU::Get_Physical_Addr Pages: 1 -->
<svg width="954pt" height="363pt"
 viewBox="0.00 0.00 954.00 363.00" xmlns="http://www.w3.org/2000/svg" xmlns:xlink="http://www.w3.org/1999/xlink">
<g id="graph0" class="graph" transform="scale(1 1) rotate(0) translate(4 359)">
<title>zero_mate::arm1176jzf_s::mmu::CMMU::Get_Physical_Addr</title>
<!-- Node1 -->
<g id="Node000001" class="node">
<title>Node1</title>
<g id="a_Node000001"><a xlink:title="Converts a given virtual address into a physical address.">
<polygon fill="#999999" stroke="#666666" points="194,-236.5 0,-236.5 0,-206.5 194,-206.5 194,-236.5"/>
<text text-anchor="start" x="8" y="-224.5" font-family="Helvetica,sans-Serif" font-size="10.00">zero_mate::arm1176jzf</text>
<text text-anchor="middle" x="97" y="-213.5" font-family="Helvetica,sans-Serif" font-size="10.00">_s::mmu::CMMU::Get_Physical_Addr</text>
</a>
</g>
</g>
<!-- Node2 -->
<g id="Node000002" class="node">
<title>Node2</title>
<g id="a_Node000002"><a xlink:href="classzero__mate_1_1arm1176jzf__s_1_1mmu_1_1CMMU.html#a2af0846c0e594495eeeb2ec51717dfa7" target="_top" xlink:title="Fetches the first level page tables (tbbr0, tbbr1) from the RAM.">
<polygon fill="white" stroke="#666666" points="384.5,-355 254.5,-355 254.5,-314 384.5,-314 384.5,-355"/>
<text text-anchor="start" x="262.5" y="-343" font-family="Helvetica,sans-Serif" font-size="10.00">zero_mate::arm1176jzf</text>
<text text-anchor="start" x="262.5" y="-332" font-family="Helvetica,sans-Serif" font-size="10.00">_s::mmu::CMMU::Fetch</text>
<text text-anchor="middle" x="319.5" y="-321" font-family="Helvetica,sans-Serif" font-size="10.00">_DL1_From_RAM</text>
</a>
</g>
</g>
<!-- Node1&#45;&gt;Node2 -->
<g id="edge1_Node000001_Node000002" class="edge">
<title>Node1&#45;&gt;Node2</title>
<g id="a_edge1_Node000001_Node000002"><a xlink:title=" ">
<path fill="none" stroke="#63b8ff" d="M118.11,-236.57C143.22,-254.84 188.01,-285.64 230,-305.5 234.84,-307.79 239.91,-309.97 245.07,-312.04"/>
<polygon fill="#63b8ff" stroke="#63b8ff" points="243.83,-315.31 254.42,-315.62 246.34,-308.77 243.83,-315.31"/>
</a>
</g>
</g>
<!-- Node5 -->
<g id="Node000005" class="node">
<title>Node5</title>
<g id="a_Node000005"><a xlink:href="classzero__mate_1_1arm1176jzf__s_1_1mmu_1_1CMMU.html#a6b99dfecfa3116a2524cd0a5e5217a9a" target="_top" xlink:title="Checks if the TLB entries should be invalidated and if so, it clears the cache.">
<polygon fill="white" stroke="#666666" points="384.5,-296 254.5,-296 254.5,-255 384.5,-255 384.5,-296"/>
<text text-anchor="start" x="262.5" y="-284" font-family="Helvetica,sans-Serif" font-size="10.00">zero_mate::arm1176jzf</text>
<text text-anchor="start" x="262.5" y="-273" font-family="Helvetica,sans-Serif" font-size="10.00">_s::mmu::CMMU::Flush</text>
<text text-anchor="middle" x="319.5" y="-262" font-family="Helvetica,sans-Serif" font-size="10.00">_TLB_If_Needed</text>
</a>
</g>
</g>
<!-- Node1&#45;&gt;Node5 -->
<g id="edge4_Node000001_Node000005" class="edge">
<title>Node1&#45;&gt;Node5</title>
<g id="a_edge4_Node000001_Node000005"><a xlink:title=" ">
<path fill="none" stroke="#63b8ff" d="M159.42,-236.54C185.75,-242.99 216.74,-250.58 244.33,-257.34"/>
<polygon fill="#63b8ff" stroke="#63b8ff" points="243.79,-260.81 254.33,-259.79 245.45,-254.01 243.79,-260.81"/>
</a>
</g>
</g>
<!-- Node7 -->
<g id="Node000007" class="node">
<title>Node7</title>
<g id="a_Node000007"><a xlink:href="classzero__mate_1_1arm1176jzf__s_1_1mmu_1_1CMMU.html#a2c8669fcd6fc4be14872ba31f3a63c1c" target="_top" xlink:title="Returns the page table that will be used for address translation (boundary register C2 C0 2).">
<polygon fill="white" stroke="#666666" points="409,-236.5 230,-236.5 230,-206.5 409,-206.5 409,-236.5"/>
<text text-anchor="start" x="238" y="-224.5" font-family="Helvetica,sans-Serif" font-size="10.00">zero_mate::arm1176jzf</text>
<text text-anchor="middle" x="319.5" y="-213.5" font-family="Helvetica,sans-Serif" font-size="10.00">_s::mmu::CMMU::Get_Page_Table</text>
</a>
</g>
</g>
<!-- Node1&#45;&gt;Node7 -->
<g id="edge6_Node000001_Node000007" class="edge">
<title>Node1&#45;&gt;Node7</title>
<g id="a_edge6_Node000001_Node000007"><a xlink:title=" ">
<path fill="none" stroke="#63b8ff" d="M194.07,-221.5C202.49,-221.5 211.02,-221.5 219.46,-221.5"/>
<polygon fill="#63b8ff" stroke="#63b8ff" points="219.69,-225 229.69,-221.5 219.69,-218 219.69,-225"/>
</a>
</g>
</g>
<!-- Node8 -->
<g id="Node000008" class="node">
<title>Node8</title>
<g id="a_Node000008"><a xlink:href="classzero__mate_1_1arm1176jzf__s_1_1mmu_1_1CMMU.html#ab7c06f58fdf9bd0ad522175c47b9dd0e" target="_top" xlink:title="Retrieves a given page from a page table by a given virtual address.">
<polygon fill="white" stroke="#666666" points="394,-188 245,-188 245,-147 394,-147 394,-188"/>
<text text-anchor="start" x="253" y="-176" font-family="Helvetica,sans-Serif" font-size="10.00">zero_mate::arm1176jzf</text>
<text text-anchor="start" x="253" y="-165" font-family="Helvetica,sans-Serif" font-size="10.00">_s::mmu::CMMU::Get_Page</text>
<text text-anchor="middle" x="319.5" y="-154" font-family="Helvetica,sans-Serif" font-size="10.00">_Table_Record</text>
</a>
</g>
</g>
<!-- Node1&#45;&gt;Node8 -->
<g id="edge7_Node000001_Node000008" class="edge">
<title>Node1&#45;&gt;Node8</title>
<g id="a_edge7_Node000001_Node000008"><a xlink:title=" ">
<path fill="none" stroke="#63b8ff" d="M159.42,-206.46C182.82,-200.73 209.9,-194.1 235,-187.95"/>
<polygon fill="#63b8ff" stroke="#63b8ff" points="236,-191.31 244.89,-185.53 234.34,-184.51 236,-191.31"/>
</a>
</g>
</g>
<!-- Node10 -->
<g id="Node000010" class="node">
<title>Node10</title>
<g id="a_Node000010"><a xlink:href="classzero__mate_1_1arm1176jzf__s_1_1mmu_1_1CMMU.html#ab1413e798b9ac2d3bcdf521e7dfe7bdf" target="_top" xlink:title="Verifies page access (calls a chain of functions that validate the access).">
<polygon fill="white" stroke="#666666" points="385,-129 254,-129 254,-88 385,-88 385,-129"/>
<text text-anchor="start" x="262" y="-117" font-family="Helvetica,sans-Serif" font-size="10.00">zero_mate::arm1176jzf</text>
<text text-anchor="start" x="262" y="-106" font-family="Helvetica,sans-Serif" font-size="10.00">_s::mmu::CMMU::Verify</text>
<text text-anchor="middle" x="319.5" y="-95" font-family="Helvetica,sans-Serif" font-size="10.00">_Access</text>
</a>
</g>
</g>
<!-- Node1&#45;&gt;Node10 -->
<g id="edge9_Node000001_Node000010" class="edge">
<title>Node1&#45;&gt;Node10</title>
<g id="a_edge9_Node000001_Node000010"><a xlink:title=" ">
<path fill="none" stroke="#63b8ff" d="M118.61,-206.39C143.87,-188.38 188.44,-158.27 230,-138.5 234.64,-136.29 239.49,-134.17 244.42,-132.15"/>
<polygon fill="#63b8ff" stroke="#63b8ff" points="245.96,-135.3 253.98,-128.38 243.4,-128.79 245.96,-135.3"/>
</a>
</g>
</g>
<!-- Node3 -->
<g id="Node000003" class="node">
<title>Node3</title>
<g id="a_Node000003"><a xlink:href="classzero__mate_1_1coprocessor_1_1cp15_1_1CC2.html#ae01856374ec8bac99ac7652c0d99de48" target="_top" xlink:title="Returns the physical address of a given page table.">
<polygon fill="white" stroke="#666666" points="608,-349.5 445,-349.5 445,-319.5 608,-319.5 608,-349.5"/>
<text text-anchor="start" x="453" y="-337.5" font-family="Helvetica,sans-Serif" font-size="10.00">zero_mate::coprocessor</text>
<text text-anchor="middle" x="526.5" y="-326.5" font-family="Helvetica,sans-Serif" font-size="10.00">::cp15::CC2::Get_TTB_Address</text>
</a>
</g>
</g>
<!-- Node2&#45;&gt;Node3 -->
<g id="edge2_Node000002_Node000003" class="edge">
<title>Node2&#45;&gt;Node3</title>
<g id="a_edge2_Node000002_Node000003"><a xlink:title=" ">
<path fill="none" stroke="#63b8ff" d="M384.52,-334.5C400.38,-334.5 417.67,-334.5 434.55,-334.5"/>
<polygon fill="#63b8ff" stroke="#63b8ff" points="434.98,-338 444.98,-334.5 434.98,-331 434.98,-338"/>
</a>
</g>
</g>
<!-- Node4 -->
<g id="Node000004" class="node">
<title>Node4</title>
<g id="a_Node000004"><a xlink:href="classzero__mate_1_1coprocessor_1_1cp15_1_1CC2.html#ac31765da4a10567be0232abedeff1b75" target="_top" xlink:title="Extracts bits determined by a given mask from a given secondary register.">
<polygon fill="white" stroke="#666666" points="780,-355 644,-355 644,-314 780,-314 780,-355"/>
<text text-anchor="start" x="652" y="-343" font-family="Helvetica,sans-Serif" font-size="10.00">zero_mate::coprocessor</text>
<text text-anchor="start" x="652" y="-332" font-family="Helvetica,sans-Serif" font-size="10.00">::cp15::CC2::Extract_Bits</text>
<text text-anchor="middle" x="712" y="-321" font-family="Helvetica,sans-Serif" font-size="10.00">_From_TTBR</text>
</a>
</g>
</g>
<!-- Node3&#45;&gt;Node4 -->
<g id="edge3_Node000003_Node000004" class="edge">
<title>Node3&#45;&gt;Node4</title>
<g id="a_edge3_Node000003_Node000004"><a xlink:title=" ">
<path fill="none" stroke="#63b8ff" d="M608.25,-334.5C616.73,-334.5 625.33,-334.5 633.77,-334.5"/>
<polygon fill="#63b8ff" stroke="#63b8ff" points="633.96,-338 643.96,-334.5 633.96,-331 633.96,-338"/>
</a>
</g>
</g>
<!-- Node6 -->
<g id="Node000006" class="node">
<title>Node6</title>
<g id="a_Node000006"><a xlink:href="classzero__mate_1_1coprocessor_1_1cp15_1_1CC8.html#ac77ed4a96d070aedb6b77b95f95a03cb" target="_top" xlink:title="Resets the flag that indicates that the TLB entries should be invalidated.">
<polygon fill="white" stroke="#666666" points="601,-296 452,-296 452,-255 601,-255 601,-296"/>
<text text-anchor="start" x="460" y="-284" font-family="Helvetica,sans-Serif" font-size="10.00">zero_mate::coprocessor</text>
<text text-anchor="start" x="460" y="-273" font-family="Helvetica,sans-Serif" font-size="10.00">::cp15::CC8::TLB_Has_Been</text>
<text text-anchor="middle" x="526.5" y="-262" font-family="Helvetica,sans-Serif" font-size="10.00">_Invalidated</text>
</a>
</g>
</g>
<!-- Node5&#45;&gt;Node6 -->
<g id="edge5_Node000005_Node000006" class="edge">
<title>Node5&#45;&gt;Node6</title>
<g id="a_edge5_Node000005_Node000006"><a xlink:title=" ">
<path fill="none" stroke="#63b8ff" d="M384.52,-275.5C402.64,-275.5 422.65,-275.5 441.75,-275.5"/>
<polygon fill="#63b8ff" stroke="#63b8ff" points="441.94,-279 451.94,-275.5 441.94,-272 441.94,-279"/>
</a>
</g>
</g>
<!-- Node9 -->
<g id="Node000009" class="node">
<title>Node9</title>
<g id="a_Node000009"><a xlink:href="classzero__mate_1_1arm1176jzf__s_1_1mmu_1_1CPage__Entry.html#a4f2dc11deaa1a64983e18d91bcaee1c5" target="_top" xlink:title="Returns the raw value of the page.">
<polygon fill="white" stroke="#666666" points="591.5,-188 461.5,-188 461.5,-147 591.5,-147 591.5,-188"/>
<text text-anchor="start" x="469.5" y="-176" font-family="Helvetica,sans-Serif" font-size="10.00">zero_mate::arm1176jzf</text>
<text text-anchor="start" x="469.5" y="-165" font-family="Helvetica,sans-Serif" font-size="10.00">_s::mmu::CPage_Entry</text>
<text text-anchor="middle" x="526.5" y="-154" font-family="Helvetica,sans-Serif" font-size="10.00">::Get_Value</text>
</a>
</g>
</g>
<!-- Node8&#45;&gt;Node9 -->
<g id="edge8_Node000008_Node000009" class="edge">
<title>Node8&#45;&gt;Node9</title>
<g id="a_edge8_Node000008_Node000009"><a xlink:title=" ">
<path fill="none" stroke="#63b8ff" d="M394.22,-167.5C412.72,-167.5 432.58,-167.5 451.11,-167.5"/>
<polygon fill="#63b8ff" stroke="#63b8ff" points="451.25,-171 461.25,-167.5 451.25,-164 451.25,-171"/>
</a>
</g>
</g>
<!-- Node11 -->
<g id="Node000011" class="node">
<title>Node11</title>
<g id="a_Node000011"><a xlink:href="classzero__mate_1_1arm1176jzf__s_1_1mmu_1_1CMMU.html#a0e32ece3d5ac208c69fa5573fcea3205" target="_top" xlink:title="Verifies access privileges when accessing a page (virtual address).">
<polygon fill="white" stroke="#666666" points="592,-129 461,-129 461,-88 592,-88 592,-129"/>
<text text-anchor="start" x="469" y="-117" font-family="Helvetica,sans-Serif" font-size="10.00">zero_mate::arm1176jzf</text>
<text text-anchor="start" x="469" y="-106" font-family="Helvetica,sans-Serif" font-size="10.00">_s::mmu::CMMU::Verify</text>
<text text-anchor="middle" x="526.5" y="-95" font-family="Helvetica,sans-Serif" font-size="10.00">_Access_Privileges</text>
</a>
</g>
</g>
<!-- Node10&#45;&gt;Node11 -->
<g id="edge10_Node000010_Node000011" class="edge">
<title>Node10&#45;&gt;Node11</title>
<g id="a_edge10_Node000010_Node000011"><a xlink:title=" ">
<path fill="none" stroke="#63b8ff" d="M385.08,-108.5C405.95,-108.5 429.27,-108.5 450.81,-108.5"/>
<polygon fill="#63b8ff" stroke="#63b8ff" points="450.89,-112 460.89,-108.5 450.89,-105 450.89,-112"/>
</a>
</g>
</g>
<!-- Node16 -->
<g id="Node000016" class="node">
<title>Node16</title>
<g id="a_Node000016"><a xlink:href="classzero__mate_1_1arm1176jzf__s_1_1mmu_1_1CMMU.html#ac834a31f545bceaea03c3fa127bf0fa1" target="_top" xlink:title="Verifies the access type.">
<polygon fill="white" stroke="#666666" points="592,-70 461,-70 461,-29 592,-29 592,-70"/>
<text text-anchor="start" x="469" y="-58" font-family="Helvetica,sans-Serif" font-size="10.00">zero_mate::arm1176jzf</text>
<text text-anchor="start" x="469" y="-47" font-family="Helvetica,sans-Serif" font-size="10.00">_s::mmu::CMMU::Verify</text>
<text text-anchor="middle" x="526.5" y="-36" font-family="Helvetica,sans-Serif" font-size="10.00">_Access_Type</text>
</a>
</g>
</g>
<!-- Node10&#45;&gt;Node16 -->
<g id="edge15_Node000010_Node000016" class="edge">
<title>Node10&#45;&gt;Node16</title>
<g id="a_edge15_Node000010_Node000016"><a xlink:title=" ">
<path fill="none" stroke="#63b8ff" d="M385.08,-89.91C406.05,-83.88 429.48,-77.14 451.1,-70.91"/>
<polygon fill="#63b8ff" stroke="#63b8ff" points="452.25,-74.22 460.89,-68.09 450.31,-67.5 452.25,-74.22"/>
</a>
</g>
</g>
<!-- Node12 -->
<g id="Node000012" class="node">
<title>Node12</title>
<g id="a_Node000012"><a xlink:href="classzero__mate_1_1arm1176jzf__s_1_1mmu_1_1CPage__Entry.html#a005e8820c6fa2cdcaa49471491760fa8" target="_top" xlink:title="Returns page access privileges.">
<polygon fill="white" stroke="#666666" points="778,-218 646,-218 646,-177 778,-177 778,-218"/>
<text text-anchor="start" x="654" y="-206" font-family="Helvetica,sans-Serif" font-size="10.00">zero_mate::arm1176jzf</text>
<text text-anchor="start" x="654" y="-195" font-family="Helvetica,sans-Serif" font-size="10.00">_s::mmu::CPage_Entry</text>
<text text-anchor="middle" x="712" y="-184" font-family="Helvetica,sans-Serif" font-size="10.00">::Get_Access_Privileges</text>
</a>
</g>
</g>
<!-- Node11&#45;&gt;Node12 -->
<g id="edge11_Node000011_Node000012" class="edge">
<title>Node11&#45;&gt;Node12</title>
<g id="a_edge11_Node000011_Node000012"><a xlink:title=" ">
<path fill="none" stroke="#63b8ff" d="M589.58,-129.18C595.94,-132.02 602.19,-135.13 608,-138.5 626.01,-148.95 626.26,-157.59 644,-168.5 645.97,-169.71 648.01,-170.9 650.08,-172.06"/>
<polygon fill="#63b8ff" stroke="#63b8ff" points="648.9,-175.4 659.38,-176.96 652.17,-169.21 648.9,-175.4"/>
</a>
</g>
</g>
<!-- Node13 -->
<g id="Node000013" class="node">
<title>Node13</title>
<g id="a_Node000013"><a xlink:href="classzero__mate_1_1arm1176jzf__s_1_1mmu_1_1CPage__Entry.html#a3c5fdd9febd92dc1fb1a41d2f936abc3" target="_top" xlink:title="Returns privileged mode page access restrictions (R/RW).">
<polygon fill="white" stroke="#666666" points="777,-159 647,-159 647,-118 777,-118 777,-159"/>
<text text-anchor="start" x="655" y="-147" font-family="Helvetica,sans-Serif" font-size="10.00">zero_mate::arm1176jzf</text>
<text text-anchor="start" x="655" y="-136" font-family="Helvetica,sans-Serif" font-size="10.00">_s::mmu::CPage_Entry</text>
<text text-anchor="middle" x="712" y="-125" font-family="Helvetica,sans-Serif" font-size="10.00">::Get_NAPX</text>
</a>
</g>
</g>
<!-- Node11&#45;&gt;Node13 -->
<g id="edge12_Node000011_Node000013" class="edge">
<title>Node11&#45;&gt;Node13</title>
<g id="a_edge12_Node000011_Node000013"><a xlink:title=" ">
<path fill="none" stroke="#63b8ff" d="M592.2,-119.08C606.62,-121.43 622.01,-123.95 636.78,-126.37"/>
<polygon fill="#63b8ff" stroke="#63b8ff" points="636.46,-129.86 646.89,-128.02 637.58,-122.95 636.46,-129.86"/>
</a>
</g>
</g>
<!-- Node14 -->
<g id="Node000014" class="node">
<title>Node14</title>
<g id="a_Node000014"><a xlink:href="classzero__mate_1_1arm1176jzf__s_1_1CCPU__Context.html#a573470217091c27cf30f1411ea453e5d" target="_top" xlink:title="Checks if the CPU is in a privileged mode.">
<polygon fill="white" stroke="#666666" points="777,-100 647,-100 647,-59 777,-59 777,-100"/>
<text text-anchor="start" x="655" y="-88" font-family="Helvetica,sans-Serif" font-size="10.00">zero_mate::arm1176jzf</text>
<text text-anchor="start" x="655" y="-77" font-family="Helvetica,sans-Serif" font-size="10.00">_s::CCPU_Context::Is</text>
<text text-anchor="middle" x="712" y="-66" font-family="Helvetica,sans-Serif" font-size="10.00">_In_Privileged_Mode</text>
</a>
</g>
</g>
<!-- Node11&#45;&gt;Node14 -->
<g id="edge13_Node000011_Node000014" class="edge">
<title>Node11&#45;&gt;Node14</title>
<g id="a_edge13_Node000011_Node000014"><a xlink:title=" ">
<path fill="none" stroke="#63b8ff" d="M592.2,-98.28C606.62,-96 622.01,-93.56 636.78,-91.23"/>
<polygon fill="#63b8ff" stroke="#63b8ff" points="637.56,-94.65 646.89,-89.63 636.47,-87.74 637.56,-94.65"/>
</a>
</g>
</g>
<!-- Node15 -->
<g id="Node000015" class="node">
<title>Node15</title>
<g id="a_Node000015"><a xlink:href="classzero__mate_1_1arm1176jzf__s_1_1CCPU__Context.html#aa740f9219bb413d707ac72f373e60d3a" target="_top" xlink:title="Returns the current mode of the CPU.">
<polygon fill="white" stroke="#666666" points="946,-100 816,-100 816,-59 946,-59 946,-100"/>
<text text-anchor="start" x="824" y="-88" font-family="Helvetica,sans-Serif" font-size="10.00">zero_mate::arm1176jzf</text>
<text text-anchor="start" x="824" y="-77" font-family="Helvetica,sans-Serif" font-size="10.00">_s::CCPU_Context::Get</text>
<text text-anchor="middle" x="881" y="-66" font-family="Helvetica,sans-Serif" font-size="10.00">_CPU_Mode</text>
</a>
</g>
</g>
<!-- Node14&#45;&gt;Node15 -->
<g id="edge14_Node000014_Node000015" class="edge">
<title>Node14&#45;&gt;Node15</title>
<g id="a_edge14_Node000014_Node000015"><a xlink:title=" ">
<path fill="none" stroke="#63b8ff" d="M777.09,-79.5C786.41,-79.5 796.07,-79.5 805.58,-79.5"/>
<polygon fill="#63b8ff" stroke="#63b8ff" points="805.81,-83 815.81,-79.5 805.81,-76 805.81,-83"/>
</a>
</g>
</g>
<!-- Node17 -->
<g id="Node000017" class="node">
<title>Node17</title>
<g id="a_Node000017"><a xlink:href="classzero__mate_1_1arm1176jzf__s_1_1mmu_1_1CPage__Entry.html#adefd9403af02fbb79298b706f7d6c7e3" target="_top" xlink:title="Returns the page access type.">
<polygon fill="white" stroke="#666666" points="777,-41 647,-41 647,0 777,0 777,-41"/>
<text text-anchor="start" x="655" y="-29" font-family="Helvetica,sans-Serif" font-size="10.00">zero_mate::arm1176jzf</text>
<text text-anchor="start" x="655" y="-18" font-family="Helvetica,sans-Serif" font-size="10.00">_s::mmu::CPage_Entry</text>
<text text-anchor="middle" x="712" y="-7" font-family="Helvetica,sans-Serif" font-size="10.00">::Get_Access_Type</text>
</a>
</g>
</g>
<!-- Node16&#45;&gt;Node17 -->
<g id="edge16_Node000016_Node000017" class="edge">
<title>Node16&#45;&gt;Node17</title>
<g id="a_edge16_Node000016_Node000017"><a xlink:title=" ">
<path fill="none" stroke="#63b8ff" d="M592.2,-39.28C606.62,-37 622.01,-34.56 636.78,-32.23"/>
<polygon fill="#63b8ff" stroke="#63b8ff" points="637.56,-35.65 646.89,-30.63 636.47,-28.74 637.56,-35.65"/>
</a>
</g>
</g>
</g>
</svg>
