<?xml version="1.0" encoding="UTF-8" standalone="no"?>
<!DOCTYPE svg PUBLIC "-//W3C//DTD SVG 1.1//EN"
 "http://www.w3.org/Graphics/SVG/1.1/DTD/svg11.dtd">
<!-- Generated by graphviz version 2.43.0 (0)
 -->
<!-- Title: zero_mate::arm1176jzf_s::CCPU_Context::Reset Pages: 1 -->
<svg width="538pt" height="432pt"
 viewBox="0.00 0.00 538.00 431.50" xmlns="http://www.w3.org/2000/svg" xmlns:xlink="http://www.w3.org/1999/xlink">
<g id="graph0" class="graph" transform="scale(1 1) rotate(0) translate(4 427.5)">
<title>zero_mate::arm1176jzf_s::CCPU_Context::Reset</title>
<!-- Node1 -->
<g id="Node000001" class="node">
<title>Node1</title>
<g id="a_Node000001"><a xlink:title="Resets the context of the CPU.">
<polygon fill="#999999" stroke="#666666" points="137,-375.5 0,-375.5 0,-345.5 137,-345.5 137,-375.5"/>
<text text-anchor="start" x="8" y="-363.5" font-family="Helvetica,sans-Serif" font-size="10.00">zero_mate::arm1176jzf</text>
<text text-anchor="middle" x="68.5" y="-352.5" font-family="Helvetica,sans-Serif" font-size="10.00">_s::CCPU_Context::Reset</text>
</a>
</g>
</g>
<!-- Node2 -->
<g id="Node000002" class="node">
<title>Node2</title>
<g id="a_Node000002"><a xlink:href="classzero__mate_1_1arm1176jzf__s_1_1CCPU__Context.html#a2dd5a3a65e28cce65d01bdef2746cf1a" target="_top" xlink:title="Globally enables/disables FIQ (fast interrupts)">
<polygon fill="white" stroke="#666666" points="337.5,-423.5 173.5,-423.5 173.5,-393.5 337.5,-393.5 337.5,-423.5"/>
<text text-anchor="start" x="181.5" y="-411.5" font-family="Helvetica,sans-Serif" font-size="10.00">zero_mate::arm1176jzf</text>
<text text-anchor="middle" x="255.5" y="-400.5" font-family="Helvetica,sans-Serif" font-size="10.00">_s::CCPU_Context::Enable_FIQ</text>
</a>
</g>
</g>
<!-- Node1&#45;&gt;Node2 -->
<g id="edge1_Node000001_Node000002" class="edge">
<title>Node1&#45;&gt;Node2</title>
<g id="a_edge1_Node000001_Node000002"><a xlink:title=" ">
<path fill="none" stroke="#63b8ff" d="M127.53,-375.56C146.38,-380.45 167.47,-385.92 186.96,-390.98"/>
<polygon fill="#63b8ff" stroke="#63b8ff" points="186.12,-394.37 196.68,-393.5 187.88,-387.6 186.12,-394.37"/>
</a>
</g>
</g>
<!-- Node4 -->
<g id="Node000004" class="node">
<title>Node4</title>
<g id="a_Node000004"><a xlink:href="classzero__mate_1_1arm1176jzf__s_1_1CCPU__Context.html#a4b48d0f9508c738b62d96e5593e6d704" target="_top" xlink:title="Globally enables/disables IRQ (interrupts)">
<polygon fill="white" stroke="#666666" points="338,-375.5 173,-375.5 173,-345.5 338,-345.5 338,-375.5"/>
<text text-anchor="start" x="181" y="-363.5" font-family="Helvetica,sans-Serif" font-size="10.00">zero_mate::arm1176jzf</text>
<text text-anchor="middle" x="255.5" y="-352.5" font-family="Helvetica,sans-Serif" font-size="10.00">_s::CCPU_Context::Enable_IRQ</text>
</a>
</g>
</g>
<!-- Node1&#45;&gt;Node4 -->
<g id="edge3_Node000001_Node000004" class="edge">
<title>Node1&#45;&gt;Node4</title>
<g id="a_edge3_Node000001_Node000004"><a xlink:title=" ">
<path fill="none" stroke="#63b8ff" d="M137.07,-360.5C145.46,-360.5 154.14,-360.5 162.81,-360.5"/>
<polygon fill="#63b8ff" stroke="#63b8ff" points="162.96,-364 172.96,-360.5 162.96,-357 162.96,-364"/>
</a>
</g>
</g>
<!-- Node5 -->
<g id="Node000005" class="node">
<title>Node5</title>
<g id="a_Node000005"><a xlink:href="classzero__mate_1_1arm1176jzf__s_1_1CCPU__Context.html#a2f550e28044af7ff0ddb866527a95356" target="_top" xlink:title="Initializes (resets) all CPU registers.">
<polygon fill="white" stroke="#666666" points="320.5,-238 190.5,-238 190.5,-197 320.5,-197 320.5,-238"/>
<text text-anchor="start" x="198.5" y="-226" font-family="Helvetica,sans-Serif" font-size="10.00">zero_mate::arm1176jzf</text>
<text text-anchor="start" x="198.5" y="-215" font-family="Helvetica,sans-Serif" font-size="10.00">_s::CCPU_Context::Init</text>
<text text-anchor="middle" x="255.5" y="-204" font-family="Helvetica,sans-Serif" font-size="10.00">_Registers</text>
</a>
</g>
</g>
<!-- Node1&#45;&gt;Node5 -->
<g id="edge5_Node000001_Node000005" class="edge">
<title>Node1&#45;&gt;Node5</title>
<g id="a_edge5_Node000001_Node000005"><a xlink:title=" ">
<path fill="none" stroke="#63b8ff" d="M88.95,-345.47C119.91,-321.53 180.86,-274.43 219.54,-244.53"/>
<polygon fill="#63b8ff" stroke="#63b8ff" points="222.14,-246.94 227.91,-238.06 217.85,-241.4 222.14,-246.94"/>
</a>
</g>
</g>
<!-- Node3 -->
<g id="Node000003" class="node">
<title>Node3</title>
<g id="a_Node000003"><a xlink:href="classzero__mate_1_1arm1176jzf__s_1_1CCPU__Context.html#a984bace2773aca71cf04701aa0ce9c54" target="_top" xlink:title="Sets/resets a flag in the CPSR register of the current CPU mode.">
<polygon fill="white" stroke="#666666" points="528,-423.5 376,-423.5 376,-393.5 528,-393.5 528,-423.5"/>
<text text-anchor="start" x="384" y="-411.5" font-family="Helvetica,sans-Serif" font-size="10.00">zero_mate::arm1176jzf</text>
<text text-anchor="middle" x="452" y="-400.5" font-family="Helvetica,sans-Serif" font-size="10.00">_s::CCPU_Context::Set_Flag</text>
</a>
</g>
</g>
<!-- Node2&#45;&gt;Node3 -->
<g id="edge2_Node000002_Node000003" class="edge">
<title>Node2&#45;&gt;Node3</title>
<g id="a_edge2_Node000002_Node000003"><a xlink:title=" ">
<path fill="none" stroke="#63b8ff" d="M337.58,-408.5C346.92,-408.5 356.46,-408.5 365.85,-408.5"/>
<polygon fill="#63b8ff" stroke="#63b8ff" points="365.96,-412 375.96,-408.5 365.96,-405 365.96,-412"/>
</a>
</g>
</g>
<!-- Node4&#45;&gt;Node3 -->
<g id="edge4_Node000004_Node000003" class="edge">
<title>Node4&#45;&gt;Node3</title>
<g id="a_edge4_Node000004_Node000003"><a xlink:title=" ">
<path fill="none" stroke="#63b8ff" d="M317.51,-375.56C337.42,-380.47 359.7,-385.97 380.27,-391.04"/>
<polygon fill="#63b8ff" stroke="#63b8ff" points="379.66,-394.5 390.21,-393.5 381.34,-387.7 379.66,-394.5"/>
</a>
</g>
</g>
<!-- Node6 -->
<g id="Node000006" class="node">
<title>Node6</title>
<g id="a_Node000006"><a xlink:href="classzero__mate_1_1arm1176jzf__s_1_1CCPU__Context.html#aacfb4cc6e44ca967a9e258ba583f588b" target="_top" xlink:title="Resets the banked registers of the Abort mode to 0.">
<polygon fill="white" stroke="#666666" points="517,-375 387,-375 387,-334 517,-334 517,-375"/>
<text text-anchor="start" x="395" y="-363" font-family="Helvetica,sans-Serif" font-size="10.00">zero_mate::arm1176jzf</text>
<text text-anchor="start" x="395" y="-352" font-family="Helvetica,sans-Serif" font-size="10.00">_s::CCPU_Context::Init</text>
<text text-anchor="middle" x="452" y="-341" font-family="Helvetica,sans-Serif" font-size="10.00">_Abort_Banked_Regs</text>
</a>
</g>
</g>
<!-- Node5&#45;&gt;Node6 -->
<g id="edge6_Node000005_Node000006" class="edge">
<title>Node5&#45;&gt;Node6</title>
<g id="a_edge6_Node000005_Node000006"><a xlink:title=" ">
<path fill="none" stroke="#63b8ff" d="M274.64,-238.08C296.32,-261.62 334.61,-300.07 374,-324.5 376.74,-326.2 379.6,-327.84 382.53,-329.4"/>
<polygon fill="#63b8ff" stroke="#63b8ff" points="380.97,-332.54 391.48,-333.89 384.11,-326.28 380.97,-332.54"/>
</a>
</g>
</g>
<!-- Node7 -->
<g id="Node000007" class="node">
<title>Node7</title>
<g id="a_Node000007"><a xlink:href="classzero__mate_1_1arm1176jzf__s_1_1CCPU__Context.html#a68f089f1b45e6f22295a7339eeeade33" target="_top" xlink:title="Resets the CPSR register in all CPU modes.">
<polygon fill="white" stroke="#666666" points="530,-315.5 374,-315.5 374,-285.5 530,-285.5 530,-315.5"/>
<text text-anchor="start" x="382" y="-303.5" font-family="Helvetica,sans-Serif" font-size="10.00">zero_mate::arm1176jzf</text>
<text text-anchor="middle" x="452" y="-292.5" font-family="Helvetica,sans-Serif" font-size="10.00">_s::CCPU_Context::Init_CPSR</text>
</a>
</g>
</g>
<!-- Node5&#45;&gt;Node7 -->
<g id="edge7_Node000005_Node000007" class="edge">
<title>Node5&#45;&gt;Node7</title>
<g id="a_edge7_Node000005_Node000007"><a xlink:title=" ">
<path fill="none" stroke="#63b8ff" d="M293.61,-238.09C316.38,-250.23 346.38,-265.35 374,-276.5 378.75,-278.42 383.71,-280.28 388.73,-282.05"/>
<polygon fill="#63b8ff" stroke="#63b8ff" points="387.81,-285.44 398.41,-285.37 390.08,-278.82 387.81,-285.44"/>
</a>
</g>
</g>
<!-- Node8 -->
<g id="Node000008" class="node">
<title>Node8</title>
<g id="a_Node000008"><a xlink:href="classzero__mate_1_1arm1176jzf__s_1_1CCPU__Context.html#a651a92dac2106063a9988c63fb80fcdd" target="_top" xlink:title="Resets the banked registers of the FIQ mode to 0.">
<polygon fill="white" stroke="#666666" points="517,-267 387,-267 387,-226 517,-226 517,-267"/>
<text text-anchor="start" x="395" y="-255" font-family="Helvetica,sans-Serif" font-size="10.00">zero_mate::arm1176jzf</text>
<text text-anchor="start" x="395" y="-244" font-family="Helvetica,sans-Serif" font-size="10.00">_s::CCPU_Context::Init</text>
<text text-anchor="middle" x="452" y="-233" font-family="Helvetica,sans-Serif" font-size="10.00">_FIQ_Banked_Regs</text>
</a>
</g>
</g>
<!-- Node5&#45;&gt;Node8 -->
<g id="edge8_Node000005_Node000008" class="edge">
<title>Node5&#45;&gt;Node8</title>
<g id="a_edge8_Node000005_Node000008"><a xlink:title=" ">
<path fill="none" stroke="#63b8ff" d="M320.73,-227.08C338.65,-229.75 358.28,-232.67 376.73,-235.43"/>
<polygon fill="#63b8ff" stroke="#63b8ff" points="376.43,-238.92 386.84,-236.93 377.47,-232 376.43,-238.92"/>
</a>
</g>
</g>
<!-- Node9 -->
<g id="Node000009" class="node">
<title>Node9</title>
<g id="a_Node000009"><a xlink:href="classzero__mate_1_1arm1176jzf__s_1_1CCPU__Context.html#a38524842c1e4f158af18c1e2cafd14ed" target="_top" xlink:title="Resets the banked registers of the IRQ mode to 0.">
<polygon fill="white" stroke="#666666" points="517,-208 387,-208 387,-167 517,-167 517,-208"/>
<text text-anchor="start" x="395" y="-196" font-family="Helvetica,sans-Serif" font-size="10.00">zero_mate::arm1176jzf</text>
<text text-anchor="start" x="395" y="-185" font-family="Helvetica,sans-Serif" font-size="10.00">_s::CCPU_Context::Init</text>
<text text-anchor="middle" x="452" y="-174" font-family="Helvetica,sans-Serif" font-size="10.00">_IRQ_Banked_Regs</text>
</a>
</g>
</g>
<!-- Node5&#45;&gt;Node9 -->
<g id="edge9_Node000005_Node000009" class="edge">
<title>Node5&#45;&gt;Node9</title>
<g id="a_edge9_Node000005_Node000009"><a xlink:title=" ">
<path fill="none" stroke="#63b8ff" d="M320.73,-207.59C338.65,-204.83 358.28,-201.8 376.73,-198.96"/>
<polygon fill="#63b8ff" stroke="#63b8ff" points="377.49,-202.38 386.84,-197.4 376.43,-195.46 377.49,-202.38"/>
</a>
</g>
</g>
<!-- Node10 -->
<g id="Node000010" class="node">
<title>Node10</title>
<g id="a_Node000010"><a xlink:href="classzero__mate_1_1arm1176jzf__s_1_1CCPU__Context.html#af24fe774c931e6fe4c0abe70956463de" target="_top" xlink:title="Resets all SPSR registers (in all CPU modes) to 0.">
<polygon fill="white" stroke="#666666" points="529.5,-148.5 374.5,-148.5 374.5,-118.5 529.5,-118.5 529.5,-148.5"/>
<text text-anchor="start" x="382.5" y="-136.5" font-family="Helvetica,sans-Serif" font-size="10.00">zero_mate::arm1176jzf</text>
<text text-anchor="middle" x="452" y="-125.5" font-family="Helvetica,sans-Serif" font-size="10.00">_s::CCPU_Context::Init_SPSR</text>
</a>
</g>
</g>
<!-- Node5&#45;&gt;Node10 -->
<g id="edge10_Node000005_Node000010" class="edge">
<title>Node5&#45;&gt;Node10</title>
<g id="a_edge10_Node000005_Node000010"><a xlink:title=" ">
<path fill="none" stroke="#63b8ff" d="M293.92,-196.88C316.68,-184.81 346.55,-169.77 374,-158.5 379.5,-156.24 385.28,-154.05 391.1,-151.96"/>
<polygon fill="#63b8ff" stroke="#63b8ff" points="392.6,-155.14 400.9,-148.55 390.3,-148.53 392.6,-155.14"/>
</a>
</g>
</g>
<!-- Node11 -->
<g id="Node000011" class="node">
<title>Node11</title>
<g id="a_Node000011"><a xlink:href="classzero__mate_1_1arm1176jzf__s_1_1CCPU__Context.html#a945204938f4a5e92be738c48711218c2" target="_top" xlink:title="Resets the banked registers of the Supervisor mode to 0.">
<polygon fill="white" stroke="#666666" points="524,-100 380,-100 380,-59 524,-59 524,-100"/>
<text text-anchor="start" x="388" y="-88" font-family="Helvetica,sans-Serif" font-size="10.00">zero_mate::arm1176jzf</text>
<text text-anchor="start" x="388" y="-77" font-family="Helvetica,sans-Serif" font-size="10.00">_s::CCPU_Context::Init</text>
<text text-anchor="middle" x="452" y="-66" font-family="Helvetica,sans-Serif" font-size="10.00">_Supervisor_Banked_Regs</text>
</a>
</g>
</g>
<!-- Node5&#45;&gt;Node11 -->
<g id="edge11_Node000005_Node000011" class="edge">
<title>Node5&#45;&gt;Node11</title>
<g id="a_edge11_Node000005_Node000011"><a xlink:title=" ">
<path fill="none" stroke="#63b8ff" d="M274.6,-196.72C296.24,-172.94 334.5,-134.12 374,-109.5 376.74,-107.79 379.59,-106.15 382.52,-104.58"/>
<polygon fill="#63b8ff" stroke="#63b8ff" points="384.1,-107.7 391.47,-100.08 380.96,-101.45 384.1,-107.7"/>
</a>
</g>
</g>
<!-- Node12 -->
<g id="Node000012" class="node">
<title>Node12</title>
<g id="a_Node000012"><a xlink:href="classzero__mate_1_1arm1176jzf__s_1_1CCPU__Context.html#a6eb0ee94a81e166d7b02a78f45b4d028" target="_top" xlink:title="Resets the banked registers of the Undefined mode to 0.">
<polygon fill="white" stroke="#666666" points="523,-41 381,-41 381,0 523,0 523,-41"/>
<text text-anchor="start" x="389" y="-29" font-family="Helvetica,sans-Serif" font-size="10.00">zero_mate::arm1176jzf</text>
<text text-anchor="start" x="389" y="-18" font-family="Helvetica,sans-Serif" font-size="10.00">_s::CCPU_Context::Init</text>
<text text-anchor="middle" x="452" y="-7" font-family="Helvetica,sans-Serif" font-size="10.00">_Undefined_Banked_Regs</text>
</a>
</g>
</g>
<!-- Node5&#45;&gt;Node12 -->
<g id="edge12_Node000005_Node000012" class="edge">
<title>Node5&#45;&gt;Node12</title>
<g id="a_edge12_Node000005_Node000012"><a xlink:title=" ">
<path fill="none" stroke="#63b8ff" d="M265.78,-196.92C282.56,-161.91 321.15,-90.54 374,-49.5 375.36,-48.45 376.76,-47.43 378.19,-46.44"/>
<polygon fill="#63b8ff" stroke="#63b8ff" points="380.08,-49.39 386.75,-41.17 376.4,-43.43 380.08,-49.39"/>
</a>
</g>
</g>
</g>
</svg>
