<?xml version="1.0" encoding="UTF-8" standalone="no"?>
<!DOCTYPE svg PUBLIC "-//W3C//DTD SVG 1.1//EN"
 "http://www.w3.org/Graphics/SVG/1.1/DTD/svg11.dtd">
<!-- Generated by graphviz version 2.43.0 (0)
 -->
<!-- Title: zero_mate::peripheral::ISystem_Clock_Listener Pages: 1 -->
<svg width="307pt" height="134pt"
 viewBox="0.00 0.00 307.00 134.00" xmlns="http://www.w3.org/2000/svg" xmlns:xlink="http://www.w3.org/1999/xlink">
<g id="graph0" class="graph" transform="scale(1 1) rotate(0) translate(4 130)">
<title>zero_mate::peripheral::ISystem_Clock_Listener</title>
<!-- Node1 -->
<g id="Node000001" class="node">
<title>Node1</title>
<g id="a_Node000001"><a xlink:title="This class represents a general interface for a CPU clock listener.">
<polygon fill="#999999" stroke="#666666" points="139,-78 0,-78 0,-48 139,-48 139,-78"/>
<text text-anchor="start" x="8" y="-66" font-family="Helvetica,sans-Serif" font-size="10.00">zero_mate::peripheral</text>
<text text-anchor="middle" x="69.5" y="-55" font-family="Helvetica,sans-Serif" font-size="10.00">::ISystem_Clock_Listener</text>
</a>
</g>
</g>
<!-- Node2 -->
<g id="Node000002" class="node">
<title>Node2</title>
<g id="a_Node000002"><a xlink:href="classzero__mate_1_1peripheral_1_1CARM__Timer.html" target="_top" xlink:title="This class represents the ARM timer used in BCM2835.">
<polygon fill="white" stroke="#666666" points="299,-126 175,-126 175,-96 299,-96 299,-126"/>
<text text-anchor="start" x="183" y="-114" font-family="Helvetica,sans-Serif" font-size="10.00">zero_mate::peripheral</text>
<text text-anchor="middle" x="237" y="-103" font-family="Helvetica,sans-Serif" font-size="10.00">::CARM_Timer</text>
</a>
</g>
</g>
<!-- Node1&#45;&gt;Node2 -->
<g id="edge1_Node000001_Node000002" class="edge">
<title>Node1&#45;&gt;Node2</title>
<g id="a_edge1_Node000001_Node000002"><a xlink:title=" ">
<path fill="none" stroke="#63b8ff" d="M132.31,-80.93C149.42,-85.89 167.8,-91.22 184.27,-96"/>
<polygon fill="#63b8ff" stroke="#63b8ff" points="132.99,-77.48 122.41,-78.06 131.04,-84.2 132.99,-77.48"/>
</a>
</g>
</g>
<!-- Node3 -->
<g id="Node000003" class="node">
<title>Node3</title>
<g id="a_Node000003"><a xlink:href="classzero__mate_1_1peripheral_1_1CAUX.html" target="_top" xlink:title="This class represents the auxiliaries (UART1 &amp; SPI1, and SPI2).">
<polygon fill="white" stroke="#666666" points="299,-78 175,-78 175,-48 299,-48 299,-78"/>
<text text-anchor="start" x="183" y="-66" font-family="Helvetica,sans-Serif" font-size="10.00">zero_mate::peripheral</text>
<text text-anchor="middle" x="237" y="-55" font-family="Helvetica,sans-Serif" font-size="10.00">::CAUX</text>
</a>
</g>
</g>
<!-- Node1&#45;&gt;Node3 -->
<g id="edge2_Node000001_Node000003" class="edge">
<title>Node1&#45;&gt;Node3</title>
<g id="a_edge2_Node000001_Node000003"><a xlink:title=" ">
<path fill="none" stroke="#63b8ff" d="M149.29,-63C157.88,-63 166.53,-63 174.86,-63"/>
<polygon fill="#63b8ff" stroke="#63b8ff" points="149.25,-59.5 139.25,-63 149.25,-66.5 149.25,-59.5"/>
</a>
</g>
</g>
<!-- Node4 -->
<g id="Node000004" class="node">
<title>Node4</title>
<g id="a_Node000004"><a xlink:href="classzero__mate_1_1peripheral_1_1CBSC.html" target="_top" xlink:title="This class represents the BSC peripheral used in BCM2835.">
<polygon fill="white" stroke="#666666" points="299,-30 175,-30 175,0 299,0 299,-30"/>
<text text-anchor="start" x="183" y="-18" font-family="Helvetica,sans-Serif" font-size="10.00">zero_mate::peripheral</text>
<text text-anchor="middle" x="237" y="-7" font-family="Helvetica,sans-Serif" font-size="10.00">::CBSC</text>
</a>
</g>
</g>
<!-- Node1&#45;&gt;Node4 -->
<g id="edge3_Node000001_Node000004" class="edge">
<title>Node1&#45;&gt;Node4</title>
<g id="a_edge3_Node000001_Node000004"><a xlink:title=" ">
<path fill="none" stroke="#63b8ff" d="M132.31,-45.07C149.42,-40.11 167.8,-34.78 184.27,-30"/>
<polygon fill="#63b8ff" stroke="#63b8ff" points="131.04,-41.8 122.41,-47.94 132.99,-48.52 131.04,-41.8"/>
</a>
</g>
</g>
</g>
</svg>
