<?xml version="1.0" encoding="UTF-8" standalone="no"?>
<!DOCTYPE svg PUBLIC "-//W3C//DTD SVG 1.1//EN"
 "http://www.w3.org/Graphics/SVG/1.1/DTD/svg11.dtd">
<!-- Generated by graphviz version 2.43.0 (0)
 -->
<!-- Title: zero_mate::gui::CTop_Bar_Menu::Render Pages: 1 -->
<svg width="1233pt" height="215pt"
 viewBox="0.00 0.00 1233.00 214.64" xmlns="http://www.w3.org/2000/svg" xmlns:xlink="http://www.w3.org/1999/xlink">
<g id="graph0" class="graph" transform="scale(1 1) rotate(0) translate(4 210.64)">
<title>zero_mate::gui::CTop_Bar_Menu::Render</title>
<!-- Node1 -->
<g id="Node000001" class="node">
<title>Node1</title>
<g id="a_Node000001"><a xlink:title="Renders the bar (IGUI_Window interface).">
<polygon fill="#999999" stroke="#666666" points="119,-118.5 0,-118.5 0,-88.5 119,-88.5 119,-118.5"/>
<text text-anchor="start" x="8" y="-106.5" font-family="Helvetica,sans-Serif" font-size="10.00">zero_mate::gui::CTop</text>
<text text-anchor="middle" x="59.5" y="-95.5" font-family="Helvetica,sans-Serif" font-size="10.00">_Bar_Menu::Render</text>
</a>
</g>
</g>
<!-- Node2 -->
<g id="Node000002" class="node">
<title>Node2</title>
<g id="a_Node000002"><a xlink:href="classzero__mate_1_1gui_1_1CTop__Bar__Menu.html#a38a9c7aa06cf280f433a9b9fb8e0d2cb" target="_top" xlink:title="Opens up a file browser.">
<polygon fill="white" stroke="#666666" points="286,-198 161,-198 161,-157 286,-157 286,-198"/>
<text text-anchor="start" x="169" y="-186" font-family="Helvetica,sans-Serif" font-size="10.00">zero_mate::gui::CTop</text>
<text text-anchor="start" x="169" y="-175" font-family="Helvetica,sans-Serif" font-size="10.00">_Bar_Menu::Open_File</text>
<text text-anchor="middle" x="223.5" y="-164" font-family="Helvetica,sans-Serif" font-size="10.00">_Browser</text>
</a>
</g>
</g>
<!-- Node1&#45;&gt;Node2 -->
<g id="edge1_Node000001_Node000002" class="edge">
<title>Node1&#45;&gt;Node2</title>
<g id="a_edge1_Node000001_Node000002"><a xlink:title=" ">
<path fill="none" stroke="#63b8ff" d="M93.67,-118.65C115.1,-128.44 143.48,-141.4 168.14,-152.67"/>
<polygon fill="#63b8ff" stroke="#63b8ff" points="166.84,-155.92 177.39,-156.9 169.75,-149.56 166.84,-155.92"/>
</a>
</g>
</g>
<!-- Node9 -->
<g id="Node000009" class="node">
<title>Node9</title>
<g id="a_Node000009"><a xlink:href="classzero__mate_1_1gui_1_1CTop__Bar__Menu.html#a73157cb5a8ef5d61769403bbd700cfbf" target="_top" xlink:title="Reloads the kernel.">
<polygon fill="white" stroke="#666666" points="476,-143.5 330,-143.5 330,-113.5 476,-113.5 476,-143.5"/>
<text text-anchor="start" x="338" y="-131.5" font-family="Helvetica,sans-Serif" font-size="10.00">zero_mate::gui::CTop</text>
<text text-anchor="middle" x="403" y="-120.5" font-family="Helvetica,sans-Serif" font-size="10.00">_Bar_Menu::Reload_Kernel</text>
</a>
</g>
</g>
<!-- Node1&#45;&gt;Node9 -->
<g id="edge8_Node000001_Node000009" class="edge">
<title>Node1&#45;&gt;Node9</title>
<g id="a_edge8_Node000001_Node000009"><a xlink:title=" ">
<path fill="none" stroke="#63b8ff" d="M119.21,-107.8C174.48,-111.84 257.81,-117.94 319.71,-122.48"/>
<polygon fill="#63b8ff" stroke="#63b8ff" points="319.61,-125.98 329.84,-123.22 320.12,-119 319.61,-125.98"/>
</a>
</g>
</g>
<!-- Node14 -->
<g id="Node000014" class="node">
<title>Node14</title>
<g id="a_Node000014"><a xlink:href="classzero__mate_1_1gui_1_1CTop__Bar__Menu.html#a8dbf5620303332f1ad1b7449793a3621" target="_top" xlink:title="Renders the file browser.">
<polygon fill="white" stroke="#666666" points="290.5,-100 156.5,-100 156.5,-59 290.5,-59 290.5,-100"/>
<text text-anchor="start" x="164.5" y="-88" font-family="Helvetica,sans-Serif" font-size="10.00">zero_mate::gui::CTop</text>
<text text-anchor="start" x="164.5" y="-77" font-family="Helvetica,sans-Serif" font-size="10.00">_Bar_Menu::Render_File</text>
<text text-anchor="middle" x="223.5" y="-66" font-family="Helvetica,sans-Serif" font-size="10.00">_Browser</text>
</a>
</g>
</g>
<!-- Node1&#45;&gt;Node14 -->
<g id="edge17_Node000001_Node000014" class="edge">
<title>Node1&#45;&gt;Node14</title>
<g id="a_edge17_Node000001_Node000014"><a xlink:title=" ">
<path fill="none" stroke="#63b8ff" d="M119.44,-94.77C128.19,-93.47 137.3,-92.12 146.33,-90.78"/>
<polygon fill="#63b8ff" stroke="#63b8ff" points="147.09,-94.21 156.47,-89.28 146.07,-87.29 147.09,-94.21"/>
</a>
</g>
</g>
<!-- Node17 -->
<g id="Node000017" class="node">
<title>Node17</title>
<g id="a_Node000017"><a xlink:href="classzero__mate_1_1gui_1_1CTop__Bar__Menu.html#ae1db9ea2006086f7ea206b3fa98a1af7" target="_top" xlink:title="Shows the about window of the application.">
<polygon fill="white" stroke="#666666" points="292,-41 155,-41 155,0 292,0 292,-41"/>
<text text-anchor="start" x="163" y="-29" font-family="Helvetica,sans-Serif" font-size="10.00">zero_mate::gui::CTop</text>
<text text-anchor="start" x="163" y="-18" font-family="Helvetica,sans-Serif" font-size="10.00">_Bar_Menu::Show_About</text>
<text text-anchor="middle" x="223.5" y="-7" font-family="Helvetica,sans-Serif" font-size="10.00">_Window</text>
</a>
</g>
</g>
<!-- Node1&#45;&gt;Node17 -->
<g id="edge21_Node000001_Node000017" class="edge">
<title>Node1&#45;&gt;Node17</title>
<g id="a_edge21_Node000001_Node000017"><a xlink:title=" ">
<path fill="none" stroke="#63b8ff" d="M85.35,-88.27C104.16,-76.99 130.82,-61.56 155,-49.5 157.76,-48.12 160.61,-46.74 163.5,-45.38"/>
<polygon fill="#63b8ff" stroke="#63b8ff" points="165.19,-48.45 172.81,-41.09 162.26,-42.1 165.19,-48.45"/>
</a>
</g>
</g>
<!-- Node3 -->
<g id="Node000003" class="node">
<title>Node3</title>
<g id="a_Node000003"><a xlink:href="classzero__mate_1_1utils_1_1CLogging__System.html#a57ed77e1a5cf822cea532cc5e05c3f60" target="_top" xlink:title="Logs an error message via all registered loggers.">
<polygon fill="white" stroke="#666666" points="841,-192.5 695,-192.5 695,-162.5 841,-162.5 841,-192.5"/>
<text text-anchor="start" x="703" y="-180.5" font-family="Helvetica,sans-Serif" font-size="10.00">zero_mate::utils::CLogging</text>
<text text-anchor="middle" x="768" y="-169.5" font-family="Helvetica,sans-Serif" font-size="10.00">_System::Error</text>
</a>
</g>
</g>
<!-- Node2&#45;&gt;Node3 -->
<g id="edge2_Node000002_Node000003" class="edge">
<title>Node2&#45;&gt;Node3</title>
<g id="a_edge2_Node000002_Node000003"><a xlink:title=" ">
<path fill="none" stroke="#63b8ff" d="M286.25,-193.53C299.91,-196.43 314.37,-199 328,-200.5 452,-214.11 596.62,-200.97 684.98,-189.68"/>
<polygon fill="#63b8ff" stroke="#63b8ff" points="685.47,-193.15 694.94,-188.39 684.57,-186.21 685.47,-193.15"/>
</a>
</g>
</g>
<!-- Node8 -->
<g id="Node000008" class="node">
<title>Node8</title>
<g id="a_Node000008"><a xlink:href="namespacezero__mate_1_1utils_1_1prefs.html#a90e2d88053506bc404316b1770c74932" target="_top" xlink:title="Retrieves a given application preference; always returns a string, which can be converted to the desi...">
<polygon fill="white" stroke="#666666" points="466,-191.5 340,-191.5 340,-161.5 466,-161.5 466,-191.5"/>
<text text-anchor="start" x="348" y="-179.5" font-family="Helvetica,sans-Serif" font-size="10.00">zero_mate::utils::prefs</text>
<text text-anchor="middle" x="403" y="-168.5" font-family="Helvetica,sans-Serif" font-size="10.00">::Get_Preference</text>
</a>
</g>
</g>
<!-- Node2&#45;&gt;Node8 -->
<g id="edge7_Node000002_Node000008" class="edge">
<title>Node2&#45;&gt;Node8</title>
<g id="a_edge7_Node000002_Node000008"><a xlink:title=" ">
<path fill="none" stroke="#63b8ff" d="M286.08,-177.15C300.1,-177.07 315.12,-176.99 329.55,-176.91"/>
<polygon fill="#63b8ff" stroke="#63b8ff" points="329.94,-180.41 339.92,-176.85 329.91,-173.41 329.94,-180.41"/>
</a>
</g>
</g>
<!-- Node4 -->
<g id="Node000004" class="node">
<title>Node4</title>
<g id="a_Node000004"><a xlink:href="classzero__mate_1_1utils_1_1CLogging__System.html#a71ed11c796553cbe8fd99773406a1060" target="_top" xlink:title="Creates a formatted message to be logged.">
<polygon fill="white" stroke="#666666" points="1029,-175 877,-175 877,-134 1029,-134 1029,-175"/>
<text text-anchor="start" x="885" y="-163" font-family="Helvetica,sans-Serif" font-size="10.00">zero_mate::utils::CLogging</text>
<text text-anchor="start" x="885" y="-152" font-family="Helvetica,sans-Serif" font-size="10.00">_System::Create_Formatted</text>
<text text-anchor="middle" x="953" y="-141" font-family="Helvetica,sans-Serif" font-size="10.00">_Log_Msg</text>
</a>
</g>
</g>
<!-- Node3&#45;&gt;Node4 -->
<g id="edge3_Node000003_Node000004" class="edge">
<title>Node3&#45;&gt;Node4</title>
<g id="a_edge3_Node000003_Node000004"><a xlink:title=" ">
<path fill="none" stroke="#63b8ff" d="M841.06,-168.44C849.55,-167.38 858.26,-166.28 866.9,-165.2"/>
<polygon fill="#63b8ff" stroke="#63b8ff" points="867.51,-168.65 876.99,-163.93 866.63,-161.7 867.51,-168.65"/>
</a>
</g>
</g>
<!-- Node7 -->
<g id="Node000007" class="node">
<title>Node7</title>
<g id="a_Node000007"><a xlink:href="classzero__mate_1_1utils_1_1CLogging__System.html#ad371c67ef65763966ccf9291002e86f3" target="_top" xlink:title="Extract the filename from a given location within the source files.">
<polygon fill="white" stroke="#666666" points="1027.5,-93.5 878.5,-93.5 878.5,-63.5 1027.5,-63.5 1027.5,-93.5"/>
<text text-anchor="start" x="886.5" y="-81.5" font-family="Helvetica,sans-Serif" font-size="10.00">zero_mate::utils::CLogging</text>
<text text-anchor="middle" x="953" y="-70.5" font-family="Helvetica,sans-Serif" font-size="10.00">_System::Extract_Filename</text>
</a>
</g>
</g>
<!-- Node3&#45;&gt;Node7 -->
<g id="edge6_Node000003_Node000007" class="edge">
<title>Node3&#45;&gt;Node7</title>
<g id="a_edge6_Node000003_Node000007"><a xlink:title=" ">
<path fill="none" stroke="#63b8ff" d="M821.4,-162.38C828.15,-159.75 834.84,-156.8 841,-153.5 858.87,-143.94 860.39,-137.12 877,-125.5 890.09,-116.34 904.93,-106.87 917.93,-98.84"/>
<polygon fill="#63b8ff" stroke="#63b8ff" points="919.88,-101.75 926.59,-93.54 916.23,-95.78 919.88,-101.75"/>
</a>
</g>
</g>
<!-- Node5 -->
<g id="Node000005" class="node">
<title>Node5</title>
<g id="a_Node000005"><a xlink:href="classzero__mate_1_1utils_1_1CLogging__System.html#aa70c102c805079042ffea2a6f2a5ad64" target="_top" xlink:title="Formats a given timestamp.">
<polygon fill="white" stroke="#666666" points="1225,-193.5 1065,-193.5 1065,-163.5 1225,-163.5 1225,-193.5"/>
<text text-anchor="start" x="1073" y="-181.5" font-family="Helvetica,sans-Serif" font-size="10.00">zero_mate::utils::CLogging</text>
<text text-anchor="middle" x="1145" y="-170.5" font-family="Helvetica,sans-Serif" font-size="10.00">_System::Format_Timestamp</text>
</a>
</g>
</g>
<!-- Node4&#45;&gt;Node5 -->
<g id="edge4_Node000004_Node000005" class="edge">
<title>Node4&#45;&gt;Node5</title>
<g id="a_edge4_Node000004_Node000005"><a xlink:title=" ">
<path fill="none" stroke="#63b8ff" d="M1029.09,-163.99C1037.52,-165.05 1046.16,-166.14 1054.74,-167.23"/>
<polygon fill="#63b8ff" stroke="#63b8ff" points="1054.41,-170.71 1064.77,-168.49 1055.29,-163.77 1054.41,-170.71"/>
</a>
</g>
</g>
<!-- Node6 -->
<g id="Node000006" class="node">
<title>Node6</title>
<g id="a_Node000006"><a xlink:href="classzero__mate_1_1utils_1_1CLogging__System.html#ae3ca637537dde05e0b9119145c840331" target="_top" xlink:title="Returns the current timestamp that will be used in a log message.">
<polygon fill="white" stroke="#666666" points="1218,-145.5 1072,-145.5 1072,-115.5 1218,-115.5 1218,-145.5"/>
<text text-anchor="start" x="1080" y="-133.5" font-family="Helvetica,sans-Serif" font-size="10.00">zero_mate::utils::CLogging</text>
<text text-anchor="middle" x="1145" y="-122.5" font-family="Helvetica,sans-Serif" font-size="10.00">_System::Get_Timestamp</text>
</a>
</g>
</g>
<!-- Node4&#45;&gt;Node6 -->
<g id="edge5_Node000004_Node000006" class="edge">
<title>Node4&#45;&gt;Node6</title>
<g id="a_edge5_Node000004_Node000006"><a xlink:title=" ">
<path fill="none" stroke="#63b8ff" d="M1029.09,-145.01C1039.89,-143.65 1051.05,-142.24 1061.98,-140.86"/>
<polygon fill="#63b8ff" stroke="#63b8ff" points="1062.45,-144.33 1071.93,-139.6 1061.57,-137.38 1062.45,-144.33"/>
</a>
</g>
</g>
<!-- Node9&#45;&gt;Node3 -->
<g id="edge9_Node000009_Node000003" class="edge">
<title>Node9&#45;&gt;Node3</title>
<g id="a_edge9_Node000009_Node000003"><a xlink:title=" ">
<path fill="none" stroke="#63b8ff" d="M476.15,-138.24C536.28,-146.36 621.93,-157.92 684.72,-166.39"/>
<polygon fill="#63b8ff" stroke="#63b8ff" points="684.61,-169.91 694.99,-167.78 685.54,-162.97 684.61,-169.91"/>
</a>
</g>
</g>
<!-- Node10 -->
<g id="Node000010" class="node">
<title>Node10</title>
<g id="a_Node000010"><a xlink:href="classzero__mate_1_1gui_1_1CTop__Bar__Menu.html#af8e80293dff0c20be7ea071d50dec62c" target="_top" xlink:title="Loads a single ELF file.">
<polygon fill="white" stroke="#666666" points="659,-120.5 514,-120.5 514,-90.5 659,-90.5 659,-120.5"/>
<text text-anchor="start" x="522" y="-108.5" font-family="Helvetica,sans-Serif" font-size="10.00">zero_mate::gui::CTop</text>
<text text-anchor="middle" x="586.5" y="-97.5" font-family="Helvetica,sans-Serif" font-size="10.00">_Bar_Menu::Load_ELF_File</text>
</a>
</g>
</g>
<!-- Node9&#45;&gt;Node10 -->
<g id="edge10_Node000009_Node000010" class="edge">
<title>Node9&#45;&gt;Node10</title>
<g id="a_edge10_Node000009_Node000010"><a xlink:title=" ">
<path fill="none" stroke="#63b8ff" d="M476.26,-119.34C485.33,-118.19 494.66,-117.01 503.87,-115.84"/>
<polygon fill="#63b8ff" stroke="#63b8ff" points="504.31,-119.32 513.79,-114.59 503.43,-112.37 504.31,-119.32"/>
</a>
</g>
</g>
<!-- Node10&#45;&gt;Node3 -->
<g id="edge11_Node000010_Node000003" class="edge">
<title>Node10&#45;&gt;Node3</title>
<g id="a_edge11_Node000010_Node000003"><a xlink:title=" ">
<path fill="none" stroke="#63b8ff" d="M622.88,-120.57C634.43,-125.56 647.29,-131.2 659,-136.5 675.12,-143.8 678.58,-146.91 695,-153.5 699.69,-155.38 704.6,-157.24 709.55,-159.04"/>
<polygon fill="#63b8ff" stroke="#63b8ff" points="708.48,-162.37 719.07,-162.41 710.82,-155.77 708.48,-162.37"/>
</a>
</g>
</g>
<!-- Node11 -->
<g id="Node000011" class="node">
<title>Node11</title>
<g id="a_Node000011"><a xlink:href="classzero__mate_1_1gui_1_1CTop__Bar__Menu.html#a9374e039e857fa2f4d1e65f7edcd707f" target="_top" xlink:title="Returns a filename of a given filepath.">
<polygon fill="white" stroke="#666666" points="840,-144.5 696,-144.5 696,-114.5 840,-114.5 840,-144.5"/>
<text text-anchor="start" x="704" y="-132.5" font-family="Helvetica,sans-Serif" font-size="10.00">zero_mate::gui::CTop</text>
<text text-anchor="middle" x="768" y="-121.5" font-family="Helvetica,sans-Serif" font-size="10.00">_Bar_Menu::Get_Filename</text>
</a>
</g>
</g>
<!-- Node10&#45;&gt;Node11 -->
<g id="edge12_Node000010_Node000011" class="edge">
<title>Node10&#45;&gt;Node11</title>
<g id="a_edge12_Node000010_Node000011"><a xlink:title=" ">
<path fill="none" stroke="#63b8ff" d="M659.22,-115.09C668.01,-116.27 677.05,-117.47 685.98,-118.67"/>
<polygon fill="#63b8ff" stroke="#63b8ff" points="685.61,-122.15 695.98,-120 686.53,-115.21 685.61,-122.15"/>
</a>
</g>
</g>
<!-- Node12 -->
<g id="Node000012" class="node">
<title>Node12</title>
<g id="a_Node000012"><a xlink:href="classzero__mate_1_1utils_1_1CLogging__System.html#a455d99c3614dc92ffbdbdcdb6b8b8bb8" target="_top" xlink:title="Logs an info message via all registered loggers.">
<polygon fill="white" stroke="#666666" points="841,-48.5 695,-48.5 695,-18.5 841,-18.5 841,-48.5"/>
<text text-anchor="start" x="703" y="-36.5" font-family="Helvetica,sans-Serif" font-size="10.00">zero_mate::utils::CLogging</text>
<text text-anchor="middle" x="768" y="-25.5" font-family="Helvetica,sans-Serif" font-size="10.00">_System::Info</text>
</a>
</g>
</g>
<!-- Node10&#45;&gt;Node12 -->
<g id="edge13_Node000010_Node000012" class="edge">
<title>Node10&#45;&gt;Node12</title>
<g id="a_edge13_Node000010_Node000012"><a xlink:title=" ">
<path fill="none" stroke="#63b8ff" d="M619.14,-90.39C640.37,-80.49 669.09,-67.57 695,-57.5 699.79,-55.64 704.79,-53.79 709.83,-51.98"/>
<polygon fill="#63b8ff" stroke="#63b8ff" points="711.23,-55.2 719.51,-48.59 708.92,-48.59 711.23,-55.2"/>
</a>
</g>
</g>
<!-- Node13 -->
<g id="Node000013" class="node">
<title>Node13</title>
<g id="a_Node000013"><a xlink:href="namespacezero__mate_1_1utils_1_1elf.html#a9f6c82c3b8cd3f725d004c7b9022d69a" target="_top" xlink:title="Loads a given ELF file (kernel) into the memory.">
<polygon fill="white" stroke="#666666" points="825,-96.5 711,-96.5 711,-66.5 825,-66.5 825,-96.5"/>
<text text-anchor="start" x="719" y="-84.5" font-family="Helvetica,sans-Serif" font-size="10.00">zero_mate::utils::elf</text>
<text text-anchor="middle" x="768" y="-73.5" font-family="Helvetica,sans-Serif" font-size="10.00">::Load_ELF</text>
</a>
</g>
</g>
<!-- Node10&#45;&gt;Node13 -->
<g id="edge16_Node000010_Node000013" class="edge">
<title>Node10&#45;&gt;Node13</title>
<g id="a_edge16_Node000010_Node000013"><a xlink:title=" ">
<path fill="none" stroke="#63b8ff" d="M659.22,-95.91C672.91,-94.08 687.19,-92.17 700.71,-90.36"/>
<polygon fill="#63b8ff" stroke="#63b8ff" points="701.43,-93.8 710.87,-89 700.5,-86.86 701.43,-93.8"/>
</a>
</g>
</g>
<!-- Node12&#45;&gt;Node4 -->
<g id="edge14_Node000012_Node000004" class="edge">
<title>Node12&#45;&gt;Node4</title>
<g id="a_edge14_Node000012_Node000004"><a xlink:title=" ">
<path fill="none" stroke="#63b8ff" d="M825.2,-48.62C830.76,-51.17 836.14,-54.11 841,-57.5 862.01,-72.15 858.28,-85.02 877,-102.5 886.87,-111.72 898.49,-120.57 909.59,-128.27"/>
<polygon fill="#63b8ff" stroke="#63b8ff" points="907.7,-131.21 917.95,-133.92 911.63,-125.42 907.7,-131.21"/>
</a>
</g>
</g>
<!-- Node12&#45;&gt;Node7 -->
<g id="edge15_Node000012_Node000007" class="edge">
<title>Node12&#45;&gt;Node7</title>
<g id="a_edge15_Node000012_Node000007"><a xlink:title=" ">
<path fill="none" stroke="#63b8ff" d="M830.19,-48.55C846.52,-52.56 864.3,-56.93 881.1,-61.07"/>
<polygon fill="#63b8ff" stroke="#63b8ff" points="880.32,-64.48 890.87,-63.47 881.99,-57.68 880.32,-64.48"/>
</a>
</g>
</g>
<!-- Node15 -->
<g id="Node000015" class="node">
<title>Node15</title>
<g id="a_Node000015"><a xlink:href="classzero__mate_1_1gui_1_1CTop__Bar__Menu.html#a7fee26ed69f7536b8396d3fe2f97c5e4" target="_top" xlink:title="Loads ELF files selected by the user using the file browser.">
<polygon fill="white" stroke="#666666" points="478,-95.5 328,-95.5 328,-65.5 478,-65.5 478,-95.5"/>
<text text-anchor="start" x="336" y="-83.5" font-family="Helvetica,sans-Serif" font-size="10.00">zero_mate::gui::CTop</text>
<text text-anchor="middle" x="403" y="-72.5" font-family="Helvetica,sans-Serif" font-size="10.00">_Bar_Menu::Load_ELF_Files</text>
</a>
</g>
</g>
<!-- Node14&#45;&gt;Node15 -->
<g id="edge18_Node000014_Node000015" class="edge">
<title>Node14&#45;&gt;Node15</title>
<g id="a_edge18_Node000014_Node000015"><a xlink:title=" ">
<path fill="none" stroke="#63b8ff" d="M290.59,-79.87C299.4,-79.92 308.53,-79.97 317.6,-80.02"/>
<polygon fill="#63b8ff" stroke="#63b8ff" points="317.77,-83.53 327.79,-80.08 317.81,-76.53 317.77,-83.53"/>
</a>
</g>
</g>
<!-- Node16 -->
<g id="Node000016" class="node">
<title>Node16</title>
<g id="a_Node000016"><a xlink:href="namespacezero__mate_1_1utils_1_1prefs.html#a386ecc705e26c03fab40bbdcc2716a3d" target="_top" xlink:title="Sets a given application preference.">
<polygon fill="white" stroke="#666666" points="466,-47.5 340,-47.5 340,-17.5 466,-17.5 466,-47.5"/>
<text text-anchor="start" x="348" y="-35.5" font-family="Helvetica,sans-Serif" font-size="10.00">zero_mate::utils::prefs</text>
<text text-anchor="middle" x="403" y="-24.5" font-family="Helvetica,sans-Serif" font-size="10.00">::Set_Preference</text>
</a>
</g>
</g>
<!-- Node14&#45;&gt;Node16 -->
<g id="edge20_Node000014_Node000016" class="edge">
<title>Node14&#45;&gt;Node16</title>
<g id="a_edge20_Node000014_Node000016"><a xlink:title=" ">
<path fill="none" stroke="#63b8ff" d="M290.59,-62C305.17,-58.14 320.62,-54.05 335.22,-50.18"/>
<polygon fill="#63b8ff" stroke="#63b8ff" points="336.4,-53.49 345.17,-47.55 334.61,-46.72 336.4,-53.49"/>
</a>
</g>
</g>
<!-- Node15&#45;&gt;Node10 -->
<g id="edge19_Node000015_Node000010" class="edge">
<title>Node15&#45;&gt;Node10</title>
<g id="a_edge19_Node000015_Node000010"><a xlink:title=" ">
<path fill="none" stroke="#63b8ff" d="M478.08,-90.7C486.61,-91.88 495.34,-93.08 503.95,-94.27"/>
<polygon fill="#63b8ff" stroke="#63b8ff" points="503.61,-97.75 514,-95.65 504.57,-90.82 503.61,-97.75"/>
</a>
</g>
</g>
</g>
</svg>
