<?xml version="1.0" encoding="UTF-8" standalone="no"?>
<!DOCTYPE svg PUBLIC "-//W3C//DTD SVG 1.1//EN"
 "http://www.w3.org/Graphics/SVG/1.1/DTD/svg11.dtd">
<!-- Generated by graphviz version 2.43.0 (0)
 -->
<!-- Title: zero_mate::peripheral::CMini_UART::Update Pages: 1 -->
<svg width="1442pt" height="580pt"
 viewBox="0.00 0.00 1442.00 580.00" xmlns="http://www.w3.org/2000/svg" xmlns:xlink="http://www.w3.org/1999/xlink">
<g id="graph0" class="graph" transform="scale(1 1) rotate(0) translate(4 576)">
<title>zero_mate::peripheral::CMini_UART::Update</title>
<!-- Node1 -->
<g id="Node000001" class="node">
<title>Node1</title>
<g id="a_Node000001"><a xlink:title="Updates the state machines (transmission/reception).">
<polygon fill="#999999" stroke="#666666" points="124,-448.5 0,-448.5 0,-418.5 124,-418.5 124,-448.5"/>
<text text-anchor="start" x="8" y="-436.5" font-family="Helvetica,sans-Serif" font-size="10.00">zero_mate::peripheral</text>
<text text-anchor="middle" x="62" y="-425.5" font-family="Helvetica,sans-Serif" font-size="10.00">::CMini_UART::Update</text>
</a>
</g>
</g>
<!-- Node2 -->
<g id="Node000002" class="node">
<title>Node2</title>
<g id="a_Node000002"><a xlink:href="classzero__mate_1_1peripheral_1_1CAUX.html#ac1f5c58dd33c9d094f56da234d812ca0" target="_top" xlink:title="Returns information about whether an auxiliary peripheral is enabled or not.">
<polygon fill="white" stroke="#666666" points="292.5,-496.5 168.5,-496.5 168.5,-466.5 292.5,-466.5 292.5,-496.5"/>
<text text-anchor="start" x="176.5" y="-484.5" font-family="Helvetica,sans-Serif" font-size="10.00">zero_mate::peripheral</text>
<text text-anchor="middle" x="230.5" y="-473.5" font-family="Helvetica,sans-Serif" font-size="10.00">::CAUX::Is_Enabled</text>
</a>
</g>
</g>
<!-- Node1&#45;&gt;Node2 -->
<g id="edge1_Node000001_Node000002" class="edge">
<title>Node1&#45;&gt;Node2</title>
<g id="a_edge1_Node000001_Node000002"><a xlink:title=" ">
<path fill="none" stroke="#63b8ff" d="M115.22,-448.56C131.81,-453.34 150.31,-458.67 167.51,-463.63"/>
<polygon fill="#63b8ff" stroke="#63b8ff" points="166.88,-467.09 177.46,-466.5 168.82,-460.36 166.88,-467.09"/>
</a>
</g>
</g>
<!-- Node3 -->
<g id="Node000003" class="node">
<title>Node3</title>
<g id="a_Node000003"><a xlink:href="classzero__mate_1_1peripheral_1_1CMini__UART.html#a6b04378225c55c43c00805cb5bdb99b3" target="_top" xlink:title="Updates the reception state machines.">
<polygon fill="white" stroke="#666666" points="301,-448.5 160,-448.5 160,-418.5 301,-418.5 301,-448.5"/>
<text text-anchor="start" x="168" y="-436.5" font-family="Helvetica,sans-Serif" font-size="10.00">zero_mate::peripheral</text>
<text text-anchor="middle" x="230.5" y="-425.5" font-family="Helvetica,sans-Serif" font-size="10.00">::CMini_UART::Update_RX</text>
</a>
</g>
</g>
<!-- Node1&#45;&gt;Node3 -->
<g id="edge2_Node000001_Node000003" class="edge">
<title>Node1&#45;&gt;Node3</title>
<g id="a_edge2_Node000001_Node000003"><a xlink:title=" ">
<path fill="none" stroke="#63b8ff" d="M124.05,-433.5C132.39,-433.5 141.05,-433.5 149.66,-433.5"/>
<polygon fill="#63b8ff" stroke="#63b8ff" points="149.72,-437 159.72,-433.5 149.72,-430 149.72,-437"/>
</a>
</g>
</g>
<!-- Node18 -->
<g id="Node000018" class="node">
<title>Node18</title>
<g id="a_Node000018"><a xlink:href="classzero__mate_1_1peripheral_1_1CMini__UART.html#a39f26f9ac5a5cb08b2a292f5c6fab6db" target="_top" xlink:title="Updates the transmission state machine.">
<polygon fill="white" stroke="#666666" points="300.5,-212.5 160.5,-212.5 160.5,-182.5 300.5,-182.5 300.5,-212.5"/>
<text text-anchor="start" x="168.5" y="-200.5" font-family="Helvetica,sans-Serif" font-size="10.00">zero_mate::peripheral</text>
<text text-anchor="middle" x="230.5" y="-189.5" font-family="Helvetica,sans-Serif" font-size="10.00">::CMini_UART::Update_TX</text>
</a>
</g>
</g>
<!-- Node1&#45;&gt;Node18 -->
<g id="edge17_Node000001_Node000018" class="edge">
<title>Node1&#45;&gt;Node18</title>
<g id="a_edge17_Node000001_Node000018"><a xlink:title=" ">
<path fill="none" stroke="#63b8ff" d="M73.67,-418.38C101.91,-378.35 178.79,-269.38 212.86,-221.08"/>
<polygon fill="#63b8ff" stroke="#63b8ff" points="215.8,-222.99 218.7,-212.8 210.08,-218.95 215.8,-222.99"/>
</a>
</g>
</g>
<!-- Node4 -->
<g id="Node000004" class="node">
<title>Node4</title>
<g id="a_Node000004"><a xlink:href="classzero__mate_1_1peripheral_1_1CMini__UART.html#a2a71009ed1f6227341dad8926bd73d81" target="_top" xlink:title="Returns information about whether the receiver is enabled or not.">
<polygon fill="white" stroke="#666666" points="490.5,-513 347.5,-513 347.5,-472 490.5,-472 490.5,-513"/>
<text text-anchor="start" x="355.5" y="-501" font-family="Helvetica,sans-Serif" font-size="10.00">zero_mate::peripheral</text>
<text text-anchor="start" x="355.5" y="-490" font-family="Helvetica,sans-Serif" font-size="10.00">::CMini_UART::Is_Receiver</text>
<text text-anchor="middle" x="419" y="-479" font-family="Helvetica,sans-Serif" font-size="10.00">_Enabled</text>
</a>
</g>
</g>
<!-- Node3&#45;&gt;Node4 -->
<g id="edge3_Node000003_Node000004" class="edge">
<title>Node3&#45;&gt;Node4</title>
<g id="a_edge3_Node000003_Node000004"><a xlink:title=" ">
<path fill="none" stroke="#63b8ff" d="M279.04,-448.54C298.51,-454.7 321.51,-461.97 343.13,-468.81"/>
<polygon fill="#63b8ff" stroke="#63b8ff" points="342.36,-472.24 352.95,-471.92 344.47,-465.57 342.36,-472.24"/>
</a>
</g>
</g>
<!-- Node5 -->
<g id="Node000005" class="node">
<title>Node5</title>
<g id="a_Node000005"><a xlink:href="classzero__mate_1_1peripheral_1_1CMini__UART.html#a50ba19a573540915346f49f559f8d595" target="_top" xlink:title="Receives another bit of the current payload (actual data).">
<polygon fill="white" stroke="#666666" points="498,-336 340,-336 340,-295 498,-295 498,-336"/>
<text text-anchor="start" x="348" y="-324" font-family="Helvetica,sans-Serif" font-size="10.00">zero_mate::peripheral</text>
<text text-anchor="start" x="348" y="-313" font-family="Helvetica,sans-Serif" font-size="10.00">::CMini_UART::UART_Receive</text>
<text text-anchor="middle" x="419" y="-302" font-family="Helvetica,sans-Serif" font-size="10.00">_Payload</text>
</a>
</g>
</g>
<!-- Node3&#45;&gt;Node5 -->
<g id="edge4_Node000003_Node000005" class="edge">
<title>Node3&#45;&gt;Node5</title>
<g id="a_edge4_Node000003_Node000005"><a xlink:title=" ">
<path fill="none" stroke="#63b8ff" d="M246.32,-418.27C265.67,-399.1 301.29,-366.18 337,-345.5 340.01,-343.76 343.14,-342.08 346.35,-340.48"/>
<polygon fill="#63b8ff" stroke="#63b8ff" points="347.97,-343.58 355.53,-336.15 344.99,-337.25 347.97,-343.58"/>
</a>
</g>
</g>
<!-- Node8 -->
<g id="Node000008" class="node">
<title>Node8</title>
<g id="a_Node000008"><a xlink:href="classzero__mate_1_1peripheral_1_1CMini__UART.html#a5c52c4391c9796abe9e33d0b672af4e0" target="_top" xlink:title="Receives a start bit.">
<polygon fill="white" stroke="#666666" points="498,-572 340,-572 340,-531 498,-531 498,-572"/>
<text text-anchor="start" x="348" y="-560" font-family="Helvetica,sans-Serif" font-size="10.00">zero_mate::peripheral</text>
<text text-anchor="start" x="348" y="-549" font-family="Helvetica,sans-Serif" font-size="10.00">::CMini_UART::UART_Receive</text>
<text text-anchor="middle" x="419" y="-538" font-family="Helvetica,sans-Serif" font-size="10.00">_Start_Bit</text>
</a>
</g>
</g>
<!-- Node3&#45;&gt;Node8 -->
<g id="edge7_Node000003_Node000008" class="edge">
<title>Node3&#45;&gt;Node8</title>
<g id="a_edge7_Node000003_Node000008"><a xlink:title=" ">
<path fill="none" stroke="#63b8ff" d="M287.4,-448.54C292.27,-451.09 296.9,-454.05 301,-457.5 326.28,-478.74 311.84,-501.11 337,-522.5 338.14,-523.47 339.31,-524.4 340.51,-525.31"/>
<polygon fill="#63b8ff" stroke="#63b8ff" points="338.58,-528.23 348.85,-530.86 342.46,-522.4 338.58,-528.23"/>
</a>
</g>
</g>
<!-- Node9 -->
<g id="Node000009" class="node">
<title>Node9</title>
<g id="a_Node000009"><a xlink:href="classzero__mate_1_1peripheral_1_1CMini__UART.html#af0ac73a2cea4c4fb61673803f60cf9e6" target="_top" xlink:title="Receives a stop bit.">
<polygon fill="white" stroke="#666666" points="498,-454 340,-454 340,-413 498,-413 498,-454"/>
<text text-anchor="start" x="348" y="-442" font-family="Helvetica,sans-Serif" font-size="10.00">zero_mate::peripheral</text>
<text text-anchor="start" x="348" y="-431" font-family="Helvetica,sans-Serif" font-size="10.00">::CMini_UART::UART_Receive</text>
<text text-anchor="middle" x="419" y="-420" font-family="Helvetica,sans-Serif" font-size="10.00">_Stop_Bit</text>
</a>
</g>
</g>
<!-- Node3&#45;&gt;Node9 -->
<g id="edge8_Node000003_Node000009" class="edge">
<title>Node3&#45;&gt;Node9</title>
<g id="a_edge8_Node000003_Node000009"><a xlink:title=" ">
<path fill="none" stroke="#63b8ff" d="M301.21,-433.5C310.48,-433.5 320.08,-433.5 329.62,-433.5"/>
<polygon fill="#63b8ff" stroke="#63b8ff" points="329.92,-437 339.92,-433.5 329.92,-430 329.92,-437"/>
</a>
</g>
</g>
<!-- Node6 -->
<g id="Node000006" class="node">
<title>Node6</title>
<g id="a_Node000006"><a xlink:href="classzero__mate_1_1peripheral_1_1CMini__UART.html#a2f29b39f721b4ae5acf81f61ab210325" target="_top" xlink:title="Returns the length of payload (7 or 8 bits).">
<polygon fill="white" stroke="#666666" points="674.5,-275 542.5,-275 542.5,-234 674.5,-234 674.5,-275"/>
<text text-anchor="start" x="550.5" y="-263" font-family="Helvetica,sans-Serif" font-size="10.00">zero_mate::peripheral</text>
<text text-anchor="start" x="550.5" y="-252" font-family="Helvetica,sans-Serif" font-size="10.00">::CMini_UART::Get_Char</text>
<text text-anchor="middle" x="608.5" y="-241" font-family="Helvetica,sans-Serif" font-size="10.00">_Length</text>
</a>
</g>
</g>
<!-- Node5&#45;&gt;Node6 -->
<g id="edge5_Node000005_Node000006" class="edge">
<title>Node5&#45;&gt;Node6</title>
<g id="a_edge5_Node000005_Node000006"><a xlink:title=" ">
<path fill="none" stroke="#63b8ff" d="M483.22,-294.93C499.66,-289.58 517.51,-283.78 534.41,-278.28"/>
<polygon fill="#63b8ff" stroke="#63b8ff" points="535.81,-281.5 544.24,-275.08 533.65,-274.85 535.81,-281.5"/>
</a>
</g>
</g>
<!-- Node7 -->
<g id="Node000007" class="node">
<title>Node7</title>
<g id="a_Node000007"><a xlink:href="classzero__mate_1_1peripheral_1_1CMini__UART.html#a4e01dd26b71c9c13ec8a81510cbf2450" target="_top" xlink:title="Returns the data length from a given enumeration.">
<polygon fill="white" stroke="#666666" points="674.5,-334 542.5,-334 542.5,-293 674.5,-293 674.5,-334"/>
<text text-anchor="start" x="550.5" y="-322" font-family="Helvetica,sans-Serif" font-size="10.00">zero_mate::peripheral</text>
<text text-anchor="start" x="550.5" y="-311" font-family="Helvetica,sans-Serif" font-size="10.00">::CMini_UART::Get_Char</text>
<text text-anchor="middle" x="608.5" y="-300" font-family="Helvetica,sans-Serif" font-size="10.00">_Length_Value</text>
</a>
</g>
</g>
<!-- Node5&#45;&gt;Node7 -->
<g id="edge6_Node000005_Node000007" class="edge">
<title>Node5&#45;&gt;Node7</title>
<g id="a_edge6_Node000005_Node000007"><a xlink:title=" ">
<path fill="none" stroke="#63b8ff" d="M498.16,-314.67C509.39,-314.55 520.93,-314.42 532.11,-314.3"/>
<polygon fill="#63b8ff" stroke="#63b8ff" points="532.29,-317.8 542.25,-314.2 532.21,-310.8 532.29,-317.8"/>
</a>
</g>
</g>
<!-- Node10 -->
<g id="Node000010" class="node">
<title>Node10</title>
<g id="a_Node000010"><a xlink:href="classzero__mate_1_1utils_1_1CLogging__System.html#a57ed77e1a5cf822cea532cc5e05c3f60" target="_top" xlink:title="Logs an error message via all registered loggers.">
<polygon fill="white" stroke="#666666" points="1050,-349.5 904,-349.5 904,-319.5 1050,-319.5 1050,-349.5"/>
<text text-anchor="start" x="912" y="-337.5" font-family="Helvetica,sans-Serif" font-size="10.00">zero_mate::utils::CLogging</text>
<text text-anchor="middle" x="977" y="-326.5" font-family="Helvetica,sans-Serif" font-size="10.00">_System::Error</text>
</a>
</g>
</g>
<!-- Node9&#45;&gt;Node10 -->
<g id="edge9_Node000009_Node000010" class="edge">
<title>Node9&#45;&gt;Node10</title>
<g id="a_edge9_Node000009_Node000010"><a xlink:title=" ">
<path fill="none" stroke="#63b8ff" d="M489.44,-454.05C580.55,-477.12 743.47,-504.71 868,-450.5 910.84,-431.85 944.37,-386.91 962.08,-358.75"/>
<polygon fill="#63b8ff" stroke="#63b8ff" points="965.26,-360.27 967.48,-349.91 959.28,-356.63 965.26,-360.27"/>
</a>
</g>
</g>
<!-- Node15 -->
<g id="Node000015" class="node">
<title>Node15</title>
<g id="a_Node000015"><a xlink:href="classzero__mate_1_1peripheral_1_1CMini__UART.html#aafdd369ea20fb588fdba59b98e20b3b8" target="_top" xlink:title="Returns information about a receive interrupt is enabled.">
<polygon fill="white" stroke="#666666" points="678.5,-539 538.5,-539 538.5,-498 678.5,-498 678.5,-539"/>
<text text-anchor="start" x="546.5" y="-527" font-family="Helvetica,sans-Serif" font-size="10.00">zero_mate::peripheral</text>
<text text-anchor="start" x="546.5" y="-516" font-family="Helvetica,sans-Serif" font-size="10.00">::CMini_UART::Is_Receive</text>
<text text-anchor="middle" x="608.5" y="-505" font-family="Helvetica,sans-Serif" font-size="10.00">_Interrupt_Enabled</text>
</a>
</g>
</g>
<!-- Node9&#45;&gt;Node15 -->
<g id="edge14_Node000009_Node000015" class="edge">
<title>Node9&#45;&gt;Node15</title>
<g id="a_edge14_Node000009_Node000015"><a xlink:title=" ">
<path fill="none" stroke="#63b8ff" d="M478.83,-454.08C486.37,-457.07 493.91,-460.24 501,-463.5 517.63,-471.15 520.8,-474.98 537,-483.5 543.1,-486.7 549.52,-490 555.91,-493.23"/>
<polygon fill="#63b8ff" stroke="#63b8ff" points="554.71,-496.54 565.21,-497.9 557.85,-490.29 554.71,-496.54"/>
</a>
</g>
</g>
<!-- Node16 -->
<g id="Node000016" class="node">
<title>Node16</title>
<g id="a_Node000016"><a xlink:href="classzero__mate_1_1peripheral_1_1CMini__UART.html#a8711d81118c89d5174a68d5b63ad3fac" target="_top" xlink:title="Triggers an interrupt.">
<polygon fill="white" stroke="#666666" points="680,-441.5 537,-441.5 537,-411.5 680,-411.5 680,-441.5"/>
<text text-anchor="start" x="545" y="-429.5" font-family="Helvetica,sans-Serif" font-size="10.00">zero_mate::peripheral</text>
<text text-anchor="middle" x="608.5" y="-418.5" font-family="Helvetica,sans-Serif" font-size="10.00">::CMini_UART::Trigger_IRQ</text>
</a>
</g>
</g>
<!-- Node9&#45;&gt;Node16 -->
<g id="edge15_Node000009_Node000016" class="edge">
<title>Node9&#45;&gt;Node16</title>
<g id="a_edge15_Node000009_Node000016"><a xlink:title=" ">
<path fill="none" stroke="#63b8ff" d="M498.16,-430.58C507.6,-430.23 517.27,-429.87 526.75,-429.51"/>
<polygon fill="#63b8ff" stroke="#63b8ff" points="527.09,-433 536.95,-429.13 526.82,-426.01 527.09,-433"/>
</a>
</g>
</g>
<!-- Node11 -->
<g id="Node000011" class="node">
<title>Node11</title>
<g id="a_Node000011"><a xlink:href="classzero__mate_1_1utils_1_1CLogging__System.html#a71ed11c796553cbe8fd99773406a1060" target="_top" xlink:title="Creates a formatted message to be logged.">
<polygon fill="white" stroke="#666666" points="1238,-382 1086,-382 1086,-341 1238,-341 1238,-382"/>
<text text-anchor="start" x="1094" y="-370" font-family="Helvetica,sans-Serif" font-size="10.00">zero_mate::utils::CLogging</text>
<text text-anchor="start" x="1094" y="-359" font-family="Helvetica,sans-Serif" font-size="10.00">_System::Create_Formatted</text>
<text text-anchor="middle" x="1162" y="-348" font-family="Helvetica,sans-Serif" font-size="10.00">_Log_Msg</text>
</a>
</g>
</g>
<!-- Node10&#45;&gt;Node11 -->
<g id="edge10_Node000010_Node000011" class="edge">
<title>Node10&#45;&gt;Node11</title>
<g id="a_edge10_Node000010_Node000011"><a xlink:title=" ">
<path fill="none" stroke="#63b8ff" d="M1050.06,-345.13C1058.55,-346.38 1067.26,-347.67 1075.9,-348.94"/>
<polygon fill="#63b8ff" stroke="#63b8ff" points="1075.59,-352.44 1085.99,-350.43 1076.61,-345.51 1075.59,-352.44"/>
</a>
</g>
</g>
<!-- Node14 -->
<g id="Node000014" class="node">
<title>Node14</title>
<g id="a_Node000014"><a xlink:href="classzero__mate_1_1utils_1_1CLogging__System.html#ad371c67ef65763966ccf9291002e86f3" target="_top" xlink:title="Extract the filename from a given location within the source files.">
<polygon fill="white" stroke="#666666" points="1236.5,-322.5 1087.5,-322.5 1087.5,-292.5 1236.5,-292.5 1236.5,-322.5"/>
<text text-anchor="start" x="1095.5" y="-310.5" font-family="Helvetica,sans-Serif" font-size="10.00">zero_mate::utils::CLogging</text>
<text text-anchor="middle" x="1162" y="-299.5" font-family="Helvetica,sans-Serif" font-size="10.00">_System::Extract_Filename</text>
</a>
</g>
</g>
<!-- Node10&#45;&gt;Node14 -->
<g id="edge13_Node000010_Node000014" class="edge">
<title>Node10&#45;&gt;Node14</title>
<g id="a_edge13_Node000010_Node000014"><a xlink:title=" ">
<path fill="none" stroke="#63b8ff" d="M1050.06,-323.87C1059.1,-322.53 1068.4,-321.16 1077.59,-319.81"/>
<polygon fill="#63b8ff" stroke="#63b8ff" points="1078.12,-323.27 1087.5,-318.34 1077.1,-316.34 1078.12,-323.27"/>
</a>
</g>
</g>
<!-- Node12 -->
<g id="Node000012" class="node">
<title>Node12</title>
<g id="a_Node000012"><a xlink:href="classzero__mate_1_1utils_1_1CLogging__System.html#aa70c102c805079042ffea2a6f2a5ad64" target="_top" xlink:title="Formats a given timestamp.">
<polygon fill="white" stroke="#666666" points="1434,-400.5 1274,-400.5 1274,-370.5 1434,-370.5 1434,-400.5"/>
<text text-anchor="start" x="1282" y="-388.5" font-family="Helvetica,sans-Serif" font-size="10.00">zero_mate::utils::CLogging</text>
<text text-anchor="middle" x="1354" y="-377.5" font-family="Helvetica,sans-Serif" font-size="10.00">_System::Format_Timestamp</text>
</a>
</g>
</g>
<!-- Node11&#45;&gt;Node12 -->
<g id="edge11_Node000011_Node000012" class="edge">
<title>Node11&#45;&gt;Node12</title>
<g id="a_edge11_Node000011_Node000012"><a xlink:title=" ">
<path fill="none" stroke="#63b8ff" d="M1238.09,-370.99C1246.52,-372.05 1255.16,-373.14 1263.74,-374.23"/>
<polygon fill="#63b8ff" stroke="#63b8ff" points="1263.41,-377.71 1273.77,-375.49 1264.29,-370.77 1263.41,-377.71"/>
</a>
</g>
</g>
<!-- Node13 -->
<g id="Node000013" class="node">
<title>Node13</title>
<g id="a_Node000013"><a xlink:href="classzero__mate_1_1utils_1_1CLogging__System.html#ae3ca637537dde05e0b9119145c840331" target="_top" xlink:title="Returns the current timestamp that will be used in a log message.">
<polygon fill="white" stroke="#666666" points="1427,-352.5 1281,-352.5 1281,-322.5 1427,-322.5 1427,-352.5"/>
<text text-anchor="start" x="1289" y="-340.5" font-family="Helvetica,sans-Serif" font-size="10.00">zero_mate::utils::CLogging</text>
<text text-anchor="middle" x="1354" y="-329.5" font-family="Helvetica,sans-Serif" font-size="10.00">_System::Get_Timestamp</text>
</a>
</g>
</g>
<!-- Node11&#45;&gt;Node13 -->
<g id="edge12_Node000011_Node000013" class="edge">
<title>Node11&#45;&gt;Node13</title>
<g id="a_edge12_Node000011_Node000013"><a xlink:title=" ">
<path fill="none" stroke="#63b8ff" d="M1238.09,-352.01C1248.89,-350.65 1260.05,-349.24 1270.98,-347.86"/>
<polygon fill="#63b8ff" stroke="#63b8ff" points="1271.45,-351.33 1280.93,-346.6 1270.57,-344.38 1271.45,-351.33"/>
</a>
</g>
</g>
<!-- Node17 -->
<g id="Node000017" class="node">
<title>Node17</title>
<g id="a_Node000017"><a xlink:href="classzero__mate_1_1peripheral_1_1CMini__UART.html#aeedc743fe9b70dfb0019b775e2ea714a" target="_top" xlink:title="Sets the type of a pending IRQ in the IIR register.">
<polygon fill="white" stroke="#666666" points="865.5,-441 718.5,-441 718.5,-400 865.5,-400 865.5,-441"/>
<text text-anchor="start" x="726.5" y="-429" font-family="Helvetica,sans-Serif" font-size="10.00">zero_mate::peripheral</text>
<text text-anchor="start" x="726.5" y="-418" font-family="Helvetica,sans-Serif" font-size="10.00">::CMini_UART::Set_Pending</text>
<text text-anchor="middle" x="792" y="-407" font-family="Helvetica,sans-Serif" font-size="10.00">_IRQ_Type</text>
</a>
</g>
</g>
<!-- Node16&#45;&gt;Node17 -->
<g id="edge16_Node000016_Node000017" class="edge">
<title>Node16&#45;&gt;Node17</title>
<g id="a_edge16_Node000016_Node000017"><a xlink:title=" ">
<path fill="none" stroke="#63b8ff" d="M680.19,-424.16C689.4,-423.86 698.9,-423.54 708.29,-423.23"/>
<polygon fill="#63b8ff" stroke="#63b8ff" points="708.53,-426.73 718.41,-422.9 708.3,-419.73 708.53,-426.73"/>
</a>
</g>
</g>
<!-- Node19 -->
<g id="Node000019" class="node">
<title>Node19</title>
<g id="a_Node000019"><a xlink:href="classzero__mate_1_1peripheral_1_1CMini__UART.html#a2786f867a05087fc463657262594db71" target="_top" xlink:title="Returns information about whether the transmission FIFO is empty or not.">
<polygon fill="white" stroke="#666666" points="501,-100 337,-100 337,-59 501,-59 501,-100"/>
<text text-anchor="start" x="345" y="-88" font-family="Helvetica,sans-Serif" font-size="10.00">zero_mate::peripheral</text>
<text text-anchor="start" x="345" y="-77" font-family="Helvetica,sans-Serif" font-size="10.00">::CMini_UART::Is_Transmission</text>
<text text-anchor="middle" x="419" y="-66" font-family="Helvetica,sans-Serif" font-size="10.00">_FIFO_Empty</text>
</a>
</g>
</g>
<!-- Node18&#45;&gt;Node19 -->
<g id="edge18_Node000018_Node000019" class="edge">
<title>Node18&#45;&gt;Node19</title>
<g id="a_edge18_Node000018_Node000019"><a xlink:title=" ">
<path fill="none" stroke="#63b8ff" d="M246.32,-182.27C265.67,-163.1 301.29,-130.18 337,-109.5 340.01,-107.76 343.14,-106.08 346.35,-104.48"/>
<polygon fill="#63b8ff" stroke="#63b8ff" points="347.97,-107.58 355.53,-100.15 344.99,-101.25 347.97,-107.58"/>
</a>
</g>
</g>
<!-- Node20 -->
<g id="Node000020" class="node">
<title>Node20</title>
<g id="a_Node000020"><a xlink:href="classzero__mate_1_1peripheral_1_1CMini__UART.html#a968340fbf2802af5178531146bca03c8" target="_top" xlink:title="Returns information about whether the transmitter is enabled or not.">
<polygon fill="white" stroke="#666666" points="497,-41 341,-41 341,0 497,0 497,-41"/>
<text text-anchor="start" x="349" y="-29" font-family="Helvetica,sans-Serif" font-size="10.00">zero_mate::peripheral</text>
<text text-anchor="start" x="349" y="-18" font-family="Helvetica,sans-Serif" font-size="10.00">::CMini_UART::Is_Transmitter</text>
<text text-anchor="middle" x="419" y="-7" font-family="Helvetica,sans-Serif" font-size="10.00">_Enabled</text>
</a>
</g>
</g>
<!-- Node18&#45;&gt;Node20 -->
<g id="edge19_Node000018_Node000020" class="edge">
<title>Node18&#45;&gt;Node20</title>
<g id="a_edge19_Node000018_Node000020"><a xlink:title=" ">
<path fill="none" stroke="#63b8ff" d="M238.48,-182.16C252.77,-152.38 288.18,-86.43 337,-49.5 338.39,-48.45 339.83,-47.43 341.3,-46.45"/>
<polygon fill="#63b8ff" stroke="#63b8ff" points="343.28,-49.34 350.04,-41.19 339.67,-43.34 343.28,-49.34"/>
</a>
</g>
</g>
<!-- Node21 -->
<g id="Node000021" class="node">
<title>Node21</title>
<g id="a_Node000021"><a xlink:href="classzero__mate_1_1peripheral_1_1CMini__UART.html#af791add34c2efc17007de9d20185b24d" target="_top" xlink:title="Resets transmission (end of the current UART frame).">
<polygon fill="white" stroke="#666666" points="492,-395 346,-395 346,-354 492,-354 492,-395"/>
<text text-anchor="start" x="354" y="-383" font-family="Helvetica,sans-Serif" font-size="10.00">zero_mate::peripheral</text>
<text text-anchor="start" x="354" y="-372" font-family="Helvetica,sans-Serif" font-size="10.00">::CMini_UART::UART_Reset</text>
<text text-anchor="middle" x="419" y="-361" font-family="Helvetica,sans-Serif" font-size="10.00">_Transmission</text>
</a>
</g>
</g>
<!-- Node18&#45;&gt;Node21 -->
<g id="edge20_Node000018_Node000021" class="edge">
<title>Node18&#45;&gt;Node21</title>
<g id="a_edge20_Node000018_Node000021"><a xlink:title=" ">
<path fill="none" stroke="#63b8ff" d="M238.48,-212.84C252.77,-242.62 288.18,-308.57 337,-345.5 338.39,-346.55 339.83,-347.57 341.3,-348.55"/>
<polygon fill="#63b8ff" stroke="#63b8ff" points="339.67,-351.66 350.04,-353.81 343.28,-345.66 339.67,-351.66"/>
</a>
</g>
</g>
<!-- Node23 -->
<g id="Node000023" class="node">
<title>Node23</title>
<g id="a_Node000023"><a xlink:href="classzero__mate_1_1peripheral_1_1CMini__UART.html#a2c1cebe25a3de866fb30387c9d3e1093" target="_top" xlink:title="Sends another bit of the current payload (actual data).">
<polygon fill="white" stroke="#666666" points="490.5,-277 347.5,-277 347.5,-236 490.5,-236 490.5,-277"/>
<text text-anchor="start" x="355.5" y="-265" font-family="Helvetica,sans-Serif" font-size="10.00">zero_mate::peripheral</text>
<text text-anchor="start" x="355.5" y="-254" font-family="Helvetica,sans-Serif" font-size="10.00">::CMini_UART::UART_Send</text>
<text text-anchor="middle" x="419" y="-243" font-family="Helvetica,sans-Serif" font-size="10.00">_Payload</text>
</a>
</g>
</g>
<!-- Node18&#45;&gt;Node23 -->
<g id="edge23_Node000018_Node000023" class="edge">
<title>Node18&#45;&gt;Node23</title>
<g id="a_edge23_Node000018_Node000023"><a xlink:title=" ">
<path fill="none" stroke="#63b8ff" d="M279.04,-212.54C298.51,-218.7 321.51,-225.97 343.13,-232.81"/>
<polygon fill="#63b8ff" stroke="#63b8ff" points="342.36,-236.24 352.95,-235.92 344.47,-229.57 342.36,-236.24"/>
</a>
</g>
</g>
<!-- Node26 -->
<g id="Node000026" class="node">
<title>Node26</title>
<g id="a_Node000026"><a xlink:href="classzero__mate_1_1peripheral_1_1CMini__UART.html#a8af3940e255317e7282402dce11c2d33" target="_top" xlink:title="Sends a start bit.">
<polygon fill="white" stroke="#666666" points="490.5,-159 347.5,-159 347.5,-118 490.5,-118 490.5,-159"/>
<text text-anchor="start" x="355.5" y="-147" font-family="Helvetica,sans-Serif" font-size="10.00">zero_mate::peripheral</text>
<text text-anchor="start" x="355.5" y="-136" font-family="Helvetica,sans-Serif" font-size="10.00">::CMini_UART::UART_Send</text>
<text text-anchor="middle" x="419" y="-125" font-family="Helvetica,sans-Serif" font-size="10.00">_Start_Bit</text>
</a>
</g>
</g>
<!-- Node18&#45;&gt;Node26 -->
<g id="edge29_Node000018_Node000026" class="edge">
<title>Node18&#45;&gt;Node26</title>
<g id="a_edge29_Node000018_Node000026"><a xlink:title=" ">
<path fill="none" stroke="#63b8ff" d="M279.04,-182.46C298.51,-176.3 321.51,-169.03 343.13,-162.19"/>
<polygon fill="#63b8ff" stroke="#63b8ff" points="344.47,-165.43 352.95,-159.08 342.36,-158.76 344.47,-165.43"/>
</a>
</g>
</g>
<!-- Node27 -->
<g id="Node000027" class="node">
<title>Node27</title>
<g id="a_Node000027"><a xlink:href="classzero__mate_1_1peripheral_1_1CMini__UART.html#ad15628b6f928101a1844704a58b11cdb" target="_top" xlink:title="Sends a stop bit.">
<polygon fill="white" stroke="#666666" points="490.5,-218 347.5,-218 347.5,-177 490.5,-177 490.5,-218"/>
<text text-anchor="start" x="355.5" y="-206" font-family="Helvetica,sans-Serif" font-size="10.00">zero_mate::peripheral</text>
<text text-anchor="start" x="355.5" y="-195" font-family="Helvetica,sans-Serif" font-size="10.00">::CMini_UART::UART_Send</text>
<text text-anchor="middle" x="419" y="-184" font-family="Helvetica,sans-Serif" font-size="10.00">_Stop_bit</text>
</a>
</g>
</g>
<!-- Node18&#45;&gt;Node27 -->
<g id="edge31_Node000018_Node000027" class="edge">
<title>Node18&#45;&gt;Node27</title>
<g id="a_edge31_Node000018_Node000027"><a xlink:title=" ">
<path fill="none" stroke="#63b8ff" d="M300.68,-197.5C312.59,-197.5 325.05,-197.5 337.23,-197.5"/>
<polygon fill="#63b8ff" stroke="#63b8ff" points="337.37,-201 347.37,-197.5 337.37,-194 337.37,-201"/>
</a>
</g>
</g>
<!-- Node21&#45;&gt;Node16 -->
<g id="edge22_Node000021_Node000016" class="edge">
<title>Node21&#45;&gt;Node16</title>
<g id="a_edge22_Node000021_Node000016"><a xlink:title=" ">
<path fill="none" stroke="#63b8ff" d="M492.22,-394.53C509.05,-399.2 526.86,-404.14 543.32,-408.7"/>
<polygon fill="#63b8ff" stroke="#63b8ff" points="542.8,-412.19 553.37,-411.49 544.67,-405.44 542.8,-412.19"/>
</a>
</g>
</g>
<!-- Node22 -->
<g id="Node000022" class="node">
<title>Node22</title>
<g id="a_Node000022"><a xlink:href="classzero__mate_1_1peripheral_1_1CMini__UART.html#a1e54d90a036d327e36d06a74be1595c3" target="_top" xlink:title="Returns information about a transmit interrupt is enabled.">
<polygon fill="white" stroke="#666666" points="680,-393 537,-393 537,-352 680,-352 680,-393"/>
<text text-anchor="start" x="545" y="-381" font-family="Helvetica,sans-Serif" font-size="10.00">zero_mate::peripheral</text>
<text text-anchor="start" x="545" y="-370" font-family="Helvetica,sans-Serif" font-size="10.00">::CMini_UART::Is_Transmit</text>
<text text-anchor="middle" x="608.5" y="-359" font-family="Helvetica,sans-Serif" font-size="10.00">_Interrupt_Enabled</text>
</a>
</g>
</g>
<!-- Node21&#45;&gt;Node22 -->
<g id="edge21_Node000021_Node000022" class="edge">
<title>Node21&#45;&gt;Node22</title>
<g id="a_edge21_Node000021_Node000022"><a xlink:title=" ">
<path fill="none" stroke="#63b8ff" d="M492.22,-373.73C503.55,-373.61 515.33,-373.48 526.83,-373.36"/>
<polygon fill="#63b8ff" stroke="#63b8ff" points="526.9,-376.86 536.86,-373.25 526.82,-369.86 526.9,-376.86"/>
</a>
</g>
</g>
<!-- Node23&#45;&gt;Node6 -->
<g id="edge24_Node000023_Node000006" class="edge">
<title>Node23&#45;&gt;Node6</title>
<g id="a_edge24_Node000023_Node000006"><a xlink:title=" ">
<path fill="none" stroke="#63b8ff" d="M490.62,-255.75C504.1,-255.6 518.27,-255.45 531.9,-255.31"/>
<polygon fill="#63b8ff" stroke="#63b8ff" points="532.24,-258.8 542.2,-255.2 532.16,-251.8 532.24,-258.8"/>
</a>
</g>
</g>
<!-- Node23&#45;&gt;Node7 -->
<g id="edge25_Node000023_Node000007" class="edge">
<title>Node23&#45;&gt;Node7</title>
<g id="a_edge25_Node000023_Node000007"><a xlink:title=" ">
<path fill="none" stroke="#63b8ff" d="M487.69,-277.08C502.32,-281.53 517.87,-286.25 532.75,-290.78"/>
<polygon fill="#63b8ff" stroke="#63b8ff" points="531.83,-294.15 542.41,-293.71 533.87,-287.46 531.83,-294.15"/>
</a>
</g>
</g>
<!-- Node24 -->
<g id="Node000024" class="node">
<title>Node24</title>
<g id="a_Node000024"><a xlink:href="classzero__mate_1_1peripheral_1_1CMini__UART.html#aa97db5d47b819acd85beda1dc91cb355" target="_top" xlink:title="Sets the state of the TX pin.">
<polygon fill="white" stroke="#666666" points="679,-214.5 538,-214.5 538,-184.5 679,-184.5 679,-214.5"/>
<text text-anchor="start" x="546" y="-202.5" font-family="Helvetica,sans-Serif" font-size="10.00">zero_mate::peripheral</text>
<text text-anchor="middle" x="608.5" y="-191.5" font-family="Helvetica,sans-Serif" font-size="10.00">::CMini_UART::Set_TX_Pin</text>
</a>
</g>
</g>
<!-- Node23&#45;&gt;Node24 -->
<g id="edge26_Node000023_Node000024" class="edge">
<title>Node23&#45;&gt;Node24</title>
<g id="a_edge26_Node000023_Node000024"><a xlink:title=" ">
<path fill="none" stroke="#63b8ff" d="M487.69,-235.92C507.61,-229.87 529.24,-223.29 548.57,-217.42"/>
<polygon fill="#63b8ff" stroke="#63b8ff" points="549.6,-220.76 558.14,-214.5 547.56,-214.06 549.6,-220.76"/>
</a>
</g>
</g>
<!-- Node25 -->
<g id="Node000025" class="node">
<title>Node25</title>
<g id="a_Node000025"><a xlink:href="classzero__mate_1_1peripheral_1_1CMini__UART.html#a9243af4f42d118a598a00c0f79d366e1" target="_top" xlink:title="Sets the state of a given GPIO pin.">
<polygon fill="white" stroke="#666666" points="868,-298.5 716,-298.5 716,-268.5 868,-268.5 868,-298.5"/>
<text text-anchor="start" x="724" y="-286.5" font-family="Helvetica,sans-Serif" font-size="10.00">zero_mate::peripheral</text>
<text text-anchor="middle" x="792" y="-275.5" font-family="Helvetica,sans-Serif" font-size="10.00">::CMini_UART::Set_GPIO_pin</text>
</a>
</g>
</g>
<!-- Node24&#45;&gt;Node25 -->
<g id="edge27_Node000024_Node000025" class="edge">
<title>Node24&#45;&gt;Node25</title>
<g id="a_edge27_Node000024_Node000025"><a xlink:title=" ">
<path fill="none" stroke="#63b8ff" d="M653.1,-214.59C662.08,-217.97 671.41,-221.69 680,-225.5 705.91,-236.99 734.22,-251.82 755.77,-263.61"/>
<polygon fill="#63b8ff" stroke="#63b8ff" points="754.11,-266.69 764.56,-268.46 757.49,-260.56 754.11,-266.69"/>
</a>
</g>
</g>
<!-- Node25&#45;&gt;Node10 -->
<g id="edge28_Node000025_Node000010" class="edge">
<title>Node25&#45;&gt;Node10</title>
<g id="a_edge28_Node000025_Node000010"><a xlink:title=" ">
<path fill="none" stroke="#63b8ff" d="M846.92,-298.53C867.49,-304.26 891.13,-310.85 912.51,-316.81"/>
<polygon fill="#63b8ff" stroke="#63b8ff" points="911.58,-320.18 922.15,-319.49 913.46,-313.44 911.58,-320.18"/>
</a>
</g>
</g>
<!-- Node26&#45;&gt;Node24 -->
<g id="edge30_Node000026_Node000024" class="edge">
<title>Node26&#45;&gt;Node24</title>
<g id="a_edge30_Node000026_Node000024"><a xlink:title=" ">
<path fill="none" stroke="#63b8ff" d="M483.22,-159.07C505.34,-166.27 530.02,-174.29 551.51,-181.29"/>
<polygon fill="#63b8ff" stroke="#63b8ff" points="550.55,-184.65 561.14,-184.42 552.72,-178 550.55,-184.65"/>
</a>
</g>
</g>
<!-- Node27&#45;&gt;Node24 -->
<g id="edge32_Node000027_Node000024" class="edge">
<title>Node27&#45;&gt;Node24</title>
<g id="a_edge32_Node000027_Node000024"><a xlink:title=" ">
<path fill="none" stroke="#63b8ff" d="M490.62,-198.25C502.7,-198.38 515.33,-198.52 527.64,-198.65"/>
<polygon fill="#63b8ff" stroke="#63b8ff" points="527.84,-202.15 537.88,-198.76 527.92,-195.15 527.84,-202.15"/>
</a>
</g>
</g>
</g>
</svg>
