<?xml version="1.0" encoding="UTF-8" standalone="no"?>
<!DOCTYPE svg PUBLIC "-//W3C//DTD SVG 1.1//EN"
 "http://www.w3.org/Graphics/SVG/1.1/DTD/svg11.dtd">
<!-- Generated by graphviz version 2.43.0 (0)
 -->
<!-- Title: zero_mate::peripheral::CMini_UART::Clear_Global_IRQ_Flags Pages: 1 -->
<svg width="350pt" height="98pt"
 viewBox="0.00 0.00 350.00 97.50" xmlns="http://www.w3.org/2000/svg" xmlns:xlink="http://www.w3.org/1999/xlink">
<g id="graph0" class="graph" transform="scale(1 1) rotate(0) translate(4 93.5)">
<title>zero_mate::peripheral::CMini_UART::Clear_Global_IRQ_Flags</title>
<!-- Node1 -->
<g id="Node000001" class="node">
<title>Node1</title>
<g id="a_Node000001"><a xlink:title="Helper function to clear global IRQ flags (not those related to a particular IRQ type).">
<polygon fill="#999999" stroke="#666666" points="342,-68 193,-68 193,-27 342,-27 342,-68"/>
<text text-anchor="start" x="201" y="-56" font-family="Helvetica,sans-Serif" font-size="10.00">zero_mate::peripheral</text>
<text text-anchor="start" x="201" y="-45" font-family="Helvetica,sans-Serif" font-size="10.00">::CMini_UART::Clear_Global</text>
<text text-anchor="middle" x="267.5" y="-34" font-family="Helvetica,sans-Serif" font-size="10.00">_IRQ_Flags</text>
</a>
</g>
</g>
<!-- Node2 -->
<g id="Node000002" class="node">
<title>Node2</title>
<g id="a_Node000002"><a xlink:href="classzero__mate_1_1peripheral_1_1CMini__UART.html#ac621244aa73f1f7d3d8ddf18fc715b6a" target="_top" xlink:title="Clears any pending interrupt.">
<polygon fill="white" stroke="#666666" points="146,-89.5 11,-89.5 11,-59.5 146,-59.5 146,-89.5"/>
<text text-anchor="start" x="19" y="-77.5" font-family="Helvetica,sans-Serif" font-size="10.00">zero_mate::peripheral</text>
<text text-anchor="middle" x="78.5" y="-66.5" font-family="Helvetica,sans-Serif" font-size="10.00">::CMini_UART::Clear_IRQ</text>
</a>
</g>
</g>
<!-- Node1&#45;&gt;Node2 -->
<g id="edge1_Node000001_Node000002" class="edge">
<title>Node1&#45;&gt;Node2</title>
<g id="a_edge1_Node000001_Node000002"><a xlink:title=" ">
<path fill="none" stroke="#63b8ff" d="M182.64,-59.61C170.39,-61.38 157.92,-63.18 146.08,-64.89"/>
<polygon fill="#63b8ff" stroke="#63b8ff" points="183.46,-63.03 192.86,-58.13 182.46,-56.1 183.46,-63.03"/>
</a>
</g>
</g>
<!-- Node3 -->
<g id="Node000003" class="node">
<title>Node3</title>
<g id="a_Node000003"><a xlink:href="classzero__mate_1_1peripheral_1_1CMini__UART.html#ae982e8e52b5242cf8a68aec6e269cc8c" target="_top" xlink:title="Clears a pending receive IRQ.">
<polygon fill="white" stroke="#666666" points="157,-41 0,-41 0,0 157,0 157,-41"/>
<text text-anchor="start" x="8" y="-29" font-family="Helvetica,sans-Serif" font-size="10.00">zero_mate::peripheral</text>
<text text-anchor="start" x="8" y="-18" font-family="Helvetica,sans-Serif" font-size="10.00">::CMini_UART::Clear_Pending</text>
<text text-anchor="middle" x="78.5" y="-7" font-family="Helvetica,sans-Serif" font-size="10.00">_Receive_IRQ</text>
</a>
</g>
</g>
<!-- Node1&#45;&gt;Node3 -->
<g id="edge2_Node000001_Node000003" class="edge">
<title>Node1&#45;&gt;Node3</title>
<g id="a_edge2_Node000001_Node000003"><a xlink:title=" ">
<path fill="none" stroke="#63b8ff" d="M182.86,-35.42C174.28,-34.18 165.58,-32.93 157.07,-31.7"/>
<polygon fill="#63b8ff" stroke="#63b8ff" points="182.46,-38.9 192.86,-36.87 183.46,-31.97 182.46,-38.9"/>
</a>
</g>
</g>
</g>
</svg>
