<?xml version="1.0" encoding="UTF-8" standalone="no"?>
<!DOCTYPE svg PUBLIC "-//W3C//DTD SVG 1.1//EN"
 "http://www.w3.org/Graphics/SVG/1.1/DTD/svg11.dtd">
<!-- Generated by graphviz version 2.43.0 (0)
 -->
<!-- Title: zero_mate::gui::CSource_Code_Window::Extract_Class_Name Pages: 1 -->
<svg width="971pt" height="49pt"
 viewBox="0.00 0.00 971.00 49.00" xmlns="http://www.w3.org/2000/svg" xmlns:xlink="http://www.w3.org/1999/xlink">
<g id="graph0" class="graph" transform="scale(1 1) rotate(0) translate(4 45)">
<title>zero_mate::gui::CSource_Code_Window::Extract_Class_Name</title>
<!-- Node1 -->
<g id="Node000001" class="node">
<title>Node1</title>
<g id="a_Node000001"><a xlink:title="Extracts the class name from a given label (function name).">
<polygon fill="#999999" stroke="#666666" points="963,-41 828,-41 828,0 963,0 963,-41"/>
<text text-anchor="start" x="836" y="-29" font-family="Helvetica,sans-Serif" font-size="10.00">zero_mate::gui::CSource</text>
<text text-anchor="start" x="836" y="-18" font-family="Helvetica,sans-Serif" font-size="10.00">_Code_Window::Extract</text>
<text text-anchor="middle" x="895.5" y="-7" font-family="Helvetica,sans-Serif" font-size="10.00">_Class_Name</text>
</a>
</g>
</g>
<!-- Node2 -->
<g id="Node000002" class="node">
<title>Node2</title>
<g id="a_Node000002"><a xlink:href="classzero__mate_1_1gui_1_1CSource__Code__Window.html#af9afd629a519bacd1ce89faf8bbcdb9c" target="_top" xlink:title="Renders a block of code (a single function/method).">
<polygon fill="white" stroke="#666666" points="792,-35.5 599,-35.5 599,-5.5 792,-5.5 792,-35.5"/>
<text text-anchor="start" x="607" y="-23.5" font-family="Helvetica,sans-Serif" font-size="10.00">zero_mate::gui::CSource</text>
<text text-anchor="middle" x="695.5" y="-12.5" font-family="Helvetica,sans-Serif" font-size="10.00">_Code_Window::Render_Code_Block</text>
</a>
</g>
</g>
<!-- Node1&#45;&gt;Node2 -->
<g id="edge1_Node000001_Node000002" class="edge">
<title>Node1&#45;&gt;Node2</title>
<g id="a_edge1_Node000001_Node000002"><a xlink:title=" ">
<path fill="none" stroke="#63b8ff" d="M817.67,-20.5C809.3,-20.5 800.72,-20.5 792.16,-20.5"/>
<polygon fill="#63b8ff" stroke="#63b8ff" points="817.74,-24 827.74,-20.5 817.74,-17 817.74,-24"/>
</a>
</g>
</g>
<!-- Node3 -->
<g id="Node000003" class="node">
<title>Node3</title>
<g id="a_Node000003"><a xlink:href="classzero__mate_1_1gui_1_1CSource__Code__Window.html#a2088711954d53ac5f57e4a085770590f" target="_top" xlink:title="Renders a single tab (ELF source file).">
<polygon fill="white" stroke="#666666" points="563,-35.5 411,-35.5 411,-5.5 563,-5.5 563,-35.5"/>
<text text-anchor="start" x="419" y="-23.5" font-family="Helvetica,sans-Serif" font-size="10.00">zero_mate::gui::CSource</text>
<text text-anchor="middle" x="487" y="-12.5" font-family="Helvetica,sans-Serif" font-size="10.00">_Code_Window::Render_Tab</text>
</a>
</g>
</g>
<!-- Node2&#45;&gt;Node3 -->
<g id="edge2_Node000002_Node000003" class="edge">
<title>Node2&#45;&gt;Node3</title>
<g id="a_edge2_Node000002_Node000003"><a xlink:title=" ">
<path fill="none" stroke="#63b8ff" d="M588.73,-20.5C580.14,-20.5 571.58,-20.5 563.28,-20.5"/>
<polygon fill="#63b8ff" stroke="#63b8ff" points="588.81,-24 598.81,-20.5 588.81,-17 588.81,-24"/>
</a>
</g>
</g>
<!-- Node4 -->
<g id="Node000004" class="node">
<title>Node4</title>
<g id="a_Node000004"><a xlink:href="classzero__mate_1_1gui_1_1CSource__Code__Window.html#a1f2a59252814f5b499c09bf2959741ad" target="_top" xlink:title="Renders the disassembled contents of all ELF loaded into the emulator.">
<polygon fill="white" stroke="#666666" points="375,-35.5 171,-35.5 171,-5.5 375,-5.5 375,-35.5"/>
<text text-anchor="start" x="179" y="-23.5" font-family="Helvetica,sans-Serif" font-size="10.00">zero_mate::gui::CSource</text>
<text text-anchor="middle" x="273" y="-12.5" font-family="Helvetica,sans-Serif" font-size="10.00">_Code_Window::Render_Source_Codes</text>
</a>
</g>
</g>
<!-- Node3&#45;&gt;Node4 -->
<g id="edge3_Node000003_Node000004" class="edge">
<title>Node3&#45;&gt;Node4</title>
<g id="a_edge3_Node000003_Node000004"><a xlink:title=" ">
<path fill="none" stroke="#63b8ff" d="M400.82,-20.5C392.42,-20.5 383.84,-20.5 375.3,-20.5"/>
<polygon fill="#63b8ff" stroke="#63b8ff" points="400.96,-24 410.96,-20.5 400.96,-17 400.96,-24"/>
</a>
</g>
</g>
<!-- Node5 -->
<g id="Node000005" class="node">
<title>Node5</title>
<g id="a_Node000005"><a xlink:href="classzero__mate_1_1gui_1_1CSource__Code__Window.html#a24d4560bdcaf8c4fb0611de1b55ac687" target="_top" xlink:title="Renders the window (IGUI_Window interface).">
<polygon fill="white" stroke="#666666" points="135,-35.5 0,-35.5 0,-5.5 135,-5.5 135,-35.5"/>
<text text-anchor="start" x="8" y="-23.5" font-family="Helvetica,sans-Serif" font-size="10.00">zero_mate::gui::CSource</text>
<text text-anchor="middle" x="67.5" y="-12.5" font-family="Helvetica,sans-Serif" font-size="10.00">_Code_Window::Render</text>
</a>
</g>
</g>
<!-- Node4&#45;&gt;Node5 -->
<g id="edge4_Node000004_Node000005" class="edge">
<title>Node4&#45;&gt;Node5</title>
<g id="a_edge4_Node000004_Node000005"><a xlink:title=" ">
<path fill="none" stroke="#63b8ff" d="M160.67,-20.5C152.03,-20.5 143.49,-20.5 135.28,-20.5"/>
<polygon fill="#63b8ff" stroke="#63b8ff" points="160.85,-24 170.85,-20.5 160.85,-17 160.85,-24"/>
</a>
</g>
</g>
</g>
</svg>
