<?xml version="1.0" encoding="UTF-8" standalone="no"?>
<!DOCTYPE svg PUBLIC "-//W3C//DTD SVG 1.1//EN"
 "http://www.w3.org/Graphics/SVG/1.1/DTD/svg11.dtd">
<!-- Generated by graphviz version 2.43.0 (0)
 -->
<!-- Title: zero_mate::arm1176jzf_s::CCPU_Core::Execute Pages: 1 -->
<svg width="1078pt" height="584pt"
 viewBox="0.00 0.00 1078.00 583.60" xmlns="http://www.w3.org/2000/svg" xmlns:xlink="http://www.w3.org/1999/xlink">
<g id="graph0" class="graph" transform="scale(1 1) rotate(0) translate(4 579.6)">
<title>zero_mate::arm1176jzf_s::CCPU_Core::Execute</title>
<!-- Node1 -->
<g id="Node000001" class="node">
<title>Node1</title>
<g id="a_Node000001"><a xlink:title="Executes a data processing instruction.">
<polygon fill="#999999" stroke="#666666" points="132,-289 0,-289 0,-259 132,-259 132,-289"/>
<text text-anchor="start" x="8" y="-277" font-family="Helvetica,sans-Serif" font-size="10.00">zero_mate::arm1176jzf</text>
<text text-anchor="middle" x="66" y="-266" font-family="Helvetica,sans-Serif" font-size="10.00">_s::CCPU_Core::Execute</text>
</a>
</g>
</g>
<!-- Node2 -->
<g id="Node000002" class="node">
<title>Node2</title>
<g id="a_Node000002"><a xlink:href="classzero__mate_1_1utils_1_1CLogging__System.html#a57ed77e1a5cf822cea532cc5e05c3f60" target="_top" xlink:title="Logs an error message via all registered loggers.">
<polygon fill="white" stroke="#666666" points="686,-289 540,-289 540,-259 686,-259 686,-289"/>
<text text-anchor="start" x="548" y="-277" font-family="Helvetica,sans-Serif" font-size="10.00">zero_mate::utils::CLogging</text>
<text text-anchor="middle" x="613" y="-266" font-family="Helvetica,sans-Serif" font-size="10.00">_System::Error</text>
</a>
</g>
</g>
<!-- Node1&#45;&gt;Node2 -->
<g id="edge1_Node000001_Node000002" class="edge">
<title>Node1&#45;&gt;Node2</title>
<g id="a_edge1_Node000001_Node000002"><a xlink:title=" ">
<path fill="none" stroke="#63b8ff" d="M70.03,-289.22C78.41,-327.2 105.52,-426.74 168,-478 284.82,-573.85 378.08,-613.54 504,-530 583.72,-477.11 604.74,-352.51 610.16,-299.06"/>
<polygon fill="#63b8ff" stroke="#63b8ff" points="613.65,-299.35 611.08,-289.08 606.68,-298.72 613.65,-299.35"/>
</a>
</g>
</g>
<!-- Node7 -->
<g id="Node000007" class="node">
<title>Node7</title>
<g id="a_Node000007"><a xlink:href="namespacezero__mate_1_1arm1176jzf__s_1_1alu.html#a73ff714734ac2e53a9374d1f2b9877d6" target="_top" xlink:title="Performs an ALU operation.">
<polygon fill="white" stroke="#666666" points="311.5,-451 181.5,-451 181.5,-421 311.5,-421 311.5,-451"/>
<text text-anchor="start" x="189.5" y="-439" font-family="Helvetica,sans-Serif" font-size="10.00">zero_mate::arm1176jzf</text>
<text text-anchor="middle" x="246.5" y="-428" font-family="Helvetica,sans-Serif" font-size="10.00">_s::alu::Execute</text>
</a>
</g>
</g>
<!-- Node1&#45;&gt;Node7 -->
<g id="edge6_Node000001_Node000007" class="edge">
<title>Node1&#45;&gt;Node7</title>
<g id="a_edge6_Node000001_Node000007"><a xlink:title=" ">
<path fill="none" stroke="#63b8ff" d="M74.08,-289.36C87.98,-317.82 121.59,-378.89 168,-412 170.11,-413.5 172.31,-414.91 174.59,-416.24"/>
<polygon fill="#63b8ff" stroke="#63b8ff" points="173.18,-419.45 183.67,-420.93 176.39,-413.23 173.18,-419.45"/>
</a>
</g>
</g>
<!-- Node8 -->
<g id="Node000008" class="node">
<title>Node8</title>
<g id="a_Node000008"><a xlink:href="classzero__mate_1_1arm1176jzf__s_1_1CCPU__Context.html#aa740f9219bb413d707ac72f373e60d3a" target="_top" xlink:title="Returns the current mode of the CPU.">
<polygon fill="white" stroke="#666666" points="497.5,-343.5 367.5,-343.5 367.5,-302.5 497.5,-302.5 497.5,-343.5"/>
<text text-anchor="start" x="375.5" y="-331.5" font-family="Helvetica,sans-Serif" font-size="10.00">zero_mate::arm1176jzf</text>
<text text-anchor="start" x="375.5" y="-320.5" font-family="Helvetica,sans-Serif" font-size="10.00">_s::CCPU_Context::Get</text>
<text text-anchor="middle" x="432.5" y="-309.5" font-family="Helvetica,sans-Serif" font-size="10.00">_CPU_Mode</text>
</a>
</g>
</g>
<!-- Node1&#45;&gt;Node8 -->
<g id="edge8_Node000001_Node000008" class="edge">
<title>Node1&#45;&gt;Node8</title>
<g id="a_edge8_Node000001_Node000008"><a xlink:title=" ">
<path fill="none" stroke="#63b8ff" d="M124.14,-289.03C138.39,-292.38 153.69,-295.63 168,-298 231.46,-308.5 304.3,-314.99 357.29,-318.72"/>
<polygon fill="#63b8ff" stroke="#63b8ff" points="357.07,-322.21 367.28,-319.41 357.55,-315.23 357.07,-322.21"/>
</a>
</g>
</g>
<!-- Node9 -->
<g id="Node000009" class="node">
<title>Node9</title>
<g id="a_Node000009"><a xlink:href="classzero__mate_1_1arm1176jzf__s_1_1CCPU__Core.html#aa5b55276e454abfced2b5714b936e98d" target="_top" xlink:title="Calculates the second operand of a data processing instruction.">
<polygon fill="white" stroke="#666666" points="322.5,-402.5 170.5,-402.5 170.5,-361.5 322.5,-361.5 322.5,-402.5"/>
<text text-anchor="start" x="178.5" y="-390.5" font-family="Helvetica,sans-Serif" font-size="10.00">zero_mate::arm1176jzf</text>
<text text-anchor="start" x="178.5" y="-379.5" font-family="Helvetica,sans-Serif" font-size="10.00">_s::CCPU_Core::Get_Second</text>
<text text-anchor="middle" x="246.5" y="-368.5" font-family="Helvetica,sans-Serif" font-size="10.00">_Operand</text>
</a>
</g>
</g>
<!-- Node1&#45;&gt;Node9 -->
<g id="edge9_Node000001_Node000009" class="edge">
<title>Node1&#45;&gt;Node9</title>
<g id="a_edge9_Node000001_Node000009"><a xlink:title=" ">
<path fill="none" stroke="#63b8ff" d="M91.82,-289.02C120.4,-306.31 167.85,-335.02 202.48,-355.97"/>
<polygon fill="#63b8ff" stroke="#63b8ff" points="201.07,-359.21 211.43,-361.39 204.69,-353.22 201.07,-359.21"/>
</a>
</g>
</g>
<!-- Node13 -->
<g id="Node000013" class="node">
<title>Node13</title>
<g id="a_Node000013"><a xlink:href="classzero__mate_1_1arm1176jzf__s_1_1CCPU__Context.html#ae00681efcbc4adfcfde001a67c5baeca" target="_top" xlink:title="Returns the value of the SPSR register of the current CPU mode.">
<polygon fill="white" stroke="#666666" points="325,-241 168,-241 168,-211 325,-211 325,-241"/>
<text text-anchor="start" x="176" y="-229" font-family="Helvetica,sans-Serif" font-size="10.00">zero_mate::arm1176jzf</text>
<text text-anchor="middle" x="246.5" y="-218" font-family="Helvetica,sans-Serif" font-size="10.00">_s::CCPU_Context::Get_SPSR</text>
</a>
</g>
</g>
<!-- Node1&#45;&gt;Node13 -->
<g id="edge13_Node000001_Node000013" class="edge">
<title>Node1&#45;&gt;Node13</title>
<g id="a_edge13_Node000001_Node000013"><a xlink:title=" ">
<path fill="none" stroke="#63b8ff" d="M122.99,-258.94C141.02,-254.1 161.15,-248.68 179.81,-243.66"/>
<polygon fill="#63b8ff" stroke="#63b8ff" points="180.96,-246.98 189.71,-241 179.14,-240.22 180.96,-246.98"/>
</a>
</g>
</g>
<!-- Node15 -->
<g id="Node000015" class="node">
<title>Node15</title>
<g id="a_Node000015"><a xlink:href="classzero__mate_1_1arm1176jzf__s_1_1CCPU__Context.html#a6fc387fa0b0dd040c4e2463606d933e4" target="_top" xlink:title="Checks if the CPU mode passed in as a parameter supports the SPSR register or not.">
<polygon fill="white" stroke="#666666" points="678,-103.5 548,-103.5 548,-62.5 678,-62.5 678,-103.5"/>
<text text-anchor="start" x="556" y="-91.5" font-family="Helvetica,sans-Serif" font-size="10.00">zero_mate::arm1176jzf</text>
<text text-anchor="start" x="556" y="-80.5" font-family="Helvetica,sans-Serif" font-size="10.00">_s::CCPU_Context::Is</text>
<text text-anchor="middle" x="613" y="-69.5" font-family="Helvetica,sans-Serif" font-size="10.00">_Mode_With_No_SPSR</text>
</a>
</g>
</g>
<!-- Node1&#45;&gt;Node15 -->
<g id="edge18_Node000001_Node000015" class="edge">
<title>Node1&#45;&gt;Node15</title>
<g id="a_edge18_Node000001_Node000015"><a xlink:title=" ">
<path fill="none" stroke="#63b8ff" d="M74.56,-259C89.02,-231.77 123.18,-174.08 168,-142 277.81,-63.39 442.98,-64.29 537.85,-72.99"/>
<polygon fill="#63b8ff" stroke="#63b8ff" points="537.64,-76.49 547.93,-73.97 538.32,-69.52 537.64,-76.49"/>
</a>
</g>
</g>
<!-- Node16 -->
<g id="Node000016" class="node">
<title>Node16</title>
<g id="a_Node000016"><a xlink:href="classzero__mate_1_1arm1176jzf__s_1_1CCPU__Context.html#a0013811c3eef6d91ddfd2423a08889ef" target="_top" xlink:title="Checks whether a given flag is set in the CPSR register of the current CPU mode.">
<polygon fill="white" stroke="#666666" points="311.5,-192.5 181.5,-192.5 181.5,-151.5 311.5,-151.5 311.5,-192.5"/>
<text text-anchor="start" x="189.5" y="-180.5" font-family="Helvetica,sans-Serif" font-size="10.00">zero_mate::arm1176jzf</text>
<text text-anchor="start" x="189.5" y="-169.5" font-family="Helvetica,sans-Serif" font-size="10.00">_s::CCPU_Context::Is</text>
<text text-anchor="middle" x="246.5" y="-158.5" font-family="Helvetica,sans-Serif" font-size="10.00">_Flag_Set</text>
</a>
</g>
</g>
<!-- Node1&#45;&gt;Node16 -->
<g id="edge17_Node000001_Node000016" class="edge">
<title>Node1&#45;&gt;Node16</title>
<g id="a_edge17_Node000001_Node000016"><a xlink:title=" ">
<path fill="none" stroke="#63b8ff" d="M85.07,-258.99C104.6,-243.29 137.1,-218.65 168,-202 171.31,-200.22 174.74,-198.49 178.24,-196.82"/>
<polygon fill="#63b8ff" stroke="#63b8ff" points="179.99,-199.87 187.64,-192.54 177.09,-193.5 179.99,-199.87"/>
</a>
</g>
</g>
<!-- Node17 -->
<g id="Node000017" class="node">
<title>Node17</title>
<g id="a_Node000017"><a xlink:href="classzero__mate_1_1arm1176jzf__s_1_1CCPU__Context.html#a53765299c790cc790e15deb2c701bd2a" target="_top" xlink:title="Sets a new value to the CPSR register.">
<polygon fill="white" stroke="#666666" points="324.5,-289 168.5,-289 168.5,-259 324.5,-259 324.5,-289"/>
<text text-anchor="start" x="176.5" y="-277" font-family="Helvetica,sans-Serif" font-size="10.00">zero_mate::arm1176jzf</text>
<text text-anchor="middle" x="246.5" y="-266" font-family="Helvetica,sans-Serif" font-size="10.00">_s::CCPU_Context::Set_CPSR</text>
</a>
</g>
</g>
<!-- Node1&#45;&gt;Node17 -->
<g id="edge19_Node000001_Node000017" class="edge">
<title>Node1&#45;&gt;Node17</title>
<g id="a_edge19_Node000001_Node000017"><a xlink:title=" ">
<path fill="none" stroke="#63b8ff" d="M132.2,-274C140.65,-274 149.4,-274 158.14,-274"/>
<polygon fill="#63b8ff" stroke="#63b8ff" points="158.36,-277.5 168.36,-274 158.36,-270.5 158.36,-277.5"/>
</a>
</g>
</g>
<!-- Node20 -->
<g id="Node000020" class="node">
<title>Node20</title>
<g id="a_Node000020"><a xlink:href="classzero__mate_1_1arm1176jzf__s_1_1CCPU__Context.html#a984bace2773aca71cf04701aa0ce9c54" target="_top" xlink:title="Sets/resets a flag in the CPSR register of the current CPU mode.">
<polygon fill="white" stroke="#666666" points="322.5,-30 170.5,-30 170.5,0 322.5,0 322.5,-30"/>
<text text-anchor="start" x="178.5" y="-18" font-family="Helvetica,sans-Serif" font-size="10.00">zero_mate::arm1176jzf</text>
<text text-anchor="middle" x="246.5" y="-7" font-family="Helvetica,sans-Serif" font-size="10.00">_s::CCPU_Context::Set_Flag</text>
</a>
</g>
</g>
<!-- Node1&#45;&gt;Node20 -->
<g id="edge24_Node000001_Node000020" class="edge">
<title>Node1&#45;&gt;Node20</title>
<g id="a_edge24_Node000001_Node000020"><a xlink:title=" ">
<path fill="none" stroke="#63b8ff" d="M69.48,-258.76C76.86,-218.13 102.41,-106.03 168,-44 171.53,-40.66 175.49,-37.69 179.69,-35.07"/>
<polygon fill="#63b8ff" stroke="#63b8ff" points="181.55,-38.03 188.6,-30.13 178.16,-31.91 181.55,-38.03"/>
</a>
</g>
</g>
<!-- Node3 -->
<g id="Node000003" class="node">
<title>Node3</title>
<g id="a_Node000003"><a xlink:href="classzero__mate_1_1utils_1_1CLogging__System.html#a71ed11c796553cbe8fd99773406a1060" target="_top" xlink:title="Creates a formatted message to be logged.">
<polygon fill="white" stroke="#666666" points="874,-321.5 722,-321.5 722,-280.5 874,-280.5 874,-321.5"/>
<text text-anchor="start" x="730" y="-309.5" font-family="Helvetica,sans-Serif" font-size="10.00">zero_mate::utils::CLogging</text>
<text text-anchor="start" x="730" y="-298.5" font-family="Helvetica,sans-Serif" font-size="10.00">_System::Create_Formatted</text>
<text text-anchor="middle" x="798" y="-287.5" font-family="Helvetica,sans-Serif" font-size="10.00">_Log_Msg</text>
</a>
</g>
</g>
<!-- Node2&#45;&gt;Node3 -->
<g id="edge2_Node000002_Node000003" class="edge">
<title>Node2&#45;&gt;Node3</title>
<g id="a_edge2_Node000002_Node000003"><a xlink:title=" ">
<path fill="none" stroke="#63b8ff" d="M686.06,-284.63C694.55,-285.88 703.26,-287.17 711.9,-288.44"/>
<polygon fill="#63b8ff" stroke="#63b8ff" points="711.59,-291.94 721.99,-289.93 712.61,-285.01 711.59,-291.94"/>
</a>
</g>
</g>
<!-- Node6 -->
<g id="Node000006" class="node">
<title>Node6</title>
<g id="a_Node000006"><a xlink:href="classzero__mate_1_1utils_1_1CLogging__System.html#ad371c67ef65763966ccf9291002e86f3" target="_top" xlink:title="Extract the filename from a given location within the source files.">
<polygon fill="white" stroke="#666666" points="872.5,-262 723.5,-262 723.5,-232 872.5,-232 872.5,-262"/>
<text text-anchor="start" x="731.5" y="-250" font-family="Helvetica,sans-Serif" font-size="10.00">zero_mate::utils::CLogging</text>
<text text-anchor="middle" x="798" y="-239" font-family="Helvetica,sans-Serif" font-size="10.00">_System::Extract_Filename</text>
</a>
</g>
</g>
<!-- Node2&#45;&gt;Node6 -->
<g id="edge5_Node000002_Node000006" class="edge">
<title>Node2&#45;&gt;Node6</title>
<g id="a_edge5_Node000002_Node000006"><a xlink:title=" ">
<path fill="none" stroke="#63b8ff" d="M686.06,-263.37C695.1,-262.03 704.4,-260.66 713.59,-259.31"/>
<polygon fill="#63b8ff" stroke="#63b8ff" points="714.12,-262.77 723.5,-257.84 713.1,-255.84 714.12,-262.77"/>
</a>
</g>
</g>
<!-- Node4 -->
<g id="Node000004" class="node">
<title>Node4</title>
<g id="a_Node000004"><a xlink:href="classzero__mate_1_1utils_1_1CLogging__System.html#aa70c102c805079042ffea2a6f2a5ad64" target="_top" xlink:title="Formats a given timestamp.">
<polygon fill="white" stroke="#666666" points="1070,-340 910,-340 910,-310 1070,-310 1070,-340"/>
<text text-anchor="start" x="918" y="-328" font-family="Helvetica,sans-Serif" font-size="10.00">zero_mate::utils::CLogging</text>
<text text-anchor="middle" x="990" y="-317" font-family="Helvetica,sans-Serif" font-size="10.00">_System::Format_Timestamp</text>
</a>
</g>
</g>
<!-- Node3&#45;&gt;Node4 -->
<g id="edge3_Node000003_Node000004" class="edge">
<title>Node3&#45;&gt;Node4</title>
<g id="a_edge3_Node000003_Node000004"><a xlink:title=" ">
<path fill="none" stroke="#63b8ff" d="M874.09,-310.49C882.52,-311.55 891.16,-312.64 899.74,-313.73"/>
<polygon fill="#63b8ff" stroke="#63b8ff" points="899.41,-317.21 909.77,-314.99 900.29,-310.27 899.41,-317.21"/>
</a>
</g>
</g>
<!-- Node5 -->
<g id="Node000005" class="node">
<title>Node5</title>
<g id="a_Node000005"><a xlink:href="classzero__mate_1_1utils_1_1CLogging__System.html#ae3ca637537dde05e0b9119145c840331" target="_top" xlink:title="Returns the current timestamp that will be used in a log message.">
<polygon fill="white" stroke="#666666" points="1063,-292 917,-292 917,-262 1063,-262 1063,-292"/>
<text text-anchor="start" x="925" y="-280" font-family="Helvetica,sans-Serif" font-size="10.00">zero_mate::utils::CLogging</text>
<text text-anchor="middle" x="990" y="-269" font-family="Helvetica,sans-Serif" font-size="10.00">_System::Get_Timestamp</text>
</a>
</g>
</g>
<!-- Node3&#45;&gt;Node5 -->
<g id="edge4_Node000003_Node000005" class="edge">
<title>Node3&#45;&gt;Node5</title>
<g id="a_edge4_Node000003_Node000005"><a xlink:title=" ">
<path fill="none" stroke="#63b8ff" d="M874.09,-291.51C884.89,-290.15 896.05,-288.74 906.98,-287.36"/>
<polygon fill="#63b8ff" stroke="#63b8ff" points="907.45,-290.83 916.93,-286.1 906.57,-283.88 907.45,-290.83"/>
</a>
</g>
</g>
<!-- Node7&#45;&gt;Node7 -->
<g id="edge7_Node000007_Node000007" class="edge">
<title>Node7&#45;&gt;Node7</title>
<g id="a_edge7_Node000007_Node000007"><a xlink:title=" ">
<path fill="none" stroke="#63b8ff" d="M214.86,-451.28C207.83,-460.41 218.38,-469 246.5,-469 263.2,-469 273.7,-465.97 278.01,-461.6"/>
<polygon fill="#63b8ff" stroke="#63b8ff" points="281.51,-461.32 278.14,-451.28 274.51,-461.23 281.51,-461.32"/>
</a>
</g>
</g>
<!-- Node10 -->
<g id="Node000010" class="node">
<title>Node10</title>
<g id="a_Node000010"><a xlink:href="classzero__mate_1_1arm1176jzf__s_1_1isa_1_1CData__Processing.html#a73d5c3a98f3fe036a1348d4d7485d0e9" target="_top" xlink:title="Returns the index of the second operand register (Rm).">
<polygon fill="white" stroke="#666666" points="503,-461.5 362,-461.5 362,-420.5 503,-420.5 503,-461.5"/>
<text text-anchor="start" x="370" y="-449.5" font-family="Helvetica,sans-Serif" font-size="10.00">zero_mate::arm1176jzf</text>
<text text-anchor="start" x="370" y="-438.5" font-family="Helvetica,sans-Serif" font-size="10.00">_s::isa::CData_Processing</text>
<text text-anchor="middle" x="432.5" y="-427.5" font-family="Helvetica,sans-Serif" font-size="10.00">::Get_Rm_Idx</text>
</a>
</g>
</g>
<!-- Node9&#45;&gt;Node10 -->
<g id="edge10_Node000009_Node000010" class="edge">
<title>Node9&#45;&gt;Node10</title>
<g id="a_edge10_Node000009_Node000010"><a xlink:title=" ">
<path fill="none" stroke="#63b8ff" d="M311.6,-402.55C326.4,-407.3 342.27,-412.39 357.46,-417.26"/>
<polygon fill="#63b8ff" stroke="#63b8ff" points="356.73,-420.7 367.32,-420.42 358.87,-414.03 356.73,-420.7"/>
</a>
</g>
</g>
<!-- Node11 -->
<g id="Node000011" class="node">
<title>Node11</title>
<g id="a_Node000011"><a xlink:href="classzero__mate_1_1arm1176jzf__s_1_1isa_1_1CData__Processing.html#ae43548d291eecc463c519086e7527ff2" target="_top" xlink:title="Returns the shift type used when constructing the second operand.">
<polygon fill="white" stroke="#666666" points="503,-402.5 362,-402.5 362,-361.5 503,-361.5 503,-402.5"/>
<text text-anchor="start" x="370" y="-390.5" font-family="Helvetica,sans-Serif" font-size="10.00">zero_mate::arm1176jzf</text>
<text text-anchor="start" x="370" y="-379.5" font-family="Helvetica,sans-Serif" font-size="10.00">_s::isa::CData_Processing</text>
<text text-anchor="middle" x="432.5" y="-368.5" font-family="Helvetica,sans-Serif" font-size="10.00">::Get_Shift_Type</text>
</a>
</g>
</g>
<!-- Node9&#45;&gt;Node11 -->
<g id="edge11_Node000009_Node000011" class="edge">
<title>Node9&#45;&gt;Node11</title>
<g id="a_edge11_Node000009_Node000011"><a xlink:title=" ">
<path fill="none" stroke="#63b8ff" d="M322.61,-382C332.27,-382 342.19,-382 351.92,-382"/>
<polygon fill="#63b8ff" stroke="#63b8ff" points="351.97,-385.5 361.97,-382 351.97,-378.5 351.97,-385.5"/>
</a>
</g>
</g>
<!-- Node12 -->
<g id="Node000012" class="node">
<title>Node12</title>
<g id="a_Node000012"><a xlink:href="classzero__mate_1_1arm1176jzf__s_1_1isa_1_1CData__Processing.html#a1dc73c441b156452b1467eaa5cab46f5" target="_top" xlink:title="Returns the value of the I bit (bit 25 = immediate second operand).">
<polygon fill="white" stroke="#666666" points="503,-520.5 362,-520.5 362,-479.5 503,-479.5 503,-520.5"/>
<text text-anchor="start" x="370" y="-508.5" font-family="Helvetica,sans-Serif" font-size="10.00">zero_mate::arm1176jzf</text>
<text text-anchor="start" x="370" y="-497.5" font-family="Helvetica,sans-Serif" font-size="10.00">_s::isa::CData_Processing</text>
<text text-anchor="middle" x="432.5" y="-486.5" font-family="Helvetica,sans-Serif" font-size="10.00">::Is_I_Bit_Set</text>
</a>
</g>
</g>
<!-- Node9&#45;&gt;Node12 -->
<g id="edge12_Node000009_Node000012" class="edge">
<title>Node9&#45;&gt;Node12</title>
<g id="a_edge12_Node000009_Node000012"><a xlink:title=" ">
<path fill="none" stroke="#63b8ff" d="M311.23,-402.56C316.13,-405.35 320.79,-408.48 325,-412 348.57,-431.7 337.64,-451.06 361,-471 362.13,-471.97 363.3,-472.9 364.5,-473.81"/>
<polygon fill="#63b8ff" stroke="#63b8ff" points="362.57,-476.73 372.82,-479.41 366.48,-470.92 362.57,-476.73"/>
</a>
</g>
</g>
<!-- Node14 -->
<g id="Node000014" class="node">
<title>Node14</title>
<g id="a_Node000014"><a xlink:href="classzero__mate_1_1arm1176jzf__s_1_1CCPU__Context.html#a050dada520ca82a21874045815c596a8" target="_top" xlink:title=" ">
<polygon fill="white" stroke="#666666" points="501,-127.5 364,-127.5 364,-86.5 501,-86.5 501,-127.5"/>
<text text-anchor="start" x="372" y="-115.5" font-family="Helvetica,sans-Serif" font-size="10.00">zero_mate::arm1176jzf</text>
<text text-anchor="start" x="372" y="-104.5" font-family="Helvetica,sans-Serif" font-size="10.00">_s::CCPU_Context::Verify</text>
<text text-anchor="middle" x="432.5" y="-93.5" font-family="Helvetica,sans-Serif" font-size="10.00">_SPSR_Accessibility</text>
</a>
</g>
</g>
<!-- Node13&#45;&gt;Node14 -->
<g id="edge14_Node000013_Node000014" class="edge">
<title>Node13&#45;&gt;Node14</title>
<g id="a_edge14_Node000013_Node000014"><a xlink:title=" ">
<path fill="none" stroke="#63b8ff" d="M309.43,-210.9C315,-208.13 320.31,-204.86 325,-201 350.5,-180.02 336.34,-157.96 361,-136 361.97,-135.13 362.98,-134.29 364,-133.47"/>
<polygon fill="#63b8ff" stroke="#63b8ff" points="366.15,-136.24 372.33,-127.63 362.13,-130.51 366.15,-136.24"/>
</a>
</g>
</g>
<!-- Node14&#45;&gt;Node2 -->
<g id="edge15_Node000014_Node000002" class="edge">
<title>Node14&#45;&gt;Node2</title>
<g id="a_edge15_Node000014_Node000002"><a xlink:title=" ">
<path fill="none" stroke="#63b8ff" d="M491.08,-127.66C495.62,-130.19 499.99,-132.96 504,-136 545.97,-167.81 580.56,-219.69 598.56,-249.96"/>
<polygon fill="#63b8ff" stroke="#63b8ff" points="595.55,-251.74 603.6,-258.62 601.59,-248.21 595.55,-251.74"/>
</a>
</g>
</g>
<!-- Node14&#45;&gt;Node15 -->
<g id="edge16_Node000014_Node000015" class="edge">
<title>Node14&#45;&gt;Node15</title>
<g id="a_edge16_Node000014_Node000015"><a xlink:title=" ">
<path fill="none" stroke="#63b8ff" d="M501.24,-97.89C513.18,-96.29 525.67,-94.61 537.78,-92.98"/>
<polygon fill="#63b8ff" stroke="#63b8ff" points="538.4,-96.43 547.84,-91.63 537.46,-89.49 538.4,-96.43"/>
</a>
</g>
</g>
<!-- Node17&#45;&gt;Node2 -->
<g id="edge20_Node000017_Node000002" class="edge">
<title>Node17&#45;&gt;Node2</title>
<g id="a_edge20_Node000017_Node000002"><a xlink:title=" ">
<path fill="none" stroke="#63b8ff" d="M324.8,-274C384.98,-274 468.32,-274 529.72,-274"/>
<polygon fill="#63b8ff" stroke="#63b8ff" points="529.77,-277.5 539.77,-274 529.77,-270.5 529.77,-277.5"/>
</a>
</g>
</g>
<!-- Node17&#45;&gt;Node8 -->
<g id="edge21_Node000017_Node000008" class="edge">
<title>Node17&#45;&gt;Node8</title>
<g id="a_edge21_Node000017_Node000008"><a xlink:title=" ">
<path fill="none" stroke="#63b8ff" d="M303.96,-289.03C320.89,-293.54 339.73,-298.56 357.61,-303.32"/>
<polygon fill="#63b8ff" stroke="#63b8ff" points="356.87,-306.75 367.43,-305.94 358.67,-299.98 356.87,-306.75"/>
</a>
</g>
</g>
<!-- Node18 -->
<g id="Node000018" class="node">
<title>Node18</title>
<g id="a_Node000018"><a xlink:href="classzero__mate_1_1arm1176jzf__s_1_1CCPU__Context.html#aa53dae8f0dd16d916a852e572dfa95ba" target="_top" xlink:title="Checks if there is an invalid attempt to change the control bits of the CPSR register.">
<polygon fill="white" stroke="#666666" points="504,-186.5 361,-186.5 361,-145.5 504,-145.5 504,-186.5"/>
<text text-anchor="start" x="369" y="-174.5" font-family="Helvetica,sans-Serif" font-size="10.00">zero_mate::arm1176jzf</text>
<text text-anchor="start" x="369" y="-163.5" font-family="Helvetica,sans-Serif" font-size="10.00">_s::CCPU_Context::Invalid</text>
<text text-anchor="middle" x="432.5" y="-152.5" font-family="Helvetica,sans-Serif" font-size="10.00">_Change_Of_Control_Bits</text>
</a>
</g>
</g>
<!-- Node17&#45;&gt;Node18 -->
<g id="edge22_Node000017_Node000018" class="edge">
<title>Node17&#45;&gt;Node18</title>
<g id="a_edge22_Node000017_Node000018"><a xlink:title=" ">
<path fill="none" stroke="#63b8ff" d="M310.31,-258.82C315.51,-256.31 320.5,-253.39 325,-250 348.33,-232.42 338.48,-213.61 361,-195 362.18,-194.03 363.4,-193.08 364.64,-192.16"/>
<polygon fill="#63b8ff" stroke="#63b8ff" points="366.83,-194.91 373.28,-186.51 363,-189.06 366.83,-194.91"/>
</a>
</g>
</g>
<!-- Node19 -->
<g id="Node000019" class="node">
<title>Node19</title>
<g id="a_Node000019"><a xlink:href="classzero__mate_1_1arm1176jzf__s_1_1CCPU__Context.html#a7efff674f8141eab73cb69099220f0d5" target="_top" xlink:title="Sets the mode of the CPU.">
<polygon fill="white" stroke="#666666" points="497.5,-245.5 367.5,-245.5 367.5,-204.5 497.5,-204.5 497.5,-245.5"/>
<text text-anchor="start" x="375.5" y="-233.5" font-family="Helvetica,sans-Serif" font-size="10.00">zero_mate::arm1176jzf</text>
<text text-anchor="start" x="375.5" y="-222.5" font-family="Helvetica,sans-Serif" font-size="10.00">_s::CCPU_Context::Set</text>
<text text-anchor="middle" x="432.5" y="-211.5" font-family="Helvetica,sans-Serif" font-size="10.00">_CPU_Mode</text>
</a>
</g>
</g>
<!-- Node17&#45;&gt;Node19 -->
<g id="edge23_Node000017_Node000019" class="edge">
<title>Node17&#45;&gt;Node19</title>
<g id="a_edge23_Node000017_Node000019"><a xlink:title=" ">
<path fill="none" stroke="#63b8ff" d="M303.96,-258.97C320.89,-254.46 339.73,-249.44 357.61,-244.68"/>
<polygon fill="#63b8ff" stroke="#63b8ff" points="358.67,-248.02 367.43,-242.06 356.87,-241.25 358.67,-248.02"/>
</a>
</g>
</g>
</g>
</svg>
