<?xml version="1.0" encoding="UTF-8" standalone="no"?>
<!DOCTYPE svg PUBLIC "-//W3C//DTD SVG 1.1//EN"
 "http://www.w3.org/Graphics/SVG/1.1/DTD/svg11.dtd">
<!-- Generated by graphviz version 2.43.0 (0)
 -->
<!-- Title: zero_mate::gui::CCircular_Log_Buffer::Clear Pages: 1 -->
<svg width="808pt" height="98pt"
 viewBox="0.00 0.00 808.00 97.50" xmlns="http://www.w3.org/2000/svg" xmlns:xlink="http://www.w3.org/1999/xlink">
<g id="graph0" class="graph" transform="scale(1 1) rotate(0) translate(4 93.5)">
<title>zero_mate::gui::CCircular_Log_Buffer::Clear</title>
<!-- Node1 -->
<g id="Node000001" class="node">
<title>Node1</title>
<g id="a_Node000001"><a xlink:title="Clears the circular buffer (deletes all log messages).">
<polygon fill="#999999" stroke="#666666" points="800,-62.5 660,-62.5 660,-32.5 800,-32.5 800,-62.5"/>
<text text-anchor="start" x="668" y="-50.5" font-family="Helvetica,sans-Serif" font-size="10.00">zero_mate::gui::CCircular</text>
<text text-anchor="middle" x="730" y="-39.5" font-family="Helvetica,sans-Serif" font-size="10.00">_Log_Buffer::Clear</text>
</a>
</g>
</g>
<!-- Node2 -->
<g id="Node000002" class="node">
<title>Node2</title>
<g id="a_Node000002"><a xlink:href="classzero__mate_1_1gui_1_1CLog__Window.html#aab3c1c25eedfe7230d905ae5355265c0" target="_top" xlink:title="Clears all log messages.">
<polygon fill="white" stroke="#666666" points="624,-62.5 505,-62.5 505,-32.5 624,-32.5 624,-62.5"/>
<text text-anchor="start" x="513" y="-50.5" font-family="Helvetica,sans-Serif" font-size="10.00">zero_mate::gui::CLog</text>
<text text-anchor="middle" x="564.5" y="-39.5" font-family="Helvetica,sans-Serif" font-size="10.00">_Window::Clear</text>
</a>
</g>
</g>
<!-- Node1&#45;&gt;Node2 -->
<g id="edge1_Node000001_Node000002" class="edge">
<title>Node1&#45;&gt;Node2</title>
<g id="a_edge1_Node000001_Node000002"><a xlink:title=" ">
<path fill="none" stroke="#63b8ff" d="M649.61,-47.5C641.02,-47.5 632.39,-47.5 624.11,-47.5"/>
<polygon fill="#63b8ff" stroke="#63b8ff" points="649.66,-51 659.66,-47.5 649.66,-44 649.66,-51"/>
</a>
</g>
</g>
<!-- Node3 -->
<g id="Node000003" class="node">
<title>Node3</title>
<g id="a_Node000003"><a xlink:href="classzero__mate_1_1gui_1_1CLog__Window.html#a3aa41a902142abbf211f567d89b77f21" target="_top" xlink:title="Creates an instance of the class.">
<polygon fill="white" stroke="#666666" points="469,-89.5 335,-89.5 335,-59.5 469,-59.5 469,-89.5"/>
<text text-anchor="start" x="343" y="-77.5" font-family="Helvetica,sans-Serif" font-size="10.00">zero_mate::gui::CLog</text>
<text text-anchor="middle" x="402" y="-66.5" font-family="Helvetica,sans-Serif" font-size="10.00">_Window::CLog_Window</text>
</a>
</g>
</g>
<!-- Node2&#45;&gt;Node3 -->
<g id="edge2_Node000002_Node000003" class="edge">
<title>Node2&#45;&gt;Node3</title>
<g id="a_edge2_Node000002_Node000003"><a xlink:title=" ">
<path fill="none" stroke="#63b8ff" d="M494.78,-59.06C486.29,-60.49 477.62,-61.95 469.17,-63.37"/>
<polygon fill="#63b8ff" stroke="#63b8ff" points="495.37,-62.51 504.65,-57.4 494.2,-55.61 495.37,-62.51"/>
</a>
</g>
</g>
<!-- Node4 -->
<g id="Node000004" class="node">
<title>Node4</title>
<g id="a_Node000004"><a xlink:href="classzero__mate_1_1gui_1_1CLog__Window.html#aada4dbfcfe761cd1f7f050a866a4e02c" target="_top" xlink:title="Renders a clear button for clearing the message area.">
<polygon fill="white" stroke="#666666" points="467.5,-41 336.5,-41 336.5,0 467.5,0 467.5,-41"/>
<text text-anchor="start" x="344.5" y="-29" font-family="Helvetica,sans-Serif" font-size="10.00">zero_mate::gui::CLog</text>
<text text-anchor="start" x="344.5" y="-18" font-family="Helvetica,sans-Serif" font-size="10.00">_Window::Render_Clear</text>
<text text-anchor="middle" x="402" y="-7" font-family="Helvetica,sans-Serif" font-size="10.00">_Button</text>
</a>
</g>
</g>
<!-- Node2&#45;&gt;Node4 -->
<g id="edge3_Node000002_Node000004" class="edge">
<title>Node2&#45;&gt;Node4</title>
<g id="a_edge3_Node000002_Node000004"><a xlink:title=" ">
<path fill="none" stroke="#63b8ff" d="M494.61,-35.91C485.62,-34.4 476.44,-32.85 467.53,-31.36"/>
<polygon fill="#63b8ff" stroke="#63b8ff" points="494.2,-39.39 504.65,-37.6 495.37,-32.49 494.2,-39.39"/>
</a>
</g>
</g>
<!-- Node5 -->
<g id="Node000005" class="node">
<title>Node5</title>
<g id="a_Node000005"><a xlink:href="classzero__mate_1_1gui_1_1CLog__Window.html#ab5d91eb4a2187a347f7c4a9ba84a527d" target="_top" xlink:title="Renders the top bar of the window (the options, clear button, and the filter)">
<polygon fill="white" stroke="#666666" points="299,-35.5 155,-35.5 155,-5.5 299,-5.5 299,-35.5"/>
<text text-anchor="start" x="163" y="-23.5" font-family="Helvetica,sans-Serif" font-size="10.00">zero_mate::gui::CLog</text>
<text text-anchor="middle" x="227" y="-12.5" font-family="Helvetica,sans-Serif" font-size="10.00">_Window::Render_Top_Bar</text>
</a>
</g>
</g>
<!-- Node4&#45;&gt;Node5 -->
<g id="edge4_Node000004_Node000005" class="edge">
<title>Node4&#45;&gt;Node5</title>
<g id="a_edge4_Node000004_Node000005"><a xlink:title=" ">
<path fill="none" stroke="#63b8ff" d="M326.07,-20.5C317.11,-20.5 307.98,-20.5 299.07,-20.5"/>
<polygon fill="#63b8ff" stroke="#63b8ff" points="326.09,-24 336.09,-20.5 326.09,-17 326.09,-24"/>
</a>
</g>
</g>
<!-- Node6 -->
<g id="Node000006" class="node">
<title>Node6</title>
<g id="a_Node000006"><a xlink:href="classzero__mate_1_1gui_1_1CLog__Window.html#a679fe192aa1335396f06e63678bb71d5" target="_top" xlink:title="Renders the window (IGUI_Window interface).">
<polygon fill="white" stroke="#666666" points="119,-35.5 0,-35.5 0,-5.5 119,-5.5 119,-35.5"/>
<text text-anchor="start" x="8" y="-23.5" font-family="Helvetica,sans-Serif" font-size="10.00">zero_mate::gui::CLog</text>
<text text-anchor="middle" x="59.5" y="-12.5" font-family="Helvetica,sans-Serif" font-size="10.00">_Window::Render</text>
</a>
</g>
</g>
<!-- Node5&#45;&gt;Node6 -->
<g id="edge5_Node000005_Node000006" class="edge">
<title>Node5&#45;&gt;Node6</title>
<g id="a_edge5_Node000005_Node000006"><a xlink:title=" ">
<path fill="none" stroke="#63b8ff" d="M144.74,-20.5C136.11,-20.5 127.45,-20.5 119.14,-20.5"/>
<polygon fill="#63b8ff" stroke="#63b8ff" points="144.85,-24 154.85,-20.5 144.85,-17 144.85,-24"/>
</a>
</g>
</g>
</g>
</svg>
