<?xml version="1.0" encoding="UTF-8" standalone="no"?>
<!DOCTYPE svg PUBLIC "-//W3C//DTD SVG 1.1//EN"
 "http://www.w3.org/Graphics/SVG/1.1/DTD/svg11.dtd">
<!-- Generated by graphviz version 2.43.0 (0)
 -->
<!-- Title: zero_mate::gui::CLog_Window::Set_Log_Message_Color Pages: 1 -->
<svg width="739pt" height="108pt"
 viewBox="0.00 0.00 739.00 108.00" xmlns="http://www.w3.org/2000/svg" xmlns:xlink="http://www.w3.org/1999/xlink">
<g id="graph0" class="graph" transform="scale(1 1) rotate(0) translate(4 104)">
<title>zero_mate::gui::CLog_Window::Set_Log_Message_Color</title>
<!-- Node1 -->
<g id="Node000001" class="node">
<title>Node1</title>
<g id="a_Node000001"><a xlink:title="Sets the color of a log message based on its type (error, info, etc.)">
<polygon fill="#999999" stroke="#666666" points="731,-64.5 547,-64.5 547,-34.5 731,-34.5 731,-64.5"/>
<text text-anchor="start" x="555" y="-52.5" font-family="Helvetica,sans-Serif" font-size="10.00">zero_mate::gui::CLog</text>
<text text-anchor="middle" x="639" y="-41.5" font-family="Helvetica,sans-Serif" font-size="10.00">_Window::Set_Log_Message_Color</text>
</a>
</g>
</g>
<!-- Node2 -->
<g id="Node000002" class="node">
<title>Node2</title>
<g id="a_Node000002"><a xlink:href="classzero__mate_1_1gui_1_1CLog__Window.html#a67b875f7111438d9100d927992e27c4f" target="_top" xlink:title="Renders all log messages (no filter activated).">
<polygon fill="white" stroke="#666666" points="510,-100 369,-100 369,-59 510,-59 510,-100"/>
<text text-anchor="start" x="377" y="-88" font-family="Helvetica,sans-Serif" font-size="10.00">zero_mate::gui::CLog</text>
<text text-anchor="start" x="377" y="-77" font-family="Helvetica,sans-Serif" font-size="10.00">_Window::Render_All_Log</text>
<text text-anchor="middle" x="439.5" y="-66" font-family="Helvetica,sans-Serif" font-size="10.00">_Messages</text>
</a>
</g>
</g>
<!-- Node1&#45;&gt;Node2 -->
<g id="edge1_Node000001_Node000002" class="edge">
<title>Node1&#45;&gt;Node2</title>
<g id="a_edge1_Node000001_Node000002"><a xlink:title=" ">
<path fill="none" stroke="#63b8ff" d="M536.63,-64.9C527.65,-66.26 518.7,-67.62 510.08,-68.93"/>
<polygon fill="#63b8ff" stroke="#63b8ff" points="537.4,-68.32 546.77,-63.36 536.35,-61.4 537.4,-68.32"/>
</a>
</g>
</g>
<!-- Node5 -->
<g id="Node000005" class="node">
<title>Node5</title>
<g id="a_Node000005"><a xlink:href="classzero__mate_1_1gui_1_1CLog__Window.html#adb7453fd69db4264b631251e48b68201" target="_top" xlink:title="Renders log messages that satisfy the criteria given by a message filter.">
<polygon fill="white" stroke="#666666" points="511,-41 368,-41 368,0 511,0 511,-41"/>
<text text-anchor="start" x="376" y="-29" font-family="Helvetica,sans-Serif" font-size="10.00">zero_mate::gui::CLog</text>
<text text-anchor="start" x="376" y="-18" font-family="Helvetica,sans-Serif" font-size="10.00">_Window::Render_Filtered</text>
<text text-anchor="middle" x="439.5" y="-7" font-family="Helvetica,sans-Serif" font-size="10.00">_Log_Messages</text>
</a>
</g>
</g>
<!-- Node1&#45;&gt;Node5 -->
<g id="edge4_Node000001_Node000005" class="edge">
<title>Node1&#45;&gt;Node5</title>
<g id="a_edge4_Node000001_Node000005"><a xlink:title=" ">
<path fill="none" stroke="#63b8ff" d="M536.68,-34.62C528.09,-33.36 519.53,-32.1 511.25,-30.89"/>
<polygon fill="#63b8ff" stroke="#63b8ff" points="536.36,-38.11 546.77,-36.1 537.38,-31.19 536.36,-38.11"/>
</a>
</g>
</g>
<!-- Node3 -->
<g id="Node000003" class="node">
<title>Node3</title>
<g id="a_Node000003"><a xlink:href="classzero__mate_1_1gui_1_1CLog__Window.html#ac72abb295653473388e92ec658b85e7e" target="_top" xlink:title="Renders the message scrolling area.">
<polygon fill="white" stroke="#666666" points="332,-64.5 155,-64.5 155,-34.5 332,-34.5 332,-64.5"/>
<text text-anchor="start" x="163" y="-52.5" font-family="Helvetica,sans-Serif" font-size="10.00">zero_mate::gui::CLog</text>
<text text-anchor="middle" x="243.5" y="-41.5" font-family="Helvetica,sans-Serif" font-size="10.00">_Window::Render_Message_Area</text>
</a>
</g>
</g>
<!-- Node2&#45;&gt;Node3 -->
<g id="edge2_Node000002_Node000003" class="edge">
<title>Node2&#45;&gt;Node3</title>
<g id="a_edge2_Node000002_Node000003"><a xlink:title=" ">
<path fill="none" stroke="#63b8ff" d="M358.62,-67.15C349.92,-65.8 341.03,-64.43 332.23,-63.07"/>
<polygon fill="#63b8ff" stroke="#63b8ff" points="358.32,-70.64 368.74,-68.71 359.39,-63.72 358.32,-70.64"/>
</a>
</g>
</g>
<!-- Node4 -->
<g id="Node000004" class="node">
<title>Node4</title>
<g id="a_Node000004"><a xlink:href="classzero__mate_1_1gui_1_1CLog__Window.html#a679fe192aa1335396f06e63678bb71d5" target="_top" xlink:title="Renders the window (IGUI_Window interface).">
<polygon fill="white" stroke="#666666" points="119,-64.5 0,-64.5 0,-34.5 119,-34.5 119,-64.5"/>
<text text-anchor="start" x="8" y="-52.5" font-family="Helvetica,sans-Serif" font-size="10.00">zero_mate::gui::CLog</text>
<text text-anchor="middle" x="59.5" y="-41.5" font-family="Helvetica,sans-Serif" font-size="10.00">_Window::Render</text>
</a>
</g>
</g>
<!-- Node3&#45;&gt;Node4 -->
<g id="edge3_Node000003_Node000004" class="edge">
<title>Node3&#45;&gt;Node4</title>
<g id="a_edge3_Node000003_Node000004"><a xlink:title=" ">
<path fill="none" stroke="#63b8ff" d="M144.75,-49.5C136.06,-49.5 127.45,-49.5 119.24,-49.5"/>
<polygon fill="#63b8ff" stroke="#63b8ff" points="144.97,-53 154.97,-49.5 144.97,-46 144.97,-53"/>
</a>
</g>
</g>
<!-- Node5&#45;&gt;Node3 -->
<g id="edge5_Node000005_Node000003" class="edge">
<title>Node5&#45;&gt;Node3</title>
<g id="a_edge5_Node000005_Node000003"><a xlink:title=" ">
<path fill="none" stroke="#63b8ff" d="M358.02,-32.53C349.51,-33.8 340.82,-35.1 332.24,-36.38"/>
<polygon fill="#63b8ff" stroke="#63b8ff" points="358.54,-35.99 367.91,-31.05 357.51,-29.07 358.54,-35.99"/>
</a>
</g>
</g>
</g>
</svg>
