<?xml version="1.0" encoding="UTF-8" standalone="no"?>
<!DOCTYPE svg PUBLIC "-//W3C//DTD SVG 1.1//EN"
 "http://www.w3.org/Graphics/SVG/1.1/DTD/svg11.dtd">
<!-- Generated by graphviz version 2.43.0 (0)
 -->
<!-- Title: zero_mate::peripheral::CMini_UART::Increment_Passed_Cycles Pages: 1 -->
<svg width="1625pt" height="580pt"
 viewBox="0.00 0.00 1625.00 580.00" xmlns="http://www.w3.org/2000/svg" xmlns:xlink="http://www.w3.org/1999/xlink">
<g id="graph0" class="graph" transform="scale(1 1) rotate(0) translate(4 576)">
<title>zero_mate::peripheral::CMini_UART::Increment_Passed_Cycles</title>
<!-- Node1 -->
<g id="Node000001" class="node">
<title>Node1</title>
<g id="a_Node000001"><a xlink:title="Updates the number of passed CPU cycles (forwarded from the AUX peripheral).">
<polygon fill="#999999" stroke="#666666" points="137,-481 0,-481 0,-440 137,-440 137,-481"/>
<text text-anchor="start" x="8" y="-469" font-family="Helvetica,sans-Serif" font-size="10.00">zero_mate::peripheral</text>
<text text-anchor="start" x="8" y="-458" font-family="Helvetica,sans-Serif" font-size="10.00">::CMini_UART::Increment</text>
<text text-anchor="middle" x="68.5" y="-447" font-family="Helvetica,sans-Serif" font-size="10.00">_Passed_Cycles</text>
</a>
</g>
</g>
<!-- Node2 -->
<g id="Node000002" class="node">
<title>Node2</title>
<g id="a_Node000002"><a xlink:href="classzero__mate_1_1peripheral_1_1CMini__UART.html#a3ab953c18059ccd52099be9bb7b6edac" target="_top" xlink:title="Returns the set up baud rate.">
<polygon fill="white" stroke="#666666" points="307,-508 173,-508 173,-467 307,-467 307,-508"/>
<text text-anchor="start" x="181" y="-496" font-family="Helvetica,sans-Serif" font-size="10.00">zero_mate::peripheral</text>
<text text-anchor="start" x="181" y="-485" font-family="Helvetica,sans-Serif" font-size="10.00">::CMini_UART::Get_Baud</text>
<text text-anchor="middle" x="240" y="-474" font-family="Helvetica,sans-Serif" font-size="10.00">_Rate_Counter</text>
</a>
</g>
</g>
<!-- Node1&#45;&gt;Node2 -->
<g id="edge1_Node000001_Node000002" class="edge">
<title>Node1&#45;&gt;Node2</title>
<g id="a_edge1_Node000001_Node000002"><a xlink:title=" ">
<path fill="none" stroke="#63b8ff" d="M137.47,-471.33C145.87,-472.67 154.51,-474.04 163.03,-475.4"/>
<polygon fill="#63b8ff" stroke="#63b8ff" points="162.52,-478.86 172.95,-476.98 163.62,-471.95 162.52,-478.86"/>
</a>
</g>
</g>
<!-- Node3 -->
<g id="Node000003" class="node">
<title>Node3</title>
<g id="a_Node000003"><a xlink:href="classzero__mate_1_1peripheral_1_1CMini__UART.html#a3b75064597a5fbfe9c4c7d1f2e0c7e5f" target="_top" xlink:title="Updates the state machines (transmission/reception).">
<polygon fill="white" stroke="#666666" points="302,-448.5 178,-448.5 178,-418.5 302,-418.5 302,-448.5"/>
<text text-anchor="start" x="186" y="-436.5" font-family="Helvetica,sans-Serif" font-size="10.00">zero_mate::peripheral</text>
<text text-anchor="middle" x="240" y="-425.5" font-family="Helvetica,sans-Serif" font-size="10.00">::CMini_UART::Update</text>
</a>
</g>
</g>
<!-- Node1&#45;&gt;Node3 -->
<g id="edge2_Node000001_Node000003" class="edge">
<title>Node1&#45;&gt;Node3</title>
<g id="a_edge2_Node000001_Node000003"><a xlink:title=" ">
<path fill="none" stroke="#63b8ff" d="M137.47,-449.67C147.48,-448.08 157.82,-446.43 167.9,-444.83"/>
<polygon fill="#63b8ff" stroke="#63b8ff" points="168.54,-448.27 177.87,-443.24 167.44,-441.35 168.54,-448.27"/>
</a>
</g>
</g>
<!-- Node4 -->
<g id="Node000004" class="node">
<title>Node4</title>
<g id="a_Node000004"><a xlink:href="classzero__mate_1_1peripheral_1_1CAUX.html#ac1f5c58dd33c9d094f56da234d812ca0" target="_top" xlink:title="Returns information about whether an auxiliary peripheral is enabled or not.">
<polygon fill="white" stroke="#666666" points="475.5,-496.5 351.5,-496.5 351.5,-466.5 475.5,-466.5 475.5,-496.5"/>
<text text-anchor="start" x="359.5" y="-484.5" font-family="Helvetica,sans-Serif" font-size="10.00">zero_mate::peripheral</text>
<text text-anchor="middle" x="413.5" y="-473.5" font-family="Helvetica,sans-Serif" font-size="10.00">::CAUX::Is_Enabled</text>
</a>
</g>
</g>
<!-- Node3&#45;&gt;Node4 -->
<g id="edge3_Node000003_Node000004" class="edge">
<title>Node3&#45;&gt;Node4</title>
<g id="a_edge3_Node000003_Node000004"><a xlink:title=" ">
<path fill="none" stroke="#63b8ff" d="M294.79,-448.56C312.03,-453.38 331.28,-458.77 349.14,-463.77"/>
<polygon fill="#63b8ff" stroke="#63b8ff" points="348.32,-467.17 358.9,-466.5 350.21,-460.43 348.32,-467.17"/>
</a>
</g>
</g>
<!-- Node5 -->
<g id="Node000005" class="node">
<title>Node5</title>
<g id="a_Node000005"><a xlink:href="classzero__mate_1_1peripheral_1_1CMini__UART.html#a6b04378225c55c43c00805cb5bdb99b3" target="_top" xlink:title="Updates the reception state machines.">
<polygon fill="white" stroke="#666666" points="484,-448.5 343,-448.5 343,-418.5 484,-418.5 484,-448.5"/>
<text text-anchor="start" x="351" y="-436.5" font-family="Helvetica,sans-Serif" font-size="10.00">zero_mate::peripheral</text>
<text text-anchor="middle" x="413.5" y="-425.5" font-family="Helvetica,sans-Serif" font-size="10.00">::CMini_UART::Update_RX</text>
</a>
</g>
</g>
<!-- Node3&#45;&gt;Node5 -->
<g id="edge4_Node000003_Node000005" class="edge">
<title>Node3&#45;&gt;Node5</title>
<g id="a_edge4_Node000003_Node000005"><a xlink:title=" ">
<path fill="none" stroke="#63b8ff" d="M302.43,-433.5C312.23,-433.5 322.5,-433.5 332.66,-433.5"/>
<polygon fill="#63b8ff" stroke="#63b8ff" points="332.75,-437 342.75,-433.5 332.75,-430 332.75,-437"/>
</a>
</g>
</g>
<!-- Node20 -->
<g id="Node000020" class="node">
<title>Node20</title>
<g id="a_Node000020"><a xlink:href="classzero__mate_1_1peripheral_1_1CMini__UART.html#a39f26f9ac5a5cb08b2a292f5c6fab6db" target="_top" xlink:title="Updates the transmission state machine.">
<polygon fill="white" stroke="#666666" points="483.5,-212.5 343.5,-212.5 343.5,-182.5 483.5,-182.5 483.5,-212.5"/>
<text text-anchor="start" x="351.5" y="-200.5" font-family="Helvetica,sans-Serif" font-size="10.00">zero_mate::peripheral</text>
<text text-anchor="middle" x="413.5" y="-189.5" font-family="Helvetica,sans-Serif" font-size="10.00">::CMini_UART::Update_TX</text>
</a>
</g>
</g>
<!-- Node3&#45;&gt;Node20 -->
<g id="edge19_Node000003_Node000020" class="edge">
<title>Node3&#45;&gt;Node20</title>
<g id="a_edge19_Node000003_Node000020"><a xlink:title=" ">
<path fill="none" stroke="#63b8ff" d="M251.99,-418.38C281.08,-378.35 360.27,-269.38 395.36,-221.08"/>
<polygon fill="#63b8ff" stroke="#63b8ff" points="398.33,-222.95 401.38,-212.8 392.67,-218.83 398.33,-222.95"/>
</a>
</g>
</g>
<!-- Node6 -->
<g id="Node000006" class="node">
<title>Node6</title>
<g id="a_Node000006"><a xlink:href="classzero__mate_1_1peripheral_1_1CMini__UART.html#a2a71009ed1f6227341dad8926bd73d81" target="_top" xlink:title="Returns information about whether the receiver is enabled or not.">
<polygon fill="white" stroke="#666666" points="673.5,-513 530.5,-513 530.5,-472 673.5,-472 673.5,-513"/>
<text text-anchor="start" x="538.5" y="-501" font-family="Helvetica,sans-Serif" font-size="10.00">zero_mate::peripheral</text>
<text text-anchor="start" x="538.5" y="-490" font-family="Helvetica,sans-Serif" font-size="10.00">::CMini_UART::Is_Receiver</text>
<text text-anchor="middle" x="602" y="-479" font-family="Helvetica,sans-Serif" font-size="10.00">_Enabled</text>
</a>
</g>
</g>
<!-- Node5&#45;&gt;Node6 -->
<g id="edge5_Node000005_Node000006" class="edge">
<title>Node5&#45;&gt;Node6</title>
<g id="a_edge5_Node000005_Node000006"><a xlink:title=" ">
<path fill="none" stroke="#63b8ff" d="M462.04,-448.54C481.51,-454.7 504.51,-461.97 526.13,-468.81"/>
<polygon fill="#63b8ff" stroke="#63b8ff" points="525.36,-472.24 535.95,-471.92 527.47,-465.57 525.36,-472.24"/>
</a>
</g>
</g>
<!-- Node7 -->
<g id="Node000007" class="node">
<title>Node7</title>
<g id="a_Node000007"><a xlink:href="classzero__mate_1_1peripheral_1_1CMini__UART.html#a50ba19a573540915346f49f559f8d595" target="_top" xlink:title="Receives another bit of the current payload (actual data).">
<polygon fill="white" stroke="#666666" points="681,-336 523,-336 523,-295 681,-295 681,-336"/>
<text text-anchor="start" x="531" y="-324" font-family="Helvetica,sans-Serif" font-size="10.00">zero_mate::peripheral</text>
<text text-anchor="start" x="531" y="-313" font-family="Helvetica,sans-Serif" font-size="10.00">::CMini_UART::UART_Receive</text>
<text text-anchor="middle" x="602" y="-302" font-family="Helvetica,sans-Serif" font-size="10.00">_Payload</text>
</a>
</g>
</g>
<!-- Node5&#45;&gt;Node7 -->
<g id="edge6_Node000005_Node000007" class="edge">
<title>Node5&#45;&gt;Node7</title>
<g id="a_edge6_Node000005_Node000007"><a xlink:title=" ">
<path fill="none" stroke="#63b8ff" d="M429.32,-418.27C448.67,-399.1 484.29,-366.18 520,-345.5 523.01,-343.76 526.14,-342.08 529.35,-340.48"/>
<polygon fill="#63b8ff" stroke="#63b8ff" points="530.97,-343.58 538.53,-336.15 527.99,-337.25 530.97,-343.58"/>
</a>
</g>
</g>
<!-- Node10 -->
<g id="Node000010" class="node">
<title>Node10</title>
<g id="a_Node000010"><a xlink:href="classzero__mate_1_1peripheral_1_1CMini__UART.html#a5c52c4391c9796abe9e33d0b672af4e0" target="_top" xlink:title="Receives a start bit.">
<polygon fill="white" stroke="#666666" points="681,-572 523,-572 523,-531 681,-531 681,-572"/>
<text text-anchor="start" x="531" y="-560" font-family="Helvetica,sans-Serif" font-size="10.00">zero_mate::peripheral</text>
<text text-anchor="start" x="531" y="-549" font-family="Helvetica,sans-Serif" font-size="10.00">::CMini_UART::UART_Receive</text>
<text text-anchor="middle" x="602" y="-538" font-family="Helvetica,sans-Serif" font-size="10.00">_Start_Bit</text>
</a>
</g>
</g>
<!-- Node5&#45;&gt;Node10 -->
<g id="edge9_Node000005_Node000010" class="edge">
<title>Node5&#45;&gt;Node10</title>
<g id="a_edge9_Node000005_Node000010"><a xlink:title=" ">
<path fill="none" stroke="#63b8ff" d="M470.4,-448.54C475.27,-451.09 479.9,-454.05 484,-457.5 509.28,-478.74 494.84,-501.11 520,-522.5 521.14,-523.47 522.31,-524.4 523.51,-525.31"/>
<polygon fill="#63b8ff" stroke="#63b8ff" points="521.58,-528.23 531.85,-530.86 525.46,-522.4 521.58,-528.23"/>
</a>
</g>
</g>
<!-- Node11 -->
<g id="Node000011" class="node">
<title>Node11</title>
<g id="a_Node000011"><a xlink:href="classzero__mate_1_1peripheral_1_1CMini__UART.html#af0ac73a2cea4c4fb61673803f60cf9e6" target="_top" xlink:title="Receives a stop bit.">
<polygon fill="white" stroke="#666666" points="681,-454 523,-454 523,-413 681,-413 681,-454"/>
<text text-anchor="start" x="531" y="-442" font-family="Helvetica,sans-Serif" font-size="10.00">zero_mate::peripheral</text>
<text text-anchor="start" x="531" y="-431" font-family="Helvetica,sans-Serif" font-size="10.00">::CMini_UART::UART_Receive</text>
<text text-anchor="middle" x="602" y="-420" font-family="Helvetica,sans-Serif" font-size="10.00">_Stop_Bit</text>
</a>
</g>
</g>
<!-- Node5&#45;&gt;Node11 -->
<g id="edge10_Node000005_Node000011" class="edge">
<title>Node5&#45;&gt;Node11</title>
<g id="a_edge10_Node000005_Node000011"><a xlink:title=" ">
<path fill="none" stroke="#63b8ff" d="M484.21,-433.5C493.48,-433.5 503.08,-433.5 512.62,-433.5"/>
<polygon fill="#63b8ff" stroke="#63b8ff" points="512.92,-437 522.92,-433.5 512.92,-430 512.92,-437"/>
</a>
</g>
</g>
<!-- Node8 -->
<g id="Node000008" class="node">
<title>Node8</title>
<g id="a_Node000008"><a xlink:href="classzero__mate_1_1peripheral_1_1CMini__UART.html#a2f29b39f721b4ae5acf81f61ab210325" target="_top" xlink:title="Returns the length of payload (7 or 8 bits).">
<polygon fill="white" stroke="#666666" points="857.5,-275 725.5,-275 725.5,-234 857.5,-234 857.5,-275"/>
<text text-anchor="start" x="733.5" y="-263" font-family="Helvetica,sans-Serif" font-size="10.00">zero_mate::peripheral</text>
<text text-anchor="start" x="733.5" y="-252" font-family="Helvetica,sans-Serif" font-size="10.00">::CMini_UART::Get_Char</text>
<text text-anchor="middle" x="791.5" y="-241" font-family="Helvetica,sans-Serif" font-size="10.00">_Length</text>
</a>
</g>
</g>
<!-- Node7&#45;&gt;Node8 -->
<g id="edge7_Node000007_Node000008" class="edge">
<title>Node7&#45;&gt;Node8</title>
<g id="a_edge7_Node000007_Node000008"><a xlink:title=" ">
<path fill="none" stroke="#63b8ff" d="M666.22,-294.93C682.66,-289.58 700.51,-283.78 717.41,-278.28"/>
<polygon fill="#63b8ff" stroke="#63b8ff" points="718.81,-281.5 727.24,-275.08 716.65,-274.85 718.81,-281.5"/>
</a>
</g>
</g>
<!-- Node9 -->
<g id="Node000009" class="node">
<title>Node9</title>
<g id="a_Node000009"><a xlink:href="classzero__mate_1_1peripheral_1_1CMini__UART.html#a4e01dd26b71c9c13ec8a81510cbf2450" target="_top" xlink:title="Returns the data length from a given enumeration.">
<polygon fill="white" stroke="#666666" points="857.5,-334 725.5,-334 725.5,-293 857.5,-293 857.5,-334"/>
<text text-anchor="start" x="733.5" y="-322" font-family="Helvetica,sans-Serif" font-size="10.00">zero_mate::peripheral</text>
<text text-anchor="start" x="733.5" y="-311" font-family="Helvetica,sans-Serif" font-size="10.00">::CMini_UART::Get_Char</text>
<text text-anchor="middle" x="791.5" y="-300" font-family="Helvetica,sans-Serif" font-size="10.00">_Length_Value</text>
</a>
</g>
</g>
<!-- Node7&#45;&gt;Node9 -->
<g id="edge8_Node000007_Node000009" class="edge">
<title>Node7&#45;&gt;Node9</title>
<g id="a_edge8_Node000007_Node000009"><a xlink:title=" ">
<path fill="none" stroke="#63b8ff" d="M681.16,-314.67C692.39,-314.55 703.93,-314.42 715.11,-314.3"/>
<polygon fill="#63b8ff" stroke="#63b8ff" points="715.29,-317.8 725.25,-314.2 715.21,-310.8 715.29,-317.8"/>
</a>
</g>
</g>
<!-- Node12 -->
<g id="Node000012" class="node">
<title>Node12</title>
<g id="a_Node000012"><a xlink:href="classzero__mate_1_1utils_1_1CLogging__System.html#a57ed77e1a5cf822cea532cc5e05c3f60" target="_top" xlink:title="Logs an error message via all registered loggers.">
<polygon fill="white" stroke="#666666" points="1233,-349.5 1087,-349.5 1087,-319.5 1233,-319.5 1233,-349.5"/>
<text text-anchor="start" x="1095" y="-337.5" font-family="Helvetica,sans-Serif" font-size="10.00">zero_mate::utils::CLogging</text>
<text text-anchor="middle" x="1160" y="-326.5" font-family="Helvetica,sans-Serif" font-size="10.00">_System::Error</text>
</a>
</g>
</g>
<!-- Node11&#45;&gt;Node12 -->
<g id="edge11_Node000011_Node000012" class="edge">
<title>Node11&#45;&gt;Node12</title>
<g id="a_edge11_Node000011_Node000012"><a xlink:title=" ">
<path fill="none" stroke="#63b8ff" d="M672.44,-454.05C763.55,-477.12 926.47,-504.71 1051,-450.5 1093.84,-431.85 1127.37,-386.91 1145.08,-358.75"/>
<polygon fill="#63b8ff" stroke="#63b8ff" points="1148.26,-360.27 1150.48,-349.91 1142.28,-356.63 1148.26,-360.27"/>
</a>
</g>
</g>
<!-- Node17 -->
<g id="Node000017" class="node">
<title>Node17</title>
<g id="a_Node000017"><a xlink:href="classzero__mate_1_1peripheral_1_1CMini__UART.html#aafdd369ea20fb588fdba59b98e20b3b8" target="_top" xlink:title="Returns information about a receive interrupt is enabled.">
<polygon fill="white" stroke="#666666" points="861.5,-539 721.5,-539 721.5,-498 861.5,-498 861.5,-539"/>
<text text-anchor="start" x="729.5" y="-527" font-family="Helvetica,sans-Serif" font-size="10.00">zero_mate::peripheral</text>
<text text-anchor="start" x="729.5" y="-516" font-family="Helvetica,sans-Serif" font-size="10.00">::CMini_UART::Is_Receive</text>
<text text-anchor="middle" x="791.5" y="-505" font-family="Helvetica,sans-Serif" font-size="10.00">_Interrupt_Enabled</text>
</a>
</g>
</g>
<!-- Node11&#45;&gt;Node17 -->
<g id="edge16_Node000011_Node000017" class="edge">
<title>Node11&#45;&gt;Node17</title>
<g id="a_edge16_Node000011_Node000017"><a xlink:title=" ">
<path fill="none" stroke="#63b8ff" d="M661.83,-454.08C669.37,-457.07 676.91,-460.24 684,-463.5 700.63,-471.15 703.8,-474.98 720,-483.5 726.1,-486.7 732.52,-490 738.91,-493.23"/>
<polygon fill="#63b8ff" stroke="#63b8ff" points="737.71,-496.54 748.21,-497.9 740.85,-490.29 737.71,-496.54"/>
</a>
</g>
</g>
<!-- Node18 -->
<g id="Node000018" class="node">
<title>Node18</title>
<g id="a_Node000018"><a xlink:href="classzero__mate_1_1peripheral_1_1CMini__UART.html#a8711d81118c89d5174a68d5b63ad3fac" target="_top" xlink:title="Triggers an interrupt.">
<polygon fill="white" stroke="#666666" points="863,-441.5 720,-441.5 720,-411.5 863,-411.5 863,-441.5"/>
<text text-anchor="start" x="728" y="-429.5" font-family="Helvetica,sans-Serif" font-size="10.00">zero_mate::peripheral</text>
<text text-anchor="middle" x="791.5" y="-418.5" font-family="Helvetica,sans-Serif" font-size="10.00">::CMini_UART::Trigger_IRQ</text>
</a>
</g>
</g>
<!-- Node11&#45;&gt;Node18 -->
<g id="edge17_Node000011_Node000018" class="edge">
<title>Node11&#45;&gt;Node18</title>
<g id="a_edge17_Node000011_Node000018"><a xlink:title=" ">
<path fill="none" stroke="#63b8ff" d="M681.16,-430.58C690.6,-430.23 700.27,-429.87 709.75,-429.51"/>
<polygon fill="#63b8ff" stroke="#63b8ff" points="710.09,-433 719.95,-429.13 709.82,-426.01 710.09,-433"/>
</a>
</g>
</g>
<!-- Node13 -->
<g id="Node000013" class="node">
<title>Node13</title>
<g id="a_Node000013"><a xlink:href="classzero__mate_1_1utils_1_1CLogging__System.html#a71ed11c796553cbe8fd99773406a1060" target="_top" xlink:title="Creates a formatted message to be logged.">
<polygon fill="white" stroke="#666666" points="1421,-382 1269,-382 1269,-341 1421,-341 1421,-382"/>
<text text-anchor="start" x="1277" y="-370" font-family="Helvetica,sans-Serif" font-size="10.00">zero_mate::utils::CLogging</text>
<text text-anchor="start" x="1277" y="-359" font-family="Helvetica,sans-Serif" font-size="10.00">_System::Create_Formatted</text>
<text text-anchor="middle" x="1345" y="-348" font-family="Helvetica,sans-Serif" font-size="10.00">_Log_Msg</text>
</a>
</g>
</g>
<!-- Node12&#45;&gt;Node13 -->
<g id="edge12_Node000012_Node000013" class="edge">
<title>Node12&#45;&gt;Node13</title>
<g id="a_edge12_Node000012_Node000013"><a xlink:title=" ">
<path fill="none" stroke="#63b8ff" d="M1233.06,-345.13C1241.55,-346.38 1250.26,-347.67 1258.9,-348.94"/>
<polygon fill="#63b8ff" stroke="#63b8ff" points="1258.59,-352.44 1268.99,-350.43 1259.61,-345.51 1258.59,-352.44"/>
</a>
</g>
</g>
<!-- Node16 -->
<g id="Node000016" class="node">
<title>Node16</title>
<g id="a_Node000016"><a xlink:href="classzero__mate_1_1utils_1_1CLogging__System.html#ad371c67ef65763966ccf9291002e86f3" target="_top" xlink:title="Extract the filename from a given location within the source files.">
<polygon fill="white" stroke="#666666" points="1419.5,-322.5 1270.5,-322.5 1270.5,-292.5 1419.5,-292.5 1419.5,-322.5"/>
<text text-anchor="start" x="1278.5" y="-310.5" font-family="Helvetica,sans-Serif" font-size="10.00">zero_mate::utils::CLogging</text>
<text text-anchor="middle" x="1345" y="-299.5" font-family="Helvetica,sans-Serif" font-size="10.00">_System::Extract_Filename</text>
</a>
</g>
</g>
<!-- Node12&#45;&gt;Node16 -->
<g id="edge15_Node000012_Node000016" class="edge">
<title>Node12&#45;&gt;Node16</title>
<g id="a_edge15_Node000012_Node000016"><a xlink:title=" ">
<path fill="none" stroke="#63b8ff" d="M1233.06,-323.87C1242.1,-322.53 1251.4,-321.16 1260.59,-319.81"/>
<polygon fill="#63b8ff" stroke="#63b8ff" points="1261.12,-323.27 1270.5,-318.34 1260.1,-316.34 1261.12,-323.27"/>
</a>
</g>
</g>
<!-- Node14 -->
<g id="Node000014" class="node">
<title>Node14</title>
<g id="a_Node000014"><a xlink:href="classzero__mate_1_1utils_1_1CLogging__System.html#aa70c102c805079042ffea2a6f2a5ad64" target="_top" xlink:title="Formats a given timestamp.">
<polygon fill="white" stroke="#666666" points="1617,-400.5 1457,-400.5 1457,-370.5 1617,-370.5 1617,-400.5"/>
<text text-anchor="start" x="1465" y="-388.5" font-family="Helvetica,sans-Serif" font-size="10.00">zero_mate::utils::CLogging</text>
<text text-anchor="middle" x="1537" y="-377.5" font-family="Helvetica,sans-Serif" font-size="10.00">_System::Format_Timestamp</text>
</a>
</g>
</g>
<!-- Node13&#45;&gt;Node14 -->
<g id="edge13_Node000013_Node000014" class="edge">
<title>Node13&#45;&gt;Node14</title>
<g id="a_edge13_Node000013_Node000014"><a xlink:title=" ">
<path fill="none" stroke="#63b8ff" d="M1421.09,-370.99C1429.52,-372.05 1438.16,-373.14 1446.74,-374.23"/>
<polygon fill="#63b8ff" stroke="#63b8ff" points="1446.41,-377.71 1456.77,-375.49 1447.29,-370.77 1446.41,-377.71"/>
</a>
</g>
</g>
<!-- Node15 -->
<g id="Node000015" class="node">
<title>Node15</title>
<g id="a_Node000015"><a xlink:href="classzero__mate_1_1utils_1_1CLogging__System.html#ae3ca637537dde05e0b9119145c840331" target="_top" xlink:title="Returns the current timestamp that will be used in a log message.">
<polygon fill="white" stroke="#666666" points="1610,-352.5 1464,-352.5 1464,-322.5 1610,-322.5 1610,-352.5"/>
<text text-anchor="start" x="1472" y="-340.5" font-family="Helvetica,sans-Serif" font-size="10.00">zero_mate::utils::CLogging</text>
<text text-anchor="middle" x="1537" y="-329.5" font-family="Helvetica,sans-Serif" font-size="10.00">_System::Get_Timestamp</text>
</a>
</g>
</g>
<!-- Node13&#45;&gt;Node15 -->
<g id="edge14_Node000013_Node000015" class="edge">
<title>Node13&#45;&gt;Node15</title>
<g id="a_edge14_Node000013_Node000015"><a xlink:title=" ">
<path fill="none" stroke="#63b8ff" d="M1421.09,-352.01C1431.89,-350.65 1443.05,-349.24 1453.98,-347.86"/>
<polygon fill="#63b8ff" stroke="#63b8ff" points="1454.45,-351.33 1463.93,-346.6 1453.57,-344.38 1454.45,-351.33"/>
</a>
</g>
</g>
<!-- Node19 -->
<g id="Node000019" class="node">
<title>Node19</title>
<g id="a_Node000019"><a xlink:href="classzero__mate_1_1peripheral_1_1CMini__UART.html#aeedc743fe9b70dfb0019b775e2ea714a" target="_top" xlink:title="Sets the type of a pending IRQ in the IIR register.">
<polygon fill="white" stroke="#666666" points="1048.5,-441 901.5,-441 901.5,-400 1048.5,-400 1048.5,-441"/>
<text text-anchor="start" x="909.5" y="-429" font-family="Helvetica,sans-Serif" font-size="10.00">zero_mate::peripheral</text>
<text text-anchor="start" x="909.5" y="-418" font-family="Helvetica,sans-Serif" font-size="10.00">::CMini_UART::Set_Pending</text>
<text text-anchor="middle" x="975" y="-407" font-family="Helvetica,sans-Serif" font-size="10.00">_IRQ_Type</text>
</a>
</g>
</g>
<!-- Node18&#45;&gt;Node19 -->
<g id="edge18_Node000018_Node000019" class="edge">
<title>Node18&#45;&gt;Node19</title>
<g id="a_edge18_Node000018_Node000019"><a xlink:title=" ">
<path fill="none" stroke="#63b8ff" d="M863.19,-424.16C872.4,-423.86 881.9,-423.54 891.29,-423.23"/>
<polygon fill="#63b8ff" stroke="#63b8ff" points="891.53,-426.73 901.41,-422.9 891.3,-419.73 891.53,-426.73"/>
</a>
</g>
</g>
<!-- Node21 -->
<g id="Node000021" class="node">
<title>Node21</title>
<g id="a_Node000021"><a xlink:href="classzero__mate_1_1peripheral_1_1CMini__UART.html#a2786f867a05087fc463657262594db71" target="_top" xlink:title="Returns information about whether the transmission FIFO is empty or not.">
<polygon fill="white" stroke="#666666" points="684,-100 520,-100 520,-59 684,-59 684,-100"/>
<text text-anchor="start" x="528" y="-88" font-family="Helvetica,sans-Serif" font-size="10.00">zero_mate::peripheral</text>
<text text-anchor="start" x="528" y="-77" font-family="Helvetica,sans-Serif" font-size="10.00">::CMini_UART::Is_Transmission</text>
<text text-anchor="middle" x="602" y="-66" font-family="Helvetica,sans-Serif" font-size="10.00">_FIFO_Empty</text>
</a>
</g>
</g>
<!-- Node20&#45;&gt;Node21 -->
<g id="edge20_Node000020_Node000021" class="edge">
<title>Node20&#45;&gt;Node21</title>
<g id="a_edge20_Node000020_Node000021"><a xlink:title=" ">
<path fill="none" stroke="#63b8ff" d="M429.32,-182.27C448.67,-163.1 484.29,-130.18 520,-109.5 523.01,-107.76 526.14,-106.08 529.35,-104.48"/>
<polygon fill="#63b8ff" stroke="#63b8ff" points="530.97,-107.58 538.53,-100.15 527.99,-101.25 530.97,-107.58"/>
</a>
</g>
</g>
<!-- Node22 -->
<g id="Node000022" class="node">
<title>Node22</title>
<g id="a_Node000022"><a xlink:href="classzero__mate_1_1peripheral_1_1CMini__UART.html#a968340fbf2802af5178531146bca03c8" target="_top" xlink:title="Returns information about whether the transmitter is enabled or not.">
<polygon fill="white" stroke="#666666" points="680,-41 524,-41 524,0 680,0 680,-41"/>
<text text-anchor="start" x="532" y="-29" font-family="Helvetica,sans-Serif" font-size="10.00">zero_mate::peripheral</text>
<text text-anchor="start" x="532" y="-18" font-family="Helvetica,sans-Serif" font-size="10.00">::CMini_UART::Is_Transmitter</text>
<text text-anchor="middle" x="602" y="-7" font-family="Helvetica,sans-Serif" font-size="10.00">_Enabled</text>
</a>
</g>
</g>
<!-- Node20&#45;&gt;Node22 -->
<g id="edge21_Node000020_Node000022" class="edge">
<title>Node20&#45;&gt;Node22</title>
<g id="a_edge21_Node000020_Node000022"><a xlink:title=" ">
<path fill="none" stroke="#63b8ff" d="M421.48,-182.16C435.77,-152.38 471.18,-86.43 520,-49.5 521.39,-48.45 522.83,-47.43 524.3,-46.45"/>
<polygon fill="#63b8ff" stroke="#63b8ff" points="526.28,-49.34 533.04,-41.19 522.67,-43.34 526.28,-49.34"/>
</a>
</g>
</g>
<!-- Node23 -->
<g id="Node000023" class="node">
<title>Node23</title>
<g id="a_Node000023"><a xlink:href="classzero__mate_1_1peripheral_1_1CMini__UART.html#af791add34c2efc17007de9d20185b24d" target="_top" xlink:title="Resets transmission (end of the current UART frame).">
<polygon fill="white" stroke="#666666" points="675,-395 529,-395 529,-354 675,-354 675,-395"/>
<text text-anchor="start" x="537" y="-383" font-family="Helvetica,sans-Serif" font-size="10.00">zero_mate::peripheral</text>
<text text-anchor="start" x="537" y="-372" font-family="Helvetica,sans-Serif" font-size="10.00">::CMini_UART::UART_Reset</text>
<text text-anchor="middle" x="602" y="-361" font-family="Helvetica,sans-Serif" font-size="10.00">_Transmission</text>
</a>
</g>
</g>
<!-- Node20&#45;&gt;Node23 -->
<g id="edge22_Node000020_Node000023" class="edge">
<title>Node20&#45;&gt;Node23</title>
<g id="a_edge22_Node000020_Node000023"><a xlink:title=" ">
<path fill="none" stroke="#63b8ff" d="M421.48,-212.84C435.77,-242.62 471.18,-308.57 520,-345.5 521.39,-346.55 522.83,-347.57 524.3,-348.55"/>
<polygon fill="#63b8ff" stroke="#63b8ff" points="522.67,-351.66 533.04,-353.81 526.28,-345.66 522.67,-351.66"/>
</a>
</g>
</g>
<!-- Node25 -->
<g id="Node000025" class="node">
<title>Node25</title>
<g id="a_Node000025"><a xlink:href="classzero__mate_1_1peripheral_1_1CMini__UART.html#a2c1cebe25a3de866fb30387c9d3e1093" target="_top" xlink:title="Sends another bit of the current payload (actual data).">
<polygon fill="white" stroke="#666666" points="673.5,-277 530.5,-277 530.5,-236 673.5,-236 673.5,-277"/>
<text text-anchor="start" x="538.5" y="-265" font-family="Helvetica,sans-Serif" font-size="10.00">zero_mate::peripheral</text>
<text text-anchor="start" x="538.5" y="-254" font-family="Helvetica,sans-Serif" font-size="10.00">::CMini_UART::UART_Send</text>
<text text-anchor="middle" x="602" y="-243" font-family="Helvetica,sans-Serif" font-size="10.00">_Payload</text>
</a>
</g>
</g>
<!-- Node20&#45;&gt;Node25 -->
<g id="edge25_Node000020_Node000025" class="edge">
<title>Node20&#45;&gt;Node25</title>
<g id="a_edge25_Node000020_Node000025"><a xlink:title=" ">
<path fill="none" stroke="#63b8ff" d="M462.04,-212.54C481.51,-218.7 504.51,-225.97 526.13,-232.81"/>
<polygon fill="#63b8ff" stroke="#63b8ff" points="525.36,-236.24 535.95,-235.92 527.47,-229.57 525.36,-236.24"/>
</a>
</g>
</g>
<!-- Node28 -->
<g id="Node000028" class="node">
<title>Node28</title>
<g id="a_Node000028"><a xlink:href="classzero__mate_1_1peripheral_1_1CMini__UART.html#a8af3940e255317e7282402dce11c2d33" target="_top" xlink:title="Sends a start bit.">
<polygon fill="white" stroke="#666666" points="673.5,-159 530.5,-159 530.5,-118 673.5,-118 673.5,-159"/>
<text text-anchor="start" x="538.5" y="-147" font-family="Helvetica,sans-Serif" font-size="10.00">zero_mate::peripheral</text>
<text text-anchor="start" x="538.5" y="-136" font-family="Helvetica,sans-Serif" font-size="10.00">::CMini_UART::UART_Send</text>
<text text-anchor="middle" x="602" y="-125" font-family="Helvetica,sans-Serif" font-size="10.00">_Start_Bit</text>
</a>
</g>
</g>
<!-- Node20&#45;&gt;Node28 -->
<g id="edge31_Node000020_Node000028" class="edge">
<title>Node20&#45;&gt;Node28</title>
<g id="a_edge31_Node000020_Node000028"><a xlink:title=" ">
<path fill="none" stroke="#63b8ff" d="M462.04,-182.46C481.51,-176.3 504.51,-169.03 526.13,-162.19"/>
<polygon fill="#63b8ff" stroke="#63b8ff" points="527.47,-165.43 535.95,-159.08 525.36,-158.76 527.47,-165.43"/>
</a>
</g>
</g>
<!-- Node29 -->
<g id="Node000029" class="node">
<title>Node29</title>
<g id="a_Node000029"><a xlink:href="classzero__mate_1_1peripheral_1_1CMini__UART.html#ad15628b6f928101a1844704a58b11cdb" target="_top" xlink:title="Sends a stop bit.">
<polygon fill="white" stroke="#666666" points="673.5,-218 530.5,-218 530.5,-177 673.5,-177 673.5,-218"/>
<text text-anchor="start" x="538.5" y="-206" font-family="Helvetica,sans-Serif" font-size="10.00">zero_mate::peripheral</text>
<text text-anchor="start" x="538.5" y="-195" font-family="Helvetica,sans-Serif" font-size="10.00">::CMini_UART::UART_Send</text>
<text text-anchor="middle" x="602" y="-184" font-family="Helvetica,sans-Serif" font-size="10.00">_Stop_bit</text>
</a>
</g>
</g>
<!-- Node20&#45;&gt;Node29 -->
<g id="edge33_Node000020_Node000029" class="edge">
<title>Node20&#45;&gt;Node29</title>
<g id="a_edge33_Node000020_Node000029"><a xlink:title=" ">
<path fill="none" stroke="#63b8ff" d="M483.68,-197.5C495.59,-197.5 508.05,-197.5 520.23,-197.5"/>
<polygon fill="#63b8ff" stroke="#63b8ff" points="520.37,-201 530.37,-197.5 520.37,-194 520.37,-201"/>
</a>
</g>
</g>
<!-- Node23&#45;&gt;Node18 -->
<g id="edge24_Node000023_Node000018" class="edge">
<title>Node23&#45;&gt;Node18</title>
<g id="a_edge24_Node000023_Node000018"><a xlink:title=" ">
<path fill="none" stroke="#63b8ff" d="M675.22,-394.53C692.05,-399.2 709.86,-404.14 726.32,-408.7"/>
<polygon fill="#63b8ff" stroke="#63b8ff" points="725.8,-412.19 736.37,-411.49 727.67,-405.44 725.8,-412.19"/>
</a>
</g>
</g>
<!-- Node24 -->
<g id="Node000024" class="node">
<title>Node24</title>
<g id="a_Node000024"><a xlink:href="classzero__mate_1_1peripheral_1_1CMini__UART.html#a1e54d90a036d327e36d06a74be1595c3" target="_top" xlink:title="Returns information about a transmit interrupt is enabled.">
<polygon fill="white" stroke="#666666" points="863,-393 720,-393 720,-352 863,-352 863,-393"/>
<text text-anchor="start" x="728" y="-381" font-family="Helvetica,sans-Serif" font-size="10.00">zero_mate::peripheral</text>
<text text-anchor="start" x="728" y="-370" font-family="Helvetica,sans-Serif" font-size="10.00">::CMini_UART::Is_Transmit</text>
<text text-anchor="middle" x="791.5" y="-359" font-family="Helvetica,sans-Serif" font-size="10.00">_Interrupt_Enabled</text>
</a>
</g>
</g>
<!-- Node23&#45;&gt;Node24 -->
<g id="edge23_Node000023_Node000024" class="edge">
<title>Node23&#45;&gt;Node24</title>
<g id="a_edge23_Node000023_Node000024"><a xlink:title=" ">
<path fill="none" stroke="#63b8ff" d="M675.22,-373.73C686.55,-373.61 698.33,-373.48 709.83,-373.36"/>
<polygon fill="#63b8ff" stroke="#63b8ff" points="709.9,-376.86 719.86,-373.25 709.82,-369.86 709.9,-376.86"/>
</a>
</g>
</g>
<!-- Node25&#45;&gt;Node8 -->
<g id="edge26_Node000025_Node000008" class="edge">
<title>Node25&#45;&gt;Node8</title>
<g id="a_edge26_Node000025_Node000008"><a xlink:title=" ">
<path fill="none" stroke="#63b8ff" d="M673.62,-255.75C687.1,-255.6 701.27,-255.45 714.9,-255.31"/>
<polygon fill="#63b8ff" stroke="#63b8ff" points="715.24,-258.8 725.2,-255.2 715.16,-251.8 715.24,-258.8"/>
</a>
</g>
</g>
<!-- Node25&#45;&gt;Node9 -->
<g id="edge27_Node000025_Node000009" class="edge">
<title>Node25&#45;&gt;Node9</title>
<g id="a_edge27_Node000025_Node000009"><a xlink:title=" ">
<path fill="none" stroke="#63b8ff" d="M670.69,-277.08C685.32,-281.53 700.87,-286.25 715.75,-290.78"/>
<polygon fill="#63b8ff" stroke="#63b8ff" points="714.83,-294.15 725.41,-293.71 716.87,-287.46 714.83,-294.15"/>
</a>
</g>
</g>
<!-- Node26 -->
<g id="Node000026" class="node">
<title>Node26</title>
<g id="a_Node000026"><a xlink:href="classzero__mate_1_1peripheral_1_1CMini__UART.html#aa97db5d47b819acd85beda1dc91cb355" target="_top" xlink:title="Sets the state of the TX pin.">
<polygon fill="white" stroke="#666666" points="862,-214.5 721,-214.5 721,-184.5 862,-184.5 862,-214.5"/>
<text text-anchor="start" x="729" y="-202.5" font-family="Helvetica,sans-Serif" font-size="10.00">zero_mate::peripheral</text>
<text text-anchor="middle" x="791.5" y="-191.5" font-family="Helvetica,sans-Serif" font-size="10.00">::CMini_UART::Set_TX_Pin</text>
</a>
</g>
</g>
<!-- Node25&#45;&gt;Node26 -->
<g id="edge28_Node000025_Node000026" class="edge">
<title>Node25&#45;&gt;Node26</title>
<g id="a_edge28_Node000025_Node000026"><a xlink:title=" ">
<path fill="none" stroke="#63b8ff" d="M670.69,-235.92C690.61,-229.87 712.24,-223.29 731.57,-217.42"/>
<polygon fill="#63b8ff" stroke="#63b8ff" points="732.6,-220.76 741.14,-214.5 730.56,-214.06 732.6,-220.76"/>
</a>
</g>
</g>
<!-- Node27 -->
<g id="Node000027" class="node">
<title>Node27</title>
<g id="a_Node000027"><a xlink:href="classzero__mate_1_1peripheral_1_1CMini__UART.html#a9243af4f42d118a598a00c0f79d366e1" target="_top" xlink:title="Sets the state of a given GPIO pin.">
<polygon fill="white" stroke="#666666" points="1051,-298.5 899,-298.5 899,-268.5 1051,-268.5 1051,-298.5"/>
<text text-anchor="start" x="907" y="-286.5" font-family="Helvetica,sans-Serif" font-size="10.00">zero_mate::peripheral</text>
<text text-anchor="middle" x="975" y="-275.5" font-family="Helvetica,sans-Serif" font-size="10.00">::CMini_UART::Set_GPIO_pin</text>
</a>
</g>
</g>
<!-- Node26&#45;&gt;Node27 -->
<g id="edge29_Node000026_Node000027" class="edge">
<title>Node26&#45;&gt;Node27</title>
<g id="a_edge29_Node000026_Node000027"><a xlink:title=" ">
<path fill="none" stroke="#63b8ff" d="M836.1,-214.59C845.08,-217.97 854.41,-221.69 863,-225.5 888.91,-236.99 917.22,-251.82 938.77,-263.61"/>
<polygon fill="#63b8ff" stroke="#63b8ff" points="937.11,-266.69 947.56,-268.46 940.49,-260.56 937.11,-266.69"/>
</a>
</g>
</g>
<!-- Node27&#45;&gt;Node12 -->
<g id="edge30_Node000027_Node000012" class="edge">
<title>Node27&#45;&gt;Node12</title>
<g id="a_edge30_Node000027_Node000012"><a xlink:title=" ">
<path fill="none" stroke="#63b8ff" d="M1029.92,-298.53C1050.49,-304.26 1074.13,-310.85 1095.51,-316.81"/>
<polygon fill="#63b8ff" stroke="#63b8ff" points="1094.58,-320.18 1105.15,-319.49 1096.46,-313.44 1094.58,-320.18"/>
</a>
</g>
</g>
<!-- Node28&#45;&gt;Node26 -->
<g id="edge32_Node000028_Node000026" class="edge">
<title>Node28&#45;&gt;Node26</title>
<g id="a_edge32_Node000028_Node000026"><a xlink:title=" ">
<path fill="none" stroke="#63b8ff" d="M666.22,-159.07C688.34,-166.27 713.02,-174.29 734.51,-181.29"/>
<polygon fill="#63b8ff" stroke="#63b8ff" points="733.55,-184.65 744.14,-184.42 735.72,-178 733.55,-184.65"/>
</a>
</g>
</g>
<!-- Node29&#45;&gt;Node26 -->
<g id="edge34_Node000029_Node000026" class="edge">
<title>Node29&#45;&gt;Node26</title>
<g id="a_edge34_Node000029_Node000026"><a xlink:title=" ">
<path fill="none" stroke="#63b8ff" d="M673.62,-198.25C685.7,-198.38 698.33,-198.52 710.64,-198.65"/>
<polygon fill="#63b8ff" stroke="#63b8ff" points="710.84,-202.15 720.88,-198.76 710.92,-195.15 710.84,-202.15"/>
</a>
</g>
</g>
</g>
</svg>
