<?xml version="1.0" encoding="UTF-8" standalone="no"?>
<!DOCTYPE svg PUBLIC "-//W3C//DTD SVG 1.1//EN"
 "http://www.w3.org/Graphics/SVG/1.1/DTD/svg11.dtd">
<!-- Generated by graphviz version 2.43.0 (0)
 -->
<!-- Title: zero_mate::arm1176jzf_s::CCPU_Core::Perform_Coprocessor_Accessibility_Checks Pages: 1 -->
<svg width="952pt" height="178pt"
 viewBox="0.00 0.00 952.00 177.50" xmlns="http://www.w3.org/2000/svg" xmlns:xlink="http://www.w3.org/1999/xlink">
<g id="graph0" class="graph" transform="scale(1 1) rotate(0) translate(4 173.5)">
<title>zero_mate::arm1176jzf_s::CCPU_Core::Perform_Coprocessor_Accessibility_Checks</title>
<!-- Node1 -->
<g id="Node000001" class="node">
<title>Node1</title>
<g id="a_Node000001"><a xlink:title="Performs coprocessor accessibility checks.">
<polygon fill="#999999" stroke="#666666" points="189,-70 0,-70 0,-29 189,-29 189,-70"/>
<text text-anchor="start" x="8" y="-58" font-family="Helvetica,sans-Serif" font-size="10.00">zero_mate::arm1176jzf</text>
<text text-anchor="start" x="8" y="-47" font-family="Helvetica,sans-Serif" font-size="10.00">_s::CCPU_Core::Perform</text>
<text text-anchor="middle" x="94.5" y="-36" font-family="Helvetica,sans-Serif" font-size="10.00">_Coprocessor_Accessibility_Checks</text>
</a>
</g>
</g>
<!-- Node2 -->
<g id="Node000002" class="node">
<title>Node2</title>
<g id="a_Node000002"><a xlink:href="classzero__mate_1_1arm1176jzf__s_1_1CCPU__Core.html#a91c67a1c5fa304f2a58e0ab07ce7e8ac" target="_top" xlink:title="Checks whether a given coprocessor is present or not.">
<polygon fill="white" stroke="#666666" points="367,-100 236,-100 236,-59 367,-59 367,-100"/>
<text text-anchor="start" x="244" y="-88" font-family="Helvetica,sans-Serif" font-size="10.00">zero_mate::arm1176jzf</text>
<text text-anchor="start" x="244" y="-77" font-family="Helvetica,sans-Serif" font-size="10.00">_s::CCPU_Core::Check</text>
<text text-anchor="middle" x="301.5" y="-66" font-family="Helvetica,sans-Serif" font-size="10.00">_Coprocessor_Presence</text>
</a>
</g>
</g>
<!-- Node1&#45;&gt;Node2 -->
<g id="edge1_Node000001_Node000002" class="edge">
<title>Node1&#45;&gt;Node2</title>
<g id="a_edge1_Node000001_Node000002"><a xlink:title=" ">
<path fill="none" stroke="#63b8ff" d="M189,-63.18C201.38,-64.99 213.93,-66.83 225.93,-68.59"/>
<polygon fill="#63b8ff" stroke="#63b8ff" points="225.46,-72.06 235.86,-70.04 226.47,-65.13 225.46,-72.06"/>
</a>
</g>
</g>
<!-- Node8 -->
<g id="Node000008" class="node">
<title>Node8</title>
<g id="a_Node000008"><a xlink:href="classzero__mate_1_1arm1176jzf__s_1_1CCPU__Core.html#a0dbd5d6ffc531f762b49956d27f93be3" target="_top" xlink:title="Checks whether a given coprocessor can be accessed from the current CPU mode.">
<polygon fill="white" stroke="#666666" points="378,-41 225,-41 225,0 378,0 378,-41"/>
<text text-anchor="start" x="233" y="-29" font-family="Helvetica,sans-Serif" font-size="10.00">zero_mate::arm1176jzf</text>
<text text-anchor="start" x="233" y="-18" font-family="Helvetica,sans-Serif" font-size="10.00">_s::CCPU_Core::Checks</text>
<text text-anchor="middle" x="301.5" y="-7" font-family="Helvetica,sans-Serif" font-size="10.00">_Coprocessor_Access_Mode</text>
</a>
</g>
</g>
<!-- Node1&#45;&gt;Node8 -->
<g id="edge7_Node000001_Node000008" class="edge">
<title>Node1&#45;&gt;Node8</title>
<g id="a_edge7_Node000001_Node000008"><a xlink:title=" ">
<path fill="none" stroke="#63b8ff" d="M189,-36.27C197.65,-35.05 206.39,-33.81 214.97,-32.6"/>
<polygon fill="#63b8ff" stroke="#63b8ff" points="215.53,-36.05 224.95,-31.19 214.55,-29.12 215.53,-36.05"/>
</a>
</g>
</g>
<!-- Node3 -->
<g id="Node000003" class="node">
<title>Node3</title>
<g id="a_Node000003"><a xlink:href="classzero__mate_1_1utils_1_1CLogging__System.html#a57ed77e1a5cf822cea532cc5e05c3f60" target="_top" xlink:title="Logs an error message via all registered loggers.">
<polygon fill="white" stroke="#666666" points="560,-92.5 414,-92.5 414,-62.5 560,-62.5 560,-92.5"/>
<text text-anchor="start" x="422" y="-80.5" font-family="Helvetica,sans-Serif" font-size="10.00">zero_mate::utils::CLogging</text>
<text text-anchor="middle" x="487" y="-69.5" font-family="Helvetica,sans-Serif" font-size="10.00">_System::Error</text>
</a>
</g>
</g>
<!-- Node2&#45;&gt;Node3 -->
<g id="edge2_Node000002_Node000003" class="edge">
<title>Node2&#45;&gt;Node3</title>
<g id="a_edge2_Node000002_Node000003"><a xlink:title=" ">
<path fill="none" stroke="#63b8ff" d="M367.2,-78.79C378.96,-78.67 391.39,-78.53 403.59,-78.4"/>
<polygon fill="#63b8ff" stroke="#63b8ff" points="403.8,-81.9 413.76,-78.29 403.72,-74.9 403.8,-81.9"/>
</a>
</g>
</g>
<!-- Node4 -->
<g id="Node000004" class="node">
<title>Node4</title>
<g id="a_Node000004"><a xlink:href="classzero__mate_1_1utils_1_1CLogging__System.html#a71ed11c796553cbe8fd99773406a1060" target="_top" xlink:title="Creates a formatted message to be logged.">
<polygon fill="white" stroke="#666666" points="748,-151 596,-151 596,-110 748,-110 748,-151"/>
<text text-anchor="start" x="604" y="-139" font-family="Helvetica,sans-Serif" font-size="10.00">zero_mate::utils::CLogging</text>
<text text-anchor="start" x="604" y="-128" font-family="Helvetica,sans-Serif" font-size="10.00">_System::Create_Formatted</text>
<text text-anchor="middle" x="672" y="-117" font-family="Helvetica,sans-Serif" font-size="10.00">_Log_Msg</text>
</a>
</g>
</g>
<!-- Node3&#45;&gt;Node4 -->
<g id="edge3_Node000003_Node000004" class="edge">
<title>Node3&#45;&gt;Node4</title>
<g id="a_edge3_Node000003_Node000004"><a xlink:title=" ">
<path fill="none" stroke="#63b8ff" d="M539.95,-92.55C555.59,-97.07 573.13,-102.15 590.17,-107.09"/>
<polygon fill="#63b8ff" stroke="#63b8ff" points="589.55,-110.55 600.13,-109.97 591.5,-103.83 589.55,-110.55"/>
</a>
</g>
</g>
<!-- Node7 -->
<g id="Node000007" class="node">
<title>Node7</title>
<g id="a_Node000007"><a xlink:href="classzero__mate_1_1utils_1_1CLogging__System.html#ad371c67ef65763966ccf9291002e86f3" target="_top" xlink:title="Extract the filename from a given location within the source files.">
<polygon fill="white" stroke="#666666" points="746.5,-91.5 597.5,-91.5 597.5,-61.5 746.5,-61.5 746.5,-91.5"/>
<text text-anchor="start" x="605.5" y="-79.5" font-family="Helvetica,sans-Serif" font-size="10.00">zero_mate::utils::CLogging</text>
<text text-anchor="middle" x="672" y="-68.5" font-family="Helvetica,sans-Serif" font-size="10.00">_System::Extract_Filename</text>
</a>
</g>
</g>
<!-- Node3&#45;&gt;Node7 -->
<g id="edge6_Node000003_Node000007" class="edge">
<title>Node3&#45;&gt;Node7</title>
<g id="a_edge6_Node000003_Node000007"><a xlink:title=" ">
<path fill="none" stroke="#63b8ff" d="M560.06,-77.11C569,-77.06 578.2,-77.01 587.29,-76.96"/>
<polygon fill="#63b8ff" stroke="#63b8ff" points="587.52,-80.46 597.5,-76.9 587.48,-73.46 587.52,-80.46"/>
</a>
</g>
</g>
<!-- Node5 -->
<g id="Node000005" class="node">
<title>Node5</title>
<g id="a_Node000005"><a xlink:href="classzero__mate_1_1utils_1_1CLogging__System.html#aa70c102c805079042ffea2a6f2a5ad64" target="_top" xlink:title="Formats a given timestamp.">
<polygon fill="white" stroke="#666666" points="944,-169.5 784,-169.5 784,-139.5 944,-139.5 944,-169.5"/>
<text text-anchor="start" x="792" y="-157.5" font-family="Helvetica,sans-Serif" font-size="10.00">zero_mate::utils::CLogging</text>
<text text-anchor="middle" x="864" y="-146.5" font-family="Helvetica,sans-Serif" font-size="10.00">_System::Format_Timestamp</text>
</a>
</g>
</g>
<!-- Node4&#45;&gt;Node5 -->
<g id="edge4_Node000004_Node000005" class="edge">
<title>Node4&#45;&gt;Node5</title>
<g id="a_edge4_Node000004_Node000005"><a xlink:title=" ">
<path fill="none" stroke="#63b8ff" d="M748.09,-139.99C756.52,-141.05 765.16,-142.14 773.74,-143.23"/>
<polygon fill="#63b8ff" stroke="#63b8ff" points="773.41,-146.71 783.77,-144.49 774.29,-139.77 773.41,-146.71"/>
</a>
</g>
</g>
<!-- Node6 -->
<g id="Node000006" class="node">
<title>Node6</title>
<g id="a_Node000006"><a xlink:href="classzero__mate_1_1utils_1_1CLogging__System.html#ae3ca637537dde05e0b9119145c840331" target="_top" xlink:title="Returns the current timestamp that will be used in a log message.">
<polygon fill="white" stroke="#666666" points="937,-121.5 791,-121.5 791,-91.5 937,-91.5 937,-121.5"/>
<text text-anchor="start" x="799" y="-109.5" font-family="Helvetica,sans-Serif" font-size="10.00">zero_mate::utils::CLogging</text>
<text text-anchor="middle" x="864" y="-98.5" font-family="Helvetica,sans-Serif" font-size="10.00">_System::Get_Timestamp</text>
</a>
</g>
</g>
<!-- Node4&#45;&gt;Node6 -->
<g id="edge5_Node000004_Node000006" class="edge">
<title>Node4&#45;&gt;Node6</title>
<g id="a_edge5_Node000004_Node000006"><a xlink:title=" ">
<path fill="none" stroke="#63b8ff" d="M748.09,-121.01C758.89,-119.65 770.05,-118.24 780.98,-116.86"/>
<polygon fill="#63b8ff" stroke="#63b8ff" points="781.45,-120.33 790.93,-115.6 780.57,-113.38 781.45,-120.33"/>
</a>
</g>
</g>
<!-- Node8&#45;&gt;Node3 -->
<g id="edge8_Node000008_Node000003" class="edge">
<title>Node8&#45;&gt;Node3</title>
<g id="a_edge8_Node000008_Node000003"><a xlink:title=" ">
<path fill="none" stroke="#63b8ff" d="M368.75,-41.08C388.16,-47.11 409.22,-53.65 428.06,-59.5"/>
<polygon fill="#63b8ff" stroke="#63b8ff" points="427.11,-62.87 437.7,-62.5 429.19,-56.19 427.11,-62.87"/>
</a>
</g>
</g>
<!-- Node9 -->
<g id="Node000009" class="node">
<title>Node9</title>
<g id="a_Node000009"><a xlink:href="classzero__mate_1_1arm1176jzf__s_1_1CCPU__Context.html#a573470217091c27cf30f1411ea453e5d" target="_top" xlink:title="Checks if the CPU is in a privileged mode.">
<polygon fill="white" stroke="#666666" points="552,-41 422,-41 422,0 552,0 552,-41"/>
<text text-anchor="start" x="430" y="-29" font-family="Helvetica,sans-Serif" font-size="10.00">zero_mate::arm1176jzf</text>
<text text-anchor="start" x="430" y="-18" font-family="Helvetica,sans-Serif" font-size="10.00">_s::CCPU_Context::Is</text>
<text text-anchor="middle" x="487" y="-7" font-family="Helvetica,sans-Serif" font-size="10.00">_In_Privileged_Mode</text>
</a>
</g>
</g>
<!-- Node8&#45;&gt;Node9 -->
<g id="edge9_Node000008_Node000009" class="edge">
<title>Node8&#45;&gt;Node9</title>
<g id="a_edge9_Node000008_Node000009"><a xlink:title=" ">
<path fill="none" stroke="#63b8ff" d="M378.2,-20.5C389.31,-20.5 400.74,-20.5 411.82,-20.5"/>
<polygon fill="#63b8ff" stroke="#63b8ff" points="411.88,-24 421.88,-20.5 411.88,-17 411.88,-24"/>
</a>
</g>
</g>
<!-- Node10 -->
<g id="Node000010" class="node">
<title>Node10</title>
<g id="a_Node000010"><a xlink:href="classzero__mate_1_1arm1176jzf__s_1_1CCPU__Context.html#aa740f9219bb413d707ac72f373e60d3a" target="_top" xlink:title="Returns the current mode of the CPU.">
<polygon fill="white" stroke="#666666" points="737,-41 607,-41 607,0 737,0 737,-41"/>
<text text-anchor="start" x="615" y="-29" font-family="Helvetica,sans-Serif" font-size="10.00">zero_mate::arm1176jzf</text>
<text text-anchor="start" x="615" y="-18" font-family="Helvetica,sans-Serif" font-size="10.00">_s::CCPU_Context::Get</text>
<text text-anchor="middle" x="672" y="-7" font-family="Helvetica,sans-Serif" font-size="10.00">_CPU_Mode</text>
</a>
</g>
</g>
<!-- Node9&#45;&gt;Node10 -->
<g id="edge10_Node000009_Node000010" class="edge">
<title>Node9&#45;&gt;Node10</title>
<g id="a_edge10_Node000009_Node000010"><a xlink:title=" ">
<path fill="none" stroke="#63b8ff" d="M552,-20.5C566.41,-20.5 581.81,-20.5 596.6,-20.5"/>
<polygon fill="#63b8ff" stroke="#63b8ff" points="596.72,-24 606.72,-20.5 596.72,-17 596.72,-24"/>
</a>
</g>
</g>
</g>
</svg>
