<?xml version="1.0" encoding="UTF-8" standalone="no"?>
<!DOCTYPE svg PUBLIC "-//W3C//DTD SVG 1.1//EN"
 "http://www.w3.org/Graphics/SVG/1.1/DTD/svg11.dtd">
<!-- Generated by graphviz version 2.43.0 (0)
 -->
<!-- Title: zero_mate::peripheral::CMini_UART::UART_Reset_Transmission Pages: 1 -->
<svg width="516pt" height="103pt"
 viewBox="0.00 0.00 516.00 103.00" xmlns="http://www.w3.org/2000/svg" xmlns:xlink="http://www.w3.org/1999/xlink">
<g id="graph0" class="graph" transform="scale(1 1) rotate(0) translate(4 99)">
<title>zero_mate::peripheral::CMini_UART::UART_Reset_Transmission</title>
<!-- Node1 -->
<g id="Node000001" class="node">
<title>Node1</title>
<g id="a_Node000001"><a xlink:title="Resets transmission (end of the current UART frame).">
<polygon fill="#999999" stroke="#666666" points="146,-68 0,-68 0,-27 146,-27 146,-68"/>
<text text-anchor="start" x="8" y="-56" font-family="Helvetica,sans-Serif" font-size="10.00">zero_mate::peripheral</text>
<text text-anchor="start" x="8" y="-45" font-family="Helvetica,sans-Serif" font-size="10.00">::CMini_UART::UART_Reset</text>
<text text-anchor="middle" x="73" y="-34" font-family="Helvetica,sans-Serif" font-size="10.00">_Transmission</text>
</a>
</g>
</g>
<!-- Node2 -->
<g id="Node000002" class="node">
<title>Node2</title>
<g id="a_Node000002"><a xlink:href="classzero__mate_1_1peripheral_1_1CMini__UART.html#a1e54d90a036d327e36d06a74be1595c3" target="_top" xlink:title="Returns information about a transmit interrupt is enabled.">
<polygon fill="white" stroke="#666666" points="325,-95 182,-95 182,-54 325,-54 325,-95"/>
<text text-anchor="start" x="190" y="-83" font-family="Helvetica,sans-Serif" font-size="10.00">zero_mate::peripheral</text>
<text text-anchor="start" x="190" y="-72" font-family="Helvetica,sans-Serif" font-size="10.00">::CMini_UART::Is_Transmit</text>
<text text-anchor="middle" x="253.5" y="-61" font-family="Helvetica,sans-Serif" font-size="10.00">_Interrupt_Enabled</text>
</a>
</g>
</g>
<!-- Node1&#45;&gt;Node2 -->
<g id="edge1_Node000001_Node000002" class="edge">
<title>Node1&#45;&gt;Node2</title>
<g id="a_edge1_Node000001_Node000002"><a xlink:title=" ">
<path fill="none" stroke="#63b8ff" d="M146.09,-58.4C154.57,-59.69 163.27,-61 171.86,-62.3"/>
<polygon fill="#63b8ff" stroke="#63b8ff" points="171.47,-65.78 181.88,-63.82 172.52,-58.86 171.47,-65.78"/>
</a>
</g>
</g>
<!-- Node3 -->
<g id="Node000003" class="node">
<title>Node3</title>
<g id="a_Node000003"><a xlink:href="classzero__mate_1_1peripheral_1_1CMini__UART.html#a8711d81118c89d5174a68d5b63ad3fac" target="_top" xlink:title="Triggers an interrupt.">
<polygon fill="white" stroke="#666666" points="325,-35.5 182,-35.5 182,-5.5 325,-5.5 325,-35.5"/>
<text text-anchor="start" x="190" y="-23.5" font-family="Helvetica,sans-Serif" font-size="10.00">zero_mate::peripheral</text>
<text text-anchor="middle" x="253.5" y="-12.5" font-family="Helvetica,sans-Serif" font-size="10.00">::CMini_UART::Trigger_IRQ</text>
</a>
</g>
</g>
<!-- Node1&#45;&gt;Node3 -->
<g id="edge2_Node000001_Node000003" class="edge">
<title>Node1&#45;&gt;Node3</title>
<g id="a_edge2_Node000001_Node000003"><a xlink:title=" ">
<path fill="none" stroke="#63b8ff" d="M146.09,-36.6C154.57,-35.31 163.27,-34 171.86,-32.7"/>
<polygon fill="#63b8ff" stroke="#63b8ff" points="172.52,-36.14 181.88,-31.18 171.47,-29.22 172.52,-36.14"/>
</a>
</g>
</g>
<!-- Node4 -->
<g id="Node000004" class="node">
<title>Node4</title>
<g id="a_Node000004"><a xlink:href="classzero__mate_1_1peripheral_1_1CMini__UART.html#aeedc743fe9b70dfb0019b775e2ea714a" target="_top" xlink:title="Sets the type of a pending IRQ in the IIR register.">
<polygon fill="white" stroke="#666666" points="508,-41 361,-41 361,0 508,0 508,-41"/>
<text text-anchor="start" x="369" y="-29" font-family="Helvetica,sans-Serif" font-size="10.00">zero_mate::peripheral</text>
<text text-anchor="start" x="369" y="-18" font-family="Helvetica,sans-Serif" font-size="10.00">::CMini_UART::Set_Pending</text>
<text text-anchor="middle" x="434.5" y="-7" font-family="Helvetica,sans-Serif" font-size="10.00">_IRQ_Type</text>
</a>
</g>
</g>
<!-- Node3&#45;&gt;Node4 -->
<g id="edge3_Node000003_Node000004" class="edge">
<title>Node3&#45;&gt;Node4</title>
<g id="a_edge3_Node000003_Node000004"><a xlink:title=" ">
<path fill="none" stroke="#63b8ff" d="M325.25,-20.5C333.67,-20.5 342.33,-20.5 350.91,-20.5"/>
<polygon fill="#63b8ff" stroke="#63b8ff" points="350.92,-24 360.92,-20.5 350.92,-17 350.92,-24"/>
</a>
</g>
</g>
</g>
</svg>
