<?xml version="1.0" encoding="UTF-8" standalone="no"?>
<!DOCTYPE svg PUBLIC "-//W3C//DTD SVG 1.1//EN"
 "http://www.w3.org/Graphics/SVG/1.1/DTD/svg11.dtd">
<!-- Generated by graphviz version 2.43.0 (0)
 -->
<!-- Title: zero_mate::gui::CLog_Window::Render_Clear_Button Pages: 1 -->
<svg width="470pt" height="49pt"
 viewBox="0.00 0.00 470.00 49.00" xmlns="http://www.w3.org/2000/svg" xmlns:xlink="http://www.w3.org/1999/xlink">
<g id="graph0" class="graph" transform="scale(1 1) rotate(0) translate(4 45)">
<title>zero_mate::gui::CLog_Window::Render_Clear_Button</title>
<!-- Node1 -->
<g id="Node000001" class="node">
<title>Node1</title>
<g id="a_Node000001"><a xlink:title="Renders a clear button for clearing the message area.">
<polygon fill="#999999" stroke="#666666" points="131,-41 0,-41 0,0 131,0 131,-41"/>
<text text-anchor="start" x="8" y="-29" font-family="Helvetica,sans-Serif" font-size="10.00">zero_mate::gui::CLog</text>
<text text-anchor="start" x="8" y="-18" font-family="Helvetica,sans-Serif" font-size="10.00">_Window::Render_Clear</text>
<text text-anchor="middle" x="65.5" y="-7" font-family="Helvetica,sans-Serif" font-size="10.00">_Button</text>
</a>
</g>
</g>
<!-- Node2 -->
<g id="Node000002" class="node">
<title>Node2</title>
<g id="a_Node000002"><a xlink:href="classzero__mate_1_1gui_1_1CLog__Window.html#aab3c1c25eedfe7230d905ae5355265c0" target="_top" xlink:title="Clears all log messages.">
<polygon fill="white" stroke="#666666" points="286,-35.5 167,-35.5 167,-5.5 286,-5.5 286,-35.5"/>
<text text-anchor="start" x="175" y="-23.5" font-family="Helvetica,sans-Serif" font-size="10.00">zero_mate::gui::CLog</text>
<text text-anchor="middle" x="226.5" y="-12.5" font-family="Helvetica,sans-Serif" font-size="10.00">_Window::Clear</text>
</a>
</g>
</g>
<!-- Node1&#45;&gt;Node2 -->
<g id="edge1_Node000001_Node000002" class="edge">
<title>Node1&#45;&gt;Node2</title>
<g id="a_edge1_Node000001_Node000002"><a xlink:title=" ">
<path fill="none" stroke="#63b8ff" d="M131.17,-20.5C139.55,-20.5 148.15,-20.5 156.59,-20.5"/>
<polygon fill="#63b8ff" stroke="#63b8ff" points="156.77,-24 166.77,-20.5 156.77,-17 156.77,-24"/>
</a>
</g>
</g>
<!-- Node3 -->
<g id="Node000003" class="node">
<title>Node3</title>
<g id="a_Node000003"><a xlink:href="classzero__mate_1_1gui_1_1CCircular__Log__Buffer.html#af165b3edecdde5d0ea7a10957849921b" target="_top" xlink:title="Clears the circular buffer (deletes all log messages).">
<polygon fill="white" stroke="#666666" points="462,-35.5 322,-35.5 322,-5.5 462,-5.5 462,-35.5"/>
<text text-anchor="start" x="330" y="-23.5" font-family="Helvetica,sans-Serif" font-size="10.00">zero_mate::gui::CCircular</text>
<text text-anchor="middle" x="392" y="-12.5" font-family="Helvetica,sans-Serif" font-size="10.00">_Log_Buffer::Clear</text>
</a>
</g>
</g>
<!-- Node2&#45;&gt;Node3 -->
<g id="edge2_Node000002_Node000003" class="edge">
<title>Node2&#45;&gt;Node3</title>
<g id="a_edge2_Node000002_Node000003"><a xlink:title=" ">
<path fill="none" stroke="#63b8ff" d="M286.07,-20.5C294.43,-20.5 303.15,-20.5 311.82,-20.5"/>
<polygon fill="#63b8ff" stroke="#63b8ff" points="311.97,-24 321.97,-20.5 311.97,-17 311.97,-24"/>
</a>
</g>
</g>
</g>
</svg>
