<?xml version="1.0" encoding="UTF-8" standalone="no"?>
<!DOCTYPE svg PUBLIC "-//W3C//DTD SVG 1.1//EN"
 "http://www.w3.org/Graphics/SVG/1.1/DTD/svg11.dtd">
<!-- Generated by graphviz version 2.43.0 (0)
 -->
<!-- Title: zero_mate::peripheral::CMini_UART::Trigger_IRQ Pages: 1 -->
<svg width="855pt" height="108pt"
 viewBox="0.00 0.00 855.00 108.00" xmlns="http://www.w3.org/2000/svg" xmlns:xlink="http://www.w3.org/1999/xlink">
<g id="graph0" class="graph" transform="scale(1 1) rotate(0) translate(4 104)">
<title>zero_mate::peripheral::CMini_UART::Trigger_IRQ</title>
<!-- Node1 -->
<g id="Node000001" class="node">
<title>Node1</title>
<g id="a_Node000001"><a xlink:title="Triggers an interrupt.">
<polygon fill="#999999" stroke="#666666" points="847,-64.5 704,-64.5 704,-34.5 847,-34.5 847,-64.5"/>
<text text-anchor="start" x="712" y="-52.5" font-family="Helvetica,sans-Serif" font-size="10.00">zero_mate::peripheral</text>
<text text-anchor="middle" x="775.5" y="-41.5" font-family="Helvetica,sans-Serif" font-size="10.00">::CMini_UART::Trigger_IRQ</text>
</a>
</g>
</g>
<!-- Node2 -->
<g id="Node000002" class="node">
<title>Node2</title>
<g id="a_Node000002"><a xlink:href="classzero__mate_1_1peripheral_1_1CMini__UART.html#af0ac73a2cea4c4fb61673803f60cf9e6" target="_top" xlink:title="Receives a stop bit.">
<polygon fill="white" stroke="#666666" points="668,-100 510,-100 510,-59 668,-59 668,-100"/>
<text text-anchor="start" x="518" y="-88" font-family="Helvetica,sans-Serif" font-size="10.00">zero_mate::peripheral</text>
<text text-anchor="start" x="518" y="-77" font-family="Helvetica,sans-Serif" font-size="10.00">::CMini_UART::UART_Receive</text>
<text text-anchor="middle" x="589" y="-66" font-family="Helvetica,sans-Serif" font-size="10.00">_Stop_Bit</text>
</a>
</g>
</g>
<!-- Node1&#45;&gt;Node2 -->
<g id="edge1_Node000001_Node000002" class="edge">
<title>Node1&#45;&gt;Node2</title>
<g id="a_edge1_Node000001_Node000002"><a xlink:title=" ">
<path fill="none" stroke="#63b8ff" d="M693.99,-62.59C685.43,-63.98 676.73,-65.4 668.19,-66.79"/>
<polygon fill="#63b8ff" stroke="#63b8ff" points="694.65,-66.03 703.96,-60.97 693.53,-59.12 694.65,-66.03"/>
</a>
</g>
</g>
<!-- Node6 -->
<g id="Node000006" class="node">
<title>Node6</title>
<g id="a_Node000006"><a xlink:href="classzero__mate_1_1peripheral_1_1CMini__UART.html#af791add34c2efc17007de9d20185b24d" target="_top" xlink:title="Resets transmission (end of the current UART frame).">
<polygon fill="white" stroke="#666666" points="662,-41 516,-41 516,0 662,0 662,-41"/>
<text text-anchor="start" x="524" y="-29" font-family="Helvetica,sans-Serif" font-size="10.00">zero_mate::peripheral</text>
<text text-anchor="start" x="524" y="-18" font-family="Helvetica,sans-Serif" font-size="10.00">::CMini_UART::UART_Reset</text>
<text text-anchor="middle" x="589" y="-7" font-family="Helvetica,sans-Serif" font-size="10.00">_Transmission</text>
</a>
</g>
</g>
<!-- Node1&#45;&gt;Node6 -->
<g id="edge5_Node000001_Node000006" class="edge">
<title>Node1&#45;&gt;Node6</title>
<g id="a_edge5_Node000001_Node000006"><a xlink:title=" ">
<path fill="none" stroke="#63b8ff" d="M693.88,-36.83C683.28,-35.16 672.47,-33.46 662.03,-31.82"/>
<polygon fill="#63b8ff" stroke="#63b8ff" points="693.54,-40.32 703.96,-38.41 694.62,-33.4 693.54,-40.32"/>
</a>
</g>
</g>
<!-- Node3 -->
<g id="Node000003" class="node">
<title>Node3</title>
<g id="a_Node000003"><a xlink:href="classzero__mate_1_1peripheral_1_1CMini__UART.html#a6b04378225c55c43c00805cb5bdb99b3" target="_top" xlink:title="Updates the reception state machines.">
<polygon fill="white" stroke="#666666" points="474,-91.5 333,-91.5 333,-61.5 474,-61.5 474,-91.5"/>
<text text-anchor="start" x="341" y="-79.5" font-family="Helvetica,sans-Serif" font-size="10.00">zero_mate::peripheral</text>
<text text-anchor="middle" x="403.5" y="-68.5" font-family="Helvetica,sans-Serif" font-size="10.00">::CMini_UART::Update_RX</text>
</a>
</g>
</g>
<!-- Node2&#45;&gt;Node3 -->
<g id="edge2_Node000002_Node000003" class="edge">
<title>Node2&#45;&gt;Node3</title>
<g id="a_edge2_Node000002_Node000003"><a xlink:title=" ">
<path fill="none" stroke="#63b8ff" d="M499.82,-78.06C491.18,-77.92 482.51,-77.78 474.1,-77.64"/>
<polygon fill="#63b8ff" stroke="#63b8ff" points="499.86,-81.56 509.91,-78.22 499.97,-74.56 499.86,-81.56"/>
</a>
</g>
</g>
<!-- Node4 -->
<g id="Node000004" class="node">
<title>Node4</title>
<g id="a_Node000004"><a xlink:href="classzero__mate_1_1peripheral_1_1CMini__UART.html#a3b75064597a5fbfe9c4c7d1f2e0c7e5f" target="_top" xlink:title="Updates the state machines (transmission/reception).">
<polygon fill="white" stroke="#666666" points="297,-64.5 173,-64.5 173,-34.5 297,-34.5 297,-64.5"/>
<text text-anchor="start" x="181" y="-52.5" font-family="Helvetica,sans-Serif" font-size="10.00">zero_mate::peripheral</text>
<text text-anchor="middle" x="235" y="-41.5" font-family="Helvetica,sans-Serif" font-size="10.00">::CMini_UART::Update</text>
</a>
</g>
</g>
<!-- Node3&#45;&gt;Node4 -->
<g id="edge3_Node000003_Node000004" class="edge">
<title>Node3&#45;&gt;Node4</title>
<g id="a_edge3_Node000003_Node000004"><a xlink:title=" ">
<path fill="none" stroke="#63b8ff" d="M322.79,-63.57C314.17,-62.18 305.51,-60.77 297.16,-59.42"/>
<polygon fill="#63b8ff" stroke="#63b8ff" points="322.42,-67.06 332.85,-65.21 323.54,-60.15 322.42,-67.06"/>
</a>
</g>
</g>
<!-- Node5 -->
<g id="Node000005" class="node">
<title>Node5</title>
<g id="a_Node000005"><a xlink:href="classzero__mate_1_1peripheral_1_1CMini__UART.html#aae5f7e2bbffa6e3881675058a0aedf6f" target="_top" xlink:title="Updates the number of passed CPU cycles (forwarded from the AUX peripheral).">
<polygon fill="white" stroke="#666666" points="137,-70 0,-70 0,-29 137,-29 137,-70"/>
<text text-anchor="start" x="8" y="-58" font-family="Helvetica,sans-Serif" font-size="10.00">zero_mate::peripheral</text>
<text text-anchor="start" x="8" y="-47" font-family="Helvetica,sans-Serif" font-size="10.00">::CMini_UART::Increment</text>
<text text-anchor="middle" x="68.5" y="-36" font-family="Helvetica,sans-Serif" font-size="10.00">_Passed_Cycles</text>
</a>
</g>
</g>
<!-- Node4&#45;&gt;Node5 -->
<g id="edge4_Node000004_Node000005" class="edge">
<title>Node4&#45;&gt;Node5</title>
<g id="a_edge4_Node000004_Node000005"><a xlink:title=" ">
<path fill="none" stroke="#63b8ff" d="M162.56,-49.5C154.13,-49.5 145.54,-49.5 137.16,-49.5"/>
<polygon fill="#63b8ff" stroke="#63b8ff" points="162.75,-53 172.75,-49.5 162.75,-46 162.75,-53"/>
</a>
</g>
</g>
<!-- Node7 -->
<g id="Node000007" class="node">
<title>Node7</title>
<g id="a_Node000007"><a xlink:href="classzero__mate_1_1peripheral_1_1CMini__UART.html#a39f26f9ac5a5cb08b2a292f5c6fab6db" target="_top" xlink:title="Updates the transmission state machine.">
<polygon fill="white" stroke="#666666" points="473.5,-40.5 333.5,-40.5 333.5,-10.5 473.5,-10.5 473.5,-40.5"/>
<text text-anchor="start" x="341.5" y="-28.5" font-family="Helvetica,sans-Serif" font-size="10.00">zero_mate::peripheral</text>
<text text-anchor="middle" x="403.5" y="-17.5" font-family="Helvetica,sans-Serif" font-size="10.00">::CMini_UART::Update_TX</text>
</a>
</g>
</g>
<!-- Node6&#45;&gt;Node7 -->
<g id="edge6_Node000006_Node000007" class="edge">
<title>Node6&#45;&gt;Node7</title>
<g id="a_edge6_Node000006_Node000007"><a xlink:title=" ">
<path fill="none" stroke="#63b8ff" d="M505.59,-22.75C494.94,-23.04 484.11,-23.33 473.7,-23.61"/>
<polygon fill="#63b8ff" stroke="#63b8ff" points="505.84,-26.24 515.74,-22.47 505.65,-19.24 505.84,-26.24"/>
</a>
</g>
</g>
<!-- Node7&#45;&gt;Node4 -->
<g id="edge7_Node000007_Node000004" class="edge">
<title>Node7&#45;&gt;Node4</title>
<g id="a_edge7_Node000007_Node000004"><a xlink:title=" ">
<path fill="none" stroke="#63b8ff" d="M323.16,-36.94C314.45,-38.19 305.69,-39.45 297.25,-40.67"/>
<polygon fill="#63b8ff" stroke="#63b8ff" points="323.94,-40.36 333.34,-35.47 322.94,-33.43 323.94,-40.36"/>
</a>
</g>
</g>
</g>
</svg>
