<?xml version="1.0" encoding="UTF-8" standalone="no"?>
<!DOCTYPE svg PUBLIC "-//W3C//DTD SVG 1.1//EN"
 "http://www.w3.org/Graphics/SVG/1.1/DTD/svg11.dtd">
<!-- Generated by graphviz version 2.43.0 (0)
 -->
<!-- Title: zero_mate::arm1176jzf_s::CCPU_Core::Reset_Context Pages: 1 -->
<svg width="704pt" height="432pt"
 viewBox="0.00 0.00 704.00 431.50" xmlns="http://www.w3.org/2000/svg" xmlns:xlink="http://www.w3.org/1999/xlink">
<g id="graph0" class="graph" transform="scale(1 1) rotate(0) translate(4 427.5)">
<title>zero_mate::arm1176jzf_s::CCPU_Core::Reset_Context</title>
<!-- Node1 -->
<g id="Node000001" class="node">
<title>Node1</title>
<g id="a_Node000001"><a xlink:title="Resets the CPU context.">
<polygon fill="#999999" stroke="#666666" points="130,-282 0,-282 0,-241 130,-241 130,-282"/>
<text text-anchor="start" x="8" y="-270" font-family="Helvetica,sans-Serif" font-size="10.00">zero_mate::arm1176jzf</text>
<text text-anchor="start" x="8" y="-259" font-family="Helvetica,sans-Serif" font-size="10.00">_s::CCPU_Core::Reset</text>
<text text-anchor="middle" x="65" y="-248" font-family="Helvetica,sans-Serif" font-size="10.00">_Context</text>
</a>
</g>
</g>
<!-- Node2 -->
<g id="Node000002" class="node">
<title>Node2</title>
<g id="a_Node000002"><a xlink:href="classzero__mate_1_1arm1176jzf__s_1_1CCPU__Context.html#a286edf7ca93bc920f9896b5b777b4b8b" target="_top" xlink:title="Resets the context of the CPU.">
<polygon fill="white" stroke="#666666" points="303,-303.5 166,-303.5 166,-273.5 303,-273.5 303,-303.5"/>
<text text-anchor="start" x="174" y="-291.5" font-family="Helvetica,sans-Serif" font-size="10.00">zero_mate::arm1176jzf</text>
<text text-anchor="middle" x="234.5" y="-280.5" font-family="Helvetica,sans-Serif" font-size="10.00">_s::CCPU_Context::Reset</text>
</a>
</g>
</g>
<!-- Node1&#45;&gt;Node2 -->
<g id="edge1_Node000001_Node000002" class="edge">
<title>Node1&#45;&gt;Node2</title>
<g id="a_edge1_Node000001_Node000002"><a xlink:title=" ">
<path fill="none" stroke="#63b8ff" d="M130.28,-271.86C138.64,-273.21 147.26,-274.6 155.81,-275.98"/>
<polygon fill="#63b8ff" stroke="#63b8ff" points="155.35,-279.45 165.78,-277.58 156.46,-272.54 155.35,-279.45"/>
</a>
</g>
</g>
<!-- Node14 -->
<g id="Node000014" class="node">
<title>Node14</title>
<g id="a_Node000014"><a xlink:href="classzero__mate_1_1arm1176jzf__s_1_1CCPU__Core.html#ae2c9e5f272fa5814e386bc2a93d79e6f" target="_top" xlink:title="Sets the PC register (r15).">
<polygon fill="white" stroke="#666666" points="299.5,-252.5 169.5,-252.5 169.5,-222.5 299.5,-222.5 299.5,-252.5"/>
<text text-anchor="start" x="177.5" y="-240.5" font-family="Helvetica,sans-Serif" font-size="10.00">zero_mate::arm1176jzf</text>
<text text-anchor="middle" x="234.5" y="-229.5" font-family="Helvetica,sans-Serif" font-size="10.00">_s::CCPU_Core::Set_PC</text>
</a>
</g>
</g>
<!-- Node1&#45;&gt;Node14 -->
<g id="edge14_Node000001_Node000014" class="edge">
<title>Node1&#45;&gt;Node14</title>
<g id="a_edge14_Node000001_Node000014"><a xlink:title=" ">
<path fill="none" stroke="#63b8ff" d="M130.28,-252.29C139.8,-250.93 149.67,-249.51 159.37,-248.12"/>
<polygon fill="#63b8ff" stroke="#63b8ff" points="159.99,-251.57 169.39,-246.69 159,-244.64 159.99,-251.57"/>
</a>
</g>
</g>
<!-- Node3 -->
<g id="Node000003" class="node">
<title>Node3</title>
<g id="a_Node000003"><a xlink:href="classzero__mate_1_1arm1176jzf__s_1_1CCPU__Context.html#a2dd5a3a65e28cce65d01bdef2746cf1a" target="_top" xlink:title="Globally enables/disables FIQ (fast interrupts)">
<polygon fill="white" stroke="#666666" points="503.5,-408.5 339.5,-408.5 339.5,-378.5 503.5,-378.5 503.5,-408.5"/>
<text text-anchor="start" x="347.5" y="-396.5" font-family="Helvetica,sans-Serif" font-size="10.00">zero_mate::arm1176jzf</text>
<text text-anchor="middle" x="421.5" y="-385.5" font-family="Helvetica,sans-Serif" font-size="10.00">_s::CCPU_Context::Enable_FIQ</text>
</a>
</g>
</g>
<!-- Node2&#45;&gt;Node3 -->
<g id="edge2_Node000002_Node000003" class="edge">
<title>Node2&#45;&gt;Node3</title>
<g id="a_edge2_Node000002_Node000003"><a xlink:title=" ">
<path fill="none" stroke="#63b8ff" d="M257.63,-303.72C278.27,-317.65 310.12,-338.46 339,-354.5 351.24,-361.3 364.85,-368.1 377.39,-374.07"/>
<polygon fill="#63b8ff" stroke="#63b8ff" points="376.19,-377.37 386.73,-378.46 379.17,-371.04 376.19,-377.37"/>
</a>
</g>
</g>
<!-- Node5 -->
<g id="Node000005" class="node">
<title>Node5</title>
<g id="a_Node000005"><a xlink:href="classzero__mate_1_1arm1176jzf__s_1_1CCPU__Context.html#a4b48d0f9508c738b62d96e5593e6d704" target="_top" xlink:title="Globally enables/disables IRQ (interrupts)">
<polygon fill="white" stroke="#666666" points="504,-345.5 339,-345.5 339,-315.5 504,-315.5 504,-345.5"/>
<text text-anchor="start" x="347" y="-333.5" font-family="Helvetica,sans-Serif" font-size="10.00">zero_mate::arm1176jzf</text>
<text text-anchor="middle" x="421.5" y="-322.5" font-family="Helvetica,sans-Serif" font-size="10.00">_s::CCPU_Context::Enable_IRQ</text>
</a>
</g>
</g>
<!-- Node2&#45;&gt;Node5 -->
<g id="edge4_Node000002_Node000005" class="edge">
<title>Node2&#45;&gt;Node5</title>
<g id="a_edge4_Node000002_Node000005"><a xlink:title=" ">
<path fill="none" stroke="#63b8ff" d="M301.77,-303.54C315.53,-306.67 330.14,-309.99 344.24,-313.19"/>
<polygon fill="#63b8ff" stroke="#63b8ff" points="343.86,-316.69 354.39,-315.49 345.41,-309.86 343.86,-316.69"/>
</a>
</g>
</g>
<!-- Node6 -->
<g id="Node000006" class="node">
<title>Node6</title>
<g id="a_Node000006"><a xlink:href="classzero__mate_1_1arm1176jzf__s_1_1CCPU__Context.html#a2f550e28044af7ff0ddb866527a95356" target="_top" xlink:title="Initializes (resets) all CPU registers.">
<polygon fill="white" stroke="#666666" points="486.5,-267 356.5,-267 356.5,-226 486.5,-226 486.5,-267"/>
<text text-anchor="start" x="364.5" y="-255" font-family="Helvetica,sans-Serif" font-size="10.00">zero_mate::arm1176jzf</text>
<text text-anchor="start" x="364.5" y="-244" font-family="Helvetica,sans-Serif" font-size="10.00">_s::CCPU_Context::Init</text>
<text text-anchor="middle" x="421.5" y="-233" font-family="Helvetica,sans-Serif" font-size="10.00">_Registers</text>
</a>
</g>
</g>
<!-- Node2&#45;&gt;Node6 -->
<g id="edge6_Node000002_Node000006" class="edge">
<title>Node2&#45;&gt;Node6</title>
<g id="a_edge6_Node000002_Node000006"><a xlink:title=" ">
<path fill="none" stroke="#63b8ff" d="M301.77,-273.46C316.17,-270.19 331.5,-266.7 346.19,-263.37"/>
<polygon fill="#63b8ff" stroke="#63b8ff" points="347.27,-266.71 356.25,-261.09 345.72,-259.89 347.27,-266.71"/>
</a>
</g>
</g>
<!-- Node4 -->
<g id="Node000004" class="node">
<title>Node4</title>
<g id="a_Node000004"><a xlink:href="classzero__mate_1_1arm1176jzf__s_1_1CCPU__Context.html#a984bace2773aca71cf04701aa0ce9c54" target="_top" xlink:title="Sets/resets a flag in the CPSR register of the current CPU mode.">
<polygon fill="white" stroke="#666666" points="694,-423.5 542,-423.5 542,-393.5 694,-393.5 694,-423.5"/>
<text text-anchor="start" x="550" y="-411.5" font-family="Helvetica,sans-Serif" font-size="10.00">zero_mate::arm1176jzf</text>
<text text-anchor="middle" x="618" y="-400.5" font-family="Helvetica,sans-Serif" font-size="10.00">_s::CCPU_Context::Set_Flag</text>
</a>
</g>
</g>
<!-- Node3&#45;&gt;Node4 -->
<g id="edge3_Node000003_Node000004" class="edge">
<title>Node3&#45;&gt;Node4</title>
<g id="a_edge3_Node000003_Node000004"><a xlink:title=" ">
<path fill="none" stroke="#63b8ff" d="M503.58,-399.75C512.92,-400.47 522.46,-401.21 531.85,-401.93"/>
<polygon fill="#63b8ff" stroke="#63b8ff" points="531.72,-405.43 541.96,-402.71 532.26,-398.45 531.72,-405.43"/>
</a>
</g>
</g>
<!-- Node5&#45;&gt;Node4 -->
<g id="edge5_Node000005_Node000004" class="edge">
<title>Node5&#45;&gt;Node4</title>
<g id="a_edge5_Node000005_Node000004"><a xlink:title=" ">
<path fill="none" stroke="#63b8ff" d="M453.97,-345.52C482.82,-359.19 523.49,-378.17 540,-384.5 545.07,-386.44 550.36,-388.35 555.7,-390.18"/>
<polygon fill="#63b8ff" stroke="#63b8ff" points="554.73,-393.55 565.33,-393.4 556.95,-386.91 554.73,-393.55"/>
</a>
</g>
</g>
<!-- Node7 -->
<g id="Node000007" class="node">
<title>Node7</title>
<g id="a_Node000007"><a xlink:href="classzero__mate_1_1arm1176jzf__s_1_1CCPU__Context.html#aacfb4cc6e44ca967a9e258ba583f588b" target="_top" xlink:title="Resets the banked registers of the Abort mode to 0.">
<polygon fill="white" stroke="#666666" points="683,-375 553,-375 553,-334 683,-334 683,-375"/>
<text text-anchor="start" x="561" y="-363" font-family="Helvetica,sans-Serif" font-size="10.00">zero_mate::arm1176jzf</text>
<text text-anchor="start" x="561" y="-352" font-family="Helvetica,sans-Serif" font-size="10.00">_s::CCPU_Context::Init</text>
<text text-anchor="middle" x="618" y="-341" font-family="Helvetica,sans-Serif" font-size="10.00">_Abort_Banked_Regs</text>
</a>
</g>
</g>
<!-- Node6&#45;&gt;Node7 -->
<g id="edge7_Node000006_Node000007" class="edge">
<title>Node6&#45;&gt;Node7</title>
<g id="a_edge7_Node000006_Node000007"><a xlink:title=" ">
<path fill="none" stroke="#63b8ff" d="M449.95,-267.18C473.13,-284.03 507.62,-307.69 540,-324.5 543.48,-326.31 547.1,-328.07 550.78,-329.78"/>
<polygon fill="#63b8ff" stroke="#63b8ff" points="549.47,-333.03 560.03,-333.91 552.33,-326.64 549.47,-333.03"/>
</a>
</g>
</g>
<!-- Node8 -->
<g id="Node000008" class="node">
<title>Node8</title>
<g id="a_Node000008"><a xlink:href="classzero__mate_1_1arm1176jzf__s_1_1CCPU__Context.html#a68f089f1b45e6f22295a7339eeeade33" target="_top" xlink:title="Resets the CPSR register in all CPU modes.">
<polygon fill="white" stroke="#666666" points="696,-315.5 540,-315.5 540,-285.5 696,-285.5 696,-315.5"/>
<text text-anchor="start" x="548" y="-303.5" font-family="Helvetica,sans-Serif" font-size="10.00">zero_mate::arm1176jzf</text>
<text text-anchor="middle" x="618" y="-292.5" font-family="Helvetica,sans-Serif" font-size="10.00">_s::CCPU_Context::Init_CPSR</text>
</a>
</g>
</g>
<!-- Node6&#45;&gt;Node8 -->
<g id="edge8_Node000006_Node000008" class="edge">
<title>Node6&#45;&gt;Node8</title>
<g id="a_edge8_Node000006_Node000008"><a xlink:title=" ">
<path fill="none" stroke="#63b8ff" d="M486.73,-264.33C508.03,-270.25 531.73,-276.83 553.01,-282.73"/>
<polygon fill="#63b8ff" stroke="#63b8ff" points="552.35,-286.18 562.92,-285.49 554.22,-279.44 552.35,-286.18"/>
</a>
</g>
</g>
<!-- Node9 -->
<g id="Node000009" class="node">
<title>Node9</title>
<g id="a_Node000009"><a xlink:href="classzero__mate_1_1arm1176jzf__s_1_1CCPU__Context.html#a651a92dac2106063a9988c63fb80fcdd" target="_top" xlink:title="Resets the banked registers of the FIQ mode to 0.">
<polygon fill="white" stroke="#666666" points="683,-267 553,-267 553,-226 683,-226 683,-267"/>
<text text-anchor="start" x="561" y="-255" font-family="Helvetica,sans-Serif" font-size="10.00">zero_mate::arm1176jzf</text>
<text text-anchor="start" x="561" y="-244" font-family="Helvetica,sans-Serif" font-size="10.00">_s::CCPU_Context::Init</text>
<text text-anchor="middle" x="618" y="-233" font-family="Helvetica,sans-Serif" font-size="10.00">_FIQ_Banked_Regs</text>
</a>
</g>
</g>
<!-- Node6&#45;&gt;Node9 -->
<g id="edge9_Node000006_Node000009" class="edge">
<title>Node6&#45;&gt;Node9</title>
<g id="a_edge9_Node000006_Node000009"><a xlink:title=" ">
<path fill="none" stroke="#63b8ff" d="M486.73,-246.5C504.65,-246.5 524.28,-246.5 542.73,-246.5"/>
<polygon fill="#63b8ff" stroke="#63b8ff" points="542.84,-250 552.84,-246.5 542.84,-243 542.84,-250"/>
</a>
</g>
</g>
<!-- Node10 -->
<g id="Node000010" class="node">
<title>Node10</title>
<g id="a_Node000010"><a xlink:href="classzero__mate_1_1arm1176jzf__s_1_1CCPU__Context.html#a38524842c1e4f158af18c1e2cafd14ed" target="_top" xlink:title="Resets the banked registers of the IRQ mode to 0.">
<polygon fill="white" stroke="#666666" points="683,-208 553,-208 553,-167 683,-167 683,-208"/>
<text text-anchor="start" x="561" y="-196" font-family="Helvetica,sans-Serif" font-size="10.00">zero_mate::arm1176jzf</text>
<text text-anchor="start" x="561" y="-185" font-family="Helvetica,sans-Serif" font-size="10.00">_s::CCPU_Context::Init</text>
<text text-anchor="middle" x="618" y="-174" font-family="Helvetica,sans-Serif" font-size="10.00">_IRQ_Banked_Regs</text>
</a>
</g>
</g>
<!-- Node6&#45;&gt;Node10 -->
<g id="edge10_Node000006_Node000010" class="edge">
<title>Node6&#45;&gt;Node10</title>
<g id="a_edge10_Node000006_Node000010"><a xlink:title=" ">
<path fill="none" stroke="#63b8ff" d="M486.73,-227.02C504.82,-221.53 524.64,-215.52 543.24,-209.87"/>
<polygon fill="#63b8ff" stroke="#63b8ff" points="544.29,-213.21 552.84,-206.96 542.26,-206.52 544.29,-213.21"/>
</a>
</g>
</g>
<!-- Node11 -->
<g id="Node000011" class="node">
<title>Node11</title>
<g id="a_Node000011"><a xlink:href="classzero__mate_1_1arm1176jzf__s_1_1CCPU__Context.html#af24fe774c931e6fe4c0abe70956463de" target="_top" xlink:title="Resets all SPSR registers (in all CPU modes) to 0.">
<polygon fill="white" stroke="#666666" points="695.5,-148.5 540.5,-148.5 540.5,-118.5 695.5,-118.5 695.5,-148.5"/>
<text text-anchor="start" x="548.5" y="-136.5" font-family="Helvetica,sans-Serif" font-size="10.00">zero_mate::arm1176jzf</text>
<text text-anchor="middle" x="618" y="-125.5" font-family="Helvetica,sans-Serif" font-size="10.00">_s::CCPU_Context::Init_SPSR</text>
</a>
</g>
</g>
<!-- Node6&#45;&gt;Node11 -->
<g id="edge11_Node000006_Node000011" class="edge">
<title>Node6&#45;&gt;Node11</title>
<g id="a_edge11_Node000006_Node000011"><a xlink:title=" ">
<path fill="none" stroke="#63b8ff" d="M486.65,-227.73C492.84,-224.53 498.76,-220.81 504,-216.5 527.73,-197 515.78,-176.4 540,-157.5 541.79,-156.1 543.67,-154.78 545.61,-153.54"/>
<polygon fill="#63b8ff" stroke="#63b8ff" points="547.47,-156.51 554.48,-148.57 544.05,-150.4 547.47,-156.51"/>
</a>
</g>
</g>
<!-- Node12 -->
<g id="Node000012" class="node">
<title>Node12</title>
<g id="a_Node000012"><a xlink:href="classzero__mate_1_1arm1176jzf__s_1_1CCPU__Context.html#a945204938f4a5e92be738c48711218c2" target="_top" xlink:title="Resets the banked registers of the Supervisor mode to 0.">
<polygon fill="white" stroke="#666666" points="690,-100 546,-100 546,-59 690,-59 690,-100"/>
<text text-anchor="start" x="554" y="-88" font-family="Helvetica,sans-Serif" font-size="10.00">zero_mate::arm1176jzf</text>
<text text-anchor="start" x="554" y="-77" font-family="Helvetica,sans-Serif" font-size="10.00">_s::CCPU_Context::Init</text>
<text text-anchor="middle" x="618" y="-66" font-family="Helvetica,sans-Serif" font-size="10.00">_Supervisor_Banked_Regs</text>
</a>
</g>
</g>
<!-- Node6&#45;&gt;Node12 -->
<g id="edge12_Node000006_Node000012" class="edge">
<title>Node6&#45;&gt;Node12</title>
<g id="a_edge12_Node000006_Node000012"><a xlink:title=" ">
<path fill="none" stroke="#63b8ff" d="M486.89,-229.32C493.19,-225.81 499.06,-221.58 504,-216.5 538.98,-180.53 505.36,-145.8 540,-109.5 541.05,-108.4 542.15,-107.33 543.29,-106.31"/>
<polygon fill="#63b8ff" stroke="#63b8ff" points="545.55,-108.98 551.31,-100.09 541.26,-103.45 545.55,-108.98"/>
</a>
</g>
</g>
<!-- Node13 -->
<g id="Node000013" class="node">
<title>Node13</title>
<g id="a_Node000013"><a xlink:href="classzero__mate_1_1arm1176jzf__s_1_1CCPU__Context.html#a6eb0ee94a81e166d7b02a78f45b4d028" target="_top" xlink:title="Resets the banked registers of the Undefined mode to 0.">
<polygon fill="white" stroke="#666666" points="689,-41 547,-41 547,0 689,0 689,-41"/>
<text text-anchor="start" x="555" y="-29" font-family="Helvetica,sans-Serif" font-size="10.00">zero_mate::arm1176jzf</text>
<text text-anchor="start" x="555" y="-18" font-family="Helvetica,sans-Serif" font-size="10.00">_s::CCPU_Context::Init</text>
<text text-anchor="middle" x="618" y="-7" font-family="Helvetica,sans-Serif" font-size="10.00">_Undefined_Banked_Regs</text>
</a>
</g>
</g>
<!-- Node6&#45;&gt;Node13 -->
<g id="edge13_Node000006_Node000013" class="edge">
<title>Node6&#45;&gt;Node13</title>
<g id="a_edge13_Node000006_Node000013"><a xlink:title=" ">
<path fill="none" stroke="#63b8ff" d="M486.68,-230.32C493.18,-226.62 499.16,-222.08 504,-216.5 553.79,-159.18 490.42,-107.01 540,-49.5 540.51,-48.91 541.03,-48.34 541.56,-47.77"/>
<polygon fill="#63b8ff" stroke="#63b8ff" points="543.96,-50.32 549.12,-41.07 539.32,-45.08 543.96,-50.32"/>
</a>
</g>
</g>
<!-- Node15 -->
<g id="Node000015" class="node">
<title>Node15</title>
<g id="a_Node000015"><a xlink:href="classzero__mate_1_1arm1176jzf__s_1_1CCPU__Core.html#a423eacd01e574e782a2b7cf51f28c56c" target="_top" xlink:title="Returns a reference to the PC register (r15)">
<polygon fill="white" stroke="#666666" points="486.5,-207.5 356.5,-207.5 356.5,-177.5 486.5,-177.5 486.5,-207.5"/>
<text text-anchor="start" x="364.5" y="-195.5" font-family="Helvetica,sans-Serif" font-size="10.00">zero_mate::arm1176jzf</text>
<text text-anchor="middle" x="421.5" y="-184.5" font-family="Helvetica,sans-Serif" font-size="10.00">_s::CCPU_Core::PC</text>
</a>
</g>
</g>
<!-- Node14&#45;&gt;Node15 -->
<g id="edge15_Node000014_Node000015" class="edge">
<title>Node14&#45;&gt;Node15</title>
<g id="a_edge15_Node000014_Node000015"><a xlink:title=" ">
<path fill="none" stroke="#63b8ff" d="M297.36,-222.45C313.87,-218.44 331.84,-214.07 348.83,-209.93"/>
<polygon fill="#63b8ff" stroke="#63b8ff" points="349.81,-213.3 358.7,-207.53 348.15,-206.5 349.81,-213.3"/>
</a>
</g>
</g>
</g>
</svg>
