<?xml version="1.0" encoding="UTF-8" standalone="no"?>
<!DOCTYPE svg PUBLIC "-//W3C//DTD SVG 1.1//EN"
 "http://www.w3.org/Graphics/SVG/1.1/DTD/svg11.dtd">
<!-- Generated by graphviz version 2.43.0 (0)
 -->
<!-- Title: zero_mate::utils::CLogging_System::Info Pages: 1 -->
<svg width="862pt" height="146pt"
 viewBox="0.00 0.00 862.00 145.50" xmlns="http://www.w3.org/2000/svg" xmlns:xlink="http://www.w3.org/1999/xlink">
<g id="graph0" class="graph" transform="scale(1 1) rotate(0) translate(4 141.5)">
<title>zero_mate::utils::CLogging_System::Info</title>
<!-- Node1 -->
<g id="Node000001" class="node">
<title>Node1</title>
<g id="a_Node000001"><a xlink:title="Logs an info message via all registered loggers.">
<polygon fill="#999999" stroke="#666666" points="854,-54 708,-54 708,-24 854,-24 854,-54"/>
<text text-anchor="start" x="716" y="-42" font-family="Helvetica,sans-Serif" font-size="10.00">zero_mate::utils::CLogging</text>
<text text-anchor="middle" x="781" y="-31" font-family="Helvetica,sans-Serif" font-size="10.00">_System::Info</text>
</a>
</g>
</g>
<!-- Node2 -->
<g id="Node000002" class="node">
<title>Node2</title>
<g id="a_Node000002"><a xlink:href="classzero__mate_1_1gui_1_1CTop__Bar__Menu.html#af8e80293dff0c20be7ea071d50dec62c" target="_top" xlink:title="Loads a single ELF file.">
<polygon fill="white" stroke="#666666" points="672,-78 527,-78 527,-48 672,-48 672,-78"/>
<text text-anchor="start" x="535" y="-66" font-family="Helvetica,sans-Serif" font-size="10.00">zero_mate::gui::CTop</text>
<text text-anchor="middle" x="599.5" y="-55" font-family="Helvetica,sans-Serif" font-size="10.00">_Bar_Menu::Load_ELF_File</text>
</a>
</g>
</g>
<!-- Node1&#45;&gt;Node2 -->
<g id="edge1_Node000001_Node000002" class="edge">
<title>Node1&#45;&gt;Node2</title>
<g id="a_edge1_Node000001_Node000002"><a xlink:title=" ">
<path fill="none" stroke="#63b8ff" d="M697.74,-50C689.15,-51.15 680.46,-52.31 672,-53.44"/>
<polygon fill="#63b8ff" stroke="#63b8ff" points="698.32,-53.45 707.77,-48.66 697.39,-46.51 698.32,-53.45"/>
</a>
</g>
</g>
<!-- Node7 -->
<g id="Node000007" class="node">
<title>Node7</title>
<g id="a_Node000007"><a xlink:href="classzero__mate_1_1gui_1_1CControl__Window.html#ad83b2651e1d6bf8ed72e3553526f17ca" target="_top" xlink:title="Runs CPU execution (separate thread).">
<polygon fill="white" stroke="#666666" points="668,-30 531,-30 531,0 668,0 668,-30"/>
<text text-anchor="start" x="539" y="-18" font-family="Helvetica,sans-Serif" font-size="10.00">zero_mate::gui::CControl</text>
<text text-anchor="middle" x="599.5" y="-7" font-family="Helvetica,sans-Serif" font-size="10.00">_Window::Run</text>
</a>
</g>
</g>
<!-- Node1&#45;&gt;Node7 -->
<g id="edge7_Node000001_Node000007" class="edge">
<title>Node1&#45;&gt;Node7</title>
<g id="a_edge7_Node000001_Node000007"><a xlink:title=" ">
<path fill="none" stroke="#63b8ff" d="M697.59,-27.98C687.76,-26.67 677.81,-25.34 668.22,-24.06"/>
<polygon fill="#63b8ff" stroke="#63b8ff" points="697.39,-31.49 707.77,-29.34 698.32,-24.55 697.39,-31.49"/>
</a>
</g>
</g>
<!-- Node3 -->
<g id="Node000003" class="node">
<title>Node3</title>
<g id="a_Node000003"><a xlink:href="classzero__mate_1_1gui_1_1CTop__Bar__Menu.html#a7fee26ed69f7536b8396d3fe2f97c5e4" target="_top" xlink:title="Loads ELF files selected by the user using the file browser.">
<polygon fill="white" stroke="#666666" points="489,-126 339,-126 339,-96 489,-96 489,-126"/>
<text text-anchor="start" x="347" y="-114" font-family="Helvetica,sans-Serif" font-size="10.00">zero_mate::gui::CTop</text>
<text text-anchor="middle" x="414" y="-103" font-family="Helvetica,sans-Serif" font-size="10.00">_Bar_Menu::Load_ELF_Files</text>
</a>
</g>
</g>
<!-- Node2&#45;&gt;Node3 -->
<g id="edge2_Node000002_Node000003" class="edge">
<title>Node2&#45;&gt;Node3</title>
<g id="a_edge2_Node000002_Node000003"><a xlink:title=" ">
<path fill="none" stroke="#63b8ff" d="M531.03,-80.65C511.76,-85.69 490.95,-91.13 472.35,-96"/>
<polygon fill="#63b8ff" stroke="#63b8ff" points="532.15,-83.97 540.94,-78.06 530.38,-77.2 532.15,-83.97"/>
</a>
</g>
</g>
<!-- Node6 -->
<g id="Node000006" class="node">
<title>Node6</title>
<g id="a_Node000006"><a xlink:href="classzero__mate_1_1gui_1_1CTop__Bar__Menu.html#a73157cb5a8ef5d61769403bbd700cfbf" target="_top" xlink:title="Reloads the kernel.">
<polygon fill="white" stroke="#666666" points="301,-78 155,-78 155,-48 301,-48 301,-78"/>
<text text-anchor="start" x="163" y="-66" font-family="Helvetica,sans-Serif" font-size="10.00">zero_mate::gui::CTop</text>
<text text-anchor="middle" x="228" y="-55" font-family="Helvetica,sans-Serif" font-size="10.00">_Bar_Menu::Reload_Kernel</text>
</a>
</g>
</g>
<!-- Node2&#45;&gt;Node6 -->
<g id="edge5_Node000002_Node000006" class="edge">
<title>Node2&#45;&gt;Node6</title>
<g id="a_edge5_Node000002_Node000006"><a xlink:title=" ">
<path fill="none" stroke="#63b8ff" d="M516.68,-63C452.14,-63 362.99,-63 301.11,-63"/>
<polygon fill="#63b8ff" stroke="#63b8ff" points="516.82,-66.5 526.82,-63 516.82,-59.5 516.82,-66.5"/>
</a>
</g>
</g>
<!-- Node4 -->
<g id="Node000004" class="node">
<title>Node4</title>
<g id="a_Node000004"><a xlink:href="classzero__mate_1_1gui_1_1CTop__Bar__Menu.html#a8dbf5620303332f1ad1b7449793a3621" target="_top" xlink:title="Renders the file browser.">
<polygon fill="white" stroke="#666666" points="295,-137.5 161,-137.5 161,-96.5 295,-96.5 295,-137.5"/>
<text text-anchor="start" x="169" y="-125.5" font-family="Helvetica,sans-Serif" font-size="10.00">zero_mate::gui::CTop</text>
<text text-anchor="start" x="169" y="-114.5" font-family="Helvetica,sans-Serif" font-size="10.00">_Bar_Menu::Render_File</text>
<text text-anchor="middle" x="228" y="-103.5" font-family="Helvetica,sans-Serif" font-size="10.00">_Browser</text>
</a>
</g>
</g>
<!-- Node3&#45;&gt;Node4 -->
<g id="edge3_Node000003_Node000004" class="edge">
<title>Node3&#45;&gt;Node4</title>
<g id="a_edge3_Node000003_Node000004"><a xlink:title=" ">
<path fill="none" stroke="#63b8ff" d="M328.69,-113.75C317.45,-114.12 306.05,-114.49 295.17,-114.84"/>
<polygon fill="#63b8ff" stroke="#63b8ff" points="329.07,-117.24 338.96,-113.41 328.85,-110.24 329.07,-117.24"/>
</a>
</g>
</g>
<!-- Node5 -->
<g id="Node000005" class="node">
<title>Node5</title>
<g id="a_Node000005"><a xlink:href="classzero__mate_1_1gui_1_1CTop__Bar__Menu.html#ad8f10caa7780d6c4e9fb20c4ab702a60" target="_top" xlink:title="Renders the bar (IGUI_Window interface).">
<polygon fill="white" stroke="#666666" points="119,-105 0,-105 0,-75 119,-75 119,-105"/>
<text text-anchor="start" x="8" y="-93" font-family="Helvetica,sans-Serif" font-size="10.00">zero_mate::gui::CTop</text>
<text text-anchor="middle" x="59.5" y="-82" font-family="Helvetica,sans-Serif" font-size="10.00">_Bar_Menu::Render</text>
</a>
</g>
</g>
<!-- Node4&#45;&gt;Node5 -->
<g id="edge4_Node000004_Node000005" class="edge">
<title>Node4&#45;&gt;Node5</title>
<g id="a_edge4_Node000004_Node000005"><a xlink:title=" ">
<path fill="none" stroke="#63b8ff" d="M150.61,-104.61C140,-102.89 129.23,-101.15 119.02,-99.49"/>
<polygon fill="#63b8ff" stroke="#63b8ff" points="150.29,-108.11 160.72,-106.25 151.41,-101.2 150.29,-108.11"/>
</a>
</g>
</g>
<!-- Node6&#45;&gt;Node5 -->
<g id="edge6_Node000006_Node000005" class="edge">
<title>Node6&#45;&gt;Node5</title>
<g id="a_edge6_Node000006_Node000005"><a xlink:title=" ">
<path fill="none" stroke="#63b8ff" d="M144.8,-76.33C136.14,-77.73 127.47,-79.14 119.15,-80.49"/>
<polygon fill="#63b8ff" stroke="#63b8ff" points="145.63,-79.74 154.94,-74.69 144.51,-72.83 145.63,-79.74"/>
</a>
</g>
</g>
<!-- Node8 -->
<g id="Node000008" class="node">
<title>Node8</title>
<g id="a_Node000008"><a xlink:href="classzero__mate_1_1gui_1_1CControl__Window.html#a1c2dbf328ff8bb1d5be18824806b8995" target="_top" xlink:title="Starts CPU execution as a separate thread.">
<polygon fill="white" stroke="#666666" points="491,-30 337,-30 337,0 491,0 491,-30"/>
<text text-anchor="start" x="345" y="-18" font-family="Helvetica,sans-Serif" font-size="10.00">zero_mate::gui::CControl</text>
<text text-anchor="middle" x="414" y="-7" font-family="Helvetica,sans-Serif" font-size="10.00">_Window::Start_CPU_Thread</text>
</a>
</g>
</g>
<!-- Node7&#45;&gt;Node8 -->
<g id="edge8_Node000007_Node000008" class="edge">
<title>Node7&#45;&gt;Node8</title>
<g id="a_edge8_Node000007_Node000008"><a xlink:title=" ">
<path fill="none" stroke="#63b8ff" d="M520.8,-15C510.95,-15 500.89,-15 491.07,-15"/>
<polygon fill="#63b8ff" stroke="#63b8ff" points="520.95,-18.5 530.95,-15 520.95,-11.5 520.95,-18.5"/>
</a>
</g>
</g>
<!-- Node9 -->
<g id="Node000009" class="node">
<title>Node9</title>
<g id="a_Node000009"><a xlink:href="classzero__mate_1_1gui_1_1CControl__Window.html#aabafaf7d45b7c4516719dce03772ee5a" target="_top" xlink:title="Renders the window (IGUI_Window interface).">
<polygon fill="white" stroke="#666666" points="296.5,-30 159.5,-30 159.5,0 296.5,0 296.5,-30"/>
<text text-anchor="start" x="167.5" y="-18" font-family="Helvetica,sans-Serif" font-size="10.00">zero_mate::gui::CControl</text>
<text text-anchor="middle" x="228" y="-7" font-family="Helvetica,sans-Serif" font-size="10.00">_Window::Render</text>
</a>
</g>
</g>
<!-- Node8&#45;&gt;Node9 -->
<g id="edge9_Node000008_Node000009" class="edge">
<title>Node8&#45;&gt;Node9</title>
<g id="a_edge9_Node000008_Node000009"><a xlink:title=" ">
<path fill="none" stroke="#63b8ff" d="M326.75,-15C316.63,-15 306.41,-15 296.59,-15"/>
<polygon fill="#63b8ff" stroke="#63b8ff" points="326.83,-18.5 336.83,-15 326.83,-11.5 326.83,-18.5"/>
</a>
</g>
</g>
</g>
</svg>
