<?xml version="1.0" encoding="UTF-8" standalone="no"?>
<!DOCTYPE svg PUBLIC "-//W3C//DTD SVG 1.1//EN"
 "http://www.w3.org/Graphics/SVG/1.1/DTD/svg11.dtd">
<!-- Generated by graphviz version 2.43.0 (0)
 -->
<!-- Title: zero_mate::arm1176jzf_s::isa::CPSR_Transfer::Get_Mask Pages: 1 -->
<svg width="304pt" height="226pt"
 viewBox="0.00 0.00 304.00 226.00" xmlns="http://www.w3.org/2000/svg" xmlns:xlink="http://www.w3.org/1999/xlink">
<g id="graph0" class="graph" transform="scale(1 1) rotate(0) translate(4 222)">
<title>zero_mate::arm1176jzf_s::isa::CPSR_Transfer::Get_Mask</title>
<!-- Node1 -->
<g id="Node000001" class="node">
<title>Node1</title>
<g id="a_Node000001"><a xlink:title="Returns a mask that protects different part of the special register.">
<polygon fill="#999999" stroke="#666666" points="130,-129 0,-129 0,-88 130,-88 130,-129"/>
<text text-anchor="start" x="8" y="-117" font-family="Helvetica,sans-Serif" font-size="10.00">zero_mate::arm1176jzf</text>
<text text-anchor="start" x="8" y="-106" font-family="Helvetica,sans-Serif" font-size="10.00">_s::isa::CPSR_Transfer</text>
<text text-anchor="middle" x="65" y="-95" font-family="Helvetica,sans-Serif" font-size="10.00">::Get_Mask</text>
</a>
</g>
</g>
<!-- Node2 -->
<g id="Node000002" class="node">
<title>Node2</title>
<g id="a_Node000002"><a xlink:href="classzero__mate_1_1arm1176jzf__s_1_1isa_1_1CPSR__Transfer.html#a57095b246ae459c4135f5d5d9f6cbc85" target="_top" xlink:title="Returns the value of the C bit (helper function).">
<polygon fill="white" stroke="#666666" points="296,-218 166,-218 166,-177 296,-177 296,-218"/>
<text text-anchor="start" x="174" y="-206" font-family="Helvetica,sans-Serif" font-size="10.00">zero_mate::arm1176jzf</text>
<text text-anchor="start" x="174" y="-195" font-family="Helvetica,sans-Serif" font-size="10.00">_s::isa::CPSR_Transfer</text>
<text text-anchor="middle" x="231" y="-184" font-family="Helvetica,sans-Serif" font-size="10.00">::Is_C_Bit_Set</text>
</a>
</g>
</g>
<!-- Node1&#45;&gt;Node2 -->
<g id="edge1_Node000001_Node000002" class="edge">
<title>Node1&#45;&gt;Node2</title>
<g id="a_edge1_Node000001_Node000002"><a xlink:title=" ">
<path fill="none" stroke="#63b8ff" d="M98.34,-129.19C117.66,-141.23 142.87,-156.37 166,-168.5 168.53,-169.83 171.14,-171.16 173.78,-172.47"/>
<polygon fill="#63b8ff" stroke="#63b8ff" points="172.34,-175.66 182.86,-176.89 175.4,-169.37 172.34,-175.66"/>
</a>
</g>
</g>
<!-- Node3 -->
<g id="Node000003" class="node">
<title>Node3</title>
<g id="a_Node000003"><a xlink:href="classzero__mate_1_1arm1176jzf__s_1_1isa_1_1CPSR__Transfer.html#aa2fa7591782207b606ca5542f57622cb" target="_top" xlink:title="Returns the value of the F bit (helper function).">
<polygon fill="white" stroke="#666666" points="296,-159 166,-159 166,-118 296,-118 296,-159"/>
<text text-anchor="start" x="174" y="-147" font-family="Helvetica,sans-Serif" font-size="10.00">zero_mate::arm1176jzf</text>
<text text-anchor="start" x="174" y="-136" font-family="Helvetica,sans-Serif" font-size="10.00">_s::isa::CPSR_Transfer</text>
<text text-anchor="middle" x="231" y="-125" font-family="Helvetica,sans-Serif" font-size="10.00">::Is_F_Bit_Set</text>
</a>
</g>
</g>
<!-- Node1&#45;&gt;Node3 -->
<g id="edge2_Node000001_Node000003" class="edge">
<title>Node1&#45;&gt;Node3</title>
<g id="a_edge2_Node000001_Node000003"><a xlink:title=" ">
<path fill="none" stroke="#63b8ff" d="M130.35,-120.27C138.73,-121.8 147.37,-123.39 155.9,-124.95"/>
<polygon fill="#63b8ff" stroke="#63b8ff" points="155.37,-128.41 165.84,-126.76 156.63,-121.52 155.37,-128.41"/>
</a>
</g>
</g>
<!-- Node4 -->
<g id="Node000004" class="node">
<title>Node4</title>
<g id="a_Node000004"><a xlink:href="classzero__mate_1_1arm1176jzf__s_1_1isa_1_1CPSR__Transfer.html#a6a0b2b90bc8fa9d50266f4416f2b5a0d" target="_top" xlink:title="Returns the value of the S bit (helper function).">
<polygon fill="white" stroke="#666666" points="296,-100 166,-100 166,-59 296,-59 296,-100"/>
<text text-anchor="start" x="174" y="-88" font-family="Helvetica,sans-Serif" font-size="10.00">zero_mate::arm1176jzf</text>
<text text-anchor="start" x="174" y="-77" font-family="Helvetica,sans-Serif" font-size="10.00">_s::isa::CPSR_Transfer</text>
<text text-anchor="middle" x="231" y="-66" font-family="Helvetica,sans-Serif" font-size="10.00">::Is_S_Bit_Set</text>
</a>
</g>
</g>
<!-- Node1&#45;&gt;Node4 -->
<g id="edge3_Node000001_Node000004" class="edge">
<title>Node1&#45;&gt;Node4</title>
<g id="a_edge3_Node000001_Node000004"><a xlink:title=" ">
<path fill="none" stroke="#63b8ff" d="M130.35,-97.12C138.73,-95.64 147.37,-94.11 155.9,-92.6"/>
<polygon fill="#63b8ff" stroke="#63b8ff" points="156.6,-96.03 165.84,-90.85 155.38,-89.14 156.6,-96.03"/>
</a>
</g>
</g>
<!-- Node5 -->
<g id="Node000005" class="node">
<title>Node5</title>
<g id="a_Node000005"><a xlink:href="classzero__mate_1_1arm1176jzf__s_1_1isa_1_1CPSR__Transfer.html#ad7c504ddc0bf7e0d391e49993b6159ef" target="_top" xlink:title="Returns the value of the X bit (helper function).">
<polygon fill="white" stroke="#666666" points="296,-41 166,-41 166,0 296,0 296,-41"/>
<text text-anchor="start" x="174" y="-29" font-family="Helvetica,sans-Serif" font-size="10.00">zero_mate::arm1176jzf</text>
<text text-anchor="start" x="174" y="-18" font-family="Helvetica,sans-Serif" font-size="10.00">_s::isa::CPSR_Transfer</text>
<text text-anchor="middle" x="231" y="-7" font-family="Helvetica,sans-Serif" font-size="10.00">::Is_X_Bit_Set</text>
</a>
</g>
</g>
<!-- Node1&#45;&gt;Node5 -->
<g id="edge4_Node000001_Node000005" class="edge">
<title>Node1&#45;&gt;Node5</title>
<g id="a_edge4_Node000001_Node000005"><a xlink:title=" ">
<path fill="none" stroke="#63b8ff" d="M99.84,-87.89C119.02,-76.46 143.59,-62.22 166,-50.5 169.08,-48.89 172.27,-47.26 175.5,-45.65"/>
<polygon fill="#63b8ff" stroke="#63b8ff" points="177.22,-48.7 184.65,-41.16 174.13,-42.42 177.22,-48.7"/>
</a>
</g>
</g>
</g>
</svg>
