<?xml version="1.0" encoding="UTF-8" standalone="no"?>
<!DOCTYPE svg PUBLIC "-//W3C//DTD SVG 1.1//EN"
 "http://www.w3.org/Graphics/SVG/1.1/DTD/svg11.dtd">
<!-- Generated by graphviz version 2.43.0 (0)
 -->
<!-- Title: zero_mate::coprocessor::cp10::CCP10::Perform_Register_Transfer Pages: 1 -->
<svg width="880pt" height="170pt"
 viewBox="0.00 0.00 880.00 169.50" xmlns="http://www.w3.org/2000/svg" xmlns:xlink="http://www.w3.org/1999/xlink">
<g id="graph0" class="graph" transform="scale(1 1) rotate(0) translate(4 165.5)">
<title>zero_mate::coprocessor::cp10::CCP10::Perform_Register_Transfer</title>
<!-- Node1 -->
<g id="Node000001" class="node">
<title>Node1</title>
<g id="a_Node000001"><a xlink:title="Performs a coprocessor register transfer instruction (ICoprocessor interface).">
<polygon fill="#999999" stroke="#666666" points="133,-95 0,-95 0,-54 133,-54 133,-95"/>
<text text-anchor="start" x="8" y="-83" font-family="Helvetica,sans-Serif" font-size="10.00">zero_mate::coprocessor</text>
<text text-anchor="start" x="8" y="-72" font-family="Helvetica,sans-Serif" font-size="10.00">::cp10::CCP10::Perform</text>
<text text-anchor="middle" x="66.5" y="-61" font-family="Helvetica,sans-Serif" font-size="10.00">_Register_Transfer</text>
</a>
</g>
</g>
<!-- Node2 -->
<g id="Node000002" class="node">
<title>Node2</title>
<g id="a_Node000002"><a xlink:href="classzero__mate_1_1utils_1_1CLogging__System.html#a57ed77e1a5cf822cea532cc5e05c3f60" target="_top" xlink:title="Logs an error message via all registered loggers.">
<polygon fill="white" stroke="#666666" points="488,-110.5 342,-110.5 342,-80.5 488,-80.5 488,-110.5"/>
<text text-anchor="start" x="350" y="-98.5" font-family="Helvetica,sans-Serif" font-size="10.00">zero_mate::utils::CLogging</text>
<text text-anchor="middle" x="415" y="-87.5" font-family="Helvetica,sans-Serif" font-size="10.00">_System::Error</text>
</a>
</g>
</g>
<!-- Node1&#45;&gt;Node2 -->
<g id="edge1_Node000001_Node000002" class="edge">
<title>Node1&#45;&gt;Node2</title>
<g id="a_edge1_Node000001_Node000002"><a xlink:title=" ">
<path fill="none" stroke="#63b8ff" d="M133.17,-92.37C145.01,-94.92 157.31,-97.14 169,-98.5 222.93,-104.79 283.98,-104.06 331.65,-101.75"/>
<polygon fill="#63b8ff" stroke="#63b8ff" points="332.12,-105.23 341.92,-101.22 331.75,-98.24 332.12,-105.23"/>
</a>
</g>
</g>
<!-- Node7 -->
<g id="Node000007" class="node">
<title>Node7</title>
<g id="a_Node000007"><a xlink:href="classzero__mate_1_1coprocessor_1_1cp10_1_1CCP10.html#a7f6b1e7f172aafcf372be4fe19c446a7" target="_top" xlink:title="Executes a VMSR floating point instruction.">
<polygon fill="white" stroke="#666666" points="304,-89.5 171,-89.5 171,-59.5 304,-59.5 304,-89.5"/>
<text text-anchor="start" x="179" y="-77.5" font-family="Helvetica,sans-Serif" font-size="10.00">zero_mate::coprocessor</text>
<text text-anchor="middle" x="237.5" y="-66.5" font-family="Helvetica,sans-Serif" font-size="10.00">::cp10::CCP10::Execute</text>
</a>
</g>
</g>
<!-- Node1&#45;&gt;Node7 -->
<g id="edge6_Node000001_Node000007" class="edge">
<title>Node1&#45;&gt;Node7</title>
<g id="a_edge6_Node000001_Node000007"><a xlink:title=" ">
<path fill="none" stroke="#63b8ff" d="M133.32,-74.5C142.28,-74.5 151.53,-74.5 160.65,-74.5"/>
<polygon fill="#63b8ff" stroke="#63b8ff" points="160.86,-78 170.86,-74.5 160.86,-71 160.86,-78"/>
</a>
</g>
</g>
<!-- Node8 -->
<g id="Node000008" class="node">
<title>Node8</title>
<g id="a_Node000008"><a xlink:href="classzero__mate_1_1coprocessor_1_1cp10_1_1isa_1_1CCP__Register__Transfer__Inst.html#a28c8ac851ef5d99994e2498cb20d8262" target="_top" xlink:title="Returns the type of the instruction.">
<polygon fill="white" stroke="#666666" points="306,-41 169,-41 169,0 306,0 306,-41"/>
<text text-anchor="start" x="177" y="-29" font-family="Helvetica,sans-Serif" font-size="10.00">zero_mate::coprocessor</text>
<text text-anchor="start" x="177" y="-18" font-family="Helvetica,sans-Serif" font-size="10.00">::cp10::isa::CCP_Register</text>
<text text-anchor="middle" x="237.5" y="-7" font-family="Helvetica,sans-Serif" font-size="10.00">_Transfer_Inst::Get_Type</text>
</a>
</g>
</g>
<!-- Node1&#45;&gt;Node8 -->
<g id="edge8_Node000001_Node000008" class="edge">
<title>Node1&#45;&gt;Node8</title>
<g id="a_edge8_Node000001_Node000008"><a xlink:title=" ">
<path fill="none" stroke="#63b8ff" d="M131.87,-53.93C141.91,-50.72 152.35,-47.39 162.58,-44.12"/>
<polygon fill="#63b8ff" stroke="#63b8ff" points="163.84,-47.39 172.31,-41.01 161.71,-40.72 163.84,-47.39"/>
</a>
</g>
</g>
<!-- Node3 -->
<g id="Node000003" class="node">
<title>Node3</title>
<g id="a_Node000003"><a xlink:href="classzero__mate_1_1utils_1_1CLogging__System.html#a71ed11c796553cbe8fd99773406a1060" target="_top" xlink:title="Creates a formatted message to be logged.">
<polygon fill="white" stroke="#666666" points="676,-143 524,-143 524,-102 676,-102 676,-143"/>
<text text-anchor="start" x="532" y="-131" font-family="Helvetica,sans-Serif" font-size="10.00">zero_mate::utils::CLogging</text>
<text text-anchor="start" x="532" y="-120" font-family="Helvetica,sans-Serif" font-size="10.00">_System::Create_Formatted</text>
<text text-anchor="middle" x="600" y="-109" font-family="Helvetica,sans-Serif" font-size="10.00">_Log_Msg</text>
</a>
</g>
</g>
<!-- Node2&#45;&gt;Node3 -->
<g id="edge2_Node000002_Node000003" class="edge">
<title>Node2&#45;&gt;Node3</title>
<g id="a_edge2_Node000002_Node000003"><a xlink:title=" ">
<path fill="none" stroke="#63b8ff" d="M488.06,-106.13C496.55,-107.38 505.26,-108.67 513.9,-109.94"/>
<polygon fill="#63b8ff" stroke="#63b8ff" points="513.59,-113.44 523.99,-111.43 514.61,-106.51 513.59,-113.44"/>
</a>
</g>
</g>
<!-- Node6 -->
<g id="Node000006" class="node">
<title>Node6</title>
<g id="a_Node000006"><a xlink:href="classzero__mate_1_1utils_1_1CLogging__System.html#ad371c67ef65763966ccf9291002e86f3" target="_top" xlink:title="Extract the filename from a given location within the source files.">
<polygon fill="white" stroke="#666666" points="674.5,-83.5 525.5,-83.5 525.5,-53.5 674.5,-53.5 674.5,-83.5"/>
<text text-anchor="start" x="533.5" y="-71.5" font-family="Helvetica,sans-Serif" font-size="10.00">zero_mate::utils::CLogging</text>
<text text-anchor="middle" x="600" y="-60.5" font-family="Helvetica,sans-Serif" font-size="10.00">_System::Extract_Filename</text>
</a>
</g>
</g>
<!-- Node2&#45;&gt;Node6 -->
<g id="edge5_Node000002_Node000006" class="edge">
<title>Node2&#45;&gt;Node6</title>
<g id="a_edge5_Node000002_Node000006"><a xlink:title=" ">
<path fill="none" stroke="#63b8ff" d="M488.06,-84.87C497.1,-83.53 506.4,-82.16 515.59,-80.81"/>
<polygon fill="#63b8ff" stroke="#63b8ff" points="516.12,-84.27 525.5,-79.34 515.1,-77.34 516.12,-84.27"/>
</a>
</g>
</g>
<!-- Node4 -->
<g id="Node000004" class="node">
<title>Node4</title>
<g id="a_Node000004"><a xlink:href="classzero__mate_1_1utils_1_1CLogging__System.html#aa70c102c805079042ffea2a6f2a5ad64" target="_top" xlink:title="Formats a given timestamp.">
<polygon fill="white" stroke="#666666" points="872,-161.5 712,-161.5 712,-131.5 872,-131.5 872,-161.5"/>
<text text-anchor="start" x="720" y="-149.5" font-family="Helvetica,sans-Serif" font-size="10.00">zero_mate::utils::CLogging</text>
<text text-anchor="middle" x="792" y="-138.5" font-family="Helvetica,sans-Serif" font-size="10.00">_System::Format_Timestamp</text>
</a>
</g>
</g>
<!-- Node3&#45;&gt;Node4 -->
<g id="edge3_Node000003_Node000004" class="edge">
<title>Node3&#45;&gt;Node4</title>
<g id="a_edge3_Node000003_Node000004"><a xlink:title=" ">
<path fill="none" stroke="#63b8ff" d="M676.09,-131.99C684.52,-133.05 693.16,-134.14 701.74,-135.23"/>
<polygon fill="#63b8ff" stroke="#63b8ff" points="701.41,-138.71 711.77,-136.49 702.29,-131.77 701.41,-138.71"/>
</a>
</g>
</g>
<!-- Node5 -->
<g id="Node000005" class="node">
<title>Node5</title>
<g id="a_Node000005"><a xlink:href="classzero__mate_1_1utils_1_1CLogging__System.html#ae3ca637537dde05e0b9119145c840331" target="_top" xlink:title="Returns the current timestamp that will be used in a log message.">
<polygon fill="white" stroke="#666666" points="865,-113.5 719,-113.5 719,-83.5 865,-83.5 865,-113.5"/>
<text text-anchor="start" x="727" y="-101.5" font-family="Helvetica,sans-Serif" font-size="10.00">zero_mate::utils::CLogging</text>
<text text-anchor="middle" x="792" y="-90.5" font-family="Helvetica,sans-Serif" font-size="10.00">_System::Get_Timestamp</text>
</a>
</g>
</g>
<!-- Node3&#45;&gt;Node5 -->
<g id="edge4_Node000003_Node000005" class="edge">
<title>Node3&#45;&gt;Node5</title>
<g id="a_edge4_Node000003_Node000005"><a xlink:title=" ">
<path fill="none" stroke="#63b8ff" d="M676.09,-113.01C686.89,-111.65 698.05,-110.24 708.98,-108.86"/>
<polygon fill="#63b8ff" stroke="#63b8ff" points="709.45,-112.33 718.93,-107.6 708.57,-105.38 709.45,-112.33"/>
</a>
</g>
</g>
<!-- Node7&#45;&gt;Node2 -->
<g id="edge7_Node000007_Node000002" class="edge">
<title>Node7&#45;&gt;Node2</title>
<g id="a_edge7_Node000007_Node000002"><a xlink:title=" ">
<path fill="none" stroke="#63b8ff" d="M304.35,-82.38C313.35,-83.46 322.68,-84.57 331.92,-85.68"/>
<polygon fill="#63b8ff" stroke="#63b8ff" points="331.55,-89.16 341.9,-86.87 332.39,-82.21 331.55,-89.16"/>
</a>
</g>
</g>
</g>
</svg>
