<?xml version="1.0" encoding="UTF-8" standalone="no"?>
<!DOCTYPE svg PUBLIC "-//W3C//DTD SVG 1.1//EN"
 "http://www.w3.org/Graphics/SVG/1.1/DTD/svg11.dtd">
<!-- Generated by graphviz version 2.43.0 (0)
 -->
<!-- Title: zero_mate::coprocessor::ICoprocessor Pages: 1 -->
<svg width="292pt" height="104pt"
 viewBox="0.00 0.00 292.00 104.00" xmlns="http://www.w3.org/2000/svg" xmlns:xlink="http://www.w3.org/1999/xlink">
<g id="graph0" class="graph" transform="scale(1 1) rotate(0) translate(4 100)">
<title>zero_mate::coprocessor::ICoprocessor</title>
<!-- Node1 -->
<g id="Node000001" class="node">
<title>Node1</title>
<g id="a_Node000001"><a xlink:title="This class represents an interface of a coprocessor.">
<polygon fill="#999999" stroke="#666666" points="208,-96 75,-96 75,-66 208,-66 208,-96"/>
<text text-anchor="start" x="83" y="-84" font-family="Helvetica,sans-Serif" font-size="10.00">zero_mate::coprocessor</text>
<text text-anchor="middle" x="141.5" y="-73" font-family="Helvetica,sans-Serif" font-size="10.00">::ICoprocessor</text>
</a>
</g>
</g>
<!-- Node2 -->
<g id="Node000002" class="node">
<title>Node2</title>
<g id="a_Node000002"><a xlink:href="classzero__mate_1_1coprocessor_1_1cp10_1_1CCP10.html" target="_top" xlink:title="This class represents coprocessor 10 (single&#45;precision FPU).">
<polygon fill="white" stroke="#666666" points="133,-30 0,-30 0,0 133,0 133,-30"/>
<text text-anchor="start" x="8" y="-18" font-family="Helvetica,sans-Serif" font-size="10.00">zero_mate::coprocessor</text>
<text text-anchor="middle" x="66.5" y="-7" font-family="Helvetica,sans-Serif" font-size="10.00">::cp10::CCP10</text>
</a>
</g>
</g>
<!-- Node1&#45;&gt;Node2 -->
<g id="edge1_Node000001_Node000002" class="edge">
<title>Node1&#45;&gt;Node2</title>
<g id="a_edge1_Node000001_Node000002"><a xlink:title=" ">
<path fill="none" stroke="#63b8ff" d="M117.13,-59.2C105.99,-49.7 93.09,-38.69 83.1,-30.16"/>
<polygon fill="#63b8ff" stroke="#63b8ff" points="114.98,-61.97 124.86,-65.8 119.52,-56.64 114.98,-61.97"/>
</a>
</g>
</g>
<!-- Node3 -->
<g id="Node000003" class="node">
<title>Node3</title>
<g id="a_Node000003"><a xlink:href="classzero__mate_1_1coprocessor_1_1cp15_1_1CCP15.html" target="_top" xlink:title="This class represents coprocessor CP15.">
<polygon fill="white" stroke="#666666" points="284,-30 151,-30 151,0 284,0 284,-30"/>
<text text-anchor="start" x="159" y="-18" font-family="Helvetica,sans-Serif" font-size="10.00">zero_mate::coprocessor</text>
<text text-anchor="middle" x="217.5" y="-7" font-family="Helvetica,sans-Serif" font-size="10.00">::cp15::CCP15</text>
</a>
</g>
</g>
<!-- Node1&#45;&gt;Node3 -->
<g id="edge2_Node000001_Node000003" class="edge">
<title>Node1&#45;&gt;Node3</title>
<g id="a_edge2_Node000001_Node000003"><a xlink:title=" ">
<path fill="none" stroke="#63b8ff" d="M166.2,-59.2C177.48,-49.7 190.55,-38.69 200.68,-30.16"/>
<polygon fill="#63b8ff" stroke="#63b8ff" points="163.76,-56.68 158.37,-65.8 168.27,-62.03 163.76,-56.68"/>
</a>
</g>
</g>
</g>
</svg>
