<?xml version="1.0" encoding="UTF-8" standalone="no"?>
<!DOCTYPE svg PUBLIC "-//W3C//DTD SVG 1.1//EN"
 "http://www.w3.org/Graphics/SVG/1.1/DTD/svg11.dtd">
<!-- Generated by graphviz version 2.43.0 (0)
 -->
<!-- Title: zero_mate::gui::CControl_Window::Start_CPU_Thread Pages: 1 -->
<svg width="901pt" height="116pt"
 viewBox="0.00 0.00 901.00 116.00" xmlns="http://www.w3.org/2000/svg" xmlns:xlink="http://www.w3.org/1999/xlink">
<g id="graph0" class="graph" transform="scale(1 1) rotate(0) translate(4 112)">
<title>zero_mate::gui::CControl_Window::Start_CPU_Thread</title>
<!-- Node1 -->
<g id="Node000001" class="node">
<title>Node1</title>
<g id="a_Node000001"><a xlink:title="Starts CPU execution as a separate thread.">
<polygon fill="#999999" stroke="#666666" points="154,-57 0,-57 0,-27 154,-27 154,-57"/>
<text text-anchor="start" x="8" y="-45" font-family="Helvetica,sans-Serif" font-size="10.00">zero_mate::gui::CControl</text>
<text text-anchor="middle" x="77" y="-34" font-family="Helvetica,sans-Serif" font-size="10.00">_Window::Start_CPU_Thread</text>
</a>
</g>
</g>
<!-- Node2 -->
<g id="Node000002" class="node">
<title>Node2</title>
<g id="a_Node000002"><a xlink:href="classzero__mate_1_1gui_1_1CControl__Window.html#ad83b2651e1d6bf8ed72e3553526f17ca" target="_top" xlink:title="Runs CPU execution (separate thread).">
<polygon fill="white" stroke="#666666" points="327,-57 190,-57 190,-27 327,-27 327,-57"/>
<text text-anchor="start" x="198" y="-45" font-family="Helvetica,sans-Serif" font-size="10.00">zero_mate::gui::CControl</text>
<text text-anchor="middle" x="258.5" y="-34" font-family="Helvetica,sans-Serif" font-size="10.00">_Window::Run</text>
</a>
</g>
</g>
<!-- Node1&#45;&gt;Node2 -->
<g id="edge1_Node000001_Node000002" class="edge">
<title>Node1&#45;&gt;Node2</title>
<g id="a_edge1_Node000001_Node000002"><a xlink:title=" ">
<path fill="none" stroke="#63b8ff" d="M154.12,-42C162.55,-42 171.14,-42 179.58,-42"/>
<polygon fill="#63b8ff" stroke="#63b8ff" points="179.79,-45.5 189.79,-42 179.79,-38.5 179.79,-45.5"/>
</a>
</g>
</g>
<!-- Node3 -->
<g id="Node000003" class="node">
<title>Node3</title>
<g id="a_Node000003"><a xlink:href="classzero__mate_1_1utils_1_1CLogging__System.html#a455d99c3614dc92ffbdbdcdb6b8b8bb8" target="_top" xlink:title="Logs an info message via all registered loggers.">
<polygon fill="white" stroke="#666666" points="509,-57 363,-57 363,-27 509,-27 509,-57"/>
<text text-anchor="start" x="371" y="-45" font-family="Helvetica,sans-Serif" font-size="10.00">zero_mate::utils::CLogging</text>
<text text-anchor="middle" x="436" y="-34" font-family="Helvetica,sans-Serif" font-size="10.00">_System::Info</text>
</a>
</g>
</g>
<!-- Node2&#45;&gt;Node3 -->
<g id="edge2_Node000002_Node000003" class="edge">
<title>Node2&#45;&gt;Node3</title>
<g id="a_edge2_Node000002_Node000003"><a xlink:title=" ">
<path fill="none" stroke="#63b8ff" d="M327.1,-42C335.5,-42 344.16,-42 352.75,-42"/>
<polygon fill="#63b8ff" stroke="#63b8ff" points="352.77,-45.5 362.77,-42 352.77,-38.5 352.77,-45.5"/>
</a>
</g>
</g>
<!-- Node4 -->
<g id="Node000004" class="node">
<title>Node4</title>
<g id="a_Node000004"><a xlink:href="classzero__mate_1_1utils_1_1CLogging__System.html#a71ed11c796553cbe8fd99773406a1060" target="_top" xlink:title="Creates a formatted message to be logged.">
<polygon fill="white" stroke="#666666" points="697,-89.5 545,-89.5 545,-48.5 697,-48.5 697,-89.5"/>
<text text-anchor="start" x="553" y="-77.5" font-family="Helvetica,sans-Serif" font-size="10.00">zero_mate::utils::CLogging</text>
<text text-anchor="start" x="553" y="-66.5" font-family="Helvetica,sans-Serif" font-size="10.00">_System::Create_Formatted</text>
<text text-anchor="middle" x="621" y="-55.5" font-family="Helvetica,sans-Serif" font-size="10.00">_Log_Msg</text>
</a>
</g>
</g>
<!-- Node3&#45;&gt;Node4 -->
<g id="edge3_Node000003_Node000004" class="edge">
<title>Node3&#45;&gt;Node4</title>
<g id="a_edge3_Node000003_Node000004"><a xlink:title=" ">
<path fill="none" stroke="#63b8ff" d="M509.06,-52.63C517.55,-53.88 526.26,-55.17 534.9,-56.44"/>
<polygon fill="#63b8ff" stroke="#63b8ff" points="534.59,-59.94 544.99,-57.93 535.61,-53.01 534.59,-59.94"/>
</a>
</g>
</g>
<!-- Node7 -->
<g id="Node000007" class="node">
<title>Node7</title>
<g id="a_Node000007"><a xlink:href="classzero__mate_1_1utils_1_1CLogging__System.html#ad371c67ef65763966ccf9291002e86f3" target="_top" xlink:title="Extract the filename from a given location within the source files.">
<polygon fill="white" stroke="#666666" points="695.5,-30 546.5,-30 546.5,0 695.5,0 695.5,-30"/>
<text text-anchor="start" x="554.5" y="-18" font-family="Helvetica,sans-Serif" font-size="10.00">zero_mate::utils::CLogging</text>
<text text-anchor="middle" x="621" y="-7" font-family="Helvetica,sans-Serif" font-size="10.00">_System::Extract_Filename</text>
</a>
</g>
</g>
<!-- Node3&#45;&gt;Node7 -->
<g id="edge6_Node000003_Node000007" class="edge">
<title>Node3&#45;&gt;Node7</title>
<g id="a_edge6_Node000003_Node000007"><a xlink:title=" ">
<path fill="none" stroke="#63b8ff" d="M509.06,-31.37C518.1,-30.03 527.4,-28.66 536.59,-27.31"/>
<polygon fill="#63b8ff" stroke="#63b8ff" points="537.12,-30.77 546.5,-25.84 536.1,-23.84 537.12,-30.77"/>
</a>
</g>
</g>
<!-- Node5 -->
<g id="Node000005" class="node">
<title>Node5</title>
<g id="a_Node000005"><a xlink:href="classzero__mate_1_1utils_1_1CLogging__System.html#aa70c102c805079042ffea2a6f2a5ad64" target="_top" xlink:title="Formats a given timestamp.">
<polygon fill="white" stroke="#666666" points="893,-108 733,-108 733,-78 893,-78 893,-108"/>
<text text-anchor="start" x="741" y="-96" font-family="Helvetica,sans-Serif" font-size="10.00">zero_mate::utils::CLogging</text>
<text text-anchor="middle" x="813" y="-85" font-family="Helvetica,sans-Serif" font-size="10.00">_System::Format_Timestamp</text>
</a>
</g>
</g>
<!-- Node4&#45;&gt;Node5 -->
<g id="edge4_Node000004_Node000005" class="edge">
<title>Node4&#45;&gt;Node5</title>
<g id="a_edge4_Node000004_Node000005"><a xlink:title=" ">
<path fill="none" stroke="#63b8ff" d="M697.09,-78.49C705.52,-79.55 714.16,-80.64 722.74,-81.73"/>
<polygon fill="#63b8ff" stroke="#63b8ff" points="722.41,-85.21 732.77,-82.99 723.29,-78.27 722.41,-85.21"/>
</a>
</g>
</g>
<!-- Node6 -->
<g id="Node000006" class="node">
<title>Node6</title>
<g id="a_Node000006"><a xlink:href="classzero__mate_1_1utils_1_1CLogging__System.html#ae3ca637537dde05e0b9119145c840331" target="_top" xlink:title="Returns the current timestamp that will be used in a log message.">
<polygon fill="white" stroke="#666666" points="886,-60 740,-60 740,-30 886,-30 886,-60"/>
<text text-anchor="start" x="748" y="-48" font-family="Helvetica,sans-Serif" font-size="10.00">zero_mate::utils::CLogging</text>
<text text-anchor="middle" x="813" y="-37" font-family="Helvetica,sans-Serif" font-size="10.00">_System::Get_Timestamp</text>
</a>
</g>
</g>
<!-- Node4&#45;&gt;Node6 -->
<g id="edge5_Node000004_Node000006" class="edge">
<title>Node4&#45;&gt;Node6</title>
<g id="a_edge5_Node000004_Node000006"><a xlink:title=" ">
<path fill="none" stroke="#63b8ff" d="M697.09,-59.51C707.89,-58.15 719.05,-56.74 729.98,-55.36"/>
<polygon fill="#63b8ff" stroke="#63b8ff" points="730.45,-58.83 739.93,-54.1 729.57,-51.88 730.45,-58.83"/>
</a>
</g>
</g>
</g>
</svg>
