<?xml version="1.0" encoding="UTF-8" standalone="no"?>
<!DOCTYPE svg PUBLIC "-//W3C//DTD SVG 1.1//EN"
 "http://www.w3.org/Graphics/SVG/1.1/DTD/svg11.dtd">
<!-- Generated by graphviz version 2.43.0 (0)
 -->
<!-- Title: zero_mate::peripheral::CARM_Timer::CPrescaler::Reset Pages: 1 -->
<svg width="521pt" height="98pt"
 viewBox="0.00 0.00 521.00 97.50" xmlns="http://www.w3.org/2000/svg" xmlns:xlink="http://www.w3.org/1999/xlink">
<g id="graph0" class="graph" transform="scale(1 1) rotate(0) translate(4 93.5)">
<title>zero_mate::peripheral::CARM_Timer::CPrescaler::Reset</title>
<!-- Node1 -->
<g id="Node000001" class="node">
<title>Node1</title>
<g id="a_Node000001"><a xlink:title="Resets the prescaler.">
<polygon fill="#999999" stroke="#666666" points="513,-62.5 370,-62.5 370,-21.5 513,-21.5 513,-62.5"/>
<text text-anchor="start" x="378" y="-50.5" font-family="Helvetica,sans-Serif" font-size="10.00">zero_mate::peripheral</text>
<text text-anchor="start" x="378" y="-39.5" font-family="Helvetica,sans-Serif" font-size="10.00">::CARM_Timer::CPrescaler</text>
<text text-anchor="middle" x="441.5" y="-28.5" font-family="Helvetica,sans-Serif" font-size="10.00">::Reset</text>
</a>
</g>
</g>
<!-- Node2 -->
<g id="Node000002" class="node">
<title>Node2</title>
<g id="a_Node000002"><a xlink:href="classzero__mate_1_1peripheral_1_1CARM__Timer_1_1CPrescaler.html#a440710dcce7be4e7dd1940bda5de1f0e" target="_top" xlink:title="Creates an instance of the class.">
<polygon fill="white" stroke="#666666" points="334,-89.5 191,-89.5 191,-48.5 334,-48.5 334,-89.5"/>
<text text-anchor="start" x="199" y="-77.5" font-family="Helvetica,sans-Serif" font-size="10.00">zero_mate::peripheral</text>
<text text-anchor="start" x="199" y="-66.5" font-family="Helvetica,sans-Serif" font-size="10.00">::CARM_Timer::CPrescaler</text>
<text text-anchor="middle" x="262.5" y="-55.5" font-family="Helvetica,sans-Serif" font-size="10.00">::CPrescaler</text>
</a>
</g>
</g>
<!-- Node1&#45;&gt;Node2 -->
<g id="edge1_Node000001_Node000002" class="edge">
<title>Node1&#45;&gt;Node2</title>
<g id="a_edge1_Node000001_Node000002"><a xlink:title=" ">
<path fill="none" stroke="#63b8ff" d="M359.79,-54.31C351.22,-55.62 342.55,-56.94 334.11,-58.23"/>
<polygon fill="#63b8ff" stroke="#63b8ff" points="360.42,-57.76 369.78,-52.79 359.37,-50.84 360.42,-57.76"/>
</a>
</g>
</g>
<!-- Node3 -->
<g id="Node000003" class="node">
<title>Node3</title>
<g id="a_Node000003"><a xlink:href="classzero__mate_1_1peripheral_1_1CARM__Timer.html#a98d9eb00ca1545607ed62e4051063eb7" target="_top" xlink:title="Resets/re&#45;initializes the ARM timer (IPeripheral interface).">
<polygon fill="white" stroke="#666666" points="324.5,-30 200.5,-30 200.5,0 324.5,0 324.5,-30"/>
<text text-anchor="start" x="208.5" y="-18" font-family="Helvetica,sans-Serif" font-size="10.00">zero_mate::peripheral</text>
<text text-anchor="middle" x="262.5" y="-7" font-family="Helvetica,sans-Serif" font-size="10.00">::CARM_Timer::Reset</text>
</a>
</g>
</g>
<!-- Node1&#45;&gt;Node3 -->
<g id="edge2_Node000001_Node000003" class="edge">
<title>Node1&#45;&gt;Node3</title>
<g id="a_edge2_Node000001_Node000003"><a xlink:title=" ">
<path fill="none" stroke="#63b8ff" d="M359.55,-29.65C347.83,-27.86 335.93,-26.05 324.69,-24.33"/>
<polygon fill="#63b8ff" stroke="#63b8ff" points="359.37,-33.16 369.78,-31.21 360.42,-26.24 359.37,-33.16"/>
</a>
</g>
</g>
<!-- Node4 -->
<g id="Node000004" class="node">
<title>Node4</title>
<g id="a_Node000004"><a xlink:href="classzero__mate_1_1peripheral_1_1CARM__Timer.html#a6e04a50b8de25f632bd3fd6f0650ca89" target="_top" xlink:title="Creates an instance of the class.">
<polygon fill="white" stroke="#666666" points="155,-30 0,-30 0,0 155,0 155,-30"/>
<text text-anchor="start" x="8" y="-18" font-family="Helvetica,sans-Serif" font-size="10.00">zero_mate::peripheral</text>
<text text-anchor="middle" x="77.5" y="-7" font-family="Helvetica,sans-Serif" font-size="10.00">::CARM_Timer::CARM_Timer</text>
</a>
</g>
</g>
<!-- Node3&#45;&gt;Node4 -->
<g id="edge3_Node000003_Node000004" class="edge">
<title>Node3&#45;&gt;Node4</title>
<g id="a_edge3_Node000003_Node000004"><a xlink:title=" ">
<path fill="none" stroke="#63b8ff" d="M189.99,-15C178.59,-15 166.76,-15 155.25,-15"/>
<polygon fill="#63b8ff" stroke="#63b8ff" points="190.31,-18.5 200.31,-15 190.31,-11.5 190.31,-18.5"/>
</a>
</g>
</g>
</g>
</svg>
