<?xml version="1.0" encoding="UTF-8" standalone="no"?>
<!DOCTYPE svg PUBLIC "-//W3C//DTD SVG 1.1//EN"
 "http://www.w3.org/Graphics/SVG/1.1/DTD/svg11.dtd">
<!-- Generated by graphviz version 2.43.0 (0)
 -->
<!-- Title: zero_mate::gui::CCP15_Window::Render_Tab_Bar Pages: 1 -->
<svg width="499pt" height="285pt"
 viewBox="0.00 0.00 499.00 285.00" xmlns="http://www.w3.org/2000/svg" xmlns:xlink="http://www.w3.org/1999/xlink">
<g id="graph0" class="graph" transform="scale(1 1) rotate(0) translate(4 281)">
<title>zero_mate::gui::CCP15_Window::Render_Tab_Bar</title>
<!-- Node1 -->
<g id="Node000001" class="node">
<title>Node1</title>
<g id="a_Node000001"><a xlink:title="Renders tabs representing the primary registers of CP15.">
<polygon fill="#999999" stroke="#666666" points="144,-153.5 0,-153.5 0,-123.5 144,-123.5 144,-153.5"/>
<text text-anchor="start" x="8" y="-141.5" font-family="Helvetica,sans-Serif" font-size="10.00">zero_mate::gui::CCP15</text>
<text text-anchor="middle" x="72" y="-130.5" font-family="Helvetica,sans-Serif" font-size="10.00">_Window::Render_Tab_Bar</text>
</a>
</g>
</g>
<!-- Node2 -->
<g id="Node000002" class="node">
<title>Node2</title>
<g id="a_Node000002"><a xlink:href="classzero__mate_1_1gui_1_1CCP15__Window.html#a27304ba7d10bb901f8fe474ccb61f57f" target="_top" xlink:title="Renders registers that fall under primary register C1.">
<polygon fill="white" stroke="#666666" points="324,-277 180,-277 180,-236 324,-236 324,-277"/>
<text text-anchor="start" x="188" y="-265" font-family="Helvetica,sans-Serif" font-size="10.00">zero_mate::gui::CCP15</text>
<text text-anchor="start" x="188" y="-254" font-family="Helvetica,sans-Serif" font-size="10.00">_Window::Render_Primary</text>
<text text-anchor="middle" x="252" y="-243" font-family="Helvetica,sans-Serif" font-size="10.00">_Register_C1</text>
</a>
</g>
</g>
<!-- Node1&#45;&gt;Node2 -->
<g id="edge1_Node000001_Node000002" class="edge">
<title>Node1&#45;&gt;Node2</title>
<g id="a_edge1_Node000001_Node000002"><a xlink:title=" ">
<path fill="none" stroke="#63b8ff" d="M88.15,-153.71C107.9,-172.9 144.16,-205.98 180,-227.5 182.2,-228.82 184.47,-230.1 186.78,-231.35"/>
<polygon fill="#63b8ff" stroke="#63b8ff" points="185.4,-234.58 195.9,-235.98 188.57,-228.34 185.4,-234.58"/>
</a>
</g>
</g>
<!-- Node4 -->
<g id="Node000004" class="node">
<title>Node4</title>
<g id="a_Node000004"><a xlink:href="classzero__mate_1_1gui_1_1CCP15__Window.html#ad49346264b18c4727c832ff376dba2a9" target="_top" xlink:title="Renders registers that fall under primary register C2.">
<polygon fill="white" stroke="#666666" points="324,-218 180,-218 180,-177 324,-177 324,-218"/>
<text text-anchor="start" x="188" y="-206" font-family="Helvetica,sans-Serif" font-size="10.00">zero_mate::gui::CCP15</text>
<text text-anchor="start" x="188" y="-195" font-family="Helvetica,sans-Serif" font-size="10.00">_Window::Render_Primary</text>
<text text-anchor="middle" x="252" y="-184" font-family="Helvetica,sans-Serif" font-size="10.00">_Register_C2</text>
</a>
</g>
</g>
<!-- Node1&#45;&gt;Node4 -->
<g id="edge3_Node000001_Node000004" class="edge">
<title>Node1&#45;&gt;Node4</title>
<g id="a_edge3_Node000001_Node000004"><a xlink:title=" ">
<path fill="none" stroke="#63b8ff" d="M118.38,-153.54C136.87,-159.67 158.71,-166.91 179.26,-173.72"/>
<polygon fill="#63b8ff" stroke="#63b8ff" points="178.32,-177.1 188.92,-176.92 180.53,-170.45 178.32,-177.1"/>
</a>
</g>
</g>
<!-- Node5 -->
<g id="Node000005" class="node">
<title>Node5</title>
<g id="a_Node000005"><a xlink:href="classzero__mate_1_1gui_1_1CCP15__Window.html#ae2d74a31c2235e1756f08800427f15a6" target="_top" xlink:title="Renders registers that fall under primary register C3.">
<polygon fill="white" stroke="#666666" points="324,-159 180,-159 180,-118 324,-118 324,-159"/>
<text text-anchor="start" x="188" y="-147" font-family="Helvetica,sans-Serif" font-size="10.00">zero_mate::gui::CCP15</text>
<text text-anchor="start" x="188" y="-136" font-family="Helvetica,sans-Serif" font-size="10.00">_Window::Render_Primary</text>
<text text-anchor="middle" x="252" y="-125" font-family="Helvetica,sans-Serif" font-size="10.00">_Register_C3</text>
</a>
</g>
</g>
<!-- Node1&#45;&gt;Node5 -->
<g id="edge5_Node000001_Node000005" class="edge">
<title>Node1&#45;&gt;Node5</title>
<g id="a_edge5_Node000001_Node000005"><a xlink:title=" ">
<path fill="none" stroke="#63b8ff" d="M144.12,-138.5C152.61,-138.5 161.33,-138.5 169.94,-138.5"/>
<polygon fill="#63b8ff" stroke="#63b8ff" points="170,-142 180,-138.5 170,-135 170,-142"/>
</a>
</g>
</g>
<!-- Node6 -->
<g id="Node000006" class="node">
<title>Node6</title>
<g id="a_Node000006"><a xlink:href="classzero__mate_1_1gui_1_1CCP15__Window.html#af6e61d67b6bbe3da5f321753d1891843" target="_top" xlink:title="Renders registers that fall under primary register C7.">
<polygon fill="white" stroke="#666666" points="324,-100 180,-100 180,-59 324,-59 324,-100"/>
<text text-anchor="start" x="188" y="-88" font-family="Helvetica,sans-Serif" font-size="10.00">zero_mate::gui::CCP15</text>
<text text-anchor="start" x="188" y="-77" font-family="Helvetica,sans-Serif" font-size="10.00">_Window::Render_Primary</text>
<text text-anchor="middle" x="252" y="-66" font-family="Helvetica,sans-Serif" font-size="10.00">_Register_C7</text>
</a>
</g>
</g>
<!-- Node1&#45;&gt;Node6 -->
<g id="edge7_Node000001_Node000006" class="edge">
<title>Node1&#45;&gt;Node6</title>
<g id="a_edge7_Node000001_Node000006"><a xlink:title=" ">
<path fill="none" stroke="#63b8ff" d="M118.38,-123.46C136.87,-117.33 158.71,-110.09 179.26,-103.28"/>
<polygon fill="#63b8ff" stroke="#63b8ff" points="180.53,-106.55 188.92,-100.08 178.32,-99.9 180.53,-106.55"/>
</a>
</g>
</g>
<!-- Node7 -->
<g id="Node000007" class="node">
<title>Node7</title>
<g id="a_Node000007"><a xlink:href="classzero__mate_1_1gui_1_1CCP15__Window.html#a5a84763e3c17b33b3a13e66ea82d22f7" target="_top" xlink:title="Renders registers that fall under primary register C8.">
<polygon fill="white" stroke="#666666" points="324,-41 180,-41 180,0 324,0 324,-41"/>
<text text-anchor="start" x="188" y="-29" font-family="Helvetica,sans-Serif" font-size="10.00">zero_mate::gui::CCP15</text>
<text text-anchor="start" x="188" y="-18" font-family="Helvetica,sans-Serif" font-size="10.00">_Window::Render_Primary</text>
<text text-anchor="middle" x="252" y="-7" font-family="Helvetica,sans-Serif" font-size="10.00">_Register_C8</text>
</a>
</g>
</g>
<!-- Node1&#45;&gt;Node7 -->
<g id="edge9_Node000001_Node000007" class="edge">
<title>Node1&#45;&gt;Node7</title>
<g id="a_edge9_Node000001_Node000007"><a xlink:title=" ">
<path fill="none" stroke="#63b8ff" d="M88.57,-123.21C108.47,-104.28 144.6,-71.91 180,-50.5 182.66,-48.89 185.43,-47.32 188.25,-45.81"/>
<polygon fill="#63b8ff" stroke="#63b8ff" points="190.1,-48.79 197.44,-41.15 186.94,-42.55 190.1,-48.79"/>
</a>
</g>
</g>
<!-- Node3 -->
<g id="Node000003" class="node">
<title>Node3</title>
<g id="a_Node000003"><a xlink:href="classzero__mate_1_1gui_1_1CCP15__Window.html#a71ccd1e5a97f92d1032a0ede67af6a79" target="_top" xlink:title="Renders a table (register values).">
<polygon fill="white" stroke="#666666" points="491,-153.5 360,-153.5 360,-123.5 491,-123.5 491,-153.5"/>
<text text-anchor="start" x="368" y="-141.5" font-family="Helvetica,sans-Serif" font-size="10.00">zero_mate::gui::CCP15</text>
<text text-anchor="middle" x="425.5" y="-130.5" font-family="Helvetica,sans-Serif" font-size="10.00">_Window::Render_Table</text>
</a>
</g>
</g>
<!-- Node2&#45;&gt;Node3 -->
<g id="edge2_Node000002_Node000003" class="edge">
<title>Node2&#45;&gt;Node3</title>
<g id="a_edge2_Node000002_Node000003"><a xlink:title=" ">
<path fill="none" stroke="#63b8ff" d="M308.57,-235.96C313.91,-233.35 319.14,-230.52 324,-227.5 354.23,-208.7 384.16,-180.66 403.39,-161.09"/>
<polygon fill="#63b8ff" stroke="#63b8ff" points="406.02,-163.41 410.46,-153.79 400.99,-158.54 406.02,-163.41"/>
</a>
</g>
</g>
<!-- Node4&#45;&gt;Node3 -->
<g id="edge4_Node000004_Node000003" class="edge">
<title>Node4&#45;&gt;Node3</title>
<g id="a_edge4_Node000004_Node000003"><a xlink:title=" ">
<path fill="none" stroke="#63b8ff" d="M312.98,-176.86C331.9,-170.36 352.65,-163.22 371.08,-156.88"/>
<polygon fill="#63b8ff" stroke="#63b8ff" points="372.44,-160.11 380.76,-153.55 370.17,-153.49 372.44,-160.11"/>
</a>
</g>
</g>
<!-- Node5&#45;&gt;Node3 -->
<g id="edge6_Node000005_Node000003" class="edge">
<title>Node5&#45;&gt;Node3</title>
<g id="a_edge6_Node000005_Node000003"><a xlink:title=" ">
<path fill="none" stroke="#63b8ff" d="M324.24,-138.5C332.62,-138.5 341.18,-138.5 349.6,-138.5"/>
<polygon fill="#63b8ff" stroke="#63b8ff" points="349.79,-142 359.79,-138.5 349.79,-135 349.79,-142"/>
</a>
</g>
</g>
<!-- Node6&#45;&gt;Node3 -->
<g id="edge8_Node000006_Node000003" class="edge">
<title>Node6&#45;&gt;Node3</title>
<g id="a_edge8_Node000006_Node000003"><a xlink:title=" ">
<path fill="none" stroke="#63b8ff" d="M312.98,-100.14C331.9,-106.64 352.65,-113.78 371.08,-120.12"/>
<polygon fill="#63b8ff" stroke="#63b8ff" points="370.17,-123.51 380.76,-123.45 372.44,-116.89 370.17,-123.51"/>
</a>
</g>
</g>
<!-- Node7&#45;&gt;Node3 -->
<g id="edge10_Node000007_Node000003" class="edge">
<title>Node7&#45;&gt;Node3</title>
<g id="a_edge10_Node000007_Node000003"><a xlink:title=" ">
<path fill="none" stroke="#63b8ff" d="M307.04,-41.16C312.9,-44.04 318.67,-47.16 324,-50.5 354.02,-69.3 383.99,-96.99 403.29,-116.27"/>
<polygon fill="#63b8ff" stroke="#63b8ff" points="400.87,-118.8 410.38,-123.46 405.85,-113.88 400.87,-118.8"/>
</a>
</g>
</g>
</g>
</svg>
