<?xml version="1.0" encoding="UTF-8" standalone="no"?>
<!DOCTYPE svg PUBLIC "-//W3C//DTD SVG 1.1//EN"
 "http://www.w3.org/Graphics/SVG/1.1/DTD/svg11.dtd">
<!-- Generated by graphviz version 2.43.0 (0)
 -->
<!-- Title: zero_mate::peripheral::IPeripheral Pages: 1 -->
<svg width="293pt" height="374pt"
 viewBox="0.00 0.00 293.00 374.00" xmlns="http://www.w3.org/2000/svg" xmlns:xlink="http://www.w3.org/1999/xlink">
<g id="graph0" class="graph" transform="scale(1 1) rotate(0) translate(4 370)">
<title>zero_mate::peripheral::IPeripheral</title>
<!-- Node1 -->
<g id="Node000001" class="node">
<title>Node1</title>
<g id="a_Node000001"><a xlink:title="This class represents a general interface of a memory&#45;mapped peripheral.">
<polygon fill="#999999" stroke="#666666" points="124,-198 0,-198 0,-168 124,-168 124,-198"/>
<text text-anchor="start" x="8" y="-186" font-family="Helvetica,sans-Serif" font-size="10.00">zero_mate::peripheral</text>
<text text-anchor="middle" x="62" y="-175" font-family="Helvetica,sans-Serif" font-size="10.00">::IPeripheral</text>
</a>
</g>
</g>
<!-- Node2 -->
<g id="Node000002" class="node">
<title>Node2</title>
<g id="a_Node000002"><a xlink:href="classzero__mate_1_1peripheral_1_1CARM__Timer.html" target="_top" xlink:title="This class represents the ARM timer used in BCM2835.">
<polygon fill="white" stroke="#666666" points="284.5,-366 160.5,-366 160.5,-336 284.5,-336 284.5,-366"/>
<text text-anchor="start" x="168.5" y="-354" font-family="Helvetica,sans-Serif" font-size="10.00">zero_mate::peripheral</text>
<text text-anchor="middle" x="222.5" y="-343" font-family="Helvetica,sans-Serif" font-size="10.00">::CARM_Timer</text>
</a>
</g>
</g>
<!-- Node1&#45;&gt;Node2 -->
<g id="edge1_Node000001_Node000002" class="edge">
<title>Node1&#45;&gt;Node2</title>
<g id="a_edge1_Node000001_Node000002"><a xlink:title=" ">
<path fill="none" stroke="#63b8ff" d="M73.84,-207.69C88.9,-239.38 119.02,-294.19 160,-327 164.21,-330.37 168.94,-333.31 173.87,-335.86"/>
<polygon fill="#63b8ff" stroke="#63b8ff" points="76.86,-205.87 69.48,-198.27 70.5,-208.81 76.86,-205.87"/>
</a>
</g>
</g>
<!-- Node3 -->
<g id="Node000003" class="node">
<title>Node3</title>
<g id="a_Node000003"><a xlink:href="classzero__mate_1_1peripheral_1_1CAUX.html" target="_top" xlink:title="This class represents the auxiliaries (UART1 &amp; SPI1, and SPI2).">
<polygon fill="white" stroke="#666666" points="284.5,-318 160.5,-318 160.5,-288 284.5,-288 284.5,-318"/>
<text text-anchor="start" x="168.5" y="-306" font-family="Helvetica,sans-Serif" font-size="10.00">zero_mate::peripheral</text>
<text text-anchor="middle" x="222.5" y="-295" font-family="Helvetica,sans-Serif" font-size="10.00">::CAUX</text>
</a>
</g>
</g>
<!-- Node1&#45;&gt;Node3 -->
<g id="edge2_Node000001_Node000003" class="edge">
<title>Node1&#45;&gt;Node3</title>
<g id="a_edge2_Node000001_Node000003"><a xlink:title=" ">
<path fill="none" stroke="#63b8ff" d="M81.56,-206.18C99.67,-227.52 128.95,-258.83 160,-279 165.09,-282.31 170.71,-285.28 176.43,-287.9"/>
<polygon fill="#63b8ff" stroke="#63b8ff" points="84.05,-203.7 74.96,-198.26 78.67,-208.18 84.05,-203.7"/>
</a>
</g>
</g>
<!-- Node4 -->
<g id="Node000004" class="node">
<title>Node4</title>
<g id="a_Node000004"><a xlink:href="classzero__mate_1_1peripheral_1_1CBSC.html" target="_top" xlink:title="This class represents the BSC peripheral used in BCM2835.">
<polygon fill="white" stroke="#666666" points="284.5,-270 160.5,-270 160.5,-240 284.5,-240 284.5,-270"/>
<text text-anchor="start" x="168.5" y="-258" font-family="Helvetica,sans-Serif" font-size="10.00">zero_mate::peripheral</text>
<text text-anchor="middle" x="222.5" y="-247" font-family="Helvetica,sans-Serif" font-size="10.00">::CBSC</text>
</a>
</g>
</g>
<!-- Node1&#45;&gt;Node4 -->
<g id="edge3_Node000001_Node000004" class="edge">
<title>Node1&#45;&gt;Node4</title>
<g id="a_edge3_Node000001_Node000004"><a xlink:title=" ">
<path fill="none" stroke="#63b8ff" d="M100.89,-202.71C118.67,-211.71 140.24,-222.28 160,-231 166.82,-234.01 174.13,-237.04 181.26,-239.88"/>
<polygon fill="#63b8ff" stroke="#63b8ff" points="102.47,-199.59 91.97,-198.17 99.3,-205.82 102.47,-199.59"/>
</a>
</g>
</g>
<!-- Node5 -->
<g id="Node000005" class="node">
<title>Node5</title>
<g id="a_Node000005"><a xlink:href="classzero__mate_1_1peripheral_1_1CGPIO__Manager.html" target="_top" xlink:title="This class represents a GPIO (general&#45;purpose I/O) manager.">
<polygon fill="white" stroke="#666666" points="284.5,-222 160.5,-222 160.5,-192 284.5,-192 284.5,-222"/>
<text text-anchor="start" x="168.5" y="-210" font-family="Helvetica,sans-Serif" font-size="10.00">zero_mate::peripheral</text>
<text text-anchor="middle" x="222.5" y="-199" font-family="Helvetica,sans-Serif" font-size="10.00">::CGPIO_Manager</text>
</a>
</g>
</g>
<!-- Node1&#45;&gt;Node5 -->
<g id="edge4_Node000001_Node000005" class="edge">
<title>Node1&#45;&gt;Node5</title>
<g id="a_edge4_Node000001_Node000005"><a xlink:title=" ">
<path fill="none" stroke="#63b8ff" d="M134.39,-193.81C143.06,-195.12 151.87,-196.46 160.38,-197.75"/>
<polygon fill="#63b8ff" stroke="#63b8ff" points="134.69,-190.32 124.28,-192.28 133.64,-197.24 134.69,-190.32"/>
</a>
</g>
</g>
<!-- Node6 -->
<g id="Node000006" class="node">
<title>Node6</title>
<g id="a_Node000006"><a xlink:href="classzero__mate_1_1peripheral_1_1CInterrupt__Controller.html" target="_top" xlink:title="This class represents the interrupt controller used in BCM2835.">
<polygon fill="white" stroke="#666666" points="285,-174 160,-174 160,-144 285,-144 285,-174"/>
<text text-anchor="start" x="168" y="-162" font-family="Helvetica,sans-Serif" font-size="10.00">zero_mate::peripheral</text>
<text text-anchor="middle" x="222.5" y="-151" font-family="Helvetica,sans-Serif" font-size="10.00">::CInterrupt_Controller</text>
</a>
</g>
</g>
<!-- Node1&#45;&gt;Node6 -->
<g id="edge5_Node000001_Node000006" class="edge">
<title>Node1&#45;&gt;Node6</title>
<g id="a_edge5_Node000001_Node000006"><a xlink:title=" ">
<path fill="none" stroke="#63b8ff" d="M134.24,-172.21C142.79,-170.92 151.46,-169.61 159.86,-168.33"/>
<polygon fill="#63b8ff" stroke="#63b8ff" points="133.64,-168.76 124.28,-173.72 134.69,-175.68 133.64,-168.76"/>
</a>
</g>
</g>
<!-- Node7 -->
<g id="Node000007" class="node">
<title>Node7</title>
<g id="a_Node000007"><a xlink:href="classzero__mate_1_1peripheral_1_1CMonitor.html" target="_top" xlink:title="This class represents a memory&#45;mapped monitor used to print out debug messages.">
<polygon fill="white" stroke="#666666" points="284.5,-126 160.5,-126 160.5,-96 284.5,-96 284.5,-126"/>
<text text-anchor="start" x="168.5" y="-114" font-family="Helvetica,sans-Serif" font-size="10.00">zero_mate::peripheral</text>
<text text-anchor="middle" x="222.5" y="-103" font-family="Helvetica,sans-Serif" font-size="10.00">::CMonitor</text>
</a>
</g>
</g>
<!-- Node1&#45;&gt;Node7 -->
<g id="edge6_Node000001_Node000007" class="edge">
<title>Node1&#45;&gt;Node7</title>
<g id="a_edge6_Node000001_Node000007"><a xlink:title=" ">
<path fill="none" stroke="#63b8ff" d="M100.89,-163.29C118.67,-154.29 140.24,-143.72 160,-135 166.82,-131.99 174.13,-128.96 181.26,-126.12"/>
<polygon fill="#63b8ff" stroke="#63b8ff" points="99.3,-160.18 91.97,-167.83 102.47,-166.41 99.3,-160.18"/>
</a>
</g>
</g>
<!-- Node8 -->
<g id="Node000008" class="node">
<title>Node8</title>
<g id="a_Node000008"><a xlink:href="classzero__mate_1_1peripheral_1_1CRAM.html" target="_top" xlink:title="This class represents the RAM used in BCM2835.">
<polygon fill="white" stroke="#666666" points="284.5,-78 160.5,-78 160.5,-48 284.5,-48 284.5,-78"/>
<text text-anchor="start" x="168.5" y="-66" font-family="Helvetica,sans-Serif" font-size="10.00">zero_mate::peripheral</text>
<text text-anchor="middle" x="222.5" y="-55" font-family="Helvetica,sans-Serif" font-size="10.00">::CRAM</text>
</a>
</g>
</g>
<!-- Node1&#45;&gt;Node8 -->
<g id="edge7_Node000001_Node000008" class="edge">
<title>Node1&#45;&gt;Node8</title>
<g id="a_edge7_Node000001_Node000008"><a xlink:title=" ">
<path fill="none" stroke="#63b8ff" d="M81.56,-159.82C99.67,-138.48 128.95,-107.17 160,-87 165.09,-83.69 170.71,-80.72 176.43,-78.1"/>
<polygon fill="#63b8ff" stroke="#63b8ff" points="78.67,-157.82 74.96,-167.74 84.05,-162.3 78.67,-157.82"/>
</a>
</g>
</g>
<!-- Node9 -->
<g id="Node000009" class="node">
<title>Node9</title>
<g id="a_Node000009"><a xlink:href="classzero__mate_1_1peripheral_1_1CTRNG.html" target="_top" xlink:title="This class represents a TRNG (random number generator).">
<polygon fill="white" stroke="#666666" points="284.5,-30 160.5,-30 160.5,0 284.5,0 284.5,-30"/>
<text text-anchor="start" x="168.5" y="-18" font-family="Helvetica,sans-Serif" font-size="10.00">zero_mate::peripheral</text>
<text text-anchor="middle" x="222.5" y="-7" font-family="Helvetica,sans-Serif" font-size="10.00">::CTRNG</text>
</a>
</g>
</g>
<!-- Node1&#45;&gt;Node9 -->
<g id="edge8_Node000001_Node000009" class="edge">
<title>Node1&#45;&gt;Node9</title>
<g id="a_edge8_Node000001_Node000009"><a xlink:title=" ">
<path fill="none" stroke="#63b8ff" d="M73.84,-158.31C88.9,-126.62 119.02,-71.81 160,-39 164.21,-35.63 168.94,-32.69 173.87,-30.14"/>
<polygon fill="#63b8ff" stroke="#63b8ff" points="70.5,-157.19 69.48,-167.73 76.86,-160.13 70.5,-157.19"/>
</a>
</g>
</g>
</g>
</svg>
