<?xml version="1.0" encoding="UTF-8" standalone="no"?>
<!DOCTYPE svg PUBLIC "-//W3C//DTD SVG 1.1//EN"
 "http://www.w3.org/Graphics/SVG/1.1/DTD/svg11.dtd">
<!-- Generated by graphviz version 2.43.0 (0)
 -->
<!-- Title: zero_mate::gui::CMonitor_Window::Render Pages: 1 -->
<svg width="538pt" height="86pt"
 viewBox="0.00 0.00 538.00 86.00" xmlns="http://www.w3.org/2000/svg" xmlns:xlink="http://www.w3.org/1999/xlink">
<g id="graph0" class="graph" transform="scale(1 1) rotate(0) translate(4 82)">
<title>zero_mate::gui::CMonitor_Window::Render</title>
<!-- Node1 -->
<g id="Node000001" class="node">
<title>Node1</title>
<g id="a_Node000001"><a xlink:title="Renders the debug memory&#45;mapped monitor (IGUI_Window interface).">
<polygon fill="#999999" stroke="#666666" points="140,-54 0,-54 0,-24 140,-24 140,-54"/>
<text text-anchor="start" x="8" y="-42" font-family="Helvetica,sans-Serif" font-size="10.00">zero_mate::gui::CMonitor</text>
<text text-anchor="middle" x="70" y="-31" font-family="Helvetica,sans-Serif" font-size="10.00">_Window::Render</text>
</a>
</g>
</g>
<!-- Node2 -->
<g id="Node000002" class="node">
<title>Node2</title>
<g id="a_Node000002"><a xlink:href="classzero__mate_1_1gui_1_1CMonitor__Window.html#a5d0f74e6f49d94dbd80ce748e04141bc" target="_top" xlink:title="Renders the contents of the memory&#45;mapped debug monitor.">
<polygon fill="white" stroke="#666666" points="331,-78 188,-78 188,-48 331,-48 331,-78"/>
<text text-anchor="start" x="196" y="-66" font-family="Helvetica,sans-Serif" font-size="10.00">zero_mate::gui::CMonitor</text>
<text text-anchor="middle" x="259.5" y="-55" font-family="Helvetica,sans-Serif" font-size="10.00">_Window::Render_Monitor</text>
</a>
</g>
</g>
<!-- Node1&#45;&gt;Node2 -->
<g id="edge1_Node000001_Node000002" class="edge">
<title>Node1&#45;&gt;Node2</title>
<g id="a_edge1_Node000001_Node000002"><a xlink:title=" ">
<path fill="none" stroke="#63b8ff" d="M140.02,-47.83C152.3,-49.41 165.18,-51.06 177.75,-52.66"/>
<polygon fill="#63b8ff" stroke="#63b8ff" points="177.38,-56.15 187.74,-53.94 178.27,-49.2 177.38,-56.15"/>
</a>
</g>
</g>
<!-- Node4 -->
<g id="Node000004" class="node">
<title>Node4</title>
<g id="a_Node000004"><a xlink:href="classzero__mate_1_1gui_1_1CMonitor__Window.html#af0d486e1af7b25e189a425e9134b70c5" target="_top" xlink:title="Renders general information about the monitor (width, height, ...)">
<polygon fill="white" stroke="#666666" points="343,-30 176,-30 176,0 343,0 343,-30"/>
<text text-anchor="start" x="184" y="-18" font-family="Helvetica,sans-Serif" font-size="10.00">zero_mate::gui::CMonitor</text>
<text text-anchor="middle" x="259.5" y="-7" font-family="Helvetica,sans-Serif" font-size="10.00">_Window::Render_Monitor_Info</text>
</a>
</g>
</g>
<!-- Node1&#45;&gt;Node4 -->
<g id="edge3_Node000001_Node000004" class="edge">
<title>Node1&#45;&gt;Node4</title>
<g id="a_edge3_Node000001_Node000004"><a xlink:title=" ">
<path fill="none" stroke="#63b8ff" d="M140.02,-30.17C148.42,-29.09 157.12,-27.98 165.8,-26.87"/>
<polygon fill="#63b8ff" stroke="#63b8ff" points="166.49,-30.31 175.96,-25.56 165.6,-23.36 166.49,-30.31"/>
</a>
</g>
</g>
<!-- Node3 -->
<g id="Node000003" class="node">
<title>Node3</title>
<g id="a_Node000003"><a xlink:href="classzero__mate_1_1gui_1_1CMonitor__Window.html#a2d7c8f0dafc37fcdfba3979870827462" target="_top" xlink:title="Retrieves a junk of data from the monitor which represents the current row.">
<polygon fill="white" stroke="#666666" points="530,-78 379,-78 379,-48 530,-48 530,-78"/>
<text text-anchor="start" x="387" y="-66" font-family="Helvetica,sans-Serif" font-size="10.00">zero_mate::gui::CMonitor</text>
<text text-anchor="middle" x="454.5" y="-55" font-family="Helvetica,sans-Serif" font-size="10.00">_Window::Get_Current_Row</text>
</a>
</g>
</g>
<!-- Node2&#45;&gt;Node3 -->
<g id="edge2_Node000002_Node000003" class="edge">
<title>Node2&#45;&gt;Node3</title>
<g id="a_edge2_Node000002_Node000003"><a xlink:title=" ">
<path fill="none" stroke="#63b8ff" d="M331.27,-63C343.37,-63 356.06,-63 368.49,-63"/>
<polygon fill="#63b8ff" stroke="#63b8ff" points="368.85,-66.5 378.85,-63 368.85,-59.5 368.85,-66.5"/>
</a>
</g>
</g>
</g>
</svg>
