<?xml version="1.0" encoding="UTF-8" standalone="no"?>
<!DOCTYPE svg PUBLIC "-//W3C//DTD SVG 1.1//EN"
 "http://www.w3.org/Graphics/SVG/1.1/DTD/svg11.dtd">
<!-- Generated by graphviz version 2.43.0 (0)
 -->
<!-- Title: zero_mate::peripheral::CMini_UART::Update_RX Pages: 1 -->
<svg width="909pt" height="280pt"
 viewBox="0.00 0.00 909.00 280.00" xmlns="http://www.w3.org/2000/svg" xmlns:xlink="http://www.w3.org/1999/xlink">
<g id="graph0" class="graph" transform="scale(1 1) rotate(0) translate(4 276)">
<title>zero_mate::peripheral::CMini_UART::Update_RX</title>
<!-- Node1 -->
<g id="Node000001" class="node">
<title>Node1</title>
<g id="a_Node000001"><a xlink:title="Updates the reception state machines.">
<polygon fill="#999999" stroke="#666666" points="141,-177.5 0,-177.5 0,-147.5 141,-147.5 141,-177.5"/>
<text text-anchor="start" x="8" y="-165.5" font-family="Helvetica,sans-Serif" font-size="10.00">zero_mate::peripheral</text>
<text text-anchor="middle" x="70.5" y="-154.5" font-family="Helvetica,sans-Serif" font-size="10.00">::CMini_UART::Update_RX</text>
</a>
</g>
</g>
<!-- Node2 -->
<g id="Node000002" class="node">
<title>Node2</title>
<g id="a_Node000002"><a xlink:href="classzero__mate_1_1peripheral_1_1CMini__UART.html#a2a71009ed1f6227341dad8926bd73d81" target="_top" xlink:title="Returns information about whether the receiver is enabled or not.">
<polygon fill="white" stroke="#666666" points="327.5,-272 184.5,-272 184.5,-231 327.5,-231 327.5,-272"/>
<text text-anchor="start" x="192.5" y="-260" font-family="Helvetica,sans-Serif" font-size="10.00">zero_mate::peripheral</text>
<text text-anchor="start" x="192.5" y="-249" font-family="Helvetica,sans-Serif" font-size="10.00">::CMini_UART::Is_Receiver</text>
<text text-anchor="middle" x="256" y="-238" font-family="Helvetica,sans-Serif" font-size="10.00">_Enabled</text>
</a>
</g>
</g>
<!-- Node1&#45;&gt;Node2 -->
<g id="edge1_Node000001_Node000002" class="edge">
<title>Node1&#45;&gt;Node2</title>
<g id="a_edge1_Node000001_Node000002"><a xlink:title=" ">
<path fill="none" stroke="#63b8ff" d="M95.63,-177.71C116.64,-190.59 148.17,-209.05 177,-222.5 180.34,-224.06 183.79,-225.59 187.29,-227.09"/>
<polygon fill="#63b8ff" stroke="#63b8ff" points="186.07,-230.38 196.64,-230.98 188.75,-223.91 186.07,-230.38"/>
</a>
</g>
</g>
<!-- Node3 -->
<g id="Node000003" class="node">
<title>Node3</title>
<g id="a_Node000003"><a xlink:href="classzero__mate_1_1peripheral_1_1CMini__UART.html#a50ba19a573540915346f49f559f8d595" target="_top" xlink:title="Receives another bit of the current payload (actual data).">
<polygon fill="white" stroke="#666666" points="335,-213 177,-213 177,-172 335,-172 335,-213"/>
<text text-anchor="start" x="185" y="-201" font-family="Helvetica,sans-Serif" font-size="10.00">zero_mate::peripheral</text>
<text text-anchor="start" x="185" y="-190" font-family="Helvetica,sans-Serif" font-size="10.00">::CMini_UART::UART_Receive</text>
<text text-anchor="middle" x="256" y="-179" font-family="Helvetica,sans-Serif" font-size="10.00">_Payload</text>
</a>
</g>
</g>
<!-- Node1&#45;&gt;Node3 -->
<g id="edge2_Node000001_Node000003" class="edge">
<title>Node1&#45;&gt;Node3</title>
<g id="a_edge2_Node000001_Node000003"><a xlink:title=" ">
<path fill="none" stroke="#63b8ff" d="M141.14,-173.88C149.52,-175.25 158.16,-176.67 166.76,-178.07"/>
<polygon fill="#63b8ff" stroke="#63b8ff" points="166.38,-181.56 176.82,-179.72 167.51,-174.65 166.38,-181.56"/>
</a>
</g>
</g>
<!-- Node6 -->
<g id="Node000006" class="node">
<title>Node6</title>
<g id="a_Node000006"><a xlink:href="classzero__mate_1_1peripheral_1_1CMini__UART.html#a5c52c4391c9796abe9e33d0b672af4e0" target="_top" xlink:title="Receives a start bit.">
<polygon fill="white" stroke="#666666" points="335,-154 177,-154 177,-113 335,-113 335,-154"/>
<text text-anchor="start" x="185" y="-142" font-family="Helvetica,sans-Serif" font-size="10.00">zero_mate::peripheral</text>
<text text-anchor="start" x="185" y="-131" font-family="Helvetica,sans-Serif" font-size="10.00">::CMini_UART::UART_Receive</text>
<text text-anchor="middle" x="256" y="-120" font-family="Helvetica,sans-Serif" font-size="10.00">_Start_Bit</text>
</a>
</g>
</g>
<!-- Node1&#45;&gt;Node6 -->
<g id="edge5_Node000001_Node000006" class="edge">
<title>Node1&#45;&gt;Node6</title>
<g id="a_edge5_Node000001_Node000006"><a xlink:title=" ">
<path fill="none" stroke="#63b8ff" d="M141.14,-151.49C149.52,-150.17 158.16,-148.8 166.76,-147.45"/>
<polygon fill="#63b8ff" stroke="#63b8ff" points="167.49,-150.87 176.82,-145.86 166.39,-143.96 167.49,-150.87"/>
</a>
</g>
</g>
<!-- Node7 -->
<g id="Node000007" class="node">
<title>Node7</title>
<g id="a_Node000007"><a xlink:href="classzero__mate_1_1peripheral_1_1CMini__UART.html#af0ac73a2cea4c4fb61673803f60cf9e6" target="_top" xlink:title="Receives a stop bit.">
<polygon fill="white" stroke="#666666" points="335,-95 177,-95 177,-54 335,-54 335,-95"/>
<text text-anchor="start" x="185" y="-83" font-family="Helvetica,sans-Serif" font-size="10.00">zero_mate::peripheral</text>
<text text-anchor="start" x="185" y="-72" font-family="Helvetica,sans-Serif" font-size="10.00">::CMini_UART::UART_Receive</text>
<text text-anchor="middle" x="256" y="-61" font-family="Helvetica,sans-Serif" font-size="10.00">_Stop_Bit</text>
</a>
</g>
</g>
<!-- Node1&#45;&gt;Node7 -->
<g id="edge6_Node000001_Node000007" class="edge">
<title>Node1&#45;&gt;Node7</title>
<g id="a_edge6_Node000001_Node000007"><a xlink:title=" ">
<path fill="none" stroke="#63b8ff" d="M96.58,-147.45C117.65,-135.12 148.76,-117.62 177,-104.5 181.03,-102.63 185.22,-100.77 189.46,-98.96"/>
<polygon fill="#63b8ff" stroke="#63b8ff" points="190.92,-102.14 198.8,-95.06 188.22,-95.68 190.92,-102.14"/>
</a>
</g>
</g>
<!-- Node4 -->
<g id="Node000004" class="node">
<title>Node4</title>
<g id="a_Node000004"><a xlink:href="classzero__mate_1_1peripheral_1_1CMini__UART.html#a2f29b39f721b4ae5acf81f61ab210325" target="_top" xlink:title="Returns the length of payload (7 or 8 bits).">
<polygon fill="white" stroke="#666666" points="510,-267 378,-267 378,-226 510,-226 510,-267"/>
<text text-anchor="start" x="386" y="-255" font-family="Helvetica,sans-Serif" font-size="10.00">zero_mate::peripheral</text>
<text text-anchor="start" x="386" y="-244" font-family="Helvetica,sans-Serif" font-size="10.00">::CMini_UART::Get_Char</text>
<text text-anchor="middle" x="444" y="-233" font-family="Helvetica,sans-Serif" font-size="10.00">_Length</text>
</a>
</g>
</g>
<!-- Node3&#45;&gt;Node4 -->
<g id="edge3_Node000003_Node000004" class="edge">
<title>Node3&#45;&gt;Node4</title>
<g id="a_edge3_Node000003_Node000004"><a xlink:title=" ">
<path fill="none" stroke="#63b8ff" d="M327.85,-213.07C340.94,-216.87 354.65,-220.85 367.86,-224.69"/>
<polygon fill="#63b8ff" stroke="#63b8ff" points="367.27,-228.16 377.85,-227.58 369.22,-221.44 367.27,-228.16"/>
</a>
</g>
</g>
<!-- Node5 -->
<g id="Node000005" class="node">
<title>Node5</title>
<g id="a_Node000005"><a xlink:href="classzero__mate_1_1peripheral_1_1CMini__UART.html#a4e01dd26b71c9c13ec8a81510cbf2450" target="_top" xlink:title="Returns the data length from a given enumeration.">
<polygon fill="white" stroke="#666666" points="510,-208 378,-208 378,-167 510,-167 510,-208"/>
<text text-anchor="start" x="386" y="-196" font-family="Helvetica,sans-Serif" font-size="10.00">zero_mate::peripheral</text>
<text text-anchor="start" x="386" y="-185" font-family="Helvetica,sans-Serif" font-size="10.00">::CMini_UART::Get_Char</text>
<text text-anchor="middle" x="444" y="-174" font-family="Helvetica,sans-Serif" font-size="10.00">_Length_Value</text>
</a>
</g>
</g>
<!-- Node3&#45;&gt;Node5 -->
<g id="edge4_Node000003_Node000005" class="edge">
<title>Node3&#45;&gt;Node5</title>
<g id="a_edge4_Node000003_Node000005"><a xlink:title=" ">
<path fill="none" stroke="#63b8ff" d="M335.07,-190.4C345.85,-190.11 356.89,-189.81 367.62,-189.53"/>
<polygon fill="#63b8ff" stroke="#63b8ff" points="367.88,-193.02 377.78,-189.25 367.69,-186.02 367.88,-193.02"/>
</a>
</g>
</g>
<!-- Node8 -->
<g id="Node000008" class="node">
<title>Node8</title>
<g id="a_Node000008"><a xlink:href="classzero__mate_1_1utils_1_1CLogging__System.html#a57ed77e1a5cf822cea532cc5e05c3f60" target="_top" xlink:title="Logs an error message via all registered loggers.">
<polygon fill="white" stroke="#666666" points="517,-143.5 371,-143.5 371,-113.5 517,-113.5 517,-143.5"/>
<text text-anchor="start" x="379" y="-131.5" font-family="Helvetica,sans-Serif" font-size="10.00">zero_mate::utils::CLogging</text>
<text text-anchor="middle" x="444" y="-120.5" font-family="Helvetica,sans-Serif" font-size="10.00">_System::Error</text>
</a>
</g>
</g>
<!-- Node7&#45;&gt;Node8 -->
<g id="edge7_Node000007_Node000008" class="edge">
<title>Node7&#45;&gt;Node8</title>
<g id="a_edge7_Node000007_Node000008"><a xlink:title=" ">
<path fill="none" stroke="#63b8ff" d="M327.85,-95.07C345.44,-100.18 364.16,-105.61 381.27,-110.58"/>
<polygon fill="#63b8ff" stroke="#63b8ff" points="380.57,-114.02 391.15,-113.45 382.52,-107.3 380.57,-114.02"/>
</a>
</g>
</g>
<!-- Node13 -->
<g id="Node000013" class="node">
<title>Node13</title>
<g id="a_Node000013"><a xlink:href="classzero__mate_1_1peripheral_1_1CMini__UART.html#aafdd369ea20fb588fdba59b98e20b3b8" target="_top" xlink:title="Returns information about a receive interrupt is enabled.">
<polygon fill="white" stroke="#666666" points="514,-95 374,-95 374,-54 514,-54 514,-95"/>
<text text-anchor="start" x="382" y="-83" font-family="Helvetica,sans-Serif" font-size="10.00">zero_mate::peripheral</text>
<text text-anchor="start" x="382" y="-72" font-family="Helvetica,sans-Serif" font-size="10.00">::CMini_UART::Is_Receive</text>
<text text-anchor="middle" x="444" y="-61" font-family="Helvetica,sans-Serif" font-size="10.00">_Interrupt_Enabled</text>
</a>
</g>
</g>
<!-- Node7&#45;&gt;Node13 -->
<g id="edge12_Node000007_Node000013" class="edge">
<title>Node7&#45;&gt;Node13</title>
<g id="a_edge12_Node000007_Node000013"><a xlink:title=" ">
<path fill="none" stroke="#63b8ff" d="M335.07,-74.5C344.56,-74.5 354.27,-74.5 363.78,-74.5"/>
<polygon fill="#63b8ff" stroke="#63b8ff" points="364,-78 374,-74.5 364,-71 364,-78"/>
</a>
</g>
</g>
<!-- Node14 -->
<g id="Node000014" class="node">
<title>Node14</title>
<g id="a_Node000014"><a xlink:href="classzero__mate_1_1peripheral_1_1CMini__UART.html#a8711d81118c89d5174a68d5b63ad3fac" target="_top" xlink:title="Triggers an interrupt.">
<polygon fill="white" stroke="#666666" points="515.5,-35.5 372.5,-35.5 372.5,-5.5 515.5,-5.5 515.5,-35.5"/>
<text text-anchor="start" x="380.5" y="-23.5" font-family="Helvetica,sans-Serif" font-size="10.00">zero_mate::peripheral</text>
<text text-anchor="middle" x="444" y="-12.5" font-family="Helvetica,sans-Serif" font-size="10.00">::CMini_UART::Trigger_IRQ</text>
</a>
</g>
</g>
<!-- Node7&#45;&gt;Node14 -->
<g id="edge13_Node000007_Node000014" class="edge">
<title>Node7&#45;&gt;Node14</title>
<g id="a_edge13_Node000007_Node000014"><a xlink:title=" ">
<path fill="none" stroke="#63b8ff" d="M327.85,-53.93C345.44,-48.82 364.16,-43.39 381.27,-38.42"/>
<polygon fill="#63b8ff" stroke="#63b8ff" points="382.52,-41.7 391.15,-35.55 380.57,-34.98 382.52,-41.7"/>
</a>
</g>
</g>
<!-- Node9 -->
<g id="Node000009" class="node">
<title>Node9</title>
<g id="a_Node000009"><a xlink:href="classzero__mate_1_1utils_1_1CLogging__System.html#a71ed11c796553cbe8fd99773406a1060" target="_top" xlink:title="Creates a formatted message to be logged.">
<polygon fill="white" stroke="#666666" points="705,-176 553,-176 553,-135 705,-135 705,-176"/>
<text text-anchor="start" x="561" y="-164" font-family="Helvetica,sans-Serif" font-size="10.00">zero_mate::utils::CLogging</text>
<text text-anchor="start" x="561" y="-153" font-family="Helvetica,sans-Serif" font-size="10.00">_System::Create_Formatted</text>
<text text-anchor="middle" x="629" y="-142" font-family="Helvetica,sans-Serif" font-size="10.00">_Log_Msg</text>
</a>
</g>
</g>
<!-- Node8&#45;&gt;Node9 -->
<g id="edge8_Node000008_Node000009" class="edge">
<title>Node8&#45;&gt;Node9</title>
<g id="a_edge8_Node000008_Node000009"><a xlink:title=" ">
<path fill="none" stroke="#63b8ff" d="M517.06,-139.13C525.55,-140.38 534.26,-141.67 542.9,-142.94"/>
<polygon fill="#63b8ff" stroke="#63b8ff" points="542.59,-146.44 552.99,-144.43 543.61,-139.51 542.59,-146.44"/>
</a>
</g>
</g>
<!-- Node12 -->
<g id="Node000012" class="node">
<title>Node12</title>
<g id="a_Node000012"><a xlink:href="classzero__mate_1_1utils_1_1CLogging__System.html#ad371c67ef65763966ccf9291002e86f3" target="_top" xlink:title="Extract the filename from a given location within the source files.">
<polygon fill="white" stroke="#666666" points="703.5,-116.5 554.5,-116.5 554.5,-86.5 703.5,-86.5 703.5,-116.5"/>
<text text-anchor="start" x="562.5" y="-104.5" font-family="Helvetica,sans-Serif" font-size="10.00">zero_mate::utils::CLogging</text>
<text text-anchor="middle" x="629" y="-93.5" font-family="Helvetica,sans-Serif" font-size="10.00">_System::Extract_Filename</text>
</a>
</g>
</g>
<!-- Node8&#45;&gt;Node12 -->
<g id="edge11_Node000008_Node000012" class="edge">
<title>Node8&#45;&gt;Node12</title>
<g id="a_edge11_Node000008_Node000012"><a xlink:title=" ">
<path fill="none" stroke="#63b8ff" d="M517.06,-117.87C526.1,-116.53 535.4,-115.16 544.59,-113.81"/>
<polygon fill="#63b8ff" stroke="#63b8ff" points="545.12,-117.27 554.5,-112.34 544.1,-110.34 545.12,-117.27"/>
</a>
</g>
</g>
<!-- Node10 -->
<g id="Node000010" class="node">
<title>Node10</title>
<g id="a_Node000010"><a xlink:href="classzero__mate_1_1utils_1_1CLogging__System.html#aa70c102c805079042ffea2a6f2a5ad64" target="_top" xlink:title="Formats a given timestamp.">
<polygon fill="white" stroke="#666666" points="901,-194.5 741,-194.5 741,-164.5 901,-164.5 901,-194.5"/>
<text text-anchor="start" x="749" y="-182.5" font-family="Helvetica,sans-Serif" font-size="10.00">zero_mate::utils::CLogging</text>
<text text-anchor="middle" x="821" y="-171.5" font-family="Helvetica,sans-Serif" font-size="10.00">_System::Format_Timestamp</text>
</a>
</g>
</g>
<!-- Node9&#45;&gt;Node10 -->
<g id="edge9_Node000009_Node000010" class="edge">
<title>Node9&#45;&gt;Node10</title>
<g id="a_edge9_Node000009_Node000010"><a xlink:title=" ">
<path fill="none" stroke="#63b8ff" d="M705.09,-164.99C713.52,-166.05 722.16,-167.14 730.74,-168.23"/>
<polygon fill="#63b8ff" stroke="#63b8ff" points="730.41,-171.71 740.77,-169.49 731.29,-164.77 730.41,-171.71"/>
</a>
</g>
</g>
<!-- Node11 -->
<g id="Node000011" class="node">
<title>Node11</title>
<g id="a_Node000011"><a xlink:href="classzero__mate_1_1utils_1_1CLogging__System.html#ae3ca637537dde05e0b9119145c840331" target="_top" xlink:title="Returns the current timestamp that will be used in a log message.">
<polygon fill="white" stroke="#666666" points="894,-146.5 748,-146.5 748,-116.5 894,-116.5 894,-146.5"/>
<text text-anchor="start" x="756" y="-134.5" font-family="Helvetica,sans-Serif" font-size="10.00">zero_mate::utils::CLogging</text>
<text text-anchor="middle" x="821" y="-123.5" font-family="Helvetica,sans-Serif" font-size="10.00">_System::Get_Timestamp</text>
</a>
</g>
</g>
<!-- Node9&#45;&gt;Node11 -->
<g id="edge10_Node000009_Node000011" class="edge">
<title>Node9&#45;&gt;Node11</title>
<g id="a_edge10_Node000009_Node000011"><a xlink:title=" ">
<path fill="none" stroke="#63b8ff" d="M705.09,-146.01C715.89,-144.65 727.05,-143.24 737.98,-141.86"/>
<polygon fill="#63b8ff" stroke="#63b8ff" points="738.45,-145.33 747.93,-140.6 737.57,-138.38 738.45,-145.33"/>
</a>
</g>
</g>
<!-- Node15 -->
<g id="Node000015" class="node">
<title>Node15</title>
<g id="a_Node000015"><a xlink:href="classzero__mate_1_1peripheral_1_1CMini__UART.html#aeedc743fe9b70dfb0019b775e2ea714a" target="_top" xlink:title="Sets the type of a pending IRQ in the IIR register.">
<polygon fill="white" stroke="#666666" points="702.5,-41 555.5,-41 555.5,0 702.5,0 702.5,-41"/>
<text text-anchor="start" x="563.5" y="-29" font-family="Helvetica,sans-Serif" font-size="10.00">zero_mate::peripheral</text>
<text text-anchor="start" x="563.5" y="-18" font-family="Helvetica,sans-Serif" font-size="10.00">::CMini_UART::Set_Pending</text>
<text text-anchor="middle" x="629" y="-7" font-family="Helvetica,sans-Serif" font-size="10.00">_IRQ_Type</text>
</a>
</g>
</g>
<!-- Node14&#45;&gt;Node15 -->
<g id="edge14_Node000014_Node000015" class="edge">
<title>Node14&#45;&gt;Node15</title>
<g id="a_edge14_Node000014_Node000015"><a xlink:title=" ">
<path fill="none" stroke="#63b8ff" d="M515.75,-20.5C525.38,-20.5 535.34,-20.5 545.15,-20.5"/>
<polygon fill="#63b8ff" stroke="#63b8ff" points="545.32,-24 555.32,-20.5 545.32,-17 545.32,-24"/>
</a>
</g>
</g>
</g>
</svg>
