<?xml version="1.0" encoding="UTF-8" standalone="no"?>
<!DOCTYPE svg PUBLIC "-//W3C//DTD SVG 1.1//EN"
 "http://www.w3.org/Graphics/SVG/1.1/DTD/svg11.dtd">
<!-- Generated by graphviz version 2.43.0 (0)
 -->
<!-- Title: zero_mate::gui::CCP15_Window::Render_Table Pages: 1 -->
<svg width="662pt" height="285pt"
 viewBox="0.00 0.00 662.00 285.00" xmlns="http://www.w3.org/2000/svg" xmlns:xlink="http://www.w3.org/1999/xlink">
<g id="graph0" class="graph" transform="scale(1 1) rotate(0) translate(4 281)">
<title>zero_mate::gui::CCP15_Window::Render_Table</title>
<!-- Node1 -->
<g id="Node000001" class="node">
<title>Node1</title>
<g id="a_Node000001"><a xlink:title="Renders a table (register values).">
<polygon fill="#999999" stroke="#666666" points="654,-153.5 523,-153.5 523,-123.5 654,-123.5 654,-153.5"/>
<text text-anchor="start" x="531" y="-141.5" font-family="Helvetica,sans-Serif" font-size="10.00">zero_mate::gui::CCP15</text>
<text text-anchor="middle" x="588.5" y="-130.5" font-family="Helvetica,sans-Serif" font-size="10.00">_Window::Render_Table</text>
</a>
</g>
</g>
<!-- Node2 -->
<g id="Node000002" class="node">
<title>Node2</title>
<g id="a_Node000002"><a xlink:href="classzero__mate_1_1gui_1_1CCP15__Window.html#a27304ba7d10bb901f8fe474ccb61f57f" target="_top" xlink:title="Renders registers that fall under primary register C1.">
<polygon fill="white" stroke="#666666" points="487,-277 343,-277 343,-236 487,-236 487,-277"/>
<text text-anchor="start" x="351" y="-265" font-family="Helvetica,sans-Serif" font-size="10.00">zero_mate::gui::CCP15</text>
<text text-anchor="start" x="351" y="-254" font-family="Helvetica,sans-Serif" font-size="10.00">_Window::Render_Primary</text>
<text text-anchor="middle" x="415" y="-243" font-family="Helvetica,sans-Serif" font-size="10.00">_Register_C1</text>
</a>
</g>
</g>
<!-- Node1&#45;&gt;Node2 -->
<g id="edge1_Node000001_Node000002" class="edge">
<title>Node1&#45;&gt;Node2</title>
<g id="a_edge1_Node000001_Node000002"><a xlink:title=" ">
<path fill="none" stroke="#63b8ff" d="M566.39,-161.09C547.16,-180.66 517.23,-208.7 487,-227.5 482.14,-230.52 476.91,-233.35 471.57,-235.96"/>
<polygon fill="#63b8ff" stroke="#63b8ff" points="569.02,-163.41 573.46,-153.79 563.99,-158.54 569.02,-163.41"/>
</a>
</g>
</g>
<!-- Node5 -->
<g id="Node000005" class="node">
<title>Node5</title>
<g id="a_Node000005"><a xlink:href="classzero__mate_1_1gui_1_1CCP15__Window.html#ad49346264b18c4727c832ff376dba2a9" target="_top" xlink:title="Renders registers that fall under primary register C2.">
<polygon fill="white" stroke="#666666" points="487,-218 343,-218 343,-177 487,-177 487,-218"/>
<text text-anchor="start" x="351" y="-206" font-family="Helvetica,sans-Serif" font-size="10.00">zero_mate::gui::CCP15</text>
<text text-anchor="start" x="351" y="-195" font-family="Helvetica,sans-Serif" font-size="10.00">_Window::Render_Primary</text>
<text text-anchor="middle" x="415" y="-184" font-family="Helvetica,sans-Serif" font-size="10.00">_Register_C2</text>
</a>
</g>
</g>
<!-- Node1&#45;&gt;Node5 -->
<g id="edge4_Node000001_Node000005" class="edge">
<title>Node1&#45;&gt;Node5</title>
<g id="a_edge4_Node000001_Node000005"><a xlink:title=" ">
<path fill="none" stroke="#63b8ff" d="M534.07,-156.88C515.59,-163.24 494.77,-170.4 475.82,-176.92"/>
<polygon fill="#63b8ff" stroke="#63b8ff" points="535.46,-160.1 543.78,-153.54 533.18,-153.48 535.46,-160.1"/>
</a>
</g>
</g>
<!-- Node6 -->
<g id="Node000006" class="node">
<title>Node6</title>
<g id="a_Node000006"><a xlink:href="classzero__mate_1_1gui_1_1CCP15__Window.html#ae2d74a31c2235e1756f08800427f15a6" target="_top" xlink:title="Renders registers that fall under primary register C3.">
<polygon fill="white" stroke="#666666" points="487,-159 343,-159 343,-118 487,-118 487,-159"/>
<text text-anchor="start" x="351" y="-147" font-family="Helvetica,sans-Serif" font-size="10.00">zero_mate::gui::CCP15</text>
<text text-anchor="start" x="351" y="-136" font-family="Helvetica,sans-Serif" font-size="10.00">_Window::Render_Primary</text>
<text text-anchor="middle" x="415" y="-125" font-family="Helvetica,sans-Serif" font-size="10.00">_Register_C3</text>
</a>
</g>
</g>
<!-- Node1&#45;&gt;Node6 -->
<g id="edge6_Node000001_Node000006" class="edge">
<title>Node1&#45;&gt;Node6</title>
<g id="a_edge6_Node000001_Node000006"><a xlink:title=" ">
<path fill="none" stroke="#63b8ff" d="M512.51,-138.5C504.12,-138.5 495.58,-138.5 487.24,-138.5"/>
<polygon fill="#63b8ff" stroke="#63b8ff" points="512.66,-142 522.66,-138.5 512.66,-135 512.66,-142"/>
</a>
</g>
</g>
<!-- Node7 -->
<g id="Node000007" class="node">
<title>Node7</title>
<g id="a_Node000007"><a xlink:href="classzero__mate_1_1gui_1_1CCP15__Window.html#af6e61d67b6bbe3da5f321753d1891843" target="_top" xlink:title="Renders registers that fall under primary register C7.">
<polygon fill="white" stroke="#666666" points="487,-100 343,-100 343,-59 487,-59 487,-100"/>
<text text-anchor="start" x="351" y="-88" font-family="Helvetica,sans-Serif" font-size="10.00">zero_mate::gui::CCP15</text>
<text text-anchor="start" x="351" y="-77" font-family="Helvetica,sans-Serif" font-size="10.00">_Window::Render_Primary</text>
<text text-anchor="middle" x="415" y="-66" font-family="Helvetica,sans-Serif" font-size="10.00">_Register_C7</text>
</a>
</g>
</g>
<!-- Node1&#45;&gt;Node7 -->
<g id="edge8_Node000001_Node000007" class="edge">
<title>Node1&#45;&gt;Node7</title>
<g id="a_edge8_Node000001_Node000007"><a xlink:title=" ">
<path fill="none" stroke="#63b8ff" d="M534.07,-120.12C515.59,-113.76 494.77,-106.6 475.82,-100.08"/>
<polygon fill="#63b8ff" stroke="#63b8ff" points="533.18,-123.52 543.78,-123.46 535.46,-116.9 533.18,-123.52"/>
</a>
</g>
</g>
<!-- Node8 -->
<g id="Node000008" class="node">
<title>Node8</title>
<g id="a_Node000008"><a xlink:href="classzero__mate_1_1gui_1_1CCP15__Window.html#a5a84763e3c17b33b3a13e66ea82d22f7" target="_top" xlink:title="Renders registers that fall under primary register C8.">
<polygon fill="white" stroke="#666666" points="487,-41 343,-41 343,0 487,0 487,-41"/>
<text text-anchor="start" x="351" y="-29" font-family="Helvetica,sans-Serif" font-size="10.00">zero_mate::gui::CCP15</text>
<text text-anchor="start" x="351" y="-18" font-family="Helvetica,sans-Serif" font-size="10.00">_Window::Render_Primary</text>
<text text-anchor="middle" x="415" y="-7" font-family="Helvetica,sans-Serif" font-size="10.00">_Register_C8</text>
</a>
</g>
</g>
<!-- Node1&#45;&gt;Node8 -->
<g id="edge10_Node000001_Node000008" class="edge">
<title>Node1&#45;&gt;Node8</title>
<g id="a_edge10_Node000001_Node000008"><a xlink:title=" ">
<path fill="none" stroke="#63b8ff" d="M566.29,-116.27C546.99,-96.99 517.02,-69.3 487,-50.5 481.67,-47.16 475.9,-44.04 470.04,-41.16"/>
<polygon fill="#63b8ff" stroke="#63b8ff" points="563.87,-118.8 573.38,-123.46 568.85,-113.88 563.87,-118.8"/>
</a>
</g>
</g>
<!-- Node3 -->
<g id="Node000003" class="node">
<title>Node3</title>
<g id="a_Node000003"><a xlink:href="classzero__mate_1_1gui_1_1CCP15__Window.html#a0d41be7f469e6b9493815c5cd094939a" target="_top" xlink:title="Renders tabs representing the primary registers of CP15.">
<polygon fill="white" stroke="#666666" points="307,-153.5 163,-153.5 163,-123.5 307,-123.5 307,-153.5"/>
<text text-anchor="start" x="171" y="-141.5" font-family="Helvetica,sans-Serif" font-size="10.00">zero_mate::gui::CCP15</text>
<text text-anchor="middle" x="235" y="-130.5" font-family="Helvetica,sans-Serif" font-size="10.00">_Window::Render_Tab_Bar</text>
</a>
</g>
</g>
<!-- Node2&#45;&gt;Node3 -->
<g id="edge2_Node000002_Node000003" class="edge">
<title>Node2&#45;&gt;Node3</title>
<g id="a_edge2_Node000002_Node000003"><a xlink:title=" ">
<path fill="none" stroke="#63b8ff" d="M349.78,-231.35C347.47,-230.1 345.2,-228.82 343,-227.5 307.16,-205.98 270.9,-172.9 251.15,-153.71"/>
<polygon fill="#63b8ff" stroke="#63b8ff" points="348.4,-234.58 358.9,-235.98 351.57,-228.34 348.4,-234.58"/>
</a>
</g>
</g>
<!-- Node4 -->
<g id="Node000004" class="node">
<title>Node4</title>
<g id="a_Node000004"><a xlink:href="classzero__mate_1_1gui_1_1CCP15__Window.html#a02fdded272906e0bb3665c8b3aa03ba0" target="_top" xlink:title="Renders the window (IGUI_Window interface).">
<polygon fill="white" stroke="#666666" points="127,-153.5 0,-153.5 0,-123.5 127,-123.5 127,-153.5"/>
<text text-anchor="start" x="8" y="-141.5" font-family="Helvetica,sans-Serif" font-size="10.00">zero_mate::gui::CCP15</text>
<text text-anchor="middle" x="63.5" y="-130.5" font-family="Helvetica,sans-Serif" font-size="10.00">_Window::Render</text>
</a>
</g>
</g>
<!-- Node3&#45;&gt;Node4 -->
<g id="edge3_Node000003_Node000004" class="edge">
<title>Node3&#45;&gt;Node4</title>
<g id="a_edge3_Node000003_Node000004"><a xlink:title=" ">
<path fill="none" stroke="#63b8ff" d="M152.34,-138.5C143.89,-138.5 135.4,-138.5 127.2,-138.5"/>
<polygon fill="#63b8ff" stroke="#63b8ff" points="152.61,-142 162.61,-138.5 152.61,-135 152.61,-142"/>
</a>
</g>
</g>
<!-- Node5&#45;&gt;Node3 -->
<g id="edge5_Node000005_Node000003" class="edge">
<title>Node5&#45;&gt;Node3</title>
<g id="a_edge5_Node000005_Node000003"><a xlink:title=" ">
<path fill="none" stroke="#63b8ff" d="M342.11,-173.67C321.61,-166.88 299.84,-159.66 281.4,-153.55"/>
<polygon fill="#63b8ff" stroke="#63b8ff" points="341.15,-177.04 351.74,-176.86 343.35,-170.4 341.15,-177.04"/>
</a>
</g>
</g>
<!-- Node6&#45;&gt;Node3 -->
<g id="edge7_Node000006_Node000003" class="edge">
<title>Node6&#45;&gt;Node3</title>
<g id="a_edge7_Node000006_Node000003"><a xlink:title=" ">
<path fill="none" stroke="#63b8ff" d="M332.83,-138.5C324.21,-138.5 315.49,-138.5 307,-138.5"/>
<polygon fill="#63b8ff" stroke="#63b8ff" points="332.88,-142 342.88,-138.5 332.88,-135 332.88,-142"/>
</a>
</g>
</g>
<!-- Node7&#45;&gt;Node3 -->
<g id="edge9_Node000007_Node000003" class="edge">
<title>Node7&#45;&gt;Node3</title>
<g id="a_edge9_Node000007_Node000003"><a xlink:title=" ">
<path fill="none" stroke="#63b8ff" d="M342.11,-103.33C321.61,-110.12 299.84,-117.34 281.4,-123.45"/>
<polygon fill="#63b8ff" stroke="#63b8ff" points="343.35,-106.6 351.74,-100.14 341.15,-99.96 343.35,-106.6"/>
</a>
</g>
</g>
<!-- Node8&#45;&gt;Node3 -->
<g id="edge11_Node000008_Node000003" class="edge">
<title>Node8&#45;&gt;Node3</title>
<g id="a_edge11_Node000008_Node000003"><a xlink:title=" ">
<path fill="none" stroke="#63b8ff" d="M351.25,-45.81C348.43,-47.32 345.66,-48.89 343,-50.5 307.6,-71.91 271.47,-104.28 251.57,-123.21"/>
<polygon fill="#63b8ff" stroke="#63b8ff" points="353.1,-48.79 360.44,-41.15 349.94,-42.55 353.1,-48.79"/>
</a>
</g>
</g>
</g>
</svg>
