<?xml version="1.0" encoding="UTF-8" standalone="no"?>
<!DOCTYPE svg PUBLIC "-//W3C//DTD SVG 1.1//EN"
 "http://www.w3.org/Graphics/SVG/1.1/DTD/svg11.dtd">
<!-- Generated by graphviz version 2.43.0 (0)
 -->
<!-- Title: zero_mate::peripheral::CInterrupt_Controller::Write Pages: 1 -->
<svg width="888pt" height="151pt"
 viewBox="0.00 0.00 888.00 150.50" xmlns="http://www.w3.org/2000/svg" xmlns:xlink="http://www.w3.org/1999/xlink">
<g id="graph0" class="graph" transform="scale(1 1) rotate(0) translate(4 146.5)">
<title>zero_mate::peripheral::CInterrupt_Controller::Write</title>
<!-- Node1 -->
<g id="Node000001" class="node">
<title>Node1</title>
<g id="a_Node000001"><a xlink:title="Writes data to the peripheral (IPeripheral interface).">
<polygon fill="#999999" stroke="#666666" points="125,-70 0,-70 0,-29 125,-29 125,-70"/>
<text text-anchor="start" x="8" y="-58" font-family="Helvetica,sans-Serif" font-size="10.00">zero_mate::peripheral</text>
<text text-anchor="start" x="8" y="-47" font-family="Helvetica,sans-Serif" font-size="10.00">::CInterrupt_Controller</text>
<text text-anchor="middle" x="62.5" y="-36" font-family="Helvetica,sans-Serif" font-size="10.00">::Write</text>
</a>
</g>
</g>
<!-- Node2 -->
<g id="Node000002" class="node">
<title>Node2</title>
<g id="a_Node000002"><a xlink:href="classzero__mate_1_1peripheral_1_1CInterrupt__Controller.html#aa731c1d6e73a4db1087a803ca5fe5557" target="_top" xlink:title="Enables/disables interrupts from a basic IRQ source.">
<polygon fill="white" stroke="#666666" points="314,-100 161,-100 161,-59 314,-59 314,-100"/>
<text text-anchor="start" x="169" y="-88" font-family="Helvetica,sans-Serif" font-size="10.00">zero_mate::peripheral</text>
<text text-anchor="start" x="169" y="-77" font-family="Helvetica,sans-Serif" font-size="10.00">::CInterrupt_Controller</text>
<text text-anchor="middle" x="237.5" y="-66" font-family="Helvetica,sans-Serif" font-size="10.00">::Enable_IRQ_Basic_Sources</text>
</a>
</g>
</g>
<!-- Node1&#45;&gt;Node2 -->
<g id="edge1_Node000001_Node000002" class="edge">
<title>Node1&#45;&gt;Node2</title>
<g id="a_edge1_Node000001_Node000002"><a xlink:title=" ">
<path fill="none" stroke="#63b8ff" d="M125.47,-60.25C133.69,-61.67 142.24,-63.15 150.77,-64.63"/>
<polygon fill="#63b8ff" stroke="#63b8ff" points="150.32,-68.11 160.77,-66.37 151.51,-61.21 150.32,-68.11"/>
</a>
</g>
</g>
<!-- Node9 -->
<g id="Node000009" class="node">
<title>Node9</title>
<g id="a_Node000009"><a xlink:href="classzero__mate_1_1peripheral_1_1CInterrupt__Controller.html#ac3c9423e443ca2389cef743f32713cca" target="_top" xlink:title="Enables/disables interrupts from an IRQ source.">
<polygon fill="white" stroke="#666666" points="300,-41 175,-41 175,0 300,0 300,-41"/>
<text text-anchor="start" x="183" y="-29" font-family="Helvetica,sans-Serif" font-size="10.00">zero_mate::peripheral</text>
<text text-anchor="start" x="183" y="-18" font-family="Helvetica,sans-Serif" font-size="10.00">::CInterrupt_Controller</text>
<text text-anchor="middle" x="237.5" y="-7" font-family="Helvetica,sans-Serif" font-size="10.00">::Enable_IRQ_Sources</text>
</a>
</g>
</g>
<!-- Node1&#45;&gt;Node9 -->
<g id="edge8_Node000001_Node000009" class="edge">
<title>Node1&#45;&gt;Node9</title>
<g id="a_edge8_Node000001_Node000009"><a xlink:title=" ">
<path fill="none" stroke="#63b8ff" d="M125.47,-39.11C138.29,-36.96 151.9,-34.68 165.04,-32.48"/>
<polygon fill="#63b8ff" stroke="#63b8ff" points="165.68,-35.92 174.96,-30.82 164.52,-29.02 165.68,-35.92"/>
</a>
</g>
</g>
<!-- Node3 -->
<g id="Node000003" class="node">
<title>Node3</title>
<g id="a_Node000003"><a xlink:href="classzero__mate_1_1utils_1_1CLogging__System.html#ade996da881888272ace7deaa82c975e9" target="_top" xlink:title="Logs a debug message via all registered loggers.">
<polygon fill="white" stroke="#666666" points="496,-91.5 350,-91.5 350,-61.5 496,-61.5 496,-91.5"/>
<text text-anchor="start" x="358" y="-79.5" font-family="Helvetica,sans-Serif" font-size="10.00">zero_mate::utils::CLogging</text>
<text text-anchor="middle" x="423" y="-68.5" font-family="Helvetica,sans-Serif" font-size="10.00">_System::Debug</text>
</a>
</g>
</g>
<!-- Node2&#45;&gt;Node3 -->
<g id="edge2_Node000002_Node000003" class="edge">
<title>Node2&#45;&gt;Node3</title>
<g id="a_edge2_Node000002_Node000003"><a xlink:title=" ">
<path fill="none" stroke="#63b8ff" d="M314.2,-78.26C322.55,-78.13 331.08,-77.99 339.51,-77.85"/>
<polygon fill="#63b8ff" stroke="#63b8ff" points="339.78,-81.34 349.72,-77.68 339.67,-74.35 339.78,-81.34"/>
</a>
</g>
</g>
<!-- Node8 -->
<g id="Node000008" class="node">
<title>Node8</title>
<g id="a_Node000008"><a xlink:href="namespacezero__mate_1_1utils_1_1math.html#af7d93c996dab2ff1b91c5a399dcfe29f" target="_top" xlink:title="Tests whether a bit is set in the given integral variable.">
<polygon fill="white" stroke="#666666" points="486.5,-40.5 359.5,-40.5 359.5,-10.5 486.5,-10.5 486.5,-40.5"/>
<text text-anchor="start" x="367.5" y="-28.5" font-family="Helvetica,sans-Serif" font-size="10.00">zero_mate::utils::math</text>
<text text-anchor="middle" x="423" y="-17.5" font-family="Helvetica,sans-Serif" font-size="10.00">::Is_Bit_Set</text>
</a>
</g>
</g>
<!-- Node2&#45;&gt;Node8 -->
<g id="edge7_Node000002_Node000008" class="edge">
<title>Node2&#45;&gt;Node8</title>
<g id="a_edge7_Node000002_Node000008"><a xlink:title=" ">
<path fill="none" stroke="#63b8ff" d="M308.4,-58.93C325.75,-53.82 344.22,-48.39 361.1,-43.42"/>
<polygon fill="#63b8ff" stroke="#63b8ff" points="362.24,-46.73 370.84,-40.55 360.26,-40.02 362.24,-46.73"/>
</a>
</g>
</g>
<!-- Node4 -->
<g id="Node000004" class="node">
<title>Node4</title>
<g id="a_Node000004"><a xlink:href="classzero__mate_1_1utils_1_1CLogging__System.html#a71ed11c796553cbe8fd99773406a1060" target="_top" xlink:title="Creates a formatted message to be logged.">
<polygon fill="white" stroke="#666666" points="684,-124 532,-124 532,-83 684,-83 684,-124"/>
<text text-anchor="start" x="540" y="-112" font-family="Helvetica,sans-Serif" font-size="10.00">zero_mate::utils::CLogging</text>
<text text-anchor="start" x="540" y="-101" font-family="Helvetica,sans-Serif" font-size="10.00">_System::Create_Formatted</text>
<text text-anchor="middle" x="608" y="-90" font-family="Helvetica,sans-Serif" font-size="10.00">_Log_Msg</text>
</a>
</g>
</g>
<!-- Node3&#45;&gt;Node4 -->
<g id="edge3_Node000003_Node000004" class="edge">
<title>Node3&#45;&gt;Node4</title>
<g id="a_edge3_Node000003_Node000004"><a xlink:title=" ">
<path fill="none" stroke="#63b8ff" d="M496.06,-87.13C504.55,-88.38 513.26,-89.67 521.9,-90.94"/>
<polygon fill="#63b8ff" stroke="#63b8ff" points="521.59,-94.44 531.99,-92.43 522.61,-87.51 521.59,-94.44"/>
</a>
</g>
</g>
<!-- Node7 -->
<g id="Node000007" class="node">
<title>Node7</title>
<g id="a_Node000007"><a xlink:href="classzero__mate_1_1utils_1_1CLogging__System.html#ad371c67ef65763966ccf9291002e86f3" target="_top" xlink:title="Extract the filename from a given location within the source files.">
<polygon fill="white" stroke="#666666" points="682.5,-64.5 533.5,-64.5 533.5,-34.5 682.5,-34.5 682.5,-64.5"/>
<text text-anchor="start" x="541.5" y="-52.5" font-family="Helvetica,sans-Serif" font-size="10.00">zero_mate::utils::CLogging</text>
<text text-anchor="middle" x="608" y="-41.5" font-family="Helvetica,sans-Serif" font-size="10.00">_System::Extract_Filename</text>
</a>
</g>
</g>
<!-- Node3&#45;&gt;Node7 -->
<g id="edge6_Node000003_Node000007" class="edge">
<title>Node3&#45;&gt;Node7</title>
<g id="a_edge6_Node000003_Node000007"><a xlink:title=" ">
<path fill="none" stroke="#63b8ff" d="M496.06,-65.87C505.1,-64.53 514.4,-63.16 523.59,-61.81"/>
<polygon fill="#63b8ff" stroke="#63b8ff" points="524.12,-65.27 533.5,-60.34 523.1,-58.34 524.12,-65.27"/>
</a>
</g>
</g>
<!-- Node5 -->
<g id="Node000005" class="node">
<title>Node5</title>
<g id="a_Node000005"><a xlink:href="classzero__mate_1_1utils_1_1CLogging__System.html#aa70c102c805079042ffea2a6f2a5ad64" target="_top" xlink:title="Formats a given timestamp.">
<polygon fill="white" stroke="#666666" points="880,-142.5 720,-142.5 720,-112.5 880,-112.5 880,-142.5"/>
<text text-anchor="start" x="728" y="-130.5" font-family="Helvetica,sans-Serif" font-size="10.00">zero_mate::utils::CLogging</text>
<text text-anchor="middle" x="800" y="-119.5" font-family="Helvetica,sans-Serif" font-size="10.00">_System::Format_Timestamp</text>
</a>
</g>
</g>
<!-- Node4&#45;&gt;Node5 -->
<g id="edge4_Node000004_Node000005" class="edge">
<title>Node4&#45;&gt;Node5</title>
<g id="a_edge4_Node000004_Node000005"><a xlink:title=" ">
<path fill="none" stroke="#63b8ff" d="M684.09,-112.99C692.52,-114.05 701.16,-115.14 709.74,-116.23"/>
<polygon fill="#63b8ff" stroke="#63b8ff" points="709.41,-119.71 719.77,-117.49 710.29,-112.77 709.41,-119.71"/>
</a>
</g>
</g>
<!-- Node6 -->
<g id="Node000006" class="node">
<title>Node6</title>
<g id="a_Node000006"><a xlink:href="classzero__mate_1_1utils_1_1CLogging__System.html#ae3ca637537dde05e0b9119145c840331" target="_top" xlink:title="Returns the current timestamp that will be used in a log message.">
<polygon fill="white" stroke="#666666" points="873,-94.5 727,-94.5 727,-64.5 873,-64.5 873,-94.5"/>
<text text-anchor="start" x="735" y="-82.5" font-family="Helvetica,sans-Serif" font-size="10.00">zero_mate::utils::CLogging</text>
<text text-anchor="middle" x="800" y="-71.5" font-family="Helvetica,sans-Serif" font-size="10.00">_System::Get_Timestamp</text>
</a>
</g>
</g>
<!-- Node4&#45;&gt;Node6 -->
<g id="edge5_Node000004_Node000006" class="edge">
<title>Node4&#45;&gt;Node6</title>
<g id="a_edge5_Node000004_Node000006"><a xlink:title=" ">
<path fill="none" stroke="#63b8ff" d="M684.09,-94.01C694.89,-92.65 706.05,-91.24 716.98,-89.86"/>
<polygon fill="#63b8ff" stroke="#63b8ff" points="717.45,-93.33 726.93,-88.6 716.57,-86.38 717.45,-93.33"/>
</a>
</g>
</g>
<!-- Node9&#45;&gt;Node3 -->
<g id="edge9_Node000009_Node000003" class="edge">
<title>Node9&#45;&gt;Node3</title>
<g id="a_edge9_Node000009_Node000003"><a xlink:title=" ">
<path fill="none" stroke="#63b8ff" d="M300.11,-39.3C320.42,-45.5 342.95,-52.38 363.06,-58.51"/>
<polygon fill="#63b8ff" stroke="#63b8ff" points="362.13,-61.89 372.72,-61.46 364.17,-55.19 362.13,-61.89"/>
</a>
</g>
</g>
<!-- Node9&#45;&gt;Node8 -->
<g id="edge10_Node000009_Node000008" class="edge">
<title>Node9&#45;&gt;Node8</title>
<g id="a_edge10_Node000009_Node000008"><a xlink:title=" ">
<path fill="none" stroke="#63b8ff" d="M300.11,-22.18C315.89,-22.61 333.01,-23.08 349.29,-23.52"/>
<polygon fill="#63b8ff" stroke="#63b8ff" points="349.21,-27.02 359.3,-23.79 349.4,-20.02 349.21,-27.02"/>
</a>
</g>
</g>
</g>
</svg>
