<?xml version="1.0" encoding="UTF-8" standalone="no"?>
<!DOCTYPE svg PUBLIC "-//W3C//DTD SVG 1.1//EN"
 "http://www.w3.org/Graphics/SVG/1.1/DTD/svg11.dtd">
<!-- Generated by graphviz version 2.43.0 (0)
 -->
<!-- Title: zero_mate::gui::CSource_Code_Window::Render_Tab Pages: 1 -->
<svg width="1080pt" height="254pt"
 viewBox="0.00 0.00 1080.00 254.00" xmlns="http://www.w3.org/2000/svg" xmlns:xlink="http://www.w3.org/1999/xlink">
<g id="graph0" class="graph" transform="scale(1 1) rotate(0) translate(4 250)">
<title>zero_mate::gui::CSource_Code_Window::Render_Tab</title>
<!-- Node1 -->
<g id="Node000001" class="node">
<title>Node1</title>
<g id="a_Node000001"><a xlink:title="Renders a single tab (ELF source file).">
<polygon fill="#999999" stroke="#666666" points="152,-138 0,-138 0,-108 152,-108 152,-138"/>
<text text-anchor="start" x="8" y="-126" font-family="Helvetica,sans-Serif" font-size="10.00">zero_mate::gui::CSource</text>
<text text-anchor="middle" x="76" y="-115" font-family="Helvetica,sans-Serif" font-size="10.00">_Code_Window::Render_Tab</text>
</a>
</g>
</g>
<!-- Node2 -->
<g id="Node000002" class="node">
<title>Node2</title>
<g id="a_Node000002"><a xlink:href="classzero__mate_1_1gui_1_1CSource__Code__Window.html#af9afd629a519bacd1ce89faf8bbcdb9c" target="_top" xlink:title="Renders a block of code (a single function/method).">
<polygon fill="white" stroke="#666666" points="381,-138 188,-138 188,-108 381,-108 381,-138"/>
<text text-anchor="start" x="196" y="-126" font-family="Helvetica,sans-Serif" font-size="10.00">zero_mate::gui::CSource</text>
<text text-anchor="middle" x="284.5" y="-115" font-family="Helvetica,sans-Serif" font-size="10.00">_Code_Window::Render_Code_Block</text>
</a>
</g>
</g>
<!-- Node1&#45;&gt;Node2 -->
<g id="edge1_Node000001_Node000002" class="edge">
<title>Node1&#45;&gt;Node2</title>
<g id="a_edge1_Node000001_Node000002"><a xlink:title=" ">
<path fill="none" stroke="#63b8ff" d="M152.14,-123C160.51,-123 169.15,-123 177.81,-123"/>
<polygon fill="#63b8ff" stroke="#63b8ff" points="177.97,-126.5 187.97,-123 177.97,-119.5 177.97,-126.5"/>
</a>
</g>
</g>
<!-- Node3 -->
<g id="Node000003" class="node">
<title>Node3</title>
<g id="a_Node000003"><a xlink:href="namespacezero__mate_1_1gui_1_1color.html#a60970f5b5a08721617863b63cc7cc292" target="_top" xlink:title="Assigns a string its corresponding color based on its hash value.">
<polygon fill="white" stroke="#666666" points="591.5,-246 445.5,-246 445.5,-216 591.5,-216 591.5,-246"/>
<text text-anchor="start" x="453.5" y="-234" font-family="Helvetica,sans-Serif" font-size="10.00">zero_mate::gui::color</text>
<text text-anchor="middle" x="518.5" y="-223" font-family="Helvetica,sans-Serif" font-size="10.00">::Assign_Color_From_Hash</text>
</a>
</g>
</g>
<!-- Node2&#45;&gt;Node3 -->
<g id="edge2_Node000002_Node000003" class="edge">
<title>Node2&#45;&gt;Node3</title>
<g id="a_edge2_Node000002_Node000003"><a xlink:title=" ">
<path fill="none" stroke="#63b8ff" d="M304.83,-138.32C329.49,-157.13 374.11,-188.79 417,-207 422.91,-209.51 429.12,-211.78 435.45,-213.84"/>
<polygon fill="#63b8ff" stroke="#63b8ff" points="434.87,-217.32 445.45,-216.9 436.91,-210.63 434.87,-217.32"/>
</a>
</g>
</g>
<!-- Node4 -->
<g id="Node000004" class="node">
<title>Node4</title>
<g id="a_Node000004"><a xlink:href="classzero__mate_1_1gui_1_1CSource__Code__Window.html#a8ab01667cca3406c621027962c2d22bd" target="_top" xlink:title="Extracts the class name from a given label (function name).">
<polygon fill="white" stroke="#666666" points="586,-197.5 451,-197.5 451,-156.5 586,-156.5 586,-197.5"/>
<text text-anchor="start" x="459" y="-185.5" font-family="Helvetica,sans-Serif" font-size="10.00">zero_mate::gui::CSource</text>
<text text-anchor="start" x="459" y="-174.5" font-family="Helvetica,sans-Serif" font-size="10.00">_Code_Window::Extract</text>
<text text-anchor="middle" x="518.5" y="-163.5" font-family="Helvetica,sans-Serif" font-size="10.00">_Class_Name</text>
</a>
</g>
</g>
<!-- Node2&#45;&gt;Node4 -->
<g id="edge3_Node000002_Node000004" class="edge">
<title>Node2&#45;&gt;Node4</title>
<g id="a_edge3_Node000002_Node000004"><a xlink:title=" ">
<path fill="none" stroke="#63b8ff" d="M350.12,-138.04C378.31,-144.6 411.57,-152.34 440.98,-159.19"/>
<polygon fill="#63b8ff" stroke="#63b8ff" points="440.27,-162.62 450.8,-161.47 441.85,-155.8 440.27,-162.62"/>
</a>
</g>
</g>
<!-- Node5 -->
<g id="Node000005" class="node">
<title>Node5</title>
<g id="a_Node000005"><a xlink:href="classzero__mate_1_1gui_1_1CSource__Code__Window.html#ad8c35af3bc3c8881eeca1de82afc6b35" target="_top" xlink:title="Renders a table that containing disassembled instructions.">
<polygon fill="white" stroke="#666666" points="614,-138 423,-138 423,-108 614,-108 614,-138"/>
<text text-anchor="start" x="431" y="-126" font-family="Helvetica,sans-Serif" font-size="10.00">zero_mate::gui::CSource</text>
<text text-anchor="middle" x="518.5" y="-115" font-family="Helvetica,sans-Serif" font-size="10.00">_Code_Window::Render_Code_Table</text>
</a>
</g>
</g>
<!-- Node2&#45;&gt;Node5 -->
<g id="edge4_Node000002_Node000005" class="edge">
<title>Node2&#45;&gt;Node5</title>
<g id="a_edge4_Node000002_Node000005"><a xlink:title=" ">
<path fill="none" stroke="#63b8ff" d="M381.2,-123C391.61,-123 402.24,-123 412.74,-123"/>
<polygon fill="#63b8ff" stroke="#63b8ff" points="412.77,-126.5 422.77,-123 412.77,-119.5 412.77,-126.5"/>
</a>
</g>
</g>
<!-- Node9 -->
<g id="Node000009" class="node">
<title>Node9</title>
<g id="a_Node000009"><a xlink:href="classzero__mate_1_1gui_1_1CSource__Code__Window.html#ad485f4213e9fff6ac5327683e2e6abc7" target="_top" xlink:title="Checks if the block of code which is currently being rendered should be highlighted or not.">
<polygon fill="white" stroke="#666666" points="598,-89.5 439,-89.5 439,-48.5 598,-48.5 598,-89.5"/>
<text text-anchor="start" x="447" y="-77.5" font-family="Helvetica,sans-Serif" font-size="10.00">zero_mate::gui::CSource</text>
<text text-anchor="start" x="447" y="-66.5" font-family="Helvetica,sans-Serif" font-size="10.00">_Code_Window::Should_Code</text>
<text text-anchor="middle" x="518.5" y="-55.5" font-family="Helvetica,sans-Serif" font-size="10.00">_Block_Be_Highlighted</text>
</a>
</g>
</g>
<!-- Node2&#45;&gt;Node9 -->
<g id="edge8_Node000002_Node000009" class="edge">
<title>Node2&#45;&gt;Node9</title>
<g id="a_edge8_Node000002_Node000009"><a xlink:title=" ">
<path fill="none" stroke="#63b8ff" d="M350.12,-107.96C374.5,-102.29 402.66,-95.73 428.85,-89.63"/>
<polygon fill="#63b8ff" stroke="#63b8ff" points="429.83,-93 438.78,-87.32 428.25,-86.18 429.83,-93"/>
</a>
</g>
</g>
<!-- Node10 -->
<g id="Node000010" class="node">
<title>Node10</title>
<g id="a_Node000010"><a xlink:href="classzero__mate_1_1gui_1_1CSource__Code__Window.html#a0fa8c26175b9585a867f343c1148d258" target="_top" xlink:title="Skips a block of code (function) which is collapsed and therefore not visible to the user.">
<polygon fill="white" stroke="#666666" points="620,-30 417,-30 417,0 620,0 620,-30"/>
<text text-anchor="start" x="425" y="-18" font-family="Helvetica,sans-Serif" font-size="10.00">zero_mate::gui::CSource</text>
<text text-anchor="middle" x="518.5" y="-7" font-family="Helvetica,sans-Serif" font-size="10.00">_Code_Window::Skip_Collapsed_Block</text>
</a>
</g>
</g>
<!-- Node2&#45;&gt;Node10 -->
<g id="edge9_Node000002_Node000010" class="edge">
<title>Node2&#45;&gt;Node10</title>
<g id="a_edge9_Node000002_Node000010"><a xlink:title=" ">
<path fill="none" stroke="#63b8ff" d="M304.83,-107.68C329.49,-88.87 374.11,-57.21 417,-39 422.01,-36.88 427.23,-34.92 432.56,-33.12"/>
<polygon fill="#63b8ff" stroke="#63b8ff" points="433.77,-36.41 442.24,-30.04 431.65,-29.73 433.77,-36.41"/>
</a>
</g>
</g>
<!-- Node6 -->
<g id="Node000006" class="node">
<title>Node6</title>
<g id="a_Node000006"><a xlink:href="classzero__mate_1_1gui_1_1CSource__Code__Window.html#a92af51ccb5ebca752cddaac27c38f1f8" target="_top" xlink:title="Renders the body of a source code table.">
<polygon fill="white" stroke="#666666" points="847,-165 656,-165 656,-135 847,-135 847,-165"/>
<text text-anchor="start" x="664" y="-153" font-family="Helvetica,sans-Serif" font-size="10.00">zero_mate::gui::CSource</text>
<text text-anchor="middle" x="751.5" y="-142" font-family="Helvetica,sans-Serif" font-size="10.00">_Code_Window::Render_Table_Body</text>
</a>
</g>
</g>
<!-- Node5&#45;&gt;Node6 -->
<g id="edge5_Node000005_Node000006" class="edge">
<title>Node5&#45;&gt;Node6</title>
<g id="a_edge5_Node000005_Node000006"><a xlink:title=" ">
<path fill="none" stroke="#63b8ff" d="M614.12,-134.06C624.51,-135.27 635.13,-136.52 645.63,-137.74"/>
<polygon fill="#63b8ff" stroke="#63b8ff" points="645.31,-141.23 655.65,-138.91 646.12,-134.28 645.31,-141.23"/>
</a>
</g>
</g>
<!-- Node8 -->
<g id="Node000008" class="node">
<title>Node8</title>
<g id="a_Node000008"><a xlink:href="classzero__mate_1_1gui_1_1CSource__Code__Window.html#aa46c591d1c9bb994ccee55d371919e37" target="_top" xlink:title="Renders table headings (breakpoint, address, opcode, disassembly)">
<polygon fill="white" stroke="#666666" points="832,-116.5 671,-116.5 671,-75.5 832,-75.5 832,-116.5"/>
<text text-anchor="start" x="679" y="-104.5" font-family="Helvetica,sans-Serif" font-size="10.00">zero_mate::gui::CSource</text>
<text text-anchor="start" x="679" y="-93.5" font-family="Helvetica,sans-Serif" font-size="10.00">_Code_Window::Render_Table</text>
<text text-anchor="middle" x="751.5" y="-82.5" font-family="Helvetica,sans-Serif" font-size="10.00">_Headings</text>
</a>
</g>
</g>
<!-- Node5&#45;&gt;Node8 -->
<g id="edge7_Node000005_Node000008" class="edge">
<title>Node5&#45;&gt;Node8</title>
<g id="a_edge7_Node000005_Node000008"><a xlink:title=" ">
<path fill="none" stroke="#63b8ff" d="M614.12,-111.94C629.56,-110.14 645.5,-108.27 660.81,-106.48"/>
<polygon fill="#63b8ff" stroke="#63b8ff" points="661.25,-109.96 670.77,-105.32 660.43,-103 661.25,-109.96"/>
</a>
</g>
</g>
<!-- Node7 -->
<g id="Node000007" class="node">
<title>Node7</title>
<g id="a_Node000007"><a xlink:href="classzero__mate_1_1gui_1_1CSource__Code__Window.html#a854994af8a4bb90df17e2e24c8d7a3a5" target="_top" xlink:title="Renders a single breakpoint.">
<polygon fill="white" stroke="#666666" points="1072,-165 883,-165 883,-135 1072,-135 1072,-165"/>
<text text-anchor="start" x="891" y="-153" font-family="Helvetica,sans-Serif" font-size="10.00">zero_mate::gui::CSource</text>
<text text-anchor="middle" x="977.5" y="-142" font-family="Helvetica,sans-Serif" font-size="10.00">_Code_Window::Render_Breakpoint</text>
</a>
</g>
</g>
<!-- Node6&#45;&gt;Node7 -->
<g id="edge6_Node000006_Node000007" class="edge">
<title>Node6&#45;&gt;Node7</title>
<g id="a_edge6_Node000006_Node000007"><a xlink:title=" ">
<path fill="none" stroke="#63b8ff" d="M847.17,-150C855.67,-150 864.3,-150 872.87,-150"/>
<polygon fill="#63b8ff" stroke="#63b8ff" points="872.88,-153.5 882.88,-150 872.88,-146.5 872.88,-153.5"/>
</a>
</g>
</g>
</g>
</svg>
