<?xml version="1.0" encoding="UTF-8" standalone="no"?>
<!DOCTYPE svg PUBLIC "-//W3C//DTD SVG 1.1//EN"
 "http://www.w3.org/Graphics/SVG/1.1/DTD/svg11.dtd">
<!-- Generated by graphviz version 2.43.0 (0)
 -->
<!-- Title: zero_mate::coprocessor::cp10::isa::CData_Processing::Get_Register_Idxs Pages: 1 -->
<svg width="364pt" height="344pt"
 viewBox="0.00 0.00 364.00 344.00" xmlns="http://www.w3.org/2000/svg" xmlns:xlink="http://www.w3.org/1999/xlink">
<g id="graph0" class="graph" transform="scale(1 1) rotate(0) translate(4 340)">
<title>zero_mate::coprocessor::cp10::isa::CData_Processing::Get_Register_Idxs</title>
<!-- Node1 -->
<g id="Node000001" class="node">
<title>Node1</title>
<g id="a_Node000001"><a xlink:title="Returns a collection of indexes of all three registers (Vd, Vn, and Vm).">
<polygon fill="#999999" stroke="#666666" points="160,-188 0,-188 0,-147 160,-147 160,-188"/>
<text text-anchor="start" x="8" y="-176" font-family="Helvetica,sans-Serif" font-size="10.00">zero_mate::coprocessor</text>
<text text-anchor="start" x="8" y="-165" font-family="Helvetica,sans-Serif" font-size="10.00">::cp10::isa::CData_Processing</text>
<text text-anchor="middle" x="80" y="-154" font-family="Helvetica,sans-Serif" font-size="10.00">::Get_Register_Idxs</text>
</a>
</g>
</g>
<!-- Node2 -->
<g id="Node000002" class="node">
<title>Node2</title>
<g id="a_Node000002"><a xlink:href="classzero__mate_1_1coprocessor_1_1cp10_1_1isa_1_1CData__Processing.html#ac3c2b7fa00ff41b0a305cf96b9b40e8a" target="_top" xlink:title="Returns the index of the Vd register.">
<polygon fill="white" stroke="#666666" points="356,-336 196,-336 196,-295 356,-295 356,-336"/>
<text text-anchor="start" x="204" y="-324" font-family="Helvetica,sans-Serif" font-size="10.00">zero_mate::coprocessor</text>
<text text-anchor="start" x="204" y="-313" font-family="Helvetica,sans-Serif" font-size="10.00">::cp10::isa::CData_Processing</text>
<text text-anchor="middle" x="276" y="-302" font-family="Helvetica,sans-Serif" font-size="10.00">::Get_Vd_Idx</text>
</a>
</g>
</g>
<!-- Node1&#45;&gt;Node2 -->
<g id="edge1_Node000001_Node000002" class="edge">
<title>Node1&#45;&gt;Node2</title>
<g id="a_edge1_Node000001_Node000002"><a xlink:title=" ">
<path fill="none" stroke="#63b8ff" d="M96.29,-188.36C116.47,-214.57 154.35,-259.38 196,-286.5 197.89,-287.73 199.84,-288.92 201.83,-290.06"/>
<polygon fill="#63b8ff" stroke="#63b8ff" points="200.35,-293.24 210.83,-294.82 203.62,-287.05 200.35,-293.24"/>
</a>
</g>
</g>
<!-- Node3 -->
<g id="Node000003" class="node">
<title>Node3</title>
<g id="a_Node000003"><a xlink:href="classzero__mate_1_1coprocessor_1_1cp10_1_1isa_1_1CData__Processing.html#a9a722758da0bd85e78a6c1f41c28443a" target="_top" xlink:title="Returns the offset of the Vd register (S{x} vs D{x}).">
<polygon fill="white" stroke="#666666" points="356,-277 196,-277 196,-236 356,-236 356,-277"/>
<text text-anchor="start" x="204" y="-265" font-family="Helvetica,sans-Serif" font-size="10.00">zero_mate::coprocessor</text>
<text text-anchor="start" x="204" y="-254" font-family="Helvetica,sans-Serif" font-size="10.00">::cp10::isa::CData_Processing</text>
<text text-anchor="middle" x="276" y="-243" font-family="Helvetica,sans-Serif" font-size="10.00">::Get_Vd_Offset</text>
</a>
</g>
</g>
<!-- Node1&#45;&gt;Node3 -->
<g id="edge2_Node000001_Node000003" class="edge">
<title>Node1&#45;&gt;Node3</title>
<g id="a_edge2_Node000001_Node000003"><a xlink:title=" ">
<path fill="none" stroke="#63b8ff" d="M117.44,-188.05C139.76,-200.26 169.12,-215.61 196,-227.5 199.58,-229.08 203.28,-230.65 207.03,-232.19"/>
<polygon fill="#63b8ff" stroke="#63b8ff" points="205.83,-235.49 216.42,-235.96 208.44,-228.99 205.83,-235.49"/>
</a>
</g>
</g>
<!-- Node4 -->
<g id="Node000004" class="node">
<title>Node4</title>
<g id="a_Node000004"><a xlink:href="classzero__mate_1_1coprocessor_1_1cp10_1_1isa_1_1CData__Processing.html#a12adf6834479667289a3618f05623ecd" target="_top" xlink:title="Returns the index of the Vm register.">
<polygon fill="white" stroke="#666666" points="356,-218 196,-218 196,-177 356,-177 356,-218"/>
<text text-anchor="start" x="204" y="-206" font-family="Helvetica,sans-Serif" font-size="10.00">zero_mate::coprocessor</text>
<text text-anchor="start" x="204" y="-195" font-family="Helvetica,sans-Serif" font-size="10.00">::cp10::isa::CData_Processing</text>
<text text-anchor="middle" x="276" y="-184" font-family="Helvetica,sans-Serif" font-size="10.00">::Get_Vm_Idx</text>
</a>
</g>
</g>
<!-- Node1&#45;&gt;Node4 -->
<g id="edge3_Node000001_Node000004" class="edge">
<title>Node1&#45;&gt;Node4</title>
<g id="a_edge3_Node000001_Node000004"><a xlink:title=" ">
<path fill="none" stroke="#63b8ff" d="M160.19,-179.75C168.62,-181.05 177.24,-182.38 185.78,-183.7"/>
<polygon fill="#63b8ff" stroke="#63b8ff" points="185.33,-187.18 195.75,-185.25 186.4,-180.26 185.33,-187.18"/>
</a>
</g>
</g>
<!-- Node5 -->
<g id="Node000005" class="node">
<title>Node5</title>
<g id="a_Node000005"><a xlink:href="classzero__mate_1_1coprocessor_1_1cp10_1_1isa_1_1CData__Processing.html#a69ce6e81e4f529840566e3bee36c5d20" target="_top" xlink:title="Returns the offset of the Vm register (S{x} vs D{x}).">
<polygon fill="white" stroke="#666666" points="356,-159 196,-159 196,-118 356,-118 356,-159"/>
<text text-anchor="start" x="204" y="-147" font-family="Helvetica,sans-Serif" font-size="10.00">zero_mate::coprocessor</text>
<text text-anchor="start" x="204" y="-136" font-family="Helvetica,sans-Serif" font-size="10.00">::cp10::isa::CData_Processing</text>
<text text-anchor="middle" x="276" y="-125" font-family="Helvetica,sans-Serif" font-size="10.00">::Get_Vm_Offset</text>
</a>
</g>
</g>
<!-- Node1&#45;&gt;Node5 -->
<g id="edge4_Node000001_Node000005" class="edge">
<title>Node1&#45;&gt;Node5</title>
<g id="a_edge4_Node000001_Node000005"><a xlink:title=" ">
<path fill="none" stroke="#63b8ff" d="M160.19,-155.66C168.62,-154.4 177.24,-153.11 185.78,-151.84"/>
<polygon fill="#63b8ff" stroke="#63b8ff" points="186.38,-155.29 195.75,-150.35 185.34,-148.36 186.38,-155.29"/>
</a>
</g>
</g>
<!-- Node6 -->
<g id="Node000006" class="node">
<title>Node6</title>
<g id="a_Node000006"><a xlink:href="classzero__mate_1_1coprocessor_1_1cp10_1_1isa_1_1CData__Processing.html#ac2c5b27964fdd49fc4f960c6b52f3936" target="_top" xlink:title="Returns the index of the Vn register.">
<polygon fill="white" stroke="#666666" points="356,-100 196,-100 196,-59 356,-59 356,-100"/>
<text text-anchor="start" x="204" y="-88" font-family="Helvetica,sans-Serif" font-size="10.00">zero_mate::coprocessor</text>
<text text-anchor="start" x="204" y="-77" font-family="Helvetica,sans-Serif" font-size="10.00">::cp10::isa::CData_Processing</text>
<text text-anchor="middle" x="276" y="-66" font-family="Helvetica,sans-Serif" font-size="10.00">::Get_Vn_Idx</text>
</a>
</g>
</g>
<!-- Node1&#45;&gt;Node6 -->
<g id="edge5_Node000001_Node000006" class="edge">
<title>Node1&#45;&gt;Node6</title>
<g id="a_edge5_Node000001_Node000006"><a xlink:title=" ">
<path fill="none" stroke="#63b8ff" d="M119.38,-146.88C141.51,-135.31 170.01,-120.95 196,-109.5 200.3,-107.6 204.77,-105.71 209.29,-103.85"/>
<polygon fill="#63b8ff" stroke="#63b8ff" points="210.64,-107.08 218.6,-100.09 208.02,-100.59 210.64,-107.08"/>
</a>
</g>
</g>
<!-- Node7 -->
<g id="Node000007" class="node">
<title>Node7</title>
<g id="a_Node000007"><a xlink:href="classzero__mate_1_1coprocessor_1_1cp10_1_1isa_1_1CData__Processing.html#a9dd5cfa2e388b6e6019ba523e966d875" target="_top" xlink:title="Returns the offset of the Vn register (S{x} vs D{x}).">
<polygon fill="white" stroke="#666666" points="356,-41 196,-41 196,0 356,0 356,-41"/>
<text text-anchor="start" x="204" y="-29" font-family="Helvetica,sans-Serif" font-size="10.00">zero_mate::coprocessor</text>
<text text-anchor="start" x="204" y="-18" font-family="Helvetica,sans-Serif" font-size="10.00">::cp10::isa::CData_Processing</text>
<text text-anchor="middle" x="276" y="-7" font-family="Helvetica,sans-Serif" font-size="10.00">::Get_Vn_Offset</text>
</a>
</g>
</g>
<!-- Node1&#45;&gt;Node7 -->
<g id="edge6_Node000001_Node000007" class="edge">
<title>Node1&#45;&gt;Node7</title>
<g id="a_edge6_Node000001_Node000007"><a xlink:title=" ">
<path fill="none" stroke="#63b8ff" d="M96.77,-146.63C117.17,-120.89 154.98,-77.28 196,-50.5 198.56,-48.83 201.22,-47.23 203.96,-45.71"/>
<polygon fill="#63b8ff" stroke="#63b8ff" points="205.63,-48.78 212.91,-41.08 202.42,-42.57 205.63,-48.78"/>
</a>
</g>
</g>
</g>
</svg>
