<?xml version="1.0" encoding="UTF-8" standalone="no"?>
<!DOCTYPE svg PUBLIC "-//W3C//DTD SVG 1.1//EN"
 "http://www.w3.org/Graphics/SVG/1.1/DTD/svg11.dtd">
<!-- Generated by graphviz version 2.43.0 (0)
 -->
<!-- Title: zero_mate::arm1176jzf_s::CCPU_Core::PC Pages: 1 -->
<svg width="806pt" height="416pt"
 viewBox="0.00 0.00 806.00 415.50" xmlns="http://www.w3.org/2000/svg" xmlns:xlink="http://www.w3.org/1999/xlink">
<g id="graph0" class="graph" transform="scale(1 1) rotate(0) translate(4 411.5)">
<title>zero_mate::arm1176jzf_s::CCPU_Core::PC</title>
<!-- Node1 -->
<g id="Node000001" class="node">
<title>Node1</title>
<g id="a_Node000001"><a xlink:title="Returns a reference to the PC register (r15)">
<polygon fill="#999999" stroke="#666666" points="798,-209.5 668,-209.5 668,-179.5 798,-179.5 798,-209.5"/>
<text text-anchor="start" x="676" y="-197.5" font-family="Helvetica,sans-Serif" font-size="10.00">zero_mate::arm1176jzf</text>
<text text-anchor="middle" x="733" y="-186.5" font-family="Helvetica,sans-Serif" font-size="10.00">_s::CCPU_Core::PC</text>
</a>
</g>
</g>
<!-- Node2 -->
<g id="Node000002" class="node">
<title>Node2</title>
<g id="a_Node000002"><a xlink:href="classzero__mate_1_1arm1176jzf__s_1_1CCPU__Core.html#a529d163f0c99ab60a974589148a22eb2" target="_top" xlink:title="Executes a branch instruction.">
<polygon fill="white" stroke="#666666" points="632,-407.5 500,-407.5 500,-377.5 632,-377.5 632,-407.5"/>
<text text-anchor="start" x="508" y="-395.5" font-family="Helvetica,sans-Serif" font-size="10.00">zero_mate::arm1176jzf</text>
<text text-anchor="middle" x="566" y="-384.5" font-family="Helvetica,sans-Serif" font-size="10.00">_s::CCPU_Core::Execute</text>
</a>
</g>
</g>
<!-- Node1&#45;&gt;Node2 -->
<g id="edge1_Node000001_Node000002" class="edge">
<title>Node1&#45;&gt;Node2</title>
<g id="a_edge1_Node000001_Node000002"><a xlink:title=" ">
<path fill="none" stroke="#63b8ff" d="M723.98,-219.23C710.67,-256.62 680.54,-327.5 632,-368.5 627.96,-371.92 623.38,-374.87 618.58,-377.41"/>
<polygon fill="#63b8ff" stroke="#63b8ff" points="727.35,-220.23 727.3,-209.63 720.73,-217.94 727.35,-220.23"/>
</a>
</g>
</g>
<!-- Node3 -->
<g id="Node000003" class="node">
<title>Node3</title>
<g id="a_Node000003"><a xlink:href="classzero__mate_1_1arm1176jzf__s_1_1CCPU__Core.html#aa6f6225bcc321564fe4ce5e3f98155bb" target="_top" xlink:title="Executes a branch and exchange instruction.">
<polygon fill="white" stroke="#666666" points="632,-359.5 500,-359.5 500,-329.5 632,-329.5 632,-359.5"/>
<text text-anchor="start" x="508" y="-347.5" font-family="Helvetica,sans-Serif" font-size="10.00">zero_mate::arm1176jzf</text>
<text text-anchor="middle" x="566" y="-336.5" font-family="Helvetica,sans-Serif" font-size="10.00">_s::CCPU_Core::Execute</text>
</a>
</g>
</g>
<!-- Node1&#45;&gt;Node3 -->
<g id="edge2_Node000001_Node000003" class="edge">
<title>Node1&#45;&gt;Node3</title>
<g id="a_edge2_Node000001_Node000003"><a xlink:title=" ">
<path fill="none" stroke="#63b8ff" d="M718.69,-218.27C701.86,-246.33 670.41,-292.68 632,-320.5 627.32,-323.89 622.12,-326.85 616.74,-329.42"/>
<polygon fill="#63b8ff" stroke="#63b8ff" points="721.78,-219.91 723.82,-209.51 715.74,-216.37 721.78,-219.91"/>
</a>
</g>
</g>
<!-- Node4 -->
<g id="Node000004" class="node">
<title>Node4</title>
<g id="a_Node000004"><a xlink:href="classzero__mate_1_1arm1176jzf__s_1_1CCPU__Core.html#a28607032a48bea557d81eec0460f4aa6" target="_top" xlink:title="Executes an RFE instruction.">
<polygon fill="white" stroke="#666666" points="632,-311.5 500,-311.5 500,-281.5 632,-281.5 632,-311.5"/>
<text text-anchor="start" x="508" y="-299.5" font-family="Helvetica,sans-Serif" font-size="10.00">zero_mate::arm1176jzf</text>
<text text-anchor="middle" x="566" y="-288.5" font-family="Helvetica,sans-Serif" font-size="10.00">_s::CCPU_Core::Execute</text>
</a>
</g>
</g>
<!-- Node1&#45;&gt;Node4 -->
<g id="edge3_Node000001_Node000004" class="edge">
<title>Node1&#45;&gt;Node4</title>
<g id="a_edge3_Node000001_Node000004"><a xlink:title=" ">
<path fill="none" stroke="#63b8ff" d="M708.08,-216.62C688.71,-233.65 660.11,-256.85 632,-272.5 626.11,-275.78 619.69,-278.77 613.25,-281.44"/>
<polygon fill="#63b8ff" stroke="#63b8ff" points="710.66,-219.01 715.79,-209.74 706,-213.79 710.66,-219.01"/>
</a>
</g>
</g>
<!-- Node5 -->
<g id="Node000005" class="node">
<title>Node5</title>
<g id="a_Node000005"><a xlink:href="classzero__mate_1_1arm1176jzf__s_1_1CCPU__Core.html#ab4697275a93c62613b13cdd77726f81c" target="_top" xlink:title="Executes a single data transfer instruction.">
<polygon fill="white" stroke="#666666" points="632,-263.5 500,-263.5 500,-233.5 632,-233.5 632,-263.5"/>
<text text-anchor="start" x="508" y="-251.5" font-family="Helvetica,sans-Serif" font-size="10.00">zero_mate::arm1176jzf</text>
<text text-anchor="middle" x="566" y="-240.5" font-family="Helvetica,sans-Serif" font-size="10.00">_s::CCPU_Core::Execute</text>
</a>
</g>
</g>
<!-- Node1&#45;&gt;Node5 -->
<g id="edge4_Node000001_Node000005" class="edge">
<title>Node1&#45;&gt;Node5</title>
<g id="a_edge4_Node000001_Node000005"><a xlink:title=" ">
<path fill="none" stroke="#63b8ff" d="M676.45,-212.68C655.83,-219.43 632.68,-227 613,-233.45"/>
<polygon fill="#63b8ff" stroke="#63b8ff" points="677.62,-215.98 686.04,-209.54 675.45,-209.33 677.62,-215.98"/>
</a>
</g>
</g>
<!-- Node6 -->
<g id="Node000006" class="node">
<title>Node6</title>
<g id="a_Node000006"><a xlink:href="classzero__mate_1_1arm1176jzf__s_1_1CCPU__Core.html#a85e6ef006a36e1adb56abd3ecc6481be" target="_top" xlink:title="Executes a CPU exception.">
<polygon fill="white" stroke="#666666" points="632,-215 500,-215 500,-174 632,-174 632,-215"/>
<text text-anchor="start" x="508" y="-203" font-family="Helvetica,sans-Serif" font-size="10.00">zero_mate::arm1176jzf</text>
<text text-anchor="start" x="508" y="-192" font-family="Helvetica,sans-Serif" font-size="10.00">_s::CCPU_Core::Execute</text>
<text text-anchor="middle" x="566" y="-181" font-family="Helvetica,sans-Serif" font-size="10.00">_Exception</text>
</a>
</g>
</g>
<!-- Node1&#45;&gt;Node6 -->
<g id="edge5_Node000001_Node000006" class="edge">
<title>Node1&#45;&gt;Node6</title>
<g id="a_edge5_Node000001_Node000006"><a xlink:title=" ">
<path fill="none" stroke="#63b8ff" d="M657.51,-194.5C649.06,-194.5 640.49,-194.5 632.18,-194.5"/>
<polygon fill="#63b8ff" stroke="#63b8ff" points="657.73,-198 667.73,-194.5 657.73,-191 657.73,-198"/>
</a>
</g>
</g>
<!-- Node8 -->
<g id="Node000008" class="node">
<title>Node8</title>
<g id="a_Node000008"><a xlink:href="classzero__mate_1_1arm1176jzf__s_1_1CCPU__Core.html#aa327755c4c57c01f03e16fb3d1195f6a" target="_top" xlink:title="Fetches the next instruction.">
<polygon fill="white" stroke="#666666" points="463,-177 333,-177 333,-136 463,-136 463,-177"/>
<text text-anchor="start" x="341" y="-165" font-family="Helvetica,sans-Serif" font-size="10.00">zero_mate::arm1176jzf</text>
<text text-anchor="start" x="341" y="-154" font-family="Helvetica,sans-Serif" font-size="10.00">_s::CCPU_Core::Fetch</text>
<text text-anchor="middle" x="398" y="-143" font-family="Helvetica,sans-Serif" font-size="10.00">_Instruction</text>
</a>
</g>
</g>
<!-- Node1&#45;&gt;Node8 -->
<g id="edge11_Node000001_Node000008" class="edge">
<title>Node1&#45;&gt;Node8</title>
<g id="a_edge11_Node000001_Node000008"><a xlink:title=" ">
<path fill="none" stroke="#63b8ff" d="M679.07,-176.55C664.03,-172.16 647.52,-168.01 632,-165.5 575.45,-156.35 510.23,-154.57 463.2,-154.8"/>
<polygon fill="#63b8ff" stroke="#63b8ff" points="678.13,-179.92 688.72,-179.45 680.15,-173.22 678.13,-179.92"/>
</a>
</g>
</g>
<!-- Node9 -->
<g id="Node000009" class="node">
<title>Node9</title>
<g id="a_Node000009"><a xlink:href="classzero__mate_1_1arm1176jzf__s_1_1CCPU__Core.html#a1665360d8ae71ed541b4c10f39e655a5" target="_top" xlink:title=" ">
<polygon fill="white" stroke="#666666" points="296,-129.5 166,-129.5 166,-99.5 296,-99.5 296,-129.5"/>
<text text-anchor="start" x="174" y="-117.5" font-family="Helvetica,sans-Serif" font-size="10.00">zero_mate::arm1176jzf</text>
<text text-anchor="middle" x="231" y="-106.5" font-family="Helvetica,sans-Serif" font-size="10.00">_s::CCPU_Core::Step</text>
</a>
</g>
</g>
<!-- Node1&#45;&gt;Node9 -->
<g id="edge15_Node000001_Node000009" class="edge">
<title>Node1&#45;&gt;Node9</title>
<g id="a_edge15_Node000001_Node000009"><a xlink:title=" ">
<path fill="none" stroke="#63b8ff" d="M694.28,-174.99C675.93,-166.25 653.28,-156.58 632,-150.5 516.85,-117.61 376.17,-112.65 296.04,-112.94"/>
<polygon fill="#63b8ff" stroke="#63b8ff" points="692.94,-178.22 703.46,-179.44 696,-171.93 692.94,-178.22"/>
</a>
</g>
</g>
<!-- Node10 -->
<g id="Node000010" class="node">
<title>Node10</title>
<g id="a_Node000010"><a xlink:href="classzero__mate_1_1arm1176jzf__s_1_1CCPU__Core.html#ad07b9956fd3f7b6c64b93c69243092f4" target="_top" xlink:title="Starts the execution.">
<polygon fill="white" stroke="#666666" points="130,-84.5 0,-84.5 0,-54.5 130,-54.5 130,-84.5"/>
<text text-anchor="start" x="8" y="-72.5" font-family="Helvetica,sans-Serif" font-size="10.00">zero_mate::arm1176jzf</text>
<text text-anchor="middle" x="65" y="-61.5" font-family="Helvetica,sans-Serif" font-size="10.00">_s::CCPU_Core::Run</text>
</a>
</g>
</g>
<!-- Node1&#45;&gt;Node10 -->
<g id="edge12_Node000001_Node000010" class="edge">
<title>Node1&#45;&gt;Node10</title>
<g id="a_edge12_Node000001_Node000010"><a xlink:title=" ">
<path fill="none" stroke="#63b8ff" d="M709.46,-172.45C690.48,-155.35 661.73,-132.74 632,-121.5 459.62,-56.36 237.54,-58.59 130,-64.56"/>
<polygon fill="#63b8ff" stroke="#63b8ff" points="707.26,-175.17 716.98,-179.39 712.01,-170.03 707.26,-175.17"/>
</a>
</g>
</g>
<!-- Node12 -->
<g id="Node000012" class="node">
<title>Node12</title>
<g id="a_Node000012"><a xlink:href="classzero__mate_1_1arm1176jzf__s_1_1CCPU__Core.html#ae2c9e5f272fa5814e386bc2a93d79e6f" target="_top" xlink:title="Sets the PC register (r15).">
<polygon fill="white" stroke="#666666" points="631,-38.5 501,-38.5 501,-8.5 631,-8.5 631,-38.5"/>
<text text-anchor="start" x="509" y="-26.5" font-family="Helvetica,sans-Serif" font-size="10.00">zero_mate::arm1176jzf</text>
<text text-anchor="middle" x="566" y="-15.5" font-family="Helvetica,sans-Serif" font-size="10.00">_s::CCPU_Core::Set_PC</text>
</a>
</g>
</g>
<!-- Node1&#45;&gt;Node12 -->
<g id="edge13_Node000001_Node000012" class="edge">
<title>Node1&#45;&gt;Node12</title>
<g id="a_edge13_Node000001_Node000012"><a xlink:title=" ">
<path fill="none" stroke="#63b8ff" d="M719.47,-170.28C702.88,-140.13 671.11,-88.6 632,-55.5 624.13,-48.84 614.63,-43.16 605.35,-38.52"/>
<polygon fill="#63b8ff" stroke="#63b8ff" points="716.49,-172.12 724.32,-179.26 722.65,-168.8 716.49,-172.12"/>
</a>
</g>
</g>
<!-- Node7 -->
<g id="Node000007" class="node">
<title>Node7</title>
<g id="a_Node000007"><a xlink:href="classzero__mate_1_1arm1176jzf__s_1_1CCPU__Core.html#ac81ae05305c6916b7eda83abff602dcf" target="_top" xlink:title="Executes a single instruction.">
<polygon fill="white" stroke="#666666" points="464,-225.5 332,-225.5 332,-195.5 464,-195.5 464,-225.5"/>
<text text-anchor="start" x="340" y="-213.5" font-family="Helvetica,sans-Serif" font-size="10.00">zero_mate::arm1176jzf</text>
<text text-anchor="middle" x="398" y="-202.5" font-family="Helvetica,sans-Serif" font-size="10.00">_s::CCPU_Core::Execute</text>
</a>
</g>
</g>
<!-- Node6&#45;&gt;Node7 -->
<g id="edge6_Node000006_Node000007" class="edge">
<title>Node6&#45;&gt;Node7</title>
<g id="a_edge6_Node000006_Node000007"><a xlink:title=" ">
<path fill="none" stroke="#63b8ff" d="M489.89,-201.74C481.32,-202.57 472.64,-203.4 464.22,-204.21"/>
<polygon fill="#63b8ff" stroke="#63b8ff" points="490.25,-205.22 499.87,-200.78 489.58,-198.25 490.25,-205.22"/>
</a>
</g>
</g>
<!-- Node6&#45;&gt;Node8 -->
<g id="edge7_Node000006_Node000008" class="edge">
<title>Node6&#45;&gt;Node8</title>
<g id="a_edge7_Node000006_Node000008"><a xlink:title=" ">
<path fill="none" stroke="#63b8ff" d="M489.86,-177.3C480.93,-175.26 471.88,-173.18 463.13,-171.18"/>
<polygon fill="#63b8ff" stroke="#63b8ff" points="489.34,-180.77 499.87,-179.59 490.9,-173.95 489.34,-180.77"/>
</a>
</g>
</g>
<!-- Node8&#45;&gt;Node9 -->
<g id="edge8_Node000008_Node000009" class="edge">
<title>Node8&#45;&gt;Node9</title>
<g id="a_edge8_Node000008_Node000009"><a xlink:title=" ">
<path fill="none" stroke="#63b8ff" d="M322.97,-137.66C312.25,-134.93 301.34,-132.15 290.97,-129.51"/>
<polygon fill="#63b8ff" stroke="#63b8ff" points="322.18,-141.07 332.73,-140.14 323.91,-134.28 322.18,-141.07"/>
</a>
</g>
</g>
<!-- Node9&#45;&gt;Node10 -->
<g id="edge9_Node000009_Node000010" class="edge">
<title>Node9&#45;&gt;Node10</title>
<g id="a_edge9_Node000009_Node000010"><a xlink:title=" ">
<path fill="none" stroke="#63b8ff" d="M164.98,-96.66C150.39,-92.66 135.05,-88.45 120.92,-84.57"/>
<polygon fill="#63b8ff" stroke="#63b8ff" points="164.36,-100.12 174.93,-99.39 166.22,-93.37 164.36,-100.12"/>
</a>
</g>
</g>
<!-- Node11 -->
<g id="Node000011" class="node">
<title>Node11</title>
<g id="a_Node000011"><a xlink:href="classzero__mate_1_1arm1176jzf__s_1_1CCPU__Core.html#a16544e9981489e1f4a25405248e5a5c0" target="_top" xlink:title=" ">
<polygon fill="white" stroke="#666666" points="130,-132.5 0,-132.5 0,-102.5 130,-102.5 130,-132.5"/>
<text text-anchor="start" x="8" y="-120.5" font-family="Helvetica,sans-Serif" font-size="10.00">zero_mate::arm1176jzf</text>
<text text-anchor="middle" x="65" y="-109.5" font-family="Helvetica,sans-Serif" font-size="10.00">_s::CCPU_Core::Steps</text>
</a>
</g>
</g>
<!-- Node9&#45;&gt;Node11 -->
<g id="edge10_Node000009_Node000011" class="edge">
<title>Node9&#45;&gt;Node11</title>
<g id="a_edge10_Node000009_Node000011"><a xlink:title=" ">
<path fill="none" stroke="#63b8ff" d="M155.44,-115.86C147,-116.02 138.45,-116.17 130.16,-116.33"/>
<polygon fill="#63b8ff" stroke="#63b8ff" points="155.72,-119.36 165.65,-115.68 155.59,-112.36 155.72,-119.36"/>
</a>
</g>
</g>
<!-- Node13 -->
<g id="Node000013" class="node">
<title>Node13</title>
<g id="a_Node000013"><a xlink:href="classzero__mate_1_1arm1176jzf__s_1_1CCPU__Core.html#acb9dcca2bec495d4424c6183c6ac7064" target="_top" xlink:title="Resets the CPU context.">
<polygon fill="white" stroke="#666666" points="463,-41 333,-41 333,0 463,0 463,-41"/>
<text text-anchor="start" x="341" y="-29" font-family="Helvetica,sans-Serif" font-size="10.00">zero_mate::arm1176jzf</text>
<text text-anchor="start" x="341" y="-18" font-family="Helvetica,sans-Serif" font-size="10.00">_s::CCPU_Core::Reset</text>
<text text-anchor="middle" x="398" y="-7" font-family="Helvetica,sans-Serif" font-size="10.00">_Context</text>
</a>
</g>
</g>
<!-- Node12&#45;&gt;Node13 -->
<g id="edge14_Node000012_Node000013" class="edge">
<title>Node12&#45;&gt;Node13</title>
<g id="a_edge14_Node000012_Node000013"><a xlink:title=" ">
<path fill="none" stroke="#63b8ff" d="M490.53,-22.15C481.35,-21.99 472.02,-21.82 463.01,-21.66"/>
<polygon fill="#63b8ff" stroke="#63b8ff" points="490.76,-25.66 500.82,-22.34 490.88,-18.66 490.76,-25.66"/>
</a>
</g>
</g>
</g>
</svg>
