<?xml version="1.0" encoding="UTF-8" standalone="no"?>
<!DOCTYPE svg PUBLIC "-//W3C//DTD SVG 1.1//EN"
 "http://www.w3.org/Graphics/SVG/1.1/DTD/svg11.dtd">
<!-- Generated by graphviz version 2.43.0 (0)
 -->
<!-- Title: zero_mate::gui::CGPIO_Window::Render_GPIO_Pins_Table Pages: 1 -->
<svg width="491pt" height="285pt"
 viewBox="0.00 0.00 491.00 285.00" xmlns="http://www.w3.org/2000/svg" xmlns:xlink="http://www.w3.org/1999/xlink">
<g id="graph0" class="graph" transform="scale(1 1) rotate(0) translate(4 281)">
<title>zero_mate::gui::CGPIO_Window::Render_GPIO_Pins_Table</title>
<!-- Node1 -->
<g id="Node000001" class="node">
<title>Node1</title>
<g id="a_Node000001"><a xlink:title="Renders a table with all GPIO pins.">
<polygon fill="#999999" stroke="#666666" points="130,-159 0,-159 0,-118 130,-118 130,-159"/>
<text text-anchor="start" x="8" y="-147" font-family="Helvetica,sans-Serif" font-size="10.00">zero_mate::gui::CGPIO</text>
<text text-anchor="start" x="8" y="-136" font-family="Helvetica,sans-Serif" font-size="10.00">_Window::Render_GPIO</text>
<text text-anchor="middle" x="65" y="-125" font-family="Helvetica,sans-Serif" font-size="10.00">_Pins_Table</text>
</a>
</g>
</g>
<!-- Node2 -->
<g id="Node000002" class="node">
<title>Node2</title>
<g id="a_Node000002"><a xlink:href="classzero__mate_1_1gui_1_1CGPIO__Window.html#aeeb6f57b70b2367e666550cb69bd5d13" target="_top" xlink:title="Renders information about a single GPIO pin (table row).">
<polygon fill="white" stroke="#666666" points="316,-153.5 166,-153.5 166,-123.5 316,-123.5 316,-153.5"/>
<text text-anchor="start" x="174" y="-141.5" font-family="Helvetica,sans-Serif" font-size="10.00">zero_mate::gui::CGPIO</text>
<text text-anchor="middle" x="241" y="-130.5" font-family="Helvetica,sans-Serif" font-size="10.00">_Window::Render_GPIO_Pin</text>
</a>
</g>
</g>
<!-- Node1&#45;&gt;Node2 -->
<g id="edge1_Node000001_Node000002" class="edge">
<title>Node1&#45;&gt;Node2</title>
<g id="a_edge1_Node000001_Node000002"><a xlink:title=" ">
<path fill="none" stroke="#63b8ff" d="M130.3,-138.5C138.65,-138.5 147.3,-138.5 155.91,-138.5"/>
<polygon fill="#63b8ff" stroke="#63b8ff" points="155.98,-142 165.98,-138.5 155.98,-135 155.98,-142"/>
</a>
</g>
</g>
<!-- Node3 -->
<g id="Node000003" class="node">
<title>Node3</title>
<g id="a_Node000003"><a xlink:href="classzero__mate_1_1peripheral_1_1CGPIO__Manager_1_1CPin.html#acf6b92ed8408ada497c28c405af395d6" target="_top" xlink:title="Returns the current function of the pin.">
<polygon fill="white" stroke="#666666" points="482,-277 353,-277 353,-236 482,-236 482,-277"/>
<text text-anchor="start" x="361" y="-265" font-family="Helvetica,sans-Serif" font-size="10.00">zero_mate::peripheral</text>
<text text-anchor="start" x="361" y="-254" font-family="Helvetica,sans-Serif" font-size="10.00">::CGPIO_Manager::CPin</text>
<text text-anchor="middle" x="417.5" y="-243" font-family="Helvetica,sans-Serif" font-size="10.00">::Get_Function</text>
</a>
</g>
</g>
<!-- Node2&#45;&gt;Node3 -->
<g id="edge2_Node000002_Node000003" class="edge">
<title>Node2&#45;&gt;Node3</title>
<g id="a_edge2_Node000002_Node000003"><a xlink:title=" ">
<path fill="none" stroke="#63b8ff" d="M258.13,-153.81C278.73,-172.8 316.01,-205.37 352,-227.5 353.95,-228.7 355.97,-229.88 358.02,-231.04"/>
<polygon fill="#63b8ff" stroke="#63b8ff" points="356.74,-234.32 367.21,-235.95 360.04,-228.15 356.74,-234.32"/>
</a>
</g>
</g>
<!-- Node4 -->
<g id="Node000004" class="node">
<title>Node4</title>
<g id="a_Node000004"><a xlink:href="classzero__mate_1_1gui_1_1CGPIO__Window.html#a0ee3deaa24f122b1b4c9bb4fc5814953" target="_top" xlink:title="Converts an interrupt index into an enumeration along with its string representation.">
<polygon fill="white" stroke="#666666" points="483,-218 352,-218 352,-177 483,-177 483,-218"/>
<text text-anchor="start" x="360" y="-206" font-family="Helvetica,sans-Serif" font-size="10.00">zero_mate::gui::CGPIO</text>
<text text-anchor="start" x="360" y="-195" font-family="Helvetica,sans-Serif" font-size="10.00">_Window::Get_Interrupt</text>
<text text-anchor="middle" x="417.5" y="-184" font-family="Helvetica,sans-Serif" font-size="10.00">_Type_From_Idx</text>
</a>
</g>
</g>
<!-- Node2&#45;&gt;Node4 -->
<g id="edge3_Node000002_Node000004" class="edge">
<title>Node2&#45;&gt;Node4</title>
<g id="a_edge3_Node000002_Node000004"><a xlink:title=" ">
<path fill="none" stroke="#63b8ff" d="M286.49,-153.54C304.53,-159.64 325.83,-166.84 345.9,-173.63"/>
<polygon fill="#63b8ff" stroke="#63b8ff" points="345.04,-177.03 355.64,-176.92 347.28,-170.4 345.04,-177.03"/>
</a>
</g>
</g>
<!-- Node5 -->
<g id="Node000005" class="node">
<title>Node5</title>
<g id="a_Node000005"><a xlink:href="classzero__mate_1_1peripheral_1_1CGPIO__Manager_1_1CPin.html#ab910baeb4caa3129739eccf087d06dd4" target="_top" xlink:title="Returns the current state of the pin.">
<polygon fill="white" stroke="#666666" points="482,-159 353,-159 353,-118 482,-118 482,-159"/>
<text text-anchor="start" x="361" y="-147" font-family="Helvetica,sans-Serif" font-size="10.00">zero_mate::peripheral</text>
<text text-anchor="start" x="361" y="-136" font-family="Helvetica,sans-Serif" font-size="10.00">::CGPIO_Manager::CPin</text>
<text text-anchor="middle" x="417.5" y="-125" font-family="Helvetica,sans-Serif" font-size="10.00">::Get_State</text>
</a>
</g>
</g>
<!-- Node2&#45;&gt;Node5 -->
<g id="edge4_Node000002_Node000005" class="edge">
<title>Node2&#45;&gt;Node5</title>
<g id="a_edge4_Node000002_Node000005"><a xlink:title=" ">
<path fill="none" stroke="#63b8ff" d="M316,-138.5C324.82,-138.5 333.81,-138.5 342.63,-138.5"/>
<polygon fill="#63b8ff" stroke="#63b8ff" points="342.86,-142 352.86,-138.5 342.86,-135 342.86,-142"/>
</a>
</g>
</g>
<!-- Node6 -->
<g id="Node000006" class="node">
<title>Node6</title>
<g id="a_Node000006"><a xlink:href="classzero__mate_1_1peripheral_1_1CGPIO__Manager_1_1CPin.html#a0536631c62e1aa7a96404501768f31a6" target="_top" xlink:title="Checks if there is a pending interrupt on the pin.">
<polygon fill="white" stroke="#666666" points="482,-100 353,-100 353,-59 482,-59 482,-100"/>
<text text-anchor="start" x="361" y="-88" font-family="Helvetica,sans-Serif" font-size="10.00">zero_mate::peripheral</text>
<text text-anchor="start" x="361" y="-77" font-family="Helvetica,sans-Serif" font-size="10.00">::CGPIO_Manager::CPin</text>
<text text-anchor="middle" x="417.5" y="-66" font-family="Helvetica,sans-Serif" font-size="10.00">::Has_Pending_IRQ</text>
</a>
</g>
</g>
<!-- Node2&#45;&gt;Node6 -->
<g id="edge5_Node000002_Node000006" class="edge">
<title>Node2&#45;&gt;Node6</title>
<g id="a_edge5_Node000002_Node000006"><a xlink:title=" ">
<path fill="none" stroke="#63b8ff" d="M286.49,-123.46C304.53,-117.36 325.83,-110.16 345.9,-103.37"/>
<polygon fill="#63b8ff" stroke="#63b8ff" points="347.28,-106.6 355.64,-100.08 345.04,-99.97 347.28,-106.6"/>
</a>
</g>
</g>
<!-- Node7 -->
<g id="Node000007" class="node">
<title>Node7</title>
<g id="a_Node000007"><a xlink:href="classzero__mate_1_1peripheral_1_1CGPIO__Manager_1_1CPin.html#a9330f754330cb20d555969ec55c0a679" target="_top" xlink:title="Checks whether or not an interrupt is enabled on the pin.">
<polygon fill="white" stroke="#666666" points="482,-41 353,-41 353,0 482,0 482,-41"/>
<text text-anchor="start" x="361" y="-29" font-family="Helvetica,sans-Serif" font-size="10.00">zero_mate::peripheral</text>
<text text-anchor="start" x="361" y="-18" font-family="Helvetica,sans-Serif" font-size="10.00">::CGPIO_Manager::CPin</text>
<text text-anchor="middle" x="417.5" y="-7" font-family="Helvetica,sans-Serif" font-size="10.00">::Is_Interrupt_Enabled</text>
</a>
</g>
</g>
<!-- Node2&#45;&gt;Node7 -->
<g id="edge6_Node000002_Node000007" class="edge">
<title>Node2&#45;&gt;Node7</title>
<g id="a_edge6_Node000002_Node000007"><a xlink:title=" ">
<path fill="none" stroke="#63b8ff" d="M258.21,-123.45C278.88,-104.77 316.25,-72.67 352,-50.5 354.59,-48.89 357.29,-47.32 360.04,-45.78"/>
<polygon fill="#63b8ff" stroke="#63b8ff" points="361.78,-48.81 368.96,-41.02 358.49,-42.64 361.78,-48.81"/>
</a>
</g>
</g>
</g>
</svg>
