<?xml version="1.0" encoding="UTF-8" standalone="no"?>
<!DOCTYPE svg PUBLIC "-//W3C//DTD SVG 1.1//EN"
 "http://www.w3.org/Graphics/SVG/1.1/DTD/svg11.dtd">
<!-- Generated by graphviz version 2.43.0 (0)
 -->
<!-- Title: zero_mate::arm1176jzf_s::mmu::CPage_Entry::Get_Access_Privileges Pages: 1 -->
<svg width="704pt" height="49pt"
 viewBox="0.00 0.00 704.00 49.00" xmlns="http://www.w3.org/2000/svg" xmlns:xlink="http://www.w3.org/1999/xlink">
<g id="graph0" class="graph" transform="scale(1 1) rotate(0) translate(4 45)">
<title>zero_mate::arm1176jzf_s::mmu::CPage_Entry::Get_Access_Privileges</title>
<!-- Node1 -->
<g id="Node000001" class="node">
<title>Node1</title>
<g id="a_Node000001"><a xlink:title="Returns page access privileges.">
<polygon fill="#999999" stroke="#666666" points="696,-41 564,-41 564,0 696,0 696,-41"/>
<text text-anchor="start" x="572" y="-29" font-family="Helvetica,sans-Serif" font-size="10.00">zero_mate::arm1176jzf</text>
<text text-anchor="start" x="572" y="-18" font-family="Helvetica,sans-Serif" font-size="10.00">_s::mmu::CPage_Entry</text>
<text text-anchor="middle" x="630" y="-7" font-family="Helvetica,sans-Serif" font-size="10.00">::Get_Access_Privileges</text>
</a>
</g>
</g>
<!-- Node2 -->
<g id="Node000002" class="node">
<title>Node2</title>
<g id="a_Node000002"><a xlink:href="classzero__mate_1_1arm1176jzf__s_1_1mmu_1_1CMMU.html#a0e32ece3d5ac208c69fa5573fcea3205" target="_top" xlink:title="Verifies access privileges when accessing a page (virtual address).">
<polygon fill="white" stroke="#666666" points="528,-41 397,-41 397,0 528,0 528,-41"/>
<text text-anchor="start" x="405" y="-29" font-family="Helvetica,sans-Serif" font-size="10.00">zero_mate::arm1176jzf</text>
<text text-anchor="start" x="405" y="-18" font-family="Helvetica,sans-Serif" font-size="10.00">_s::mmu::CMMU::Verify</text>
<text text-anchor="middle" x="462.5" y="-7" font-family="Helvetica,sans-Serif" font-size="10.00">_Access_Privileges</text>
</a>
</g>
</g>
<!-- Node1&#45;&gt;Node2 -->
<g id="edge1_Node000001_Node000002" class="edge">
<title>Node1&#45;&gt;Node2</title>
<g id="a_edge1_Node000001_Node000002"><a xlink:title=" ">
<path fill="none" stroke="#63b8ff" d="M553.39,-20.5C544.96,-20.5 536.44,-20.5 528.16,-20.5"/>
<polygon fill="#63b8ff" stroke="#63b8ff" points="553.59,-24 563.59,-20.5 553.59,-17 553.59,-24"/>
</a>
</g>
</g>
<!-- Node3 -->
<g id="Node000003" class="node">
<title>Node3</title>
<g id="a_Node000003"><a xlink:href="classzero__mate_1_1arm1176jzf__s_1_1mmu_1_1CMMU.html#ab1413e798b9ac2d3bcdf521e7dfe7bdf" target="_top" xlink:title="Verifies page access (calls a chain of functions that validate the access).">
<polygon fill="white" stroke="#666666" points="361,-41 230,-41 230,0 361,0 361,-41"/>
<text text-anchor="start" x="238" y="-29" font-family="Helvetica,sans-Serif" font-size="10.00">zero_mate::arm1176jzf</text>
<text text-anchor="start" x="238" y="-18" font-family="Helvetica,sans-Serif" font-size="10.00">_s::mmu::CMMU::Verify</text>
<text text-anchor="middle" x="295.5" y="-7" font-family="Helvetica,sans-Serif" font-size="10.00">_Access</text>
</a>
</g>
</g>
<!-- Node2&#45;&gt;Node3 -->
<g id="edge2_Node000002_Node000003" class="edge">
<title>Node2&#45;&gt;Node3</title>
<g id="a_edge2_Node000002_Node000003"><a xlink:title=" ">
<path fill="none" stroke="#63b8ff" d="M386.76,-20.5C378.18,-20.5 369.48,-20.5 361.05,-20.5"/>
<polygon fill="#63b8ff" stroke="#63b8ff" points="386.76,-24 396.76,-20.5 386.76,-17 386.76,-24"/>
</a>
</g>
</g>
<!-- Node4 -->
<g id="Node000004" class="node">
<title>Node4</title>
<g id="a_Node000004"><a xlink:href="classzero__mate_1_1arm1176jzf__s_1_1mmu_1_1CMMU.html#a7bc1002a8f1032547deee07589cbbb84" target="_top" xlink:title="Converts a given virtual address into a physical address.">
<polygon fill="white" stroke="#666666" points="194,-35.5 0,-35.5 0,-5.5 194,-5.5 194,-35.5"/>
<text text-anchor="start" x="8" y="-23.5" font-family="Helvetica,sans-Serif" font-size="10.00">zero_mate::arm1176jzf</text>
<text text-anchor="middle" x="97" y="-12.5" font-family="Helvetica,sans-Serif" font-size="10.00">_s::mmu::CMMU::Get_Physical_Addr</text>
</a>
</g>
</g>
<!-- Node3&#45;&gt;Node4 -->
<g id="edge3_Node000003_Node000004" class="edge">
<title>Node3&#45;&gt;Node4</title>
<g id="a_edge3_Node000003_Node000004"><a xlink:title=" ">
<path fill="none" stroke="#63b8ff" d="M219.84,-20.5C211.49,-20.5 202.89,-20.5 194.32,-20.5"/>
<polygon fill="#63b8ff" stroke="#63b8ff" points="219.89,-24 229.89,-20.5 219.89,-17 219.89,-24"/>
</a>
</g>
</g>
</g>
</svg>
