<?xml version="1.0" encoding="UTF-8" standalone="no"?>
<!DOCTYPE svg PUBLIC "-//W3C//DTD SVG 1.1//EN"
 "http://www.w3.org/Graphics/SVG/1.1/DTD/svg11.dtd">
<!-- Generated by graphviz version 2.43.0 (0)
 -->
<!-- Title: zero_mate::arm1176jzf_s::CCPU_Core::Convert_Virtual_Addr_To_Physical_Addr Pages: 1 -->
<svg width="345pt" height="86pt"
 viewBox="0.00 0.00 345.00 86.00" xmlns="http://www.w3.org/2000/svg" xmlns:xlink="http://www.w3.org/1999/xlink">
<g id="graph0" class="graph" transform="scale(1 1) rotate(0) translate(4 82)">
<title>zero_mate::arm1176jzf_s::CCPU_Core::Convert_Virtual_Addr_To_Physical_Addr</title>
<!-- Node1 -->
<g id="Node000001" class="node">
<title>Node1</title>
<g id="a_Node000001"><a xlink:title="Converts a given virtual address into a physical address using the MMU.">
<polygon fill="#999999" stroke="#666666" points="337,-59.5 166,-59.5 166,-18.5 337,-18.5 337,-59.5"/>
<text text-anchor="start" x="174" y="-47.5" font-family="Helvetica,sans-Serif" font-size="10.00">zero_mate::arm1176jzf</text>
<text text-anchor="start" x="174" y="-36.5" font-family="Helvetica,sans-Serif" font-size="10.00">_s::CCPU_Core::Convert</text>
<text text-anchor="middle" x="251.5" y="-25.5" font-family="Helvetica,sans-Serif" font-size="10.00">_Virtual_Addr_To_Physical_Addr</text>
</a>
</g>
</g>
<!-- Node2 -->
<g id="Node000002" class="node">
<title>Node2</title>
<g id="a_Node000002"><a xlink:href="classzero__mate_1_1arm1176jzf__s_1_1CCPU__Core.html#a6089b52dce3c9ef88962236807c6c071" target="_top" xlink:title="Reads data from the bus.">
<polygon fill="white" stroke="#666666" points="130,-78 0,-78 0,-48 130,-48 130,-78"/>
<text text-anchor="start" x="8" y="-66" font-family="Helvetica,sans-Serif" font-size="10.00">zero_mate::arm1176jzf</text>
<text text-anchor="middle" x="65" y="-55" font-family="Helvetica,sans-Serif" font-size="10.00">_s::CCPU_Core::Read</text>
</a>
</g>
</g>
<!-- Node1&#45;&gt;Node2 -->
<g id="edge1_Node000001_Node000002" class="edge">
<title>Node1&#45;&gt;Node2</title>
<g id="a_edge1_Node000001_Node000002"><a xlink:title=" ">
<path fill="none" stroke="#63b8ff" d="M155.64,-51.34C146.97,-52.47 138.33,-53.59 130.03,-54.67"/>
<polygon fill="#63b8ff" stroke="#63b8ff" points="156.34,-54.78 165.81,-50.02 155.44,-47.84 156.34,-54.78"/>
</a>
</g>
</g>
<!-- Node3 -->
<g id="Node000003" class="node">
<title>Node3</title>
<g id="a_Node000003"><a xlink:href="classzero__mate_1_1arm1176jzf__s_1_1CCPU__Core.html#a4e94818c05fb1ddd0a08762eb06e629d" target="_top" xlink:title="Writes data to the bus.">
<polygon fill="white" stroke="#666666" points="130,-30 0,-30 0,0 130,0 130,-30"/>
<text text-anchor="start" x="8" y="-18" font-family="Helvetica,sans-Serif" font-size="10.00">zero_mate::arm1176jzf</text>
<text text-anchor="middle" x="65" y="-7" font-family="Helvetica,sans-Serif" font-size="10.00">_s::CCPU_Core::Write</text>
</a>
</g>
</g>
<!-- Node1&#45;&gt;Node3 -->
<g id="edge2_Node000001_Node000003" class="edge">
<title>Node1&#45;&gt;Node3</title>
<g id="a_edge2_Node000001_Node000003"><a xlink:title=" ">
<path fill="none" stroke="#63b8ff" d="M155.64,-26.66C146.97,-25.53 138.33,-24.41 130.03,-23.33"/>
<polygon fill="#63b8ff" stroke="#63b8ff" points="155.44,-30.16 165.81,-27.98 156.34,-23.22 155.44,-30.16"/>
</a>
</g>
</g>
</g>
</svg>
