<?xml version="1.0" encoding="UTF-8" standalone="no"?>
<!DOCTYPE svg PUBLIC "-//W3C//DTD SVG 1.1//EN"
 "http://www.w3.org/Graphics/SVG/1.1/DTD/svg11.dtd">
<!-- Generated by graphviz version 2.43.0 (0)
 -->
<!-- Title: zero_mate::gui::CSource_Code_Window::Render_Code_Block Pages: 1 -->
<svg width="892pt" height="254pt"
 viewBox="0.00 0.00 892.00 254.00" xmlns="http://www.w3.org/2000/svg" xmlns:xlink="http://www.w3.org/1999/xlink">
<g id="graph0" class="graph" transform="scale(1 1) rotate(0) translate(4 250)">
<title>zero_mate::gui::CSource_Code_Window::Render_Code_Block</title>
<!-- Node1 -->
<g id="Node000001" class="node">
<title>Node1</title>
<g id="a_Node000001"><a xlink:title="Renders a block of code (a single function/method).">
<polygon fill="#999999" stroke="#666666" points="193,-138 0,-138 0,-108 193,-108 193,-138"/>
<text text-anchor="start" x="8" y="-126" font-family="Helvetica,sans-Serif" font-size="10.00">zero_mate::gui::CSource</text>
<text text-anchor="middle" x="96.5" y="-115" font-family="Helvetica,sans-Serif" font-size="10.00">_Code_Window::Render_Code_Block</text>
</a>
</g>
</g>
<!-- Node2 -->
<g id="Node000002" class="node">
<title>Node2</title>
<g id="a_Node000002"><a xlink:href="namespacezero__mate_1_1gui_1_1color.html#a60970f5b5a08721617863b63cc7cc292" target="_top" xlink:title="Assigns a string its corresponding color based on its hash value.">
<polygon fill="white" stroke="#666666" points="403.5,-246 257.5,-246 257.5,-216 403.5,-216 403.5,-246"/>
<text text-anchor="start" x="265.5" y="-234" font-family="Helvetica,sans-Serif" font-size="10.00">zero_mate::gui::color</text>
<text text-anchor="middle" x="330.5" y="-223" font-family="Helvetica,sans-Serif" font-size="10.00">::Assign_Color_From_Hash</text>
</a>
</g>
</g>
<!-- Node1&#45;&gt;Node2 -->
<g id="edge1_Node000001_Node000002" class="edge">
<title>Node1&#45;&gt;Node2</title>
<g id="a_edge1_Node000001_Node000002"><a xlink:title=" ">
<path fill="none" stroke="#63b8ff" d="M116.83,-138.32C141.49,-157.13 186.11,-188.79 229,-207 234.91,-209.51 241.12,-211.78 247.45,-213.84"/>
<polygon fill="#63b8ff" stroke="#63b8ff" points="246.87,-217.32 257.45,-216.9 248.91,-210.63 246.87,-217.32"/>
</a>
</g>
</g>
<!-- Node3 -->
<g id="Node000003" class="node">
<title>Node3</title>
<g id="a_Node000003"><a xlink:href="classzero__mate_1_1gui_1_1CSource__Code__Window.html#a8ab01667cca3406c621027962c2d22bd" target="_top" xlink:title="Extracts the class name from a given label (function name).">
<polygon fill="white" stroke="#666666" points="398,-197.5 263,-197.5 263,-156.5 398,-156.5 398,-197.5"/>
<text text-anchor="start" x="271" y="-185.5" font-family="Helvetica,sans-Serif" font-size="10.00">zero_mate::gui::CSource</text>
<text text-anchor="start" x="271" y="-174.5" font-family="Helvetica,sans-Serif" font-size="10.00">_Code_Window::Extract</text>
<text text-anchor="middle" x="330.5" y="-163.5" font-family="Helvetica,sans-Serif" font-size="10.00">_Class_Name</text>
</a>
</g>
</g>
<!-- Node1&#45;&gt;Node3 -->
<g id="edge2_Node000001_Node000003" class="edge">
<title>Node1&#45;&gt;Node3</title>
<g id="a_edge2_Node000001_Node000003"><a xlink:title=" ">
<path fill="none" stroke="#63b8ff" d="M162.12,-138.04C190.31,-144.6 223.57,-152.34 252.98,-159.19"/>
<polygon fill="#63b8ff" stroke="#63b8ff" points="252.27,-162.62 262.8,-161.47 253.85,-155.8 252.27,-162.62"/>
</a>
</g>
</g>
<!-- Node4 -->
<g id="Node000004" class="node">
<title>Node4</title>
<g id="a_Node000004"><a xlink:href="classzero__mate_1_1gui_1_1CSource__Code__Window.html#ad8c35af3bc3c8881eeca1de82afc6b35" target="_top" xlink:title="Renders a table that containing disassembled instructions.">
<polygon fill="white" stroke="#666666" points="426,-138 235,-138 235,-108 426,-108 426,-138"/>
<text text-anchor="start" x="243" y="-126" font-family="Helvetica,sans-Serif" font-size="10.00">zero_mate::gui::CSource</text>
<text text-anchor="middle" x="330.5" y="-115" font-family="Helvetica,sans-Serif" font-size="10.00">_Code_Window::Render_Code_Table</text>
</a>
</g>
</g>
<!-- Node1&#45;&gt;Node4 -->
<g id="edge3_Node000001_Node000004" class="edge">
<title>Node1&#45;&gt;Node4</title>
<g id="a_edge3_Node000001_Node000004"><a xlink:title=" ">
<path fill="none" stroke="#63b8ff" d="M193.2,-123C203.61,-123 214.24,-123 224.74,-123"/>
<polygon fill="#63b8ff" stroke="#63b8ff" points="224.77,-126.5 234.77,-123 224.77,-119.5 224.77,-126.5"/>
</a>
</g>
</g>
<!-- Node8 -->
<g id="Node000008" class="node">
<title>Node8</title>
<g id="a_Node000008"><a xlink:href="classzero__mate_1_1gui_1_1CSource__Code__Window.html#ad485f4213e9fff6ac5327683e2e6abc7" target="_top" xlink:title="Checks if the block of code which is currently being rendered should be highlighted or not.">
<polygon fill="white" stroke="#666666" points="410,-89.5 251,-89.5 251,-48.5 410,-48.5 410,-89.5"/>
<text text-anchor="start" x="259" y="-77.5" font-family="Helvetica,sans-Serif" font-size="10.00">zero_mate::gui::CSource</text>
<text text-anchor="start" x="259" y="-66.5" font-family="Helvetica,sans-Serif" font-size="10.00">_Code_Window::Should_Code</text>
<text text-anchor="middle" x="330.5" y="-55.5" font-family="Helvetica,sans-Serif" font-size="10.00">_Block_Be_Highlighted</text>
</a>
</g>
</g>
<!-- Node1&#45;&gt;Node8 -->
<g id="edge7_Node000001_Node000008" class="edge">
<title>Node1&#45;&gt;Node8</title>
<g id="a_edge7_Node000001_Node000008"><a xlink:title=" ">
<path fill="none" stroke="#63b8ff" d="M162.12,-107.96C186.5,-102.29 214.66,-95.73 240.85,-89.63"/>
<polygon fill="#63b8ff" stroke="#63b8ff" points="241.83,-93 250.78,-87.32 240.25,-86.18 241.83,-93"/>
</a>
</g>
</g>
<!-- Node9 -->
<g id="Node000009" class="node">
<title>Node9</title>
<g id="a_Node000009"><a xlink:href="classzero__mate_1_1gui_1_1CSource__Code__Window.html#a0fa8c26175b9585a867f343c1148d258" target="_top" xlink:title="Skips a block of code (function) which is collapsed and therefore not visible to the user.">
<polygon fill="white" stroke="#666666" points="432,-30 229,-30 229,0 432,0 432,-30"/>
<text text-anchor="start" x="237" y="-18" font-family="Helvetica,sans-Serif" font-size="10.00">zero_mate::gui::CSource</text>
<text text-anchor="middle" x="330.5" y="-7" font-family="Helvetica,sans-Serif" font-size="10.00">_Code_Window::Skip_Collapsed_Block</text>
</a>
</g>
</g>
<!-- Node1&#45;&gt;Node9 -->
<g id="edge8_Node000001_Node000009" class="edge">
<title>Node1&#45;&gt;Node9</title>
<g id="a_edge8_Node000001_Node000009"><a xlink:title=" ">
<path fill="none" stroke="#63b8ff" d="M116.83,-107.68C141.49,-88.87 186.11,-57.21 229,-39 234.01,-36.88 239.23,-34.92 244.56,-33.12"/>
<polygon fill="#63b8ff" stroke="#63b8ff" points="245.77,-36.41 254.24,-30.04 243.65,-29.73 245.77,-36.41"/>
</a>
</g>
</g>
<!-- Node5 -->
<g id="Node000005" class="node">
<title>Node5</title>
<g id="a_Node000005"><a xlink:href="classzero__mate_1_1gui_1_1CSource__Code__Window.html#a92af51ccb5ebca752cddaac27c38f1f8" target="_top" xlink:title="Renders the body of a source code table.">
<polygon fill="white" stroke="#666666" points="659,-165 468,-165 468,-135 659,-135 659,-165"/>
<text text-anchor="start" x="476" y="-153" font-family="Helvetica,sans-Serif" font-size="10.00">zero_mate::gui::CSource</text>
<text text-anchor="middle" x="563.5" y="-142" font-family="Helvetica,sans-Serif" font-size="10.00">_Code_Window::Render_Table_Body</text>
</a>
</g>
</g>
<!-- Node4&#45;&gt;Node5 -->
<g id="edge4_Node000004_Node000005" class="edge">
<title>Node4&#45;&gt;Node5</title>
<g id="a_edge4_Node000004_Node000005"><a xlink:title=" ">
<path fill="none" stroke="#63b8ff" d="M426.12,-134.06C436.51,-135.27 447.13,-136.52 457.63,-137.74"/>
<polygon fill="#63b8ff" stroke="#63b8ff" points="457.31,-141.23 467.65,-138.91 458.12,-134.28 457.31,-141.23"/>
</a>
</g>
</g>
<!-- Node7 -->
<g id="Node000007" class="node">
<title>Node7</title>
<g id="a_Node000007"><a xlink:href="classzero__mate_1_1gui_1_1CSource__Code__Window.html#aa46c591d1c9bb994ccee55d371919e37" target="_top" xlink:title="Renders table headings (breakpoint, address, opcode, disassembly)">
<polygon fill="white" stroke="#666666" points="644,-116.5 483,-116.5 483,-75.5 644,-75.5 644,-116.5"/>
<text text-anchor="start" x="491" y="-104.5" font-family="Helvetica,sans-Serif" font-size="10.00">zero_mate::gui::CSource</text>
<text text-anchor="start" x="491" y="-93.5" font-family="Helvetica,sans-Serif" font-size="10.00">_Code_Window::Render_Table</text>
<text text-anchor="middle" x="563.5" y="-82.5" font-family="Helvetica,sans-Serif" font-size="10.00">_Headings</text>
</a>
</g>
</g>
<!-- Node4&#45;&gt;Node7 -->
<g id="edge6_Node000004_Node000007" class="edge">
<title>Node4&#45;&gt;Node7</title>
<g id="a_edge6_Node000004_Node000007"><a xlink:title=" ">
<path fill="none" stroke="#63b8ff" d="M426.12,-111.94C441.56,-110.14 457.5,-108.27 472.81,-106.48"/>
<polygon fill="#63b8ff" stroke="#63b8ff" points="473.25,-109.96 482.77,-105.32 472.43,-103 473.25,-109.96"/>
</a>
</g>
</g>
<!-- Node6 -->
<g id="Node000006" class="node">
<title>Node6</title>
<g id="a_Node000006"><a xlink:href="classzero__mate_1_1gui_1_1CSource__Code__Window.html#a854994af8a4bb90df17e2e24c8d7a3a5" target="_top" xlink:title="Renders a single breakpoint.">
<polygon fill="white" stroke="#666666" points="884,-165 695,-165 695,-135 884,-135 884,-165"/>
<text text-anchor="start" x="703" y="-153" font-family="Helvetica,sans-Serif" font-size="10.00">zero_mate::gui::CSource</text>
<text text-anchor="middle" x="789.5" y="-142" font-family="Helvetica,sans-Serif" font-size="10.00">_Code_Window::Render_Breakpoint</text>
</a>
</g>
</g>
<!-- Node5&#45;&gt;Node6 -->
<g id="edge5_Node000005_Node000006" class="edge">
<title>Node5&#45;&gt;Node6</title>
<g id="a_edge5_Node000005_Node000006"><a xlink:title=" ">
<path fill="none" stroke="#63b8ff" d="M659.17,-150C667.67,-150 676.3,-150 684.87,-150"/>
<polygon fill="#63b8ff" stroke="#63b8ff" points="684.88,-153.5 694.88,-150 684.88,-146.5 684.88,-153.5"/>
</a>
</g>
</g>
</g>
</svg>
