<?xml version="1.0" encoding="UTF-8" standalone="no"?>
<!DOCTYPE svg PUBLIC "-//W3C//DTD SVG 1.1//EN"
 "http://www.w3.org/Graphics/SVG/1.1/DTD/svg11.dtd">
<!-- Generated by graphviz version 2.43.0 (0)
 -->
<!-- Title: zero_mate::peripheral::CRAM::CRAM Pages: 1 -->
<svg width="452pt" height="86pt"
 viewBox="0.00 0.00 452.00 86.00" xmlns="http://www.w3.org/2000/svg" xmlns:xlink="http://www.w3.org/1999/xlink">
<g id="graph0" class="graph" transform="scale(1 1) rotate(0) translate(4 82)">
<title>zero_mate::peripheral::CRAM::CRAM</title>
<!-- Node1 -->
<g id="Node000001" class="node">
<title>Node1</title>
<g id="a_Node000001"><a xlink:title="Creates an instance of the class.">
<polygon fill="#999999" stroke="#666666" points="124,-54 0,-54 0,-24 124,-24 124,-54"/>
<text text-anchor="start" x="8" y="-42" font-family="Helvetica,sans-Serif" font-size="10.00">zero_mate::peripheral</text>
<text text-anchor="middle" x="62" y="-31" font-family="Helvetica,sans-Serif" font-size="10.00">::CRAM::CRAM</text>
</a>
</g>
</g>
<!-- Node2 -->
<g id="Node000002" class="node">
<title>Node2</title>
<g id="a_Node000002"><a xlink:href="classzero__mate_1_1peripheral_1_1CRAM.html#ab231821e251900b34a6a8beddb6b90a5" target="_top" xlink:title="Initializes the RAM.">
<polygon fill="white" stroke="#666666" points="284,-78 160,-78 160,-48 284,-48 284,-78"/>
<text text-anchor="start" x="168" y="-66" font-family="Helvetica,sans-Serif" font-size="10.00">zero_mate::peripheral</text>
<text text-anchor="middle" x="222" y="-55" font-family="Helvetica,sans-Serif" font-size="10.00">::CRAM::Init</text>
</a>
</g>
</g>
<!-- Node1&#45;&gt;Node2 -->
<g id="edge1_Node000001_Node000002" class="edge">
<title>Node1&#45;&gt;Node2</title>
<g id="a_edge1_Node000001_Node000002"><a xlink:title=" ">
<path fill="none" stroke="#63b8ff" d="M124.09,-48.28C132.51,-49.56 141.23,-50.88 149.81,-52.19"/>
<polygon fill="#63b8ff" stroke="#63b8ff" points="149.4,-55.66 159.82,-53.71 150.45,-48.74 149.4,-55.66"/>
</a>
</g>
</g>
<!-- Node4 -->
<g id="Node000004" class="node">
<title>Node4</title>
<g id="a_Node000004"><a xlink:href="classzero__mate_1_1peripheral_1_1CRAM.html#ae61301f586d6e9c233951576d9005c17" target="_top" xlink:title="Writes data to the peripheral (IPeripheral interface).">
<polygon fill="white" stroke="#666666" points="284,-30 160,-30 160,0 284,0 284,-30"/>
<text text-anchor="start" x="168" y="-18" font-family="Helvetica,sans-Serif" font-size="10.00">zero_mate::peripheral</text>
<text text-anchor="middle" x="222" y="-7" font-family="Helvetica,sans-Serif" font-size="10.00">::CRAM::Write</text>
</a>
</g>
</g>
<!-- Node1&#45;&gt;Node4 -->
<g id="edge3_Node000001_Node000004" class="edge">
<title>Node1&#45;&gt;Node4</title>
<g id="a_edge3_Node000001_Node000004"><a xlink:title=" ">
<path fill="none" stroke="#63b8ff" d="M124.09,-29.72C132.51,-28.44 141.23,-27.12 149.81,-25.81"/>
<polygon fill="#63b8ff" stroke="#63b8ff" points="150.45,-29.26 159.82,-24.29 149.4,-22.34 150.45,-29.26"/>
</a>
</g>
</g>
<!-- Node3 -->
<g id="Node000003" class="node">
<title>Node3</title>
<g id="a_Node000003"><a xlink:href="classzero__mate_1_1peripheral_1_1CRAM.html#a945ad7d05b3e0dcfc3f09dd66b819c4f" target="_top" xlink:title="Resets/re&#45;initializes the RAM (IPeripheral interface).">
<polygon fill="white" stroke="#666666" points="444,-78 320,-78 320,-48 444,-48 444,-78"/>
<text text-anchor="start" x="328" y="-66" font-family="Helvetica,sans-Serif" font-size="10.00">zero_mate::peripheral</text>
<text text-anchor="middle" x="382" y="-55" font-family="Helvetica,sans-Serif" font-size="10.00">::CRAM::Reset</text>
</a>
</g>
</g>
<!-- Node2&#45;&gt;Node3 -->
<g id="edge2_Node000002_Node000003" class="edge">
<title>Node2&#45;&gt;Node3</title>
<g id="a_edge2_Node000002_Node000003"><a xlink:title=" ">
<path fill="none" stroke="#63b8ff" d="M284.09,-63C292.51,-63 301.23,-63 309.81,-63"/>
<polygon fill="#63b8ff" stroke="#63b8ff" points="309.82,-66.5 319.82,-63 309.82,-59.5 309.82,-66.5"/>
</a>
</g>
</g>
</g>
</svg>
