<?xml version="1.0" encoding="UTF-8" standalone="no"?>
<!DOCTYPE svg PUBLIC "-//W3C//DTD SVG 1.1//EN"
 "http://www.w3.org/Graphics/SVG/1.1/DTD/svg11.dtd">
<!-- Generated by graphviz version 2.43.0 (0)
 -->
<!-- Title: zero_mate::gui::CSource_Code_Window::Render_Source_Codes Pages: 1 -->
<svg width="1320pt" height="254pt"
 viewBox="0.00 0.00 1320.00 254.00" xmlns="http://www.w3.org/2000/svg" xmlns:xlink="http://www.w3.org/1999/xlink">
<g id="graph0" class="graph" transform="scale(1 1) rotate(0) translate(4 250)">
<title>zero_mate::gui::CSource_Code_Window::Render_Source_Codes</title>
<!-- Node1 -->
<g id="Node000001" class="node">
<title>Node1</title>
<g id="a_Node000001"><a xlink:title="Renders the disassembled contents of all ELF loaded into the emulator.">
<polygon fill="#999999" stroke="#666666" points="204,-138 0,-138 0,-108 204,-108 204,-138"/>
<text text-anchor="start" x="8" y="-126" font-family="Helvetica,sans-Serif" font-size="10.00">zero_mate::gui::CSource</text>
<text text-anchor="middle" x="102" y="-115" font-family="Helvetica,sans-Serif" font-size="10.00">_Code_Window::Render_Source_Codes</text>
</a>
</g>
</g>
<!-- Node2 -->
<g id="Node000002" class="node">
<title>Node2</title>
<g id="a_Node000002"><a xlink:href="classzero__mate_1_1gui_1_1CSource__Code__Window.html#a2088711954d53ac5f57e4a085770590f" target="_top" xlink:title="Renders a single tab (ELF source file).">
<polygon fill="white" stroke="#666666" points="392,-138 240,-138 240,-108 392,-108 392,-138"/>
<text text-anchor="start" x="248" y="-126" font-family="Helvetica,sans-Serif" font-size="10.00">zero_mate::gui::CSource</text>
<text text-anchor="middle" x="316" y="-115" font-family="Helvetica,sans-Serif" font-size="10.00">_Code_Window::Render_Tab</text>
</a>
</g>
</g>
<!-- Node1&#45;&gt;Node2 -->
<g id="edge1_Node000001_Node000002" class="edge">
<title>Node1&#45;&gt;Node2</title>
<g id="a_edge1_Node000001_Node000002"><a xlink:title=" ">
<path fill="none" stroke="#63b8ff" d="M204.03,-123C212.6,-123 221.21,-123 229.64,-123"/>
<polygon fill="#63b8ff" stroke="#63b8ff" points="229.82,-126.5 239.82,-123 229.82,-119.5 229.82,-126.5"/>
</a>
</g>
</g>
<!-- Node3 -->
<g id="Node000003" class="node">
<title>Node3</title>
<g id="a_Node000003"><a xlink:href="classzero__mate_1_1gui_1_1CSource__Code__Window.html#af9afd629a519bacd1ce89faf8bbcdb9c" target="_top" xlink:title="Renders a block of code (a single function/method).">
<polygon fill="white" stroke="#666666" points="621,-138 428,-138 428,-108 621,-108 621,-138"/>
<text text-anchor="start" x="436" y="-126" font-family="Helvetica,sans-Serif" font-size="10.00">zero_mate::gui::CSource</text>
<text text-anchor="middle" x="524.5" y="-115" font-family="Helvetica,sans-Serif" font-size="10.00">_Code_Window::Render_Code_Block</text>
</a>
</g>
</g>
<!-- Node2&#45;&gt;Node3 -->
<g id="edge2_Node000002_Node000003" class="edge">
<title>Node2&#45;&gt;Node3</title>
<g id="a_edge2_Node000002_Node000003"><a xlink:title=" ">
<path fill="none" stroke="#63b8ff" d="M392.14,-123C400.51,-123 409.15,-123 417.81,-123"/>
<polygon fill="#63b8ff" stroke="#63b8ff" points="417.97,-126.5 427.97,-123 417.97,-119.5 417.97,-126.5"/>
</a>
</g>
</g>
<!-- Node4 -->
<g id="Node000004" class="node">
<title>Node4</title>
<g id="a_Node000004"><a xlink:href="namespacezero__mate_1_1gui_1_1color.html#a60970f5b5a08721617863b63cc7cc292" target="_top" xlink:title="Assigns a string its corresponding color based on its hash value.">
<polygon fill="white" stroke="#666666" points="831.5,-246 685.5,-246 685.5,-216 831.5,-216 831.5,-246"/>
<text text-anchor="start" x="693.5" y="-234" font-family="Helvetica,sans-Serif" font-size="10.00">zero_mate::gui::color</text>
<text text-anchor="middle" x="758.5" y="-223" font-family="Helvetica,sans-Serif" font-size="10.00">::Assign_Color_From_Hash</text>
</a>
</g>
</g>
<!-- Node3&#45;&gt;Node4 -->
<g id="edge3_Node000003_Node000004" class="edge">
<title>Node3&#45;&gt;Node4</title>
<g id="a_edge3_Node000003_Node000004"><a xlink:title=" ">
<path fill="none" stroke="#63b8ff" d="M544.83,-138.32C569.49,-157.13 614.11,-188.79 657,-207 662.91,-209.51 669.12,-211.78 675.45,-213.84"/>
<polygon fill="#63b8ff" stroke="#63b8ff" points="674.87,-217.32 685.45,-216.9 676.91,-210.63 674.87,-217.32"/>
</a>
</g>
</g>
<!-- Node5 -->
<g id="Node000005" class="node">
<title>Node5</title>
<g id="a_Node000005"><a xlink:href="classzero__mate_1_1gui_1_1CSource__Code__Window.html#a8ab01667cca3406c621027962c2d22bd" target="_top" xlink:title="Extracts the class name from a given label (function name).">
<polygon fill="white" stroke="#666666" points="826,-197.5 691,-197.5 691,-156.5 826,-156.5 826,-197.5"/>
<text text-anchor="start" x="699" y="-185.5" font-family="Helvetica,sans-Serif" font-size="10.00">zero_mate::gui::CSource</text>
<text text-anchor="start" x="699" y="-174.5" font-family="Helvetica,sans-Serif" font-size="10.00">_Code_Window::Extract</text>
<text text-anchor="middle" x="758.5" y="-163.5" font-family="Helvetica,sans-Serif" font-size="10.00">_Class_Name</text>
</a>
</g>
</g>
<!-- Node3&#45;&gt;Node5 -->
<g id="edge4_Node000003_Node000005" class="edge">
<title>Node3&#45;&gt;Node5</title>
<g id="a_edge4_Node000003_Node000005"><a xlink:title=" ">
<path fill="none" stroke="#63b8ff" d="M590.12,-138.04C618.31,-144.6 651.57,-152.34 680.98,-159.19"/>
<polygon fill="#63b8ff" stroke="#63b8ff" points="680.27,-162.62 690.8,-161.47 681.85,-155.8 680.27,-162.62"/>
</a>
</g>
</g>
<!-- Node6 -->
<g id="Node000006" class="node">
<title>Node6</title>
<g id="a_Node000006"><a xlink:href="classzero__mate_1_1gui_1_1CSource__Code__Window.html#ad8c35af3bc3c8881eeca1de82afc6b35" target="_top" xlink:title="Renders a table that containing disassembled instructions.">
<polygon fill="white" stroke="#666666" points="854,-138 663,-138 663,-108 854,-108 854,-138"/>
<text text-anchor="start" x="671" y="-126" font-family="Helvetica,sans-Serif" font-size="10.00">zero_mate::gui::CSource</text>
<text text-anchor="middle" x="758.5" y="-115" font-family="Helvetica,sans-Serif" font-size="10.00">_Code_Window::Render_Code_Table</text>
</a>
</g>
</g>
<!-- Node3&#45;&gt;Node6 -->
<g id="edge5_Node000003_Node000006" class="edge">
<title>Node3&#45;&gt;Node6</title>
<g id="a_edge5_Node000003_Node000006"><a xlink:title=" ">
<path fill="none" stroke="#63b8ff" d="M621.2,-123C631.61,-123 642.24,-123 652.74,-123"/>
<polygon fill="#63b8ff" stroke="#63b8ff" points="652.77,-126.5 662.77,-123 652.77,-119.5 652.77,-126.5"/>
</a>
</g>
</g>
<!-- Node10 -->
<g id="Node000010" class="node">
<title>Node10</title>
<g id="a_Node000010"><a xlink:href="classzero__mate_1_1gui_1_1CSource__Code__Window.html#ad485f4213e9fff6ac5327683e2e6abc7" target="_top" xlink:title="Checks if the block of code which is currently being rendered should be highlighted or not.">
<polygon fill="white" stroke="#666666" points="838,-89.5 679,-89.5 679,-48.5 838,-48.5 838,-89.5"/>
<text text-anchor="start" x="687" y="-77.5" font-family="Helvetica,sans-Serif" font-size="10.00">zero_mate::gui::CSource</text>
<text text-anchor="start" x="687" y="-66.5" font-family="Helvetica,sans-Serif" font-size="10.00">_Code_Window::Should_Code</text>
<text text-anchor="middle" x="758.5" y="-55.5" font-family="Helvetica,sans-Serif" font-size="10.00">_Block_Be_Highlighted</text>
</a>
</g>
</g>
<!-- Node3&#45;&gt;Node10 -->
<g id="edge9_Node000003_Node000010" class="edge">
<title>Node3&#45;&gt;Node10</title>
<g id="a_edge9_Node000003_Node000010"><a xlink:title=" ">
<path fill="none" stroke="#63b8ff" d="M590.12,-107.96C614.5,-102.29 642.66,-95.73 668.85,-89.63"/>
<polygon fill="#63b8ff" stroke="#63b8ff" points="669.83,-93 678.78,-87.32 668.25,-86.18 669.83,-93"/>
</a>
</g>
</g>
<!-- Node11 -->
<g id="Node000011" class="node">
<title>Node11</title>
<g id="a_Node000011"><a xlink:href="classzero__mate_1_1gui_1_1CSource__Code__Window.html#a0fa8c26175b9585a867f343c1148d258" target="_top" xlink:title="Skips a block of code (function) which is collapsed and therefore not visible to the user.">
<polygon fill="white" stroke="#666666" points="860,-30 657,-30 657,0 860,0 860,-30"/>
<text text-anchor="start" x="665" y="-18" font-family="Helvetica,sans-Serif" font-size="10.00">zero_mate::gui::CSource</text>
<text text-anchor="middle" x="758.5" y="-7" font-family="Helvetica,sans-Serif" font-size="10.00">_Code_Window::Skip_Collapsed_Block</text>
</a>
</g>
</g>
<!-- Node3&#45;&gt;Node11 -->
<g id="edge10_Node000003_Node000011" class="edge">
<title>Node3&#45;&gt;Node11</title>
<g id="a_edge10_Node000003_Node000011"><a xlink:title=" ">
<path fill="none" stroke="#63b8ff" d="M544.83,-107.68C569.49,-88.87 614.11,-57.21 657,-39 662.01,-36.88 667.23,-34.92 672.56,-33.12"/>
<polygon fill="#63b8ff" stroke="#63b8ff" points="673.77,-36.41 682.24,-30.04 671.65,-29.73 673.77,-36.41"/>
</a>
</g>
</g>
<!-- Node7 -->
<g id="Node000007" class="node">
<title>Node7</title>
<g id="a_Node000007"><a xlink:href="classzero__mate_1_1gui_1_1CSource__Code__Window.html#a92af51ccb5ebca752cddaac27c38f1f8" target="_top" xlink:title="Renders the body of a source code table.">
<polygon fill="white" stroke="#666666" points="1087,-165 896,-165 896,-135 1087,-135 1087,-165"/>
<text text-anchor="start" x="904" y="-153" font-family="Helvetica,sans-Serif" font-size="10.00">zero_mate::gui::CSource</text>
<text text-anchor="middle" x="991.5" y="-142" font-family="Helvetica,sans-Serif" font-size="10.00">_Code_Window::Render_Table_Body</text>
</a>
</g>
</g>
<!-- Node6&#45;&gt;Node7 -->
<g id="edge6_Node000006_Node000007" class="edge">
<title>Node6&#45;&gt;Node7</title>
<g id="a_edge6_Node000006_Node000007"><a xlink:title=" ">
<path fill="none" stroke="#63b8ff" d="M854.12,-134.06C864.51,-135.27 875.13,-136.52 885.63,-137.74"/>
<polygon fill="#63b8ff" stroke="#63b8ff" points="885.31,-141.23 895.65,-138.91 886.12,-134.28 885.31,-141.23"/>
</a>
</g>
</g>
<!-- Node9 -->
<g id="Node000009" class="node">
<title>Node9</title>
<g id="a_Node000009"><a xlink:href="classzero__mate_1_1gui_1_1CSource__Code__Window.html#aa46c591d1c9bb994ccee55d371919e37" target="_top" xlink:title="Renders table headings (breakpoint, address, opcode, disassembly)">
<polygon fill="white" stroke="#666666" points="1072,-116.5 911,-116.5 911,-75.5 1072,-75.5 1072,-116.5"/>
<text text-anchor="start" x="919" y="-104.5" font-family="Helvetica,sans-Serif" font-size="10.00">zero_mate::gui::CSource</text>
<text text-anchor="start" x="919" y="-93.5" font-family="Helvetica,sans-Serif" font-size="10.00">_Code_Window::Render_Table</text>
<text text-anchor="middle" x="991.5" y="-82.5" font-family="Helvetica,sans-Serif" font-size="10.00">_Headings</text>
</a>
</g>
</g>
<!-- Node6&#45;&gt;Node9 -->
<g id="edge8_Node000006_Node000009" class="edge">
<title>Node6&#45;&gt;Node9</title>
<g id="a_edge8_Node000006_Node000009"><a xlink:title=" ">
<path fill="none" stroke="#63b8ff" d="M854.12,-111.94C869.56,-110.14 885.5,-108.27 900.81,-106.48"/>
<polygon fill="#63b8ff" stroke="#63b8ff" points="901.25,-109.96 910.77,-105.32 900.43,-103 901.25,-109.96"/>
</a>
</g>
</g>
<!-- Node8 -->
<g id="Node000008" class="node">
<title>Node8</title>
<g id="a_Node000008"><a xlink:href="classzero__mate_1_1gui_1_1CSource__Code__Window.html#a854994af8a4bb90df17e2e24c8d7a3a5" target="_top" xlink:title="Renders a single breakpoint.">
<polygon fill="white" stroke="#666666" points="1312,-165 1123,-165 1123,-135 1312,-135 1312,-165"/>
<text text-anchor="start" x="1131" y="-153" font-family="Helvetica,sans-Serif" font-size="10.00">zero_mate::gui::CSource</text>
<text text-anchor="middle" x="1217.5" y="-142" font-family="Helvetica,sans-Serif" font-size="10.00">_Code_Window::Render_Breakpoint</text>
</a>
</g>
</g>
<!-- Node7&#45;&gt;Node8 -->
<g id="edge7_Node000007_Node000008" class="edge">
<title>Node7&#45;&gt;Node8</title>
<g id="a_edge7_Node000007_Node000008"><a xlink:title=" ">
<path fill="none" stroke="#63b8ff" d="M1087.17,-150C1095.67,-150 1104.3,-150 1112.87,-150"/>
<polygon fill="#63b8ff" stroke="#63b8ff" points="1112.88,-153.5 1122.88,-150 1112.88,-146.5 1112.88,-153.5"/>
</a>
</g>
</g>
</g>
</svg>
