<?xml version="1.0" encoding="UTF-8" standalone="no"?>
<!DOCTYPE svg PUBLIC "-//W3C//DTD SVG 1.1//EN"
 "http://www.w3.org/Graphics/SVG/1.1/DTD/svg11.dtd">
<!-- Generated by graphviz version 2.43.0 (0)
 -->
<!-- Title: zero_mate::peripheral::CBSC::I2C_Receive_ACK_2 Pages: 1 -->
<svg width="499pt" height="49pt"
 viewBox="0.00 0.00 499.00 49.00" xmlns="http://www.w3.org/2000/svg" xmlns:xlink="http://www.w3.org/1999/xlink">
<g id="graph0" class="graph" transform="scale(1 1) rotate(0) translate(4 45)">
<title>zero_mate::peripheral::CBSC::I2C_Receive_ACK_2</title>
<!-- Node1 -->
<g id="Node000001" class="node">
<title>Node1</title>
<g id="a_Node000001"><a xlink:title="Checks whether the slave device has sent ACK_2 as expected.">
<polygon fill="#999999" stroke="#666666" points="491,-35.5 339,-35.5 339,-5.5 491,-5.5 491,-35.5"/>
<text text-anchor="start" x="347" y="-23.5" font-family="Helvetica,sans-Serif" font-size="10.00">zero_mate::peripheral</text>
<text text-anchor="middle" x="415" y="-12.5" font-family="Helvetica,sans-Serif" font-size="10.00">::CBSC::I2C_Receive_ACK_2</text>
</a>
</g>
</g>
<!-- Node2 -->
<g id="Node000002" class="node">
<title>Node2</title>
<g id="a_Node000002"><a xlink:href="classzero__mate_1_1peripheral_1_1CBSC.html#a3b0dd18504053624d39b9015015bb8fc" target="_top" xlink:title="Updates the I2C state machine.">
<polygon fill="white" stroke="#666666" points="303,-35.5 179,-35.5 179,-5.5 303,-5.5 303,-35.5"/>
<text text-anchor="start" x="187" y="-23.5" font-family="Helvetica,sans-Serif" font-size="10.00">zero_mate::peripheral</text>
<text text-anchor="middle" x="241" y="-12.5" font-family="Helvetica,sans-Serif" font-size="10.00">::CBSC::I2C_Update</text>
</a>
</g>
</g>
<!-- Node1&#45;&gt;Node2 -->
<g id="edge1_Node000001_Node000002" class="edge">
<title>Node1&#45;&gt;Node2</title>
<g id="a_edge1_Node000001_Node000002"><a xlink:title=" ">
<path fill="none" stroke="#63b8ff" d="M328.69,-20.5C320.06,-20.5 311.41,-20.5 303.1,-20.5"/>
<polygon fill="#63b8ff" stroke="#63b8ff" points="328.81,-24 338.81,-20.5 328.81,-17 328.81,-24"/>
</a>
</g>
</g>
<!-- Node3 -->
<g id="Node000003" class="node">
<title>Node3</title>
<g id="a_Node000003"><a xlink:href="classzero__mate_1_1peripheral_1_1CBSC.html#a226982dd161163b65706cad569522488" target="_top" xlink:title="Notifies the peripheral about how many CPU cycles have passed (ISystem_Clock_Listener interface).">
<polygon fill="white" stroke="#666666" points="143,-41 0,-41 0,0 143,0 143,-41"/>
<text text-anchor="start" x="8" y="-29" font-family="Helvetica,sans-Serif" font-size="10.00">zero_mate::peripheral</text>
<text text-anchor="start" x="8" y="-18" font-family="Helvetica,sans-Serif" font-size="10.00">::CBSC::Increment_Passed</text>
<text text-anchor="middle" x="71.5" y="-7" font-family="Helvetica,sans-Serif" font-size="10.00">_Cycles</text>
</a>
</g>
</g>
<!-- Node2&#45;&gt;Node3 -->
<g id="edge2_Node000002_Node000003" class="edge">
<title>Node2&#45;&gt;Node3</title>
<g id="a_edge2_Node000002_Node000003"><a xlink:title=" ">
<path fill="none" stroke="#63b8ff" d="M168.49,-20.5C160.14,-20.5 151.61,-20.5 143.27,-20.5"/>
<polygon fill="#63b8ff" stroke="#63b8ff" points="168.58,-24 178.58,-20.5 168.58,-17 168.58,-24"/>
</a>
</g>
</g>
</g>
</svg>
