<?xml version="1.0" encoding="UTF-8" standalone="no"?>
<!DOCTYPE svg PUBLIC "-//W3C//DTD SVG 1.1//EN"
 "http://www.w3.org/Graphics/SVG/1.1/DTD/svg11.dtd">
<!-- Generated by graphviz version 2.43.0 (0)
 -->
<!-- Title: zero_mate::coprocessor::cp15::CC2::Extract_Bits_From_TTBR Pages: 1 -->
<svg width="739pt" height="152pt"
 viewBox="0.00 0.00 739.00 151.50" xmlns="http://www.w3.org/2000/svg" xmlns:xlink="http://www.w3.org/1999/xlink">
<g id="graph0" class="graph" transform="scale(1 1) rotate(0) translate(4 147.5)">
<title>zero_mate::coprocessor::cp15::CC2::Extract_Bits_From_TTBR</title>
<!-- Node1 -->
<g id="Node000001" class="node">
<title>Node1</title>
<g id="a_Node000001"><a xlink:title="Extracts bits determined by a given mask from a given secondary register.">
<polygon fill="#999999" stroke="#666666" points="731,-89.5 595,-89.5 595,-48.5 731,-48.5 731,-89.5"/>
<text text-anchor="start" x="603" y="-77.5" font-family="Helvetica,sans-Serif" font-size="10.00">zero_mate::coprocessor</text>
<text text-anchor="start" x="603" y="-66.5" font-family="Helvetica,sans-Serif" font-size="10.00">::cp15::CC2::Extract_Bits</text>
<text text-anchor="middle" x="663" y="-55.5" font-family="Helvetica,sans-Serif" font-size="10.00">_From_TTBR</text>
</a>
</g>
</g>
<!-- Node2 -->
<g id="Node000002" class="node">
<title>Node2</title>
<g id="a_Node000002"><a xlink:href="classzero__mate_1_1coprocessor_1_1cp15_1_1CC2.html#ae01856374ec8bac99ac7652c0d99de48" target="_top" xlink:title="Returns the physical address of a given page table.">
<polygon fill="white" stroke="#666666" points="559,-138 396,-138 396,-108 559,-108 559,-138"/>
<text text-anchor="start" x="404" y="-126" font-family="Helvetica,sans-Serif" font-size="10.00">zero_mate::coprocessor</text>
<text text-anchor="middle" x="477.5" y="-115" font-family="Helvetica,sans-Serif" font-size="10.00">::cp15::CC2::Get_TTB_Address</text>
</a>
</g>
</g>
<!-- Node1&#45;&gt;Node2 -->
<g id="edge1_Node000001_Node000002" class="edge">
<title>Node1&#45;&gt;Node2</title>
<g id="a_edge1_Node000001_Node000002"><a xlink:title=" ">
<path fill="none" stroke="#63b8ff" d="M585.24,-91.59C566.44,-97.12 546.79,-102.91 529.54,-107.98"/>
<polygon fill="#63b8ff" stroke="#63b8ff" points="586.37,-94.91 594.97,-88.72 584.39,-88.19 586.37,-94.91"/>
</a>
</g>
</g>
<!-- Node5 -->
<g id="Node000005" class="node">
<title>Node5</title>
<g id="a_Node000005"><a xlink:href="classzero__mate_1_1coprocessor_1_1cp15_1_1CC2.html#ace026da873f481c05e741a3d0628752a" target="_top" xlink:title="Returns information about whether a given translation table is inner cacheable or not.">
<polygon fill="white" stroke="#666666" points="547.5,-89.5 407.5,-89.5 407.5,-48.5 547.5,-48.5 547.5,-89.5"/>
<text text-anchor="start" x="415.5" y="-77.5" font-family="Helvetica,sans-Serif" font-size="10.00">zero_mate::coprocessor</text>
<text text-anchor="start" x="415.5" y="-66.5" font-family="Helvetica,sans-Serif" font-size="10.00">::cp15::CC2::Is_TTB_Inner</text>
<text text-anchor="middle" x="477.5" y="-55.5" font-family="Helvetica,sans-Serif" font-size="10.00">_Cacheable</text>
</a>
</g>
</g>
<!-- Node1&#45;&gt;Node5 -->
<g id="edge4_Node000001_Node000005" class="edge">
<title>Node1&#45;&gt;Node5</title>
<g id="a_edge4_Node000001_Node000005"><a xlink:title=" ">
<path fill="none" stroke="#63b8ff" d="M584.7,-69C572.35,-69 559.64,-69 547.5,-69"/>
<polygon fill="#63b8ff" stroke="#63b8ff" points="584.97,-72.5 594.97,-69 584.97,-65.5 584.97,-72.5"/>
</a>
</g>
</g>
<!-- Node6 -->
<g id="Node000006" class="node">
<title>Node6</title>
<g id="a_Node000006"><a xlink:href="classzero__mate_1_1coprocessor_1_1cp15_1_1CC2.html#ab66e2160652f6829589989b7ae05573d" target="_top" xlink:title="Returns information about whether a given translation table is shared among multiple CPU cores.">
<polygon fill="white" stroke="#666666" points="552,-30 403,-30 403,0 552,0 552,-30"/>
<text text-anchor="start" x="411" y="-18" font-family="Helvetica,sans-Serif" font-size="10.00">zero_mate::coprocessor</text>
<text text-anchor="middle" x="477.5" y="-7" font-family="Helvetica,sans-Serif" font-size="10.00">::cp15::CC2::Is_TTB_Shared</text>
</a>
</g>
</g>
<!-- Node1&#45;&gt;Node6 -->
<g id="edge5_Node000001_Node000006" class="edge">
<title>Node1&#45;&gt;Node6</title>
<g id="a_edge5_Node000001_Node000006"><a xlink:title=" ">
<path fill="none" stroke="#63b8ff" d="M585.24,-46.41C566.44,-40.88 546.79,-35.09 529.54,-30.02"/>
<polygon fill="#63b8ff" stroke="#63b8ff" points="584.39,-49.81 594.97,-49.28 586.37,-43.09 584.39,-49.81"/>
</a>
</g>
</g>
<!-- Node3 -->
<g id="Node000003" class="node">
<title>Node3</title>
<g id="a_Node000003"><a xlink:href="classzero__mate_1_1arm1176jzf__s_1_1mmu_1_1CMMU.html#a2af0846c0e594495eeeb2ec51717dfa7" target="_top" xlink:title="Fetches the first level page tables (tbbr0, tbbr1) from the RAM.">
<polygon fill="white" stroke="#666666" points="360,-143.5 230,-143.5 230,-102.5 360,-102.5 360,-143.5"/>
<text text-anchor="start" x="238" y="-131.5" font-family="Helvetica,sans-Serif" font-size="10.00">zero_mate::arm1176jzf</text>
<text text-anchor="start" x="238" y="-120.5" font-family="Helvetica,sans-Serif" font-size="10.00">_s::mmu::CMMU::Fetch</text>
<text text-anchor="middle" x="295" y="-109.5" font-family="Helvetica,sans-Serif" font-size="10.00">_DL1_From_RAM</text>
</a>
</g>
</g>
<!-- Node2&#45;&gt;Node3 -->
<g id="edge2_Node000002_Node000003" class="edge">
<title>Node2&#45;&gt;Node3</title>
<g id="a_edge2_Node000002_Node000003"><a xlink:title=" ">
<path fill="none" stroke="#63b8ff" d="M385.66,-123C377.05,-123 368.45,-123 360.16,-123"/>
<polygon fill="#63b8ff" stroke="#63b8ff" points="385.75,-126.5 395.75,-123 385.75,-119.5 385.75,-126.5"/>
</a>
</g>
</g>
<!-- Node4 -->
<g id="Node000004" class="node">
<title>Node4</title>
<g id="a_Node000004"><a xlink:href="classzero__mate_1_1arm1176jzf__s_1_1mmu_1_1CMMU.html#a7bc1002a8f1032547deee07589cbbb84" target="_top" xlink:title="Converts a given virtual address into a physical address.">
<polygon fill="white" stroke="#666666" points="194,-138 0,-138 0,-108 194,-108 194,-138"/>
<text text-anchor="start" x="8" y="-126" font-family="Helvetica,sans-Serif" font-size="10.00">zero_mate::arm1176jzf</text>
<text text-anchor="middle" x="97" y="-115" font-family="Helvetica,sans-Serif" font-size="10.00">_s::mmu::CMMU::Get_Physical_Addr</text>
</a>
</g>
</g>
<!-- Node3&#45;&gt;Node4 -->
<g id="edge3_Node000003_Node000004" class="edge">
<title>Node3&#45;&gt;Node4</title>
<g id="a_edge3_Node000003_Node000004"><a xlink:title=" ">
<path fill="none" stroke="#63b8ff" d="M219.79,-123C211.45,-123 202.87,-123 194.3,-123"/>
<polygon fill="#63b8ff" stroke="#63b8ff" points="219.82,-126.5 229.82,-123 219.82,-119.5 219.82,-126.5"/>
</a>
</g>
</g>
</g>
</svg>
