<?xml version="1.0" encoding="UTF-8" standalone="no"?>
<!DOCTYPE svg PUBLIC "-//W3C//DTD SVG 1.1//EN"
 "http://www.w3.org/Graphics/SVG/1.1/DTD/svg11.dtd">
<!-- Generated by graphviz version 2.43.0 (0)
 -->
<!-- Title: zero_mate::gui::IGUI_Window Pages: 1 -->
<svg width="308pt" height="662pt"
 viewBox="0.00 0.00 308.00 662.00" xmlns="http://www.w3.org/2000/svg" xmlns:xlink="http://www.w3.org/1999/xlink">
<g id="graph0" class="graph" transform="scale(1 1) rotate(0) translate(4 658)">
<title>zero_mate::gui::IGUI_Window</title>
<!-- Node1 -->
<g id="Node000001" class="node">
<title>Node1</title>
<g id="a_Node000001"><a xlink:title="Common interface for all GUI windows.">
<polygon fill="#999999" stroke="#666666" points="116,-342 0,-342 0,-312 116,-312 116,-342"/>
<text text-anchor="start" x="8" y="-330" font-family="Helvetica,sans-Serif" font-size="10.00">zero_mate::gui::IGUI</text>
<text text-anchor="middle" x="58" y="-319" font-family="Helvetica,sans-Serif" font-size="10.00">_Window</text>
</a>
</g>
</g>
<!-- Node2 -->
<g id="Node000002" class="node">
<title>Node2</title>
<g id="a_Node000002"><a xlink:href="classzero__mate_1_1gui_1_1CARM__Timer__Window.html" target="_top" xlink:title="This windows visualizes the contents of the ARM timer registers.">
<polygon fill="white" stroke="#666666" points="288.5,-654 163.5,-654 163.5,-624 288.5,-624 288.5,-654"/>
<text text-anchor="start" x="171.5" y="-642" font-family="Helvetica,sans-Serif" font-size="10.00">zero_mate::gui::CARM</text>
<text text-anchor="middle" x="226" y="-631" font-family="Helvetica,sans-Serif" font-size="10.00">_Timer_Window</text>
</a>
</g>
</g>
<!-- Node1&#45;&gt;Node2 -->
<g id="edge1_Node000001_Node000002" class="edge">
<title>Node1&#45;&gt;Node2</title>
<g id="a_edge1_Node000001_Node000002"><a xlink:title=" ">
<path fill="none" stroke="#63b8ff" d="M59.8,-352.27C62.93,-407.67 78.18,-540.79 152,-615 155.39,-618.41 159.27,-621.33 163.43,-623.83"/>
<polygon fill="#63b8ff" stroke="#63b8ff" points="63.3,-352.09 59.32,-342.26 56.3,-352.42 63.3,-352.09"/>
</a>
</g>
</g>
<!-- Node3 -->
<g id="Node000003" class="node">
<title>Node3</title>
<g id="a_Node000003"><a xlink:href="classzero__mate_1_1gui_1_1CAUX__Window.html" target="_top" xlink:title="This class represents the windows that visualizes auxiliary peripherals.">
<polygon fill="white" stroke="#666666" points="287.5,-606 164.5,-606 164.5,-576 287.5,-576 287.5,-606"/>
<text text-anchor="start" x="172.5" y="-594" font-family="Helvetica,sans-Serif" font-size="10.00">zero_mate::gui::CAUX</text>
<text text-anchor="middle" x="226" y="-583" font-family="Helvetica,sans-Serif" font-size="10.00">_Window</text>
</a>
</g>
</g>
<!-- Node1&#45;&gt;Node3 -->
<g id="edge2_Node000001_Node000003" class="edge">
<title>Node1&#45;&gt;Node3</title>
<g id="a_edge2_Node000001_Node000003"><a xlink:title=" ">
<path fill="none" stroke="#63b8ff" d="M61.68,-352.03C68.17,-400.44 89.18,-507.37 152,-567 155.68,-570.49 159.87,-573.47 164.35,-576.02"/>
<polygon fill="#63b8ff" stroke="#63b8ff" points="65.15,-351.59 60.44,-342.1 58.2,-352.45 65.15,-351.59"/>
</a>
</g>
</g>
<!-- Node4 -->
<g id="Node000004" class="node">
<title>Node4</title>
<g id="a_Node000004"><a xlink:href="classzero__mate_1_1gui_1_1CCP10__Window.html" target="_top" xlink:title="This class represents a window that displays information related to CP10 (coprocessor 10).">
<polygon fill="white" stroke="#666666" points="289.5,-558 162.5,-558 162.5,-528 289.5,-528 289.5,-558"/>
<text text-anchor="start" x="170.5" y="-546" font-family="Helvetica,sans-Serif" font-size="10.00">zero_mate::gui::CCP10</text>
<text text-anchor="middle" x="226" y="-535" font-family="Helvetica,sans-Serif" font-size="10.00">_Window</text>
</a>
</g>
</g>
<!-- Node1&#45;&gt;Node4 -->
<g id="edge3_Node000001_Node000004" class="edge">
<title>Node1&#45;&gt;Node4</title>
<g id="a_edge3_Node000001_Node000004"><a xlink:title=" ">
<path fill="none" stroke="#63b8ff" d="M64.45,-352.12C74.58,-392.94 100.18,-473.67 152,-519 155.92,-522.43 160.33,-525.36 165.01,-527.89"/>
<polygon fill="#63b8ff" stroke="#63b8ff" points="67.8,-351.1 62.09,-342.18 60.99,-352.72 67.8,-351.1"/>
</a>
</g>
</g>
<!-- Node5 -->
<g id="Node000005" class="node">
<title>Node5</title>
<g id="a_Node000005"><a xlink:href="classzero__mate_1_1gui_1_1CCP15__Window.html" target="_top" xlink:title="This class represents a window that displays information related to CP15 (coprocessor 15).">
<polygon fill="white" stroke="#666666" points="289.5,-510 162.5,-510 162.5,-480 289.5,-480 289.5,-510"/>
<text text-anchor="start" x="170.5" y="-498" font-family="Helvetica,sans-Serif" font-size="10.00">zero_mate::gui::CCP15</text>
<text text-anchor="middle" x="226" y="-487" font-family="Helvetica,sans-Serif" font-size="10.00">_Window</text>
</a>
</g>
</g>
<!-- Node1&#45;&gt;Node5 -->
<g id="edge4_Node000001_Node000005" class="edge">
<title>Node1&#45;&gt;Node5</title>
<g id="a_edge4_Node000001_Node000005"><a xlink:title=" ">
<path fill="none" stroke="#63b8ff" d="M68.65,-351.54C82.44,-383.53 110.76,-439.16 152,-471 156.44,-474.42 161.38,-477.37 166.55,-479.9"/>
<polygon fill="#63b8ff" stroke="#63b8ff" points="71.76,-349.92 64.68,-342.04 65.3,-352.62 71.76,-349.92"/>
</a>
</g>
</g>
<!-- Node6 -->
<g id="Node000006" class="node">
<title>Node6</title>
<g id="a_Node000006"><a xlink:href="classzero__mate_1_1gui_1_1CControl__Window.html" target="_top" xlink:title="This class represents a window that allows the user to control CPU execution.">
<polygon fill="white" stroke="#666666" points="294.5,-462 157.5,-462 157.5,-432 294.5,-432 294.5,-462"/>
<text text-anchor="start" x="165.5" y="-450" font-family="Helvetica,sans-Serif" font-size="10.00">zero_mate::gui::CControl</text>
<text text-anchor="middle" x="226" y="-439" font-family="Helvetica,sans-Serif" font-size="10.00">_Window</text>
</a>
</g>
</g>
<!-- Node1&#45;&gt;Node6 -->
<g id="edge5_Node000001_Node000006" class="edge">
<title>Node1&#45;&gt;Node6</title>
<g id="a_edge5_Node000001_Node000006"><a xlink:title=" ">
<path fill="none" stroke="#63b8ff" d="M76.07,-350.23C93.09,-371.88 121.09,-403.65 152,-423 157.43,-426.4 163.39,-429.37 169.49,-431.95"/>
<polygon fill="#63b8ff" stroke="#63b8ff" points="78.76,-347.99 69.89,-342.2 73.21,-352.26 78.76,-347.99"/>
</a>
</g>
</g>
<!-- Node7 -->
<g id="Node000007" class="node">
<title>Node7</title>
<g id="a_Node000007"><a xlink:href="classzero__mate_1_1gui_1_1CDemo__Window.html" target="_top" xlink:title="This class displays the ImGui and ImPlot demos.">
<polygon fill="white" stroke="#666666" points="291.5,-414 160.5,-414 160.5,-384 291.5,-384 291.5,-414"/>
<text text-anchor="start" x="168.5" y="-402" font-family="Helvetica,sans-Serif" font-size="10.00">zero_mate::gui::CDemo</text>
<text text-anchor="middle" x="226" y="-391" font-family="Helvetica,sans-Serif" font-size="10.00">_Window</text>
</a>
</g>
</g>
<!-- Node1&#45;&gt;Node7 -->
<g id="edge6_Node000001_Node000007" class="edge">
<title>Node1&#45;&gt;Node7</title>
<g id="a_edge6_Node000001_Node000007"><a xlink:title=" ">
<path fill="none" stroke="#63b8ff" d="M94.39,-346.95C111.49,-356.15 132.49,-366.82 152,-375 159.5,-378.15 167.58,-381.16 175.52,-383.92"/>
<polygon fill="#63b8ff" stroke="#63b8ff" points="95.78,-343.72 85.32,-342.01 92.43,-349.87 95.78,-343.72"/>
</a>
</g>
</g>
<!-- Node8 -->
<g id="Node000008" class="node">
<title>Node8</title>
<g id="a_Node000008"><a xlink:href="classzero__mate_1_1gui_1_1CGPIO__Window.html" target="_top" xlink:title="This class represents a windows that displays information about GPIO pins.">
<polygon fill="white" stroke="#666666" points="289,-366 163,-366 163,-336 289,-336 289,-366"/>
<text text-anchor="start" x="171" y="-354" font-family="Helvetica,sans-Serif" font-size="10.00">zero_mate::gui::CGPIO</text>
<text text-anchor="middle" x="226" y="-343" font-family="Helvetica,sans-Serif" font-size="10.00">_Window</text>
</a>
</g>
</g>
<!-- Node1&#45;&gt;Node8 -->
<g id="edge7_Node000001_Node000008" class="edge">
<title>Node1&#45;&gt;Node8</title>
<g id="a_edge7_Node000001_Node000008"><a xlink:title=" ">
<path fill="none" stroke="#63b8ff" d="M126.19,-336.71C138.34,-338.47 150.95,-340.29 162.94,-342.03"/>
<polygon fill="#63b8ff" stroke="#63b8ff" points="126.53,-333.23 116.13,-335.26 125.52,-340.15 126.53,-333.23"/>
</a>
</g>
</g>
<!-- Node9 -->
<g id="Node000009" class="node">
<title>Node9</title>
<g id="a_Node000009"><a xlink:href="classzero__mate_1_1gui_1_1CInterrupt__Controller__Window.html" target="_top" xlink:title="This class defines a window that displays information about the interrupt controller.">
<polygon fill="white" stroke="#666666" points="298,-318 154,-318 154,-288 298,-288 298,-318"/>
<text text-anchor="start" x="162" y="-306" font-family="Helvetica,sans-Serif" font-size="10.00">zero_mate::gui::CInterrupt</text>
<text text-anchor="middle" x="226" y="-295" font-family="Helvetica,sans-Serif" font-size="10.00">_Controller_Window</text>
</a>
</g>
</g>
<!-- Node1&#45;&gt;Node9 -->
<g id="edge8_Node000001_Node000009" class="edge">
<title>Node1&#45;&gt;Node9</title>
<g id="a_edge8_Node000001_Node000009"><a xlink:title=" ">
<path fill="none" stroke="#63b8ff" d="M126.29,-317.27C135.41,-315.95 144.8,-314.6 153.98,-313.27"/>
<polygon fill="#63b8ff" stroke="#63b8ff" points="125.52,-313.85 116.13,-318.74 126.53,-320.77 125.52,-313.85"/>
</a>
</g>
</g>
<!-- Node10 -->
<g id="Node000010" class="node">
<title>Node10</title>
<g id="a_Node000010"><a xlink:href="classzero__mate_1_1gui_1_1CLog__Window.html" target="_top" xlink:title="This class represents a window that displays log messages.">
<polygon fill="white" stroke="#666666" points="285.5,-270 166.5,-270 166.5,-240 285.5,-240 285.5,-270"/>
<text text-anchor="start" x="174.5" y="-258" font-family="Helvetica,sans-Serif" font-size="10.00">zero_mate::gui::CLog</text>
<text text-anchor="middle" x="226" y="-247" font-family="Helvetica,sans-Serif" font-size="10.00">_Window</text>
</a>
</g>
</g>
<!-- Node1&#45;&gt;Node10 -->
<g id="edge9_Node000001_Node000010" class="edge">
<title>Node1&#45;&gt;Node10</title>
<g id="a_edge9_Node000001_Node000010"><a xlink:title=" ">
<path fill="none" stroke="#63b8ff" d="M94.39,-307.05C111.49,-297.85 132.49,-287.18 152,-279 159.5,-275.85 167.58,-272.84 175.52,-270.08"/>
<polygon fill="#63b8ff" stroke="#63b8ff" points="92.43,-304.13 85.32,-311.99 95.78,-310.28 92.43,-304.13"/>
</a>
</g>
</g>
<!-- Node11 -->
<g id="Node000011" class="node">
<title>Node11</title>
<g id="a_Node000011"><a xlink:href="classzero__mate_1_1gui_1_1CMonitor__Window.html" target="_top" xlink:title="This class represents a window that visualizes the memory&#45;mapped debug monitor.">
<polygon fill="white" stroke="#666666" points="296,-222 156,-222 156,-192 296,-192 296,-222"/>
<text text-anchor="start" x="164" y="-210" font-family="Helvetica,sans-Serif" font-size="10.00">zero_mate::gui::CMonitor</text>
<text text-anchor="middle" x="226" y="-199" font-family="Helvetica,sans-Serif" font-size="10.00">_Window</text>
</a>
</g>
</g>
<!-- Node1&#45;&gt;Node11 -->
<g id="edge10_Node000001_Node000011" class="edge">
<title>Node1&#45;&gt;Node11</title>
<g id="a_edge10_Node000001_Node000011"><a xlink:title=" ">
<path fill="none" stroke="#63b8ff" d="M76.07,-303.77C93.09,-282.12 121.09,-250.35 152,-231 157.43,-227.6 163.39,-224.63 169.49,-222.05"/>
<polygon fill="#63b8ff" stroke="#63b8ff" points="73.21,-301.74 69.89,-311.8 78.76,-306.01 73.21,-301.74"/>
</a>
</g>
</g>
<!-- Node12 -->
<g id="Node000012" class="node">
<title>Node12</title>
<g id="a_Node000012"><a xlink:href="classzero__mate_1_1gui_1_1CRAM__Window.html" target="_top" xlink:title="This class represents a windows that visualizes the contents of the RAM.">
<polygon fill="white" stroke="#666666" points="288.5,-174 163.5,-174 163.5,-144 288.5,-144 288.5,-174"/>
<text text-anchor="start" x="171.5" y="-162" font-family="Helvetica,sans-Serif" font-size="10.00">zero_mate::gui::CRAM</text>
<text text-anchor="middle" x="226" y="-151" font-family="Helvetica,sans-Serif" font-size="10.00">_Window</text>
</a>
</g>
</g>
<!-- Node1&#45;&gt;Node12 -->
<g id="edge11_Node000001_Node000012" class="edge">
<title>Node1&#45;&gt;Node12</title>
<g id="a_edge11_Node000001_Node000012"><a xlink:title=" ">
<path fill="none" stroke="#63b8ff" d="M68.65,-302.46C82.44,-270.47 110.76,-214.84 152,-183 156.44,-179.58 161.38,-176.63 166.55,-174.1"/>
<polygon fill="#63b8ff" stroke="#63b8ff" points="65.3,-301.38 64.68,-311.96 71.76,-304.08 65.3,-301.38"/>
</a>
</g>
</g>
<!-- Node13 -->
<g id="Node000013" class="node">
<title>Node13</title>
<g id="a_Node000013"><a xlink:href="classzero__mate_1_1gui_1_1CRegisters__Window.html" target="_top" xlink:title="This class represents the window that displays the contents of all CPU registers.">
<polygon fill="white" stroke="#666666" points="300,-126 152,-126 152,-96 300,-96 300,-126"/>
<text text-anchor="start" x="160" y="-114" font-family="Helvetica,sans-Serif" font-size="10.00">zero_mate::gui::CRegisters</text>
<text text-anchor="middle" x="226" y="-103" font-family="Helvetica,sans-Serif" font-size="10.00">_Window</text>
</a>
</g>
</g>
<!-- Node1&#45;&gt;Node13 -->
<g id="edge12_Node000001_Node000013" class="edge">
<title>Node1&#45;&gt;Node13</title>
<g id="a_edge12_Node000001_Node000013"><a xlink:title=" ">
<path fill="none" stroke="#63b8ff" d="M64.45,-301.88C74.58,-261.06 100.18,-180.33 152,-135 155.92,-131.57 160.33,-128.64 165.01,-126.11"/>
<polygon fill="#63b8ff" stroke="#63b8ff" points="60.99,-301.28 62.09,-311.82 67.8,-302.9 60.99,-301.28"/>
</a>
</g>
</g>
<!-- Node14 -->
<g id="Node000014" class="node">
<title>Node14</title>
<g id="a_Node000014"><a xlink:href="classzero__mate_1_1gui_1_1CSource__Code__Window.html" target="_top" xlink:title="This class represents a windows that displays the contents of loaded ELF files.">
<polygon fill="white" stroke="#666666" points="293.5,-78 158.5,-78 158.5,-48 293.5,-48 293.5,-78"/>
<text text-anchor="start" x="166.5" y="-66" font-family="Helvetica,sans-Serif" font-size="10.00">zero_mate::gui::CSource</text>
<text text-anchor="middle" x="226" y="-55" font-family="Helvetica,sans-Serif" font-size="10.00">_Code_Window</text>
</a>
</g>
</g>
<!-- Node1&#45;&gt;Node14 -->
<g id="edge13_Node000001_Node000014" class="edge">
<title>Node1&#45;&gt;Node14</title>
<g id="a_edge13_Node000001_Node000014"><a xlink:title=" ">
<path fill="none" stroke="#63b8ff" d="M61.68,-301.97C68.17,-253.56 89.18,-146.63 152,-87 155.58,-83.6 159.65,-80.68 163.99,-78.18"/>
<polygon fill="#63b8ff" stroke="#63b8ff" points="58.2,-301.55 60.44,-311.9 65.15,-302.41 58.2,-301.55"/>
</a>
</g>
</g>
<!-- Node15 -->
<g id="Node000015" class="node">
<title>Node15</title>
<g id="a_Node000015"><a xlink:href="classzero__mate_1_1gui_1_1CTop__Bar__Menu.html" target="_top" xlink:title="This class represents a top bar through which the user can load ELF files.">
<polygon fill="white" stroke="#666666" points="285.5,-30 166.5,-30 166.5,0 285.5,0 285.5,-30"/>
<text text-anchor="start" x="174.5" y="-18" font-family="Helvetica,sans-Serif" font-size="10.00">zero_mate::gui::CTop</text>
<text text-anchor="middle" x="226" y="-7" font-family="Helvetica,sans-Serif" font-size="10.00">_Bar_Menu</text>
</a>
</g>
</g>
<!-- Node1&#45;&gt;Node15 -->
<g id="edge14_Node000001_Node000015" class="edge">
<title>Node1&#45;&gt;Node15</title>
<g id="a_edge14_Node000001_Node000015"><a xlink:title=" ">
<path fill="none" stroke="#63b8ff" d="M59.8,-301.73C62.93,-246.33 78.18,-113.21 152,-39 156.14,-34.84 161.01,-31.4 166.25,-28.55"/>
<polygon fill="#63b8ff" stroke="#63b8ff" points="56.3,-301.58 59.32,-311.74 63.3,-301.91 56.3,-301.58"/>
</a>
</g>
</g>
</g>
</svg>
