<?xml version="1.0" encoding="UTF-8" standalone="no"?>
<!DOCTYPE svg PUBLIC "-//W3C//DTD SVG 1.1//EN"
 "http://www.w3.org/Graphics/SVG/1.1/DTD/svg11.dtd">
<!-- Generated by graphviz version 2.43.0 (0)
 -->
<!-- Title: zero_mate::peripheral::CGPIO_Manager::Update_Pin_Function Pages: 1 -->
<svg width="717pt" height="116pt"
 viewBox="0.00 0.00 717.00 116.00" xmlns="http://www.w3.org/2000/svg" xmlns:xlink="http://www.w3.org/1999/xlink">
<g id="graph0" class="graph" transform="scale(1 1) rotate(0) translate(4 112)">
<title>zero_mate::peripheral::CGPIO_Manager::Update_Pin_Function</title>
<!-- Node1 -->
<g id="Node000001" class="node">
<title>Node1</title>
<g id="a_Node000001"><a xlink:title="Updates the function of all pins within a given register.">
<polygon fill="#999999" stroke="#666666" points="143,-62.5 0,-62.5 0,-21.5 143,-21.5 143,-62.5"/>
<text text-anchor="start" x="8" y="-50.5" font-family="Helvetica,sans-Serif" font-size="10.00">zero_mate::peripheral</text>
<text text-anchor="start" x="8" y="-39.5" font-family="Helvetica,sans-Serif" font-size="10.00">::CGPIO_Manager::Update</text>
<text text-anchor="middle" x="71.5" y="-28.5" font-family="Helvetica,sans-Serif" font-size="10.00">_Pin_Function</text>
</a>
</g>
</g>
<!-- Node2 -->
<g id="Node000002" class="node">
<title>Node2</title>
<g id="a_Node000002"><a xlink:href="classzero__mate_1_1utils_1_1CLogging__System.html#ade996da881888272ace7deaa82c975e9" target="_top" xlink:title="Logs a debug message via all registered loggers.">
<polygon fill="white" stroke="#666666" points="325,-57 179,-57 179,-27 325,-27 325,-57"/>
<text text-anchor="start" x="187" y="-45" font-family="Helvetica,sans-Serif" font-size="10.00">zero_mate::utils::CLogging</text>
<text text-anchor="middle" x="252" y="-34" font-family="Helvetica,sans-Serif" font-size="10.00">_System::Debug</text>
</a>
</g>
</g>
<!-- Node1&#45;&gt;Node2 -->
<g id="edge1_Node000001_Node000002" class="edge">
<title>Node1&#45;&gt;Node2</title>
<g id="a_edge1_Node000001_Node000002"><a xlink:title=" ">
<path fill="none" stroke="#63b8ff" d="M143.05,-42C151.52,-42 160.23,-42 168.86,-42"/>
<polygon fill="#63b8ff" stroke="#63b8ff" points="168.92,-45.5 178.92,-42 168.92,-38.5 168.92,-45.5"/>
</a>
</g>
</g>
<!-- Node3 -->
<g id="Node000003" class="node">
<title>Node3</title>
<g id="a_Node000003"><a xlink:href="classzero__mate_1_1utils_1_1CLogging__System.html#a71ed11c796553cbe8fd99773406a1060" target="_top" xlink:title="Creates a formatted message to be logged.">
<polygon fill="white" stroke="#666666" points="513,-89.5 361,-89.5 361,-48.5 513,-48.5 513,-89.5"/>
<text text-anchor="start" x="369" y="-77.5" font-family="Helvetica,sans-Serif" font-size="10.00">zero_mate::utils::CLogging</text>
<text text-anchor="start" x="369" y="-66.5" font-family="Helvetica,sans-Serif" font-size="10.00">_System::Create_Formatted</text>
<text text-anchor="middle" x="437" y="-55.5" font-family="Helvetica,sans-Serif" font-size="10.00">_Log_Msg</text>
</a>
</g>
</g>
<!-- Node2&#45;&gt;Node3 -->
<g id="edge2_Node000002_Node000003" class="edge">
<title>Node2&#45;&gt;Node3</title>
<g id="a_edge2_Node000002_Node000003"><a xlink:title=" ">
<path fill="none" stroke="#63b8ff" d="M325.06,-52.63C333.55,-53.88 342.26,-55.17 350.9,-56.44"/>
<polygon fill="#63b8ff" stroke="#63b8ff" points="350.59,-59.94 360.99,-57.93 351.61,-53.01 350.59,-59.94"/>
</a>
</g>
</g>
<!-- Node6 -->
<g id="Node000006" class="node">
<title>Node6</title>
<g id="a_Node000006"><a xlink:href="classzero__mate_1_1utils_1_1CLogging__System.html#ad371c67ef65763966ccf9291002e86f3" target="_top" xlink:title="Extract the filename from a given location within the source files.">
<polygon fill="white" stroke="#666666" points="511.5,-30 362.5,-30 362.5,0 511.5,0 511.5,-30"/>
<text text-anchor="start" x="370.5" y="-18" font-family="Helvetica,sans-Serif" font-size="10.00">zero_mate::utils::CLogging</text>
<text text-anchor="middle" x="437" y="-7" font-family="Helvetica,sans-Serif" font-size="10.00">_System::Extract_Filename</text>
</a>
</g>
</g>
<!-- Node2&#45;&gt;Node6 -->
<g id="edge5_Node000002_Node000006" class="edge">
<title>Node2&#45;&gt;Node6</title>
<g id="a_edge5_Node000002_Node000006"><a xlink:title=" ">
<path fill="none" stroke="#63b8ff" d="M325.06,-31.37C334.1,-30.03 343.4,-28.66 352.59,-27.31"/>
<polygon fill="#63b8ff" stroke="#63b8ff" points="353.12,-30.77 362.5,-25.84 352.1,-23.84 353.12,-30.77"/>
</a>
</g>
</g>
<!-- Node4 -->
<g id="Node000004" class="node">
<title>Node4</title>
<g id="a_Node000004"><a xlink:href="classzero__mate_1_1utils_1_1CLogging__System.html#aa70c102c805079042ffea2a6f2a5ad64" target="_top" xlink:title="Formats a given timestamp.">
<polygon fill="white" stroke="#666666" points="709,-108 549,-108 549,-78 709,-78 709,-108"/>
<text text-anchor="start" x="557" y="-96" font-family="Helvetica,sans-Serif" font-size="10.00">zero_mate::utils::CLogging</text>
<text text-anchor="middle" x="629" y="-85" font-family="Helvetica,sans-Serif" font-size="10.00">_System::Format_Timestamp</text>
</a>
</g>
</g>
<!-- Node3&#45;&gt;Node4 -->
<g id="edge3_Node000003_Node000004" class="edge">
<title>Node3&#45;&gt;Node4</title>
<g id="a_edge3_Node000003_Node000004"><a xlink:title=" ">
<path fill="none" stroke="#63b8ff" d="M513.09,-78.49C521.52,-79.55 530.16,-80.64 538.74,-81.73"/>
<polygon fill="#63b8ff" stroke="#63b8ff" points="538.41,-85.21 548.77,-82.99 539.29,-78.27 538.41,-85.21"/>
</a>
</g>
</g>
<!-- Node5 -->
<g id="Node000005" class="node">
<title>Node5</title>
<g id="a_Node000005"><a xlink:href="classzero__mate_1_1utils_1_1CLogging__System.html#ae3ca637537dde05e0b9119145c840331" target="_top" xlink:title="Returns the current timestamp that will be used in a log message.">
<polygon fill="white" stroke="#666666" points="702,-60 556,-60 556,-30 702,-30 702,-60"/>
<text text-anchor="start" x="564" y="-48" font-family="Helvetica,sans-Serif" font-size="10.00">zero_mate::utils::CLogging</text>
<text text-anchor="middle" x="629" y="-37" font-family="Helvetica,sans-Serif" font-size="10.00">_System::Get_Timestamp</text>
</a>
</g>
</g>
<!-- Node3&#45;&gt;Node5 -->
<g id="edge4_Node000003_Node000005" class="edge">
<title>Node3&#45;&gt;Node5</title>
<g id="a_edge4_Node000003_Node000005"><a xlink:title=" ">
<path fill="none" stroke="#63b8ff" d="M513.09,-59.51C523.89,-58.15 535.05,-56.74 545.98,-55.36"/>
<polygon fill="#63b8ff" stroke="#63b8ff" points="546.45,-58.83 555.93,-54.1 545.57,-51.88 546.45,-58.83"/>
</a>
</g>
</g>
</g>
</svg>
