<?xml version="1.0" encoding="UTF-8" standalone="no"?>
<!DOCTYPE svg PUBLIC "-//W3C//DTD SVG 1.1//EN"
 "http://www.w3.org/Graphics/SVG/1.1/DTD/svg11.dtd">
<!-- Generated by graphviz version 2.43.0 (0)
 -->
<!-- Title: zero_mate::gui::CRegisters_Window::Render_Register_Modes_Tabs Pages: 1 -->
<svg width="1517pt" height="292pt"
 viewBox="0.00 0.00 1517.00 291.50" xmlns="http://www.w3.org/2000/svg" xmlns:xlink="http://www.w3.org/1999/xlink">
<g id="graph0" class="graph" transform="scale(1 1) rotate(0) translate(4 287.5)">
<title>zero_mate::gui::CRegisters_Window::Render_Register_Modes_Tabs</title>
<!-- Node1 -->
<g id="Node000001" class="node">
<title>Node1</title>
<g id="a_Node000001"><a xlink:title="Renders tabs for different CPU modes (SVC, IRQ, FIQ, etc.)">
<polygon fill="#999999" stroke="#666666" points="148,-172.5 0,-172.5 0,-131.5 148,-131.5 148,-172.5"/>
<text text-anchor="start" x="8" y="-160.5" font-family="Helvetica,sans-Serif" font-size="10.00">zero_mate::gui::CRegisters</text>
<text text-anchor="start" x="8" y="-149.5" font-family="Helvetica,sans-Serif" font-size="10.00">_Window::Render_Register</text>
<text text-anchor="middle" x="74" y="-138.5" font-family="Helvetica,sans-Serif" font-size="10.00">_Modes_Tabs</text>
</a>
</g>
</g>
<!-- Node2 -->
<g id="Node000002" class="node">
<title>Node2</title>
<g id="a_Node000002"><a xlink:href="classzero__mate_1_1gui_1_1CRegisters__Window.html#a25928c2ab0086154b73843f84a831953" target="_top" xlink:title="Renders different format tabs of a given CPU mode.">
<polygon fill="white" stroke="#666666" points="357,-167 184,-167 184,-137 357,-137 357,-167"/>
<text text-anchor="start" x="192" y="-155" font-family="Helvetica,sans-Serif" font-size="10.00">zero_mate::gui::CRegisters</text>
<text text-anchor="middle" x="270.5" y="-144" font-family="Helvetica,sans-Serif" font-size="10.00">_Window::Render_Register_Tabs</text>
</a>
</g>
</g>
<!-- Node1&#45;&gt;Node2 -->
<g id="edge1_Node000001_Node000002" class="edge">
<title>Node1&#45;&gt;Node2</title>
<g id="a_edge1_Node000001_Node000002"><a xlink:title=" ">
<path fill="none" stroke="#63b8ff" d="M148.25,-152C156.61,-152 165.23,-152 173.82,-152"/>
<polygon fill="#63b8ff" stroke="#63b8ff" points="173.89,-155.5 183.89,-152 173.89,-148.5 173.89,-155.5"/>
</a>
</g>
</g>
<!-- Node3 -->
<g id="Node000003" class="node">
<title>Node3</title>
<g id="a_Node000003"><a xlink:href="classzero__mate_1_1gui_1_1CRegisters__Window.html#ab910a37cb5f1cd13e2566c87a6bc0121" target="_top" xlink:title="Renders flags of the CPSR register.">
<polygon fill="white" stroke="#666666" points="565.5,-234 402.5,-234 402.5,-204 565.5,-204 565.5,-234"/>
<text text-anchor="start" x="410.5" y="-222" font-family="Helvetica,sans-Serif" font-size="10.00">zero_mate::gui::CRegisters</text>
<text text-anchor="middle" x="484" y="-211" font-family="Helvetica,sans-Serif" font-size="10.00">_Window::Render_CPSR_Flags</text>
</a>
</g>
</g>
<!-- Node2&#45;&gt;Node3 -->
<g id="edge2_Node000002_Node000003" class="edge">
<title>Node2&#45;&gt;Node3</title>
<g id="a_edge2_Node000002_Node000003"><a xlink:title=" ">
<path fill="none" stroke="#63b8ff" d="M318.96,-167.04C350.56,-177.04 392.24,-190.25 425.68,-200.84"/>
<polygon fill="#63b8ff" stroke="#63b8ff" points="424.74,-204.21 435.33,-203.9 426.85,-197.54 424.74,-204.21"/>
</a>
</g>
</g>
<!-- Node5 -->
<g id="Node000005" class="node">
<title>Node5</title>
<g id="a_Node000005"><a xlink:href="classzero__mate_1_1gui_1_1CRegisters__Window.html#a1779ad3caf45c3e8dd342ef8057dfff7" target="_top" xlink:title="Renders table with CPU registers of a given CPU mode.">
<polygon fill="white" stroke="#666666" points="575,-143 393,-143 393,-113 575,-113 575,-143"/>
<text text-anchor="start" x="401" y="-131" font-family="Helvetica,sans-Serif" font-size="10.00">zero_mate::gui::CRegisters</text>
<text text-anchor="middle" x="484" y="-120" font-family="Helvetica,sans-Serif" font-size="10.00">_Window::Render_Registers_Table</text>
</a>
</g>
</g>
<!-- Node2&#45;&gt;Node5 -->
<g id="edge4_Node000002_Node000005" class="edge">
<title>Node2&#45;&gt;Node5</title>
<g id="a_edge4_Node000002_Node000005"><a xlink:title=" ">
<path fill="none" stroke="#63b8ff" d="M357.22,-142.27C365.61,-141.32 374.18,-140.35 382.71,-139.38"/>
<polygon fill="#63b8ff" stroke="#63b8ff" points="383.13,-142.85 392.68,-138.25 382.35,-135.9 383.13,-142.85"/>
</a>
</g>
</g>
<!-- Node4 -->
<g id="Node000004" class="node">
<title>Node4</title>
<g id="a_Node000004"><a xlink:href="classzero__mate_1_1arm1176jzf__s_1_1CCPU__Context.html#a0013811c3eef6d91ddfd2423a08889ef" target="_top" xlink:title="Checks whether a given flag is set in the CPSR register of the current CPU mode.">
<polygon fill="white" stroke="#666666" points="755.5,-283.5 625.5,-283.5 625.5,-242.5 755.5,-242.5 755.5,-283.5"/>
<text text-anchor="start" x="633.5" y="-271.5" font-family="Helvetica,sans-Serif" font-size="10.00">zero_mate::arm1176jzf</text>
<text text-anchor="start" x="633.5" y="-260.5" font-family="Helvetica,sans-Serif" font-size="10.00">_s::CCPU_Context::Is</text>
<text text-anchor="middle" x="690.5" y="-249.5" font-family="Helvetica,sans-Serif" font-size="10.00">_Flag_Set</text>
</a>
</g>
</g>
<!-- Node3&#45;&gt;Node4 -->
<g id="edge3_Node000003_Node000004" class="edge">
<title>Node3&#45;&gt;Node4</title>
<g id="a_edge3_Node000003_Node000004"><a xlink:title=" ">
<path fill="none" stroke="#63b8ff" d="M554.81,-234.02C574.31,-238.21 595.56,-242.79 615.3,-247.04"/>
<polygon fill="#63b8ff" stroke="#63b8ff" points="614.65,-250.48 625.17,-249.16 616.13,-243.63 614.65,-250.48"/>
</a>
</g>
</g>
<!-- Node6 -->
<g id="Node000006" class="node">
<title>Node6</title>
<g id="a_Node000006"><a xlink:href="classzero__mate_1_1arm1176jzf__s_1_1CCPU__Context.html#acf66c6ff905975912dbf52133ddfeceb" target="_top" xlink:title="Returns a reference the CPSR register of the current CPU mode.">
<polygon fill="white" stroke="#666666" points="769.5,-224 611.5,-224 611.5,-194 769.5,-194 769.5,-224"/>
<text text-anchor="start" x="619.5" y="-212" font-family="Helvetica,sans-Serif" font-size="10.00">zero_mate::arm1176jzf</text>
<text text-anchor="middle" x="690.5" y="-201" font-family="Helvetica,sans-Serif" font-size="10.00">_s::CCPU_Context::Get_CPSR</text>
</a>
</g>
</g>
<!-- Node5&#45;&gt;Node6 -->
<g id="edge5_Node000005_Node000006" class="edge">
<title>Node5&#45;&gt;Node6</title>
<g id="a_edge5_Node000005_Node000006"><a xlink:title=" ">
<path fill="none" stroke="#63b8ff" d="M515.35,-143.05C540.59,-155.25 577.64,-172.41 611,-185 616.17,-186.95 621.57,-188.86 627.01,-190.69"/>
<polygon fill="#63b8ff" stroke="#63b8ff" points="626.23,-194.12 636.83,-193.91 628.42,-187.47 626.23,-194.12"/>
</a>
</g>
</g>
<!-- Node7 -->
<g id="Node000007" class="node">
<title>Node7</title>
<g id="a_Node000007"><a xlink:href="classzero__mate_1_1arm1176jzf__s_1_1CCPU__Context.html#a22efcb34f3c1bd9f46f1f75771103ef9" target="_top" xlink:title="Returns a const reference to a register of a particular CPU mode.">
<polygon fill="white" stroke="#666666" points="755.5,-175.5 625.5,-175.5 625.5,-134.5 755.5,-134.5 755.5,-175.5"/>
<text text-anchor="start" x="633.5" y="-163.5" font-family="Helvetica,sans-Serif" font-size="10.00">zero_mate::arm1176jzf</text>
<text text-anchor="start" x="633.5" y="-152.5" font-family="Helvetica,sans-Serif" font-size="10.00">_s::CCPU_Context::Get</text>
<text text-anchor="middle" x="690.5" y="-141.5" font-family="Helvetica,sans-Serif" font-size="10.00">_Register</text>
</a>
</g>
</g>
<!-- Node5&#45;&gt;Node7 -->
<g id="edge6_Node000005_Node000007" class="edge">
<title>Node5&#45;&gt;Node7</title>
<g id="a_edge6_Node000005_Node000007"><a xlink:title=" ">
<path fill="none" stroke="#63b8ff" d="M575.29,-139.92C588.63,-141.68 602.25,-143.48 615.21,-145.19"/>
<polygon fill="#63b8ff" stroke="#63b8ff" points="615.08,-148.7 625.45,-146.54 616,-141.76 615.08,-148.7"/>
</a>
</g>
</g>
<!-- Node8 -->
<g id="Node000008" class="node">
<title>Node8</title>
<g id="a_Node000008"><a xlink:href="classzero__mate_1_1arm1176jzf__s_1_1CCPU__Context.html#ae00681efcbc4adfcfde001a67c5baeca" target="_top" xlink:title="Returns the value of the SPSR register of the current CPU mode.">
<polygon fill="white" stroke="#666666" points="769,-116 612,-116 612,-86 769,-86 769,-116"/>
<text text-anchor="start" x="620" y="-104" font-family="Helvetica,sans-Serif" font-size="10.00">zero_mate::arm1176jzf</text>
<text text-anchor="middle" x="690.5" y="-93" font-family="Helvetica,sans-Serif" font-size="10.00">_s::CCPU_Context::Get_SPSR</text>
</a>
</g>
</g>
<!-- Node5&#45;&gt;Node8 -->
<g id="edge7_Node000005_Node000008" class="edge">
<title>Node5&#45;&gt;Node8</title>
<g id="a_edge7_Node000005_Node000008"><a xlink:title=" ">
<path fill="none" stroke="#63b8ff" d="M575.29,-116.08C584.06,-114.92 592.95,-113.75 601.69,-112.59"/>
<polygon fill="#63b8ff" stroke="#63b8ff" points="602.41,-116.03 611.87,-111.25 601.5,-109.09 602.41,-116.03"/>
</a>
</g>
</g>
<!-- Node15 -->
<g id="Node000015" class="node">
<title>Node15</title>
<g id="a_Node000015"><a xlink:href="classzero__mate_1_1arm1176jzf__s_1_1CCPU__Context.html#a6fc387fa0b0dd040c4e2463606d933e4" target="_top" xlink:title="Checks if the CPU mode passed in as a parameter supports the SPSR register or not.">
<polygon fill="white" stroke="#666666" points="1117,-78.5 987,-78.5 987,-37.5 1117,-37.5 1117,-78.5"/>
<text text-anchor="start" x="995" y="-66.5" font-family="Helvetica,sans-Serif" font-size="10.00">zero_mate::arm1176jzf</text>
<text text-anchor="start" x="995" y="-55.5" font-family="Helvetica,sans-Serif" font-size="10.00">_s::CCPU_Context::Is</text>
<text text-anchor="middle" x="1052" y="-44.5" font-family="Helvetica,sans-Serif" font-size="10.00">_Mode_With_No_SPSR</text>
</a>
</g>
</g>
<!-- Node5&#45;&gt;Node15 -->
<g id="edge15_Node000005_Node000015" class="edge">
<title>Node5&#45;&gt;Node15</title>
<g id="a_edge15_Node000005_Node000015"><a xlink:title=" ">
<path fill="none" stroke="#63b8ff" d="M514.13,-112.87C539.09,-100.73 576.41,-84.51 611,-77 737.14,-49.6 888.25,-50.08 976.55,-53.58"/>
<polygon fill="#63b8ff" stroke="#63b8ff" points="976.6,-57.08 986.74,-54.01 976.89,-50.09 976.6,-57.08"/>
</a>
</g>
</g>
<!-- Node16 -->
<g id="Node000016" class="node">
<title>Node16</title>
<g id="a_Node000016"><a xlink:href="classzero__mate_1_1gui_1_1CRegisters__Window.html#a5240e615ada1d612975e9339ae715f1e" target="_top" xlink:title="Renders a raw integer value in a given format.">
<polygon fill="white" stroke="#666666" points="770,-30 611,-30 611,0 770,0 770,-30"/>
<text text-anchor="start" x="619" y="-18" font-family="Helvetica,sans-Serif" font-size="10.00">zero_mate::gui::CRegisters</text>
<text text-anchor="middle" x="690.5" y="-7" font-family="Helvetica,sans-Serif" font-size="10.00">_Window::Render_Raw_Value</text>
</a>
</g>
</g>
<!-- Node5&#45;&gt;Node16 -->
<g id="edge16_Node000005_Node000016" class="edge">
<title>Node5&#45;&gt;Node16</title>
<g id="a_edge16_Node000005_Node000016"><a xlink:title=" ">
<path fill="none" stroke="#63b8ff" d="M504.62,-112.8C528.68,-94.67 571.17,-64.28 611,-44 618.18,-40.34 625.93,-36.91 633.67,-33.78"/>
<polygon fill="#63b8ff" stroke="#63b8ff" points="635.03,-37.01 643.07,-30.11 632.48,-30.49 635.03,-37.01"/>
</a>
</g>
</g>
<!-- Node9 -->
<g id="Node000009" class="node">
<title>Node9</title>
<g id="a_Node000009"><a xlink:href="classzero__mate_1_1arm1176jzf__s_1_1CCPU__Context.html#a050dada520ca82a21874045815c596a8" target="_top" xlink:title=" ">
<polygon fill="white" stroke="#666666" points="943,-127.5 806,-127.5 806,-86.5 943,-86.5 943,-127.5"/>
<text text-anchor="start" x="814" y="-115.5" font-family="Helvetica,sans-Serif" font-size="10.00">zero_mate::arm1176jzf</text>
<text text-anchor="start" x="814" y="-104.5" font-family="Helvetica,sans-Serif" font-size="10.00">_s::CCPU_Context::Verify</text>
<text text-anchor="middle" x="874.5" y="-93.5" font-family="Helvetica,sans-Serif" font-size="10.00">_SPSR_Accessibility</text>
</a>
</g>
</g>
<!-- Node8&#45;&gt;Node9 -->
<g id="edge8_Node000008_Node000009" class="edge">
<title>Node8&#45;&gt;Node9</title>
<g id="a_edge8_Node000008_Node000009"><a xlink:title=" ">
<path fill="none" stroke="#63b8ff" d="M769.21,-103.56C777.96,-103.85 786.88,-104.14 795.63,-104.43"/>
<polygon fill="#63b8ff" stroke="#63b8ff" points="795.7,-107.94 805.81,-104.77 795.93,-100.94 795.7,-107.94"/>
</a>
</g>
</g>
<!-- Node10 -->
<g id="Node000010" class="node">
<title>Node10</title>
<g id="a_Node000010"><a xlink:href="classzero__mate_1_1utils_1_1CLogging__System.html#a57ed77e1a5cf822cea532cc5e05c3f60" target="_top" xlink:title="Logs an error message via all registered loggers.">
<polygon fill="white" stroke="#666666" points="1125,-127 979,-127 979,-97 1125,-97 1125,-127"/>
<text text-anchor="start" x="987" y="-115" font-family="Helvetica,sans-Serif" font-size="10.00">zero_mate::utils::CLogging</text>
<text text-anchor="middle" x="1052" y="-104" font-family="Helvetica,sans-Serif" font-size="10.00">_System::Error</text>
</a>
</g>
</g>
<!-- Node9&#45;&gt;Node10 -->
<g id="edge9_Node000009_Node000010" class="edge">
<title>Node9&#45;&gt;Node10</title>
<g id="a_edge9_Node000009_Node000010"><a xlink:title=" ">
<path fill="none" stroke="#63b8ff" d="M943.1,-108.93C951.5,-109.17 960.16,-109.41 968.75,-109.66"/>
<polygon fill="#63b8ff" stroke="#63b8ff" points="968.68,-113.16 978.77,-109.94 968.88,-106.16 968.68,-113.16"/>
</a>
</g>
</g>
<!-- Node9&#45;&gt;Node15 -->
<g id="edge14_Node000009_Node000015" class="edge">
<title>Node9&#45;&gt;Node15</title>
<g id="a_edge14_Node000009_Node000015"><a xlink:title=" ">
<path fill="none" stroke="#63b8ff" d="M943.1,-88.13C954.23,-85.02 965.81,-81.78 977.09,-78.64"/>
<polygon fill="#63b8ff" stroke="#63b8ff" points="978.2,-81.96 986.89,-75.9 976.32,-75.22 978.2,-81.96"/>
</a>
</g>
</g>
<!-- Node11 -->
<g id="Node000011" class="node">
<title>Node11</title>
<g id="a_Node000011"><a xlink:href="classzero__mate_1_1utils_1_1CLogging__System.html#a71ed11c796553cbe8fd99773406a1060" target="_top" xlink:title="Creates a formatted message to be logged.">
<polygon fill="white" stroke="#666666" points="1313,-159.5 1161,-159.5 1161,-118.5 1313,-118.5 1313,-159.5"/>
<text text-anchor="start" x="1169" y="-147.5" font-family="Helvetica,sans-Serif" font-size="10.00">zero_mate::utils::CLogging</text>
<text text-anchor="start" x="1169" y="-136.5" font-family="Helvetica,sans-Serif" font-size="10.00">_System::Create_Formatted</text>
<text text-anchor="middle" x="1237" y="-125.5" font-family="Helvetica,sans-Serif" font-size="10.00">_Log_Msg</text>
</a>
</g>
</g>
<!-- Node10&#45;&gt;Node11 -->
<g id="edge10_Node000010_Node000011" class="edge">
<title>Node10&#45;&gt;Node11</title>
<g id="a_edge10_Node000010_Node000011"><a xlink:title=" ">
<path fill="none" stroke="#63b8ff" d="M1125.06,-122.63C1133.55,-123.88 1142.26,-125.17 1150.9,-126.44"/>
<polygon fill="#63b8ff" stroke="#63b8ff" points="1150.59,-129.94 1160.99,-127.93 1151.61,-123.01 1150.59,-129.94"/>
</a>
</g>
</g>
<!-- Node14 -->
<g id="Node000014" class="node">
<title>Node14</title>
<g id="a_Node000014"><a xlink:href="classzero__mate_1_1utils_1_1CLogging__System.html#ad371c67ef65763966ccf9291002e86f3" target="_top" xlink:title="Extract the filename from a given location within the source files.">
<polygon fill="white" stroke="#666666" points="1311.5,-100 1162.5,-100 1162.5,-70 1311.5,-70 1311.5,-100"/>
<text text-anchor="start" x="1170.5" y="-88" font-family="Helvetica,sans-Serif" font-size="10.00">zero_mate::utils::CLogging</text>
<text text-anchor="middle" x="1237" y="-77" font-family="Helvetica,sans-Serif" font-size="10.00">_System::Extract_Filename</text>
</a>
</g>
</g>
<!-- Node10&#45;&gt;Node14 -->
<g id="edge13_Node000010_Node000014" class="edge">
<title>Node10&#45;&gt;Node14</title>
<g id="a_edge13_Node000010_Node000014"><a xlink:title=" ">
<path fill="none" stroke="#63b8ff" d="M1125.06,-101.37C1134.1,-100.03 1143.4,-98.66 1152.59,-97.31"/>
<polygon fill="#63b8ff" stroke="#63b8ff" points="1153.12,-100.77 1162.5,-95.84 1152.1,-93.84 1153.12,-100.77"/>
</a>
</g>
</g>
<!-- Node12 -->
<g id="Node000012" class="node">
<title>Node12</title>
<g id="a_Node000012"><a xlink:href="classzero__mate_1_1utils_1_1CLogging__System.html#aa70c102c805079042ffea2a6f2a5ad64" target="_top" xlink:title="Formats a given timestamp.">
<polygon fill="white" stroke="#666666" points="1509,-178 1349,-178 1349,-148 1509,-148 1509,-178"/>
<text text-anchor="start" x="1357" y="-166" font-family="Helvetica,sans-Serif" font-size="10.00">zero_mate::utils::CLogging</text>
<text text-anchor="middle" x="1429" y="-155" font-family="Helvetica,sans-Serif" font-size="10.00">_System::Format_Timestamp</text>
</a>
</g>
</g>
<!-- Node11&#45;&gt;Node12 -->
<g id="edge11_Node000011_Node000012" class="edge">
<title>Node11&#45;&gt;Node12</title>
<g id="a_edge11_Node000011_Node000012"><a xlink:title=" ">
<path fill="none" stroke="#63b8ff" d="M1313.09,-148.49C1321.52,-149.55 1330.16,-150.64 1338.74,-151.73"/>
<polygon fill="#63b8ff" stroke="#63b8ff" points="1338.41,-155.21 1348.77,-152.99 1339.29,-148.27 1338.41,-155.21"/>
</a>
</g>
</g>
<!-- Node13 -->
<g id="Node000013" class="node">
<title>Node13</title>
<g id="a_Node000013"><a xlink:href="classzero__mate_1_1utils_1_1CLogging__System.html#ae3ca637537dde05e0b9119145c840331" target="_top" xlink:title="Returns the current timestamp that will be used in a log message.">
<polygon fill="white" stroke="#666666" points="1502,-130 1356,-130 1356,-100 1502,-100 1502,-130"/>
<text text-anchor="start" x="1364" y="-118" font-family="Helvetica,sans-Serif" font-size="10.00">zero_mate::utils::CLogging</text>
<text text-anchor="middle" x="1429" y="-107" font-family="Helvetica,sans-Serif" font-size="10.00">_System::Get_Timestamp</text>
</a>
</g>
</g>
<!-- Node11&#45;&gt;Node13 -->
<g id="edge12_Node000011_Node000013" class="edge">
<title>Node11&#45;&gt;Node13</title>
<g id="a_edge12_Node000011_Node000013"><a xlink:title=" ">
<path fill="none" stroke="#63b8ff" d="M1313.09,-129.51C1323.89,-128.15 1335.05,-126.74 1345.98,-125.36"/>
<polygon fill="#63b8ff" stroke="#63b8ff" points="1346.45,-128.83 1355.93,-124.1 1345.57,-121.88 1346.45,-128.83"/>
</a>
</g>
</g>
</g>
</svg>
