<?xml version="1.0" encoding="UTF-8" standalone="no"?>
<!DOCTYPE svg PUBLIC "-//W3C//DTD SVG 1.1//EN"
 "http://www.w3.org/Graphics/SVG/1.1/DTD/svg11.dtd">
<!-- Generated by graphviz version 2.43.0 (0)
 -->
<!-- Title: zero_mate::arm1176jzf_s::CCPU_Context::Is_In_Privileged_Mode Pages: 1 -->
<svg width="782pt" height="296pt"
 viewBox="0.00 0.00 782.00 295.50" xmlns="http://www.w3.org/2000/svg" xmlns:xlink="http://www.w3.org/1999/xlink">
<g id="graph0" class="graph" transform="scale(1 1) rotate(0) translate(4 291.5)">
<title>zero_mate::arm1176jzf_s::CCPU_Context::Is_In_Privileged_Mode</title>
<!-- Node1 -->
<g id="Node000001" class="node">
<title>Node1</title>
<g id="a_Node000001"><a xlink:title="Checks if the CPU is in a privileged mode.">
<polygon fill="#999999" stroke="#666666" points="774,-143 644,-143 644,-102 774,-102 774,-143"/>
<text text-anchor="start" x="652" y="-131" font-family="Helvetica,sans-Serif" font-size="10.00">zero_mate::arm1176jzf</text>
<text text-anchor="start" x="652" y="-120" font-family="Helvetica,sans-Serif" font-size="10.00">_s::CCPU_Context::Is</text>
<text text-anchor="middle" x="709" y="-109" font-family="Helvetica,sans-Serif" font-size="10.00">_In_Privileged_Mode</text>
</a>
</g>
</g>
<!-- Node2 -->
<g id="Node000002" class="node">
<title>Node2</title>
<g id="a_Node000002"><a xlink:href="classzero__mate_1_1arm1176jzf__s_1_1CCPU__Core.html#a0dbd5d6ffc531f762b49956d27f93be3" target="_top" xlink:title="Checks whether a given coprocessor can be accessed from the current CPU mode.">
<polygon fill="white" stroke="#666666" points="608,-245 455,-245 455,-204 608,-204 608,-245"/>
<text text-anchor="start" x="463" y="-233" font-family="Helvetica,sans-Serif" font-size="10.00">zero_mate::arm1176jzf</text>
<text text-anchor="start" x="463" y="-222" font-family="Helvetica,sans-Serif" font-size="10.00">_s::CCPU_Core::Checks</text>
<text text-anchor="middle" x="531.5" y="-211" font-family="Helvetica,sans-Serif" font-size="10.00">_Coprocessor_Access_Mode</text>
</a>
</g>
</g>
<!-- Node1&#45;&gt;Node2 -->
<g id="edge1_Node000001_Node000002" class="edge">
<title>Node1&#45;&gt;Node2</title>
<g id="a_edge1_Node000001_Node000002"><a xlink:title=" ">
<path fill="none" stroke="#63b8ff" d="M674.86,-149.52C656.02,-164.06 631.54,-181.61 608,-194.5 601.94,-197.82 595.43,-200.97 588.87,-203.89"/>
<polygon fill="#63b8ff" stroke="#63b8ff" points="677.12,-152.2 682.84,-143.29 672.81,-146.69 677.12,-152.2"/>
</a>
</g>
</g>
<!-- Node7 -->
<g id="Node000007" class="node">
<title>Node7</title>
<g id="a_Node000007"><a xlink:href="classzero__mate_1_1arm1176jzf__s_1_1CCPU__Core.html#acd8902811a86afabf464f121d58628ee" target="_top" xlink:title="Executes a CPS instruction.">
<polygon fill="white" stroke="#666666" points="597.5,-185.5 465.5,-185.5 465.5,-155.5 597.5,-155.5 597.5,-185.5"/>
<text text-anchor="start" x="473.5" y="-173.5" font-family="Helvetica,sans-Serif" font-size="10.00">zero_mate::arm1176jzf</text>
<text text-anchor="middle" x="531.5" y="-162.5" font-family="Helvetica,sans-Serif" font-size="10.00">_s::CCPU_Core::Execute</text>
</a>
</g>
</g>
<!-- Node1&#45;&gt;Node7 -->
<g id="edge6_Node000001_Node000007" class="edge">
<title>Node1&#45;&gt;Node7</title>
<g id="a_edge6_Node000001_Node000007"><a xlink:title=" ">
<path fill="none" stroke="#63b8ff" d="M633.61,-142.85C618.18,-147.07 602.19,-151.44 587.6,-155.43"/>
<polygon fill="#63b8ff" stroke="#63b8ff" points="634.92,-146.12 643.65,-140.1 633.08,-139.36 634.92,-146.12"/>
</a>
</g>
</g>
<!-- Node8 -->
<g id="Node000008" class="node">
<title>Node8</title>
<g id="a_Node000008"><a xlink:href="classzero__mate_1_1arm1176jzf__s_1_1CCPU__Core.html#a28607032a48bea557d81eec0460f4aa6" target="_top" xlink:title="Executes an RFE instruction.">
<polygon fill="white" stroke="#666666" points="597.5,-137.5 465.5,-137.5 465.5,-107.5 597.5,-107.5 597.5,-137.5"/>
<text text-anchor="start" x="473.5" y="-125.5" font-family="Helvetica,sans-Serif" font-size="10.00">zero_mate::arm1176jzf</text>
<text text-anchor="middle" x="531.5" y="-114.5" font-family="Helvetica,sans-Serif" font-size="10.00">_s::CCPU_Core::Execute</text>
</a>
</g>
</g>
<!-- Node1&#45;&gt;Node8 -->
<g id="edge7_Node000001_Node000008" class="edge">
<title>Node1&#45;&gt;Node8</title>
<g id="a_edge7_Node000001_Node000008"><a xlink:title=" ">
<path fill="none" stroke="#63b8ff" d="M633.35,-122.5C621.5,-122.5 609.33,-122.5 597.73,-122.5"/>
<polygon fill="#63b8ff" stroke="#63b8ff" points="633.65,-126 643.65,-122.5 633.65,-119 633.65,-126"/>
</a>
</g>
</g>
<!-- Node9 -->
<g id="Node000009" class="node">
<title>Node9</title>
<g id="a_Node000009"><a xlink:href="classzero__mate_1_1arm1176jzf__s_1_1CCPU__Core.html#aa96f69190ff05fe80c310e85b4d1002c" target="_top" xlink:title="Executes an SRS instruction.">
<polygon fill="white" stroke="#666666" points="597.5,-89.5 465.5,-89.5 465.5,-59.5 597.5,-59.5 597.5,-89.5"/>
<text text-anchor="start" x="473.5" y="-77.5" font-family="Helvetica,sans-Serif" font-size="10.00">zero_mate::arm1176jzf</text>
<text text-anchor="middle" x="531.5" y="-66.5" font-family="Helvetica,sans-Serif" font-size="10.00">_s::CCPU_Core::Execute</text>
</a>
</g>
</g>
<!-- Node1&#45;&gt;Node9 -->
<g id="edge8_Node000001_Node000009" class="edge">
<title>Node1&#45;&gt;Node9</title>
<g id="a_edge8_Node000001_Node000009"><a xlink:title=" ">
<path fill="none" stroke="#63b8ff" d="M633.61,-102.15C618.18,-97.93 602.19,-93.56 587.6,-89.57"/>
<polygon fill="#63b8ff" stroke="#63b8ff" points="633.08,-105.64 643.65,-104.9 634.92,-98.88 633.08,-105.64"/>
</a>
</g>
</g>
<!-- Node10 -->
<g id="Node000010" class="node">
<title>Node10</title>
<g id="a_Node000010"><a xlink:href="classzero__mate_1_1arm1176jzf__s_1_1mmu_1_1CMMU.html#a0e32ece3d5ac208c69fa5573fcea3205" target="_top" xlink:title="Verifies access privileges when accessing a page (virtual address).">
<polygon fill="white" stroke="#666666" points="597,-41 466,-41 466,0 597,0 597,-41"/>
<text text-anchor="start" x="474" y="-29" font-family="Helvetica,sans-Serif" font-size="10.00">zero_mate::arm1176jzf</text>
<text text-anchor="start" x="474" y="-18" font-family="Helvetica,sans-Serif" font-size="10.00">_s::mmu::CMMU::Verify</text>
<text text-anchor="middle" x="531.5" y="-7" font-family="Helvetica,sans-Serif" font-size="10.00">_Access_Privileges</text>
</a>
</g>
</g>
<!-- Node1&#45;&gt;Node10 -->
<g id="edge9_Node000001_Node000010" class="edge">
<title>Node1&#45;&gt;Node10</title>
<g id="a_edge9_Node000001_Node000010"><a xlink:title=" ">
<path fill="none" stroke="#63b8ff" d="M674.86,-95.48C656.02,-80.94 631.54,-63.39 608,-50.5 601.94,-47.18 595.43,-44.03 588.87,-41.11"/>
<polygon fill="#63b8ff" stroke="#63b8ff" points="672.81,-98.31 682.84,-101.71 677.12,-92.8 672.81,-98.31"/>
</a>
</g>
</g>
<!-- Node3 -->
<g id="Node000003" class="node">
<title>Node3</title>
<g id="a_Node000003"><a xlink:href="classzero__mate_1_1arm1176jzf__s_1_1CCPU__Core.html#a9d662bbaf486e8924698ecf2208d0d73" target="_top" xlink:title="Performs coprocessor accessibility checks.">
<polygon fill="white" stroke="#666666" points="419,-245 230,-245 230,-204 419,-204 419,-245"/>
<text text-anchor="start" x="238" y="-233" font-family="Helvetica,sans-Serif" font-size="10.00">zero_mate::arm1176jzf</text>
<text text-anchor="start" x="238" y="-222" font-family="Helvetica,sans-Serif" font-size="10.00">_s::CCPU_Core::Perform</text>
<text text-anchor="middle" x="324.5" y="-211" font-family="Helvetica,sans-Serif" font-size="10.00">_Coprocessor_Accessibility_Checks</text>
</a>
</g>
</g>
<!-- Node2&#45;&gt;Node3 -->
<g id="edge2_Node000002_Node000003" class="edge">
<title>Node2&#45;&gt;Node3</title>
<g id="a_edge2_Node000002_Node000003"><a xlink:title=" ">
<path fill="none" stroke="#63b8ff" d="M444.55,-224.5C436.12,-224.5 427.53,-224.5 419.02,-224.5"/>
<polygon fill="#63b8ff" stroke="#63b8ff" points="444.75,-228 454.75,-224.5 444.75,-221 444.75,-228"/>
</a>
</g>
</g>
<!-- Node4 -->
<g id="Node000004" class="node">
<title>Node4</title>
<g id="a_Node000004"><a xlink:href="classzero__mate_1_1arm1176jzf__s_1_1CCPU__Core.html#a13f003234822a261f628d8339fbff25c" target="_top" xlink:title="Executes a coprocessor data operation instruction (coprocessor instruction (3)).">
<polygon fill="white" stroke="#666666" points="163,-287.5 31,-287.5 31,-257.5 163,-257.5 163,-287.5"/>
<text text-anchor="start" x="39" y="-275.5" font-family="Helvetica,sans-Serif" font-size="10.00">zero_mate::arm1176jzf</text>
<text text-anchor="middle" x="97" y="-264.5" font-family="Helvetica,sans-Serif" font-size="10.00">_s::CCPU_Core::Execute</text>
</a>
</g>
</g>
<!-- Node3&#45;&gt;Node4 -->
<g id="edge3_Node000003_Node000004" class="edge">
<title>Node3&#45;&gt;Node4</title>
<g id="a_edge3_Node000003_Node000004"><a xlink:title=" ">
<path fill="none" stroke="#63b8ff" d="M219.8,-246.57C200.55,-250.67 180.94,-254.85 163.24,-258.61"/>
<polygon fill="#63b8ff" stroke="#63b8ff" points="220.77,-249.94 229.83,-244.44 219.32,-243.1 220.77,-249.94"/>
</a>
</g>
</g>
<!-- Node5 -->
<g id="Node000005" class="node">
<title>Node5</title>
<g id="a_Node000005"><a xlink:href="classzero__mate_1_1arm1176jzf__s_1_1CCPU__Core.html#a8fb15d5c9802a6971560ff8ef2a0f9dc" target="_top" xlink:title="Executes a coprocessor data transfer instruction (coprocessor instruction (2)).">
<polygon fill="white" stroke="#666666" points="163,-239.5 31,-239.5 31,-209.5 163,-209.5 163,-239.5"/>
<text text-anchor="start" x="39" y="-227.5" font-family="Helvetica,sans-Serif" font-size="10.00">zero_mate::arm1176jzf</text>
<text text-anchor="middle" x="97" y="-216.5" font-family="Helvetica,sans-Serif" font-size="10.00">_s::CCPU_Core::Execute</text>
</a>
</g>
</g>
<!-- Node3&#45;&gt;Node5 -->
<g id="edge4_Node000003_Node000005" class="edge">
<title>Node3&#45;&gt;Node5</title>
<g id="a_edge4_Node000003_Node000005"><a xlink:title=" ">
<path fill="none" stroke="#63b8ff" d="M219.8,-224.5C200.55,-224.5 180.94,-224.5 163.24,-224.5"/>
<polygon fill="#63b8ff" stroke="#63b8ff" points="219.83,-228 229.83,-224.5 219.83,-221 219.83,-228"/>
</a>
</g>
</g>
<!-- Node6 -->
<g id="Node000006" class="node">
<title>Node6</title>
<g id="a_Node000006"><a xlink:href="classzero__mate_1_1arm1176jzf__s_1_1CCPU__Core.html#ae54c96b9b4395337b22c4ce3686d7862" target="_top" xlink:title="Executes a coprocessor register transfer instruction (coprocessor instruction (1)).">
<polygon fill="white" stroke="#666666" points="163,-191.5 31,-191.5 31,-161.5 163,-161.5 163,-191.5"/>
<text text-anchor="start" x="39" y="-179.5" font-family="Helvetica,sans-Serif" font-size="10.00">zero_mate::arm1176jzf</text>
<text text-anchor="middle" x="97" y="-168.5" font-family="Helvetica,sans-Serif" font-size="10.00">_s::CCPU_Core::Execute</text>
</a>
</g>
</g>
<!-- Node3&#45;&gt;Node6 -->
<g id="edge5_Node000003_Node000006" class="edge">
<title>Node3&#45;&gt;Node6</title>
<g id="a_edge5_Node000003_Node000006"><a xlink:title=" ">
<path fill="none" stroke="#63b8ff" d="M219.8,-202.43C200.55,-198.33 180.94,-194.15 163.24,-190.39"/>
<polygon fill="#63b8ff" stroke="#63b8ff" points="219.32,-205.9 229.83,-204.56 220.77,-199.06 219.32,-205.9"/>
</a>
</g>
</g>
<!-- Node11 -->
<g id="Node000011" class="node">
<title>Node11</title>
<g id="a_Node000011"><a xlink:href="classzero__mate_1_1arm1176jzf__s_1_1mmu_1_1CMMU.html#ab1413e798b9ac2d3bcdf521e7dfe7bdf" target="_top" xlink:title="Verifies page access (calls a chain of functions that validate the access).">
<polygon fill="white" stroke="#666666" points="390,-41 259,-41 259,0 390,0 390,-41"/>
<text text-anchor="start" x="267" y="-29" font-family="Helvetica,sans-Serif" font-size="10.00">zero_mate::arm1176jzf</text>
<text text-anchor="start" x="267" y="-18" font-family="Helvetica,sans-Serif" font-size="10.00">_s::mmu::CMMU::Verify</text>
<text text-anchor="middle" x="324.5" y="-7" font-family="Helvetica,sans-Serif" font-size="10.00">_Access</text>
</a>
</g>
</g>
<!-- Node10&#45;&gt;Node11 -->
<g id="edge10_Node000010_Node000011" class="edge">
<title>Node10&#45;&gt;Node11</title>
<g id="a_edge10_Node000010_Node000011"><a xlink:title=" ">
<path fill="none" stroke="#63b8ff" d="M455.83,-20.5C434.3,-20.5 410.98,-20.5 390.11,-20.5"/>
<polygon fill="#63b8ff" stroke="#63b8ff" points="455.92,-24 465.92,-20.5 455.92,-17 455.92,-24"/>
</a>
</g>
</g>
<!-- Node12 -->
<g id="Node000012" class="node">
<title>Node12</title>
<g id="a_Node000012"><a xlink:href="classzero__mate_1_1arm1176jzf__s_1_1mmu_1_1CMMU.html#a7bc1002a8f1032547deee07589cbbb84" target="_top" xlink:title="Converts a given virtual address into a physical address.">
<polygon fill="white" stroke="#666666" points="194,-35.5 0,-35.5 0,-5.5 194,-5.5 194,-35.5"/>
<text text-anchor="start" x="8" y="-23.5" font-family="Helvetica,sans-Serif" font-size="10.00">zero_mate::arm1176jzf</text>
<text text-anchor="middle" x="97" y="-12.5" font-family="Helvetica,sans-Serif" font-size="10.00">_s::mmu::CMMU::Get_Physical_Addr</text>
</a>
</g>
</g>
<!-- Node11&#45;&gt;Node12 -->
<g id="edge11_Node000011_Node000012" class="edge">
<title>Node11&#45;&gt;Node12</title>
<g id="a_edge11_Node000011_Node000012"><a xlink:title=" ">
<path fill="none" stroke="#63b8ff" d="M248.76,-20.5C231.28,-20.5 212.42,-20.5 194.15,-20.5"/>
<polygon fill="#63b8ff" stroke="#63b8ff" points="248.88,-24 258.88,-20.5 248.88,-17 248.88,-24"/>
</a>
</g>
</g>
</g>
</svg>
