<?xml version="1.0" encoding="UTF-8" standalone="no"?>
<!DOCTYPE svg PUBLIC "-//W3C//DTD SVG 1.1//EN"
 "http://www.w3.org/Graphics/SVG/1.1/DTD/svg11.dtd">
<!-- Generated by graphviz version 2.43.0 (0)
 -->
<!-- Title: zero_mate::peripheral::CBSC::Set_GPIO_pin Pages: 1 -->
<svg width="853pt" height="346pt"
 viewBox="0.00 0.00 853.00 345.50" xmlns="http://www.w3.org/2000/svg" xmlns:xlink="http://www.w3.org/1999/xlink">
<g id="graph0" class="graph" transform="scale(1 1) rotate(0) translate(4 341.5)">
<title>zero_mate::peripheral::CBSC::Set_GPIO_pin</title>
<!-- Node1 -->
<g id="Node000001" class="node">
<title>Node1</title>
<g id="a_Node000001"><a xlink:title="Sets the state of a given GPIO pin.">
<polygon fill="#999999" stroke="#666666" points="845,-189.5 721,-189.5 721,-159.5 845,-159.5 845,-189.5"/>
<text text-anchor="start" x="729" y="-177.5" font-family="Helvetica,sans-Serif" font-size="10.00">zero_mate::peripheral</text>
<text text-anchor="middle" x="783" y="-166.5" font-family="Helvetica,sans-Serif" font-size="10.00">::CBSC::Set_GPIO_pin</text>
</a>
</g>
</g>
<!-- Node2 -->
<g id="Node000002" class="node">
<title>Node2</title>
<g id="a_Node000002"><a xlink:href="classzero__mate_1_1peripheral_1_1CBSC.html#ab743dd233479745864da73cf7020ba15" target="_top" xlink:title="Performs actions after the control register has been written to.">
<polygon fill="white" stroke="#666666" points="683.5,-337.5 522.5,-337.5 522.5,-307.5 683.5,-307.5 683.5,-337.5"/>
<text text-anchor="start" x="530.5" y="-325.5" font-family="Helvetica,sans-Serif" font-size="10.00">zero_mate::peripheral</text>
<text text-anchor="middle" x="603" y="-314.5" font-family="Helvetica,sans-Serif" font-size="10.00">::CBSC::Control_Reg_Callback</text>
</a>
</g>
</g>
<!-- Node1&#45;&gt;Node2 -->
<g id="edge1_Node000001_Node000002" class="edge">
<title>Node1&#45;&gt;Node2</title>
<g id="a_edge1_Node000001_Node000002"><a xlink:title=" ">
<path fill="none" stroke="#63b8ff" d="M768.24,-198.2C751.65,-224.85 721.41,-267.76 685,-293.5 677.19,-299.02 668.23,-303.59 659.17,-307.34"/>
<polygon fill="#63b8ff" stroke="#63b8ff" points="771.32,-199.87 773.53,-189.5 765.34,-196.23 771.32,-199.87"/>
</a>
</g>
</g>
<!-- Node4 -->
<g id="Node000004" class="node">
<title>Node4</title>
<g id="a_Node000004"><a xlink:href="classzero__mate_1_1peripheral_1_1CBSC.html#abc87dd5711f004d648286ec13e22bb28" target="_top" xlink:title="Sends another bit of the data payload.">
<polygon fill="white" stroke="#666666" points="476,-208.5 348,-208.5 348,-178.5 476,-178.5 476,-208.5"/>
<text text-anchor="start" x="356" y="-196.5" font-family="Helvetica,sans-Serif" font-size="10.00">zero_mate::peripheral</text>
<text text-anchor="middle" x="412" y="-185.5" font-family="Helvetica,sans-Serif" font-size="10.00">::CBSC::I2C_Send_Data</text>
</a>
</g>
</g>
<!-- Node1&#45;&gt;Node4 -->
<g id="edge3_Node000001_Node000004" class="edge">
<title>Node1&#45;&gt;Node4</title>
<g id="a_edge3_Node000001_Node000004"><a xlink:title=" ">
<path fill="none" stroke="#63b8ff" d="M710.45,-178.18C642.42,-181.69 541.1,-186.9 476.04,-190.25"/>
<polygon fill="#63b8ff" stroke="#63b8ff" points="710.85,-181.67 720.65,-177.66 710.49,-174.68 710.85,-181.67"/>
</a>
</g>
</g>
<!-- Node6 -->
<g id="Node000006" class="node">
<title>Node6</title>
<g id="a_Node000006"><a xlink:href="classzero__mate_1_1peripheral_1_1CBSC.html#a226982dd161163b65706cad569522488" target="_top" xlink:title="Notifies the peripheral about how many CPU cycles have passed (ISystem_Clock_Listener interface).">
<polygon fill="white" stroke="#666666" points="143,-245 0,-245 0,-204 143,-204 143,-245"/>
<text text-anchor="start" x="8" y="-233" font-family="Helvetica,sans-Serif" font-size="10.00">zero_mate::peripheral</text>
<text text-anchor="start" x="8" y="-222" font-family="Helvetica,sans-Serif" font-size="10.00">::CBSC::Increment_Passed</text>
<text text-anchor="middle" x="71.5" y="-211" font-family="Helvetica,sans-Serif" font-size="10.00">_Cycles</text>
</a>
</g>
</g>
<!-- Node1&#45;&gt;Node6 -->
<g id="edge14_Node000001_Node000006" class="edge">
<title>Node1&#45;&gt;Node6</title>
<g id="a_edge14_Node000001_Node000006"><a xlink:title=" ">
<path fill="none" stroke="#63b8ff" d="M764.57,-197.46C747.09,-218.41 718.07,-247.95 685,-260.5 496.27,-332.11 251.33,-277.98 136.81,-245.02"/>
<polygon fill="#63b8ff" stroke="#63b8ff" points="767.33,-199.6 770.9,-189.63 761.89,-195.2 767.33,-199.6"/>
</a>
</g>
</g>
<!-- Node7 -->
<g id="Node000007" class="node">
<title>Node7</title>
<g id="a_Node000007"><a xlink:href="classzero__mate_1_1peripheral_1_1CBSC.html#acf265364a9484ecfad37ab0893d981c7" target="_top" xlink:title="Sends the RW bit.">
<polygon fill="white" stroke="#666666" points="482,-98.5 342,-98.5 342,-68.5 482,-68.5 482,-98.5"/>
<text text-anchor="start" x="350" y="-86.5" font-family="Helvetica,sans-Serif" font-size="10.00">zero_mate::peripheral</text>
<text text-anchor="middle" x="412" y="-75.5" font-family="Helvetica,sans-Serif" font-size="10.00">::CBSC::I2C_Send_RW_Bit</text>
</a>
</g>
</g>
<!-- Node1&#45;&gt;Node7 -->
<g id="edge6_Node000001_Node000007" class="edge">
<title>Node1&#45;&gt;Node7</title>
<g id="a_edge6_Node000001_Node000007"><a xlink:title=" ">
<path fill="none" stroke="#63b8ff" d="M764.52,-151.68C747,-130.83 717.95,-101.35 685,-88.5 619.66,-63.02 538.6,-65.41 482.04,-71.92"/>
<polygon fill="#63b8ff" stroke="#63b8ff" points="761.84,-153.93 770.87,-159.47 767.26,-149.51 761.84,-153.93"/>
</a>
</g>
</g>
<!-- Node8 -->
<g id="Node000008" class="node">
<title>Node8</title>
<g id="a_Node000008"><a xlink:href="classzero__mate_1_1peripheral_1_1CBSC.html#a0535fad6da893f066addecb99f455192" target="_top" xlink:title="Sends another bit of the slave&#39;s address.">
<polygon fill="white" stroke="#666666" points="669,-41 537,-41 537,0 669,0 669,-41"/>
<text text-anchor="start" x="545" y="-29" font-family="Helvetica,sans-Serif" font-size="10.00">zero_mate::peripheral</text>
<text text-anchor="start" x="545" y="-18" font-family="Helvetica,sans-Serif" font-size="10.00">::CBSC::I2C_Send_Slave</text>
<text text-anchor="middle" x="603" y="-7" font-family="Helvetica,sans-Serif" font-size="10.00">_Address</text>
</a>
</g>
</g>
<!-- Node1&#45;&gt;Node8 -->
<g id="edge8_Node000001_Node000008" class="edge">
<title>Node1&#45;&gt;Node8</title>
<g id="a_edge8_Node000001_Node000008"><a xlink:title=" ">
<path fill="none" stroke="#63b8ff" d="M767.67,-150.79C750.74,-124.49 720.37,-82.25 685,-55.5 677.79,-50.05 669.6,-45.25 661.27,-41.1"/>
<polygon fill="#63b8ff" stroke="#63b8ff" points="764.79,-152.79 773.08,-159.38 770.71,-149.05 764.79,-152.79"/>
</a>
</g>
</g>
<!-- Node9 -->
<g id="Node000009" class="node">
<title>Node9</title>
<g id="a_Node000009"><a xlink:href="classzero__mate_1_1peripheral_1_1CBSC.html#a3554dd56ba5d95d2eada7b0fd5a92c55" target="_top" xlink:title="Sends a start bit (start of a frame).">
<polygon fill="white" stroke="#666666" points="676.5,-251.5 529.5,-251.5 529.5,-221.5 676.5,-221.5 676.5,-251.5"/>
<text text-anchor="start" x="537.5" y="-239.5" font-family="Helvetica,sans-Serif" font-size="10.00">zero_mate::peripheral</text>
<text text-anchor="middle" x="603" y="-228.5" font-family="Helvetica,sans-Serif" font-size="10.00">::CBSC::I2C_Send_Start_Bit</text>
</a>
</g>
</g>
<!-- Node1&#45;&gt;Node9 -->
<g id="edge10_Node000001_Node000009" class="edge">
<title>Node1&#45;&gt;Node9</title>
<g id="a_edge10_Node000001_Node000009"><a xlink:title=" ">
<path fill="none" stroke="#63b8ff" d="M729.18,-192.9C703.08,-201.99 671.98,-212.82 647.31,-221.41"/>
<polygon fill="#63b8ff" stroke="#63b8ff" points="730.62,-196.1 738.91,-189.51 728.32,-189.49 730.62,-196.1"/>
</a>
</g>
</g>
<!-- Node10 -->
<g id="Node000010" class="node">
<title>Node10</title>
<g id="a_Node000010"><a xlink:href="classzero__mate_1_1peripheral_1_1CBSC.html#aa830cee242bb74a3779bb54c4baee609" target="_top" xlink:title="Sends a stop bit (end of a frame).">
<polygon fill="white" stroke="#666666" points="485,-160.5 339,-160.5 339,-130.5 485,-130.5 485,-160.5"/>
<text text-anchor="start" x="347" y="-148.5" font-family="Helvetica,sans-Serif" font-size="10.00">zero_mate::peripheral</text>
<text text-anchor="middle" x="412" y="-137.5" font-family="Helvetica,sans-Serif" font-size="10.00">::CBSC::I2C_Send_Stop_Bit</text>
</a>
</g>
</g>
<!-- Node1&#45;&gt;Node10 -->
<g id="edge12_Node000001_Node000010" class="edge">
<title>Node1&#45;&gt;Node10</title>
<g id="a_edge12_Node000001_Node000010"><a xlink:title=" ">
<path fill="none" stroke="#63b8ff" d="M710.51,-168.88C645.62,-163.78 550.4,-156.3 485.27,-151.18"/>
<polygon fill="#63b8ff" stroke="#63b8ff" points="710.41,-172.38 720.65,-169.68 710.96,-165.41 710.41,-172.38"/>
</a>
</g>
</g>
<!-- Node11 -->
<g id="Node000011" class="node">
<title>Node11</title>
<g id="a_Node000011"><a xlink:href="classzero__mate_1_1peripheral_1_1CBSC.html#a47d44cc0056a39f0404e501c4449355a" target="_top" xlink:title="Terminates an ongoing transaction (stop bit).">
<polygon fill="white" stroke="#666666" points="685,-127.5 521,-127.5 521,-97.5 685,-97.5 685,-127.5"/>
<text text-anchor="start" x="529" y="-115.5" font-family="Helvetica,sans-Serif" font-size="10.00">zero_mate::peripheral</text>
<text text-anchor="middle" x="603" y="-104.5" font-family="Helvetica,sans-Serif" font-size="10.00">::CBSC::Terminate_Transaction</text>
</a>
</g>
</g>
<!-- Node1&#45;&gt;Node11 -->
<g id="edge15_Node000001_Node000011" class="edge">
<title>Node1&#45;&gt;Node11</title>
<g id="a_edge15_Node000001_Node000011"><a xlink:title=" ">
<path fill="none" stroke="#63b8ff" d="M729.18,-156.1C703.08,-147.01 671.98,-136.18 647.31,-127.59"/>
<polygon fill="#63b8ff" stroke="#63b8ff" points="728.32,-159.51 738.91,-159.49 730.62,-152.9 728.32,-159.51"/>
</a>
</g>
</g>
<!-- Node3 -->
<g id="Node000003" class="node">
<title>Node3</title>
<g id="a_Node000003"><a xlink:href="classzero__mate_1_1peripheral_1_1CBSC.html#a91d31c6b0a9fa05ef7d1488f3e67247d" target="_top" xlink:title="Writes data to the peripheral (IPeripheral interface).">
<polygon fill="white" stroke="#666666" points="474,-337.5 350,-337.5 350,-307.5 474,-307.5 474,-337.5"/>
<text text-anchor="start" x="358" y="-325.5" font-family="Helvetica,sans-Serif" font-size="10.00">zero_mate::peripheral</text>
<text text-anchor="middle" x="412" y="-314.5" font-family="Helvetica,sans-Serif" font-size="10.00">::CBSC::Write</text>
</a>
</g>
</g>
<!-- Node2&#45;&gt;Node3 -->
<g id="edge2_Node000002_Node000003" class="edge">
<title>Node2&#45;&gt;Node3</title>
<g id="a_edge2_Node000002_Node000003"><a xlink:title=" ">
<path fill="none" stroke="#63b8ff" d="M512.12,-322.5C499.25,-322.5 486.27,-322.5 474.13,-322.5"/>
<polygon fill="#63b8ff" stroke="#63b8ff" points="512.39,-326 522.39,-322.5 512.39,-319 512.39,-326"/>
</a>
</g>
</g>
<!-- Node5 -->
<g id="Node000005" class="node">
<title>Node5</title>
<g id="a_Node000005"><a xlink:href="classzero__mate_1_1peripheral_1_1CBSC.html#a3b0dd18504053624d39b9015015bb8fc" target="_top" xlink:title="Updates the I2C state machine.">
<polygon fill="white" stroke="#666666" points="303,-184.5 179,-184.5 179,-154.5 303,-154.5 303,-184.5"/>
<text text-anchor="start" x="187" y="-172.5" font-family="Helvetica,sans-Serif" font-size="10.00">zero_mate::peripheral</text>
<text text-anchor="middle" x="241" y="-161.5" font-family="Helvetica,sans-Serif" font-size="10.00">::CBSC::I2C_Update</text>
</a>
</g>
</g>
<!-- Node4&#45;&gt;Node5 -->
<g id="edge4_Node000004_Node000005" class="edge">
<title>Node4&#45;&gt;Node5</title>
<g id="a_edge4_Node000004_Node000005"><a xlink:title=" ">
<path fill="none" stroke="#63b8ff" d="M337.61,-183.08C326.14,-181.45 314.4,-179.78 303.24,-178.2"/>
<polygon fill="#63b8ff" stroke="#63b8ff" points="337.2,-186.55 347.59,-184.5 338.18,-179.62 337.2,-186.55"/>
</a>
</g>
</g>
<!-- Node5&#45;&gt;Node6 -->
<g id="edge5_Node000005_Node000006" class="edge">
<title>Node5&#45;&gt;Node6</title>
<g id="a_edge5_Node000005_Node000006"><a xlink:title=" ">
<path fill="none" stroke="#63b8ff" d="M184.59,-187.69C168.76,-192.89 151.4,-198.59 135.17,-203.92"/>
<polygon fill="#63b8ff" stroke="#63b8ff" points="185.82,-190.97 194.23,-184.53 183.64,-184.32 185.82,-190.97"/>
</a>
</g>
</g>
<!-- Node7&#45;&gt;Node5 -->
<g id="edge7_Node000007_Node000005" class="edge">
<title>Node7&#45;&gt;Node5</title>
<g id="a_edge7_Node000007_Node000005"><a xlink:title=" ">
<path fill="none" stroke="#63b8ff" d="M372.06,-103.31C341.44,-118.9 299.42,-140.28 271.53,-154.47"/>
<polygon fill="#63b8ff" stroke="#63b8ff" points="373.85,-106.33 381.18,-98.68 370.68,-100.09 373.85,-106.33"/>
</a>
</g>
</g>
<!-- Node8&#45;&gt;Node5 -->
<g id="edge9_Node000008_Node000005" class="edge">
<title>Node8&#45;&gt;Node5</title>
<g id="a_edge9_Node000008_Node000005"><a xlink:title=" ">
<path fill="none" stroke="#63b8ff" d="M526.7,-18.19C471.62,-19.59 396.75,-28.12 339,-59.5 297.39,-82.11 265.04,-129.93 250.46,-154.4"/>
<polygon fill="#63b8ff" stroke="#63b8ff" points="526.81,-21.69 536.75,-18.01 526.69,-14.69 526.81,-21.69"/>
</a>
</g>
</g>
<!-- Node9&#45;&gt;Node5 -->
<g id="edge11_Node000009_Node000005" class="edge">
<title>Node9&#45;&gt;Node5</title>
<g id="a_edge11_Node000009_Node000005"><a xlink:title=" ">
<path fill="none" stroke="#63b8ff" d="M519.03,-238.64C466.57,-238.01 397.8,-233.51 339,-217.5 312.71,-210.34 285.08,-195.89 266.07,-184.71"/>
<polygon fill="#63b8ff" stroke="#63b8ff" points="519.28,-242.14 529.3,-238.71 519.33,-235.14 519.28,-242.14"/>
</a>
</g>
</g>
<!-- Node10&#45;&gt;Node5 -->
<g id="edge13_Node000010_Node000005" class="edge">
<title>Node10&#45;&gt;Node5</title>
<g id="a_edge13_Node000010_Node000005"><a xlink:title=" ">
<path fill="none" stroke="#63b8ff" d="M328.71,-157.19C320.06,-158.41 311.37,-159.65 303.02,-160.84"/>
<polygon fill="#63b8ff" stroke="#63b8ff" points="329.43,-160.62 338.84,-155.75 328.45,-153.69 329.43,-160.62"/>
</a>
</g>
</g>
<!-- Node11&#45;&gt;Node10 -->
<g id="edge16_Node000011_Node000010" class="edge">
<title>Node11&#45;&gt;Node10</title>
<g id="a_edge16_Node000011_Node000010"><a xlink:title=" ">
<path fill="none" stroke="#63b8ff" d="M510.74,-128.43C502.18,-129.93 493.59,-131.43 485.24,-132.89"/>
<polygon fill="#63b8ff" stroke="#63b8ff" points="511.5,-131.85 520.75,-126.69 510.3,-124.96 511.5,-131.85"/>
</a>
</g>
</g>
</g>
</svg>
