<?xml version="1.0" encoding="UTF-8" standalone="no"?>
<!DOCTYPE svg PUBLIC "-//W3C//DTD SVG 1.1//EN"
 "http://www.w3.org/Graphics/SVG/1.1/DTD/svg11.dtd">
<!-- Generated by graphviz version 2.43.0 (0)
 -->
<!-- Title: zero_mate::arm1176jzf_s::CCPU_Core::Execute Pages: 1 -->
<svg width="1120pt" height="178pt"
 viewBox="0.00 0.00 1120.00 177.50" xmlns="http://www.w3.org/2000/svg" xmlns:xlink="http://www.w3.org/1999/xlink">
<g id="graph0" class="graph" transform="scale(1 1) rotate(0) translate(4 173.5)">
<title>zero_mate::arm1176jzf_s::CCPU_Core::Execute</title>
<!-- Node1 -->
<g id="Node000001" class="node">
<title>Node1</title>
<g id="a_Node000001"><a xlink:title="Executes a coprocessor data transfer instruction (coprocessor instruction (2)).">
<polygon fill="#999999" stroke="#666666" points="132,-64.5 0,-64.5 0,-34.5 132,-34.5 132,-64.5"/>
<text text-anchor="start" x="8" y="-52.5" font-family="Helvetica,sans-Serif" font-size="10.00">zero_mate::arm1176jzf</text>
<text text-anchor="middle" x="66" y="-41.5" font-family="Helvetica,sans-Serif" font-size="10.00">_s::CCPU_Core::Execute</text>
</a>
</g>
</g>
<!-- Node2 -->
<g id="Node000002" class="node">
<title>Node2</title>
<g id="a_Node000002"><a xlink:href="classzero__mate_1_1arm1176jzf__s_1_1CCPU__Core.html#a9d662bbaf486e8924698ecf2208d0d73" target="_top" xlink:title="Performs coprocessor accessibility checks.">
<polygon fill="white" stroke="#666666" points="357,-70 168,-70 168,-29 357,-29 357,-70"/>
<text text-anchor="start" x="176" y="-58" font-family="Helvetica,sans-Serif" font-size="10.00">zero_mate::arm1176jzf</text>
<text text-anchor="start" x="176" y="-47" font-family="Helvetica,sans-Serif" font-size="10.00">_s::CCPU_Core::Perform</text>
<text text-anchor="middle" x="262.5" y="-36" font-family="Helvetica,sans-Serif" font-size="10.00">_Coprocessor_Accessibility_Checks</text>
</a>
</g>
</g>
<!-- Node1&#45;&gt;Node2 -->
<g id="edge1_Node000001_Node000002" class="edge">
<title>Node1&#45;&gt;Node2</title>
<g id="a_edge1_Node000001_Node000002"><a xlink:title=" ">
<path fill="none" stroke="#63b8ff" d="M132.04,-49.5C140.29,-49.5 148.9,-49.5 157.57,-49.5"/>
<polygon fill="#63b8ff" stroke="#63b8ff" points="157.77,-53 167.77,-49.5 157.77,-46 157.77,-53"/>
</a>
</g>
</g>
<!-- Node3 -->
<g id="Node000003" class="node">
<title>Node3</title>
<g id="a_Node000003"><a xlink:href="classzero__mate_1_1arm1176jzf__s_1_1CCPU__Core.html#a91c67a1c5fa304f2a58e0ab07ce7e8ac" target="_top" xlink:title="Checks whether a given coprocessor is present or not.">
<polygon fill="white" stroke="#666666" points="535,-100 404,-100 404,-59 535,-59 535,-100"/>
<text text-anchor="start" x="412" y="-88" font-family="Helvetica,sans-Serif" font-size="10.00">zero_mate::arm1176jzf</text>
<text text-anchor="start" x="412" y="-77" font-family="Helvetica,sans-Serif" font-size="10.00">_s::CCPU_Core::Check</text>
<text text-anchor="middle" x="469.5" y="-66" font-family="Helvetica,sans-Serif" font-size="10.00">_Coprocessor_Presence</text>
</a>
</g>
</g>
<!-- Node2&#45;&gt;Node3 -->
<g id="edge2_Node000002_Node000003" class="edge">
<title>Node2&#45;&gt;Node3</title>
<g id="a_edge2_Node000002_Node000003"><a xlink:title=" ">
<path fill="none" stroke="#63b8ff" d="M357,-63.18C369.38,-64.99 381.93,-66.83 393.93,-68.59"/>
<polygon fill="#63b8ff" stroke="#63b8ff" points="393.46,-72.06 403.86,-70.04 394.47,-65.13 393.46,-72.06"/>
</a>
</g>
</g>
<!-- Node9 -->
<g id="Node000009" class="node">
<title>Node9</title>
<g id="a_Node000009"><a xlink:href="classzero__mate_1_1arm1176jzf__s_1_1CCPU__Core.html#a0dbd5d6ffc531f762b49956d27f93be3" target="_top" xlink:title="Checks whether a given coprocessor can be accessed from the current CPU mode.">
<polygon fill="white" stroke="#666666" points="546,-41 393,-41 393,0 546,0 546,-41"/>
<text text-anchor="start" x="401" y="-29" font-family="Helvetica,sans-Serif" font-size="10.00">zero_mate::arm1176jzf</text>
<text text-anchor="start" x="401" y="-18" font-family="Helvetica,sans-Serif" font-size="10.00">_s::CCPU_Core::Checks</text>
<text text-anchor="middle" x="469.5" y="-7" font-family="Helvetica,sans-Serif" font-size="10.00">_Coprocessor_Access_Mode</text>
</a>
</g>
</g>
<!-- Node2&#45;&gt;Node9 -->
<g id="edge8_Node000002_Node000009" class="edge">
<title>Node2&#45;&gt;Node9</title>
<g id="a_edge8_Node000002_Node000009"><a xlink:title=" ">
<path fill="none" stroke="#63b8ff" d="M357,-36.27C365.65,-35.05 374.39,-33.81 382.97,-32.6"/>
<polygon fill="#63b8ff" stroke="#63b8ff" points="383.53,-36.05 392.95,-31.19 382.55,-29.12 383.53,-36.05"/>
</a>
</g>
</g>
<!-- Node4 -->
<g id="Node000004" class="node">
<title>Node4</title>
<g id="a_Node000004"><a xlink:href="classzero__mate_1_1utils_1_1CLogging__System.html#a57ed77e1a5cf822cea532cc5e05c3f60" target="_top" xlink:title="Logs an error message via all registered loggers.">
<polygon fill="white" stroke="#666666" points="728,-92.5 582,-92.5 582,-62.5 728,-62.5 728,-92.5"/>
<text text-anchor="start" x="590" y="-80.5" font-family="Helvetica,sans-Serif" font-size="10.00">zero_mate::utils::CLogging</text>
<text text-anchor="middle" x="655" y="-69.5" font-family="Helvetica,sans-Serif" font-size="10.00">_System::Error</text>
</a>
</g>
</g>
<!-- Node3&#45;&gt;Node4 -->
<g id="edge3_Node000003_Node000004" class="edge">
<title>Node3&#45;&gt;Node4</title>
<g id="a_edge3_Node000003_Node000004"><a xlink:title=" ">
<path fill="none" stroke="#63b8ff" d="M535.2,-78.79C546.96,-78.67 559.39,-78.53 571.59,-78.4"/>
<polygon fill="#63b8ff" stroke="#63b8ff" points="571.8,-81.9 581.76,-78.29 571.72,-74.9 571.8,-81.9"/>
</a>
</g>
</g>
<!-- Node5 -->
<g id="Node000005" class="node">
<title>Node5</title>
<g id="a_Node000005"><a xlink:href="classzero__mate_1_1utils_1_1CLogging__System.html#a71ed11c796553cbe8fd99773406a1060" target="_top" xlink:title="Creates a formatted message to be logged.">
<polygon fill="white" stroke="#666666" points="916,-151 764,-151 764,-110 916,-110 916,-151"/>
<text text-anchor="start" x="772" y="-139" font-family="Helvetica,sans-Serif" font-size="10.00">zero_mate::utils::CLogging</text>
<text text-anchor="start" x="772" y="-128" font-family="Helvetica,sans-Serif" font-size="10.00">_System::Create_Formatted</text>
<text text-anchor="middle" x="840" y="-117" font-family="Helvetica,sans-Serif" font-size="10.00">_Log_Msg</text>
</a>
</g>
</g>
<!-- Node4&#45;&gt;Node5 -->
<g id="edge4_Node000004_Node000005" class="edge">
<title>Node4&#45;&gt;Node5</title>
<g id="a_edge4_Node000004_Node000005"><a xlink:title=" ">
<path fill="none" stroke="#63b8ff" d="M707.95,-92.55C723.59,-97.07 741.13,-102.15 758.17,-107.09"/>
<polygon fill="#63b8ff" stroke="#63b8ff" points="757.55,-110.55 768.13,-109.97 759.5,-103.83 757.55,-110.55"/>
</a>
</g>
</g>
<!-- Node8 -->
<g id="Node000008" class="node">
<title>Node8</title>
<g id="a_Node000008"><a xlink:href="classzero__mate_1_1utils_1_1CLogging__System.html#ad371c67ef65763966ccf9291002e86f3" target="_top" xlink:title="Extract the filename from a given location within the source files.">
<polygon fill="white" stroke="#666666" points="914.5,-91.5 765.5,-91.5 765.5,-61.5 914.5,-61.5 914.5,-91.5"/>
<text text-anchor="start" x="773.5" y="-79.5" font-family="Helvetica,sans-Serif" font-size="10.00">zero_mate::utils::CLogging</text>
<text text-anchor="middle" x="840" y="-68.5" font-family="Helvetica,sans-Serif" font-size="10.00">_System::Extract_Filename</text>
</a>
</g>
</g>
<!-- Node4&#45;&gt;Node8 -->
<g id="edge7_Node000004_Node000008" class="edge">
<title>Node4&#45;&gt;Node8</title>
<g id="a_edge7_Node000004_Node000008"><a xlink:title=" ">
<path fill="none" stroke="#63b8ff" d="M728.06,-77.11C737,-77.06 746.2,-77.01 755.29,-76.96"/>
<polygon fill="#63b8ff" stroke="#63b8ff" points="755.52,-80.46 765.5,-76.9 755.48,-73.46 755.52,-80.46"/>
</a>
</g>
</g>
<!-- Node6 -->
<g id="Node000006" class="node">
<title>Node6</title>
<g id="a_Node000006"><a xlink:href="classzero__mate_1_1utils_1_1CLogging__System.html#aa70c102c805079042ffea2a6f2a5ad64" target="_top" xlink:title="Formats a given timestamp.">
<polygon fill="white" stroke="#666666" points="1112,-169.5 952,-169.5 952,-139.5 1112,-139.5 1112,-169.5"/>
<text text-anchor="start" x="960" y="-157.5" font-family="Helvetica,sans-Serif" font-size="10.00">zero_mate::utils::CLogging</text>
<text text-anchor="middle" x="1032" y="-146.5" font-family="Helvetica,sans-Serif" font-size="10.00">_System::Format_Timestamp</text>
</a>
</g>
</g>
<!-- Node5&#45;&gt;Node6 -->
<g id="edge5_Node000005_Node000006" class="edge">
<title>Node5&#45;&gt;Node6</title>
<g id="a_edge5_Node000005_Node000006"><a xlink:title=" ">
<path fill="none" stroke="#63b8ff" d="M916.09,-139.99C924.52,-141.05 933.16,-142.14 941.74,-143.23"/>
<polygon fill="#63b8ff" stroke="#63b8ff" points="941.41,-146.71 951.77,-144.49 942.29,-139.77 941.41,-146.71"/>
</a>
</g>
</g>
<!-- Node7 -->
<g id="Node000007" class="node">
<title>Node7</title>
<g id="a_Node000007"><a xlink:href="classzero__mate_1_1utils_1_1CLogging__System.html#ae3ca637537dde05e0b9119145c840331" target="_top" xlink:title="Returns the current timestamp that will be used in a log message.">
<polygon fill="white" stroke="#666666" points="1105,-121.5 959,-121.5 959,-91.5 1105,-91.5 1105,-121.5"/>
<text text-anchor="start" x="967" y="-109.5" font-family="Helvetica,sans-Serif" font-size="10.00">zero_mate::utils::CLogging</text>
<text text-anchor="middle" x="1032" y="-98.5" font-family="Helvetica,sans-Serif" font-size="10.00">_System::Get_Timestamp</text>
</a>
</g>
</g>
<!-- Node5&#45;&gt;Node7 -->
<g id="edge6_Node000005_Node000007" class="edge">
<title>Node5&#45;&gt;Node7</title>
<g id="a_edge6_Node000005_Node000007"><a xlink:title=" ">
<path fill="none" stroke="#63b8ff" d="M916.09,-121.01C926.89,-119.65 938.05,-118.24 948.98,-116.86"/>
<polygon fill="#63b8ff" stroke="#63b8ff" points="949.45,-120.33 958.93,-115.6 948.57,-113.38 949.45,-120.33"/>
</a>
</g>
</g>
<!-- Node9&#45;&gt;Node4 -->
<g id="edge9_Node000009_Node000004" class="edge">
<title>Node9&#45;&gt;Node4</title>
<g id="a_edge9_Node000009_Node000004"><a xlink:title=" ">
<path fill="none" stroke="#63b8ff" d="M536.75,-41.08C556.16,-47.11 577.22,-53.65 596.06,-59.5"/>
<polygon fill="#63b8ff" stroke="#63b8ff" points="595.11,-62.87 605.7,-62.5 597.19,-56.19 595.11,-62.87"/>
</a>
</g>
</g>
<!-- Node10 -->
<g id="Node000010" class="node">
<title>Node10</title>
<g id="a_Node000010"><a xlink:href="classzero__mate_1_1arm1176jzf__s_1_1CCPU__Context.html#a573470217091c27cf30f1411ea453e5d" target="_top" xlink:title="Checks if the CPU is in a privileged mode.">
<polygon fill="white" stroke="#666666" points="720,-41 590,-41 590,0 720,0 720,-41"/>
<text text-anchor="start" x="598" y="-29" font-family="Helvetica,sans-Serif" font-size="10.00">zero_mate::arm1176jzf</text>
<text text-anchor="start" x="598" y="-18" font-family="Helvetica,sans-Serif" font-size="10.00">_s::CCPU_Context::Is</text>
<text text-anchor="middle" x="655" y="-7" font-family="Helvetica,sans-Serif" font-size="10.00">_In_Privileged_Mode</text>
</a>
</g>
</g>
<!-- Node9&#45;&gt;Node10 -->
<g id="edge10_Node000009_Node000010" class="edge">
<title>Node9&#45;&gt;Node10</title>
<g id="a_edge10_Node000009_Node000010"><a xlink:title=" ">
<path fill="none" stroke="#63b8ff" d="M546.2,-20.5C557.31,-20.5 568.74,-20.5 579.82,-20.5"/>
<polygon fill="#63b8ff" stroke="#63b8ff" points="579.88,-24 589.88,-20.5 579.88,-17 579.88,-24"/>
</a>
</g>
</g>
<!-- Node11 -->
<g id="Node000011" class="node">
<title>Node11</title>
<g id="a_Node000011"><a xlink:href="classzero__mate_1_1arm1176jzf__s_1_1CCPU__Context.html#aa740f9219bb413d707ac72f373e60d3a" target="_top" xlink:title="Returns the current mode of the CPU.">
<polygon fill="white" stroke="#666666" points="905,-41 775,-41 775,0 905,0 905,-41"/>
<text text-anchor="start" x="783" y="-29" font-family="Helvetica,sans-Serif" font-size="10.00">zero_mate::arm1176jzf</text>
<text text-anchor="start" x="783" y="-18" font-family="Helvetica,sans-Serif" font-size="10.00">_s::CCPU_Context::Get</text>
<text text-anchor="middle" x="840" y="-7" font-family="Helvetica,sans-Serif" font-size="10.00">_CPU_Mode</text>
</a>
</g>
</g>
<!-- Node10&#45;&gt;Node11 -->
<g id="edge11_Node000010_Node000011" class="edge">
<title>Node10&#45;&gt;Node11</title>
<g id="a_edge11_Node000010_Node000011"><a xlink:title=" ">
<path fill="none" stroke="#63b8ff" d="M720,-20.5C734.41,-20.5 749.81,-20.5 764.6,-20.5"/>
<polygon fill="#63b8ff" stroke="#63b8ff" points="764.72,-24 774.72,-20.5 764.72,-17 764.72,-24"/>
</a>
</g>
</g>
</g>
</svg>
