<?xml version="1.0" encoding="UTF-8" standalone="no"?>
<!DOCTYPE svg PUBLIC "-//W3C//DTD SVG 1.1//EN"
 "http://www.w3.org/Graphics/SVG/1.1/DTD/svg11.dtd">
<!-- Generated by graphviz version 2.43.0 (0)
 -->
<!-- Title: zero_mate::arm1176jzf_s::isa::CData_Processing::Get_Rotate Pages: 1 -->
<svg width="700pt" height="49pt"
 viewBox="0.00 0.00 700.00 49.00" xmlns="http://www.w3.org/2000/svg" xmlns:xlink="http://www.w3.org/1999/xlink">
<g id="graph0" class="graph" transform="scale(1 1) rotate(0) translate(4 45)">
<title>zero_mate::arm1176jzf_s::isa::CData_Processing::Get_Rotate</title>
<!-- Node1 -->
<g id="Node000001" class="node">
<title>Node1</title>
<g id="a_Node000001"><a xlink:title="Returns the shift amount to be applied to the immediate value.">
<polygon fill="#999999" stroke="#666666" points="692,-41 551,-41 551,0 692,0 692,-41"/>
<text text-anchor="start" x="559" y="-29" font-family="Helvetica,sans-Serif" font-size="10.00">zero_mate::arm1176jzf</text>
<text text-anchor="start" x="559" y="-18" font-family="Helvetica,sans-Serif" font-size="10.00">_s::isa::CData_Processing</text>
<text text-anchor="middle" x="621.5" y="-7" font-family="Helvetica,sans-Serif" font-size="10.00">::Get_Rotate</text>
</a>
</g>
</g>
<!-- Node2 -->
<g id="Node000002" class="node">
<title>Node2</title>
<g id="a_Node000002"><a xlink:href="classzero__mate_1_1arm1176jzf__s_1_1CCPU__Core.html#a4b9e6a828e9739a227ab6da615fb4b15" target="_top" xlink:title="Calculates the second immediate operand of a given instruction.">
<polygon fill="white" stroke="#666666" points="515,-41 363,-41 363,0 515,0 515,-41"/>
<text text-anchor="start" x="371" y="-29" font-family="Helvetica,sans-Serif" font-size="10.00">zero_mate::arm1176jzf</text>
<text text-anchor="start" x="371" y="-18" font-family="Helvetica,sans-Serif" font-size="10.00">_s::CCPU_Core::Get_Second</text>
<text text-anchor="middle" x="439" y="-7" font-family="Helvetica,sans-Serif" font-size="10.00">_Operand_Imm</text>
</a>
</g>
</g>
<!-- Node1&#45;&gt;Node2 -->
<g id="edge1_Node000001_Node000002" class="edge">
<title>Node1&#45;&gt;Node2</title>
<g id="a_edge1_Node000001_Node000002"><a xlink:title=" ">
<path fill="none" stroke="#63b8ff" d="M540.71,-20.5C532.22,-20.5 523.62,-20.5 515.19,-20.5"/>
<polygon fill="#63b8ff" stroke="#63b8ff" points="540.97,-24 550.97,-20.5 540.97,-17 540.97,-24"/>
</a>
</g>
</g>
<!-- Node3 -->
<g id="Node000003" class="node">
<title>Node3</title>
<g id="a_Node000003"><a xlink:href="classzero__mate_1_1arm1176jzf__s_1_1CCPU__Core.html#abe7461d09a52f28f99037717f61975c6" target="_top" xlink:title="Executes an MSR instruction (move data to CPSR/SPSR from an ARM register).">
<polygon fill="white" stroke="#666666" points="327,-35.5 168,-35.5 168,-5.5 327,-5.5 327,-35.5"/>
<text text-anchor="start" x="176" y="-23.5" font-family="Helvetica,sans-Serif" font-size="10.00">zero_mate::arm1176jzf</text>
<text text-anchor="middle" x="247.5" y="-12.5" font-family="Helvetica,sans-Serif" font-size="10.00">_s::CCPU_Core::Execute_MSR</text>
</a>
</g>
</g>
<!-- Node2&#45;&gt;Node3 -->
<g id="edge2_Node000002_Node000003" class="edge">
<title>Node2&#45;&gt;Node3</title>
<g id="a_edge2_Node000002_Node000003"><a xlink:title=" ">
<path fill="none" stroke="#63b8ff" d="M352.62,-20.5C344.19,-20.5 335.67,-20.5 327.31,-20.5"/>
<polygon fill="#63b8ff" stroke="#63b8ff" points="352.83,-24 362.83,-20.5 352.83,-17 352.83,-24"/>
</a>
</g>
</g>
<!-- Node4 -->
<g id="Node000004" class="node">
<title>Node4</title>
<g id="a_Node000004"><a xlink:href="classzero__mate_1_1arm1176jzf__s_1_1CCPU__Core.html#a3a90c040b3cbe4545a9acc5e35acdd45" target="_top" xlink:title="Executes a PSR transfer instruction.">
<polygon fill="white" stroke="#666666" points="132,-35.5 0,-35.5 0,-5.5 132,-5.5 132,-35.5"/>
<text text-anchor="start" x="8" y="-23.5" font-family="Helvetica,sans-Serif" font-size="10.00">zero_mate::arm1176jzf</text>
<text text-anchor="middle" x="66" y="-12.5" font-family="Helvetica,sans-Serif" font-size="10.00">_s::CCPU_Core::Execute</text>
</a>
</g>
</g>
<!-- Node3&#45;&gt;Node4 -->
<g id="edge3_Node000003_Node000004" class="edge">
<title>Node3&#45;&gt;Node4</title>
<g id="a_edge3_Node000003_Node000004"><a xlink:title=" ">
<path fill="none" stroke="#63b8ff" d="M157.71,-20.5C149.12,-20.5 140.52,-20.5 132.23,-20.5"/>
<polygon fill="#63b8ff" stroke="#63b8ff" points="157.77,-24 167.77,-20.5 157.77,-17 157.77,-24"/>
</a>
</g>
</g>
</g>
</svg>
