<?xml version="1.0" encoding="UTF-8" standalone="no"?>
<!DOCTYPE svg PUBLIC "-//W3C//DTD SVG 1.1//EN"
 "http://www.w3.org/Graphics/SVG/1.1/DTD/svg11.dtd">
<!-- Generated by graphviz version 2.43.0 (0)
 -->
<!-- Title: zero_mate::arm1176jzf_s::CCPU_Core::Execute_MSR Pages: 1 -->
<svg width="1117pt" height="426pt"
 viewBox="0.00 0.00 1117.00 426.00" xmlns="http://www.w3.org/2000/svg" xmlns:xlink="http://www.w3.org/1999/xlink">
<g id="graph0" class="graph" transform="scale(1 1) rotate(0) translate(4 422)">
<title>zero_mate::arm1176jzf_s::CCPU_Core::Execute_MSR</title>
<!-- Node1 -->
<g id="Node000001" class="node">
<title>Node1</title>
<g id="a_Node000001"><a xlink:title="Executes an MSR instruction (move data to CPSR/SPSR from an ARM register).">
<polygon fill="#999999" stroke="#666666" points="159,-254.5 0,-254.5 0,-224.5 159,-224.5 159,-254.5"/>
<text text-anchor="start" x="8" y="-242.5" font-family="Helvetica,sans-Serif" font-size="10.00">zero_mate::arm1176jzf</text>
<text text-anchor="middle" x="79.5" y="-231.5" font-family="Helvetica,sans-Serif" font-size="10.00">_s::CCPU_Core::Execute_MSR</text>
</a>
</g>
</g>
<!-- Node2 -->
<g id="Node000002" class="node">
<title>Node2</title>
<g id="a_Node000002"><a xlink:href="classzero__mate_1_1arm1176jzf__s_1_1CCPU__Context.html#acf66c6ff905975912dbf52133ddfeceb" target="_top" xlink:title="Returns a reference the CPSR register of the current CPU mode.">
<polygon fill="white" stroke="#666666" points="353,-362.5 195,-362.5 195,-332.5 353,-332.5 353,-362.5"/>
<text text-anchor="start" x="203" y="-350.5" font-family="Helvetica,sans-Serif" font-size="10.00">zero_mate::arm1176jzf</text>
<text text-anchor="middle" x="274" y="-339.5" font-family="Helvetica,sans-Serif" font-size="10.00">_s::CCPU_Context::Get_CPSR</text>
</a>
</g>
</g>
<!-- Node1&#45;&gt;Node2 -->
<g id="edge1_Node000001_Node000002" class="edge">
<title>Node1&#45;&gt;Node2</title>
<g id="a_edge1_Node000001_Node000002"><a xlink:title=" ">
<path fill="none" stroke="#63b8ff" d="M97.6,-254.6C119.04,-272.87 157.54,-303.53 195,-322.5 199.48,-324.77 204.22,-326.89 209.04,-328.86"/>
<polygon fill="#63b8ff" stroke="#63b8ff" points="207.81,-332.13 218.4,-332.45 210.32,-325.6 207.81,-332.13"/>
</a>
</g>
</g>
<!-- Node3 -->
<g id="Node000003" class="node">
<title>Node3</title>
<g id="a_Node000003"><a xlink:href="classzero__mate_1_1arm1176jzf__s_1_1CCPU__Core.html#a4b9e6a828e9739a227ab6da615fb4b15" target="_top" xlink:title="Calculates the second immediate operand of a given instruction.">
<polygon fill="white" stroke="#666666" points="350,-314 198,-314 198,-273 350,-273 350,-314"/>
<text text-anchor="start" x="206" y="-302" font-family="Helvetica,sans-Serif" font-size="10.00">zero_mate::arm1176jzf</text>
<text text-anchor="start" x="206" y="-291" font-family="Helvetica,sans-Serif" font-size="10.00">_s::CCPU_Core::Get_Second</text>
<text text-anchor="middle" x="274" y="-280" font-family="Helvetica,sans-Serif" font-size="10.00">_Operand_Imm</text>
</a>
</g>
</g>
<!-- Node1&#45;&gt;Node3 -->
<g id="edge2_Node000001_Node000003" class="edge">
<title>Node1&#45;&gt;Node3</title>
<g id="a_edge2_Node000001_Node000003"><a xlink:title=" ">
<path fill="none" stroke="#63b8ff" d="M134.12,-254.54C151.46,-259.41 171.11,-264.92 190.05,-270.23"/>
<polygon fill="#63b8ff" stroke="#63b8ff" points="189.31,-273.66 199.88,-272.99 191.2,-266.92 189.31,-273.66"/>
</a>
</g>
</g>
<!-- Node8 -->
<g id="Node000008" class="node">
<title>Node8</title>
<g id="a_Node000008"><a xlink:href="classzero__mate_1_1arm1176jzf__s_1_1CCPU__Context.html#ae00681efcbc4adfcfde001a67c5baeca" target="_top" xlink:title="Returns the value of the SPSR register of the current CPU mode.">
<polygon fill="white" stroke="#666666" points="352.5,-254.5 195.5,-254.5 195.5,-224.5 352.5,-224.5 352.5,-254.5"/>
<text text-anchor="start" x="203.5" y="-242.5" font-family="Helvetica,sans-Serif" font-size="10.00">zero_mate::arm1176jzf</text>
<text text-anchor="middle" x="274" y="-231.5" font-family="Helvetica,sans-Serif" font-size="10.00">_s::CCPU_Context::Get_SPSR</text>
</a>
</g>
</g>
<!-- Node1&#45;&gt;Node8 -->
<g id="edge7_Node000001_Node000008" class="edge">
<title>Node1&#45;&gt;Node8</title>
<g id="a_edge7_Node000001_Node000008"><a xlink:title=" ">
<path fill="none" stroke="#63b8ff" d="M159.07,-239.5C167.67,-239.5 176.46,-239.5 185.15,-239.5"/>
<polygon fill="#63b8ff" stroke="#63b8ff" points="185.3,-243 195.3,-239.5 185.3,-236 185.3,-243"/>
</a>
</g>
</g>
<!-- Node16 -->
<g id="Node000016" class="node">
<title>Node16</title>
<g id="a_Node000016"><a xlink:href="classzero__mate_1_1arm1176jzf__s_1_1CCPU__Context.html#a53765299c790cc790e15deb2c701bd2a" target="_top" xlink:title="Sets a new value to the CPSR register.">
<polygon fill="white" stroke="#666666" points="352,-153.5 196,-153.5 196,-123.5 352,-123.5 352,-153.5"/>
<text text-anchor="start" x="204" y="-141.5" font-family="Helvetica,sans-Serif" font-size="10.00">zero_mate::arm1176jzf</text>
<text text-anchor="middle" x="274" y="-130.5" font-family="Helvetica,sans-Serif" font-size="10.00">_s::CCPU_Context::Set_CPSR</text>
</a>
</g>
</g>
<!-- Node1&#45;&gt;Node16 -->
<g id="edge15_Node000001_Node000016" class="edge">
<title>Node1&#45;&gt;Node16</title>
<g id="a_edge15_Node000001_Node000016"><a xlink:title=" ">
<path fill="none" stroke="#63b8ff" d="M101.68,-224.32C124.1,-208.7 160.89,-184.34 195,-167.5 202.37,-163.86 210.31,-160.41 218.21,-157.24"/>
<polygon fill="#63b8ff" stroke="#63b8ff" points="219.73,-160.4 227.79,-153.52 217.2,-153.88 219.73,-160.4"/>
</a>
</g>
</g>
<!-- Node20 -->
<g id="Node000020" class="node">
<title>Node20</title>
<g id="a_Node000020"><a xlink:href="classzero__mate_1_1arm1176jzf__s_1_1CCPU__Context.html#a1b322131a1168763d2b8083c17a1079b" target="_top" xlink:title="Sets the value of the SPSR register in the CPU mode passed in as a parameter.">
<polygon fill="white" stroke="#666666" points="351.5,-206.5 196.5,-206.5 196.5,-176.5 351.5,-176.5 351.5,-206.5"/>
<text text-anchor="start" x="204.5" y="-194.5" font-family="Helvetica,sans-Serif" font-size="10.00">zero_mate::arm1176jzf</text>
<text text-anchor="middle" x="274" y="-183.5" font-family="Helvetica,sans-Serif" font-size="10.00">_s::CCPU_Context::Set_SPSR</text>
</a>
</g>
</g>
<!-- Node1&#45;&gt;Node20 -->
<g id="edge20_Node000001_Node000020" class="edge">
<title>Node1&#45;&gt;Node20</title>
<g id="a_edge20_Node000001_Node000020"><a xlink:title=" ">
<path fill="none" stroke="#63b8ff" d="M140.88,-224.44C160.59,-219.53 182.64,-214.03 203,-208.96"/>
<polygon fill="#63b8ff" stroke="#63b8ff" points="203.98,-212.32 212.83,-206.5 202.28,-205.53 203.98,-212.32"/>
</a>
</g>
</g>
<!-- Node4 -->
<g id="Node000004" class="node">
<title>Node4</title>
<g id="a_Node000004"><a xlink:href="classzero__mate_1_1arm1176jzf__s_1_1isa_1_1CData__Processing.html#a5c64aa0622ddf4f42bccfa900673d005" target="_top" xlink:title="Return the immediate value (unsigned 8&#45;bit value).">
<polygon fill="white" stroke="#666666" points="536.5,-418 395.5,-418 395.5,-377 536.5,-377 536.5,-418"/>
<text text-anchor="start" x="403.5" y="-406" font-family="Helvetica,sans-Serif" font-size="10.00">zero_mate::arm1176jzf</text>
<text text-anchor="start" x="403.5" y="-395" font-family="Helvetica,sans-Serif" font-size="10.00">_s::isa::CData_Processing</text>
<text text-anchor="middle" x="466" y="-384" font-family="Helvetica,sans-Serif" font-size="10.00">::Get_Immediate</text>
</a>
</g>
</g>
<!-- Node3&#45;&gt;Node4 -->
<g id="edge3_Node000003_Node000004" class="edge">
<title>Node3&#45;&gt;Node4</title>
<g id="a_edge3_Node000003_Node000004"><a xlink:title=" ">
<path fill="none" stroke="#63b8ff" d="M337.48,-314.01C342.94,-316.83 348.2,-319.99 353,-323.5 373.67,-338.62 368.31,-353.4 389,-368.5 390.58,-369.65 392.22,-370.77 393.89,-371.85"/>
<polygon fill="#63b8ff" stroke="#63b8ff" points="392.17,-374.89 402.57,-376.9 395.69,-368.84 392.17,-374.89"/>
</a>
</g>
</g>
<!-- Node5 -->
<g id="Node000005" class="node">
<title>Node5</title>
<g id="a_Node000005"><a xlink:href="classzero__mate_1_1arm1176jzf__s_1_1isa_1_1CData__Processing.html#acd5c9629ee16e0512678279f85158b72" target="_top" xlink:title="Returns the shift amount to be applied to the immediate value.">
<polygon fill="white" stroke="#666666" points="536.5,-359 395.5,-359 395.5,-318 536.5,-318 536.5,-359"/>
<text text-anchor="start" x="403.5" y="-347" font-family="Helvetica,sans-Serif" font-size="10.00">zero_mate::arm1176jzf</text>
<text text-anchor="start" x="403.5" y="-336" font-family="Helvetica,sans-Serif" font-size="10.00">_s::isa::CData_Processing</text>
<text text-anchor="middle" x="466" y="-325" font-family="Helvetica,sans-Serif" font-size="10.00">::Get_Rotate</text>
</a>
</g>
</g>
<!-- Node3&#45;&gt;Node5 -->
<g id="edge4_Node000003_Node000005" class="edge">
<title>Node3&#45;&gt;Node5</title>
<g id="a_edge4_Node000003_Node000005"><a xlink:title=" ">
<path fill="none" stroke="#63b8ff" d="M350.09,-311.29C361.76,-314.05 373.85,-316.91 385.61,-319.7"/>
<polygon fill="#63b8ff" stroke="#63b8ff" points="384.86,-323.12 395.4,-322.02 386.47,-316.3 384.86,-323.12"/>
</a>
</g>
</g>
<!-- Node6 -->
<g id="Node000006" class="node">
<title>Node6</title>
<g id="a_Node000006"><a xlink:href="namespacezero__mate_1_1utils_1_1math.html#acec3045831345d7d2e2b3a20ff2fd4fd" target="_top" xlink:title="Performs an ROR (rotate right extended) operation on the given integral value.">
<polygon fill="white" stroke="#666666" points="543,-300 389,-300 389,-281 543,-281 543,-300"/>
<text text-anchor="middle" x="466" y="-288" font-family="Helvetica,sans-Serif" font-size="10.00">zero_mate::utils::math::ROR</text>
</a>
</g>
</g>
<!-- Node3&#45;&gt;Node6 -->
<g id="edge5_Node000003_Node000006" class="edge">
<title>Node3&#45;&gt;Node6</title>
<g id="a_edge5_Node000003_Node000006"><a xlink:title=" ">
<path fill="none" stroke="#63b8ff" d="M350.09,-292.31C359.46,-292.17 369.1,-292.01 378.63,-291.86"/>
<polygon fill="#63b8ff" stroke="#63b8ff" points="378.95,-295.36 388.9,-291.7 378.84,-288.36 378.95,-295.36"/>
</a>
</g>
</g>
<!-- Node7 -->
<g id="Node000007" class="node">
<title>Node7</title>
<g id="a_Node000007"><a xlink:href="namespacezero__mate_1_1utils_1_1math.html#af7d93c996dab2ff1b91c5a399dcfe29f" target="_top" xlink:title="Tests whether a bit is set in the given integral variable.">
<polygon fill="white" stroke="#666666" points="715.5,-308.5 588.5,-308.5 588.5,-278.5 715.5,-278.5 715.5,-308.5"/>
<text text-anchor="start" x="596.5" y="-296.5" font-family="Helvetica,sans-Serif" font-size="10.00">zero_mate::utils::math</text>
<text text-anchor="middle" x="652" y="-285.5" font-family="Helvetica,sans-Serif" font-size="10.00">::Is_Bit_Set</text>
</a>
</g>
</g>
<!-- Node6&#45;&gt;Node7 -->
<g id="edge6_Node000006_Node000007" class="edge">
<title>Node6&#45;&gt;Node7</title>
<g id="a_edge6_Node000006_Node000007"><a xlink:title=" ">
<path fill="none" stroke="#63b8ff" d="M543.17,-291.74C554.79,-291.93 566.76,-292.13 578.31,-292.31"/>
<polygon fill="#63b8ff" stroke="#63b8ff" points="578.27,-295.81 588.32,-292.48 578.38,-288.82 578.27,-295.81"/>
</a>
</g>
</g>
<!-- Node9 -->
<g id="Node000009" class="node">
<title>Node9</title>
<g id="a_Node000009"><a xlink:href="classzero__mate_1_1arm1176jzf__s_1_1CCPU__Context.html#a050dada520ca82a21874045815c596a8" target="_top" xlink:title=" ">
<polygon fill="white" stroke="#666666" points="534.5,-259 397.5,-259 397.5,-218 534.5,-218 534.5,-259"/>
<text text-anchor="start" x="405.5" y="-247" font-family="Helvetica,sans-Serif" font-size="10.00">zero_mate::arm1176jzf</text>
<text text-anchor="start" x="405.5" y="-236" font-family="Helvetica,sans-Serif" font-size="10.00">_s::CCPU_Context::Verify</text>
<text text-anchor="middle" x="466" y="-225" font-family="Helvetica,sans-Serif" font-size="10.00">_SPSR_Accessibility</text>
</a>
</g>
</g>
<!-- Node8&#45;&gt;Node9 -->
<g id="edge8_Node000008_Node000009" class="edge">
<title>Node8&#45;&gt;Node9</title>
<g id="a_edge8_Node000008_Node000009"><a xlink:title=" ">
<path fill="none" stroke="#63b8ff" d="M352.55,-239.09C364.06,-239.03 375.92,-238.97 387.43,-238.91"/>
<polygon fill="#63b8ff" stroke="#63b8ff" points="387.45,-242.41 397.44,-238.86 387.42,-235.41 387.45,-242.41"/>
</a>
</g>
</g>
<!-- Node10 -->
<g id="Node000010" class="node">
<title>Node10</title>
<g id="a_Node000010"><a xlink:href="classzero__mate_1_1utils_1_1CLogging__System.html#a57ed77e1a5cf822cea532cc5e05c3f60" target="_top" xlink:title="Logs an error message via all registered loggers.">
<polygon fill="white" stroke="#666666" points="725,-200.5 579,-200.5 579,-170.5 725,-170.5 725,-200.5"/>
<text text-anchor="start" x="587" y="-188.5" font-family="Helvetica,sans-Serif" font-size="10.00">zero_mate::utils::CLogging</text>
<text text-anchor="middle" x="652" y="-177.5" font-family="Helvetica,sans-Serif" font-size="10.00">_System::Error</text>
</a>
</g>
</g>
<!-- Node9&#45;&gt;Node10 -->
<g id="edge9_Node000009_Node000010" class="edge">
<title>Node9&#45;&gt;Node10</title>
<g id="a_edge9_Node000009_Node000010"><a xlink:title=" ">
<path fill="none" stroke="#63b8ff" d="M534.73,-218.99C552.38,-213.91 571.3,-208.46 588.66,-203.46"/>
<polygon fill="#63b8ff" stroke="#63b8ff" points="590.03,-206.7 598.67,-200.57 588.09,-199.98 590.03,-206.7"/>
</a>
</g>
</g>
<!-- Node15 -->
<g id="Node000015" class="node">
<title>Node15</title>
<g id="a_Node000015"><a xlink:href="classzero__mate_1_1arm1176jzf__s_1_1CCPU__Context.html#a6fc387fa0b0dd040c4e2463606d933e4" target="_top" xlink:title="Checks if the CPU mode passed in as a parameter supports the SPSR register or not.">
<polygon fill="white" stroke="#666666" points="717,-260 587,-260 587,-219 717,-219 717,-260"/>
<text text-anchor="start" x="595" y="-248" font-family="Helvetica,sans-Serif" font-size="10.00">zero_mate::arm1176jzf</text>
<text text-anchor="start" x="595" y="-237" font-family="Helvetica,sans-Serif" font-size="10.00">_s::CCPU_Context::Is</text>
<text text-anchor="middle" x="652" y="-226" font-family="Helvetica,sans-Serif" font-size="10.00">_Mode_With_No_SPSR</text>
</a>
</g>
</g>
<!-- Node9&#45;&gt;Node15 -->
<g id="edge14_Node000009_Node000015" class="edge">
<title>Node9&#45;&gt;Node15</title>
<g id="a_edge14_Node000009_Node000015"><a xlink:title=" ">
<path fill="none" stroke="#63b8ff" d="M534.73,-238.87C548.42,-238.94 562.88,-239.02 576.78,-239.1"/>
<polygon fill="#63b8ff" stroke="#63b8ff" points="576.76,-242.6 586.78,-239.15 576.8,-235.6 576.76,-242.6"/>
</a>
</g>
</g>
<!-- Node11 -->
<g id="Node000011" class="node">
<title>Node11</title>
<g id="a_Node000011"><a xlink:href="classzero__mate_1_1utils_1_1CLogging__System.html#a71ed11c796553cbe8fd99773406a1060" target="_top" xlink:title="Creates a formatted message to be logged.">
<polygon fill="white" stroke="#666666" points="913,-233 761,-233 761,-192 913,-192 913,-233"/>
<text text-anchor="start" x="769" y="-221" font-family="Helvetica,sans-Serif" font-size="10.00">zero_mate::utils::CLogging</text>
<text text-anchor="start" x="769" y="-210" font-family="Helvetica,sans-Serif" font-size="10.00">_System::Create_Formatted</text>
<text text-anchor="middle" x="837" y="-199" font-family="Helvetica,sans-Serif" font-size="10.00">_Log_Msg</text>
</a>
</g>
</g>
<!-- Node10&#45;&gt;Node11 -->
<g id="edge10_Node000010_Node000011" class="edge">
<title>Node10&#45;&gt;Node11</title>
<g id="a_edge10_Node000010_Node000011"><a xlink:title=" ">
<path fill="none" stroke="#63b8ff" d="M725.06,-196.13C733.55,-197.38 742.26,-198.67 750.9,-199.94"/>
<polygon fill="#63b8ff" stroke="#63b8ff" points="750.59,-203.44 760.99,-201.43 751.61,-196.51 750.59,-203.44"/>
</a>
</g>
</g>
<!-- Node14 -->
<g id="Node000014" class="node">
<title>Node14</title>
<g id="a_Node000014"><a xlink:href="classzero__mate_1_1utils_1_1CLogging__System.html#ad371c67ef65763966ccf9291002e86f3" target="_top" xlink:title="Extract the filename from a given location within the source files.">
<polygon fill="white" stroke="#666666" points="911.5,-173.5 762.5,-173.5 762.5,-143.5 911.5,-143.5 911.5,-173.5"/>
<text text-anchor="start" x="770.5" y="-161.5" font-family="Helvetica,sans-Serif" font-size="10.00">zero_mate::utils::CLogging</text>
<text text-anchor="middle" x="837" y="-150.5" font-family="Helvetica,sans-Serif" font-size="10.00">_System::Extract_Filename</text>
</a>
</g>
</g>
<!-- Node10&#45;&gt;Node14 -->
<g id="edge13_Node000010_Node000014" class="edge">
<title>Node10&#45;&gt;Node14</title>
<g id="a_edge13_Node000010_Node000014"><a xlink:title=" ">
<path fill="none" stroke="#63b8ff" d="M725.06,-174.87C734.1,-173.53 743.4,-172.16 752.59,-170.81"/>
<polygon fill="#63b8ff" stroke="#63b8ff" points="753.12,-174.27 762.5,-169.34 752.1,-167.34 753.12,-174.27"/>
</a>
</g>
</g>
<!-- Node12 -->
<g id="Node000012" class="node">
<title>Node12</title>
<g id="a_Node000012"><a xlink:href="classzero__mate_1_1utils_1_1CLogging__System.html#aa70c102c805079042ffea2a6f2a5ad64" target="_top" xlink:title="Formats a given timestamp.">
<polygon fill="white" stroke="#666666" points="1109,-251.5 949,-251.5 949,-221.5 1109,-221.5 1109,-251.5"/>
<text text-anchor="start" x="957" y="-239.5" font-family="Helvetica,sans-Serif" font-size="10.00">zero_mate::utils::CLogging</text>
<text text-anchor="middle" x="1029" y="-228.5" font-family="Helvetica,sans-Serif" font-size="10.00">_System::Format_Timestamp</text>
</a>
</g>
</g>
<!-- Node11&#45;&gt;Node12 -->
<g id="edge11_Node000011_Node000012" class="edge">
<title>Node11&#45;&gt;Node12</title>
<g id="a_edge11_Node000011_Node000012"><a xlink:title=" ">
<path fill="none" stroke="#63b8ff" d="M913.09,-221.99C921.52,-223.05 930.16,-224.14 938.74,-225.23"/>
<polygon fill="#63b8ff" stroke="#63b8ff" points="938.41,-228.71 948.77,-226.49 939.29,-221.77 938.41,-228.71"/>
</a>
</g>
</g>
<!-- Node13 -->
<g id="Node000013" class="node">
<title>Node13</title>
<g id="a_Node000013"><a xlink:href="classzero__mate_1_1utils_1_1CLogging__System.html#ae3ca637537dde05e0b9119145c840331" target="_top" xlink:title="Returns the current timestamp that will be used in a log message.">
<polygon fill="white" stroke="#666666" points="1102,-203.5 956,-203.5 956,-173.5 1102,-173.5 1102,-203.5"/>
<text text-anchor="start" x="964" y="-191.5" font-family="Helvetica,sans-Serif" font-size="10.00">zero_mate::utils::CLogging</text>
<text text-anchor="middle" x="1029" y="-180.5" font-family="Helvetica,sans-Serif" font-size="10.00">_System::Get_Timestamp</text>
</a>
</g>
</g>
<!-- Node11&#45;&gt;Node13 -->
<g id="edge12_Node000011_Node000013" class="edge">
<title>Node11&#45;&gt;Node13</title>
<g id="a_edge12_Node000011_Node000013"><a xlink:title=" ">
<path fill="none" stroke="#63b8ff" d="M913.09,-203.01C923.89,-201.65 935.05,-200.24 945.98,-198.86"/>
<polygon fill="#63b8ff" stroke="#63b8ff" points="946.45,-202.33 955.93,-197.6 945.57,-195.38 946.45,-202.33"/>
</a>
</g>
</g>
<!-- Node16&#45;&gt;Node10 -->
<g id="edge16_Node000016_Node000010" class="edge">
<title>Node16&#45;&gt;Node10</title>
<g id="a_edge16_Node000016_Node000010"><a xlink:title=" ">
<path fill="none" stroke="#63b8ff" d="M325.95,-153.55C345.5,-158.78 368.13,-164.16 389,-167.5 448.72,-177.07 516.9,-181.55 568.74,-183.65"/>
<polygon fill="#63b8ff" stroke="#63b8ff" points="568.75,-187.16 578.88,-184.04 569.02,-180.16 568.75,-187.16"/>
</a>
</g>
</g>
<!-- Node17 -->
<g id="Node000017" class="node">
<title>Node17</title>
<g id="a_Node000017"><a xlink:href="classzero__mate_1_1arm1176jzf__s_1_1CCPU__Context.html#aa740f9219bb413d707ac72f373e60d3a" target="_top" xlink:title="Returns the current mode of the CPU.">
<polygon fill="white" stroke="#666666" points="531,-159 401,-159 401,-118 531,-118 531,-159"/>
<text text-anchor="start" x="409" y="-147" font-family="Helvetica,sans-Serif" font-size="10.00">zero_mate::arm1176jzf</text>
<text text-anchor="start" x="409" y="-136" font-family="Helvetica,sans-Serif" font-size="10.00">_s::CCPU_Context::Get</text>
<text text-anchor="middle" x="466" y="-125" font-family="Helvetica,sans-Serif" font-size="10.00">_CPU_Mode</text>
</a>
</g>
</g>
<!-- Node16&#45;&gt;Node17 -->
<g id="edge17_Node000016_Node000017" class="edge">
<title>Node16&#45;&gt;Node17</title>
<g id="a_edge17_Node000016_Node000017"><a xlink:title=" ">
<path fill="none" stroke="#63b8ff" d="M352.01,-138.5C364.83,-138.5 378.11,-138.5 390.86,-138.5"/>
<polygon fill="#63b8ff" stroke="#63b8ff" points="390.96,-142 400.96,-138.5 390.96,-135 390.96,-142"/>
</a>
</g>
</g>
<!-- Node18 -->
<g id="Node000018" class="node">
<title>Node18</title>
<g id="a_Node000018"><a xlink:href="classzero__mate_1_1arm1176jzf__s_1_1CCPU__Context.html#aa53dae8f0dd16d916a852e572dfa95ba" target="_top" xlink:title="Checks if there is an invalid attempt to change the control bits of the CPSR register.">
<polygon fill="white" stroke="#666666" points="537.5,-100 394.5,-100 394.5,-59 537.5,-59 537.5,-100"/>
<text text-anchor="start" x="402.5" y="-88" font-family="Helvetica,sans-Serif" font-size="10.00">zero_mate::arm1176jzf</text>
<text text-anchor="start" x="402.5" y="-77" font-family="Helvetica,sans-Serif" font-size="10.00">_s::CCPU_Context::Invalid</text>
<text text-anchor="middle" x="466" y="-66" font-family="Helvetica,sans-Serif" font-size="10.00">_Change_Of_Control_Bits</text>
</a>
</g>
</g>
<!-- Node16&#45;&gt;Node18 -->
<g id="edge18_Node000016_Node000018" class="edge">
<title>Node16&#45;&gt;Node18</title>
<g id="a_edge18_Node000016_Node000018"><a xlink:title=" ">
<path fill="none" stroke="#63b8ff" d="M323.44,-123.46C343.36,-117.27 366.91,-109.96 389.02,-103.09"/>
<polygon fill="#63b8ff" stroke="#63b8ff" points="390.22,-106.39 398.73,-100.08 388.14,-99.7 390.22,-106.39"/>
</a>
</g>
</g>
<!-- Node19 -->
<g id="Node000019" class="node">
<title>Node19</title>
<g id="a_Node000019"><a xlink:href="classzero__mate_1_1arm1176jzf__s_1_1CCPU__Context.html#a7efff674f8141eab73cb69099220f0d5" target="_top" xlink:title="Sets the mode of the CPU.">
<polygon fill="white" stroke="#666666" points="531,-41 401,-41 401,0 531,0 531,-41"/>
<text text-anchor="start" x="409" y="-29" font-family="Helvetica,sans-Serif" font-size="10.00">zero_mate::arm1176jzf</text>
<text text-anchor="start" x="409" y="-18" font-family="Helvetica,sans-Serif" font-size="10.00">_s::CCPU_Context::Set</text>
<text text-anchor="middle" x="466" y="-7" font-family="Helvetica,sans-Serif" font-size="10.00">_CPU_Mode</text>
</a>
</g>
</g>
<!-- Node16&#45;&gt;Node19 -->
<g id="edge19_Node000016_Node000019" class="edge">
<title>Node16&#45;&gt;Node19</title>
<g id="a_edge19_Node000016_Node000019"><a xlink:title=" ">
<path fill="none" stroke="#63b8ff" d="M291.25,-123.23C312.41,-103.99 351.17,-70.85 389,-49.5 391.48,-48.1 394.04,-46.74 396.65,-45.43"/>
<polygon fill="#63b8ff" stroke="#63b8ff" points="398.17,-48.58 405.7,-41.12 395.16,-42.26 398.17,-48.58"/>
</a>
</g>
</g>
<!-- Node20&#45;&gt;Node9 -->
<g id="edge21_Node000020_Node000009" class="edge">
<title>Node20&#45;&gt;Node9</title>
<g id="a_edge21_Node000020_Node000009"><a xlink:title=" ">
<path fill="none" stroke="#63b8ff" d="M335.64,-206.5C352.07,-210.57 370.09,-215.02 387.32,-219.28"/>
<polygon fill="#63b8ff" stroke="#63b8ff" points="386.81,-222.76 397.36,-221.77 388.49,-215.97 386.81,-222.76"/>
</a>
</g>
</g>
</g>
</svg>
