<?xml version="1.0" encoding="UTF-8" standalone="no"?>
<!DOCTYPE svg PUBLIC "-//W3C//DTD SVG 1.1//EN"
 "http://www.w3.org/Graphics/SVG/1.1/DTD/svg11.dtd">
<!-- Generated by graphviz version 2.43.0 (0)
 -->
<!-- Title: zero_mate::peripheral::CARM_Timer::Write Pages: 1 -->
<svg width="723pt" height="170pt"
 viewBox="0.00 0.00 723.00 170.00" xmlns="http://www.w3.org/2000/svg" xmlns:xlink="http://www.w3.org/1999/xlink">
<g id="graph0" class="graph" transform="scale(1 1) rotate(0) translate(4 166)">
<title>zero_mate::peripheral::CARM_Timer::Write</title>
<!-- Node1 -->
<g id="Node000001" class="node">
<title>Node1</title>
<g id="a_Node000001"><a xlink:title="Writes data to the peripheral (IPeripheral interface).">
<polygon fill="#999999" stroke="#666666" points="124,-119 0,-119 0,-89 124,-89 124,-119"/>
<text text-anchor="start" x="8" y="-107" font-family="Helvetica,sans-Serif" font-size="10.00">zero_mate::peripheral</text>
<text text-anchor="middle" x="62" y="-96" font-family="Helvetica,sans-Serif" font-size="10.00">::CARM_Timer::Write</text>
</a>
</g>
</g>
<!-- Node2 -->
<g id="Node000002" class="node">
<title>Node2</title>
<g id="a_Node000002"><a xlink:href="classzero__mate_1_1peripheral_1_1CARM__Timer.html#a9f2ae98d766d97f06f4b153a99bafcaa" target="_top" xlink:title="Clear a pending interrupt (helper function).">
<polygon fill="white" stroke="#666666" points="331,-162 160,-162 160,-132 331,-132 331,-162"/>
<text text-anchor="start" x="168" y="-150" font-family="Helvetica,sans-Serif" font-size="10.00">zero_mate::peripheral</text>
<text text-anchor="middle" x="245.5" y="-139" font-family="Helvetica,sans-Serif" font-size="10.00">::CARM_Timer::Clear_Basic_IRQ</text>
</a>
</g>
</g>
<!-- Node1&#45;&gt;Node2 -->
<g id="edge1_Node000001_Node000002" class="edge">
<title>Node1&#45;&gt;Node2</title>
<g id="a_edge1_Node000001_Node000002"><a xlink:title=" ">
<path fill="none" stroke="#63b8ff" d="M124.19,-118.5C139.22,-122.06 155.46,-125.91 171,-129.59"/>
<polygon fill="#63b8ff" stroke="#63b8ff" points="170.56,-133.08 181.09,-131.98 172.17,-126.27 170.56,-133.08"/>
</a>
</g>
</g>
<!-- Node3 -->
<g id="Node000003" class="node">
<title>Node3</title>
<g id="a_Node000003"><a xlink:href="classzero__mate_1_1peripheral_1_1CARM__Timer.html#a8aa88bde21b52e4ae5132f8e2a5fb73a" target="_top" xlink:title="Returns the current content of a register.">
<polygon fill="white" stroke="#666666" points="509.5,-154 376.5,-154 376.5,-124 509.5,-124 509.5,-154"/>
<text text-anchor="start" x="384.5" y="-142" font-family="Helvetica,sans-Serif" font-size="10.00">zero_mate::peripheral</text>
<text text-anchor="middle" x="443" y="-131" font-family="Helvetica,sans-Serif" font-size="10.00">::CARM_Timer::Get_Reg</text>
</a>
</g>
</g>
<!-- Node1&#45;&gt;Node3 -->
<g id="edge3_Node000001_Node000003" class="edge">
<title>Node1&#45;&gt;Node3</title>
<g id="a_edge3_Node000001_Node000003"><a xlink:title=" ">
<path fill="none" stroke="#63b8ff" d="M124.05,-107.07C178.44,-110.1 260.16,-115.39 331,-123 342.38,-124.22 354.39,-125.73 366.13,-127.32"/>
<polygon fill="#63b8ff" stroke="#63b8ff" points="365.98,-130.83 376.36,-128.74 366.94,-123.9 365.98,-130.83"/>
</a>
</g>
</g>
<!-- Node4 -->
<g id="Node000004" class="node">
<title>Node4</title>
<g id="a_Node000004"><a xlink:href="classzero__mate_1_1utils_1_1CLogging__System.html#a2bb4d37b178f29335f726875bad91bd4" target="_top" xlink:title="Logs a warning message via all registered loggers.">
<polygon fill="white" stroke="#666666" points="318.5,-76 172.5,-76 172.5,-46 318.5,-46 318.5,-76"/>
<text text-anchor="start" x="180.5" y="-64" font-family="Helvetica,sans-Serif" font-size="10.00">zero_mate::utils::CLogging</text>
<text text-anchor="middle" x="245.5" y="-53" font-family="Helvetica,sans-Serif" font-size="10.00">_System::Warning</text>
</a>
</g>
</g>
<!-- Node1&#45;&gt;Node4 -->
<g id="edge4_Node000001_Node000004" class="edge">
<title>Node1&#45;&gt;Node4</title>
<g id="a_edge4_Node000001_Node000004"><a xlink:title=" ">
<path fill="none" stroke="#63b8ff" d="M124.19,-89.5C139.22,-85.94 155.46,-82.09 171,-78.41"/>
<polygon fill="#63b8ff" stroke="#63b8ff" points="172.17,-81.73 181.09,-76.02 170.56,-74.92 172.17,-81.73"/>
</a>
</g>
</g>
<!-- Node2&#45;&gt;Node3 -->
<g id="edge2_Node000002_Node000003" class="edge">
<title>Node2&#45;&gt;Node3</title>
<g id="a_edge2_Node000002_Node000003"><a xlink:title=" ">
<path fill="none" stroke="#63b8ff" d="M331.11,-143.54C342.84,-143.06 354.84,-142.57 366.39,-142.09"/>
<polygon fill="#63b8ff" stroke="#63b8ff" points="366.57,-145.59 376.41,-141.68 366.28,-138.6 366.57,-145.59"/>
</a>
</g>
</g>
<!-- Node5 -->
<g id="Node000005" class="node">
<title>Node5</title>
<g id="a_Node000005"><a xlink:href="classzero__mate_1_1utils_1_1CLogging__System.html#a71ed11c796553cbe8fd99773406a1060" target="_top" xlink:title="Creates a formatted message to be logged.">
<polygon fill="white" stroke="#666666" points="519,-89.5 367,-89.5 367,-48.5 519,-48.5 519,-89.5"/>
<text text-anchor="start" x="375" y="-77.5" font-family="Helvetica,sans-Serif" font-size="10.00">zero_mate::utils::CLogging</text>
<text text-anchor="start" x="375" y="-66.5" font-family="Helvetica,sans-Serif" font-size="10.00">_System::Create_Formatted</text>
<text text-anchor="middle" x="443" y="-55.5" font-family="Helvetica,sans-Serif" font-size="10.00">_Log_Msg</text>
</a>
</g>
</g>
<!-- Node4&#45;&gt;Node5 -->
<g id="edge5_Node000004_Node000005" class="edge">
<title>Node4&#45;&gt;Node5</title>
<g id="a_edge5_Node000004_Node000005"><a xlink:title=" ">
<path fill="none" stroke="#63b8ff" d="M318.74,-63.96C331.1,-64.46 344.04,-64.99 356.71,-65.51"/>
<polygon fill="#63b8ff" stroke="#63b8ff" points="356.65,-69.01 366.78,-65.92 356.93,-62.02 356.65,-69.01"/>
</a>
</g>
</g>
<!-- Node8 -->
<g id="Node000008" class="node">
<title>Node8</title>
<g id="a_Node000008"><a xlink:href="classzero__mate_1_1utils_1_1CLogging__System.html#ad371c67ef65763966ccf9291002e86f3" target="_top" xlink:title="Extract the filename from a given location within the source files.">
<polygon fill="white" stroke="#666666" points="517.5,-30 368.5,-30 368.5,0 517.5,0 517.5,-30"/>
<text text-anchor="start" x="376.5" y="-18" font-family="Helvetica,sans-Serif" font-size="10.00">zero_mate::utils::CLogging</text>
<text text-anchor="middle" x="443" y="-7" font-family="Helvetica,sans-Serif" font-size="10.00">_System::Extract_Filename</text>
</a>
</g>
</g>
<!-- Node4&#45;&gt;Node8 -->
<g id="edge8_Node000004_Node000008" class="edge">
<title>Node4&#45;&gt;Node8</title>
<g id="a_edge8_Node000004_Node000008"><a xlink:title=" ">
<path fill="none" stroke="#63b8ff" d="M310.51,-45.94C329.01,-41.59 349.33,-36.8 368.36,-32.33"/>
<polygon fill="#63b8ff" stroke="#63b8ff" points="369.24,-35.71 378.18,-30.02 367.64,-28.9 369.24,-35.71"/>
</a>
</g>
</g>
<!-- Node6 -->
<g id="Node000006" class="node">
<title>Node6</title>
<g id="a_Node000006"><a xlink:href="classzero__mate_1_1utils_1_1CLogging__System.html#aa70c102c805079042ffea2a6f2a5ad64" target="_top" xlink:title="Formats a given timestamp.">
<polygon fill="white" stroke="#666666" points="715,-108 555,-108 555,-78 715,-78 715,-108"/>
<text text-anchor="start" x="563" y="-96" font-family="Helvetica,sans-Serif" font-size="10.00">zero_mate::utils::CLogging</text>
<text text-anchor="middle" x="635" y="-85" font-family="Helvetica,sans-Serif" font-size="10.00">_System::Format_Timestamp</text>
</a>
</g>
</g>
<!-- Node5&#45;&gt;Node6 -->
<g id="edge6_Node000005_Node000006" class="edge">
<title>Node5&#45;&gt;Node6</title>
<g id="a_edge6_Node000005_Node000006"><a xlink:title=" ">
<path fill="none" stroke="#63b8ff" d="M519.09,-78.49C527.52,-79.55 536.16,-80.64 544.74,-81.73"/>
<polygon fill="#63b8ff" stroke="#63b8ff" points="544.41,-85.21 554.77,-82.99 545.29,-78.27 544.41,-85.21"/>
</a>
</g>
</g>
<!-- Node7 -->
<g id="Node000007" class="node">
<title>Node7</title>
<g id="a_Node000007"><a xlink:href="classzero__mate_1_1utils_1_1CLogging__System.html#ae3ca637537dde05e0b9119145c840331" target="_top" xlink:title="Returns the current timestamp that will be used in a log message.">
<polygon fill="white" stroke="#666666" points="708,-60 562,-60 562,-30 708,-30 708,-60"/>
<text text-anchor="start" x="570" y="-48" font-family="Helvetica,sans-Serif" font-size="10.00">zero_mate::utils::CLogging</text>
<text text-anchor="middle" x="635" y="-37" font-family="Helvetica,sans-Serif" font-size="10.00">_System::Get_Timestamp</text>
</a>
</g>
</g>
<!-- Node5&#45;&gt;Node7 -->
<g id="edge7_Node000005_Node000007" class="edge">
<title>Node5&#45;&gt;Node7</title>
<g id="a_edge7_Node000005_Node000007"><a xlink:title=" ">
<path fill="none" stroke="#63b8ff" d="M519.09,-59.51C529.89,-58.15 541.05,-56.74 551.98,-55.36"/>
<polygon fill="#63b8ff" stroke="#63b8ff" points="552.45,-58.83 561.93,-54.1 551.57,-51.88 552.45,-58.83"/>
</a>
</g>
</g>
</g>
</svg>
