<?xml version="1.0" encoding="UTF-8" standalone="no"?>
<!DOCTYPE svg PUBLIC "-//W3C//DTD SVG 1.1//EN"
 "http://www.w3.org/Graphics/SVG/1.1/DTD/svg11.dtd">
<!-- Generated by graphviz version 2.43.0 (0)
 -->
<!-- Title: zero_mate::gui::CSource_Code_Window::Render_Code_Block Pages: 1 -->
<svg width="800pt" height="38pt"
 viewBox="0.00 0.00 800.00 38.00" xmlns="http://www.w3.org/2000/svg" xmlns:xlink="http://www.w3.org/1999/xlink">
<g id="graph0" class="graph" transform="scale(1 1) rotate(0) translate(4 34)">
<title>zero_mate::gui::CSource_Code_Window::Render_Code_Block</title>
<!-- Node1 -->
<g id="Node000001" class="node">
<title>Node1</title>
<g id="a_Node000001"><a xlink:title="Renders a block of code (a single function/method).">
<polygon fill="#999999" stroke="#666666" points="792,-30 599,-30 599,0 792,0 792,-30"/>
<text text-anchor="start" x="607" y="-18" font-family="Helvetica,sans-Serif" font-size="10.00">zero_mate::gui::CSource</text>
<text text-anchor="middle" x="695.5" y="-7" font-family="Helvetica,sans-Serif" font-size="10.00">_Code_Window::Render_Code_Block</text>
</a>
</g>
</g>
<!-- Node2 -->
<g id="Node000002" class="node">
<title>Node2</title>
<g id="a_Node000002"><a xlink:href="classzero__mate_1_1gui_1_1CSource__Code__Window.html#a2088711954d53ac5f57e4a085770590f" target="_top" xlink:title="Renders a single tab (ELF source file).">
<polygon fill="white" stroke="#666666" points="563,-30 411,-30 411,0 563,0 563,-30"/>
<text text-anchor="start" x="419" y="-18" font-family="Helvetica,sans-Serif" font-size="10.00">zero_mate::gui::CSource</text>
<text text-anchor="middle" x="487" y="-7" font-family="Helvetica,sans-Serif" font-size="10.00">_Code_Window::Render_Tab</text>
</a>
</g>
</g>
<!-- Node1&#45;&gt;Node2 -->
<g id="edge1_Node000001_Node000002" class="edge">
<title>Node1&#45;&gt;Node2</title>
<g id="a_edge1_Node000001_Node000002"><a xlink:title=" ">
<path fill="none" stroke="#63b8ff" d="M588.73,-15C580.14,-15 571.58,-15 563.28,-15"/>
<polygon fill="#63b8ff" stroke="#63b8ff" points="588.81,-18.5 598.81,-15 588.81,-11.5 588.81,-18.5"/>
</a>
</g>
</g>
<!-- Node3 -->
<g id="Node000003" class="node">
<title>Node3</title>
<g id="a_Node000003"><a xlink:href="classzero__mate_1_1gui_1_1CSource__Code__Window.html#a1f2a59252814f5b499c09bf2959741ad" target="_top" xlink:title="Renders the disassembled contents of all ELF loaded into the emulator.">
<polygon fill="white" stroke="#666666" points="375,-30 171,-30 171,0 375,0 375,-30"/>
<text text-anchor="start" x="179" y="-18" font-family="Helvetica,sans-Serif" font-size="10.00">zero_mate::gui::CSource</text>
<text text-anchor="middle" x="273" y="-7" font-family="Helvetica,sans-Serif" font-size="10.00">_Code_Window::Render_Source_Codes</text>
</a>
</g>
</g>
<!-- Node2&#45;&gt;Node3 -->
<g id="edge2_Node000002_Node000003" class="edge">
<title>Node2&#45;&gt;Node3</title>
<g id="a_edge2_Node000002_Node000003"><a xlink:title=" ">
<path fill="none" stroke="#63b8ff" d="M400.82,-15C392.42,-15 383.84,-15 375.3,-15"/>
<polygon fill="#63b8ff" stroke="#63b8ff" points="400.96,-18.5 410.96,-15 400.96,-11.5 400.96,-18.5"/>
</a>
</g>
</g>
<!-- Node4 -->
<g id="Node000004" class="node">
<title>Node4</title>
<g id="a_Node000004"><a xlink:href="classzero__mate_1_1gui_1_1CSource__Code__Window.html#a24d4560bdcaf8c4fb0611de1b55ac687" target="_top" xlink:title="Renders the window (IGUI_Window interface).">
<polygon fill="white" stroke="#666666" points="135,-30 0,-30 0,0 135,0 135,-30"/>
<text text-anchor="start" x="8" y="-18" font-family="Helvetica,sans-Serif" font-size="10.00">zero_mate::gui::CSource</text>
<text text-anchor="middle" x="67.5" y="-7" font-family="Helvetica,sans-Serif" font-size="10.00">_Code_Window::Render</text>
</a>
</g>
</g>
<!-- Node3&#45;&gt;Node4 -->
<g id="edge3_Node000003_Node000004" class="edge">
<title>Node3&#45;&gt;Node4</title>
<g id="a_edge3_Node000003_Node000004"><a xlink:title=" ">
<path fill="none" stroke="#63b8ff" d="M160.67,-15C152.03,-15 143.49,-15 135.28,-15"/>
<polygon fill="#63b8ff" stroke="#63b8ff" points="160.85,-18.5 170.85,-15 160.85,-11.5 160.85,-18.5"/>
</a>
</g>
</g>
</g>
</svg>
