<?xml version="1.0" encoding="UTF-8" standalone="no"?>
<!DOCTYPE svg PUBLIC "-//W3C//DTD SVG 1.1//EN"
 "http://www.w3.org/Graphics/SVG/1.1/DTD/svg11.dtd">
<!-- Generated by graphviz version 2.43.0 (0)
 -->
<!-- Title: zero_mate::peripheral::CARM_Timer::Get_Reg Pages: 1 -->
<svg width="541pt" height="270pt"
 viewBox="0.00 0.00 541.00 270.00" xmlns="http://www.w3.org/2000/svg" xmlns:xlink="http://www.w3.org/1999/xlink">
<g id="graph0" class="graph" transform="scale(1 1) rotate(0) translate(4 266)">
<title>zero_mate::peripheral::CARM_Timer::Get_Reg</title>
<!-- Node1 -->
<g id="Node000001" class="node">
<title>Node1</title>
<g id="a_Node000001"><a xlink:title="Returns the current content of a register.">
<polygon fill="#999999" stroke="#666666" points="533,-154 400,-154 400,-124 533,-124 533,-154"/>
<text text-anchor="start" x="408" y="-142" font-family="Helvetica,sans-Serif" font-size="10.00">zero_mate::peripheral</text>
<text text-anchor="middle" x="466.5" y="-131" font-family="Helvetica,sans-Serif" font-size="10.00">::CARM_Timer::Get_Reg</text>
</a>
</g>
</g>
<!-- Node2 -->
<g id="Node000002" class="node">
<title>Node2</title>
<g id="a_Node000002"><a xlink:href="classzero__mate_1_1peripheral_1_1CARM__Timer.html#a9f2ae98d766d97f06f4b153a99bafcaa" target="_top" xlink:title="Clear a pending interrupt (helper function).">
<polygon fill="white" stroke="#666666" points="363,-262 192,-262 192,-232 363,-232 363,-262"/>
<text text-anchor="start" x="200" y="-250" font-family="Helvetica,sans-Serif" font-size="10.00">zero_mate::peripheral</text>
<text text-anchor="middle" x="277.5" y="-239" font-family="Helvetica,sans-Serif" font-size="10.00">::CARM_Timer::Clear_Basic_IRQ</text>
</a>
</g>
</g>
<!-- Node1&#45;&gt;Node2 -->
<g id="edge1_Node000001_Node000002" class="edge">
<title>Node1&#45;&gt;Node2</title>
<g id="a_edge1_Node000001_Node000002"><a xlink:title=" ">
<path fill="none" stroke="#63b8ff" d="M441.95,-161.07C422.34,-178.48 393.03,-202.36 364,-218 354.06,-223.35 342.95,-227.99 332.12,-231.89"/>
<polygon fill="#63b8ff" stroke="#63b8ff" points="444.39,-163.58 449.47,-154.28 439.7,-158.38 444.39,-163.58"/>
</a>
</g>
</g>
<!-- Node3 -->
<g id="Node000003" class="node">
<title>Node3</title>
<g id="a_Node000003"><a xlink:href="classzero__mate_1_1peripheral_1_1CARM__Timer.html#adb5da1b77debf34bb53e590c1774af34" target="_top" xlink:title="Writes data to the peripheral (IPeripheral interface).">
<polygon fill="white" stroke="#666666" points="139.5,-240 15.5,-240 15.5,-210 139.5,-210 139.5,-240"/>
<text text-anchor="start" x="23.5" y="-228" font-family="Helvetica,sans-Serif" font-size="10.00">zero_mate::peripheral</text>
<text text-anchor="middle" x="77.5" y="-217" font-family="Helvetica,sans-Serif" font-size="10.00">::CARM_Timer::Write</text>
</a>
</g>
</g>
<!-- Node1&#45;&gt;Node3 -->
<g id="edge10_Node000001_Node000003" class="edge">
<title>Node1&#45;&gt;Node3</title>
<g id="a_edge10_Node000001_Node000003"><a xlink:title=" ">
<path fill="none" stroke="#63b8ff" d="M428.77,-158.73C409.9,-168.06 386.25,-178.54 364,-185 288.53,-206.89 198.25,-216.98 139.71,-221.5"/>
<polygon fill="#63b8ff" stroke="#63b8ff" points="430.54,-161.76 437.89,-154.13 427.38,-155.51 430.54,-161.76"/>
</a>
</g>
</g>
<!-- Node4 -->
<g id="Node000004" class="node">
<title>Node4</title>
<g id="a_Node000004"><a xlink:href="classzero__mate_1_1peripheral_1_1CARM__Timer.html#a6f089d92275345a7f7a363c942bc8692" target="_top" xlink:title="Returns the current content of the control register.">
<polygon fill="white" stroke="#666666" points="364,-176 191,-176 191,-146 364,-146 364,-176"/>
<text text-anchor="start" x="199" y="-164" font-family="Helvetica,sans-Serif" font-size="10.00">zero_mate::peripheral</text>
<text text-anchor="middle" x="277.5" y="-153" font-family="Helvetica,sans-Serif" font-size="10.00">::CARM_Timer::Get_Control_Reg</text>
</a>
</g>
</g>
<!-- Node1&#45;&gt;Node4 -->
<g id="edge3_Node000001_Node000004" class="edge">
<title>Node1&#45;&gt;Node4</title>
<g id="a_edge3_Node000001_Node000004"><a xlink:title=" ">
<path fill="none" stroke="#63b8ff" d="M389.66,-147.92C381.22,-148.92 372.58,-149.93 364.03,-150.94"/>
<polygon fill="#63b8ff" stroke="#63b8ff" points="390.31,-151.37 399.83,-146.73 389.49,-144.42 390.31,-151.37"/>
</a>
</g>
</g>
<!-- Node5 -->
<g id="Node000005" class="node">
<title>Node5</title>
<g id="a_Node000005"><a xlink:href="classzero__mate_1_1peripheral_1_1CARM__Timer.html#afc4c9659823762252dd1ea58b8a76e1e" target="_top" xlink:title="Updates the timer (ISystem_Clock_Listener interface).">
<polygon fill="white" stroke="#666666" points="148,-138.5 7,-138.5 7,-97.5 148,-97.5 148,-138.5"/>
<text text-anchor="start" x="15" y="-126.5" font-family="Helvetica,sans-Serif" font-size="10.00">zero_mate::peripheral</text>
<text text-anchor="start" x="15" y="-115.5" font-family="Helvetica,sans-Serif" font-size="10.00">::CARM_Timer::Increment</text>
<text text-anchor="middle" x="77.5" y="-104.5" font-family="Helvetica,sans-Serif" font-size="10.00">_Passed_Cycles</text>
</a>
</g>
</g>
<!-- Node1&#45;&gt;Node5 -->
<g id="edge5_Node000001_Node000005" class="edge">
<title>Node1&#45;&gt;Node5</title>
<g id="a_edge5_Node000001_Node000005"><a xlink:title=" ">
<path fill="none" stroke="#63b8ff" d="M389.75,-134.89C319.61,-131.08 216.17,-125.47 148.07,-121.78"/>
<polygon fill="#63b8ff" stroke="#63b8ff" points="389.68,-138.39 399.85,-135.44 390.06,-131.4 389.68,-138.39"/>
</a>
</g>
</g>
<!-- Node6 -->
<g id="Node000006" class="node">
<title>Node6</title>
<g id="a_Node000006"><a xlink:href="classzero__mate_1_1peripheral_1_1CARM__Timer.html#a98d9eb00ca1545607ed62e4051063eb7" target="_top" xlink:title="Resets/re&#45;initializes the ARM timer (IPeripheral interface).">
<polygon fill="white" stroke="#666666" points="339.5,-30 215.5,-30 215.5,0 339.5,0 339.5,-30"/>
<text text-anchor="start" x="223.5" y="-18" font-family="Helvetica,sans-Serif" font-size="10.00">zero_mate::peripheral</text>
<text text-anchor="middle" x="277.5" y="-7" font-family="Helvetica,sans-Serif" font-size="10.00">::CARM_Timer::Reset</text>
</a>
</g>
</g>
<!-- Node1&#45;&gt;Node6 -->
<g id="edge6_Node000001_Node000006" class="edge">
<title>Node1&#45;&gt;Node6</title>
<g id="a_edge6_Node000001_Node000006"><a xlink:title=" ">
<path fill="none" stroke="#63b8ff" d="M447.69,-115.57C429.17,-92.8 398.15,-58.82 364,-39 356.53,-34.67 348.24,-31.08 339.84,-28.12"/>
<polygon fill="#63b8ff" stroke="#63b8ff" points="445.19,-118.05 454.16,-123.7 450.67,-113.7 445.19,-118.05"/>
</a>
</g>
</g>
<!-- Node8 -->
<g id="Node000008" class="node">
<title>Node8</title>
<g id="a_Node000008"><a xlink:href="classzero__mate_1_1peripheral_1_1CARM__Timer.html#a9abc7d434c8ec8120e49e2add79e7346" target="_top" xlink:title="This procedure is called whenever the timer reaches 0 (helper function).">
<polygon fill="white" stroke="#666666" points="349.5,-89.5 205.5,-89.5 205.5,-48.5 349.5,-48.5 349.5,-89.5"/>
<text text-anchor="start" x="213.5" y="-77.5" font-family="Helvetica,sans-Serif" font-size="10.00">zero_mate::peripheral</text>
<text text-anchor="start" x="213.5" y="-66.5" font-family="Helvetica,sans-Serif" font-size="10.00">::CARM_Timer::Timer_Has</text>
<text text-anchor="middle" x="277.5" y="-55.5" font-family="Helvetica,sans-Serif" font-size="10.00">_Reached_Zero</text>
</a>
</g>
</g>
<!-- Node1&#45;&gt;Node8 -->
<g id="edge8_Node000001_Node000008" class="edge">
<title>Node1&#45;&gt;Node8</title>
<g id="a_edge8_Node000001_Node000008"><a xlink:title=" ">
<path fill="none" stroke="#63b8ff" d="M415.95,-120.45C390.56,-110.95 359.57,-99.35 333.45,-89.57"/>
<polygon fill="#63b8ff" stroke="#63b8ff" points="414.79,-123.76 425.38,-123.98 417.25,-117.2 414.79,-123.76"/>
</a>
</g>
</g>
<!-- Node2&#45;&gt;Node3 -->
<g id="edge2_Node000002_Node000003" class="edge">
<title>Node2&#45;&gt;Node3</title>
<g id="a_edge2_Node000002_Node000003"><a xlink:title=" ">
<path fill="none" stroke="#63b8ff" d="M181.62,-236.46C167.37,-234.87 153,-233.28 139.71,-231.8"/>
<polygon fill="#63b8ff" stroke="#63b8ff" points="181.63,-239.98 191.96,-237.61 182.4,-233.02 181.63,-239.98"/>
</a>
</g>
</g>
<!-- Node4&#45;&gt;Node5 -->
<g id="edge4_Node000004_Node000005" class="edge">
<title>Node4&#45;&gt;Node5</title>
<g id="a_edge4_Node000004_Node000005"><a xlink:title=" ">
<path fill="none" stroke="#63b8ff" d="M197.23,-143.78C180.96,-140.25 163.94,-136.56 148.05,-133.1"/>
<polygon fill="#63b8ff" stroke="#63b8ff" points="196.73,-147.26 207.25,-145.96 198.22,-140.42 196.73,-147.26"/>
</a>
</g>
</g>
<!-- Node7 -->
<g id="Node000007" class="node">
<title>Node7</title>
<g id="a_Node000007"><a xlink:href="classzero__mate_1_1peripheral_1_1CARM__Timer.html#a6e04a50b8de25f632bd3fd6f0650ca89" target="_top" xlink:title="Creates an instance of the class.">
<polygon fill="white" stroke="#666666" points="155,-30 0,-30 0,0 155,0 155,-30"/>
<text text-anchor="start" x="8" y="-18" font-family="Helvetica,sans-Serif" font-size="10.00">zero_mate::peripheral</text>
<text text-anchor="middle" x="77.5" y="-7" font-family="Helvetica,sans-Serif" font-size="10.00">::CARM_Timer::CARM_Timer</text>
</a>
</g>
</g>
<!-- Node6&#45;&gt;Node7 -->
<g id="edge7_Node000006_Node000007" class="edge">
<title>Node6&#45;&gt;Node7</title>
<g id="a_edge7_Node000006_Node000007"><a xlink:title=" ">
<path fill="none" stroke="#63b8ff" d="M205.46,-15C189.1,-15 171.64,-15 155.06,-15"/>
<polygon fill="#63b8ff" stroke="#63b8ff" points="205.48,-18.5 215.48,-15 205.48,-11.5 205.48,-18.5"/>
</a>
</g>
</g>
<!-- Node8&#45;&gt;Node5 -->
<g id="edge9_Node000008_Node000005" class="edge">
<title>Node8&#45;&gt;Node5</title>
<g id="a_edge9_Node000008_Node000005"><a xlink:title=" ">
<path fill="none" stroke="#63b8ff" d="M195.58,-89.03C179.82,-92.93 163.43,-96.98 148.08,-100.78"/>
<polygon fill="#63b8ff" stroke="#63b8ff" points="196.43,-92.42 205.3,-86.62 194.75,-85.63 196.43,-92.42"/>
</a>
</g>
</g>
</g>
</svg>
