<?xml version="1.0" encoding="UTF-8" standalone="no"?>
<!DOCTYPE svg PUBLIC "-//W3C//DTD SVG 1.1//EN"
 "http://www.w3.org/Graphics/SVG/1.1/DTD/svg11.dtd">
<!-- Generated by graphviz version 2.43.0 (0)
 -->
<!-- Title: zero_mate::gui::CControl_Window::Render_Control_Buttons Pages: 1 -->
<svg width="1104pt" height="161pt"
 viewBox="0.00 0.00 1104.00 161.00" xmlns="http://www.w3.org/2000/svg" xmlns:xlink="http://www.w3.org/1999/xlink">
<g id="graph0" class="graph" transform="scale(1 1) rotate(0) translate(4 157)">
<title>zero_mate::gui::CControl_Window::Render_Control_Buttons</title>
<!-- Node1 -->
<g id="Node000001" class="node">
<title>Node1</title>
<g id="a_Node000001"><a xlink:title="Renders the control button (step, stop, run)">
<polygon fill="#999999" stroke="#666666" points="141,-83.5 0,-83.5 0,-42.5 141,-42.5 141,-83.5"/>
<text text-anchor="start" x="8" y="-71.5" font-family="Helvetica,sans-Serif" font-size="10.00">zero_mate::gui::CControl</text>
<text text-anchor="start" x="8" y="-60.5" font-family="Helvetica,sans-Serif" font-size="10.00">_Window::Render_Control</text>
<text text-anchor="middle" x="70.5" y="-49.5" font-family="Helvetica,sans-Serif" font-size="10.00">_Buttons</text>
</a>
</g>
</g>
<!-- Node2 -->
<g id="Node000002" class="node">
<title>Node2</title>
<g id="a_Node000002"><a xlink:href="classzero__mate_1_1gui_1_1CControl__Window.html#ac547361a03efba8bcb05e216ae512dac" target="_top" xlink:title="Renders the run control button.">
<polygon fill="white" stroke="#666666" points="340.5,-126 178.5,-126 178.5,-96 340.5,-96 340.5,-126"/>
<text text-anchor="start" x="186.5" y="-114" font-family="Helvetica,sans-Serif" font-size="10.00">zero_mate::gui::CControl</text>
<text text-anchor="middle" x="259.5" y="-103" font-family="Helvetica,sans-Serif" font-size="10.00">_Window::Render_Run_Button</text>
</a>
</g>
</g>
<!-- Node1&#45;&gt;Node2 -->
<g id="edge1_Node000001_Node000002" class="edge">
<title>Node1&#45;&gt;Node2</title>
<g id="a_edge1_Node000001_Node000002"><a xlink:title=" ">
<path fill="none" stroke="#63b8ff" d="M141.13,-80.87C157.13,-84.98 174.12,-89.34 190.06,-93.43"/>
<polygon fill="#63b8ff" stroke="#63b8ff" points="189.28,-96.85 199.84,-95.94 191.02,-90.07 189.28,-96.85"/>
</a>
</g>
</g>
<!-- Node9 -->
<g id="Node000009" class="node">
<title>Node9</title>
<g id="a_Node000009"><a xlink:href="classzero__mate_1_1gui_1_1CControl__Window.html#a9dabdbd3011cc2a5a13e7409a65deb3e" target="_top" xlink:title="Renders the step control button.">
<polygon fill="white" stroke="#666666" points="342,-78 177,-78 177,-48 342,-48 342,-78"/>
<text text-anchor="start" x="185" y="-66" font-family="Helvetica,sans-Serif" font-size="10.00">zero_mate::gui::CControl</text>
<text text-anchor="middle" x="259.5" y="-55" font-family="Helvetica,sans-Serif" font-size="10.00">_Window::Render_Step_Button</text>
</a>
</g>
</g>
<!-- Node1&#45;&gt;Node9 -->
<g id="edge8_Node000001_Node000009" class="edge">
<title>Node1&#45;&gt;Node9</title>
<g id="a_edge8_Node000001_Node000009"><a xlink:title=" ">
<path fill="none" stroke="#63b8ff" d="M141.13,-63C149.49,-63 158.12,-63 166.74,-63"/>
<polygon fill="#63b8ff" stroke="#63b8ff" points="166.82,-66.5 176.82,-63 166.82,-59.5 166.82,-66.5"/>
</a>
</g>
</g>
<!-- Node10 -->
<g id="Node000010" class="node">
<title>Node10</title>
<g id="a_Node000010"><a xlink:href="classzero__mate_1_1gui_1_1CControl__Window.html#a7a5636aa7de9957ac3339ff8bff63038" target="_top" xlink:title="Renders the stop control button.">
<polygon fill="white" stroke="#666666" points="342,-30 177,-30 177,0 342,0 342,-30"/>
<text text-anchor="start" x="185" y="-18" font-family="Helvetica,sans-Serif" font-size="10.00">zero_mate::gui::CControl</text>
<text text-anchor="middle" x="259.5" y="-7" font-family="Helvetica,sans-Serif" font-size="10.00">_Window::Render_Stop_Button</text>
</a>
</g>
</g>
<!-- Node1&#45;&gt;Node10 -->
<g id="edge10_Node000001_Node000010" class="edge">
<title>Node1&#45;&gt;Node10</title>
<g id="a_edge10_Node000001_Node000010"><a xlink:title=" ">
<path fill="none" stroke="#63b8ff" d="M141.13,-45.13C157.13,-41.02 174.12,-36.66 190.06,-32.57"/>
<polygon fill="#63b8ff" stroke="#63b8ff" points="191.02,-35.93 199.84,-30.06 189.28,-29.15 191.02,-35.93"/>
</a>
</g>
</g>
<!-- Node3 -->
<g id="Node000003" class="node">
<title>Node3</title>
<g id="a_Node000003"><a xlink:href="classzero__mate_1_1gui_1_1CControl__Window.html#a46cc1dd042f93990abb7b0b68f566a2d" target="_top" xlink:title="Log an error message saying that no ELF file (kernel) has been loaded yet.">
<polygon fill="white" stroke="#666666" points="530,-107.5 378,-107.5 378,-66.5 530,-66.5 530,-107.5"/>
<text text-anchor="start" x="386" y="-95.5" font-family="Helvetica,sans-Serif" font-size="10.00">zero_mate::gui::CControl</text>
<text text-anchor="start" x="386" y="-84.5" font-family="Helvetica,sans-Serif" font-size="10.00">_Window::Print_No_ELF_File</text>
<text text-anchor="middle" x="454" y="-73.5" font-family="Helvetica,sans-Serif" font-size="10.00">_Loaded_Error_Msg</text>
</a>
</g>
</g>
<!-- Node2&#45;&gt;Node3 -->
<g id="edge2_Node000002_Node000003" class="edge">
<title>Node2&#45;&gt;Node3</title>
<g id="a_edge2_Node000002_Node000003"><a xlink:title=" ">
<path fill="none" stroke="#63b8ff" d="M340.74,-101C349.66,-99.88 358.77,-98.75 367.75,-97.63"/>
<polygon fill="#63b8ff" stroke="#63b8ff" points="368.33,-101.08 377.82,-96.37 367.46,-94.14 368.33,-101.08"/>
</a>
</g>
</g>
<!-- Node4 -->
<g id="Node000004" class="node">
<title>Node4</title>
<g id="a_Node000004"><a xlink:href="classzero__mate_1_1utils_1_1CLogging__System.html#a57ed77e1a5cf822cea532cc5e05c3f60" target="_top" xlink:title="Logs an error message via all registered loggers.">
<polygon fill="white" stroke="#666666" points="712,-102 566,-102 566,-72 712,-72 712,-102"/>
<text text-anchor="start" x="574" y="-90" font-family="Helvetica,sans-Serif" font-size="10.00">zero_mate::utils::CLogging</text>
<text text-anchor="middle" x="639" y="-79" font-family="Helvetica,sans-Serif" font-size="10.00">_System::Error</text>
</a>
</g>
</g>
<!-- Node3&#45;&gt;Node4 -->
<g id="edge3_Node000003_Node000004" class="edge">
<title>Node3&#45;&gt;Node4</title>
<g id="a_edge3_Node000003_Node000004"><a xlink:title=" ">
<path fill="none" stroke="#63b8ff" d="M530.23,-87C538.57,-87 547.09,-87 555.52,-87"/>
<polygon fill="#63b8ff" stroke="#63b8ff" points="555.72,-90.5 565.72,-87 555.72,-83.5 555.72,-90.5"/>
</a>
</g>
</g>
<!-- Node5 -->
<g id="Node000005" class="node">
<title>Node5</title>
<g id="a_Node000005"><a xlink:href="classzero__mate_1_1utils_1_1CLogging__System.html#a71ed11c796553cbe8fd99773406a1060" target="_top" xlink:title="Creates a formatted message to be logged.">
<polygon fill="white" stroke="#666666" points="900,-134.5 748,-134.5 748,-93.5 900,-93.5 900,-134.5"/>
<text text-anchor="start" x="756" y="-122.5" font-family="Helvetica,sans-Serif" font-size="10.00">zero_mate::utils::CLogging</text>
<text text-anchor="start" x="756" y="-111.5" font-family="Helvetica,sans-Serif" font-size="10.00">_System::Create_Formatted</text>
<text text-anchor="middle" x="824" y="-100.5" font-family="Helvetica,sans-Serif" font-size="10.00">_Log_Msg</text>
</a>
</g>
</g>
<!-- Node4&#45;&gt;Node5 -->
<g id="edge4_Node000004_Node000005" class="edge">
<title>Node4&#45;&gt;Node5</title>
<g id="a_edge4_Node000004_Node000005"><a xlink:title=" ">
<path fill="none" stroke="#63b8ff" d="M712.06,-97.63C720.55,-98.88 729.26,-100.17 737.9,-101.44"/>
<polygon fill="#63b8ff" stroke="#63b8ff" points="737.59,-104.94 747.99,-102.93 738.61,-98.01 737.59,-104.94"/>
</a>
</g>
</g>
<!-- Node8 -->
<g id="Node000008" class="node">
<title>Node8</title>
<g id="a_Node000008"><a xlink:href="classzero__mate_1_1utils_1_1CLogging__System.html#ad371c67ef65763966ccf9291002e86f3" target="_top" xlink:title="Extract the filename from a given location within the source files.">
<polygon fill="white" stroke="#666666" points="898.5,-75 749.5,-75 749.5,-45 898.5,-45 898.5,-75"/>
<text text-anchor="start" x="757.5" y="-63" font-family="Helvetica,sans-Serif" font-size="10.00">zero_mate::utils::CLogging</text>
<text text-anchor="middle" x="824" y="-52" font-family="Helvetica,sans-Serif" font-size="10.00">_System::Extract_Filename</text>
</a>
</g>
</g>
<!-- Node4&#45;&gt;Node8 -->
<g id="edge7_Node000004_Node000008" class="edge">
<title>Node4&#45;&gt;Node8</title>
<g id="a_edge7_Node000004_Node000008"><a xlink:title=" ">
<path fill="none" stroke="#63b8ff" d="M712.06,-76.37C721.1,-75.03 730.4,-73.66 739.59,-72.31"/>
<polygon fill="#63b8ff" stroke="#63b8ff" points="740.12,-75.77 749.5,-70.84 739.1,-68.84 740.12,-75.77"/>
</a>
</g>
</g>
<!-- Node6 -->
<g id="Node000006" class="node">
<title>Node6</title>
<g id="a_Node000006"><a xlink:href="classzero__mate_1_1utils_1_1CLogging__System.html#aa70c102c805079042ffea2a6f2a5ad64" target="_top" xlink:title="Formats a given timestamp.">
<polygon fill="white" stroke="#666666" points="1096,-153 936,-153 936,-123 1096,-123 1096,-153"/>
<text text-anchor="start" x="944" y="-141" font-family="Helvetica,sans-Serif" font-size="10.00">zero_mate::utils::CLogging</text>
<text text-anchor="middle" x="1016" y="-130" font-family="Helvetica,sans-Serif" font-size="10.00">_System::Format_Timestamp</text>
</a>
</g>
</g>
<!-- Node5&#45;&gt;Node6 -->
<g id="edge5_Node000005_Node000006" class="edge">
<title>Node5&#45;&gt;Node6</title>
<g id="a_edge5_Node000005_Node000006"><a xlink:title=" ">
<path fill="none" stroke="#63b8ff" d="M900.09,-123.49C908.52,-124.55 917.16,-125.64 925.74,-126.73"/>
<polygon fill="#63b8ff" stroke="#63b8ff" points="925.41,-130.21 935.77,-127.99 926.29,-123.27 925.41,-130.21"/>
</a>
</g>
</g>
<!-- Node7 -->
<g id="Node000007" class="node">
<title>Node7</title>
<g id="a_Node000007"><a xlink:href="classzero__mate_1_1utils_1_1CLogging__System.html#ae3ca637537dde05e0b9119145c840331" target="_top" xlink:title="Returns the current timestamp that will be used in a log message.">
<polygon fill="white" stroke="#666666" points="1089,-105 943,-105 943,-75 1089,-75 1089,-105"/>
<text text-anchor="start" x="951" y="-93" font-family="Helvetica,sans-Serif" font-size="10.00">zero_mate::utils::CLogging</text>
<text text-anchor="middle" x="1016" y="-82" font-family="Helvetica,sans-Serif" font-size="10.00">_System::Get_Timestamp</text>
</a>
</g>
</g>
<!-- Node5&#45;&gt;Node7 -->
<g id="edge6_Node000005_Node000007" class="edge">
<title>Node5&#45;&gt;Node7</title>
<g id="a_edge6_Node000005_Node000007"><a xlink:title=" ">
<path fill="none" stroke="#63b8ff" d="M900.09,-104.51C910.89,-103.15 922.05,-101.74 932.98,-100.36"/>
<polygon fill="#63b8ff" stroke="#63b8ff" points="933.45,-103.83 942.93,-99.1 932.57,-96.88 933.45,-103.83"/>
</a>
</g>
</g>
<!-- Node9&#45;&gt;Node3 -->
<g id="edge9_Node000009_Node000003" class="edge">
<title>Node9&#45;&gt;Node3</title>
<g id="a_edge9_Node000009_Node000003"><a xlink:title=" ">
<path fill="none" stroke="#63b8ff" d="M342.14,-73.18C350.68,-74.24 359.38,-75.33 367.96,-76.4"/>
<polygon fill="#63b8ff" stroke="#63b8ff" points="367.61,-79.88 377.96,-77.64 368.47,-72.93 367.61,-79.88"/>
</a>
</g>
</g>
</g>
</svg>
