<?xml version="1.0" encoding="UTF-8" standalone="no"?>
<!DOCTYPE svg PUBLIC "-//W3C//DTD SVG 1.1//EN"
 "http://www.w3.org/Graphics/SVG/1.1/DTD/svg11.dtd">
<!-- Generated by graphviz version 2.43.0 (0)
 -->
<!-- Title: zero_mate::gui::CLog_Window::Render Pages: 1 -->
<svg width="917pt" height="275pt"
 viewBox="0.00 0.00 917.00 275.00" xmlns="http://www.w3.org/2000/svg" xmlns:xlink="http://www.w3.org/1999/xlink">
<g id="graph0" class="graph" transform="scale(1 1) rotate(0) translate(4 271)">
<title>zero_mate::gui::CLog_Window::Render</title>
<!-- Node1 -->
<g id="Node000001" class="node">
<title>Node1</title>
<g id="a_Node000001"><a xlink:title="Renders the window (IGUI_Window interface).">
<polygon fill="#999999" stroke="#666666" points="119,-145.5 0,-145.5 0,-115.5 119,-115.5 119,-145.5"/>
<text text-anchor="start" x="8" y="-133.5" font-family="Helvetica,sans-Serif" font-size="10.00">zero_mate::gui::CLog</text>
<text text-anchor="middle" x="59.5" y="-122.5" font-family="Helvetica,sans-Serif" font-size="10.00">_Window::Render</text>
</a>
</g>
</g>
<!-- Node2 -->
<g id="Node000002" class="node">
<title>Node2</title>
<g id="a_Node000002"><a xlink:href="classzero__mate_1_1gui_1_1CLog__Window.html#ac72abb295653473388e92ec658b85e7e" target="_top" xlink:title="Renders the message scrolling area.">
<polygon fill="white" stroke="#666666" points="332,-202.5 155,-202.5 155,-172.5 332,-172.5 332,-202.5"/>
<text text-anchor="start" x="163" y="-190.5" font-family="Helvetica,sans-Serif" font-size="10.00">zero_mate::gui::CLog</text>
<text text-anchor="middle" x="243.5" y="-179.5" font-family="Helvetica,sans-Serif" font-size="10.00">_Window::Render_Message_Area</text>
</a>
</g>
</g>
<!-- Node1&#45;&gt;Node2 -->
<g id="edge1_Node000001_Node000002" class="edge">
<title>Node1&#45;&gt;Node2</title>
<g id="a_edge1_Node000001_Node000002"><a xlink:title=" ">
<path fill="none" stroke="#63b8ff" d="M108.79,-145.63C132.03,-152.9 160.06,-161.68 184.45,-169.32"/>
<polygon fill="#63b8ff" stroke="#63b8ff" points="183.71,-172.75 194.3,-172.4 185.8,-166.07 183.71,-172.75"/>
</a>
</g>
</g>
<!-- Node7 -->
<g id="Node000007" class="node">
<title>Node7</title>
<g id="a_Node000007"><a xlink:href="classzero__mate_1_1gui_1_1CLog__Window.html#ab5d91eb4a2187a347f7c4a9ba84a527d" target="_top" xlink:title="Renders the top bar of the window (the options, clear button, and the filter)">
<polygon fill="white" stroke="#666666" points="315.5,-116.5 171.5,-116.5 171.5,-86.5 315.5,-86.5 315.5,-116.5"/>
<text text-anchor="start" x="179.5" y="-104.5" font-family="Helvetica,sans-Serif" font-size="10.00">zero_mate::gui::CLog</text>
<text text-anchor="middle" x="243.5" y="-93.5" font-family="Helvetica,sans-Serif" font-size="10.00">_Window::Render_Top_Bar</text>
</a>
</g>
</g>
<!-- Node1&#45;&gt;Node7 -->
<g id="edge8_Node000001_Node000007" class="edge">
<title>Node1&#45;&gt;Node7</title>
<g id="a_edge8_Node000001_Node000007"><a xlink:title=" ">
<path fill="none" stroke="#63b8ff" d="M119.09,-121.16C132.47,-119.03 146.92,-116.73 161.06,-114.48"/>
<polygon fill="#63b8ff" stroke="#63b8ff" points="161.96,-117.88 171.29,-112.85 160.86,-110.96 161.96,-117.88"/>
</a>
</g>
</g>
<!-- Node3 -->
<g id="Node000003" class="node">
<title>Node3</title>
<g id="a_Node000003"><a xlink:href="classzero__mate_1_1gui_1_1CLog__Window.html#a67b875f7111438d9100d927992e27c4f" target="_top" xlink:title="Renders all log messages (no filter activated).">
<polygon fill="white" stroke="#666666" points="511,-267 370,-267 370,-226 511,-226 511,-267"/>
<text text-anchor="start" x="378" y="-255" font-family="Helvetica,sans-Serif" font-size="10.00">zero_mate::gui::CLog</text>
<text text-anchor="start" x="378" y="-244" font-family="Helvetica,sans-Serif" font-size="10.00">_Window::Render_All_Log</text>
<text text-anchor="middle" x="440.5" y="-233" font-family="Helvetica,sans-Serif" font-size="10.00">_Messages</text>
</a>
</g>
</g>
<!-- Node2&#45;&gt;Node3 -->
<g id="edge2_Node000002_Node000003" class="edge">
<title>Node2&#45;&gt;Node3</title>
<g id="a_edge2_Node000002_Node000003"><a xlink:title=" ">
<path fill="none" stroke="#63b8ff" d="M294.21,-202.54C314.75,-208.75 339.04,-216.11 361.83,-223"/>
<polygon fill="#63b8ff" stroke="#63b8ff" points="360.9,-226.38 371.49,-225.92 362.93,-219.68 360.9,-226.38"/>
</a>
</g>
</g>
<!-- Node6 -->
<g id="Node000006" class="node">
<title>Node6</title>
<g id="a_Node000006"><a xlink:href="classzero__mate_1_1gui_1_1CLog__Window.html#adb7453fd69db4264b631251e48b68201" target="_top" xlink:title="Renders log messages that satisfy the criteria given by a message filter.">
<polygon fill="white" stroke="#666666" points="512,-208 369,-208 369,-167 512,-167 512,-208"/>
<text text-anchor="start" x="377" y="-196" font-family="Helvetica,sans-Serif" font-size="10.00">zero_mate::gui::CLog</text>
<text text-anchor="start" x="377" y="-185" font-family="Helvetica,sans-Serif" font-size="10.00">_Window::Render_Filtered</text>
<text text-anchor="middle" x="440.5" y="-174" font-family="Helvetica,sans-Serif" font-size="10.00">_Log_Messages</text>
</a>
</g>
</g>
<!-- Node2&#45;&gt;Node6 -->
<g id="edge5_Node000002_Node000006" class="edge">
<title>Node2&#45;&gt;Node6</title>
<g id="a_edge5_Node000002_Node000006"><a xlink:title=" ">
<path fill="none" stroke="#63b8ff" d="M332.02,-187.5C340.9,-187.5 349.89,-187.5 358.69,-187.5"/>
<polygon fill="#63b8ff" stroke="#63b8ff" points="358.92,-191 368.92,-187.5 358.92,-184 358.92,-191"/>
</a>
</g>
</g>
<!-- Node4 -->
<g id="Node000004" class="node">
<title>Node4</title>
<g id="a_Node000004"><a xlink:href="classzero__mate_1_1gui_1_1CCircular__Log__Buffer.html#a6881d9292ac339ecee1a025426bb708b" target="_top" xlink:title="Returns a collection of log messages currently stored in the buffer.">
<polygon fill="white" stroke="#666666" points="711,-205.5 571,-205.5 571,-175.5 711,-175.5 711,-205.5"/>
<text text-anchor="start" x="579" y="-193.5" font-family="Helvetica,sans-Serif" font-size="10.00">zero_mate::gui::CCircular</text>
<text text-anchor="middle" x="641" y="-182.5" font-family="Helvetica,sans-Serif" font-size="10.00">_Log_Buffer::Get_Data</text>
</a>
</g>
</g>
<!-- Node3&#45;&gt;Node4 -->
<g id="edge3_Node000003_Node000004" class="edge">
<title>Node3&#45;&gt;Node4</title>
<g id="a_edge3_Node000003_Node000004"><a xlink:title=" ">
<path fill="none" stroke="#63b8ff" d="M511.2,-226.84C532.61,-220.8 556.04,-214.19 576.98,-208.28"/>
<polygon fill="#63b8ff" stroke="#63b8ff" points="578.04,-211.62 586.72,-205.53 576.14,-204.88 578.04,-211.62"/>
</a>
</g>
</g>
<!-- Node5 -->
<g id="Node000005" class="node">
<title>Node5</title>
<g id="a_Node000005"><a xlink:href="classzero__mate_1_1gui_1_1CLog__Window.html#acd4c871dccefcf04fb9b3bb8973086c0" target="_top" xlink:title="Sets the color of a log message based on its type (error, info, etc.)">
<polygon fill="white" stroke="#666666" points="733,-258.5 549,-258.5 549,-228.5 733,-228.5 733,-258.5"/>
<text text-anchor="start" x="557" y="-246.5" font-family="Helvetica,sans-Serif" font-size="10.00">zero_mate::gui::CLog</text>
<text text-anchor="middle" x="641" y="-235.5" font-family="Helvetica,sans-Serif" font-size="10.00">_Window::Set_Log_Message_Color</text>
</a>
</g>
</g>
<!-- Node3&#45;&gt;Node5 -->
<g id="edge4_Node000003_Node000005" class="edge">
<title>Node3&#45;&gt;Node5</title>
<g id="a_edge4_Node000003_Node000005"><a xlink:title=" ">
<path fill="none" stroke="#63b8ff" d="M511.2,-245.45C520.15,-245.31 529.44,-245.17 538.76,-245.03"/>
<polygon fill="#63b8ff" stroke="#63b8ff" points="538.92,-248.53 548.86,-244.88 538.81,-241.53 538.92,-248.53"/>
</a>
</g>
</g>
<!-- Node6&#45;&gt;Node4 -->
<g id="edge6_Node000006_Node000004" class="edge">
<title>Node6&#45;&gt;Node4</title>
<g id="a_edge6_Node000006_Node000004"><a xlink:title=" ">
<path fill="none" stroke="#63b8ff" d="M512.04,-188.57C527.67,-188.8 544.34,-189.05 560.31,-189.3"/>
<polygon fill="#63b8ff" stroke="#63b8ff" points="560.63,-192.8 570.69,-189.45 560.74,-185.8 560.63,-192.8"/>
</a>
</g>
</g>
<!-- Node6&#45;&gt;Node5 -->
<g id="edge7_Node000006_Node000005" class="edge">
<title>Node6&#45;&gt;Node5</title>
<g id="a_edge7_Node000006_Node000005"><a xlink:title=" ">
<path fill="none" stroke="#63b8ff" d="M512.04,-207.4C533.11,-213.34 556.07,-219.82 576.64,-225.63"/>
<polygon fill="#63b8ff" stroke="#63b8ff" points="575.96,-229.07 586.54,-228.42 577.86,-222.33 575.96,-229.07"/>
</a>
</g>
</g>
<!-- Node8 -->
<g id="Node000008" class="node">
<title>Node8</title>
<g id="a_Node000008"><a xlink:href="classzero__mate_1_1gui_1_1CLog__Window.html#aada4dbfcfe761cd1f7f050a866a4e02c" target="_top" xlink:title="Renders a clear button for clearing the message area.">
<polygon fill="white" stroke="#666666" points="506,-149 375,-149 375,-108 506,-108 506,-149"/>
<text text-anchor="start" x="383" y="-137" font-family="Helvetica,sans-Serif" font-size="10.00">zero_mate::gui::CLog</text>
<text text-anchor="start" x="383" y="-126" font-family="Helvetica,sans-Serif" font-size="10.00">_Window::Render_Clear</text>
<text text-anchor="middle" x="440.5" y="-115" font-family="Helvetica,sans-Serif" font-size="10.00">_Button</text>
</a>
</g>
</g>
<!-- Node7&#45;&gt;Node8 -->
<g id="edge9_Node000007_Node000008" class="edge">
<title>Node7&#45;&gt;Node8</title>
<g id="a_edge9_Node000007_Node000008"><a xlink:title=" ">
<path fill="none" stroke="#63b8ff" d="M315.73,-111.36C331.76,-113.58 348.83,-115.95 364.99,-118.18"/>
<polygon fill="#63b8ff" stroke="#63b8ff" points="364.54,-121.65 374.93,-119.56 365.5,-114.72 364.54,-121.65"/>
</a>
</g>
</g>
<!-- Node11 -->
<g id="Node000011" class="node">
<title>Node11</title>
<g id="a_Node000011"><a xlink:href="classzero__mate_1_1gui_1_1CLog__Window.html#a249f1f3cca8a46de6d042bdf3f837ace" target="_top" xlink:title="Renders a message filer.">
<polygon fill="white" stroke="#666666" points="506,-89.5 375,-89.5 375,-59.5 506,-59.5 506,-89.5"/>
<text text-anchor="start" x="383" y="-77.5" font-family="Helvetica,sans-Serif" font-size="10.00">zero_mate::gui::CLog</text>
<text text-anchor="middle" x="440.5" y="-66.5" font-family="Helvetica,sans-Serif" font-size="10.00">_Window::Render_Filter</text>
</a>
</g>
</g>
<!-- Node7&#45;&gt;Node11 -->
<g id="edge12_Node000007_Node000011" class="edge">
<title>Node7&#45;&gt;Node11</title>
<g id="a_edge12_Node000007_Node000011"><a xlink:title=" ">
<path fill="none" stroke="#63b8ff" d="M315.73,-91.64C331.76,-89.42 348.83,-87.05 364.99,-84.82"/>
<polygon fill="#63b8ff" stroke="#63b8ff" points="365.5,-88.28 374.93,-83.44 364.54,-81.35 365.5,-88.28"/>
</a>
</g>
</g>
<!-- Node12 -->
<g id="Node000012" class="node">
<title>Node12</title>
<g id="a_Node000012"><a xlink:href="classzero__mate_1_1gui_1_1CLog__Window.html#a0126c0d93a1bfb3689f3b9cb35f8e996" target="_top" xlink:title="Renders a popup menu (options).">
<polygon fill="white" stroke="#666666" points="513,-41 368,-41 368,0 513,0 513,-41"/>
<text text-anchor="start" x="376" y="-29" font-family="Helvetica,sans-Serif" font-size="10.00">zero_mate::gui::CLog</text>
<text text-anchor="start" x="376" y="-18" font-family="Helvetica,sans-Serif" font-size="10.00">_Window::Render_Window</text>
<text text-anchor="middle" x="440.5" y="-7" font-family="Helvetica,sans-Serif" font-size="10.00">_Options</text>
</a>
</g>
</g>
<!-- Node7&#45;&gt;Node12 -->
<g id="edge13_Node000007_Node000012" class="edge">
<title>Node7&#45;&gt;Node12</title>
<g id="a_edge13_Node000007_Node000012"><a xlink:title=" ">
<path fill="none" stroke="#63b8ff" d="M280.72,-86.45C308.69,-74.84 347.97,-58.52 380.47,-45.02"/>
<polygon fill="#63b8ff" stroke="#63b8ff" points="381.98,-48.18 389.87,-41.11 379.29,-41.72 381.98,-48.18"/>
</a>
</g>
</g>
<!-- Node9 -->
<g id="Node000009" class="node">
<title>Node9</title>
<g id="a_Node000009"><a xlink:href="classzero__mate_1_1gui_1_1CLog__Window.html#aab3c1c25eedfe7230d905ae5355265c0" target="_top" xlink:title="Clears all log messages.">
<polygon fill="white" stroke="#666666" points="700.5,-143.5 581.5,-143.5 581.5,-113.5 700.5,-113.5 700.5,-143.5"/>
<text text-anchor="start" x="589.5" y="-131.5" font-family="Helvetica,sans-Serif" font-size="10.00">zero_mate::gui::CLog</text>
<text text-anchor="middle" x="641" y="-120.5" font-family="Helvetica,sans-Serif" font-size="10.00">_Window::Clear</text>
</a>
</g>
</g>
<!-- Node8&#45;&gt;Node9 -->
<g id="edge10_Node000008_Node000009" class="edge">
<title>Node8&#45;&gt;Node9</title>
<g id="a_edge10_Node000008_Node000009"><a xlink:title=" ">
<path fill="none" stroke="#63b8ff" d="M506.22,-128.5C527.03,-128.5 550.15,-128.5 571.23,-128.5"/>
<polygon fill="#63b8ff" stroke="#63b8ff" points="571.4,-132 581.4,-128.5 571.4,-125 571.4,-132"/>
</a>
</g>
</g>
<!-- Node10 -->
<g id="Node000010" class="node">
<title>Node10</title>
<g id="a_Node000010"><a xlink:href="classzero__mate_1_1gui_1_1CCircular__Log__Buffer.html#af165b3edecdde5d0ea7a10957849921b" target="_top" xlink:title="Clears the circular buffer (deletes all log messages).">
<polygon fill="white" stroke="#666666" points="909,-143.5 769,-143.5 769,-113.5 909,-113.5 909,-143.5"/>
<text text-anchor="start" x="777" y="-131.5" font-family="Helvetica,sans-Serif" font-size="10.00">zero_mate::gui::CCircular</text>
<text text-anchor="middle" x="839" y="-120.5" font-family="Helvetica,sans-Serif" font-size="10.00">_Log_Buffer::Clear</text>
</a>
</g>
</g>
<!-- Node9&#45;&gt;Node10 -->
<g id="edge11_Node000009_Node000010" class="edge">
<title>Node9&#45;&gt;Node10</title>
<g id="a_edge11_Node000009_Node000010"><a xlink:title=" ">
<path fill="none" stroke="#63b8ff" d="M700.54,-128.5C718.79,-128.5 739.23,-128.5 758.66,-128.5"/>
<polygon fill="#63b8ff" stroke="#63b8ff" points="758.71,-132 768.71,-128.5 758.71,-125 758.71,-132"/>
</a>
</g>
</g>
</g>
</svg>
