<?xml version="1.0" encoding="UTF-8" standalone="no"?>
<!DOCTYPE svg PUBLIC "-//W3C//DTD SVG 1.1//EN"
 "http://www.w3.org/Graphics/SVG/1.1/DTD/svg11.dtd">
<!-- Generated by graphviz version 2.43.0 (0)
 -->
<!-- Title: zero_mate::arm1176jzf_s::CCPU_Context::Get_CPU_Mode Pages: 1 -->
<svg width="990pt" height="558pt"
 viewBox="0.00 0.00 990.00 557.50" xmlns="http://www.w3.org/2000/svg" xmlns:xlink="http://www.w3.org/1999/xlink">
<g id="graph0" class="graph" transform="scale(1 1) rotate(0) translate(4 553.5)">
<title>zero_mate::arm1176jzf_s::CCPU_Context::Get_CPU_Mode</title>
<!-- Node1 -->
<g id="Node000001" class="node">
<title>Node1</title>
<g id="a_Node000001"><a xlink:title="Returns the current mode of the CPU.">
<polygon fill="#999999" stroke="#666666" points="982,-332.5 852,-332.5 852,-291.5 982,-291.5 982,-332.5"/>
<text text-anchor="start" x="860" y="-320.5" font-family="Helvetica,sans-Serif" font-size="10.00">zero_mate::arm1176jzf</text>
<text text-anchor="start" x="860" y="-309.5" font-family="Helvetica,sans-Serif" font-size="10.00">_s::CCPU_Context::Get</text>
<text text-anchor="middle" x="917" y="-298.5" font-family="Helvetica,sans-Serif" font-size="10.00">_CPU_Mode</text>
</a>
</g>
</g>
<!-- Node2 -->
<g id="Node000002" class="node">
<title>Node2</title>
<g id="a_Node000002"><a xlink:href="classzero__mate_1_1gui_1_1CRegisters__Window.html#a5d2aecdd70593ed8765fb5a72d28ff0c" target="_top" xlink:title="Checks if the CPU mode has changed.">
<polygon fill="white" stroke="#666666" points="816,-549.5 650,-549.5 650,-508.5 816,-508.5 816,-549.5"/>
<text text-anchor="start" x="658" y="-537.5" font-family="Helvetica,sans-Serif" font-size="10.00">zero_mate::gui::CRegisters</text>
<text text-anchor="start" x="658" y="-526.5" font-family="Helvetica,sans-Serif" font-size="10.00">_Window::Check_If_CPU_Mode</text>
<text text-anchor="middle" x="733" y="-515.5" font-family="Helvetica,sans-Serif" font-size="10.00">_Changes</text>
</a>
</g>
</g>
<!-- Node1&#45;&gt;Node2 -->
<g id="edge1_Node000001_Node000002" class="edge">
<title>Node1&#45;&gt;Node2</title>
<g id="a_edge1_Node000001_Node000002"><a xlink:title=" ">
<path fill="none" stroke="#63b8ff" d="M907.36,-342.22C894.17,-383.23 865.2,-456.27 816,-499 811.99,-502.48 807.55,-505.57 802.87,-508.31"/>
<polygon fill="#63b8ff" stroke="#63b8ff" points="910.75,-343.12 910.38,-332.53 904.07,-341.04 910.75,-343.12"/>
</a>
</g>
</g>
<!-- Node4 -->
<g id="Node000004" class="node">
<title>Node4</title>
<g id="a_Node000004"><a xlink:href="classzero__mate_1_1arm1176jzf__s_1_1CCPU__Core.html#a78980460ec7632099c51e96226a08f31" target="_top" xlink:title="Determines the mode of the CPU that should be used in a block data transfer instruction.">
<polygon fill="white" stroke="#666666" points="806,-403.5 660,-403.5 660,-362.5 806,-362.5 806,-403.5"/>
<text text-anchor="start" x="668" y="-391.5" font-family="Helvetica,sans-Serif" font-size="10.00">zero_mate::arm1176jzf</text>
<text text-anchor="start" x="668" y="-380.5" font-family="Helvetica,sans-Serif" font-size="10.00">_s::CCPU_Core::Determine</text>
<text text-anchor="middle" x="733" y="-369.5" font-family="Helvetica,sans-Serif" font-size="10.00">_CPU_Mode</text>
</a>
</g>
</g>
<!-- Node1&#45;&gt;Node4 -->
<g id="edge3_Node000001_Node000004" class="edge">
<title>Node1&#45;&gt;Node4</title>
<g id="a_edge3_Node000001_Node000004"><a xlink:title=" ">
<path fill="none" stroke="#63b8ff" d="M853.86,-336.24C832.06,-344.74 807.8,-354.21 786.84,-362.39"/>
<polygon fill="#63b8ff" stroke="#63b8ff" points="855.31,-339.43 863.36,-332.54 852.77,-332.91 855.31,-339.43"/>
</a>
</g>
</g>
<!-- Node5 -->
<g id="Node000005" class="node">
<title>Node5</title>
<g id="a_Node000005"><a xlink:href="classzero__mate_1_1arm1176jzf__s_1_1CCPU__Core.html#a524d4d2622a78e1c416bf4528700bc00" target="_top" xlink:title="Executes a block data transfer instruction.">
<polygon fill="white" stroke="#666666" points="600.5,-410 468.5,-410 468.5,-380 600.5,-380 600.5,-410"/>
<text text-anchor="start" x="476.5" y="-398" font-family="Helvetica,sans-Serif" font-size="10.00">zero_mate::arm1176jzf</text>
<text text-anchor="middle" x="534.5" y="-387" font-family="Helvetica,sans-Serif" font-size="10.00">_s::CCPU_Core::Execute</text>
</a>
</g>
</g>
<!-- Node1&#45;&gt;Node5 -->
<g id="edge5_Node000001_Node000005" class="edge">
<title>Node1&#45;&gt;Node5</title>
<g id="a_edge5_Node000001_Node000005"><a xlink:title=" ">
<path fill="none" stroke="#63b8ff" d="M897.37,-340.85C879.74,-365.24 850.84,-398.47 816,-413 738.65,-445.27 638.83,-426.14 581.51,-410.05"/>
<polygon fill="#63b8ff" stroke="#63b8ff" points="900.25,-342.84 903.13,-332.64 894.52,-338.82 900.25,-342.84"/>
</a>
</g>
</g>
<!-- Node6 -->
<g id="Node000006" class="node">
<title>Node6</title>
<g id="a_Node000006"><a xlink:href="classzero__mate_1_1arm1176jzf__s_1_1CCPU__Core.html#acd8902811a86afabf464f121d58628ee" target="_top" xlink:title="Executes a CPS instruction.">
<polygon fill="white" stroke="#666666" points="600.5,-266 468.5,-266 468.5,-236 600.5,-236 600.5,-266"/>
<text text-anchor="start" x="476.5" y="-254" font-family="Helvetica,sans-Serif" font-size="10.00">zero_mate::arm1176jzf</text>
<text text-anchor="middle" x="534.5" y="-243" font-family="Helvetica,sans-Serif" font-size="10.00">_s::CCPU_Core::Execute</text>
</a>
</g>
</g>
<!-- Node1&#45;&gt;Node6 -->
<g id="edge6_Node000001_Node000006" class="edge">
<title>Node1&#45;&gt;Node6</title>
<g id="a_edge6_Node000001_Node000006"><a xlink:title=" ">
<path fill="none" stroke="#63b8ff" d="M869.36,-286.75C852.95,-279.04 834.09,-271.42 816,-267 743.75,-249.32 658.04,-247.03 600.54,-248.06"/>
<polygon fill="#63b8ff" stroke="#63b8ff" points="868.18,-290.08 878.71,-291.29 871.24,-283.78 868.18,-290.08"/>
</a>
</g>
</g>
<!-- Node7 -->
<g id="Node000007" class="node">
<title>Node7</title>
<g id="a_Node000007"><a xlink:href="classzero__mate_1_1arm1176jzf__s_1_1CCPU__Core.html#a92c997ad914fb73cec7feb5fa26d8ead" target="_top" xlink:title="Executes a data processing instruction.">
<polygon fill="white" stroke="#666666" points="600.5,-362 468.5,-362 468.5,-332 600.5,-332 600.5,-362"/>
<text text-anchor="start" x="476.5" y="-350" font-family="Helvetica,sans-Serif" font-size="10.00">zero_mate::arm1176jzf</text>
<text text-anchor="middle" x="534.5" y="-339" font-family="Helvetica,sans-Serif" font-size="10.00">_s::CCPU_Core::Execute</text>
</a>
</g>
</g>
<!-- Node1&#45;&gt;Node7 -->
<g id="edge7_Node000001_Node000007" class="edge">
<title>Node1&#45;&gt;Node7</title>
<g id="a_edge7_Node000001_Node000007"><a xlink:title=" ">
<path fill="none" stroke="#63b8ff" d="M841.79,-318.83C771.65,-325.28 667.47,-334.86 600.52,-341.02"/>
<polygon fill="#63b8ff" stroke="#63b8ff" points="842.25,-322.3 851.88,-317.9 841.61,-315.33 842.25,-322.3"/>
</a>
</g>
</g>
<!-- Node8 -->
<g id="Node000008" class="node">
<title>Node8</title>
<g id="a_Node000008"><a xlink:href="classzero__mate_1_1arm1176jzf__s_1_1CCPU__Core.html#a28607032a48bea557d81eec0460f4aa6" target="_top" xlink:title="Executes an RFE instruction.">
<polygon fill="white" stroke="#666666" points="600.5,-218 468.5,-218 468.5,-188 600.5,-188 600.5,-218"/>
<text text-anchor="start" x="476.5" y="-206" font-family="Helvetica,sans-Serif" font-size="10.00">zero_mate::arm1176jzf</text>
<text text-anchor="middle" x="534.5" y="-195" font-family="Helvetica,sans-Serif" font-size="10.00">_s::CCPU_Core::Execute</text>
</a>
</g>
</g>
<!-- Node1&#45;&gt;Node8 -->
<g id="edge8_Node000001_Node000008" class="edge">
<title>Node1&#45;&gt;Node8</title>
<g id="a_edge8_Node000001_Node000008"><a xlink:title=" ">
<path fill="none" stroke="#63b8ff" d="M883.71,-284.98C865.06,-270.82 840.5,-254.49 816,-245 745.63,-217.75 658.99,-208.07 600.78,-204.7"/>
<polygon fill="#63b8ff" stroke="#63b8ff" points="881.8,-287.93 891.84,-291.31 886.09,-282.4 881.8,-287.93"/>
</a>
</g>
</g>
<!-- Node9 -->
<g id="Node000009" class="node">
<title>Node9</title>
<g id="a_Node000009"><a xlink:href="classzero__mate_1_1arm1176jzf__s_1_1CCPU__Core.html#aa96f69190ff05fe80c310e85b4d1002c" target="_top" xlink:title="Executes an SRS instruction.">
<polygon fill="white" stroke="#666666" points="600.5,-51 468.5,-51 468.5,-21 600.5,-21 600.5,-51"/>
<text text-anchor="start" x="476.5" y="-39" font-family="Helvetica,sans-Serif" font-size="10.00">zero_mate::arm1176jzf</text>
<text text-anchor="middle" x="534.5" y="-28" font-family="Helvetica,sans-Serif" font-size="10.00">_s::CCPU_Core::Execute</text>
</a>
</g>
</g>
<!-- Node1&#45;&gt;Node9 -->
<g id="edge9_Node000001_Node000009" class="edge">
<title>Node1&#45;&gt;Node9</title>
<g id="a_edge9_Node000001_Node000009"><a xlink:title=" ">
<path fill="none" stroke="#63b8ff" d="M908.16,-281.65C895.72,-239.48 867.41,-163.55 816,-121 754.26,-69.9 662.32,-49.5 600.7,-41.37"/>
<polygon fill="#63b8ff" stroke="#63b8ff" points="904.82,-282.7 910.92,-291.36 911.56,-280.78 904.82,-282.7"/>
</a>
</g>
</g>
<!-- Node10 -->
<g id="Node000010" class="node">
<title>Node10</title>
<g id="a_Node000010"><a xlink:href="classzero__mate_1_1arm1176jzf__s_1_1CCPU__Context.html#a573470217091c27cf30f1411ea453e5d" target="_top" xlink:title="Checks if the CPU is in a privileged mode.">
<polygon fill="white" stroke="#666666" points="798,-171.5 668,-171.5 668,-130.5 798,-130.5 798,-171.5"/>
<text text-anchor="start" x="676" y="-159.5" font-family="Helvetica,sans-Serif" font-size="10.00">zero_mate::arm1176jzf</text>
<text text-anchor="start" x="676" y="-148.5" font-family="Helvetica,sans-Serif" font-size="10.00">_s::CCPU_Context::Is</text>
<text text-anchor="middle" x="733" y="-137.5" font-family="Helvetica,sans-Serif" font-size="10.00">_In_Privileged_Mode</text>
</a>
</g>
</g>
<!-- Node1&#45;&gt;Node10 -->
<g id="edge10_Node000001_Node000010" class="edge">
<title>Node1&#45;&gt;Node10</title>
<g id="a_edge10_Node000001_Node000010"><a xlink:title=" ">
<path fill="none" stroke="#63b8ff" d="M897.23,-282.78C879.01,-256.19 849.28,-217.2 816,-191 806.67,-183.65 795.76,-177.17 785.01,-171.69"/>
<polygon fill="#63b8ff" stroke="#63b8ff" points="894.47,-284.95 902.96,-291.29 900.28,-281.04 894.47,-284.95"/>
</a>
</g>
</g>
<!-- Node19 -->
<g id="Node000019" class="node">
<title>Node19</title>
<g id="a_Node000019"><a xlink:href="classzero__mate_1_1gui_1_1CRegisters__Window.html#afee27571a09be2cad3cd096b1c36040a" target="_top" xlink:title="Renders a label displaying the current CPU mode.">
<polygon fill="white" stroke="#666666" points="812,-490 654,-490 654,-460 812,-460 812,-490"/>
<text text-anchor="start" x="662" y="-478" font-family="Helvetica,sans-Serif" font-size="10.00">zero_mate::gui::CRegisters</text>
<text text-anchor="middle" x="733" y="-467" font-family="Helvetica,sans-Serif" font-size="10.00">_Window::Render_CPU_Mode</text>
</a>
</g>
</g>
<!-- Node1&#45;&gt;Node19 -->
<g id="edge22_Node000001_Node000019" class="edge">
<title>Node1&#45;&gt;Node19</title>
<g id="a_edge22_Node000001_Node000019"><a xlink:title=" ">
<path fill="none" stroke="#63b8ff" d="M900.84,-341.53C883.93,-371.74 853.92,-418.08 816,-446 808.46,-451.55 799.77,-456.12 790.91,-459.84"/>
<polygon fill="#63b8ff" stroke="#63b8ff" points="903.93,-343.17 905.66,-332.71 897.79,-339.81 903.93,-343.17"/>
</a>
</g>
</g>
<!-- Node20 -->
<g id="Node000020" class="node">
<title>Node20</title>
<g id="a_Node000020"><a xlink:href="classzero__mate_1_1arm1176jzf__s_1_1CCPU__Context.html#a53765299c790cc790e15deb2c701bd2a" target="_top" xlink:title="Sets a new value to the CPSR register.">
<polygon fill="white" stroke="#666666" points="811,-306 655,-306 655,-276 811,-276 811,-306"/>
<text text-anchor="start" x="663" y="-294" font-family="Helvetica,sans-Serif" font-size="10.00">zero_mate::arm1176jzf</text>
<text text-anchor="middle" x="733" y="-283" font-family="Helvetica,sans-Serif" font-size="10.00">_s::CCPU_Context::Set_CPSR</text>
</a>
</g>
</g>
<!-- Node1&#45;&gt;Node20 -->
<g id="edge24_Node000001_Node000020" class="edge">
<title>Node1&#45;&gt;Node20</title>
<g id="a_edge24_Node000001_Node000020"><a xlink:title=" ">
<path fill="none" stroke="#63b8ff" d="M841.88,-303.45C831.8,-302.28 821.44,-301.09 811.32,-299.92"/>
<polygon fill="#63b8ff" stroke="#63b8ff" points="841.5,-306.93 851.83,-304.6 842.3,-299.97 841.5,-306.93"/>
</a>
</g>
</g>
<!-- Node3 -->
<g id="Node000003" class="node">
<title>Node3</title>
<g id="a_Node000003"><a xlink:href="classzero__mate_1_1gui_1_1CRegisters__Window.html#a12beb19205052a340193be90b32e5717" target="_top" xlink:title="Renders the windows (IGUI_Window interface).">
<polygon fill="white" stroke="#666666" points="608.5,-517 460.5,-517 460.5,-487 608.5,-487 608.5,-517"/>
<text text-anchor="start" x="468.5" y="-505" font-family="Helvetica,sans-Serif" font-size="10.00">zero_mate::gui::CRegisters</text>
<text text-anchor="middle" x="534.5" y="-494" font-family="Helvetica,sans-Serif" font-size="10.00">_Window::Render</text>
</a>
</g>
</g>
<!-- Node2&#45;&gt;Node3 -->
<g id="edge2_Node000002_Node000003" class="edge">
<title>Node2&#45;&gt;Node3</title>
<g id="a_edge2_Node000002_Node000003"><a xlink:title=" ">
<path fill="none" stroke="#63b8ff" d="M639.81,-516.33C629.34,-514.89 618.78,-513.44 608.61,-512.05"/>
<polygon fill="#63b8ff" stroke="#63b8ff" points="639.42,-519.81 649.8,-517.71 640.37,-512.88 639.42,-519.81"/>
</a>
</g>
</g>
<!-- Node4&#45;&gt;Node5 -->
<g id="edge4_Node000004_Node000005" class="edge">
<title>Node4&#45;&gt;Node5</title>
<g id="a_edge4_Node000004_Node000005"><a xlink:title=" ">
<path fill="none" stroke="#63b8ff" d="M649.84,-388.02C633.45,-389.02 616.44,-390.06 600.71,-391.02"/>
<polygon fill="#63b8ff" stroke="#63b8ff" points="650.18,-391.5 659.95,-387.4 649.75,-384.52 650.18,-391.5"/>
</a>
</g>
</g>
<!-- Node10&#45;&gt;Node6 -->
<g id="edge16_Node000010_Node000006" class="edge">
<title>Node10&#45;&gt;Node6</title>
<g id="a_edge16_Node000010_Node000006"><a xlink:title=" ">
<path fill="none" stroke="#63b8ff" d="M696.36,-177.65C673.69,-193.64 643.2,-213.45 614,-227 606.89,-230.3 599.21,-233.29 591.54,-235.95"/>
<polygon fill="#63b8ff" stroke="#63b8ff" points="698.55,-180.39 704.65,-171.72 694.48,-174.69 698.55,-180.39"/>
</a>
</g>
</g>
<!-- Node10&#45;&gt;Node8 -->
<g id="edge17_Node000010_Node000008" class="edge">
<title>Node10&#45;&gt;Node8</title>
<g id="a_edge17_Node000010_Node000008"><a xlink:title=" ">
<path fill="none" stroke="#63b8ff" d="M658.05,-170.57C636.24,-176.34 612.74,-182.56 592.2,-188"/>
<polygon fill="#63b8ff" stroke="#63b8ff" points="659.16,-173.9 667.93,-167.95 657.37,-167.13 659.16,-173.9"/>
</a>
</g>
</g>
<!-- Node10&#45;&gt;Node9 -->
<g id="edge18_Node000010_Node000009" class="edge">
<title>Node10&#45;&gt;Node9</title>
<g id="a_edge18_Node000010_Node000009"><a xlink:title=" ">
<path fill="none" stroke="#63b8ff" d="M699.31,-123.65C670.94,-100.33 631.73,-69.16 614,-60 607.54,-56.66 600.54,-53.71 593.47,-51.1"/>
<polygon fill="#63b8ff" stroke="#63b8ff" points="697.42,-126.63 707.36,-130.3 701.88,-121.23 697.42,-126.63"/>
</a>
</g>
</g>
<!-- Node11 -->
<g id="Node000011" class="node">
<title>Node11</title>
<g id="a_Node000011"><a xlink:href="classzero__mate_1_1arm1176jzf__s_1_1CCPU__Core.html#a0dbd5d6ffc531f762b49956d27f93be3" target="_top" xlink:title="Checks whether a given coprocessor can be accessed from the current CPU mode.">
<polygon fill="white" stroke="#666666" points="611,-110.5 458,-110.5 458,-69.5 611,-69.5 611,-110.5"/>
<text text-anchor="start" x="466" y="-98.5" font-family="Helvetica,sans-Serif" font-size="10.00">zero_mate::arm1176jzf</text>
<text text-anchor="start" x="466" y="-87.5" font-family="Helvetica,sans-Serif" font-size="10.00">_s::CCPU_Core::Checks</text>
<text text-anchor="middle" x="534.5" y="-76.5" font-family="Helvetica,sans-Serif" font-size="10.00">_Coprocessor_Access_Mode</text>
</a>
</g>
</g>
<!-- Node10&#45;&gt;Node11 -->
<g id="edge11_Node000010_Node000011" class="edge">
<title>Node10&#45;&gt;Node11</title>
<g id="a_edge11_Node000010_Node000011"><a xlink:title=" ">
<path fill="none" stroke="#63b8ff" d="M658.36,-128.14C639.81,-122.38 620.01,-116.23 601.84,-110.6"/>
<polygon fill="#63b8ff" stroke="#63b8ff" points="657.34,-131.49 667.93,-131.11 659.42,-124.8 657.34,-131.49"/>
</a>
</g>
</g>
<!-- Node16 -->
<g id="Node000016" class="node">
<title>Node16</title>
<g id="a_Node000016"><a xlink:href="classzero__mate_1_1arm1176jzf__s_1_1mmu_1_1CMMU.html#a0e32ece3d5ac208c69fa5573fcea3205" target="_top" xlink:title="Verifies access privileges when accessing a page (virtual address).">
<polygon fill="white" stroke="#666666" points="600,-169.5 469,-169.5 469,-128.5 600,-128.5 600,-169.5"/>
<text text-anchor="start" x="477" y="-157.5" font-family="Helvetica,sans-Serif" font-size="10.00">zero_mate::arm1176jzf</text>
<text text-anchor="start" x="477" y="-146.5" font-family="Helvetica,sans-Serif" font-size="10.00">_s::mmu::CMMU::Verify</text>
<text text-anchor="middle" x="534.5" y="-135.5" font-family="Helvetica,sans-Serif" font-size="10.00">_Access_Privileges</text>
</a>
</g>
</g>
<!-- Node10&#45;&gt;Node16 -->
<g id="edge19_Node000010_Node000016" class="edge">
<title>Node10&#45;&gt;Node16</title>
<g id="a_edge19_Node000010_Node000016"><a xlink:title=" ">
<path fill="none" stroke="#63b8ff" d="M657.84,-150.25C638.86,-150.05 618.61,-149.85 600.16,-149.66"/>
<polygon fill="#63b8ff" stroke="#63b8ff" points="657.9,-153.75 667.93,-150.35 657.97,-146.75 657.9,-153.75"/>
</a>
</g>
</g>
<!-- Node12 -->
<g id="Node000012" class="node">
<title>Node12</title>
<g id="a_Node000012"><a xlink:href="classzero__mate_1_1arm1176jzf__s_1_1CCPU__Core.html#a9d662bbaf486e8924698ecf2208d0d73" target="_top" xlink:title="Performs coprocessor accessibility checks.">
<polygon fill="white" stroke="#666666" points="419,-101.5 230,-101.5 230,-60.5 419,-60.5 419,-101.5"/>
<text text-anchor="start" x="238" y="-89.5" font-family="Helvetica,sans-Serif" font-size="10.00">zero_mate::arm1176jzf</text>
<text text-anchor="start" x="238" y="-78.5" font-family="Helvetica,sans-Serif" font-size="10.00">_s::CCPU_Core::Perform</text>
<text text-anchor="middle" x="324.5" y="-67.5" font-family="Helvetica,sans-Serif" font-size="10.00">_Coprocessor_Accessibility_Checks</text>
</a>
</g>
</g>
<!-- Node11&#45;&gt;Node12 -->
<g id="edge12_Node000011_Node000012" class="edge">
<title>Node11&#45;&gt;Node12</title>
<g id="a_edge12_Node000011_Node000012"><a xlink:title=" ">
<path fill="none" stroke="#63b8ff" d="M447.71,-86.29C438.31,-85.88 428.7,-85.47 419.21,-85.05"/>
<polygon fill="#63b8ff" stroke="#63b8ff" points="447.68,-89.79 457.82,-86.73 447.98,-82.8 447.68,-89.79"/>
</a>
</g>
</g>
<!-- Node13 -->
<g id="Node000013" class="node">
<title>Node13</title>
<g id="a_Node000013"><a xlink:href="classzero__mate_1_1arm1176jzf__s_1_1CCPU__Core.html#a13f003234822a261f628d8339fbff25c" target="_top" xlink:title="Executes a coprocessor data operation instruction (coprocessor instruction (3)).">
<polygon fill="white" stroke="#666666" points="163,-78 31,-78 31,-48 163,-48 163,-78"/>
<text text-anchor="start" x="39" y="-66" font-family="Helvetica,sans-Serif" font-size="10.00">zero_mate::arm1176jzf</text>
<text text-anchor="middle" x="97" y="-55" font-family="Helvetica,sans-Serif" font-size="10.00">_s::CCPU_Core::Execute</text>
</a>
</g>
</g>
<!-- Node12&#45;&gt;Node13 -->
<g id="edge13_Node000012_Node000013" class="edge">
<title>Node12&#45;&gt;Node13</title>
<g id="a_edge13_Node000012_Node000013"><a xlink:title=" ">
<path fill="none" stroke="#63b8ff" d="M219.8,-72.72C200.55,-71.19 180.94,-69.62 163.24,-68.21"/>
<polygon fill="#63b8ff" stroke="#63b8ff" points="219.58,-76.22 229.83,-73.52 220.14,-69.24 219.58,-76.22"/>
</a>
</g>
</g>
<!-- Node14 -->
<g id="Node000014" class="node">
<title>Node14</title>
<g id="a_Node000014"><a xlink:href="classzero__mate_1_1arm1176jzf__s_1_1CCPU__Core.html#a8fb15d5c9802a6971560ff8ef2a0f9dc" target="_top" xlink:title="Executes a coprocessor data transfer instruction (coprocessor instruction (2)).">
<polygon fill="white" stroke="#666666" points="163,-30 31,-30 31,0 163,0 163,-30"/>
<text text-anchor="start" x="39" y="-18" font-family="Helvetica,sans-Serif" font-size="10.00">zero_mate::arm1176jzf</text>
<text text-anchor="middle" x="97" y="-7" font-family="Helvetica,sans-Serif" font-size="10.00">_s::CCPU_Core::Execute</text>
</a>
</g>
</g>
<!-- Node12&#45;&gt;Node14 -->
<g id="edge14_Node000012_Node000014" class="edge">
<title>Node12&#45;&gt;Node14</title>
<g id="a_edge14_Node000012_Node000014"><a xlink:title=" ">
<path fill="none" stroke="#63b8ff" d="M253.57,-57.35C234.34,-51.11 213.44,-44.57 194,-39 183.27,-35.92 171.79,-32.86 160.65,-30"/>
<polygon fill="#63b8ff" stroke="#63b8ff" points="252.56,-60.7 263.15,-60.48 254.73,-54.05 252.56,-60.7"/>
</a>
</g>
</g>
<!-- Node15 -->
<g id="Node000015" class="node">
<title>Node15</title>
<g id="a_Node000015"><a xlink:href="classzero__mate_1_1arm1176jzf__s_1_1CCPU__Core.html#ae54c96b9b4395337b22c4ce3686d7862" target="_top" xlink:title="Executes a coprocessor register transfer instruction (coprocessor instruction (1)).">
<polygon fill="white" stroke="#666666" points="163,-126 31,-126 31,-96 163,-96 163,-126"/>
<text text-anchor="start" x="39" y="-114" font-family="Helvetica,sans-Serif" font-size="10.00">zero_mate::arm1176jzf</text>
<text text-anchor="middle" x="97" y="-103" font-family="Helvetica,sans-Serif" font-size="10.00">_s::CCPU_Core::Execute</text>
</a>
</g>
</g>
<!-- Node12&#45;&gt;Node15 -->
<g id="edge15_Node000012_Node000015" class="edge">
<title>Node12&#45;&gt;Node15</title>
<g id="a_edge15_Node000012_Node000015"><a xlink:title=" ">
<path fill="none" stroke="#63b8ff" d="M219.8,-94.8C200.55,-97.36 180.94,-99.97 163.24,-102.32"/>
<polygon fill="#63b8ff" stroke="#63b8ff" points="220.38,-98.25 229.83,-93.46 219.45,-91.31 220.38,-98.25"/>
</a>
</g>
</g>
<!-- Node17 -->
<g id="Node000017" class="node">
<title>Node17</title>
<g id="a_Node000017"><a xlink:href="classzero__mate_1_1arm1176jzf__s_1_1mmu_1_1CMMU.html#ab1413e798b9ac2d3bcdf521e7dfe7bdf" target="_top" xlink:title="Verifies page access (calls a chain of functions that validate the access).">
<polygon fill="white" stroke="#666666" points="390,-174.5 259,-174.5 259,-133.5 390,-133.5 390,-174.5"/>
<text text-anchor="start" x="267" y="-162.5" font-family="Helvetica,sans-Serif" font-size="10.00">zero_mate::arm1176jzf</text>
<text text-anchor="start" x="267" y="-151.5" font-family="Helvetica,sans-Serif" font-size="10.00">_s::mmu::CMMU::Verify</text>
<text text-anchor="middle" x="324.5" y="-140.5" font-family="Helvetica,sans-Serif" font-size="10.00">_Access</text>
</a>
</g>
</g>
<!-- Node16&#45;&gt;Node17 -->
<g id="edge20_Node000016_Node000017" class="edge">
<title>Node16&#45;&gt;Node17</title>
<g id="a_edge20_Node000016_Node000017"><a xlink:title=" ">
<path fill="none" stroke="#63b8ff" d="M458.68,-150.8C436.25,-151.34 411.85,-151.92 390.13,-152.45"/>
<polygon fill="#63b8ff" stroke="#63b8ff" points="458.91,-154.29 468.83,-150.55 458.75,-147.3 458.91,-154.29"/>
</a>
</g>
</g>
<!-- Node18 -->
<g id="Node000018" class="node">
<title>Node18</title>
<g id="a_Node000018"><a xlink:href="classzero__mate_1_1arm1176jzf__s_1_1mmu_1_1CMMU.html#a7bc1002a8f1032547deee07589cbbb84" target="_top" xlink:title="Converts a given virtual address into a physical address.">
<polygon fill="white" stroke="#666666" points="194,-174 0,-174 0,-144 194,-144 194,-174"/>
<text text-anchor="start" x="8" y="-162" font-family="Helvetica,sans-Serif" font-size="10.00">zero_mate::arm1176jzf</text>
<text text-anchor="middle" x="97" y="-151" font-family="Helvetica,sans-Serif" font-size="10.00">_s::mmu::CMMU::Get_Physical_Addr</text>
</a>
</g>
</g>
<!-- Node17&#45;&gt;Node18 -->
<g id="edge21_Node000017_Node000018" class="edge">
<title>Node17&#45;&gt;Node18</title>
<g id="a_edge21_Node000017_Node000018"><a xlink:title=" ">
<path fill="none" stroke="#63b8ff" d="M248.76,-155.66C231.28,-156.04 212.42,-156.46 194.15,-156.87"/>
<polygon fill="#63b8ff" stroke="#63b8ff" points="248.96,-159.15 258.88,-155.43 248.81,-152.16 248.96,-159.15"/>
</a>
</g>
</g>
<!-- Node19&#45;&gt;Node3 -->
<g id="edge23_Node000019_Node000003" class="edge">
<title>Node19&#45;&gt;Node3</title>
<g id="a_edge23_Node000019_Node000003"><a xlink:title=" ">
<path fill="none" stroke="#63b8ff" d="M643.58,-487.15C631.91,-488.75 620.05,-490.38 608.67,-491.95"/>
<polygon fill="#63b8ff" stroke="#63b8ff" points="644.34,-490.58 653.77,-485.75 643.39,-483.64 644.34,-490.58"/>
</a>
</g>
</g>
<!-- Node20&#45;&gt;Node5 -->
<g id="edge25_Node000020_Node000005" class="edge">
<title>Node20&#45;&gt;Node5</title>
<g id="a_edge25_Node000020_Node000005"><a xlink:title=" ">
<path fill="none" stroke="#63b8ff" d="M705.52,-312.37C682.48,-330.1 647.61,-354.92 614,-371 607.06,-374.32 599.55,-377.31 592.03,-379.96"/>
<polygon fill="#63b8ff" stroke="#63b8ff" points="707.72,-315.09 713.45,-306.18 703.41,-309.57 707.72,-315.09"/>
</a>
</g>
</g>
<!-- Node20&#45;&gt;Node6 -->
<g id="edge26_Node000020_Node000006" class="edge">
<title>Node20&#45;&gt;Node6</title>
<g id="a_edge26_Node000020_Node000006"><a xlink:title=" ">
<path fill="none" stroke="#63b8ff" d="M648.4,-273.98C632.41,-270.73 615.9,-267.37 600.6,-264.25"/>
<polygon fill="#63b8ff" stroke="#63b8ff" points="647.77,-277.43 658.27,-275.99 649.17,-270.57 647.77,-277.43"/>
</a>
</g>
</g>
<!-- Node20&#45;&gt;Node7 -->
<g id="edge27_Node000020_Node000007" class="edge">
<title>Node20&#45;&gt;Node7</title>
<g id="a_edge27_Node000020_Node000007"><a xlink:title=" ">
<path fill="none" stroke="#63b8ff" d="M669.53,-308.8C643.38,-316.25 613.32,-324.82 588.3,-331.95"/>
<polygon fill="#63b8ff" stroke="#63b8ff" points="670.68,-312.11 679.34,-306.01 668.77,-305.38 670.68,-312.11"/>
</a>
</g>
</g>
<!-- Node20&#45;&gt;Node8 -->
<g id="edge28_Node000020_Node000008" class="edge">
<title>Node20&#45;&gt;Node8</title>
<g id="a_edge28_Node000020_Node000008"><a xlink:title=" ">
<path fill="none" stroke="#63b8ff" d="M698.66,-270.58C675.5,-256.99 643.6,-239.41 614,-227 606.38,-223.81 598.18,-220.83 590.06,-218.13"/>
<polygon fill="#63b8ff" stroke="#63b8ff" points="697.01,-273.67 707.4,-275.76 700.59,-267.65 697.01,-273.67"/>
</a>
</g>
</g>
<!-- Node21 -->
<g id="Node000021" class="node">
<title>Node21</title>
<g id="a_Node000021"><a xlink:href="classzero__mate_1_1arm1176jzf__s_1_1CCPU__Core.html#abe7461d09a52f28f99037717f61975c6" target="_top" xlink:title="Executes an MSR instruction (move data to CPSR/SPSR from an ARM register).">
<polygon fill="white" stroke="#666666" points="614,-314 455,-314 455,-284 614,-284 614,-314"/>
<text text-anchor="start" x="463" y="-302" font-family="Helvetica,sans-Serif" font-size="10.00">zero_mate::arm1176jzf</text>
<text text-anchor="middle" x="534.5" y="-291" font-family="Helvetica,sans-Serif" font-size="10.00">_s::CCPU_Core::Execute_MSR</text>
</a>
</g>
</g>
<!-- Node20&#45;&gt;Node21 -->
<g id="edge29_Node000020_Node000021" class="edge">
<title>Node20&#45;&gt;Node21</title>
<g id="a_edge29_Node000020_Node000021"><a xlink:title=" ">
<path fill="none" stroke="#63b8ff" d="M644.82,-294.55C634.66,-294.96 624.35,-295.38 614.31,-295.79"/>
<polygon fill="#63b8ff" stroke="#63b8ff" points="645.05,-298.04 654.9,-294.14 644.77,-291.05 645.05,-298.04"/>
</a>
</g>
</g>
<!-- Node22 -->
<g id="Node000022" class="node">
<title>Node22</title>
<g id="a_Node000022"><a xlink:href="classzero__mate_1_1arm1176jzf__s_1_1CCPU__Core.html#a3a90c040b3cbe4545a9acc5e35acdd45" target="_top" xlink:title="Executes a PSR transfer instruction.">
<polygon fill="white" stroke="#666666" points="390.5,-314 258.5,-314 258.5,-284 390.5,-284 390.5,-314"/>
<text text-anchor="start" x="266.5" y="-302" font-family="Helvetica,sans-Serif" font-size="10.00">zero_mate::arm1176jzf</text>
<text text-anchor="middle" x="324.5" y="-291" font-family="Helvetica,sans-Serif" font-size="10.00">_s::CCPU_Core::Execute</text>
</a>
</g>
</g>
<!-- Node21&#45;&gt;Node22 -->
<g id="edge30_Node000021_Node000022" class="edge">
<title>Node21&#45;&gt;Node22</title>
<g id="a_edge30_Node000021_Node000022"><a xlink:title=" ">
<path fill="none" stroke="#63b8ff" d="M444.85,-299C426.67,-299 407.86,-299 390.69,-299"/>
<polygon fill="#63b8ff" stroke="#63b8ff" points="444.86,-302.5 454.86,-299 444.86,-295.5 444.86,-302.5"/>
</a>
</g>
</g>
</g>
</svg>
