<?xml version="1.0" encoding="UTF-8" standalone="no"?>
<!DOCTYPE svg PUBLIC "-//W3C//DTD SVG 1.1//EN"
 "http://www.w3.org/Graphics/SVG/1.1/DTD/svg11.dtd">
<!-- Generated by graphviz version 2.43.0 (0)
 -->
<!-- Title: zero_mate::arm1176jzf_s::CCPU_Core::Execute Pages: 1 -->
<svg width="474pt" height="110pt"
 viewBox="0.00 0.00 474.00 110.00" xmlns="http://www.w3.org/2000/svg" xmlns:xlink="http://www.w3.org/1999/xlink">
<g id="graph0" class="graph" transform="scale(1 1) rotate(0) translate(4 106)">
<title>zero_mate::arm1176jzf_s::CCPU_Core::Execute</title>
<!-- Node1 -->
<g id="Node000001" class="node">
<title>Node1</title>
<g id="a_Node000001"><a xlink:title=" ">
<polygon fill="#999999" stroke="#666666" points="466,-78 334,-78 334,-48 466,-48 466,-78"/>
<text text-anchor="start" x="342" y="-66" font-family="Helvetica,sans-Serif" font-size="10.00">zero_mate::arm1176jzf</text>
<text text-anchor="middle" x="400" y="-55" font-family="Helvetica,sans-Serif" font-size="10.00">_s::CCPU_Core::Execute</text>
</a>
</g>
</g>
<!-- Node1&#45;&gt;Node1 -->
<g id="edge2_Node000001_Node000001" class="edge">
<title>Node1&#45;&gt;Node1</title>
<g id="a_edge2_Node000001_Node000001"><a xlink:title=" ">
<path fill="none" stroke="#63b8ff" d="M429.41,-88.6C425.39,-92.97 415.59,-96 400,-96 373.75,-96 363.91,-87.41 370.47,-78.28"/>
<polygon fill="#63b8ff" stroke="#63b8ff" points="432.91,-88.32 429.53,-78.28 425.91,-88.23 432.91,-88.32"/>
</a>
</g>
</g>
<!-- Node2 -->
<g id="Node000002" class="node">
<title>Node2</title>
<g id="a_Node000002"><a xlink:href="classzero__mate_1_1arm1176jzf__s_1_1CCPU__Core.html#ac81ae05305c6916b7eda83abff602dcf" target="_top" xlink:title="Executes a single instruction.">
<polygon fill="white" stroke="#666666" points="298,-102 166,-102 166,-72 298,-72 298,-102"/>
<text text-anchor="start" x="174" y="-90" font-family="Helvetica,sans-Serif" font-size="10.00">zero_mate::arm1176jzf</text>
<text text-anchor="middle" x="232" y="-79" font-family="Helvetica,sans-Serif" font-size="10.00">_s::CCPU_Core::Execute</text>
</a>
</g>
</g>
<!-- Node1&#45;&gt;Node2 -->
<g id="edge1_Node000001_Node000002" class="edge">
<title>Node1&#45;&gt;Node2</title>
<g id="a_edge1_Node000001_Node000002"><a xlink:title=" ">
<path fill="none" stroke="#63b8ff" d="M323.89,-73.86C315.32,-75.1 306.64,-76.35 298.22,-77.57"/>
<polygon fill="#63b8ff" stroke="#63b8ff" points="324.47,-77.31 333.87,-72.42 323.47,-70.38 324.47,-77.31"/>
</a>
</g>
</g>
<!-- Node3 -->
<g id="Node000003" class="node">
<title>Node3</title>
<g id="a_Node000003"><a xlink:href="classzero__mate_1_1arm1176jzf__s_1_1CCPU__Core.html#a1665360d8ae71ed541b4c10f39e655a5" target="_top" xlink:title=" ">
<polygon fill="white" stroke="#666666" points="297,-54 167,-54 167,-24 297,-24 297,-54"/>
<text text-anchor="start" x="175" y="-42" font-family="Helvetica,sans-Serif" font-size="10.00">zero_mate::arm1176jzf</text>
<text text-anchor="middle" x="232" y="-31" font-family="Helvetica,sans-Serif" font-size="10.00">_s::CCPU_Core::Step</text>
</a>
</g>
</g>
<!-- Node1&#45;&gt;Node3 -->
<g id="edge3_Node000001_Node000003" class="edge">
<title>Node1&#45;&gt;Node3</title>
<g id="a_edge3_Node000001_Node000003"><a xlink:title=" ">
<path fill="none" stroke="#63b8ff" d="M323.86,-52.14C314.93,-50.85 305.88,-49.54 297.13,-48.27"/>
<polygon fill="#63b8ff" stroke="#63b8ff" points="323.47,-55.62 333.87,-53.58 324.47,-48.69 323.47,-55.62"/>
</a>
</g>
</g>
<!-- Node4 -->
<g id="Node000004" class="node">
<title>Node4</title>
<g id="a_Node000004"><a xlink:href="classzero__mate_1_1arm1176jzf__s_1_1CCPU__Core.html#ad07b9956fd3f7b6c64b93c69243092f4" target="_top" xlink:title="Starts the execution.">
<polygon fill="white" stroke="#666666" points="130,-78 0,-78 0,-48 130,-48 130,-78"/>
<text text-anchor="start" x="8" y="-66" font-family="Helvetica,sans-Serif" font-size="10.00">zero_mate::arm1176jzf</text>
<text text-anchor="middle" x="65" y="-55" font-family="Helvetica,sans-Serif" font-size="10.00">_s::CCPU_Core::Run</text>
</a>
</g>
</g>
<!-- Node3&#45;&gt;Node4 -->
<g id="edge4_Node000003_Node000004" class="edge">
<title>Node3&#45;&gt;Node4</title>
<g id="a_edge4_Node000003_Node000004"><a xlink:title=" ">
<path fill="none" stroke="#63b8ff" d="M156.76,-49.8C147.86,-51.09 138.83,-52.41 130.09,-53.68"/>
<polygon fill="#63b8ff" stroke="#63b8ff" points="157.34,-53.25 166.73,-48.35 156.33,-46.32 157.34,-53.25"/>
</a>
</g>
</g>
<!-- Node5 -->
<g id="Node000005" class="node">
<title>Node5</title>
<g id="a_Node000005"><a xlink:href="classzero__mate_1_1arm1176jzf__s_1_1CCPU__Core.html#a16544e9981489e1f4a25405248e5a5c0" target="_top" xlink:title=" ">
<polygon fill="white" stroke="#666666" points="130,-30 0,-30 0,0 130,0 130,-30"/>
<text text-anchor="start" x="8" y="-18" font-family="Helvetica,sans-Serif" font-size="10.00">zero_mate::arm1176jzf</text>
<text text-anchor="middle" x="65" y="-7" font-family="Helvetica,sans-Serif" font-size="10.00">_s::CCPU_Core::Steps</text>
</a>
</g>
</g>
<!-- Node3&#45;&gt;Node5 -->
<g id="edge5_Node000003_Node000005" class="edge">
<title>Node3&#45;&gt;Node5</title>
<g id="a_edge5_Node000003_Node000005"><a xlink:title=" ">
<path fill="none" stroke="#63b8ff" d="M156.76,-28.2C147.86,-26.91 138.83,-25.59 130.09,-24.32"/>
<polygon fill="#63b8ff" stroke="#63b8ff" points="156.33,-31.68 166.73,-29.65 157.34,-24.75 156.33,-31.68"/>
</a>
</g>
</g>
</g>
</svg>
