<?xml version="1.0" encoding="UTF-8" standalone="no"?>
<!DOCTYPE svg PUBLIC "-//W3C//DTD SVG 1.1//EN"
 "http://www.w3.org/Graphics/SVG/1.1/DTD/svg11.dtd">
<!-- Generated by graphviz version 2.43.0 (0)
 -->
<!-- Title: zero_mate::gui::CRegisters_Window::Render_Register_Tabs Pages: 1 -->
<svg width="1333pt" height="292pt"
 viewBox="0.00 0.00 1333.00 291.50" xmlns="http://www.w3.org/2000/svg" xmlns:xlink="http://www.w3.org/1999/xlink">
<g id="graph0" class="graph" transform="scale(1 1) rotate(0) translate(4 287.5)">
<title>zero_mate::gui::CRegisters_Window::Render_Register_Tabs</title>
<!-- Node1 -->
<g id="Node000001" class="node">
<title>Node1</title>
<g id="a_Node000001"><a xlink:title="Renders different format tabs of a given CPU mode.">
<polygon fill="#999999" stroke="#666666" points="173,-167 0,-167 0,-137 173,-137 173,-167"/>
<text text-anchor="start" x="8" y="-155" font-family="Helvetica,sans-Serif" font-size="10.00">zero_mate::gui::CRegisters</text>
<text text-anchor="middle" x="86.5" y="-144" font-family="Helvetica,sans-Serif" font-size="10.00">_Window::Render_Register_Tabs</text>
</a>
</g>
</g>
<!-- Node2 -->
<g id="Node000002" class="node">
<title>Node2</title>
<g id="a_Node000002"><a xlink:href="classzero__mate_1_1gui_1_1CRegisters__Window.html#ab910a37cb5f1cd13e2566c87a6bc0121" target="_top" xlink:title="Renders flags of the CPSR register.">
<polygon fill="white" stroke="#666666" points="381.5,-234 218.5,-234 218.5,-204 381.5,-204 381.5,-234"/>
<text text-anchor="start" x="226.5" y="-222" font-family="Helvetica,sans-Serif" font-size="10.00">zero_mate::gui::CRegisters</text>
<text text-anchor="middle" x="300" y="-211" font-family="Helvetica,sans-Serif" font-size="10.00">_Window::Render_CPSR_Flags</text>
</a>
</g>
</g>
<!-- Node1&#45;&gt;Node2 -->
<g id="edge1_Node000001_Node000002" class="edge">
<title>Node1&#45;&gt;Node2</title>
<g id="a_edge1_Node000001_Node000002"><a xlink:title=" ">
<path fill="none" stroke="#63b8ff" d="M134.96,-167.04C166.56,-177.04 208.24,-190.25 241.68,-200.84"/>
<polygon fill="#63b8ff" stroke="#63b8ff" points="240.74,-204.21 251.33,-203.9 242.85,-197.54 240.74,-204.21"/>
</a>
</g>
</g>
<!-- Node4 -->
<g id="Node000004" class="node">
<title>Node4</title>
<g id="a_Node000004"><a xlink:href="classzero__mate_1_1gui_1_1CRegisters__Window.html#a1779ad3caf45c3e8dd342ef8057dfff7" target="_top" xlink:title="Renders table with CPU registers of a given CPU mode.">
<polygon fill="white" stroke="#666666" points="391,-143 209,-143 209,-113 391,-113 391,-143"/>
<text text-anchor="start" x="217" y="-131" font-family="Helvetica,sans-Serif" font-size="10.00">zero_mate::gui::CRegisters</text>
<text text-anchor="middle" x="300" y="-120" font-family="Helvetica,sans-Serif" font-size="10.00">_Window::Render_Registers_Table</text>
</a>
</g>
</g>
<!-- Node1&#45;&gt;Node4 -->
<g id="edge3_Node000001_Node000004" class="edge">
<title>Node1&#45;&gt;Node4</title>
<g id="a_edge3_Node000001_Node000004"><a xlink:title=" ">
<path fill="none" stroke="#63b8ff" d="M173.22,-142.27C181.61,-141.32 190.18,-140.35 198.71,-139.38"/>
<polygon fill="#63b8ff" stroke="#63b8ff" points="199.13,-142.85 208.68,-138.25 198.35,-135.9 199.13,-142.85"/>
</a>
</g>
</g>
<!-- Node3 -->
<g id="Node000003" class="node">
<title>Node3</title>
<g id="a_Node000003"><a xlink:href="classzero__mate_1_1arm1176jzf__s_1_1CCPU__Context.html#a0013811c3eef6d91ddfd2423a08889ef" target="_top" xlink:title="Checks whether a given flag is set in the CPSR register of the current CPU mode.">
<polygon fill="white" stroke="#666666" points="571.5,-283.5 441.5,-283.5 441.5,-242.5 571.5,-242.5 571.5,-283.5"/>
<text text-anchor="start" x="449.5" y="-271.5" font-family="Helvetica,sans-Serif" font-size="10.00">zero_mate::arm1176jzf</text>
<text text-anchor="start" x="449.5" y="-260.5" font-family="Helvetica,sans-Serif" font-size="10.00">_s::CCPU_Context::Is</text>
<text text-anchor="middle" x="506.5" y="-249.5" font-family="Helvetica,sans-Serif" font-size="10.00">_Flag_Set</text>
</a>
</g>
</g>
<!-- Node2&#45;&gt;Node3 -->
<g id="edge2_Node000002_Node000003" class="edge">
<title>Node2&#45;&gt;Node3</title>
<g id="a_edge2_Node000002_Node000003"><a xlink:title=" ">
<path fill="none" stroke="#63b8ff" d="M370.81,-234.02C390.31,-238.21 411.56,-242.79 431.3,-247.04"/>
<polygon fill="#63b8ff" stroke="#63b8ff" points="430.65,-250.48 441.17,-249.16 432.13,-243.63 430.65,-250.48"/>
</a>
</g>
</g>
<!-- Node5 -->
<g id="Node000005" class="node">
<title>Node5</title>
<g id="a_Node000005"><a xlink:href="classzero__mate_1_1arm1176jzf__s_1_1CCPU__Context.html#acf66c6ff905975912dbf52133ddfeceb" target="_top" xlink:title="Returns a reference the CPSR register of the current CPU mode.">
<polygon fill="white" stroke="#666666" points="585.5,-224 427.5,-224 427.5,-194 585.5,-194 585.5,-224"/>
<text text-anchor="start" x="435.5" y="-212" font-family="Helvetica,sans-Serif" font-size="10.00">zero_mate::arm1176jzf</text>
<text text-anchor="middle" x="506.5" y="-201" font-family="Helvetica,sans-Serif" font-size="10.00">_s::CCPU_Context::Get_CPSR</text>
</a>
</g>
</g>
<!-- Node4&#45;&gt;Node5 -->
<g id="edge4_Node000004_Node000005" class="edge">
<title>Node4&#45;&gt;Node5</title>
<g id="a_edge4_Node000004_Node000005"><a xlink:title=" ">
<path fill="none" stroke="#63b8ff" d="M331.35,-143.05C356.59,-155.25 393.64,-172.41 427,-185 432.17,-186.95 437.57,-188.86 443.01,-190.69"/>
<polygon fill="#63b8ff" stroke="#63b8ff" points="442.23,-194.12 452.83,-193.91 444.42,-187.47 442.23,-194.12"/>
</a>
</g>
</g>
<!-- Node6 -->
<g id="Node000006" class="node">
<title>Node6</title>
<g id="a_Node000006"><a xlink:href="classzero__mate_1_1arm1176jzf__s_1_1CCPU__Context.html#a22efcb34f3c1bd9f46f1f75771103ef9" target="_top" xlink:title="Returns a const reference to a register of a particular CPU mode.">
<polygon fill="white" stroke="#666666" points="571.5,-175.5 441.5,-175.5 441.5,-134.5 571.5,-134.5 571.5,-175.5"/>
<text text-anchor="start" x="449.5" y="-163.5" font-family="Helvetica,sans-Serif" font-size="10.00">zero_mate::arm1176jzf</text>
<text text-anchor="start" x="449.5" y="-152.5" font-family="Helvetica,sans-Serif" font-size="10.00">_s::CCPU_Context::Get</text>
<text text-anchor="middle" x="506.5" y="-141.5" font-family="Helvetica,sans-Serif" font-size="10.00">_Register</text>
</a>
</g>
</g>
<!-- Node4&#45;&gt;Node6 -->
<g id="edge5_Node000004_Node000006" class="edge">
<title>Node4&#45;&gt;Node6</title>
<g id="a_edge5_Node000004_Node000006"><a xlink:title=" ">
<path fill="none" stroke="#63b8ff" d="M391.29,-139.92C404.63,-141.68 418.25,-143.48 431.21,-145.19"/>
<polygon fill="#63b8ff" stroke="#63b8ff" points="431.08,-148.7 441.45,-146.54 432,-141.76 431.08,-148.7"/>
</a>
</g>
</g>
<!-- Node7 -->
<g id="Node000007" class="node">
<title>Node7</title>
<g id="a_Node000007"><a xlink:href="classzero__mate_1_1arm1176jzf__s_1_1CCPU__Context.html#ae00681efcbc4adfcfde001a67c5baeca" target="_top" xlink:title="Returns the value of the SPSR register of the current CPU mode.">
<polygon fill="white" stroke="#666666" points="585,-116 428,-116 428,-86 585,-86 585,-116"/>
<text text-anchor="start" x="436" y="-104" font-family="Helvetica,sans-Serif" font-size="10.00">zero_mate::arm1176jzf</text>
<text text-anchor="middle" x="506.5" y="-93" font-family="Helvetica,sans-Serif" font-size="10.00">_s::CCPU_Context::Get_SPSR</text>
</a>
</g>
</g>
<!-- Node4&#45;&gt;Node7 -->
<g id="edge6_Node000004_Node000007" class="edge">
<title>Node4&#45;&gt;Node7</title>
<g id="a_edge6_Node000004_Node000007"><a xlink:title=" ">
<path fill="none" stroke="#63b8ff" d="M391.29,-116.08C400.06,-114.92 408.95,-113.75 417.69,-112.59"/>
<polygon fill="#63b8ff" stroke="#63b8ff" points="418.41,-116.03 427.87,-111.25 417.5,-109.09 418.41,-116.03"/>
</a>
</g>
</g>
<!-- Node14 -->
<g id="Node000014" class="node">
<title>Node14</title>
<g id="a_Node000014"><a xlink:href="classzero__mate_1_1arm1176jzf__s_1_1CCPU__Context.html#a6fc387fa0b0dd040c4e2463606d933e4" target="_top" xlink:title="Checks if the CPU mode passed in as a parameter supports the SPSR register or not.">
<polygon fill="white" stroke="#666666" points="933,-78.5 803,-78.5 803,-37.5 933,-37.5 933,-78.5"/>
<text text-anchor="start" x="811" y="-66.5" font-family="Helvetica,sans-Serif" font-size="10.00">zero_mate::arm1176jzf</text>
<text text-anchor="start" x="811" y="-55.5" font-family="Helvetica,sans-Serif" font-size="10.00">_s::CCPU_Context::Is</text>
<text text-anchor="middle" x="868" y="-44.5" font-family="Helvetica,sans-Serif" font-size="10.00">_Mode_With_No_SPSR</text>
</a>
</g>
</g>
<!-- Node4&#45;&gt;Node14 -->
<g id="edge14_Node000004_Node000014" class="edge">
<title>Node4&#45;&gt;Node14</title>
<g id="a_edge14_Node000004_Node000014"><a xlink:title=" ">
<path fill="none" stroke="#63b8ff" d="M330.13,-112.87C355.09,-100.73 392.41,-84.51 427,-77 553.14,-49.6 704.25,-50.08 792.55,-53.58"/>
<polygon fill="#63b8ff" stroke="#63b8ff" points="792.6,-57.08 802.74,-54.01 792.89,-50.09 792.6,-57.08"/>
</a>
</g>
</g>
<!-- Node15 -->
<g id="Node000015" class="node">
<title>Node15</title>
<g id="a_Node000015"><a xlink:href="classzero__mate_1_1gui_1_1CRegisters__Window.html#a5240e615ada1d612975e9339ae715f1e" target="_top" xlink:title="Renders a raw integer value in a given format.">
<polygon fill="white" stroke="#666666" points="586,-30 427,-30 427,0 586,0 586,-30"/>
<text text-anchor="start" x="435" y="-18" font-family="Helvetica,sans-Serif" font-size="10.00">zero_mate::gui::CRegisters</text>
<text text-anchor="middle" x="506.5" y="-7" font-family="Helvetica,sans-Serif" font-size="10.00">_Window::Render_Raw_Value</text>
</a>
</g>
</g>
<!-- Node4&#45;&gt;Node15 -->
<g id="edge15_Node000004_Node000015" class="edge">
<title>Node4&#45;&gt;Node15</title>
<g id="a_edge15_Node000004_Node000015"><a xlink:title=" ">
<path fill="none" stroke="#63b8ff" d="M320.62,-112.8C344.68,-94.67 387.17,-64.28 427,-44 434.18,-40.34 441.93,-36.91 449.67,-33.78"/>
<polygon fill="#63b8ff" stroke="#63b8ff" points="451.03,-37.01 459.07,-30.11 448.48,-30.49 451.03,-37.01"/>
</a>
</g>
</g>
<!-- Node8 -->
<g id="Node000008" class="node">
<title>Node8</title>
<g id="a_Node000008"><a xlink:href="classzero__mate_1_1arm1176jzf__s_1_1CCPU__Context.html#a050dada520ca82a21874045815c596a8" target="_top" xlink:title=" ">
<polygon fill="white" stroke="#666666" points="759,-127.5 622,-127.5 622,-86.5 759,-86.5 759,-127.5"/>
<text text-anchor="start" x="630" y="-115.5" font-family="Helvetica,sans-Serif" font-size="10.00">zero_mate::arm1176jzf</text>
<text text-anchor="start" x="630" y="-104.5" font-family="Helvetica,sans-Serif" font-size="10.00">_s::CCPU_Context::Verify</text>
<text text-anchor="middle" x="690.5" y="-93.5" font-family="Helvetica,sans-Serif" font-size="10.00">_SPSR_Accessibility</text>
</a>
</g>
</g>
<!-- Node7&#45;&gt;Node8 -->
<g id="edge7_Node000007_Node000008" class="edge">
<title>Node7&#45;&gt;Node8</title>
<g id="a_edge7_Node000007_Node000008"><a xlink:title=" ">
<path fill="none" stroke="#63b8ff" d="M585.21,-103.56C593.96,-103.85 602.88,-104.14 611.63,-104.43"/>
<polygon fill="#63b8ff" stroke="#63b8ff" points="611.7,-107.94 621.81,-104.77 611.93,-100.94 611.7,-107.94"/>
</a>
</g>
</g>
<!-- Node9 -->
<g id="Node000009" class="node">
<title>Node9</title>
<g id="a_Node000009"><a xlink:href="classzero__mate_1_1utils_1_1CLogging__System.html#a57ed77e1a5cf822cea532cc5e05c3f60" target="_top" xlink:title="Logs an error message via all registered loggers.">
<polygon fill="white" stroke="#666666" points="941,-127 795,-127 795,-97 941,-97 941,-127"/>
<text text-anchor="start" x="803" y="-115" font-family="Helvetica,sans-Serif" font-size="10.00">zero_mate::utils::CLogging</text>
<text text-anchor="middle" x="868" y="-104" font-family="Helvetica,sans-Serif" font-size="10.00">_System::Error</text>
</a>
</g>
</g>
<!-- Node8&#45;&gt;Node9 -->
<g id="edge8_Node000008_Node000009" class="edge">
<title>Node8&#45;&gt;Node9</title>
<g id="a_edge8_Node000008_Node000009"><a xlink:title=" ">
<path fill="none" stroke="#63b8ff" d="M759.1,-108.93C767.5,-109.17 776.16,-109.41 784.75,-109.66"/>
<polygon fill="#63b8ff" stroke="#63b8ff" points="784.68,-113.16 794.77,-109.94 784.88,-106.16 784.68,-113.16"/>
</a>
</g>
</g>
<!-- Node8&#45;&gt;Node14 -->
<g id="edge13_Node000008_Node000014" class="edge">
<title>Node8&#45;&gt;Node14</title>
<g id="a_edge13_Node000008_Node000014"><a xlink:title=" ">
<path fill="none" stroke="#63b8ff" d="M759.1,-88.13C770.23,-85.02 781.81,-81.78 793.09,-78.64"/>
<polygon fill="#63b8ff" stroke="#63b8ff" points="794.2,-81.96 802.89,-75.9 792.32,-75.22 794.2,-81.96"/>
</a>
</g>
</g>
<!-- Node10 -->
<g id="Node000010" class="node">
<title>Node10</title>
<g id="a_Node000010"><a xlink:href="classzero__mate_1_1utils_1_1CLogging__System.html#a71ed11c796553cbe8fd99773406a1060" target="_top" xlink:title="Creates a formatted message to be logged.">
<polygon fill="white" stroke="#666666" points="1129,-159.5 977,-159.5 977,-118.5 1129,-118.5 1129,-159.5"/>
<text text-anchor="start" x="985" y="-147.5" font-family="Helvetica,sans-Serif" font-size="10.00">zero_mate::utils::CLogging</text>
<text text-anchor="start" x="985" y="-136.5" font-family="Helvetica,sans-Serif" font-size="10.00">_System::Create_Formatted</text>
<text text-anchor="middle" x="1053" y="-125.5" font-family="Helvetica,sans-Serif" font-size="10.00">_Log_Msg</text>
</a>
</g>
</g>
<!-- Node9&#45;&gt;Node10 -->
<g id="edge9_Node000009_Node000010" class="edge">
<title>Node9&#45;&gt;Node10</title>
<g id="a_edge9_Node000009_Node000010"><a xlink:title=" ">
<path fill="none" stroke="#63b8ff" d="M941.06,-122.63C949.55,-123.88 958.26,-125.17 966.9,-126.44"/>
<polygon fill="#63b8ff" stroke="#63b8ff" points="966.59,-129.94 976.99,-127.93 967.61,-123.01 966.59,-129.94"/>
</a>
</g>
</g>
<!-- Node13 -->
<g id="Node000013" class="node">
<title>Node13</title>
<g id="a_Node000013"><a xlink:href="classzero__mate_1_1utils_1_1CLogging__System.html#ad371c67ef65763966ccf9291002e86f3" target="_top" xlink:title="Extract the filename from a given location within the source files.">
<polygon fill="white" stroke="#666666" points="1127.5,-100 978.5,-100 978.5,-70 1127.5,-70 1127.5,-100"/>
<text text-anchor="start" x="986.5" y="-88" font-family="Helvetica,sans-Serif" font-size="10.00">zero_mate::utils::CLogging</text>
<text text-anchor="middle" x="1053" y="-77" font-family="Helvetica,sans-Serif" font-size="10.00">_System::Extract_Filename</text>
</a>
</g>
</g>
<!-- Node9&#45;&gt;Node13 -->
<g id="edge12_Node000009_Node000013" class="edge">
<title>Node9&#45;&gt;Node13</title>
<g id="a_edge12_Node000009_Node000013"><a xlink:title=" ">
<path fill="none" stroke="#63b8ff" d="M941.06,-101.37C950.1,-100.03 959.4,-98.66 968.59,-97.31"/>
<polygon fill="#63b8ff" stroke="#63b8ff" points="969.12,-100.77 978.5,-95.84 968.1,-93.84 969.12,-100.77"/>
</a>
</g>
</g>
<!-- Node11 -->
<g id="Node000011" class="node">
<title>Node11</title>
<g id="a_Node000011"><a xlink:href="classzero__mate_1_1utils_1_1CLogging__System.html#aa70c102c805079042ffea2a6f2a5ad64" target="_top" xlink:title="Formats a given timestamp.">
<polygon fill="white" stroke="#666666" points="1325,-178 1165,-178 1165,-148 1325,-148 1325,-178"/>
<text text-anchor="start" x="1173" y="-166" font-family="Helvetica,sans-Serif" font-size="10.00">zero_mate::utils::CLogging</text>
<text text-anchor="middle" x="1245" y="-155" font-family="Helvetica,sans-Serif" font-size="10.00">_System::Format_Timestamp</text>
</a>
</g>
</g>
<!-- Node10&#45;&gt;Node11 -->
<g id="edge10_Node000010_Node000011" class="edge">
<title>Node10&#45;&gt;Node11</title>
<g id="a_edge10_Node000010_Node000011"><a xlink:title=" ">
<path fill="none" stroke="#63b8ff" d="M1129.09,-148.49C1137.52,-149.55 1146.16,-150.64 1154.74,-151.73"/>
<polygon fill="#63b8ff" stroke="#63b8ff" points="1154.41,-155.21 1164.77,-152.99 1155.29,-148.27 1154.41,-155.21"/>
</a>
</g>
</g>
<!-- Node12 -->
<g id="Node000012" class="node">
<title>Node12</title>
<g id="a_Node000012"><a xlink:href="classzero__mate_1_1utils_1_1CLogging__System.html#ae3ca637537dde05e0b9119145c840331" target="_top" xlink:title="Returns the current timestamp that will be used in a log message.">
<polygon fill="white" stroke="#666666" points="1318,-130 1172,-130 1172,-100 1318,-100 1318,-130"/>
<text text-anchor="start" x="1180" y="-118" font-family="Helvetica,sans-Serif" font-size="10.00">zero_mate::utils::CLogging</text>
<text text-anchor="middle" x="1245" y="-107" font-family="Helvetica,sans-Serif" font-size="10.00">_System::Get_Timestamp</text>
</a>
</g>
</g>
<!-- Node10&#45;&gt;Node12 -->
<g id="edge11_Node000010_Node000012" class="edge">
<title>Node10&#45;&gt;Node12</title>
<g id="a_edge11_Node000010_Node000012"><a xlink:title=" ">
<path fill="none" stroke="#63b8ff" d="M1129.09,-129.51C1139.89,-128.15 1151.05,-126.74 1161.98,-125.36"/>
<polygon fill="#63b8ff" stroke="#63b8ff" points="1162.45,-128.83 1171.93,-124.1 1161.57,-121.88 1162.45,-128.83"/>
</a>
</g>
</g>
</g>
</svg>
