<?xml version="1.0" encoding="UTF-8" standalone="no"?>
<!DOCTYPE svg PUBLIC "-//W3C//DTD SVG 1.1//EN"
 "http://www.w3.org/Graphics/SVG/1.1/DTD/svg11.dtd">
<!-- Generated by graphviz version 2.43.0 (0)
 -->
<!-- Title: zero_mate::coprocessor::cp10::CFPEXC::Is_Flag_Set Pages: 1 -->
<svg width="501pt" height="157pt"
 viewBox="0.00 0.00 501.00 156.50" xmlns="http://www.w3.org/2000/svg" xmlns:xlink="http://www.w3.org/1999/xlink">
<g id="graph0" class="graph" transform="scale(1 1) rotate(0) translate(4 152.5)">
<title>zero_mate::coprocessor::cp10::CFPEXC::Is_Flag_Set</title>
<!-- Node1 -->
<g id="Node000001" class="node">
<title>Node1</title>
<g id="a_Node000001"><a xlink:title="Checks whether a given flag is set or not.">
<polygon fill="#999999" stroke="#666666" points="493,-57 342,-57 342,-27 493,-27 493,-57"/>
<text text-anchor="start" x="350" y="-45" font-family="Helvetica,sans-Serif" font-size="10.00">zero_mate::coprocessor</text>
<text text-anchor="middle" x="417.5" y="-34" font-family="Helvetica,sans-Serif" font-size="10.00">::cp10::CFPEXC::Is_Flag_Set</text>
</a>
</g>
</g>
<!-- Node2 -->
<g id="Node000002" class="node">
<title>Node2</title>
<g id="a_Node000002"><a xlink:href="classzero__mate_1_1coprocessor_1_1cp10_1_1CCP10.html#a42519c95eeada09e8b8f277f899f9185" target="_top" xlink:title="Checks whether the coprocessor is enabled or not.">
<polygon fill="white" stroke="#666666" points="304,-89.5 171,-89.5 171,-48.5 304,-48.5 304,-89.5"/>
<text text-anchor="start" x="179" y="-77.5" font-family="Helvetica,sans-Serif" font-size="10.00">zero_mate::coprocessor</text>
<text text-anchor="start" x="179" y="-66.5" font-family="Helvetica,sans-Serif" font-size="10.00">::cp10::CCP10::Is_FPU</text>
<text text-anchor="middle" x="237.5" y="-55.5" font-family="Helvetica,sans-Serif" font-size="10.00">_Enabled</text>
</a>
</g>
</g>
<!-- Node1&#45;&gt;Node2 -->
<g id="edge1_Node000001_Node000002" class="edge">
<title>Node1&#45;&gt;Node2</title>
<g id="a_edge1_Node000001_Node000002"><a xlink:title=" ">
<path fill="none" stroke="#63b8ff" d="M331.79,-54.85C322.54,-56.25 313.23,-57.66 304.26,-59.03"/>
<polygon fill="#63b8ff" stroke="#63b8ff" points="332.42,-58.29 341.79,-53.33 331.37,-51.37 332.42,-58.29"/>
</a>
</g>
</g>
<!-- Node5 -->
<g id="Node000005" class="node">
<title>Node5</title>
<g id="a_Node000005"><a xlink:href="classzero__mate_1_1gui_1_1CCP10__Window.html#a1a8979a63d198fe229266cfc6cd7e93f" target="_top" xlink:title="Renders the flags in the FPEXC register.">
<polygon fill="white" stroke="#666666" points="306,-30 169,-30 169,0 306,0 306,-30"/>
<text text-anchor="start" x="177" y="-18" font-family="Helvetica,sans-Serif" font-size="10.00">zero_mate::gui::CCP10</text>
<text text-anchor="middle" x="237.5" y="-7" font-family="Helvetica,sans-Serif" font-size="10.00">_Window::Render_FPEXC</text>
</a>
</g>
</g>
<!-- Node1&#45;&gt;Node5 -->
<g id="edge4_Node000001_Node000005" class="edge">
<title>Node1&#45;&gt;Node5</title>
<g id="a_edge4_Node000001_Node000005"><a xlink:title=" ">
<path fill="none" stroke="#63b8ff" d="M331.77,-29.15C323.2,-27.85 314.58,-26.54 306.22,-25.27"/>
<polygon fill="#63b8ff" stroke="#63b8ff" points="331.37,-32.63 341.79,-30.67 332.42,-25.71 331.37,-32.63"/>
</a>
</g>
</g>
<!-- Node3 -->
<g id="Node000003" class="node">
<title>Node3</title>
<g id="a_Node000003"><a xlink:href="classzero__mate_1_1coprocessor_1_1cp10_1_1CCP10.html#ad976e02e1423e39d963927ffc922f653" target="_top" xlink:title="Performs a coprocessor data operation instruction (ICoprocessor interface).">
<polygon fill="white" stroke="#666666" points="133,-148.5 0,-148.5 0,-107.5 133,-107.5 133,-148.5"/>
<text text-anchor="start" x="8" y="-136.5" font-family="Helvetica,sans-Serif" font-size="10.00">zero_mate::coprocessor</text>
<text text-anchor="start" x="8" y="-125.5" font-family="Helvetica,sans-Serif" font-size="10.00">::cp10::CCP10::Perform</text>
<text text-anchor="middle" x="66.5" y="-114.5" font-family="Helvetica,sans-Serif" font-size="10.00">_Data_Operation</text>
</a>
</g>
</g>
<!-- Node2&#45;&gt;Node3 -->
<g id="edge2_Node000002_Node000003" class="edge">
<title>Node2&#45;&gt;Node3</title>
<g id="a_edge2_Node000002_Node000003"><a xlink:title=" ">
<path fill="none" stroke="#63b8ff" d="M167.94,-92.93C154.13,-97.76 139.73,-102.78 126.29,-107.48"/>
<polygon fill="#63b8ff" stroke="#63b8ff" points="169.1,-96.24 177.39,-89.64 166.8,-89.63 169.1,-96.24"/>
</a>
</g>
</g>
<!-- Node4 -->
<g id="Node000004" class="node">
<title>Node4</title>
<g id="a_Node000004"><a xlink:href="classzero__mate_1_1coprocessor_1_1cp10_1_1CCP10.html#a334d07e718be5e14129a54f28bbf84b2" target="_top" xlink:title="Performs a coprocessor data transfer instruction (ICoprocessor interface).">
<polygon fill="white" stroke="#666666" points="133,-89.5 0,-89.5 0,-48.5 133,-48.5 133,-89.5"/>
<text text-anchor="start" x="8" y="-77.5" font-family="Helvetica,sans-Serif" font-size="10.00">zero_mate::coprocessor</text>
<text text-anchor="start" x="8" y="-66.5" font-family="Helvetica,sans-Serif" font-size="10.00">::cp10::CCP10::Perform</text>
<text text-anchor="middle" x="66.5" y="-55.5" font-family="Helvetica,sans-Serif" font-size="10.00">_Data_Transfer</text>
</a>
</g>
</g>
<!-- Node2&#45;&gt;Node4 -->
<g id="edge3_Node000002_Node000004" class="edge">
<title>Node2&#45;&gt;Node4</title>
<g id="a_edge3_Node000002_Node000004"><a xlink:title=" ">
<path fill="none" stroke="#63b8ff" d="M160.46,-69C151.35,-69 142.1,-69 133.14,-69"/>
<polygon fill="#63b8ff" stroke="#63b8ff" points="160.68,-72.5 170.68,-69 160.68,-65.5 160.68,-72.5"/>
</a>
</g>
</g>
<!-- Node6 -->
<g id="Node000006" class="node">
<title>Node6</title>
<g id="a_Node000006"><a xlink:href="classzero__mate_1_1gui_1_1CCP10__Window.html#a6d34cb82a44d4329c61c0e40028c6a54" target="_top" xlink:title="Renders the window (IGUI_Window interface).">
<polygon fill="white" stroke="#666666" points="130,-30 3,-30 3,0 130,0 130,-30"/>
<text text-anchor="start" x="11" y="-18" font-family="Helvetica,sans-Serif" font-size="10.00">zero_mate::gui::CCP10</text>
<text text-anchor="middle" x="66.5" y="-7" font-family="Helvetica,sans-Serif" font-size="10.00">_Window::Render</text>
</a>
</g>
</g>
<!-- Node5&#45;&gt;Node6 -->
<g id="edge5_Node000005_Node000006" class="edge">
<title>Node5&#45;&gt;Node6</title>
<g id="a_edge5_Node000005_Node000006"><a xlink:title=" ">
<path fill="none" stroke="#63b8ff" d="M158.47,-15C148.96,-15 139.33,-15 130.08,-15"/>
<polygon fill="#63b8ff" stroke="#63b8ff" points="158.74,-18.5 168.74,-15 158.73,-11.5 158.74,-18.5"/>
</a>
</g>
</g>
</g>
</svg>
