<?xml version="1.0" encoding="UTF-8" standalone="no"?>
<!DOCTYPE svg PUBLIC "-//W3C//DTD SVG 1.1//EN"
 "http://www.w3.org/Graphics/SVG/1.1/DTD/svg11.dtd">
<!-- Generated by graphviz version 2.43.0 (0)
 -->
<!-- Title: zero_mate::coprocessor::cp15::CC2::Get_TTB_Address Pages: 1 -->
<svg width="567pt" height="49pt"
 viewBox="0.00 0.00 567.00 49.00" xmlns="http://www.w3.org/2000/svg" xmlns:xlink="http://www.w3.org/1999/xlink">
<g id="graph0" class="graph" transform="scale(1 1) rotate(0) translate(4 45)">
<title>zero_mate::coprocessor::cp15::CC2::Get_TTB_Address</title>
<!-- Node1 -->
<g id="Node000001" class="node">
<title>Node1</title>
<g id="a_Node000001"><a xlink:title="Returns the physical address of a given page table.">
<polygon fill="#999999" stroke="#666666" points="559,-35.5 396,-35.5 396,-5.5 559,-5.5 559,-35.5"/>
<text text-anchor="start" x="404" y="-23.5" font-family="Helvetica,sans-Serif" font-size="10.00">zero_mate::coprocessor</text>
<text text-anchor="middle" x="477.5" y="-12.5" font-family="Helvetica,sans-Serif" font-size="10.00">::cp15::CC2::Get_TTB_Address</text>
</a>
</g>
</g>
<!-- Node2 -->
<g id="Node000002" class="node">
<title>Node2</title>
<g id="a_Node000002"><a xlink:href="classzero__mate_1_1arm1176jzf__s_1_1mmu_1_1CMMU.html#a2af0846c0e594495eeeb2ec51717dfa7" target="_top" xlink:title="Fetches the first level page tables (tbbr0, tbbr1) from the RAM.">
<polygon fill="white" stroke="#666666" points="360,-41 230,-41 230,0 360,0 360,-41"/>
<text text-anchor="start" x="238" y="-29" font-family="Helvetica,sans-Serif" font-size="10.00">zero_mate::arm1176jzf</text>
<text text-anchor="start" x="238" y="-18" font-family="Helvetica,sans-Serif" font-size="10.00">_s::mmu::CMMU::Fetch</text>
<text text-anchor="middle" x="295" y="-7" font-family="Helvetica,sans-Serif" font-size="10.00">_DL1_From_RAM</text>
</a>
</g>
</g>
<!-- Node1&#45;&gt;Node2 -->
<g id="edge1_Node000001_Node000002" class="edge">
<title>Node1&#45;&gt;Node2</title>
<g id="a_edge1_Node000001_Node000002"><a xlink:title=" ">
<path fill="none" stroke="#63b8ff" d="M385.66,-20.5C377.05,-20.5 368.45,-20.5 360.16,-20.5"/>
<polygon fill="#63b8ff" stroke="#63b8ff" points="385.75,-24 395.75,-20.5 385.75,-17 385.75,-24"/>
</a>
</g>
</g>
<!-- Node3 -->
<g id="Node000003" class="node">
<title>Node3</title>
<g id="a_Node000003"><a xlink:href="classzero__mate_1_1arm1176jzf__s_1_1mmu_1_1CMMU.html#a7bc1002a8f1032547deee07589cbbb84" target="_top" xlink:title="Converts a given virtual address into a physical address.">
<polygon fill="white" stroke="#666666" points="194,-35.5 0,-35.5 0,-5.5 194,-5.5 194,-35.5"/>
<text text-anchor="start" x="8" y="-23.5" font-family="Helvetica,sans-Serif" font-size="10.00">zero_mate::arm1176jzf</text>
<text text-anchor="middle" x="97" y="-12.5" font-family="Helvetica,sans-Serif" font-size="10.00">_s::mmu::CMMU::Get_Physical_Addr</text>
</a>
</g>
</g>
<!-- Node2&#45;&gt;Node3 -->
<g id="edge2_Node000002_Node000003" class="edge">
<title>Node2&#45;&gt;Node3</title>
<g id="a_edge2_Node000002_Node000003"><a xlink:title=" ">
<path fill="none" stroke="#63b8ff" d="M219.79,-20.5C211.45,-20.5 202.87,-20.5 194.3,-20.5"/>
<polygon fill="#63b8ff" stroke="#63b8ff" points="219.82,-24 229.82,-20.5 219.82,-17 219.82,-24"/>
</a>
</g>
</g>
</g>
</svg>
