<?xml version="1.0" encoding="UTF-8" standalone="no"?>
<!DOCTYPE svg PUBLIC "-//W3C//DTD SVG 1.1//EN"
 "http://www.w3.org/Graphics/SVG/1.1/DTD/svg11.dtd">
<!-- Generated by graphviz version 2.43.0 (0)
 -->
<!-- Title: zero_mate::arm1176jzf_s::CCPU_Context::Init_Registers Pages: 1 -->
<svg width="330pt" height="383pt"
 viewBox="0.00 0.00 330.00 383.00" xmlns="http://www.w3.org/2000/svg" xmlns:xlink="http://www.w3.org/1999/xlink">
<g id="graph0" class="graph" transform="scale(1 1) rotate(0) translate(4 379)">
<title>zero_mate::arm1176jzf_s::CCPU_Context::Init_Registers</title>
<!-- Node1 -->
<g id="Node000001" class="node">
<title>Node1</title>
<g id="a_Node000001"><a xlink:title="Initializes (resets) all CPU registers.">
<polygon fill="#999999" stroke="#666666" points="130,-208 0,-208 0,-167 130,-167 130,-208"/>
<text text-anchor="start" x="8" y="-196" font-family="Helvetica,sans-Serif" font-size="10.00">zero_mate::arm1176jzf</text>
<text text-anchor="start" x="8" y="-185" font-family="Helvetica,sans-Serif" font-size="10.00">_s::CCPU_Context::Init</text>
<text text-anchor="middle" x="65" y="-174" font-family="Helvetica,sans-Serif" font-size="10.00">_Registers</text>
</a>
</g>
</g>
<!-- Node2 -->
<g id="Node000002" class="node">
<title>Node2</title>
<g id="a_Node000002"><a xlink:href="classzero__mate_1_1arm1176jzf__s_1_1CCPU__Context.html#aacfb4cc6e44ca967a9e258ba583f588b" target="_top" xlink:title="Resets the banked registers of the Abort mode to 0.">
<polygon fill="white" stroke="#666666" points="309,-375 179,-375 179,-334 309,-334 309,-375"/>
<text text-anchor="start" x="187" y="-363" font-family="Helvetica,sans-Serif" font-size="10.00">zero_mate::arm1176jzf</text>
<text text-anchor="start" x="187" y="-352" font-family="Helvetica,sans-Serif" font-size="10.00">_s::CCPU_Context::Init</text>
<text text-anchor="middle" x="244" y="-341" font-family="Helvetica,sans-Serif" font-size="10.00">_Abort_Banked_Regs</text>
</a>
</g>
</g>
<!-- Node1&#45;&gt;Node2 -->
<g id="edge1_Node000001_Node000002" class="edge">
<title>Node1&#45;&gt;Node2</title>
<g id="a_edge1_Node000001_Node000002"><a xlink:title=" ">
<path fill="none" stroke="#63b8ff" d="M76.1,-208.01C91.62,-237.58 123.99,-292.17 166,-324.5 167.85,-325.92 169.77,-327.28 171.75,-328.59"/>
<polygon fill="#63b8ff" stroke="#63b8ff" points="170.38,-331.84 180.77,-333.94 173.96,-325.83 170.38,-331.84"/>
</a>
</g>
</g>
<!-- Node3 -->
<g id="Node000003" class="node">
<title>Node3</title>
<g id="a_Node000003"><a xlink:href="classzero__mate_1_1arm1176jzf__s_1_1CCPU__Context.html#a68f089f1b45e6f22295a7339eeeade33" target="_top" xlink:title="Resets the CPSR register in all CPU modes.">
<polygon fill="white" stroke="#666666" points="322,-315.5 166,-315.5 166,-285.5 322,-285.5 322,-315.5"/>
<text text-anchor="start" x="174" y="-303.5" font-family="Helvetica,sans-Serif" font-size="10.00">zero_mate::arm1176jzf</text>
<text text-anchor="middle" x="244" y="-292.5" font-family="Helvetica,sans-Serif" font-size="10.00">_s::CCPU_Context::Init_CPSR</text>
</a>
</g>
</g>
<!-- Node1&#45;&gt;Node3 -->
<g id="edge2_Node000001_Node000003" class="edge">
<title>Node1&#45;&gt;Node3</title>
<g id="a_edge2_Node000001_Node000003"><a xlink:title=" ">
<path fill="none" stroke="#63b8ff" d="M84.34,-208.31C103.05,-228.38 133.83,-258.31 166,-276.5 169.08,-278.24 172.3,-279.87 175.61,-281.4"/>
<polygon fill="#63b8ff" stroke="#63b8ff" points="174.52,-284.74 185.1,-285.43 177.26,-278.3 174.52,-284.74"/>
</a>
</g>
</g>
<!-- Node4 -->
<g id="Node000004" class="node">
<title>Node4</title>
<g id="a_Node000004"><a xlink:href="classzero__mate_1_1arm1176jzf__s_1_1CCPU__Context.html#a651a92dac2106063a9988c63fb80fcdd" target="_top" xlink:title="Resets the banked registers of the FIQ mode to 0.">
<polygon fill="white" stroke="#666666" points="309,-267 179,-267 179,-226 309,-226 309,-267"/>
<text text-anchor="start" x="187" y="-255" font-family="Helvetica,sans-Serif" font-size="10.00">zero_mate::arm1176jzf</text>
<text text-anchor="start" x="187" y="-244" font-family="Helvetica,sans-Serif" font-size="10.00">_s::CCPU_Context::Init</text>
<text text-anchor="middle" x="244" y="-233" font-family="Helvetica,sans-Serif" font-size="10.00">_FIQ_Banked_Regs</text>
</a>
</g>
</g>
<!-- Node1&#45;&gt;Node4 -->
<g id="edge3_Node000001_Node000004" class="edge">
<title>Node1&#45;&gt;Node4</title>
<g id="a_edge3_Node000001_Node000004"><a xlink:title=" ">
<path fill="none" stroke="#63b8ff" d="M127.91,-208.14C142,-212.83 157.09,-217.86 171.54,-222.68"/>
<polygon fill="#63b8ff" stroke="#63b8ff" points="170.83,-226.13 181.43,-225.98 173.05,-219.49 170.83,-226.13"/>
</a>
</g>
</g>
<!-- Node5 -->
<g id="Node000005" class="node">
<title>Node5</title>
<g id="a_Node000005"><a xlink:href="classzero__mate_1_1arm1176jzf__s_1_1CCPU__Context.html#a38524842c1e4f158af18c1e2cafd14ed" target="_top" xlink:title="Resets the banked registers of the IRQ mode to 0.">
<polygon fill="white" stroke="#666666" points="309,-208 179,-208 179,-167 309,-167 309,-208"/>
<text text-anchor="start" x="187" y="-196" font-family="Helvetica,sans-Serif" font-size="10.00">zero_mate::arm1176jzf</text>
<text text-anchor="start" x="187" y="-185" font-family="Helvetica,sans-Serif" font-size="10.00">_s::CCPU_Context::Init</text>
<text text-anchor="middle" x="244" y="-174" font-family="Helvetica,sans-Serif" font-size="10.00">_IRQ_Banked_Regs</text>
</a>
</g>
</g>
<!-- Node1&#45;&gt;Node5 -->
<g id="edge4_Node000001_Node000005" class="edge">
<title>Node1&#45;&gt;Node5</title>
<g id="a_edge4_Node000001_Node000005"><a xlink:title=" ">
<path fill="none" stroke="#63b8ff" d="M130.15,-187.5C142.64,-187.5 155.83,-187.5 168.62,-187.5"/>
<polygon fill="#63b8ff" stroke="#63b8ff" points="168.77,-191 178.77,-187.5 168.77,-184 168.77,-191"/>
</a>
</g>
</g>
<!-- Node6 -->
<g id="Node000006" class="node">
<title>Node6</title>
<g id="a_Node000006"><a xlink:href="classzero__mate_1_1arm1176jzf__s_1_1CCPU__Context.html#af24fe774c931e6fe4c0abe70956463de" target="_top" xlink:title="Resets all SPSR registers (in all CPU modes) to 0.">
<polygon fill="white" stroke="#666666" points="321.5,-148.5 166.5,-148.5 166.5,-118.5 321.5,-118.5 321.5,-148.5"/>
<text text-anchor="start" x="174.5" y="-136.5" font-family="Helvetica,sans-Serif" font-size="10.00">zero_mate::arm1176jzf</text>
<text text-anchor="middle" x="244" y="-125.5" font-family="Helvetica,sans-Serif" font-size="10.00">_s::CCPU_Context::Init_SPSR</text>
</a>
</g>
</g>
<!-- Node1&#45;&gt;Node6 -->
<g id="edge5_Node000001_Node000006" class="edge">
<title>Node1&#45;&gt;Node6</title>
<g id="a_edge5_Node000001_Node000006"><a xlink:title=" ">
<path fill="none" stroke="#63b8ff" d="M130.15,-167.93C147.68,-162.58 166.6,-156.81 183.84,-151.55"/>
<polygon fill="#63b8ff" stroke="#63b8ff" points="185.23,-154.78 193.77,-148.52 183.19,-148.09 185.23,-154.78"/>
</a>
</g>
</g>
<!-- Node7 -->
<g id="Node000007" class="node">
<title>Node7</title>
<g id="a_Node000007"><a xlink:href="classzero__mate_1_1arm1176jzf__s_1_1CCPU__Context.html#a945204938f4a5e92be738c48711218c2" target="_top" xlink:title="Resets the banked registers of the Supervisor mode to 0.">
<polygon fill="white" stroke="#666666" points="316,-100 172,-100 172,-59 316,-59 316,-100"/>
<text text-anchor="start" x="180" y="-88" font-family="Helvetica,sans-Serif" font-size="10.00">zero_mate::arm1176jzf</text>
<text text-anchor="start" x="180" y="-77" font-family="Helvetica,sans-Serif" font-size="10.00">_s::CCPU_Context::Init</text>
<text text-anchor="middle" x="244" y="-66" font-family="Helvetica,sans-Serif" font-size="10.00">_Supervisor_Banked_Regs</text>
</a>
</g>
</g>
<!-- Node1&#45;&gt;Node7 -->
<g id="edge6_Node000001_Node000007" class="edge">
<title>Node1&#45;&gt;Node7</title>
<g id="a_edge6_Node000001_Node000007"><a xlink:title=" ">
<path fill="none" stroke="#63b8ff" d="M88.47,-166.85C107.89,-149.8 137.29,-125.82 166,-109.5 169.02,-107.78 172.16,-106.12 175.37,-104.52"/>
<polygon fill="#63b8ff" stroke="#63b8ff" points="177.01,-107.61 184.55,-100.17 174.02,-101.29 177.01,-107.61"/>
</a>
</g>
</g>
<!-- Node8 -->
<g id="Node000008" class="node">
<title>Node8</title>
<g id="a_Node000008"><a xlink:href="classzero__mate_1_1arm1176jzf__s_1_1CCPU__Context.html#a6eb0ee94a81e166d7b02a78f45b4d028" target="_top" xlink:title="Resets the banked registers of the Undefined mode to 0.">
<polygon fill="white" stroke="#666666" points="315,-41 173,-41 173,0 315,0 315,-41"/>
<text text-anchor="start" x="181" y="-29" font-family="Helvetica,sans-Serif" font-size="10.00">zero_mate::arm1176jzf</text>
<text text-anchor="start" x="181" y="-18" font-family="Helvetica,sans-Serif" font-size="10.00">_s::CCPU_Context::Init</text>
<text text-anchor="middle" x="244" y="-7" font-family="Helvetica,sans-Serif" font-size="10.00">_Undefined_Banked_Regs</text>
</a>
</g>
</g>
<!-- Node1&#45;&gt;Node8 -->
<g id="edge7_Node000001_Node000008" class="edge">
<title>Node1&#45;&gt;Node8</title>
<g id="a_edge7_Node000001_Node000008"><a xlink:title=" ">
<path fill="none" stroke="#63b8ff" d="M76.1,-166.99C91.62,-137.42 123.99,-82.83 166,-50.5 167.85,-49.08 169.77,-47.72 171.75,-46.41"/>
<polygon fill="#63b8ff" stroke="#63b8ff" points="173.96,-49.17 180.77,-41.06 170.38,-43.16 173.96,-49.17"/>
</a>
</g>
</g>
</g>
</svg>
