<?xml version="1.0" encoding="UTF-8" standalone="no"?>
<!DOCTYPE svg PUBLIC "-//W3C//DTD SVG 1.1//EN"
 "http://www.w3.org/Graphics/SVG/1.1/DTD/svg11.dtd">
<!-- Generated by graphviz version 2.43.0 (0)
 -->
<!-- Title: zero_mate::arm1176jzf_s::mmu::CMMU::Verify_Access_Privileges Pages: 1 -->
<svg width="473pt" height="167pt"
 viewBox="0.00 0.00 473.00 167.00" xmlns="http://www.w3.org/2000/svg" xmlns:xlink="http://www.w3.org/1999/xlink">
<g id="graph0" class="graph" transform="scale(1 1) rotate(0) translate(4 163)">
<title>zero_mate::arm1176jzf_s::mmu::CMMU::Verify_Access_Privileges</title>
<!-- Node1 -->
<g id="Node000001" class="node">
<title>Node1</title>
<g id="a_Node000001"><a xlink:title="Verifies access privileges when accessing a page (virtual address).">
<polygon fill="#999999" stroke="#666666" points="131,-100 0,-100 0,-59 131,-59 131,-100"/>
<text text-anchor="start" x="8" y="-88" font-family="Helvetica,sans-Serif" font-size="10.00">zero_mate::arm1176jzf</text>
<text text-anchor="start" x="8" y="-77" font-family="Helvetica,sans-Serif" font-size="10.00">_s::mmu::CMMU::Verify</text>
<text text-anchor="middle" x="65.5" y="-66" font-family="Helvetica,sans-Serif" font-size="10.00">_Access_Privileges</text>
</a>
</g>
</g>
<!-- Node2 -->
<g id="Node000002" class="node">
<title>Node2</title>
<g id="a_Node000002"><a xlink:href="classzero__mate_1_1arm1176jzf__s_1_1mmu_1_1CPage__Entry.html#a005e8820c6fa2cdcaa49471491760fa8" target="_top" xlink:title="Returns page access privileges.">
<polygon fill="white" stroke="#666666" points="299,-159 167,-159 167,-118 299,-118 299,-159"/>
<text text-anchor="start" x="175" y="-147" font-family="Helvetica,sans-Serif" font-size="10.00">zero_mate::arm1176jzf</text>
<text text-anchor="start" x="175" y="-136" font-family="Helvetica,sans-Serif" font-size="10.00">_s::mmu::CPage_Entry</text>
<text text-anchor="middle" x="233" y="-125" font-family="Helvetica,sans-Serif" font-size="10.00">::Get_Access_Privileges</text>
</a>
</g>
</g>
<!-- Node1&#45;&gt;Node2 -->
<g id="edge1_Node000001_Node000002" class="edge">
<title>Node1&#45;&gt;Node2</title>
<g id="a_edge1_Node000001_Node000002"><a xlink:title=" ">
<path fill="none" stroke="#63b8ff" d="M124.38,-100.14C137.44,-104.79 151.4,-109.77 164.79,-114.54"/>
<polygon fill="#63b8ff" stroke="#63b8ff" points="163.83,-117.91 174.43,-117.98 166.18,-111.32 163.83,-117.91"/>
</a>
</g>
</g>
<!-- Node3 -->
<g id="Node000003" class="node">
<title>Node3</title>
<g id="a_Node000003"><a xlink:href="classzero__mate_1_1arm1176jzf__s_1_1mmu_1_1CPage__Entry.html#a3c5fdd9febd92dc1fb1a41d2f936abc3" target="_top" xlink:title="Returns privileged mode page access restrictions (R/RW).">
<polygon fill="white" stroke="#666666" points="298,-100 168,-100 168,-59 298,-59 298,-100"/>
<text text-anchor="start" x="176" y="-88" font-family="Helvetica,sans-Serif" font-size="10.00">zero_mate::arm1176jzf</text>
<text text-anchor="start" x="176" y="-77" font-family="Helvetica,sans-Serif" font-size="10.00">_s::mmu::CPage_Entry</text>
<text text-anchor="middle" x="233" y="-66" font-family="Helvetica,sans-Serif" font-size="10.00">::Get_NAPX</text>
</a>
</g>
</g>
<!-- Node1&#45;&gt;Node3 -->
<g id="edge2_Node000001_Node000003" class="edge">
<title>Node1&#45;&gt;Node3</title>
<g id="a_edge2_Node000001_Node000003"><a xlink:title=" ">
<path fill="none" stroke="#63b8ff" d="M131.43,-79.5C140.03,-79.5 148.89,-79.5 157.62,-79.5"/>
<polygon fill="#63b8ff" stroke="#63b8ff" points="157.8,-83 167.8,-79.5 157.79,-76 157.8,-83"/>
</a>
</g>
</g>
<!-- Node4 -->
<g id="Node000004" class="node">
<title>Node4</title>
<g id="a_Node000004"><a xlink:href="classzero__mate_1_1arm1176jzf__s_1_1CCPU__Context.html#a573470217091c27cf30f1411ea453e5d" target="_top" xlink:title="Checks if the CPU is in a privileged mode.">
<polygon fill="white" stroke="#666666" points="298,-41 168,-41 168,0 298,0 298,-41"/>
<text text-anchor="start" x="176" y="-29" font-family="Helvetica,sans-Serif" font-size="10.00">zero_mate::arm1176jzf</text>
<text text-anchor="start" x="176" y="-18" font-family="Helvetica,sans-Serif" font-size="10.00">_s::CCPU_Context::Is</text>
<text text-anchor="middle" x="233" y="-7" font-family="Helvetica,sans-Serif" font-size="10.00">_In_Privileged_Mode</text>
</a>
</g>
</g>
<!-- Node1&#45;&gt;Node4 -->
<g id="edge3_Node000001_Node000004" class="edge">
<title>Node1&#45;&gt;Node4</title>
<g id="a_edge3_Node000001_Node000004"><a xlink:title=" ">
<path fill="none" stroke="#63b8ff" d="M124.38,-58.86C137.44,-54.21 151.4,-49.23 164.79,-44.46"/>
<polygon fill="#63b8ff" stroke="#63b8ff" points="166.18,-47.68 174.43,-41.02 163.83,-41.09 166.18,-47.68"/>
</a>
</g>
</g>
<!-- Node5 -->
<g id="Node000005" class="node">
<title>Node5</title>
<g id="a_Node000005"><a xlink:href="classzero__mate_1_1arm1176jzf__s_1_1CCPU__Context.html#aa740f9219bb413d707ac72f373e60d3a" target="_top" xlink:title="Returns the current mode of the CPU.">
<polygon fill="white" stroke="#666666" points="465,-41 335,-41 335,0 465,0 465,-41"/>
<text text-anchor="start" x="343" y="-29" font-family="Helvetica,sans-Serif" font-size="10.00">zero_mate::arm1176jzf</text>
<text text-anchor="start" x="343" y="-18" font-family="Helvetica,sans-Serif" font-size="10.00">_s::CCPU_Context::Get</text>
<text text-anchor="middle" x="400" y="-7" font-family="Helvetica,sans-Serif" font-size="10.00">_CPU_Mode</text>
</a>
</g>
</g>
<!-- Node4&#45;&gt;Node5 -->
<g id="edge4_Node000004_Node000005" class="edge">
<title>Node4&#45;&gt;Node5</title>
<g id="a_edge4_Node000004_Node000005"><a xlink:title=" ">
<path fill="none" stroke="#63b8ff" d="M298.27,-20.5C306.92,-20.5 315.85,-20.5 324.65,-20.5"/>
<polygon fill="#63b8ff" stroke="#63b8ff" points="324.91,-24 334.91,-20.5 324.91,-17 324.91,-24"/>
</a>
</g>
</g>
</g>
</svg>
