<?xml version="1.0" encoding="UTF-8" standalone="no"?>
<!DOCTYPE svg PUBLIC "-//W3C//DTD SVG 1.1//EN"
 "http://www.w3.org/Graphics/SVG/1.1/DTD/svg11.dtd">
<!-- Generated by graphviz version 2.43.0 (0)
 -->
<!-- Title: zero_mate::gui::CLog_Window Pages: 1 -->
<svg width="280pt" height="104pt"
 viewBox="0.00 0.00 279.50 104.00" xmlns="http://www.w3.org/2000/svg" xmlns:xlink="http://www.w3.org/1999/xlink">
<g id="graph0" class="graph" transform="scale(1 1) rotate(0) translate(4 100)">
<title>zero_mate::gui::CLog_Window</title>
<!-- Node1 -->
<g id="Node000001" class="node">
<title>Node1</title>
<g id="a_Node000001"><a xlink:title="This class represents a window that displays log messages.">
<polygon fill="#999999" stroke="#666666" points="200,-30 81,-30 81,0 200,0 200,-30"/>
<text text-anchor="start" x="89" y="-18" font-family="Helvetica,sans-Serif" font-size="10.00">zero_mate::gui::CLog</text>
<text text-anchor="middle" x="140.5" y="-7" font-family="Helvetica,sans-Serif" font-size="10.00">_Window</text>
</a>
</g>
</g>
<!-- Node2 -->
<g id="Node000002" class="node">
<title>Node2</title>
<g id="a_Node000002"><a xlink:href="classzero__mate_1_1utils_1_1ILogger.html" target="_top" xlink:title="This class represents a logging_system interface.">
<polygon fill="white" stroke="#666666" points="137,-90.5 0,-90.5 0,-71.5 137,-71.5 137,-90.5"/>
<text text-anchor="middle" x="68.5" y="-78.5" font-family="Helvetica,sans-Serif" font-size="10.00">zero_mate::utils::ILogger</text>
</a>
</g>
</g>
<!-- Node2&#45;&gt;Node1 -->
<g id="edge1_Node000001_Node000002" class="edge">
<title>Node2&#45;&gt;Node1</title>
<g id="a_edge1_Node000001_Node000002"><a xlink:title=" ">
<path fill="none" stroke="#63b8ff" d="M85.7,-64.71C97.52,-54.21 113.09,-40.36 124.62,-30.12"/>
<polygon fill="#63b8ff" stroke="#63b8ff" points="83.36,-62.11 78.21,-71.37 88.01,-67.34 83.36,-62.11"/>
</a>
</g>
</g>
<!-- Node3 -->
<g id="Node000003" class="node">
<title>Node3</title>
<g id="a_Node000003"><a xlink:href="classzero__mate_1_1gui_1_1IGUI__Window.html" target="_top" xlink:title="Common interface for all GUI windows.">
<polygon fill="white" stroke="#666666" points="271.5,-96 155.5,-96 155.5,-66 271.5,-66 271.5,-96"/>
<text text-anchor="start" x="163.5" y="-84" font-family="Helvetica,sans-Serif" font-size="10.00">zero_mate::gui::IGUI</text>
<text text-anchor="middle" x="213.5" y="-73" font-family="Helvetica,sans-Serif" font-size="10.00">_Window</text>
</a>
</g>
</g>
<!-- Node3&#45;&gt;Node1 -->
<g id="edge2_Node000001_Node000003" class="edge">
<title>Node3&#45;&gt;Node1</title>
<g id="a_edge2_Node000001_Node000003"><a xlink:title=" ">
<path fill="none" stroke="#63b8ff" d="M189.78,-59.2C178.94,-49.7 166.38,-38.69 156.66,-30.16"/>
<polygon fill="#63b8ff" stroke="#63b8ff" points="187.47,-61.84 197.3,-65.8 192.09,-56.57 187.47,-61.84"/>
</a>
</g>
</g>
</g>
</svg>
