<?xml version="1.0" encoding="UTF-8" standalone="no"?>
<!DOCTYPE svg PUBLIC "-//W3C//DTD SVG 1.1//EN"
 "http://www.w3.org/Graphics/SVG/1.1/DTD/svg11.dtd">
<!-- Generated by graphviz version 2.43.0 (0)
 -->
<!-- Title: zero_mate::gui::CTop_Bar_Menu::Load_ELF_Files Pages: 1 -->
<svg width="905pt" height="209pt"
 viewBox="0.00 0.00 905.00 209.00" xmlns="http://www.w3.org/2000/svg" xmlns:xlink="http://www.w3.org/1999/xlink">
<g id="graph0" class="graph" transform="scale(1 1) rotate(0) translate(4 205)">
<title>zero_mate::gui::CTop_Bar_Menu::Load_ELF_Files</title>
<!-- Node1 -->
<g id="Node000001" class="node">
<title>Node1</title>
<g id="a_Node000001"><a xlink:title="Loads ELF files selected by the user using the file browser.">
<polygon fill="#999999" stroke="#666666" points="150,-102 0,-102 0,-72 150,-72 150,-102"/>
<text text-anchor="start" x="8" y="-90" font-family="Helvetica,sans-Serif" font-size="10.00">zero_mate::gui::CTop</text>
<text text-anchor="middle" x="75" y="-79" font-family="Helvetica,sans-Serif" font-size="10.00">_Bar_Menu::Load_ELF_Files</text>
</a>
</g>
</g>
<!-- Node2 -->
<g id="Node000002" class="node">
<title>Node2</title>
<g id="a_Node000002"><a xlink:href="classzero__mate_1_1gui_1_1CTop__Bar__Menu.html#af8e80293dff0c20be7ea071d50dec62c" target="_top" xlink:title="Loads a single ELF file.">
<polygon fill="white" stroke="#666666" points="331,-102 186,-102 186,-72 331,-72 331,-102"/>
<text text-anchor="start" x="194" y="-90" font-family="Helvetica,sans-Serif" font-size="10.00">zero_mate::gui::CTop</text>
<text text-anchor="middle" x="258.5" y="-79" font-family="Helvetica,sans-Serif" font-size="10.00">_Bar_Menu::Load_ELF_File</text>
</a>
</g>
</g>
<!-- Node1&#45;&gt;Node2 -->
<g id="edge1_Node000001_Node000002" class="edge">
<title>Node1&#45;&gt;Node2</title>
<g id="a_edge1_Node000001_Node000002"><a xlink:title=" ">
<path fill="none" stroke="#63b8ff" d="M150.08,-87C158.61,-87 167.34,-87 175.95,-87"/>
<polygon fill="#63b8ff" stroke="#63b8ff" points="176,-90.5 186,-87 176,-83.5 176,-90.5"/>
</a>
</g>
</g>
<!-- Node3 -->
<g id="Node000003" class="node">
<title>Node3</title>
<g id="a_Node000003"><a xlink:href="classzero__mate_1_1utils_1_1CLogging__System.html#a57ed77e1a5cf822cea532cc5e05c3f60" target="_top" xlink:title="Logs an error message via all registered loggers.">
<polygon fill="white" stroke="#666666" points="513,-174 367,-174 367,-144 513,-144 513,-174"/>
<text text-anchor="start" x="375" y="-162" font-family="Helvetica,sans-Serif" font-size="10.00">zero_mate::utils::CLogging</text>
<text text-anchor="middle" x="440" y="-151" font-family="Helvetica,sans-Serif" font-size="10.00">_System::Error</text>
</a>
</g>
</g>
<!-- Node2&#45;&gt;Node3 -->
<g id="edge2_Node000002_Node000003" class="edge">
<title>Node2&#45;&gt;Node3</title>
<g id="a_edge2_Node000002_Node000003"><a xlink:title=" ">
<path fill="none" stroke="#63b8ff" d="M291.14,-102.11C312.37,-112.01 341.09,-124.93 367,-135 371.79,-136.86 376.79,-138.71 381.83,-140.52"/>
<polygon fill="#63b8ff" stroke="#63b8ff" points="380.92,-143.91 391.51,-143.91 383.23,-137.3 380.92,-143.91"/>
</a>
</g>
</g>
<!-- Node8 -->
<g id="Node000008" class="node">
<title>Node8</title>
<g id="a_Node000008"><a xlink:href="classzero__mate_1_1gui_1_1CTop__Bar__Menu.html#a9374e039e857fa2f4d1e65f7edcd707f" target="_top" xlink:title="Returns a filename of a given filepath.">
<polygon fill="white" stroke="#666666" points="512,-78 368,-78 368,-48 512,-48 512,-78"/>
<text text-anchor="start" x="376" y="-66" font-family="Helvetica,sans-Serif" font-size="10.00">zero_mate::gui::CTop</text>
<text text-anchor="middle" x="440" y="-55" font-family="Helvetica,sans-Serif" font-size="10.00">_Bar_Menu::Get_Filename</text>
</a>
</g>
</g>
<!-- Node2&#45;&gt;Node8 -->
<g id="edge7_Node000002_Node000008" class="edge">
<title>Node2&#45;&gt;Node8</title>
<g id="a_edge7_Node000002_Node000008"><a xlink:title=" ">
<path fill="none" stroke="#63b8ff" d="M331.22,-77.41C340.01,-76.23 349.05,-75.03 357.98,-73.83"/>
<polygon fill="#63b8ff" stroke="#63b8ff" points="358.53,-77.29 367.98,-72.5 357.61,-70.35 358.53,-77.29"/>
</a>
</g>
</g>
<!-- Node9 -->
<g id="Node000009" class="node">
<title>Node9</title>
<g id="a_Node000009"><a xlink:href="classzero__mate_1_1utils_1_1CLogging__System.html#a455d99c3614dc92ffbdbdcdb6b8b8bb8" target="_top" xlink:title="Logs an info message via all registered loggers.">
<polygon fill="white" stroke="#666666" points="513,-126 367,-126 367,-96 513,-96 513,-126"/>
<text text-anchor="start" x="375" y="-114" font-family="Helvetica,sans-Serif" font-size="10.00">zero_mate::utils::CLogging</text>
<text text-anchor="middle" x="440" y="-103" font-family="Helvetica,sans-Serif" font-size="10.00">_System::Info</text>
</a>
</g>
</g>
<!-- Node2&#45;&gt;Node9 -->
<g id="edge8_Node000002_Node000009" class="edge">
<title>Node2&#45;&gt;Node9</title>
<g id="a_edge8_Node000002_Node000009"><a xlink:title=" ">
<path fill="none" stroke="#63b8ff" d="M331.22,-96.59C339.64,-97.72 348.28,-98.87 356.83,-100.01"/>
<polygon fill="#63b8ff" stroke="#63b8ff" points="356.44,-103.49 366.81,-101.35 357.36,-96.55 356.44,-103.49"/>
</a>
</g>
</g>
<!-- Node10 -->
<g id="Node000010" class="node">
<title>Node10</title>
<g id="a_Node000010"><a xlink:href="namespacezero__mate_1_1utils_1_1elf.html#a9f6c82c3b8cd3f725d004c7b9022d69a" target="_top" xlink:title="Loads a given ELF file (kernel) into the memory.">
<polygon fill="white" stroke="#666666" points="497,-30 383,-30 383,0 497,0 497,-30"/>
<text text-anchor="start" x="391" y="-18" font-family="Helvetica,sans-Serif" font-size="10.00">zero_mate::utils::elf</text>
<text text-anchor="middle" x="440" y="-7" font-family="Helvetica,sans-Serif" font-size="10.00">::Load_ELF</text>
</a>
</g>
</g>
<!-- Node2&#45;&gt;Node10 -->
<g id="edge11_Node000002_Node000010" class="edge">
<title>Node2&#45;&gt;Node10</title>
<g id="a_edge11_Node000002_Node000010"><a xlink:title=" ">
<path fill="none" stroke="#63b8ff" d="M291.14,-71.89C312.37,-61.99 341.09,-49.07 367,-39 371.79,-37.14 376.79,-35.29 381.83,-33.48"/>
<polygon fill="#63b8ff" stroke="#63b8ff" points="383.23,-36.7 391.51,-30.09 380.92,-30.09 383.23,-36.7"/>
</a>
</g>
</g>
<!-- Node4 -->
<g id="Node000004" class="node">
<title>Node4</title>
<g id="a_Node000004"><a xlink:href="classzero__mate_1_1utils_1_1CLogging__System.html#a71ed11c796553cbe8fd99773406a1060" target="_top" xlink:title="Creates a formatted message to be logged.">
<polygon fill="white" stroke="#666666" points="701,-182.5 549,-182.5 549,-141.5 701,-141.5 701,-182.5"/>
<text text-anchor="start" x="557" y="-170.5" font-family="Helvetica,sans-Serif" font-size="10.00">zero_mate::utils::CLogging</text>
<text text-anchor="start" x="557" y="-159.5" font-family="Helvetica,sans-Serif" font-size="10.00">_System::Create_Formatted</text>
<text text-anchor="middle" x="625" y="-148.5" font-family="Helvetica,sans-Serif" font-size="10.00">_Log_Msg</text>
</a>
</g>
</g>
<!-- Node3&#45;&gt;Node4 -->
<g id="edge3_Node000003_Node000004" class="edge">
<title>Node3&#45;&gt;Node4</title>
<g id="a_edge3_Node000003_Node000004"><a xlink:title=" ">
<path fill="none" stroke="#63b8ff" d="M513.06,-160.18C521.55,-160.32 530.26,-160.46 538.9,-160.6"/>
<polygon fill="#63b8ff" stroke="#63b8ff" points="538.94,-164.11 548.99,-160.77 539.05,-157.11 538.94,-164.11"/>
</a>
</g>
</g>
<!-- Node7 -->
<g id="Node000007" class="node">
<title>Node7</title>
<g id="a_Node000007"><a xlink:href="classzero__mate_1_1utils_1_1CLogging__System.html#ad371c67ef65763966ccf9291002e86f3" target="_top" xlink:title="Extract the filename from a given location within the source files.">
<polygon fill="white" stroke="#666666" points="699.5,-123 550.5,-123 550.5,-93 699.5,-93 699.5,-123"/>
<text text-anchor="start" x="558.5" y="-111" font-family="Helvetica,sans-Serif" font-size="10.00">zero_mate::utils::CLogging</text>
<text text-anchor="middle" x="625" y="-100" font-family="Helvetica,sans-Serif" font-size="10.00">_System::Extract_Filename</text>
</a>
</g>
</g>
<!-- Node3&#45;&gt;Node7 -->
<g id="edge6_Node000003_Node000007" class="edge">
<title>Node3&#45;&gt;Node7</title>
<g id="a_edge6_Node000003_Node000007"><a xlink:title=" ">
<path fill="none" stroke="#63b8ff" d="M494.92,-143.97C515.49,-138.24 539.13,-131.65 560.51,-125.69"/>
<polygon fill="#63b8ff" stroke="#63b8ff" points="561.46,-129.06 570.15,-123.01 559.58,-122.32 561.46,-129.06"/>
</a>
</g>
</g>
<!-- Node5 -->
<g id="Node000005" class="node">
<title>Node5</title>
<g id="a_Node000005"><a xlink:href="classzero__mate_1_1utils_1_1CLogging__System.html#aa70c102c805079042ffea2a6f2a5ad64" target="_top" xlink:title="Formats a given timestamp.">
<polygon fill="white" stroke="#666666" points="897,-201 737,-201 737,-171 897,-171 897,-201"/>
<text text-anchor="start" x="745" y="-189" font-family="Helvetica,sans-Serif" font-size="10.00">zero_mate::utils::CLogging</text>
<text text-anchor="middle" x="817" y="-178" font-family="Helvetica,sans-Serif" font-size="10.00">_System::Format_Timestamp</text>
</a>
</g>
</g>
<!-- Node4&#45;&gt;Node5 -->
<g id="edge4_Node000004_Node000005" class="edge">
<title>Node4&#45;&gt;Node5</title>
<g id="a_edge4_Node000004_Node000005"><a xlink:title=" ">
<path fill="none" stroke="#63b8ff" d="M701.09,-171.49C709.52,-172.55 718.16,-173.64 726.74,-174.73"/>
<polygon fill="#63b8ff" stroke="#63b8ff" points="726.41,-178.21 736.77,-175.99 727.29,-171.27 726.41,-178.21"/>
</a>
</g>
</g>
<!-- Node6 -->
<g id="Node000006" class="node">
<title>Node6</title>
<g id="a_Node000006"><a xlink:href="classzero__mate_1_1utils_1_1CLogging__System.html#ae3ca637537dde05e0b9119145c840331" target="_top" xlink:title="Returns the current timestamp that will be used in a log message.">
<polygon fill="white" stroke="#666666" points="890,-153 744,-153 744,-123 890,-123 890,-153"/>
<text text-anchor="start" x="752" y="-141" font-family="Helvetica,sans-Serif" font-size="10.00">zero_mate::utils::CLogging</text>
<text text-anchor="middle" x="817" y="-130" font-family="Helvetica,sans-Serif" font-size="10.00">_System::Get_Timestamp</text>
</a>
</g>
</g>
<!-- Node4&#45;&gt;Node6 -->
<g id="edge5_Node000004_Node000006" class="edge">
<title>Node4&#45;&gt;Node6</title>
<g id="a_edge5_Node000004_Node000006"><a xlink:title=" ">
<path fill="none" stroke="#63b8ff" d="M701.09,-152.51C711.89,-151.15 723.05,-149.74 733.98,-148.36"/>
<polygon fill="#63b8ff" stroke="#63b8ff" points="734.45,-151.83 743.93,-147.1 733.57,-144.88 734.45,-151.83"/>
</a>
</g>
</g>
<!-- Node9&#45;&gt;Node4 -->
<g id="edge9_Node000009_Node000004" class="edge">
<title>Node9&#45;&gt;Node4</title>
<g id="a_edge9_Node000009_Node000004"><a xlink:title=" ">
<path fill="none" stroke="#63b8ff" d="M494.92,-126.03C509.1,-129.98 524.74,-134.34 540.1,-138.62"/>
<polygon fill="#63b8ff" stroke="#63b8ff" points="539.55,-142.1 550.13,-141.41 541.43,-135.36 539.55,-142.1"/>
</a>
</g>
</g>
<!-- Node9&#45;&gt;Node7 -->
<g id="edge10_Node000009_Node000007" class="edge">
<title>Node9&#45;&gt;Node7</title>
<g id="a_edge10_Node000009_Node000007"><a xlink:title=" ">
<path fill="none" stroke="#63b8ff" d="M513.06,-109.82C522,-109.67 531.2,-109.52 540.29,-109.37"/>
<polygon fill="#63b8ff" stroke="#63b8ff" points="540.56,-112.87 550.5,-109.2 540.44,-105.87 540.56,-112.87"/>
</a>
</g>
</g>
</g>
</svg>
