<?xml version="1.0" encoding="UTF-8" standalone="no"?>
<!DOCTYPE svg PUBLIC "-//W3C//DTD SVG 1.1//EN"
 "http://www.w3.org/Graphics/SVG/1.1/DTD/svg11.dtd">
<!-- Generated by graphviz version 2.43.0 (0)
 -->
<!-- Title: zero_mate::peripheral::CInterrupt_Controller::CInterrupt_Controller Pages: 1 -->
<svg width="461pt" height="120pt"
 viewBox="0.00 0.00 461.00 119.50" xmlns="http://www.w3.org/2000/svg" xmlns:xlink="http://www.w3.org/1999/xlink">
<g id="graph0" class="graph" transform="scale(1 1) rotate(0) translate(4 115.5)">
<title>zero_mate::peripheral::CInterrupt_Controller::CInterrupt_Controller</title>
<!-- Node1 -->
<g id="Node000001" class="node">
<title>Node1</title>
<g id="a_Node000001"><a xlink:title="Creates an instance of the class.">
<polygon fill="#999999" stroke="#666666" points="125,-73 0,-73 0,-32 125,-32 125,-73"/>
<text text-anchor="start" x="8" y="-61" font-family="Helvetica,sans-Serif" font-size="10.00">zero_mate::peripheral</text>
<text text-anchor="start" x="8" y="-50" font-family="Helvetica,sans-Serif" font-size="10.00">::CInterrupt_Controller</text>
<text text-anchor="middle" x="62.5" y="-39" font-family="Helvetica,sans-Serif" font-size="10.00">::CInterrupt_Controller</text>
</a>
</g>
</g>
<!-- Node2 -->
<g id="Node000002" class="node">
<title>Node2</title>
<g id="a_Node000002"><a xlink:href="classzero__mate_1_1peripheral_1_1CInterrupt__Controller.html#ae7fe10265670800403226ebc23a96179" target="_top" xlink:title="Resets/re&#45;initializes the interrupt controller (IPeripheral interface).">
<polygon fill="white" stroke="#666666" points="286,-73 161,-73 161,-32 286,-32 286,-73"/>
<text text-anchor="start" x="169" y="-61" font-family="Helvetica,sans-Serif" font-size="10.00">zero_mate::peripheral</text>
<text text-anchor="start" x="169" y="-50" font-family="Helvetica,sans-Serif" font-size="10.00">::CInterrupt_Controller</text>
<text text-anchor="middle" x="223.5" y="-39" font-family="Helvetica,sans-Serif" font-size="10.00">::Reset</text>
</a>
</g>
</g>
<!-- Node1&#45;&gt;Node2 -->
<g id="edge1_Node000001_Node000002" class="edge">
<title>Node1&#45;&gt;Node2</title>
<g id="a_edge1_Node000001_Node000002"><a xlink:title=" ">
<path fill="none" stroke="#63b8ff" d="M125.43,-52.5C133.67,-52.5 142.18,-52.5 150.58,-52.5"/>
<polygon fill="#63b8ff" stroke="#63b8ff" points="150.74,-56 160.74,-52.5 150.74,-49 150.74,-56"/>
</a>
</g>
</g>
<!-- Node3 -->
<g id="Node000003" class="node">
<title>Node3</title>
<g id="a_Node000003"><a xlink:href="classzero__mate_1_1peripheral_1_1CInterrupt__Controller.html#a9f4f351805d9081a77d7949c494fd29b" target="_top" xlink:title="Initializes the collection of basic IRQ sources.">
<polygon fill="white" stroke="#666666" points="450,-111.5 325,-111.5 325,-59.5 450,-59.5 450,-111.5"/>
<text text-anchor="start" x="333" y="-99.5" font-family="Helvetica,sans-Serif" font-size="10.00">zero_mate::peripheral</text>
<text text-anchor="start" x="333" y="-88.5" font-family="Helvetica,sans-Serif" font-size="10.00">::CInterrupt_Controller</text>
<text text-anchor="start" x="333" y="-77.5" font-family="Helvetica,sans-Serif" font-size="10.00">::Initialize_Basic_IRQ</text>
<text text-anchor="middle" x="387.5" y="-66.5" font-family="Helvetica,sans-Serif" font-size="10.00">_Sources</text>
</a>
</g>
</g>
<!-- Node2&#45;&gt;Node3 -->
<g id="edge2_Node000002_Node000003" class="edge">
<title>Node2&#45;&gt;Node3</title>
<g id="a_edge2_Node000002_Node000003"><a xlink:title=" ">
<path fill="none" stroke="#63b8ff" d="M286.21,-65.07C295.63,-66.99 305.42,-68.98 315.04,-70.94"/>
<polygon fill="#63b8ff" stroke="#63b8ff" points="314.47,-74.4 324.96,-72.96 315.86,-67.54 314.47,-74.4"/>
</a>
</g>
</g>
<!-- Node4 -->
<g id="Node000004" class="node">
<title>Node4</title>
<g id="a_Node000004"><a xlink:href="classzero__mate_1_1peripheral_1_1CInterrupt__Controller.html#a888a57d7926bd4900a70fb25ef1e1a1c" target="_top" xlink:title="Initializes the collection of IRQ sources.">
<polygon fill="white" stroke="#666666" points="453,-41 322,-41 322,0 453,0 453,-41"/>
<text text-anchor="start" x="330" y="-29" font-family="Helvetica,sans-Serif" font-size="10.00">zero_mate::peripheral</text>
<text text-anchor="start" x="330" y="-18" font-family="Helvetica,sans-Serif" font-size="10.00">::CInterrupt_Controller</text>
<text text-anchor="middle" x="387.5" y="-7" font-family="Helvetica,sans-Serif" font-size="10.00">::Initialize_IRQ_Sources</text>
</a>
</g>
</g>
<!-- Node2&#45;&gt;Node4 -->
<g id="edge3_Node000002_Node000004" class="edge">
<title>Node2&#45;&gt;Node4</title>
<g id="a_edge3_Node000002_Node000004"><a xlink:title=" ">
<path fill="none" stroke="#63b8ff" d="M286.21,-40.31C294.56,-38.66 303.21,-36.95 311.76,-35.26"/>
<polygon fill="#63b8ff" stroke="#63b8ff" points="312.6,-38.67 321.73,-33.29 311.24,-31.8 312.6,-38.67"/>
</a>
</g>
</g>
</g>
</svg>
