<?xml version="1.0" encoding="UTF-8" standalone="no"?>
<!DOCTYPE svg PUBLIC "-//W3C//DTD SVG 1.1//EN"
 "http://www.w3.org/Graphics/SVG/1.1/DTD/svg11.dtd">
<!-- Generated by graphviz version 2.43.0 (0)
 -->
<!-- Title: zero_mate::arm1176jzf_s::CCPU_Core::Execute Pages: 1 -->
<svg width="906pt" height="454pt"
 viewBox="0.00 0.00 906.00 454.00" xmlns="http://www.w3.org/2000/svg" xmlns:xlink="http://www.w3.org/1999/xlink">
<g id="graph0" class="graph" transform="scale(1 1) rotate(0) translate(4 450)">
<title>zero_mate::arm1176jzf_s::CCPU_Core::Execute</title>
<!-- Node1 -->
<g id="Node000001" class="node">
<title>Node1</title>
<g id="a_Node000001"><a xlink:title="Executes a single instruction.">
<polygon fill="#999999" stroke="#666666" points="132,-194.5 0,-194.5 0,-164.5 132,-164.5 132,-194.5"/>
<text text-anchor="start" x="8" y="-182.5" font-family="Helvetica,sans-Serif" font-size="10.00">zero_mate::arm1176jzf</text>
<text text-anchor="middle" x="66" y="-171.5" font-family="Helvetica,sans-Serif" font-size="10.00">_s::CCPU_Core::Execute</text>
</a>
</g>
</g>
<!-- Node2 -->
<g id="Node000002" class="node">
<title>Node2</title>
<g id="a_Node000002"><a xlink:href="classzero__mate_1_1arm1176jzf__s_1_1CCPU__Core.html#a1274541dc5225c51feceb54dd709f0e4" target="_top" xlink:title="If there are any pending interrupts, it throws the exceptions::CIRQ exception.">
<polygon fill="white" stroke="#666666" points="312.5,-356 182.5,-356 182.5,-315 312.5,-315 312.5,-356"/>
<text text-anchor="start" x="190.5" y="-344" font-family="Helvetica,sans-Serif" font-size="10.00">zero_mate::arm1176jzf</text>
<text text-anchor="start" x="190.5" y="-333" font-family="Helvetica,sans-Serif" font-size="10.00">_s::CCPU_Core::Check</text>
<text text-anchor="middle" x="247.5" y="-322" font-family="Helvetica,sans-Serif" font-size="10.00">_For_Pending_IRQ</text>
</a>
</g>
</g>
<!-- Node1&#45;&gt;Node2 -->
<g id="edge1_Node000001_Node000002" class="edge">
<title>Node1&#45;&gt;Node2</title>
<g id="a_edge1_Node000001_Node000002"><a xlink:title=" ">
<path fill="none" stroke="#63b8ff" d="M75.58,-194.87C90.91,-221.05 125.41,-274.45 168,-305.5 170.06,-307 172.21,-308.44 174.42,-309.82"/>
<polygon fill="#63b8ff" stroke="#63b8ff" points="172.8,-312.92 183.22,-314.81 176.25,-306.83 172.8,-312.92"/>
</a>
</g>
</g>
<!-- Node3 -->
<g id="Node000003" class="node">
<title>Node3</title>
<g id="a_Node000003"><a xlink:href="classzero__mate_1_1arm1176jzf__s_1_1CCPU__Core.html#af500d91bd836a74df0e758990c4ecc7d" target="_top" xlink:title=" ">
<polygon fill="white" stroke="#666666" points="313.5,-278.5 181.5,-278.5 181.5,-248.5 313.5,-248.5 313.5,-278.5"/>
<text text-anchor="start" x="189.5" y="-266.5" font-family="Helvetica,sans-Serif" font-size="10.00">zero_mate::arm1176jzf</text>
<text text-anchor="middle" x="247.5" y="-255.5" font-family="Helvetica,sans-Serif" font-size="10.00">_s::CCPU_Core::Execute</text>
</a>
</g>
</g>
<!-- Node1&#45;&gt;Node3 -->
<g id="edge2_Node000001_Node000003" class="edge">
<title>Node1&#45;&gt;Node3</title>
<g id="a_edge2_Node000001_Node000003"><a xlink:title=" ">
<path fill="none" stroke="#63b8ff" d="M89.03,-194.69C108.96,-207.91 139.46,-226.88 168,-239.5 172.41,-241.45 177.03,-243.31 181.72,-245.05"/>
<polygon fill="#63b8ff" stroke="#63b8ff" points="180.81,-248.45 191.41,-248.5 183.16,-241.85 180.81,-248.45"/>
</a>
</g>
</g>
<!-- Node4 -->
<g id="Node000004" class="node">
<title>Node4</title>
<g id="a_Node000004"><a xlink:href="classzero__mate_1_1arm1176jzf__s_1_1CCPU__Core.html#a85e6ef006a36e1adb56abd3ecc6481be" target="_top" xlink:title="Executes a CPU exception.">
<polygon fill="white" stroke="#666666" points="313.5,-230 181.5,-230 181.5,-189 313.5,-189 313.5,-230"/>
<text text-anchor="start" x="189.5" y="-218" font-family="Helvetica,sans-Serif" font-size="10.00">zero_mate::arm1176jzf</text>
<text text-anchor="start" x="189.5" y="-207" font-family="Helvetica,sans-Serif" font-size="10.00">_s::CCPU_Core::Execute</text>
<text text-anchor="middle" x="247.5" y="-196" font-family="Helvetica,sans-Serif" font-size="10.00">_Exception</text>
</a>
</g>
</g>
<!-- Node1&#45;&gt;Node4 -->
<g id="edge4_Node000001_Node000004" class="edge">
<title>Node1&#45;&gt;Node4</title>
<g id="a_edge4_Node000001_Node000004"><a xlink:title=" ">
<path fill="none" stroke="#63b8ff" d="M132.06,-190.37C144.85,-192.51 158.37,-194.77 171.46,-196.96"/>
<polygon fill="#63b8ff" stroke="#63b8ff" points="170.92,-200.42 181.36,-198.61 172.08,-193.51 170.92,-200.42"/>
</a>
</g>
</g>
<!-- Node18 -->
<g id="Node000018" class="node">
<title>Node18</title>
<g id="a_Node000018"><a xlink:href="classzero__mate_1_1arm1176jzf__s_1_1isa_1_1CISA__Decoder.html#ace4e1013614b87601866df1679a42e6e" target="_top" xlink:title="Looks up an instruction type in the instruction look&#45;up table.">
<polygon fill="white" stroke="#666666" points="312.5,-171 182.5,-171 182.5,-130 312.5,-130 312.5,-171"/>
<text text-anchor="start" x="190.5" y="-159" font-family="Helvetica,sans-Serif" font-size="10.00">zero_mate::arm1176jzf</text>
<text text-anchor="start" x="190.5" y="-148" font-family="Helvetica,sans-Serif" font-size="10.00">_s::isa::CISA_Decoder</text>
<text text-anchor="middle" x="247.5" y="-137" font-family="Helvetica,sans-Serif" font-size="10.00">::Get_Instruction_Type</text>
</a>
</g>
</g>
<!-- Node1&#45;&gt;Node18 -->
<g id="edge18_Node000001_Node000018" class="edge">
<title>Node1&#45;&gt;Node18</title>
<g id="a_edge18_Node000001_Node000018"><a xlink:title=" ">
<path fill="none" stroke="#63b8ff" d="M132.06,-168.99C145.09,-166.88 158.87,-164.66 172.19,-162.51"/>
<polygon fill="#63b8ff" stroke="#63b8ff" points="172.95,-165.93 182.27,-160.88 171.83,-159.02 172.95,-165.93"/>
</a>
</g>
</g>
<!-- Node19 -->
<g id="Node000019" class="node">
<title>Node19</title>
<g id="a_Node000019"><a xlink:href="classzero__mate_1_1arm1176jzf__s_1_1CCPU__Core.html#ae71d278b2aa5b43c174c50ee2d7aa281" target="_top" xlink:title="Checks whether a given instruction should be executed or skipped based on its condition field.">
<polygon fill="white" stroke="#666666" points="327,-112 168,-112 168,-71 327,-71 327,-112"/>
<text text-anchor="start" x="176" y="-100" font-family="Helvetica,sans-Serif" font-size="10.00">zero_mate::arm1176jzf</text>
<text text-anchor="start" x="176" y="-89" font-family="Helvetica,sans-Serif" font-size="10.00">_s::CCPU_Core::Is_Instruction</text>
<text text-anchor="middle" x="247.5" y="-78" font-family="Helvetica,sans-Serif" font-size="10.00">_Condition_Met</text>
</a>
</g>
</g>
<!-- Node1&#45;&gt;Node19 -->
<g id="edge19_Node000001_Node000019" class="edge">
<title>Node1&#45;&gt;Node19</title>
<g id="a_edge19_Node000001_Node000019"><a xlink:title=" ">
<path fill="none" stroke="#63b8ff" d="M90.92,-164.34C111.03,-151.95 140.78,-134.42 168,-121.5 171.86,-119.67 175.85,-117.87 179.91,-116.11"/>
<polygon fill="#63b8ff" stroke="#63b8ff" points="181.6,-119.2 189.46,-112.09 178.88,-112.74 181.6,-119.2"/>
</a>
</g>
</g>
<!-- Node21 -->
<g id="Node000021" class="node">
<title>Node21</title>
<g id="a_Node000021"><a xlink:href="classzero__mate_1_1arm1176jzf__s_1_1CCPU__Core.html#ae73e94e5c041f3d0f32d405a326fcf77" target="_top" xlink:title="Updates all CPU cycle listeners.">
<polygon fill="white" stroke="#666666" points="312.5,-53 182.5,-53 182.5,-12 312.5,-12 312.5,-53"/>
<text text-anchor="start" x="190.5" y="-41" font-family="Helvetica,sans-Serif" font-size="10.00">zero_mate::arm1176jzf</text>
<text text-anchor="start" x="190.5" y="-30" font-family="Helvetica,sans-Serif" font-size="10.00">_s::CCPU_Core::Update</text>
<text text-anchor="middle" x="247.5" y="-19" font-family="Helvetica,sans-Serif" font-size="10.00">_Cycle_Listeners</text>
</a>
</g>
</g>
<!-- Node1&#45;&gt;Node21 -->
<g id="edge21_Node000001_Node000021" class="edge">
<title>Node1&#45;&gt;Node21</title>
<g id="a_edge21_Node000001_Node000021"><a xlink:title=" ">
<path fill="none" stroke="#63b8ff" d="M76.29,-164.29C92.18,-139.47 126.84,-90.17 168,-61.5 169.65,-60.35 171.36,-59.24 173.11,-58.16"/>
<polygon fill="#63b8ff" stroke="#63b8ff" points="175.11,-61.05 182.13,-53.11 171.69,-54.94 175.11,-61.05"/>
</a>
</g>
</g>
<!-- Node3&#45;&gt;Node3 -->
<g id="edge3_Node000003_Node000003" class="edge">
<title>Node3&#45;&gt;Node3</title>
<g id="a_edge3_Node000003_Node000003"><a xlink:title=" ">
<path fill="none" stroke="#63b8ff" d="M215.86,-278.78C208.83,-287.91 219.38,-296.5 247.5,-296.5 264.2,-296.5 274.7,-293.47 279.01,-289.1"/>
<polygon fill="#63b8ff" stroke="#63b8ff" points="282.51,-288.82 279.14,-278.78 275.51,-288.73 282.51,-288.82"/>
</a>
</g>
</g>
<!-- Node5 -->
<g id="Node000005" class="node">
<title>Node5</title>
<g id="a_Node000005"><a xlink:href="classzero__mate_1_1arm1176jzf__s_1_1exceptions_1_1CCPU__Exception.html#ab18a4a4b6a54029ccf141784cfe9c737" target="_top" xlink:title="Returns the mode into which the CPU will switch when the exception is thrown.">
<polygon fill="white" stroke="#666666" points="514,-446 363,-446 363,-405 514,-405 514,-446"/>
<text text-anchor="start" x="371" y="-434" font-family="Helvetica,sans-Serif" font-size="10.00">zero_mate::arm1176jzf</text>
<text text-anchor="start" x="371" y="-423" font-family="Helvetica,sans-Serif" font-size="10.00">_s::exceptions::CCPU</text>
<text text-anchor="middle" x="438.5" y="-412" font-family="Helvetica,sans-Serif" font-size="10.00">_Exception::Get_CPU_Mode</text>
</a>
</g>
</g>
<!-- Node4&#45;&gt;Node5 -->
<g id="edge5_Node000004_Node000005" class="edge">
<title>Node4&#45;&gt;Node5</title>
<g id="a_edge5_Node000004_Node000005"><a xlink:title=" ">
<path fill="none" stroke="#63b8ff" d="M313.67,-228.13C318.62,-231.34 323.17,-235.1 327,-239.5 373.72,-293.17 316.76,-341.42 363,-395.5 363.75,-396.37 364.52,-397.22 365.33,-398.05"/>
<polygon fill="#63b8ff" stroke="#63b8ff" points="363.34,-400.96 373.2,-404.83 367.91,-395.65 363.34,-400.96"/>
</a>
</g>
</g>
<!-- Node6 -->
<g id="Node000006" class="node">
<title>Node6</title>
<g id="a_Node000006"><a xlink:href="classzero__mate_1_1arm1176jzf__s_1_1exceptions_1_1CCPU__Exception.html#ae87c33c76ed6571b2408fd293710b6c4" target="_top" xlink:title="Returns the address of the handler of the exception.">
<polygon fill="white" stroke="#666666" points="511.5,-386.5 365.5,-386.5 365.5,-334.5 511.5,-334.5 511.5,-386.5"/>
<text text-anchor="start" x="373.5" y="-374.5" font-family="Helvetica,sans-Serif" font-size="10.00">zero_mate::arm1176jzf</text>
<text text-anchor="start" x="373.5" y="-363.5" font-family="Helvetica,sans-Serif" font-size="10.00">_s::exceptions::CCPU</text>
<text text-anchor="start" x="373.5" y="-352.5" font-family="Helvetica,sans-Serif" font-size="10.00">_Exception::Get_Exception</text>
<text text-anchor="middle" x="438.5" y="-341.5" font-family="Helvetica,sans-Serif" font-size="10.00">_Vector</text>
</a>
</g>
</g>
<!-- Node4&#45;&gt;Node6 -->
<g id="edge6_Node000004_Node000006" class="edge">
<title>Node4&#45;&gt;Node6</title>
<g id="a_edge6_Node000004_Node000006"><a xlink:title=" ">
<path fill="none" stroke="#63b8ff" d="M313.66,-229.32C318.49,-232.27 323.02,-235.64 327,-239.5 356.76,-268.34 334.33,-295.58 363,-325.5 363.77,-326.3 364.55,-327.08 365.36,-327.85"/>
<polygon fill="#63b8ff" stroke="#63b8ff" points="363.2,-330.6 373.12,-334.33 367.69,-325.23 363.2,-330.6"/>
</a>
</g>
</g>
<!-- Node7 -->
<g id="Node000007" class="node">
<title>Node7</title>
<g id="a_Node000007"><a xlink:href="classzero__mate_1_1arm1176jzf__s_1_1exceptions_1_1CCPU__Exception.html#aabb81de8a3e09534245ef3851a31c3c0" target="_top" xlink:title="Returns the type of the exception.">
<polygon fill="white" stroke="#666666" points="503.5,-316 373.5,-316 373.5,-275 503.5,-275 503.5,-316"/>
<text text-anchor="start" x="381.5" y="-304" font-family="Helvetica,sans-Serif" font-size="10.00">zero_mate::arm1176jzf</text>
<text text-anchor="start" x="381.5" y="-293" font-family="Helvetica,sans-Serif" font-size="10.00">_s::exceptions::CCPU</text>
<text text-anchor="middle" x="438.5" y="-282" font-family="Helvetica,sans-Serif" font-size="10.00">_Exception::Get_Type</text>
</a>
</g>
</g>
<!-- Node4&#45;&gt;Node7 -->
<g id="edge7_Node000004_Node000007" class="edge">
<title>Node4&#45;&gt;Node7</title>
<g id="a_edge7_Node000004_Node000007"><a xlink:title=" ">
<path fill="none" stroke="#63b8ff" d="M307.61,-230.03C314.28,-232.95 320.87,-236.12 327,-239.5 344.51,-249.16 345.52,-256.78 363,-266.5 365.5,-267.89 368.08,-269.25 370.72,-270.56"/>
<polygon fill="#63b8ff" stroke="#63b8ff" points="369.29,-273.76 379.83,-274.88 372.29,-267.43 369.29,-273.76"/>
</a>
</g>
</g>
<!-- Node8 -->
<g id="Node000008" class="node">
<title>Node8</title>
<g id="a_Node000008"><a xlink:href="classzero__mate_1_1arm1176jzf__s_1_1CCPU__Core.html#ad6dadfc114c7d0d6b43496f9f5651be7" target="_top" xlink:title="Checks if the IVT (interrupt vector table) has been reallocated to the higher address (0xFFFF0000).">
<polygon fill="white" stroke="#666666" points="514,-257 363,-257 363,-216 514,-216 514,-257"/>
<text text-anchor="start" x="371" y="-245" font-family="Helvetica,sans-Serif" font-size="10.00">zero_mate::arm1176jzf</text>
<text text-anchor="start" x="371" y="-234" font-family="Helvetica,sans-Serif" font-size="10.00">_s::CCPU_Core::Is_IVT</text>
<text text-anchor="middle" x="438.5" y="-223" font-family="Helvetica,sans-Serif" font-size="10.00">_Reallocated_To_High_Addr</text>
</a>
</g>
</g>
<!-- Node4&#45;&gt;Node8 -->
<g id="edge8_Node000004_Node000008" class="edge">
<title>Node4&#45;&gt;Node8</title>
<g id="a_edge8_Node000004_Node000008"><a xlink:title=" ">
<path fill="none" stroke="#63b8ff" d="M313.54,-218.79C326.22,-220.6 339.69,-222.53 352.89,-224.41"/>
<polygon fill="#63b8ff" stroke="#63b8ff" points="352.52,-227.9 362.92,-225.85 353.51,-220.97 352.52,-227.9"/>
</a>
</g>
</g>
<!-- Node11 -->
<g id="Node000011" class="node">
<title>Node11</title>
<g id="a_Node000011"><a xlink:href="classzero__mate_1_1arm1176jzf__s_1_1CCPU__Core.html#a423eacd01e574e782a2b7cf51f28c56c" target="_top" xlink:title="Returns a reference to the PC register (r15)">
<polygon fill="white" stroke="#666666" points="503.5,-197.5 373.5,-197.5 373.5,-167.5 503.5,-167.5 503.5,-197.5"/>
<text text-anchor="start" x="381.5" y="-185.5" font-family="Helvetica,sans-Serif" font-size="10.00">zero_mate::arm1176jzf</text>
<text text-anchor="middle" x="438.5" y="-174.5" font-family="Helvetica,sans-Serif" font-size="10.00">_s::CCPU_Core::PC</text>
</a>
</g>
</g>
<!-- Node4&#45;&gt;Node11 -->
<g id="edge11_Node000004_Node000011" class="edge">
<title>Node4&#45;&gt;Node11</title>
<g id="a_edge11_Node000004_Node000011"><a xlink:title=" ">
<path fill="none" stroke="#63b8ff" d="M313.54,-200.21C329.55,-197.92 346.81,-195.46 363.21,-193.11"/>
<polygon fill="#63b8ff" stroke="#63b8ff" points="363.89,-196.55 373.3,-191.67 362.9,-189.62 363.89,-196.55"/>
</a>
</g>
</g>
<!-- Node12 -->
<g id="Node000012" class="node">
<title>Node12</title>
<g id="a_Node000012"><a xlink:href="classzero__mate_1_1arm1176jzf__s_1_1CCPU__Context.html#a7efff674f8141eab73cb69099220f0d5" target="_top" xlink:title="Sets the mode of the CPU.">
<polygon fill="white" stroke="#666666" points="503.5,-149 373.5,-149 373.5,-108 503.5,-108 503.5,-149"/>
<text text-anchor="start" x="381.5" y="-137" font-family="Helvetica,sans-Serif" font-size="10.00">zero_mate::arm1176jzf</text>
<text text-anchor="start" x="381.5" y="-126" font-family="Helvetica,sans-Serif" font-size="10.00">_s::CCPU_Context::Set</text>
<text text-anchor="middle" x="438.5" y="-115" font-family="Helvetica,sans-Serif" font-size="10.00">_CPU_Mode</text>
</a>
</g>
</g>
<!-- Node4&#45;&gt;Node12 -->
<g id="edge12_Node000004_Node000012" class="edge">
<title>Node4&#45;&gt;Node12</title>
<g id="a_edge12_Node000004_Node000012"><a xlink:title=" ">
<path fill="none" stroke="#63b8ff" d="M308.17,-188.86C314.6,-186.22 320.99,-183.41 327,-180.5 343.87,-172.32 346.25,-166.92 363,-158.5 366.54,-156.72 370.22,-154.96 373.95,-153.25"/>
<polygon fill="#63b8ff" stroke="#63b8ff" points="375.6,-156.35 383.31,-149.09 372.76,-149.95 375.6,-156.35"/>
</a>
</g>
</g>
<!-- Node13 -->
<g id="Node000013" class="node">
<title>Node13</title>
<g id="a_Node000013"><a xlink:href="classzero__mate_1_1utils_1_1CLogging__System.html#a2bb4d37b178f29335f726875bad91bd4" target="_top" xlink:title="Logs a warning message via all registered loggers.">
<polygon fill="white" stroke="#666666" points="511.5,-89.5 365.5,-89.5 365.5,-59.5 511.5,-59.5 511.5,-89.5"/>
<text text-anchor="start" x="373.5" y="-77.5" font-family="Helvetica,sans-Serif" font-size="10.00">zero_mate::utils::CLogging</text>
<text text-anchor="middle" x="438.5" y="-66.5" font-family="Helvetica,sans-Serif" font-size="10.00">_System::Warning</text>
</a>
</g>
</g>
<!-- Node4&#45;&gt;Node13 -->
<g id="edge13_Node000004_Node000013" class="edge">
<title>Node4&#45;&gt;Node13</title>
<g id="a_edge13_Node000004_Node000013"><a xlink:title=" ">
<path fill="none" stroke="#63b8ff" d="M313.56,-190.44C318.41,-187.57 322.97,-184.28 327,-180.5 355.74,-153.55 333.86,-126.01 363,-99.5 364.72,-97.93 366.55,-96.46 368.45,-95.09"/>
<polygon fill="#63b8ff" stroke="#63b8ff" points="370.6,-97.87 377.24,-89.62 366.9,-91.93 370.6,-97.87"/>
</a>
</g>
</g>
<!-- Node9 -->
<g id="Node000009" class="node">
<title>Node9</title>
<g id="a_Node000009"><a xlink:href="classzero__mate_1_1coprocessor_1_1cp15_1_1CC1.html#ac6b22a989b3f58443f36e32999150eb6" target="_top" xlink:title=" ">
<polygon fill="white" stroke="#666666" points="692.5,-257 559.5,-257 559.5,-216 692.5,-216 692.5,-257"/>
<text text-anchor="start" x="567.5" y="-245" font-family="Helvetica,sans-Serif" font-size="10.00">zero_mate::coprocessor</text>
<text text-anchor="start" x="567.5" y="-234" font-family="Helvetica,sans-Serif" font-size="10.00">::cp15::CC1::Is_Control</text>
<text text-anchor="middle" x="626" y="-223" font-family="Helvetica,sans-Serif" font-size="10.00">_Flag_Set</text>
</a>
</g>
</g>
<!-- Node8&#45;&gt;Node9 -->
<g id="edge9_Node000008_Node000009" class="edge">
<title>Node8&#45;&gt;Node9</title>
<g id="a_edge9_Node000008_Node000009"><a xlink:title=" ">
<path fill="none" stroke="#63b8ff" d="M514.15,-236.5C525.75,-236.5 537.75,-236.5 549.37,-236.5"/>
<polygon fill="#63b8ff" stroke="#63b8ff" points="549.47,-240 559.47,-236.5 549.47,-233 549.47,-240"/>
</a>
</g>
</g>
<!-- Node10 -->
<g id="Node000010" class="node">
<title>Node10</title>
<g id="a_Node000010"><a xlink:href="classzero__mate_1_1coprocessor_1_1cp15_1_1IPrimary__Reg.html#a0780610d57b65a633a1776be372116a6" target="_top" xlink:title="Checks whether a flag is set in a given register.">
<polygon fill="white" stroke="#666666" points="884.5,-257 751.5,-257 751.5,-216 884.5,-216 884.5,-257"/>
<text text-anchor="start" x="759.5" y="-245" font-family="Helvetica,sans-Serif" font-size="10.00">zero_mate::coprocessor</text>
<text text-anchor="start" x="759.5" y="-234" font-family="Helvetica,sans-Serif" font-size="10.00">::cp15::IPrimary_Reg::</text>
<text text-anchor="middle" x="818" y="-223" font-family="Helvetica,sans-Serif" font-size="10.00">Is_Flag_Set</text>
</a>
</g>
</g>
<!-- Node9&#45;&gt;Node10 -->
<g id="edge10_Node000009_Node000010" class="edge">
<title>Node9&#45;&gt;Node10</title>
<g id="a_edge10_Node000009_Node000010"><a xlink:title=" ">
<path fill="none" stroke="#63b8ff" d="M692.65,-236.5C708.23,-236.5 724.97,-236.5 740.96,-236.5"/>
<polygon fill="#63b8ff" stroke="#63b8ff" points="741.34,-240 751.34,-236.5 741.34,-233 741.34,-240"/>
</a>
</g>
</g>
<!-- Node14 -->
<g id="Node000014" class="node">
<title>Node14</title>
<g id="a_Node000014"><a xlink:href="classzero__mate_1_1utils_1_1CLogging__System.html#a71ed11c796553cbe8fd99773406a1060" target="_top" xlink:title="Creates a formatted message to be logged.">
<polygon fill="white" stroke="#666666" points="702,-122 550,-122 550,-81 702,-81 702,-122"/>
<text text-anchor="start" x="558" y="-110" font-family="Helvetica,sans-Serif" font-size="10.00">zero_mate::utils::CLogging</text>
<text text-anchor="start" x="558" y="-99" font-family="Helvetica,sans-Serif" font-size="10.00">_System::Create_Formatted</text>
<text text-anchor="middle" x="626" y="-88" font-family="Helvetica,sans-Serif" font-size="10.00">_Log_Msg</text>
</a>
</g>
</g>
<!-- Node13&#45;&gt;Node14 -->
<g id="edge14_Node000013_Node000014" class="edge">
<title>Node13&#45;&gt;Node14</title>
<g id="a_edge14_Node000013_Node000014"><a xlink:title=" ">
<path fill="none" stroke="#63b8ff" d="M511.75,-85.02C520.94,-86.35 530.41,-87.73 539.78,-89.1"/>
<polygon fill="#63b8ff" stroke="#63b8ff" points="539.49,-92.59 549.89,-90.57 540.49,-85.66 539.49,-92.59"/>
</a>
</g>
</g>
<!-- Node17 -->
<g id="Node000017" class="node">
<title>Node17</title>
<g id="a_Node000017"><a xlink:href="classzero__mate_1_1utils_1_1CLogging__System.html#ad371c67ef65763966ccf9291002e86f3" target="_top" xlink:title="Extract the filename from a given location within the source files.">
<polygon fill="white" stroke="#666666" points="700.5,-62.5 551.5,-62.5 551.5,-32.5 700.5,-32.5 700.5,-62.5"/>
<text text-anchor="start" x="559.5" y="-50.5" font-family="Helvetica,sans-Serif" font-size="10.00">zero_mate::utils::CLogging</text>
<text text-anchor="middle" x="626" y="-39.5" font-family="Helvetica,sans-Serif" font-size="10.00">_System::Extract_Filename</text>
</a>
</g>
</g>
<!-- Node13&#45;&gt;Node17 -->
<g id="edge17_Node000013_Node000017" class="edge">
<title>Node13&#45;&gt;Node17</title>
<g id="a_edge17_Node000013_Node000017"><a xlink:title=" ">
<path fill="none" stroke="#63b8ff" d="M511.75,-63.98C521.41,-62.58 531.39,-61.12 541.23,-59.69"/>
<polygon fill="#63b8ff" stroke="#63b8ff" points="542.03,-63.11 551.42,-58.21 541.02,-56.19 542.03,-63.11"/>
</a>
</g>
</g>
<!-- Node15 -->
<g id="Node000015" class="node">
<title>Node15</title>
<g id="a_Node000015"><a xlink:href="classzero__mate_1_1utils_1_1CLogging__System.html#aa70c102c805079042ffea2a6f2a5ad64" target="_top" xlink:title="Formats a given timestamp.">
<polygon fill="white" stroke="#666666" points="898,-140.5 738,-140.5 738,-110.5 898,-110.5 898,-140.5"/>
<text text-anchor="start" x="746" y="-128.5" font-family="Helvetica,sans-Serif" font-size="10.00">zero_mate::utils::CLogging</text>
<text text-anchor="middle" x="818" y="-117.5" font-family="Helvetica,sans-Serif" font-size="10.00">_System::Format_Timestamp</text>
</a>
</g>
</g>
<!-- Node14&#45;&gt;Node15 -->
<g id="edge15_Node000014_Node000015" class="edge">
<title>Node14&#45;&gt;Node15</title>
<g id="a_edge15_Node000014_Node000015"><a xlink:title=" ">
<path fill="none" stroke="#63b8ff" d="M702.09,-110.99C710.52,-112.05 719.16,-113.14 727.74,-114.23"/>
<polygon fill="#63b8ff" stroke="#63b8ff" points="727.41,-117.71 737.77,-115.49 728.29,-110.77 727.41,-117.71"/>
</a>
</g>
</g>
<!-- Node16 -->
<g id="Node000016" class="node">
<title>Node16</title>
<g id="a_Node000016"><a xlink:href="classzero__mate_1_1utils_1_1CLogging__System.html#ae3ca637537dde05e0b9119145c840331" target="_top" xlink:title="Returns the current timestamp that will be used in a log message.">
<polygon fill="white" stroke="#666666" points="891,-92.5 745,-92.5 745,-62.5 891,-62.5 891,-92.5"/>
<text text-anchor="start" x="753" y="-80.5" font-family="Helvetica,sans-Serif" font-size="10.00">zero_mate::utils::CLogging</text>
<text text-anchor="middle" x="818" y="-69.5" font-family="Helvetica,sans-Serif" font-size="10.00">_System::Get_Timestamp</text>
</a>
</g>
</g>
<!-- Node14&#45;&gt;Node16 -->
<g id="edge16_Node000014_Node000016" class="edge">
<title>Node14&#45;&gt;Node16</title>
<g id="a_edge16_Node000014_Node000016"><a xlink:title=" ">
<path fill="none" stroke="#63b8ff" d="M702.09,-92.01C712.89,-90.65 724.05,-89.24 734.98,-87.86"/>
<polygon fill="#63b8ff" stroke="#63b8ff" points="735.45,-91.33 744.93,-86.6 734.57,-84.38 735.45,-91.33"/>
</a>
</g>
</g>
<!-- Node20 -->
<g id="Node000020" class="node">
<title>Node20</title>
<g id="a_Node000020"><a xlink:href="classzero__mate_1_1arm1176jzf__s_1_1isa_1_1CInstruction.html#aedbef9330e0e59007d0b05841a626d21" target="_top" xlink:title="Returns the condition field of the instruction.">
<polygon fill="white" stroke="#666666" points="503.5,-41 373.5,-41 373.5,0 503.5,0 503.5,-41"/>
<text text-anchor="start" x="381.5" y="-29" font-family="Helvetica,sans-Serif" font-size="10.00">zero_mate::arm1176jzf</text>
<text text-anchor="start" x="381.5" y="-18" font-family="Helvetica,sans-Serif" font-size="10.00">_s::isa::CInstruction</text>
<text text-anchor="middle" x="438.5" y="-7" font-family="Helvetica,sans-Serif" font-size="10.00">::Get_Condition</text>
</a>
</g>
</g>
<!-- Node19&#45;&gt;Node20 -->
<g id="edge20_Node000019_Node000020" class="edge">
<title>Node19&#45;&gt;Node20</title>
<g id="a_edge20_Node000019_Node000020"><a xlink:title=" ">
<path fill="none" stroke="#63b8ff" d="M303.17,-70.96C325.01,-62.76 350.33,-53.25 373.06,-44.71"/>
<polygon fill="#63b8ff" stroke="#63b8ff" points="374.5,-47.91 382.63,-41.11 372.04,-41.35 374.5,-47.91"/>
</a>
</g>
</g>
</g>
</svg>
