<?xml version="1.0" encoding="UTF-8" standalone="no"?>
<!DOCTYPE svg PUBLIC "-//W3C//DTD SVG 1.1//EN"
 "http://www.w3.org/Graphics/SVG/1.1/DTD/svg11.dtd">
<!-- Generated by graphviz version 2.43.0 (0)
 -->
<!-- Title: zero_mate::gui::CTop_Bar_Menu::Load_ELF_Files Pages: 1 -->
<svg width="483pt" height="49pt"
 viewBox="0.00 0.00 483.00 49.00" xmlns="http://www.w3.org/2000/svg" xmlns:xlink="http://www.w3.org/1999/xlink">
<g id="graph0" class="graph" transform="scale(1 1) rotate(0) translate(4 45)">
<title>zero_mate::gui::CTop_Bar_Menu::Load_ELF_Files</title>
<!-- Node1 -->
<g id="Node000001" class="node">
<title>Node1</title>
<g id="a_Node000001"><a xlink:title="Loads ELF files selected by the user using the file browser.">
<polygon fill="#999999" stroke="#666666" points="475,-35.5 325,-35.5 325,-5.5 475,-5.5 475,-35.5"/>
<text text-anchor="start" x="333" y="-23.5" font-family="Helvetica,sans-Serif" font-size="10.00">zero_mate::gui::CTop</text>
<text text-anchor="middle" x="400" y="-12.5" font-family="Helvetica,sans-Serif" font-size="10.00">_Bar_Menu::Load_ELF_Files</text>
</a>
</g>
</g>
<!-- Node2 -->
<g id="Node000002" class="node">
<title>Node2</title>
<g id="a_Node000002"><a xlink:href="classzero__mate_1_1gui_1_1CTop__Bar__Menu.html#a8dbf5620303332f1ad1b7449793a3621" target="_top" xlink:title="Renders the file browser.">
<polygon fill="white" stroke="#666666" points="289,-41 155,-41 155,0 289,0 289,-41"/>
<text text-anchor="start" x="163" y="-29" font-family="Helvetica,sans-Serif" font-size="10.00">zero_mate::gui::CTop</text>
<text text-anchor="start" x="163" y="-18" font-family="Helvetica,sans-Serif" font-size="10.00">_Bar_Menu::Render_File</text>
<text text-anchor="middle" x="222" y="-7" font-family="Helvetica,sans-Serif" font-size="10.00">_Browser</text>
</a>
</g>
</g>
<!-- Node1&#45;&gt;Node2 -->
<g id="edge1_Node000001_Node000002" class="edge">
<title>Node1&#45;&gt;Node2</title>
<g id="a_edge1_Node000001_Node000002"><a xlink:title=" ">
<path fill="none" stroke="#63b8ff" d="M314.82,-20.5C306.22,-20.5 297.58,-20.5 289.21,-20.5"/>
<polygon fill="#63b8ff" stroke="#63b8ff" points="314.87,-24 324.87,-20.5 314.87,-17 314.87,-24"/>
</a>
</g>
</g>
<!-- Node3 -->
<g id="Node000003" class="node">
<title>Node3</title>
<g id="a_Node000003"><a xlink:href="classzero__mate_1_1gui_1_1CTop__Bar__Menu.html#ad8f10caa7780d6c4e9fb20c4ab702a60" target="_top" xlink:title="Renders the bar (IGUI_Window interface).">
<polygon fill="white" stroke="#666666" points="119,-35.5 0,-35.5 0,-5.5 119,-5.5 119,-35.5"/>
<text text-anchor="start" x="8" y="-23.5" font-family="Helvetica,sans-Serif" font-size="10.00">zero_mate::gui::CTop</text>
<text text-anchor="middle" x="59.5" y="-12.5" font-family="Helvetica,sans-Serif" font-size="10.00">_Bar_Menu::Render</text>
</a>
</g>
</g>
<!-- Node2&#45;&gt;Node3 -->
<g id="edge2_Node000002_Node000003" class="edge">
<title>Node2&#45;&gt;Node3</title>
<g id="a_edge2_Node000002_Node000003"><a xlink:title=" ">
<path fill="none" stroke="#63b8ff" d="M144.73,-20.5C136.12,-20.5 127.45,-20.5 119.11,-20.5"/>
<polygon fill="#63b8ff" stroke="#63b8ff" points="144.79,-24 154.79,-20.5 144.79,-17 144.79,-24"/>
</a>
</g>
</g>
</g>
</svg>
