<?xml version="1.0" encoding="UTF-8" standalone="no"?>
<!DOCTYPE svg PUBLIC "-//W3C//DTD SVG 1.1//EN"
 "http://www.w3.org/Graphics/SVG/1.1/DTD/svg11.dtd">
<!-- Generated by graphviz version 2.43.0 (0)
 -->
<!-- Title: zero_mate::gui::CMonitor_Window::Get_Current_Row Pages: 1 -->
<svg width="514pt" height="38pt"
 viewBox="0.00 0.00 514.00 38.00" xmlns="http://www.w3.org/2000/svg" xmlns:xlink="http://www.w3.org/1999/xlink">
<g id="graph0" class="graph" transform="scale(1 1) rotate(0) translate(4 34)">
<title>zero_mate::gui::CMonitor_Window::Get_Current_Row</title>
<!-- Node1 -->
<g id="Node000001" class="node">
<title>Node1</title>
<g id="a_Node000001"><a xlink:title="Retrieves a junk of data from the monitor which represents the current row.">
<polygon fill="#999999" stroke="#666666" points="506,-30 355,-30 355,0 506,0 506,-30"/>
<text text-anchor="start" x="363" y="-18" font-family="Helvetica,sans-Serif" font-size="10.00">zero_mate::gui::CMonitor</text>
<text text-anchor="middle" x="430.5" y="-7" font-family="Helvetica,sans-Serif" font-size="10.00">_Window::Get_Current_Row</text>
</a>
</g>
</g>
<!-- Node2 -->
<g id="Node000002" class="node">
<title>Node2</title>
<g id="a_Node000002"><a xlink:href="classzero__mate_1_1gui_1_1CMonitor__Window.html#a5d0f74e6f49d94dbd80ce748e04141bc" target="_top" xlink:title="Renders the contents of the memory&#45;mapped debug monitor.">
<polygon fill="white" stroke="#666666" points="319,-30 176,-30 176,0 319,0 319,-30"/>
<text text-anchor="start" x="184" y="-18" font-family="Helvetica,sans-Serif" font-size="10.00">zero_mate::gui::CMonitor</text>
<text text-anchor="middle" x="247.5" y="-7" font-family="Helvetica,sans-Serif" font-size="10.00">_Window::Render_Monitor</text>
</a>
</g>
</g>
<!-- Node1&#45;&gt;Node2 -->
<g id="edge1_Node000001_Node000002" class="edge">
<title>Node1&#45;&gt;Node2</title>
<g id="a_edge1_Node000001_Node000002"><a xlink:title=" ">
<path fill="none" stroke="#63b8ff" d="M344.82,-15C336.25,-15 327.61,-15 319.21,-15"/>
<polygon fill="#63b8ff" stroke="#63b8ff" points="344.84,-18.5 354.84,-15 344.84,-11.5 344.84,-18.5"/>
</a>
</g>
</g>
<!-- Node3 -->
<g id="Node000003" class="node">
<title>Node3</title>
<g id="a_Node000003"><a xlink:href="classzero__mate_1_1gui_1_1CMonitor__Window.html#a603ab2808379078762eea4a99b7cdc7b" target="_top" xlink:title="Renders the debug memory&#45;mapped monitor (IGUI_Window interface).">
<polygon fill="white" stroke="#666666" points="140,-30 0,-30 0,0 140,0 140,-30"/>
<text text-anchor="start" x="8" y="-18" font-family="Helvetica,sans-Serif" font-size="10.00">zero_mate::gui::CMonitor</text>
<text text-anchor="middle" x="70" y="-7" font-family="Helvetica,sans-Serif" font-size="10.00">_Window::Render</text>
</a>
</g>
</g>
<!-- Node2&#45;&gt;Node3 -->
<g id="edge2_Node000002_Node000003" class="edge">
<title>Node2&#45;&gt;Node3</title>
<g id="a_edge2_Node000002_Node000003"><a xlink:title=" ">
<path fill="none" stroke="#63b8ff" d="M165.83,-15C157.22,-15 148.51,-15 140.05,-15"/>
<polygon fill="#63b8ff" stroke="#63b8ff" points="165.88,-18.5 175.88,-15 165.88,-11.5 165.88,-18.5"/>
</a>
</g>
</g>
</g>
</svg>
