<?xml version="1.0" encoding="UTF-8" standalone="no"?>
<!DOCTYPE svg PUBLIC "-//W3C//DTD SVG 1.1//EN"
 "http://www.w3.org/Graphics/SVG/1.1/DTD/svg11.dtd">
<!-- Generated by graphviz version 2.43.0 (0)
 -->
<!-- Title: src/gui/windows/control_window.hpp Pages: 1 -->
<svg width="244pt" height="104pt"
 viewBox="0.00 0.00 244.00 104.00" xmlns="http://www.w3.org/2000/svg" xmlns:xlink="http://www.w3.org/1999/xlink">
<g id="graph0" class="graph" transform="scale(1 1) rotate(0) translate(4 100)">
<title>src/gui/windows/control_window.hpp</title>
<!-- Node1 -->
<g id="Node000001" class="node">
<title>Node1</title>
<g id="a_Node000001"><a xlink:title="This file defines a window that allows the user to control CPU execution.">
<polygon fill="#999999" stroke="#666666" points="172,-96 41,-96 41,-66 172,-66 172,-96"/>
<text text-anchor="start" x="49" y="-84" font-family="Helvetica,sans-Serif" font-size="10.00">src/gui/windows/control</text>
<text text-anchor="middle" x="106.5" y="-73" font-family="Helvetica,sans-Serif" font-size="10.00">_window.hpp</text>
</a>
</g>
</g>
<!-- Node2 -->
<g id="Node000002" class="node">
<title>Node2</title>
<g id="a_Node000002"><a xlink:href="gui_8cpp.html" target="_top" xlink:title="This file implements the main GUI entry function that takes care of creating and rendering all window...">
<polygon fill="white" stroke="#666666" points="87,-24.5 0,-24.5 0,-5.5 87,-5.5 87,-24.5"/>
<text text-anchor="middle" x="43.5" y="-12.5" font-family="Helvetica,sans-Serif" font-size="10.00">src/gui/gui.cpp</text>
</a>
</g>
</g>
<!-- Node1&#45;&gt;Node2 -->
<g id="edge1_Node000001_Node000002" class="edge">
<title>Node1&#45;&gt;Node2</title>
<g id="a_edge1_Node000001_Node000002"><a xlink:title=" ">
<path fill="none" stroke="#63b8ff" d="M85.44,-58.6C74.11,-47.1 60.75,-33.52 52.21,-24.84"/>
<polygon fill="#63b8ff" stroke="#63b8ff" points="83.01,-61.13 92.52,-65.8 88,-56.21 83.01,-61.13"/>
</a>
</g>
</g>
<!-- Node3 -->
<g id="Node000003" class="node">
<title>Node3</title>
<g id="a_Node000003"><a xlink:href="control__window_8cpp.html" target="_top" xlink:title="This file implements a window that allows the user to control CPU execution.">
<polygon fill="white" stroke="#666666" points="236,-30 105,-30 105,0 236,0 236,-30"/>
<text text-anchor="start" x="113" y="-18" font-family="Helvetica,sans-Serif" font-size="10.00">src/gui/windows/control</text>
<text text-anchor="middle" x="170.5" y="-7" font-family="Helvetica,sans-Serif" font-size="10.00">_window.cpp</text>
</a>
</g>
</g>
<!-- Node1&#45;&gt;Node3 -->
<g id="edge2_Node000001_Node000003" class="edge">
<title>Node1&#45;&gt;Node3</title>
<g id="a_edge2_Node000001_Node000003"><a xlink:title=" ">
<path fill="none" stroke="#63b8ff" d="M127.85,-58.65C137.23,-49.27 147.97,-38.53 156.34,-30.16"/>
<polygon fill="#63b8ff" stroke="#63b8ff" points="125.3,-56.25 120.7,-65.8 130.25,-61.2 125.3,-56.25"/>
</a>
</g>
</g>
</g>
</svg>
