<?xml version="1.0" encoding="UTF-8" standalone="no"?>
<!DOCTYPE svg PUBLIC "-//W3C//DTD SVG 1.1//EN"
 "http://www.w3.org/Graphics/SVG/1.1/DTD/svg11.dtd">
<!-- Generated by graphviz version 2.43.0 (0)
 -->
<!-- Title: src/core/arm1176jzf_s/context.cpp Pages: 1 -->
<svg width="436pt" height="269pt"
 viewBox="0.00 0.00 436.00 269.00" xmlns="http://www.w3.org/2000/svg" xmlns:xlink="http://www.w3.org/1999/xlink">
<g id="graph0" class="graph" transform="scale(1 1) rotate(0) translate(4 265)">
<title>src/core/arm1176jzf_s/context.cpp</title>
<!-- Node1 -->
<g id="Node000001" class="node">
<title>Node1</title>
<g id="a_Node000001"><a xlink:title="This file implements the context (registers) of the CPU.">
<polygon fill="#999999" stroke="#666666" points="223,-261 110,-261 110,-231 223,-231 223,-261"/>
<text text-anchor="start" x="118" y="-249" font-family="Helvetica,sans-Serif" font-size="10.00">src/core/arm1176jzf</text>
<text text-anchor="middle" x="166.5" y="-238" font-family="Helvetica,sans-Serif" font-size="10.00">_s/context.cpp</text>
</a>
</g>
</g>
<!-- Node2 -->
<g id="Node000002" class="node">
<title>Node2</title>
<g id="a_Node000002"><a xlink:title=" ">
<polygon fill="#e0e0e0" stroke="#999999" points="101,-195 0,-195 0,-176 101,-176 101,-195"/>
<text text-anchor="middle" x="50.5" y="-183" font-family="Helvetica,sans-Serif" font-size="10.00">magic_enum.hpp</text>
</a>
</g>
</g>
<!-- Node1&#45;&gt;Node2 -->
<g id="edge1_Node000001_Node000002" class="edge">
<title>Node1&#45;&gt;Node2</title>
<g id="a_edge1_Node000001_Node000002"><a xlink:title=" ">
<path fill="none" stroke="#63b8ff" d="M138.72,-230.99C119.88,-221.49 95.15,-209.02 76.66,-199.69"/>
<polygon fill="#63b8ff" stroke="#63b8ff" points="78.14,-196.52 67.63,-195.14 74.98,-202.77 78.14,-196.52"/>
</a>
</g>
</g>
<!-- Node3 -->
<g id="Node000003" class="node">
<title>Node3</title>
<g id="a_Node000003"><a xlink:href="context_8hpp.html" target="_top" xlink:title="This file defines the context (registers) of the CPU.">
<polygon fill="white" stroke="#666666" points="166.5,-140 92.5,-140 92.5,-121 166.5,-121 166.5,-140"/>
<text text-anchor="middle" x="129.5" y="-128" font-family="Helvetica,sans-Serif" font-size="10.00">context.hpp</text>
</a>
</g>
</g>
<!-- Node1&#45;&gt;Node3 -->
<g id="edge2_Node000001_Node000003" class="edge">
<title>Node1&#45;&gt;Node3</title>
<g id="a_edge2_Node000001_Node000003"><a xlink:title=" ">
<path fill="none" stroke="#63b8ff" d="M161.5,-230.59C158.07,-220.61 153.44,-207.02 149.5,-195 144.55,-179.88 139.14,-162.66 135.2,-149.97"/>
<polygon fill="#63b8ff" stroke="#63b8ff" points="138.46,-148.67 132.16,-140.15 131.77,-150.74 138.46,-148.67"/>
</a>
</g>
</g>
<!-- Node6 -->
<g id="Node000006" class="node">
<title>Node6</title>
<g id="a_Node000006"><a xlink:href="exceptions_8hpp.html" target="_top" xlink:title="This file defines all exceptions that can be thrown by the CPU during execution.">
<polygon fill="white" stroke="#666666" points="249,-195 158,-195 158,-176 249,-176 249,-195"/>
<text text-anchor="middle" x="203.5" y="-183" font-family="Helvetica,sans-Serif" font-size="10.00">exceptions.hpp</text>
</a>
</g>
</g>
<!-- Node1&#45;&gt;Node6 -->
<g id="edge5_Node000001_Node000006" class="edge">
<title>Node1&#45;&gt;Node6</title>
<g id="a_edge5_Node000001_Node000006"><a xlink:title=" ">
<path fill="none" stroke="#63b8ff" d="M175.46,-230.84C180.61,-222.69 187.12,-212.4 192.57,-203.78"/>
<polygon fill="#63b8ff" stroke="#63b8ff" points="195.57,-205.59 197.96,-195.27 189.65,-201.85 195.57,-205.59"/>
</a>
</g>
</g>
<!-- Node8 -->
<g id="Node000008" class="node">
<title>Node8</title>
<g id="a_Node000008"><a xlink:href="singleton_8hpp.html" target="_top" xlink:title="This file defines and implements a generic class that is used to treat other classes as singletons.">
<polygon fill="white" stroke="#666666" points="428,-195 267,-195 267,-176 428,-176 428,-195"/>
<text text-anchor="middle" x="347.5" y="-183" font-family="Helvetica,sans-Serif" font-size="10.00">zero_mate/utils/singleton.hpp</text>
</a>
</g>
</g>
<!-- Node1&#45;&gt;Node8 -->
<g id="edge8_Node000001_Node000008" class="edge">
<title>Node1&#45;&gt;Node8</title>
<g id="a_edge8_Node000001_Node000008"><a xlink:title=" ">
<path fill="none" stroke="#63b8ff" d="M209.85,-230.99C240.82,-220.98 282,-207.67 311.23,-198.22"/>
<polygon fill="#63b8ff" stroke="#63b8ff" points="312.6,-201.46 321.03,-195.05 310.44,-194.8 312.6,-201.46"/>
</a>
</g>
</g>
<!-- Node4 -->
<g id="Node000004" class="node">
<title>Node4</title>
<g id="a_Node000004"><a xlink:href="logging__system_8hpp.html" target="_top" xlink:title="This file defines a logging system that is used in the project.">
<polygon fill="white" stroke="#666666" points="195,-85 64,-85 64,-55 195,-55 195,-85"/>
<text text-anchor="start" x="72" y="-73" font-family="Helvetica,sans-Serif" font-size="10.00">zero_mate/utils/logging</text>
<text text-anchor="middle" x="129.5" y="-62" font-family="Helvetica,sans-Serif" font-size="10.00">_system.hpp</text>
</a>
</g>
</g>
<!-- Node3&#45;&gt;Node4 -->
<g id="edge3_Node000003_Node000004" class="edge">
<title>Node3&#45;&gt;Node4</title>
<g id="a_edge3_Node000003_Node000004"><a xlink:title=" ">
<path fill="none" stroke="#63b8ff" d="M129.5,-120.87C129.5,-114.11 129.5,-104.35 129.5,-95.26"/>
<polygon fill="#63b8ff" stroke="#63b8ff" points="133,-95.11 129.5,-85.11 126,-95.11 133,-95.11"/>
</a>
</g>
</g>
<!-- Node5 -->
<g id="Node000005" class="node">
<title>Node5</title>
<g id="a_Node000005"><a xlink:href="logger_8hpp.html" target="_top" xlink:title="This file defines a general logger interface.">
<polygon fill="white" stroke="#666666" points="163.5,-19 95.5,-19 95.5,0 163.5,0 163.5,-19"/>
<text text-anchor="middle" x="129.5" y="-7" font-family="Helvetica,sans-Serif" font-size="10.00">logger.hpp</text>
</a>
</g>
</g>
<!-- Node4&#45;&gt;Node5 -->
<g id="edge4_Node000004_Node000005" class="edge">
<title>Node4&#45;&gt;Node5</title>
<g id="a_edge4_Node000004_Node000005"><a xlink:title=" ">
<path fill="none" stroke="#63b8ff" d="M129.5,-54.84C129.5,-47.21 129.5,-37.7 129.5,-29.45"/>
<polygon fill="#63b8ff" stroke="#63b8ff" points="133,-29.27 129.5,-19.27 126,-29.27 133,-29.27"/>
</a>
</g>
</g>
<!-- Node6&#45;&gt;Node3 -->
<g id="edge7_Node000006_Node000003" class="edge">
<title>Node6&#45;&gt;Node3</title>
<g id="a_edge7_Node000006_Node000003"><a xlink:title=" ">
<path fill="none" stroke="#63b8ff" d="M191.61,-175.98C180.35,-167.92 163.21,-155.65 149.79,-146.03"/>
<polygon fill="#63b8ff" stroke="#63b8ff" points="151.77,-143.15 141.61,-140.17 147.7,-148.84 151.77,-143.15"/>
</a>
</g>
</g>
<!-- Node7 -->
<g id="Node000007" class="node">
<title>Node7</title>
<g id="a_Node000007"><a xlink:title=" ">
<polygon fill="#e0e0e0" stroke="#999999" points="264,-140 185,-140 185,-121 264,-121 264,-140"/>
<text text-anchor="middle" x="224.5" y="-128" font-family="Helvetica,sans-Serif" font-size="10.00">fmt/format.h</text>
</a>
</g>
</g>
<!-- Node6&#45;&gt;Node7 -->
<g id="edge6_Node000006_Node000007" class="edge">
<title>Node6&#45;&gt;Node7</title>
<g id="a_edge6_Node000006_Node000007"><a xlink:title=" ">
<path fill="none" stroke="#63b8ff" d="M206.97,-175.75C209.78,-168.65 213.84,-158.4 217.35,-149.56"/>
<polygon fill="#63b8ff" stroke="#63b8ff" points="220.67,-150.68 221.1,-140.09 214.16,-148.1 220.67,-150.68"/>
</a>
</g>
</g>
</g>
</svg>
