<?xml version="1.0" encoding="UTF-8" standalone="no"?>
<!DOCTYPE svg PUBLIC "-//W3C//DTD SVG 1.1//EN"
 "http://www.w3.org/Graphics/SVG/1.1/DTD/svg11.dtd">
<!-- Generated by graphviz version 2.43.0 (0)
 -->
<!-- Title: src/core/coprocessors/cp10/isa/data_processing.hpp Pages: 1 -->
<svg width="534pt" height="302pt"
 viewBox="0.00 0.00 534.00 302.00" xmlns="http://www.w3.org/2000/svg" xmlns:xlink="http://www.w3.org/1999/xlink">
<g id="graph0" class="graph" transform="scale(1 1) rotate(0) translate(4 298)">
<title>src/core/coprocessors/cp10/isa/data_processing.hpp</title>
<!-- Node1 -->
<g id="Node000001" class="node">
<title>Node1</title>
<g id="a_Node000001"><a xlink:title="This file defines a data processing instruction.">
<polygon fill="#999999" stroke="#666666" points="243.5,-294 79.5,-294 79.5,-264 243.5,-264 243.5,-294"/>
<text text-anchor="start" x="87.5" y="-282" font-family="Helvetica,sans-Serif" font-size="10.00">src/core/coprocessors</text>
<text text-anchor="middle" x="161.5" y="-271" font-family="Helvetica,sans-Serif" font-size="10.00">/cp10/isa/data_processing.hpp</text>
</a>
</g>
</g>
<!-- Node2 -->
<g id="Node000002" class="node">
<title>Node2</title>
<g id="a_Node000002"><a xlink:href="coprocessors_2cp10_2isa_2data__processing_8cpp.html" target="_top" xlink:title="This file implements a data processing instruction.">
<polygon fill="white" stroke="#666666" points="163,-228 0,-228 0,-198 163,-198 163,-228"/>
<text text-anchor="start" x="8" y="-216" font-family="Helvetica,sans-Serif" font-size="10.00">src/core/coprocessors</text>
<text text-anchor="middle" x="81.5" y="-205" font-family="Helvetica,sans-Serif" font-size="10.00">/cp10/isa/data_processing.cpp</text>
</a>
</g>
</g>
<!-- Node1&#45;&gt;Node2 -->
<g id="edge1_Node000001_Node000002" class="edge">
<title>Node1&#45;&gt;Node2</title>
<g id="a_edge1_Node000001_Node000002"><a xlink:title=" ">
<path fill="none" stroke="#63b8ff" d="M135.85,-257.48C123.89,-247.91 109.97,-236.77 99.2,-228.16"/>
<polygon fill="#63b8ff" stroke="#63b8ff" points="133.75,-260.28 143.75,-263.8 138.12,-254.82 133.75,-260.28"/>
</a>
</g>
</g>
<!-- Node3 -->
<g id="Node000003" class="node">
<title>Node3</title>
<g id="a_Node000003"><a xlink:href="coprocessors_2cp10_2isa_2isa_8hpp.html" target="_top" xlink:title="This file combines different instruction type includes together.">
<polygon fill="white" stroke="#666666" points="303.5,-228 181.5,-228 181.5,-198 303.5,-198 303.5,-228"/>
<text text-anchor="start" x="189.5" y="-216" font-family="Helvetica,sans-Serif" font-size="10.00">src/core/coprocessors</text>
<text text-anchor="middle" x="242.5" y="-205" font-family="Helvetica,sans-Serif" font-size="10.00">/cp10/isa/isa.hpp</text>
</a>
</g>
</g>
<!-- Node1&#45;&gt;Node3 -->
<g id="edge2_Node000001_Node000003" class="edge">
<title>Node1&#45;&gt;Node3</title>
<g id="a_edge2_Node000001_Node000003"><a xlink:title=" ">
<path fill="none" stroke="#63b8ff" d="M187.47,-257.48C199.58,-247.91 213.68,-236.77 224.57,-228.16"/>
<polygon fill="#63b8ff" stroke="#63b8ff" points="185.15,-254.85 179.48,-263.8 189.49,-260.34 185.15,-254.85"/>
</a>
</g>
</g>
<!-- Node4 -->
<g id="Node000004" class="node">
<title>Node4</title>
<g id="a_Node000004"><a xlink:href="cp10_8hpp.html" target="_top" xlink:title="This file defines coprocessor CP10 (single&#45;precision FPU).">
<polygon fill="white" stroke="#666666" points="303.5,-162 181.5,-162 181.5,-132 303.5,-132 303.5,-162"/>
<text text-anchor="start" x="189.5" y="-150" font-family="Helvetica,sans-Serif" font-size="10.00">src/core/coprocessors</text>
<text text-anchor="middle" x="242.5" y="-139" font-family="Helvetica,sans-Serif" font-size="10.00">/cp10/cp10.hpp</text>
</a>
</g>
</g>
<!-- Node3&#45;&gt;Node4 -->
<g id="edge3_Node000003_Node000004" class="edge">
<title>Node3&#45;&gt;Node4</title>
<g id="a_edge3_Node000003_Node000004"><a xlink:title=" ">
<path fill="none" stroke="#63b8ff" d="M242.5,-187.54C242.5,-178.96 242.5,-169.61 242.5,-162.16"/>
<polygon fill="#63b8ff" stroke="#63b8ff" points="239,-187.8 242.5,-197.8 246,-187.8 239,-187.8"/>
</a>
</g>
</g>
<!-- Node5 -->
<g id="Node000005" class="node">
<title>Node5</title>
<g id="a_Node000005"><a xlink:href="cp10_8cpp.html" target="_top" xlink:title="This file implements coprocessor CP10 (single&#45;precision FPU).">
<polygon fill="white" stroke="#666666" points="176.5,-96 54.5,-96 54.5,-66 176.5,-66 176.5,-96"/>
<text text-anchor="start" x="62.5" y="-84" font-family="Helvetica,sans-Serif" font-size="10.00">src/core/coprocessors</text>
<text text-anchor="middle" x="115.5" y="-73" font-family="Helvetica,sans-Serif" font-size="10.00">/cp10/cp10.cpp</text>
</a>
</g>
</g>
<!-- Node4&#45;&gt;Node5 -->
<g id="edge4_Node000004_Node000005" class="edge">
<title>Node4&#45;&gt;Node5</title>
<g id="a_edge4_Node000004_Node000005"><a xlink:title=" ">
<path fill="none" stroke="#63b8ff" d="M205.55,-127.38C185.67,-117.36 161.57,-105.22 143.31,-96.01"/>
<polygon fill="#63b8ff" stroke="#63b8ff" points="204.12,-130.58 214.63,-131.95 207.27,-124.33 204.12,-130.58"/>
</a>
</g>
</g>
<!-- Node6 -->
<g id="Node000006" class="node">
<title>Node6</title>
<g id="a_Node000006"><a xlink:href="soc_8hpp.html" target="_top" xlink:title=" ">
<polygon fill="white" stroke="#666666" points="290,-90.5 195,-90.5 195,-71.5 290,-71.5 290,-90.5"/>
<text text-anchor="middle" x="242.5" y="-78.5" font-family="Helvetica,sans-Serif" font-size="10.00">src/core/soc.hpp</text>
</a>
</g>
</g>
<!-- Node4&#45;&gt;Node6 -->
<g id="edge5_Node000004_Node000006" class="edge">
<title>Node4&#45;&gt;Node6</title>
<g id="a_edge5_Node000004_Node000006"><a xlink:title=" ">
<path fill="none" stroke="#63b8ff" d="M242.5,-121.6C242.5,-110.8 242.5,-98.78 242.5,-90.84"/>
<polygon fill="#63b8ff" stroke="#63b8ff" points="239,-121.8 242.5,-131.8 246,-121.8 239,-121.8"/>
</a>
</g>
</g>
<!-- Node10 -->
<g id="Node000010" class="node">
<title>Node10</title>
<g id="a_Node000010"><a xlink:href="cp10__window_8hpp.html" target="_top" xlink:title="This file defines a window that displays data (information) related to coprocessor 10 (FPU).">
<polygon fill="white" stroke="#666666" points="429,-96 308,-96 308,-66 429,-66 429,-96"/>
<text text-anchor="start" x="316" y="-84" font-family="Helvetica,sans-Serif" font-size="10.00">src/gui/windows/cp10</text>
<text text-anchor="middle" x="368.5" y="-73" font-family="Helvetica,sans-Serif" font-size="10.00">_window.hpp</text>
</a>
</g>
</g>
<!-- Node4&#45;&gt;Node10 -->
<g id="edge9_Node000004_Node000010" class="edge">
<title>Node4&#45;&gt;Node10</title>
<g id="a_edge9_Node000004_Node000010"><a xlink:title=" ">
<path fill="none" stroke="#63b8ff" d="M279.16,-127.38C298.88,-117.36 322.79,-105.22 340.91,-96.01"/>
<polygon fill="#63b8ff" stroke="#63b8ff" points="277.48,-124.31 270.15,-131.95 280.65,-130.55 277.48,-124.31"/>
</a>
</g>
</g>
<!-- Node7 -->
<g id="Node000007" class="node">
<title>Node7</title>
<g id="a_Node000007"><a xlink:href="soc_8cpp.html" target="_top" xlink:title=" ">
<polygon fill="white" stroke="#666666" points="185,-24.5 90,-24.5 90,-5.5 185,-5.5 185,-24.5"/>
<text text-anchor="middle" x="137.5" y="-12.5" font-family="Helvetica,sans-Serif" font-size="10.00">src/core/soc.cpp</text>
</a>
</g>
</g>
<!-- Node6&#45;&gt;Node7 -->
<g id="edge6_Node000006_Node000007" class="edge">
<title>Node6&#45;&gt;Node7</title>
<g id="a_edge6_Node000006_Node000007"><a xlink:title=" ">
<path fill="none" stroke="#63b8ff" d="M219.56,-66.02C198.91,-53.43 169.2,-35.32 151.77,-24.7"/>
<polygon fill="#63b8ff" stroke="#63b8ff" points="217.98,-69.15 228.34,-71.37 221.62,-63.18 217.98,-69.15"/>
</a>
</g>
</g>
<!-- Node8 -->
<g id="Node000008" class="node">
<title>Node8</title>
<g id="a_Node000008"><a xlink:href="gui_8cpp.html" target="_top" xlink:title="This file implements the main GUI entry function that takes care of creating and rendering all window...">
<polygon fill="white" stroke="#666666" points="387,-24.5 300,-24.5 300,-5.5 387,-5.5 387,-24.5"/>
<text text-anchor="middle" x="343.5" y="-12.5" font-family="Helvetica,sans-Serif" font-size="10.00">src/gui/gui.cpp</text>
</a>
</g>
</g>
<!-- Node6&#45;&gt;Node8 -->
<g id="edge7_Node000006_Node000008" class="edge">
<title>Node6&#45;&gt;Node8</title>
<g id="a_edge7_Node000006_Node000008"><a xlink:title=" ">
<path fill="none" stroke="#63b8ff" d="M264.83,-65.85C284.69,-53.27 313.08,-35.28 329.77,-24.7"/>
<polygon fill="#63b8ff" stroke="#63b8ff" points="262.69,-63.06 256.12,-71.37 266.44,-68.97 262.69,-63.06"/>
</a>
</g>
</g>
<!-- Node9 -->
<g id="Node000009" class="node">
<title>Node9</title>
<g id="a_Node000009"><a xlink:href="main_8cpp.html" target="_top" xlink:title="This file defines and implements the main function of the application.">
<polygon fill="white" stroke="#666666" points="282,-24.5 203,-24.5 203,-5.5 282,-5.5 282,-24.5"/>
<text text-anchor="middle" x="242.5" y="-12.5" font-family="Helvetica,sans-Serif" font-size="10.00">src/main.cpp</text>
</a>
</g>
</g>
<!-- Node6&#45;&gt;Node9 -->
<g id="edge8_Node000006_Node000009" class="edge">
<title>Node6&#45;&gt;Node9</title>
<g id="a_edge8_Node000006_Node000009"><a xlink:title=" ">
<path fill="none" stroke="#63b8ff" d="M242.5,-61.08C242.5,-49.13 242.5,-34.22 242.5,-24.91"/>
<polygon fill="#63b8ff" stroke="#63b8ff" points="239,-61.37 242.5,-71.37 246,-61.37 239,-61.37"/>
</a>
</g>
</g>
<!-- Node10&#45;&gt;Node8 -->
<g id="edge10_Node000010_Node000008" class="edge">
<title>Node10&#45;&gt;Node8</title>
<g id="a_edge10_Node000010_Node000008"><a xlink:title=" ">
<path fill="none" stroke="#63b8ff" d="M359.23,-56.28C354.95,-45.31 350.12,-32.94 346.95,-24.84"/>
<polygon fill="#63b8ff" stroke="#63b8ff" points="356.05,-57.76 362.95,-65.8 362.57,-55.21 356.05,-57.76"/>
</a>
</g>
</g>
<!-- Node11 -->
<g id="Node000011" class="node">
<title>Node11</title>
<g id="a_Node000011"><a xlink:href="cp10__window_8cpp.html" target="_top" xlink:title="This file implements a window that displays data (information) related to coprocessor 10 (FPU).">
<polygon fill="white" stroke="#666666" points="526,-30 405,-30 405,0 526,0 526,-30"/>
<text text-anchor="start" x="413" y="-18" font-family="Helvetica,sans-Serif" font-size="10.00">src/gui/windows/cp10</text>
<text text-anchor="middle" x="465.5" y="-7" font-family="Helvetica,sans-Serif" font-size="10.00">_window.cpp</text>
</a>
</g>
</g>
<!-- Node10&#45;&gt;Node11 -->
<g id="edge11_Node000010_Node000011" class="edge">
<title>Node10&#45;&gt;Node11</title>
<g id="a_edge11_Node000010_Node000011"><a xlink:title=" ">
<path fill="none" stroke="#63b8ff" d="M398.77,-60.03C413.45,-50.34 430.73,-38.94 444.03,-30.16"/>
<polygon fill="#63b8ff" stroke="#63b8ff" points="396.45,-57.37 390.03,-65.8 400.3,-63.21 396.45,-57.37"/>
</a>
</g>
</g>
</g>
</svg>
