<?xml version="1.0" encoding="UTF-8" standalone="no"?>
<!DOCTYPE svg PUBLIC "-//W3C//DTD SVG 1.1//EN"
 "http://www.w3.org/Graphics/SVG/1.1/DTD/svg11.dtd">
<!-- Generated by graphviz version 2.43.0 (0)
 -->
<!-- Title: src/core/coprocessors/coprocessor.hpp Pages: 1 -->
<svg width="1602pt" height="441pt"
 viewBox="0.00 0.00 1601.50 441.00" xmlns="http://www.w3.org/2000/svg" xmlns:xlink="http://www.w3.org/1999/xlink">
<g id="graph0" class="graph" transform="scale(1 1) rotate(0) translate(4 437)">
<title>src/core/coprocessors/coprocessor.hpp</title>
<!-- Node1 -->
<g id="node1" class="node">
<title>Node1</title>
<g id="a_node1"><a xlink:title="This file defines a general interface of a coprocessor.">
<polygon fill="#bfbfbf" stroke="black" points="299,-402.5 299,-432.5 421,-432.5 421,-402.5 299,-402.5"/>
<text text-anchor="start" x="307" y="-420.5" font-family="Helvetica,sans-Serif" font-size="10.00">src/core/coprocessors</text>
<text text-anchor="middle" x="360" y="-409.5" font-family="Helvetica,sans-Serif" font-size="10.00">/coprocessor.hpp</text>
</a>
</g>
</g>
<!-- Node2 -->
<g id="node2" class="node">
<title>Node2</title>
<g id="a_node2"><a xlink:href="coprocessor_8cpp.html" target="_top" xlink:title="This file implements the common functionality of a general interface of a coprocessor.">
<polygon fill="none" stroke="black" points="0,-67.5 0,-97.5 122,-97.5 122,-67.5 0,-67.5"/>
<text text-anchor="start" x="8" y="-85.5" font-family="Helvetica,sans-Serif" font-size="10.00">src/core/coprocessors</text>
<text text-anchor="middle" x="61" y="-74.5" font-family="Helvetica,sans-Serif" font-size="10.00">/coprocessor.cpp</text>
</a>
</g>
</g>
<!-- Node1&#45;&gt;Node2 -->
<g id="edge1" class="edge">
<title>Node1&#45;&gt;Node2</title>
<path fill="none" stroke="midnightblue" d="M295.56,-399.14C242.52,-380.48 176,-345.01 176,-284.5 176,-284.5 176,-284.5 176,-215.5 176,-161.25 120.09,-118.48 86.24,-97.55"/>
<polygon fill="midnightblue" stroke="midnightblue" points="294.7,-402.54 305.29,-402.43 296.94,-395.91 294.7,-402.54"/>
</g>
<!-- Node3 -->
<g id="node3" class="node">
<title>Node3</title>
<g id="a_node3"><a xlink:href="cp10_8hpp.html" target="_top" xlink:title="This file defines coprocessor CP10 (single&#45;precision FPU).">
<polygon fill="none" stroke="black" points="299,-134.5 299,-164.5 421,-164.5 421,-134.5 299,-134.5"/>
<text text-anchor="start" x="307" y="-152.5" font-family="Helvetica,sans-Serif" font-size="10.00">src/core/coprocessors</text>
<text text-anchor="middle" x="360" y="-141.5" font-family="Helvetica,sans-Serif" font-size="10.00">/cp10/cp10.hpp</text>
</a>
</g>
</g>
<!-- Node1&#45;&gt;Node3 -->
<g id="edge2" class="edge">
<title>Node1&#45;&gt;Node3</title>
<path fill="none" stroke="midnightblue" d="M360,-392.07C360,-337.57 360,-207.52 360,-164.55"/>
<polygon fill="midnightblue" stroke="midnightblue" points="356.5,-392.2 360,-402.2 363.5,-392.2 356.5,-392.2"/>
</g>
<!-- Node11 -->
<g id="node11" class="node">
<title>Node11</title>
<g id="a_node11"><a xlink:href="cp15_8hpp.html" target="_top" xlink:title="This file defines coprocessor CP15.">
<polygon fill="none" stroke="black" points="623,-335.5 623,-365.5 745,-365.5 745,-335.5 623,-335.5"/>
<text text-anchor="start" x="631" y="-353.5" font-family="Helvetica,sans-Serif" font-size="10.00">src/core/coprocessors</text>
<text text-anchor="middle" x="684" y="-342.5" font-family="Helvetica,sans-Serif" font-size="10.00">/cp15/cp15.hpp</text>
</a>
</g>
</g>
<!-- Node1&#45;&gt;Node11 -->
<g id="edge11" class="edge">
<title>Node1&#45;&gt;Node11</title>
<path fill="none" stroke="midnightblue" d="M431.4,-402.17C488.78,-390.67 568.49,-374.67 622.93,-363.75"/>
<polygon fill="midnightblue" stroke="midnightblue" points="430.44,-398.8 421.32,-404.2 431.82,-405.66 430.44,-398.8"/>
</g>
<!-- Node4 -->
<g id="node4" class="node">
<title>Node4</title>
<g id="a_node4"><a xlink:href="cp10_8cpp.html" target="_top" xlink:title="This file implements coprocessor CP10 (single&#45;precision FPU).">
<polygon fill="none" stroke="black" points="280,-67.5 280,-97.5 402,-97.5 402,-67.5 280,-67.5"/>
<text text-anchor="start" x="288" y="-85.5" font-family="Helvetica,sans-Serif" font-size="10.00">src/core/coprocessors</text>
<text text-anchor="middle" x="341" y="-74.5" font-family="Helvetica,sans-Serif" font-size="10.00">/cp10/cp10.cpp</text>
</a>
</g>
</g>
<!-- Node3&#45;&gt;Node4 -->
<g id="edge3" class="edge">
<title>Node3&#45;&gt;Node4</title>
<path fill="none" stroke="midnightblue" d="M353.04,-124.7C350.38,-115.59 347.43,-105.49 345.11,-97.58"/>
<polygon fill="midnightblue" stroke="midnightblue" points="349.71,-125.78 355.88,-134.4 356.43,-123.82 349.71,-125.78"/>
</g>
<!-- Node5 -->
<g id="node5" class="node">
<title>Node5</title>
<g id="a_node5"><a xlink:href="soc_8hpp.html" target="_top" xlink:title=" ">
<polygon fill="none" stroke="black" points="420.5,-73 420.5,-92 515.5,-92 515.5,-73 420.5,-73"/>
<text text-anchor="middle" x="468" y="-80" font-family="Helvetica,sans-Serif" font-size="10.00">src/core/soc.hpp</text>
</a>
</g>
</g>
<!-- Node3&#45;&gt;Node5 -->
<g id="edge4" class="edge">
<title>Node3&#45;&gt;Node5</title>
<path fill="none" stroke="midnightblue" d="M392.17,-129.14C412.69,-116.79 438.28,-101.39 453.87,-92.01"/>
<polygon fill="midnightblue" stroke="midnightblue" points="390.2,-126.24 383.43,-134.4 393.81,-132.24 390.2,-126.24"/>
</g>
<!-- Node9 -->
<g id="node9" class="node">
<title>Node9</title>
<g id="a_node9"><a xlink:href="cp10__window_8hpp.html" target="_top" xlink:title="This file defines a window that displays data (information) related to coprocessor 10 (FPU).">
<polygon fill="none" stroke="black" points="140.5,-67.5 140.5,-97.5 261.5,-97.5 261.5,-67.5 140.5,-67.5"/>
<text text-anchor="start" x="148.5" y="-85.5" font-family="Helvetica,sans-Serif" font-size="10.00">src/gui/windows/cp10</text>
<text text-anchor="middle" x="201" y="-74.5" font-family="Helvetica,sans-Serif" font-size="10.00">_window.hpp</text>
</a>
</g>
</g>
<!-- Node3&#45;&gt;Node9 -->
<g id="edge8" class="edge">
<title>Node3&#45;&gt;Node9</title>
<path fill="none" stroke="midnightblue" d="M316.08,-130.54C290.63,-120.14 259.07,-107.24 235.43,-97.58"/>
<polygon fill="midnightblue" stroke="midnightblue" points="314.92,-133.85 325.5,-134.4 317.57,-127.37 314.92,-133.85"/>
</g>
<!-- Node6 -->
<g id="node6" class="node">
<title>Node6</title>
<g id="a_node6"><a xlink:href="soc_8cpp.html" target="_top" xlink:title=" ">
<polygon fill="none" stroke="black" points="376.5,-6 376.5,-25 471.5,-25 471.5,-6 376.5,-6"/>
<text text-anchor="middle" x="424" y="-13" font-family="Helvetica,sans-Serif" font-size="10.00">src/core/soc.cpp</text>
</a>
</g>
</g>
<!-- Node5&#45;&gt;Node6 -->
<g id="edge5" class="edge">
<title>Node5&#45;&gt;Node6</title>
<path fill="none" stroke="midnightblue" d="M456.43,-64.4C447.88,-51.77 436.59,-35.1 429.84,-25.13"/>
<polygon fill="midnightblue" stroke="midnightblue" points="453.56,-66.41 462.07,-72.73 459.36,-62.49 453.56,-66.41"/>
</g>
<!-- Node7 -->
<g id="node7" class="node">
<title>Node7</title>
<g id="a_node7"><a xlink:href="gui_8cpp.html" target="_top" xlink:title="This file implements the main GUI entry function that takes care of creating and rendering all window...">
<polygon fill="none" stroke="black" points="752.5,-6 752.5,-25 839.5,-25 839.5,-6 752.5,-6"/>
<text text-anchor="middle" x="796" y="-13" font-family="Helvetica,sans-Serif" font-size="10.00">src/gui/gui.cpp</text>
</a>
</g>
</g>
<!-- Node5&#45;&gt;Node7 -->
<g id="edge6" class="edge">
<title>Node5&#45;&gt;Node7</title>
<path fill="none" stroke="midnightblue" d="M509.44,-70.52C514.66,-69.26 519.94,-68.06 525,-67 621.55,-46.82 647.68,-52.28 744,-31 751.69,-29.3 759.93,-27.16 767.53,-25.04"/>
<polygon fill="midnightblue" stroke="midnightblue" points="508.41,-67.16 499.54,-72.96 510.09,-73.96 508.41,-67.16"/>
</g>
<!-- Node8 -->
<g id="node8" class="node">
<title>Node8</title>
<g id="a_node8"><a xlink:href="main_8cpp.html" target="_top" xlink:title="This file defines and implements the main function of the application.">
<polygon fill="none" stroke="black" points="489.5,-6 489.5,-25 568.5,-25 568.5,-6 489.5,-6"/>
<text text-anchor="middle" x="529" y="-13" font-family="Helvetica,sans-Serif" font-size="10.00">src/main.cpp</text>
</a>
</g>
</g>
<!-- Node5&#45;&gt;Node8 -->
<g id="edge7" class="edge">
<title>Node5&#45;&gt;Node8</title>
<path fill="none" stroke="midnightblue" d="M483.36,-65.13C495.29,-52.42 511.36,-35.3 520.9,-25.13"/>
<polygon fill="midnightblue" stroke="midnightblue" points="480.52,-63.05 476.23,-72.73 485.62,-67.84 480.52,-63.05"/>
</g>
<!-- Node9&#45;&gt;Node7 -->
<g id="edge9" class="edge">
<title>Node9&#45;&gt;Node7</title>
<path fill="none" stroke="midnightblue" d="M271.73,-67.04C481.57,-38.48 539.6,-66.92 744,-31 752.31,-29.54 761.2,-27.31 769.24,-25.04"/>
<polygon fill="midnightblue" stroke="midnightblue" points="271.05,-63.6 261.62,-68.45 272.01,-70.54 271.05,-63.6"/>
</g>
<!-- Node10 -->
<g id="node10" class="node">
<title>Node10</title>
<g id="a_node10"><a xlink:href="cp10__window_8cpp.html" target="_top" xlink:title="This file implements a window that displays data (information) related to coprocessor 10 (FPU).">
<polygon fill="none" stroke="black" points="140.5,-0.5 140.5,-30.5 261.5,-30.5 261.5,-0.5 140.5,-0.5"/>
<text text-anchor="start" x="148.5" y="-18.5" font-family="Helvetica,sans-Serif" font-size="10.00">src/gui/windows/cp10</text>
<text text-anchor="middle" x="201" y="-7.5" font-family="Helvetica,sans-Serif" font-size="10.00">_window.cpp</text>
</a>
</g>
</g>
<!-- Node9&#45;&gt;Node10 -->
<g id="edge10" class="edge">
<title>Node9&#45;&gt;Node10</title>
<path fill="none" stroke="midnightblue" d="M201,-57.11C201,-48.15 201,-38.32 201,-30.58"/>
<polygon fill="midnightblue" stroke="midnightblue" points="197.5,-57.4 201,-67.4 204.5,-57.4 197.5,-57.4"/>
</g>
<!-- Node11&#45;&gt;Node5 -->
<g id="edge46" class="edge">
<title>Node11&#45;&gt;Node5</title>
<path fill="none" stroke="midnightblue" d="M655.42,-329.41C613.74,-298.67 536.55,-236 493,-165 478.3,-141.03 471.65,-107.75 469.2,-92.18"/>
<polygon fill="midnightblue" stroke="midnightblue" points="653.6,-332.42 663.75,-335.48 657.72,-326.76 653.6,-332.42"/>
</g>
<!-- Node12 -->
<g id="node12" class="node">
<title>Node12</title>
<g id="a_node12"><a xlink:href="core_8hpp.html" target="_top" xlink:title="This file defines a class that represents a CPU core (arm1176jzf_s).">
<polygon fill="none" stroke="black" points="534.5,-134.5 534.5,-164.5 647.5,-164.5 647.5,-134.5 534.5,-134.5"/>
<text text-anchor="start" x="542.5" y="-152.5" font-family="Helvetica,sans-Serif" font-size="10.00">src/core/arm1176jzf</text>
<text text-anchor="middle" x="591" y="-141.5" font-family="Helvetica,sans-Serif" font-size="10.00">_s/core.hpp</text>
</a>
</g>
</g>
<!-- Node11&#45;&gt;Node12 -->
<g id="edge12" class="edge">
<title>Node11&#45;&gt;Node12</title>
<path fill="none" stroke="midnightblue" d="M669.81,-326.69C655.74,-303.45 634.14,-266.08 619,-232 608.79,-209.03 599.93,-181.11 595.03,-164.63"/>
<polygon fill="midnightblue" stroke="midnightblue" points="666.96,-328.73 675.16,-335.44 672.94,-325.08 666.96,-328.73"/>
</g>
<!-- Node22 -->
<g id="node22" class="node">
<title>Node22</title>
<g id="a_node22"><a xlink:href="mmu_8hpp.html" target="_top" xlink:title="This file defines the MMU (memory management unit) of the CPU.">
<polygon fill="none" stroke="black" points="627.5,-201.5 627.5,-231.5 740.5,-231.5 740.5,-201.5 627.5,-201.5"/>
<text text-anchor="start" x="635.5" y="-219.5" font-family="Helvetica,sans-Serif" font-size="10.00">src/core/arm1176jzf</text>
<text text-anchor="middle" x="684" y="-208.5" font-family="Helvetica,sans-Serif" font-size="10.00">_s/mmu/mmu.hpp</text>
</a>
</g>
</g>
<!-- Node11&#45;&gt;Node22 -->
<g id="edge29" class="edge">
<title>Node11&#45;&gt;Node22</title>
<path fill="none" stroke="midnightblue" d="M684,-325.02C684,-297.51 684,-253.79 684,-231.52"/>
<polygon fill="midnightblue" stroke="midnightblue" points="680.5,-325.37 684,-335.37 687.5,-325.37 680.5,-325.37"/>
</g>
<!-- Node24 -->
<g id="node24" class="node">
<title>Node24</title>
<g id="a_node24"><a xlink:href="bus_8hpp.html" target="_top" xlink:title="This file defines an interface the CPU uses to access different memory&#45;mapped peripherals.">
<polygon fill="none" stroke="black" points="721,-274 721,-293 817,-293 817,-274 721,-274"/>
<text text-anchor="middle" x="769" y="-281" font-family="Helvetica,sans-Serif" font-size="10.00">src/core/bus.hpp</text>
</a>
</g>
</g>
<!-- Node11&#45;&gt;Node24 -->
<g id="edge33" class="edge">
<title>Node11&#45;&gt;Node24</title>
<path fill="none" stroke="midnightblue" d="M710.8,-329.01C726.58,-316.94 745.72,-302.3 757.63,-293.19"/>
<polygon fill="midnightblue" stroke="midnightblue" points="708.26,-326.54 702.44,-335.4 712.51,-332.1 708.26,-326.54"/>
</g>
<!-- Node28 -->
<g id="node28" class="node">
<title>Node28</title>
<g id="a_node28"><a xlink:href="cp15_8cpp.html" target="_top" xlink:title="This file implements coprocessor CP15.">
<polygon fill="none" stroke="black" points="835,-268.5 835,-298.5 957,-298.5 957,-268.5 835,-268.5"/>
<text text-anchor="start" x="843" y="-286.5" font-family="Helvetica,sans-Serif" font-size="10.00">src/core/coprocessors</text>
<text text-anchor="middle" x="896" y="-275.5" font-family="Helvetica,sans-Serif" font-size="10.00">/cp15/cp15.cpp</text>
</a>
</g>
</g>
<!-- Node11&#45;&gt;Node28 -->
<g id="edge45" class="edge">
<title>Node11&#45;&gt;Node28</title>
<path fill="none" stroke="midnightblue" d="M739.63,-332.44C773.99,-321.91 817.56,-308.55 849.98,-298.61"/>
<polygon fill="midnightblue" stroke="midnightblue" points="738.27,-329.2 729.74,-335.48 740.33,-335.89 738.27,-329.2"/>
</g>
<!-- Node29 -->
<g id="node29" class="node">
<title>Node29</title>
<g id="a_node29"><a xlink:href="cp15__window_8hpp.html" target="_top" xlink:title="This file defines a window that displays data (information) related to coprocessor 15.">
<polygon fill="none" stroke="black" points="1383.5,-268.5 1383.5,-298.5 1504.5,-298.5 1504.5,-268.5 1383.5,-268.5"/>
<text text-anchor="start" x="1391.5" y="-286.5" font-family="Helvetica,sans-Serif" font-size="10.00">src/gui/windows/cp15</text>
<text text-anchor="middle" x="1444" y="-275.5" font-family="Helvetica,sans-Serif" font-size="10.00">_window.hpp</text>
</a>
</g>
</g>
<!-- Node11&#45;&gt;Node29 -->
<g id="edge47" class="edge">
<title>Node11&#45;&gt;Node29</title>
<path fill="none" stroke="midnightblue" d="M755.61,-343.38C904.39,-330.65 1244.63,-301.55 1383.4,-289.68"/>
<polygon fill="midnightblue" stroke="midnightblue" points="754.89,-339.92 745.23,-344.26 755.49,-346.9 754.89,-339.92"/>
</g>
<!-- Node12&#45;&gt;Node2 -->
<g id="edge14" class="edge">
<title>Node12&#45;&gt;Node2</title>
<path fill="none" stroke="midnightblue" d="M524.03,-141.94C415.28,-131.15 204.99,-109.7 131,-98 128.06,-97.53 125.05,-97.03 122.02,-96.5"/>
<polygon fill="midnightblue" stroke="midnightblue" points="523.94,-145.45 534.23,-142.95 524.62,-138.48 523.94,-145.45"/>
</g>
<!-- Node12&#45;&gt;Node4 -->
<g id="edge15" class="edge">
<title>Node12&#45;&gt;Node4</title>
<path fill="none" stroke="midnightblue" d="M527.22,-131.92C486.42,-121.31 434.07,-107.7 395.27,-97.61"/>
<polygon fill="midnightblue" stroke="midnightblue" points="526.5,-135.35 537.06,-134.48 528.26,-128.57 526.5,-135.35"/>
</g>
<!-- Node12&#45;&gt;Node5 -->
<g id="edge16" class="edge">
<title>Node12&#45;&gt;Node5</title>
<path fill="none" stroke="midnightblue" d="M555.31,-129.64C531.78,-117.2 502.09,-101.51 484.1,-92.01"/>
<polygon fill="midnightblue" stroke="midnightblue" points="553.83,-132.82 564.31,-134.4 557.1,-126.63 553.83,-132.82"/>
</g>
<!-- Node13 -->
<g id="node13" class="node">
<title>Node13</title>
<g id="a_node13"><a xlink:href="core_8cpp.html" target="_top" xlink:title="This file implements the CCPU_Core class defined in core.hpp.">
<polygon fill="none" stroke="black" points="533.5,-67.5 533.5,-97.5 646.5,-97.5 646.5,-67.5 533.5,-67.5"/>
<text text-anchor="start" x="541.5" y="-85.5" font-family="Helvetica,sans-Serif" font-size="10.00">src/core/arm1176jzf</text>
<text text-anchor="middle" x="590" y="-74.5" font-family="Helvetica,sans-Serif" font-size="10.00">_s/core.cpp</text>
</a>
</g>
</g>
<!-- Node12&#45;&gt;Node13 -->
<g id="edge13" class="edge">
<title>Node12&#45;&gt;Node13</title>
<path fill="none" stroke="midnightblue" d="M590.62,-124.11C590.49,-115.15 590.34,-105.32 590.22,-97.58"/>
<polygon fill="midnightblue" stroke="midnightblue" points="587.13,-124.45 590.78,-134.4 594.13,-124.34 587.13,-124.45"/>
</g>
<!-- Node14 -->
<g id="node14" class="node">
<title>Node14</title>
<g id="a_node14"><a xlink:href="control__window_8hpp.html" target="_top" xlink:title="This file defines a window that allows the user to control CPU execution.">
<polygon fill="none" stroke="black" points="664.5,-67.5 664.5,-97.5 795.5,-97.5 795.5,-67.5 664.5,-67.5"/>
<text text-anchor="start" x="672.5" y="-85.5" font-family="Helvetica,sans-Serif" font-size="10.00">src/gui/windows/control</text>
<text text-anchor="middle" x="730" y="-74.5" font-family="Helvetica,sans-Serif" font-size="10.00">_window.hpp</text>
</a>
</g>
</g>
<!-- Node12&#45;&gt;Node14 -->
<g id="edge17" class="edge">
<title>Node12&#45;&gt;Node14</title>
<path fill="none" stroke="midnightblue" d="M630.28,-130.13C652.37,-119.8 679.51,-107.11 699.9,-97.58"/>
<polygon fill="midnightblue" stroke="midnightblue" points="628.74,-126.99 621.16,-134.4 631.7,-133.33 628.74,-126.99"/>
</g>
<!-- Node16 -->
<g id="node16" class="node">
<title>Node16</title>
<g id="a_node16"><a xlink:href="registers__window_8hpp.html" target="_top" xlink:title="This file defines a window that displays the contents of all CPU registers.">
<polygon fill="none" stroke="black" points="814,-67.5 814,-97.5 954,-97.5 954,-67.5 814,-67.5"/>
<text text-anchor="start" x="822" y="-85.5" font-family="Helvetica,sans-Serif" font-size="10.00">src/gui/windows/registers</text>
<text text-anchor="middle" x="884" y="-74.5" font-family="Helvetica,sans-Serif" font-size="10.00">_window.hpp</text>
</a>
</g>
</g>
<!-- Node12&#45;&gt;Node16 -->
<g id="edge20" class="edge">
<title>Node12&#45;&gt;Node16</title>
<path fill="none" stroke="midnightblue" d="M657.7,-133.7C706.61,-122.85 772.61,-108.21 820.71,-97.54"/>
<polygon fill="midnightblue" stroke="midnightblue" points="656.85,-130.31 647.84,-135.89 658.36,-137.14 656.85,-130.31"/>
</g>
<!-- Node18 -->
<g id="node18" class="node">
<title>Node18</title>
<g id="a_node18"><a xlink:href="source__code__window_8hpp.html" target="_top" xlink:title="This file defines a window that displays loaded ELF files (disassembled instructions of the source co...">
<polygon fill="none" stroke="black" points="972,-67.5 972,-97.5 1102,-97.5 1102,-67.5 972,-67.5"/>
<text text-anchor="start" x="980" y="-85.5" font-family="Helvetica,sans-Serif" font-size="10.00">src/gui/windows/source</text>
<text text-anchor="middle" x="1037" y="-74.5" font-family="Helvetica,sans-Serif" font-size="10.00">_code_window.hpp</text>
</a>
</g>
</g>
<!-- Node12&#45;&gt;Node18 -->
<g id="edge23" class="edge">
<title>Node12&#45;&gt;Node18</title>
<path fill="none" stroke="midnightblue" d="M657.78,-133.98C793.77,-111.63 830.88,-118.68 963,-98 965.85,-97.55 968.75,-97.08 971.68,-96.58"/>
<polygon fill="midnightblue" stroke="midnightblue" points="657.1,-130.55 647.81,-135.64 658.25,-137.45 657.1,-130.55"/>
</g>
<!-- Node20 -->
<g id="node20" class="node">
<title>Node20</title>
<g id="a_node20"><a xlink:href="top__bar__menu_8hpp.html" target="_top" xlink:title=" ">
<polygon fill="none" stroke="black" points="1120.5,-67.5 1120.5,-97.5 1233.5,-97.5 1233.5,-67.5 1120.5,-67.5"/>
<text text-anchor="start" x="1128.5" y="-85.5" font-family="Helvetica,sans-Serif" font-size="10.00">src/gui/windows/top</text>
<text text-anchor="middle" x="1177" y="-74.5" font-family="Helvetica,sans-Serif" font-size="10.00">_bar_menu.hpp</text>
</a>
</g>
</g>
<!-- Node12&#45;&gt;Node20 -->
<g id="edge26" class="edge">
<title>Node12&#45;&gt;Node20</title>
<path fill="none" stroke="midnightblue" d="M657.79,-134.03C858.97,-104.96 914.02,-127.31 1111,-98 1114.02,-97.55 1117.1,-97.04 1120.21,-96.49"/>
<polygon fill="midnightblue" stroke="midnightblue" points="657.17,-130.59 647.79,-135.51 658.19,-137.51 657.17,-130.59"/>
</g>
<!-- Node14&#45;&gt;Node7 -->
<g id="edge18" class="edge">
<title>Node14&#45;&gt;Node7</title>
<path fill="none" stroke="midnightblue" d="M751.49,-60.34C763.61,-48.4 778.09,-34.14 787.17,-25.19"/>
<polygon fill="midnightblue" stroke="midnightblue" points="748.99,-57.89 744.32,-67.4 753.9,-62.87 748.99,-57.89"/>
</g>
<!-- Node15 -->
<g id="node15" class="node">
<title>Node15</title>
<g id="a_node15"><a xlink:href="control__window_8cpp.html" target="_top" xlink:title="This file implements a window that allows the user to control CPU execution.">
<polygon fill="none" stroke="black" points="603.5,-0.5 603.5,-30.5 734.5,-30.5 734.5,-0.5 603.5,-0.5"/>
<text text-anchor="start" x="611.5" y="-18.5" font-family="Helvetica,sans-Serif" font-size="10.00">src/gui/windows/control</text>
<text text-anchor="middle" x="669" y="-7.5" font-family="Helvetica,sans-Serif" font-size="10.00">_window.cpp</text>
</a>
</g>
</g>
<!-- Node14&#45;&gt;Node15 -->
<g id="edge19" class="edge">
<title>Node14&#45;&gt;Node15</title>
<path fill="none" stroke="midnightblue" d="M709.85,-60.02C700.76,-50.34 690.28,-39.17 682.21,-30.58"/>
<polygon fill="midnightblue" stroke="midnightblue" points="707.37,-62.5 716.76,-67.4 712.47,-57.71 707.37,-62.5"/>
</g>
<!-- Node16&#45;&gt;Node7 -->
<g id="edge21" class="edge">
<title>Node16&#45;&gt;Node7</title>
<path fill="none" stroke="midnightblue" d="M856.66,-61.31C840.14,-49.1 819.93,-34.18 807.52,-25.01"/>
<polygon fill="midnightblue" stroke="midnightblue" points="854.78,-64.27 864.91,-67.4 858.94,-58.64 854.78,-64.27"/>
</g>
<!-- Node17 -->
<g id="node17" class="node">
<title>Node17</title>
<g id="a_node17"><a xlink:href="registers__window_8cpp.html" target="_top" xlink:title="This file implements a window that displays the contents of all CPU registers.">
<polygon fill="none" stroke="black" points="858,-0.5 858,-30.5 998,-30.5 998,-0.5 858,-0.5"/>
<text text-anchor="start" x="866" y="-18.5" font-family="Helvetica,sans-Serif" font-size="10.00">src/gui/windows/registers</text>
<text text-anchor="middle" x="928" y="-7.5" font-family="Helvetica,sans-Serif" font-size="10.00">_window.cpp</text>
</a>
</g>
</g>
<!-- Node16&#45;&gt;Node17 -->
<g id="edge22" class="edge">
<title>Node16&#45;&gt;Node17</title>
<path fill="none" stroke="midnightblue" d="M899.32,-58.87C905.69,-49.46 912.88,-38.83 918.47,-30.58"/>
<polygon fill="midnightblue" stroke="midnightblue" points="896.25,-57.15 893.55,-67.4 902.05,-61.08 896.25,-57.15"/>
</g>
<!-- Node18&#45;&gt;Node7 -->
<g id="edge24" class="edge">
<title>Node18&#45;&gt;Node7</title>
<path fill="none" stroke="midnightblue" d="M974.29,-64.73C937.73,-54.94 890.74,-42.32 849,-31 841.91,-29.08 834.29,-27 827.1,-25.03"/>
<polygon fill="midnightblue" stroke="midnightblue" points="973.74,-68.21 984.31,-67.42 975.55,-61.45 973.74,-68.21"/>
</g>
<!-- Node19 -->
<g id="node19" class="node">
<title>Node19</title>
<g id="a_node19"><a xlink:href="source__code__window_8cpp.html" target="_top" xlink:title="This file implements a window that displays loaded ELF files (disassembled instructions of the source...">
<polygon fill="none" stroke="black" points="1016,-0.5 1016,-30.5 1146,-30.5 1146,-0.5 1016,-0.5"/>
<text text-anchor="start" x="1024" y="-18.5" font-family="Helvetica,sans-Serif" font-size="10.00">src/gui/windows/source</text>
<text text-anchor="middle" x="1081" y="-7.5" font-family="Helvetica,sans-Serif" font-size="10.00">_code_window.cpp</text>
</a>
</g>
</g>
<!-- Node18&#45;&gt;Node19 -->
<g id="edge25" class="edge">
<title>Node18&#45;&gt;Node19</title>
<path fill="none" stroke="midnightblue" d="M1052.32,-58.87C1058.69,-49.46 1065.88,-38.83 1071.47,-30.58"/>
<polygon fill="midnightblue" stroke="midnightblue" points="1049.25,-57.15 1046.55,-67.4 1055.05,-61.08 1049.25,-57.15"/>
</g>
<!-- Node20&#45;&gt;Node7 -->
<g id="edge27" class="edge">
<title>Node20&#45;&gt;Node7</title>
<path fill="none" stroke="midnightblue" d="M1110.14,-66.95C993.52,-46.8 961,-53.91 849,-31 840.96,-29.36 832.34,-27.18 824.44,-25.01"/>
<polygon fill="midnightblue" stroke="midnightblue" points="1109.72,-70.43 1120.18,-68.71 1110.93,-63.54 1109.72,-70.43"/>
</g>
<!-- Node21 -->
<g id="node21" class="node">
<title>Node21</title>
<g id="a_node21"><a xlink:href="top__bar__menu_8cpp.html" target="_top" xlink:title=" ">
<polygon fill="none" stroke="black" points="1164.5,-0.5 1164.5,-30.5 1277.5,-30.5 1277.5,-0.5 1164.5,-0.5"/>
<text text-anchor="start" x="1172.5" y="-18.5" font-family="Helvetica,sans-Serif" font-size="10.00">src/gui/windows/top</text>
<text text-anchor="middle" x="1221" y="-7.5" font-family="Helvetica,sans-Serif" font-size="10.00">_bar_menu.cpp</text>
</a>
</g>
</g>
<!-- Node20&#45;&gt;Node21 -->
<g id="edge28" class="edge">
<title>Node20&#45;&gt;Node21</title>
<path fill="none" stroke="midnightblue" d="M1192.32,-58.87C1198.69,-49.46 1205.88,-38.83 1211.47,-30.58"/>
<polygon fill="midnightblue" stroke="midnightblue" points="1189.25,-57.15 1186.55,-67.4 1195.05,-61.08 1189.25,-57.15"/>
</g>
<!-- Node22&#45;&gt;Node5 -->
<g id="edge32" class="edge">
<title>Node22&#45;&gt;Node5</title>
<path fill="none" stroke="midnightblue" d="M617.28,-198.71C581.21,-188.76 541.04,-175.98 526,-165 498.79,-145.13 479.51,-108.57 471.77,-92.03"/>
<polygon fill="midnightblue" stroke="midnightblue" points="616.76,-202.2 627.33,-201.44 618.59,-195.44 616.76,-202.2"/>
</g>
<!-- Node22&#45;&gt;Node12 -->
<g id="edge30" class="edge">
<title>Node22&#45;&gt;Node12</title>
<path fill="none" stroke="midnightblue" d="M655.31,-195.45C641.01,-185.45 624.05,-173.6 611.14,-164.58"/>
<polygon fill="midnightblue" stroke="midnightblue" points="653.62,-198.54 663.82,-201.4 657.63,-192.8 653.62,-198.54"/>
</g>
<!-- Node23 -->
<g id="node23" class="node">
<title>Node23</title>
<g id="a_node23"><a xlink:href="mmu_8cpp.html" target="_top" xlink:title="This file implements the MMU (memory management unit) of the CPU.">
<polygon fill="none" stroke="black" points="665.5,-134.5 665.5,-164.5 778.5,-164.5 778.5,-134.5 665.5,-134.5"/>
<text text-anchor="start" x="673.5" y="-152.5" font-family="Helvetica,sans-Serif" font-size="10.00">src/core/arm1176jzf</text>
<text text-anchor="middle" x="722" y="-141.5" font-family="Helvetica,sans-Serif" font-size="10.00">_s/mmu/mmu.cpp</text>
</a>
</g>
</g>
<!-- Node22&#45;&gt;Node23 -->
<g id="edge31" class="edge">
<title>Node22&#45;&gt;Node23</title>
<path fill="none" stroke="midnightblue" d="M697.4,-192.58C702.86,-183.24 708.99,-172.75 713.77,-164.58"/>
<polygon fill="midnightblue" stroke="midnightblue" points="694.27,-191 692.25,-201.4 700.31,-194.53 694.27,-191"/>
</g>
<!-- Node24&#45;&gt;Node3 -->
<g id="edge37" class="edge">
<title>Node24&#45;&gt;Node3</title>
<path fill="none" stroke="midnightblue" d="M732.52,-270.73C657.2,-246.42 484.8,-190.78 403.69,-164.6"/>
<polygon fill="midnightblue" stroke="midnightblue" points="731.89,-274.2 742.48,-273.94 734.04,-267.54 731.89,-274.2"/>
</g>
<!-- Node24&#45;&gt;Node5 -->
<g id="edge38" class="edge">
<title>Node24&#45;&gt;Node5</title>
<path fill="none" stroke="midnightblue" d="M778.94,-264.76C794.64,-234.1 820.24,-170.95 788,-134 749.22,-89.55 582.9,-109.29 525,-98 516.48,-96.34 507.34,-94.18 498.92,-92.04"/>
<polygon fill="midnightblue" stroke="midnightblue" points="775.72,-263.35 774.1,-273.82 781.9,-266.65 775.72,-263.35"/>
</g>
<!-- Node24&#45;&gt;Node12 -->
<g id="edge34" class="edge">
<title>Node24&#45;&gt;Node12</title>
<path fill="none" stroke="midnightblue" d="M769.64,-263.57C769.21,-245.29 765.68,-217.96 750,-201 742.5,-192.89 687.52,-176.52 644.28,-164.61"/>
<polygon fill="midnightblue" stroke="midnightblue" points="766.14,-263.59 769.58,-273.61 773.14,-263.63 766.14,-263.59"/>
</g>
<!-- Node24&#45;&gt;Node20 -->
<g id="edge39" class="edge">
<title>Node24&#45;&gt;Node20</title>
<path fill="none" stroke="midnightblue" d="M784.49,-266.35C802.46,-248.39 833.63,-219.47 865,-201 949.67,-151.16 1059.24,-115.75 1123.45,-97.55"/>
<polygon fill="midnightblue" stroke="midnightblue" points="781.73,-264.17 777.22,-273.76 786.72,-269.08 781.73,-264.17"/>
</g>
<!-- Node24&#45;&gt;Node22 -->
<g id="edge35" class="edge">
<title>Node24&#45;&gt;Node22</title>
<path fill="none" stroke="midnightblue" d="M749.44,-267.54C735.29,-256.73 716.3,-242.2 702.42,-231.59"/>
<polygon fill="midnightblue" stroke="midnightblue" points="747.47,-270.44 757.54,-273.73 751.72,-264.88 747.47,-270.44"/>
</g>
<!-- Node25 -->
<g id="node25" class="node">
<title>Node25</title>
<g id="a_node25"><a xlink:href="bus_8cpp.html" target="_top" xlink:title="This file implements the interface defined in bus.hpp.">
<polygon fill="none" stroke="black" points="873.5,-207 873.5,-226 968.5,-226 968.5,-207 873.5,-207"/>
<text text-anchor="middle" x="921" y="-214" font-family="Helvetica,sans-Serif" font-size="10.00">src/core/bus.cpp</text>
</a>
</g>
</g>
<!-- Node24&#45;&gt;Node25 -->
<g id="edge36" class="edge">
<title>Node24&#45;&gt;Node25</title>
<path fill="none" stroke="midnightblue" d="M798.74,-269.78C828.84,-256.91 874.57,-237.35 900.73,-226.17"/>
<polygon fill="midnightblue" stroke="midnightblue" points="797,-266.72 789.18,-273.87 799.76,-273.15 797,-266.72"/>
</g>
<!-- Node26 -->
<g id="node26" class="node">
<title>Node26</title>
<g id="a_node26"><a xlink:href="elf__loader_8hpp.html" target="_top" xlink:title="This file defines the functionality of an ELF loader.">
<polygon fill="none" stroke="black" points="1113.5,-140 1113.5,-159 1240.5,-159 1240.5,-140 1113.5,-140"/>
<text text-anchor="middle" x="1177" y="-147" font-family="Helvetica,sans-Serif" font-size="10.00">src/utils/elf_loader.hpp</text>
</a>
</g>
</g>
<!-- Node24&#45;&gt;Node26 -->
<g id="edge40" class="edge">
<title>Node24&#45;&gt;Node26</title>
<path fill="none" stroke="midnightblue" d="M811.84,-271.52C816.61,-270.32 821.41,-269.13 826,-268 893.42,-251.44 911.9,-253.22 978,-232 1046.43,-210.03 1124.47,-175.02 1158.97,-159"/>
<polygon fill="midnightblue" stroke="midnightblue" points="810.97,-268.13 802.13,-273.97 812.68,-274.92 810.97,-268.13"/>
</g>
<!-- Node26&#45;&gt;Node18 -->
<g id="edge42" class="edge">
<title>Node26&#45;&gt;Node18</title>
<path fill="none" stroke="midnightblue" d="M1149.26,-135.62C1125.58,-124.63 1091.58,-108.84 1067.21,-97.53"/>
<polygon fill="midnightblue" stroke="midnightblue" points="1147.87,-138.83 1158.41,-139.87 1150.81,-132.48 1147.87,-138.83"/>
</g>
<!-- Node26&#45;&gt;Node19 -->
<g id="edge41" class="edge">
<title>Node26&#45;&gt;Node19</title>
<path fill="none" stroke="midnightblue" d="M1205.27,-134.83C1219.38,-126.36 1235.08,-114.02 1243,-98 1249.1,-85.65 1251.16,-78.1 1243,-67 1236.43,-58.07 1181.6,-42.19 1137.52,-30.61"/>
<polygon fill="midnightblue" stroke="midnightblue" points="1203.35,-131.9 1196.33,-139.84 1206.77,-138.01 1203.35,-131.9"/>
</g>
<!-- Node26&#45;&gt;Node20 -->
<g id="edge43" class="edge">
<title>Node26&#45;&gt;Node20</title>
<path fill="none" stroke="midnightblue" d="M1177,-129.41C1177,-119.22 1177,-106.9 1177,-97.59"/>
<polygon fill="midnightblue" stroke="midnightblue" points="1173.5,-129.73 1177,-139.73 1180.5,-129.73 1173.5,-129.73"/>
</g>
<!-- Node27 -->
<g id="node27" class="node">
<title>Node27</title>
<g id="a_node27"><a xlink:href="elf__loader_8cpp.html" target="_top" xlink:title="This file implements the functionality of an ELF loader defined in elf_loader.hpp.">
<polygon fill="none" stroke="black" points="1290,-73 1290,-92 1416,-92 1416,-73 1290,-73"/>
<text text-anchor="middle" x="1353" y="-80" font-family="Helvetica,sans-Serif" font-size="10.00">src/utils/elf_loader.cpp</text>
</a>
</g>
</g>
<!-- Node26&#45;&gt;Node27 -->
<g id="edge44" class="edge">
<title>Node26&#45;&gt;Node27</title>
<path fill="none" stroke="midnightblue" d="M1210.11,-136.27C1245.04,-123.37 1299.18,-103.38 1329.81,-92.06"/>
<polygon fill="midnightblue" stroke="midnightblue" points="1208.54,-133.12 1200.37,-139.87 1210.96,-139.69 1208.54,-133.12"/>
</g>
<!-- Node29&#45;&gt;Node7 -->
<g id="edge48" class="edge">
<title>Node29&#45;&gt;Node7</title>
<path fill="none" stroke="midnightblue" d="M1450.62,-258.66C1461.42,-213.95 1476.79,-117.48 1425,-67 1379.08,-22.24 912.26,-41.52 849,-31 840.44,-29.58 831.26,-27.33 823,-25.03"/>
<polygon fill="midnightblue" stroke="midnightblue" points="1447.22,-257.81 1448.15,-268.36 1454.01,-259.54 1447.22,-257.81"/>
</g>
<!-- Node30 -->
<g id="node30" class="node">
<title>Node30</title>
<g id="a_node30"><a xlink:href="cp15__window_8cpp.html" target="_top" xlink:title="This file implements a window that displays data (information) related to coprocessor 15.">
<polygon fill="none" stroke="black" points="1472.5,-201.5 1472.5,-231.5 1593.5,-231.5 1593.5,-201.5 1472.5,-201.5"/>
<text text-anchor="start" x="1480.5" y="-219.5" font-family="Helvetica,sans-Serif" font-size="10.00">src/gui/windows/cp15</text>
<text text-anchor="middle" x="1533" y="-208.5" font-family="Helvetica,sans-Serif" font-size="10.00">_window.cpp</text>
</a>
</g>
</g>
<!-- Node29&#45;&gt;Node30 -->
<g id="edge49" class="edge">
<title>Node29&#45;&gt;Node30</title>
<path fill="none" stroke="midnightblue" d="M1471.45,-262.45C1485.14,-252.45 1501.37,-240.6 1513.73,-231.58"/>
<polygon fill="midnightblue" stroke="midnightblue" points="1469.32,-259.67 1463.31,-268.4 1473.45,-265.32 1469.32,-259.67"/>
</g>
</g>
</svg>
