<?xml version="1.0" encoding="UTF-8" standalone="no"?>
<!DOCTYPE svg PUBLIC "-//W3C//DTD SVG 1.1//EN"
 "http://www.w3.org/Graphics/SVG/1.1/DTD/svg11.dtd">
<!-- Generated by graphviz version 2.43.0 (0)
 -->
<!-- Title: src/core/coprocessors/cp10/isa/isa.hpp Pages: 1 -->
<svg width="570pt" height="104pt"
 viewBox="0.00 0.00 570.00 104.00" xmlns="http://www.w3.org/2000/svg" xmlns:xlink="http://www.w3.org/1999/xlink">
<g id="graph0" class="graph" transform="scale(1 1) rotate(0) translate(4 100)">
<title>src/core/coprocessors/cp10/isa/isa.hpp</title>
<!-- Node1 -->
<g id="Node000001" class="node">
<title>Node1</title>
<g id="a_Node000001"><a xlink:title="This file combines different instruction type includes together.">
<polygon fill="#999999" stroke="#666666" points="280,-96 158,-96 158,-66 280,-66 280,-96"/>
<text text-anchor="start" x="166" y="-84" font-family="Helvetica,sans-Serif" font-size="10.00">src/core/coprocessors</text>
<text text-anchor="middle" x="219" y="-73" font-family="Helvetica,sans-Serif" font-size="10.00">/cp10/isa/isa.hpp</text>
</a>
</g>
</g>
<!-- Node2 -->
<g id="Node000002" class="node">
<title>Node2</title>
<g id="a_Node000002"><a xlink:href="vmsr_8hpp.html" target="_top" xlink:title="This file defines a VMSR instruction (ARM register to a special FPU register).">
<polygon fill="white" stroke="#666666" points="62,-24.5 0,-24.5 0,-5.5 62,-5.5 62,-24.5"/>
<text text-anchor="middle" x="31" y="-12.5" font-family="Helvetica,sans-Serif" font-size="10.00">vmsr.hpp</text>
</a>
</g>
</g>
<!-- Node1&#45;&gt;Node2 -->
<g id="edge1_Node000001_Node000002" class="edge">
<title>Node1&#45;&gt;Node2</title>
<g id="a_edge1_Node000001_Node000002"><a xlink:title=" ">
<path fill="none" stroke="#63b8ff" d="M176.85,-65.9C147.22,-55.95 106.65,-42.26 71,-30 69.12,-29.35 67.19,-28.69 65.25,-28.01"/>
<polygon fill="#63b8ff" stroke="#63b8ff" points="66.12,-24.61 55.52,-24.63 63.82,-31.22 66.12,-24.61"/>
</a>
</g>
</g>
<!-- Node3 -->
<g id="Node000003" class="node">
<title>Node3</title>
<g id="a_Node000003"><a xlink:href="vmrs_8hpp.html" target="_top" xlink:title="This file defines a VMRS instruction (FPU special register to an ARM register).">
<polygon fill="white" stroke="#666666" points="142,-24.5 80,-24.5 80,-5.5 142,-5.5 142,-24.5"/>
<text text-anchor="middle" x="111" y="-12.5" font-family="Helvetica,sans-Serif" font-size="10.00">vmrs.hpp</text>
</a>
</g>
</g>
<!-- Node1&#45;&gt;Node3 -->
<g id="edge2_Node000001_Node000003" class="edge">
<title>Node1&#45;&gt;Node3</title>
<g id="a_edge2_Node000001_Node000003"><a xlink:title=" ">
<path fill="none" stroke="#63b8ff" d="M195.3,-65.95C177.11,-55.18 152.14,-40.38 134.1,-29.69"/>
<polygon fill="#63b8ff" stroke="#63b8ff" points="135.76,-26.6 125.37,-24.52 132.19,-32.63 135.76,-26.6"/>
</a>
</g>
</g>
<!-- Node4 -->
<g id="Node000004" class="node">
<title>Node4</title>
<g id="a_Node000004"><a xlink:href="coprocessors_2cp10_2isa_2data__processing_8hpp.html" target="_top" xlink:title="This file defines a data processing instruction.">
<polygon fill="white" stroke="#666666" points="277.5,-24.5 160.5,-24.5 160.5,-5.5 277.5,-5.5 277.5,-24.5"/>
<text text-anchor="middle" x="219" y="-12.5" font-family="Helvetica,sans-Serif" font-size="10.00">data_processing.hpp</text>
</a>
</g>
</g>
<!-- Node1&#45;&gt;Node4 -->
<g id="edge3_Node000001_Node000004" class="edge">
<title>Node1&#45;&gt;Node4</title>
<g id="a_edge3_Node000001_Node000004"><a xlink:title=" ">
<path fill="none" stroke="#63b8ff" d="M219,-65.8C219,-56.7 219,-44.79 219,-34.9"/>
<polygon fill="#63b8ff" stroke="#63b8ff" points="222.5,-34.84 219,-24.84 215.5,-34.84 222.5,-34.84"/>
</a>
</g>
</g>
<!-- Node5 -->
<g id="Node000005" class="node">
<title>Node5</title>
<g id="a_Node000005"><a xlink:href="data__transfer_8hpp.html" target="_top" xlink:title="This file defines a data transfer instruction.">
<polygon fill="white" stroke="#666666" points="398,-24.5 296,-24.5 296,-5.5 398,-5.5 398,-24.5"/>
<text text-anchor="middle" x="347" y="-12.5" font-family="Helvetica,sans-Serif" font-size="10.00">data_transfer.hpp</text>
</a>
</g>
</g>
<!-- Node1&#45;&gt;Node5 -->
<g id="edge4_Node000001_Node000005" class="edge">
<title>Node1&#45;&gt;Node5</title>
<g id="a_edge4_Node000001_Node000005"><a xlink:title=" ">
<path fill="none" stroke="#63b8ff" d="M247.09,-65.95C269.04,-54.98 299.33,-39.83 320.79,-29.11"/>
<polygon fill="#63b8ff" stroke="#63b8ff" points="322.59,-32.12 329.97,-24.52 319.46,-25.86 322.59,-32.12"/>
</a>
</g>
</g>
<!-- Node6 -->
<g id="Node000006" class="node">
<title>Node6</title>
<g id="a_Node000006"><a xlink:href="vmov__arm__register__single__precision__register_8hpp.html" target="_top" xlink:title="This file defines a VMOV instruction between an ARM register and an FPU register.">
<polygon fill="white" stroke="#666666" points="562,-30 416,-30 416,0 562,0 562,-30"/>
<text text-anchor="start" x="424" y="-18" font-family="Helvetica,sans-Serif" font-size="10.00">vmov_arm_register_single</text>
<text text-anchor="middle" x="489" y="-7" font-family="Helvetica,sans-Serif" font-size="10.00">_precision_register.hpp</text>
</a>
</g>
</g>
<!-- Node1&#45;&gt;Node6 -->
<g id="edge5_Node000001_Node000006" class="edge">
<title>Node1&#45;&gt;Node6</title>
<g id="a_edge5_Node000001_Node000006"><a xlink:title=" ">
<path fill="none" stroke="#63b8ff" d="M278.25,-65.95C320.02,-56.06 376.08,-42.77 419.89,-32.38"/>
<polygon fill="#63b8ff" stroke="#63b8ff" points="420.96,-35.72 429.89,-30.01 419.35,-28.91 420.96,-35.72"/>
</a>
</g>
</g>
</g>
</svg>
