<?xml version="1.0" encoding="UTF-8" standalone="no"?>
<!DOCTYPE svg PUBLIC "-//W3C//DTD SVG 1.1//EN"
 "http://www.w3.org/Graphics/SVG/1.1/DTD/svg11.dtd">
<!-- Generated by graphviz version 2.43.0 (0)
 -->
<!-- Title: src/core/arm1176jzf_s/isa/coprocessor_register_transfer.hpp Pages: 1 -->
<svg width="1465pt" height="530pt"
 viewBox="0.00 0.00 1464.52 530.00" xmlns="http://www.w3.org/2000/svg" xmlns:xlink="http://www.w3.org/1999/xlink">
<g id="graph0" class="graph" transform="scale(1 1) rotate(0) translate(4 526)">
<title>src/core/arm1176jzf_s/isa/coprocessor_register_transfer.hpp</title>
<!-- Node1 -->
<g id="node1" class="node">
<title>Node1</title>
<g id="a_node1"><a xlink:title="This file defines a coprocessor register transfer (MRC, MCR).">
<polygon fill="#bfbfbf" stroke="black" points="882,-480.5 882,-521.5 1031,-521.5 1031,-480.5 882,-480.5"/>
<text text-anchor="start" x="890" y="-509.5" font-family="Helvetica,sans-Serif" font-size="10.00">src/core/arm1176jzf</text>
<text text-anchor="start" x="890" y="-498.5" font-family="Helvetica,sans-Serif" font-size="10.00">_s/isa/coprocessor_register</text>
<text text-anchor="middle" x="956.5" y="-487.5" font-family="Helvetica,sans-Serif" font-size="10.00">_transfer.hpp</text>
</a>
</g>
</g>
<!-- Node2 -->
<g id="node2" class="node">
<title>Node2</title>
<g id="a_node2"><a xlink:href="coprocessor__register__transfer_8cpp.html" target="_top" xlink:title="This file implements a coprocessor register transfer as defined in coprocessor_register_transfer....">
<polygon fill="none" stroke="black" points="728,-402.5 728,-443.5 877,-443.5 877,-402.5 728,-402.5"/>
<text text-anchor="start" x="736" y="-431.5" font-family="Helvetica,sans-Serif" font-size="10.00">src/core/arm1176jzf</text>
<text text-anchor="start" x="736" y="-420.5" font-family="Helvetica,sans-Serif" font-size="10.00">_s/isa/coprocessor_register</text>
<text text-anchor="middle" x="802.5" y="-409.5" font-family="Helvetica,sans-Serif" font-size="10.00">_transfer.cpp</text>
</a>
</g>
</g>
<!-- Node1&#45;&gt;Node2 -->
<g id="edge1" class="edge">
<title>Node1&#45;&gt;Node2</title>
<path fill="none" stroke="midnightblue" d="M907.68,-475.91C886.51,-465.46 862.03,-453.38 842.02,-443.51"/>
<polygon fill="midnightblue" stroke="midnightblue" points="906.32,-479.14 916.84,-480.43 909.42,-472.86 906.32,-479.14"/>
</g>
<!-- Node3 -->
<g id="node3" class="node">
<title>Node3</title>
<g id="a_node3"><a xlink:href="arm1176jzf__s_2isa_2isa_8hpp.html" target="_top" xlink:title="This file is just a helper file for including all ARM instructions supported by the emulator.">
<polygon fill="none" stroke="black" points="1186,-335.5 1186,-365.5 1299,-365.5 1299,-335.5 1186,-335.5"/>
<text text-anchor="start" x="1194" y="-353.5" font-family="Helvetica,sans-Serif" font-size="10.00">src/core/arm1176jzf</text>
<text text-anchor="middle" x="1242.5" y="-342.5" font-family="Helvetica,sans-Serif" font-size="10.00">_s/isa/isa.hpp</text>
</a>
</g>
</g>
<!-- Node1&#45;&gt;Node3 -->
<g id="edge2" class="edge">
<title>Node1&#45;&gt;Node3</title>
<path fill="none" stroke="midnightblue" d="M1003.13,-475.79C1063.47,-444.46 1166.64,-390.89 1215.42,-365.56"/>
<polygon fill="midnightblue" stroke="midnightblue" points="1001.45,-472.72 994.18,-480.43 1004.67,-478.93 1001.45,-472.72"/>
</g>
<!-- Node20 -->
<g id="node20" class="node">
<title>Node20</title>
<g id="a_node20"><a xlink:href="coprocessor_8hpp.html" target="_top" xlink:title="This file defines a general interface of a coprocessor.">
<polygon fill="none" stroke="black" points="895.5,-408 895.5,-438 1017.5,-438 1017.5,-408 895.5,-408"/>
<text text-anchor="start" x="903.5" y="-426" font-family="Helvetica,sans-Serif" font-size="10.00">src/core/coprocessors</text>
<text text-anchor="middle" x="956.5" y="-415" font-family="Helvetica,sans-Serif" font-size="10.00">/coprocessor.hpp</text>
</a>
</g>
</g>
<!-- Node1&#45;&gt;Node20 -->
<g id="edge23" class="edge">
<title>Node1&#45;&gt;Node20</title>
<path fill="none" stroke="midnightblue" d="M956.5,-470.28C956.5,-459.25 956.5,-447.25 956.5,-438.23"/>
<polygon fill="midnightblue" stroke="midnightblue" points="953,-470.43 956.5,-480.43 960,-470.43 953,-470.43"/>
</g>
<!-- Node4 -->
<g id="node4" class="node">
<title>Node4</title>
<g id="a_node4"><a xlink:href="core_8hpp.html" target="_top" xlink:title="This file defines a class that represents a CPU core (arm1176jzf_s).">
<polygon fill="none" stroke="black" points="876,-134.5 876,-164.5 989,-164.5 989,-134.5 876,-134.5"/>
<text text-anchor="start" x="884" y="-152.5" font-family="Helvetica,sans-Serif" font-size="10.00">src/core/arm1176jzf</text>
<text text-anchor="middle" x="932.5" y="-141.5" font-family="Helvetica,sans-Serif" font-size="10.00">_s/core.hpp</text>
</a>
</g>
</g>
<!-- Node3&#45;&gt;Node4 -->
<g id="edge3" class="edge">
<title>Node3&#45;&gt;Node4</title>
<path fill="none" stroke="midnightblue" d="M1230.07,-326.21C1211.24,-293.23 1172.36,-233.34 1122.5,-201 1082.27,-174.9 1028.97,-162.24 989.06,-156.13"/>
<polygon fill="midnightblue" stroke="midnightblue" points="1227.12,-328.11 1235.05,-335.14 1233.23,-324.7 1227.12,-328.11"/>
</g>
<!-- Node5 -->
<g id="node5" class="node">
<title>Node5</title>
<g id="a_node5"><a xlink:href="core_8cpp.html" target="_top" xlink:title="This file implements the CCPU_Core class defined in core.hpp.">
<polygon fill="none" stroke="black" points="855,-67.5 855,-97.5 968,-97.5 968,-67.5 855,-67.5"/>
<text text-anchor="start" x="863" y="-85.5" font-family="Helvetica,sans-Serif" font-size="10.00">src/core/arm1176jzf</text>
<text text-anchor="middle" x="911.5" y="-74.5" font-family="Helvetica,sans-Serif" font-size="10.00">_s/core.cpp</text>
</a>
</g>
</g>
<!-- Node4&#45;&gt;Node5 -->
<g id="edge4" class="edge">
<title>Node4&#45;&gt;Node5</title>
<path fill="none" stroke="midnightblue" d="M924.81,-124.7C921.87,-115.59 918.61,-105.49 916.05,-97.58"/>
<polygon fill="midnightblue" stroke="midnightblue" points="921.54,-125.96 927.94,-134.4 928.2,-123.8 921.54,-125.96"/>
</g>
<!-- Node6 -->
<g id="node6" class="node">
<title>Node6</title>
<g id="a_node6"><a xlink:href="coprocessor_8cpp.html" target="_top" xlink:title="This file implements the common functionality of a general interface of a coprocessor.">
<polygon fill="none" stroke="black" points="1294.5,-67.5 1294.5,-97.5 1416.5,-97.5 1416.5,-67.5 1294.5,-67.5"/>
<text text-anchor="start" x="1302.5" y="-85.5" font-family="Helvetica,sans-Serif" font-size="10.00">src/core/coprocessors</text>
<text text-anchor="middle" x="1355.5" y="-74.5" font-family="Helvetica,sans-Serif" font-size="10.00">/coprocessor.cpp</text>
</a>
</g>
</g>
<!-- Node4&#45;&gt;Node6 -->
<g id="edge5" class="edge">
<title>Node4&#45;&gt;Node6</title>
<path fill="none" stroke="midnightblue" d="M999.39,-140.19C1070.53,-131.06 1186.25,-115.36 1285.5,-98 1288.43,-97.49 1291.43,-96.94 1294.46,-96.38"/>
<polygon fill="midnightblue" stroke="midnightblue" points="998.7,-136.75 989.22,-141.49 999.59,-143.69 998.7,-136.75"/>
</g>
<!-- Node7 -->
<g id="node7" class="node">
<title>Node7</title>
<g id="a_node7"><a xlink:href="cp10_8cpp.html" target="_top" xlink:title="This file implements coprocessor CP10 (single&#45;precision FPU).">
<polygon fill="none" stroke="black" points="139.5,-67.5 139.5,-97.5 261.5,-97.5 261.5,-67.5 139.5,-67.5"/>
<text text-anchor="start" x="147.5" y="-85.5" font-family="Helvetica,sans-Serif" font-size="10.00">src/core/coprocessors</text>
<text text-anchor="middle" x="200.5" y="-74.5" font-family="Helvetica,sans-Serif" font-size="10.00">/cp10/cp10.cpp</text>
</a>
</g>
</g>
<!-- Node4&#45;&gt;Node7 -->
<g id="edge6" class="edge">
<title>Node4&#45;&gt;Node7</title>
<path fill="none" stroke="midnightblue" d="M865.63,-133.89C602.46,-97.85 530.65,-132.6 270.5,-98 267.67,-97.62 264.78,-97.2 261.87,-96.73"/>
<polygon fill="midnightblue" stroke="midnightblue" points="865.49,-137.4 875.88,-135.31 866.45,-130.47 865.49,-137.4"/>
</g>
<!-- Node8 -->
<g id="node8" class="node">
<title>Node8</title>
<g id="a_node8"><a xlink:href="soc_8hpp.html" target="_top" xlink:title=" ">
<polygon fill="none" stroke="black" points="280,-73 280,-92 375,-92 375,-73 280,-73"/>
<text text-anchor="middle" x="327.5" y="-80" font-family="Helvetica,sans-Serif" font-size="10.00">src/core/soc.hpp</text>
</a>
</g>
</g>
<!-- Node4&#45;&gt;Node8 -->
<g id="edge7" class="edge">
<title>Node4&#45;&gt;Node8</title>
<path fill="none" stroke="midnightblue" d="M865.93,-133.91C652.78,-103.38 593.74,-132.14 384.5,-98 375.43,-96.52 365.69,-94.29 356.88,-92.02"/>
<polygon fill="midnightblue" stroke="midnightblue" points="865.47,-137.38 875.87,-135.36 866.48,-130.45 865.47,-137.38"/>
</g>
<!-- Node12 -->
<g id="node12" class="node">
<title>Node12</title>
<g id="a_node12"><a xlink:href="control__window_8hpp.html" target="_top" xlink:title="This file defines a window that allows the user to control CPU execution.">
<polygon fill="none" stroke="black" points="1145,-67.5 1145,-97.5 1276,-97.5 1276,-67.5 1145,-67.5"/>
<text text-anchor="start" x="1153" y="-85.5" font-family="Helvetica,sans-Serif" font-size="10.00">src/gui/windows/control</text>
<text text-anchor="middle" x="1210.5" y="-74.5" font-family="Helvetica,sans-Serif" font-size="10.00">_window.hpp</text>
</a>
</g>
</g>
<!-- Node4&#45;&gt;Node12 -->
<g id="edge11" class="edge">
<title>Node4&#45;&gt;Node12</title>
<path fill="none" stroke="midnightblue" d="M998.99,-132.95C1045.11,-122.17 1106.02,-107.93 1150.62,-97.5"/>
<polygon fill="midnightblue" stroke="midnightblue" points="998.03,-129.58 989.09,-135.27 999.63,-136.4 998.03,-129.58"/>
</g>
<!-- Node14 -->
<g id="node14" class="node">
<title>Node14</title>
<g id="a_node14"><a xlink:href="registers__window_8hpp.html" target="_top" xlink:title="This file defines a window that displays the contents of all CPU registers.">
<polygon fill="none" stroke="black" points="986.5,-67.5 986.5,-97.5 1126.5,-97.5 1126.5,-67.5 986.5,-67.5"/>
<text text-anchor="start" x="994.5" y="-85.5" font-family="Helvetica,sans-Serif" font-size="10.00">src/gui/windows/registers</text>
<text text-anchor="middle" x="1056.5" y="-74.5" font-family="Helvetica,sans-Serif" font-size="10.00">_window.hpp</text>
</a>
</g>
</g>
<!-- Node4&#45;&gt;Node14 -->
<g id="edge14" class="edge">
<title>Node4&#45;&gt;Node14</title>
<path fill="none" stroke="midnightblue" d="M968.34,-129.71C987.89,-119.46 1011.7,-106.98 1029.65,-97.58"/>
<polygon fill="midnightblue" stroke="midnightblue" points="966.64,-126.65 959.41,-134.4 969.89,-132.85 966.64,-126.65"/>
</g>
<!-- Node16 -->
<g id="node16" class="node">
<title>Node16</title>
<g id="a_node16"><a xlink:href="source__code__window_8hpp.html" target="_top" xlink:title="This file defines a window that displays loaded ELF files (disassembled instructions of the source co...">
<polygon fill="none" stroke="black" points="575.5,-67.5 575.5,-97.5 705.5,-97.5 705.5,-67.5 575.5,-67.5"/>
<text text-anchor="start" x="583.5" y="-85.5" font-family="Helvetica,sans-Serif" font-size="10.00">src/gui/windows/source</text>
<text text-anchor="middle" x="640.5" y="-74.5" font-family="Helvetica,sans-Serif" font-size="10.00">_code_window.hpp</text>
</a>
</g>
</g>
<!-- Node4&#45;&gt;Node16 -->
<g id="edge17" class="edge">
<title>Node4&#45;&gt;Node16</title>
<path fill="none" stroke="midnightblue" d="M865.72,-133.6C805.54,-120.2 746.76,-107.12 703.62,-97.53"/>
<polygon fill="midnightblue" stroke="midnightblue" points="865.26,-137.09 875.78,-135.85 866.78,-130.25 865.26,-137.09"/>
</g>
<!-- Node18 -->
<g id="node18" class="node">
<title>Node18</title>
<g id="a_node18"><a xlink:href="top__bar__menu_8hpp.html" target="_top" xlink:title=" ">
<polygon fill="none" stroke="black" points="724,-67.5 724,-97.5 837,-97.5 837,-67.5 724,-67.5"/>
<text text-anchor="start" x="732" y="-85.5" font-family="Helvetica,sans-Serif" font-size="10.00">src/gui/windows/top</text>
<text text-anchor="middle" x="780.5" y="-74.5" font-family="Helvetica,sans-Serif" font-size="10.00">_bar_menu.hpp</text>
</a>
</g>
</g>
<!-- Node4&#45;&gt;Node18 -->
<g id="edge20" class="edge">
<title>Node4&#45;&gt;Node18</title>
<path fill="none" stroke="midnightblue" d="M890.19,-130.41C865.92,-120.03 835.91,-107.2 813.42,-97.58"/>
<polygon fill="midnightblue" stroke="midnightblue" points="888.95,-133.68 899.52,-134.4 891.7,-127.25 888.95,-133.68"/>
</g>
<!-- Node9 -->
<g id="node9" class="node">
<title>Node9</title>
<g id="a_node9"><a xlink:href="soc_8cpp.html" target="_top" xlink:title=" ">
<polygon fill="none" stroke="black" points="223,-6 223,-25 318,-25 318,-6 223,-6"/>
<text text-anchor="middle" x="270.5" y="-13" font-family="Helvetica,sans-Serif" font-size="10.00">src/core/soc.cpp</text>
</a>
</g>
</g>
<!-- Node8&#45;&gt;Node9 -->
<g id="edge8" class="edge">
<title>Node8&#45;&gt;Node9</title>
<path fill="none" stroke="midnightblue" d="M313.15,-65.13C302,-52.42 286.98,-35.3 278.07,-25.13"/>
<polygon fill="midnightblue" stroke="midnightblue" points="310.59,-67.52 319.81,-72.73 315.85,-62.91 310.59,-67.52"/>
</g>
<!-- Node10 -->
<g id="node10" class="node">
<title>Node10</title>
<g id="a_node10"><a xlink:href="gui_8cpp.html" target="_top" xlink:title="This file implements the main GUI entry function that takes care of creating and rendering all window...">
<polygon fill="none" stroke="black" points="684,-6 684,-25 771,-25 771,-6 684,-6"/>
<text text-anchor="middle" x="727.5" y="-13" font-family="Helvetica,sans-Serif" font-size="10.00">src/gui/gui.cpp</text>
</a>
</g>
</g>
<!-- Node8&#45;&gt;Node10 -->
<g id="edge9" class="edge">
<title>Node8&#45;&gt;Node10</title>
<path fill="none" stroke="midnightblue" d="M368.53,-70.47C373.88,-69.21 379.31,-68.01 384.5,-67 500.3,-44.42 530.98,-49.52 647.5,-31 659.35,-29.12 672.15,-26.88 683.96,-24.74"/>
<polygon fill="midnightblue" stroke="midnightblue" points="367.29,-67.17 358.42,-72.96 368.96,-73.97 367.29,-67.17"/>
</g>
<!-- Node11 -->
<g id="node11" class="node">
<title>Node11</title>
<g id="a_node11"><a xlink:href="main_8cpp.html" target="_top" xlink:title="This file defines and implements the main function of the application.">
<polygon fill="none" stroke="black" points="336,-6 336,-25 415,-25 415,-6 336,-6"/>
<text text-anchor="middle" x="375.5" y="-13" font-family="Helvetica,sans-Serif" font-size="10.00">src/main.cpp</text>
</a>
</g>
</g>
<!-- Node8&#45;&gt;Node11 -->
<g id="edge10" class="edge">
<title>Node8&#45;&gt;Node11</title>
<path fill="none" stroke="midnightblue" d="M340.12,-64.4C349.45,-51.77 361.76,-35.1 369.13,-25.13"/>
<polygon fill="midnightblue" stroke="midnightblue" points="337.1,-62.61 333.97,-72.73 342.73,-66.77 337.1,-62.61"/>
</g>
<!-- Node12&#45;&gt;Node10 -->
<g id="edge12" class="edge">
<title>Node12&#45;&gt;Node10</title>
<path fill="none" stroke="midnightblue" d="M1134.64,-66.98C976.82,-44.57 933.21,-59.43 780.5,-31 772.25,-29.46 763.41,-27.27 755.35,-25.05"/>
<polygon fill="midnightblue" stroke="midnightblue" points="1134.31,-70.46 1144.71,-68.43 1135.31,-63.54 1134.31,-70.46"/>
</g>
<!-- Node13 -->
<g id="node13" class="node">
<title>Node13</title>
<g id="a_node13"><a xlink:href="control__window_8cpp.html" target="_top" xlink:title="This file implements a window that allows the user to control CPU execution.">
<polygon fill="none" stroke="black" points="1145,-0.5 1145,-30.5 1276,-30.5 1276,-0.5 1145,-0.5"/>
<text text-anchor="start" x="1153" y="-18.5" font-family="Helvetica,sans-Serif" font-size="10.00">src/gui/windows/control</text>
<text text-anchor="middle" x="1210.5" y="-7.5" font-family="Helvetica,sans-Serif" font-size="10.00">_window.cpp</text>
</a>
</g>
</g>
<!-- Node12&#45;&gt;Node13 -->
<g id="edge13" class="edge">
<title>Node12&#45;&gt;Node13</title>
<path fill="none" stroke="midnightblue" d="M1210.5,-57.11C1210.5,-48.15 1210.5,-38.32 1210.5,-30.58"/>
<polygon fill="midnightblue" stroke="midnightblue" points="1207,-57.4 1210.5,-67.4 1214,-57.4 1207,-57.4"/>
</g>
<!-- Node14&#45;&gt;Node10 -->
<g id="edge15" class="edge">
<title>Node14&#45;&gt;Node10</title>
<path fill="none" stroke="midnightblue" d="M976.4,-66.81C888.28,-50.93 864.23,-50.07 780.5,-31 772.78,-29.24 764.49,-27.1 756.82,-25.01"/>
<polygon fill="midnightblue" stroke="midnightblue" points="975.82,-70.27 986.29,-68.61 977.08,-63.38 975.82,-70.27"/>
</g>
<!-- Node15 -->
<g id="node15" class="node">
<title>Node15</title>
<g id="a_node15"><a xlink:href="registers__window_8cpp.html" target="_top" xlink:title="This file implements a window that displays the contents of all CPU registers.">
<polygon fill="none" stroke="black" points="986.5,-0.5 986.5,-30.5 1126.5,-30.5 1126.5,-0.5 986.5,-0.5"/>
<text text-anchor="start" x="994.5" y="-18.5" font-family="Helvetica,sans-Serif" font-size="10.00">src/gui/windows/registers</text>
<text text-anchor="middle" x="1056.5" y="-7.5" font-family="Helvetica,sans-Serif" font-size="10.00">_window.cpp</text>
</a>
</g>
</g>
<!-- Node14&#45;&gt;Node15 -->
<g id="edge16" class="edge">
<title>Node14&#45;&gt;Node15</title>
<path fill="none" stroke="midnightblue" d="M1056.5,-57.11C1056.5,-48.15 1056.5,-38.32 1056.5,-30.58"/>
<polygon fill="midnightblue" stroke="midnightblue" points="1053,-57.4 1056.5,-67.4 1060,-57.4 1053,-57.4"/>
</g>
<!-- Node16&#45;&gt;Node10 -->
<g id="edge18" class="edge">
<title>Node16&#45;&gt;Node10</title>
<path fill="none" stroke="midnightblue" d="M667.48,-61.34C683.72,-49.21 703.56,-34.39 715.86,-25.19"/>
<polygon fill="midnightblue" stroke="midnightblue" points="665.29,-58.61 659.38,-67.4 669.48,-64.21 665.29,-58.61"/>
</g>
<!-- Node17 -->
<g id="node17" class="node">
<title>Node17</title>
<g id="a_node17"><a xlink:href="source__code__window_8cpp.html" target="_top" xlink:title="This file implements a window that displays loaded ELF files (disassembled instructions of the source...">
<polygon fill="none" stroke="black" points="508.5,-0.5 508.5,-30.5 638.5,-30.5 638.5,-0.5 508.5,-0.5"/>
<text text-anchor="start" x="516.5" y="-18.5" font-family="Helvetica,sans-Serif" font-size="10.00">src/gui/windows/source</text>
<text text-anchor="middle" x="573.5" y="-7.5" font-family="Helvetica,sans-Serif" font-size="10.00">_code_window.cpp</text>
</a>
</g>
</g>
<!-- Node16&#45;&gt;Node17 -->
<g id="edge19" class="edge">
<title>Node16&#45;&gt;Node17</title>
<path fill="none" stroke="midnightblue" d="M618.66,-60.31C608.61,-50.56 596.96,-39.26 588.01,-30.58"/>
<polygon fill="midnightblue" stroke="midnightblue" points="616.35,-62.94 625.96,-67.4 621.22,-57.92 616.35,-62.94"/>
</g>
<!-- Node18&#45;&gt;Node10 -->
<g id="edge21" class="edge">
<title>Node18&#45;&gt;Node10</title>
<path fill="none" stroke="midnightblue" d="M762.41,-59.32C752.86,-47.6 741.67,-33.88 734.59,-25.19"/>
<polygon fill="midnightblue" stroke="midnightblue" points="759.97,-61.86 769,-67.4 765.39,-57.43 759.97,-61.86"/>
</g>
<!-- Node19 -->
<g id="node19" class="node">
<title>Node19</title>
<g id="a_node19"><a xlink:href="top__bar__menu_8cpp.html" target="_top" xlink:title=" ">
<polygon fill="none" stroke="black" points="789,-0.5 789,-30.5 902,-30.5 902,-0.5 789,-0.5"/>
<text text-anchor="start" x="797" y="-18.5" font-family="Helvetica,sans-Serif" font-size="10.00">src/gui/windows/top</text>
<text text-anchor="middle" x="845.5" y="-7.5" font-family="Helvetica,sans-Serif" font-size="10.00">_bar_menu.cpp</text>
</a>
</g>
</g>
<!-- Node18&#45;&gt;Node19 -->
<g id="edge22" class="edge">
<title>Node18&#45;&gt;Node19</title>
<path fill="none" stroke="midnightblue" d="M801.69,-60.31C811.44,-50.56 822.74,-39.26 831.42,-30.58"/>
<polygon fill="midnightblue" stroke="midnightblue" points="799.2,-57.85 794.6,-67.4 804.15,-62.8 799.2,-57.85"/>
</g>
<!-- Node20&#45;&gt;Node6 -->
<g id="edge24" class="edge">
<title>Node20&#45;&gt;Node6</title>
<path fill="none" stroke="midnightblue" d="M1026.97,-404.86C1084.9,-386.07 1157.5,-349.55 1157.5,-284.5 1157.5,-284.5 1157.5,-284.5 1157.5,-215.5 1157.5,-148.78 1236.3,-113.71 1294.48,-96.91"/>
<polygon fill="midnightblue" stroke="midnightblue" points="1025.58,-401.63 1017.08,-407.95 1027.67,-408.31 1025.58,-401.63"/>
</g>
<!-- Node21 -->
<g id="node21" class="node">
<title>Node21</title>
<g id="a_node21"><a xlink:href="cp10_8hpp.html" target="_top" xlink:title="This file defines coprocessor CP10 (single&#45;precision FPU).">
<polygon fill="none" stroke="black" points="192.5,-134.5 192.5,-164.5 314.5,-164.5 314.5,-134.5 192.5,-134.5"/>
<text text-anchor="start" x="200.5" y="-152.5" font-family="Helvetica,sans-Serif" font-size="10.00">src/core/coprocessors</text>
<text text-anchor="middle" x="253.5" y="-141.5" font-family="Helvetica,sans-Serif" font-size="10.00">/cp10/cp10.hpp</text>
</a>
</g>
</g>
<!-- Node20&#45;&gt;Node21 -->
<g id="edge25" class="edge">
<title>Node20&#45;&gt;Node21</title>
<path fill="none" stroke="midnightblue" d="M898.97,-405.26C894.75,-404.13 890.57,-403.03 886.5,-402 680.88,-349.95 617.76,-376.96 420.5,-299 366.2,-277.54 349.8,-272.24 307.5,-232 286.35,-211.88 269.24,-182.01 260.29,-164.57"/>
<polygon fill="midnightblue" stroke="midnightblue" points="898.21,-408.68 908.78,-407.95 900.06,-401.93 898.21,-408.68"/>
</g>
<!-- Node24 -->
<g id="node24" class="node">
<title>Node24</title>
<g id="a_node24"><a xlink:href="cp15_8hpp.html" target="_top" xlink:title="This file defines coprocessor CP15.">
<polygon fill="none" stroke="black" points="829.5,-335.5 829.5,-365.5 951.5,-365.5 951.5,-335.5 829.5,-335.5"/>
<text text-anchor="start" x="837.5" y="-353.5" font-family="Helvetica,sans-Serif" font-size="10.00">src/core/coprocessors</text>
<text text-anchor="middle" x="890.5" y="-342.5" font-family="Helvetica,sans-Serif" font-size="10.00">/cp15/cp15.hpp</text>
</a>
</g>
</g>
<!-- Node20&#45;&gt;Node24 -->
<g id="edge31" class="edge">
<title>Node20&#45;&gt;Node24</title>
<path fill="none" stroke="midnightblue" d="M936.25,-400.36C925.71,-389.11 913.14,-375.68 903.84,-365.75"/>
<polygon fill="midnightblue" stroke="midnightblue" points="933.75,-402.83 943.14,-407.73 938.86,-398.04 933.75,-402.83"/>
</g>
<!-- Node21&#45;&gt;Node7 -->
<g id="edge26" class="edge">
<title>Node21&#45;&gt;Node7</title>
<path fill="none" stroke="midnightblue" d="M235.52,-126.45C227.73,-116.9 218.85,-106 211.98,-97.58"/>
<polygon fill="midnightblue" stroke="midnightblue" points="232.97,-128.86 242,-134.4 238.39,-124.43 232.97,-128.86"/>
</g>
<!-- Node21&#45;&gt;Node8 -->
<g id="edge27" class="edge">
<title>Node21&#45;&gt;Node8</title>
<path fill="none" stroke="midnightblue" d="M277.21,-127.67C290.87,-115.67 307.33,-101.22 317.6,-92.19"/>
<polygon fill="midnightblue" stroke="midnightblue" points="274.76,-125.17 269.56,-134.4 279.38,-130.43 274.76,-125.17"/>
</g>
<!-- Node22 -->
<g id="node22" class="node">
<title>Node22</title>
<g id="a_node22"><a xlink:href="cp10__window_8hpp.html" target="_top" xlink:title="This file defines a window that displays data (information) related to coprocessor 10 (FPU).">
<polygon fill="none" stroke="black" points="0,-67.5 0,-97.5 121,-97.5 121,-67.5 0,-67.5"/>
<text text-anchor="start" x="8" y="-85.5" font-family="Helvetica,sans-Serif" font-size="10.00">src/gui/windows/cp10</text>
<text text-anchor="middle" x="60.5" y="-74.5" font-family="Helvetica,sans-Serif" font-size="10.00">_window.hpp</text>
</a>
</g>
</g>
<!-- Node21&#45;&gt;Node22 -->
<g id="edge28" class="edge">
<title>Node21&#45;&gt;Node22</title>
<path fill="none" stroke="midnightblue" d="M201.81,-131.09C170.66,-120.6 131.49,-107.41 102.3,-97.58"/>
<polygon fill="midnightblue" stroke="midnightblue" points="201.03,-134.52 211.62,-134.4 203.26,-127.89 201.03,-134.52"/>
</g>
<!-- Node22&#45;&gt;Node10 -->
<g id="edge29" class="edge">
<title>Node22&#45;&gt;Node10</title>
<path fill="none" stroke="midnightblue" d="M131.11,-67.06C360.42,-36.24 422.18,-59.18 647.5,-31 659.83,-29.46 673.13,-27.26 685.28,-25.05"/>
<polygon fill="midnightblue" stroke="midnightblue" points="130.56,-63.6 121.12,-68.42 131.5,-70.54 130.56,-63.6"/>
</g>
<!-- Node23 -->
<g id="node23" class="node">
<title>Node23</title>
<g id="a_node23"><a xlink:href="cp10__window_8cpp.html" target="_top" xlink:title="This file implements a window that displays data (information) related to coprocessor 10 (FPU).">
<polygon fill="none" stroke="black" points="0,-0.5 0,-30.5 121,-30.5 121,-0.5 0,-0.5"/>
<text text-anchor="start" x="8" y="-18.5" font-family="Helvetica,sans-Serif" font-size="10.00">src/gui/windows/cp10</text>
<text text-anchor="middle" x="60.5" y="-7.5" font-family="Helvetica,sans-Serif" font-size="10.00">_window.cpp</text>
</a>
</g>
</g>
<!-- Node22&#45;&gt;Node23 -->
<g id="edge30" class="edge">
<title>Node22&#45;&gt;Node23</title>
<path fill="none" stroke="midnightblue" d="M60.5,-57.11C60.5,-48.15 60.5,-38.32 60.5,-30.58"/>
<polygon fill="midnightblue" stroke="midnightblue" points="57,-57.4 60.5,-67.4 64,-57.4 57,-57.4"/>
</g>
<!-- Node24&#45;&gt;Node4 -->
<g id="edge32" class="edge">
<title>Node24&#45;&gt;Node4</title>
<path fill="none" stroke="midnightblue" d="M961.96,-341.75C1015.85,-334.26 1083.33,-320.79 1100.5,-299 1127.46,-264.79 1126.49,-235.95 1100.5,-201 1075.06,-166.78 1027.2,-154.89 989.05,-151.13"/>
<polygon fill="midnightblue" stroke="midnightblue" points="961.17,-338.33 951.73,-343.13 962.1,-345.26 961.17,-338.33"/>
</g>
<!-- Node24&#45;&gt;Node8 -->
<g id="edge50" class="edge">
<title>Node24&#45;&gt;Node8</title>
<path fill="none" stroke="midnightblue" d="M818.89,-343.18C689.69,-330.28 425.16,-296.53 362.5,-232 323.75,-192.09 325.02,-117.73 326.73,-92.3"/>
<polygon fill="midnightblue" stroke="midnightblue" points="818.79,-346.69 829.08,-344.18 819.48,-339.72 818.79,-346.69"/>
</g>
<!-- Node25 -->
<g id="node25" class="node">
<title>Node25</title>
<g id="a_node25"><a xlink:href="mmu_8hpp.html" target="_top" xlink:title="This file defines the MMU (memory management unit) of the CPU.">
<polygon fill="none" stroke="black" points="745,-201.5 745,-231.5 858,-231.5 858,-201.5 745,-201.5"/>
<text text-anchor="start" x="753" y="-219.5" font-family="Helvetica,sans-Serif" font-size="10.00">src/core/arm1176jzf</text>
<text text-anchor="middle" x="801.5" y="-208.5" font-family="Helvetica,sans-Serif" font-size="10.00">_s/mmu/mmu.hpp</text>
</a>
</g>
</g>
<!-- Node24&#45;&gt;Node25 -->
<g id="edge33" class="edge">
<title>Node24&#45;&gt;Node25</title>
<path fill="none" stroke="midnightblue" d="M854.27,-329.98C842.24,-321.86 829.81,-311.41 821.5,-299 807.64,-278.3 803.37,-248.89 802.07,-231.64"/>
<polygon fill="midnightblue" stroke="midnightblue" points="852.58,-333.06 862.9,-335.48 856.34,-327.15 852.58,-333.06"/>
</g>
<!-- Node27 -->
<g id="node27" class="node">
<title>Node27</title>
<g id="a_node27"><a xlink:href="bus_8hpp.html" target="_top" xlink:title="This file defines an interface the CPU uses to access different memory&#45;mapped peripherals.">
<polygon fill="none" stroke="black" points="622.5,-274 622.5,-293 718.5,-293 718.5,-274 622.5,-274"/>
<text text-anchor="middle" x="670.5" y="-281" font-family="Helvetica,sans-Serif" font-size="10.00">src/core/bus.hpp</text>
</a>
</g>
</g>
<!-- Node24&#45;&gt;Node27 -->
<g id="edge37" class="edge">
<title>Node24&#45;&gt;Node27</title>
<path fill="none" stroke="midnightblue" d="M833.27,-332.59C790.3,-319.9 733.26,-303.04 699.37,-293.03"/>
<polygon fill="midnightblue" stroke="midnightblue" points="832.45,-336 843.03,-335.48 834.44,-329.29 832.45,-336"/>
</g>
<!-- Node31 -->
<g id="node31" class="node">
<title>Node31</title>
<g id="a_node31"><a xlink:href="cp15_8cpp.html" target="_top" xlink:title="This file implements coprocessor CP15.">
<polygon fill="none" stroke="black" points="969.5,-268.5 969.5,-298.5 1091.5,-298.5 1091.5,-268.5 969.5,-268.5"/>
<text text-anchor="start" x="977.5" y="-286.5" font-family="Helvetica,sans-Serif" font-size="10.00">src/core/coprocessors</text>
<text text-anchor="middle" x="1030.5" y="-275.5" font-family="Helvetica,sans-Serif" font-size="10.00">/cp15/cp15.cpp</text>
</a>
</g>
</g>
<!-- Node24&#45;&gt;Node31 -->
<g id="edge49" class="edge">
<title>Node24&#45;&gt;Node31</title>
<path fill="none" stroke="midnightblue" d="M930.07,-331.13C952.31,-320.8 979.65,-308.11 1000.18,-298.58"/>
<polygon fill="midnightblue" stroke="midnightblue" points="928.47,-328.01 920.88,-335.4 931.42,-334.36 928.47,-328.01"/>
</g>
<!-- Node32 -->
<g id="node32" class="node">
<title>Node32</title>
<g id="a_node32"><a xlink:href="cp15__window_8hpp.html" target="_top" xlink:title="This file defines a window that displays data (information) related to coprocessor 15.">
<polygon fill="none" stroke="black" points="830,-268.5 830,-298.5 951,-298.5 951,-268.5 830,-268.5"/>
<text text-anchor="start" x="838" y="-286.5" font-family="Helvetica,sans-Serif" font-size="10.00">src/gui/windows/cp15</text>
<text text-anchor="middle" x="890.5" y="-275.5" font-family="Helvetica,sans-Serif" font-size="10.00">_window.hpp</text>
</a>
</g>
</g>
<!-- Node24&#45;&gt;Node32 -->
<g id="edge51" class="edge">
<title>Node24&#45;&gt;Node32</title>
<path fill="none" stroke="midnightblue" d="M890.5,-325.11C890.5,-316.15 890.5,-306.32 890.5,-298.58"/>
<polygon fill="midnightblue" stroke="midnightblue" points="887,-325.4 890.5,-335.4 894,-325.4 887,-325.4"/>
</g>
<!-- Node25&#45;&gt;Node4 -->
<g id="edge34" class="edge">
<title>Node25&#45;&gt;Node4</title>
<path fill="none" stroke="midnightblue" d="M839.08,-196.85C859.79,-186.58 885.09,-174.03 904.13,-164.58"/>
<polygon fill="midnightblue" stroke="midnightblue" points="837.33,-193.82 829.93,-201.4 840.44,-200.09 837.33,-193.82"/>
</g>
<!-- Node25&#45;&gt;Node8 -->
<g id="edge36" class="edge">
<title>Node25&#45;&gt;Node8</title>
<path fill="none" stroke="midnightblue" d="M734.87,-209.54C683.4,-203.17 611.27,-190.33 552.5,-165 530.53,-155.53 530.11,-144.25 508.5,-134 495.05,-127.62 408.79,-104.67 360.37,-92.02"/>
<polygon fill="midnightblue" stroke="midnightblue" points="734.53,-213.02 744.88,-210.73 735.36,-206.07 734.53,-213.02"/>
</g>
<!-- Node26 -->
<g id="node26" class="node">
<title>Node26</title>
<g id="a_node26"><a xlink:href="mmu_8cpp.html" target="_top" xlink:title="This file implements the MMU (memory management unit) of the CPU.">
<polygon fill="none" stroke="black" points="745,-134.5 745,-164.5 858,-164.5 858,-134.5 745,-134.5"/>
<text text-anchor="start" x="753" y="-152.5" font-family="Helvetica,sans-Serif" font-size="10.00">src/core/arm1176jzf</text>
<text text-anchor="middle" x="801.5" y="-141.5" font-family="Helvetica,sans-Serif" font-size="10.00">_s/mmu/mmu.cpp</text>
</a>
</g>
</g>
<!-- Node25&#45;&gt;Node26 -->
<g id="edge35" class="edge">
<title>Node25&#45;&gt;Node26</title>
<path fill="none" stroke="midnightblue" d="M801.5,-191.11C801.5,-182.15 801.5,-172.32 801.5,-164.58"/>
<polygon fill="midnightblue" stroke="midnightblue" points="798,-191.4 801.5,-201.4 805,-191.4 798,-191.4"/>
</g>
<!-- Node27&#45;&gt;Node4 -->
<g id="edge38" class="edge">
<title>Node27&#45;&gt;Node4</title>
<path fill="none" stroke="midnightblue" d="M728.84,-277.44C770.28,-271.59 825.74,-259.02 867.5,-232 894.09,-214.8 914.7,-183.03 925.08,-164.65"/>
<polygon fill="midnightblue" stroke="midnightblue" points="728.35,-273.97 718.9,-278.75 729.27,-280.91 728.35,-273.97"/>
</g>
<!-- Node27&#45;&gt;Node8 -->
<g id="edge42" class="edge">
<title>Node27&#45;&gt;Node8</title>
<path fill="none" stroke="midnightblue" d="M646.92,-268.82C580.94,-230.54 395.75,-123.09 342.18,-92.02"/>
<polygon fill="midnightblue" stroke="midnightblue" points="645.36,-271.96 655.76,-273.95 648.87,-265.9 645.36,-271.96"/>
</g>
<!-- Node27&#45;&gt;Node18 -->
<g id="edge43" class="edge">
<title>Node27&#45;&gt;Node18</title>
<path fill="none" stroke="midnightblue" d="M676.68,-264.04C686.82,-235.06 708.67,-177.67 736.5,-134 745,-120.66 756.89,-107.25 766.16,-97.6"/>
<polygon fill="midnightblue" stroke="midnightblue" points="673.31,-263.08 673.38,-273.67 679.93,-265.35 673.31,-263.08"/>
</g>
<!-- Node27&#45;&gt;Node21 -->
<g id="edge41" class="edge">
<title>Node27&#45;&gt;Node21</title>
<path fill="none" stroke="midnightblue" d="M612.12,-281.14C548.42,-277.81 444.56,-266.92 362.5,-232 324.23,-215.72 287.06,-183.3 267.57,-164.63"/>
<polygon fill="midnightblue" stroke="midnightblue" points="612.22,-284.65 622.38,-281.63 612.55,-277.65 612.22,-284.65"/>
</g>
<!-- Node27&#45;&gt;Node25 -->
<g id="edge39" class="edge">
<title>Node27&#45;&gt;Node25</title>
<path fill="none" stroke="midnightblue" d="M697.02,-269.34C719.07,-258.4 750.39,-242.86 772.98,-231.65"/>
<polygon fill="midnightblue" stroke="midnightblue" points="695.3,-266.29 687.9,-273.87 698.41,-272.56 695.3,-266.29"/>
</g>
<!-- Node28 -->
<g id="node28" class="node">
<title>Node28</title>
<g id="a_node28"><a xlink:href="bus_8cpp.html" target="_top" xlink:title="This file implements the interface defined in bus.hpp.">
<polygon fill="none" stroke="black" points="371,-207 371,-226 466,-226 466,-207 371,-207"/>
<text text-anchor="middle" x="418.5" y="-214" font-family="Helvetica,sans-Serif" font-size="10.00">src/core/bus.cpp</text>
</a>
</g>
</g>
<!-- Node27&#45;&gt;Node28 -->
<g id="edge40" class="edge">
<title>Node27&#45;&gt;Node28</title>
<path fill="none" stroke="midnightblue" d="M627.48,-271.4C577.75,-258.58 496.95,-237.74 451.78,-226.08"/>
<polygon fill="midnightblue" stroke="midnightblue" points="626.74,-274.83 637.3,-273.94 628.49,-268.05 626.74,-274.83"/>
</g>
<!-- Node29 -->
<g id="node29" class="node">
<title>Node29</title>
<g id="a_node29"><a xlink:href="elf__loader_8hpp.html" target="_top" xlink:title="This file defines the functionality of an ELF loader.">
<polygon fill="none" stroke="black" points="561,-140 561,-159 688,-159 688,-140 561,-140"/>
<text text-anchor="middle" x="624.5" y="-147" font-family="Helvetica,sans-Serif" font-size="10.00">src/utils/elf_loader.hpp</text>
</a>
</g>
</g>
<!-- Node27&#45;&gt;Node29 -->
<g id="edge44" class="edge">
<title>Node27&#45;&gt;Node29</title>
<path fill="none" stroke="midnightblue" d="M664.11,-264.16C654.03,-235.23 634.83,-180.13 627.47,-159.02"/>
<polygon fill="midnightblue" stroke="midnightblue" points="660.89,-265.55 667.48,-273.84 667.5,-263.24 660.89,-265.55"/>
</g>
<!-- Node29&#45;&gt;Node16 -->
<g id="edge46" class="edge">
<title>Node29&#45;&gt;Node16</title>
<path fill="none" stroke="midnightblue" d="M629.12,-129.74C631.64,-119.49 634.72,-107 637.03,-97.59"/>
<polygon fill="midnightblue" stroke="midnightblue" points="625.65,-129.19 626.66,-139.73 632.45,-130.86 625.65,-129.19"/>
</g>
<!-- Node29&#45;&gt;Node17 -->
<g id="edge45" class="edge">
<title>Node29&#45;&gt;Node17</title>
<path fill="none" stroke="midnightblue" d="M599.83,-134.24C587.34,-125.53 573.4,-113.16 566.5,-98 556.56,-76.16 562.79,-47.64 568.18,-30.77"/>
<polygon fill="midnightblue" stroke="midnightblue" points="598.25,-137.39 608.54,-139.92 602.08,-131.52 598.25,-137.39"/>
</g>
<!-- Node29&#45;&gt;Node18 -->
<g id="edge47" class="edge">
<title>Node29&#45;&gt;Node18</title>
<path fill="none" stroke="midnightblue" d="M654.71,-135.91C681.13,-124.91 719.44,-108.94 746.83,-97.53"/>
<polygon fill="midnightblue" stroke="midnightblue" points="653.1,-132.79 645.22,-139.87 655.79,-139.25 653.1,-132.79"/>
</g>
<!-- Node30 -->
<g id="node30" class="node">
<title>Node30</title>
<g id="a_node30"><a xlink:href="elf__loader_8cpp.html" target="_top" xlink:title="This file implements the functionality of an ELF loader defined in elf_loader.hpp.">
<polygon fill="none" stroke="black" points="393.5,-73 393.5,-92 519.5,-92 519.5,-73 393.5,-73"/>
<text text-anchor="middle" x="456.5" y="-80" font-family="Helvetica,sans-Serif" font-size="10.00">src/utils/elf_loader.cpp</text>
</a>
</g>
</g>
<!-- Node29&#45;&gt;Node30 -->
<g id="edge48" class="edge">
<title>Node29&#45;&gt;Node30</title>
<path fill="none" stroke="midnightblue" d="M592.46,-136.1C559.11,-123.2 507.75,-103.33 478.63,-92.06"/>
<polygon fill="midnightblue" stroke="midnightblue" points="591.6,-139.52 602.19,-139.87 594.13,-133 591.6,-139.52"/>
</g>
<!-- Node32&#45;&gt;Node10 -->
<g id="edge52" class="edge">
<title>Node32&#45;&gt;Node10</title>
<path fill="none" stroke="midnightblue" d="M904.39,-259.7C916.98,-241.02 937.24,-215.42 961.5,-201 1146.01,-91.32 1572.99,-222.95 1425.5,-67 1376.18,-14.85 851.35,-42.53 780.5,-31 771.93,-29.6 762.76,-27.37 754.49,-25.07"/>
<polygon fill="midnightblue" stroke="midnightblue" points="901.37,-257.93 898.85,-268.23 907.23,-261.75 901.37,-257.93"/>
</g>
<!-- Node33 -->
<g id="node33" class="node">
<title>Node33</title>
<g id="a_node33"><a xlink:href="cp15__window_8cpp.html" target="_top" xlink:title="This file implements a window that displays data (information) related to coprocessor 15.">
<polygon fill="none" stroke="black" points="970,-201.5 970,-231.5 1091,-231.5 1091,-201.5 970,-201.5"/>
<text text-anchor="start" x="978" y="-219.5" font-family="Helvetica,sans-Serif" font-size="10.00">src/gui/windows/cp15</text>
<text text-anchor="middle" x="1030.5" y="-208.5" font-family="Helvetica,sans-Serif" font-size="10.00">_window.cpp</text>
</a>
</g>
</g>
<!-- Node32&#45;&gt;Node33 -->
<g id="edge53" class="edge">
<title>Node32&#45;&gt;Node33</title>
<path fill="none" stroke="midnightblue" d="M930.07,-264.13C952.31,-253.8 979.65,-241.11 1000.18,-231.58"/>
<polygon fill="midnightblue" stroke="midnightblue" points="928.47,-261.01 920.88,-268.4 931.42,-267.36 928.47,-261.01"/>
</g>
</g>
</svg>
