<?xml version="1.0" encoding="UTF-8" standalone="no"?>
<!DOCTYPE svg PUBLIC "-//W3C//DTD SVG 1.1//EN"
 "http://www.w3.org/Graphics/SVG/1.1/DTD/svg11.dtd">
<!-- Generated by graphviz version 2.43.0 (0)
 -->
<!-- Title: src/core/arm1176jzf_s/isa/coprocessor_data_operation.hpp Pages: 1 -->
<svg width="1464pt" height="522pt"
 viewBox="0.00 0.00 1464.48 522.00" xmlns="http://www.w3.org/2000/svg" xmlns:xlink="http://www.w3.org/1999/xlink">
<g id="graph0" class="graph" transform="scale(1 1) rotate(0) translate(4 518)">
<title>src/core/arm1176jzf_s/isa/coprocessor_data_operation.hpp</title>
<!-- Node1 -->
<g id="Node000001" class="node">
<title>Node1</title>
<g id="a_Node000001"><a xlink:title="This file defines a coprocessor data operation (CDP).">
<polygon fill="#999999" stroke="#666666" points="1023,-514 890,-514 890,-473 1023,-473 1023,-514"/>
<text text-anchor="start" x="898" y="-502" font-family="Helvetica,sans-Serif" font-size="10.00">src/core/arm1176jzf</text>
<text text-anchor="start" x="898" y="-491" font-family="Helvetica,sans-Serif" font-size="10.00">_s/isa/coprocessor_data</text>
<text text-anchor="middle" x="956.5" y="-480" font-family="Helvetica,sans-Serif" font-size="10.00">_operation.hpp</text>
</a>
</g>
</g>
<!-- Node2 -->
<g id="Node000002" class="node">
<title>Node2</title>
<g id="a_Node000002"><a xlink:href="coprocessor__data__operation_8cpp.html" target="_top" xlink:title="This file implements a coprocessor data operation (CDP) as defined in coprocessor_data_operation....">
<polygon fill="white" stroke="#666666" points="877,-437 744,-437 744,-396 877,-396 877,-437"/>
<text text-anchor="start" x="752" y="-425" font-family="Helvetica,sans-Serif" font-size="10.00">src/core/arm1176jzf</text>
<text text-anchor="start" x="752" y="-414" font-family="Helvetica,sans-Serif" font-size="10.00">_s/isa/coprocessor_data</text>
<text text-anchor="middle" x="810.5" y="-403" font-family="Helvetica,sans-Serif" font-size="10.00">_operation.cpp</text>
</a>
</g>
</g>
<!-- Node1&#45;&gt;Node2 -->
<g id="edge1_Node000001_Node000002" class="edge">
<title>Node1&#45;&gt;Node2</title>
<g id="a_edge1_Node000001_Node000002"><a xlink:title=" ">
<path fill="none" stroke="#63b8ff" d="M909.41,-468.31C889.73,-458.2 867.15,-446.6 848.54,-437.04"/>
<polygon fill="#63b8ff" stroke="#63b8ff" points="908.03,-471.53 918.52,-472.99 911.23,-465.31 908.03,-471.53"/>
</a>
</g>
</g>
<!-- Node3 -->
<g id="Node000003" class="node">
<title>Node3</title>
<g id="a_Node000003"><a xlink:href="arm1176jzf__s_2isa_2isa_8hpp.html" target="_top" xlink:title="This file is just a helper file for including all ARM instructions supported by the emulator.">
<polygon fill="white" stroke="#666666" points="1299,-360 1186,-360 1186,-330 1299,-330 1299,-360"/>
<text text-anchor="start" x="1194" y="-348" font-family="Helvetica,sans-Serif" font-size="10.00">src/core/arm1176jzf</text>
<text text-anchor="middle" x="1242.5" y="-337" font-family="Helvetica,sans-Serif" font-size="10.00">_s/isa/isa.hpp</text>
</a>
</g>
</g>
<!-- Node1&#45;&gt;Node3 -->
<g id="edge2_Node000001_Node000003" class="edge">
<title>Node1&#45;&gt;Node3</title>
<g id="a_edge2_Node000001_Node000003"><a xlink:title=" ">
<path fill="none" stroke="#63b8ff" d="M1003.72,-468.31C1064.03,-437.42 1166.42,-384.97 1215.15,-360.01"/>
<polygon fill="#63b8ff" stroke="#63b8ff" points="1002.08,-465.22 994.77,-472.89 1005.27,-471.45 1002.08,-465.22"/>
</a>
</g>
</g>
<!-- Node20 -->
<g id="Node000020" class="node">
<title>Node20</title>
<g id="a_Node000020"><a xlink:href="coprocessor_8hpp.html" target="_top" xlink:title="This file defines a general interface of a coprocessor.">
<polygon fill="white" stroke="#666666" points="1017.5,-431.5 895.5,-431.5 895.5,-401.5 1017.5,-401.5 1017.5,-431.5"/>
<text text-anchor="start" x="903.5" y="-419.5" font-family="Helvetica,sans-Serif" font-size="10.00">src/core/coprocessors</text>
<text text-anchor="middle" x="956.5" y="-408.5" font-family="Helvetica,sans-Serif" font-size="10.00">/coprocessor.hpp</text>
</a>
</g>
</g>
<!-- Node1&#45;&gt;Node20 -->
<g id="edge23_Node000001_Node000020" class="edge">
<title>Node1&#45;&gt;Node20</title>
<g id="a_edge23_Node000001_Node000020"><a xlink:title=" ">
<path fill="none" stroke="#63b8ff" d="M956.5,-462.61C956.5,-452.01 956.5,-440.57 956.5,-431.86"/>
<polygon fill="#63b8ff" stroke="#63b8ff" points="953,-462.79 956.5,-472.79 960,-462.79 953,-462.79"/>
</a>
</g>
</g>
<!-- Node4 -->
<g id="Node000004" class="node">
<title>Node4</title>
<g id="a_Node000004"><a xlink:href="core_8hpp.html" target="_top" xlink:title="This file defines a class that represents a CPU core (arm1176jzf_s).">
<polygon fill="white" stroke="#666666" points="989,-162 876,-162 876,-132 989,-132 989,-162"/>
<text text-anchor="start" x="884" y="-150" font-family="Helvetica,sans-Serif" font-size="10.00">src/core/arm1176jzf</text>
<text text-anchor="middle" x="932.5" y="-139" font-family="Helvetica,sans-Serif" font-size="10.00">_s/core.hpp</text>
</a>
</g>
</g>
<!-- Node3&#45;&gt;Node4 -->
<g id="edge3_Node000003_Node000004" class="edge">
<title>Node3&#45;&gt;Node4</title>
<g id="a_edge3_Node000003_Node000004"><a xlink:title=" ">
<path fill="none" stroke="#63b8ff" d="M1229.98,-321.09C1211.04,-288.65 1172.03,-229.75 1122.5,-198 1082.3,-172.23 1029.24,-159.69 989.42,-153.62"/>
<polygon fill="#63b8ff" stroke="#63b8ff" points="1226.99,-322.92 1234.99,-329.87 1233.07,-319.45 1226.99,-322.92"/>
</a>
</g>
</g>
<!-- Node5 -->
<g id="Node000005" class="node">
<title>Node5</title>
<g id="a_Node000005"><a xlink:href="core_8cpp.html" target="_top" xlink:title="This file implements the CCPU_Core class defined in core.hpp.">
<polygon fill="white" stroke="#666666" points="968,-96 855,-96 855,-66 968,-66 968,-96"/>
<text text-anchor="start" x="863" y="-84" font-family="Helvetica,sans-Serif" font-size="10.00">src/core/arm1176jzf</text>
<text text-anchor="middle" x="911.5" y="-73" font-family="Helvetica,sans-Serif" font-size="10.00">_s/core.cpp</text>
</a>
</g>
</g>
<!-- Node4&#45;&gt;Node5 -->
<g id="edge4_Node000004_Node000005" class="edge">
<title>Node4&#45;&gt;Node5</title>
<g id="a_edge4_Node000004_Node000005"><a xlink:title=" ">
<path fill="none" stroke="#63b8ff" d="M924.66,-122.11C921.8,-113.38 918.65,-103.78 916.15,-96.16"/>
<polygon fill="#63b8ff" stroke="#63b8ff" points="921.4,-123.39 927.84,-131.8 928.05,-121.2 921.4,-123.39"/>
</a>
</g>
</g>
<!-- Node6 -->
<g id="Node000006" class="node">
<title>Node6</title>
<g id="a_Node000006"><a xlink:href="coprocessor_8cpp.html" target="_top" xlink:title="This file implements the common functionality of a general interface of a coprocessor.">
<polygon fill="white" stroke="#666666" points="1416.5,-96 1294.5,-96 1294.5,-66 1416.5,-66 1416.5,-96"/>
<text text-anchor="start" x="1302.5" y="-84" font-family="Helvetica,sans-Serif" font-size="10.00">src/core/coprocessors</text>
<text text-anchor="middle" x="1355.5" y="-73" font-family="Helvetica,sans-Serif" font-size="10.00">/coprocessor.cpp</text>
</a>
</g>
</g>
<!-- Node4&#45;&gt;Node6 -->
<g id="edge5_Node000004_Node000006" class="edge">
<title>Node4&#45;&gt;Node6</title>
<g id="a_edge5_Node000004_Node000006"><a xlink:title=" ">
<path fill="none" stroke="#63b8ff" d="M999.37,-137.68C1070.49,-128.56 1186.2,-112.95 1285.5,-96 1288.43,-95.5 1291.43,-94.97 1294.45,-94.42"/>
<polygon fill="#63b8ff" stroke="#63b8ff" points="998.68,-134.24 989.21,-138.97 999.57,-141.18 998.68,-134.24"/>
</a>
</g>
</g>
<!-- Node7 -->
<g id="Node000007" class="node">
<title>Node7</title>
<g id="a_Node000007"><a xlink:href="cp10_8cpp.html" target="_top" xlink:title="This file implements coprocessor CP10 (single&#45;precision FPU).">
<polygon fill="white" stroke="#666666" points="261.5,-96 139.5,-96 139.5,-66 261.5,-66 261.5,-96"/>
<text text-anchor="start" x="147.5" y="-84" font-family="Helvetica,sans-Serif" font-size="10.00">src/core/coprocessors</text>
<text text-anchor="middle" x="200.5" y="-73" font-family="Helvetica,sans-Serif" font-size="10.00">/cp10/cp10.cpp</text>
</a>
</g>
</g>
<!-- Node4&#45;&gt;Node7 -->
<g id="edge6_Node000004_Node000007" class="edge">
<title>Node4&#45;&gt;Node7</title>
<g id="a_edge6_Node000004_Node000007"><a xlink:title=" ">
<path fill="none" stroke="#63b8ff" d="M865.62,-131.88C602.34,-96.77 530.77,-129.71 270.5,-96 267.55,-95.62 264.54,-95.18 261.5,-94.71"/>
<polygon fill="#63b8ff" stroke="#63b8ff" points="865.49,-135.4 875.87,-133.27 866.43,-128.46 865.49,-135.4"/>
</a>
</g>
</g>
<!-- Node8 -->
<g id="Node000008" class="node">
<title>Node8</title>
<g id="a_Node000008"><a xlink:href="soc_8hpp.html" target="_top" xlink:title=" ">
<polygon fill="white" stroke="#666666" points="375,-90.5 280,-90.5 280,-71.5 375,-71.5 375,-90.5"/>
<text text-anchor="middle" x="327.5" y="-78.5" font-family="Helvetica,sans-Serif" font-size="10.00">src/core/soc.hpp</text>
</a>
</g>
</g>
<!-- Node4&#45;&gt;Node8 -->
<g id="edge7_Node000004_Node000008" class="edge">
<title>Node4&#45;&gt;Node8</title>
<g id="a_edge7_Node000004_Node000008"><a xlink:title=" ">
<path fill="none" stroke="#63b8ff" d="M865.92,-131.91C652.67,-102.11 593.88,-129.28 384.5,-96 375.85,-94.62 366.57,-92.59 358.07,-90.5"/>
<polygon fill="#63b8ff" stroke="#63b8ff" points="865.47,-135.38 875.86,-133.32 866.46,-128.45 865.47,-135.38"/>
</a>
</g>
</g>
<!-- Node12 -->
<g id="Node000012" class="node">
<title>Node12</title>
<g id="a_Node000012"><a xlink:href="control__window_8hpp.html" target="_top" xlink:title="This file defines a window that allows the user to control CPU execution.">
<polygon fill="white" stroke="#666666" points="1276,-96 1145,-96 1145,-66 1276,-66 1276,-96"/>
<text text-anchor="start" x="1153" y="-84" font-family="Helvetica,sans-Serif" font-size="10.00">src/gui/windows/control</text>
<text text-anchor="middle" x="1210.5" y="-73" font-family="Helvetica,sans-Serif" font-size="10.00">_window.hpp</text>
</a>
</g>
</g>
<!-- Node4&#45;&gt;Node12 -->
<g id="edge11_Node000004_Node000012" class="edge">
<title>Node4&#45;&gt;Node12</title>
<g id="a_edge11_Node000004_Node000012"><a xlink:title=" ">
<path fill="none" stroke="#63b8ff" d="M998.92,-130.71C1044.72,-120.17 1105.11,-106.26 1149.65,-96.01"/>
<polygon fill="#63b8ff" stroke="#63b8ff" points="998.05,-127.32 989.09,-132.97 999.62,-134.14 998.05,-127.32"/>
</a>
</g>
</g>
<!-- Node14 -->
<g id="Node000014" class="node">
<title>Node14</title>
<g id="a_Node000014"><a xlink:href="registers__window_8hpp.html" target="_top" xlink:title="This file defines a window that displays the contents of all CPU registers.">
<polygon fill="white" stroke="#666666" points="1126.5,-96 986.5,-96 986.5,-66 1126.5,-66 1126.5,-96"/>
<text text-anchor="start" x="994.5" y="-84" font-family="Helvetica,sans-Serif" font-size="10.00">src/gui/windows/registers</text>
<text text-anchor="middle" x="1056.5" y="-73" font-family="Helvetica,sans-Serif" font-size="10.00">_window.hpp</text>
</a>
</g>
</g>
<!-- Node4&#45;&gt;Node14 -->
<g id="edge14_Node000004_Node000014" class="edge">
<title>Node4&#45;&gt;Node14</title>
<g id="a_edge14_Node000004_Node000014"><a xlink:title=" ">
<path fill="none" stroke="#63b8ff" d="M968.84,-127.24C988.2,-117.25 1011.6,-105.18 1029.35,-96.01"/>
<polygon fill="#63b8ff" stroke="#63b8ff" points="966.99,-124.26 959.71,-131.95 970.2,-130.48 966.99,-124.26"/>
</a>
</g>
</g>
<!-- Node16 -->
<g id="Node000016" class="node">
<title>Node16</title>
<g id="a_Node000016"><a xlink:href="source__code__window_8hpp.html" target="_top" xlink:title="This file defines a window that displays loaded ELF files (disassembled instructions of the source co...">
<polygon fill="white" stroke="#666666" points="705.5,-96 575.5,-96 575.5,-66 705.5,-66 705.5,-96"/>
<text text-anchor="start" x="583.5" y="-84" font-family="Helvetica,sans-Serif" font-size="10.00">src/gui/windows/source</text>
<text text-anchor="middle" x="640.5" y="-73" font-family="Helvetica,sans-Serif" font-size="10.00">_code_window.hpp</text>
</a>
</g>
</g>
<!-- Node4&#45;&gt;Node16 -->
<g id="edge17_Node000004_Node000016" class="edge">
<title>Node4&#45;&gt;Node16</title>
<g id="a_edge17_Node000004_Node000016"><a xlink:title=" ">
<path fill="none" stroke="#63b8ff" d="M865.8,-131.38C817.42,-120.78 752.37,-106.52 704.61,-96.05"/>
<polygon fill="#63b8ff" stroke="#63b8ff" points="865.34,-134.86 875.85,-133.58 866.83,-128.02 865.34,-134.86"/>
</a>
</g>
</g>
<!-- Node18 -->
<g id="Node000018" class="node">
<title>Node18</title>
<g id="a_Node000018"><a xlink:href="top__bar__menu_8hpp.html" target="_top" xlink:title=" ">
<polygon fill="white" stroke="#666666" points="837,-96 724,-96 724,-66 837,-66 837,-96"/>
<text text-anchor="start" x="732" y="-84" font-family="Helvetica,sans-Serif" font-size="10.00">src/gui/windows/top</text>
<text text-anchor="middle" x="780.5" y="-73" font-family="Helvetica,sans-Serif" font-size="10.00">_bar_menu.hpp</text>
</a>
</g>
</g>
<!-- Node4&#45;&gt;Node18 -->
<g id="edge20_Node000004_Node000018" class="edge">
<title>Node4&#45;&gt;Node18</title>
<g id="a_edge20_Node000004_Node000018"><a xlink:title=" ">
<path fill="none" stroke="#63b8ff" d="M889.88,-128.05C865.8,-117.91 836.14,-105.43 813.78,-96.01"/>
<polygon fill="#63b8ff" stroke="#63b8ff" points="888.57,-131.3 899.14,-131.95 891.28,-124.85 888.57,-131.3"/>
</a>
</g>
</g>
<!-- Node9 -->
<g id="Node000009" class="node">
<title>Node9</title>
<g id="a_Node000009"><a xlink:href="soc_8cpp.html" target="_top" xlink:title=" ">
<polygon fill="white" stroke="#666666" points="318,-24.5 223,-24.5 223,-5.5 318,-5.5 318,-24.5"/>
<text text-anchor="middle" x="270.5" y="-12.5" font-family="Helvetica,sans-Serif" font-size="10.00">src/core/soc.cpp</text>
</a>
</g>
</g>
<!-- Node8&#45;&gt;Node9 -->
<g id="edge8_Node000008_Node000009" class="edge">
<title>Node8&#45;&gt;Node9</title>
<g id="a_edge8_Node000008_Node000009"><a xlink:title=" ">
<path fill="none" stroke="#63b8ff" d="M312.91,-63.62C301.94,-51.31 287.33,-34.89 278.43,-24.91"/>
<polygon fill="#63b8ff" stroke="#63b8ff" points="310.55,-66.23 319.81,-71.37 315.78,-61.57 310.55,-66.23"/>
</a>
</g>
</g>
<!-- Node10 -->
<g id="Node000010" class="node">
<title>Node10</title>
<g id="a_Node000010"><a xlink:href="gui_8cpp.html" target="_top" xlink:title="This file implements the main GUI entry function that takes care of creating and rendering all window...">
<polygon fill="white" stroke="#666666" points="771,-24.5 684,-24.5 684,-5.5 771,-5.5 771,-24.5"/>
<text text-anchor="middle" x="727.5" y="-12.5" font-family="Helvetica,sans-Serif" font-size="10.00">src/gui/gui.cpp</text>
</a>
</g>
</g>
<!-- Node8&#45;&gt;Node10 -->
<g id="edge9_Node000008_Node000010" class="edge">
<title>Node8&#45;&gt;Node10</title>
<g id="a_edge9_Node000008_Node000010"><a xlink:title=" ">
<path fill="none" stroke="#63b8ff" d="M369.7,-69.11C374.67,-67.99 379.69,-66.92 384.5,-66 500.39,-43.9 530.93,-48.17 647.5,-30 659.34,-28.15 672.14,-25.99 683.95,-23.92"/>
<polygon fill="#63b8ff" stroke="#63b8ff" points="368.56,-65.79 359.63,-71.49 370.16,-72.6 368.56,-65.79"/>
</a>
</g>
</g>
<!-- Node11 -->
<g id="Node000011" class="node">
<title>Node11</title>
<g id="a_Node000011"><a xlink:href="main_8cpp.html" target="_top" xlink:title="This file defines and implements the main function of the application.">
<polygon fill="white" stroke="#666666" points="415,-24.5 336,-24.5 336,-5.5 415,-5.5 415,-24.5"/>
<text text-anchor="middle" x="375.5" y="-12.5" font-family="Helvetica,sans-Serif" font-size="10.00">src/main.cpp</text>
</a>
</g>
</g>
<!-- Node8&#45;&gt;Node11 -->
<g id="edge10_Node000008_Node000011" class="edge">
<title>Node8&#45;&gt;Node11</title>
<g id="a_edge10_Node000008_Node000011"><a xlink:title=" ">
<path fill="none" stroke="#63b8ff" d="M340.05,-63.27C349.26,-50.99 361.4,-34.8 368.82,-24.91"/>
<polygon fill="#63b8ff" stroke="#63b8ff" points="337.17,-61.27 333.97,-71.37 342.77,-65.47 337.17,-61.27"/>
</a>
</g>
</g>
<!-- Node12&#45;&gt;Node10 -->
<g id="edge12_Node000012_Node000010" class="edge">
<title>Node12&#45;&gt;Node10</title>
<g id="a_edge12_Node000012_Node000010"><a xlink:title=" ">
<path fill="none" stroke="#63b8ff" d="M1134.63,-65.97C976.76,-44.02 933.33,-57.76 780.5,-30 772.63,-28.57 764.22,-26.57 756.47,-24.53"/>
<polygon fill="#63b8ff" stroke="#63b8ff" points="1134.31,-69.46 1144.7,-67.4 1135.29,-62.53 1134.31,-69.46"/>
</a>
</g>
</g>
<!-- Node13 -->
<g id="Node000013" class="node">
<title>Node13</title>
<g id="a_Node000013"><a xlink:href="control__window_8cpp.html" target="_top" xlink:title="This file implements a window that allows the user to control CPU execution.">
<polygon fill="white" stroke="#666666" points="1276,-30 1145,-30 1145,0 1276,0 1276,-30"/>
<text text-anchor="start" x="1153" y="-18" font-family="Helvetica,sans-Serif" font-size="10.00">src/gui/windows/control</text>
<text text-anchor="middle" x="1210.5" y="-7" font-family="Helvetica,sans-Serif" font-size="10.00">_window.cpp</text>
</a>
</g>
</g>
<!-- Node12&#45;&gt;Node13 -->
<g id="edge13_Node000012_Node000013" class="edge">
<title>Node12&#45;&gt;Node13</title>
<g id="a_edge13_Node000012_Node000013"><a xlink:title=" ">
<path fill="none" stroke="#63b8ff" d="M1210.5,-55.54C1210.5,-46.96 1210.5,-37.61 1210.5,-30.16"/>
<polygon fill="#63b8ff" stroke="#63b8ff" points="1207,-55.8 1210.5,-65.8 1214,-55.8 1207,-55.8"/>
</a>
</g>
</g>
<!-- Node14&#45;&gt;Node10 -->
<g id="edge15_Node000014_Node000010" class="edge">
<title>Node14&#45;&gt;Node10</title>
<g id="a_edge15_Node000014_Node000010"><a xlink:title=" ">
<path fill="none" stroke="#63b8ff" d="M976.05,-65.59C898.06,-51.59 790.12,-32.14 780.5,-30 773.25,-28.39 765.5,-26.46 758.23,-24.56"/>
<polygon fill="#63b8ff" stroke="#63b8ff" points="975.9,-69.12 986.36,-67.44 977.14,-62.23 975.9,-69.12"/>
</a>
</g>
</g>
<!-- Node15 -->
<g id="Node000015" class="node">
<title>Node15</title>
<g id="a_Node000015"><a xlink:href="registers__window_8cpp.html" target="_top" xlink:title="This file implements a window that displays the contents of all CPU registers.">
<polygon fill="white" stroke="#666666" points="1126.5,-30 986.5,-30 986.5,0 1126.5,0 1126.5,-30"/>
<text text-anchor="start" x="994.5" y="-18" font-family="Helvetica,sans-Serif" font-size="10.00">src/gui/windows/registers</text>
<text text-anchor="middle" x="1056.5" y="-7" font-family="Helvetica,sans-Serif" font-size="10.00">_window.cpp</text>
</a>
</g>
</g>
<!-- Node14&#45;&gt;Node15 -->
<g id="edge16_Node000014_Node000015" class="edge">
<title>Node14&#45;&gt;Node15</title>
<g id="a_edge16_Node000014_Node000015"><a xlink:title=" ">
<path fill="none" stroke="#63b8ff" d="M1056.5,-55.54C1056.5,-46.96 1056.5,-37.61 1056.5,-30.16"/>
<polygon fill="#63b8ff" stroke="#63b8ff" points="1053,-55.8 1056.5,-65.8 1060,-55.8 1053,-55.8"/>
</a>
</g>
</g>
<!-- Node16&#45;&gt;Node10 -->
<g id="edge18_Node000016_Node000010" class="edge">
<title>Node16&#45;&gt;Node10</title>
<g id="a_edge18_Node000016_Node000010"><a xlink:title=" ">
<path fill="none" stroke="#63b8ff" d="M668.3,-59.55C684.32,-47.76 703.62,-33.57 715.73,-24.66"/>
<polygon fill="#63b8ff" stroke="#63b8ff" points="665.79,-57.05 659.81,-65.8 669.94,-62.69 665.79,-57.05"/>
</a>
</g>
</g>
<!-- Node17 -->
<g id="Node000017" class="node">
<title>Node17</title>
<g id="a_Node000017"><a xlink:href="source__code__window_8cpp.html" target="_top" xlink:title="This file implements a window that displays loaded ELF files (disassembled instructions of the source...">
<polygon fill="white" stroke="#666666" points="638.5,-30 508.5,-30 508.5,0 638.5,0 638.5,-30"/>
<text text-anchor="start" x="516.5" y="-18" font-family="Helvetica,sans-Serif" font-size="10.00">src/gui/windows/source</text>
<text text-anchor="middle" x="573.5" y="-7" font-family="Helvetica,sans-Serif" font-size="10.00">_code_window.cpp</text>
</a>
</g>
</g>
<!-- Node16&#45;&gt;Node17 -->
<g id="edge19_Node000016_Node000017" class="edge">
<title>Node16&#45;&gt;Node17</title>
<g id="a_edge19_Node000016_Node000017"><a xlink:title=" ">
<path fill="none" stroke="#63b8ff" d="M618.15,-58.65C608.33,-49.27 597.08,-38.53 588.33,-30.16"/>
<polygon fill="#63b8ff" stroke="#63b8ff" points="615.98,-61.42 625.63,-65.8 620.82,-56.36 615.98,-61.42"/>
</a>
</g>
</g>
<!-- Node18&#45;&gt;Node10 -->
<g id="edge21_Node000018_Node000010" class="edge">
<title>Node18&#45;&gt;Node10</title>
<g id="a_edge21_Node000018_Node000010"><a xlink:title=" ">
<path fill="none" stroke="#63b8ff" d="M762.23,-57.94C752.82,-46.58 741.87,-33.36 734.82,-24.84"/>
<polygon fill="#63b8ff" stroke="#63b8ff" points="759.66,-60.33 768.74,-65.8 765.06,-55.86 759.66,-60.33"/>
</a>
</g>
</g>
<!-- Node19 -->
<g id="Node000019" class="node">
<title>Node19</title>
<g id="a_Node000019"><a xlink:href="top__bar__menu_8cpp.html" target="_top" xlink:title=" ">
<polygon fill="white" stroke="#666666" points="902,-30 789,-30 789,0 902,0 902,-30"/>
<text text-anchor="start" x="797" y="-18" font-family="Helvetica,sans-Serif" font-size="10.00">src/gui/windows/top</text>
<text text-anchor="middle" x="845.5" y="-7" font-family="Helvetica,sans-Serif" font-size="10.00">_bar_menu.cpp</text>
</a>
</g>
</g>
<!-- Node18&#45;&gt;Node19 -->
<g id="edge22_Node000018_Node000019" class="edge">
<title>Node18&#45;&gt;Node19</title>
<g id="a_edge22_Node000018_Node000019"><a xlink:title=" ">
<path fill="none" stroke="#63b8ff" d="M802.19,-58.65C811.71,-49.27 822.62,-38.53 831.11,-30.16"/>
<polygon fill="#63b8ff" stroke="#63b8ff" points="799.6,-56.29 794.93,-65.8 804.51,-61.27 799.6,-56.29"/>
</a>
</g>
</g>
<!-- Node20&#45;&gt;Node6 -->
<g id="edge24_Node000020_Node000006" class="edge">
<title>Node20&#45;&gt;Node6</title>
<g id="a_edge24_Node000020_Node000006"><a xlink:title=" ">
<path fill="none" stroke="#63b8ff" d="M1027.5,-398.75C1085.35,-380.39 1157.5,-344.55 1157.5,-280 1157.5,-280 1157.5,-280 1157.5,-212 1157.5,-145.59 1236.3,-111.23 1294.48,-94.92"/>
<polygon fill="#63b8ff" stroke="#63b8ff" points="1026.17,-395.5 1017.63,-401.77 1028.21,-402.2 1026.17,-395.5"/>
</a>
</g>
</g>
<!-- Node21 -->
<g id="Node000021" class="node">
<title>Node21</title>
<g id="a_Node000021"><a xlink:href="cp10_8hpp.html" target="_top" xlink:title="This file defines coprocessor CP10 (single&#45;precision FPU).">
<polygon fill="white" stroke="#666666" points="314.5,-162 192.5,-162 192.5,-132 314.5,-132 314.5,-162"/>
<text text-anchor="start" x="200.5" y="-150" font-family="Helvetica,sans-Serif" font-size="10.00">src/core/coprocessors</text>
<text text-anchor="middle" x="253.5" y="-139" font-family="Helvetica,sans-Serif" font-size="10.00">/cp10/cp10.hpp</text>
</a>
</g>
</g>
<!-- Node20&#45;&gt;Node21 -->
<g id="edge25_Node000020_Node000021" class="edge">
<title>Node20&#45;&gt;Node21</title>
<g id="a_edge25_Node000020_Node000021"><a xlink:title=" ">
<path fill="none" stroke="#63b8ff" d="M897.45,-398.8C893.75,-397.83 890.08,-396.89 886.5,-396 680.74,-344.87 617.86,-371.46 420.5,-294 366.72,-272.89 350.76,-267.4 308.5,-228 287.42,-208.34 269.96,-179.25 260.69,-162.1"/>
<polygon fill="#63b8ff" stroke="#63b8ff" points="896.69,-402.22 907.26,-401.41 898.5,-395.45 896.69,-402.22"/>
</a>
</g>
</g>
<!-- Node24 -->
<g id="Node000024" class="node">
<title>Node24</title>
<g id="a_Node000024"><a xlink:href="cp15_8hpp.html" target="_top" xlink:title="This file defines coprocessor CP15.">
<polygon fill="white" stroke="#666666" points="951.5,-360 829.5,-360 829.5,-330 951.5,-330 951.5,-360"/>
<text text-anchor="start" x="837.5" y="-348" font-family="Helvetica,sans-Serif" font-size="10.00">src/core/coprocessors</text>
<text text-anchor="middle" x="890.5" y="-337" font-family="Helvetica,sans-Serif" font-size="10.00">/cp15/cp15.hpp</text>
</a>
</g>
</g>
<!-- Node20&#45;&gt;Node24 -->
<g id="edge31_Node000020_Node000024" class="edge">
<title>Node20&#45;&gt;Node24</title>
<g id="a_edge31_Node000020_Node000024"><a xlink:title=" ">
<path fill="none" stroke="#63b8ff" d="M936.25,-394.17C925.71,-383.08 913.14,-369.84 903.84,-360.04"/>
<polygon fill="#63b8ff" stroke="#63b8ff" points="933.72,-396.59 943.14,-401.44 938.8,-391.77 933.72,-396.59"/>
</a>
</g>
</g>
<!-- Node21&#45;&gt;Node7 -->
<g id="edge26_Node000021_Node000007" class="edge">
<title>Node21&#45;&gt;Node7</title>
<g id="a_edge26_Node000021_Node000007"><a xlink:title=" ">
<path fill="none" stroke="#63b8ff" d="M235.35,-124.09C227.7,-114.85 219.02,-104.36 212.23,-96.16"/>
<polygon fill="#63b8ff" stroke="#63b8ff" points="232.66,-126.33 241.74,-131.8 238.06,-121.86 232.66,-126.33"/>
</a>
</g>
</g>
<!-- Node21&#45;&gt;Node8 -->
<g id="edge27_Node000021_Node000008" class="edge">
<title>Node21&#45;&gt;Node8</title>
<g id="a_edge27_Node000021_Node000008"><a xlink:title=" ">
<path fill="none" stroke="#63b8ff" d="M277.86,-124.93C291.25,-113.35 307.14,-99.61 317.27,-90.84"/>
<polygon fill="#63b8ff" stroke="#63b8ff" points="275.2,-122.61 269.92,-131.8 279.78,-127.9 275.2,-122.61"/>
</a>
</g>
</g>
<!-- Node22 -->
<g id="Node000022" class="node">
<title>Node22</title>
<g id="a_Node000022"><a xlink:href="cp10__window_8hpp.html" target="_top" xlink:title="This file defines a window that displays data (information) related to coprocessor 10 (FPU).">
<polygon fill="white" stroke="#666666" points="121,-96 0,-96 0,-66 121,-66 121,-96"/>
<text text-anchor="start" x="8" y="-84" font-family="Helvetica,sans-Serif" font-size="10.00">src/gui/windows/cp10</text>
<text text-anchor="middle" x="60.5" y="-73" font-family="Helvetica,sans-Serif" font-size="10.00">_window.hpp</text>
</a>
</g>
</g>
<!-- Node21&#45;&gt;Node22 -->
<g id="edge28_Node000021_Node000022" class="edge">
<title>Node21&#45;&gt;Node22</title>
<g id="a_edge28_Node000021_Node000022"><a xlink:title=" ">
<path fill="none" stroke="#63b8ff" d="M201.4,-128.72C170.48,-118.47 131.77,-105.63 102.76,-96.01"/>
<polygon fill="#63b8ff" stroke="#63b8ff" points="200.55,-132.13 211.15,-131.95 202.76,-125.49 200.55,-132.13"/>
</a>
</g>
</g>
<!-- Node22&#45;&gt;Node10 -->
<g id="edge29_Node000022_Node000010" class="edge">
<title>Node22&#45;&gt;Node10</title>
<g id="a_edge29_Node000022_Node000010"><a xlink:title=" ">
<path fill="none" stroke="#63b8ff" d="M131.12,-66.05C360.52,-35.98 422.1,-57.5 647.5,-30 659.26,-28.57 671.91,-26.57 683.61,-24.53"/>
<polygon fill="#63b8ff" stroke="#63b8ff" points="130.58,-62.59 121.13,-67.38 131.5,-69.53 130.58,-62.59"/>
</a>
</g>
</g>
<!-- Node23 -->
<g id="Node000023" class="node">
<title>Node23</title>
<g id="a_Node000023"><a xlink:href="cp10__window_8cpp.html" target="_top" xlink:title="This file implements a window that displays data (information) related to coprocessor 10 (FPU).">
<polygon fill="white" stroke="#666666" points="121,-30 0,-30 0,0 121,0 121,-30"/>
<text text-anchor="start" x="8" y="-18" font-family="Helvetica,sans-Serif" font-size="10.00">src/gui/windows/cp10</text>
<text text-anchor="middle" x="60.5" y="-7" font-family="Helvetica,sans-Serif" font-size="10.00">_window.cpp</text>
</a>
</g>
</g>
<!-- Node22&#45;&gt;Node23 -->
<g id="edge30_Node000022_Node000023" class="edge">
<title>Node22&#45;&gt;Node23</title>
<g id="a_edge30_Node000022_Node000023"><a xlink:title=" ">
<path fill="none" stroke="#63b8ff" d="M60.5,-55.54C60.5,-46.96 60.5,-37.61 60.5,-30.16"/>
<polygon fill="#63b8ff" stroke="#63b8ff" points="57,-55.8 60.5,-65.8 64,-55.8 57,-55.8"/>
</a>
</g>
</g>
<!-- Node24&#45;&gt;Node4 -->
<g id="edge32_Node000024_Node000004" class="edge">
<title>Node24&#45;&gt;Node4</title>
<g id="a_edge32_Node000024_Node000004"><a xlink:title=" ">
<path fill="none" stroke="#63b8ff" d="M961.95,-336.43C1015.84,-329.07 1083.31,-315.76 1100.5,-294 1126.95,-260.52 1126.01,-232.2 1100.5,-198 1086.99,-179.89 1032.63,-165.96 989.35,-157.46"/>
<polygon fill="#63b8ff" stroke="#63b8ff" points="961.18,-333 951.72,-337.78 962.09,-339.94 961.18,-333"/>
</a>
</g>
</g>
<!-- Node24&#45;&gt;Node8 -->
<g id="edge50_Node000024_Node000008" class="edge">
<title>Node24&#45;&gt;Node8</title>
<g id="a_edge50_Node000024_Node000008"><a xlink:title=" ">
<path fill="none" stroke="#63b8ff" d="M818.93,-337.86C689.8,-325.3 425.37,-292.25 362.5,-228 324.22,-188.87 325.19,-115.69 326.78,-90.66"/>
<polygon fill="#63b8ff" stroke="#63b8ff" points="818.83,-341.37 829.12,-338.84 819.5,-334.4 818.83,-341.37"/>
</a>
</g>
</g>
<!-- Node25 -->
<g id="Node000025" class="node">
<title>Node25</title>
<g id="a_Node000025"><a xlink:href="mmu_8hpp.html" target="_top" xlink:title="This file defines the MMU (memory management unit) of the CPU.">
<polygon fill="white" stroke="#666666" points="858,-228 745,-228 745,-198 858,-198 858,-228"/>
<text text-anchor="start" x="753" y="-216" font-family="Helvetica,sans-Serif" font-size="10.00">src/core/arm1176jzf</text>
<text text-anchor="middle" x="801.5" y="-205" font-family="Helvetica,sans-Serif" font-size="10.00">_s/mmu/mmu.hpp</text>
</a>
</g>
</g>
<!-- Node24&#45;&gt;Node25 -->
<g id="edge33_Node000024_Node000025" class="edge">
<title>Node24&#45;&gt;Node25</title>
<g id="a_edge33_Node000024_Node000025"><a xlink:title=" ">
<path fill="none" stroke="#63b8ff" d="M854.01,-324.53C842.07,-316.52 829.77,-306.23 821.5,-294 807.87,-273.84 803.52,-245.17 802.14,-228.19"/>
<polygon fill="#63b8ff" stroke="#63b8ff" points="852.25,-327.56 862.58,-329.95 856,-321.65 852.25,-327.56"/>
</a>
</g>
</g>
<!-- Node27 -->
<g id="Node000027" class="node">
<title>Node27</title>
<g id="a_Node000027"><a xlink:href="bus_8hpp.html" target="_top" xlink:title="This file defines an interface the CPU uses to access different memory&#45;mapped peripherals.">
<polygon fill="white" stroke="#666666" points="718.5,-288.5 622.5,-288.5 622.5,-269.5 718.5,-269.5 718.5,-288.5"/>
<text text-anchor="middle" x="670.5" y="-276.5" font-family="Helvetica,sans-Serif" font-size="10.00">src/core/bus.hpp</text>
</a>
</g>
</g>
<!-- Node24&#45;&gt;Node27 -->
<g id="edge37_Node000024_Node000027" class="edge">
<title>Node24&#45;&gt;Node27</title>
<g id="a_edge37_Node000024_Node000027"><a xlink:title=" ">
<path fill="none" stroke="#63b8ff" d="M832.51,-327.13C789.8,-314.71 733.52,-298.33 699.78,-288.52"/>
<polygon fill="#63b8ff" stroke="#63b8ff" points="831.64,-330.52 842.22,-329.95 833.6,-323.8 831.64,-330.52"/>
</a>
</g>
</g>
<!-- Node31 -->
<g id="Node000031" class="node">
<title>Node31</title>
<g id="a_Node000031"><a xlink:href="cp15_8cpp.html" target="_top" xlink:title="This file implements coprocessor CP15.">
<polygon fill="white" stroke="#666666" points="1091.5,-294 969.5,-294 969.5,-264 1091.5,-264 1091.5,-294"/>
<text text-anchor="start" x="977.5" y="-282" font-family="Helvetica,sans-Serif" font-size="10.00">src/core/coprocessors</text>
<text text-anchor="middle" x="1030.5" y="-271" font-family="Helvetica,sans-Serif" font-size="10.00">/cp15/cp15.cpp</text>
</a>
</g>
</g>
<!-- Node24&#45;&gt;Node31 -->
<g id="edge49_Node000024_Node000031" class="edge">
<title>Node24&#45;&gt;Node31</title>
<g id="a_edge49_Node000024_Node000031"><a xlink:title=" ">
<path fill="none" stroke="#63b8ff" d="M930.35,-325.78C952.42,-315.69 979.44,-303.34 999.85,-294.01"/>
<polygon fill="#63b8ff" stroke="#63b8ff" points="928.86,-322.61 921.22,-329.95 931.77,-328.98 928.86,-322.61"/>
</a>
</g>
</g>
<!-- Node32 -->
<g id="Node000032" class="node">
<title>Node32</title>
<g id="a_Node000032"><a xlink:href="cp15__window_8hpp.html" target="_top" xlink:title="This file defines a window that displays data (information) related to coprocessor 15.">
<polygon fill="white" stroke="#666666" points="951,-294 830,-294 830,-264 951,-264 951,-294"/>
<text text-anchor="start" x="838" y="-282" font-family="Helvetica,sans-Serif" font-size="10.00">src/gui/windows/cp15</text>
<text text-anchor="middle" x="890.5" y="-271" font-family="Helvetica,sans-Serif" font-size="10.00">_window.hpp</text>
</a>
</g>
</g>
<!-- Node24&#45;&gt;Node32 -->
<g id="edge51_Node000024_Node000032" class="edge">
<title>Node24&#45;&gt;Node32</title>
<g id="a_edge51_Node000024_Node000032"><a xlink:title=" ">
<path fill="none" stroke="#63b8ff" d="M890.5,-319.54C890.5,-310.96 890.5,-301.61 890.5,-294.16"/>
<polygon fill="#63b8ff" stroke="#63b8ff" points="887,-319.8 890.5,-329.8 894,-319.8 887,-319.8"/>
</a>
</g>
</g>
<!-- Node25&#45;&gt;Node4 -->
<g id="edge34_Node000025_Node000004" class="edge">
<title>Node25&#45;&gt;Node4</title>
<g id="a_edge34_Node000025_Node000004"><a xlink:title=" ">
<path fill="none" stroke="#63b8ff" d="M839.34,-193.51C859.89,-183.47 884.89,-171.26 903.82,-162.01"/>
<polygon fill="#63b8ff" stroke="#63b8ff" points="837.7,-190.42 830.25,-197.95 840.77,-196.71 837.7,-190.42"/>
</a>
</g>
</g>
<!-- Node25&#45;&gt;Node8 -->
<g id="edge36_Node000025_Node000008" class="edge">
<title>Node25&#45;&gt;Node8</title>
<g id="a_edge36_Node000025_Node000008"><a xlink:title=" ">
<path fill="none" stroke="#63b8ff" d="M734.98,-205.95C683.56,-199.56 611.46,-186.81 552.5,-162 530.68,-152.82 529.97,-141.95 508.5,-132 495.04,-125.76 409.24,-103.12 360.75,-90.55"/>
<polygon fill="#63b8ff" stroke="#63b8ff" points="734.63,-209.43 744.97,-207.14 735.46,-202.48 734.63,-209.43"/>
</a>
</g>
</g>
<!-- Node26 -->
<g id="Node000026" class="node">
<title>Node26</title>
<g id="a_Node000026"><a xlink:href="mmu_8cpp.html" target="_top" xlink:title="This file implements the MMU (memory management unit) of the CPU.">
<polygon fill="white" stroke="#666666" points="858,-162 745,-162 745,-132 858,-132 858,-162"/>
<text text-anchor="start" x="753" y="-150" font-family="Helvetica,sans-Serif" font-size="10.00">src/core/arm1176jzf</text>
<text text-anchor="middle" x="801.5" y="-139" font-family="Helvetica,sans-Serif" font-size="10.00">_s/mmu/mmu.cpp</text>
</a>
</g>
</g>
<!-- Node25&#45;&gt;Node26 -->
<g id="edge35_Node000025_Node000026" class="edge">
<title>Node25&#45;&gt;Node26</title>
<g id="a_edge35_Node000025_Node000026"><a xlink:title=" ">
<path fill="none" stroke="#63b8ff" d="M801.5,-187.54C801.5,-178.96 801.5,-169.61 801.5,-162.16"/>
<polygon fill="#63b8ff" stroke="#63b8ff" points="798,-187.8 801.5,-197.8 805,-187.8 798,-187.8"/>
</a>
</g>
</g>
<!-- Node27&#45;&gt;Node4 -->
<g id="edge38_Node000027_Node000004" class="edge">
<title>Node27&#45;&gt;Node4</title>
<g id="a_edge38_Node000027_Node000004"><a xlink:title=" ">
<path fill="none" stroke="#63b8ff" d="M728.77,-273C770.16,-267.21 825.61,-254.76 867.5,-228 893.74,-211.24 914.34,-180.3 924.84,-162.21"/>
<polygon fill="#63b8ff" stroke="#63b8ff" points="728.29,-269.53 718.83,-274.3 729.2,-276.47 728.29,-269.53"/>
</a>
</g>
</g>
<!-- Node27&#45;&gt;Node8 -->
<g id="edge42_Node000027_Node000008" class="edge">
<title>Node27&#45;&gt;Node8</title>
<g id="a_edge42_Node000027_Node000008"><a xlink:title=" ">
<path fill="none" stroke="#63b8ff" d="M646.42,-264.24C580.14,-226.37 396.35,-121.34 342.51,-90.57"/>
<polygon fill="#63b8ff" stroke="#63b8ff" points="644.9,-267.4 655.32,-269.33 648.37,-261.32 644.9,-267.4"/>
</a>
</g>
</g>
<!-- Node27&#45;&gt;Node18 -->
<g id="edge43_Node000027_Node000018" class="edge">
<title>Node27&#45;&gt;Node18</title>
<g id="a_edge43_Node000027_Node000018"><a xlink:title=" ">
<path fill="none" stroke="#63b8ff" d="M676.71,-259.85C686.9,-231.34 708.81,-174.9 736.5,-132 744.9,-118.98 756.56,-105.89 765.77,-96.37"/>
<polygon fill="#63b8ff" stroke="#63b8ff" points="673.4,-258.72 673.4,-269.32 680.01,-261.04 673.4,-258.72"/>
</a>
</g>
</g>
<!-- Node27&#45;&gt;Node21 -->
<g id="edge41_Node000027_Node000021" class="edge">
<title>Node27&#45;&gt;Node21</title>
<g id="a_edge41_Node000027_Node000021"><a xlink:title=" ">
<path fill="none" stroke="#63b8ff" d="M612.18,-276.62C548.53,-273.29 444.72,-262.48 362.5,-228 324.62,-212.12 287.59,-180.56 267.95,-162.19"/>
<polygon fill="#63b8ff" stroke="#63b8ff" points="612.27,-280.12 622.43,-277.1 612.61,-273.13 612.27,-280.12"/>
</a>
</g>
</g>
<!-- Node27&#45;&gt;Node25 -->
<g id="edge39_Node000027_Node000025" class="edge">
<title>Node27&#45;&gt;Node25</title>
<g id="a_edge39_Node000027_Node000025"><a xlink:title=" ">
<path fill="none" stroke="#63b8ff" d="M697.25,-264.93C719.17,-254.22 750.12,-239.1 772.61,-228.12"/>
<polygon fill="#63b8ff" stroke="#63b8ff" points="695.62,-261.83 688.17,-269.37 698.69,-268.12 695.62,-261.83"/>
</a>
</g>
</g>
<!-- Node28 -->
<g id="Node000028" class="node">
<title>Node28</title>
<g id="a_Node000028"><a xlink:href="bus_8cpp.html" target="_top" xlink:title="This file implements the interface defined in bus.hpp.">
<polygon fill="white" stroke="#666666" points="466,-222.5 371,-222.5 371,-203.5 466,-203.5 466,-222.5"/>
<text text-anchor="middle" x="418.5" y="-210.5" font-family="Helvetica,sans-Serif" font-size="10.00">src/core/bus.cpp</text>
</a>
</g>
</g>
<!-- Node27&#45;&gt;Node28 -->
<g id="edge40_Node000027_Node000028" class="edge">
<title>Node27&#45;&gt;Node28</title>
<g id="a_edge40_Node000027_Node000028"><a xlink:title=" ">
<path fill="none" stroke="#63b8ff" d="M626.96,-266.94C577.28,-254.32 497.09,-233.96 452.02,-222.51"/>
<polygon fill="#63b8ff" stroke="#63b8ff" points="626.22,-270.37 636.78,-269.44 627.94,-263.58 626.22,-270.37"/>
</a>
</g>
</g>
<!-- Node29 -->
<g id="Node000029" class="node">
<title>Node29</title>
<g id="a_Node000029"><a xlink:href="elf__loader_8hpp.html" target="_top" xlink:title="This file defines the functionality of an ELF loader.">
<polygon fill="white" stroke="#666666" points="688,-156.5 561,-156.5 561,-137.5 688,-137.5 688,-156.5"/>
<text text-anchor="middle" x="624.5" y="-144.5" font-family="Helvetica,sans-Serif" font-size="10.00">src/utils/elf_loader.hpp</text>
</a>
</g>
</g>
<!-- Node27&#45;&gt;Node29 -->
<g id="edge44_Node000027_Node000029" class="edge">
<title>Node27&#45;&gt;Node29</title>
<g id="a_edge44_Node000027_Node000029"><a xlink:title=" ">
<path fill="none" stroke="#63b8ff" d="M664.13,-259.99C654.11,-231.67 635.04,-177.78 627.59,-156.73"/>
<polygon fill="#63b8ff" stroke="#63b8ff" points="660.85,-261.21 667.48,-269.47 667.45,-258.88 660.85,-261.21"/>
</a>
</g>
</g>
<!-- Node29&#45;&gt;Node16 -->
<g id="edge46_Node000029_Node000016" class="edge">
<title>Node29&#45;&gt;Node16</title>
<g id="a_edge46_Node000029_Node000016"><a xlink:title=" ">
<path fill="none" stroke="#63b8ff" d="M629.16,-127.35C631.63,-117.47 634.62,-105.51 636.91,-96.36"/>
<polygon fill="#63b8ff" stroke="#63b8ff" points="625.69,-126.82 626.66,-137.37 632.48,-128.52 625.69,-126.82"/>
</a>
</g>
</g>
<!-- Node29&#45;&gt;Node17 -->
<g id="edge45_Node000029_Node000017" class="edge">
<title>Node29&#45;&gt;Node17</title>
<g id="a_edge45_Node000029_Node000017"><a xlink:title=" ">
<path fill="none" stroke="#63b8ff" d="M599.59,-131.77C587.17,-123.17 573.36,-110.98 566.5,-96 556.68,-74.58 562.88,-46.58 568.22,-30.02"/>
<polygon fill="#63b8ff" stroke="#63b8ff" points="597.98,-134.89 608.28,-137.38 601.78,-129.01 597.98,-134.89"/>
</a>
</g>
</g>
<!-- Node29&#45;&gt;Node18 -->
<g id="edge47_Node000029_Node000018" class="edge">
<title>Node29&#45;&gt;Node18</title>
<g id="a_edge47_Node000029_Node000018"><a xlink:title=" ">
<path fill="none" stroke="#63b8ff" d="M654.96,-133.5C681.13,-122.77 718.84,-107.3 746.09,-96.12"/>
<polygon fill="#63b8ff" stroke="#63b8ff" points="653.46,-130.33 645.54,-137.37 656.12,-136.81 653.46,-130.33"/>
</a>
</g>
</g>
<!-- Node30 -->
<g id="Node000030" class="node">
<title>Node30</title>
<g id="a_Node000030"><a xlink:href="elf__loader_8cpp.html" target="_top" xlink:title="This file implements the functionality of an ELF loader defined in elf_loader.hpp.">
<polygon fill="white" stroke="#666666" points="519.5,-90.5 393.5,-90.5 393.5,-71.5 519.5,-71.5 519.5,-90.5"/>
<text text-anchor="middle" x="456.5" y="-78.5" font-family="Helvetica,sans-Serif" font-size="10.00">src/utils/elf_loader.cpp</text>
</a>
</g>
</g>
<!-- Node29&#45;&gt;Node30 -->
<g id="edge48_Node000029_Node000030" class="edge">
<title>Node29&#45;&gt;Node30</title>
<g id="a_edge48_Node000029_Node000030"><a xlink:title=" ">
<path fill="none" stroke="#63b8ff" d="M592.15,-133.68C558.95,-121.03 508.16,-101.68 479.07,-90.6"/>
<polygon fill="#63b8ff" stroke="#63b8ff" points="591.25,-137.08 601.84,-137.37 593.74,-130.54 591.25,-137.08"/>
</a>
</g>
</g>
<!-- Node32&#45;&gt;Node10 -->
<g id="edge52_Node000032_Node000010" class="edge">
<title>Node32&#45;&gt;Node10</title>
<g id="a_edge52_Node000032_Node000010"><a xlink:title=" ">
<path fill="none" stroke="#63b8ff" d="M904.48,-255.6C917.12,-237.27 937.41,-212.13 961.5,-198 1146.42,-89.49 1572.82,-221.77 1425.5,-66 1376.18,-13.85 851.4,-41.22 780.5,-30 772.32,-28.71 763.58,-26.67 755.6,-24.56"/>
<polygon fill="#63b8ff" stroke="#63b8ff" points="901.53,-253.72 898.91,-263.98 907.36,-257.6 901.53,-253.72"/>
</a>
</g>
</g>
<!-- Node33 -->
<g id="Node000033" class="node">
<title>Node33</title>
<g id="a_Node000033"><a xlink:href="cp15__window_8cpp.html" target="_top" xlink:title="This file implements a window that displays data (information) related to coprocessor 15.">
<polygon fill="white" stroke="#666666" points="1091,-228 970,-228 970,-198 1091,-198 1091,-228"/>
<text text-anchor="start" x="978" y="-216" font-family="Helvetica,sans-Serif" font-size="10.00">src/gui/windows/cp15</text>
<text text-anchor="middle" x="1030.5" y="-205" font-family="Helvetica,sans-Serif" font-size="10.00">_window.cpp</text>
</a>
</g>
</g>
<!-- Node32&#45;&gt;Node33 -->
<g id="edge53_Node000032_Node000033" class="edge">
<title>Node32&#45;&gt;Node33</title>
<g id="a_edge53_Node000032_Node000033"><a xlink:title=" ">
<path fill="none" stroke="#63b8ff" d="M930.35,-259.78C952.42,-249.69 979.44,-237.34 999.85,-228.01"/>
<polygon fill="#63b8ff" stroke="#63b8ff" points="928.86,-256.61 921.22,-263.95 931.77,-262.98 928.86,-256.61"/>
</a>
</g>
</g>
</g>
</svg>
