<?xml version="1.0" encoding="UTF-8" standalone="no"?>
<!DOCTYPE svg PUBLIC "-//W3C//DTD SVG 1.1//EN"
 "http://www.w3.org/Graphics/SVG/1.1/DTD/svg11.dtd">
<!-- Generated by graphviz version 2.43.0 (0)
 -->
<!-- Title: src/core/arm1176jzf_s/isa/coprocessor_data_operation.cpp Pages: 1 -->
<svg width="183pt" height="159pt"
 viewBox="0.00 0.00 183.00 159.00" xmlns="http://www.w3.org/2000/svg" xmlns:xlink="http://www.w3.org/1999/xlink">
<g id="graph0" class="graph" transform="scale(1 1) rotate(0) translate(4 155)">
<title>src/core/arm1176jzf_s/isa/coprocessor_data_operation.cpp</title>
<!-- Node1 -->
<g id="Node000001" class="node">
<title>Node1</title>
<g id="a_Node000001"><a xlink:title="This file implements a coprocessor data operation (CDP) as defined in coprocessor_data_operation....">
<polygon fill="#999999" stroke="#666666" points="154,-151 21,-151 21,-110 154,-110 154,-151"/>
<text text-anchor="start" x="29" y="-139" font-family="Helvetica,sans-Serif" font-size="10.00">src/core/arm1176jzf</text>
<text text-anchor="start" x="29" y="-128" font-family="Helvetica,sans-Serif" font-size="10.00">_s/isa/coprocessor_data</text>
<text text-anchor="middle" x="87.5" y="-117" font-family="Helvetica,sans-Serif" font-size="10.00">_operation.cpp</text>
</a>
</g>
</g>
<!-- Node2 -->
<g id="Node000002" class="node">
<title>Node2</title>
<g id="a_Node000002"><a xlink:href="coprocessor__data__operation_8hpp.html" target="_top" xlink:title="This file defines a coprocessor data operation (CDP).">
<polygon fill="white" stroke="#666666" points="175,-74 0,-74 0,-55 175,-55 175,-74"/>
<text text-anchor="middle" x="87.5" y="-62" font-family="Helvetica,sans-Serif" font-size="10.00">coprocessor_data_operation.hpp</text>
</a>
</g>
</g>
<!-- Node1&#45;&gt;Node2 -->
<g id="edge1_Node000001_Node000002" class="edge">
<title>Node1&#45;&gt;Node2</title>
<g id="a_edge1_Node000001_Node000002"><a xlink:title=" ">
<path fill="none" stroke="#63b8ff" d="M87.5,-109.95C87.5,-101.85 87.5,-92.5 87.5,-84.47"/>
<polygon fill="#63b8ff" stroke="#63b8ff" points="91,-84.26 87.5,-74.26 84,-84.26 91,-84.26"/>
</a>
</g>
</g>
<!-- Node3 -->
<g id="Node000003" class="node">
<title>Node3</title>
<g id="a_Node000003"><a xlink:href="instruction_8hpp.html" target="_top" xlink:title="This file defines the interface of a general ARM instruction.">
<polygon fill="white" stroke="#666666" points="132,-19 43,-19 43,0 132,0 132,-19"/>
<text text-anchor="middle" x="87.5" y="-7" font-family="Helvetica,sans-Serif" font-size="10.00">instruction.hpp</text>
</a>
</g>
</g>
<!-- Node2&#45;&gt;Node3 -->
<g id="edge2_Node000002_Node000003" class="edge">
<title>Node2&#45;&gt;Node3</title>
<g id="a_edge2_Node000002_Node000003"><a xlink:title=" ">
<path fill="none" stroke="#63b8ff" d="M87.5,-54.75C87.5,-47.8 87.5,-37.85 87.5,-29.13"/>
<polygon fill="#63b8ff" stroke="#63b8ff" points="91,-29.09 87.5,-19.09 84,-29.09 91,-29.09"/>
</a>
</g>
</g>
</g>
</svg>
