<?xml version="1.0" encoding="UTF-8" standalone="no"?>
<!DOCTYPE svg PUBLIC "-//W3C//DTD SVG 1.1//EN"
 "http://www.w3.org/Graphics/SVG/1.1/DTD/svg11.dtd">
<!-- Generated by graphviz version 2.43.0 (0)
 -->
<!-- Title: src/core/coprocessors/coprocessor.hpp Pages: 1 -->
<svg width="1602pt" height="434pt"
 viewBox="0.00 0.00 1601.50 434.00" xmlns="http://www.w3.org/2000/svg" xmlns:xlink="http://www.w3.org/1999/xlink">
<g id="graph0" class="graph" transform="scale(1 1) rotate(0) translate(4 430)">
<title>src/core/coprocessors/coprocessor.hpp</title>
<!-- Node1 -->
<g id="Node000001" class="node">
<title>Node1</title>
<g id="a_Node000001"><a xlink:title="This file defines a general interface of a coprocessor.">
<polygon fill="#999999" stroke="#666666" points="421,-426 299,-426 299,-396 421,-396 421,-426"/>
<text text-anchor="start" x="307" y="-414" font-family="Helvetica,sans-Serif" font-size="10.00">src/core/coprocessors</text>
<text text-anchor="middle" x="360" y="-403" font-family="Helvetica,sans-Serif" font-size="10.00">/coprocessor.hpp</text>
</a>
</g>
</g>
<!-- Node2 -->
<g id="Node000002" class="node">
<title>Node2</title>
<g id="a_Node000002"><a xlink:href="coprocessor_8cpp.html" target="_top" xlink:title="This file implements the common functionality of a general interface of a coprocessor.">
<polygon fill="white" stroke="#666666" points="122,-96 0,-96 0,-66 122,-66 122,-96"/>
<text text-anchor="start" x="8" y="-84" font-family="Helvetica,sans-Serif" font-size="10.00">src/core/coprocessors</text>
<text text-anchor="middle" x="61" y="-73" font-family="Helvetica,sans-Serif" font-size="10.00">/coprocessor.cpp</text>
</a>
</g>
</g>
<!-- Node1&#45;&gt;Node2 -->
<g id="edge1_Node000001_Node000002" class="edge">
<title>Node1&#45;&gt;Node2</title>
<g id="a_edge1_Node000001_Node000002"><a xlink:title=" ">
<path fill="none" stroke="#63b8ff" d="M294.1,-392.69C241.3,-374.37 176,-339.65 176,-280 176,-280 176,-280 176,-212 176,-158.51 120.71,-116.7 86.81,-96.09"/>
<polygon fill="#63b8ff" stroke="#63b8ff" points="293.2,-396.08 303.79,-395.92 295.41,-389.44 293.2,-396.08"/>
</a>
</g>
</g>
<!-- Node3 -->
<g id="Node000003" class="node">
<title>Node3</title>
<g id="a_Node000003"><a xlink:href="cp10_8hpp.html" target="_top" xlink:title="This file defines coprocessor CP10 (single&#45;precision FPU).">
<polygon fill="white" stroke="#666666" points="421,-162 299,-162 299,-132 421,-132 421,-162"/>
<text text-anchor="start" x="307" y="-150" font-family="Helvetica,sans-Serif" font-size="10.00">src/core/coprocessors</text>
<text text-anchor="middle" x="360" y="-139" font-family="Helvetica,sans-Serif" font-size="10.00">/cp10/cp10.hpp</text>
</a>
</g>
</g>
<!-- Node1&#45;&gt;Node3 -->
<g id="edge2_Node000001_Node000003" class="edge">
<title>Node1&#45;&gt;Node3</title>
<g id="a_edge2_Node000001_Node000003"><a xlink:title=" ">
<path fill="none" stroke="#63b8ff" d="M360,-385.62C360,-331.9 360,-204.72 360,-162.16"/>
<polygon fill="#63b8ff" stroke="#63b8ff" points="356.5,-385.91 360,-395.91 363.5,-385.91 356.5,-385.91"/>
</a>
</g>
</g>
<!-- Node11 -->
<g id="Node000011" class="node">
<title>Node11</title>
<g id="a_Node000011"><a xlink:href="cp15_8hpp.html" target="_top" xlink:title="This file defines coprocessor CP15.">
<polygon fill="white" stroke="#666666" points="745,-360 623,-360 623,-330 745,-330 745,-360"/>
<text text-anchor="start" x="631" y="-348" font-family="Helvetica,sans-Serif" font-size="10.00">src/core/coprocessors</text>
<text text-anchor="middle" x="684" y="-337" font-family="Helvetica,sans-Serif" font-size="10.00">/cp15/cp15.hpp</text>
</a>
</g>
</g>
<!-- Node1&#45;&gt;Node11 -->
<g id="edge11_Node000001_Node000011" class="edge">
<title>Node1&#45;&gt;Node11</title>
<g id="a_edge11_Node000001_Node000011"><a xlink:title=" ">
<path fill="none" stroke="#63b8ff" d="M431.4,-395.9C488.78,-384.56 568.49,-368.82 622.93,-358.06"/>
<polygon fill="#63b8ff" stroke="#63b8ff" points="430.45,-392.52 421.32,-397.89 431.81,-399.38 430.45,-392.52"/>
</a>
</g>
</g>
<!-- Node4 -->
<g id="Node000004" class="node">
<title>Node4</title>
<g id="a_Node000004"><a xlink:href="cp10_8cpp.html" target="_top" xlink:title="This file implements coprocessor CP10 (single&#45;precision FPU).">
<polygon fill="white" stroke="#666666" points="402,-96 280,-96 280,-66 402,-66 402,-96"/>
<text text-anchor="start" x="288" y="-84" font-family="Helvetica,sans-Serif" font-size="10.00">src/core/coprocessors</text>
<text text-anchor="middle" x="341" y="-73" font-family="Helvetica,sans-Serif" font-size="10.00">/cp10/cp10.cpp</text>
</a>
</g>
</g>
<!-- Node3&#45;&gt;Node4 -->
<g id="edge3_Node000003_Node000004" class="edge">
<title>Node3&#45;&gt;Node4</title>
<g id="a_edge3_Node000003_Node000004"><a xlink:title=" ">
<path fill="none" stroke="#63b8ff" d="M352.91,-122.11C350.31,-113.38 347.47,-103.78 345.2,-96.16"/>
<polygon fill="#63b8ff" stroke="#63b8ff" points="349.58,-123.21 355.78,-131.8 356.29,-121.21 349.58,-123.21"/>
</a>
</g>
</g>
<!-- Node5 -->
<g id="Node000005" class="node">
<title>Node5</title>
<g id="a_Node000005"><a xlink:href="soc_8hpp.html" target="_top" xlink:title=" ">
<polygon fill="white" stroke="#666666" points="515.5,-90.5 420.5,-90.5 420.5,-71.5 515.5,-71.5 515.5,-90.5"/>
<text text-anchor="middle" x="468" y="-78.5" font-family="Helvetica,sans-Serif" font-size="10.00">src/core/soc.hpp</text>
</a>
</g>
</g>
<!-- Node3&#45;&gt;Node5 -->
<g id="edge4_Node000003_Node000005" class="edge">
<title>Node3&#45;&gt;Node5</title>
<g id="a_edge4_Node000003_Node000005"><a xlink:title=" ">
<path fill="none" stroke="#63b8ff" d="M392.38,-126.81C412.77,-114.73 438.07,-99.73 453.63,-90.52"/>
<polygon fill="#63b8ff" stroke="#63b8ff" points="390.52,-123.85 383.7,-131.95 394.09,-129.87 390.52,-123.85"/>
</a>
</g>
</g>
<!-- Node9 -->
<g id="Node000009" class="node">
<title>Node9</title>
<g id="a_Node000009"><a xlink:href="cp10__window_8hpp.html" target="_top" xlink:title="This file defines a window that displays data (information) related to coprocessor 10 (FPU).">
<polygon fill="white" stroke="#666666" points="261.5,-96 140.5,-96 140.5,-66 261.5,-66 261.5,-96"/>
<text text-anchor="start" x="148.5" y="-84" font-family="Helvetica,sans-Serif" font-size="10.00">src/gui/windows/cp10</text>
<text text-anchor="middle" x="201" y="-73" font-family="Helvetica,sans-Serif" font-size="10.00">_window.hpp</text>
</a>
</g>
</g>
<!-- Node3&#45;&gt;Node9 -->
<g id="edge8_Node000003_Node000009" class="edge">
<title>Node3&#45;&gt;Node9</title>
<g id="a_edge8_Node000003_Node000009"><a xlink:title=" ">
<path fill="none" stroke="#63b8ff" d="M315.75,-128.19C290.5,-118.02 259.3,-105.47 235.81,-96.01"/>
<polygon fill="#63b8ff" stroke="#63b8ff" points="314.52,-131.47 325.11,-131.95 317.14,-124.97 314.52,-131.47"/>
</a>
</g>
</g>
<!-- Node6 -->
<g id="Node000006" class="node">
<title>Node6</title>
<g id="a_Node000006"><a xlink:href="soc_8cpp.html" target="_top" xlink:title=" ">
<polygon fill="white" stroke="#666666" points="471.5,-24.5 376.5,-24.5 376.5,-5.5 471.5,-5.5 471.5,-24.5"/>
<text text-anchor="middle" x="424" y="-12.5" font-family="Helvetica,sans-Serif" font-size="10.00">src/core/soc.cpp</text>
</a>
</g>
</g>
<!-- Node5&#45;&gt;Node6 -->
<g id="edge5_Node000005_Node000006" class="edge">
<title>Node5&#45;&gt;Node6</title>
<g id="a_edge5_Node000005_Node000006"><a xlink:title=" ">
<path fill="none" stroke="#63b8ff" d="M456.25,-62.91C447.84,-50.68 436.86,-34.7 430.12,-24.91"/>
<polygon fill="#63b8ff" stroke="#63b8ff" points="453.52,-65.11 462.07,-71.37 459.28,-61.15 453.52,-65.11"/>
</a>
</g>
</g>
<!-- Node7 -->
<g id="Node000007" class="node">
<title>Node7</title>
<g id="a_Node000007"><a xlink:href="gui_8cpp.html" target="_top" xlink:title="This file implements the main GUI entry function that takes care of creating and rendering all window...">
<polygon fill="white" stroke="#666666" points="839.5,-24.5 752.5,-24.5 752.5,-5.5 839.5,-5.5 839.5,-24.5"/>
<text text-anchor="middle" x="796" y="-12.5" font-family="Helvetica,sans-Serif" font-size="10.00">src/gui/gui.cpp</text>
</a>
</g>
</g>
<!-- Node5&#45;&gt;Node7 -->
<g id="edge6_Node000005_Node000007" class="edge">
<title>Node5&#45;&gt;Node7</title>
<g id="a_edge6_Node000005_Node000007"><a xlink:title=" ">
<path fill="none" stroke="#63b8ff" d="M510.59,-69.16C515.44,-68.04 520.32,-66.96 525,-66 621.64,-46.22 647.59,-50.85 744,-30 751.31,-28.42 759.13,-26.46 766.43,-24.51"/>
<polygon fill="#63b8ff" stroke="#63b8ff" points="509.68,-65.78 500.76,-71.49 511.29,-72.59 509.68,-65.78"/>
</a>
</g>
</g>
<!-- Node8 -->
<g id="Node000008" class="node">
<title>Node8</title>
<g id="a_Node000008"><a xlink:href="main_8cpp.html" target="_top" xlink:title="This file defines and implements the main function of the application.">
<polygon fill="white" stroke="#666666" points="568.5,-24.5 489.5,-24.5 489.5,-5.5 568.5,-5.5 568.5,-24.5"/>
<text text-anchor="middle" x="529" y="-12.5" font-family="Helvetica,sans-Serif" font-size="10.00">src/main.cpp</text>
</a>
</g>
</g>
<!-- Node5&#45;&gt;Node8 -->
<g id="edge7_Node000005_Node000008" class="edge">
<title>Node5&#45;&gt;Node8</title>
<g id="a_edge7_Node000005_Node000008"><a xlink:title=" ">
<path fill="none" stroke="#63b8ff" d="M483.27,-63.98C495.05,-51.62 510.9,-34.99 520.51,-24.91"/>
<polygon fill="#63b8ff" stroke="#63b8ff" points="480.59,-61.72 476.23,-71.37 485.66,-66.54 480.59,-61.72"/>
</a>
</g>
</g>
<!-- Node9&#45;&gt;Node7 -->
<g id="edge9_Node000009_Node000007" class="edge">
<title>Node9&#45;&gt;Node7</title>
<g id="a_edge9_Node000009_Node000007"><a xlink:title=" ">
<path fill="none" stroke="#63b8ff" d="M271.74,-66.04C481.66,-38.14 539.44,-65 744,-30 751.93,-28.64 760.39,-26.62 768.15,-24.53"/>
<polygon fill="#63b8ff" stroke="#63b8ff" points="271.07,-62.59 261.63,-67.41 272.01,-69.53 271.07,-62.59"/>
</a>
</g>
</g>
<!-- Node10 -->
<g id="Node000010" class="node">
<title>Node10</title>
<g id="a_Node000010"><a xlink:href="cp10__window_8cpp.html" target="_top" xlink:title="This file implements a window that displays data (information) related to coprocessor 10 (FPU).">
<polygon fill="white" stroke="#666666" points="261.5,-30 140.5,-30 140.5,0 261.5,0 261.5,-30"/>
<text text-anchor="start" x="148.5" y="-18" font-family="Helvetica,sans-Serif" font-size="10.00">src/gui/windows/cp10</text>
<text text-anchor="middle" x="201" y="-7" font-family="Helvetica,sans-Serif" font-size="10.00">_window.cpp</text>
</a>
</g>
</g>
<!-- Node9&#45;&gt;Node10 -->
<g id="edge10_Node000009_Node000010" class="edge">
<title>Node9&#45;&gt;Node10</title>
<g id="a_edge10_Node000009_Node000010"><a xlink:title=" ">
<path fill="none" stroke="#63b8ff" d="M201,-55.54C201,-46.96 201,-37.61 201,-30.16"/>
<polygon fill="#63b8ff" stroke="#63b8ff" points="197.5,-55.8 201,-65.8 204.5,-55.8 197.5,-55.8"/>
</a>
</g>
</g>
<!-- Node11&#45;&gt;Node5 -->
<g id="edge46_Node000011_Node000005" class="edge">
<title>Node11&#45;&gt;Node5</title>
<g id="a_edge46_Node000011_Node000005"><a xlink:title=" ">
<path fill="none" stroke="#63b8ff" d="M655.13,-324.01C613.43,-293.68 536.57,-232.09 493,-162 478.4,-138.52 471.7,-105.83 469.22,-90.53"/>
<polygon fill="#63b8ff" stroke="#63b8ff" points="653.31,-327.01 663.47,-330 657.39,-321.32 653.31,-327.01"/>
</a>
</g>
</g>
<!-- Node12 -->
<g id="Node000012" class="node">
<title>Node12</title>
<g id="a_Node000012"><a xlink:href="core_8hpp.html" target="_top" xlink:title="This file defines a class that represents a CPU core (arm1176jzf_s).">
<polygon fill="white" stroke="#666666" points="647.5,-162 534.5,-162 534.5,-132 647.5,-132 647.5,-162"/>
<text text-anchor="start" x="542.5" y="-150" font-family="Helvetica,sans-Serif" font-size="10.00">src/core/arm1176jzf</text>
<text text-anchor="middle" x="591" y="-139" font-family="Helvetica,sans-Serif" font-size="10.00">_s/core.hpp</text>
</a>
</g>
</g>
<!-- Node11&#45;&gt;Node12 -->
<g id="edge12_Node000011_Node000012" class="edge">
<title>Node11&#45;&gt;Node12</title>
<g id="a_edge12_Node000011_Node000012"><a xlink:title=" ">
<path fill="none" stroke="#63b8ff" d="M669.6,-321.11C655.53,-298.14 634.1,-261.48 619,-228 608.9,-205.6 600.06,-178.38 595.14,-162.16"/>
<polygon fill="#63b8ff" stroke="#63b8ff" points="666.72,-323.11 674.96,-329.77 672.67,-319.43 666.72,-323.11"/>
</a>
</g>
</g>
<!-- Node22 -->
<g id="Node000022" class="node">
<title>Node22</title>
<g id="a_Node000022"><a xlink:href="mmu_8hpp.html" target="_top" xlink:title="This file defines the MMU (memory management unit) of the CPU.">
<polygon fill="white" stroke="#666666" points="740.5,-228 627.5,-228 627.5,-198 740.5,-198 740.5,-228"/>
<text text-anchor="start" x="635.5" y="-216" font-family="Helvetica,sans-Serif" font-size="10.00">src/core/arm1176jzf</text>
<text text-anchor="middle" x="684" y="-205" font-family="Helvetica,sans-Serif" font-size="10.00">_s/mmu/mmu.hpp</text>
</a>
</g>
</g>
<!-- Node11&#45;&gt;Node22 -->
<g id="edge29_Node000011_Node000022" class="edge">
<title>Node11&#45;&gt;Node22</title>
<g id="a_edge29_Node000011_Node000022"><a xlink:title=" ">
<path fill="none" stroke="#63b8ff" d="M684,-319.68C684,-292.7 684,-250.11 684,-228.14"/>
<polygon fill="#63b8ff" stroke="#63b8ff" points="680.5,-319.84 684,-329.84 687.5,-319.84 680.5,-319.84"/>
</a>
</g>
</g>
<!-- Node24 -->
<g id="Node000024" class="node">
<title>Node24</title>
<g id="a_Node000024"><a xlink:href="bus_8hpp.html" target="_top" xlink:title="This file defines an interface the CPU uses to access different memory&#45;mapped peripherals.">
<polygon fill="white" stroke="#666666" points="817,-288.5 721,-288.5 721,-269.5 817,-269.5 817,-288.5"/>
<text text-anchor="middle" x="769" y="-276.5" font-family="Helvetica,sans-Serif" font-size="10.00">src/core/bus.hpp</text>
</a>
</g>
</g>
<!-- Node11&#45;&gt;Node24 -->
<g id="edge33_Node000011_Node000024" class="edge">
<title>Node11&#45;&gt;Node24</title>
<g id="a_edge33_Node000011_Node000024"><a xlink:title=" ">
<path fill="none" stroke="#63b8ff" d="M711.11,-323.58C726.67,-311.87 745.4,-297.77 757.25,-288.84"/>
<polygon fill="#63b8ff" stroke="#63b8ff" points="708.75,-320.99 702.86,-329.8 712.96,-326.58 708.75,-320.99"/>
</a>
</g>
</g>
<!-- Node28 -->
<g id="Node000028" class="node">
<title>Node28</title>
<g id="a_Node000028"><a xlink:href="cp15_8cpp.html" target="_top" xlink:title="This file implements coprocessor CP15.">
<polygon fill="white" stroke="#666666" points="957,-294 835,-294 835,-264 957,-264 957,-294"/>
<text text-anchor="start" x="843" y="-282" font-family="Helvetica,sans-Serif" font-size="10.00">src/core/coprocessors</text>
<text text-anchor="middle" x="896" y="-271" font-family="Helvetica,sans-Serif" font-size="10.00">/cp15/cp15.cpp</text>
</a>
</g>
</g>
<!-- Node11&#45;&gt;Node28 -->
<g id="edge45_Node000011_Node000028" class="edge">
<title>Node11&#45;&gt;Node28</title>
<g id="a_edge45_Node000011_Node000028"><a xlink:title=" ">
<path fill="none" stroke="#63b8ff" d="M740.35,-326.99C774.46,-316.69 817.44,-303.72 849.58,-294.01"/>
<polygon fill="#63b8ff" stroke="#63b8ff" points="739.09,-323.71 730.52,-329.95 741.11,-330.42 739.09,-323.71"/>
</a>
</g>
</g>
<!-- Node29 -->
<g id="Node000029" class="node">
<title>Node29</title>
<g id="a_Node000029"><a xlink:href="cp15__window_8hpp.html" target="_top" xlink:title="This file defines a window that displays data (information) related to coprocessor 15.">
<polygon fill="white" stroke="#666666" points="1504.5,-294 1383.5,-294 1383.5,-264 1504.5,-264 1504.5,-294"/>
<text text-anchor="start" x="1391.5" y="-282" font-family="Helvetica,sans-Serif" font-size="10.00">src/gui/windows/cp15</text>
<text text-anchor="middle" x="1444" y="-271" font-family="Helvetica,sans-Serif" font-size="10.00">_window.hpp</text>
</a>
</g>
</g>
<!-- Node11&#45;&gt;Node29 -->
<g id="edge47_Node000011_Node000029" class="edge">
<title>Node11&#45;&gt;Node29</title>
<g id="a_edge47_Node000011_Node000029"><a xlink:title=" ">
<path fill="none" stroke="#63b8ff" d="M755.61,-337.97C904.39,-325.44 1244.63,-296.79 1383.4,-285.1"/>
<polygon fill="#63b8ff" stroke="#63b8ff" points="754.9,-334.52 745.23,-338.84 755.49,-341.49 754.9,-334.52"/>
</a>
</g>
</g>
<!-- Node12&#45;&gt;Node2 -->
<g id="edge14_Node000012_Node000002" class="edge">
<title>Node12&#45;&gt;Node2</title>
<g id="a_edge14_Node000012_Node000002"><a xlink:title=" ">
<path fill="none" stroke="#63b8ff" d="M524.04,-139.46C415.3,-128.73 205.03,-107.4 131,-96 128.06,-95.55 125.06,-95.06 122.03,-94.54"/>
<polygon fill="#63b8ff" stroke="#63b8ff" points="523.94,-142.97 534.24,-140.47 524.63,-136.01 523.94,-142.97"/>
</a>
</g>
</g>
<!-- Node12&#45;&gt;Node4 -->
<g id="edge15_Node000012_Node000004" class="edge">
<title>Node12&#45;&gt;Node4</title>
<g id="a_edge15_Node000012_Node000004"><a xlink:title=" ">
<path fill="none" stroke="#63b8ff" d="M526.36,-129.45C485.85,-119.08 434.21,-105.86 395.74,-96.01"/>
<polygon fill="#63b8ff" stroke="#63b8ff" points="525.58,-132.87 536.14,-131.95 527.32,-126.08 525.58,-132.87"/>
</a>
</g>
</g>
<!-- Node12&#45;&gt;Node5 -->
<g id="edge16_Node000012_Node000005" class="edge">
<title>Node12&#45;&gt;Node5</title>
<g id="a_edge16_Node000012_Node000005"><a xlink:title=" ">
<path fill="none" stroke="#63b8ff" d="M555.06,-127.3C531.68,-115.14 502.32,-99.86 484.37,-90.52"/>
<polygon fill="#63b8ff" stroke="#63b8ff" points="553.52,-130.44 564.01,-131.95 556.75,-124.23 553.52,-130.44"/>
</a>
</g>
</g>
<!-- Node13 -->
<g id="Node000013" class="node">
<title>Node13</title>
<g id="a_Node000013"><a xlink:href="core_8cpp.html" target="_top" xlink:title="This file implements the CCPU_Core class defined in core.hpp.">
<polygon fill="white" stroke="#666666" points="646.5,-96 533.5,-96 533.5,-66 646.5,-66 646.5,-96"/>
<text text-anchor="start" x="541.5" y="-84" font-family="Helvetica,sans-Serif" font-size="10.00">src/core/arm1176jzf</text>
<text text-anchor="middle" x="590" y="-73" font-family="Helvetica,sans-Serif" font-size="10.00">_s/core.cpp</text>
</a>
</g>
</g>
<!-- Node12&#45;&gt;Node13 -->
<g id="edge13_Node000012_Node000013" class="edge">
<title>Node12&#45;&gt;Node13</title>
<g id="a_edge13_Node000012_Node000013"><a xlink:title=" ">
<path fill="none" stroke="#63b8ff" d="M590.62,-121.54C590.48,-112.96 590.34,-103.61 590.22,-96.16"/>
<polygon fill="#63b8ff" stroke="#63b8ff" points="587.12,-121.85 590.78,-131.8 594.12,-121.74 587.12,-121.85"/>
</a>
</g>
</g>
<!-- Node14 -->
<g id="Node000014" class="node">
<title>Node14</title>
<g id="a_Node000014"><a xlink:href="control__window_8hpp.html" target="_top" xlink:title="This file defines a window that allows the user to control CPU execution.">
<polygon fill="white" stroke="#666666" points="795.5,-96 664.5,-96 664.5,-66 795.5,-66 795.5,-96"/>
<text text-anchor="start" x="672.5" y="-84" font-family="Helvetica,sans-Serif" font-size="10.00">src/gui/windows/control</text>
<text text-anchor="middle" x="730" y="-73" font-family="Helvetica,sans-Serif" font-size="10.00">_window.hpp</text>
</a>
</g>
</g>
<!-- Node12&#45;&gt;Node14 -->
<g id="edge17_Node000012_Node000014" class="edge">
<title>Node12&#45;&gt;Node14</title>
<g id="a_edge17_Node000012_Node000014"><a xlink:title=" ">
<path fill="none" stroke="#63b8ff" d="M630.86,-127.65C652.72,-117.58 679.39,-105.3 699.57,-96.01"/>
<polygon fill="#63b8ff" stroke="#63b8ff" points="629.12,-124.59 621.5,-131.95 632.05,-130.95 629.12,-124.59"/>
</a>
</g>
</g>
<!-- Node16 -->
<g id="Node000016" class="node">
<title>Node16</title>
<g id="a_Node000016"><a xlink:href="registers__window_8hpp.html" target="_top" xlink:title="This file defines a window that displays the contents of all CPU registers.">
<polygon fill="white" stroke="#666666" points="954,-96 814,-96 814,-66 954,-66 954,-96"/>
<text text-anchor="start" x="822" y="-84" font-family="Helvetica,sans-Serif" font-size="10.00">src/gui/windows/registers</text>
<text text-anchor="middle" x="884" y="-73" font-family="Helvetica,sans-Serif" font-size="10.00">_window.hpp</text>
</a>
</g>
</g>
<!-- Node12&#45;&gt;Node16 -->
<g id="edge20_Node000012_Node000016" class="edge">
<title>Node12&#45;&gt;Node16</title>
<g id="a_edge20_Node000012_Node000016"><a xlink:title=" ">
<path fill="none" stroke="#63b8ff" d="M657.63,-131.45C706.2,-120.84 771.64,-106.54 819.67,-96.05"/>
<polygon fill="#63b8ff" stroke="#63b8ff" points="656.86,-128.03 647.84,-133.58 658.36,-134.87 656.86,-128.03"/>
</a>
</g>
</g>
<!-- Node18 -->
<g id="Node000018" class="node">
<title>Node18</title>
<g id="a_Node000018"><a xlink:href="source__code__window_8hpp.html" target="_top" xlink:title="This file defines a window that displays loaded ELF files (disassembled instructions of the source co...">
<polygon fill="white" stroke="#666666" points="1102,-96 972,-96 972,-66 1102,-66 1102,-96"/>
<text text-anchor="start" x="980" y="-84" font-family="Helvetica,sans-Serif" font-size="10.00">src/gui/windows/source</text>
<text text-anchor="middle" x="1037" y="-73" font-family="Helvetica,sans-Serif" font-size="10.00">_code_window.hpp</text>
</a>
</g>
</g>
<!-- Node12&#45;&gt;Node18 -->
<g id="edge23_Node000012_Node000018" class="edge">
<title>Node12&#45;&gt;Node18</title>
<g id="a_edge23_Node000012_Node000018"><a xlink:title=" ">
<path fill="none" stroke="#63b8ff" d="M657.79,-131.98C793.84,-110.08 830.81,-116.25 963,-96 965.84,-95.56 968.74,-95.1 971.67,-94.62"/>
<polygon fill="#63b8ff" stroke="#63b8ff" points="657.13,-128.54 647.82,-133.6 658.25,-135.45 657.13,-128.54"/>
</a>
</g>
</g>
<!-- Node20 -->
<g id="Node000020" class="node">
<title>Node20</title>
<g id="a_Node000020"><a xlink:href="top__bar__menu_8hpp.html" target="_top" xlink:title=" ">
<polygon fill="white" stroke="#666666" points="1233.5,-96 1120.5,-96 1120.5,-66 1233.5,-66 1233.5,-96"/>
<text text-anchor="start" x="1128.5" y="-84" font-family="Helvetica,sans-Serif" font-size="10.00">src/gui/windows/top</text>
<text text-anchor="middle" x="1177" y="-73" font-family="Helvetica,sans-Serif" font-size="10.00">_bar_menu.hpp</text>
</a>
</g>
</g>
<!-- Node12&#45;&gt;Node20 -->
<g id="edge26_Node000012_Node000020" class="edge">
<title>Node12&#45;&gt;Node20</title>
<g id="a_edge26_Node000012_Node000020"><a xlink:title=" ">
<path fill="none" stroke="#63b8ff" d="M657.81,-132.03C859.07,-103.64 913.91,-124.59 1111,-96 1114.01,-95.56 1117.1,-95.07 1120.2,-94.54"/>
<polygon fill="#63b8ff" stroke="#63b8ff" points="657.2,-128.58 647.8,-133.46 658.19,-135.51 657.2,-128.58"/>
</a>
</g>
</g>
<!-- Node14&#45;&gt;Node7 -->
<g id="edge18_Node000014_Node000007" class="edge">
<title>Node14&#45;&gt;Node7</title>
<g id="a_edge18_Node000014_Node000007"><a xlink:title=" ">
<path fill="none" stroke="#63b8ff" d="M752.06,-58.6C763.93,-47.1 777.93,-33.52 786.88,-24.84"/>
<polygon fill="#63b8ff" stroke="#63b8ff" points="749.39,-56.32 744.65,-65.8 754.26,-61.35 749.39,-56.32"/>
</a>
</g>
</g>
<!-- Node15 -->
<g id="Node000015" class="node">
<title>Node15</title>
<g id="a_Node000015"><a xlink:href="control__window_8cpp.html" target="_top" xlink:title="This file implements a window that allows the user to control CPU execution.">
<polygon fill="white" stroke="#666666" points="734.5,-30 603.5,-30 603.5,0 734.5,0 734.5,-30"/>
<text text-anchor="start" x="611.5" y="-18" font-family="Helvetica,sans-Serif" font-size="10.00">src/gui/windows/control</text>
<text text-anchor="middle" x="669" y="-7" font-family="Helvetica,sans-Serif" font-size="10.00">_window.cpp</text>
</a>
</g>
</g>
<!-- Node14&#45;&gt;Node15 -->
<g id="edge19_Node000014_Node000015" class="edge">
<title>Node14&#45;&gt;Node15</title>
<g id="a_edge19_Node000014_Node000015"><a xlink:title=" ">
<path fill="none" stroke="#63b8ff" d="M709.38,-58.37C700.51,-49.06 690.39,-38.44 682.5,-30.16"/>
<polygon fill="#63b8ff" stroke="#63b8ff" points="707.03,-60.97 716.46,-65.8 712.1,-56.14 707.03,-60.97"/>
</a>
</g>
</g>
<!-- Node16&#45;&gt;Node7 -->
<g id="edge21_Node000016_Node000007" class="edge">
<title>Node16&#45;&gt;Node7</title>
<g id="a_edge21_Node000016_Node000007"><a xlink:title=" ">
<path fill="none" stroke="#63b8ff" d="M856.33,-59.87C840.04,-48.03 820.27,-33.65 807.91,-24.66"/>
<polygon fill="#63b8ff" stroke="#63b8ff" points="854.32,-62.75 864.47,-65.8 858.44,-57.08 854.32,-62.75"/>
</a>
</g>
</g>
<!-- Node17 -->
<g id="Node000017" class="node">
<title>Node17</title>
<g id="a_Node000017"><a xlink:href="registers__window_8cpp.html" target="_top" xlink:title="This file implements a window that displays the contents of all CPU registers.">
<polygon fill="white" stroke="#666666" points="998,-30 858,-30 858,0 998,0 998,-30"/>
<text text-anchor="start" x="866" y="-18" font-family="Helvetica,sans-Serif" font-size="10.00">src/gui/windows/registers</text>
<text text-anchor="middle" x="928" y="-7" font-family="Helvetica,sans-Serif" font-size="10.00">_window.cpp</text>
</a>
</g>
</g>
<!-- Node16&#45;&gt;Node17 -->
<g id="edge22_Node000016_Node000017" class="edge">
<title>Node16&#45;&gt;Node17</title>
<g id="a_edge22_Node000016_Node000017"><a xlink:title=" ">
<path fill="none" stroke="#63b8ff" d="M899.45,-57.53C905.71,-48.43 912.74,-38.19 918.26,-30.16"/>
<polygon fill="#63b8ff" stroke="#63b8ff" points="896.55,-55.57 893.77,-65.8 902.31,-59.54 896.55,-55.57"/>
</a>
</g>
</g>
<!-- Node18&#45;&gt;Node7 -->
<g id="edge24_Node000018_Node000007" class="edge">
<title>Node18&#45;&gt;Node7</title>
<g id="a_edge24_Node000018_Node000007"><a xlink:title=" ">
<path fill="none" stroke="#63b8ff" d="M974.35,-63.36C927.47,-50.91 865.27,-34.4 828.07,-24.52"/>
<polygon fill="#63b8ff" stroke="#63b8ff" points="973.55,-66.77 984.11,-65.95 975.34,-60.01 973.55,-66.77"/>
</a>
</g>
</g>
<!-- Node19 -->
<g id="Node000019" class="node">
<title>Node19</title>
<g id="a_Node000019"><a xlink:href="source__code__window_8cpp.html" target="_top" xlink:title="This file implements a window that displays loaded ELF files (disassembled instructions of the source...">
<polygon fill="white" stroke="#666666" points="1146,-30 1016,-30 1016,0 1146,0 1146,-30"/>
<text text-anchor="start" x="1024" y="-18" font-family="Helvetica,sans-Serif" font-size="10.00">src/gui/windows/source</text>
<text text-anchor="middle" x="1081" y="-7" font-family="Helvetica,sans-Serif" font-size="10.00">_code_window.cpp</text>
</a>
</g>
</g>
<!-- Node18&#45;&gt;Node19 -->
<g id="edge25_Node000018_Node000019" class="edge">
<title>Node18&#45;&gt;Node19</title>
<g id="a_edge25_Node000018_Node000019"><a xlink:title=" ">
<path fill="none" stroke="#63b8ff" d="M1052.45,-57.53C1058.71,-48.43 1065.74,-38.19 1071.26,-30.16"/>
<polygon fill="#63b8ff" stroke="#63b8ff" points="1049.55,-55.57 1046.77,-65.8 1055.31,-59.54 1049.55,-55.57"/>
</a>
</g>
</g>
<!-- Node20&#45;&gt;Node7 -->
<g id="edge27_Node000020_Node000007" class="edge">
<title>Node20&#45;&gt;Node7</title>
<g id="a_edge27_Node000020_Node000007"><a xlink:title=" ">
<path fill="none" stroke="#63b8ff" d="M1110.13,-65.94C993.46,-46.17 961.1,-52.42 849,-30 841.44,-28.49 833.36,-26.53 825.84,-24.56"/>
<polygon fill="#63b8ff" stroke="#63b8ff" points="1109.72,-69.42 1120.17,-67.67 1110.91,-62.52 1109.72,-69.42"/>
</a>
</g>
</g>
<!-- Node21 -->
<g id="Node000021" class="node">
<title>Node21</title>
<g id="a_Node000021"><a xlink:href="top__bar__menu_8cpp.html" target="_top" xlink:title=" ">
<polygon fill="white" stroke="#666666" points="1277.5,-30 1164.5,-30 1164.5,0 1277.5,0 1277.5,-30"/>
<text text-anchor="start" x="1172.5" y="-18" font-family="Helvetica,sans-Serif" font-size="10.00">src/gui/windows/top</text>
<text text-anchor="middle" x="1221" y="-7" font-family="Helvetica,sans-Serif" font-size="10.00">_bar_menu.cpp</text>
</a>
</g>
</g>
<!-- Node20&#45;&gt;Node21 -->
<g id="edge28_Node000020_Node000021" class="edge">
<title>Node20&#45;&gt;Node21</title>
<g id="a_edge28_Node000020_Node000021"><a xlink:title=" ">
<path fill="none" stroke="#63b8ff" d="M1192.45,-57.53C1198.71,-48.43 1205.74,-38.19 1211.26,-30.16"/>
<polygon fill="#63b8ff" stroke="#63b8ff" points="1189.55,-55.57 1186.77,-65.8 1195.31,-59.54 1189.55,-55.57"/>
</a>
</g>
</g>
<!-- Node22&#45;&gt;Node5 -->
<g id="edge32_Node000022_Node000005" class="edge">
<title>Node22&#45;&gt;Node5</title>
<g id="a_edge32_Node000022_Node000005"><a xlink:title=" ">
<path fill="none" stroke="#63b8ff" d="M617.32,-195.39C581.26,-185.54 541.09,-172.89 526,-162 499.29,-142.73 480.02,-107.36 472.05,-90.89"/>
<polygon fill="#63b8ff" stroke="#63b8ff" points="616.79,-198.87 627.36,-198.09 618.61,-192.11 616.79,-198.87"/>
</a>
</g>
</g>
<!-- Node22&#45;&gt;Node12 -->
<g id="edge30_Node000022_Node000012" class="edge">
<title>Node22&#45;&gt;Node12</title>
<g id="a_edge30_Node000022_Node000012"><a xlink:title=" ">
<path fill="none" stroke="#63b8ff" d="M654.98,-192.03C640.91,-182.34 624.33,-170.94 611.58,-162.16"/>
<polygon fill="#63b8ff" stroke="#63b8ff" points="653.14,-195.01 663.36,-197.8 657.11,-189.24 653.14,-195.01"/>
</a>
</g>
</g>
<!-- Node23 -->
<g id="Node000023" class="node">
<title>Node23</title>
<g id="a_Node000023"><a xlink:href="mmu_8cpp.html" target="_top" xlink:title="This file implements the MMU (memory management unit) of the CPU.">
<polygon fill="white" stroke="#666666" points="778.5,-162 665.5,-162 665.5,-132 778.5,-132 778.5,-162"/>
<text text-anchor="start" x="673.5" y="-150" font-family="Helvetica,sans-Serif" font-size="10.00">src/core/arm1176jzf</text>
<text text-anchor="middle" x="722" y="-139" font-family="Helvetica,sans-Serif" font-size="10.00">_s/mmu/mmu.cpp</text>
</a>
</g>
</g>
<!-- Node22&#45;&gt;Node23 -->
<g id="edge31_Node000022_Node000023" class="edge">
<title>Node22&#45;&gt;Node23</title>
<g id="a_edge31_Node000022_Node000023"><a xlink:title=" ">
<path fill="none" stroke="#63b8ff" d="M697.68,-188.96C703,-180 708.92,-170.03 713.59,-162.16"/>
<polygon fill="#63b8ff" stroke="#63b8ff" points="694.53,-187.41 692.43,-197.8 700.55,-190.98 694.53,-187.41"/>
</a>
</g>
</g>
<!-- Node24&#45;&gt;Node3 -->
<g id="edge37_Node000024_Node000003" class="edge">
<title>Node24&#45;&gt;Node3</title>
<g id="a_edge37_Node000024_Node000003"><a xlink:title=" ">
<path fill="none" stroke="#63b8ff" d="M732.2,-266.3C656.89,-242.36 485.48,-187.88 404.26,-162.07"/>
<polygon fill="#63b8ff" stroke="#63b8ff" points="731.57,-269.78 742.16,-269.47 733.69,-263.11 731.57,-269.78"/>
</a>
</g>
</g>
<!-- Node24&#45;&gt;Node5 -->
<g id="edge38_Node000024_Node000005" class="edge">
<title>Node24&#45;&gt;Node5</title>
<g id="a_edge38_Node000024_Node000005"><a xlink:title=" ">
<path fill="none" stroke="#63b8ff" d="M778.83,-260.56C794.36,-230.42 819.7,-168.34 788,-132 749.22,-87.55 582.95,-107.05 525,-96 516.89,-94.45 508.21,-92.48 500.13,-90.51"/>
<polygon fill="#63b8ff" stroke="#63b8ff" points="775.69,-259 774.04,-269.47 781.86,-262.32 775.69,-259"/>
</a>
</g>
</g>
<!-- Node24&#45;&gt;Node12 -->
<g id="edge34_Node000024_Node000012" class="edge">
<title>Node24&#45;&gt;Node12</title>
<g id="a_edge34_Node000024_Node000012"><a xlink:title=" ">
<path fill="none" stroke="#63b8ff" d="M769.54,-259.15C769.02,-241.2 765.39,-214.53 750,-198 742.51,-189.95 687.86,-173.83 644.69,-162.07"/>
<polygon fill="#63b8ff" stroke="#63b8ff" points="766.04,-259.26 769.53,-269.26 773.04,-259.26 766.04,-259.26"/>
</a>
</g>
</g>
<!-- Node24&#45;&gt;Node20 -->
<g id="edge39_Node000024_Node000020" class="edge">
<title>Node24&#45;&gt;Node20</title>
<g id="a_edge39_Node000024_Node000020"><a xlink:title=" ">
<path fill="none" stroke="#63b8ff" d="M784.54,-262.15C802.54,-244.51 833.75,-216.12 865,-198 949.62,-148.95 1058.72,-114.05 1122.95,-96.04"/>
<polygon fill="#63b8ff" stroke="#63b8ff" points="781.85,-259.88 777.24,-269.42 786.8,-264.84 781.85,-259.88"/>
</a>
</g>
</g>
<!-- Node24&#45;&gt;Node22 -->
<g id="edge35_Node000024_Node000022" class="edge">
<title>Node24&#45;&gt;Node22</title>
<g id="a_edge35_Node000024_Node000022"><a xlink:title=" ">
<path fill="none" stroke="#63b8ff" d="M749.5,-263.32C735.45,-252.74 716.62,-238.56 702.75,-228.12"/>
<polygon fill="#63b8ff" stroke="#63b8ff" points="747.44,-266.15 757.54,-269.37 751.65,-260.56 747.44,-266.15"/>
</a>
</g>
</g>
<!-- Node25 -->
<g id="Node000025" class="node">
<title>Node25</title>
<g id="a_Node000025"><a xlink:href="bus_8cpp.html" target="_top" xlink:title="This file implements the interface defined in bus.hpp.">
<polygon fill="white" stroke="#666666" points="968.5,-222.5 873.5,-222.5 873.5,-203.5 968.5,-203.5 968.5,-222.5"/>
<text text-anchor="middle" x="921" y="-210.5" font-family="Helvetica,sans-Serif" font-size="10.00">src/core/bus.cpp</text>
</a>
</g>
</g>
<!-- Node24&#45;&gt;Node25 -->
<g id="edge36_Node000024_Node000025" class="edge">
<title>Node24&#45;&gt;Node25</title>
<g id="a_edge36_Node000024_Node000025"><a xlink:title=" ">
<path fill="none" stroke="#63b8ff" d="M799.02,-265.36C828.98,-252.75 874.2,-233.71 900.34,-222.7"/>
<polygon fill="#63b8ff" stroke="#63b8ff" points="797.36,-262.26 789.5,-269.37 800.07,-268.71 797.36,-262.26"/>
</a>
</g>
</g>
<!-- Node26 -->
<g id="Node000026" class="node">
<title>Node26</title>
<g id="a_Node000026"><a xlink:href="elf__loader_8hpp.html" target="_top" xlink:title="This file defines the functionality of an ELF loader.">
<polygon fill="white" stroke="#666666" points="1240.5,-156.5 1113.5,-156.5 1113.5,-137.5 1240.5,-137.5 1240.5,-156.5"/>
<text text-anchor="middle" x="1177" y="-144.5" font-family="Helvetica,sans-Serif" font-size="10.00">src/utils/elf_loader.hpp</text>
</a>
</g>
</g>
<!-- Node24&#45;&gt;Node26 -->
<g id="edge40_Node000024_Node000026" class="edge">
<title>Node24&#45;&gt;Node26</title>
<g id="a_edge40_Node000024_Node000026"><a xlink:title=" ">
<path fill="none" stroke="#63b8ff" d="M813.47,-267.04C817.7,-266.01 821.93,-264.98 826,-264 893.49,-247.72 911.83,-249.01 978,-228 1045.96,-206.42 1123.6,-172.36 1158.41,-156.57"/>
<polygon fill="#63b8ff" stroke="#63b8ff" points="812.54,-263.67 803.65,-269.44 814.2,-270.46 812.54,-263.67"/>
</a>
</g>
</g>
<!-- Node26&#45;&gt;Node18 -->
<g id="edge42_Node000026_Node000018" class="edge">
<title>Node26&#45;&gt;Node18</title>
<g id="a_edge42_Node000026_Node000018"><a xlink:title=" ">
<path fill="none" stroke="#63b8ff" d="M1148.73,-133.08C1125.29,-122.36 1092.01,-107.15 1067.88,-96.12"/>
<polygon fill="#63b8ff" stroke="#63b8ff" points="1147.57,-136.39 1158.12,-137.37 1150.48,-130.03 1147.57,-136.39"/>
</a>
</g>
</g>
<!-- Node26&#45;&gt;Node19 -->
<g id="edge41_Node000026_Node000019" class="edge">
<title>Node26&#45;&gt;Node19</title>
<g id="a_edge41_Node000026_Node000019"><a xlink:title=" ">
<path fill="none" stroke="#63b8ff" d="M1202.47,-132.11C1227.86,-116.44 1260.71,-90 1243,-66 1231.07,-49.84 1185.81,-36.69 1146.15,-27.95"/>
<polygon fill="#63b8ff" stroke="#63b8ff" points="1200.4,-129.27 1193.57,-137.37 1203.96,-135.3 1200.4,-129.27"/>
</a>
</g>
</g>
<!-- Node26&#45;&gt;Node20 -->
<g id="edge43_Node000026_Node000020" class="edge">
<title>Node26&#45;&gt;Node20</title>
<g id="a_edge43_Node000026_Node000020"><a xlink:title=" ">
<path fill="none" stroke="#63b8ff" d="M1177,-127.35C1177,-117.47 1177,-105.51 1177,-96.36"/>
<polygon fill="#63b8ff" stroke="#63b8ff" points="1173.5,-127.37 1177,-137.37 1180.5,-127.37 1173.5,-127.37"/>
</a>
</g>
</g>
<!-- Node27 -->
<g id="Node000027" class="node">
<title>Node27</title>
<g id="a_Node000027"><a xlink:href="elf__loader_8cpp.html" target="_top" xlink:title="This file implements the functionality of an ELF loader defined in elf_loader.hpp.">
<polygon fill="white" stroke="#666666" points="1416,-90.5 1290,-90.5 1290,-71.5 1416,-71.5 1416,-90.5"/>
<text text-anchor="middle" x="1353" y="-78.5" font-family="Helvetica,sans-Serif" font-size="10.00">src/utils/elf_loader.cpp</text>
</a>
</g>
</g>
<!-- Node26&#45;&gt;Node27 -->
<g id="edge44_Node000026_Node000027" class="edge">
<title>Node26&#45;&gt;Node27</title>
<g id="a_edge44_Node000026_Node000027"><a xlink:title=" ">
<path fill="none" stroke="#63b8ff" d="M1210.44,-133.84C1245.21,-121.2 1298.75,-101.73 1329.36,-90.6"/>
<polygon fill="#63b8ff" stroke="#63b8ff" points="1208.94,-130.66 1200.74,-137.37 1211.33,-137.24 1208.94,-130.66"/>
</a>
</g>
</g>
<!-- Node29&#45;&gt;Node7 -->
<g id="edge48_Node000029_Node000007" class="edge">
<title>Node29&#45;&gt;Node7</title>
<g id="a_edge48_Node000029_Node000007"><a xlink:title=" ">
<path fill="none" stroke="#63b8ff" d="M1450.61,-253.94C1461.15,-209.69 1475.76,-115.41 1425,-66 1379.05,-21.27 912.3,-40.24 849,-30 840.83,-28.68 832.09,-26.64 824.11,-24.52"/>
<polygon fill="#63b8ff" stroke="#63b8ff" points="1447.18,-253.26 1448.13,-263.81 1453.96,-254.97 1447.18,-253.26"/>
</a>
</g>
</g>
<!-- Node30 -->
<g id="Node000030" class="node">
<title>Node30</title>
<g id="a_Node000030"><a xlink:href="cp15__window_8cpp.html" target="_top" xlink:title="This file implements a window that displays data (information) related to coprocessor 15.">
<polygon fill="white" stroke="#666666" points="1593.5,-228 1472.5,-228 1472.5,-198 1593.5,-198 1593.5,-228"/>
<text text-anchor="start" x="1480.5" y="-216" font-family="Helvetica,sans-Serif" font-size="10.00">src/gui/windows/cp15</text>
<text text-anchor="middle" x="1533" y="-205" font-family="Helvetica,sans-Serif" font-size="10.00">_window.cpp</text>
</a>
</g>
</g>
<!-- Node29&#45;&gt;Node30 -->
<g id="edge49_Node000029_Node000030" class="edge">
<title>Node29&#45;&gt;Node30</title>
<g id="a_edge49_Node000029_Node000030"><a xlink:title=" ">
<path fill="none" stroke="#63b8ff" d="M1472.16,-257.75C1485.54,-248.13 1501.22,-236.86 1513.3,-228.16"/>
<polygon fill="#63b8ff" stroke="#63b8ff" points="1469.83,-255.12 1463.75,-263.8 1473.91,-260.8 1469.83,-255.12"/>
</a>
</g>
</g>
</g>
</svg>
