<?xml version="1.0" encoding="UTF-8" standalone="no"?>
<!DOCTYPE svg PUBLIC "-//W3C//DTD SVG 1.1//EN"
 "http://www.w3.org/Graphics/SVG/1.1/DTD/svg11.dtd">
<!-- Generated by graphviz version 2.43.0 (0)
 -->
<!-- Title: src/core/arm1176jzf_s/core.hpp Pages: 1 -->
<svg width="1208pt" height="170pt"
 viewBox="0.00 0.00 1208.00 170.00" xmlns="http://www.w3.org/2000/svg" xmlns:xlink="http://www.w3.org/1999/xlink">
<g id="graph0" class="graph" transform="scale(1 1) rotate(0) translate(4 166)">
<title>src/core/arm1176jzf_s/core.hpp</title>
<!-- Node1 -->
<g id="Node000001" class="node">
<title>Node1</title>
<g id="a_Node000001"><a xlink:title="This file defines a class that represents a CPU core (arm1176jzf_s).">
<polygon fill="#999999" stroke="#666666" points="581,-162 468,-162 468,-132 581,-132 581,-162"/>
<text text-anchor="start" x="476" y="-150" font-family="Helvetica,sans-Serif" font-size="10.00">src/core/arm1176jzf</text>
<text text-anchor="middle" x="524.5" y="-139" font-family="Helvetica,sans-Serif" font-size="10.00">_s/core.hpp</text>
</a>
</g>
</g>
<!-- Node2 -->
<g id="Node000002" class="node">
<title>Node2</title>
<g id="a_Node000002"><a xlink:href="core_8cpp.html" target="_top" xlink:title="This file implements the CCPU_Core class defined in core.hpp.">
<polygon fill="white" stroke="#666666" points="113,-96 0,-96 0,-66 113,-66 113,-96"/>
<text text-anchor="start" x="8" y="-84" font-family="Helvetica,sans-Serif" font-size="10.00">src/core/arm1176jzf</text>
<text text-anchor="middle" x="56.5" y="-73" font-family="Helvetica,sans-Serif" font-size="10.00">_s/core.cpp</text>
</a>
</g>
</g>
<!-- Node1&#45;&gt;Node2 -->
<g id="edge1_Node000001_Node000002" class="edge">
<title>Node1&#45;&gt;Node2</title>
<g id="a_edge1_Node000001_Node000002"><a xlink:title=" ">
<path fill="none" stroke="#63b8ff" d="M457.26,-139.41C377.23,-131.15 239.66,-115.67 122.5,-96 119.5,-95.5 116.42,-94.95 113.32,-94.37"/>
<polygon fill="#63b8ff" stroke="#63b8ff" points="457.39,-142.94 467.69,-140.48 458.1,-135.98 457.39,-142.94"/>
</a>
</g>
</g>
<!-- Node3 -->
<g id="Node000003" class="node">
<title>Node3</title>
<g id="a_Node000003"><a xlink:href="coprocessor_8cpp.html" target="_top" xlink:title="This file implements the common functionality of a general interface of a coprocessor.">
<polygon fill="white" stroke="#666666" points="253.5,-96 131.5,-96 131.5,-66 253.5,-66 253.5,-96"/>
<text text-anchor="start" x="139.5" y="-84" font-family="Helvetica,sans-Serif" font-size="10.00">src/core/coprocessors</text>
<text text-anchor="middle" x="192.5" y="-73" font-family="Helvetica,sans-Serif" font-size="10.00">/coprocessor.cpp</text>
</a>
</g>
</g>
<!-- Node1&#45;&gt;Node3 -->
<g id="edge2_Node000001_Node000003" class="edge">
<title>Node1&#45;&gt;Node3</title>
<g id="a_edge2_Node000001_Node000003"><a xlink:title=" ">
<path fill="none" stroke="#63b8ff" d="M458.05,-133.49C405.07,-123.47 329,-108.99 262.5,-96 259.58,-95.43 256.59,-94.84 253.58,-94.25"/>
<polygon fill="#63b8ff" stroke="#63b8ff" points="457.52,-136.95 468,-135.37 458.82,-130.07 457.52,-136.95"/>
</a>
</g>
</g>
<!-- Node4 -->
<g id="Node000004" class="node">
<title>Node4</title>
<g id="a_Node000004"><a xlink:href="cp10_8cpp.html" target="_top" xlink:title="This file implements coprocessor CP10 (single&#45;precision FPU).">
<polygon fill="white" stroke="#666666" points="393.5,-96 271.5,-96 271.5,-66 393.5,-66 393.5,-96"/>
<text text-anchor="start" x="279.5" y="-84" font-family="Helvetica,sans-Serif" font-size="10.00">src/core/coprocessors</text>
<text text-anchor="middle" x="332.5" y="-73" font-family="Helvetica,sans-Serif" font-size="10.00">/cp10/cp10.cpp</text>
</a>
</g>
</g>
<!-- Node1&#45;&gt;Node4 -->
<g id="edge3_Node000001_Node000004" class="edge">
<title>Node1&#45;&gt;Node4</title>
<g id="a_edge3_Node000001_Node000004"><a xlink:title=" ">
<path fill="none" stroke="#63b8ff" d="M472.67,-128.72C441.91,-118.47 403.4,-105.63 374.54,-96.01"/>
<polygon fill="#63b8ff" stroke="#63b8ff" points="471.77,-132.11 482.36,-131.95 473.98,-125.47 471.77,-132.11"/>
</a>
</g>
</g>
<!-- Node5 -->
<g id="Node000005" class="node">
<title>Node5</title>
<g id="a_Node000005"><a xlink:href="soc_8hpp.html" target="_top" xlink:title=" ">
<polygon fill="white" stroke="#666666" points="507,-90.5 412,-90.5 412,-71.5 507,-71.5 507,-90.5"/>
<text text-anchor="middle" x="459.5" y="-78.5" font-family="Helvetica,sans-Serif" font-size="10.00">src/core/soc.hpp</text>
</a>
</g>
</g>
<!-- Node1&#45;&gt;Node5 -->
<g id="edge4_Node000001_Node000005" class="edge">
<title>Node1&#45;&gt;Node5</title>
<g id="a_edge4_Node000001_Node000005"><a xlink:title=" ">
<path fill="none" stroke="#63b8ff" d="M502.77,-124.6C491.08,-113.1 477.3,-99.52 468.48,-90.84"/>
<polygon fill="#63b8ff" stroke="#63b8ff" points="500.49,-127.27 510.07,-131.8 505.4,-122.29 500.49,-127.27"/>
</a>
</g>
</g>
<!-- Node9 -->
<g id="Node000009" class="node">
<title>Node9</title>
<g id="a_Node000009"><a xlink:href="control__window_8hpp.html" target="_top" xlink:title="This file defines a window that allows the user to control CPU execution.">
<polygon fill="white" stroke="#666666" points="656,-96 525,-96 525,-66 656,-66 656,-96"/>
<text text-anchor="start" x="533" y="-84" font-family="Helvetica,sans-Serif" font-size="10.00">src/gui/windows/control</text>
<text text-anchor="middle" x="590.5" y="-73" font-family="Helvetica,sans-Serif" font-size="10.00">_window.hpp</text>
</a>
</g>
</g>
<!-- Node1&#45;&gt;Node9 -->
<g id="edge8_Node000001_Node000009" class="edge">
<title>Node1&#45;&gt;Node9</title>
<g id="a_edge8_Node000001_Node000009"><a xlink:title=" ">
<path fill="none" stroke="#63b8ff" d="M546.52,-124.65C556.19,-115.27 567.27,-104.53 575.89,-96.16"/>
<polygon fill="#63b8ff" stroke="#63b8ff" points="543.89,-122.32 539.15,-131.8 548.76,-127.35 543.89,-122.32"/>
</a>
</g>
</g>
<!-- Node11 -->
<g id="Node000011" class="node">
<title>Node11</title>
<g id="a_Node000011"><a xlink:href="registers__window_8hpp.html" target="_top" xlink:title="This file defines a window that displays the contents of all CPU registers.">
<polygon fill="white" stroke="#666666" points="814.5,-96 674.5,-96 674.5,-66 814.5,-66 814.5,-96"/>
<text text-anchor="start" x="682.5" y="-84" font-family="Helvetica,sans-Serif" font-size="10.00">src/gui/windows/registers</text>
<text text-anchor="middle" x="744.5" y="-73" font-family="Helvetica,sans-Serif" font-size="10.00">_window.hpp</text>
</a>
</g>
</g>
<!-- Node1&#45;&gt;Node11 -->
<g id="edge11_Node000001_Node000011" class="edge">
<title>Node1&#45;&gt;Node11</title>
<g id="a_edge11_Node000001_Node000011"><a xlink:title=" ">
<path fill="none" stroke="#63b8ff" d="M582.52,-129.12C617.99,-118.8 662.83,-105.76 696.33,-96.01"/>
<polygon fill="#63b8ff" stroke="#63b8ff" points="581.4,-125.8 572.78,-131.95 583.36,-132.52 581.4,-125.8"/>
</a>
</g>
</g>
<!-- Node13 -->
<g id="Node000013" class="node">
<title>Node13</title>
<g id="a_Node000013"><a xlink:href="source__code__window_8hpp.html" target="_top" xlink:title="This file defines a window that displays loaded ELF files (disassembled instructions of the source co...">
<polygon fill="white" stroke="#666666" points="962.5,-96 832.5,-96 832.5,-66 962.5,-66 962.5,-96"/>
<text text-anchor="start" x="840.5" y="-84" font-family="Helvetica,sans-Serif" font-size="10.00">src/gui/windows/source</text>
<text text-anchor="middle" x="897.5" y="-73" font-family="Helvetica,sans-Serif" font-size="10.00">_code_window.hpp</text>
</a>
</g>
</g>
<!-- Node1&#45;&gt;Node13 -->
<g id="edge14_Node000001_Node000013" class="edge">
<title>Node1&#45;&gt;Node13</title>
<g id="a_edge14_Node000001_Node000013"><a xlink:title=" ">
<path fill="none" stroke="#63b8ff" d="M591.25,-135.26C651.89,-125.39 743.78,-110.2 823.5,-96 826.33,-95.5 829.22,-94.97 832.14,-94.44"/>
<polygon fill="#63b8ff" stroke="#63b8ff" points="590.36,-131.85 581.05,-136.91 591.48,-138.76 590.36,-131.85"/>
</a>
</g>
</g>
<!-- Node15 -->
<g id="Node000015" class="node">
<title>Node15</title>
<g id="a_Node000015"><a xlink:href="top__bar__menu_8hpp.html" target="_top" xlink:title=" ">
<polygon fill="white" stroke="#666666" points="1094,-96 981,-96 981,-66 1094,-66 1094,-96"/>
<text text-anchor="start" x="989" y="-84" font-family="Helvetica,sans-Serif" font-size="10.00">src/gui/windows/top</text>
<text text-anchor="middle" x="1037.5" y="-73" font-family="Helvetica,sans-Serif" font-size="10.00">_bar_menu.hpp</text>
</a>
</g>
</g>
<!-- Node1&#45;&gt;Node15 -->
<g id="edge17_Node000001_Node000015" class="edge">
<title>Node1&#45;&gt;Node15</title>
<g id="a_edge17_Node000001_Node000015"><a xlink:title=" ">
<path fill="none" stroke="#63b8ff" d="M591.26,-140.58C678.87,-133 837.28,-117.69 971.5,-96 974.51,-95.51 977.58,-94.98 980.68,-94.42"/>
<polygon fill="#63b8ff" stroke="#63b8ff" points="590.86,-137.1 581.19,-141.45 591.45,-144.08 590.86,-137.1"/>
</a>
</g>
</g>
<!-- Node6 -->
<g id="Node000006" class="node">
<title>Node6</title>
<g id="a_Node000006"><a xlink:href="soc_8cpp.html" target="_top" xlink:title=" ">
<polygon fill="white" stroke="#666666" points="507,-24.5 412,-24.5 412,-5.5 507,-5.5 507,-24.5"/>
<text text-anchor="middle" x="459.5" y="-12.5" font-family="Helvetica,sans-Serif" font-size="10.00">src/core/soc.cpp</text>
</a>
</g>
</g>
<!-- Node5&#45;&gt;Node6 -->
<g id="edge5_Node000005_Node000006" class="edge">
<title>Node5&#45;&gt;Node6</title>
<g id="a_edge5_Node000005_Node000006"><a xlink:title=" ">
<path fill="none" stroke="#63b8ff" d="M459.5,-61.08C459.5,-49.13 459.5,-34.22 459.5,-24.91"/>
<polygon fill="#63b8ff" stroke="#63b8ff" points="456,-61.37 459.5,-71.37 463,-61.37 456,-61.37"/>
</a>
</g>
</g>
<!-- Node7 -->
<g id="Node000007" class="node">
<title>Node7</title>
<g id="a_Node000007"><a xlink:href="gui_8cpp.html" target="_top" xlink:title="This file implements the main GUI entry function that takes care of creating and rendering all window...">
<polygon fill="white" stroke="#666666" points="920,-24.5 833,-24.5 833,-5.5 920,-5.5 920,-24.5"/>
<text text-anchor="middle" x="876.5" y="-12.5" font-family="Helvetica,sans-Serif" font-size="10.00">src/gui/gui.cpp</text>
</a>
</g>
</g>
<!-- Node5&#45;&gt;Node7 -->
<g id="edge6_Node000005_Node000007" class="edge">
<title>Node5&#45;&gt;Node7</title>
<g id="a_edge6_Node000005_Node000007"><a xlink:title=" ">
<path fill="none" stroke="#63b8ff" d="M500.75,-69.05C505.7,-67.93 510.7,-66.88 515.5,-66 651.08,-41.24 688.09,-55.66 823.5,-30 831.26,-28.53 839.56,-26.54 847.23,-24.52"/>
<polygon fill="#63b8ff" stroke="#63b8ff" points="499.66,-65.71 490.74,-71.44 501.28,-72.52 499.66,-65.71"/>
</a>
</g>
</g>
<!-- Node8 -->
<g id="Node000008" class="node">
<title>Node8</title>
<g id="a_Node000008"><a xlink:href="main_8cpp.html" target="_top" xlink:title="This file defines and implements the main function of the application.">
<polygon fill="white" stroke="#666666" points="394,-24.5 315,-24.5 315,-5.5 394,-5.5 394,-24.5"/>
<text text-anchor="middle" x="354.5" y="-12.5" font-family="Helvetica,sans-Serif" font-size="10.00">src/main.cpp</text>
</a>
</g>
</g>
<!-- Node5&#45;&gt;Node8 -->
<g id="edge7_Node000005_Node000008" class="edge">
<title>Node5&#45;&gt;Node8</title>
<g id="a_edge7_Node000005_Node000008"><a xlink:title=" ">
<path fill="none" stroke="#63b8ff" d="M436.56,-66.02C415.91,-53.43 386.2,-35.32 368.77,-24.7"/>
<polygon fill="#63b8ff" stroke="#63b8ff" points="434.98,-69.15 445.34,-71.37 438.62,-63.18 434.98,-69.15"/>
</a>
</g>
</g>
<!-- Node9&#45;&gt;Node7 -->
<g id="edge9_Node000009_Node000007" class="edge">
<title>Node9&#45;&gt;Node7</title>
<g id="a_edge9_Node000009_Node000007"><a xlink:title=" ">
<path fill="none" stroke="#63b8ff" d="M666.05,-64.72C711.75,-55.25 771.11,-42.53 823.5,-30 830.53,-28.32 838.06,-26.4 845.17,-24.54"/>
<polygon fill="#63b8ff" stroke="#63b8ff" points="665.3,-61.3 656.22,-66.75 666.72,-68.16 665.3,-61.3"/>
</a>
</g>
</g>
<!-- Node10 -->
<g id="Node000010" class="node">
<title>Node10</title>
<g id="a_Node000010"><a xlink:href="control__window_8cpp.html" target="_top" xlink:title="This file implements a window that allows the user to control CPU execution.">
<polygon fill="white" stroke="#666666" points="656,-30 525,-30 525,0 656,0 656,-30"/>
<text text-anchor="start" x="533" y="-18" font-family="Helvetica,sans-Serif" font-size="10.00">src/gui/windows/control</text>
<text text-anchor="middle" x="590.5" y="-7" font-family="Helvetica,sans-Serif" font-size="10.00">_window.cpp</text>
</a>
</g>
</g>
<!-- Node9&#45;&gt;Node10 -->
<g id="edge10_Node000009_Node000010" class="edge">
<title>Node9&#45;&gt;Node10</title>
<g id="a_edge10_Node000009_Node000010"><a xlink:title=" ">
<path fill="none" stroke="#63b8ff" d="M590.5,-55.54C590.5,-46.96 590.5,-37.61 590.5,-30.16"/>
<polygon fill="#63b8ff" stroke="#63b8ff" points="587,-55.8 590.5,-65.8 594,-55.8 587,-55.8"/>
</a>
</g>
</g>
<!-- Node11&#45;&gt;Node7 -->
<g id="edge12_Node000011_Node000007" class="edge">
<title>Node11&#45;&gt;Node7</title>
<g id="a_edge12_Node000011_Node000007"><a xlink:title=" ">
<path fill="none" stroke="#63b8ff" d="M782.74,-61.46C807.88,-49.27 839.58,-33.9 858.93,-24.52"/>
<polygon fill="#63b8ff" stroke="#63b8ff" points="780.94,-58.44 773.47,-65.95 783.99,-64.74 780.94,-58.44"/>
</a>
</g>
</g>
<!-- Node12 -->
<g id="Node000012" class="node">
<title>Node12</title>
<g id="a_Node000012"><a xlink:href="registers__window_8cpp.html" target="_top" xlink:title="This file implements a window that displays the contents of all CPU registers.">
<polygon fill="white" stroke="#666666" points="814.5,-30 674.5,-30 674.5,0 814.5,0 814.5,-30"/>
<text text-anchor="start" x="682.5" y="-18" font-family="Helvetica,sans-Serif" font-size="10.00">src/gui/windows/registers</text>
<text text-anchor="middle" x="744.5" y="-7" font-family="Helvetica,sans-Serif" font-size="10.00">_window.cpp</text>
</a>
</g>
</g>
<!-- Node11&#45;&gt;Node12 -->
<g id="edge13_Node000011_Node000012" class="edge">
<title>Node11&#45;&gt;Node12</title>
<g id="a_edge13_Node000011_Node000012"><a xlink:title=" ">
<path fill="none" stroke="#63b8ff" d="M744.5,-55.54C744.5,-46.96 744.5,-37.61 744.5,-30.16"/>
<polygon fill="#63b8ff" stroke="#63b8ff" points="741,-55.8 744.5,-65.8 748,-55.8 741,-55.8"/>
</a>
</g>
</g>
<!-- Node13&#45;&gt;Node7 -->
<g id="edge15_Node000013_Node000007" class="edge">
<title>Node13&#45;&gt;Node7</title>
<g id="a_edge15_Node000013_Node000007"><a xlink:title=" ">
<path fill="none" stroke="#63b8ff" d="M889.72,-56.28C886.12,-45.31 882.06,-32.94 879.4,-24.84"/>
<polygon fill="#63b8ff" stroke="#63b8ff" points="886.4,-57.39 892.84,-65.8 893.05,-55.2 886.4,-57.39"/>
</a>
</g>
</g>
<!-- Node14 -->
<g id="Node000014" class="node">
<title>Node14</title>
<g id="a_Node000014"><a xlink:href="source__code__window_8cpp.html" target="_top" xlink:title="This file implements a window that displays loaded ELF files (disassembled instructions of the source...">
<polygon fill="white" stroke="#666666" points="1068.5,-30 938.5,-30 938.5,0 1068.5,0 1068.5,-30"/>
<text text-anchor="start" x="946.5" y="-18" font-family="Helvetica,sans-Serif" font-size="10.00">src/gui/windows/source</text>
<text text-anchor="middle" x="1003.5" y="-7" font-family="Helvetica,sans-Serif" font-size="10.00">_code_window.cpp</text>
</a>
</g>
</g>
<!-- Node13&#45;&gt;Node14 -->
<g id="edge16_Node000013_Node000014" class="edge">
<title>Node13&#45;&gt;Node14</title>
<g id="a_edge16_Node000013_Node000014"><a xlink:title=" ">
<path fill="none" stroke="#63b8ff" d="M929.47,-60.69C945.84,-50.82 965.39,-39.01 980.29,-30.01"/>
<polygon fill="#63b8ff" stroke="#63b8ff" points="927.51,-57.79 920.76,-65.95 931.13,-63.78 927.51,-57.79"/>
</a>
</g>
</g>
<!-- Node15&#45;&gt;Node7 -->
<g id="edge18_Node000015_Node000007" class="edge">
<title>Node15&#45;&gt;Node7</title>
<g id="a_edge18_Node000015_Node000007"><a xlink:title=" ">
<path fill="none" stroke="#63b8ff" d="M992.87,-62.26C961.91,-49.95 922.05,-34.11 897.93,-24.52"/>
<polygon fill="#63b8ff" stroke="#63b8ff" points="991.58,-65.51 1002.17,-65.95 994.17,-59.01 991.58,-65.51"/>
</a>
</g>
</g>
<!-- Node16 -->
<g id="Node000016" class="node">
<title>Node16</title>
<g id="a_Node000016"><a xlink:href="top__bar__menu_8cpp.html" target="_top" xlink:title=" ">
<polygon fill="white" stroke="#666666" points="1200,-30 1087,-30 1087,0 1200,0 1200,-30"/>
<text text-anchor="start" x="1095" y="-18" font-family="Helvetica,sans-Serif" font-size="10.00">src/gui/windows/top</text>
<text text-anchor="middle" x="1143.5" y="-7" font-family="Helvetica,sans-Serif" font-size="10.00">_bar_menu.cpp</text>
</a>
</g>
</g>
<!-- Node15&#45;&gt;Node16 -->
<g id="edge19_Node000015_Node000016" class="edge">
<title>Node15&#45;&gt;Node16</title>
<g id="a_edge19_Node000015_Node000016"><a xlink:title=" ">
<path fill="none" stroke="#63b8ff" d="M1069.47,-60.69C1085.84,-50.82 1105.39,-39.01 1120.29,-30.01"/>
<polygon fill="#63b8ff" stroke="#63b8ff" points="1067.51,-57.79 1060.76,-65.95 1071.13,-63.78 1067.51,-57.79"/>
</a>
</g>
</g>
</g>
</svg>
