<?xml version="1.0" encoding="UTF-8" standalone="no"?>
<!DOCTYPE svg PUBLIC "-//W3C//DTD SVG 1.1//EN"
 "http://www.w3.org/Graphics/SVG/1.1/DTD/svg11.dtd">
<!-- Generated by graphviz version 2.43.0 (0)
 -->
<!-- Title: src/gui/windows/cp10_window.cpp Pages: 1 -->
<svg width="1483pt" height="544pt"
 viewBox="0.00 0.00 1482.62 544.00" xmlns="http://www.w3.org/2000/svg" xmlns:xlink="http://www.w3.org/1999/xlink">
<g id="graph0" class="graph" transform="scale(1 1) rotate(0) translate(4 540)">
<title>src/gui/windows/cp10_window.cpp</title>
<!-- Node1 -->
<g id="Node000001" class="node">
<title>Node1</title>
<g id="a_Node000001"><a xlink:title="This file implements a window that displays data (information) related to coprocessor 10 (FPU).">
<polygon fill="#999999" stroke="#666666" points="522,-536 401,-536 401,-506 522,-506 522,-536"/>
<text text-anchor="start" x="409" y="-524" font-family="Helvetica,sans-Serif" font-size="10.00">src/gui/windows/cp10</text>
<text text-anchor="middle" x="461.5" y="-513" font-family="Helvetica,sans-Serif" font-size="10.00">_window.cpp</text>
</a>
</g>
</g>
<!-- Node2 -->
<g id="Node000002" class="node">
<title>Node2</title>
<g id="a_Node000002"><a xlink:href="cp10__window_8hpp.html" target="_top" xlink:title="This file defines a window that displays data (information) related to coprocessor 10 (FPU).">
<polygon fill="white" stroke="#666666" points="513,-470 410,-470 410,-451 513,-451 513,-470"/>
<text text-anchor="middle" x="461.5" y="-458" font-family="Helvetica,sans-Serif" font-size="10.00">cp10_window.hpp</text>
</a>
</g>
</g>
<!-- Node1&#45;&gt;Node2 -->
<g id="edge1_Node000001_Node000002" class="edge">
<title>Node1&#45;&gt;Node2</title>
<g id="a_edge1_Node000001_Node000002"><a xlink:title=" ">
<path fill="none" stroke="#63b8ff" d="M461.5,-505.84C461.5,-498.21 461.5,-488.7 461.5,-480.45"/>
<polygon fill="#63b8ff" stroke="#63b8ff" points="465,-480.27 461.5,-470.27 458,-480.27 465,-480.27"/>
</a>
</g>
</g>
<!-- Node3 -->
<g id="Node000003" class="node">
<title>Node3</title>
<g id="a_Node000003"><a xlink:href="window_8hpp.html" target="_top" xlink:title="This file defines an interface for all windows that will be rendered by the application.">
<polygon fill="white" stroke="#666666" points="443,-409.5 360,-409.5 360,-390.5 443,-390.5 443,-409.5"/>
<text text-anchor="middle" x="401.5" y="-397.5" font-family="Helvetica,sans-Serif" font-size="10.00">../window.hpp</text>
</a>
</g>
</g>
<!-- Node2&#45;&gt;Node3 -->
<g id="edge2_Node000002_Node000003" class="edge">
<title>Node2&#45;&gt;Node3</title>
<g id="a_edge2_Node000002_Node000003"><a xlink:title=" ">
<path fill="none" stroke="#63b8ff" d="M452.65,-450.87C443.52,-441.97 429.08,-427.89 417.86,-416.95"/>
<polygon fill="#63b8ff" stroke="#63b8ff" points="419.99,-414.14 410.39,-409.67 415.11,-419.15 419.99,-414.14"/>
</a>
</g>
</g>
<!-- Node5 -->
<g id="Node000005" class="node">
<title>Node5</title>
<g id="a_Node000005"><a xlink:href="cp10_8hpp.html" target="_top" xlink:title="This file defines coprocessor CP10 (single&#45;precision FPU).">
<polygon fill="white" stroke="#666666" points="817.5,-415 695.5,-415 695.5,-385 817.5,-385 817.5,-415"/>
<text text-anchor="start" x="703.5" y="-403" font-family="Helvetica,sans-Serif" font-size="10.00">../../core/coprocessors</text>
<text text-anchor="middle" x="756.5" y="-392" font-family="Helvetica,sans-Serif" font-size="10.00">/cp10/cp10.hpp</text>
</a>
</g>
</g>
<!-- Node2&#45;&gt;Node5 -->
<g id="edge4_Node000002_Node000005" class="edge">
<title>Node2&#45;&gt;Node5</title>
<g id="a_edge4_Node000002_Node000005"><a xlink:title=" ">
<path fill="none" stroke="#63b8ff" d="M504.4,-450.99C551.81,-441.59 628.92,-426.3 685.4,-415.1"/>
<polygon fill="#63b8ff" stroke="#63b8ff" points="686.21,-418.51 695.34,-413.13 684.85,-411.64 686.21,-418.51"/>
</a>
</g>
</g>
<!-- Node4 -->
<g id="Node000004" class="node">
<title>Node4</title>
<g id="a_Node000004"><a xlink:title=" ">
<polygon fill="#e0e0e0" stroke="#999999" points="209.5,-343.5 125.5,-343.5 125.5,-324.5 209.5,-324.5 209.5,-343.5"/>
<text text-anchor="middle" x="167.5" y="-331.5" font-family="Helvetica,sans-Serif" font-size="10.00">imgui/imgui.h</text>
</a>
</g>
</g>
<!-- Node3&#45;&gt;Node4 -->
<g id="edge3_Node000003_Node000004" class="edge">
<title>Node3&#45;&gt;Node4</title>
<g id="a_edge3_Node000003_Node000004"><a xlink:title=" ">
<path fill="none" stroke="#63b8ff" d="M370.09,-390.43C333.63,-380.48 271.71,-363.57 218.5,-349 215.17,-348.09 211.71,-347.14 208.24,-346.19"/>
<polygon fill="#63b8ff" stroke="#63b8ff" points="209.08,-342.79 198.51,-343.52 207.23,-349.54 209.08,-342.79"/>
</a>
</g>
</g>
<!-- Node6 -->
<g id="Node000006" class="node">
<title>Node6</title>
<g id="a_Node000006"><a xlink:href="fpexc_8hpp.html" target="_top" xlink:title="This file defines the FPEXC register of coprocessor CP10.">
<polygon fill="white" stroke="#666666" points="1090,-343.5 1025,-343.5 1025,-324.5 1090,-324.5 1090,-343.5"/>
<text text-anchor="middle" x="1057.5" y="-331.5" font-family="Helvetica,sans-Serif" font-size="10.00">fpexc.hpp</text>
</a>
</g>
</g>
<!-- Node5&#45;&gt;Node6 -->
<g id="edge5_Node000005_Node000006" class="edge">
<title>Node5&#45;&gt;Node6</title>
<g id="a_edge5_Node000005_Node000006"><a xlink:title=" ">
<path fill="none" stroke="#63b8ff" d="M817.72,-389.7C870.75,-381.05 949.3,-366.84 1016.5,-349 1019.14,-348.3 1021.85,-347.52 1024.56,-346.69"/>
<polygon fill="#63b8ff" stroke="#63b8ff" points="1025.81,-349.96 1034.26,-343.56 1023.66,-343.3 1025.81,-349.96"/>
</a>
</g>
</g>
<!-- Node7 -->
<g id="Node000007" class="node">
<title>Node7</title>
<g id="a_Node000007"><a xlink:href="fpscr_8hpp.html" target="_top" xlink:title="This file defines the FPSCR register of coprocessor CP10.">
<polygon fill="white" stroke="#666666" points="1169,-343.5 1108,-343.5 1108,-324.5 1169,-324.5 1169,-343.5"/>
<text text-anchor="middle" x="1138.5" y="-331.5" font-family="Helvetica,sans-Serif" font-size="10.00">fpscr.hpp</text>
</a>
</g>
</g>
<!-- Node5&#45;&gt;Node7 -->
<g id="edge6_Node000005_Node000007" class="edge">
<title>Node5&#45;&gt;Node7</title>
<g id="a_edge6_Node000005_Node000007"><a xlink:title=" ">
<path fill="none" stroke="#63b8ff" d="M817.62,-393.81C886.78,-387.08 1002.43,-373.24 1099.5,-349 1102,-348.37 1104.57,-347.65 1107.14,-346.87"/>
<polygon fill="#63b8ff" stroke="#63b8ff" points="1108.49,-350.11 1116.87,-343.63 1106.28,-343.46 1108.49,-350.11"/>
</a>
</g>
</g>
<!-- Node8 -->
<g id="Node000008" class="node">
<title>Node8</title>
<g id="a_Node000008"><a xlink:href="register_8hpp.html" target="_top" xlink:title="This file defines a custom single&#45;precision floating point register.">
<polygon fill="white" stroke="#666666" points="301.5,-343.5 227.5,-343.5 227.5,-324.5 301.5,-324.5 301.5,-343.5"/>
<text text-anchor="middle" x="264.5" y="-331.5" font-family="Helvetica,sans-Serif" font-size="10.00">register.hpp</text>
</a>
</g>
</g>
<!-- Node5&#45;&gt;Node8 -->
<g id="edge7_Node000005_Node000008" class="edge">
<title>Node5&#45;&gt;Node8</title>
<g id="a_edge7_Node000005_Node000008"><a xlink:title=" ">
<path fill="none" stroke="#63b8ff" d="M695.35,-395.71C608.89,-390.26 446.33,-377.03 310.5,-349 306.85,-348.25 303.08,-347.33 299.33,-346.33"/>
<polygon fill="#63b8ff" stroke="#63b8ff" points="300.17,-342.93 289.59,-343.55 298.24,-349.66 300.17,-342.93"/>
</a>
</g>
</g>
<!-- Node9 -->
<g id="Node000009" class="node">
<title>Node9</title>
<g id="a_Node000009"><a xlink:href="coprocessors_2cp10_2isa_2isa_8hpp.html" target="_top" xlink:title="This file combines different instruction type includes together.">
<polygon fill="white" stroke="#666666" points="389,-343.5 320,-343.5 320,-324.5 389,-324.5 389,-343.5"/>
<text text-anchor="middle" x="354.5" y="-331.5" font-family="Helvetica,sans-Serif" font-size="10.00">isa/isa.hpp</text>
</a>
</g>
</g>
<!-- Node5&#45;&gt;Node9 -->
<g id="edge8_Node000005_Node000009" class="edge">
<title>Node5&#45;&gt;Node9</title>
<g id="a_edge8_Node000005_Node000009"><a xlink:title=" ">
<path fill="none" stroke="#63b8ff" d="M695.44,-393.65C623.72,-386.63 501.46,-372.39 398.5,-349 395.3,-348.27 391.99,-347.42 388.69,-346.5"/>
<polygon fill="#63b8ff" stroke="#63b8ff" points="389.55,-343.1 378.97,-343.59 387.55,-349.81 389.55,-343.1"/>
</a>
</g>
</g>
<!-- Node15 -->
<g id="Node000015" class="node">
<title>Node15</title>
<g id="a_Node000015"><a xlink:href="cp__data__processing__inst_8hpp.html" target="_top" xlink:title="This file defines a general CP10 data processing instruction.">
<polygon fill="white" stroke="#666666" points="821.5,-349 691.5,-349 691.5,-319 821.5,-319 821.5,-349"/>
<text text-anchor="start" x="699.5" y="-337" font-family="Helvetica,sans-Serif" font-size="10.00">isa/cp_data_processing</text>
<text text-anchor="middle" x="756.5" y="-326" font-family="Helvetica,sans-Serif" font-size="10.00">_inst.hpp</text>
</a>
</g>
</g>
<!-- Node5&#45;&gt;Node15 -->
<g id="edge14_Node000005_Node000015" class="edge">
<title>Node5&#45;&gt;Node15</title>
<g id="a_edge14_Node000005_Node000015"><a xlink:title=" ">
<path fill="none" stroke="#63b8ff" d="M756.5,-384.8C756.5,-377.34 756.5,-367.99 756.5,-359.41"/>
<polygon fill="#63b8ff" stroke="#63b8ff" points="760,-359.16 756.5,-349.16 753,-359.16 760,-359.16"/>
</a>
</g>
</g>
<!-- Node17 -->
<g id="Node000017" class="node">
<title>Node17</title>
<g id="a_Node000017"><a xlink:href="cp__data__transfer__inst_8hpp.html" target="_top" xlink:title="This file defines a general CP10 data transfer instruction (load and store).">
<polygon fill="white" stroke="#666666" points="523.5,-349 407.5,-349 407.5,-319 523.5,-319 523.5,-349"/>
<text text-anchor="start" x="415.5" y="-337" font-family="Helvetica,sans-Serif" font-size="10.00">isa/cp_data_transfer</text>
<text text-anchor="middle" x="465.5" y="-326" font-family="Helvetica,sans-Serif" font-size="10.00">_inst.hpp</text>
</a>
</g>
</g>
<!-- Node5&#45;&gt;Node17 -->
<g id="edge16_Node000005_Node000017" class="edge">
<title>Node5&#45;&gt;Node17</title>
<g id="a_edge16_Node000005_Node000017"><a xlink:title=" ">
<path fill="none" stroke="#63b8ff" d="M695.5,-385.58C648.25,-375.19 582.82,-360.8 533.82,-350.03"/>
<polygon fill="#63b8ff" stroke="#63b8ff" points="534.46,-346.58 523.94,-347.85 532.96,-353.42 534.46,-346.58"/>
</a>
</g>
</g>
<!-- Node18 -->
<g id="Node000018" class="node">
<title>Node18</title>
<g id="a_Node000018"><a xlink:href="cp__register__transfer__inst_8hpp.html" target="_top" xlink:title="This file defines a general CP10 register transfer instruction.">
<polygon fill="white" stroke="#666666" points="673,-349 542,-349 542,-319 673,-319 673,-349"/>
<text text-anchor="start" x="550" y="-337" font-family="Helvetica,sans-Serif" font-size="10.00">isa/cp_register_transfer</text>
<text text-anchor="middle" x="607.5" y="-326" font-family="Helvetica,sans-Serif" font-size="10.00">_inst.hpp</text>
</a>
</g>
</g>
<!-- Node5&#45;&gt;Node18 -->
<g id="edge18_Node000005_Node000018" class="edge">
<title>Node5&#45;&gt;Node18</title>
<g id="a_edge18_Node000005_Node000018"><a xlink:title=" ">
<path fill="none" stroke="#63b8ff" d="M723.8,-384.95C701.97,-375.58 673.05,-363.16 649.51,-353.05"/>
<polygon fill="#63b8ff" stroke="#63b8ff" points="650.69,-349.74 640.12,-349.01 647.93,-356.17 650.69,-349.74"/>
</a>
</g>
</g>
<!-- Node19 -->
<g id="Node000019" class="node">
<title>Node19</title>
<g id="a_Node000019"><a xlink:href="logging__system_8hpp.html" target="_top" xlink:title="This file defines a logging system that is used in the project.">
<polygon fill="white" stroke="#666666" points="1179,-85 1048,-85 1048,-55 1179,-55 1179,-85"/>
<text text-anchor="start" x="1056" y="-73" font-family="Helvetica,sans-Serif" font-size="10.00">zero_mate/utils/logging</text>
<text text-anchor="middle" x="1113.5" y="-62" font-family="Helvetica,sans-Serif" font-size="10.00">_system.hpp</text>
</a>
</g>
</g>
<!-- Node5&#45;&gt;Node19 -->
<g id="edge20_Node000005_Node000019" class="edge">
<title>Node5&#45;&gt;Node19</title>
<g id="a_edge20_Node000005_Node000019"><a xlink:title=" ">
<path fill="none" stroke="#63b8ff" d="M793.85,-384.83C812.43,-376.45 834.32,-364.44 850.5,-349 886.4,-314.75 872.63,-288.31 907.5,-253 962.03,-197.79 1001.32,-216.56 1056.5,-162 1076.57,-142.15 1092.84,-113.95 1102.78,-94.22"/>
<polygon fill="#63b8ff" stroke="#63b8ff" points="1106.03,-95.54 1107.27,-85.02 1099.74,-92.47 1106.03,-95.54"/>
</a>
</g>
</g>
<!-- Node21 -->
<g id="Node000021" class="node">
<title>Node21</title>
<g id="a_Node000021"><a xlink:href="coprocessor_8hpp.html" target="_top" xlink:title="This file defines a general interface of a coprocessor.">
<polygon fill="white" stroke="#666666" points="901.5,-217 797.5,-217 797.5,-198 901.5,-198 901.5,-217"/>
<text text-anchor="middle" x="849.5" y="-205" font-family="Helvetica,sans-Serif" font-size="10.00">../coprocessor.hpp</text>
</a>
</g>
</g>
<!-- Node5&#45;&gt;Node21 -->
<g id="edge22_Node000005_Node000021" class="edge">
<title>Node5&#45;&gt;Node21</title>
<g id="a_edge22_Node000005_Node000021"><a xlink:title=" ">
<path fill="none" stroke="#63b8ff" d="M789.04,-384.84C804.1,-376.58 820.77,-364.68 830.5,-349 854.12,-310.95 853.76,-256.02 851.58,-227.42"/>
<polygon fill="#63b8ff" stroke="#63b8ff" points="855.04,-226.85 850.63,-217.21 848.07,-227.49 855.04,-226.85"/>
</a>
</g>
</g>
<!-- Node27 -->
<g id="Node000027" class="node">
<title>Node27</title>
<g id="a_Node000027"><a xlink:href="bus_8hpp.html" target="_top" xlink:title="This file defines an interface the CPU uses to access different memory&#45;mapped peripherals.">
<polygon fill="white" stroke="#666666" points="1007,-343.5 934,-343.5 934,-324.5 1007,-324.5 1007,-343.5"/>
<text text-anchor="middle" x="970.5" y="-331.5" font-family="Helvetica,sans-Serif" font-size="10.00">../../bus.hpp</text>
</a>
</g>
</g>
<!-- Node5&#45;&gt;Node27 -->
<g id="edge31_Node000005_Node000027" class="edge">
<title>Node5&#45;&gt;Node27</title>
<g id="a_edge31_Node000005_Node000027"><a xlink:title=" ">
<path fill="none" stroke="#63b8ff" d="M803.46,-384.95C842.15,-373.38 896.32,-357.18 932.36,-346.41"/>
<polygon fill="#63b8ff" stroke="#63b8ff" points="933.44,-349.74 942.02,-343.52 931.44,-343.03 933.44,-349.74"/>
</a>
</g>
</g>
<!-- Node10 -->
<g id="Node000010" class="node">
<title>Node10</title>
<g id="a_Node000010"><a xlink:href="vmsr_8hpp.html" target="_top" xlink:title="This file defines a VMSR instruction (ARM register to a special FPU register).">
<polygon fill="white" stroke="#666666" points="481.5,-277.5 419.5,-277.5 419.5,-258.5 481.5,-258.5 481.5,-277.5"/>
<text text-anchor="middle" x="450.5" y="-265.5" font-family="Helvetica,sans-Serif" font-size="10.00">vmsr.hpp</text>
</a>
</g>
</g>
<!-- Node9&#45;&gt;Node10 -->
<g id="edge9_Node000009_Node000010" class="edge">
<title>Node9&#45;&gt;Node10</title>
<g id="a_edge9_Node000009_Node000010"><a xlink:title=" ">
<path fill="none" stroke="#63b8ff" d="M367.45,-324.37C383.19,-313.87 410,-296 428.9,-283.4"/>
<polygon fill="#63b8ff" stroke="#63b8ff" points="431.07,-286.16 437.45,-277.7 427.19,-280.33 431.07,-286.16"/>
</a>
</g>
</g>
<!-- Node11 -->
<g id="Node000011" class="node">
<title>Node11</title>
<g id="a_Node000011"><a xlink:href="vmrs_8hpp.html" target="_top" xlink:title="This file defines a VMRS instruction (FPU special register to an ARM register).">
<polygon fill="white" stroke="#666666" points="561.5,-277.5 499.5,-277.5 499.5,-258.5 561.5,-258.5 561.5,-277.5"/>
<text text-anchor="middle" x="530.5" y="-265.5" font-family="Helvetica,sans-Serif" font-size="10.00">vmrs.hpp</text>
</a>
</g>
</g>
<!-- Node9&#45;&gt;Node11 -->
<g id="edge10_Node000009_Node000011" class="edge">
<title>Node9&#45;&gt;Node11</title>
<g id="a_edge10_Node000009_Node000011"><a xlink:title=" ">
<path fill="none" stroke="#63b8ff" d="M378.24,-324.37C408.89,-313.22 462.43,-293.75 497.16,-281.12"/>
<polygon fill="#63b8ff" stroke="#63b8ff" points="498.66,-284.3 506.86,-277.6 496.27,-277.72 498.66,-284.3"/>
</a>
</g>
</g>
<!-- Node12 -->
<g id="Node000012" class="node">
<title>Node12</title>
<g id="a_Node000012"><a xlink:href="coprocessors_2cp10_2isa_2data__processing_8hpp.html" target="_top" xlink:title="This file defines a data processing instruction.">
<polygon fill="white" stroke="#666666" points="117,-277.5 0,-277.5 0,-258.5 117,-258.5 117,-277.5"/>
<text text-anchor="middle" x="58.5" y="-265.5" font-family="Helvetica,sans-Serif" font-size="10.00">data_processing.hpp</text>
</a>
</g>
</g>
<!-- Node9&#45;&gt;Node12 -->
<g id="edge11_Node000009_Node000012" class="edge">
<title>Node9&#45;&gt;Node12</title>
<g id="a_edge11_Node000009_Node000012"><a xlink:title=" ">
<path fill="none" stroke="#63b8ff" d="M329.05,-324.36C323.01,-322.46 316.56,-320.55 310.5,-319 229.78,-298.33 208.2,-299.4 126.5,-283 121.03,-281.9 115.32,-280.74 109.64,-279.58"/>
<polygon fill="#63b8ff" stroke="#63b8ff" points="109.98,-276.08 99.48,-277.5 108.57,-282.94 109.98,-276.08"/>
</a>
</g>
</g>
<!-- Node13 -->
<g id="Node000013" class="node">
<title>Node13</title>
<g id="a_Node000013"><a xlink:href="data__transfer_8hpp.html" target="_top" xlink:title="This file defines a data transfer instruction.">
<polygon fill="white" stroke="#666666" points="237.5,-277.5 135.5,-277.5 135.5,-258.5 237.5,-258.5 237.5,-277.5"/>
<text text-anchor="middle" x="186.5" y="-265.5" font-family="Helvetica,sans-Serif" font-size="10.00">data_transfer.hpp</text>
</a>
</g>
</g>
<!-- Node9&#45;&gt;Node13 -->
<g id="edge12_Node000009_Node000013" class="edge">
<title>Node9&#45;&gt;Node13</title>
<g id="a_edge12_Node000009_Node000013"><a xlink:title=" ">
<path fill="none" stroke="#63b8ff" d="M331.84,-324.37C302.7,-313.27 251.91,-293.92 218.75,-281.28"/>
<polygon fill="#63b8ff" stroke="#63b8ff" points="219.66,-277.89 209.07,-277.6 217.16,-284.43 219.66,-277.89"/>
</a>
</g>
</g>
<!-- Node14 -->
<g id="Node000014" class="node">
<title>Node14</title>
<g id="a_Node000014"><a xlink:href="vmov__arm__register__single__precision__register_8hpp.html" target="_top" xlink:title="This file defines a VMOV instruction between an ARM register and an FPU register.">
<polygon fill="white" stroke="#666666" points="401.5,-283 255.5,-283 255.5,-253 401.5,-253 401.5,-283"/>
<text text-anchor="start" x="263.5" y="-271" font-family="Helvetica,sans-Serif" font-size="10.00">vmov_arm_register_single</text>
<text text-anchor="middle" x="328.5" y="-260" font-family="Helvetica,sans-Serif" font-size="10.00">_precision_register.hpp</text>
</a>
</g>
</g>
<!-- Node9&#45;&gt;Node14 -->
<g id="edge13_Node000009_Node000014" class="edge">
<title>Node9&#45;&gt;Node14</title>
<g id="a_edge13_Node000009_Node000014"><a xlink:title=" ">
<path fill="none" stroke="#63b8ff" d="M350.99,-324.37C347.72,-316.32 342.7,-303.94 338.22,-292.93"/>
<polygon fill="#63b8ff" stroke="#63b8ff" points="341.34,-291.31 334.33,-283.36 334.86,-293.94 341.34,-291.31"/>
</a>
</g>
</g>
<!-- Node16 -->
<g id="Node000016" class="node">
<title>Node16</title>
<g id="a_Node000016"><a xlink:href="cp__instruction_8hpp.html" target="_top" xlink:title="This file defines a general CP10 instruction.">
<polygon fill="white" stroke="#666666" points="685.5,-277.5 579.5,-277.5 579.5,-258.5 685.5,-258.5 685.5,-277.5"/>
<text text-anchor="middle" x="632.5" y="-265.5" font-family="Helvetica,sans-Serif" font-size="10.00">cp_instruction.hpp</text>
</a>
</g>
</g>
<!-- Node15&#45;&gt;Node16 -->
<g id="edge15_Node000015_Node000016" class="edge">
<title>Node15&#45;&gt;Node16</title>
<g id="a_edge15_Node000015_Node000016"><a xlink:title=" ">
<path fill="none" stroke="#63b8ff" d="M729.29,-318.95C708.02,-307.98 678.68,-292.83 657.89,-282.11"/>
<polygon fill="#63b8ff" stroke="#63b8ff" points="659.49,-278.99 649,-277.52 656.28,-285.21 659.49,-278.99"/>
</a>
</g>
</g>
<!-- Node17&#45;&gt;Node16 -->
<g id="edge17_Node000017_Node000016" class="edge">
<title>Node17&#45;&gt;Node16</title>
<g id="a_edge17_Node000017_Node000016"><a xlink:title=" ">
<path fill="none" stroke="#63b8ff" d="M502.15,-318.95C531.69,-307.63 572.81,-291.88 600.92,-281.1"/>
<polygon fill="#63b8ff" stroke="#63b8ff" points="602.19,-284.36 610.28,-277.52 599.68,-277.83 602.19,-284.36"/>
</a>
</g>
</g>
<!-- Node18&#45;&gt;Node16 -->
<g id="edge19_Node000018_Node000016" class="edge">
<title>Node18&#45;&gt;Node16</title>
<g id="a_edge19_Node000018_Node000016"><a xlink:title=" ">
<path fill="none" stroke="#63b8ff" d="M613.05,-318.8C616.68,-309.5 621.46,-297.27 625.37,-287.26"/>
<polygon fill="#63b8ff" stroke="#63b8ff" points="628.67,-288.43 629.05,-277.84 622.15,-285.89 628.67,-288.43"/>
</a>
</g>
</g>
<!-- Node20 -->
<g id="Node000020" class="node">
<title>Node20</title>
<g id="a_Node000020"><a xlink:href="logger_8hpp.html" target="_top" xlink:title="This file defines a general logger interface.">
<polygon fill="white" stroke="#666666" points="1147.5,-19 1079.5,-19 1079.5,0 1147.5,0 1147.5,-19"/>
<text text-anchor="middle" x="1113.5" y="-7" font-family="Helvetica,sans-Serif" font-size="10.00">logger.hpp</text>
</a>
</g>
</g>
<!-- Node19&#45;&gt;Node20 -->
<g id="edge21_Node000019_Node000020" class="edge">
<title>Node19&#45;&gt;Node20</title>
<g id="a_edge21_Node000019_Node000020"><a xlink:title=" ">
<path fill="none" stroke="#63b8ff" d="M1113.5,-54.84C1113.5,-47.21 1113.5,-37.7 1113.5,-29.45"/>
<polygon fill="#63b8ff" stroke="#63b8ff" points="1117,-29.27 1113.5,-19.27 1110,-29.27 1117,-29.27"/>
</a>
</g>
</g>
<!-- Node22 -->
<g id="Node000022" class="node">
<title>Node22</title>
<g id="a_Node000022"><a xlink:href="context_8hpp.html" target="_top" xlink:title="This file defines the context (registers) of the CPU.">
<polygon fill="white" stroke="#666666" points="1047.5,-151 895.5,-151 895.5,-132 1047.5,-132 1047.5,-151"/>
<text text-anchor="middle" x="971.5" y="-139" font-family="Helvetica,sans-Serif" font-size="10.00">../arm1176jzf_s/context.hpp</text>
</a>
</g>
</g>
<!-- Node21&#45;&gt;Node22 -->
<g id="edge23_Node000021_Node000022" class="edge">
<title>Node21&#45;&gt;Node22</title>
<g id="a_edge23_Node000021_Node000022"><a xlink:title=" ">
<path fill="none" stroke="#63b8ff" d="M865.95,-197.87C886.51,-187.09 921.9,-168.52 945.99,-155.88"/>
<polygon fill="#63b8ff" stroke="#63b8ff" points="947.69,-158.94 954.92,-151.2 944.44,-152.75 947.69,-158.94"/>
</a>
</g>
</g>
<!-- Node23 -->
<g id="Node000023" class="node">
<title>Node23</title>
<g id="a_Node000023"><a xlink:href="coprocessor__register__transfer_8hpp.html" target="_top" xlink:title="This file defines a coprocessor register transfer (MRC, MCR).">
<polygon fill="white" stroke="#666666" points="690,-162 569,-162 569,-121 690,-121 690,-162"/>
<text text-anchor="start" x="577" y="-150" font-family="Helvetica,sans-Serif" font-size="10.00">../arm1176jzf_s/isa</text>
<text text-anchor="start" x="577" y="-139" font-family="Helvetica,sans-Serif" font-size="10.00">/coprocessor_register</text>
<text text-anchor="middle" x="629.5" y="-128" font-family="Helvetica,sans-Serif" font-size="10.00">_transfer.hpp</text>
</a>
</g>
</g>
<!-- Node21&#45;&gt;Node23 -->
<g id="edge25_Node000021_Node000023" class="edge">
<title>Node21&#45;&gt;Node23</title>
<g id="a_edge25_Node000021_Node000023"><a xlink:title=" ">
<path fill="none" stroke="#63b8ff" d="M819.83,-197.87C789.27,-188.98 740.54,-174.8 700.03,-163.02"/>
<polygon fill="#63b8ff" stroke="#63b8ff" points="700.77,-159.59 690.19,-160.16 698.82,-166.31 700.77,-159.59"/>
</a>
</g>
</g>
<!-- Node25 -->
<g id="Node000025" class="node">
<title>Node25</title>
<g id="a_Node000025"><a xlink:href="coprocessor__data__transfer_8hpp.html" target="_top" xlink:title="This file defines a coprocessor data transfer (LDC, STC).">
<polygon fill="white" stroke="#666666" points="877,-156.5 708,-156.5 708,-126.5 877,-126.5 877,-156.5"/>
<text text-anchor="start" x="716" y="-144.5" font-family="Helvetica,sans-Serif" font-size="10.00">../arm1176jzf_s/isa</text>
<text text-anchor="middle" x="792.5" y="-133.5" font-family="Helvetica,sans-Serif" font-size="10.00">/coprocessor_data_transfer.hpp</text>
</a>
</g>
</g>
<!-- Node21&#45;&gt;Node25 -->
<g id="edge27_Node000021_Node000025" class="edge">
<title>Node21&#45;&gt;Node25</title>
<g id="a_edge27_Node000021_Node000025"><a xlink:title=" ">
<path fill="none" stroke="#63b8ff" d="M841.81,-197.87C834.21,-189.33 822.26,-175.91 812.02,-164.42"/>
<polygon fill="#63b8ff" stroke="#63b8ff" points="814.55,-162 805.29,-156.86 809.33,-166.66 814.55,-162"/>
</a>
</g>
</g>
<!-- Node26 -->
<g id="Node000026" class="node">
<title>Node26</title>
<g id="a_Node000026"><a xlink:href="coprocessor__data__operation_8hpp.html" target="_top" xlink:title="This file defines a coprocessor data operation (CDP).">
<polygon fill="white" stroke="#666666" points="551.5,-156.5 373.5,-156.5 373.5,-126.5 551.5,-126.5 551.5,-156.5"/>
<text text-anchor="start" x="381.5" y="-144.5" font-family="Helvetica,sans-Serif" font-size="10.00">../arm1176jzf_s/isa</text>
<text text-anchor="middle" x="462.5" y="-133.5" font-family="Helvetica,sans-Serif" font-size="10.00">/coprocessor_data_operation.hpp</text>
</a>
</g>
</g>
<!-- Node21&#45;&gt;Node26 -->
<g id="edge29_Node000021_Node000026" class="edge">
<title>Node21&#45;&gt;Node26</title>
<g id="a_edge29_Node000021_Node000026"><a xlink:title=" ">
<path fill="none" stroke="#63b8ff" d="M797.26,-199.22C739.1,-190.95 642.38,-176.68 559.5,-162 553.28,-160.9 546.85,-159.71 540.4,-158.49"/>
<polygon fill="#63b8ff" stroke="#63b8ff" points="540.74,-154.99 530.26,-156.54 539.42,-161.86 540.74,-154.99"/>
</a>
</g>
</g>
<!-- Node22&#45;&gt;Node19 -->
<g id="edge24_Node000022_Node000019" class="edge">
<title>Node22&#45;&gt;Node19</title>
<g id="a_edge24_Node000022_Node000019"><a xlink:title=" ">
<path fill="none" stroke="#63b8ff" d="M988.91,-131.98C1010.4,-121.46 1047.56,-103.28 1075.71,-89.49"/>
<polygon fill="#63b8ff" stroke="#63b8ff" points="1077.44,-92.55 1084.88,-85.01 1074.36,-86.26 1077.44,-92.55"/>
</a>
</g>
</g>
<!-- Node24 -->
<g id="Node000024" class="node">
<title>Node24</title>
<g id="a_Node000024"><a xlink:href="instruction_8hpp.html" target="_top" xlink:title="This file defines the interface of a general ARM instruction.">
<polygon fill="white" stroke="#666666" points="674,-79.5 585,-79.5 585,-60.5 674,-60.5 674,-79.5"/>
<text text-anchor="middle" x="629.5" y="-67.5" font-family="Helvetica,sans-Serif" font-size="10.00">instruction.hpp</text>
</a>
</g>
</g>
<!-- Node23&#45;&gt;Node24 -->
<g id="edge26_Node000023_Node000024" class="edge">
<title>Node23&#45;&gt;Node24</title>
<g id="a_edge26_Node000023_Node000024"><a xlink:title=" ">
<path fill="none" stroke="#63b8ff" d="M629.5,-120.77C629.5,-111.08 629.5,-99.46 629.5,-89.88"/>
<polygon fill="#63b8ff" stroke="#63b8ff" points="633,-89.82 629.5,-79.82 626,-89.82 633,-89.82"/>
</a>
</g>
</g>
<!-- Node25&#45;&gt;Node24 -->
<g id="edge28_Node000025_Node000024" class="edge">
<title>Node25&#45;&gt;Node24</title>
<g id="a_edge28_Node000025_Node000024"><a xlink:title=" ">
<path fill="none" stroke="#63b8ff" d="M759.51,-126.44C730.06,-113.88 687.3,-95.65 658.97,-83.57"/>
<polygon fill="#63b8ff" stroke="#63b8ff" points="660.17,-80.27 649.59,-79.57 657.42,-86.71 660.17,-80.27"/>
</a>
</g>
</g>
<!-- Node26&#45;&gt;Node24 -->
<g id="edge30_Node000026_Node000024" class="edge">
<title>Node26&#45;&gt;Node24</title>
<g id="a_edge30_Node000026_Node000024"><a xlink:title=" ">
<path fill="none" stroke="#63b8ff" d="M496.29,-126.44C526.48,-113.88 570.28,-95.65 599.31,-83.57"/>
<polygon fill="#63b8ff" stroke="#63b8ff" points="601.03,-86.64 608.91,-79.57 598.34,-80.18 601.03,-86.64"/>
</a>
</g>
</g>
<!-- Node28 -->
<g id="Node000028" class="node">
<title>Node28</title>
<g id="a_Node000028"><a xlink:href="cp15_8hpp.html" target="_top" xlink:title="This file defines coprocessor CP15.">
<polygon fill="white" stroke="#666666" points="1411.5,-277.5 1257.5,-277.5 1257.5,-258.5 1411.5,-258.5 1411.5,-277.5"/>
<text text-anchor="middle" x="1334.5" y="-265.5" font-family="Helvetica,sans-Serif" font-size="10.00">coprocessors/cp15/cp15.hpp</text>
</a>
</g>
</g>
<!-- Node27&#45;&gt;Node28 -->
<g id="edge32_Node000027_Node000028" class="edge">
<title>Node27&#45;&gt;Node28</title>
<g id="a_edge32_Node000027_Node000028"><a xlink:title=" ">
<path fill="none" stroke="#63b8ff" d="M996.6,-324.36C1003.06,-322.41 1009.99,-320.49 1016.5,-319 1118.22,-295.75 1145.45,-299.38 1248.5,-283 1256.36,-281.75 1264.62,-280.42 1272.79,-279.1"/>
<polygon fill="#63b8ff" stroke="#63b8ff" points="1273.36,-282.56 1282.67,-277.5 1272.24,-275.65 1273.36,-282.56"/>
</a>
</g>
</g>
<!-- Node35 -->
<g id="Node000035" class="node">
<title>Node35</title>
<g id="a_Node000035"><a xlink:href="peripheral_8hpp.html" target="_top" xlink:title="This file defines an interface for a memory&#45;mapped peripheral.">
<polygon fill="white" stroke="#666666" points="1061,-277.5 916,-277.5 916,-258.5 1061,-258.5 1061,-277.5"/>
<text text-anchor="middle" x="988.5" y="-265.5" font-family="Helvetica,sans-Serif" font-size="10.00">peripherals/peripheral.hpp</text>
</a>
</g>
</g>
<!-- Node27&#45;&gt;Node35 -->
<g id="edge48_Node000027_Node000035" class="edge">
<title>Node27&#45;&gt;Node35</title>
<g id="a_edge48_Node000027_Node000035"><a xlink:title=" ">
<path fill="none" stroke="#63b8ff" d="M972.93,-324.37C975.54,-315.07 979.79,-299.98 983.18,-287.9"/>
<polygon fill="#63b8ff" stroke="#63b8ff" points="986.66,-288.48 986,-277.91 979.92,-286.58 986.66,-288.48"/>
</a>
</g>
</g>
<!-- Node36 -->
<g id="Node000036" class="node">
<title>Node36</title>
<g id="a_Node000036"><a xlink:href="exceptions_8hpp.html" target="_top" xlink:title="This file defines all exceptions that can be thrown by the CPU during execution.">
<polygon fill="white" stroke="#666666" points="1239.5,-277.5 1079.5,-277.5 1079.5,-258.5 1239.5,-258.5 1239.5,-277.5"/>
<text text-anchor="middle" x="1159.5" y="-265.5" font-family="Helvetica,sans-Serif" font-size="10.00">arm1176jzf_s/exceptions.hpp</text>
</a>
</g>
</g>
<!-- Node27&#45;&gt;Node36 -->
<g id="edge49_Node000027_Node000036" class="edge">
<title>Node27&#45;&gt;Node36</title>
<g id="a_edge49_Node000027_Node000036"><a xlink:title=" ">
<path fill="none" stroke="#63b8ff" d="M995.99,-324.37C1029.05,-313.17 1086.9,-293.58 1124.18,-280.96"/>
<polygon fill="#63b8ff" stroke="#63b8ff" points="1125.76,-284.12 1134.11,-277.6 1123.52,-277.49 1125.76,-284.12"/>
</a>
</g>
</g>
<!-- Node28&#45;&gt;Node19 -->
<g id="edge47_Node000028_Node000019" class="edge">
<title>Node28&#45;&gt;Node19</title>
<g id="a_edge47_Node000028_Node000019"><a xlink:title=" ">
<path fill="none" stroke="#63b8ff" d="M1289.06,-258.48C1233.05,-247.56 1143.95,-228.64 1133.5,-217 1103.53,-183.62 1105.23,-127.48 1109.28,-95.41"/>
<polygon fill="#63b8ff" stroke="#63b8ff" points="1112.8,-95.55 1110.76,-85.15 1105.87,-94.55 1112.8,-95.55"/>
</a>
</g>
</g>
<!-- Node28&#45;&gt;Node21 -->
<g id="edge46_Node000028_Node000021" class="edge">
<title>Node28&#45;&gt;Node21</title>
<g id="a_edge46_Node000028_Node000021"><a xlink:title=" ">
<path fill="none" stroke="#63b8ff" d="M1284.54,-258.43C1272.74,-256.53 1260.19,-254.6 1248.5,-253 1129.71,-236.72 990.4,-222.22 911.78,-214.47"/>
<polygon fill="#63b8ff" stroke="#63b8ff" points="911.86,-210.96 901.57,-213.46 911.18,-217.92 911.86,-210.96"/>
</a>
</g>
</g>
<!-- Node29 -->
<g id="Node000029" class="node">
<title>Node29</title>
<g id="a_Node000029"><a xlink:href="c1_8hpp.html" target="_top" xlink:title="This file defines the primary register C1 of coprocessor CP15.">
<polygon fill="white" stroke="#666666" points="1191,-217 1142,-217 1142,-198 1191,-198 1191,-217"/>
<text text-anchor="middle" x="1166.5" y="-205" font-family="Helvetica,sans-Serif" font-size="10.00">c1.hpp</text>
</a>
</g>
</g>
<!-- Node28&#45;&gt;Node29 -->
<g id="edge33_Node000028_Node000029" class="edge">
<title>Node28&#45;&gt;Node29</title>
<g id="a_edge33_Node000028_Node000029"><a xlink:title=" ">
<path fill="none" stroke="#63b8ff" d="M1310.07,-258.49C1281.21,-248.44 1233,-231.66 1200.5,-220.34"/>
<polygon fill="#63b8ff" stroke="#63b8ff" points="1201.55,-217 1190.96,-217.02 1199.25,-223.61 1201.55,-217"/>
</a>
</g>
</g>
<!-- Node30 -->
<g id="Node000030" class="node">
<title>Node30</title>
<g id="a_Node000030"><a xlink:href="primary__reg_8hpp.html" target="_top" xlink:title="This file defines a primary register interface of coprocessor CP15.">
<polygon fill="white" stroke="#666666" points="1349,-151 1252,-151 1252,-132 1349,-132 1349,-151"/>
<text text-anchor="middle" x="1300.5" y="-139" font-family="Helvetica,sans-Serif" font-size="10.00">primary_reg.hpp</text>
</a>
</g>
</g>
<!-- Node28&#45;&gt;Node30 -->
<g id="edge45_Node000028_Node000030" class="edge">
<title>Node28&#45;&gt;Node30</title>
<g id="a_edge45_Node000028_Node000030"><a xlink:title=" ">
<path fill="none" stroke="#63b8ff" d="M1392.61,-258.42C1438.82,-248.99 1492.11,-230.66 1468.5,-198 1443.83,-163.87 1397.39,-150.38 1359.58,-145.21"/>
<polygon fill="#63b8ff" stroke="#63b8ff" points="1359.52,-141.67 1349.17,-143.96 1358.69,-148.62 1359.52,-141.67"/>
</a>
</g>
</g>
<!-- Node31 -->
<g id="Node000031" class="node">
<title>Node31</title>
<g id="a_Node000031"><a xlink:href="c2_8hpp.html" target="_top" xlink:title="This file defines the primary register C2 of coprocessor CP15.">
<polygon fill="white" stroke="#666666" points="1258,-217 1209,-217 1209,-198 1258,-198 1258,-217"/>
<text text-anchor="middle" x="1233.5" y="-205" font-family="Helvetica,sans-Serif" font-size="10.00">c2.hpp</text>
</a>
</g>
</g>
<!-- Node28&#45;&gt;Node31 -->
<g id="edge37_Node000028_Node000031" class="edge">
<title>Node28&#45;&gt;Node31</title>
<g id="a_edge37_Node000028_Node000031"><a xlink:title=" ">
<path fill="none" stroke="#63b8ff" d="M1319.6,-258.37C1303.19,-248.86 1276.57,-233.45 1257.27,-222.27"/>
<polygon fill="#63b8ff" stroke="#63b8ff" points="1258.87,-219.15 1248.46,-217.17 1255.36,-225.21 1258.87,-219.15"/>
</a>
</g>
</g>
<!-- Node32 -->
<g id="Node000032" class="node">
<title>Node32</title>
<g id="a_Node000032"><a xlink:href="c3_8hpp.html" target="_top" xlink:title="This file defines the primary register C3 of coprocessor CP15.">
<polygon fill="white" stroke="#666666" points="1325,-217 1276,-217 1276,-198 1325,-198 1325,-217"/>
<text text-anchor="middle" x="1300.5" y="-205" font-family="Helvetica,sans-Serif" font-size="10.00">c3.hpp</text>
</a>
</g>
</g>
<!-- Node28&#45;&gt;Node32 -->
<g id="edge39_Node000028_Node000032" class="edge">
<title>Node28&#45;&gt;Node32</title>
<g id="a_edge39_Node000028_Node000032"><a xlink:title=" ">
<path fill="none" stroke="#63b8ff" d="M1329.48,-258.37C1324.56,-249.9 1316.91,-236.74 1310.71,-226.07"/>
<polygon fill="#63b8ff" stroke="#63b8ff" points="1313.59,-224.05 1305.54,-217.17 1307.54,-227.57 1313.59,-224.05"/>
</a>
</g>
</g>
<!-- Node33 -->
<g id="Node000033" class="node">
<title>Node33</title>
<g id="a_Node000033"><a xlink:href="c7_8hpp.html" target="_top" xlink:title="This file defines the primary register C7 of coprocessor CP15.">
<polygon fill="white" stroke="#666666" points="1392,-217 1343,-217 1343,-198 1392,-198 1392,-217"/>
<text text-anchor="middle" x="1367.5" y="-205" font-family="Helvetica,sans-Serif" font-size="10.00">c7.hpp</text>
</a>
</g>
</g>
<!-- Node28&#45;&gt;Node33 -->
<g id="edge41_Node000028_Node000033" class="edge">
<title>Node28&#45;&gt;Node33</title>
<g id="a_edge41_Node000028_Node000033"><a xlink:title=" ">
<path fill="none" stroke="#63b8ff" d="M1339.37,-258.37C1344.15,-249.9 1351.57,-236.74 1357.59,-226.07"/>
<polygon fill="#63b8ff" stroke="#63b8ff" points="1360.75,-227.6 1362.61,-217.17 1354.65,-224.16 1360.75,-227.6"/>
</a>
</g>
</g>
<!-- Node34 -->
<g id="Node000034" class="node">
<title>Node34</title>
<g id="a_Node000034"><a xlink:href="c8_8hpp.html" target="_top" xlink:title="This file defines the primary register C8 of coprocessor CP15.">
<polygon fill="white" stroke="#666666" points="1459,-217 1410,-217 1410,-198 1459,-198 1459,-217"/>
<text text-anchor="middle" x="1434.5" y="-205" font-family="Helvetica,sans-Serif" font-size="10.00">c8.hpp</text>
</a>
</g>
</g>
<!-- Node28&#45;&gt;Node34 -->
<g id="edge43_Node000028_Node000034" class="edge">
<title>Node28&#45;&gt;Node34</title>
<g id="a_edge43_Node000028_Node000034"><a xlink:title=" ">
<path fill="none" stroke="#63b8ff" d="M1349.26,-258.37C1365.5,-248.86 1391.85,-233.45 1410.96,-222.27"/>
<polygon fill="#63b8ff" stroke="#63b8ff" points="1412.82,-225.24 1419.68,-217.17 1409.29,-219.2 1412.82,-225.24"/>
</a>
</g>
</g>
<!-- Node29&#45;&gt;Node19 -->
<g id="edge36_Node000029_Node000019" class="edge">
<title>Node29&#45;&gt;Node19</title>
<g id="a_edge36_Node000029_Node000019"><a xlink:title=" ">
<path fill="none" stroke="#63b8ff" d="M1163.02,-197.61C1154.95,-176.98 1134.73,-125.29 1122.78,-94.71"/>
<polygon fill="#63b8ff" stroke="#63b8ff" points="1125.97,-93.27 1119.07,-85.23 1119.45,-95.82 1125.97,-93.27"/>
</a>
</g>
</g>
<!-- Node29&#45;&gt;Node30 -->
<g id="edge34_Node000029_Node000030" class="edge">
<title>Node29&#45;&gt;Node30</title>
<g id="a_edge34_Node000029_Node000030"><a xlink:title=" ">
<path fill="none" stroke="#63b8ff" d="M1184.57,-197.87C1207.35,-186.99 1246.72,-168.19 1273.18,-155.55"/>
<polygon fill="#63b8ff" stroke="#63b8ff" points="1274.77,-158.67 1282.29,-151.2 1271.75,-152.35 1274.77,-158.67"/>
</a>
</g>
</g>
<!-- Node30&#45;&gt;Node19 -->
<g id="edge35_Node000030_Node000019" class="edge">
<title>Node30&#45;&gt;Node19</title>
<g id="a_edge35_Node000030_Node000019"><a xlink:title=" ">
<path fill="none" stroke="#63b8ff" d="M1277.57,-131.98C1248.65,-121.23 1198.2,-102.48 1160.86,-88.6"/>
<polygon fill="#63b8ff" stroke="#63b8ff" points="1161.78,-85.21 1151.19,-85.01 1159.34,-91.77 1161.78,-85.21"/>
</a>
</g>
</g>
<!-- Node31&#45;&gt;Node30 -->
<g id="edge38_Node000031_Node000030" class="edge">
<title>Node31&#45;&gt;Node30</title>
<g id="a_edge38_Node000031_Node000030"><a xlink:title=" ">
<path fill="none" stroke="#63b8ff" d="M1242.54,-197.87C1253.07,-187.81 1270.69,-170.98 1283.74,-158.51"/>
<polygon fill="#63b8ff" stroke="#63b8ff" points="1286.36,-160.84 1291.18,-151.41 1281.53,-155.78 1286.36,-160.84"/>
</a>
</g>
</g>
<!-- Node32&#45;&gt;Node30 -->
<g id="edge40_Node000032_Node000030" class="edge">
<title>Node32&#45;&gt;Node30</title>
<g id="a_edge40_Node000032_Node000030"><a xlink:title=" ">
<path fill="none" stroke="#63b8ff" d="M1300.5,-197.87C1300.5,-188.66 1300.5,-173.79 1300.5,-161.77"/>
<polygon fill="#63b8ff" stroke="#63b8ff" points="1304,-161.41 1300.5,-151.41 1297,-161.41 1304,-161.41"/>
</a>
</g>
</g>
<!-- Node33&#45;&gt;Node30 -->
<g id="edge42_Node000033_Node000030" class="edge">
<title>Node33&#45;&gt;Node30</title>
<g id="a_edge42_Node000033_Node000030"><a xlink:title=" ">
<path fill="none" stroke="#63b8ff" d="M1358.46,-197.87C1347.93,-187.81 1330.31,-170.98 1317.26,-158.51"/>
<polygon fill="#63b8ff" stroke="#63b8ff" points="1319.47,-155.78 1309.82,-151.41 1314.64,-160.84 1319.47,-155.78"/>
</a>
</g>
</g>
<!-- Node34&#45;&gt;Node30 -->
<g id="edge44_Node000034_Node000030" class="edge">
<title>Node34&#45;&gt;Node30</title>
<g id="a_edge44_Node000034_Node000030"><a xlink:title=" ">
<path fill="none" stroke="#63b8ff" d="M1416.43,-197.87C1393.65,-186.99 1354.28,-168.19 1327.82,-155.55"/>
<polygon fill="#63b8ff" stroke="#63b8ff" points="1329.25,-152.35 1318.71,-151.2 1326.23,-158.67 1329.25,-152.35"/>
</a>
</g>
</g>
<!-- Node36&#45;&gt;Node22 -->
<g id="edge51_Node000036_Node000022" class="edge">
<title>Node36&#45;&gt;Node22</title>
<g id="a_edge51_Node000036_Node000022"><a xlink:title=" ">
<path fill="none" stroke="#63b8ff" d="M1146.58,-258.44C1114.78,-237.39 1032.48,-182.88 993.11,-156.81"/>
<polygon fill="#63b8ff" stroke="#63b8ff" points="994.78,-153.72 984.51,-151.12 990.92,-159.56 994.78,-153.72"/>
</a>
</g>
</g>
<!-- Node37 -->
<g id="Node000037" class="node">
<title>Node37</title>
<g id="a_Node000037"><a xlink:title=" ">
<polygon fill="#e0e0e0" stroke="#999999" points="779,-217 700,-217 700,-198 779,-198 779,-217"/>
<text text-anchor="middle" x="739.5" y="-205" font-family="Helvetica,sans-Serif" font-size="10.00">fmt/format.h</text>
</a>
</g>
</g>
<!-- Node36&#45;&gt;Node37 -->
<g id="edge50_Node000036_Node000037" class="edge">
<title>Node36&#45;&gt;Node37</title>
<g id="a_edge50_Node000036_Node000037"><a xlink:title=" ">
<path fill="none" stroke="#63b8ff" d="M1106.83,-258.46C1094.89,-256.59 1082.27,-254.68 1070.5,-253 948.59,-235.63 915.13,-235.78 789.1,-217.02"/>
<polygon fill="#63b8ff" stroke="#63b8ff" points="789.46,-213.54 779.06,-215.52 788.43,-220.46 789.46,-213.54"/>
</a>
</g>
</g>
</g>
</svg>
