<?xml version="1.0" encoding="UTF-8" standalone="no"?>
<!DOCTYPE svg PUBLIC "-//W3C//DTD SVG 1.1//EN"
 "http://www.w3.org/Graphics/SVG/1.1/DTD/svg11.dtd">
<!-- Generated by graphviz version 2.43.0 (0)
 -->
<!-- Title: src/core/coprocessors/cp10/cp10.hpp Pages: 1 -->
<svg width="1475pt" height="423pt"
 viewBox="0.00 0.00 1474.62 423.00" xmlns="http://www.w3.org/2000/svg" xmlns:xlink="http://www.w3.org/1999/xlink">
<g id="graph0" class="graph" transform="scale(1 1) rotate(0) translate(4 419)">
<title>src/core/coprocessors/cp10/cp10.hpp</title>
<!-- Node1 -->
<g id="Node000001" class="node">
<title>Node1</title>
<g id="a_Node000001"><a xlink:title="This file defines coprocessor CP10 (single&#45;precision FPU).">
<polygon fill="#999999" stroke="#666666" points="600.5,-415 478.5,-415 478.5,-385 600.5,-385 600.5,-415"/>
<text text-anchor="start" x="486.5" y="-403" font-family="Helvetica,sans-Serif" font-size="10.00">src/core/coprocessors</text>
<text text-anchor="middle" x="539.5" y="-392" font-family="Helvetica,sans-Serif" font-size="10.00">/cp10/cp10.hpp</text>
</a>
</g>
</g>
<!-- Node2 -->
<g id="Node000002" class="node">
<title>Node2</title>
<g id="a_Node000002"><a xlink:href="fpexc_8hpp.html" target="_top" xlink:title="This file defines the FPEXC register of coprocessor CP10.">
<polygon fill="white" stroke="#666666" points="123,-343.5 58,-343.5 58,-324.5 123,-324.5 123,-343.5"/>
<text text-anchor="middle" x="90.5" y="-331.5" font-family="Helvetica,sans-Serif" font-size="10.00">fpexc.hpp</text>
</a>
</g>
</g>
<!-- Node1&#45;&gt;Node2 -->
<g id="edge1_Node000001_Node000002" class="edge">
<title>Node1&#45;&gt;Node2</title>
<g id="a_edge1_Node000001_Node000002"><a xlink:title=" ">
<path fill="none" stroke="#63b8ff" d="M478.33,-395.47C397.94,-389.92 252.7,-376.8 131.5,-349 128.52,-348.32 125.45,-347.5 122.39,-346.6"/>
<polygon fill="#63b8ff" stroke="#63b8ff" points="123.4,-343.25 112.81,-343.55 121.28,-349.92 123.4,-343.25"/>
</a>
</g>
</g>
<!-- Node3 -->
<g id="Node000003" class="node">
<title>Node3</title>
<g id="a_Node000003"><a xlink:href="fpscr_8hpp.html" target="_top" xlink:title="This file defines the FPSCR register of coprocessor CP10.">
<polygon fill="white" stroke="#666666" points="202,-343.5 141,-343.5 141,-324.5 202,-324.5 202,-343.5"/>
<text text-anchor="middle" x="171.5" y="-331.5" font-family="Helvetica,sans-Serif" font-size="10.00">fpscr.hpp</text>
</a>
</g>
</g>
<!-- Node1&#45;&gt;Node3 -->
<g id="edge2_Node000001_Node000003" class="edge">
<title>Node1&#45;&gt;Node3</title>
<g id="a_edge2_Node000001_Node000003"><a xlink:title=" ">
<path fill="none" stroke="#63b8ff" d="M478.38,-393.11C412,-385.92 303.17,-371.82 211.5,-349 208.85,-348.34 206.12,-347.58 203.4,-346.75"/>
<polygon fill="#63b8ff" stroke="#63b8ff" points="204.3,-343.36 193.7,-343.59 202.13,-350.02 204.3,-343.36"/>
</a>
</g>
</g>
<!-- Node4 -->
<g id="Node000004" class="node">
<title>Node4</title>
<g id="a_Node000004"><a xlink:href="register_8hpp.html" target="_top" xlink:title="This file defines a custom single&#45;precision floating point register.">
<polygon fill="white" stroke="#666666" points="294.5,-343.5 220.5,-343.5 220.5,-324.5 294.5,-324.5 294.5,-343.5"/>
<text text-anchor="middle" x="257.5" y="-331.5" font-family="Helvetica,sans-Serif" font-size="10.00">register.hpp</text>
</a>
</g>
</g>
<!-- Node1&#45;&gt;Node4 -->
<g id="edge3_Node000001_Node000004" class="edge">
<title>Node1&#45;&gt;Node4</title>
<g id="a_edge3_Node000001_Node000004"><a xlink:title=" ">
<path fill="none" stroke="#63b8ff" d="M478.04,-387.5C430.21,-378.18 362.31,-364.15 303.5,-349 300.35,-348.19 297.09,-347.3 293.83,-346.37"/>
<polygon fill="#63b8ff" stroke="#63b8ff" points="294.73,-342.99 284.15,-343.54 292.76,-349.71 294.73,-342.99"/>
</a>
</g>
</g>
<!-- Node5 -->
<g id="Node000005" class="node">
<title>Node5</title>
<g id="a_Node000005"><a xlink:href="coprocessors_2cp10_2isa_2isa_8hpp.html" target="_top" xlink:title="This file combines different instruction type includes together.">
<polygon fill="white" stroke="#666666" points="382,-343.5 313,-343.5 313,-324.5 382,-324.5 382,-343.5"/>
<text text-anchor="middle" x="347.5" y="-331.5" font-family="Helvetica,sans-Serif" font-size="10.00">isa/isa.hpp</text>
</a>
</g>
</g>
<!-- Node1&#45;&gt;Node5 -->
<g id="edge4_Node000001_Node000005" class="edge">
<title>Node1&#45;&gt;Node5</title>
<g id="a_edge4_Node000001_Node000005"><a xlink:title=" ">
<path fill="none" stroke="#63b8ff" d="M497.36,-384.95C462.95,-373.48 414.88,-357.46 382.55,-346.68"/>
<polygon fill="#63b8ff" stroke="#63b8ff" points="383.65,-343.36 373.05,-343.52 381.43,-350 383.65,-343.36"/>
</a>
</g>
</g>
<!-- Node11 -->
<g id="Node000011" class="node">
<title>Node11</title>
<g id="a_Node000011"><a xlink:href="cp__data__processing__inst_8hpp.html" target="_top" xlink:title="This file defines a general CP10 data processing instruction.">
<polygon fill="white" stroke="#666666" points="679.5,-349 549.5,-349 549.5,-319 679.5,-319 679.5,-349"/>
<text text-anchor="start" x="557.5" y="-337" font-family="Helvetica,sans-Serif" font-size="10.00">isa/cp_data_processing</text>
<text text-anchor="middle" x="614.5" y="-326" font-family="Helvetica,sans-Serif" font-size="10.00">_inst.hpp</text>
</a>
</g>
</g>
<!-- Node1&#45;&gt;Node11 -->
<g id="edge10_Node000001_Node000011" class="edge">
<title>Node1&#45;&gt;Node11</title>
<g id="a_edge10_Node000001_Node000011"><a xlink:title=" ">
<path fill="none" stroke="#63b8ff" d="M556.14,-384.8C566.15,-376.26 579.05,-365.25 590.18,-355.75"/>
<polygon fill="#63b8ff" stroke="#63b8ff" points="592.57,-358.32 597.9,-349.16 588.02,-352.99 592.57,-358.32"/>
</a>
</g>
</g>
<!-- Node13 -->
<g id="Node000013" class="node">
<title>Node13</title>
<g id="a_Node000013"><a xlink:href="cp__data__transfer__inst_8hpp.html" target="_top" xlink:title="This file defines a general CP10 data transfer instruction (load and store).">
<polygon fill="white" stroke="#666666" points="813.5,-349 697.5,-349 697.5,-319 813.5,-319 813.5,-349"/>
<text text-anchor="start" x="705.5" y="-337" font-family="Helvetica,sans-Serif" font-size="10.00">isa/cp_data_transfer</text>
<text text-anchor="middle" x="755.5" y="-326" font-family="Helvetica,sans-Serif" font-size="10.00">_inst.hpp</text>
</a>
</g>
</g>
<!-- Node1&#45;&gt;Node13 -->
<g id="edge12_Node000001_Node000013" class="edge">
<title>Node1&#45;&gt;Node13</title>
<g id="a_edge12_Node000001_Node000013"><a xlink:title=" ">
<path fill="none" stroke="#63b8ff" d="M586.9,-384.95C619.68,-375.24 663.47,-362.27 698.21,-351.98"/>
<polygon fill="#63b8ff" stroke="#63b8ff" points="699.61,-355.21 708.21,-349.01 697.63,-348.5 699.61,-355.21"/>
</a>
</g>
</g>
<!-- Node14 -->
<g id="Node000014" class="node">
<title>Node14</title>
<g id="a_Node000014"><a xlink:href="cp__register__transfer__inst_8hpp.html" target="_top" xlink:title="This file defines a general CP10 register transfer instruction.">
<polygon fill="white" stroke="#666666" points="531,-349 400,-349 400,-319 531,-319 531,-349"/>
<text text-anchor="start" x="408" y="-337" font-family="Helvetica,sans-Serif" font-size="10.00">isa/cp_register_transfer</text>
<text text-anchor="middle" x="465.5" y="-326" font-family="Helvetica,sans-Serif" font-size="10.00">_inst.hpp</text>
</a>
</g>
</g>
<!-- Node1&#45;&gt;Node14 -->
<g id="edge14_Node000001_Node000014" class="edge">
<title>Node1&#45;&gt;Node14</title>
<g id="a_edge14_Node000001_Node000014"><a xlink:title=" ">
<path fill="none" stroke="#63b8ff" d="M523.08,-384.8C513.21,-376.26 500.48,-365.25 489.5,-355.75"/>
<polygon fill="#63b8ff" stroke="#63b8ff" points="491.73,-353.06 481.88,-349.16 487.15,-358.35 491.73,-353.06"/>
</a>
</g>
</g>
<!-- Node15 -->
<g id="Node000015" class="node">
<title>Node15</title>
<g id="a_Node000015"><a xlink:href="logging__system_8hpp.html" target="_top" xlink:title="This file defines a logging system that is used in the project.">
<polygon fill="white" stroke="#666666" points="1171,-85 1040,-85 1040,-55 1171,-55 1171,-85"/>
<text text-anchor="start" x="1048" y="-73" font-family="Helvetica,sans-Serif" font-size="10.00">zero_mate/utils/logging</text>
<text text-anchor="middle" x="1105.5" y="-62" font-family="Helvetica,sans-Serif" font-size="10.00">_system.hpp</text>
</a>
</g>
</g>
<!-- Node1&#45;&gt;Node15 -->
<g id="edge16_Node000001_Node000015" class="edge">
<title>Node1&#45;&gt;Node15</title>
<g id="a_edge16_Node000001_Node000015"><a xlink:title=" ">
<path fill="none" stroke="#63b8ff" d="M600.53,-395.16C677.93,-389.26 805.98,-375.72 844.5,-349 884.9,-320.97 865.22,-288.25 899.5,-253 953.59,-197.37 993.32,-216.56 1048.5,-162 1068.57,-142.15 1084.84,-113.95 1094.78,-94.22"/>
<polygon fill="#63b8ff" stroke="#63b8ff" points="1098.03,-95.54 1099.27,-85.02 1091.74,-92.47 1098.03,-95.54"/>
</a>
</g>
</g>
<!-- Node17 -->
<g id="Node000017" class="node">
<title>Node17</title>
<g id="a_Node000017"><a xlink:href="coprocessor_8hpp.html" target="_top" xlink:title="This file defines a general interface of a coprocessor.">
<polygon fill="white" stroke="#666666" points="893.5,-217 789.5,-217 789.5,-198 893.5,-198 893.5,-217"/>
<text text-anchor="middle" x="841.5" y="-205" font-family="Helvetica,sans-Serif" font-size="10.00">../coprocessor.hpp</text>
</a>
</g>
</g>
<!-- Node1&#45;&gt;Node17 -->
<g id="edge18_Node000001_Node000017" class="edge">
<title>Node1&#45;&gt;Node17</title>
<g id="a_edge18_Node000001_Node000017"><a xlink:title=" ">
<path fill="none" stroke="#63b8ff" d="M600.67,-396.42C674.56,-391.95 792.69,-380.04 822.5,-349 854.1,-316.1 849.9,-257.2 845.18,-227.19"/>
<polygon fill="#63b8ff" stroke="#63b8ff" points="848.6,-226.45 843.42,-217.22 841.71,-227.67 848.6,-226.45"/>
</a>
</g>
</g>
<!-- Node23 -->
<g id="Node000023" class="node">
<title>Node23</title>
<g id="a_Node000023"><a xlink:href="bus_8hpp.html" target="_top" xlink:title="This file defines an interface the CPU uses to access different memory&#45;mapped peripherals.">
<polygon fill="white" stroke="#666666" points="1103,-343.5 1030,-343.5 1030,-324.5 1103,-324.5 1103,-343.5"/>
<text text-anchor="middle" x="1066.5" y="-331.5" font-family="Helvetica,sans-Serif" font-size="10.00">../../bus.hpp</text>
</a>
</g>
</g>
<!-- Node1&#45;&gt;Node23 -->
<g id="edge27_Node000001_Node000023" class="edge">
<title>Node1&#45;&gt;Node23</title>
<g id="a_edge27_Node000001_Node000023"><a xlink:title=" ">
<path fill="none" stroke="#63b8ff" d="M600.73,-391.56C707.24,-378.63 924.36,-352.26 1019.76,-340.68"/>
<polygon fill="#63b8ff" stroke="#63b8ff" points="1020.19,-344.15 1029.7,-339.47 1019.35,-337.2 1020.19,-344.15"/>
</a>
</g>
</g>
<!-- Node6 -->
<g id="Node000006" class="node">
<title>Node6</title>
<g id="a_Node000006"><a xlink:href="vmsr_8hpp.html" target="_top" xlink:title="This file defines a VMSR instruction (ARM register to a special FPU register).">
<polygon fill="white" stroke="#666666" points="481.5,-277.5 419.5,-277.5 419.5,-258.5 481.5,-258.5 481.5,-277.5"/>
<text text-anchor="middle" x="450.5" y="-265.5" font-family="Helvetica,sans-Serif" font-size="10.00">vmsr.hpp</text>
</a>
</g>
</g>
<!-- Node5&#45;&gt;Node6 -->
<g id="edge5_Node000005_Node000006" class="edge">
<title>Node5&#45;&gt;Node6</title>
<g id="a_edge5_Node000005_Node000006"><a xlink:title=" ">
<path fill="none" stroke="#63b8ff" d="M361.39,-324.37C378.44,-313.78 407.57,-295.67 427.87,-283.06"/>
<polygon fill="#63b8ff" stroke="#63b8ff" points="429.85,-285.95 436.5,-277.7 426.16,-280 429.85,-285.95"/>
</a>
</g>
</g>
<!-- Node7 -->
<g id="Node000007" class="node">
<title>Node7</title>
<g id="a_Node000007"><a xlink:href="vmrs_8hpp.html" target="_top" xlink:title="This file defines a VMRS instruction (FPU special register to an ARM register).">
<polygon fill="white" stroke="#666666" points="561.5,-277.5 499.5,-277.5 499.5,-258.5 561.5,-258.5 561.5,-277.5"/>
<text text-anchor="middle" x="530.5" y="-265.5" font-family="Helvetica,sans-Serif" font-size="10.00">vmrs.hpp</text>
</a>
</g>
</g>
<!-- Node5&#45;&gt;Node7 -->
<g id="edge6_Node000005_Node000007" class="edge">
<title>Node5&#45;&gt;Node7</title>
<g id="a_edge6_Node000005_Node000007"><a xlink:title=" ">
<path fill="none" stroke="#63b8ff" d="M372.18,-324.37C404.19,-313.17 460.21,-293.58 496.3,-280.96"/>
<polygon fill="#63b8ff" stroke="#63b8ff" points="497.64,-284.2 505.92,-277.6 495.32,-277.59 497.64,-284.2"/>
</a>
</g>
</g>
<!-- Node8 -->
<g id="Node000008" class="node">
<title>Node8</title>
<g id="a_Node000008"><a xlink:href="coprocessors_2cp10_2isa_2data__processing_8hpp.html" target="_top" xlink:title="This file defines a data processing instruction.">
<polygon fill="white" stroke="#666666" points="117,-277.5 0,-277.5 0,-258.5 117,-258.5 117,-277.5"/>
<text text-anchor="middle" x="58.5" y="-265.5" font-family="Helvetica,sans-Serif" font-size="10.00">data_processing.hpp</text>
</a>
</g>
</g>
<!-- Node5&#45;&gt;Node8 -->
<g id="edge7_Node000005_Node000008" class="edge">
<title>Node5&#45;&gt;Node8</title>
<g id="a_edge7_Node000005_Node000008"><a xlink:title=" ">
<path fill="none" stroke="#63b8ff" d="M322.04,-324.39C316,-322.49 309.55,-320.57 303.5,-319 225.81,-298.8 205.15,-299.09 126.5,-283 121.11,-281.9 115.49,-280.74 109.88,-279.59"/>
<polygon fill="#63b8ff" stroke="#63b8ff" points="110.35,-276.12 99.85,-277.53 108.94,-282.97 110.35,-276.12"/>
</a>
</g>
</g>
<!-- Node9 -->
<g id="Node000009" class="node">
<title>Node9</title>
<g id="a_Node000009"><a xlink:href="data__transfer_8hpp.html" target="_top" xlink:title="This file defines a data transfer instruction.">
<polygon fill="white" stroke="#666666" points="237.5,-277.5 135.5,-277.5 135.5,-258.5 237.5,-258.5 237.5,-277.5"/>
<text text-anchor="middle" x="186.5" y="-265.5" font-family="Helvetica,sans-Serif" font-size="10.00">data_transfer.hpp</text>
</a>
</g>
</g>
<!-- Node5&#45;&gt;Node9 -->
<g id="edge8_Node000005_Node000009" class="edge">
<title>Node5&#45;&gt;Node9</title>
<g id="a_edge8_Node000005_Node000009"><a xlink:title=" ">
<path fill="none" stroke="#63b8ff" d="M325.79,-324.37C297.98,-313.32 249.6,-294.08 217.82,-281.45"/>
<polygon fill="#63b8ff" stroke="#63b8ff" points="218.71,-278.04 208.13,-277.6 216.13,-284.54 218.71,-278.04"/>
</a>
</g>
</g>
<!-- Node10 -->
<g id="Node000010" class="node">
<title>Node10</title>
<g id="a_Node000010"><a xlink:href="vmov__arm__register__single__precision__register_8hpp.html" target="_top" xlink:title="This file defines a VMOV instruction between an ARM register and an FPU register.">
<polygon fill="white" stroke="#666666" points="401.5,-283 255.5,-283 255.5,-253 401.5,-253 401.5,-283"/>
<text text-anchor="start" x="263.5" y="-271" font-family="Helvetica,sans-Serif" font-size="10.00">vmov_arm_register_single</text>
<text text-anchor="middle" x="328.5" y="-260" font-family="Helvetica,sans-Serif" font-size="10.00">_precision_register.hpp</text>
</a>
</g>
</g>
<!-- Node5&#45;&gt;Node10 -->
<g id="edge9_Node000005_Node000010" class="edge">
<title>Node5&#45;&gt;Node10</title>
<g id="a_edge9_Node000005_Node000010"><a xlink:title=" ">
<path fill="none" stroke="#63b8ff" d="M344.94,-324.37C342.57,-316.4 338.95,-304.2 335.7,-293.27"/>
<polygon fill="#63b8ff" stroke="#63b8ff" points="338.96,-291.95 332.76,-283.36 332.25,-293.94 338.96,-291.95"/>
</a>
</g>
</g>
<!-- Node12 -->
<g id="Node000012" class="node">
<title>Node12</title>
<g id="a_Node000012"><a xlink:href="cp__instruction_8hpp.html" target="_top" xlink:title="This file defines a general CP10 instruction.">
<polygon fill="white" stroke="#666666" points="685.5,-277.5 579.5,-277.5 579.5,-258.5 685.5,-258.5 685.5,-277.5"/>
<text text-anchor="middle" x="632.5" y="-265.5" font-family="Helvetica,sans-Serif" font-size="10.00">cp_instruction.hpp</text>
</a>
</g>
</g>
<!-- Node11&#45;&gt;Node12 -->
<g id="edge11_Node000011_Node000012" class="edge">
<title>Node11&#45;&gt;Node12</title>
<g id="a_edge11_Node000011_Node000012"><a xlink:title=" ">
<path fill="none" stroke="#63b8ff" d="M618.49,-318.8C621.08,-309.6 624.48,-297.53 627.27,-287.58"/>
<polygon fill="#63b8ff" stroke="#63b8ff" points="630.67,-288.42 630.01,-277.84 623.94,-286.52 630.67,-288.42"/>
</a>
</g>
</g>
<!-- Node13&#45;&gt;Node12 -->
<g id="edge13_Node000013_Node000012" class="edge">
<title>Node13&#45;&gt;Node12</title>
<g id="a_edge13_Node000013_Node000012"><a xlink:title=" ">
<path fill="none" stroke="#63b8ff" d="M728.51,-318.95C707.51,-308.03 678.57,-292.97 657.97,-282.25"/>
<polygon fill="#63b8ff" stroke="#63b8ff" points="659.36,-279.03 648.87,-277.52 656.12,-285.24 659.36,-279.03"/>
</a>
</g>
</g>
<!-- Node14&#45;&gt;Node12 -->
<g id="edge15_Node000014_Node000012" class="edge">
<title>Node14&#45;&gt;Node12</title>
<g id="a_edge15_Node000014_Node000012"><a xlink:title=" ">
<path fill="none" stroke="#63b8ff" d="M502.15,-318.95C531.69,-307.63 572.81,-291.88 600.92,-281.1"/>
<polygon fill="#63b8ff" stroke="#63b8ff" points="602.19,-284.36 610.28,-277.52 599.68,-277.83 602.19,-284.36"/>
</a>
</g>
</g>
<!-- Node16 -->
<g id="Node000016" class="node">
<title>Node16</title>
<g id="a_Node000016"><a xlink:href="logger_8hpp.html" target="_top" xlink:title="This file defines a general logger interface.">
<polygon fill="white" stroke="#666666" points="1139.5,-19 1071.5,-19 1071.5,0 1139.5,0 1139.5,-19"/>
<text text-anchor="middle" x="1105.5" y="-7" font-family="Helvetica,sans-Serif" font-size="10.00">logger.hpp</text>
</a>
</g>
</g>
<!-- Node15&#45;&gt;Node16 -->
<g id="edge17_Node000015_Node000016" class="edge">
<title>Node15&#45;&gt;Node16</title>
<g id="a_edge17_Node000015_Node000016"><a xlink:title=" ">
<path fill="none" stroke="#63b8ff" d="M1105.5,-54.84C1105.5,-47.21 1105.5,-37.7 1105.5,-29.45"/>
<polygon fill="#63b8ff" stroke="#63b8ff" points="1109,-29.27 1105.5,-19.27 1102,-29.27 1109,-29.27"/>
</a>
</g>
</g>
<!-- Node18 -->
<g id="Node000018" class="node">
<title>Node18</title>
<g id="a_Node000018"><a xlink:href="context_8hpp.html" target="_top" xlink:title="This file defines the context (registers) of the CPU.">
<polygon fill="white" stroke="#666666" points="1039.5,-151 887.5,-151 887.5,-132 1039.5,-132 1039.5,-151"/>
<text text-anchor="middle" x="963.5" y="-139" font-family="Helvetica,sans-Serif" font-size="10.00">../arm1176jzf_s/context.hpp</text>
</a>
</g>
</g>
<!-- Node17&#45;&gt;Node18 -->
<g id="edge19_Node000017_Node000018" class="edge">
<title>Node17&#45;&gt;Node18</title>
<g id="a_edge19_Node000017_Node000018"><a xlink:title=" ">
<path fill="none" stroke="#63b8ff" d="M857.95,-197.87C878.51,-187.09 913.9,-168.52 937.99,-155.88"/>
<polygon fill="#63b8ff" stroke="#63b8ff" points="939.69,-158.94 946.92,-151.2 936.44,-152.75 939.69,-158.94"/>
</a>
</g>
</g>
<!-- Node19 -->
<g id="Node000019" class="node">
<title>Node19</title>
<g id="a_Node000019"><a xlink:href="coprocessor__register__transfer_8hpp.html" target="_top" xlink:title="This file defines a coprocessor register transfer (MRC, MCR).">
<polygon fill="white" stroke="#666666" points="682,-162 561,-162 561,-121 682,-121 682,-162"/>
<text text-anchor="start" x="569" y="-150" font-family="Helvetica,sans-Serif" font-size="10.00">../arm1176jzf_s/isa</text>
<text text-anchor="start" x="569" y="-139" font-family="Helvetica,sans-Serif" font-size="10.00">/coprocessor_register</text>
<text text-anchor="middle" x="621.5" y="-128" font-family="Helvetica,sans-Serif" font-size="10.00">_transfer.hpp</text>
</a>
</g>
</g>
<!-- Node17&#45;&gt;Node19 -->
<g id="edge21_Node000017_Node000019" class="edge">
<title>Node17&#45;&gt;Node19</title>
<g id="a_edge21_Node000017_Node000019"><a xlink:title=" ">
<path fill="none" stroke="#63b8ff" d="M811.83,-197.87C781.27,-188.98 732.54,-174.8 692.03,-163.02"/>
<polygon fill="#63b8ff" stroke="#63b8ff" points="692.77,-159.59 682.19,-160.16 690.82,-166.31 692.77,-159.59"/>
</a>
</g>
</g>
<!-- Node21 -->
<g id="Node000021" class="node">
<title>Node21</title>
<g id="a_Node000021"><a xlink:href="coprocessor__data__transfer_8hpp.html" target="_top" xlink:title="This file defines a coprocessor data transfer (LDC, STC).">
<polygon fill="white" stroke="#666666" points="869,-156.5 700,-156.5 700,-126.5 869,-126.5 869,-156.5"/>
<text text-anchor="start" x="708" y="-144.5" font-family="Helvetica,sans-Serif" font-size="10.00">../arm1176jzf_s/isa</text>
<text text-anchor="middle" x="784.5" y="-133.5" font-family="Helvetica,sans-Serif" font-size="10.00">/coprocessor_data_transfer.hpp</text>
</a>
</g>
</g>
<!-- Node17&#45;&gt;Node21 -->
<g id="edge23_Node000017_Node000021" class="edge">
<title>Node17&#45;&gt;Node21</title>
<g id="a_edge23_Node000017_Node000021"><a xlink:title=" ">
<path fill="none" stroke="#63b8ff" d="M833.81,-197.87C826.21,-189.33 814.26,-175.91 804.02,-164.42"/>
<polygon fill="#63b8ff" stroke="#63b8ff" points="806.55,-162 797.29,-156.86 801.33,-166.66 806.55,-162"/>
</a>
</g>
</g>
<!-- Node22 -->
<g id="Node000022" class="node">
<title>Node22</title>
<g id="a_Node000022"><a xlink:href="coprocessor__data__operation_8hpp.html" target="_top" xlink:title="This file defines a coprocessor data operation (CDP).">
<polygon fill="white" stroke="#666666" points="543.5,-156.5 365.5,-156.5 365.5,-126.5 543.5,-126.5 543.5,-156.5"/>
<text text-anchor="start" x="373.5" y="-144.5" font-family="Helvetica,sans-Serif" font-size="10.00">../arm1176jzf_s/isa</text>
<text text-anchor="middle" x="454.5" y="-133.5" font-family="Helvetica,sans-Serif" font-size="10.00">/coprocessor_data_operation.hpp</text>
</a>
</g>
</g>
<!-- Node17&#45;&gt;Node22 -->
<g id="edge25_Node000017_Node000022" class="edge">
<title>Node17&#45;&gt;Node22</title>
<g id="a_edge25_Node000017_Node000022"><a xlink:title=" ">
<path fill="none" stroke="#63b8ff" d="M789.26,-199.22C731.1,-190.95 634.38,-176.68 551.5,-162 545.28,-160.9 538.85,-159.71 532.4,-158.49"/>
<polygon fill="#63b8ff" stroke="#63b8ff" points="532.74,-154.99 522.26,-156.54 531.42,-161.86 532.74,-154.99"/>
</a>
</g>
</g>
<!-- Node18&#45;&gt;Node15 -->
<g id="edge20_Node000018_Node000015" class="edge">
<title>Node18&#45;&gt;Node15</title>
<g id="a_edge20_Node000018_Node000015"><a xlink:title=" ">
<path fill="none" stroke="#63b8ff" d="M980.91,-131.98C1002.4,-121.46 1039.56,-103.28 1067.71,-89.49"/>
<polygon fill="#63b8ff" stroke="#63b8ff" points="1069.44,-92.55 1076.88,-85.01 1066.36,-86.26 1069.44,-92.55"/>
</a>
</g>
</g>
<!-- Node20 -->
<g id="Node000020" class="node">
<title>Node20</title>
<g id="a_Node000020"><a xlink:href="instruction_8hpp.html" target="_top" xlink:title="This file defines the interface of a general ARM instruction.">
<polygon fill="white" stroke="#666666" points="666,-79.5 577,-79.5 577,-60.5 666,-60.5 666,-79.5"/>
<text text-anchor="middle" x="621.5" y="-67.5" font-family="Helvetica,sans-Serif" font-size="10.00">instruction.hpp</text>
</a>
</g>
</g>
<!-- Node19&#45;&gt;Node20 -->
<g id="edge22_Node000019_Node000020" class="edge">
<title>Node19&#45;&gt;Node20</title>
<g id="a_edge22_Node000019_Node000020"><a xlink:title=" ">
<path fill="none" stroke="#63b8ff" d="M621.5,-120.77C621.5,-111.08 621.5,-99.46 621.5,-89.88"/>
<polygon fill="#63b8ff" stroke="#63b8ff" points="625,-89.82 621.5,-79.82 618,-89.82 625,-89.82"/>
</a>
</g>
</g>
<!-- Node21&#45;&gt;Node20 -->
<g id="edge24_Node000021_Node000020" class="edge">
<title>Node21&#45;&gt;Node20</title>
<g id="a_edge24_Node000021_Node000020"><a xlink:title=" ">
<path fill="none" stroke="#63b8ff" d="M751.51,-126.44C722.06,-113.88 679.3,-95.65 650.97,-83.57"/>
<polygon fill="#63b8ff" stroke="#63b8ff" points="652.17,-80.27 641.59,-79.57 649.42,-86.71 652.17,-80.27"/>
</a>
</g>
</g>
<!-- Node22&#45;&gt;Node20 -->
<g id="edge26_Node000022_Node000020" class="edge">
<title>Node22&#45;&gt;Node20</title>
<g id="a_edge26_Node000022_Node000020"><a xlink:title=" ">
<path fill="none" stroke="#63b8ff" d="M488.29,-126.44C518.48,-113.88 562.28,-95.65 591.31,-83.57"/>
<polygon fill="#63b8ff" stroke="#63b8ff" points="593.03,-86.64 600.91,-79.57 590.34,-80.18 593.03,-86.64"/>
</a>
</g>
</g>
<!-- Node24 -->
<g id="Node000024" class="node">
<title>Node24</title>
<g id="a_Node000024"><a xlink:href="cp15_8hpp.html" target="_top" xlink:title="This file defines coprocessor CP15.">
<polygon fill="white" stroke="#666666" points="1403.5,-277.5 1249.5,-277.5 1249.5,-258.5 1403.5,-258.5 1403.5,-277.5"/>
<text text-anchor="middle" x="1326.5" y="-265.5" font-family="Helvetica,sans-Serif" font-size="10.00">coprocessors/cp15/cp15.hpp</text>
</a>
</g>
</g>
<!-- Node23&#45;&gt;Node24 -->
<g id="edge28_Node000023_Node000024" class="edge">
<title>Node23&#45;&gt;Node24</title>
<g id="a_edge28_Node000023_Node000024"><a xlink:title=" ">
<path fill="none" stroke="#63b8ff" d="M1101.29,-324.44C1148,-312.94 1230.98,-292.51 1282.13,-279.92"/>
<polygon fill="#63b8ff" stroke="#63b8ff" points="1283.04,-283.3 1291.91,-277.51 1281.36,-276.51 1283.04,-283.3"/>
</a>
</g>
</g>
<!-- Node31 -->
<g id="Node000031" class="node">
<title>Node31</title>
<g id="a_Node000031"><a xlink:href="peripheral_8hpp.html" target="_top" xlink:title="This file defines an interface for a memory&#45;mapped peripheral.">
<polygon fill="white" stroke="#666666" points="1053,-277.5 908,-277.5 908,-258.5 1053,-258.5 1053,-277.5"/>
<text text-anchor="middle" x="980.5" y="-265.5" font-family="Helvetica,sans-Serif" font-size="10.00">peripherals/peripheral.hpp</text>
</a>
</g>
</g>
<!-- Node23&#45;&gt;Node31 -->
<g id="edge44_Node000023_Node000031" class="edge">
<title>Node23&#45;&gt;Node31</title>
<g id="a_edge44_Node000023_Node000031"><a xlink:title=" ">
<path fill="none" stroke="#63b8ff" d="M1054.9,-324.37C1040.92,-313.97 1017.21,-296.32 1000.32,-283.75"/>
<polygon fill="#63b8ff" stroke="#63b8ff" points="1002.3,-280.86 992.19,-277.7 998.12,-286.48 1002.3,-280.86"/>
</a>
</g>
</g>
<!-- Node32 -->
<g id="Node000032" class="node">
<title>Node32</title>
<g id="a_Node000032"><a xlink:href="exceptions_8hpp.html" target="_top" xlink:title="This file defines all exceptions that can be thrown by the CPU during execution.">
<polygon fill="white" stroke="#666666" points="1231.5,-277.5 1071.5,-277.5 1071.5,-258.5 1231.5,-258.5 1231.5,-277.5"/>
<text text-anchor="middle" x="1151.5" y="-265.5" font-family="Helvetica,sans-Serif" font-size="10.00">arm1176jzf_s/exceptions.hpp</text>
</a>
</g>
</g>
<!-- Node23&#45;&gt;Node32 -->
<g id="edge45_Node000023_Node000032" class="edge">
<title>Node23&#45;&gt;Node32</title>
<g id="a_edge45_Node000023_Node000032"><a xlink:title=" ">
<path fill="none" stroke="#63b8ff" d="M1077.96,-324.37C1091.78,-313.97 1115.21,-296.32 1131.91,-283.75"/>
<polygon fill="#63b8ff" stroke="#63b8ff" points="1134.06,-286.51 1139.95,-277.7 1129.85,-280.92 1134.06,-286.51"/>
</a>
</g>
</g>
<!-- Node24&#45;&gt;Node15 -->
<g id="edge43_Node000024_Node000015" class="edge">
<title>Node24&#45;&gt;Node15</title>
<g id="a_edge43_Node000024_Node000015"><a xlink:title=" ">
<path fill="none" stroke="#63b8ff" d="M1281.06,-258.48C1225.05,-247.56 1135.95,-228.64 1125.5,-217 1095.53,-183.62 1097.23,-127.48 1101.28,-95.41"/>
<polygon fill="#63b8ff" stroke="#63b8ff" points="1104.8,-95.55 1102.76,-85.15 1097.87,-94.55 1104.8,-95.55"/>
</a>
</g>
</g>
<!-- Node24&#45;&gt;Node17 -->
<g id="edge42_Node000024_Node000017" class="edge">
<title>Node24&#45;&gt;Node17</title>
<g id="a_edge42_Node000024_Node000017"><a xlink:title=" ">
<path fill="none" stroke="#63b8ff" d="M1276.54,-258.43C1264.74,-256.53 1252.19,-254.6 1240.5,-253 1121.71,-236.72 982.4,-222.22 903.78,-214.47"/>
<polygon fill="#63b8ff" stroke="#63b8ff" points="903.86,-210.96 893.57,-213.46 903.18,-217.92 903.86,-210.96"/>
</a>
</g>
</g>
<!-- Node25 -->
<g id="Node000025" class="node">
<title>Node25</title>
<g id="a_Node000025"><a xlink:href="c1_8hpp.html" target="_top" xlink:title="This file defines the primary register C1 of coprocessor CP15.">
<polygon fill="white" stroke="#666666" points="1183,-217 1134,-217 1134,-198 1183,-198 1183,-217"/>
<text text-anchor="middle" x="1158.5" y="-205" font-family="Helvetica,sans-Serif" font-size="10.00">c1.hpp</text>
</a>
</g>
</g>
<!-- Node24&#45;&gt;Node25 -->
<g id="edge29_Node000024_Node000025" class="edge">
<title>Node24&#45;&gt;Node25</title>
<g id="a_edge29_Node000024_Node000025"><a xlink:title=" ">
<path fill="none" stroke="#63b8ff" d="M1302.07,-258.49C1273.21,-248.44 1225,-231.66 1192.5,-220.34"/>
<polygon fill="#63b8ff" stroke="#63b8ff" points="1193.55,-217 1182.96,-217.02 1191.25,-223.61 1193.55,-217"/>
</a>
</g>
</g>
<!-- Node26 -->
<g id="Node000026" class="node">
<title>Node26</title>
<g id="a_Node000026"><a xlink:href="primary__reg_8hpp.html" target="_top" xlink:title="This file defines a primary register interface of coprocessor CP15.">
<polygon fill="white" stroke="#666666" points="1341,-151 1244,-151 1244,-132 1341,-132 1341,-151"/>
<text text-anchor="middle" x="1292.5" y="-139" font-family="Helvetica,sans-Serif" font-size="10.00">primary_reg.hpp</text>
</a>
</g>
</g>
<!-- Node24&#45;&gt;Node26 -->
<g id="edge41_Node000024_Node000026" class="edge">
<title>Node24&#45;&gt;Node26</title>
<g id="a_edge41_Node000024_Node000026"><a xlink:title=" ">
<path fill="none" stroke="#63b8ff" d="M1384.61,-258.42C1430.82,-248.99 1484.11,-230.66 1460.5,-198 1435.83,-163.87 1389.39,-150.38 1351.58,-145.21"/>
<polygon fill="#63b8ff" stroke="#63b8ff" points="1351.52,-141.67 1341.17,-143.96 1350.69,-148.62 1351.52,-141.67"/>
</a>
</g>
</g>
<!-- Node27 -->
<g id="Node000027" class="node">
<title>Node27</title>
<g id="a_Node000027"><a xlink:href="c2_8hpp.html" target="_top" xlink:title="This file defines the primary register C2 of coprocessor CP15.">
<polygon fill="white" stroke="#666666" points="1250,-217 1201,-217 1201,-198 1250,-198 1250,-217"/>
<text text-anchor="middle" x="1225.5" y="-205" font-family="Helvetica,sans-Serif" font-size="10.00">c2.hpp</text>
</a>
</g>
</g>
<!-- Node24&#45;&gt;Node27 -->
<g id="edge33_Node000024_Node000027" class="edge">
<title>Node24&#45;&gt;Node27</title>
<g id="a_edge33_Node000024_Node000027"><a xlink:title=" ">
<path fill="none" stroke="#63b8ff" d="M1311.6,-258.37C1295.19,-248.86 1268.57,-233.45 1249.27,-222.27"/>
<polygon fill="#63b8ff" stroke="#63b8ff" points="1250.87,-219.15 1240.46,-217.17 1247.36,-225.21 1250.87,-219.15"/>
</a>
</g>
</g>
<!-- Node28 -->
<g id="Node000028" class="node">
<title>Node28</title>
<g id="a_Node000028"><a xlink:href="c3_8hpp.html" target="_top" xlink:title="This file defines the primary register C3 of coprocessor CP15.">
<polygon fill="white" stroke="#666666" points="1317,-217 1268,-217 1268,-198 1317,-198 1317,-217"/>
<text text-anchor="middle" x="1292.5" y="-205" font-family="Helvetica,sans-Serif" font-size="10.00">c3.hpp</text>
</a>
</g>
</g>
<!-- Node24&#45;&gt;Node28 -->
<g id="edge35_Node000024_Node000028" class="edge">
<title>Node24&#45;&gt;Node28</title>
<g id="a_edge35_Node000024_Node000028"><a xlink:title=" ">
<path fill="none" stroke="#63b8ff" d="M1321.48,-258.37C1316.56,-249.9 1308.91,-236.74 1302.71,-226.07"/>
<polygon fill="#63b8ff" stroke="#63b8ff" points="1305.59,-224.05 1297.54,-217.17 1299.54,-227.57 1305.59,-224.05"/>
</a>
</g>
</g>
<!-- Node29 -->
<g id="Node000029" class="node">
<title>Node29</title>
<g id="a_Node000029"><a xlink:href="c7_8hpp.html" target="_top" xlink:title="This file defines the primary register C7 of coprocessor CP15.">
<polygon fill="white" stroke="#666666" points="1384,-217 1335,-217 1335,-198 1384,-198 1384,-217"/>
<text text-anchor="middle" x="1359.5" y="-205" font-family="Helvetica,sans-Serif" font-size="10.00">c7.hpp</text>
</a>
</g>
</g>
<!-- Node24&#45;&gt;Node29 -->
<g id="edge37_Node000024_Node000029" class="edge">
<title>Node24&#45;&gt;Node29</title>
<g id="a_edge37_Node000024_Node000029"><a xlink:title=" ">
<path fill="none" stroke="#63b8ff" d="M1331.37,-258.37C1336.15,-249.9 1343.57,-236.74 1349.59,-226.07"/>
<polygon fill="#63b8ff" stroke="#63b8ff" points="1352.75,-227.6 1354.61,-217.17 1346.65,-224.16 1352.75,-227.6"/>
</a>
</g>
</g>
<!-- Node30 -->
<g id="Node000030" class="node">
<title>Node30</title>
<g id="a_Node000030"><a xlink:href="c8_8hpp.html" target="_top" xlink:title="This file defines the primary register C8 of coprocessor CP15.">
<polygon fill="white" stroke="#666666" points="1451,-217 1402,-217 1402,-198 1451,-198 1451,-217"/>
<text text-anchor="middle" x="1426.5" y="-205" font-family="Helvetica,sans-Serif" font-size="10.00">c8.hpp</text>
</a>
</g>
</g>
<!-- Node24&#45;&gt;Node30 -->
<g id="edge39_Node000024_Node000030" class="edge">
<title>Node24&#45;&gt;Node30</title>
<g id="a_edge39_Node000024_Node000030"><a xlink:title=" ">
<path fill="none" stroke="#63b8ff" d="M1341.26,-258.37C1357.5,-248.86 1383.85,-233.45 1402.96,-222.27"/>
<polygon fill="#63b8ff" stroke="#63b8ff" points="1404.82,-225.24 1411.68,-217.17 1401.29,-219.2 1404.82,-225.24"/>
</a>
</g>
</g>
<!-- Node25&#45;&gt;Node15 -->
<g id="edge32_Node000025_Node000015" class="edge">
<title>Node25&#45;&gt;Node15</title>
<g id="a_edge32_Node000025_Node000015"><a xlink:title=" ">
<path fill="none" stroke="#63b8ff" d="M1155.02,-197.61C1146.95,-176.98 1126.73,-125.29 1114.78,-94.71"/>
<polygon fill="#63b8ff" stroke="#63b8ff" points="1117.97,-93.27 1111.07,-85.23 1111.45,-95.82 1117.97,-93.27"/>
</a>
</g>
</g>
<!-- Node25&#45;&gt;Node26 -->
<g id="edge30_Node000025_Node000026" class="edge">
<title>Node25&#45;&gt;Node26</title>
<g id="a_edge30_Node000025_Node000026"><a xlink:title=" ">
<path fill="none" stroke="#63b8ff" d="M1176.57,-197.87C1199.35,-186.99 1238.72,-168.19 1265.18,-155.55"/>
<polygon fill="#63b8ff" stroke="#63b8ff" points="1266.77,-158.67 1274.29,-151.2 1263.75,-152.35 1266.77,-158.67"/>
</a>
</g>
</g>
<!-- Node26&#45;&gt;Node15 -->
<g id="edge31_Node000026_Node000015" class="edge">
<title>Node26&#45;&gt;Node15</title>
<g id="a_edge31_Node000026_Node000015"><a xlink:title=" ">
<path fill="none" stroke="#63b8ff" d="M1269.57,-131.98C1240.65,-121.23 1190.2,-102.48 1152.86,-88.6"/>
<polygon fill="#63b8ff" stroke="#63b8ff" points="1153.78,-85.21 1143.19,-85.01 1151.34,-91.77 1153.78,-85.21"/>
</a>
</g>
</g>
<!-- Node27&#45;&gt;Node26 -->
<g id="edge34_Node000027_Node000026" class="edge">
<title>Node27&#45;&gt;Node26</title>
<g id="a_edge34_Node000027_Node000026"><a xlink:title=" ">
<path fill="none" stroke="#63b8ff" d="M1234.54,-197.87C1245.07,-187.81 1262.69,-170.98 1275.74,-158.51"/>
<polygon fill="#63b8ff" stroke="#63b8ff" points="1278.36,-160.84 1283.18,-151.41 1273.53,-155.78 1278.36,-160.84"/>
</a>
</g>
</g>
<!-- Node28&#45;&gt;Node26 -->
<g id="edge36_Node000028_Node000026" class="edge">
<title>Node28&#45;&gt;Node26</title>
<g id="a_edge36_Node000028_Node000026"><a xlink:title=" ">
<path fill="none" stroke="#63b8ff" d="M1292.5,-197.87C1292.5,-188.66 1292.5,-173.79 1292.5,-161.77"/>
<polygon fill="#63b8ff" stroke="#63b8ff" points="1296,-161.41 1292.5,-151.41 1289,-161.41 1296,-161.41"/>
</a>
</g>
</g>
<!-- Node29&#45;&gt;Node26 -->
<g id="edge38_Node000029_Node000026" class="edge">
<title>Node29&#45;&gt;Node26</title>
<g id="a_edge38_Node000029_Node000026"><a xlink:title=" ">
<path fill="none" stroke="#63b8ff" d="M1350.46,-197.87C1339.93,-187.81 1322.31,-170.98 1309.26,-158.51"/>
<polygon fill="#63b8ff" stroke="#63b8ff" points="1311.47,-155.78 1301.82,-151.41 1306.64,-160.84 1311.47,-155.78"/>
</a>
</g>
</g>
<!-- Node30&#45;&gt;Node26 -->
<g id="edge40_Node000030_Node000026" class="edge">
<title>Node30&#45;&gt;Node26</title>
<g id="a_edge40_Node000030_Node000026"><a xlink:title=" ">
<path fill="none" stroke="#63b8ff" d="M1408.43,-197.87C1385.65,-186.99 1346.28,-168.19 1319.82,-155.55"/>
<polygon fill="#63b8ff" stroke="#63b8ff" points="1321.25,-152.35 1310.71,-151.2 1318.23,-158.67 1321.25,-152.35"/>
</a>
</g>
</g>
<!-- Node32&#45;&gt;Node18 -->
<g id="edge47_Node000032_Node000018" class="edge">
<title>Node32&#45;&gt;Node18</title>
<g id="a_edge47_Node000032_Node000018"><a xlink:title=" ">
<path fill="none" stroke="#63b8ff" d="M1138.58,-258.44C1106.78,-237.39 1024.48,-182.88 985.11,-156.81"/>
<polygon fill="#63b8ff" stroke="#63b8ff" points="986.78,-153.72 976.51,-151.12 982.92,-159.56 986.78,-153.72"/>
</a>
</g>
</g>
<!-- Node33 -->
<g id="Node000033" class="node">
<title>Node33</title>
<g id="a_Node000033"><a xlink:title=" ">
<polygon fill="#e0e0e0" stroke="#999999" points="771,-217 692,-217 692,-198 771,-198 771,-217"/>
<text text-anchor="middle" x="731.5" y="-205" font-family="Helvetica,sans-Serif" font-size="10.00">fmt/format.h</text>
</a>
</g>
</g>
<!-- Node32&#45;&gt;Node33 -->
<g id="edge46_Node000032_Node000033" class="edge">
<title>Node32&#45;&gt;Node33</title>
<g id="a_edge46_Node000032_Node000033"><a xlink:title=" ">
<path fill="none" stroke="#63b8ff" d="M1098.83,-258.46C1086.89,-256.59 1074.27,-254.68 1062.5,-253 940.59,-235.63 907.13,-235.78 781.1,-217.02"/>
<polygon fill="#63b8ff" stroke="#63b8ff" points="781.46,-213.54 771.06,-215.52 780.43,-220.46 781.46,-213.54"/>
</a>
</g>
</g>
</g>
</svg>
