<?xml version="1.0" encoding="UTF-8" standalone="no"?>
<!DOCTYPE svg PUBLIC "-//W3C//DTD SVG 1.1//EN"
 "http://www.w3.org/Graphics/SVG/1.1/DTD/svg11.dtd">
<!-- Generated by graphviz version 2.43.0 (0)
 -->
<!-- Title: src/gui/windows/cp15_window.cpp Pages: 1 -->
<svg width="1260pt" height="412pt"
 viewBox="0.00 0.00 1259.50 412.00" xmlns="http://www.w3.org/2000/svg" xmlns:xlink="http://www.w3.org/1999/xlink">
<g id="graph0" class="graph" transform="scale(1 1) rotate(0) translate(4 408)">
<title>src/gui/windows/cp15_window.cpp</title>
<!-- Node1 -->
<g id="Node000001" class="node">
<title>Node1</title>
<g id="a_Node000001"><a xlink:title="This file implements a window that displays data (information) related to coprocessor 15.">
<polygon fill="#999999" stroke="#666666" points="208,-404 87,-404 87,-374 208,-374 208,-404"/>
<text text-anchor="start" x="95" y="-392" font-family="Helvetica,sans-Serif" font-size="10.00">src/gui/windows/cp15</text>
<text text-anchor="middle" x="147.5" y="-381" font-family="Helvetica,sans-Serif" font-size="10.00">_window.cpp</text>
</a>
</g>
</g>
<!-- Node2 -->
<g id="Node000002" class="node">
<title>Node2</title>
<g id="a_Node000002"><a xlink:title=" ">
<polygon fill="#e0e0e0" stroke="#999999" points="79,-338 0,-338 0,-319 79,-319 79,-338"/>
<text text-anchor="middle" x="39.5" y="-326" font-family="Helvetica,sans-Serif" font-size="10.00">fmt/format.h</text>
</a>
</g>
</g>
<!-- Node1&#45;&gt;Node2 -->
<g id="edge1_Node000001_Node000002" class="edge">
<title>Node1&#45;&gt;Node2</title>
<g id="a_edge1_Node000001_Node000002"><a xlink:title=" ">
<path fill="none" stroke="#63b8ff" d="M121.63,-373.99C104.26,-364.58 81.49,-352.24 64.33,-342.95"/>
<polygon fill="#63b8ff" stroke="#63b8ff" points="65.91,-339.82 55.45,-338.14 62.58,-345.98 65.91,-339.82"/>
</a>
</g>
</g>
<!-- Node3 -->
<g id="Node000003" class="node">
<title>Node3</title>
<g id="a_Node000003"><a xlink:title=" ">
<polygon fill="#e0e0e0" stroke="#999999" points="198,-338 97,-338 97,-319 198,-319 198,-338"/>
<text text-anchor="middle" x="147.5" y="-326" font-family="Helvetica,sans-Serif" font-size="10.00">magic_enum.hpp</text>
</a>
</g>
</g>
<!-- Node1&#45;&gt;Node3 -->
<g id="edge2_Node000001_Node000003" class="edge">
<title>Node1&#45;&gt;Node3</title>
<g id="a_edge2_Node000001_Node000003"><a xlink:title=" ">
<path fill="none" stroke="#63b8ff" d="M147.5,-373.84C147.5,-366.21 147.5,-356.7 147.5,-348.45"/>
<polygon fill="#63b8ff" stroke="#63b8ff" points="151,-348.27 147.5,-338.27 144,-348.27 151,-348.27"/>
</a>
</g>
</g>
<!-- Node4 -->
<g id="Node000004" class="node">
<title>Node4</title>
<g id="a_Node000004"><a xlink:href="cp15__window_8hpp.html" target="_top" xlink:title="This file defines a window that displays data (information) related to coprocessor 15.">
<polygon fill="white" stroke="#666666" points="319,-338 216,-338 216,-319 319,-319 319,-338"/>
<text text-anchor="middle" x="267.5" y="-326" font-family="Helvetica,sans-Serif" font-size="10.00">cp15_window.hpp</text>
</a>
</g>
</g>
<!-- Node1&#45;&gt;Node4 -->
<g id="edge3_Node000001_Node000004" class="edge">
<title>Node1&#45;&gt;Node4</title>
<g id="a_edge3_Node000001_Node000004"><a xlink:title=" ">
<path fill="none" stroke="#63b8ff" d="M176.24,-373.99C195.82,-364.45 221.55,-351.9 240.7,-342.57"/>
<polygon fill="#63b8ff" stroke="#63b8ff" points="242.32,-345.67 249.78,-338.14 239.26,-339.38 242.32,-345.67"/>
</a>
</g>
</g>
<!-- Node5 -->
<g id="Node000005" class="node">
<title>Node5</title>
<g id="a_Node000005"><a xlink:href="window_8hpp.html" target="_top" xlink:title="This file defines an interface for all windows that will be rendered by the application.">
<polygon fill="white" stroke="#666666" points="215,-277.5 132,-277.5 132,-258.5 215,-258.5 215,-277.5"/>
<text text-anchor="middle" x="173.5" y="-265.5" font-family="Helvetica,sans-Serif" font-size="10.00">../window.hpp</text>
</a>
</g>
</g>
<!-- Node4&#45;&gt;Node5 -->
<g id="edge4_Node000004_Node000005" class="edge">
<title>Node4&#45;&gt;Node5</title>
<g id="a_edge4_Node000004_Node000005"><a xlink:title=" ">
<path fill="none" stroke="#63b8ff" d="M253.63,-318.87C238.5,-309.45 214.04,-294.23 196.12,-283.08"/>
<polygon fill="#63b8ff" stroke="#63b8ff" points="197.77,-279.98 187.43,-277.67 194.07,-285.92 197.77,-279.98"/>
</a>
</g>
</g>
<!-- Node7 -->
<g id="Node000007" class="node">
<title>Node7</title>
<g id="a_Node000007"><a xlink:href="cp15_8hpp.html" target="_top" xlink:title="This file defines coprocessor CP15.">
<polygon fill="white" stroke="#666666" points="423.5,-283 301.5,-283 301.5,-253 423.5,-253 423.5,-283"/>
<text text-anchor="start" x="309.5" y="-271" font-family="Helvetica,sans-Serif" font-size="10.00">../../core/coprocessors</text>
<text text-anchor="middle" x="362.5" y="-260" font-family="Helvetica,sans-Serif" font-size="10.00">/cp15/cp15.hpp</text>
</a>
</g>
</g>
<!-- Node4&#45;&gt;Node7 -->
<g id="edge6_Node000004_Node000007" class="edge">
<title>Node4&#45;&gt;Node7</title>
<g id="a_edge6_Node000004_Node000007"><a xlink:title=" ">
<path fill="none" stroke="#63b8ff" d="M281.52,-318.87C294.41,-310.93 313.99,-298.87 330.67,-288.6"/>
<polygon fill="#63b8ff" stroke="#63b8ff" points="332.9,-291.34 339.58,-283.11 329.23,-285.38 332.9,-291.34"/>
</a>
</g>
</g>
<!-- Node6 -->
<g id="Node000006" class="node">
<title>Node6</title>
<g id="a_Node000006"><a xlink:title=" ">
<polygon fill="#e0e0e0" stroke="#999999" points="147.5,-217 63.5,-217 63.5,-198 147.5,-198 147.5,-217"/>
<text text-anchor="middle" x="105.5" y="-205" font-family="Helvetica,sans-Serif" font-size="10.00">imgui/imgui.h</text>
</a>
</g>
</g>
<!-- Node5&#45;&gt;Node6 -->
<g id="edge5_Node000005_Node000006" class="edge">
<title>Node5&#45;&gt;Node6</title>
<g id="a_edge5_Node000005_Node000006"><a xlink:title=" ">
<path fill="none" stroke="#63b8ff" d="M163.47,-258.37C152.92,-249.3 136.11,-234.84 123.31,-223.82"/>
<polygon fill="#63b8ff" stroke="#63b8ff" points="125.44,-221.04 115.57,-217.17 120.87,-226.34 125.44,-221.04"/>
</a>
</g>
</g>
<!-- Node8 -->
<g id="Node000008" class="node">
<title>Node8</title>
<g id="a_Node000008"><a xlink:href="c1_8hpp.html" target="_top" xlink:title="This file defines the primary register C1 of coprocessor CP15.">
<polygon fill="white" stroke="#666666" points="214,-217 165,-217 165,-198 214,-198 214,-217"/>
<text text-anchor="middle" x="189.5" y="-205" font-family="Helvetica,sans-Serif" font-size="10.00">c1.hpp</text>
</a>
</g>
</g>
<!-- Node7&#45;&gt;Node8 -->
<g id="edge7_Node000007_Node000008" class="edge">
<title>Node7&#45;&gt;Node8</title>
<g id="a_edge7_Node000007_Node000008"><a xlink:title=" ">
<path fill="none" stroke="#63b8ff" d="M321.06,-252.99C291.33,-242.93 251.73,-229.54 223.78,-220.09"/>
<polygon fill="#63b8ff" stroke="#63b8ff" points="224.64,-216.69 214.04,-216.8 222.39,-223.32 224.64,-216.69"/>
</a>
</g>
</g>
<!-- Node9 -->
<g id="Node000009" class="node">
<title>Node9</title>
<g id="a_Node000009"><a xlink:href="primary__reg_8hpp.html" target="_top" xlink:title="This file defines a primary register interface of coprocessor CP15.">
<polygon fill="white" stroke="#666666" points="411,-151 314,-151 314,-132 411,-132 411,-151"/>
<text text-anchor="middle" x="362.5" y="-139" font-family="Helvetica,sans-Serif" font-size="10.00">primary_reg.hpp</text>
</a>
</g>
</g>
<!-- Node7&#45;&gt;Node9 -->
<g id="edge20_Node000007_Node000009" class="edge">
<title>Node7&#45;&gt;Node9</title>
<g id="a_edge20_Node000007_Node000009"><a xlink:title=" ">
<path fill="none" stroke="#63b8ff" d="M308.25,-252.9C290.2,-245.34 272.03,-233.96 261.5,-217 243.43,-187.9 285.65,-166.44 320.92,-154.22"/>
<polygon fill="#63b8ff" stroke="#63b8ff" points="322.23,-157.47 330.63,-151.02 320.04,-150.82 322.23,-157.47"/>
</a>
</g>
</g>
<!-- Node10 -->
<g id="Node000010" class="node">
<title>Node10</title>
<g id="a_Node000010"><a xlink:href="logging__system_8hpp.html" target="_top" xlink:title="This file defines a logging system that is used in the project.">
<polygon fill="white" stroke="#666666" points="522,-85 391,-85 391,-55 522,-55 522,-85"/>
<text text-anchor="start" x="399" y="-73" font-family="Helvetica,sans-Serif" font-size="10.00">zero_mate/utils/logging</text>
<text text-anchor="middle" x="456.5" y="-62" font-family="Helvetica,sans-Serif" font-size="10.00">_system.hpp</text>
</a>
</g>
</g>
<!-- Node7&#45;&gt;Node10 -->
<g id="edge30_Node000007_Node000010" class="edge">
<title>Node7&#45;&gt;Node10</title>
<g id="a_edge30_Node000007_Node000010"><a xlink:title=" ">
<path fill="none" stroke="#63b8ff" d="M423.75,-256.66C466.24,-248.09 517.45,-234.5 530.5,-217 560.73,-176.47 513.19,-121.75 481.39,-92.15"/>
<polygon fill="#63b8ff" stroke="#63b8ff" points="483.46,-89.3 473.7,-85.19 478.76,-94.49 483.46,-89.3"/>
</a>
</g>
</g>
<!-- Node12 -->
<g id="Node000012" class="node">
<title>Node12</title>
<g id="a_Node000012"><a xlink:href="c2_8hpp.html" target="_top" xlink:title="This file defines the primary register C2 of coprocessor CP15.">
<polygon fill="white" stroke="#666666" points="320,-217 271,-217 271,-198 320,-198 320,-217"/>
<text text-anchor="middle" x="295.5" y="-205" font-family="Helvetica,sans-Serif" font-size="10.00">c2.hpp</text>
</a>
</g>
</g>
<!-- Node7&#45;&gt;Node12 -->
<g id="edge12_Node000007_Node000012" class="edge">
<title>Node7&#45;&gt;Node12</title>
<g id="a_edge12_Node000007_Node000012"><a xlink:title=" ">
<path fill="none" stroke="#63b8ff" d="M346.28,-252.84C336.26,-244.09 323.39,-232.85 313.12,-223.88"/>
<polygon fill="#63b8ff" stroke="#63b8ff" points="315.37,-221.21 305.54,-217.27 310.77,-226.48 315.37,-221.21"/>
</a>
</g>
</g>
<!-- Node13 -->
<g id="Node000013" class="node">
<title>Node13</title>
<g id="a_Node000013"><a xlink:href="c3_8hpp.html" target="_top" xlink:title="This file defines the primary register C3 of coprocessor CP15.">
<polygon fill="white" stroke="#666666" points="387,-217 338,-217 338,-198 387,-198 387,-217"/>
<text text-anchor="middle" x="362.5" y="-205" font-family="Helvetica,sans-Serif" font-size="10.00">c3.hpp</text>
</a>
</g>
</g>
<!-- Node7&#45;&gt;Node13 -->
<g id="edge14_Node000007_Node000013" class="edge">
<title>Node7&#45;&gt;Node13</title>
<g id="a_edge14_Node000007_Node000013"><a xlink:title=" ">
<path fill="none" stroke="#63b8ff" d="M362.5,-252.84C362.5,-245.21 362.5,-235.7 362.5,-227.45"/>
<polygon fill="#63b8ff" stroke="#63b8ff" points="366,-227.27 362.5,-217.27 359,-227.27 366,-227.27"/>
</a>
</g>
</g>
<!-- Node14 -->
<g id="Node000014" class="node">
<title>Node14</title>
<g id="a_Node000014"><a xlink:href="c7_8hpp.html" target="_top" xlink:title="This file defines the primary register C7 of coprocessor CP15.">
<polygon fill="white" stroke="#666666" points="454,-217 405,-217 405,-198 454,-198 454,-217"/>
<text text-anchor="middle" x="429.5" y="-205" font-family="Helvetica,sans-Serif" font-size="10.00">c7.hpp</text>
</a>
</g>
</g>
<!-- Node7&#45;&gt;Node14 -->
<g id="edge16_Node000007_Node000014" class="edge">
<title>Node7&#45;&gt;Node14</title>
<g id="a_edge16_Node000007_Node000014"><a xlink:title=" ">
<path fill="none" stroke="#63b8ff" d="M378.72,-252.84C388.74,-244.09 401.61,-232.85 411.88,-223.88"/>
<polygon fill="#63b8ff" stroke="#63b8ff" points="414.23,-226.48 419.46,-217.27 409.63,-221.21 414.23,-226.48"/>
</a>
</g>
</g>
<!-- Node15 -->
<g id="Node000015" class="node">
<title>Node15</title>
<g id="a_Node000015"><a xlink:href="c8_8hpp.html" target="_top" xlink:title="This file defines the primary register C8 of coprocessor CP15.">
<polygon fill="white" stroke="#666666" points="521,-217 472,-217 472,-198 521,-198 521,-217"/>
<text text-anchor="middle" x="496.5" y="-205" font-family="Helvetica,sans-Serif" font-size="10.00">c8.hpp</text>
</a>
</g>
</g>
<!-- Node7&#45;&gt;Node15 -->
<g id="edge18_Node000007_Node000015" class="edge">
<title>Node7&#45;&gt;Node15</title>
<g id="a_edge18_Node000007_Node000015"><a xlink:title=" ">
<path fill="none" stroke="#63b8ff" d="M394.6,-252.99C416.75,-243.31 445.98,-230.56 467.45,-221.18"/>
<polygon fill="#63b8ff" stroke="#63b8ff" points="468.95,-224.35 476.71,-217.14 466.15,-217.93 468.95,-224.35"/>
</a>
</g>
</g>
<!-- Node16 -->
<g id="Node000016" class="node">
<title>Node16</title>
<g id="a_Node000016"><a xlink:href="coprocessor_8hpp.html" target="_top" xlink:title="This file defines a general interface of a coprocessor.">
<polygon fill="white" stroke="#666666" points="860.5,-217 756.5,-217 756.5,-198 860.5,-198 860.5,-217"/>
<text text-anchor="middle" x="808.5" y="-205" font-family="Helvetica,sans-Serif" font-size="10.00">../coprocessor.hpp</text>
</a>
</g>
</g>
<!-- Node7&#45;&gt;Node16 -->
<g id="edge21_Node000007_Node000016" class="edge">
<title>Node7&#45;&gt;Node16</title>
<g id="a_edge21_Node000007_Node000016"><a xlink:title=" ">
<path fill="none" stroke="#63b8ff" d="M423.58,-258.99C508.4,-247.86 661.04,-227.84 746.4,-216.65"/>
<polygon fill="#63b8ff" stroke="#63b8ff" points="747.01,-220.1 756.47,-215.32 746.1,-213.16 747.01,-220.1"/>
</a>
</g>
</g>
<!-- Node8&#45;&gt;Node9 -->
<g id="edge8_Node000008_Node000009" class="edge">
<title>Node8&#45;&gt;Node9</title>
<g id="a_edge8_Node000008_Node000009"><a xlink:title=" ">
<path fill="none" stroke="#63b8ff" d="M212.83,-197.87C242.97,-186.72 295.59,-167.25 329.73,-154.62"/>
<polygon fill="#63b8ff" stroke="#63b8ff" points="331.1,-157.85 339.26,-151.1 328.67,-151.28 331.1,-157.85"/>
</a>
</g>
</g>
<!-- Node8&#45;&gt;Node10 -->
<g id="edge11_Node000008_Node000010" class="edge">
<title>Node8&#45;&gt;Node10</title>
<g id="a_edge11_Node000008_Node000010"><a xlink:title=" ">
<path fill="none" stroke="#63b8ff" d="M199.03,-197.81C218,-180.9 262.39,-143.3 305.5,-121 332.15,-107.21 363.38,-96.12 390.5,-87.92"/>
<polygon fill="#63b8ff" stroke="#63b8ff" points="391.69,-91.22 400.29,-85.03 389.71,-84.51 391.69,-91.22"/>
</a>
</g>
</g>
<!-- Node9&#45;&gt;Node10 -->
<g id="edge9_Node000009_Node000010" class="edge">
<title>Node9&#45;&gt;Node10</title>
<g id="a_edge9_Node000009_Node000010"><a xlink:title=" ">
<path fill="none" stroke="#63b8ff" d="M374.03,-131.98C387.59,-121.95 410.59,-104.95 428.85,-91.44"/>
<polygon fill="#63b8ff" stroke="#63b8ff" points="431.42,-93.9 437.38,-85.14 427.26,-88.27 431.42,-93.9"/>
</a>
</g>
</g>
<!-- Node11 -->
<g id="Node000011" class="node">
<title>Node11</title>
<g id="a_Node000011"><a xlink:href="logger_8hpp.html" target="_top" xlink:title="This file defines a general logger interface.">
<polygon fill="white" stroke="#666666" points="490.5,-19 422.5,-19 422.5,0 490.5,0 490.5,-19"/>
<text text-anchor="middle" x="456.5" y="-7" font-family="Helvetica,sans-Serif" font-size="10.00">logger.hpp</text>
</a>
</g>
</g>
<!-- Node10&#45;&gt;Node11 -->
<g id="edge10_Node000010_Node000011" class="edge">
<title>Node10&#45;&gt;Node11</title>
<g id="a_edge10_Node000010_Node000011"><a xlink:title=" ">
<path fill="none" stroke="#63b8ff" d="M456.5,-54.84C456.5,-47.21 456.5,-37.7 456.5,-29.45"/>
<polygon fill="#63b8ff" stroke="#63b8ff" points="460,-29.27 456.5,-19.27 453,-29.27 460,-29.27"/>
</a>
</g>
</g>
<!-- Node12&#45;&gt;Node9 -->
<g id="edge13_Node000012_Node000009" class="edge">
<title>Node12&#45;&gt;Node9</title>
<g id="a_edge13_Node000012_Node000009"><a xlink:title=" ">
<path fill="none" stroke="#63b8ff" d="M304.54,-197.87C315.07,-187.81 332.69,-170.98 345.74,-158.51"/>
<polygon fill="#63b8ff" stroke="#63b8ff" points="348.36,-160.84 353.18,-151.41 343.53,-155.78 348.36,-160.84"/>
</a>
</g>
</g>
<!-- Node13&#45;&gt;Node9 -->
<g id="edge15_Node000013_Node000009" class="edge">
<title>Node13&#45;&gt;Node9</title>
<g id="a_edge15_Node000013_Node000009"><a xlink:title=" ">
<path fill="none" stroke="#63b8ff" d="M362.5,-197.87C362.5,-188.66 362.5,-173.79 362.5,-161.77"/>
<polygon fill="#63b8ff" stroke="#63b8ff" points="366,-161.41 362.5,-151.41 359,-161.41 366,-161.41"/>
</a>
</g>
</g>
<!-- Node14&#45;&gt;Node9 -->
<g id="edge17_Node000014_Node000009" class="edge">
<title>Node14&#45;&gt;Node9</title>
<g id="a_edge17_Node000014_Node000009"><a xlink:title=" ">
<path fill="none" stroke="#63b8ff" d="M420.46,-197.87C409.93,-187.81 392.31,-170.98 379.26,-158.51"/>
<polygon fill="#63b8ff" stroke="#63b8ff" points="381.47,-155.78 371.82,-151.41 376.64,-160.84 381.47,-155.78"/>
</a>
</g>
</g>
<!-- Node15&#45;&gt;Node9 -->
<g id="edge19_Node000015_Node000009" class="edge">
<title>Node15&#45;&gt;Node9</title>
<g id="a_edge19_Node000015_Node000009"><a xlink:title=" ">
<path fill="none" stroke="#63b8ff" d="M478.43,-197.87C455.65,-186.99 416.28,-168.19 389.82,-155.55"/>
<polygon fill="#63b8ff" stroke="#63b8ff" points="391.25,-152.35 380.71,-151.2 388.23,-158.67 391.25,-152.35"/>
</a>
</g>
</g>
<!-- Node17 -->
<g id="Node000017" class="node">
<title>Node17</title>
<g id="a_Node000017"><a xlink:href="context_8hpp.html" target="_top" xlink:title="This file defines the context (registers) of the CPU.">
<polygon fill="white" stroke="#666666" points="729.5,-151 577.5,-151 577.5,-132 729.5,-132 729.5,-151"/>
<text text-anchor="middle" x="653.5" y="-139" font-family="Helvetica,sans-Serif" font-size="10.00">../arm1176jzf_s/context.hpp</text>
</a>
</g>
</g>
<!-- Node16&#45;&gt;Node17 -->
<g id="edge22_Node000016_Node000017" class="edge">
<title>Node16&#45;&gt;Node17</title>
<g id="a_edge22_Node000016_Node000017"><a xlink:title=" ">
<path fill="none" stroke="#63b8ff" d="M787.6,-197.87C760.9,-186.85 714.51,-167.69 683.91,-155.05"/>
<polygon fill="#63b8ff" stroke="#63b8ff" points="685.15,-151.78 674.57,-151.2 682.48,-158.25 685.15,-151.78"/>
</a>
</g>
</g>
<!-- Node18 -->
<g id="Node000018" class="node">
<title>Node18</title>
<g id="a_Node000018"><a xlink:href="coprocessor__register__transfer_8hpp.html" target="_top" xlink:title="This file defines a coprocessor register transfer (MRC, MCR).">
<polygon fill="white" stroke="#666666" points="869,-162 748,-162 748,-121 869,-121 869,-162"/>
<text text-anchor="start" x="756" y="-150" font-family="Helvetica,sans-Serif" font-size="10.00">../arm1176jzf_s/isa</text>
<text text-anchor="start" x="756" y="-139" font-family="Helvetica,sans-Serif" font-size="10.00">/coprocessor_register</text>
<text text-anchor="middle" x="808.5" y="-128" font-family="Helvetica,sans-Serif" font-size="10.00">_transfer.hpp</text>
</a>
</g>
</g>
<!-- Node16&#45;&gt;Node18 -->
<g id="edge24_Node000016_Node000018" class="edge">
<title>Node16&#45;&gt;Node18</title>
<g id="a_edge24_Node000016_Node000018"><a xlink:title=" ">
<path fill="none" stroke="#63b8ff" d="M808.5,-197.87C808.5,-191.22 808.5,-181.63 808.5,-172.28"/>
<polygon fill="#63b8ff" stroke="#63b8ff" points="812,-172.01 808.5,-162.01 805,-172.01 812,-172.01"/>
</a>
</g>
</g>
<!-- Node20 -->
<g id="Node000020" class="node">
<title>Node20</title>
<g id="a_Node000020"><a xlink:href="coprocessor__data__transfer_8hpp.html" target="_top" xlink:title="This file defines a coprocessor data transfer (LDC, STC).">
<polygon fill="white" stroke="#666666" points="1056,-156.5 887,-156.5 887,-126.5 1056,-126.5 1056,-156.5"/>
<text text-anchor="start" x="895" y="-144.5" font-family="Helvetica,sans-Serif" font-size="10.00">../arm1176jzf_s/isa</text>
<text text-anchor="middle" x="971.5" y="-133.5" font-family="Helvetica,sans-Serif" font-size="10.00">/coprocessor_data_transfer.hpp</text>
</a>
</g>
</g>
<!-- Node16&#45;&gt;Node20 -->
<g id="edge26_Node000016_Node000020" class="edge">
<title>Node16&#45;&gt;Node20</title>
<g id="a_edge26_Node000016_Node000020"><a xlink:title=" ">
<path fill="none" stroke="#63b8ff" d="M830.48,-197.87C854.9,-188.28 894.98,-172.55 926.18,-160.3"/>
<polygon fill="#63b8ff" stroke="#63b8ff" points="927.52,-163.53 935.55,-156.62 924.96,-157.01 927.52,-163.53"/>
</a>
</g>
</g>
<!-- Node21 -->
<g id="Node000021" class="node">
<title>Node21</title>
<g id="a_Node000021"><a xlink:href="coprocessor__data__operation_8hpp.html" target="_top" xlink:title="This file defines a coprocessor data operation (CDP).">
<polygon fill="white" stroke="#666666" points="1251.5,-156.5 1073.5,-156.5 1073.5,-126.5 1251.5,-126.5 1251.5,-156.5"/>
<text text-anchor="start" x="1081.5" y="-144.5" font-family="Helvetica,sans-Serif" font-size="10.00">../arm1176jzf_s/isa</text>
<text text-anchor="middle" x="1162.5" y="-133.5" font-family="Helvetica,sans-Serif" font-size="10.00">/coprocessor_data_operation.hpp</text>
</a>
</g>
</g>
<!-- Node16&#45;&gt;Node21 -->
<g id="edge28_Node000016_Node000021" class="edge">
<title>Node16&#45;&gt;Node21</title>
<g id="a_edge28_Node000016_Node000021"><a xlink:title=" ">
<path fill="none" stroke="#63b8ff" d="M860.26,-197.96C912.21,-189.29 994.51,-175.28 1065.5,-162 1071.54,-160.87 1077.78,-159.68 1084.06,-158.46"/>
<polygon fill="#63b8ff" stroke="#63b8ff" points="1084.78,-161.88 1093.92,-156.53 1083.43,-155.01 1084.78,-161.88"/>
</a>
</g>
</g>
<!-- Node17&#45;&gt;Node10 -->
<g id="edge23_Node000017_Node000010" class="edge">
<title>Node17&#45;&gt;Node10</title>
<g id="a_edge23_Node000017_Node000010"><a xlink:title=" ">
<path fill="none" stroke="#63b8ff" d="M629.34,-131.98C598.75,-121.18 545.28,-102.32 505.89,-88.42"/>
<polygon fill="#63b8ff" stroke="#63b8ff" points="506.8,-85.03 496.2,-85.01 504.47,-91.63 506.8,-85.03"/>
</a>
</g>
</g>
<!-- Node19 -->
<g id="Node000019" class="node">
<title>Node19</title>
<g id="a_Node000019"><a xlink:href="instruction_8hpp.html" target="_top" xlink:title="This file defines the interface of a general ARM instruction.">
<polygon fill="white" stroke="#666666" points="1016,-79.5 927,-79.5 927,-60.5 1016,-60.5 1016,-79.5"/>
<text text-anchor="middle" x="971.5" y="-67.5" font-family="Helvetica,sans-Serif" font-size="10.00">instruction.hpp</text>
</a>
</g>
</g>
<!-- Node18&#45;&gt;Node19 -->
<g id="edge25_Node000018_Node000019" class="edge">
<title>Node18&#45;&gt;Node19</title>
<g id="a_edge25_Node000018_Node000019"><a xlink:title=" ">
<path fill="none" stroke="#63b8ff" d="M854.34,-120.96C882.48,-108.96 917.68,-93.95 942.12,-83.53"/>
<polygon fill="#63b8ff" stroke="#63b8ff" points="943.73,-86.65 951.56,-79.5 940.98,-80.21 943.73,-86.65"/>
</a>
</g>
</g>
<!-- Node20&#45;&gt;Node19 -->
<g id="edge27_Node000020_Node000019" class="edge">
<title>Node20&#45;&gt;Node19</title>
<g id="a_edge27_Node000020_Node000019"><a xlink:title=" ">
<path fill="none" stroke="#63b8ff" d="M971.5,-126.44C971.5,-115.96 971.5,-101.55 971.5,-90.05"/>
<polygon fill="#63b8ff" stroke="#63b8ff" points="975,-89.77 971.5,-79.77 968,-89.77 975,-89.77"/>
</a>
</g>
</g>
<!-- Node21&#45;&gt;Node19 -->
<g id="edge29_Node000021_Node000019" class="edge">
<title>Node21&#45;&gt;Node19</title>
<g id="a_edge29_Node000021_Node000019"><a xlink:title=" ">
<path fill="none" stroke="#63b8ff" d="M1123.85,-126.44C1088.88,-113.71 1037.92,-95.17 1004.74,-83.09"/>
<polygon fill="#63b8ff" stroke="#63b8ff" points="1005.64,-79.7 995.05,-79.57 1003.25,-86.28 1005.64,-79.7"/>
</a>
</g>
</g>
</g>
</svg>
