<?xml version="1.0" encoding="UTF-8" standalone="no"?>
<!DOCTYPE svg PUBLIC "-//W3C//DTD SVG 1.1//EN"
 "http://www.w3.org/Graphics/SVG/1.1/DTD/svg11.dtd">
<!-- Generated by graphviz version 2.43.0 (0)
 -->
<!-- Title: src/gui/windows/cp15_window.hpp Pages: 1 -->
<svg width="1196pt" height="357pt"
 viewBox="0.00 0.00 1196.00 357.00" xmlns="http://www.w3.org/2000/svg" xmlns:xlink="http://www.w3.org/1999/xlink">
<g id="graph0" class="graph" transform="scale(1 1) rotate(0) translate(4 353)">
<title>src/gui/windows/cp15_window.hpp</title>
<!-- Node1 -->
<g id="Node000001" class="node">
<title>Node1</title>
<g id="a_Node000001"><a xlink:title="This file defines a window that displays data (information) related to coprocessor 15.">
<polygon fill="#999999" stroke="#666666" points="230.5,-349 109.5,-349 109.5,-319 230.5,-319 230.5,-349"/>
<text text-anchor="start" x="117.5" y="-337" font-family="Helvetica,sans-Serif" font-size="10.00">src/gui/windows/cp15</text>
<text text-anchor="middle" x="170" y="-326" font-family="Helvetica,sans-Serif" font-size="10.00">_window.hpp</text>
</a>
</g>
</g>
<!-- Node2 -->
<g id="Node000002" class="node">
<title>Node2</title>
<g id="a_Node000002"><a xlink:href="window_8hpp.html" target="_top" xlink:title="This file defines an interface for all windows that will be rendered by the application.">
<polygon fill="white" stroke="#666666" points="151.5,-277.5 68.5,-277.5 68.5,-258.5 151.5,-258.5 151.5,-277.5"/>
<text text-anchor="middle" x="110" y="-265.5" font-family="Helvetica,sans-Serif" font-size="10.00">../window.hpp</text>
</a>
</g>
</g>
<!-- Node1&#45;&gt;Node2 -->
<g id="edge1_Node000001_Node000002" class="edge">
<title>Node1&#45;&gt;Node2</title>
<g id="a_edge1_Node000001_Node000002"><a xlink:title=" ">
<path fill="none" stroke="#63b8ff" d="M156.68,-318.8C147.42,-308.92 135.05,-295.72 125.37,-285.39"/>
<polygon fill="#63b8ff" stroke="#63b8ff" points="127.68,-282.75 118.29,-277.84 122.58,-287.53 127.68,-282.75"/>
</a>
</g>
</g>
<!-- Node4 -->
<g id="Node000004" class="node">
<title>Node4</title>
<g id="a_Node000004"><a xlink:href="cp15_8hpp.html" target="_top" xlink:title="This file defines coprocessor CP15.">
<polygon fill="white" stroke="#666666" points="360,-283 238,-283 238,-253 360,-253 360,-283"/>
<text text-anchor="start" x="246" y="-271" font-family="Helvetica,sans-Serif" font-size="10.00">../../core/coprocessors</text>
<text text-anchor="middle" x="299" y="-260" font-family="Helvetica,sans-Serif" font-size="10.00">/cp15/cp15.hpp</text>
</a>
</g>
</g>
<!-- Node1&#45;&gt;Node4 -->
<g id="edge3_Node000001_Node000004" class="edge">
<title>Node1&#45;&gt;Node4</title>
<g id="a_edge3_Node000001_Node000004"><a xlink:title=" ">
<path fill="none" stroke="#63b8ff" d="M198.31,-318.95C216.88,-309.74 241.36,-297.6 261.54,-287.59"/>
<polygon fill="#63b8ff" stroke="#63b8ff" points="263.35,-290.59 270.76,-283.01 260.24,-284.32 263.35,-290.59"/>
</a>
</g>
</g>
<!-- Node3 -->
<g id="Node000003" class="node">
<title>Node3</title>
<g id="a_Node000003"><a xlink:title=" ">
<polygon fill="#e0e0e0" stroke="#999999" points="84,-217 0,-217 0,-198 84,-198 84,-217"/>
<text text-anchor="middle" x="42" y="-205" font-family="Helvetica,sans-Serif" font-size="10.00">imgui/imgui.h</text>
</a>
</g>
</g>
<!-- Node2&#45;&gt;Node3 -->
<g id="edge2_Node000002_Node000003" class="edge">
<title>Node2&#45;&gt;Node3</title>
<g id="a_edge2_Node000002_Node000003"><a xlink:title=" ">
<path fill="none" stroke="#63b8ff" d="M99.97,-258.37C89.42,-249.3 72.61,-234.84 59.81,-223.82"/>
<polygon fill="#63b8ff" stroke="#63b8ff" points="61.94,-221.04 52.07,-217.17 57.37,-226.34 61.94,-221.04"/>
</a>
</g>
</g>
<!-- Node5 -->
<g id="Node000005" class="node">
<title>Node5</title>
<g id="a_Node000005"><a xlink:href="c1_8hpp.html" target="_top" xlink:title="This file defines the primary register C1 of coprocessor CP15.">
<polygon fill="white" stroke="#666666" points="150.5,-217 101.5,-217 101.5,-198 150.5,-198 150.5,-217"/>
<text text-anchor="middle" x="126" y="-205" font-family="Helvetica,sans-Serif" font-size="10.00">c1.hpp</text>
</a>
</g>
</g>
<!-- Node4&#45;&gt;Node5 -->
<g id="edge4_Node000004_Node000005" class="edge">
<title>Node4&#45;&gt;Node5</title>
<g id="a_edge4_Node000004_Node000005"><a xlink:title=" ">
<path fill="none" stroke="#63b8ff" d="M257.56,-252.99C227.83,-242.93 188.23,-229.54 160.28,-220.09"/>
<polygon fill="#63b8ff" stroke="#63b8ff" points="161.14,-216.69 150.54,-216.8 158.89,-223.32 161.14,-216.69"/>
</a>
</g>
</g>
<!-- Node6 -->
<g id="Node000006" class="node">
<title>Node6</title>
<g id="a_Node000006"><a xlink:href="primary__reg_8hpp.html" target="_top" xlink:title="This file defines a primary register interface of coprocessor CP15.">
<polygon fill="white" stroke="#666666" points="347.5,-151 250.5,-151 250.5,-132 347.5,-132 347.5,-151"/>
<text text-anchor="middle" x="299" y="-139" font-family="Helvetica,sans-Serif" font-size="10.00">primary_reg.hpp</text>
</a>
</g>
</g>
<!-- Node4&#45;&gt;Node6 -->
<g id="edge17_Node000004_Node000006" class="edge">
<title>Node4&#45;&gt;Node6</title>
<g id="a_edge17_Node000004_Node000006"><a xlink:title=" ">
<path fill="none" stroke="#63b8ff" d="M244.75,-252.9C226.7,-245.34 208.53,-233.96 198,-217 179.93,-187.9 222.15,-166.44 257.42,-154.22"/>
<polygon fill="#63b8ff" stroke="#63b8ff" points="258.73,-157.47 267.13,-151.02 256.54,-150.82 258.73,-157.47"/>
</a>
</g>
</g>
<!-- Node7 -->
<g id="Node000007" class="node">
<title>Node7</title>
<g id="a_Node000007"><a xlink:href="logging__system_8hpp.html" target="_top" xlink:title="This file defines a logging system that is used in the project.">
<polygon fill="white" stroke="#666666" points="458.5,-85 327.5,-85 327.5,-55 458.5,-55 458.5,-85"/>
<text text-anchor="start" x="335.5" y="-73" font-family="Helvetica,sans-Serif" font-size="10.00">zero_mate/utils/logging</text>
<text text-anchor="middle" x="393" y="-62" font-family="Helvetica,sans-Serif" font-size="10.00">_system.hpp</text>
</a>
</g>
</g>
<!-- Node4&#45;&gt;Node7 -->
<g id="edge27_Node000004_Node000007" class="edge">
<title>Node4&#45;&gt;Node7</title>
<g id="a_edge27_Node000004_Node000007"><a xlink:title=" ">
<path fill="none" stroke="#63b8ff" d="M360.25,-256.66C402.74,-248.09 453.95,-234.5 467,-217 497.23,-176.47 449.69,-121.75 417.89,-92.15"/>
<polygon fill="#63b8ff" stroke="#63b8ff" points="419.96,-89.3 410.2,-85.19 415.26,-94.49 419.96,-89.3"/>
</a>
</g>
</g>
<!-- Node9 -->
<g id="Node000009" class="node">
<title>Node9</title>
<g id="a_Node000009"><a xlink:href="c2_8hpp.html" target="_top" xlink:title="This file defines the primary register C2 of coprocessor CP15.">
<polygon fill="white" stroke="#666666" points="256.5,-217 207.5,-217 207.5,-198 256.5,-198 256.5,-217"/>
<text text-anchor="middle" x="232" y="-205" font-family="Helvetica,sans-Serif" font-size="10.00">c2.hpp</text>
</a>
</g>
</g>
<!-- Node4&#45;&gt;Node9 -->
<g id="edge9_Node000004_Node000009" class="edge">
<title>Node4&#45;&gt;Node9</title>
<g id="a_edge9_Node000004_Node000009"><a xlink:title=" ">
<path fill="none" stroke="#63b8ff" d="M282.78,-252.84C272.76,-244.09 259.89,-232.85 249.62,-223.88"/>
<polygon fill="#63b8ff" stroke="#63b8ff" points="251.87,-221.21 242.04,-217.27 247.27,-226.48 251.87,-221.21"/>
</a>
</g>
</g>
<!-- Node10 -->
<g id="Node000010" class="node">
<title>Node10</title>
<g id="a_Node000010"><a xlink:href="c3_8hpp.html" target="_top" xlink:title="This file defines the primary register C3 of coprocessor CP15.">
<polygon fill="white" stroke="#666666" points="323.5,-217 274.5,-217 274.5,-198 323.5,-198 323.5,-217"/>
<text text-anchor="middle" x="299" y="-205" font-family="Helvetica,sans-Serif" font-size="10.00">c3.hpp</text>
</a>
</g>
</g>
<!-- Node4&#45;&gt;Node10 -->
<g id="edge11_Node000004_Node000010" class="edge">
<title>Node4&#45;&gt;Node10</title>
<g id="a_edge11_Node000004_Node000010"><a xlink:title=" ">
<path fill="none" stroke="#63b8ff" d="M299,-252.84C299,-245.21 299,-235.7 299,-227.45"/>
<polygon fill="#63b8ff" stroke="#63b8ff" points="302.5,-227.27 299,-217.27 295.5,-227.27 302.5,-227.27"/>
</a>
</g>
</g>
<!-- Node11 -->
<g id="Node000011" class="node">
<title>Node11</title>
<g id="a_Node000011"><a xlink:href="c7_8hpp.html" target="_top" xlink:title="This file defines the primary register C7 of coprocessor CP15.">
<polygon fill="white" stroke="#666666" points="390.5,-217 341.5,-217 341.5,-198 390.5,-198 390.5,-217"/>
<text text-anchor="middle" x="366" y="-205" font-family="Helvetica,sans-Serif" font-size="10.00">c7.hpp</text>
</a>
</g>
</g>
<!-- Node4&#45;&gt;Node11 -->
<g id="edge13_Node000004_Node000011" class="edge">
<title>Node4&#45;&gt;Node11</title>
<g id="a_edge13_Node000004_Node000011"><a xlink:title=" ">
<path fill="none" stroke="#63b8ff" d="M315.22,-252.84C325.24,-244.09 338.11,-232.85 348.38,-223.88"/>
<polygon fill="#63b8ff" stroke="#63b8ff" points="350.73,-226.48 355.96,-217.27 346.13,-221.21 350.73,-226.48"/>
</a>
</g>
</g>
<!-- Node12 -->
<g id="Node000012" class="node">
<title>Node12</title>
<g id="a_Node000012"><a xlink:href="c8_8hpp.html" target="_top" xlink:title="This file defines the primary register C8 of coprocessor CP15.">
<polygon fill="white" stroke="#666666" points="457.5,-217 408.5,-217 408.5,-198 457.5,-198 457.5,-217"/>
<text text-anchor="middle" x="433" y="-205" font-family="Helvetica,sans-Serif" font-size="10.00">c8.hpp</text>
</a>
</g>
</g>
<!-- Node4&#45;&gt;Node12 -->
<g id="edge15_Node000004_Node000012" class="edge">
<title>Node4&#45;&gt;Node12</title>
<g id="a_edge15_Node000004_Node000012"><a xlink:title=" ">
<path fill="none" stroke="#63b8ff" d="M331.1,-252.99C353.25,-243.31 382.48,-230.56 403.95,-221.18"/>
<polygon fill="#63b8ff" stroke="#63b8ff" points="405.45,-224.35 413.21,-217.14 402.65,-217.93 405.45,-224.35"/>
</a>
</g>
</g>
<!-- Node13 -->
<g id="Node000013" class="node">
<title>Node13</title>
<g id="a_Node000013"><a xlink:href="coprocessor_8hpp.html" target="_top" xlink:title="This file defines a general interface of a coprocessor.">
<polygon fill="white" stroke="#666666" points="797,-217 693,-217 693,-198 797,-198 797,-217"/>
<text text-anchor="middle" x="745" y="-205" font-family="Helvetica,sans-Serif" font-size="10.00">../coprocessor.hpp</text>
</a>
</g>
</g>
<!-- Node4&#45;&gt;Node13 -->
<g id="edge18_Node000004_Node000013" class="edge">
<title>Node4&#45;&gt;Node13</title>
<g id="a_edge18_Node000004_Node000013"><a xlink:title=" ">
<path fill="none" stroke="#63b8ff" d="M360.08,-258.99C444.9,-247.86 597.54,-227.84 682.9,-216.65"/>
<polygon fill="#63b8ff" stroke="#63b8ff" points="683.51,-220.1 692.97,-215.32 682.6,-213.16 683.51,-220.1"/>
</a>
</g>
</g>
<!-- Node5&#45;&gt;Node6 -->
<g id="edge5_Node000005_Node000006" class="edge">
<title>Node5&#45;&gt;Node6</title>
<g id="a_edge5_Node000005_Node000006"><a xlink:title=" ">
<path fill="none" stroke="#63b8ff" d="M149.33,-197.87C179.47,-186.72 232.09,-167.25 266.23,-154.62"/>
<polygon fill="#63b8ff" stroke="#63b8ff" points="267.6,-157.85 275.76,-151.1 265.17,-151.28 267.6,-157.85"/>
</a>
</g>
</g>
<!-- Node5&#45;&gt;Node7 -->
<g id="edge8_Node000005_Node000007" class="edge">
<title>Node5&#45;&gt;Node7</title>
<g id="a_edge8_Node000005_Node000007"><a xlink:title=" ">
<path fill="none" stroke="#63b8ff" d="M135.53,-197.81C154.5,-180.9 198.89,-143.3 242,-121 268.65,-107.21 299.88,-96.12 327,-87.92"/>
<polygon fill="#63b8ff" stroke="#63b8ff" points="328.19,-91.22 336.79,-85.03 326.21,-84.51 328.19,-91.22"/>
</a>
</g>
</g>
<!-- Node6&#45;&gt;Node7 -->
<g id="edge6_Node000006_Node000007" class="edge">
<title>Node6&#45;&gt;Node7</title>
<g id="a_edge6_Node000006_Node000007"><a xlink:title=" ">
<path fill="none" stroke="#63b8ff" d="M310.53,-131.98C324.09,-121.95 347.09,-104.95 365.35,-91.44"/>
<polygon fill="#63b8ff" stroke="#63b8ff" points="367.92,-93.9 373.88,-85.14 363.76,-88.27 367.92,-93.9"/>
</a>
</g>
</g>
<!-- Node8 -->
<g id="Node000008" class="node">
<title>Node8</title>
<g id="a_Node000008"><a xlink:href="logger_8hpp.html" target="_top" xlink:title="This file defines a general logger interface.">
<polygon fill="white" stroke="#666666" points="427,-19 359,-19 359,0 427,0 427,-19"/>
<text text-anchor="middle" x="393" y="-7" font-family="Helvetica,sans-Serif" font-size="10.00">logger.hpp</text>
</a>
</g>
</g>
<!-- Node7&#45;&gt;Node8 -->
<g id="edge7_Node000007_Node000008" class="edge">
<title>Node7&#45;&gt;Node8</title>
<g id="a_edge7_Node000007_Node000008"><a xlink:title=" ">
<path fill="none" stroke="#63b8ff" d="M393,-54.84C393,-47.21 393,-37.7 393,-29.45"/>
<polygon fill="#63b8ff" stroke="#63b8ff" points="396.5,-29.27 393,-19.27 389.5,-29.27 396.5,-29.27"/>
</a>
</g>
</g>
<!-- Node9&#45;&gt;Node6 -->
<g id="edge10_Node000009_Node000006" class="edge">
<title>Node9&#45;&gt;Node6</title>
<g id="a_edge10_Node000009_Node000006"><a xlink:title=" ">
<path fill="none" stroke="#63b8ff" d="M241.04,-197.87C251.57,-187.81 269.19,-170.98 282.24,-158.51"/>
<polygon fill="#63b8ff" stroke="#63b8ff" points="284.86,-160.84 289.68,-151.41 280.03,-155.78 284.86,-160.84"/>
</a>
</g>
</g>
<!-- Node10&#45;&gt;Node6 -->
<g id="edge12_Node000010_Node000006" class="edge">
<title>Node10&#45;&gt;Node6</title>
<g id="a_edge12_Node000010_Node000006"><a xlink:title=" ">
<path fill="none" stroke="#63b8ff" d="M299,-197.87C299,-188.66 299,-173.79 299,-161.77"/>
<polygon fill="#63b8ff" stroke="#63b8ff" points="302.5,-161.41 299,-151.41 295.5,-161.41 302.5,-161.41"/>
</a>
</g>
</g>
<!-- Node11&#45;&gt;Node6 -->
<g id="edge14_Node000011_Node000006" class="edge">
<title>Node11&#45;&gt;Node6</title>
<g id="a_edge14_Node000011_Node000006"><a xlink:title=" ">
<path fill="none" stroke="#63b8ff" d="M356.96,-197.87C346.43,-187.81 328.81,-170.98 315.76,-158.51"/>
<polygon fill="#63b8ff" stroke="#63b8ff" points="317.97,-155.78 308.32,-151.41 313.14,-160.84 317.97,-155.78"/>
</a>
</g>
</g>
<!-- Node12&#45;&gt;Node6 -->
<g id="edge16_Node000012_Node000006" class="edge">
<title>Node12&#45;&gt;Node6</title>
<g id="a_edge16_Node000012_Node000006"><a xlink:title=" ">
<path fill="none" stroke="#63b8ff" d="M414.93,-197.87C392.15,-186.99 352.78,-168.19 326.32,-155.55"/>
<polygon fill="#63b8ff" stroke="#63b8ff" points="327.75,-152.35 317.21,-151.2 324.73,-158.67 327.75,-152.35"/>
</a>
</g>
</g>
<!-- Node14 -->
<g id="Node000014" class="node">
<title>Node14</title>
<g id="a_Node000014"><a xlink:href="context_8hpp.html" target="_top" xlink:title="This file defines the context (registers) of the CPU.">
<polygon fill="white" stroke="#666666" points="666,-151 514,-151 514,-132 666,-132 666,-151"/>
<text text-anchor="middle" x="590" y="-139" font-family="Helvetica,sans-Serif" font-size="10.00">../arm1176jzf_s/context.hpp</text>
</a>
</g>
</g>
<!-- Node13&#45;&gt;Node14 -->
<g id="edge19_Node000013_Node000014" class="edge">
<title>Node13&#45;&gt;Node14</title>
<g id="a_edge19_Node000013_Node000014"><a xlink:title=" ">
<path fill="none" stroke="#63b8ff" d="M724.1,-197.87C697.4,-186.85 651.01,-167.69 620.41,-155.05"/>
<polygon fill="#63b8ff" stroke="#63b8ff" points="621.65,-151.78 611.07,-151.2 618.98,-158.25 621.65,-151.78"/>
</a>
</g>
</g>
<!-- Node15 -->
<g id="Node000015" class="node">
<title>Node15</title>
<g id="a_Node000015"><a xlink:href="coprocessor__register__transfer_8hpp.html" target="_top" xlink:title="This file defines a coprocessor register transfer (MRC, MCR).">
<polygon fill="white" stroke="#666666" points="805.5,-162 684.5,-162 684.5,-121 805.5,-121 805.5,-162"/>
<text text-anchor="start" x="692.5" y="-150" font-family="Helvetica,sans-Serif" font-size="10.00">../arm1176jzf_s/isa</text>
<text text-anchor="start" x="692.5" y="-139" font-family="Helvetica,sans-Serif" font-size="10.00">/coprocessor_register</text>
<text text-anchor="middle" x="745" y="-128" font-family="Helvetica,sans-Serif" font-size="10.00">_transfer.hpp</text>
</a>
</g>
</g>
<!-- Node13&#45;&gt;Node15 -->
<g id="edge21_Node000013_Node000015" class="edge">
<title>Node13&#45;&gt;Node15</title>
<g id="a_edge21_Node000013_Node000015"><a xlink:title=" ">
<path fill="none" stroke="#63b8ff" d="M745,-197.87C745,-191.22 745,-181.63 745,-172.28"/>
<polygon fill="#63b8ff" stroke="#63b8ff" points="748.5,-172.01 745,-162.01 741.5,-172.01 748.5,-172.01"/>
</a>
</g>
</g>
<!-- Node17 -->
<g id="Node000017" class="node">
<title>Node17</title>
<g id="a_Node000017"><a xlink:href="coprocessor__data__transfer_8hpp.html" target="_top" xlink:title="This file defines a coprocessor data transfer (LDC, STC).">
<polygon fill="white" stroke="#666666" points="992.5,-156.5 823.5,-156.5 823.5,-126.5 992.5,-126.5 992.5,-156.5"/>
<text text-anchor="start" x="831.5" y="-144.5" font-family="Helvetica,sans-Serif" font-size="10.00">../arm1176jzf_s/isa</text>
<text text-anchor="middle" x="908" y="-133.5" font-family="Helvetica,sans-Serif" font-size="10.00">/coprocessor_data_transfer.hpp</text>
</a>
</g>
</g>
<!-- Node13&#45;&gt;Node17 -->
<g id="edge23_Node000013_Node000017" class="edge">
<title>Node13&#45;&gt;Node17</title>
<g id="a_edge23_Node000013_Node000017"><a xlink:title=" ">
<path fill="none" stroke="#63b8ff" d="M766.98,-197.87C791.4,-188.28 831.48,-172.55 862.68,-160.3"/>
<polygon fill="#63b8ff" stroke="#63b8ff" points="864.02,-163.53 872.05,-156.62 861.46,-157.01 864.02,-163.53"/>
</a>
</g>
</g>
<!-- Node18 -->
<g id="Node000018" class="node">
<title>Node18</title>
<g id="a_Node000018"><a xlink:href="coprocessor__data__operation_8hpp.html" target="_top" xlink:title="This file defines a coprocessor data operation (CDP).">
<polygon fill="white" stroke="#666666" points="1188,-156.5 1010,-156.5 1010,-126.5 1188,-126.5 1188,-156.5"/>
<text text-anchor="start" x="1018" y="-144.5" font-family="Helvetica,sans-Serif" font-size="10.00">../arm1176jzf_s/isa</text>
<text text-anchor="middle" x="1099" y="-133.5" font-family="Helvetica,sans-Serif" font-size="10.00">/coprocessor_data_operation.hpp</text>
</a>
</g>
</g>
<!-- Node13&#45;&gt;Node18 -->
<g id="edge25_Node000013_Node000018" class="edge">
<title>Node13&#45;&gt;Node18</title>
<g id="a_edge25_Node000013_Node000018"><a xlink:title=" ">
<path fill="none" stroke="#63b8ff" d="M796.76,-197.96C848.71,-189.29 931.01,-175.28 1002,-162 1008.04,-160.87 1014.28,-159.68 1020.56,-158.46"/>
<polygon fill="#63b8ff" stroke="#63b8ff" points="1021.28,-161.88 1030.42,-156.53 1019.93,-155.01 1021.28,-161.88"/>
</a>
</g>
</g>
<!-- Node14&#45;&gt;Node7 -->
<g id="edge20_Node000014_Node000007" class="edge">
<title>Node14&#45;&gt;Node7</title>
<g id="a_edge20_Node000014_Node000007"><a xlink:title=" ">
<path fill="none" stroke="#63b8ff" d="M565.84,-131.98C535.25,-121.18 481.78,-102.32 442.39,-88.42"/>
<polygon fill="#63b8ff" stroke="#63b8ff" points="443.3,-85.03 432.7,-85.01 440.97,-91.63 443.3,-85.03"/>
</a>
</g>
</g>
<!-- Node16 -->
<g id="Node000016" class="node">
<title>Node16</title>
<g id="a_Node000016"><a xlink:href="instruction_8hpp.html" target="_top" xlink:title="This file defines the interface of a general ARM instruction.">
<polygon fill="white" stroke="#666666" points="952.5,-79.5 863.5,-79.5 863.5,-60.5 952.5,-60.5 952.5,-79.5"/>
<text text-anchor="middle" x="908" y="-67.5" font-family="Helvetica,sans-Serif" font-size="10.00">instruction.hpp</text>
</a>
</g>
</g>
<!-- Node15&#45;&gt;Node16 -->
<g id="edge22_Node000015_Node000016" class="edge">
<title>Node15&#45;&gt;Node16</title>
<g id="a_edge22_Node000015_Node000016"><a xlink:title=" ">
<path fill="none" stroke="#63b8ff" d="M790.84,-120.96C818.98,-108.96 854.18,-93.95 878.62,-83.53"/>
<polygon fill="#63b8ff" stroke="#63b8ff" points="880.23,-86.65 888.06,-79.5 877.48,-80.21 880.23,-86.65"/>
</a>
</g>
</g>
<!-- Node17&#45;&gt;Node16 -->
<g id="edge24_Node000017_Node000016" class="edge">
<title>Node17&#45;&gt;Node16</title>
<g id="a_edge24_Node000017_Node000016"><a xlink:title=" ">
<path fill="none" stroke="#63b8ff" d="M908,-126.44C908,-115.96 908,-101.55 908,-90.05"/>
<polygon fill="#63b8ff" stroke="#63b8ff" points="911.5,-89.77 908,-79.77 904.5,-89.77 911.5,-89.77"/>
</a>
</g>
</g>
<!-- Node18&#45;&gt;Node16 -->
<g id="edge26_Node000018_Node000016" class="edge">
<title>Node18&#45;&gt;Node16</title>
<g id="a_edge26_Node000018_Node000016"><a xlink:title=" ">
<path fill="none" stroke="#63b8ff" d="M1060.35,-126.44C1025.38,-113.71 974.42,-95.17 941.24,-83.09"/>
<polygon fill="#63b8ff" stroke="#63b8ff" points="942.14,-79.7 931.55,-79.57 939.75,-86.28 942.14,-79.7"/>
</a>
</g>
</g>
</g>
</svg>
