<?xml version="1.0" encoding="UTF-8" standalone="no"?>
<!DOCTYPE svg PUBLIC "-//W3C//DTD SVG 1.1//EN"
 "http://www.w3.org/Graphics/SVG/1.1/DTD/svg11.dtd">
<!-- Generated by graphviz version 2.43.0 (0)
 -->
<!-- Title: src/core/coprocessors/cp15/cp15.hpp Pages: 1 -->
<svg width="1095pt" height="291pt"
 viewBox="0.00 0.00 1094.50 291.00" xmlns="http://www.w3.org/2000/svg" xmlns:xlink="http://www.w3.org/1999/xlink">
<g id="graph0" class="graph" transform="scale(1 1) rotate(0) translate(4 287)">
<title>src/core/coprocessors/cp15/cp15.hpp</title>
<!-- Node1 -->
<g id="Node000001" class="node">
<title>Node1</title>
<g id="a_Node000001"><a xlink:title="This file defines coprocessor CP15.">
<polygon fill="#999999" stroke="#666666" points="291.5,-283 169.5,-283 169.5,-253 291.5,-253 291.5,-283"/>
<text text-anchor="start" x="177.5" y="-271" font-family="Helvetica,sans-Serif" font-size="10.00">src/core/coprocessors</text>
<text text-anchor="middle" x="230.5" y="-260" font-family="Helvetica,sans-Serif" font-size="10.00">/cp15/cp15.hpp</text>
</a>
</g>
</g>
<!-- Node2 -->
<g id="Node000002" class="node">
<title>Node2</title>
<g id="a_Node000002"><a xlink:href="c1_8hpp.html" target="_top" xlink:title="This file defines the primary register C1 of coprocessor CP15.">
<polygon fill="white" stroke="#666666" points="49,-217 0,-217 0,-198 49,-198 49,-217"/>
<text text-anchor="middle" x="24.5" y="-205" font-family="Helvetica,sans-Serif" font-size="10.00">c1.hpp</text>
</a>
</g>
</g>
<!-- Node1&#45;&gt;Node2 -->
<g id="edge1_Node000001_Node000002" class="edge">
<title>Node1&#45;&gt;Node2</title>
<g id="a_edge1_Node000001_Node000002"><a xlink:title=" ">
<path fill="none" stroke="#63b8ff" d="M181.16,-252.99C143.4,-242.27 92.3,-227.75 58.88,-218.26"/>
<polygon fill="#63b8ff" stroke="#63b8ff" points="59.69,-214.85 49.11,-215.49 57.78,-221.59 59.69,-214.85"/>
</a>
</g>
</g>
<!-- Node3 -->
<g id="Node000003" class="node">
<title>Node3</title>
<g id="a_Node000003"><a xlink:href="primary__reg_8hpp.html" target="_top" xlink:title="This file defines a primary register interface of coprocessor CP15.">
<polygon fill="white" stroke="#666666" points="246,-151 149,-151 149,-132 246,-132 246,-151"/>
<text text-anchor="middle" x="197.5" y="-139" font-family="Helvetica,sans-Serif" font-size="10.00">primary_reg.hpp</text>
</a>
</g>
</g>
<!-- Node1&#45;&gt;Node3 -->
<g id="edge14_Node000001_Node000003" class="edge">
<title>Node1&#45;&gt;Node3</title>
<g id="a_edge14_Node000001_Node000003"><a xlink:title=" ">
<path fill="none" stroke="#63b8ff" d="M169.19,-259.81C142.23,-253.25 113,-240.76 96.5,-217 76.79,-188.61 120.26,-166.81 156.2,-154.32"/>
<polygon fill="#63b8ff" stroke="#63b8ff" points="157.68,-157.52 166.08,-151.05 155.48,-150.87 157.68,-157.52"/>
</a>
</g>
</g>
<!-- Node4 -->
<g id="Node000004" class="node">
<title>Node4</title>
<g id="a_Node000004"><a xlink:href="logging__system_8hpp.html" target="_top" xlink:title="This file defines a logging system that is used in the project.">
<polygon fill="white" stroke="#666666" points="357,-85 226,-85 226,-55 357,-55 357,-85"/>
<text text-anchor="start" x="234" y="-73" font-family="Helvetica,sans-Serif" font-size="10.00">zero_mate/utils/logging</text>
<text text-anchor="middle" x="291.5" y="-62" font-family="Helvetica,sans-Serif" font-size="10.00">_system.hpp</text>
</a>
</g>
</g>
<!-- Node1&#45;&gt;Node4 -->
<g id="edge24_Node000001_Node000004" class="edge">
<title>Node1&#45;&gt;Node4</title>
<g id="a_edge24_Node000001_Node000004"><a xlink:title=" ">
<path fill="none" stroke="#63b8ff" d="M291.56,-260.1C318.91,-253.61 348.72,-241.1 365.5,-217 394.23,-175.72 347.86,-121.73 316.5,-92.34"/>
<polygon fill="#63b8ff" stroke="#63b8ff" points="318.66,-89.56 308.91,-85.42 313.94,-94.74 318.66,-89.56"/>
</a>
</g>
</g>
<!-- Node6 -->
<g id="Node000006" class="node">
<title>Node6</title>
<g id="a_Node000006"><a xlink:href="c2_8hpp.html" target="_top" xlink:title="This file defines the primary register C2 of coprocessor CP15.">
<polygon fill="white" stroke="#666666" points="155,-217 106,-217 106,-198 155,-198 155,-217"/>
<text text-anchor="middle" x="130.5" y="-205" font-family="Helvetica,sans-Serif" font-size="10.00">c2.hpp</text>
</a>
</g>
</g>
<!-- Node1&#45;&gt;Node6 -->
<g id="edge6_Node000001_Node000006" class="edge">
<title>Node1&#45;&gt;Node6</title>
<g id="a_edge6_Node000001_Node000006"><a xlink:title=" ">
<path fill="none" stroke="#63b8ff" d="M206.55,-252.99C190.61,-243.66 169.77,-231.47 153.94,-222.21"/>
<polygon fill="#63b8ff" stroke="#63b8ff" points="155.67,-219.17 145.27,-217.14 152.13,-225.21 155.67,-219.17"/>
</a>
</g>
</g>
<!-- Node7 -->
<g id="Node000007" class="node">
<title>Node7</title>
<g id="a_Node000007"><a xlink:href="c3_8hpp.html" target="_top" xlink:title="This file defines the primary register C3 of coprocessor CP15.">
<polygon fill="white" stroke="#666666" points="222,-217 173,-217 173,-198 222,-198 222,-217"/>
<text text-anchor="middle" x="197.5" y="-205" font-family="Helvetica,sans-Serif" font-size="10.00">c3.hpp</text>
</a>
</g>
</g>
<!-- Node1&#45;&gt;Node7 -->
<g id="edge8_Node000001_Node000007" class="edge">
<title>Node1&#45;&gt;Node7</title>
<g id="a_edge8_Node000001_Node000007"><a xlink:title=" ">
<path fill="none" stroke="#63b8ff" d="M222.51,-252.84C217.97,-244.78 212.23,-234.62 207.4,-226.06"/>
<polygon fill="#63b8ff" stroke="#63b8ff" points="210.41,-224.26 202.44,-217.27 204.31,-227.7 210.41,-224.26"/>
</a>
</g>
</g>
<!-- Node8 -->
<g id="Node000008" class="node">
<title>Node8</title>
<g id="a_Node000008"><a xlink:href="c7_8hpp.html" target="_top" xlink:title="This file defines the primary register C7 of coprocessor CP15.">
<polygon fill="white" stroke="#666666" points="289,-217 240,-217 240,-198 289,-198 289,-217"/>
<text text-anchor="middle" x="264.5" y="-205" font-family="Helvetica,sans-Serif" font-size="10.00">c7.hpp</text>
</a>
</g>
</g>
<!-- Node1&#45;&gt;Node8 -->
<g id="edge10_Node000001_Node000008" class="edge">
<title>Node1&#45;&gt;Node8</title>
<g id="a_edge10_Node000001_Node000008"><a xlink:title=" ">
<path fill="none" stroke="#63b8ff" d="M238.73,-252.84C243.41,-244.78 249.32,-234.62 254.3,-226.06"/>
<polygon fill="#63b8ff" stroke="#63b8ff" points="257.41,-227.67 259.41,-217.27 251.35,-224.15 257.41,-227.67"/>
</a>
</g>
</g>
<!-- Node9 -->
<g id="Node000009" class="node">
<title>Node9</title>
<g id="a_Node000009"><a xlink:href="c8_8hpp.html" target="_top" xlink:title="This file defines the primary register C8 of coprocessor CP15.">
<polygon fill="white" stroke="#666666" points="356,-217 307,-217 307,-198 356,-198 356,-217"/>
<text text-anchor="middle" x="331.5" y="-205" font-family="Helvetica,sans-Serif" font-size="10.00">c8.hpp</text>
</a>
</g>
</g>
<!-- Node1&#45;&gt;Node9 -->
<g id="edge12_Node000001_Node000009" class="edge">
<title>Node1&#45;&gt;Node9</title>
<g id="a_edge12_Node000001_Node000009"><a xlink:title=" ">
<path fill="none" stroke="#63b8ff" d="M254.69,-252.99C270.79,-243.66 291.84,-231.47 307.83,-222.21"/>
<polygon fill="#63b8ff" stroke="#63b8ff" points="309.69,-225.18 316.58,-217.14 306.18,-219.12 309.69,-225.18"/>
</a>
</g>
</g>
<!-- Node10 -->
<g id="Node000010" class="node">
<title>Node10</title>
<g id="a_Node000010"><a xlink:href="coprocessor_8hpp.html" target="_top" xlink:title="This file defines a general interface of a coprocessor.">
<polygon fill="white" stroke="#666666" points="695.5,-217 591.5,-217 591.5,-198 695.5,-198 695.5,-217"/>
<text text-anchor="middle" x="643.5" y="-205" font-family="Helvetica,sans-Serif" font-size="10.00">../coprocessor.hpp</text>
</a>
</g>
</g>
<!-- Node1&#45;&gt;Node10 -->
<g id="edge15_Node000001_Node000010" class="edge">
<title>Node1&#45;&gt;Node10</title>
<g id="a_edge15_Node000001_Node000010"><a xlink:title=" ">
<path fill="none" stroke="#63b8ff" d="M291.88,-258.31C369.62,-247.29 502.85,-228.42 581.08,-217.34"/>
<polygon fill="#63b8ff" stroke="#63b8ff" points="581.86,-220.77 591.27,-215.9 580.88,-213.83 581.86,-220.77"/>
</a>
</g>
</g>
<!-- Node2&#45;&gt;Node3 -->
<g id="edge2_Node000002_Node000003" class="edge">
<title>Node2&#45;&gt;Node3</title>
<g id="a_edge2_Node000002_Node000003"><a xlink:title=" ">
<path fill="none" stroke="#63b8ff" d="M47.83,-197.87C77.97,-186.72 130.59,-167.25 164.73,-154.62"/>
<polygon fill="#63b8ff" stroke="#63b8ff" points="166.1,-157.85 174.26,-151.1 163.67,-151.28 166.1,-157.85"/>
</a>
</g>
</g>
<!-- Node2&#45;&gt;Node4 -->
<g id="edge5_Node000002_Node000004" class="edge">
<title>Node2&#45;&gt;Node4</title>
<g id="a_edge5_Node000002_Node000004"><a xlink:title=" ">
<path fill="none" stroke="#63b8ff" d="M34.03,-197.81C53,-180.9 97.39,-143.3 140.5,-121 167.15,-107.21 198.38,-96.12 225.5,-87.92"/>
<polygon fill="#63b8ff" stroke="#63b8ff" points="226.69,-91.22 235.29,-85.03 224.71,-84.51 226.69,-91.22"/>
</a>
</g>
</g>
<!-- Node3&#45;&gt;Node4 -->
<g id="edge3_Node000003_Node000004" class="edge">
<title>Node3&#45;&gt;Node4</title>
<g id="a_edge3_Node000003_Node000004"><a xlink:title=" ">
<path fill="none" stroke="#63b8ff" d="M209.03,-131.98C222.59,-121.95 245.59,-104.95 263.85,-91.44"/>
<polygon fill="#63b8ff" stroke="#63b8ff" points="266.42,-93.9 272.38,-85.14 262.26,-88.27 266.42,-93.9"/>
</a>
</g>
</g>
<!-- Node5 -->
<g id="Node000005" class="node">
<title>Node5</title>
<g id="a_Node000005"><a xlink:href="logger_8hpp.html" target="_top" xlink:title="This file defines a general logger interface.">
<polygon fill="white" stroke="#666666" points="325.5,-19 257.5,-19 257.5,0 325.5,0 325.5,-19"/>
<text text-anchor="middle" x="291.5" y="-7" font-family="Helvetica,sans-Serif" font-size="10.00">logger.hpp</text>
</a>
</g>
</g>
<!-- Node4&#45;&gt;Node5 -->
<g id="edge4_Node000004_Node000005" class="edge">
<title>Node4&#45;&gt;Node5</title>
<g id="a_edge4_Node000004_Node000005"><a xlink:title=" ">
<path fill="none" stroke="#63b8ff" d="M291.5,-54.84C291.5,-47.21 291.5,-37.7 291.5,-29.45"/>
<polygon fill="#63b8ff" stroke="#63b8ff" points="295,-29.27 291.5,-19.27 288,-29.27 295,-29.27"/>
</a>
</g>
</g>
<!-- Node6&#45;&gt;Node3 -->
<g id="edge7_Node000006_Node000003" class="edge">
<title>Node6&#45;&gt;Node3</title>
<g id="a_edge7_Node000006_Node000003"><a xlink:title=" ">
<path fill="none" stroke="#63b8ff" d="M139.54,-197.87C150.07,-187.81 167.69,-170.98 180.74,-158.51"/>
<polygon fill="#63b8ff" stroke="#63b8ff" points="183.36,-160.84 188.18,-151.41 178.53,-155.78 183.36,-160.84"/>
</a>
</g>
</g>
<!-- Node7&#45;&gt;Node3 -->
<g id="edge9_Node000007_Node000003" class="edge">
<title>Node7&#45;&gt;Node3</title>
<g id="a_edge9_Node000007_Node000003"><a xlink:title=" ">
<path fill="none" stroke="#63b8ff" d="M197.5,-197.87C197.5,-188.66 197.5,-173.79 197.5,-161.77"/>
<polygon fill="#63b8ff" stroke="#63b8ff" points="201,-161.41 197.5,-151.41 194,-161.41 201,-161.41"/>
</a>
</g>
</g>
<!-- Node8&#45;&gt;Node3 -->
<g id="edge11_Node000008_Node000003" class="edge">
<title>Node8&#45;&gt;Node3</title>
<g id="a_edge11_Node000008_Node000003"><a xlink:title=" ">
<path fill="none" stroke="#63b8ff" d="M255.46,-197.87C244.93,-187.81 227.31,-170.98 214.26,-158.51"/>
<polygon fill="#63b8ff" stroke="#63b8ff" points="216.47,-155.78 206.82,-151.41 211.64,-160.84 216.47,-155.78"/>
</a>
</g>
</g>
<!-- Node9&#45;&gt;Node3 -->
<g id="edge13_Node000009_Node000003" class="edge">
<title>Node9&#45;&gt;Node3</title>
<g id="a_edge13_Node000009_Node000003"><a xlink:title=" ">
<path fill="none" stroke="#63b8ff" d="M313.43,-197.87C290.65,-186.99 251.28,-168.19 224.82,-155.55"/>
<polygon fill="#63b8ff" stroke="#63b8ff" points="226.25,-152.35 215.71,-151.2 223.23,-158.67 226.25,-152.35"/>
</a>
</g>
</g>
<!-- Node11 -->
<g id="Node000011" class="node">
<title>Node11</title>
<g id="a_Node000011"><a xlink:href="context_8hpp.html" target="_top" xlink:title="This file defines the context (registers) of the CPU.">
<polygon fill="white" stroke="#666666" points="564.5,-151 412.5,-151 412.5,-132 564.5,-132 564.5,-151"/>
<text text-anchor="middle" x="488.5" y="-139" font-family="Helvetica,sans-Serif" font-size="10.00">../arm1176jzf_s/context.hpp</text>
</a>
</g>
</g>
<!-- Node10&#45;&gt;Node11 -->
<g id="edge16_Node000010_Node000011" class="edge">
<title>Node10&#45;&gt;Node11</title>
<g id="a_edge16_Node000010_Node000011"><a xlink:title=" ">
<path fill="none" stroke="#63b8ff" d="M622.6,-197.87C595.9,-186.85 549.51,-167.69 518.91,-155.05"/>
<polygon fill="#63b8ff" stroke="#63b8ff" points="520.15,-151.78 509.57,-151.2 517.48,-158.25 520.15,-151.78"/>
</a>
</g>
</g>
<!-- Node12 -->
<g id="Node000012" class="node">
<title>Node12</title>
<g id="a_Node000012"><a xlink:href="coprocessor__register__transfer_8hpp.html" target="_top" xlink:title="This file defines a coprocessor register transfer (MRC, MCR).">
<polygon fill="white" stroke="#666666" points="704,-162 583,-162 583,-121 704,-121 704,-162"/>
<text text-anchor="start" x="591" y="-150" font-family="Helvetica,sans-Serif" font-size="10.00">../arm1176jzf_s/isa</text>
<text text-anchor="start" x="591" y="-139" font-family="Helvetica,sans-Serif" font-size="10.00">/coprocessor_register</text>
<text text-anchor="middle" x="643.5" y="-128" font-family="Helvetica,sans-Serif" font-size="10.00">_transfer.hpp</text>
</a>
</g>
</g>
<!-- Node10&#45;&gt;Node12 -->
<g id="edge18_Node000010_Node000012" class="edge">
<title>Node10&#45;&gt;Node12</title>
<g id="a_edge18_Node000010_Node000012"><a xlink:title=" ">
<path fill="none" stroke="#63b8ff" d="M643.5,-197.87C643.5,-191.22 643.5,-181.63 643.5,-172.28"/>
<polygon fill="#63b8ff" stroke="#63b8ff" points="647,-172.01 643.5,-162.01 640,-172.01 647,-172.01"/>
</a>
</g>
</g>
<!-- Node14 -->
<g id="Node000014" class="node">
<title>Node14</title>
<g id="a_Node000014"><a xlink:href="coprocessor__data__transfer_8hpp.html" target="_top" xlink:title="This file defines a coprocessor data transfer (LDC, STC).">
<polygon fill="white" stroke="#666666" points="891,-156.5 722,-156.5 722,-126.5 891,-126.5 891,-156.5"/>
<text text-anchor="start" x="730" y="-144.5" font-family="Helvetica,sans-Serif" font-size="10.00">../arm1176jzf_s/isa</text>
<text text-anchor="middle" x="806.5" y="-133.5" font-family="Helvetica,sans-Serif" font-size="10.00">/coprocessor_data_transfer.hpp</text>
</a>
</g>
</g>
<!-- Node10&#45;&gt;Node14 -->
<g id="edge20_Node000010_Node000014" class="edge">
<title>Node10&#45;&gt;Node14</title>
<g id="a_edge20_Node000010_Node000014"><a xlink:title=" ">
<path fill="none" stroke="#63b8ff" d="M665.48,-197.87C689.9,-188.28 729.98,-172.55 761.18,-160.3"/>
<polygon fill="#63b8ff" stroke="#63b8ff" points="762.52,-163.53 770.55,-156.62 759.96,-157.01 762.52,-163.53"/>
</a>
</g>
</g>
<!-- Node15 -->
<g id="Node000015" class="node">
<title>Node15</title>
<g id="a_Node000015"><a xlink:href="coprocessor__data__operation_8hpp.html" target="_top" xlink:title="This file defines a coprocessor data operation (CDP).">
<polygon fill="white" stroke="#666666" points="1086.5,-156.5 908.5,-156.5 908.5,-126.5 1086.5,-126.5 1086.5,-156.5"/>
<text text-anchor="start" x="916.5" y="-144.5" font-family="Helvetica,sans-Serif" font-size="10.00">../arm1176jzf_s/isa</text>
<text text-anchor="middle" x="997.5" y="-133.5" font-family="Helvetica,sans-Serif" font-size="10.00">/coprocessor_data_operation.hpp</text>
</a>
</g>
</g>
<!-- Node10&#45;&gt;Node15 -->
<g id="edge22_Node000010_Node000015" class="edge">
<title>Node10&#45;&gt;Node15</title>
<g id="a_edge22_Node000010_Node000015"><a xlink:title=" ">
<path fill="none" stroke="#63b8ff" d="M695.26,-197.96C747.21,-189.29 829.51,-175.28 900.5,-162 906.54,-160.87 912.78,-159.68 919.06,-158.46"/>
<polygon fill="#63b8ff" stroke="#63b8ff" points="919.78,-161.88 928.92,-156.53 918.43,-155.01 919.78,-161.88"/>
</a>
</g>
</g>
<!-- Node11&#45;&gt;Node4 -->
<g id="edge17_Node000011_Node000004" class="edge">
<title>Node11&#45;&gt;Node4</title>
<g id="a_edge17_Node000011_Node000004"><a xlink:title=" ">
<path fill="none" stroke="#63b8ff" d="M464.34,-131.98C433.75,-121.18 380.28,-102.32 340.89,-88.42"/>
<polygon fill="#63b8ff" stroke="#63b8ff" points="341.8,-85.03 331.2,-85.01 339.47,-91.63 341.8,-85.03"/>
</a>
</g>
</g>
<!-- Node13 -->
<g id="Node000013" class="node">
<title>Node13</title>
<g id="a_Node000013"><a xlink:href="instruction_8hpp.html" target="_top" xlink:title="This file defines the interface of a general ARM instruction.">
<polygon fill="white" stroke="#666666" points="851,-79.5 762,-79.5 762,-60.5 851,-60.5 851,-79.5"/>
<text text-anchor="middle" x="806.5" y="-67.5" font-family="Helvetica,sans-Serif" font-size="10.00">instruction.hpp</text>
</a>
</g>
</g>
<!-- Node12&#45;&gt;Node13 -->
<g id="edge19_Node000012_Node000013" class="edge">
<title>Node12&#45;&gt;Node13</title>
<g id="a_edge19_Node000012_Node000013"><a xlink:title=" ">
<path fill="none" stroke="#63b8ff" d="M689.34,-120.96C717.48,-108.96 752.68,-93.95 777.12,-83.53"/>
<polygon fill="#63b8ff" stroke="#63b8ff" points="778.73,-86.65 786.56,-79.5 775.98,-80.21 778.73,-86.65"/>
</a>
</g>
</g>
<!-- Node14&#45;&gt;Node13 -->
<g id="edge21_Node000014_Node000013" class="edge">
<title>Node14&#45;&gt;Node13</title>
<g id="a_edge21_Node000014_Node000013"><a xlink:title=" ">
<path fill="none" stroke="#63b8ff" d="M806.5,-126.44C806.5,-115.96 806.5,-101.55 806.5,-90.05"/>
<polygon fill="#63b8ff" stroke="#63b8ff" points="810,-89.77 806.5,-79.77 803,-89.77 810,-89.77"/>
</a>
</g>
</g>
<!-- Node15&#45;&gt;Node13 -->
<g id="edge23_Node000015_Node000013" class="edge">
<title>Node15&#45;&gt;Node13</title>
<g id="a_edge23_Node000015_Node000013"><a xlink:title=" ">
<path fill="none" stroke="#63b8ff" d="M958.85,-126.44C923.88,-113.71 872.92,-95.17 839.74,-83.09"/>
<polygon fill="#63b8ff" stroke="#63b8ff" points="840.64,-79.7 830.05,-79.57 838.25,-86.28 840.64,-79.7"/>
</a>
</g>
</g>
</g>
</svg>
