<?xml version="1.0" encoding="UTF-8" standalone="no"?>
<!DOCTYPE svg PUBLIC "-//W3C//DTD SVG 1.1//EN"
 "http://www.w3.org/Graphics/SVG/1.1/DTD/svg11.dtd">
<!-- Generated by graphviz version 2.43.0 (0)
 -->
<!-- Title: src/core/coprocessors/cp10/isa/cp_register_transfer_inst.cpp Pages: 1 -->
<svg width="130pt" height="170pt"
 viewBox="0.00 0.00 130.00 170.00" xmlns="http://www.w3.org/2000/svg" xmlns:xlink="http://www.w3.org/1999/xlink">
<g id="graph0" class="graph" transform="scale(1 1) rotate(0) translate(4 166)">
<title>src/core/coprocessors/cp10/isa/cp_register_transfer_inst.cpp</title>
<!-- Node1 -->
<g id="Node000001" class="node">
<title>Node1</title>
<g id="a_Node000001"><a xlink:title="This file implements a general CP10 register transfer instruction.">
<polygon fill="#999999" stroke="#666666" points="122,-162 0,-162 0,-121 122,-121 122,-162"/>
<text text-anchor="start" x="8" y="-150" font-family="Helvetica,sans-Serif" font-size="10.00">src/core/coprocessors</text>
<text text-anchor="start" x="8" y="-139" font-family="Helvetica,sans-Serif" font-size="10.00">/cp10/isa/cp_register</text>
<text text-anchor="middle" x="61" y="-128" font-family="Helvetica,sans-Serif" font-size="10.00">_transfer_inst.cpp</text>
</a>
</g>
</g>
<!-- Node2 -->
<g id="Node000002" class="node">
<title>Node2</title>
<g id="a_Node000002"><a xlink:href="cp__register__transfer__inst_8hpp.html" target="_top" xlink:title="This file defines a general CP10 register transfer instruction.">
<polygon fill="white" stroke="#666666" points="118,-85 4,-85 4,-55 118,-55 118,-85"/>
<text text-anchor="start" x="12" y="-73" font-family="Helvetica,sans-Serif" font-size="10.00">cp_register_transfer</text>
<text text-anchor="middle" x="61" y="-62" font-family="Helvetica,sans-Serif" font-size="10.00">_inst.hpp</text>
</a>
</g>
</g>
<!-- Node1&#45;&gt;Node2 -->
<g id="edge1_Node000001_Node000002" class="edge">
<title>Node1&#45;&gt;Node2</title>
<g id="a_edge1_Node000001_Node000002"><a xlink:title=" ">
<path fill="none" stroke="#63b8ff" d="M61,-120.77C61,-112.85 61,-103.63 61,-95.3"/>
<polygon fill="#63b8ff" stroke="#63b8ff" points="64.5,-95.04 61,-85.04 57.5,-95.04 64.5,-95.04"/>
</a>
</g>
</g>
<!-- Node3 -->
<g id="Node000003" class="node">
<title>Node3</title>
<g id="a_Node000003"><a xlink:href="cp__instruction_8hpp.html" target="_top" xlink:title="This file defines a general CP10 instruction.">
<polygon fill="white" stroke="#666666" points="114,-19 8,-19 8,0 114,0 114,-19"/>
<text text-anchor="middle" x="61" y="-7" font-family="Helvetica,sans-Serif" font-size="10.00">cp_instruction.hpp</text>
</a>
</g>
</g>
<!-- Node2&#45;&gt;Node3 -->
<g id="edge2_Node000002_Node000003" class="edge">
<title>Node2&#45;&gt;Node3</title>
<g id="a_edge2_Node000002_Node000003"><a xlink:title=" ">
<path fill="none" stroke="#63b8ff" d="M61,-54.84C61,-47.21 61,-37.7 61,-29.45"/>
<polygon fill="#63b8ff" stroke="#63b8ff" points="64.5,-29.27 61,-19.27 57.5,-29.27 64.5,-29.27"/>
</a>
</g>
</g>
</g>
</svg>
