<?xml version="1.0" encoding="UTF-8" standalone="no"?>
<!DOCTYPE svg PUBLIC "-//W3C//DTD SVG 1.1//EN"
 "http://www.w3.org/Graphics/SVG/1.1/DTD/svg11.dtd">
<!-- Generated by graphviz version 2.43.0 (0)
 -->
<!-- Title: src/core/coprocessors/cp10/isa/cp_instruction.hpp Pages: 1 -->
<svg width="611pt" height="324pt"
 viewBox="0.00 0.00 611.00 324.00" xmlns="http://www.w3.org/2000/svg" xmlns:xlink="http://www.w3.org/1999/xlink">
<g id="graph0" class="graph" transform="scale(1 1) rotate(0) translate(4 320)">
<title>src/core/coprocessors/cp10/isa/cp_instruction.hpp</title>
<!-- Node1 -->
<g id="Node000001" class="node">
<title>Node1</title>
<g id="a_Node000001"><a xlink:title="This file defines a general CP10 instruction.">
<polygon fill="#999999" stroke="#666666" points="370.5,-316 218.5,-316 218.5,-286 370.5,-286 370.5,-316"/>
<text text-anchor="start" x="226.5" y="-304" font-family="Helvetica,sans-Serif" font-size="10.00">src/core/coprocessors</text>
<text text-anchor="middle" x="294.5" y="-293" font-family="Helvetica,sans-Serif" font-size="10.00">/cp10/isa/cp_instruction.hpp</text>
</a>
</g>
</g>
<!-- Node2 -->
<g id="Node000002" class="node">
<title>Node2</title>
<g id="a_Node000002"><a xlink:href="cp__data__processing__inst_8hpp.html" target="_top" xlink:title="This file defines a general CP10 data processing instruction.">
<polygon fill="white" stroke="#666666" points="533,-250 374,-250 374,-209 533,-209 533,-250"/>
<text text-anchor="start" x="382" y="-238" font-family="Helvetica,sans-Serif" font-size="10.00">src/core/coprocessors</text>
<text text-anchor="start" x="382" y="-227" font-family="Helvetica,sans-Serif" font-size="10.00">/cp10/isa/cp_data_processing</text>
<text text-anchor="middle" x="453.5" y="-216" font-family="Helvetica,sans-Serif" font-size="10.00">_inst.hpp</text>
</a>
</g>
</g>
<!-- Node1&#45;&gt;Node2 -->
<g id="edge1_Node000001_Node000002" class="edge">
<title>Node1&#45;&gt;Node2</title>
<g id="a_edge1_Node000001_Node000002"><a xlink:title=" ">
<path fill="none" stroke="#63b8ff" d="M335.9,-281.9C358.26,-272.13 385.87,-260.06 408.72,-250.07"/>
<polygon fill="#63b8ff" stroke="#63b8ff" points="334.44,-278.72 326.68,-285.94 337.24,-285.14 334.44,-278.72"/>
</a>
</g>
</g>
<!-- Node12 -->
<g id="Node000012" class="node">
<title>Node12</title>
<g id="a_Node000012"><a xlink:href="cp__data__transfer__inst_8hpp.html" target="_top" xlink:title="This file defines a general CP10 data transfer instruction (load and store).">
<polygon fill="white" stroke="#666666" points="215,-250 70,-250 70,-209 215,-209 215,-250"/>
<text text-anchor="start" x="78" y="-238" font-family="Helvetica,sans-Serif" font-size="10.00">src/core/coprocessors</text>
<text text-anchor="start" x="78" y="-227" font-family="Helvetica,sans-Serif" font-size="10.00">/cp10/isa/cp_data_transfer</text>
<text text-anchor="middle" x="142.5" y="-216" font-family="Helvetica,sans-Serif" font-size="10.00">_inst.hpp</text>
</a>
</g>
</g>
<!-- Node1&#45;&gt;Node12 -->
<g id="edge12_Node000001_Node000012" class="edge">
<title>Node1&#45;&gt;Node12</title>
<g id="a_edge12_Node000001_Node000012"><a xlink:title=" ">
<path fill="none" stroke="#63b8ff" d="M254.63,-281.77C233.32,-272.02 207.06,-260.02 185.31,-250.07"/>
<polygon fill="#63b8ff" stroke="#63b8ff" points="253.19,-284.96 263.74,-285.94 256.1,-278.59 253.19,-284.96"/>
</a>
</g>
</g>
<!-- Node14 -->
<g id="Node000014" class="node">
<title>Node14</title>
<g id="a_Node000014"><a xlink:href="cp__register__transfer__inst_8hpp.html" target="_top" xlink:title="This file defines a general CP10 register transfer instruction.">
<polygon fill="white" stroke="#666666" points="355.5,-250 233.5,-250 233.5,-209 355.5,-209 355.5,-250"/>
<text text-anchor="start" x="241.5" y="-238" font-family="Helvetica,sans-Serif" font-size="10.00">src/core/coprocessors</text>
<text text-anchor="start" x="241.5" y="-227" font-family="Helvetica,sans-Serif" font-size="10.00">/cp10/isa/cp_register</text>
<text text-anchor="middle" x="294.5" y="-216" font-family="Helvetica,sans-Serif" font-size="10.00">_transfer_inst.hpp</text>
</a>
</g>
</g>
<!-- Node1&#45;&gt;Node14 -->
<g id="edge15_Node000001_Node000014" class="edge">
<title>Node1&#45;&gt;Node14</title>
<g id="a_edge15_Node000001_Node000014"><a xlink:title=" ">
<path fill="none" stroke="#63b8ff" d="M294.5,-275.91C294.5,-267.47 294.5,-258.1 294.5,-250.07"/>
<polygon fill="#63b8ff" stroke="#63b8ff" points="291,-275.94 294.5,-285.94 298,-275.94 291,-275.94"/>
</a>
</g>
</g>
<!-- Node3 -->
<g id="Node000003" class="node">
<title>Node3</title>
<g id="a_Node000003"><a xlink:href="cp10_8hpp.html" target="_top" xlink:title="This file defines coprocessor CP10 (single&#45;precision FPU).">
<polygon fill="white" stroke="#666666" points="285.5,-167.5 163.5,-167.5 163.5,-137.5 285.5,-137.5 285.5,-167.5"/>
<text text-anchor="start" x="171.5" y="-155.5" font-family="Helvetica,sans-Serif" font-size="10.00">src/core/coprocessors</text>
<text text-anchor="middle" x="224.5" y="-144.5" font-family="Helvetica,sans-Serif" font-size="10.00">/cp10/cp10.hpp</text>
</a>
</g>
</g>
<!-- Node2&#45;&gt;Node3 -->
<g id="edge2_Node000002_Node000003" class="edge">
<title>Node2&#45;&gt;Node3</title>
<g id="a_edge2_Node000002_Node000003"><a xlink:title=" ">
<path fill="none" stroke="#63b8ff" d="M383.96,-205.73C346.02,-193.3 300.25,-178.31 267.5,-167.58"/>
<polygon fill="#63b8ff" stroke="#63b8ff" points="383.34,-209.2 393.93,-208.99 385.52,-202.55 383.34,-209.2"/>
</a>
</g>
</g>
<!-- Node11 -->
<g id="Node000011" class="node">
<title>Node11</title>
<g id="a_Node000011"><a xlink:href="cp__data__processing__inst_8cpp.html" target="_top" xlink:title="This file implements a general CP10 data processing instruction.">
<polygon fill="white" stroke="#666666" points="603,-173 444,-173 444,-132 603,-132 603,-173"/>
<text text-anchor="start" x="452" y="-161" font-family="Helvetica,sans-Serif" font-size="10.00">src/core/coprocessors</text>
<text text-anchor="start" x="452" y="-150" font-family="Helvetica,sans-Serif" font-size="10.00">/cp10/isa/cp_data_processing</text>
<text text-anchor="middle" x="523.5" y="-139" font-family="Helvetica,sans-Serif" font-size="10.00">_inst.cpp</text>
</a>
</g>
</g>
<!-- Node2&#45;&gt;Node11 -->
<g id="edge11_Node000002_Node000011" class="edge">
<title>Node2&#45;&gt;Node11</title>
<g id="a_edge11_Node000002_Node000011"><a xlink:title=" ">
<path fill="none" stroke="#63b8ff" d="M478.95,-201.23C487.65,-191.91 497.21,-181.67 505.23,-173.07"/>
<polygon fill="#63b8ff" stroke="#63b8ff" points="476.16,-199.1 471.89,-208.79 481.27,-203.87 476.16,-199.1"/>
</a>
</g>
</g>
<!-- Node4 -->
<g id="Node000004" class="node">
<title>Node4</title>
<g id="a_Node000004"><a xlink:href="cp10_8cpp.html" target="_top" xlink:title="This file implements coprocessor CP10 (single&#45;precision FPU).">
<polygon fill="white" stroke="#666666" points="158.5,-96 36.5,-96 36.5,-66 158.5,-66 158.5,-96"/>
<text text-anchor="start" x="44.5" y="-84" font-family="Helvetica,sans-Serif" font-size="10.00">src/core/coprocessors</text>
<text text-anchor="middle" x="97.5" y="-73" font-family="Helvetica,sans-Serif" font-size="10.00">/cp10/cp10.cpp</text>
</a>
</g>
</g>
<!-- Node3&#45;&gt;Node4 -->
<g id="edge3_Node000003_Node000004" class="edge">
<title>Node3&#45;&gt;Node4</title>
<g id="a_edge3_Node000003_Node000004"><a xlink:title=" ">
<path fill="none" stroke="#63b8ff" d="M189.84,-132.53C168.78,-121.01 142.35,-106.54 123.16,-96.04"/>
<polygon fill="#63b8ff" stroke="#63b8ff" points="188.35,-135.71 198.8,-137.44 191.71,-129.56 188.35,-135.71"/>
</a>
</g>
</g>
<!-- Node5 -->
<g id="Node000005" class="node">
<title>Node5</title>
<g id="a_Node000005"><a xlink:href="soc_8hpp.html" target="_top" xlink:title=" ">
<polygon fill="white" stroke="#666666" points="272,-90.5 177,-90.5 177,-71.5 272,-71.5 272,-90.5"/>
<text text-anchor="middle" x="224.5" y="-78.5" font-family="Helvetica,sans-Serif" font-size="10.00">src/core/soc.hpp</text>
</a>
</g>
</g>
<!-- Node3&#45;&gt;Node5 -->
<g id="edge4_Node000003_Node000005" class="edge">
<title>Node3&#45;&gt;Node5</title>
<g id="a_edge4_Node000003_Node000005"><a xlink:title=" ">
<path fill="none" stroke="#63b8ff" d="M224.5,-127.06C224.5,-114.45 224.5,-99.85 224.5,-90.77"/>
<polygon fill="#63b8ff" stroke="#63b8ff" points="221,-127.44 224.5,-137.44 228,-127.44 221,-127.44"/>
</a>
</g>
</g>
<!-- Node9 -->
<g id="Node000009" class="node">
<title>Node9</title>
<g id="a_Node000009"><a xlink:href="cp10__window_8hpp.html" target="_top" xlink:title="This file defines a window that displays data (information) related to coprocessor 10 (FPU).">
<polygon fill="white" stroke="#666666" points="411,-96 290,-96 290,-66 411,-66 411,-96"/>
<text text-anchor="start" x="298" y="-84" font-family="Helvetica,sans-Serif" font-size="10.00">src/gui/windows/cp10</text>
<text text-anchor="middle" x="350.5" y="-73" font-family="Helvetica,sans-Serif" font-size="10.00">_window.hpp</text>
</a>
</g>
</g>
<!-- Node3&#45;&gt;Node9 -->
<g id="edge8_Node000003_Node000009" class="edge">
<title>Node3&#45;&gt;Node9</title>
<g id="a_edge8_Node000003_Node000009"><a xlink:title=" ">
<path fill="none" stroke="#63b8ff" d="M258.88,-132.53C279.78,-121.01 306.01,-106.54 325.04,-96.04"/>
<polygon fill="#63b8ff" stroke="#63b8ff" points="257.06,-129.54 250,-137.44 260.44,-135.67 257.06,-129.54"/>
</a>
</g>
</g>
<!-- Node6 -->
<g id="Node000006" class="node">
<title>Node6</title>
<g id="a_Node000006"><a xlink:href="soc_8cpp.html" target="_top" xlink:title=" ">
<polygon fill="white" stroke="#666666" points="167,-24.5 72,-24.5 72,-5.5 167,-5.5 167,-24.5"/>
<text text-anchor="middle" x="119.5" y="-12.5" font-family="Helvetica,sans-Serif" font-size="10.00">src/core/soc.cpp</text>
</a>
</g>
</g>
<!-- Node5&#45;&gt;Node6 -->
<g id="edge5_Node000005_Node000006" class="edge">
<title>Node5&#45;&gt;Node6</title>
<g id="a_edge5_Node000005_Node000006"><a xlink:title=" ">
<path fill="none" stroke="#63b8ff" d="M201.56,-66.02C180.91,-53.43 151.2,-35.32 133.77,-24.7"/>
<polygon fill="#63b8ff" stroke="#63b8ff" points="199.98,-69.15 210.34,-71.37 203.62,-63.18 199.98,-69.15"/>
</a>
</g>
</g>
<!-- Node7 -->
<g id="Node000007" class="node">
<title>Node7</title>
<g id="a_Node000007"><a xlink:href="gui_8cpp.html" target="_top" xlink:title="This file implements the main GUI entry function that takes care of creating and rendering all window...">
<polygon fill="white" stroke="#666666" points="369,-24.5 282,-24.5 282,-5.5 369,-5.5 369,-24.5"/>
<text text-anchor="middle" x="325.5" y="-12.5" font-family="Helvetica,sans-Serif" font-size="10.00">src/gui/gui.cpp</text>
</a>
</g>
</g>
<!-- Node5&#45;&gt;Node7 -->
<g id="edge6_Node000005_Node000007" class="edge">
<title>Node5&#45;&gt;Node7</title>
<g id="a_edge6_Node000005_Node000007"><a xlink:title=" ">
<path fill="none" stroke="#63b8ff" d="M246.83,-65.85C266.69,-53.27 295.08,-35.28 311.77,-24.7"/>
<polygon fill="#63b8ff" stroke="#63b8ff" points="244.69,-63.06 238.12,-71.37 248.44,-68.97 244.69,-63.06"/>
</a>
</g>
</g>
<!-- Node8 -->
<g id="Node000008" class="node">
<title>Node8</title>
<g id="a_Node000008"><a xlink:href="main_8cpp.html" target="_top" xlink:title="This file defines and implements the main function of the application.">
<polygon fill="white" stroke="#666666" points="264,-24.5 185,-24.5 185,-5.5 264,-5.5 264,-24.5"/>
<text text-anchor="middle" x="224.5" y="-12.5" font-family="Helvetica,sans-Serif" font-size="10.00">src/main.cpp</text>
</a>
</g>
</g>
<!-- Node5&#45;&gt;Node8 -->
<g id="edge7_Node000005_Node000008" class="edge">
<title>Node5&#45;&gt;Node8</title>
<g id="a_edge7_Node000005_Node000008"><a xlink:title=" ">
<path fill="none" stroke="#63b8ff" d="M224.5,-61.08C224.5,-49.13 224.5,-34.22 224.5,-24.91"/>
<polygon fill="#63b8ff" stroke="#63b8ff" points="221,-61.37 224.5,-71.37 228,-61.37 221,-61.37"/>
</a>
</g>
</g>
<!-- Node9&#45;&gt;Node7 -->
<g id="edge9_Node000009_Node000007" class="edge">
<title>Node9&#45;&gt;Node7</title>
<g id="a_edge9_Node000009_Node000007"><a xlink:title=" ">
<path fill="none" stroke="#63b8ff" d="M341.23,-56.28C336.95,-45.31 332.12,-32.94 328.95,-24.84"/>
<polygon fill="#63b8ff" stroke="#63b8ff" points="338.05,-57.76 344.95,-65.8 344.57,-55.21 338.05,-57.76"/>
</a>
</g>
</g>
<!-- Node10 -->
<g id="Node000010" class="node">
<title>Node10</title>
<g id="a_Node000010"><a xlink:href="cp10__window_8cpp.html" target="_top" xlink:title="This file implements a window that displays data (information) related to coprocessor 10 (FPU).">
<polygon fill="white" stroke="#666666" points="508,-30 387,-30 387,0 508,0 508,-30"/>
<text text-anchor="start" x="395" y="-18" font-family="Helvetica,sans-Serif" font-size="10.00">src/gui/windows/cp10</text>
<text text-anchor="middle" x="447.5" y="-7" font-family="Helvetica,sans-Serif" font-size="10.00">_window.cpp</text>
</a>
</g>
</g>
<!-- Node9&#45;&gt;Node10 -->
<g id="edge10_Node000009_Node000010" class="edge">
<title>Node9&#45;&gt;Node10</title>
<g id="a_edge10_Node000009_Node000010"><a xlink:title=" ">
<path fill="none" stroke="#63b8ff" d="M380.77,-60.03C395.45,-50.34 412.73,-38.94 426.03,-30.16"/>
<polygon fill="#63b8ff" stroke="#63b8ff" points="378.45,-57.37 372.03,-65.8 382.3,-63.21 378.45,-57.37"/>
</a>
</g>
</g>
<!-- Node12&#45;&gt;Node3 -->
<g id="edge13_Node000012_Node000003" class="edge">
<title>Node12&#45;&gt;Node3</title>
<g id="a_edge13_Node000012_Node000003"><a xlink:title=" ">
<path fill="none" stroke="#63b8ff" d="M171.64,-201.84C184.27,-190.3 198.53,-177.25 209.06,-167.63"/>
<polygon fill="#63b8ff" stroke="#63b8ff" points="169.06,-199.46 164.04,-208.79 173.79,-204.63 169.06,-199.46"/>
</a>
</g>
</g>
<!-- Node13 -->
<g id="Node000013" class="node">
<title>Node13</title>
<g id="a_Node000013"><a xlink:href="cp__data__transfer__inst_8cpp.html" target="_top" xlink:title="This file implements a general CP10 data transfer instruction (load and store).">
<polygon fill="white" stroke="#666666" points="145,-173 0,-173 0,-132 145,-132 145,-173"/>
<text text-anchor="start" x="8" y="-161" font-family="Helvetica,sans-Serif" font-size="10.00">src/core/coprocessors</text>
<text text-anchor="start" x="8" y="-150" font-family="Helvetica,sans-Serif" font-size="10.00">/cp10/isa/cp_data_transfer</text>
<text text-anchor="middle" x="72.5" y="-139" font-family="Helvetica,sans-Serif" font-size="10.00">_inst.cpp</text>
</a>
</g>
</g>
<!-- Node12&#45;&gt;Node13 -->
<g id="edge14_Node000012_Node000013" class="edge">
<title>Node12&#45;&gt;Node13</title>
<g id="a_edge14_Node000012_Node000013"><a xlink:title=" ">
<path fill="none" stroke="#63b8ff" d="M117.05,-201.23C108.35,-191.91 98.79,-181.67 90.77,-173.07"/>
<polygon fill="#63b8ff" stroke="#63b8ff" points="114.73,-203.87 124.11,-208.79 119.84,-199.1 114.73,-203.87"/>
</a>
</g>
</g>
<!-- Node14&#45;&gt;Node3 -->
<g id="edge16_Node000014_Node000003" class="edge">
<title>Node14&#45;&gt;Node3</title>
<g id="a_edge16_Node000014_Node000003"><a xlink:title=" ">
<path fill="none" stroke="#63b8ff" d="M269.06,-201.24C258.51,-189.94 246.71,-177.3 237.9,-167.86"/>
<polygon fill="#63b8ff" stroke="#63b8ff" points="266.73,-203.87 276.11,-208.79 271.84,-199.1 266.73,-203.87"/>
</a>
</g>
</g>
<!-- Node15 -->
<g id="Node000015" class="node">
<title>Node15</title>
<g id="a_Node000015"><a xlink:href="cp__register__transfer__inst_8cpp.html" target="_top" xlink:title="This file implements a general CP10 register transfer instruction.">
<polygon fill="white" stroke="#666666" points="425.5,-173 303.5,-173 303.5,-132 425.5,-132 425.5,-173"/>
<text text-anchor="start" x="311.5" y="-161" font-family="Helvetica,sans-Serif" font-size="10.00">src/core/coprocessors</text>
<text text-anchor="start" x="311.5" y="-150" font-family="Helvetica,sans-Serif" font-size="10.00">/cp10/isa/cp_register</text>
<text text-anchor="middle" x="364.5" y="-139" font-family="Helvetica,sans-Serif" font-size="10.00">_transfer_inst.cpp</text>
</a>
</g>
</g>
<!-- Node14&#45;&gt;Node15 -->
<g id="edge17_Node000014_Node000015" class="edge">
<title>Node14&#45;&gt;Node15</title>
<g id="a_edge17_Node000014_Node000015"><a xlink:title=" ">
<path fill="none" stroke="#63b8ff" d="M319.95,-201.23C328.65,-191.91 338.21,-181.67 346.23,-173.07"/>
<polygon fill="#63b8ff" stroke="#63b8ff" points="317.16,-199.1 312.89,-208.79 322.27,-203.87 317.16,-199.1"/>
</a>
</g>
</g>
</g>
</svg>
