<?xml version="1.0" encoding="UTF-8" standalone="no"?>
<!DOCTYPE svg PUBLIC "-//W3C//DTD SVG 1.1//EN"
 "http://www.w3.org/Graphics/SVG/1.1/DTD/svg11.dtd">
<!-- Generated by graphviz version 2.43.0 (0)
 -->
<!-- Title: src/core/coprocessors/cp10/isa/cp_data_processing_inst.hpp Pages: 1 -->
<svg width="480pt" height="258pt"
 viewBox="0.00 0.00 479.50 258.00" xmlns="http://www.w3.org/2000/svg" xmlns:xlink="http://www.w3.org/1999/xlink">
<g id="graph0" class="graph" transform="scale(1 1) rotate(0) translate(4 254)">
<title>src/core/coprocessors/cp10/isa/cp_data_processing_inst.hpp</title>
<!-- Node1 -->
<g id="Node000001" class="node">
<title>Node1</title>
<g id="a_Node000001"><a xlink:title="This file defines a general CP10 data processing instruction.">
<polygon fill="#999999" stroke="#666666" points="346.5,-250 187.5,-250 187.5,-209 346.5,-209 346.5,-250"/>
<text text-anchor="start" x="195.5" y="-238" font-family="Helvetica,sans-Serif" font-size="10.00">src/core/coprocessors</text>
<text text-anchor="start" x="195.5" y="-227" font-family="Helvetica,sans-Serif" font-size="10.00">/cp10/isa/cp_data_processing</text>
<text text-anchor="middle" x="267" y="-216" font-family="Helvetica,sans-Serif" font-size="10.00">_inst.hpp</text>
</a>
</g>
</g>
<!-- Node2 -->
<g id="Node000002" class="node">
<title>Node2</title>
<g id="a_Node000002"><a xlink:href="cp10_8hpp.html" target="_top" xlink:title="This file defines coprocessor CP10 (single&#45;precision FPU).">
<polygon fill="white" stroke="#666666" points="249,-167.5 127,-167.5 127,-137.5 249,-137.5 249,-167.5"/>
<text text-anchor="start" x="135" y="-155.5" font-family="Helvetica,sans-Serif" font-size="10.00">src/core/coprocessors</text>
<text text-anchor="middle" x="188" y="-144.5" font-family="Helvetica,sans-Serif" font-size="10.00">/cp10/cp10.hpp</text>
</a>
</g>
</g>
<!-- Node1&#45;&gt;Node2 -->
<g id="edge1_Node000001_Node000002" class="edge">
<title>Node1&#45;&gt;Node2</title>
<g id="a_edge1_Node000001_Node000002"><a xlink:title=" ">
<path fill="none" stroke="#63b8ff" d="M238.97,-201.89C226.9,-190.43 213.26,-177.48 203.13,-167.86"/>
<polygon fill="#63b8ff" stroke="#63b8ff" points="236.58,-204.45 246.24,-208.79 241.4,-199.37 236.58,-204.45"/>
</a>
</g>
</g>
<!-- Node10 -->
<g id="Node000010" class="node">
<title>Node10</title>
<g id="a_Node000010"><a xlink:href="cp__data__processing__inst_8cpp.html" target="_top" xlink:title="This file implements a general CP10 data processing instruction.">
<polygon fill="white" stroke="#666666" points="426.5,-173 267.5,-173 267.5,-132 426.5,-132 426.5,-173"/>
<text text-anchor="start" x="275.5" y="-161" font-family="Helvetica,sans-Serif" font-size="10.00">src/core/coprocessors</text>
<text text-anchor="start" x="275.5" y="-150" font-family="Helvetica,sans-Serif" font-size="10.00">/cp10/isa/cp_data_processing</text>
<text text-anchor="middle" x="347" y="-139" font-family="Helvetica,sans-Serif" font-size="10.00">_inst.cpp</text>
</a>
</g>
</g>
<!-- Node1&#45;&gt;Node10 -->
<g id="edge10_Node000001_Node000010" class="edge">
<title>Node1&#45;&gt;Node10</title>
<g id="a_edge10_Node000001_Node000010"><a xlink:title=" ">
<path fill="none" stroke="#63b8ff" d="M295.49,-201.79C305.59,-192.32 316.77,-181.84 326.12,-173.07"/>
<polygon fill="#63b8ff" stroke="#63b8ff" points="292.92,-199.4 288.02,-208.79 297.71,-204.51 292.92,-199.4"/>
</a>
</g>
</g>
<!-- Node3 -->
<g id="Node000003" class="node">
<title>Node3</title>
<g id="a_Node000003"><a xlink:href="cp10_8cpp.html" target="_top" xlink:title="This file implements coprocessor CP10 (single&#45;precision FPU).">
<polygon fill="white" stroke="#666666" points="122,-96 0,-96 0,-66 122,-66 122,-96"/>
<text text-anchor="start" x="8" y="-84" font-family="Helvetica,sans-Serif" font-size="10.00">src/core/coprocessors</text>
<text text-anchor="middle" x="61" y="-73" font-family="Helvetica,sans-Serif" font-size="10.00">/cp10/cp10.cpp</text>
</a>
</g>
</g>
<!-- Node2&#45;&gt;Node3 -->
<g id="edge2_Node000002_Node000003" class="edge">
<title>Node2&#45;&gt;Node3</title>
<g id="a_edge2_Node000002_Node000003"><a xlink:title=" ">
<path fill="none" stroke="#63b8ff" d="M153.34,-132.53C132.28,-121.01 105.85,-106.54 86.66,-96.04"/>
<polygon fill="#63b8ff" stroke="#63b8ff" points="151.85,-135.71 162.3,-137.44 155.21,-129.56 151.85,-135.71"/>
</a>
</g>
</g>
<!-- Node4 -->
<g id="Node000004" class="node">
<title>Node4</title>
<g id="a_Node000004"><a xlink:href="soc_8hpp.html" target="_top" xlink:title=" ">
<polygon fill="white" stroke="#666666" points="235.5,-90.5 140.5,-90.5 140.5,-71.5 235.5,-71.5 235.5,-90.5"/>
<text text-anchor="middle" x="188" y="-78.5" font-family="Helvetica,sans-Serif" font-size="10.00">src/core/soc.hpp</text>
</a>
</g>
</g>
<!-- Node2&#45;&gt;Node4 -->
<g id="edge3_Node000002_Node000004" class="edge">
<title>Node2&#45;&gt;Node4</title>
<g id="a_edge3_Node000002_Node000004"><a xlink:title=" ">
<path fill="none" stroke="#63b8ff" d="M188,-127.06C188,-114.45 188,-99.85 188,-90.77"/>
<polygon fill="#63b8ff" stroke="#63b8ff" points="184.5,-127.44 188,-137.44 191.5,-127.44 184.5,-127.44"/>
</a>
</g>
</g>
<!-- Node8 -->
<g id="Node000008" class="node">
<title>Node8</title>
<g id="a_Node000008"><a xlink:href="cp10__window_8hpp.html" target="_top" xlink:title="This file defines a window that displays data (information) related to coprocessor 10 (FPU).">
<polygon fill="white" stroke="#666666" points="374.5,-96 253.5,-96 253.5,-66 374.5,-66 374.5,-96"/>
<text text-anchor="start" x="261.5" y="-84" font-family="Helvetica,sans-Serif" font-size="10.00">src/gui/windows/cp10</text>
<text text-anchor="middle" x="314" y="-73" font-family="Helvetica,sans-Serif" font-size="10.00">_window.hpp</text>
</a>
</g>
</g>
<!-- Node2&#45;&gt;Node8 -->
<g id="edge7_Node000002_Node000008" class="edge">
<title>Node2&#45;&gt;Node8</title>
<g id="a_edge7_Node000002_Node000008"><a xlink:title=" ">
<path fill="none" stroke="#63b8ff" d="M222.38,-132.53C243.28,-121.01 269.51,-106.54 288.54,-96.04"/>
<polygon fill="#63b8ff" stroke="#63b8ff" points="220.56,-129.54 213.5,-137.44 223.94,-135.67 220.56,-129.54"/>
</a>
</g>
</g>
<!-- Node5 -->
<g id="Node000005" class="node">
<title>Node5</title>
<g id="a_Node000005"><a xlink:href="soc_8cpp.html" target="_top" xlink:title=" ">
<polygon fill="white" stroke="#666666" points="130.5,-24.5 35.5,-24.5 35.5,-5.5 130.5,-5.5 130.5,-24.5"/>
<text text-anchor="middle" x="83" y="-12.5" font-family="Helvetica,sans-Serif" font-size="10.00">src/core/soc.cpp</text>
</a>
</g>
</g>
<!-- Node4&#45;&gt;Node5 -->
<g id="edge4_Node000004_Node000005" class="edge">
<title>Node4&#45;&gt;Node5</title>
<g id="a_edge4_Node000004_Node000005"><a xlink:title=" ">
<path fill="none" stroke="#63b8ff" d="M165.06,-66.02C144.41,-53.43 114.7,-35.32 97.27,-24.7"/>
<polygon fill="#63b8ff" stroke="#63b8ff" points="163.48,-69.15 173.84,-71.37 167.12,-63.18 163.48,-69.15"/>
</a>
</g>
</g>
<!-- Node6 -->
<g id="Node000006" class="node">
<title>Node6</title>
<g id="a_Node000006"><a xlink:href="gui_8cpp.html" target="_top" xlink:title="This file implements the main GUI entry function that takes care of creating and rendering all window...">
<polygon fill="white" stroke="#666666" points="332.5,-24.5 245.5,-24.5 245.5,-5.5 332.5,-5.5 332.5,-24.5"/>
<text text-anchor="middle" x="289" y="-12.5" font-family="Helvetica,sans-Serif" font-size="10.00">src/gui/gui.cpp</text>
</a>
</g>
</g>
<!-- Node4&#45;&gt;Node6 -->
<g id="edge5_Node000004_Node000006" class="edge">
<title>Node4&#45;&gt;Node6</title>
<g id="a_edge5_Node000004_Node000006"><a xlink:title=" ">
<path fill="none" stroke="#63b8ff" d="M210.33,-65.85C230.19,-53.27 258.58,-35.28 275.27,-24.7"/>
<polygon fill="#63b8ff" stroke="#63b8ff" points="208.19,-63.06 201.62,-71.37 211.94,-68.97 208.19,-63.06"/>
</a>
</g>
</g>
<!-- Node7 -->
<g id="Node000007" class="node">
<title>Node7</title>
<g id="a_Node000007"><a xlink:href="main_8cpp.html" target="_top" xlink:title="This file defines and implements the main function of the application.">
<polygon fill="white" stroke="#666666" points="227.5,-24.5 148.5,-24.5 148.5,-5.5 227.5,-5.5 227.5,-24.5"/>
<text text-anchor="middle" x="188" y="-12.5" font-family="Helvetica,sans-Serif" font-size="10.00">src/main.cpp</text>
</a>
</g>
</g>
<!-- Node4&#45;&gt;Node7 -->
<g id="edge6_Node000004_Node000007" class="edge">
<title>Node4&#45;&gt;Node7</title>
<g id="a_edge6_Node000004_Node000007"><a xlink:title=" ">
<path fill="none" stroke="#63b8ff" d="M188,-61.08C188,-49.13 188,-34.22 188,-24.91"/>
<polygon fill="#63b8ff" stroke="#63b8ff" points="184.5,-61.37 188,-71.37 191.5,-61.37 184.5,-61.37"/>
</a>
</g>
</g>
<!-- Node8&#45;&gt;Node6 -->
<g id="edge8_Node000008_Node000006" class="edge">
<title>Node8&#45;&gt;Node6</title>
<g id="a_edge8_Node000008_Node000006"><a xlink:title=" ">
<path fill="none" stroke="#63b8ff" d="M304.73,-56.28C300.45,-45.31 295.62,-32.94 292.45,-24.84"/>
<polygon fill="#63b8ff" stroke="#63b8ff" points="301.55,-57.76 308.45,-65.8 308.07,-55.21 301.55,-57.76"/>
</a>
</g>
</g>
<!-- Node9 -->
<g id="Node000009" class="node">
<title>Node9</title>
<g id="a_Node000009"><a xlink:href="cp10__window_8cpp.html" target="_top" xlink:title="This file implements a window that displays data (information) related to coprocessor 10 (FPU).">
<polygon fill="white" stroke="#666666" points="471.5,-30 350.5,-30 350.5,0 471.5,0 471.5,-30"/>
<text text-anchor="start" x="358.5" y="-18" font-family="Helvetica,sans-Serif" font-size="10.00">src/gui/windows/cp10</text>
<text text-anchor="middle" x="411" y="-7" font-family="Helvetica,sans-Serif" font-size="10.00">_window.cpp</text>
</a>
</g>
</g>
<!-- Node8&#45;&gt;Node9 -->
<g id="edge9_Node000008_Node000009" class="edge">
<title>Node8&#45;&gt;Node9</title>
<g id="a_edge9_Node000008_Node000009"><a xlink:title=" ">
<path fill="none" stroke="#63b8ff" d="M344.27,-60.03C358.95,-50.34 376.23,-38.94 389.53,-30.16"/>
<polygon fill="#63b8ff" stroke="#63b8ff" points="341.95,-57.37 335.53,-65.8 345.8,-63.21 341.95,-57.37"/>
</a>
</g>
</g>
</g>
</svg>
