<?xml version="1.0" encoding="UTF-8" standalone="no"?>
<!DOCTYPE svg PUBLIC "-//W3C//DTD SVG 1.1//EN"
 "http://www.w3.org/Graphics/SVG/1.1/DTD/svg11.dtd">
<!-- Generated by graphviz version 2.43.0 (0)
 -->
<!-- Title: src/core/coprocessors/cp10/isa/cp_data_transfer_inst.cpp Pages: 1 -->
<svg width="153pt" height="159pt"
 viewBox="0.00 0.00 153.00 159.00" xmlns="http://www.w3.org/2000/svg" xmlns:xlink="http://www.w3.org/1999/xlink">
<g id="graph0" class="graph" transform="scale(1 1) rotate(0) translate(4 155)">
<title>src/core/coprocessors/cp10/isa/cp_data_transfer_inst.cpp</title>
<!-- Node1 -->
<g id="Node000001" class="node">
<title>Node1</title>
<g id="a_Node000001"><a xlink:title="This file implements a general CP10 data transfer instruction (load and store).">
<polygon fill="#999999" stroke="#666666" points="145,-151 0,-151 0,-110 145,-110 145,-151"/>
<text text-anchor="start" x="8" y="-139" font-family="Helvetica,sans-Serif" font-size="10.00">src/core/coprocessors</text>
<text text-anchor="start" x="8" y="-128" font-family="Helvetica,sans-Serif" font-size="10.00">/cp10/isa/cp_data_transfer</text>
<text text-anchor="middle" x="72.5" y="-117" font-family="Helvetica,sans-Serif" font-size="10.00">_inst.cpp</text>
</a>
</g>
</g>
<!-- Node2 -->
<g id="Node000002" class="node">
<title>Node2</title>
<g id="a_Node000002"><a xlink:href="cp__data__transfer__inst_8hpp.html" target="_top" xlink:title="This file defines a general CP10 data transfer instruction (load and store).">
<polygon fill="white" stroke="#666666" points="144,-74 1,-74 1,-55 144,-55 144,-74"/>
<text text-anchor="middle" x="72.5" y="-62" font-family="Helvetica,sans-Serif" font-size="10.00">cp_data_transfer_inst.hpp</text>
</a>
</g>
</g>
<!-- Node1&#45;&gt;Node2 -->
<g id="edge1_Node000001_Node000002" class="edge">
<title>Node1&#45;&gt;Node2</title>
<g id="a_edge1_Node000001_Node000002"><a xlink:title=" ">
<path fill="none" stroke="#63b8ff" d="M72.5,-109.95C72.5,-101.85 72.5,-92.5 72.5,-84.47"/>
<polygon fill="#63b8ff" stroke="#63b8ff" points="76,-84.26 72.5,-74.26 69,-84.26 76,-84.26"/>
</a>
</g>
</g>
<!-- Node3 -->
<g id="Node000003" class="node">
<title>Node3</title>
<g id="a_Node000003"><a xlink:href="cp__instruction_8hpp.html" target="_top" xlink:title="This file defines a general CP10 instruction.">
<polygon fill="white" stroke="#666666" points="125.5,-19 19.5,-19 19.5,0 125.5,0 125.5,-19"/>
<text text-anchor="middle" x="72.5" y="-7" font-family="Helvetica,sans-Serif" font-size="10.00">cp_instruction.hpp</text>
</a>
</g>
</g>
<!-- Node2&#45;&gt;Node3 -->
<g id="edge2_Node000002_Node000003" class="edge">
<title>Node2&#45;&gt;Node3</title>
<g id="a_edge2_Node000002_Node000003"><a xlink:title=" ">
<path fill="none" stroke="#63b8ff" d="M72.5,-54.75C72.5,-47.8 72.5,-37.85 72.5,-29.13"/>
<polygon fill="#63b8ff" stroke="#63b8ff" points="76,-29.09 72.5,-19.09 69,-29.09 76,-29.09"/>
</a>
</g>
</g>
</g>
</svg>
