<?xml version="1.0" encoding="UTF-8" standalone="no"?>
<!DOCTYPE svg PUBLIC "-//W3C//DTD SVG 1.1//EN"
 "http://www.w3.org/Graphics/SVG/1.1/DTD/svg11.dtd">
<!-- Generated by graphviz version 2.43.0 (0)
 -->
<!-- Title: src/core/coprocessors/cp10/isa/data_transfer.hpp Pages: 1 -->
<svg width="519pt" height="302pt"
 viewBox="0.00 0.00 518.50 302.00" xmlns="http://www.w3.org/2000/svg" xmlns:xlink="http://www.w3.org/1999/xlink">
<g id="graph0" class="graph" transform="scale(1 1) rotate(0) translate(4 298)">
<title>src/core/coprocessors/cp10/isa/data_transfer.hpp</title>
<!-- Node1 -->
<g id="Node000001" class="node">
<title>Node1</title>
<g id="a_Node000001"><a xlink:title="This file defines a data transfer instruction.">
<polygon fill="#999999" stroke="#666666" points="224.5,-294 75.5,-294 75.5,-264 224.5,-264 224.5,-294"/>
<text text-anchor="start" x="83.5" y="-282" font-family="Helvetica,sans-Serif" font-size="10.00">src/core/coprocessors</text>
<text text-anchor="middle" x="150" y="-271" font-family="Helvetica,sans-Serif" font-size="10.00">/cp10/isa/data_transfer.hpp</text>
</a>
</g>
</g>
<!-- Node2 -->
<g id="Node000002" class="node">
<title>Node2</title>
<g id="a_Node000002"><a xlink:href="data__transfer_8cpp.html" target="_top" xlink:title="This file implements a data transfer instruction.">
<polygon fill="white" stroke="#666666" points="148,-228 0,-228 0,-198 148,-198 148,-228"/>
<text text-anchor="start" x="8" y="-216" font-family="Helvetica,sans-Serif" font-size="10.00">src/core/coprocessors</text>
<text text-anchor="middle" x="74" y="-205" font-family="Helvetica,sans-Serif" font-size="10.00">/cp10/isa/data_transfer.cpp</text>
</a>
</g>
</g>
<!-- Node1&#45;&gt;Node2 -->
<g id="edge1_Node000001_Node000002" class="edge">
<title>Node1&#45;&gt;Node2</title>
<g id="a_edge1_Node000001_Node000002"><a xlink:title=" ">
<path fill="none" stroke="#63b8ff" d="M125.3,-257.2C114.02,-247.7 100.95,-236.69 90.82,-228.16"/>
<polygon fill="#63b8ff" stroke="#63b8ff" points="123.23,-260.03 133.13,-263.8 127.74,-254.68 123.23,-260.03"/>
</a>
</g>
</g>
<!-- Node3 -->
<g id="Node000003" class="node">
<title>Node3</title>
<g id="a_Node000003"><a xlink:href="coprocessors_2cp10_2isa_2isa_8hpp.html" target="_top" xlink:title="This file combines different instruction type includes together.">
<polygon fill="white" stroke="#666666" points="288,-228 166,-228 166,-198 288,-198 288,-228"/>
<text text-anchor="start" x="174" y="-216" font-family="Helvetica,sans-Serif" font-size="10.00">src/core/coprocessors</text>
<text text-anchor="middle" x="227" y="-205" font-family="Helvetica,sans-Serif" font-size="10.00">/cp10/isa/isa.hpp</text>
</a>
</g>
</g>
<!-- Node1&#45;&gt;Node3 -->
<g id="edge2_Node000001_Node000003" class="edge">
<title>Node1&#45;&gt;Node3</title>
<g id="a_edge2_Node000001_Node000003"><a xlink:title=" ">
<path fill="none" stroke="#63b8ff" d="M175.02,-257.2C186.45,-247.7 199.7,-236.69 209.96,-228.16"/>
<polygon fill="#63b8ff" stroke="#63b8ff" points="172.54,-254.71 167.09,-263.8 177.02,-260.1 172.54,-254.71"/>
</a>
</g>
</g>
<!-- Node4 -->
<g id="Node000004" class="node">
<title>Node4</title>
<g id="a_Node000004"><a xlink:href="cp10_8hpp.html" target="_top" xlink:title="This file defines coprocessor CP10 (single&#45;precision FPU).">
<polygon fill="white" stroke="#666666" points="288,-162 166,-162 166,-132 288,-132 288,-162"/>
<text text-anchor="start" x="174" y="-150" font-family="Helvetica,sans-Serif" font-size="10.00">src/core/coprocessors</text>
<text text-anchor="middle" x="227" y="-139" font-family="Helvetica,sans-Serif" font-size="10.00">/cp10/cp10.hpp</text>
</a>
</g>
</g>
<!-- Node3&#45;&gt;Node4 -->
<g id="edge3_Node000003_Node000004" class="edge">
<title>Node3&#45;&gt;Node4</title>
<g id="a_edge3_Node000003_Node000004"><a xlink:title=" ">
<path fill="none" stroke="#63b8ff" d="M227,-187.54C227,-178.96 227,-169.61 227,-162.16"/>
<polygon fill="#63b8ff" stroke="#63b8ff" points="223.5,-187.8 227,-197.8 230.5,-187.8 223.5,-187.8"/>
</a>
</g>
</g>
<!-- Node5 -->
<g id="Node000005" class="node">
<title>Node5</title>
<g id="a_Node000005"><a xlink:href="cp10_8cpp.html" target="_top" xlink:title="This file implements coprocessor CP10 (single&#45;precision FPU).">
<polygon fill="white" stroke="#666666" points="161,-96 39,-96 39,-66 161,-66 161,-96"/>
<text text-anchor="start" x="47" y="-84" font-family="Helvetica,sans-Serif" font-size="10.00">src/core/coprocessors</text>
<text text-anchor="middle" x="100" y="-73" font-family="Helvetica,sans-Serif" font-size="10.00">/cp10/cp10.cpp</text>
</a>
</g>
</g>
<!-- Node4&#45;&gt;Node5 -->
<g id="edge4_Node000004_Node000005" class="edge">
<title>Node4&#45;&gt;Node5</title>
<g id="a_edge4_Node000004_Node000005"><a xlink:title=" ">
<path fill="none" stroke="#63b8ff" d="M190.05,-127.38C170.17,-117.36 146.07,-105.22 127.81,-96.01"/>
<polygon fill="#63b8ff" stroke="#63b8ff" points="188.62,-130.58 199.13,-131.95 191.77,-124.33 188.62,-130.58"/>
</a>
</g>
</g>
<!-- Node6 -->
<g id="Node000006" class="node">
<title>Node6</title>
<g id="a_Node000006"><a xlink:href="soc_8hpp.html" target="_top" xlink:title=" ">
<polygon fill="white" stroke="#666666" points="274.5,-90.5 179.5,-90.5 179.5,-71.5 274.5,-71.5 274.5,-90.5"/>
<text text-anchor="middle" x="227" y="-78.5" font-family="Helvetica,sans-Serif" font-size="10.00">src/core/soc.hpp</text>
</a>
</g>
</g>
<!-- Node4&#45;&gt;Node6 -->
<g id="edge5_Node000004_Node000006" class="edge">
<title>Node4&#45;&gt;Node6</title>
<g id="a_edge5_Node000004_Node000006"><a xlink:title=" ">
<path fill="none" stroke="#63b8ff" d="M227,-121.6C227,-110.8 227,-98.78 227,-90.84"/>
<polygon fill="#63b8ff" stroke="#63b8ff" points="223.5,-121.8 227,-131.8 230.5,-121.8 223.5,-121.8"/>
</a>
</g>
</g>
<!-- Node10 -->
<g id="Node000010" class="node">
<title>Node10</title>
<g id="a_Node000010"><a xlink:href="cp10__window_8hpp.html" target="_top" xlink:title="This file defines a window that displays data (information) related to coprocessor 10 (FPU).">
<polygon fill="white" stroke="#666666" points="413.5,-96 292.5,-96 292.5,-66 413.5,-66 413.5,-96"/>
<text text-anchor="start" x="300.5" y="-84" font-family="Helvetica,sans-Serif" font-size="10.00">src/gui/windows/cp10</text>
<text text-anchor="middle" x="353" y="-73" font-family="Helvetica,sans-Serif" font-size="10.00">_window.hpp</text>
</a>
</g>
</g>
<!-- Node4&#45;&gt;Node10 -->
<g id="edge9_Node000004_Node000010" class="edge">
<title>Node4&#45;&gt;Node10</title>
<g id="a_edge9_Node000004_Node000010"><a xlink:title=" ">
<path fill="none" stroke="#63b8ff" d="M263.66,-127.38C283.38,-117.36 307.29,-105.22 325.41,-96.01"/>
<polygon fill="#63b8ff" stroke="#63b8ff" points="261.98,-124.31 254.65,-131.95 265.15,-130.55 261.98,-124.31"/>
</a>
</g>
</g>
<!-- Node7 -->
<g id="Node000007" class="node">
<title>Node7</title>
<g id="a_Node000007"><a xlink:href="soc_8cpp.html" target="_top" xlink:title=" ">
<polygon fill="white" stroke="#666666" points="169.5,-24.5 74.5,-24.5 74.5,-5.5 169.5,-5.5 169.5,-24.5"/>
<text text-anchor="middle" x="122" y="-12.5" font-family="Helvetica,sans-Serif" font-size="10.00">src/core/soc.cpp</text>
</a>
</g>
</g>
<!-- Node6&#45;&gt;Node7 -->
<g id="edge6_Node000006_Node000007" class="edge">
<title>Node6&#45;&gt;Node7</title>
<g id="a_edge6_Node000006_Node000007"><a xlink:title=" ">
<path fill="none" stroke="#63b8ff" d="M204.06,-66.02C183.41,-53.43 153.7,-35.32 136.27,-24.7"/>
<polygon fill="#63b8ff" stroke="#63b8ff" points="202.48,-69.15 212.84,-71.37 206.12,-63.18 202.48,-69.15"/>
</a>
</g>
</g>
<!-- Node8 -->
<g id="Node000008" class="node">
<title>Node8</title>
<g id="a_Node000008"><a xlink:href="gui_8cpp.html" target="_top" xlink:title="This file implements the main GUI entry function that takes care of creating and rendering all window...">
<polygon fill="white" stroke="#666666" points="371.5,-24.5 284.5,-24.5 284.5,-5.5 371.5,-5.5 371.5,-24.5"/>
<text text-anchor="middle" x="328" y="-12.5" font-family="Helvetica,sans-Serif" font-size="10.00">src/gui/gui.cpp</text>
</a>
</g>
</g>
<!-- Node6&#45;&gt;Node8 -->
<g id="edge7_Node000006_Node000008" class="edge">
<title>Node6&#45;&gt;Node8</title>
<g id="a_edge7_Node000006_Node000008"><a xlink:title=" ">
<path fill="none" stroke="#63b8ff" d="M249.33,-65.85C269.19,-53.27 297.58,-35.28 314.27,-24.7"/>
<polygon fill="#63b8ff" stroke="#63b8ff" points="247.19,-63.06 240.62,-71.37 250.94,-68.97 247.19,-63.06"/>
</a>
</g>
</g>
<!-- Node9 -->
<g id="Node000009" class="node">
<title>Node9</title>
<g id="a_Node000009"><a xlink:href="main_8cpp.html" target="_top" xlink:title="This file defines and implements the main function of the application.">
<polygon fill="white" stroke="#666666" points="266.5,-24.5 187.5,-24.5 187.5,-5.5 266.5,-5.5 266.5,-24.5"/>
<text text-anchor="middle" x="227" y="-12.5" font-family="Helvetica,sans-Serif" font-size="10.00">src/main.cpp</text>
</a>
</g>
</g>
<!-- Node6&#45;&gt;Node9 -->
<g id="edge8_Node000006_Node000009" class="edge">
<title>Node6&#45;&gt;Node9</title>
<g id="a_edge8_Node000006_Node000009"><a xlink:title=" ">
<path fill="none" stroke="#63b8ff" d="M227,-61.08C227,-49.13 227,-34.22 227,-24.91"/>
<polygon fill="#63b8ff" stroke="#63b8ff" points="223.5,-61.37 227,-71.37 230.5,-61.37 223.5,-61.37"/>
</a>
</g>
</g>
<!-- Node10&#45;&gt;Node8 -->
<g id="edge10_Node000010_Node000008" class="edge">
<title>Node10&#45;&gt;Node8</title>
<g id="a_edge10_Node000010_Node000008"><a xlink:title=" ">
<path fill="none" stroke="#63b8ff" d="M343.73,-56.28C339.45,-45.31 334.62,-32.94 331.45,-24.84"/>
<polygon fill="#63b8ff" stroke="#63b8ff" points="340.55,-57.76 347.45,-65.8 347.07,-55.21 340.55,-57.76"/>
</a>
</g>
</g>
<!-- Node11 -->
<g id="Node000011" class="node">
<title>Node11</title>
<g id="a_Node000011"><a xlink:href="cp10__window_8cpp.html" target="_top" xlink:title="This file implements a window that displays data (information) related to coprocessor 10 (FPU).">
<polygon fill="white" stroke="#666666" points="510.5,-30 389.5,-30 389.5,0 510.5,0 510.5,-30"/>
<text text-anchor="start" x="397.5" y="-18" font-family="Helvetica,sans-Serif" font-size="10.00">src/gui/windows/cp10</text>
<text text-anchor="middle" x="450" y="-7" font-family="Helvetica,sans-Serif" font-size="10.00">_window.cpp</text>
</a>
</g>
</g>
<!-- Node10&#45;&gt;Node11 -->
<g id="edge11_Node000010_Node000011" class="edge">
<title>Node10&#45;&gt;Node11</title>
<g id="a_edge11_Node000010_Node000011"><a xlink:title=" ">
<path fill="none" stroke="#63b8ff" d="M383.27,-60.03C397.95,-50.34 415.23,-38.94 428.53,-30.16"/>
<polygon fill="#63b8ff" stroke="#63b8ff" points="380.95,-57.37 374.53,-65.8 384.8,-63.21 380.95,-57.37"/>
</a>
</g>
</g>
</g>
</svg>
