<?xml version="1.0" encoding="UTF-8" standalone="no"?>
<!DOCTYPE svg PUBLIC "-//W3C//DTD SVG 1.1//EN"
 "http://www.w3.org/Graphics/SVG/1.1/DTD/svg11.dtd">
<!-- Generated by graphviz version 2.43.0 (0)
 -->
<!-- Title: src/core Pages: 1 -->
<svg width="326pt" height="235pt"
 viewBox="0.00 0.00 325.94 235.00" xmlns="http://www.w3.org/2000/svg" xmlns:xlink="http://www.w3.org/1999/xlink">
<g id="graph0" class="graph" transform="scale(1 1) rotate(0) translate(4 231)">
<title>src/core</title>
<g id="clust1" class="cluster">
<title>clusterdir_68267d1309a1af8e8297ef4c3efbcdba</title>
<g id="a_clust1"><a xlink:href="dir_68267d1309a1af8e8297ef4c3efbcdba.html" target="_top" xlink:title="src">
<polygon fill="#edf0f7" stroke="#404040" stroke-dasharray="5,2" points="8,-39 8,-219 306,-219 306,-39 8,-39"/>
<text text-anchor="middle" x="157" y="-207" font-family="Helvetica,sans-Serif" font-size="10.00">src</text>
</a>
</g>
</g>
<g id="clust2" class="cluster">
<title>clusterdir_aebb8dcc11953d78e620bbef0b9e2183</title>
<g id="a_clust2"><a xlink:href="dir_aebb8dcc11953d78e620bbef0b9e2183.html" target="_top">
<polygon fill="#edf0f7" stroke="#404040" stroke-width="2" points="16,-47 16,-192 202,-192 202,-47 16,-47"/>
</a>
</g>
</g>
<!-- dir_313caf1132e152dd9b58bea13a4052ca -->
<g id="node1" class="node">
<title>dir_313caf1132e152dd9b58bea13a4052ca</title>
<g id="a_node1"><a xlink:href="dir_313caf1132e152dd9b58bea13a4052ca.html" target="_top" xlink:title="utils">
<polygon fill="#a2b4d6" stroke="red" points="248,-129 210,-129 210,-110 248,-110 248,-129"/>
<text text-anchor="middle" x="229" y="-117" font-family="Helvetica,sans-Serif" font-size="10.00">utils</text>
</a>
</g>
</g>
<!-- dir_99d0482cf009f9d97a0877749b817f19 -->
<g id="node2" class="node">
<title>dir_99d0482cf009f9d97a0877749b817f19</title>
<g id="a_node2"><a xlink:href="dir_99d0482cf009f9d97a0877749b817f19.html" target="_top" xlink:title="gui">
<polygon fill="#a2b4d6" stroke="red" points="298,-129 266,-129 266,-110 298,-110 298,-129"/>
<text text-anchor="middle" x="282" y="-117" font-family="Helvetica,sans-Serif" font-size="10.00">gui</text>
</a>
</g>
</g>
<!-- dir_aebb8dcc11953d78e620bbef0b9e2183 -->
<g id="node3" class="node">
<title>dir_aebb8dcc11953d78e620bbef0b9e2183</title>
<text text-anchor="middle" x="175" y="-172" font-family="Helvetica,sans-Serif" font-size="10.00">core</text>
</g>
<!-- dir_aebb8dcc11953d78e620bbef0b9e2183&#45;&gt;dir_313caf1132e152dd9b58bea13a4052ca -->
<g id="edge1" class="edge">
<title>dir_aebb8dcc11953d78e620bbef0b9e2183&#45;&gt;dir_313caf1132e152dd9b58bea13a4052ca</title>
<g id="a_edge1"><a xlink:href="dir_000003_000019.html" target="_top">
<path fill="none" stroke="#63b8ff" d="M183.92,-164.75C191.78,-157.03 203.43,-145.6 212.92,-136.28"/>
<polygon fill="#63b8ff" stroke="#63b8ff" points="215.56,-138.59 220.25,-129.09 210.66,-133.6 215.56,-138.59"/>
</a>
</g>
<g id="a_edge1&#45;headlabel"><a xlink:href="dir_000003_000019.html" target="_top" xlink:title="1">
<text text-anchor="middle" x="214.99" y="-140.64" font-family="Helvetica,sans-Serif" font-size="10.00" fill="#63b8ff">1</text>
</a>
</g>
</g>
<!-- dir_aebb8dcc11953d78e620bbef0b9e2183&#45;&gt;dir_99d0482cf009f9d97a0877749b817f19 -->
<g id="edge5" class="edge">
<title>dir_aebb8dcc11953d78e620bbef0b9e2183&#45;&gt;dir_99d0482cf009f9d97a0877749b817f19</title>
<g id="a_edge5"><a xlink:href="dir_000003_000006.html" target="_top">
<path fill="none" stroke="#63b8ff" d="M192.19,-164.98C209.66,-156.33 236.89,-142.84 256.8,-132.98"/>
<polygon fill="#63b8ff" stroke="#63b8ff" points="258.49,-136.05 265.9,-128.47 255.39,-129.78 258.49,-136.05"/>
</a>
</g>
<g id="a_edge5&#45;headlabel"><a xlink:href="dir_000003_000006.html" target="_top" xlink:title="1">
<text text-anchor="middle" x="256.53" y="-137.69" font-family="Helvetica,sans-Serif" font-size="10.00" fill="#63b8ff">1</text>
</a>
</g>
</g>
<!-- dir_5c2a493d5805d567e6a0ff4c1ba80ec6 -->
<g id="node4" class="node">
<title>dir_5c2a493d5805d567e6a0ff4c1ba80ec6</title>
<g id="a_node4"><a xlink:href="dir_5c2a493d5805d567e6a0ff4c1ba80ec6.html" target="_top" xlink:title="arm1176jzf_s">
<polygon fill="#a2b4d6" stroke="#404040" points="169.5,-129 86.5,-129 86.5,-110 169.5,-110 169.5,-129"/>
<text text-anchor="middle" x="128" y="-117" font-family="Helvetica,sans-Serif" font-size="10.00">arm1176jzf_s</text>
</a>
</g>
</g>
<!-- dir_aebb8dcc11953d78e620bbef0b9e2183&#45;&gt;dir_5c2a493d5805d567e6a0ff4c1ba80ec6 -->
<g id="edge4" class="edge">
<title>dir_aebb8dcc11953d78e620bbef0b9e2183&#45;&gt;dir_5c2a493d5805d567e6a0ff4c1ba80ec6</title>
<g id="a_edge4"><a xlink:href="dir_000003_000000.html" target="_top">
<path fill="none" stroke="#63b8ff" d="M167.24,-164.75C160.53,-157.18 150.66,-146.05 142.49,-136.84"/>
<polygon fill="#63b8ff" stroke="#63b8ff" points="144.87,-134.25 135.62,-129.09 139.63,-138.89 144.87,-134.25"/>
</a>
</g>
<g id="a_edge4&#45;headlabel"><a xlink:href="dir_000003_000000.html" target="_top" xlink:title="16">
<text text-anchor="middle" x="149.38" y="-132.55" font-family="Helvetica,sans-Serif" font-size="10.00" fill="#63b8ff">16</text>
</a>
</g>
</g>
<!-- dir_523ec841fd74605300afe43d91402cb4 -->
<g id="node5" class="node">
<title>dir_523ec841fd74605300afe43d91402cb4</title>
<g id="a_node5"><a xlink:href="dir_523ec841fd74605300afe43d91402cb4.html" target="_top" xlink:title="coprocessors">
<polygon fill="#a2b4d6" stroke="#404040" points="104,-74 24,-74 24,-55 104,-55 104,-74"/>
<text text-anchor="middle" x="64" y="-62" font-family="Helvetica,sans-Serif" font-size="10.00">coprocessors</text>
</a>
</g>
</g>
<!-- dir_aebb8dcc11953d78e620bbef0b9e2183&#45;&gt;dir_523ec841fd74605300afe43d91402cb4 -->
<g id="edge3" class="edge">
<title>dir_aebb8dcc11953d78e620bbef0b9e2183&#45;&gt;dir_523ec841fd74605300afe43d91402cb4</title>
<g id="a_edge3"><a xlink:href="dir_000003_000002.html" target="_top">
<path fill="none" stroke="#63b8ff" d="M155.82,-170.02C133.64,-164.96 97.66,-153.37 78,-129 67.92,-116.51 64.72,-98.3 63.86,-84.59"/>
<polygon fill="#63b8ff" stroke="#63b8ff" points="67.36,-84.25 63.6,-74.34 60.36,-84.43 67.36,-84.25"/>
</a>
</g>
<g id="a_edge3&#45;headlabel"><a xlink:href="dir_000003_000002.html" target="_top" xlink:title="9">
<text text-anchor="middle" x="70.29" y="-85.27" font-family="Helvetica,sans-Serif" font-size="10.00" fill="#63b8ff">9</text>
</a>
</g>
</g>
<!-- dir_34794bca92a793a1e58b77dac439fbe4 -->
<g id="node6" class="node">
<title>dir_34794bca92a793a1e58b77dac439fbe4</title>
<g id="a_node6"><a xlink:href="dir_34794bca92a793a1e58b77dac439fbe4.html" target="_top" xlink:title="peripherals">
<polygon fill="#a2b4d6" stroke="#404040" points="193.5,-74 122.5,-74 122.5,-55 193.5,-55 193.5,-74"/>
<text text-anchor="middle" x="158" y="-62" font-family="Helvetica,sans-Serif" font-size="10.00">peripherals</text>
</a>
</g>
</g>
<!-- dir_aebb8dcc11953d78e620bbef0b9e2183&#45;&gt;dir_34794bca92a793a1e58b77dac439fbe4 -->
<g id="edge2" class="edge">
<title>dir_aebb8dcc11953d78e620bbef0b9e2183&#45;&gt;dir_34794bca92a793a1e58b77dac439fbe4</title>
<g id="a_edge2"><a xlink:href="dir_000003_000014.html" target="_top">
<path fill="none" stroke="#63b8ff" d="M177.09,-164.75C179.69,-152.39 183.3,-129.19 179,-110 176.92,-100.74 172.7,-91.14 168.57,-83.23"/>
<polygon fill="#63b8ff" stroke="#63b8ff" points="171.51,-81.31 163.58,-74.28 165.4,-84.72 171.51,-81.31"/>
</a>
</g>
<g id="a_edge2&#45;headlabel"><a xlink:href="dir_000003_000014.html" target="_top" xlink:title="11">
<text text-anchor="middle" x="175.74" y="-80.56" font-family="Helvetica,sans-Serif" font-size="10.00" fill="#63b8ff">11</text>
</a>
</g>
</g>
<!-- dir_d44c64559bbebec7f509842c48db8b23 -->
<g id="node7" class="node">
<title>dir_d44c64559bbebec7f509842c48db8b23</title>
<g id="a_node7"><a xlink:href="dir_d44c64559bbebec7f509842c48db8b23.html" target="_top" xlink:title="include">
<polygon fill="#edf0f7" stroke="red" points="216,-19 164,-19 164,0 216,0 216,-19"/>
<text text-anchor="middle" x="190" y="-7" font-family="Helvetica,sans-Serif" font-size="10.00">include</text>
</a>
</g>
</g>
<!-- dir_aebb8dcc11953d78e620bbef0b9e2183&#45;&gt;dir_d44c64559bbebec7f509842c48db8b23 -->
<g id="edge6" class="edge">
<title>dir_aebb8dcc11953d78e620bbef0b9e2183&#45;&gt;dir_d44c64559bbebec7f509842c48db8b23</title>
<g id="a_edge6"><a xlink:href="dir_000003_000007.html" target="_top">
<path fill="none" stroke="#63b8ff" d="M194.22,-173.67C224.66,-172.76 283.24,-165.99 310,-129 341.49,-85.46 266.15,-43.44 220.97,-23.14"/>
<polygon fill="#63b8ff" stroke="#63b8ff" points="222.14,-19.83 211.57,-19.03 219.33,-26.25 222.14,-19.83"/>
</a>
</g>
<g id="a_edge6&#45;headlabel"><a xlink:href="dir_000003_000007.html" target="_top" xlink:title="32">
<text text-anchor="middle" x="226.57" y="-16.17" font-family="Helvetica,sans-Serif" font-size="10.00" fill="#63b8ff">32</text>
</a>
</g>
</g>
<!-- dir_5c2a493d5805d567e6a0ff4c1ba80ec6&#45;&gt;dir_523ec841fd74605300afe43d91402cb4 -->
<g id="edge8" class="edge">
<title>dir_5c2a493d5805d567e6a0ff4c1ba80ec6&#45;&gt;dir_523ec841fd74605300afe43d91402cb4</title>
<g id="a_edge8"><a xlink:href="dir_000000_000002.html" target="_top">
<path fill="none" stroke="#63b8ff" d="M112.6,-109.98C101.52,-102.23 87.09,-90.58 76.67,-81.14"/>
<polygon fill="#63b8ff" stroke="#63b8ff" points="78.98,-78.51 69.32,-74.17 74.17,-83.59 78.98,-78.51"/>
</a>
</g>
<g id="a_edge8&#45;headlabel"><a xlink:href="dir_000000_000002.html" target="_top" xlink:title="2">
<text text-anchor="middle" x="83.55" y="-76.43" font-family="Helvetica,sans-Serif" font-size="10.00" fill="#63b8ff">2</text>
</a>
</g>
</g>
<!-- dir_5c2a493d5805d567e6a0ff4c1ba80ec6&#45;&gt;dir_34794bca92a793a1e58b77dac439fbe4 -->
<g id="edge7" class="edge">
<title>dir_5c2a493d5805d567e6a0ff4c1ba80ec6&#45;&gt;dir_34794bca92a793a1e58b77dac439fbe4</title>
<g id="a_edge7"><a xlink:href="dir_000000_000014.html" target="_top">
<path fill="none" stroke="#63b8ff" d="M127.79,-109.75C130.39,-102.34 136.13,-91.5 142.09,-82.41"/>
<polygon fill="#63b8ff" stroke="#63b8ff" points="145.06,-84.27 148.01,-74.09 139.36,-80.21 145.06,-84.27"/>
</a>
</g>
<g id="a_edge7&#45;headlabel"><a xlink:href="dir_000000_000014.html" target="_top" xlink:title="2">
<text text-anchor="middle" x="145.29" y="-86.34" font-family="Helvetica,sans-Serif" font-size="10.00" fill="#63b8ff">2</text>
</a>
</g>
</g>
<!-- dir_5c2a493d5805d567e6a0ff4c1ba80ec6&#45;&gt;dir_d44c64559bbebec7f509842c48db8b23 -->
<g id="edge9" class="edge">
<title>dir_5c2a493d5805d567e6a0ff4c1ba80ec6&#45;&gt;dir_d44c64559bbebec7f509842c48db8b23</title>
<g id="a_edge9"><a xlink:href="dir_000000_000007.html" target="_top">
<path fill="none" stroke="#63b8ff" d="M155.65,-109.98C172.58,-103.17 192.89,-91.76 203,-74 210.99,-59.97 205.94,-41.73 199.96,-28.4"/>
<polygon fill="#63b8ff" stroke="#63b8ff" points="203.02,-26.68 195.41,-19.31 196.76,-29.82 203.02,-26.68"/>
</a>
</g>
<g id="a_edge9&#45;headlabel"><a xlink:href="dir_000000_000007.html" target="_top" xlink:title="9">
<text text-anchor="middle" x="207.17" y="-26.12" font-family="Helvetica,sans-Serif" font-size="10.00" fill="#63b8ff">9</text>
</a>
</g>
</g>
<!-- dir_523ec841fd74605300afe43d91402cb4&#45;&gt;dir_5c2a493d5805d567e6a0ff4c1ba80ec6 -->
<g id="edge10" class="edge">
<title>dir_523ec841fd74605300afe43d91402cb4&#45;&gt;dir_5c2a493d5805d567e6a0ff4c1ba80ec6</title>
<g id="a_edge10"><a xlink:href="dir_000002_000000.html" target="_top">
<path fill="none" stroke="#63b8ff" d="M79.5,-74.09C90.55,-81.83 104.89,-93.41 115.26,-102.8"/>
<polygon fill="#63b8ff" stroke="#63b8ff" points="112.93,-105.41 122.6,-109.75 117.75,-100.33 112.93,-105.41"/>
</a>
</g>
<g id="a_edge10&#45;headlabel"><a xlink:href="dir_000002_000000.html" target="_top" xlink:title="6">
<text text-anchor="middle" x="108.37" y="-102.5" font-family="Helvetica,sans-Serif" font-size="10.00" fill="#63b8ff">6</text>
</a>
</g>
</g>
<!-- dir_523ec841fd74605300afe43d91402cb4&#45;&gt;dir_d44c64559bbebec7f509842c48db8b23 -->
<g id="edge11" class="edge">
<title>dir_523ec841fd74605300afe43d91402cb4&#45;&gt;dir_d44c64559bbebec7f509842c48db8b23</title>
<g id="a_edge11"><a xlink:href="dir_000002_000007.html" target="_top">
<path fill="none" stroke="#63b8ff" d="M80.48,-54.93C90.14,-50.03 102.64,-43.9 114,-39 127.51,-33.17 142.64,-27.36 155.82,-22.52"/>
<polygon fill="#63b8ff" stroke="#63b8ff" points="157.25,-25.72 165.46,-19.02 154.87,-19.14 157.25,-25.72"/>
</a>
</g>
<g id="a_edge11&#45;headlabel"><a xlink:href="dir_000002_000007.html" target="_top" xlink:title="7">
<text text-anchor="middle" x="154.84" y="-27.12" font-family="Helvetica,sans-Serif" font-size="10.00" fill="#63b8ff">7</text>
</a>
</g>
</g>
<!-- dir_34794bca92a793a1e58b77dac439fbe4&#45;&gt;dir_5c2a493d5805d567e6a0ff4c1ba80ec6 -->
<g id="edge12" class="edge">
<title>dir_34794bca92a793a1e58b77dac439fbe4&#45;&gt;dir_5c2a493d5805d567e6a0ff4c1ba80ec6</title>
<g id="a_edge12"><a xlink:href="dir_000014_000000.html" target="_top">
<path fill="none" stroke="#63b8ff" d="M158.27,-74.09C155.71,-81.45 150,-92.27 144.04,-101.39"/>
<polygon fill="#63b8ff" stroke="#63b8ff" points="141.05,-99.57 138.12,-109.75 146.76,-103.61 141.05,-99.57"/>
</a>
</g>
<g id="a_edge12&#45;headlabel"><a xlink:href="dir_000014_000000.html" target="_top" xlink:title="1">
<text text-anchor="middle" x="140.81" y="-92.49" font-family="Helvetica,sans-Serif" font-size="10.00" fill="#63b8ff">1</text>
</a>
</g>
</g>
<!-- dir_34794bca92a793a1e58b77dac439fbe4&#45;&gt;dir_d44c64559bbebec7f509842c48db8b23 -->
<g id="edge13" class="edge">
<title>dir_34794bca92a793a1e58b77dac439fbe4&#45;&gt;dir_d44c64559bbebec7f509842c48db8b23</title>
<g id="a_edge13"><a xlink:href="dir_000014_000007.html" target="_top">
<path fill="none" stroke="#63b8ff" d="M163.28,-54.75C167.71,-47.42 174.16,-36.73 179.62,-27.7"/>
<polygon fill="#63b8ff" stroke="#63b8ff" points="182.64,-29.46 184.81,-19.09 176.65,-25.84 182.64,-29.46"/>
</a>
</g>
<g id="a_edge13&#45;headlabel"><a xlink:href="dir_000014_000007.html" target="_top" xlink:title="13">
<text text-anchor="middle" x="183.21" y="-31.5" font-family="Helvetica,sans-Serif" font-size="10.00" fill="#63b8ff">13</text>
</a>
</g>
</g>
</g>
</svg>
