<?xml version="1.0" encoding="UTF-8" standalone="no"?>
<!DOCTYPE svg PUBLIC "-//W3C//DTD SVG 1.1//EN"
 "http://www.w3.org/Graphics/SVG/1.1/DTD/svg11.dtd">
<!-- Generated by graphviz version 2.43.0 (0)
 -->
<!-- Title: src/core/arm1176jzf_s Pages: 1 -->
<svg width="302pt" height="196pt"
 viewBox="0.00 0.00 302.00 196.00" xmlns="http://www.w3.org/2000/svg" xmlns:xlink="http://www.w3.org/1999/xlink">
<g id="graph0" class="graph" transform="scale(1 1) rotate(0) translate(4 192)">
<title>src/core/arm1176jzf_s</title>
<g id="clust1" class="cluster">
<title>clusterdir_aebb8dcc11953d78e620bbef0b9e2183</title>
<g id="a_clust1"><a xlink:href="dir_aebb8dcc11953d78e620bbef0b9e2183.html" target="_top" xlink:title="core">
<polygon fill="#edf0f7" stroke="#7f7f7f" stroke-dasharray="5,2" points="8,-8 8,-180 234,-180 234,-8 8,-8"/>
<text text-anchor="middle" x="121" y="-168" font-family="Helvetica,sans-Serif" font-size="10.00">core</text>
</a>
</g>
</g>
<g id="clust2" class="cluster">
<title>clusterdir_5c2a493d5805d567e6a0ff4c1ba80ec6</title>
<g id="a_clust2"><a xlink:href="dir_5c2a493d5805d567e6a0ff4c1ba80ec6.html" target="_top">
<polygon fill="#edf0f7" stroke="#404040" stroke-width="2" points="118,-63 118,-153 226,-153 226,-63 118,-63"/>
</a>
</g>
</g>
<!-- dir_34794bca92a793a1e58b77dac439fbe4 -->
<g id="node1" class="node">
<title>dir_34794bca92a793a1e58b77dac439fbe4</title>
<g id="a_node1"><a xlink:href="dir_34794bca92a793a1e58b77dac439fbe4.html" target="_top" xlink:title="peripherals">
<polygon fill="#a2b4d6" stroke="red" points="107.5,-90 36.5,-90 36.5,-71 107.5,-71 107.5,-90"/>
<text text-anchor="middle" x="72" y="-78" font-family="Helvetica,sans-Serif" font-size="10.00">peripherals</text>
</a>
</g>
</g>
<!-- dir_523ec841fd74605300afe43d91402cb4 -->
<g id="node2" class="node">
<title>dir_523ec841fd74605300afe43d91402cb4</title>
<g id="a_node2"><a xlink:href="dir_523ec841fd74605300afe43d91402cb4.html" target="_top" xlink:title="coprocessors">
<polygon fill="#a2b4d6" stroke="red" points="141,-35 61,-35 61,-16 141,-16 141,-35"/>
<text text-anchor="middle" x="101" y="-23" font-family="Helvetica,sans-Serif" font-size="10.00">coprocessors</text>
</a>
</g>
</g>
<!-- dir_5c2a493d5805d567e6a0ff4c1ba80ec6 -->
<g id="node3" class="node">
<title>dir_5c2a493d5805d567e6a0ff4c1ba80ec6</title>
<text text-anchor="middle" x="168" y="-133" font-family="Helvetica,sans-Serif" font-size="10.00">arm1176jzf_s</text>
</g>
<!-- dir_5c2a493d5805d567e6a0ff4c1ba80ec6&#45;&gt;dir_34794bca92a793a1e58b77dac439fbe4 -->
<g id="edge2" class="edge">
<title>dir_5c2a493d5805d567e6a0ff4c1ba80ec6&#45;&gt;dir_34794bca92a793a1e58b77dac439fbe4</title>
<g id="a_edge2"><a xlink:href="dir_000000_000014.html" target="_top">
<path fill="none" stroke="#63b8ff" d="M152.58,-125.98C137.55,-117.69 114.46,-104.94 96.84,-95.22"/>
<polygon fill="#63b8ff" stroke="#63b8ff" points="98.15,-91.94 87.7,-90.17 94.77,-98.07 98.15,-91.94"/>
</a>
</g>
<g id="a_edge2&#45;headlabel"><a xlink:href="dir_000000_000014.html" target="_top" xlink:title="2">
<text text-anchor="middle" x="102.67" y="-88.69" font-family="Helvetica,sans-Serif" font-size="10.00" fill="#63b8ff">2</text>
</a>
</g>
</g>
<!-- dir_5c2a493d5805d567e6a0ff4c1ba80ec6&#45;&gt;dir_523ec841fd74605300afe43d91402cb4 -->
<g id="edge3" class="edge">
<title>dir_5c2a493d5805d567e6a0ff4c1ba80ec6&#45;&gt;dir_523ec841fd74605300afe43d91402cb4</title>
<g id="a_edge3"><a xlink:href="dir_000000_000002.html" target="_top">
<path fill="none" stroke="#63b8ff" d="M126.21,-133.81C93.37,-130.79 49.54,-120.74 27,-90 19.91,-80.32 20.66,-73.19 27,-63 33.74,-52.15 44.77,-44.43 56.27,-38.98"/>
<polygon fill="#63b8ff" stroke="#63b8ff" points="57.67,-42.19 65.53,-35.08 54.95,-35.74 57.67,-42.19"/>
</a>
</g>
<g id="a_edge3&#45;headlabel"><a xlink:href="dir_000000_000002.html" target="_top" xlink:title="2">
<text text-anchor="middle" x="55.47" y="-43.7" font-family="Helvetica,sans-Serif" font-size="10.00" fill="#63b8ff">2</text>
</a>
</g>
</g>
<!-- dir_18d97c789d65c625ba9fe3de5ae3d420 -->
<g id="node4" class="node">
<title>dir_18d97c789d65c625ba9fe3de5ae3d420</title>
<g id="a_node4"><a xlink:href="dir_18d97c789d65c625ba9fe3de5ae3d420.html" target="_top" xlink:title="isa">
<polygon fill="#a2b4d6" stroke="#404040" points="217.5,-90 186.5,-90 186.5,-71 217.5,-71 217.5,-90"/>
<text text-anchor="middle" x="202" y="-78" font-family="Helvetica,sans-Serif" font-size="10.00">isa</text>
</a>
</g>
</g>
<!-- dir_5c2a493d5805d567e6a0ff4c1ba80ec6&#45;&gt;dir_18d97c789d65c625ba9fe3de5ae3d420 -->
<g id="edge1" class="edge">
<title>dir_5c2a493d5805d567e6a0ff4c1ba80ec6&#45;&gt;dir_18d97c789d65c625ba9fe3de5ae3d420</title>
<g id="a_edge1"><a xlink:href="dir_000000_000008.html" target="_top">
<path fill="none" stroke="#63b8ff" d="M173.61,-125.75C178.32,-118.42 185.17,-107.73 190.97,-98.7"/>
<polygon fill="#63b8ff" stroke="#63b8ff" points="194.04,-100.4 196.49,-90.09 188.14,-96.62 194.04,-100.4"/>
</a>
</g>
<g id="a_edge1&#45;headlabel"><a xlink:href="dir_000000_000008.html" target="_top" xlink:title="5">
<text text-anchor="middle" x="194.49" y="-102.45" font-family="Helvetica,sans-Serif" font-size="10.00" fill="#63b8ff">5</text>
</a>
</g>
</g>
<!-- dir_6202107973bf5b6bba49333f6d7d8110 -->
<g id="node5" class="node">
<title>dir_6202107973bf5b6bba49333f6d7d8110</title>
<g id="a_node5"><a xlink:href="dir_6202107973bf5b6bba49333f6d7d8110.html" target="_top" xlink:title="mmu">
<polygon fill="#a2b4d6" stroke="#404040" points="168,-90 126,-90 126,-71 168,-71 168,-90"/>
<text text-anchor="middle" x="147" y="-78" font-family="Helvetica,sans-Serif" font-size="10.00">mmu</text>
</a>
</g>
</g>
<!-- dir_5c2a493d5805d567e6a0ff4c1ba80ec6&#45;&gt;dir_6202107973bf5b6bba49333f6d7d8110 -->
<g id="edge4" class="edge">
<title>dir_5c2a493d5805d567e6a0ff4c1ba80ec6&#45;&gt;dir_6202107973bf5b6bba49333f6d7d8110</title>
<g id="a_edge4"><a xlink:href="dir_000000_000013.html" target="_top">
<path fill="none" stroke="#63b8ff" d="M164.53,-125.75C161.72,-118.65 157.66,-108.4 154.15,-99.56"/>
<polygon fill="#63b8ff" stroke="#63b8ff" points="157.34,-98.1 150.4,-90.09 150.83,-100.68 157.34,-98.1"/>
</a>
</g>
<g id="a_edge4&#45;headlabel"><a xlink:href="dir_000000_000013.html" target="_top" xlink:title="1">
<text text-anchor="middle" x="161.3" y="-97.89" font-family="Helvetica,sans-Serif" font-size="10.00" fill="#63b8ff">1</text>
</a>
</g>
</g>
<!-- dir_d44c64559bbebec7f509842c48db8b23 -->
<g id="node6" class="node">
<title>dir_d44c64559bbebec7f509842c48db8b23</title>
<g id="a_node6"><a xlink:href="dir_d44c64559bbebec7f509842c48db8b23.html" target="_top" xlink:title="include">
<polygon fill="#edf0f7" stroke="red" points="294,-35 242,-35 242,-16 294,-16 294,-35"/>
<text text-anchor="middle" x="268" y="-23" font-family="Helvetica,sans-Serif" font-size="10.00">include</text>
</a>
</g>
</g>
<!-- dir_5c2a493d5805d567e6a0ff4c1ba80ec6&#45;&gt;dir_d44c64559bbebec7f509842c48db8b23 -->
<g id="edge5" class="edge">
<title>dir_5c2a493d5805d567e6a0ff4c1ba80ec6&#45;&gt;dir_d44c64559bbebec7f509842c48db8b23</title>
<g id="a_edge5"><a xlink:href="dir_000000_000007.html" target="_top">
<path fill="none" stroke="#63b8ff" d="M181.94,-125.74C194.39,-117.5 212.67,-104.3 226,-90 239.05,-76 250.78,-57.51 258.51,-44.1"/>
<polygon fill="#63b8ff" stroke="#63b8ff" points="261.56,-45.8 263.38,-35.37 255.45,-42.39 261.56,-45.8"/>
</a>
</g>
<g id="a_edge5&#45;headlabel"><a xlink:href="dir_000000_000007.html" target="_top" xlink:title="9">
<text text-anchor="middle" x="262.29" y="-47.83" font-family="Helvetica,sans-Serif" font-size="10.00" fill="#63b8ff">9</text>
</a>
</g>
</g>
<!-- dir_18d97c789d65c625ba9fe3de5ae3d420&#45;&gt;dir_d44c64559bbebec7f509842c48db8b23 -->
<g id="edge6" class="edge">
<title>dir_18d97c789d65c625ba9fe3de5ae3d420&#45;&gt;dir_d44c64559bbebec7f509842c48db8b23</title>
<g id="a_edge6"><a xlink:href="dir_000008_000007.html" target="_top">
<path fill="none" stroke="#63b8ff" d="M212.6,-70.98C222.46,-63.07 237.35,-51.11 249.22,-41.58"/>
<polygon fill="#63b8ff" stroke="#63b8ff" points="251.6,-44.16 257.2,-35.17 247.21,-38.7 251.6,-44.16"/>
</a>
</g>
<g id="a_edge6&#45;headlabel"><a xlink:href="dir_000008_000007.html" target="_top" xlink:title="1">
<text text-anchor="middle" x="250.57" y="-46.13" font-family="Helvetica,sans-Serif" font-size="10.00" fill="#63b8ff">1</text>
</a>
</g>
</g>
<!-- dir_6202107973bf5b6bba49333f6d7d8110&#45;&gt;dir_523ec841fd74605300afe43d91402cb4 -->
<g id="edge7" class="edge">
<title>dir_6202107973bf5b6bba49333f6d7d8110&#45;&gt;dir_523ec841fd74605300afe43d91402cb4</title>
<g id="a_edge7"><a xlink:href="dir_000013_000002.html" target="_top">
<path fill="none" stroke="#63b8ff" d="M139.4,-70.75C132.84,-63.18 123.18,-52.05 115.19,-42.84"/>
<polygon fill="#63b8ff" stroke="#63b8ff" points="117.65,-40.35 108.45,-35.09 112.37,-44.94 117.65,-40.35"/>
</a>
</g>
<g id="a_edge7&#45;headlabel"><a xlink:href="dir_000013_000002.html" target="_top" xlink:title="1">
<text text-anchor="middle" x="122.15" y="-38.7" font-family="Helvetica,sans-Serif" font-size="10.00" fill="#63b8ff">1</text>
</a>
</g>
</g>
</g>
</svg>
