<?xml version="1.0" encoding="UTF-8" standalone="no"?>
<!DOCTYPE svg PUBLIC "-//W3C//DTD SVG 1.1//EN"
 "http://www.w3.org/Graphics/SVG/1.1/DTD/svg11.dtd">
<!-- Generated by graphviz version 2.43.0 (0)
 -->
<!-- Title: src Pages: 1 -->
<svg width="116pt" height="263pt"
 viewBox="0.00 0.00 116.00 263.00" xmlns="http://www.w3.org/2000/svg" xmlns:xlink="http://www.w3.org/1999/xlink">
<g id="graph0" class="graph" transform="scale(1 1) rotate(0) translate(4 259)">
<title>src</title>
<g id="clust1" class="cluster">
<title>clusterdir_68267d1309a1af8e8297ef4c3efbcdba</title>
<g id="a_clust1"><a xlink:href="dir_68267d1309a1af8e8297ef4c3efbcdba.html" target="_top">
<polygon fill="#edf0f7" stroke="#404040" stroke-width="2" points="8,-47 8,-247 82,-247 82,-47 8,-47"/>
</a>
</g>
</g>
<!-- dir_68267d1309a1af8e8297ef4c3efbcdba -->
<g id="node1" class="node">
<title>dir_68267d1309a1af8e8297ef4c3efbcdba</title>
<text text-anchor="middle" x="46" y="-227" font-family="Helvetica,sans-Serif" font-size="10.00">src</text>
</g>
<!-- dir_aebb8dcc11953d78e620bbef0b9e2183 -->
<g id="node2" class="node">
<title>dir_aebb8dcc11953d78e620bbef0b9e2183</title>
<g id="a_node2"><a xlink:href="dir_aebb8dcc11953d78e620bbef0b9e2183.html" target="_top" xlink:title="core">
<polygon fill="#a2b4d6" stroke="#404040" points="74,-129 36,-129 36,-110 74,-110 74,-129"/>
<text text-anchor="middle" x="55" y="-117" font-family="Helvetica,sans-Serif" font-size="10.00">core</text>
</a>
</g>
</g>
<!-- dir_68267d1309a1af8e8297ef4c3efbcdba&#45;&gt;dir_aebb8dcc11953d78e620bbef0b9e2183 -->
<g id="edge2" class="edge">
<title>dir_68267d1309a1af8e8297ef4c3efbcdba&#45;&gt;dir_aebb8dcc11953d78e620bbef0b9e2183</title>
<g id="a_edge2"><a xlink:href="dir_000017_000003.html" target="_top">
<path fill="none" stroke="#63b8ff" d="M49.6,-219.82C53.06,-210.99 58.03,-196.81 60,-184 62.29,-169.1 60.72,-152.07 58.76,-139.4"/>
<polygon fill="#63b8ff" stroke="#63b8ff" points="62.14,-138.41 56.94,-129.17 55.25,-139.63 62.14,-138.41"/>
</a>
</g>
<g id="a_edge2&#45;headlabel"><a xlink:href="dir_000017_000003.html" target="_top" xlink:title="53">
<text text-anchor="middle" x="65.56" y="-138.95" font-family="Helvetica,sans-Serif" font-size="10.00" fill="#63b8ff">53</text>
</a>
</g>
</g>
<!-- dir_99d0482cf009f9d97a0877749b817f19 -->
<g id="node3" class="node">
<title>dir_99d0482cf009f9d97a0877749b817f19</title>
<g id="a_node3"><a xlink:href="dir_99d0482cf009f9d97a0877749b817f19.html" target="_top" xlink:title="gui">
<polygon fill="#a2b4d6" stroke="#404040" points="51,-184 19,-184 19,-165 51,-165 51,-184"/>
<text text-anchor="middle" x="35" y="-172" font-family="Helvetica,sans-Serif" font-size="10.00">gui</text>
</a>
</g>
</g>
<!-- dir_68267d1309a1af8e8297ef4c3efbcdba&#45;&gt;dir_99d0482cf009f9d97a0877749b817f19 -->
<g id="edge1" class="edge">
<title>dir_68267d1309a1af8e8297ef4c3efbcdba&#45;&gt;dir_99d0482cf009f9d97a0877749b817f19</title>
<g id="a_edge1"><a xlink:href="dir_000017_000006.html" target="_top">
<path fill="none" stroke="#63b8ff" d="M44.18,-219.75C42.74,-212.8 40.68,-202.85 38.87,-194.13"/>
<polygon fill="#63b8ff" stroke="#63b8ff" points="42.24,-193.17 36.78,-184.09 35.39,-194.59 42.24,-193.17"/>
</a>
</g>
<g id="a_edge1&#45;headlabel"><a xlink:href="dir_000017_000006.html" target="_top" xlink:title="15">
<text text-anchor="middle" x="45.75" y="-193.61" font-family="Helvetica,sans-Serif" font-size="10.00" fill="#63b8ff">15</text>
</a>
</g>
</g>
<!-- dir_313caf1132e152dd9b58bea13a4052ca -->
<g id="node4" class="node">
<title>dir_313caf1132e152dd9b58bea13a4052ca</title>
<g id="a_node4"><a xlink:href="dir_313caf1132e152dd9b58bea13a4052ca.html" target="_top" xlink:title="utils">
<polygon fill="#a2b4d6" stroke="#404040" points="54,-74 16,-74 16,-55 54,-55 54,-74"/>
<text text-anchor="middle" x="35" y="-62" font-family="Helvetica,sans-Serif" font-size="10.00">utils</text>
</a>
</g>
</g>
<!-- dir_aebb8dcc11953d78e620bbef0b9e2183&#45;&gt;dir_313caf1132e152dd9b58bea13a4052ca -->
<g id="edge3" class="edge">
<title>dir_aebb8dcc11953d78e620bbef0b9e2183&#45;&gt;dir_313caf1132e152dd9b58bea13a4052ca</title>
<g id="a_edge3"><a xlink:href="dir_000003_000019.html" target="_top">
<path fill="none" stroke="#63b8ff" d="M46.53,-109.75C42.37,-102.72 38.13,-92.62 35.47,-83.84"/>
<polygon fill="#63b8ff" stroke="#63b8ff" points="38.86,-82.99 33.11,-74.09 32.05,-84.63 38.86,-82.99"/>
</a>
</g>
<g id="a_edge3&#45;headlabel"><a xlink:href="dir_000003_000019.html" target="_top" xlink:title="1">
<text text-anchor="middle" x="42.46" y="-83.32" font-family="Helvetica,sans-Serif" font-size="10.00" fill="#63b8ff">1</text>
</a>
</g>
</g>
<!-- dir_d44c64559bbebec7f509842c48db8b23 -->
<g id="node5" class="node">
<title>dir_d44c64559bbebec7f509842c48db8b23</title>
<g id="a_node5"><a xlink:href="dir_d44c64559bbebec7f509842c48db8b23.html" target="_top" xlink:title="include">
<polygon fill="#edf0f7" stroke="red" points="108,-19 56,-19 56,0 108,0 108,-19"/>
<text text-anchor="middle" x="82" y="-7" font-family="Helvetica,sans-Serif" font-size="10.00">include</text>
</a>
</g>
</g>
<!-- dir_aebb8dcc11953d78e620bbef0b9e2183&#45;&gt;dir_d44c64559bbebec7f509842c48db8b23 -->
<g id="edge4" class="edge">
<title>dir_aebb8dcc11953d78e620bbef0b9e2183&#45;&gt;dir_d44c64559bbebec7f509842c48db8b23</title>
<g id="a_edge4"><a xlink:href="dir_000003_000007.html" target="_top">
<path fill="none" stroke="#63b8ff" d="M57.21,-109.66C61.6,-92.09 71.51,-52.45 77.39,-28.95"/>
<polygon fill="#63b8ff" stroke="#63b8ff" points="80.81,-29.71 79.84,-19.16 74.01,-28.01 80.81,-29.71"/>
</a>
</g>
<g id="a_edge4&#45;headlabel"><a xlink:href="dir_000003_000007.html" target="_top" xlink:title="32">
<text text-anchor="middle" x="82.69" y="-31.38" font-family="Helvetica,sans-Serif" font-size="10.00" fill="#63b8ff">32</text>
</a>
</g>
</g>
<!-- dir_99d0482cf009f9d97a0877749b817f19&#45;&gt;dir_aebb8dcc11953d78e620bbef0b9e2183 -->
<g id="edge5" class="edge">
<title>dir_99d0482cf009f9d97a0877749b817f19&#45;&gt;dir_aebb8dcc11953d78e620bbef0b9e2183</title>
<g id="a_edge5"><a xlink:href="dir_000006_000003.html" target="_top">
<path fill="none" stroke="#63b8ff" d="M38.3,-164.75C40.98,-157.65 44.85,-147.4 48.19,-138.56"/>
<polygon fill="#63b8ff" stroke="#63b8ff" points="51.5,-139.68 51.76,-129.09 44.95,-137.21 51.5,-139.68"/>
</a>
</g>
<g id="a_edge5&#45;headlabel"><a xlink:href="dir_000006_000003.html" target="_top" xlink:title="15">
<text text-anchor="middle" x="52.89" y="-141.55" font-family="Helvetica,sans-Serif" font-size="10.00" fill="#63b8ff">15</text>
</a>
</g>
</g>
<!-- dir_99d0482cf009f9d97a0877749b817f19&#45;&gt;dir_313caf1132e152dd9b58bea13a4052ca -->
<g id="edge7" class="edge">
<title>dir_99d0482cf009f9d97a0877749b817f19&#45;&gt;dir_313caf1132e152dd9b58bea13a4052ca</title>
<g id="a_edge7"><a xlink:href="dir_000006_000019.html" target="_top">
<path fill="none" stroke="#63b8ff" d="M32.94,-164.7C30.96,-155.77 28.12,-141.51 27,-129 25.64,-113.76 28.06,-96.55 30.58,-83.89"/>
<polygon fill="#63b8ff" stroke="#63b8ff" points="34,-84.62 32.74,-74.11 27.17,-83.12 34,-84.62"/>
</a>
</g>
<g id="a_edge7&#45;headlabel"><a xlink:href="dir_000006_000019.html" target="_top" xlink:title="4">
<text text-anchor="middle" x="36" y="-86.25" font-family="Helvetica,sans-Serif" font-size="10.00" fill="#63b8ff">4</text>
</a>
</g>
</g>
<!-- dir_99d0482cf009f9d97a0877749b817f19&#45;&gt;dir_d44c64559bbebec7f509842c48db8b23 -->
<g id="edge6" class="edge">
<title>dir_99d0482cf009f9d97a0877749b817f19&#45;&gt;dir_d44c64559bbebec7f509842c48db8b23</title>
<g id="a_edge6"><a xlink:href="dir_000006_000007.html" target="_top">
<path fill="none" stroke="#63b8ff" d="M49.29,-164.93C60.76,-157.16 76.04,-144.56 83,-129 97.65,-96.25 91.88,-53.13 86.71,-28.97"/>
<polygon fill="#63b8ff" stroke="#63b8ff" points="90.07,-27.97 84.38,-19.03 83.25,-29.56 90.07,-27.97"/>
</a>
</g>
<g id="a_edge6&#45;headlabel"><a xlink:href="dir_000006_000007.html" target="_top" xlink:title="5">
<text text-anchor="middle" x="93.65" y="-28.32" font-family="Helvetica,sans-Serif" font-size="10.00" fill="#63b8ff">5</text>
</a>
</g>
</g>
<!-- dir_313caf1132e152dd9b58bea13a4052ca&#45;&gt;dir_aebb8dcc11953d78e620bbef0b9e2183 -->
<g id="edge8" class="edge">
<title>dir_313caf1132e152dd9b58bea13a4052ca&#45;&gt;dir_aebb8dcc11953d78e620bbef0b9e2183</title>
<g id="a_edge8"><a xlink:href="dir_000019_000003.html" target="_top">
<path fill="none" stroke="#63b8ff" d="M43.37,-74.09C47.53,-81.06 51.78,-91.15 54.47,-99.95"/>
<polygon fill="#63b8ff" stroke="#63b8ff" points="51.09,-100.86 56.86,-109.75 57.89,-99.2 51.09,-100.86"/>
</a>
</g>
<g id="a_edge8&#45;headlabel"><a xlink:href="dir_000019_000003.html" target="_top" xlink:title="1">
<text text-anchor="middle" x="47.48" y="-95.54" font-family="Helvetica,sans-Serif" font-size="10.00" fill="#63b8ff">1</text>
</a>
</g>
</g>
<!-- dir_313caf1132e152dd9b58bea13a4052ca&#45;&gt;dir_d44c64559bbebec7f509842c48db8b23 -->
<g id="edge9" class="edge">
<title>dir_313caf1132e152dd9b58bea13a4052ca&#45;&gt;dir_d44c64559bbebec7f509842c48db8b23</title>
<g id="a_edge9"><a xlink:href="dir_000019_000007.html" target="_top">
<path fill="none" stroke="#63b8ff" d="M42.76,-54.75C49.47,-47.18 59.34,-36.05 67.51,-26.84"/>
<polygon fill="#63b8ff" stroke="#63b8ff" points="70.37,-28.89 74.38,-19.09 65.13,-24.25 70.37,-28.89"/>
</a>
</g>
<g id="a_edge9&#45;headlabel"><a xlink:href="dir_000019_000007.html" target="_top" xlink:title="3">
<text text-anchor="middle" x="70.11" y="-30.97" font-family="Helvetica,sans-Serif" font-size="10.00" fill="#63b8ff">3</text>
</a>
</g>
</g>
</g>
</svg>
