<?xml version="1.0" encoding="UTF-8" standalone="no"?>
<!DOCTYPE svg PUBLIC "-//W3C//DTD SVG 1.1//EN"
 "http://www.w3.org/Graphics/SVG/1.1/DTD/svg11.dtd">
<!-- Generated by graphviz version 2.43.0 (0)
 -->
<!-- Title: src/gui Pages: 1 -->
<svg width="188pt" height="196pt"
 viewBox="0.00 0.00 188.00 196.00" xmlns="http://www.w3.org/2000/svg" xmlns:xlink="http://www.w3.org/1999/xlink">
<g id="graph0" class="graph" transform="scale(1 1) rotate(0) translate(4 192)">
<title>src/gui</title>
<g id="clust1" class="cluster">
<title>clusterdir_68267d1309a1af8e8297ef4c3efbcdba</title>
<g id="a_clust1"><a xlink:href="dir_68267d1309a1af8e8297ef4c3efbcdba.html" target="_top" xlink:title="src">
<polygon fill="#edf0f7" stroke="#404040" stroke-dasharray="5,2" points="8,-8 8,-180 118,-180 118,-8 8,-8"/>
<text text-anchor="middle" x="63" y="-168" font-family="Helvetica,sans-Serif" font-size="10.00">src</text>
</a>
</g>
</g>
<g id="clust2" class="cluster">
<title>clusterdir_99d0482cf009f9d97a0877749b817f19</title>
<g id="a_clust2"><a xlink:href="dir_99d0482cf009f9d97a0877749b817f19.html" target="_top">
<polygon fill="#edf0f7" stroke="#404040" stroke-width="2" points="34,-63 34,-153 110,-153 110,-63 34,-63"/>
</a>
</g>
</g>
<!-- dir_aebb8dcc11953d78e620bbef0b9e2183 -->
<g id="node1" class="node">
<title>dir_aebb8dcc11953d78e620bbef0b9e2183</title>
<g id="a_node1"><a xlink:href="dir_aebb8dcc11953d78e620bbef0b9e2183.html" target="_top" xlink:title="core">
<polygon fill="#a2b4d6" stroke="red" points="54,-35 16,-35 16,-16 54,-16 54,-35"/>
<text text-anchor="middle" x="35" y="-23" font-family="Helvetica,sans-Serif" font-size="10.00">core</text>
</a>
</g>
</g>
<!-- dir_313caf1132e152dd9b58bea13a4052ca -->
<g id="node2" class="node">
<title>dir_313caf1132e152dd9b58bea13a4052ca</title>
<g id="a_node2"><a xlink:href="dir_313caf1132e152dd9b58bea13a4052ca.html" target="_top" xlink:title="utils">
<polygon fill="#a2b4d6" stroke="red" points="110,-35 72,-35 72,-16 110,-16 110,-35"/>
<text text-anchor="middle" x="91" y="-23" font-family="Helvetica,sans-Serif" font-size="10.00">utils</text>
</a>
</g>
</g>
<!-- dir_99d0482cf009f9d97a0877749b817f19 -->
<g id="node3" class="node">
<title>dir_99d0482cf009f9d97a0877749b817f19</title>
<text text-anchor="middle" x="65" y="-133" font-family="Helvetica,sans-Serif" font-size="10.00">gui</text>
</g>
<!-- dir_99d0482cf009f9d97a0877749b817f19&#45;&gt;dir_aebb8dcc11953d78e620bbef0b9e2183 -->
<g id="edge2" class="edge">
<title>dir_99d0482cf009f9d97a0877749b817f19&#45;&gt;dir_aebb8dcc11953d78e620bbef0b9e2183</title>
<g id="a_edge2"><a xlink:href="dir_000006_000003.html" target="_top">
<path fill="none" stroke="#63b8ff" d="M56.52,-125.85C48.95,-117.47 38.4,-104.01 34,-90 29.45,-75.52 30.09,-58.25 31.64,-45.38"/>
<polygon fill="#63b8ff" stroke="#63b8ff" points="35.12,-45.79 33.14,-35.38 28.2,-44.75 35.12,-45.79"/>
</a>
</g>
<g id="a_edge2&#45;headlabel"><a xlink:href="dir_000006_000003.html" target="_top" xlink:title="15">
<text text-anchor="middle" x="37.39" y="-47.26" font-family="Helvetica,sans-Serif" font-size="10.00" fill="#63b8ff">15</text>
</a>
</g>
</g>
<!-- dir_2c5e0d2f5313fab5e08c06477185b08d -->
<g id="node4" class="node">
<title>dir_2c5e0d2f5313fab5e08c06477185b08d</title>
<g id="a_node4"><a xlink:href="dir_2c5e0d2f5313fab5e08c06477185b08d.html" target="_top" xlink:title="windows">
<polygon fill="#a2b4d6" stroke="#404040" points="101.5,-90 42.5,-90 42.5,-71 101.5,-71 101.5,-90"/>
<text text-anchor="middle" x="72" y="-78" font-family="Helvetica,sans-Serif" font-size="10.00">windows</text>
</a>
</g>
</g>
<!-- dir_99d0482cf009f9d97a0877749b817f19&#45;&gt;dir_2c5e0d2f5313fab5e08c06477185b08d -->
<g id="edge1" class="edge">
<title>dir_99d0482cf009f9d97a0877749b817f19&#45;&gt;dir_2c5e0d2f5313fab5e08c06477185b08d</title>
<g id="a_edge1"><a xlink:href="dir_000006_000020.html" target="_top">
<path fill="none" stroke="#63b8ff" d="M66.16,-125.75C67.07,-118.8 68.39,-108.85 69.54,-100.13"/>
<polygon fill="#63b8ff" stroke="#63b8ff" points="73.03,-100.46 70.87,-90.09 66.09,-99.54 73.03,-100.46"/>
</a>
</g>
<g id="a_edge1&#45;headlabel"><a xlink:href="dir_000006_000020.html" target="_top" xlink:title="14">
<text text-anchor="middle" x="75.37" y="-101.9" font-family="Helvetica,sans-Serif" font-size="10.00" fill="#63b8ff">14</text>
</a>
</g>
</g>
<!-- dir_2c5e0d2f5313fab5e08c06477185b08d&#45;&gt;dir_aebb8dcc11953d78e620bbef0b9e2183 -->
<g id="edge4" class="edge">
<title>dir_2c5e0d2f5313fab5e08c06477185b08d&#45;&gt;dir_aebb8dcc11953d78e620bbef0b9e2183</title>
<g id="a_edge4"><a xlink:href="dir_000020_000003.html" target="_top">
<path fill="none" stroke="#63b8ff" d="M65.89,-70.75C60.72,-63.34 53.15,-52.5 46.81,-43.41"/>
<polygon fill="#63b8ff" stroke="#63b8ff" points="49.59,-41.29 41,-35.09 43.85,-45.29 49.59,-41.29"/>
</a>
</g>
<g id="a_edge4&#45;headlabel"><a xlink:href="dir_000020_000003.html" target="_top" xlink:title="14">
<text text-anchor="middle" x="53.98" y="-40.11" font-family="Helvetica,sans-Serif" font-size="10.00" fill="#63b8ff">14</text>
</a>
</g>
</g>
<!-- dir_2c5e0d2f5313fab5e08c06477185b08d&#45;&gt;dir_313caf1132e152dd9b58bea13a4052ca -->
<g id="edge3" class="edge">
<title>dir_2c5e0d2f5313fab5e08c06477185b08d&#45;&gt;dir_313caf1132e152dd9b58bea13a4052ca</title>
<g id="a_edge3"><a xlink:href="dir_000020_000019.html" target="_top">
<path fill="none" stroke="#63b8ff" d="M75.14,-70.75C77.68,-63.65 81.36,-53.4 84.53,-44.56"/>
<polygon fill="#63b8ff" stroke="#63b8ff" points="87.84,-45.68 87.92,-35.09 81.25,-43.32 87.84,-45.68"/>
</a>
</g>
<g id="a_edge3&#45;headlabel"><a xlink:href="dir_000020_000019.html" target="_top" xlink:title="4">
<text text-anchor="middle" x="89.3" y="-47.53" font-family="Helvetica,sans-Serif" font-size="10.00" fill="#63b8ff">4</text>
</a>
</g>
</g>
<!-- dir_d44c64559bbebec7f509842c48db8b23 -->
<g id="node5" class="node">
<title>dir_d44c64559bbebec7f509842c48db8b23</title>
<g id="a_node5"><a xlink:href="dir_d44c64559bbebec7f509842c48db8b23.html" target="_top" xlink:title="include">
<polygon fill="#edf0f7" stroke="red" points="180,-35 128,-35 128,-16 180,-16 180,-35"/>
<text text-anchor="middle" x="154" y="-23" font-family="Helvetica,sans-Serif" font-size="10.00">include</text>
</a>
</g>
</g>
<!-- dir_2c5e0d2f5313fab5e08c06477185b08d&#45;&gt;dir_d44c64559bbebec7f509842c48db8b23 -->
<g id="edge5" class="edge">
<title>dir_2c5e0d2f5313fab5e08c06477185b08d&#45;&gt;dir_d44c64559bbebec7f509842c48db8b23</title>
<g id="a_edge5"><a xlink:href="dir_000020_000007.html" target="_top">
<path fill="none" stroke="#63b8ff" d="M85.17,-70.98C97.77,-62.84 117,-50.41 131.94,-40.76"/>
<polygon fill="#63b8ff" stroke="#63b8ff" points="134.09,-43.54 140.59,-35.17 130.29,-37.66 134.09,-43.54"/>
</a>
</g>
<g id="a_edge5&#45;headlabel"><a xlink:href="dir_000020_000007.html" target="_top" xlink:title="5">
<text text-anchor="middle" x="132.61" y="-45.37" font-family="Helvetica,sans-Serif" font-size="10.00" fill="#63b8ff">5</text>
</a>
</g>
</g>
</g>
</svg>
