<?xml version="1.0" encoding="UTF-8" standalone="no"?>
<!DOCTYPE svg PUBLIC "-//W3C//DTD SVG 1.1//EN"
 "http://www.w3.org/Graphics/SVG/1.1/DTD/svg11.dtd">
<!-- Generated by graphviz version 2.43.0 (0)
 -->
<!-- Title: src/utils Pages: 1 -->
<svg width="212pt" height="141pt"
 viewBox="0.00 0.00 212.00 141.00" xmlns="http://www.w3.org/2000/svg" xmlns:xlink="http://www.w3.org/1999/xlink">
<g id="graph0" class="graph" transform="scale(1 1) rotate(0) translate(4 137)">
<title>src/utils</title>
<g id="clust1" class="cluster">
<title>clusterdir_68267d1309a1af8e8297ef4c3efbcdba</title>
<g id="a_clust1"><a xlink:href="dir_68267d1309a1af8e8297ef4c3efbcdba.html" target="_top" xlink:title="src">
<polygon fill="#edf0f7" stroke="#404040" stroke-dasharray="5,2" points="8,-8 8,-125 144,-125 144,-8 8,-8"/>
<text text-anchor="middle" x="76" y="-113" font-family="Helvetica,sans-Serif" font-size="10.00">src</text>
</a>
</g>
</g>
<g id="clust2" class="cluster">
<title>clusterdir_313caf1132e152dd9b58bea13a4052ca</title>
<g id="a_clust2"><a xlink:href="dir_313caf1132e152dd9b58bea13a4052ca.html" target="_top">
<polygon fill="#edf0f7" stroke="#404040" stroke-width="2" points="16,-63 16,-98 136,-98 136,-63 16,-63"/>
</a>
</g>
</g>
<!-- dir_aebb8dcc11953d78e620bbef0b9e2183 -->
<g id="node1" class="node">
<title>dir_aebb8dcc11953d78e620bbef0b9e2183</title>
<g id="a_node1"><a xlink:href="dir_aebb8dcc11953d78e620bbef0b9e2183.html" target="_top" xlink:title="core">
<polygon fill="#a2b4d6" stroke="red" points="62,-35 24,-35 24,-16 62,-16 62,-35"/>
<text text-anchor="middle" x="43" y="-23" font-family="Helvetica,sans-Serif" font-size="10.00">core</text>
</a>
</g>
</g>
<!-- dir_313caf1132e152dd9b58bea13a4052ca -->
<g id="node2" class="node">
<title>dir_313caf1132e152dd9b58bea13a4052ca</title>
<text text-anchor="middle" x="43" y="-78" font-family="Helvetica,sans-Serif" font-size="10.00">utils</text>
</g>
<!-- dir_313caf1132e152dd9b58bea13a4052ca&#45;&gt;dir_aebb8dcc11953d78e620bbef0b9e2183 -->
<g id="edge1" class="edge">
<title>dir_313caf1132e152dd9b58bea13a4052ca&#45;&gt;dir_aebb8dcc11953d78e620bbef0b9e2183</title>
<g id="a_edge1"><a xlink:href="dir_000019_000003.html" target="_top">
<path fill="none" stroke="#63b8ff" d="M43,-70.75C43,-63.8 43,-53.85 43,-45.13"/>
<polygon fill="#63b8ff" stroke="#63b8ff" points="46.5,-45.09 43,-35.09 39.5,-45.09 46.5,-45.09"/>
</a>
</g>
<g id="a_edge1&#45;headlabel"><a xlink:href="dir_000019_000003.html" target="_top" xlink:title="1">
<text text-anchor="middle" x="49.34" y="-46.18" font-family="Helvetica,sans-Serif" font-size="10.00" fill="#63b8ff">1</text>
</a>
</g>
</g>
<!-- dir_d44c64559bbebec7f509842c48db8b23 -->
<g id="node4" class="node">
<title>dir_d44c64559bbebec7f509842c48db8b23</title>
<g id="a_node4"><a xlink:href="dir_d44c64559bbebec7f509842c48db8b23.html" target="_top" xlink:title="include">
<polygon fill="#edf0f7" stroke="red" points="204,-35 152,-35 152,-16 204,-16 204,-35"/>
<text text-anchor="middle" x="178" y="-23" font-family="Helvetica,sans-Serif" font-size="10.00">include</text>
</a>
</g>
</g>
<!-- dir_313caf1132e152dd9b58bea13a4052ca&#45;&gt;dir_d44c64559bbebec7f509842c48db8b23 -->
<g id="edge2" class="edge">
<title>dir_313caf1132e152dd9b58bea13a4052ca&#45;&gt;dir_d44c64559bbebec7f509842c48db8b23</title>
<g id="a_edge2"><a xlink:href="dir_000019_000007.html" target="_top">
<path fill="none" stroke="#63b8ff" d="M56.37,-70.87C60.91,-68.15 66.08,-65.26 71,-63 83.83,-57.11 116.05,-46.3 141.8,-37.98"/>
<polygon fill="#63b8ff" stroke="#63b8ff" points="143.2,-41.2 151.65,-34.81 141.06,-34.54 143.2,-41.2"/>
</a>
</g>
<g id="a_edge2&#45;headlabel"><a xlink:href="dir_000019_000007.html" target="_top" xlink:title="3">
<text text-anchor="middle" x="140.65" y="-42.5" font-family="Helvetica,sans-Serif" font-size="10.00" fill="#63b8ff">3</text>
</a>
</g>
</g>
<!-- dir_a1400a24f2811f25b162f4f43c231c58 -->
<g id="node3" class="node">
<title>dir_a1400a24f2811f25b162f4f43c231c58</title>
<g id="a_node3"><a xlink:href="dir_a1400a24f2811f25b162f4f43c231c58.html" target="_top" xlink:title="logger">
<polygon fill="#a2b4d6" stroke="#404040" points="127.5,-90 80.5,-90 80.5,-71 127.5,-71 127.5,-90"/>
<text text-anchor="middle" x="104" y="-78" font-family="Helvetica,sans-Serif" font-size="10.00">logger</text>
</a>
</g>
</g>
<!-- dir_a1400a24f2811f25b162f4f43c231c58&#45;&gt;dir_d44c64559bbebec7f509842c48db8b23 -->
<g id="edge3" class="edge">
<title>dir_a1400a24f2811f25b162f4f43c231c58&#45;&gt;dir_d44c64559bbebec7f509842c48db8b23</title>
<g id="a_edge3"><a xlink:href="dir_000011_000007.html" target="_top">
<path fill="none" stroke="#63b8ff" d="M115.89,-70.98C127.15,-62.92 144.29,-50.65 157.71,-41.03"/>
<polygon fill="#63b8ff" stroke="#63b8ff" points="159.8,-43.84 165.89,-35.17 155.73,-38.15 159.8,-43.84"/>
</a>
</g>
<g id="a_edge3&#45;headlabel"><a xlink:href="dir_000011_000007.html" target="_top" xlink:title="2">
<text text-anchor="middle" x="158.53" y="-45.74" font-family="Helvetica,sans-Serif" font-size="10.00" fill="#63b8ff">2</text>
</a>
</g>
</g>
</g>
</svg>
