<?xml version="1.0" encoding="UTF-8" standalone="no"?>
<!DOCTYPE svg PUBLIC "-//W3C//DTD SVG 1.1//EN"
 "http://www.w3.org/Graphics/SVG/1.1/DTD/svg11.dtd">
<!-- Generated by graphviz version 2.43.0 (0)
 -->
<!-- Title: src/core/coprocessors/cp10 Pages: 1 -->
<svg width="214pt" height="231pt"
 viewBox="0.00 0.00 214.00 231.00" xmlns="http://www.w3.org/2000/svg" xmlns:xlink="http://www.w3.org/1999/xlink">
<g id="graph0" class="graph" transform="scale(1 1) rotate(0) translate(4 227)">
<title>src/core/coprocessors/cp10</title>
<g id="clust1" class="cluster">
<title>clusterdir_523ec841fd74605300afe43d91402cb4</title>
<g id="a_clust1"><a xlink:href="dir_523ec841fd74605300afe43d91402cb4.html" target="_top" xlink:title="coprocessors">
<polygon fill="#ddddee" stroke="black" points="8,-56 8,-215 94,-215 94,-56 8,-56"/>
<text text-anchor="middle" x="51" y="-203" font-family="Helvetica,sans-Serif" font-size="10.00">coprocessors</text>
</a>
</g>
</g>
<g id="clust2" class="cluster">
<title>clusterdir_e82f98dae92aa27cf144ce867ed76673</title>
<g id="a_clust2"><a xlink:href="dir_e82f98dae92aa27cf144ce867ed76673.html" target="_top">
<polygon fill="#eeeeff" stroke="black" points="16,-64 16,-188 86,-188 86,-64 16,-64"/>
</a>
</g>
</g>
<!-- dir_e82f98dae92aa27cf144ce867ed76673 -->
<g id="node1" class="node">
<title>dir_e82f98dae92aa27cf144ce867ed76673</title>
<text text-anchor="middle" x="51" y="-159.5" font-family="Helvetica,sans-Serif" font-size="10.00">cp10</text>
</g>
<!-- dir_08250d7d28863dc5b19adb1118edc710 -->
<g id="node2" class="node">
<title>dir_08250d7d28863dc5b19adb1118edc710</title>
<g id="a_node2"><a xlink:href="dir_08250d7d28863dc5b19adb1118edc710.html" target="_top" xlink:title="isa">
<polygon fill="white" stroke="black" points="78,-108 24,-108 24,-72 78,-72 78,-108"/>
<text text-anchor="middle" x="51" y="-87.5" font-family="Helvetica,sans-Serif" font-size="10.00">isa</text>
</a>
</g>
</g>
<!-- dir_e82f98dae92aa27cf144ce867ed76673&#45;&gt;dir_08250d7d28863dc5b19adb1118edc710 -->
<g id="edge2" class="edge">
<title>dir_e82f98dae92aa27cf144ce867ed76673&#45;&gt;dir_08250d7d28863dc5b19adb1118edc710</title>
<path fill="none" stroke="black" d="M51,-143.7C51,-135.98 51,-126.71 51,-118.11"/>
<polygon fill="black" stroke="black" points="54.5,-118.1 51,-108.1 47.5,-118.1 54.5,-118.1"/>
<g id="a_edge2&#45;headlabel"><a xlink:href="dir_000011_000012.html" target="_top" xlink:title="4">
<text text-anchor="middle" x="57.34" y="-119.2" font-family="Helvetica,sans-Serif" font-size="10.00">4</text>
</a>
</g>
</g>
<!-- dir_5c2a493d5805d567e6a0ff4c1ba80ec6 -->
<g id="node3" class="node">
<title>dir_5c2a493d5805d567e6a0ff4c1ba80ec6</title>
<g id="a_node3"><a xlink:href="dir_5c2a493d5805d567e6a0ff4c1ba80ec6.html" target="_top" xlink:title="arm1176jzf_s">
<polygon fill="none" stroke="red" points="185.5,-108 102.5,-108 102.5,-72 185.5,-72 185.5,-108"/>
<text text-anchor="middle" x="144" y="-87.5" font-family="Helvetica,sans-Serif" font-size="10.00">arm1176jzf_s</text>
</a>
</g>
</g>
<!-- dir_e82f98dae92aa27cf144ce867ed76673&#45;&gt;dir_5c2a493d5805d567e6a0ff4c1ba80ec6 -->
<g id="edge3" class="edge">
<title>dir_e82f98dae92aa27cf144ce867ed76673&#45;&gt;dir_5c2a493d5805d567e6a0ff4c1ba80ec6</title>
<path fill="none" stroke="black" d="M73.99,-143.7C85.81,-134.8 100.39,-123.82 113.18,-114.2"/>
<polygon fill="black" stroke="black" points="115.39,-116.91 121.28,-108.1 111.18,-111.32 115.39,-116.91"/>
<g id="a_edge3&#45;headlabel"><a xlink:href="dir_000011_000008.html" target="_top" xlink:title="1">
<text text-anchor="middle" x="114.23" y="-118.84" font-family="Helvetica,sans-Serif" font-size="10.00">1</text>
</a>
</g>
</g>
<!-- dir_d44c64559bbebec7f509842c48db8b23 -->
<g id="node4" class="node">
<title>dir_d44c64559bbebec7f509842c48db8b23</title>
<g id="a_node4"><a xlink:href="dir_d44c64559bbebec7f509842c48db8b23.html" target="_top" xlink:title="include">
<polygon fill="none" stroke="red" points="206,-36 152,-36 152,0 206,0 206,-36"/>
<text text-anchor="middle" x="179" y="-15.5" font-family="Helvetica,sans-Serif" font-size="10.00">include</text>
</a>
</g>
</g>
<!-- dir_e82f98dae92aa27cf144ce867ed76673&#45;&gt;dir_d44c64559bbebec7f509842c48db8b23 -->
<g id="edge4" class="edge">
<title>dir_e82f98dae92aa27cf144ce867ed76673&#45;&gt;dir_d44c64559bbebec7f509842c48db8b23</title>
<path fill="none" stroke="black" d="M78.28,-159.82C112.14,-156.71 168.63,-145.8 195,-108 207.7,-89.8 201.49,-64.56 193.39,-45.61"/>
<polygon fill="black" stroke="black" points="196.47,-43.93 189.07,-36.34 190.12,-46.88 196.47,-43.93"/>
<g id="a_edge4&#45;headlabel"><a xlink:href="dir_000011_000000.html" target="_top" xlink:title="2">
<text text-anchor="middle" x="200.56" y="-43.48" font-family="Helvetica,sans-Serif" font-size="10.00">2</text>
</a>
</g>
</g>
<!-- dir_5c2a493d5805d567e6a0ff4c1ba80ec6&#45;&gt;dir_d44c64559bbebec7f509842c48db8b23 -->
<g id="edge1" class="edge">
<title>dir_5c2a493d5805d567e6a0ff4c1ba80ec6&#45;&gt;dir_d44c64559bbebec7f509842c48db8b23</title>
<path fill="none" stroke="black" d="M152.65,-71.7C156.64,-63.73 161.45,-54.1 165.87,-45.26"/>
<polygon fill="black" stroke="black" points="169.11,-46.61 170.45,-36.1 162.85,-43.48 169.11,-46.61"/>
<g id="a_edge1&#45;headlabel"><a xlink:href="dir_000008_000000.html" target="_top" xlink:title="9">
<text text-anchor="middle" x="170.04" y="-48.6" font-family="Helvetica,sans-Serif" font-size="10.00">9</text>
</a>
</g>
</g>
</g>
</svg>
