<?xml version="1.0" encoding="UTF-8" standalone="no"?>
<!DOCTYPE svg PUBLIC "-//W3C//DTD SVG 1.1//EN"
 "http://www.w3.org/Graphics/SVG/1.1/DTD/svg11.dtd">
<!-- Generated by graphviz version 2.43.0 (0)
 -->
<!-- Title: src/utils/elf_loader.hpp Pages: 1 -->
<svg width="1090pt" height="390pt"
 viewBox="0.00 0.00 1090.00 390.00" xmlns="http://www.w3.org/2000/svg" xmlns:xlink="http://www.w3.org/1999/xlink">
<g id="graph0" class="graph" transform="scale(1 1) rotate(0) translate(4 386)">
<title>src/utils/elf_loader.hpp</title>
<!-- Node1 -->
<g id="Node000001" class="node">
<title>Node1</title>
<g id="a_Node000001"><a xlink:title="This file defines the functionality of an ELF loader.">
<polygon fill="#999999" stroke="#666666" points="548,-382 421,-382 421,-363 548,-363 548,-382"/>
<text text-anchor="middle" x="484.5" y="-370" font-family="Helvetica,sans-Serif" font-size="10.00">src/utils/elf_loader.hpp</text>
</a>
</g>
</g>
<!-- Node2 -->
<g id="Node000002" class="node">
<title>Node2</title>
<g id="a_Node000002"><a xlink:href="bus_8hpp.html" target="_top" xlink:title="This file defines an interface the CPU uses to access different memory&#45;mapped peripherals.">
<polygon fill="white" stroke="#666666" points="528.5,-327 440.5,-327 440.5,-308 528.5,-308 528.5,-327"/>
<text text-anchor="middle" x="484.5" y="-315" font-family="Helvetica,sans-Serif" font-size="10.00">../core/bus.hpp</text>
</a>
</g>
</g>
<!-- Node1&#45;&gt;Node2 -->
<g id="edge1_Node000001_Node000002" class="edge">
<title>Node1&#45;&gt;Node2</title>
<g id="a_edge1_Node000001_Node000002"><a xlink:title=" ">
<path fill="none" stroke="#63b8ff" d="M484.5,-362.75C484.5,-355.8 484.5,-345.85 484.5,-337.13"/>
<polygon fill="#63b8ff" stroke="#63b8ff" points="488,-337.09 484.5,-327.09 481,-337.09 488,-337.09"/>
</a>
</g>
</g>
<!-- Node3 -->
<g id="Node000003" class="node">
<title>Node3</title>
<g id="a_Node000003"><a xlink:href="cp15_8hpp.html" target="_top" xlink:title="This file defines coprocessor CP15.">
<polygon fill="white" stroke="#666666" points="341.5,-272 187.5,-272 187.5,-253 341.5,-253 341.5,-272"/>
<text text-anchor="middle" x="264.5" y="-260" font-family="Helvetica,sans-Serif" font-size="10.00">coprocessors/cp15/cp15.hpp</text>
</a>
</g>
</g>
<!-- Node2&#45;&gt;Node3 -->
<g id="edge2_Node000002_Node000003" class="edge">
<title>Node2&#45;&gt;Node3</title>
<g id="a_edge2_Node000002_Node000003"><a xlink:title=" ">
<path fill="none" stroke="#63b8ff" d="M449.15,-307.98C411.34,-298.87 351.24,-284.4 309.93,-274.45"/>
<polygon fill="#63b8ff" stroke="#63b8ff" points="310.67,-271.02 300.12,-272.08 309.03,-277.83 310.67,-271.02"/>
</a>
</g>
</g>
<!-- Node18 -->
<g id="Node000018" class="node">
<title>Node18</title>
<g id="a_Node000018"><a xlink:href="peripheral_8hpp.html" target="_top" xlink:title="This file defines an interface for a memory&#45;mapped peripheral.">
<polygon fill="white" stroke="#666666" points="728,-272 583,-272 583,-253 728,-253 728,-272"/>
<text text-anchor="middle" x="655.5" y="-260" font-family="Helvetica,sans-Serif" font-size="10.00">peripherals/peripheral.hpp</text>
</a>
</g>
</g>
<!-- Node2&#45;&gt;Node18 -->
<g id="edge27_Node000002_Node000018" class="edge">
<title>Node2&#45;&gt;Node18</title>
<g id="a_edge27_Node000002_Node000018"><a xlink:title=" ">
<path fill="none" stroke="#63b8ff" d="M511.97,-307.98C540.68,-299.09 585.92,-285.07 617.92,-275.15"/>
<polygon fill="#63b8ff" stroke="#63b8ff" points="619.3,-278.39 627.81,-272.08 617.22,-271.7 619.3,-278.39"/>
</a>
</g>
</g>
<!-- Node19 -->
<g id="Node000019" class="node">
<title>Node19</title>
<g id="a_Node000019"><a xlink:href="exceptions_8hpp.html" target="_top" xlink:title="This file defines all exceptions that can be thrown by the CPU during execution.">
<polygon fill="white" stroke="#666666" points="564.5,-272 404.5,-272 404.5,-253 564.5,-253 564.5,-272"/>
<text text-anchor="middle" x="484.5" y="-260" font-family="Helvetica,sans-Serif" font-size="10.00">arm1176jzf_s/exceptions.hpp</text>
</a>
</g>
</g>
<!-- Node2&#45;&gt;Node19 -->
<g id="edge28_Node000002_Node000019" class="edge">
<title>Node2&#45;&gt;Node19</title>
<g id="a_edge28_Node000002_Node000019"><a xlink:title=" ">
<path fill="none" stroke="#63b8ff" d="M484.5,-307.75C484.5,-300.8 484.5,-290.85 484.5,-282.13"/>
<polygon fill="#63b8ff" stroke="#63b8ff" points="488,-282.09 484.5,-272.09 481,-282.09 488,-282.09"/>
</a>
</g>
</g>
<!-- Node4 -->
<g id="Node000004" class="node">
<title>Node4</title>
<g id="a_Node000004"><a xlink:href="c1_8hpp.html" target="_top" xlink:title="This file defines the primary register C1 of coprocessor CP15.">
<polygon fill="white" stroke="#666666" points="356,-217 307,-217 307,-198 356,-198 356,-217"/>
<text text-anchor="middle" x="331.5" y="-205" font-family="Helvetica,sans-Serif" font-size="10.00">c1.hpp</text>
</a>
</g>
</g>
<!-- Node3&#45;&gt;Node4 -->
<g id="edge3_Node000003_Node000004" class="edge">
<title>Node3&#45;&gt;Node4</title>
<g id="a_edge3_Node000003_Node000004"><a xlink:title=" ">
<path fill="none" stroke="#63b8ff" d="M275.26,-252.98C285.27,-245.07 300.39,-233.11 312.43,-223.58"/>
<polygon fill="#63b8ff" stroke="#63b8ff" points="314.87,-226.12 320.54,-217.17 310.53,-220.63 314.87,-226.12"/>
</a>
</g>
</g>
<!-- Node5 -->
<g id="Node000005" class="node">
<title>Node5</title>
<g id="a_Node000005"><a xlink:href="primary__reg_8hpp.html" target="_top" xlink:title="This file defines a primary register interface of coprocessor CP15.">
<polygon fill="white" stroke="#666666" points="246,-151 149,-151 149,-132 246,-132 246,-151"/>
<text text-anchor="middle" x="197.5" y="-139" font-family="Helvetica,sans-Serif" font-size="10.00">primary_reg.hpp</text>
</a>
</g>
</g>
<!-- Node3&#45;&gt;Node5 -->
<g id="edge16_Node000003_Node000005" class="edge">
<title>Node3&#45;&gt;Node5</title>
<g id="a_edge16_Node000003_Node000005"><a xlink:title=" ">
<path fill="none" stroke="#63b8ff" d="M218.34,-253C197.9,-246.69 175.75,-235.78 163.5,-217 151.2,-198.14 167.13,-174.1 181.08,-158.51"/>
<polygon fill="#63b8ff" stroke="#63b8ff" points="183.67,-160.86 188.02,-151.2 178.6,-156.03 183.67,-160.86"/>
</a>
</g>
</g>
<!-- Node6 -->
<g id="Node000006" class="node">
<title>Node6</title>
<g id="a_Node000006"><a xlink:href="logging__system_8hpp.html" target="_top" xlink:title="This file defines a logging system that is used in the project.">
<polygon fill="white" stroke="#666666" points="427,-85 296,-85 296,-55 427,-55 427,-85"/>
<text text-anchor="start" x="304" y="-73" font-family="Helvetica,sans-Serif" font-size="10.00">zero_mate/utils/logging</text>
<text text-anchor="middle" x="361.5" y="-62" font-family="Helvetica,sans-Serif" font-size="10.00">_system.hpp</text>
</a>
</g>
</g>
<!-- Node3&#45;&gt;Node6 -->
<g id="edge26_Node000003_Node000006" class="edge">
<title>Node3&#45;&gt;Node6</title>
<g id="a_edge26_Node000003_Node000006"><a xlink:title=" ">
<path fill="none" stroke="#63b8ff" d="M310.66,-253C331.1,-246.69 353.25,-235.78 365.5,-217 389.54,-180.14 379.15,-126.16 369.96,-95.21"/>
<polygon fill="#63b8ff" stroke="#63b8ff" points="373.17,-93.77 366.82,-85.29 366.5,-95.88 373.17,-93.77"/>
</a>
</g>
</g>
<!-- Node8 -->
<g id="Node000008" class="node">
<title>Node8</title>
<g id="a_Node000008"><a xlink:href="c2_8hpp.html" target="_top" xlink:title="This file defines the primary register C2 of coprocessor CP15.">
<polygon fill="white" stroke="#666666" points="222,-217 173,-217 173,-198 222,-198 222,-217"/>
<text text-anchor="middle" x="197.5" y="-205" font-family="Helvetica,sans-Serif" font-size="10.00">c2.hpp</text>
</a>
</g>
</g>
<!-- Node3&#45;&gt;Node8 -->
<g id="edge8_Node000003_Node000008" class="edge">
<title>Node3&#45;&gt;Node8</title>
<g id="a_edge8_Node000003_Node000008"><a xlink:title=" ">
<path fill="none" stroke="#63b8ff" d="M253.74,-252.98C243.73,-245.07 228.61,-233.11 216.57,-223.58"/>
<polygon fill="#63b8ff" stroke="#63b8ff" points="218.47,-220.63 208.46,-217.17 214.13,-226.12 218.47,-220.63"/>
</a>
</g>
</g>
<!-- Node9 -->
<g id="Node000009" class="node">
<title>Node9</title>
<g id="a_Node000009"><a xlink:href="c3_8hpp.html" target="_top" xlink:title="This file defines the primary register C3 of coprocessor CP15.">
<polygon fill="white" stroke="#666666" points="289,-217 240,-217 240,-198 289,-198 289,-217"/>
<text text-anchor="middle" x="264.5" y="-205" font-family="Helvetica,sans-Serif" font-size="10.00">c3.hpp</text>
</a>
</g>
</g>
<!-- Node3&#45;&gt;Node9 -->
<g id="edge10_Node000003_Node000009" class="edge">
<title>Node3&#45;&gt;Node9</title>
<g id="a_edge10_Node000003_Node000009"><a xlink:title=" ">
<path fill="none" stroke="#63b8ff" d="M264.5,-252.75C264.5,-245.8 264.5,-235.85 264.5,-227.13"/>
<polygon fill="#63b8ff" stroke="#63b8ff" points="268,-227.09 264.5,-217.09 261,-227.09 268,-227.09"/>
</a>
</g>
</g>
<!-- Node10 -->
<g id="Node000010" class="node">
<title>Node10</title>
<g id="a_Node000010"><a xlink:href="c7_8hpp.html" target="_top" xlink:title="This file defines the primary register C7 of coprocessor CP15.">
<polygon fill="white" stroke="#666666" points="49,-217 0,-217 0,-198 49,-198 49,-217"/>
<text text-anchor="middle" x="24.5" y="-205" font-family="Helvetica,sans-Serif" font-size="10.00">c7.hpp</text>
</a>
</g>
</g>
<!-- Node3&#45;&gt;Node10 -->
<g id="edge12_Node000003_Node000010" class="edge">
<title>Node3&#45;&gt;Node10</title>
<g id="a_edge12_Node000003_Node000010"><a xlink:title=" ">
<path fill="none" stroke="#63b8ff" d="M222.36,-252.96C182.59,-244.78 121.03,-231.83 59.25,-217.35"/>
<polygon fill="#63b8ff" stroke="#63b8ff" points="59.88,-213.9 49.34,-215.01 58.27,-220.71 59.88,-213.9"/>
</a>
</g>
</g>
<!-- Node11 -->
<g id="Node000011" class="node">
<title>Node11</title>
<g id="a_Node000011"><a xlink:href="c8_8hpp.html" target="_top" xlink:title="This file defines the primary register C8 of coprocessor CP15.">
<polygon fill="white" stroke="#666666" points="116,-217 67,-217 67,-198 116,-198 116,-217"/>
<text text-anchor="middle" x="91.5" y="-205" font-family="Helvetica,sans-Serif" font-size="10.00">c8.hpp</text>
</a>
</g>
</g>
<!-- Node3&#45;&gt;Node11 -->
<g id="edge14_Node000003_Node000011" class="edge">
<title>Node3&#45;&gt;Node11</title>
<g id="a_edge14_Node000003_Node000011"><a xlink:title=" ">
<path fill="none" stroke="#63b8ff" d="M236.7,-252.98C206.63,-243.77 158.61,-229.06 126.11,-219.1"/>
<polygon fill="#63b8ff" stroke="#63b8ff" points="126.73,-215.63 116.14,-216.05 124.68,-222.33 126.73,-215.63"/>
</a>
</g>
</g>
<!-- Node12 -->
<g id="Node000012" class="node">
<title>Node12</title>
<g id="a_Node000012"><a xlink:href="coprocessor_8hpp.html" target="_top" xlink:title="This file defines a general interface of a coprocessor.">
<polygon fill="white" stroke="#666666" points="668.5,-217 564.5,-217 564.5,-198 668.5,-198 668.5,-217"/>
<text text-anchor="middle" x="616.5" y="-205" font-family="Helvetica,sans-Serif" font-size="10.00">../coprocessor.hpp</text>
</a>
</g>
</g>
<!-- Node3&#45;&gt;Node12 -->
<g id="edge17_Node000003_Node000012" class="edge">
<title>Node3&#45;&gt;Node12</title>
<g id="a_edge17_Node000003_Node000012"><a xlink:title=" ">
<path fill="none" stroke="#63b8ff" d="M321.05,-252.98C384.79,-243.39 488.09,-227.83 554.13,-217.89"/>
<polygon fill="#63b8ff" stroke="#63b8ff" points="555.02,-221.3 564.39,-216.35 553.98,-214.37 555.02,-221.3"/>
</a>
</g>
</g>
<!-- Node4&#45;&gt;Node5 -->
<g id="edge4_Node000004_Node000005" class="edge">
<title>Node4&#45;&gt;Node5</title>
<g id="a_edge4_Node000004_Node000005"><a xlink:title=" ">
<path fill="none" stroke="#63b8ff" d="M313.43,-197.87C290.65,-186.99 251.28,-168.19 224.82,-155.55"/>
<polygon fill="#63b8ff" stroke="#63b8ff" points="226.25,-152.35 215.71,-151.2 223.23,-158.67 226.25,-152.35"/>
</a>
</g>
</g>
<!-- Node4&#45;&gt;Node6 -->
<g id="edge7_Node000004_Node000006" class="edge">
<title>Node4&#45;&gt;Node6</title>
<g id="a_edge7_Node000004_Node000006"><a xlink:title=" ">
<path fill="none" stroke="#63b8ff" d="M333.47,-197.61C338.02,-177.07 349.38,-125.74 356.16,-95.11"/>
<polygon fill="#63b8ff" stroke="#63b8ff" points="359.61,-95.75 358.35,-85.23 352.77,-94.24 359.61,-95.75"/>
</a>
</g>
</g>
<!-- Node5&#45;&gt;Node6 -->
<g id="edge5_Node000005_Node000006" class="edge">
<title>Node5&#45;&gt;Node6</title>
<g id="a_edge5_Node000005_Node000006"><a xlink:title=" ">
<path fill="none" stroke="#63b8ff" d="M217.61,-131.98C242.75,-121.32 286.46,-102.8 319.13,-88.96"/>
<polygon fill="#63b8ff" stroke="#63b8ff" points="320.61,-92.13 328.45,-85.01 317.87,-85.69 320.61,-92.13"/>
</a>
</g>
</g>
<!-- Node7 -->
<g id="Node000007" class="node">
<title>Node7</title>
<g id="a_Node000007"><a xlink:href="logger_8hpp.html" target="_top" xlink:title="This file defines a general logger interface.">
<polygon fill="white" stroke="#666666" points="395.5,-19 327.5,-19 327.5,0 395.5,0 395.5,-19"/>
<text text-anchor="middle" x="361.5" y="-7" font-family="Helvetica,sans-Serif" font-size="10.00">logger.hpp</text>
</a>
</g>
</g>
<!-- Node6&#45;&gt;Node7 -->
<g id="edge6_Node000006_Node000007" class="edge">
<title>Node6&#45;&gt;Node7</title>
<g id="a_edge6_Node000006_Node000007"><a xlink:title=" ">
<path fill="none" stroke="#63b8ff" d="M361.5,-54.84C361.5,-47.21 361.5,-37.7 361.5,-29.45"/>
<polygon fill="#63b8ff" stroke="#63b8ff" points="365,-29.27 361.5,-19.27 358,-29.27 365,-29.27"/>
</a>
</g>
</g>
<!-- Node8&#45;&gt;Node5 -->
<g id="edge9_Node000008_Node000005" class="edge">
<title>Node8&#45;&gt;Node5</title>
<g id="a_edge9_Node000008_Node000005"><a xlink:title=" ">
<path fill="none" stroke="#63b8ff" d="M197.5,-197.87C197.5,-188.66 197.5,-173.79 197.5,-161.77"/>
<polygon fill="#63b8ff" stroke="#63b8ff" points="201,-161.41 197.5,-151.41 194,-161.41 201,-161.41"/>
</a>
</g>
</g>
<!-- Node9&#45;&gt;Node5 -->
<g id="edge11_Node000009_Node000005" class="edge">
<title>Node9&#45;&gt;Node5</title>
<g id="a_edge11_Node000009_Node000005"><a xlink:title=" ">
<path fill="none" stroke="#63b8ff" d="M255.46,-197.87C244.93,-187.81 227.31,-170.98 214.26,-158.51"/>
<polygon fill="#63b8ff" stroke="#63b8ff" points="216.47,-155.78 206.82,-151.41 211.64,-160.84 216.47,-155.78"/>
</a>
</g>
</g>
<!-- Node10&#45;&gt;Node5 -->
<g id="edge13_Node000010_Node000005" class="edge">
<title>Node10&#45;&gt;Node5</title>
<g id="a_edge13_Node000010_Node000005"><a xlink:title=" ">
<path fill="none" stroke="#63b8ff" d="M47.83,-197.87C77.97,-186.72 130.59,-167.25 164.73,-154.62"/>
<polygon fill="#63b8ff" stroke="#63b8ff" points="166.1,-157.85 174.26,-151.1 163.67,-151.28 166.1,-157.85"/>
</a>
</g>
</g>
<!-- Node11&#45;&gt;Node5 -->
<g id="edge15_Node000011_Node000005" class="edge">
<title>Node11&#45;&gt;Node5</title>
<g id="a_edge15_Node000011_Node000005"><a xlink:title=" ">
<path fill="none" stroke="#63b8ff" d="M105.8,-197.87C123.42,-187.23 153.59,-169.01 174.49,-156.39"/>
<polygon fill="#63b8ff" stroke="#63b8ff" points="176.34,-159.36 183.09,-151.2 172.72,-153.37 176.34,-159.36"/>
</a>
</g>
</g>
<!-- Node13 -->
<g id="Node000013" class="node">
<title>Node13</title>
<g id="a_Node000013"><a xlink:href="context_8hpp.html" target="_top" xlink:title="This file defines the context (registers) of the CPU.">
<polygon fill="white" stroke="#666666" points="560.5,-151 408.5,-151 408.5,-132 560.5,-132 560.5,-151"/>
<text text-anchor="middle" x="484.5" y="-139" font-family="Helvetica,sans-Serif" font-size="10.00">../arm1176jzf_s/context.hpp</text>
</a>
</g>
</g>
<!-- Node12&#45;&gt;Node13 -->
<g id="edge18_Node000012_Node000013" class="edge">
<title>Node12&#45;&gt;Node13</title>
<g id="a_edge18_Node000012_Node000013"><a xlink:title=" ">
<path fill="none" stroke="#63b8ff" d="M598.7,-197.87C576.36,-187.04 537.82,-168.35 511.76,-155.72"/>
<polygon fill="#63b8ff" stroke="#63b8ff" points="512.97,-152.41 502.44,-151.2 509.91,-158.71 512.97,-152.41"/>
</a>
</g>
</g>
<!-- Node14 -->
<g id="Node000014" class="node">
<title>Node14</title>
<g id="a_Node000014"><a xlink:href="coprocessor__register__transfer_8hpp.html" target="_top" xlink:title="This file defines a coprocessor register transfer (MRC, MCR).">
<polygon fill="white" stroke="#666666" points="895,-162 774,-162 774,-121 895,-121 895,-162"/>
<text text-anchor="start" x="782" y="-150" font-family="Helvetica,sans-Serif" font-size="10.00">../arm1176jzf_s/isa</text>
<text text-anchor="start" x="782" y="-139" font-family="Helvetica,sans-Serif" font-size="10.00">/coprocessor_register</text>
<text text-anchor="middle" x="834.5" y="-128" font-family="Helvetica,sans-Serif" font-size="10.00">_transfer.hpp</text>
</a>
</g>
</g>
<!-- Node12&#45;&gt;Node14 -->
<g id="edge20_Node000012_Node000014" class="edge">
<title>Node12&#45;&gt;Node14</title>
<g id="a_edge20_Node000012_Node000014"><a xlink:title=" ">
<path fill="none" stroke="#63b8ff" d="M645.9,-197.87C676.07,-189.01 724.13,-174.9 764.18,-163.14"/>
<polygon fill="#63b8ff" stroke="#63b8ff" points="765.3,-166.46 773.91,-160.29 763.33,-159.75 765.3,-166.46"/>
</a>
</g>
</g>
<!-- Node16 -->
<g id="Node000016" class="node">
<title>Node16</title>
<g id="a_Node000016"><a xlink:href="coprocessor__data__transfer_8hpp.html" target="_top" xlink:title="This file defines a coprocessor data transfer (LDC, STC).">
<polygon fill="white" stroke="#666666" points="1082,-156.5 913,-156.5 913,-126.5 1082,-126.5 1082,-156.5"/>
<text text-anchor="start" x="921" y="-144.5" font-family="Helvetica,sans-Serif" font-size="10.00">../arm1176jzf_s/isa</text>
<text text-anchor="middle" x="997.5" y="-133.5" font-family="Helvetica,sans-Serif" font-size="10.00">/coprocessor_data_transfer.hpp</text>
</a>
</g>
</g>
<!-- Node12&#45;&gt;Node16 -->
<g id="edge22_Node000012_Node000016" class="edge">
<title>Node12&#45;&gt;Node16</title>
<g id="a_edge22_Node000012_Node000016"><a xlink:title=" ">
<path fill="none" stroke="#63b8ff" d="M668.67,-199.29C726.47,-191.11 822.37,-176.94 904.5,-162 910.52,-160.9 916.74,-159.72 922.99,-158.49"/>
<polygon fill="#63b8ff" stroke="#63b8ff" points="923.68,-161.92 932.8,-156.53 922.31,-155.06 923.68,-161.92"/>
</a>
</g>
</g>
<!-- Node17 -->
<g id="Node000017" class="node">
<title>Node17</title>
<g id="a_Node000017"><a xlink:href="coprocessor__data__operation_8hpp.html" target="_top" xlink:title="This file defines a coprocessor data operation (CDP).">
<polygon fill="white" stroke="#666666" points="756.5,-156.5 578.5,-156.5 578.5,-126.5 756.5,-126.5 756.5,-156.5"/>
<text text-anchor="start" x="586.5" y="-144.5" font-family="Helvetica,sans-Serif" font-size="10.00">../arm1176jzf_s/isa</text>
<text text-anchor="middle" x="667.5" y="-133.5" font-family="Helvetica,sans-Serif" font-size="10.00">/coprocessor_data_operation.hpp</text>
</a>
</g>
</g>
<!-- Node12&#45;&gt;Node17 -->
<g id="edge24_Node000012_Node000017" class="edge">
<title>Node12&#45;&gt;Node17</title>
<g id="a_edge24_Node000012_Node000017"><a xlink:title=" ">
<path fill="none" stroke="#63b8ff" d="M623.38,-197.87C630.12,-189.41 640.67,-176.17 649.77,-164.75"/>
<polygon fill="#63b8ff" stroke="#63b8ff" points="652.56,-166.86 656.06,-156.86 647.09,-162.5 652.56,-166.86"/>
</a>
</g>
</g>
<!-- Node13&#45;&gt;Node6 -->
<g id="edge19_Node000013_Node000006" class="edge">
<title>Node13&#45;&gt;Node6</title>
<g id="a_edge19_Node000013_Node000006"><a xlink:title=" ">
<path fill="none" stroke="#63b8ff" d="M469.42,-131.98C451.1,-121.63 419.65,-103.86 395.41,-90.16"/>
<polygon fill="#63b8ff" stroke="#63b8ff" points="396.95,-87.01 386.52,-85.14 393.51,-93.1 396.95,-87.01"/>
</a>
</g>
</g>
<!-- Node15 -->
<g id="Node000015" class="node">
<title>Node15</title>
<g id="a_Node000015"><a xlink:href="instruction_8hpp.html" target="_top" xlink:title="This file defines the interface of a general ARM instruction.">
<polygon fill="white" stroke="#666666" points="879,-79.5 790,-79.5 790,-60.5 879,-60.5 879,-79.5"/>
<text text-anchor="middle" x="834.5" y="-67.5" font-family="Helvetica,sans-Serif" font-size="10.00">instruction.hpp</text>
</a>
</g>
</g>
<!-- Node14&#45;&gt;Node15 -->
<g id="edge21_Node000014_Node000015" class="edge">
<title>Node14&#45;&gt;Node15</title>
<g id="a_edge21_Node000014_Node000015"><a xlink:title=" ">
<path fill="none" stroke="#63b8ff" d="M834.5,-120.77C834.5,-111.08 834.5,-99.46 834.5,-89.88"/>
<polygon fill="#63b8ff" stroke="#63b8ff" points="838,-89.82 834.5,-79.82 831,-89.82 838,-89.82"/>
</a>
</g>
</g>
<!-- Node16&#45;&gt;Node15 -->
<g id="edge23_Node000016_Node000015" class="edge">
<title>Node16&#45;&gt;Node15</title>
<g id="a_edge23_Node000016_Node000015"><a xlink:title=" ">
<path fill="none" stroke="#63b8ff" d="M964.51,-126.44C935.06,-113.88 892.3,-95.65 863.97,-83.57"/>
<polygon fill="#63b8ff" stroke="#63b8ff" points="865.17,-80.27 854.59,-79.57 862.42,-86.71 865.17,-80.27"/>
</a>
</g>
</g>
<!-- Node17&#45;&gt;Node15 -->
<g id="edge25_Node000017_Node000015" class="edge">
<title>Node17&#45;&gt;Node15</title>
<g id="a_edge25_Node000017_Node000015"><a xlink:title=" ">
<path fill="none" stroke="#63b8ff" d="M701.29,-126.44C731.48,-113.88 775.28,-95.65 804.31,-83.57"/>
<polygon fill="#63b8ff" stroke="#63b8ff" points="806.03,-86.64 813.91,-79.57 803.34,-80.18 806.03,-86.64"/>
</a>
</g>
</g>
<!-- Node19&#45;&gt;Node13 -->
<g id="edge30_Node000019_Node000013" class="edge">
<title>Node19&#45;&gt;Node13</title>
<g id="a_edge30_Node000019_Node000013"><a xlink:title=" ">
<path fill="none" stroke="#63b8ff" d="M484.5,-252.94C484.5,-233.91 484.5,-187.69 484.5,-161.47"/>
<polygon fill="#63b8ff" stroke="#63b8ff" points="488,-161.3 484.5,-151.3 481,-161.3 488,-161.3"/>
</a>
</g>
</g>
<!-- Node20 -->
<g id="Node000020" class="node">
<title>Node20</title>
<g id="a_Node000020"><a xlink:title=" ">
<polygon fill="#e0e0e0" stroke="#999999" points="766,-217 687,-217 687,-198 766,-198 766,-217"/>
<text text-anchor="middle" x="726.5" y="-205" font-family="Helvetica,sans-Serif" font-size="10.00">fmt/format.h</text>
</a>
</g>
</g>
<!-- Node19&#45;&gt;Node20 -->
<g id="edge29_Node000019_Node000020" class="edge">
<title>Node19&#45;&gt;Node20</title>
<g id="a_edge29_Node000019_Node000020"><a xlink:title=" ">
<path fill="none" stroke="#63b8ff" d="M523.38,-252.98C565.24,-243.82 631.93,-229.21 677.38,-219.26"/>
<polygon fill="#63b8ff" stroke="#63b8ff" points="678.29,-222.64 687.31,-217.08 676.8,-215.8 678.29,-222.64"/>
</a>
</g>
</g>
</g>
</svg>
