<?xml version="1.0" encoding="UTF-8" standalone="no"?>
<!DOCTYPE svg PUBLIC "-//W3C//DTD SVG 1.1//EN"
 "http://www.w3.org/Graphics/SVG/1.1/DTD/svg11.dtd">
<!-- Generated by graphviz version 2.43.0 (0)
 -->
<!-- Title: src/utils/elf_loader.cpp Pages: 1 -->
<svg width="1342pt" height="445pt"
 viewBox="0.00 0.00 1342.00 445.00" xmlns="http://www.w3.org/2000/svg" xmlns:xlink="http://www.w3.org/1999/xlink">
<g id="graph0" class="graph" transform="scale(1 1) rotate(0) translate(4 441)">
<title>src/utils/elf_loader.cpp</title>
<!-- Node1 -->
<g id="Node000001" class="node">
<title>Node1</title>
<g id="a_Node000001"><a xlink:title="This file implements the functionality of an ELF loader defined in elf_loader.hpp.">
<polygon fill="#999999" stroke="#666666" points="927.5,-437 801.5,-437 801.5,-418 927.5,-418 927.5,-437"/>
<text text-anchor="middle" x="864.5" y="-425" font-family="Helvetica,sans-Serif" font-size="10.00">src/utils/elf_loader.cpp</text>
</a>
</g>
</g>
<!-- Node2 -->
<g id="Node000002" class="node">
<title>Node2</title>
<g id="a_Node000002"><a xlink:title=" ">
<polygon fill="#e0e0e0" stroke="#999999" points="775,-217 696,-217 696,-198 775,-198 775,-217"/>
<text text-anchor="middle" x="735.5" y="-205" font-family="Helvetica,sans-Serif" font-size="10.00">fmt/format.h</text>
</a>
</g>
</g>
<!-- Node1&#45;&gt;Node2 -->
<g id="edge1_Node000001_Node000002" class="edge">
<title>Node1&#45;&gt;Node2</title>
<g id="a_edge1_Node000001_Node000002"><a xlink:title=" ">
<path fill="none" stroke="#63b8ff" d="M814.94,-418C793.35,-411.7 769.77,-400.81 755.5,-382 720.43,-335.77 726.62,-261.71 731.97,-227.25"/>
<polygon fill="#63b8ff" stroke="#63b8ff" points="735.46,-227.63 733.7,-217.19 728.56,-226.45 735.46,-227.63"/>
</a>
</g>
</g>
<!-- Node3 -->
<g id="Node000003" class="node">
<title>Node3</title>
<g id="a_Node000003"><a xlink:title=" ">
<polygon fill="#e0e0e0" stroke="#999999" points="847,-382 764,-382 764,-363 847,-363 847,-382"/>
<text text-anchor="middle" x="805.5" y="-370" font-family="Helvetica,sans-Serif" font-size="10.00">elfio/elfio.hpp</text>
</a>
</g>
</g>
<!-- Node1&#45;&gt;Node3 -->
<g id="edge2_Node000001_Node000003" class="edge">
<title>Node1&#45;&gt;Node3</title>
<g id="a_edge2_Node000001_Node000003"><a xlink:title=" ">
<path fill="none" stroke="#63b8ff" d="M855.02,-417.98C846.3,-410.15 833.16,-398.34 822.6,-388.86"/>
<polygon fill="#63b8ff" stroke="#63b8ff" points="824.93,-386.25 815.15,-382.17 820.25,-391.46 824.93,-386.25"/>
</a>
</g>
</g>
<!-- Node4 -->
<g id="Node000004" class="node">
<title>Node4</title>
<g id="a_Node000004"><a xlink:title=" ">
<polygon fill="#e0e0e0" stroke="#999999" points="982,-382 865,-382 865,-363 982,-363 982,-382"/>
<text text-anchor="middle" x="923.5" y="-370" font-family="Helvetica,sans-Serif" font-size="10.00">capstone/capstone.h</text>
</a>
</g>
</g>
<!-- Node1&#45;&gt;Node4 -->
<g id="edge3_Node000001_Node000004" class="edge">
<title>Node1&#45;&gt;Node4</title>
<g id="a_edge3_Node000001_Node000004"><a xlink:title=" ">
<path fill="none" stroke="#63b8ff" d="M873.98,-417.98C882.7,-410.15 895.84,-398.34 906.4,-388.86"/>
<polygon fill="#63b8ff" stroke="#63b8ff" points="908.75,-391.46 913.85,-382.17 904.07,-386.25 908.75,-391.46"/>
</a>
</g>
</g>
<!-- Node5 -->
<g id="Node000005" class="node">
<title>Node5</title>
<g id="a_Node000005"><a xlink:title=" ">
<polygon fill="#e0e0e0" stroke="#999999" points="1154.5,-382 1000.5,-382 1000.5,-363 1154.5,-363 1154.5,-382"/>
<text text-anchor="middle" x="1077.5" y="-370" font-family="Helvetica,sans-Serif" font-size="10.00">llvm/Demangle/Demangle.h</text>
</a>
</g>
</g>
<!-- Node1&#45;&gt;Node5 -->
<g id="edge4_Node000001_Node000005" class="edge">
<title>Node1&#45;&gt;Node5</title>
<g id="a_edge4_Node000001_Node000005"><a xlink:title=" ">
<path fill="none" stroke="#63b8ff" d="M898.72,-417.98C935.26,-408.89 993.28,-394.46 1033.26,-384.51"/>
<polygon fill="#63b8ff" stroke="#63b8ff" points="1034.15,-387.89 1043.01,-382.08 1032.46,-381.1 1034.15,-387.89"/>
</a>
</g>
</g>
<!-- Node6 -->
<g id="Node000006" class="node">
<title>Node6</title>
<g id="a_Node000006"><a xlink:href="singleton_8hpp.html" target="_top" xlink:title="This file defines and implements a generic class that is used to treat other classes as singletons.">
<polygon fill="white" stroke="#666666" points="1334,-382 1173,-382 1173,-363 1334,-363 1334,-382"/>
<text text-anchor="middle" x="1253.5" y="-370" font-family="Helvetica,sans-Serif" font-size="10.00">zero_mate/utils/singleton.hpp</text>
</a>
</g>
</g>
<!-- Node1&#45;&gt;Node6 -->
<g id="edge5_Node000001_Node000006" class="edge">
<title>Node1&#45;&gt;Node6</title>
<g id="a_edge5_Node000001_Node000006"><a xlink:title=" ">
<path fill="none" stroke="#63b8ff" d="M927,-417.98C996.23,-408.55 1107.7,-393.36 1180.78,-383.41"/>
<polygon fill="#63b8ff" stroke="#63b8ff" points="1181.4,-386.86 1190.83,-382.04 1180.45,-379.92 1181.4,-386.86"/>
</a>
</g>
</g>
<!-- Node7 -->
<g id="Node000007" class="node">
<title>Node7</title>
<g id="a_Node000007"><a xlink:href="elf__loader_8hpp.html" target="_top" xlink:title="This file defines the functionality of an ELF loader.">
<polygon fill="white" stroke="#666666" points="692.5,-382 606.5,-382 606.5,-363 692.5,-363 692.5,-382"/>
<text text-anchor="middle" x="649.5" y="-370" font-family="Helvetica,sans-Serif" font-size="10.00">elf_loader.hpp</text>
</a>
</g>
</g>
<!-- Node1&#45;&gt;Node7 -->
<g id="edge6_Node000001_Node000007" class="edge">
<title>Node1&#45;&gt;Node7</title>
<g id="a_edge6_Node000001_Node000007"><a xlink:title=" ">
<path fill="none" stroke="#63b8ff" d="M829.96,-417.98C793.08,-408.89 734.51,-394.46 694.16,-384.51"/>
<polygon fill="#63b8ff" stroke="#63b8ff" points="694.86,-381.08 684.31,-382.08 693.19,-387.87 694.86,-381.08"/>
</a>
</g>
</g>
<!-- Node8 -->
<g id="Node000008" class="node">
<title>Node8</title>
<g id="a_Node000008"><a xlink:href="bus_8hpp.html" target="_top" xlink:title="This file defines an interface the CPU uses to access different memory&#45;mapped peripherals.">
<polygon fill="white" stroke="#666666" points="593.5,-327 505.5,-327 505.5,-308 593.5,-308 593.5,-327"/>
<text text-anchor="middle" x="549.5" y="-315" font-family="Helvetica,sans-Serif" font-size="10.00">../core/bus.hpp</text>
</a>
</g>
</g>
<!-- Node7&#45;&gt;Node8 -->
<g id="edge7_Node000007_Node000008" class="edge">
<title>Node7&#45;&gt;Node8</title>
<g id="a_edge7_Node000007_Node000008"><a xlink:title=" ">
<path fill="none" stroke="#63b8ff" d="M633.43,-362.98C617.64,-354.61 593.28,-341.7 574.87,-331.95"/>
<polygon fill="#63b8ff" stroke="#63b8ff" points="576.33,-328.76 565.86,-327.17 573.06,-334.95 576.33,-328.76"/>
</a>
</g>
</g>
<!-- Node9 -->
<g id="Node000009" class="node">
<title>Node9</title>
<g id="a_Node000009"><a xlink:href="cp15_8hpp.html" target="_top" xlink:title="This file defines coprocessor CP15.">
<polygon fill="white" stroke="#666666" points="341.5,-272 187.5,-272 187.5,-253 341.5,-253 341.5,-272"/>
<text text-anchor="middle" x="264.5" y="-260" font-family="Helvetica,sans-Serif" font-size="10.00">coprocessors/cp15/cp15.hpp</text>
</a>
</g>
</g>
<!-- Node8&#45;&gt;Node9 -->
<g id="edge8_Node000008_Node000009" class="edge">
<title>Node8&#45;&gt;Node9</title>
<g id="a_edge8_Node000008_Node000009"><a xlink:title=" ">
<path fill="none" stroke="#63b8ff" d="M505.28,-308.28C455.49,-299.02 374.48,-283.95 320.35,-273.89"/>
<polygon fill="#63b8ff" stroke="#63b8ff" points="320.71,-270.39 310.24,-272.01 319.43,-277.28 320.71,-270.39"/>
</a>
</g>
</g>
<!-- Node24 -->
<g id="Node000024" class="node">
<title>Node24</title>
<g id="a_Node000024"><a xlink:href="peripheral_8hpp.html" target="_top" xlink:title="This file defines an interface for a memory&#45;mapped peripheral.">
<polygon fill="white" stroke="#666666" points="707,-272 562,-272 562,-253 707,-253 707,-272"/>
<text text-anchor="middle" x="634.5" y="-260" font-family="Helvetica,sans-Serif" font-size="10.00">peripherals/peripheral.hpp</text>
</a>
</g>
</g>
<!-- Node8&#45;&gt;Node24 -->
<g id="edge33_Node000008_Node000024" class="edge">
<title>Node8&#45;&gt;Node24</title>
<g id="a_edge33_Node000008_Node000024"><a xlink:title=" ">
<path fill="none" stroke="#63b8ff" d="M563.16,-307.98C576.34,-299.77 596.53,-287.18 612.07,-277.49"/>
<polygon fill="#63b8ff" stroke="#63b8ff" points="613.96,-280.43 620.59,-272.17 610.26,-274.49 613.96,-280.43"/>
</a>
</g>
</g>
<!-- Node25 -->
<g id="Node000025" class="node">
<title>Node25</title>
<g id="a_Node000025"><a xlink:href="exceptions_8hpp.html" target="_top" xlink:title="This file defines all exceptions that can be thrown by the CPU during execution.">
<polygon fill="white" stroke="#666666" points="543.5,-272 383.5,-272 383.5,-253 543.5,-253 543.5,-272"/>
<text text-anchor="middle" x="463.5" y="-260" font-family="Helvetica,sans-Serif" font-size="10.00">arm1176jzf_s/exceptions.hpp</text>
</a>
</g>
</g>
<!-- Node8&#45;&gt;Node25 -->
<g id="edge34_Node000008_Node000025" class="edge">
<title>Node8&#45;&gt;Node25</title>
<g id="a_edge34_Node000008_Node000025"><a xlink:title=" ">
<path fill="none" stroke="#63b8ff" d="M535.68,-307.98C522.35,-299.77 501.92,-287.18 486.19,-277.49"/>
<polygon fill="#63b8ff" stroke="#63b8ff" points="487.92,-274.44 477.57,-272.17 484.25,-280.4 487.92,-274.44"/>
</a>
</g>
</g>
<!-- Node10 -->
<g id="Node000010" class="node">
<title>Node10</title>
<g id="a_Node000010"><a xlink:href="c1_8hpp.html" target="_top" xlink:title="This file defines the primary register C1 of coprocessor CP15.">
<polygon fill="white" stroke="#666666" points="49,-217 0,-217 0,-198 49,-198 49,-217"/>
<text text-anchor="middle" x="24.5" y="-205" font-family="Helvetica,sans-Serif" font-size="10.00">c1.hpp</text>
</a>
</g>
</g>
<!-- Node9&#45;&gt;Node10 -->
<g id="edge9_Node000009_Node000010" class="edge">
<title>Node9&#45;&gt;Node10</title>
<g id="a_edge9_Node000009_Node000010"><a xlink:title=" ">
<path fill="none" stroke="#63b8ff" d="M225.94,-252.98C179.82,-242.8 103.3,-225.9 59.03,-216.13"/>
<polygon fill="#63b8ff" stroke="#63b8ff" points="59.56,-212.66 49.04,-213.92 58.05,-219.49 59.56,-212.66"/>
</a>
</g>
</g>
<!-- Node11 -->
<g id="Node000011" class="node">
<title>Node11</title>
<g id="a_Node000011"><a xlink:href="primary__reg_8hpp.html" target="_top" xlink:title="This file defines a primary register interface of coprocessor CP15.">
<polygon fill="white" stroke="#666666" points="246,-151 149,-151 149,-132 246,-132 246,-151"/>
<text text-anchor="middle" x="197.5" y="-139" font-family="Helvetica,sans-Serif" font-size="10.00">primary_reg.hpp</text>
</a>
</g>
</g>
<!-- Node9&#45;&gt;Node11 -->
<g id="edge22_Node000009_Node000011" class="edge">
<title>Node9&#45;&gt;Node11</title>
<g id="a_edge22_Node000009_Node000011"><a xlink:title=" ">
<path fill="none" stroke="#63b8ff" d="M202,-252.99C159.83,-245.81 109.57,-233.98 96.5,-217 75.15,-189.26 120.37,-167 157.01,-154.26"/>
<polygon fill="#63b8ff" stroke="#63b8ff" points="158.2,-157.56 166.58,-151.08 155.99,-150.92 158.2,-157.56"/>
</a>
</g>
</g>
<!-- Node12 -->
<g id="Node000012" class="node">
<title>Node12</title>
<g id="a_Node000012"><a xlink:href="logging__system_8hpp.html" target="_top" xlink:title="This file defines a logging system that is used in the project.">
<polygon fill="white" stroke="#666666" points="356,-85 225,-85 225,-55 356,-55 356,-85"/>
<text text-anchor="start" x="233" y="-73" font-family="Helvetica,sans-Serif" font-size="10.00">zero_mate/utils/logging</text>
<text text-anchor="middle" x="290.5" y="-62" font-family="Helvetica,sans-Serif" font-size="10.00">_system.hpp</text>
</a>
</g>
</g>
<!-- Node9&#45;&gt;Node12 -->
<g id="edge32_Node000009_Node000012" class="edge">
<title>Node9&#45;&gt;Node12</title>
<g id="a_edge32_Node000009_Node000012"><a xlink:title=" ">
<path fill="none" stroke="#63b8ff" d="M309.96,-252.96C330.27,-246.64 352.34,-235.72 364.5,-217 391.9,-174.82 346.03,-121.17 315.12,-92.08"/>
<polygon fill="#63b8ff" stroke="#63b8ff" points="317.38,-89.4 307.64,-85.23 312.65,-94.57 317.38,-89.4"/>
</a>
</g>
</g>
<!-- Node14 -->
<g id="Node000014" class="node">
<title>Node14</title>
<g id="a_Node000014"><a xlink:href="c2_8hpp.html" target="_top" xlink:title="This file defines the primary register C2 of coprocessor CP15.">
<polygon fill="white" stroke="#666666" points="155,-217 106,-217 106,-198 155,-198 155,-217"/>
<text text-anchor="middle" x="130.5" y="-205" font-family="Helvetica,sans-Serif" font-size="10.00">c2.hpp</text>
</a>
</g>
</g>
<!-- Node9&#45;&gt;Node14 -->
<g id="edge14_Node000009_Node000014" class="edge">
<title>Node9&#45;&gt;Node14</title>
<g id="a_edge14_Node000009_Node000014"><a xlink:title=" ">
<path fill="none" stroke="#63b8ff" d="M242.97,-252.98C221.03,-244.3 186.76,-230.75 161.81,-220.88"/>
<polygon fill="#63b8ff" stroke="#63b8ff" points="163.01,-217.59 152.42,-217.17 160.43,-224.1 163.01,-217.59"/>
</a>
</g>
</g>
<!-- Node15 -->
<g id="Node000015" class="node">
<title>Node15</title>
<g id="a_Node000015"><a xlink:href="c3_8hpp.html" target="_top" xlink:title="This file defines the primary register C3 of coprocessor CP15.">
<polygon fill="white" stroke="#666666" points="222,-217 173,-217 173,-198 222,-198 222,-217"/>
<text text-anchor="middle" x="197.5" y="-205" font-family="Helvetica,sans-Serif" font-size="10.00">c3.hpp</text>
</a>
</g>
</g>
<!-- Node9&#45;&gt;Node15 -->
<g id="edge16_Node000009_Node000015" class="edge">
<title>Node9&#45;&gt;Node15</title>
<g id="a_edge16_Node000009_Node000015"><a xlink:title=" ">
<path fill="none" stroke="#63b8ff" d="M253.74,-252.98C243.73,-245.07 228.61,-233.11 216.57,-223.58"/>
<polygon fill="#63b8ff" stroke="#63b8ff" points="218.47,-220.63 208.46,-217.17 214.13,-226.12 218.47,-220.63"/>
</a>
</g>
</g>
<!-- Node16 -->
<g id="Node000016" class="node">
<title>Node16</title>
<g id="a_Node000016"><a xlink:href="c7_8hpp.html" target="_top" xlink:title="This file defines the primary register C7 of coprocessor CP15.">
<polygon fill="white" stroke="#666666" points="289,-217 240,-217 240,-198 289,-198 289,-217"/>
<text text-anchor="middle" x="264.5" y="-205" font-family="Helvetica,sans-Serif" font-size="10.00">c7.hpp</text>
</a>
</g>
</g>
<!-- Node9&#45;&gt;Node16 -->
<g id="edge18_Node000009_Node000016" class="edge">
<title>Node9&#45;&gt;Node16</title>
<g id="a_edge18_Node000009_Node000016"><a xlink:title=" ">
<path fill="none" stroke="#63b8ff" d="M264.5,-252.75C264.5,-245.8 264.5,-235.85 264.5,-227.13"/>
<polygon fill="#63b8ff" stroke="#63b8ff" points="268,-227.09 264.5,-217.09 261,-227.09 268,-227.09"/>
</a>
</g>
</g>
<!-- Node17 -->
<g id="Node000017" class="node">
<title>Node17</title>
<g id="a_Node000017"><a xlink:href="c8_8hpp.html" target="_top" xlink:title="This file defines the primary register C8 of coprocessor CP15.">
<polygon fill="white" stroke="#666666" points="356,-217 307,-217 307,-198 356,-198 356,-217"/>
<text text-anchor="middle" x="331.5" y="-205" font-family="Helvetica,sans-Serif" font-size="10.00">c8.hpp</text>
</a>
</g>
</g>
<!-- Node9&#45;&gt;Node17 -->
<g id="edge20_Node000009_Node000017" class="edge">
<title>Node9&#45;&gt;Node17</title>
<g id="a_edge20_Node000009_Node000017"><a xlink:title=" ">
<path fill="none" stroke="#63b8ff" d="M275.26,-252.98C285.27,-245.07 300.39,-233.11 312.43,-223.58"/>
<polygon fill="#63b8ff" stroke="#63b8ff" points="314.87,-226.12 320.54,-217.17 310.53,-220.63 314.87,-226.12"/>
</a>
</g>
</g>
<!-- Node18 -->
<g id="Node000018" class="node">
<title>Node18</title>
<g id="a_Node000018"><a xlink:href="coprocessor_8hpp.html" target="_top" xlink:title="This file defines a general interface of a coprocessor.">
<polygon fill="white" stroke="#666666" points="677.5,-217 573.5,-217 573.5,-198 677.5,-198 677.5,-217"/>
<text text-anchor="middle" x="625.5" y="-205" font-family="Helvetica,sans-Serif" font-size="10.00">../coprocessor.hpp</text>
</a>
</g>
</g>
<!-- Node9&#45;&gt;Node18 -->
<g id="edge23_Node000009_Node000018" class="edge">
<title>Node9&#45;&gt;Node18</title>
<g id="a_edge23_Node000009_Node000018"><a xlink:title=" ">
<path fill="none" stroke="#63b8ff" d="M322.5,-252.98C388.38,-243.31 495.48,-227.59 563.12,-217.66"/>
<polygon fill="#63b8ff" stroke="#63b8ff" points="563.83,-221.09 573.21,-216.18 562.81,-214.17 563.83,-221.09"/>
</a>
</g>
</g>
<!-- Node10&#45;&gt;Node11 -->
<g id="edge10_Node000010_Node000011" class="edge">
<title>Node10&#45;&gt;Node11</title>
<g id="a_edge10_Node000010_Node000011"><a xlink:title=" ">
<path fill="none" stroke="#63b8ff" d="M47.83,-197.87C77.97,-186.72 130.59,-167.25 164.73,-154.62"/>
<polygon fill="#63b8ff" stroke="#63b8ff" points="166.1,-157.85 174.26,-151.1 163.67,-151.28 166.1,-157.85"/>
</a>
</g>
</g>
<!-- Node10&#45;&gt;Node12 -->
<g id="edge13_Node000010_Node000012" class="edge">
<title>Node10&#45;&gt;Node12</title>
<g id="a_edge13_Node000010_Node000012"><a xlink:title=" ">
<path fill="none" stroke="#63b8ff" d="M33.93,-197.8C52.72,-180.89 96.68,-143.27 139.5,-121 166.01,-107.21 197.09,-96.15 224.14,-87.97"/>
<polygon fill="#63b8ff" stroke="#63b8ff" points="225.31,-91.27 233.9,-85.08 223.32,-84.56 225.31,-91.27"/>
</a>
</g>
</g>
<!-- Node11&#45;&gt;Node12 -->
<g id="edge11_Node000011_Node000012" class="edge">
<title>Node11&#45;&gt;Node12</title>
<g id="a_edge11_Node000011_Node000012"><a xlink:title=" ">
<path fill="none" stroke="#63b8ff" d="M208.9,-131.98C222.33,-121.95 245.07,-104.95 263.15,-91.44"/>
<polygon fill="#63b8ff" stroke="#63b8ff" points="265.67,-93.93 271.58,-85.14 261.48,-88.32 265.67,-93.93"/>
</a>
</g>
</g>
<!-- Node13 -->
<g id="Node000013" class="node">
<title>Node13</title>
<g id="a_Node000013"><a xlink:href="logger_8hpp.html" target="_top" xlink:title="This file defines a general logger interface.">
<polygon fill="white" stroke="#666666" points="324.5,-19 256.5,-19 256.5,0 324.5,0 324.5,-19"/>
<text text-anchor="middle" x="290.5" y="-7" font-family="Helvetica,sans-Serif" font-size="10.00">logger.hpp</text>
</a>
</g>
</g>
<!-- Node12&#45;&gt;Node13 -->
<g id="edge12_Node000012_Node000013" class="edge">
<title>Node12&#45;&gt;Node13</title>
<g id="a_edge12_Node000012_Node000013"><a xlink:title=" ">
<path fill="none" stroke="#63b8ff" d="M290.5,-54.84C290.5,-47.21 290.5,-37.7 290.5,-29.45"/>
<polygon fill="#63b8ff" stroke="#63b8ff" points="294,-29.27 290.5,-19.27 287,-29.27 294,-29.27"/>
</a>
</g>
</g>
<!-- Node14&#45;&gt;Node11 -->
<g id="edge15_Node000014_Node000011" class="edge">
<title>Node14&#45;&gt;Node11</title>
<g id="a_edge15_Node000014_Node000011"><a xlink:title=" ">
<path fill="none" stroke="#63b8ff" d="M139.54,-197.87C150.07,-187.81 167.69,-170.98 180.74,-158.51"/>
<polygon fill="#63b8ff" stroke="#63b8ff" points="183.36,-160.84 188.18,-151.41 178.53,-155.78 183.36,-160.84"/>
</a>
</g>
</g>
<!-- Node15&#45;&gt;Node11 -->
<g id="edge17_Node000015_Node000011" class="edge">
<title>Node15&#45;&gt;Node11</title>
<g id="a_edge17_Node000015_Node000011"><a xlink:title=" ">
<path fill="none" stroke="#63b8ff" d="M197.5,-197.87C197.5,-188.66 197.5,-173.79 197.5,-161.77"/>
<polygon fill="#63b8ff" stroke="#63b8ff" points="201,-161.41 197.5,-151.41 194,-161.41 201,-161.41"/>
</a>
</g>
</g>
<!-- Node16&#45;&gt;Node11 -->
<g id="edge19_Node000016_Node000011" class="edge">
<title>Node16&#45;&gt;Node11</title>
<g id="a_edge19_Node000016_Node000011"><a xlink:title=" ">
<path fill="none" stroke="#63b8ff" d="M255.46,-197.87C244.93,-187.81 227.31,-170.98 214.26,-158.51"/>
<polygon fill="#63b8ff" stroke="#63b8ff" points="216.47,-155.78 206.82,-151.41 211.64,-160.84 216.47,-155.78"/>
</a>
</g>
</g>
<!-- Node17&#45;&gt;Node11 -->
<g id="edge21_Node000017_Node000011" class="edge">
<title>Node17&#45;&gt;Node11</title>
<g id="a_edge21_Node000017_Node000011"><a xlink:title=" ">
<path fill="none" stroke="#63b8ff" d="M313.43,-197.87C290.65,-186.99 251.28,-168.19 224.82,-155.55"/>
<polygon fill="#63b8ff" stroke="#63b8ff" points="226.25,-152.35 215.71,-151.2 223.23,-158.67 226.25,-152.35"/>
</a>
</g>
</g>
<!-- Node19 -->
<g id="Node000019" class="node">
<title>Node19</title>
<g id="a_Node000019"><a xlink:href="context_8hpp.html" target="_top" xlink:title="This file defines the context (registers) of the CPU.">
<polygon fill="white" stroke="#666666" points="539.5,-151 387.5,-151 387.5,-132 539.5,-132 539.5,-151"/>
<text text-anchor="middle" x="463.5" y="-139" font-family="Helvetica,sans-Serif" font-size="10.00">../arm1176jzf_s/context.hpp</text>
</a>
</g>
</g>
<!-- Node18&#45;&gt;Node19 -->
<g id="edge24_Node000018_Node000019" class="edge">
<title>Node18&#45;&gt;Node19</title>
<g id="a_edge24_Node000018_Node000019"><a xlink:title=" ">
<path fill="none" stroke="#63b8ff" d="M603.65,-197.87C575.55,-186.77 526.57,-167.42 494.6,-154.78"/>
<polygon fill="#63b8ff" stroke="#63b8ff" points="495.85,-151.52 485.26,-151.1 493.27,-158.03 495.85,-151.52"/>
</a>
</g>
</g>
<!-- Node20 -->
<g id="Node000020" class="node">
<title>Node20</title>
<g id="a_Node000020"><a xlink:href="coprocessor__register__transfer_8hpp.html" target="_top" xlink:title="This file defines a coprocessor register transfer (MRC, MCR).">
<polygon fill="white" stroke="#666666" points="1061,-162 940,-162 940,-121 1061,-121 1061,-162"/>
<text text-anchor="start" x="948" y="-150" font-family="Helvetica,sans-Serif" font-size="10.00">../arm1176jzf_s/isa</text>
<text text-anchor="start" x="948" y="-139" font-family="Helvetica,sans-Serif" font-size="10.00">/coprocessor_register</text>
<text text-anchor="middle" x="1000.5" y="-128" font-family="Helvetica,sans-Serif" font-size="10.00">_transfer.hpp</text>
</a>
</g>
</g>
<!-- Node18&#45;&gt;Node20 -->
<g id="edge26_Node000018_Node000020" class="edge">
<title>Node18&#45;&gt;Node20</title>
<g id="a_edge26_Node000018_Node000020"><a xlink:title=" ">
<path fill="none" stroke="#63b8ff" d="M677.78,-199.28C752.16,-188.95 883.88,-170.45 929.73,-162.1"/>
<polygon fill="#63b8ff" stroke="#63b8ff" points="930.51,-165.51 939.65,-160.16 929.17,-158.64 930.51,-165.51"/>
</a>
</g>
</g>
<!-- Node22 -->
<g id="Node000022" class="node">
<title>Node22</title>
<g id="a_Node000022"><a xlink:href="coprocessor__data__transfer_8hpp.html" target="_top" xlink:title="This file defines a coprocessor data transfer (LDC, STC).">
<polygon fill="white" stroke="#666666" points="727,-156.5 558,-156.5 558,-126.5 727,-126.5 727,-156.5"/>
<text text-anchor="start" x="566" y="-144.5" font-family="Helvetica,sans-Serif" font-size="10.00">../arm1176jzf_s/isa</text>
<text text-anchor="middle" x="642.5" y="-133.5" font-family="Helvetica,sans-Serif" font-size="10.00">/coprocessor_data_transfer.hpp</text>
</a>
</g>
</g>
<!-- Node18&#45;&gt;Node22 -->
<g id="edge28_Node000018_Node000022" class="edge">
<title>Node18&#45;&gt;Node22</title>
<g id="a_edge28_Node000018_Node000022"><a xlink:title=" ">
<path fill="none" stroke="#63b8ff" d="M627.79,-197.87C629.91,-189.9 633.15,-177.7 636.05,-166.77"/>
<polygon fill="#63b8ff" stroke="#63b8ff" points="639.5,-167.42 638.69,-156.86 632.74,-165.63 639.5,-167.42"/>
</a>
</g>
</g>
<!-- Node23 -->
<g id="Node000023" class="node">
<title>Node23</title>
<g id="a_Node000023"><a xlink:href="coprocessor__data__operation_8hpp.html" target="_top" xlink:title="This file defines a coprocessor data operation (CDP).">
<polygon fill="white" stroke="#666666" points="922.5,-156.5 744.5,-156.5 744.5,-126.5 922.5,-126.5 922.5,-156.5"/>
<text text-anchor="start" x="752.5" y="-144.5" font-family="Helvetica,sans-Serif" font-size="10.00">../arm1176jzf_s/isa</text>
<text text-anchor="middle" x="833.5" y="-133.5" font-family="Helvetica,sans-Serif" font-size="10.00">/coprocessor_data_operation.hpp</text>
</a>
</g>
</g>
<!-- Node18&#45;&gt;Node23 -->
<g id="edge30_Node000018_Node000023" class="edge">
<title>Node18&#45;&gt;Node23</title>
<g id="a_edge30_Node000018_Node000023"><a xlink:title=" ">
<path fill="none" stroke="#63b8ff" d="M653.55,-197.87C685.31,-188.1 737.84,-171.93 777.97,-159.59"/>
<polygon fill="#63b8ff" stroke="#63b8ff" points="779.1,-162.9 787.62,-156.62 777.04,-156.21 779.1,-162.9"/>
</a>
</g>
</g>
<!-- Node19&#45;&gt;Node12 -->
<g id="edge25_Node000019_Node000012" class="edge">
<title>Node19&#45;&gt;Node12</title>
<g id="a_edge25_Node000019_Node000012"><a xlink:title=" ">
<path fill="none" stroke="#63b8ff" d="M442.29,-131.98C415.65,-121.28 369.26,-102.64 334.76,-88.78"/>
<polygon fill="#63b8ff" stroke="#63b8ff" points="335.95,-85.49 325.37,-85.01 333.34,-91.98 335.95,-85.49"/>
</a>
</g>
</g>
<!-- Node21 -->
<g id="Node000021" class="node">
<title>Node21</title>
<g id="a_Node000021"><a xlink:href="instruction_8hpp.html" target="_top" xlink:title="This file defines the interface of a general ARM instruction.">
<polygon fill="white" stroke="#666666" points="878,-79.5 789,-79.5 789,-60.5 878,-60.5 878,-79.5"/>
<text text-anchor="middle" x="833.5" y="-67.5" font-family="Helvetica,sans-Serif" font-size="10.00">instruction.hpp</text>
</a>
</g>
</g>
<!-- Node20&#45;&gt;Node21 -->
<g id="edge27_Node000020_Node000021" class="edge">
<title>Node20&#45;&gt;Node21</title>
<g id="a_edge27_Node000020_Node000021"><a xlink:title=" ">
<path fill="none" stroke="#63b8ff" d="M953.54,-120.96C924.58,-108.9 888.32,-93.81 863.27,-83.39"/>
<polygon fill="#63b8ff" stroke="#63b8ff" points="864.51,-80.11 853.93,-79.5 861.82,-86.58 864.51,-80.11"/>
</a>
</g>
</g>
<!-- Node22&#45;&gt;Node21 -->
<g id="edge29_Node000022_Node000021" class="edge">
<title>Node22&#45;&gt;Node21</title>
<g id="a_edge29_Node000022_Node000021"><a xlink:title=" ">
<path fill="none" stroke="#63b8ff" d="M681.15,-126.44C716.12,-113.71 767.08,-95.17 800.26,-83.09"/>
<polygon fill="#63b8ff" stroke="#63b8ff" points="801.75,-86.28 809.95,-79.57 799.36,-79.7 801.75,-86.28"/>
</a>
</g>
</g>
<!-- Node23&#45;&gt;Node21 -->
<g id="edge31_Node000023_Node000021" class="edge">
<title>Node23&#45;&gt;Node21</title>
<g id="a_edge31_Node000023_Node000021"><a xlink:title=" ">
<path fill="none" stroke="#63b8ff" d="M833.5,-126.44C833.5,-115.96 833.5,-101.55 833.5,-90.05"/>
<polygon fill="#63b8ff" stroke="#63b8ff" points="837,-89.77 833.5,-79.77 830,-89.77 837,-89.77"/>
</a>
</g>
</g>
<!-- Node25&#45;&gt;Node2 -->
<g id="edge35_Node000025_Node000002" class="edge">
<title>Node25&#45;&gt;Node2</title>
<g id="a_edge35_Node000025_Node000002"><a xlink:title=" ">
<path fill="none" stroke="#63b8ff" d="M507.2,-252.98C556.05,-243.47 634.99,-228.08 686.06,-218.13"/>
<polygon fill="#63b8ff" stroke="#63b8ff" points="686.74,-221.57 695.89,-216.22 685.4,-214.7 686.74,-221.57"/>
</a>
</g>
</g>
<!-- Node25&#45;&gt;Node19 -->
<g id="edge36_Node000025_Node000019" class="edge">
<title>Node25&#45;&gt;Node19</title>
<g id="a_edge36_Node000025_Node000019"><a xlink:title=" ">
<path fill="none" stroke="#63b8ff" d="M463.5,-252.94C463.5,-233.91 463.5,-187.69 463.5,-161.47"/>
<polygon fill="#63b8ff" stroke="#63b8ff" points="467,-161.3 463.5,-151.3 460,-161.3 467,-161.3"/>
</a>
</g>
</g>
</g>
</svg>
