<?xml version="1.0" encoding="UTF-8" standalone="no"?>
<!DOCTYPE svg PUBLIC "-//W3C//DTD SVG 1.1//EN"
 "http://www.w3.org/Graphics/SVG/1.1/DTD/svg11.dtd">
<!-- Generated by graphviz version 2.43.0 (0)
 -->
<!-- Title: src/core/arm1176jzf_s/exceptions.hpp Pages: 1 -->
<svg width="1526pt" height="368pt"
 viewBox="0.00 0.00 1525.50 368.00" xmlns="http://www.w3.org/2000/svg" xmlns:xlink="http://www.w3.org/1999/xlink">
<g id="graph0" class="graph" transform="scale(1 1) rotate(0) translate(4 364)">
<title>src/core/arm1176jzf_s/exceptions.hpp</title>
<!-- Node1 -->
<g id="Node000001" class="node">
<title>Node1</title>
<g id="a_Node000001"><a xlink:title="This file defines all exceptions that can be thrown by the CPU during execution.">
<polygon fill="#999999" stroke="#666666" points="674,-360 561,-360 561,-330 674,-330 674,-360"/>
<text text-anchor="start" x="569" y="-348" font-family="Helvetica,sans-Serif" font-size="10.00">src/core/arm1176jzf</text>
<text text-anchor="middle" x="617.5" y="-337" font-family="Helvetica,sans-Serif" font-size="10.00">_s/exceptions.hpp</text>
</a>
</g>
</g>
<!-- Node2 -->
<g id="Node000002" class="node">
<title>Node2</title>
<g id="a_Node000002"><a xlink:href="context_8cpp.html" target="_top" xlink:title="This file implements the context (registers) of the CPU.">
<polygon fill="white" stroke="#666666" points="551,-294 438,-294 438,-264 551,-264 551,-294"/>
<text text-anchor="start" x="446" y="-282" font-family="Helvetica,sans-Serif" font-size="10.00">src/core/arm1176jzf</text>
<text text-anchor="middle" x="494.5" y="-271" font-family="Helvetica,sans-Serif" font-size="10.00">_s/context.cpp</text>
</a>
</g>
</g>
<!-- Node1&#45;&gt;Node2 -->
<g id="edge1_Node000001_Node000002" class="edge">
<title>Node1&#45;&gt;Node2</title>
<g id="a_edge1_Node000001_Node000002"><a xlink:title=" ">
<path fill="none" stroke="#63b8ff" d="M581.45,-325.24C562.25,-315.25 539.04,-303.18 521.43,-294.01"/>
<polygon fill="#63b8ff" stroke="#63b8ff" points="580.02,-328.44 590.51,-329.95 583.25,-322.23 580.02,-328.44"/>
</a>
</g>
</g>
<!-- Node3 -->
<g id="Node000003" class="node">
<title>Node3</title>
<g id="a_Node000003"><a xlink:href="core_8hpp.html" target="_top" xlink:title="This file defines a class that represents a CPU core (arm1176jzf_s).">
<polygon fill="white" stroke="#666666" points="693,-162 580,-162 580,-132 693,-132 693,-162"/>
<text text-anchor="start" x="588" y="-150" font-family="Helvetica,sans-Serif" font-size="10.00">src/core/arm1176jzf</text>
<text text-anchor="middle" x="636.5" y="-139" font-family="Helvetica,sans-Serif" font-size="10.00">_s/core.hpp</text>
</a>
</g>
</g>
<!-- Node1&#45;&gt;Node3 -->
<g id="edge2_Node000001_Node000003" class="edge">
<title>Node1&#45;&gt;Node3</title>
<g id="a_edge2_Node000001_Node000003"><a xlink:title=" ">
<path fill="none" stroke="#63b8ff" d="M606.61,-320.63C603.32,-312.4 600.15,-302.96 598.5,-294 589.51,-245.05 614.8,-188.34 628.43,-162.35"/>
<polygon fill="#63b8ff" stroke="#63b8ff" points="603.45,-322.13 610.59,-329.96 609.89,-319.39 603.45,-322.13"/>
</a>
</g>
</g>
<!-- Node19 -->
<g id="Node000019" class="node">
<title>Node19</title>
<g id="a_Node000019"><a xlink:href="exceptions_8cpp.html" target="_top" xlink:title="This file implements all exceptions that can be thrown by the CPU during execution.">
<polygon fill="white" stroke="#666666" points="835,-294 722,-294 722,-264 835,-264 835,-294"/>
<text text-anchor="start" x="730" y="-282" font-family="Helvetica,sans-Serif" font-size="10.00">src/core/arm1176jzf</text>
<text text-anchor="middle" x="778.5" y="-271" font-family="Helvetica,sans-Serif" font-size="10.00">_s/exceptions.cpp</text>
</a>
</g>
</g>
<!-- Node1&#45;&gt;Node19 -->
<g id="edge22_Node000001_Node000019" class="edge">
<title>Node1&#45;&gt;Node19</title>
<g id="a_edge22_Node000001_Node000019"><a xlink:title=" ">
<path fill="none" stroke="#63b8ff" d="M662.31,-326.19C687.87,-316.02 719.47,-303.47 743.25,-294.01"/>
<polygon fill="#63b8ff" stroke="#63b8ff" points="660.83,-323.01 652.83,-329.95 663.42,-329.51 660.83,-323.01"/>
</a>
</g>
</g>
<!-- Node20 -->
<g id="Node000020" class="node">
<title>Node20</title>
<g id="a_Node000020"><a xlink:href="bus_8hpp.html" target="_top" xlink:title="This file defines an interface the CPU uses to access different memory&#45;mapped peripherals.">
<polygon fill="white" stroke="#666666" points="703.5,-288.5 607.5,-288.5 607.5,-269.5 703.5,-269.5 703.5,-288.5"/>
<text text-anchor="middle" x="655.5" y="-276.5" font-family="Helvetica,sans-Serif" font-size="10.00">src/core/bus.hpp</text>
</a>
</g>
</g>
<!-- Node1&#45;&gt;Node20 -->
<g id="edge23_Node000001_Node000020" class="edge">
<title>Node1&#45;&gt;Node20</title>
<g id="a_edge23_Node000001_Node000020"><a xlink:title=" ">
<path fill="none" stroke="#63b8ff" d="M631.19,-320.95C637.8,-309.81 645.34,-297.11 650.25,-288.84"/>
<polygon fill="#63b8ff" stroke="#63b8ff" points="628.03,-319.41 625.93,-329.8 634.05,-322.98 628.03,-319.41"/>
</a>
</g>
</g>
<!-- Node4 -->
<g id="Node000004" class="node">
<title>Node4</title>
<g id="a_Node000004"><a xlink:href="core_8cpp.html" target="_top" xlink:title="This file implements the CCPU_Core class defined in core.hpp.">
<polygon fill="white" stroke="#666666" points="915,-96 802,-96 802,-66 915,-66 915,-96"/>
<text text-anchor="start" x="810" y="-84" font-family="Helvetica,sans-Serif" font-size="10.00">src/core/arm1176jzf</text>
<text text-anchor="middle" x="858.5" y="-73" font-family="Helvetica,sans-Serif" font-size="10.00">_s/core.cpp</text>
</a>
</g>
</g>
<!-- Node3&#45;&gt;Node4 -->
<g id="edge3_Node000003_Node000004" class="edge">
<title>Node3&#45;&gt;Node4</title>
<g id="a_edge3_Node000003_Node000004"><a xlink:title=" ">
<path fill="none" stroke="#63b8ff" d="M695.05,-129.12C730.84,-118.8 776.09,-105.76 809.89,-96.01"/>
<polygon fill="#63b8ff" stroke="#63b8ff" points="693.86,-125.82 685.22,-131.95 695.8,-132.55 693.86,-125.82"/>
</a>
</g>
</g>
<!-- Node5 -->
<g id="Node000005" class="node">
<title>Node5</title>
<g id="a_Node000005"><a xlink:href="coprocessor_8cpp.html" target="_top" xlink:title="This file implements the common functionality of a general interface of a coprocessor.">
<polygon fill="white" stroke="#666666" points="1055.5,-96 933.5,-96 933.5,-66 1055.5,-66 1055.5,-96"/>
<text text-anchor="start" x="941.5" y="-84" font-family="Helvetica,sans-Serif" font-size="10.00">src/core/coprocessors</text>
<text text-anchor="middle" x="994.5" y="-73" font-family="Helvetica,sans-Serif" font-size="10.00">/coprocessor.cpp</text>
</a>
</g>
</g>
<!-- Node3&#45;&gt;Node5 -->
<g id="edge4_Node000003_Node000005" class="edge">
<title>Node3&#45;&gt;Node5</title>
<g id="a_edge4_Node000003_Node000005"><a xlink:title=" ">
<path fill="none" stroke="#63b8ff" d="M703.34,-134.89C761.77,-125.06 848.85,-110.13 924.5,-96 927.42,-95.45 930.41,-94.89 933.43,-94.31"/>
<polygon fill="#63b8ff" stroke="#63b8ff" points="702.42,-131.5 693.14,-136.61 703.58,-138.4 702.42,-131.5"/>
</a>
</g>
</g>
<!-- Node6 -->
<g id="Node000006" class="node">
<title>Node6</title>
<g id="a_Node000006"><a xlink:href="cp10_8cpp.html" target="_top" xlink:title="This file implements coprocessor CP10 (single&#45;precision FPU).">
<polygon fill="white" stroke="#666666" points="475.5,-96 353.5,-96 353.5,-66 475.5,-66 475.5,-96"/>
<text text-anchor="start" x="361.5" y="-84" font-family="Helvetica,sans-Serif" font-size="10.00">src/core/coprocessors</text>
<text text-anchor="middle" x="414.5" y="-73" font-family="Helvetica,sans-Serif" font-size="10.00">/cp10/cp10.cpp</text>
</a>
</g>
</g>
<!-- Node3&#45;&gt;Node6 -->
<g id="edge5_Node000003_Node000006" class="edge">
<title>Node3&#45;&gt;Node6</title>
<g id="a_edge5_Node000003_Node000006"><a xlink:title=" ">
<path fill="none" stroke="#63b8ff" d="M577.95,-129.12C542.16,-118.8 496.91,-105.76 463.11,-96.01"/>
<polygon fill="#63b8ff" stroke="#63b8ff" points="577.2,-132.55 587.78,-131.95 579.14,-125.82 577.2,-132.55"/>
</a>
</g>
</g>
<!-- Node7 -->
<g id="Node000007" class="node">
<title>Node7</title>
<g id="a_Node000007"><a xlink:href="soc_8hpp.html" target="_top" xlink:title=" ">
<polygon fill="white" stroke="#666666" points="196,-90.5 101,-90.5 101,-71.5 196,-71.5 196,-90.5"/>
<text text-anchor="middle" x="148.5" y="-78.5" font-family="Helvetica,sans-Serif" font-size="10.00">src/core/soc.hpp</text>
</a>
</g>
</g>
<!-- Node3&#45;&gt;Node7 -->
<g id="edge6_Node000003_Node000007" class="edge">
<title>Node3&#45;&gt;Node7</title>
<g id="a_edge6_Node000003_Node000007"><a xlink:title=" ">
<path fill="none" stroke="#63b8ff" d="M569.62,-139.33C466.36,-128.86 272.88,-108.45 204.5,-96 196.42,-94.53 187.76,-92.56 179.74,-90.57"/>
<polygon fill="#63b8ff" stroke="#63b8ff" points="569.33,-142.82 579.63,-140.35 570.03,-135.86 569.33,-142.82"/>
</a>
</g>
</g>
<!-- Node11 -->
<g id="Node000011" class="node">
<title>Node11</title>
<g id="a_Node000011"><a xlink:href="control__window_8hpp.html" target="_top" xlink:title="This file defines a window that allows the user to control CPU execution.">
<polygon fill="white" stroke="#666666" points="625,-96 494,-96 494,-66 625,-66 625,-96"/>
<text text-anchor="start" x="502" y="-84" font-family="Helvetica,sans-Serif" font-size="10.00">src/gui/windows/control</text>
<text text-anchor="middle" x="559.5" y="-73" font-family="Helvetica,sans-Serif" font-size="10.00">_window.hpp</text>
</a>
</g>
</g>
<!-- Node3&#45;&gt;Node11 -->
<g id="edge10_Node000003_Node000011" class="edge">
<title>Node3&#45;&gt;Node11</title>
<g id="a_edge10_Node000003_Node000011"><a xlink:title=" ">
<path fill="none" stroke="#63b8ff" d="M611.48,-125.2C600.05,-115.7 586.8,-104.69 576.54,-96.16"/>
<polygon fill="#63b8ff" stroke="#63b8ff" points="609.48,-128.1 619.41,-131.8 613.96,-122.71 609.48,-128.1"/>
</a>
</g>
</g>
<!-- Node13 -->
<g id="Node000013" class="node">
<title>Node13</title>
<g id="a_Node000013"><a xlink:href="registers__window_8hpp.html" target="_top" xlink:title="This file defines a window that displays the contents of all CPU registers.">
<polygon fill="white" stroke="#666666" points="783.5,-96 643.5,-96 643.5,-66 783.5,-66 783.5,-96"/>
<text text-anchor="start" x="651.5" y="-84" font-family="Helvetica,sans-Serif" font-size="10.00">src/gui/windows/registers</text>
<text text-anchor="middle" x="713.5" y="-73" font-family="Helvetica,sans-Serif" font-size="10.00">_window.hpp</text>
</a>
</g>
</g>
<!-- Node3&#45;&gt;Node13 -->
<g id="edge13_Node000003_Node000013" class="edge">
<title>Node3&#45;&gt;Node13</title>
<g id="a_edge13_Node000003_Node000013"><a xlink:title=" ">
<path fill="none" stroke="#63b8ff" d="M661.52,-125.2C672.95,-115.7 686.2,-104.69 696.46,-96.16"/>
<polygon fill="#63b8ff" stroke="#63b8ff" points="659.04,-122.71 653.59,-131.8 663.52,-128.1 659.04,-122.71"/>
</a>
</g>
</g>
<!-- Node15 -->
<g id="Node000015" class="node">
<title>Node15</title>
<g id="a_Node000015"><a xlink:href="source__code__window_8hpp.html" target="_top" xlink:title="This file defines a window that displays loaded ELF files (disassembled instructions of the source co...">
<polygon fill="white" stroke="#666666" points="1335.5,-96 1205.5,-96 1205.5,-66 1335.5,-66 1335.5,-96"/>
<text text-anchor="start" x="1213.5" y="-84" font-family="Helvetica,sans-Serif" font-size="10.00">src/gui/windows/source</text>
<text text-anchor="middle" x="1270.5" y="-73" font-family="Helvetica,sans-Serif" font-size="10.00">_code_window.hpp</text>
</a>
</g>
</g>
<!-- Node3&#45;&gt;Node15 -->
<g id="edge16_Node000003_Node000015" class="edge">
<title>Node3&#45;&gt;Node15</title>
<g id="a_edge16_Node000003_Node000015"><a xlink:title=" ">
<path fill="none" stroke="#63b8ff" d="M703.3,-142.16C808.53,-135.63 1019.19,-120.63 1196.5,-96 1199.35,-95.6 1202.26,-95.17 1205.19,-94.72"/>
<polygon fill="#63b8ff" stroke="#63b8ff" points="702.91,-138.68 693.14,-142.78 703.34,-145.66 702.91,-138.68"/>
</a>
</g>
</g>
<!-- Node17 -->
<g id="Node000017" class="node">
<title>Node17</title>
<g id="a_Node000017"><a xlink:href="top__bar__menu_8hpp.html" target="_top" xlink:title=" ">
<polygon fill="white" stroke="#666666" points="1187,-96 1074,-96 1074,-66 1187,-66 1187,-96"/>
<text text-anchor="start" x="1082" y="-84" font-family="Helvetica,sans-Serif" font-size="10.00">src/gui/windows/top</text>
<text text-anchor="middle" x="1130.5" y="-73" font-family="Helvetica,sans-Serif" font-size="10.00">_bar_menu.hpp</text>
</a>
</g>
</g>
<!-- Node3&#45;&gt;Node17 -->
<g id="edge19_Node000003_Node000017" class="edge">
<title>Node3&#45;&gt;Node17</title>
<g id="a_edge19_Node000003_Node000017"><a xlink:title=" ">
<path fill="none" stroke="#63b8ff" d="M703.12,-140.15C787.53,-132.29 937.34,-116.87 1064.5,-96 1067.51,-95.51 1070.58,-94.97 1073.68,-94.4"/>
<polygon fill="#63b8ff" stroke="#63b8ff" points="702.8,-136.66 693.16,-141.07 703.44,-143.63 702.8,-136.66"/>
</a>
</g>
</g>
<!-- Node8 -->
<g id="Node000008" class="node">
<title>Node8</title>
<g id="a_Node000008"><a xlink:href="soc_8cpp.html" target="_top" xlink:title=" ">
<polygon fill="white" stroke="#666666" points="95,-24.5 0,-24.5 0,-5.5 95,-5.5 95,-24.5"/>
<text text-anchor="middle" x="47.5" y="-12.5" font-family="Helvetica,sans-Serif" font-size="10.00">src/core/soc.cpp</text>
</a>
</g>
</g>
<!-- Node7&#45;&gt;Node8 -->
<g id="edge7_Node000007_Node000008" class="edge">
<title>Node7&#45;&gt;Node8</title>
<g id="a_edge7_Node000007_Node000008"><a xlink:title=" ">
<path fill="none" stroke="#63b8ff" d="M126.17,-65.85C106.31,-53.27 77.92,-35.28 61.23,-24.7"/>
<polygon fill="#63b8ff" stroke="#63b8ff" points="124.56,-68.97 134.88,-71.37 128.31,-63.06 124.56,-68.97"/>
</a>
</g>
</g>
<!-- Node9 -->
<g id="Node000009" class="node">
<title>Node9</title>
<g id="a_Node000009"><a xlink:href="gui_8cpp.html" target="_top" xlink:title="This file implements the main GUI entry function that takes care of creating and rendering all window...">
<polygon fill="white" stroke="#666666" points="678,-24.5 591,-24.5 591,-5.5 678,-5.5 678,-24.5"/>
<text text-anchor="middle" x="634.5" y="-12.5" font-family="Helvetica,sans-Serif" font-size="10.00">src/gui/gui.cpp</text>
</a>
</g>
</g>
<!-- Node7&#45;&gt;Node9 -->
<g id="edge8_Node000007_Node000009" class="edge">
<title>Node7&#45;&gt;Node9</title>
<g id="a_edge8_Node000007_Node000009"><a xlink:title=" ">
<path fill="none" stroke="#63b8ff" d="M188.97,-69.12C194.17,-67.95 199.44,-66.87 204.5,-66 370.83,-37.45 416.44,-60.04 582.5,-30 590.32,-28.59 598.68,-26.57 606.36,-24.5"/>
<polygon fill="#63b8ff" stroke="#63b8ff" points="188.05,-65.74 179.13,-71.46 189.67,-72.55 188.05,-65.74"/>
</a>
</g>
</g>
<!-- Node10 -->
<g id="Node000010" class="node">
<title>Node10</title>
<g id="a_Node000010"><a xlink:href="main_8cpp.html" target="_top" xlink:title="This file defines and implements the main function of the application.">
<polygon fill="white" stroke="#666666" points="192,-24.5 113,-24.5 113,-5.5 192,-5.5 192,-24.5"/>
<text text-anchor="middle" x="152.5" y="-12.5" font-family="Helvetica,sans-Serif" font-size="10.00">src/main.cpp</text>
</a>
</g>
</g>
<!-- Node7&#45;&gt;Node10 -->
<g id="edge9_Node000007_Node000010" class="edge">
<title>Node7&#45;&gt;Node10</title>
<g id="a_edge9_Node000007_Node000010"><a xlink:title=" ">
<path fill="none" stroke="#63b8ff" d="M149.68,-61.08C150.43,-49.13 151.36,-34.22 151.94,-24.91"/>
<polygon fill="#63b8ff" stroke="#63b8ff" points="146.17,-61.17 149.04,-71.37 153.16,-61.61 146.17,-61.17"/>
</a>
</g>
</g>
<!-- Node11&#45;&gt;Node9 -->
<g id="edge11_Node000011_Node000009" class="edge">
<title>Node11&#45;&gt;Node9</title>
<g id="a_edge11_Node000011_Node000009"><a xlink:title=" ">
<path fill="none" stroke="#63b8ff" d="M583.81,-59.26C597.45,-47.61 613.77,-33.69 624.14,-24.84"/>
<polygon fill="#63b8ff" stroke="#63b8ff" points="581.48,-56.64 576.14,-65.8 586.02,-61.97 581.48,-56.64"/>
</a>
</g>
</g>
<!-- Node12 -->
<g id="Node000012" class="node">
<title>Node12</title>
<g id="a_Node000012"><a xlink:href="control__window_8cpp.html" target="_top" xlink:title="This file implements a window that allows the user to control CPU execution.">
<polygon fill="white" stroke="#666666" points="573,-30 442,-30 442,0 573,0 573,-30"/>
<text text-anchor="start" x="450" y="-18" font-family="Helvetica,sans-Serif" font-size="10.00">src/gui/windows/control</text>
<text text-anchor="middle" x="507.5" y="-7" font-family="Helvetica,sans-Serif" font-size="10.00">_window.cpp</text>
</a>
</g>
</g>
<!-- Node11&#45;&gt;Node12 -->
<g id="edge12_Node000011_Node000012" class="edge">
<title>Node11&#45;&gt;Node12</title>
<g id="a_edge12_Node000011_Node000012"><a xlink:title=" ">
<path fill="none" stroke="#63b8ff" d="M541.47,-57.81C534.02,-48.64 525.6,-38.28 519.01,-30.16"/>
<polygon fill="#63b8ff" stroke="#63b8ff" points="538.94,-60.24 547.96,-65.8 544.37,-55.83 538.94,-60.24"/>
</a>
</g>
</g>
<!-- Node13&#45;&gt;Node9 -->
<g id="edge14_Node000013_Node000009" class="edge">
<title>Node13&#45;&gt;Node9</title>
<g id="a_edge14_Node000013_Node000009"><a xlink:title=" ">
<path fill="none" stroke="#63b8ff" d="M687.9,-59.26C673.52,-47.61 656.33,-33.69 645.42,-24.84"/>
<polygon fill="#63b8ff" stroke="#63b8ff" points="685.99,-62.22 695.97,-65.8 690.4,-56.78 685.99,-62.22"/>
</a>
</g>
</g>
<!-- Node14 -->
<g id="Node000014" class="node">
<title>Node14</title>
<g id="a_Node000014"><a xlink:href="registers__window_8cpp.html" target="_top" xlink:title="This file implements a window that displays the contents of all CPU registers.">
<polygon fill="white" stroke="#666666" points="836.5,-30 696.5,-30 696.5,0 836.5,0 836.5,-30"/>
<text text-anchor="start" x="704.5" y="-18" font-family="Helvetica,sans-Serif" font-size="10.00">src/gui/windows/registers</text>
<text text-anchor="middle" x="766.5" y="-7" font-family="Helvetica,sans-Serif" font-size="10.00">_window.cpp</text>
</a>
</g>
</g>
<!-- Node13&#45;&gt;Node14 -->
<g id="edge15_Node000013_Node000014" class="edge">
<title>Node13&#45;&gt;Node14</title>
<g id="a_edge15_Node000013_Node000014"><a xlink:title=" ">
<path fill="none" stroke="#63b8ff" d="M731.65,-58.09C739.3,-48.85 747.98,-38.36 754.77,-30.16"/>
<polygon fill="#63b8ff" stroke="#63b8ff" points="728.94,-55.86 725.26,-65.8 734.34,-60.33 728.94,-55.86"/>
</a>
</g>
</g>
<!-- Node15&#45;&gt;Node9 -->
<g id="edge17_Node000015_Node000009" class="edge">
<title>Node15&#45;&gt;Node9</title>
<g id="a_edge17_Node000015_Node000009"><a xlink:title=" ">
<path fill="none" stroke="#63b8ff" d="M1195.04,-65.92C969.79,-37.74 907.95,-66.58 687.5,-30 679.43,-28.66 670.8,-26.64 662.89,-24.55"/>
<polygon fill="#63b8ff" stroke="#63b8ff" points="1194.83,-69.43 1205.2,-67.22 1195.72,-62.48 1194.83,-69.43"/>
</a>
</g>
</g>
<!-- Node16 -->
<g id="Node000016" class="node">
<title>Node16</title>
<g id="a_Node000016"><a xlink:href="source__code__window_8cpp.html" target="_top" xlink:title="This file implements a window that displays loaded ELF files (disassembled instructions of the source...">
<polygon fill="white" stroke="#666666" points="1381.5,-30 1251.5,-30 1251.5,0 1381.5,0 1381.5,-30"/>
<text text-anchor="start" x="1259.5" y="-18" font-family="Helvetica,sans-Serif" font-size="10.00">src/gui/windows/source</text>
<text text-anchor="middle" x="1316.5" y="-7" font-family="Helvetica,sans-Serif" font-size="10.00">_code_window.cpp</text>
</a>
</g>
</g>
<!-- Node15&#45;&gt;Node16 -->
<g id="edge18_Node000015_Node000016" class="edge">
<title>Node15&#45;&gt;Node16</title>
<g id="a_edge18_Node000015_Node000016"><a xlink:title=" ">
<path fill="none" stroke="#63b8ff" d="M1286.65,-57.53C1293.19,-48.43 1300.55,-38.19 1306.32,-30.16"/>
<polygon fill="#63b8ff" stroke="#63b8ff" points="1283.7,-55.63 1280.71,-65.8 1289.39,-59.72 1283.7,-55.63"/>
</a>
</g>
</g>
<!-- Node17&#45;&gt;Node9 -->
<g id="edge20_Node000017_Node000009" class="edge">
<title>Node17&#45;&gt;Node9</title>
<g id="a_edge20_Node000017_Node000009"><a xlink:title=" ">
<path fill="none" stroke="#63b8ff" d="M1063.8,-66.03C896.37,-41.21 850.04,-59.03 687.5,-30 679.63,-28.59 671.22,-26.6 663.47,-24.56"/>
<polygon fill="#63b8ff" stroke="#63b8ff" points="1063.28,-69.49 1073.69,-67.52 1064.33,-62.57 1063.28,-69.49"/>
</a>
</g>
</g>
<!-- Node18 -->
<g id="Node000018" class="node">
<title>Node18</title>
<g id="a_Node000018"><a xlink:href="top__bar__menu_8cpp.html" target="_top" xlink:title=" ">
<polygon fill="white" stroke="#666666" points="1187,-30 1074,-30 1074,0 1187,0 1187,-30"/>
<text text-anchor="start" x="1082" y="-18" font-family="Helvetica,sans-Serif" font-size="10.00">src/gui/windows/top</text>
<text text-anchor="middle" x="1130.5" y="-7" font-family="Helvetica,sans-Serif" font-size="10.00">_bar_menu.cpp</text>
</a>
</g>
</g>
<!-- Node17&#45;&gt;Node18 -->
<g id="edge21_Node000017_Node000018" class="edge">
<title>Node17&#45;&gt;Node18</title>
<g id="a_edge21_Node000017_Node000018"><a xlink:title=" ">
<path fill="none" stroke="#63b8ff" d="M1130.5,-55.54C1130.5,-46.96 1130.5,-37.61 1130.5,-30.16"/>
<polygon fill="#63b8ff" stroke="#63b8ff" points="1127,-55.8 1130.5,-65.8 1134,-55.8 1127,-55.8"/>
</a>
</g>
</g>
<!-- Node20&#45;&gt;Node3 -->
<g id="edge24_Node000020_Node000003" class="edge">
<title>Node20&#45;&gt;Node3</title>
<g id="a_edge24_Node000020_Node000003"><a xlink:title=" ">
<path fill="none" stroke="#63b8ff" d="M652.77,-259.32C648.92,-233 642,-185.61 638.56,-162.07"/>
<polygon fill="#63b8ff" stroke="#63b8ff" points="649.34,-260.08 654.25,-269.47 656.27,-259.07 649.34,-260.08"/>
</a>
</g>
</g>
<!-- Node20&#45;&gt;Node7 -->
<g id="edge36_Node000020_Node000007" class="edge">
<title>Node20&#45;&gt;Node7</title>
<g id="a_edge36_Node000020_Node000007"><a xlink:title=" ">
<path fill="none" stroke="#63b8ff" d="M597.2,-269.08C585.08,-267.32 572.38,-265.54 560.5,-264 488.87,-254.73 301.25,-261.93 237.5,-228 181.95,-198.43 157.37,-117.71 150.56,-90.84"/>
<polygon fill="#63b8ff" stroke="#63b8ff" points="596.81,-272.56 607.22,-270.55 597.83,-265.63 596.81,-272.56"/>
</a>
</g>
</g>
<!-- Node20&#45;&gt;Node17 -->
<g id="edge37_Node000020_Node000017" class="edge">
<title>Node20&#45;&gt;Node17</title>
<g id="a_edge37_Node000020_Node000017"><a xlink:title=" ">
<path fill="none" stroke="#63b8ff" d="M685.46,-265.64C769.57,-230.93 1007.49,-132.76 1096.41,-96.07"/>
<polygon fill="#63b8ff" stroke="#63b8ff" points="684.12,-262.4 676.22,-269.45 686.79,-268.87 684.12,-262.4"/>
</a>
</g>
</g>
<!-- Node21 -->
<g id="Node000021" class="node">
<title>Node21</title>
<g id="a_Node000021"><a xlink:href="mmu_8hpp.html" target="_top" xlink:title="This file defines the MMU (memory management unit) of the CPU.">
<polygon fill="white" stroke="#666666" points="360,-228 247,-228 247,-198 360,-198 360,-228"/>
<text text-anchor="start" x="255" y="-216" font-family="Helvetica,sans-Serif" font-size="10.00">src/core/arm1176jzf</text>
<text text-anchor="middle" x="303.5" y="-205" font-family="Helvetica,sans-Serif" font-size="10.00">_s/mmu/mmu.hpp</text>
</a>
</g>
</g>
<!-- Node20&#45;&gt;Node21 -->
<g id="edge25_Node000020_Node000021" class="edge">
<title>Node20&#45;&gt;Node21</title>
<g id="a_edge25_Node000020_Node000021"><a xlink:title=" ">
<path fill="none" stroke="#63b8ff" d="M598.22,-267.59C532.58,-255.65 425.64,-236.21 360.22,-224.31"/>
<polygon fill="#63b8ff" stroke="#63b8ff" points="597.93,-271.09 608.39,-269.44 599.18,-264.2 597.93,-271.09"/>
</a>
</g>
</g>
<!-- Node23 -->
<g id="Node000023" class="node">
<title>Node23</title>
<g id="a_Node000023"><a xlink:href="bus_8cpp.html" target="_top" xlink:title="This file implements the interface defined in bus.hpp.">
<polygon fill="white" stroke="#666666" points="760,-222.5 665,-222.5 665,-203.5 760,-203.5 760,-222.5"/>
<text text-anchor="middle" x="712.5" y="-210.5" font-family="Helvetica,sans-Serif" font-size="10.00">src/core/bus.cpp</text>
</a>
</g>
</g>
<!-- Node20&#45;&gt;Node23 -->
<g id="edge29_Node000020_Node000023" class="edge">
<title>Node20&#45;&gt;Node23</title>
<g id="a_edge29_Node000020_Node000023"><a xlink:title=" ">
<path fill="none" stroke="#63b8ff" d="M670.09,-261.62C681.06,-249.31 695.67,-232.89 704.57,-222.91"/>
<polygon fill="#63b8ff" stroke="#63b8ff" points="667.22,-259.57 663.19,-269.37 672.45,-264.23 667.22,-259.57"/>
</a>
</g>
</g>
<!-- Node24 -->
<g id="Node000024" class="node">
<title>Node24</title>
<g id="a_Node000024"><a xlink:href="cp10_8hpp.html" target="_top" xlink:title="This file defines coprocessor CP10 (single&#45;precision FPU).">
<polygon fill="white" stroke="#666666" points="475.5,-162 353.5,-162 353.5,-132 475.5,-132 475.5,-162"/>
<text text-anchor="start" x="361.5" y="-150" font-family="Helvetica,sans-Serif" font-size="10.00">src/core/coprocessors</text>
<text text-anchor="middle" x="414.5" y="-139" font-family="Helvetica,sans-Serif" font-size="10.00">/cp10/cp10.hpp</text>
</a>
</g>
</g>
<!-- Node20&#45;&gt;Node24 -->
<g id="edge30_Node000020_Node000024" class="edge">
<title>Node20&#45;&gt;Node24</title>
<g id="a_edge30_Node000020_Node000024"><a xlink:title=" ">
<path fill="none" stroke="#63b8ff" d="M630.73,-264.64C584.92,-239.93 487.36,-187.3 440.58,-162.07"/>
<polygon fill="#63b8ff" stroke="#63b8ff" points="629.22,-267.8 639.69,-269.47 632.55,-261.64 629.22,-267.8"/>
</a>
</g>
</g>
<!-- Node27 -->
<g id="Node000027" class="node">
<title>Node27</title>
<g id="a_Node000027"><a xlink:href="elf__loader_8hpp.html" target="_top" xlink:title="This file defines the functionality of an ELF loader.">
<polygon fill="white" stroke="#666666" points="1334,-156.5 1207,-156.5 1207,-137.5 1334,-137.5 1334,-156.5"/>
<text text-anchor="middle" x="1270.5" y="-144.5" font-family="Helvetica,sans-Serif" font-size="10.00">src/utils/elf_loader.hpp</text>
</a>
</g>
</g>
<!-- Node20&#45;&gt;Node27 -->
<g id="edge38_Node000020_Node000027" class="edge">
<title>Node20&#45;&gt;Node27</title>
<g id="a_edge38_Node000020_Node000027"><a xlink:title=" ">
<path fill="none" stroke="#63b8ff" d="M698.63,-267.09C703.63,-265.97 708.67,-264.92 713.5,-264 828.12,-242.29 859.18,-251.22 973.5,-228 1074.24,-207.54 1191.41,-172.62 1243.34,-156.55"/>
<polygon fill="#63b8ff" stroke="#63b8ff" points="697.46,-263.77 688.5,-269.43 699.03,-270.59 697.46,-263.77"/>
</a>
</g>
</g>
<!-- Node21&#45;&gt;Node3 -->
<g id="edge26_Node000021_Node000003" class="edge">
<title>Node21&#45;&gt;Node3</title>
<g id="a_edge26_Node000021_Node000003"><a xlink:title=" ">
<path fill="none" stroke="#63b8ff" d="M370.35,-199.15C431.8,-187.34 521.89,-170.03 579.87,-158.88"/>
<polygon fill="#63b8ff" stroke="#63b8ff" points="369.53,-195.75 360.37,-201.07 370.85,-202.62 369.53,-195.75"/>
</a>
</g>
</g>
<!-- Node21&#45;&gt;Node7 -->
<g id="edge28_Node000021_Node000007" class="edge">
<title>Node21&#45;&gt;Node7</title>
<g id="a_edge28_Node000021_Node000007"><a xlink:title=" ">
<path fill="none" stroke="#63b8ff" d="M261.52,-193.32C245.3,-185.02 227.15,-174.32 212.5,-162 186.5,-140.13 163.67,-106.36 153.75,-90.62"/>
<polygon fill="#63b8ff" stroke="#63b8ff" points="260.3,-196.62 270.81,-197.93 263.41,-190.35 260.3,-196.62"/>
</a>
</g>
</g>
<!-- Node22 -->
<g id="Node000022" class="node">
<title>Node22</title>
<g id="a_Node000022"><a xlink:href="mmu_8cpp.html" target="_top" xlink:title="This file implements the MMU (memory management unit) of the CPU.">
<polygon fill="white" stroke="#666666" points="335,-162 222,-162 222,-132 335,-132 335,-162"/>
<text text-anchor="start" x="230" y="-150" font-family="Helvetica,sans-Serif" font-size="10.00">src/core/arm1176jzf</text>
<text text-anchor="middle" x="278.5" y="-139" font-family="Helvetica,sans-Serif" font-size="10.00">_s/mmu/mmu.cpp</text>
</a>
</g>
</g>
<!-- Node21&#45;&gt;Node22 -->
<g id="edge27_Node000021_Node000022" class="edge">
<title>Node21&#45;&gt;Node22</title>
<g id="a_edge27_Node000021_Node000022"><a xlink:title=" ">
<path fill="none" stroke="#63b8ff" d="M294.28,-188.39C290.84,-179.59 287.04,-169.86 284.03,-162.16"/>
<polygon fill="#63b8ff" stroke="#63b8ff" points="291.05,-189.76 297.95,-197.8 297.57,-187.21 291.05,-189.76"/>
</a>
</g>
</g>
<!-- Node24&#45;&gt;Node6 -->
<g id="edge31_Node000024_Node000006" class="edge">
<title>Node24&#45;&gt;Node6</title>
<g id="a_edge31_Node000024_Node000006"><a xlink:title=" ">
<path fill="none" stroke="#63b8ff" d="M414.5,-121.54C414.5,-112.96 414.5,-103.61 414.5,-96.16"/>
<polygon fill="#63b8ff" stroke="#63b8ff" points="411,-121.8 414.5,-131.8 418,-121.8 411,-121.8"/>
</a>
</g>
</g>
<!-- Node24&#45;&gt;Node7 -->
<g id="edge32_Node000024_Node000007" class="edge">
<title>Node24&#45;&gt;Node7</title>
<g id="a_edge32_Node000024_Node000007"><a xlink:title=" ">
<path fill="none" stroke="#63b8ff" d="M344.85,-129.62C303.94,-119.95 251.25,-107.41 204.5,-96 197.3,-94.24 189.58,-92.33 182.24,-90.5"/>
<polygon fill="#63b8ff" stroke="#63b8ff" points="344.18,-133.06 354.71,-131.95 345.79,-126.25 344.18,-133.06"/>
</a>
</g>
</g>
<!-- Node25 -->
<g id="Node000025" class="node">
<title>Node25</title>
<g id="a_Node000025"><a xlink:href="cp10__window_8hpp.html" target="_top" xlink:title="This file defines a window that displays data (information) related to coprocessor 10 (FPU).">
<polygon fill="white" stroke="#666666" points="335,-96 214,-96 214,-66 335,-66 335,-96"/>
<text text-anchor="start" x="222" y="-84" font-family="Helvetica,sans-Serif" font-size="10.00">src/gui/windows/cp10</text>
<text text-anchor="middle" x="274.5" y="-73" font-family="Helvetica,sans-Serif" font-size="10.00">_window.hpp</text>
</a>
</g>
</g>
<!-- Node24&#45;&gt;Node25 -->
<g id="edge33_Node000024_Node000025" class="edge">
<title>Node24&#45;&gt;Node25</title>
<g id="a_edge33_Node000024_Node000025"><a xlink:title=" ">
<path fill="none" stroke="#63b8ff" d="M374.65,-127.78C352.58,-117.69 325.56,-105.34 305.15,-96.01"/>
<polygon fill="#63b8ff" stroke="#63b8ff" points="373.23,-130.98 383.78,-131.95 376.14,-124.61 373.23,-130.98"/>
</a>
</g>
</g>
<!-- Node25&#45;&gt;Node9 -->
<g id="edge34_Node000025_Node000009" class="edge">
<title>Node25&#45;&gt;Node9</title>
<g id="a_edge34_Node000025_Node000009"><a xlink:title=" ">
<path fill="none" stroke="#63b8ff" d="M345.03,-65.97C451.57,-47.74 480.86,-51.3 582.5,-30 589.91,-28.45 597.84,-26.47 605.21,-24.5"/>
<polygon fill="#63b8ff" stroke="#63b8ff" points="344.43,-62.52 335.17,-67.68 345.62,-69.42 344.43,-62.52"/>
</a>
</g>
</g>
<!-- Node26 -->
<g id="Node000026" class="node">
<title>Node26</title>
<g id="a_Node000026"><a xlink:href="cp10__window_8cpp.html" target="_top" xlink:title="This file implements a window that displays data (information) related to coprocessor 10 (FPU).">
<polygon fill="white" stroke="#666666" points="335,-30 214,-30 214,0 335,0 335,-30"/>
<text text-anchor="start" x="222" y="-18" font-family="Helvetica,sans-Serif" font-size="10.00">src/gui/windows/cp10</text>
<text text-anchor="middle" x="274.5" y="-7" font-family="Helvetica,sans-Serif" font-size="10.00">_window.cpp</text>
</a>
</g>
</g>
<!-- Node25&#45;&gt;Node26 -->
<g id="edge35_Node000025_Node000026" class="edge">
<title>Node25&#45;&gt;Node26</title>
<g id="a_edge35_Node000025_Node000026"><a xlink:title=" ">
<path fill="none" stroke="#63b8ff" d="M274.5,-55.54C274.5,-46.96 274.5,-37.61 274.5,-30.16"/>
<polygon fill="#63b8ff" stroke="#63b8ff" points="271,-55.8 274.5,-65.8 278,-55.8 271,-55.8"/>
</a>
</g>
</g>
<!-- Node27&#45;&gt;Node15 -->
<g id="edge40_Node000027_Node000015" class="edge">
<title>Node27&#45;&gt;Node15</title>
<g id="a_edge40_Node000027_Node000015"><a xlink:title=" ">
<path fill="none" stroke="#63b8ff" d="M1270.5,-127.35C1270.5,-117.47 1270.5,-105.51 1270.5,-96.36"/>
<polygon fill="#63b8ff" stroke="#63b8ff" points="1267,-127.37 1270.5,-137.37 1274,-127.37 1267,-127.37"/>
</a>
</g>
</g>
<!-- Node27&#45;&gt;Node16 -->
<g id="edge39_Node000027_Node000016" class="edge">
<title>Node27&#45;&gt;Node16</title>
<g id="a_edge39_Node000027_Node000016"><a xlink:title=" ">
<path fill="none" stroke="#63b8ff" d="M1302.91,-132.92C1318.48,-124.79 1335.65,-112.67 1344.5,-96 1356.1,-74.17 1340.41,-46.54 1328.26,-30.12"/>
<polygon fill="#63b8ff" stroke="#63b8ff" points="1300.98,-129.96 1293.51,-137.47 1304.03,-136.27 1300.98,-129.96"/>
</a>
</g>
</g>
<!-- Node27&#45;&gt;Node17 -->
<g id="edge41_Node000027_Node000017" class="edge">
<title>Node27&#45;&gt;Node17</title>
<g id="a_edge41_Node000027_Node000017"><a xlink:title=" ">
<path fill="none" stroke="#63b8ff" d="M1242.23,-133.08C1218.79,-122.36 1185.51,-107.15 1161.38,-96.12"/>
<polygon fill="#63b8ff" stroke="#63b8ff" points="1241.07,-136.39 1251.62,-137.37 1243.98,-130.03 1241.07,-136.39"/>
</a>
</g>
</g>
<!-- Node28 -->
<g id="Node000028" class="node">
<title>Node28</title>
<g id="a_Node000028"><a xlink:href="elf__loader_8cpp.html" target="_top" xlink:title="This file implements the functionality of an ELF loader defined in elf_loader.hpp.">
<polygon fill="white" stroke="#666666" points="1517.5,-90.5 1391.5,-90.5 1391.5,-71.5 1517.5,-71.5 1517.5,-90.5"/>
<text text-anchor="middle" x="1454.5" y="-78.5" font-family="Helvetica,sans-Serif" font-size="10.00">src/utils/elf_loader.cpp</text>
</a>
</g>
</g>
<!-- Node27&#45;&gt;Node28 -->
<g id="edge42_Node000027_Node000028" class="edge">
<title>Node27&#45;&gt;Node28</title>
<g id="a_edge42_Node000027_Node000028"><a xlink:title=" ">
<path fill="none" stroke="#63b8ff" d="M1305,-134C1341.33,-121.36 1397.65,-101.78 1429.78,-90.6"/>
<polygon fill="#63b8ff" stroke="#63b8ff" points="1303.61,-130.78 1295.32,-137.37 1305.91,-137.39 1303.61,-130.78"/>
</a>
</g>
</g>
</g>
</svg>
