<?xml version="1.0" encoding="UTF-8" standalone="no"?>
<!DOCTYPE svg PUBLIC "-//W3C//DTD SVG 1.1//EN"
 "http://www.w3.org/Graphics/SVG/1.1/DTD/svg11.dtd">
<!-- Generated by graphviz version 2.43.0 (0)
 -->
<!-- Title: src/core/arm1176jzf_s/exceptions.cpp Pages: 1 -->
<svg width="208pt" height="269pt"
 viewBox="0.00 0.00 208.00 269.00" xmlns="http://www.w3.org/2000/svg" xmlns:xlink="http://www.w3.org/1999/xlink">
<g id="graph0" class="graph" transform="scale(1 1) rotate(0) translate(4 265)">
<title>src/core/arm1176jzf_s/exceptions.cpp</title>
<!-- Node1 -->
<g id="Node000001" class="node">
<title>Node1</title>
<g id="a_Node000001"><a xlink:title="This file implements all exceptions that can be thrown by the CPU during execution.">
<polygon fill="#999999" stroke="#666666" points="143,-261 30,-261 30,-231 143,-231 143,-261"/>
<text text-anchor="start" x="38" y="-249" font-family="Helvetica,sans-Serif" font-size="10.00">src/core/arm1176jzf</text>
<text text-anchor="middle" x="86.5" y="-238" font-family="Helvetica,sans-Serif" font-size="10.00">_s/exceptions.cpp</text>
</a>
</g>
</g>
<!-- Node2 -->
<g id="Node000002" class="node">
<title>Node2</title>
<g id="a_Node000002"><a xlink:href="exceptions_8hpp.html" target="_top" xlink:title="This file defines all exceptions that can be thrown by the CPU during execution.">
<polygon fill="white" stroke="#666666" points="132,-195 41,-195 41,-176 132,-176 132,-195"/>
<text text-anchor="middle" x="86.5" y="-183" font-family="Helvetica,sans-Serif" font-size="10.00">exceptions.hpp</text>
</a>
</g>
</g>
<!-- Node1&#45;&gt;Node2 -->
<g id="edge1_Node000001_Node000002" class="edge">
<title>Node1&#45;&gt;Node2</title>
<g id="a_edge1_Node000001_Node000002"><a xlink:title=" ">
<path fill="none" stroke="#63b8ff" d="M86.5,-230.84C86.5,-223.21 86.5,-213.7 86.5,-205.45"/>
<polygon fill="#63b8ff" stroke="#63b8ff" points="90,-205.27 86.5,-195.27 83,-205.27 90,-205.27"/>
</a>
</g>
</g>
<!-- Node3 -->
<g id="Node000003" class="node">
<title>Node3</title>
<g id="a_Node000003"><a xlink:title=" ">
<polygon fill="#e0e0e0" stroke="#999999" points="79,-140 0,-140 0,-121 79,-121 79,-140"/>
<text text-anchor="middle" x="39.5" y="-128" font-family="Helvetica,sans-Serif" font-size="10.00">fmt/format.h</text>
</a>
</g>
</g>
<!-- Node2&#45;&gt;Node3 -->
<g id="edge2_Node000002_Node000003" class="edge">
<title>Node2&#45;&gt;Node3</title>
<g id="a_edge2_Node000002_Node000003"><a xlink:title=" ">
<path fill="none" stroke="#63b8ff" d="M78.74,-175.75C72.03,-168.18 62.16,-157.05 53.99,-147.84"/>
<polygon fill="#63b8ff" stroke="#63b8ff" points="56.37,-145.25 47.12,-140.09 51.13,-149.89 56.37,-145.25"/>
</a>
</g>
</g>
<!-- Node4 -->
<g id="Node000004" class="node">
<title>Node4</title>
<g id="a_Node000004"><a xlink:href="context_8hpp.html" target="_top" xlink:title="This file defines the context (registers) of the CPU.">
<polygon fill="white" stroke="#666666" points="171.5,-140 97.5,-140 97.5,-121 171.5,-121 171.5,-140"/>
<text text-anchor="middle" x="134.5" y="-128" font-family="Helvetica,sans-Serif" font-size="10.00">context.hpp</text>
</a>
</g>
</g>
<!-- Node2&#45;&gt;Node4 -->
<g id="edge3_Node000002_Node000004" class="edge">
<title>Node2&#45;&gt;Node4</title>
<g id="a_edge3_Node000002_Node000004"><a xlink:title=" ">
<path fill="none" stroke="#63b8ff" d="M94.43,-175.75C101.35,-168.11 111.57,-156.82 119.95,-147.56"/>
<polygon fill="#63b8ff" stroke="#63b8ff" points="122.6,-149.85 126.72,-140.09 117.41,-145.15 122.6,-149.85"/>
</a>
</g>
</g>
<!-- Node5 -->
<g id="Node000005" class="node">
<title>Node5</title>
<g id="a_Node000005"><a xlink:href="logging__system_8hpp.html" target="_top" xlink:title="This file defines a logging system that is used in the project.">
<polygon fill="white" stroke="#666666" points="200,-85 69,-85 69,-55 200,-55 200,-85"/>
<text text-anchor="start" x="77" y="-73" font-family="Helvetica,sans-Serif" font-size="10.00">zero_mate/utils/logging</text>
<text text-anchor="middle" x="134.5" y="-62" font-family="Helvetica,sans-Serif" font-size="10.00">_system.hpp</text>
</a>
</g>
</g>
<!-- Node4&#45;&gt;Node5 -->
<g id="edge4_Node000004_Node000005" class="edge">
<title>Node4&#45;&gt;Node5</title>
<g id="a_edge4_Node000004_Node000005"><a xlink:title=" ">
<path fill="none" stroke="#63b8ff" d="M134.5,-120.87C134.5,-114.11 134.5,-104.35 134.5,-95.26"/>
<polygon fill="#63b8ff" stroke="#63b8ff" points="138,-95.11 134.5,-85.11 131,-95.11 138,-95.11"/>
</a>
</g>
</g>
<!-- Node6 -->
<g id="Node000006" class="node">
<title>Node6</title>
<g id="a_Node000006"><a xlink:href="logger_8hpp.html" target="_top" xlink:title="This file defines a general logger interface.">
<polygon fill="white" stroke="#666666" points="168.5,-19 100.5,-19 100.5,0 168.5,0 168.5,-19"/>
<text text-anchor="middle" x="134.5" y="-7" font-family="Helvetica,sans-Serif" font-size="10.00">logger.hpp</text>
</a>
</g>
</g>
<!-- Node5&#45;&gt;Node6 -->
<g id="edge5_Node000005_Node000006" class="edge">
<title>Node5&#45;&gt;Node6</title>
<g id="a_edge5_Node000005_Node000006"><a xlink:title=" ">
<path fill="none" stroke="#63b8ff" d="M134.5,-54.84C134.5,-47.21 134.5,-37.7 134.5,-29.45"/>
<polygon fill="#63b8ff" stroke="#63b8ff" points="138,-29.27 134.5,-19.27 131,-29.27 138,-29.27"/>
</a>
</g>
</g>
</g>
</svg>
