<?xml version="1.0" encoding="UTF-8" standalone="no"?>
<!DOCTYPE svg PUBLIC "-//W3C//DTD SVG 1.1//EN"
 "http://www.w3.org/Graphics/SVG/1.1/DTD/svg11.dtd">
<!-- Generated by graphviz version 2.43.0 (0)
 -->
<!-- Title: src/core/arm1176jzf_s/exceptions.hpp Pages: 1 -->
<svg width="208pt" height="214pt"
 viewBox="0.00 0.00 208.00 214.00" xmlns="http://www.w3.org/2000/svg" xmlns:xlink="http://www.w3.org/1999/xlink">
<g id="graph0" class="graph" transform="scale(1 1) rotate(0) translate(4 210)">
<title>src/core/arm1176jzf_s/exceptions.hpp</title>
<!-- Node1 -->
<g id="Node000001" class="node">
<title>Node1</title>
<g id="a_Node000001"><a xlink:title="This file defines all exceptions that can be thrown by the CPU during execution.">
<polygon fill="#999999" stroke="#666666" points="143,-206 30,-206 30,-176 143,-176 143,-206"/>
<text text-anchor="start" x="38" y="-194" font-family="Helvetica,sans-Serif" font-size="10.00">src/core/arm1176jzf</text>
<text text-anchor="middle" x="86.5" y="-183" font-family="Helvetica,sans-Serif" font-size="10.00">_s/exceptions.hpp</text>
</a>
</g>
</g>
<!-- Node2 -->
<g id="Node000002" class="node">
<title>Node2</title>
<g id="a_Node000002"><a xlink:title=" ">
<polygon fill="#e0e0e0" stroke="#999999" points="79,-140 0,-140 0,-121 79,-121 79,-140"/>
<text text-anchor="middle" x="39.5" y="-128" font-family="Helvetica,sans-Serif" font-size="10.00">fmt/format.h</text>
</a>
</g>
</g>
<!-- Node1&#45;&gt;Node2 -->
<g id="edge1_Node000001_Node000002" class="edge">
<title>Node1&#45;&gt;Node2</title>
<g id="a_edge1_Node000001_Node000002"><a xlink:title=" ">
<path fill="none" stroke="#63b8ff" d="M75.12,-175.84C68.44,-167.52 59.95,-156.96 52.94,-148.23"/>
<polygon fill="#63b8ff" stroke="#63b8ff" points="55.53,-145.87 46.54,-140.27 50.08,-150.25 55.53,-145.87"/>
</a>
</g>
</g>
<!-- Node3 -->
<g id="Node000003" class="node">
<title>Node3</title>
<g id="a_Node000003"><a xlink:href="context_8hpp.html" target="_top" xlink:title="This file defines the context (registers) of the CPU.">
<polygon fill="white" stroke="#666666" points="171.5,-140 97.5,-140 97.5,-121 171.5,-121 171.5,-140"/>
<text text-anchor="middle" x="134.5" y="-128" font-family="Helvetica,sans-Serif" font-size="10.00">context.hpp</text>
</a>
</g>
</g>
<!-- Node1&#45;&gt;Node3 -->
<g id="edge2_Node000001_Node000003" class="edge">
<title>Node1&#45;&gt;Node3</title>
<g id="a_edge2_Node000001_Node000003"><a xlink:title=" ">
<path fill="none" stroke="#63b8ff" d="M98.12,-175.84C104.94,-167.52 113.61,-156.96 120.77,-148.23"/>
<polygon fill="#63b8ff" stroke="#63b8ff" points="123.67,-150.22 127.31,-140.27 118.26,-145.78 123.67,-150.22"/>
</a>
</g>
</g>
<!-- Node4 -->
<g id="Node000004" class="node">
<title>Node4</title>
<g id="a_Node000004"><a xlink:href="logging__system_8hpp.html" target="_top" xlink:title="This file defines a logging system that is used in the project.">
<polygon fill="white" stroke="#666666" points="200,-85 69,-85 69,-55 200,-55 200,-85"/>
<text text-anchor="start" x="77" y="-73" font-family="Helvetica,sans-Serif" font-size="10.00">zero_mate/utils/logging</text>
<text text-anchor="middle" x="134.5" y="-62" font-family="Helvetica,sans-Serif" font-size="10.00">_system.hpp</text>
</a>
</g>
</g>
<!-- Node3&#45;&gt;Node4 -->
<g id="edge3_Node000003_Node000004" class="edge">
<title>Node3&#45;&gt;Node4</title>
<g id="a_edge3_Node000003_Node000004"><a xlink:title=" ">
<path fill="none" stroke="#63b8ff" d="M134.5,-120.87C134.5,-114.11 134.5,-104.35 134.5,-95.26"/>
<polygon fill="#63b8ff" stroke="#63b8ff" points="138,-95.11 134.5,-85.11 131,-95.11 138,-95.11"/>
</a>
</g>
</g>
<!-- Node5 -->
<g id="Node000005" class="node">
<title>Node5</title>
<g id="a_Node000005"><a xlink:href="logger_8hpp.html" target="_top" xlink:title="This file defines a general logger interface.">
<polygon fill="white" stroke="#666666" points="168.5,-19 100.5,-19 100.5,0 168.5,0 168.5,-19"/>
<text text-anchor="middle" x="134.5" y="-7" font-family="Helvetica,sans-Serif" font-size="10.00">logger.hpp</text>
</a>
</g>
</g>
<!-- Node4&#45;&gt;Node5 -->
<g id="edge4_Node000004_Node000005" class="edge">
<title>Node4&#45;&gt;Node5</title>
<g id="a_edge4_Node000004_Node000005"><a xlink:title=" ">
<path fill="none" stroke="#63b8ff" d="M134.5,-54.84C134.5,-47.21 134.5,-37.7 134.5,-29.45"/>
<polygon fill="#63b8ff" stroke="#63b8ff" points="138,-29.27 134.5,-19.27 131,-29.27 138,-29.27"/>
</a>
</g>
</g>
</g>
</svg>
