<?xml version="1.0" encoding="UTF-8" standalone="no"?>
<!DOCTYPE svg PUBLIC "-//W3C//DTD SVG 1.1//EN"
 "http://www.w3.org/Graphics/SVG/1.1/DTD/svg11.dtd">
<!-- Generated by graphviz version 2.43.0 (0)
 -->
<!-- Title: src/core/arm1176jzf_s/exceptions.hpp Pages: 1 -->
<svg width="1526pt" height="374pt"
 viewBox="0.00 0.00 1525.50 374.00" xmlns="http://www.w3.org/2000/svg" xmlns:xlink="http://www.w3.org/1999/xlink">
<g id="graph0" class="graph" transform="scale(1 1) rotate(0) translate(4 370)">
<title>src/core/arm1176jzf_s/exceptions.hpp</title>
<!-- Node1 -->
<g id="node1" class="node">
<title>Node1</title>
<g id="a_node1"><a xlink:title="This file defines all exceptions that can be thrown by the CPU during execution.">
<polygon fill="#bfbfbf" stroke="black" points="561,-335.5 561,-365.5 674,-365.5 674,-335.5 561,-335.5"/>
<text text-anchor="start" x="569" y="-353.5" font-family="Helvetica,sans-Serif" font-size="10.00">src/core/arm1176jzf</text>
<text text-anchor="middle" x="617.5" y="-342.5" font-family="Helvetica,sans-Serif" font-size="10.00">_s/exceptions.hpp</text>
</a>
</g>
</g>
<!-- Node2 -->
<g id="node2" class="node">
<title>Node2</title>
<g id="a_node2"><a xlink:href="context_8cpp.html" target="_top" xlink:title="This file implements the context (registers) of the CPU.">
<polygon fill="none" stroke="black" points="438,-268.5 438,-298.5 551,-298.5 551,-268.5 438,-268.5"/>
<text text-anchor="start" x="446" y="-286.5" font-family="Helvetica,sans-Serif" font-size="10.00">src/core/arm1176jzf</text>
<text text-anchor="middle" x="494.5" y="-275.5" font-family="Helvetica,sans-Serif" font-size="10.00">_s/context.cpp</text>
</a>
</g>
</g>
<!-- Node1&#45;&gt;Node2 -->
<g id="edge1" class="edge">
<title>Node1&#45;&gt;Node2</title>
<path fill="none" stroke="midnightblue" d="M581.95,-330.71C562.55,-320.46 538.94,-307.98 521.14,-298.58"/>
<polygon fill="midnightblue" stroke="midnightblue" points="580.33,-333.82 590.81,-335.4 583.6,-327.63 580.33,-333.82"/>
</g>
<!-- Node3 -->
<g id="node3" class="node">
<title>Node3</title>
<g id="a_node3"><a xlink:href="core_8hpp.html" target="_top" xlink:title="This file defines a class that represents a CPU core (arm1176jzf_s).">
<polygon fill="none" stroke="black" points="580,-134.5 580,-164.5 693,-164.5 693,-134.5 580,-134.5"/>
<text text-anchor="start" x="588" y="-152.5" font-family="Helvetica,sans-Serif" font-size="10.00">src/core/arm1176jzf</text>
<text text-anchor="middle" x="636.5" y="-141.5" font-family="Helvetica,sans-Serif" font-size="10.00">_s/core.hpp</text>
</a>
</g>
</g>
<!-- Node1&#45;&gt;Node3 -->
<g id="edge2" class="edge">
<title>Node1&#45;&gt;Node3</title>
<path fill="none" stroke="midnightblue" d="M606.61,-325.88C603.32,-317.57 600.14,-308.04 598.5,-299 589.4,-248.99 615.03,-190.94 628.64,-164.69"/>
<polygon fill="midnightblue" stroke="midnightblue" points="603.47,-327.46 610.59,-335.31 609.92,-324.74 603.47,-327.46"/>
</g>
<!-- Node19 -->
<g id="node19" class="node">
<title>Node19</title>
<g id="a_node19"><a xlink:href="exceptions_8cpp.html" target="_top" xlink:title="This file implements all exceptions that can be thrown by the CPU during execution.">
<polygon fill="none" stroke="black" points="722,-268.5 722,-298.5 835,-298.5 835,-268.5 722,-268.5"/>
<text text-anchor="start" x="730" y="-286.5" font-family="Helvetica,sans-Serif" font-size="10.00">src/core/arm1176jzf</text>
<text text-anchor="middle" x="778.5" y="-275.5" font-family="Helvetica,sans-Serif" font-size="10.00">_s/exceptions.cpp</text>
</a>
</g>
</g>
<!-- Node1&#45;&gt;Node19 -->
<g id="edge22" class="edge">
<title>Node1&#45;&gt;Node19</title>
<path fill="none" stroke="midnightblue" d="M661.98,-331.54C687.74,-321.14 719.7,-308.24 743.63,-298.58"/>
<polygon fill="midnightblue" stroke="midnightblue" points="660.4,-328.41 652.43,-335.4 663.02,-334.9 660.4,-328.41"/>
</g>
<!-- Node20 -->
<g id="node20" class="node">
<title>Node20</title>
<g id="a_node20"><a xlink:href="bus_8hpp.html" target="_top" xlink:title="This file defines an interface the CPU uses to access different memory&#45;mapped peripherals.">
<polygon fill="none" stroke="black" points="607.5,-274 607.5,-293 703.5,-293 703.5,-274 607.5,-274"/>
<text text-anchor="middle" x="655.5" y="-281" font-family="Helvetica,sans-Serif" font-size="10.00">src/core/bus.hpp</text>
</a>
</g>
</g>
<!-- Node1&#45;&gt;Node20 -->
<g id="edge23" class="edge">
<title>Node1&#45;&gt;Node20</title>
<path fill="none" stroke="midnightblue" d="M630.87,-326.63C637.63,-315.07 645.44,-301.71 650.42,-293.19"/>
<polygon fill="midnightblue" stroke="midnightblue" points="627.77,-325 625.75,-335.4 633.81,-328.53 627.77,-325"/>
</g>
<!-- Node4 -->
<g id="node4" class="node">
<title>Node4</title>
<g id="a_node4"><a xlink:href="core_8cpp.html" target="_top" xlink:title="This file implements the CCPU_Core class defined in core.hpp.">
<polygon fill="none" stroke="black" points="802,-67.5 802,-97.5 915,-97.5 915,-67.5 802,-67.5"/>
<text text-anchor="start" x="810" y="-85.5" font-family="Helvetica,sans-Serif" font-size="10.00">src/core/arm1176jzf</text>
<text text-anchor="middle" x="858.5" y="-74.5" font-family="Helvetica,sans-Serif" font-size="10.00">_s/core.cpp</text>
</a>
</g>
</g>
<!-- Node3&#45;&gt;Node4 -->
<g id="edge3" class="edge">
<title>Node3&#45;&gt;Node4</title>
<path fill="none" stroke="midnightblue" d="M694.29,-131.58C730.35,-121.02 776.22,-107.59 810.31,-97.61"/>
<polygon fill="midnightblue" stroke="midnightblue" points="693.01,-128.31 684.4,-134.48 694.98,-135.02 693.01,-128.31"/>
</g>
<!-- Node5 -->
<g id="node5" class="node">
<title>Node5</title>
<g id="a_node5"><a xlink:href="coprocessor_8cpp.html" target="_top" xlink:title="This file implements the common functionality of a general interface of a coprocessor.">
<polygon fill="none" stroke="black" points="933.5,-67.5 933.5,-97.5 1055.5,-97.5 1055.5,-67.5 933.5,-67.5"/>
<text text-anchor="start" x="941.5" y="-85.5" font-family="Helvetica,sans-Serif" font-size="10.00">src/core/coprocessors</text>
<text text-anchor="middle" x="994.5" y="-74.5" font-family="Helvetica,sans-Serif" font-size="10.00">/coprocessor.cpp</text>
</a>
</g>
</g>
<!-- Node3&#45;&gt;Node5 -->
<g id="edge4" class="edge">
<title>Node3&#45;&gt;Node5</title>
<path fill="none" stroke="midnightblue" d="M703.36,-137.37C761.8,-127.51 848.89,-112.46 924.5,-98 927.43,-97.44 930.42,-96.86 933.44,-96.26"/>
<polygon fill="midnightblue" stroke="midnightblue" points="702.43,-133.98 693.15,-139.09 703.6,-140.88 702.43,-133.98"/>
</g>
<!-- Node6 -->
<g id="node6" class="node">
<title>Node6</title>
<g id="a_node6"><a xlink:href="cp10_8cpp.html" target="_top" xlink:title="This file implements coprocessor CP10 (single&#45;precision FPU).">
<polygon fill="none" stroke="black" points="353.5,-67.5 353.5,-97.5 475.5,-97.5 475.5,-67.5 353.5,-67.5"/>
<text text-anchor="start" x="361.5" y="-85.5" font-family="Helvetica,sans-Serif" font-size="10.00">src/core/coprocessors</text>
<text text-anchor="middle" x="414.5" y="-74.5" font-family="Helvetica,sans-Serif" font-size="10.00">/cp10/cp10.cpp</text>
</a>
</g>
</g>
<!-- Node3&#45;&gt;Node6 -->
<g id="edge5" class="edge">
<title>Node3&#45;&gt;Node6</title>
<path fill="none" stroke="midnightblue" d="M578.71,-131.58C542.65,-121.02 496.78,-107.59 462.69,-97.61"/>
<polygon fill="midnightblue" stroke="midnightblue" points="578.02,-135.02 588.6,-134.48 579.99,-128.31 578.02,-135.02"/>
</g>
<!-- Node7 -->
<g id="node7" class="node">
<title>Node7</title>
<g id="a_node7"><a xlink:href="soc_8hpp.html" target="_top" xlink:title=" ">
<polygon fill="none" stroke="black" points="101,-73 101,-92 196,-92 196,-73 101,-73"/>
<text text-anchor="middle" x="148.5" y="-80" font-family="Helvetica,sans-Serif" font-size="10.00">src/core/soc.hpp</text>
</a>
</g>
</g>
<!-- Node3&#45;&gt;Node7 -->
<g id="edge6" class="edge">
<title>Node3&#45;&gt;Node7</title>
<path fill="none" stroke="midnightblue" d="M569.61,-141.81C466.33,-131.3 272.83,-110.78 204.5,-98 195.91,-96.39 186.69,-94.2 178.26,-92.01"/>
<polygon fill="midnightblue" stroke="midnightblue" points="569.32,-145.3 579.62,-142.83 570.03,-138.34 569.32,-145.3"/>
</g>
<!-- Node11 -->
<g id="node11" class="node">
<title>Node11</title>
<g id="a_node11"><a xlink:href="control__window_8hpp.html" target="_top" xlink:title="This file defines a window that allows the user to control CPU execution.">
<polygon fill="none" stroke="black" points="494,-67.5 494,-97.5 625,-97.5 625,-67.5 494,-67.5"/>
<text text-anchor="start" x="502" y="-85.5" font-family="Helvetica,sans-Serif" font-size="10.00">src/gui/windows/control</text>
<text text-anchor="middle" x="559.5" y="-74.5" font-family="Helvetica,sans-Serif" font-size="10.00">_window.hpp</text>
</a>
</g>
</g>
<!-- Node3&#45;&gt;Node11 -->
<g id="edge10" class="edge">
<title>Node3&#45;&gt;Node11</title>
<path fill="none" stroke="midnightblue" d="M612.08,-127.88C600.38,-118.01 586.66,-106.43 576.18,-97.58"/>
<polygon fill="midnightblue" stroke="midnightblue" points="609.89,-130.62 619.79,-134.4 614.41,-125.27 609.89,-130.62"/>
</g>
<!-- Node13 -->
<g id="node13" class="node">
<title>Node13</title>
<g id="a_node13"><a xlink:href="registers__window_8hpp.html" target="_top" xlink:title="This file defines a window that displays the contents of all CPU registers.">
<polygon fill="none" stroke="black" points="643.5,-67.5 643.5,-97.5 783.5,-97.5 783.5,-67.5 643.5,-67.5"/>
<text text-anchor="start" x="651.5" y="-85.5" font-family="Helvetica,sans-Serif" font-size="10.00">src/gui/windows/registers</text>
<text text-anchor="middle" x="713.5" y="-74.5" font-family="Helvetica,sans-Serif" font-size="10.00">_window.hpp</text>
</a>
</g>
</g>
<!-- Node3&#45;&gt;Node13 -->
<g id="edge13" class="edge">
<title>Node3&#45;&gt;Node13</title>
<path fill="none" stroke="midnightblue" d="M660.92,-127.88C672.62,-118.01 686.34,-106.43 696.82,-97.58"/>
<polygon fill="midnightblue" stroke="midnightblue" points="658.59,-125.27 653.21,-134.4 663.11,-130.62 658.59,-125.27"/>
</g>
<!-- Node15 -->
<g id="node15" class="node">
<title>Node15</title>
<g id="a_node15"><a xlink:href="source__code__window_8hpp.html" target="_top" xlink:title="This file defines a window that displays loaded ELF files (disassembled instructions of the source co...">
<polygon fill="none" stroke="black" points="1205.5,-67.5 1205.5,-97.5 1335.5,-97.5 1335.5,-67.5 1205.5,-67.5"/>
<text text-anchor="start" x="1213.5" y="-85.5" font-family="Helvetica,sans-Serif" font-size="10.00">src/gui/windows/source</text>
<text text-anchor="middle" x="1270.5" y="-74.5" font-family="Helvetica,sans-Serif" font-size="10.00">_code_window.hpp</text>
</a>
</g>
</g>
<!-- Node3&#45;&gt;Node15 -->
<g id="edge16" class="edge">
<title>Node3&#45;&gt;Node15</title>
<path fill="none" stroke="midnightblue" d="M703.32,-144.72C808.58,-138.26 1019.27,-123.29 1196.5,-98 1199.35,-97.59 1202.26,-97.15 1205.19,-96.68"/>
<polygon fill="midnightblue" stroke="midnightblue" points="702.93,-141.24 693.16,-145.34 703.35,-148.22 702.93,-141.24"/>
</g>
<!-- Node17 -->
<g id="node17" class="node">
<title>Node17</title>
<g id="a_node17"><a xlink:href="top__bar__menu_8hpp.html" target="_top" xlink:title=" ">
<polygon fill="none" stroke="black" points="1074,-67.5 1074,-97.5 1187,-97.5 1187,-67.5 1074,-67.5"/>
<text text-anchor="start" x="1082" y="-85.5" font-family="Helvetica,sans-Serif" font-size="10.00">src/gui/windows/top</text>
<text text-anchor="middle" x="1130.5" y="-74.5" font-family="Helvetica,sans-Serif" font-size="10.00">_bar_menu.hpp</text>
</a>
</g>
</g>
<!-- Node3&#45;&gt;Node17 -->
<g id="edge19" class="edge">
<title>Node3&#45;&gt;Node17</title>
<path fill="none" stroke="midnightblue" d="M703.15,-142.69C787.58,-134.87 937.41,-119.4 1064.5,-98 1067.51,-97.49 1070.59,-96.94 1073.69,-96.35"/>
<polygon fill="midnightblue" stroke="midnightblue" points="702.82,-139.21 693.18,-143.61 703.46,-146.18 702.82,-139.21"/>
</g>
<!-- Node8 -->
<g id="node8" class="node">
<title>Node8</title>
<g id="a_node8"><a xlink:href="soc_8cpp.html" target="_top" xlink:title=" ">
<polygon fill="none" stroke="black" points="0,-6 0,-25 95,-25 95,-6 0,-6"/>
<text text-anchor="middle" x="47.5" y="-13" font-family="Helvetica,sans-Serif" font-size="10.00">src/core/soc.cpp</text>
</a>
</g>
</g>
<!-- Node7&#45;&gt;Node8 -->
<g id="edge7" class="edge">
<title>Node7&#45;&gt;Node8</title>
<path fill="none" stroke="midnightblue" d="M126.39,-67.27C106.39,-54.4 77.61,-35.88 60.91,-25.13"/>
<polygon fill="midnightblue" stroke="midnightblue" points="124.58,-70.27 134.88,-72.73 128.36,-64.38 124.58,-70.27"/>
</g>
<!-- Node9 -->
<g id="node9" class="node">
<title>Node9</title>
<g id="a_node9"><a xlink:href="gui_8cpp.html" target="_top" xlink:title="This file implements the main GUI entry function that takes care of creating and rendering all window...">
<polygon fill="none" stroke="black" points="591,-6 591,-25 678,-25 678,-6 591,-6"/>
<text text-anchor="middle" x="634.5" y="-13" font-family="Helvetica,sans-Serif" font-size="10.00">src/gui/gui.cpp</text>
</a>
</g>
</g>
<!-- Node7&#45;&gt;Node9 -->
<g id="edge8" class="edge">
<title>Node7&#45;&gt;Node9</title>
<path fill="none" stroke="midnightblue" d="M187.8,-70.49C193.37,-69.17 199.06,-67.96 204.5,-67 370.71,-37.76 416.57,-61.78 582.5,-31 590.7,-29.48 599.49,-27.26 607.46,-25.02"/>
<polygon fill="midnightblue" stroke="midnightblue" points="186.81,-67.13 177.95,-72.94 188.5,-73.92 186.81,-67.13"/>
</g>
<!-- Node10 -->
<g id="node10" class="node">
<title>Node10</title>
<g id="a_node10"><a xlink:href="main_8cpp.html" target="_top" xlink:title="This file defines and implements the main function of the application.">
<polygon fill="none" stroke="black" points="113,-6 113,-25 192,-25 192,-6 113,-6"/>
<text text-anchor="middle" x="152.5" y="-13" font-family="Helvetica,sans-Serif" font-size="10.00">src/main.cpp</text>
</a>
</g>
</g>
<!-- Node7&#45;&gt;Node10 -->
<g id="edge9" class="edge">
<title>Node7&#45;&gt;Node10</title>
<path fill="none" stroke="midnightblue" d="M149.67,-62.54C150.43,-50.17 151.38,-34.62 151.97,-25.13"/>
<polygon fill="midnightblue" stroke="midnightblue" points="146.16,-62.54 149.04,-72.73 153.15,-62.97 146.16,-62.54"/>
</g>
<!-- Node11&#45;&gt;Node9 -->
<g id="edge11" class="edge">
<title>Node11&#45;&gt;Node9</title>
<path fill="none" stroke="midnightblue" d="M583.53,-60.67C597.38,-48.67 614.05,-34.22 624.47,-25.19"/>
<polygon fill="midnightblue" stroke="midnightblue" points="581.04,-58.2 575.77,-67.4 585.62,-63.49 581.04,-58.2"/>
</g>
<!-- Node12 -->
<g id="node12" class="node">
<title>Node12</title>
<g id="a_node12"><a xlink:href="control__window_8cpp.html" target="_top" xlink:title="This file implements a window that allows the user to control CPU execution.">
<polygon fill="none" stroke="black" points="442,-0.5 442,-30.5 573,-30.5 573,-0.5 442,-0.5"/>
<text text-anchor="start" x="450" y="-18.5" font-family="Helvetica,sans-Serif" font-size="10.00">src/gui/windows/control</text>
<text text-anchor="middle" x="507.5" y="-7.5" font-family="Helvetica,sans-Serif" font-size="10.00">_window.cpp</text>
</a>
</g>
</g>
<!-- Node11&#45;&gt;Node12 -->
<g id="edge12" class="edge">
<title>Node11&#45;&gt;Node12</title>
<path fill="none" stroke="midnightblue" d="M541.86,-59.45C534.22,-49.9 525.5,-39 518.76,-30.58"/>
<polygon fill="midnightblue" stroke="midnightblue" points="539.24,-61.77 548.22,-67.4 544.7,-57.4 539.24,-61.77"/>
</g>
<!-- Node13&#45;&gt;Node9 -->
<g id="edge14" class="edge">
<title>Node13&#45;&gt;Node9</title>
<path fill="none" stroke="midnightblue" d="M688.59,-61.01C673.93,-48.94 656.14,-34.3 645.07,-25.19"/>
<polygon fill="midnightblue" stroke="midnightblue" points="686.41,-63.75 696.36,-67.4 690.86,-58.34 686.41,-63.75"/>
</g>
<!-- Node14 -->
<g id="node14" class="node">
<title>Node14</title>
<g id="a_node14"><a xlink:href="registers__window_8cpp.html" target="_top" xlink:title="This file implements a window that displays the contents of all CPU registers.">
<polygon fill="none" stroke="black" points="696.5,-0.5 696.5,-30.5 836.5,-30.5 836.5,-0.5 696.5,-0.5"/>
<text text-anchor="start" x="704.5" y="-18.5" font-family="Helvetica,sans-Serif" font-size="10.00">src/gui/windows/registers</text>
<text text-anchor="middle" x="766.5" y="-7.5" font-family="Helvetica,sans-Serif" font-size="10.00">_window.cpp</text>
</a>
</g>
</g>
<!-- Node13&#45;&gt;Node14 -->
<g id="edge15" class="edge">
<title>Node13&#45;&gt;Node14</title>
<path fill="none" stroke="midnightblue" d="M731.48,-59.45C739.27,-49.9 748.15,-39 755.02,-30.58"/>
<polygon fill="midnightblue" stroke="midnightblue" points="728.61,-57.43 725,-67.4 734.03,-61.86 728.61,-57.43"/>
</g>
<!-- Node15&#45;&gt;Node9 -->
<g id="edge17" class="edge">
<title>Node15&#45;&gt;Node9</title>
<path fill="none" stroke="midnightblue" d="M1195.05,-66.93C969.88,-38.06 907.79,-68.55 687.5,-31 679.04,-29.56 669.97,-27.34 661.78,-25.06"/>
<polygon fill="midnightblue" stroke="midnightblue" points="1194.83,-70.43 1205.2,-68.25 1195.74,-63.49 1194.83,-70.43"/>
</g>
<!-- Node16 -->
<g id="node16" class="node">
<title>Node16</title>
<g id="a_node16"><a xlink:href="source__code__window_8cpp.html" target="_top" xlink:title="This file implements a window that displays loaded ELF files (disassembled instructions of the source...">
<polygon fill="none" stroke="black" points="1251.5,-0.5 1251.5,-30.5 1381.5,-30.5 1381.5,-0.5 1251.5,-0.5"/>
<text text-anchor="start" x="1259.5" y="-18.5" font-family="Helvetica,sans-Serif" font-size="10.00">src/gui/windows/source</text>
<text text-anchor="middle" x="1316.5" y="-7.5" font-family="Helvetica,sans-Serif" font-size="10.00">_code_window.cpp</text>
</a>
</g>
</g>
<!-- Node15&#45;&gt;Node16 -->
<g id="edge18" class="edge">
<title>Node15&#45;&gt;Node16</title>
<path fill="none" stroke="midnightblue" d="M1286.31,-59.16C1293.02,-49.68 1300.63,-38.92 1306.54,-30.58"/>
<polygon fill="midnightblue" stroke="midnightblue" points="1283.4,-57.21 1280.48,-67.4 1289.12,-61.26 1283.4,-57.21"/>
</g>
<!-- Node17&#45;&gt;Node9 -->
<g id="edge20" class="edge">
<title>Node17&#45;&gt;Node9</title>
<path fill="none" stroke="midnightblue" d="M1063.82,-67.03C896.46,-41.65 849.91,-60.74 687.5,-31 679.15,-29.47 670.2,-27.25 662.07,-25.01"/>
<polygon fill="midnightblue" stroke="midnightblue" points="1063.28,-70.49 1073.7,-68.56 1064.35,-63.58 1063.28,-70.49"/>
</g>
<!-- Node18 -->
<g id="node18" class="node">
<title>Node18</title>
<g id="a_node18"><a xlink:href="top__bar__menu_8cpp.html" target="_top" xlink:title=" ">
<polygon fill="none" stroke="black" points="1074,-0.5 1074,-30.5 1187,-30.5 1187,-0.5 1074,-0.5"/>
<text text-anchor="start" x="1082" y="-18.5" font-family="Helvetica,sans-Serif" font-size="10.00">src/gui/windows/top</text>
<text text-anchor="middle" x="1130.5" y="-7.5" font-family="Helvetica,sans-Serif" font-size="10.00">_bar_menu.cpp</text>
</a>
</g>
</g>
<!-- Node17&#45;&gt;Node18 -->
<g id="edge21" class="edge">
<title>Node17&#45;&gt;Node18</title>
<path fill="none" stroke="midnightblue" d="M1130.5,-57.11C1130.5,-48.15 1130.5,-38.32 1130.5,-30.58"/>
<polygon fill="midnightblue" stroke="midnightblue" points="1127,-57.4 1130.5,-67.4 1134,-57.4 1127,-57.4"/>
</g>
<!-- Node20&#45;&gt;Node3 -->
<g id="edge24" class="edge">
<title>Node20&#45;&gt;Node3</title>
<path fill="none" stroke="midnightblue" d="M652.82,-263.89C648.99,-237.24 642.01,-188.8 638.56,-164.78"/>
<polygon fill="midnightblue" stroke="midnightblue" points="649.36,-264.44 654.25,-273.84 656.29,-263.44 649.36,-264.44"/>
</g>
<!-- Node20&#45;&gt;Node7 -->
<g id="edge36" class="edge">
<title>Node20&#45;&gt;Node7</title>
<path fill="none" stroke="midnightblue" d="M597.21,-273.22C585.09,-271.4 572.39,-269.57 560.5,-268 488.9,-258.55 301.42,-265.62 237.5,-232 180.84,-202.2 156.85,-119.19 150.39,-92.14"/>
<polygon fill="midnightblue" stroke="midnightblue" points="596.81,-276.7 607.22,-274.74 597.86,-269.78 596.81,-276.7"/>
</g>
<!-- Node20&#45;&gt;Node17 -->
<g id="edge37" class="edge">
<title>Node20&#45;&gt;Node17</title>
<path fill="none" stroke="midnightblue" d="M685.14,-270.08C769.14,-234.89 1008.44,-134.64 1097,-97.53"/>
<polygon fill="midnightblue" stroke="midnightblue" points="683.78,-266.86 675.91,-273.95 686.49,-273.31 683.78,-266.86"/>
</g>
<!-- Node21 -->
<g id="node21" class="node">
<title>Node21</title>
<g id="a_node21"><a xlink:href="mmu_8hpp.html" target="_top" xlink:title="This file defines the MMU (memory management unit) of the CPU.">
<polygon fill="none" stroke="black" points="247,-201.5 247,-231.5 360,-231.5 360,-201.5 247,-201.5"/>
<text text-anchor="start" x="255" y="-219.5" font-family="Helvetica,sans-Serif" font-size="10.00">src/core/arm1176jzf</text>
<text text-anchor="middle" x="303.5" y="-208.5" font-family="Helvetica,sans-Serif" font-size="10.00">_s/mmu/mmu.hpp</text>
</a>
</g>
</g>
<!-- Node20&#45;&gt;Node21 -->
<g id="edge25" class="edge">
<title>Node20&#45;&gt;Node21</title>
<path fill="none" stroke="midnightblue" d="M598.97,-272.06C533.37,-259.95 425.84,-240.09 360.18,-227.97"/>
<polygon fill="midnightblue" stroke="midnightblue" points="598.65,-275.56 609.12,-273.94 599.92,-268.68 598.65,-275.56"/>
</g>
<!-- Node23 -->
<g id="node23" class="node">
<title>Node23</title>
<g id="a_node23"><a xlink:href="bus_8cpp.html" target="_top" xlink:title="This file implements the interface defined in bus.hpp.">
<polygon fill="none" stroke="black" points="665,-207 665,-226 760,-226 760,-207 665,-207"/>
<text text-anchor="middle" x="712.5" y="-214" font-family="Helvetica,sans-Serif" font-size="10.00">src/core/bus.cpp</text>
</a>
</g>
</g>
<!-- Node20&#45;&gt;Node23 -->
<g id="edge29" class="edge">
<title>Node20&#45;&gt;Node23</title>
<path fill="none" stroke="midnightblue" d="M669.85,-266.13C681,-253.42 696.02,-236.3 704.93,-226.13"/>
<polygon fill="midnightblue" stroke="midnightblue" points="667.15,-263.91 663.19,-273.73 672.41,-268.52 667.15,-263.91"/>
</g>
<!-- Node24 -->
<g id="node24" class="node">
<title>Node24</title>
<g id="a_node24"><a xlink:href="cp10_8hpp.html" target="_top" xlink:title="This file defines coprocessor CP10 (single&#45;precision FPU).">
<polygon fill="none" stroke="black" points="353.5,-134.5 353.5,-164.5 475.5,-164.5 475.5,-134.5 353.5,-134.5"/>
<text text-anchor="start" x="361.5" y="-152.5" font-family="Helvetica,sans-Serif" font-size="10.00">src/core/coprocessors</text>
<text text-anchor="middle" x="414.5" y="-141.5" font-family="Helvetica,sans-Serif" font-size="10.00">/cp10/cp10.hpp</text>
</a>
</g>
</g>
<!-- Node20&#45;&gt;Node24 -->
<g id="edge30" class="edge">
<title>Node20&#45;&gt;Node24</title>
<path fill="none" stroke="midnightblue" d="M630.71,-268.92C584.76,-243.75 486.81,-190.11 440.19,-164.57"/>
<polygon fill="midnightblue" stroke="midnightblue" points="629.24,-272.1 639.69,-273.84 632.6,-265.97 629.24,-272.1"/>
</g>
<!-- Node27 -->
<g id="node27" class="node">
<title>Node27</title>
<g id="a_node27"><a xlink:href="elf__loader_8hpp.html" target="_top" xlink:title="This file defines the functionality of an ELF loader.">
<polygon fill="none" stroke="black" points="1207,-140 1207,-159 1334,-159 1334,-140 1207,-140"/>
<text text-anchor="middle" x="1270.5" y="-147" font-family="Helvetica,sans-Serif" font-size="10.00">src/utils/elf_loader.hpp</text>
</a>
</g>
</g>
<!-- Node20&#45;&gt;Node27 -->
<g id="edge38" class="edge">
<title>Node20&#45;&gt;Node27</title>
<path fill="none" stroke="midnightblue" d="M696.84,-271.59C702.42,-270.29 708.09,-269.05 713.5,-268 828.03,-245.82 859.23,-255.49 973.5,-232 1074.58,-211.23 1192.06,-175.45 1243.76,-159.1"/>
<polygon fill="midnightblue" stroke="midnightblue" points="695.87,-268.22 686.97,-273.98 697.51,-275.03 695.87,-268.22"/>
</g>
<!-- Node21&#45;&gt;Node3 -->
<g id="edge26" class="edge">
<title>Node21&#45;&gt;Node3</title>
<path fill="none" stroke="midnightblue" d="M370.35,-202.45C431.8,-190.46 521.89,-172.87 579.87,-161.55"/>
<polygon fill="midnightblue" stroke="midnightblue" points="369.51,-199.05 360.37,-204.4 370.85,-205.92 369.51,-199.05"/>
</g>
<!-- Node21&#45;&gt;Node7 -->
<g id="edge28" class="edge">
<title>Node21&#45;&gt;Node7</title>
<path fill="none" stroke="midnightblue" d="M261.47,-196.64C245.24,-188.25 227.1,-177.44 212.5,-165 186.21,-142.59 163.36,-107.95 153.57,-92.03"/>
<polygon fill="midnightblue" stroke="midnightblue" points="260.26,-199.95 270.77,-201.29 263.39,-193.69 260.26,-199.95"/>
</g>
<!-- Node22 -->
<g id="node22" class="node">
<title>Node22</title>
<g id="a_node22"><a xlink:href="mmu_8cpp.html" target="_top" xlink:title="This file implements the MMU (memory management unit) of the CPU.">
<polygon fill="none" stroke="black" points="222,-134.5 222,-164.5 335,-164.5 335,-134.5 222,-134.5"/>
<text text-anchor="start" x="230" y="-152.5" font-family="Helvetica,sans-Serif" font-size="10.00">src/core/arm1176jzf</text>
<text text-anchor="middle" x="278.5" y="-141.5" font-family="Helvetica,sans-Serif" font-size="10.00">_s/mmu/mmu.cpp</text>
</a>
</g>
</g>
<!-- Node21&#45;&gt;Node22 -->
<g id="edge27" class="edge">
<title>Node21&#45;&gt;Node22</title>
<path fill="none" stroke="midnightblue" d="M294.46,-191.99C290.92,-182.8 286.99,-172.58 283.91,-164.58"/>
<polygon fill="midnightblue" stroke="midnightblue" points="291.22,-193.32 298.08,-201.4 297.75,-190.81 291.22,-193.32"/>
</g>
<!-- Node24&#45;&gt;Node6 -->
<g id="edge31" class="edge">
<title>Node24&#45;&gt;Node6</title>
<path fill="none" stroke="midnightblue" d="M414.5,-124.11C414.5,-115.15 414.5,-105.32 414.5,-97.58"/>
<polygon fill="midnightblue" stroke="midnightblue" points="411,-124.4 414.5,-134.4 418,-124.4 411,-124.4"/>
</g>
<!-- Node24&#45;&gt;Node7 -->
<g id="edge32" class="edge">
<title>Node24&#45;&gt;Node7</title>
<path fill="none" stroke="midnightblue" d="M344.82,-132.06C303.91,-122.33 251.22,-109.66 204.5,-98 196.9,-96.1 188.73,-94.02 181.05,-92.03"/>
<polygon fill="midnightblue" stroke="midnightblue" points="344.15,-135.5 354.69,-134.41 345.77,-128.69 344.15,-135.5"/>
</g>
<!-- Node25 -->
<g id="node25" class="node">
<title>Node25</title>
<g id="a_node25"><a xlink:href="cp10__window_8hpp.html" target="_top" xlink:title="This file defines a window that displays data (information) related to coprocessor 10 (FPU).">
<polygon fill="none" stroke="black" points="214,-67.5 214,-97.5 335,-97.5 335,-67.5 214,-67.5"/>
<text text-anchor="start" x="222" y="-85.5" font-family="Helvetica,sans-Serif" font-size="10.00">src/gui/windows/cp10</text>
<text text-anchor="middle" x="274.5" y="-74.5" font-family="Helvetica,sans-Serif" font-size="10.00">_window.hpp</text>
</a>
</g>
</g>
<!-- Node24&#45;&gt;Node25 -->
<g id="edge33" class="edge">
<title>Node24&#45;&gt;Node25</title>
<path fill="none" stroke="midnightblue" d="M374.93,-130.13C352.69,-119.8 325.35,-107.11 304.82,-97.58"/>
<polygon fill="midnightblue" stroke="midnightblue" points="373.58,-133.36 384.12,-134.4 376.53,-127.01 373.58,-133.36"/>
</g>
<!-- Node25&#45;&gt;Node9 -->
<g id="edge34" class="edge">
<title>Node25&#45;&gt;Node9</title>
<path fill="none" stroke="midnightblue" d="M345.02,-66.98C451.52,-48.43 480.96,-52.75 582.5,-31 590.29,-29.33 598.64,-27.17 606.32,-25.03"/>
<polygon fill="midnightblue" stroke="midnightblue" points="344.4,-63.54 335.17,-68.72 345.62,-70.43 344.4,-63.54"/>
</g>
<!-- Node26 -->
<g id="node26" class="node">
<title>Node26</title>
<g id="a_node26"><a xlink:href="cp10__window_8cpp.html" target="_top" xlink:title="This file implements a window that displays data (information) related to coprocessor 10 (FPU).">
<polygon fill="none" stroke="black" points="214,-0.5 214,-30.5 335,-30.5 335,-0.5 214,-0.5"/>
<text text-anchor="start" x="222" y="-18.5" font-family="Helvetica,sans-Serif" font-size="10.00">src/gui/windows/cp10</text>
<text text-anchor="middle" x="274.5" y="-7.5" font-family="Helvetica,sans-Serif" font-size="10.00">_window.cpp</text>
</a>
</g>
</g>
<!-- Node25&#45;&gt;Node26 -->
<g id="edge35" class="edge">
<title>Node25&#45;&gt;Node26</title>
<path fill="none" stroke="midnightblue" d="M274.5,-57.11C274.5,-48.15 274.5,-38.32 274.5,-30.58"/>
<polygon fill="midnightblue" stroke="midnightblue" points="271,-57.4 274.5,-67.4 278,-57.4 271,-57.4"/>
</g>
<!-- Node27&#45;&gt;Node15 -->
<g id="edge40" class="edge">
<title>Node27&#45;&gt;Node15</title>
<path fill="none" stroke="midnightblue" d="M1270.5,-129.41C1270.5,-119.22 1270.5,-106.9 1270.5,-97.59"/>
<polygon fill="midnightblue" stroke="midnightblue" points="1267,-129.73 1270.5,-139.73 1274,-129.73 1267,-129.73"/>
</g>
<!-- Node27&#45;&gt;Node16 -->
<g id="edge39" class="edge">
<title>Node27&#45;&gt;Node16</title>
<path fill="none" stroke="midnightblue" d="M1302.16,-135.61C1317.93,-127.38 1335.51,-115.01 1344.5,-98 1356.31,-75.64 1340.32,-47.29 1328.1,-30.59"/>
<polygon fill="midnightblue" stroke="midnightblue" points="1300.62,-132.47 1293.16,-139.99 1303.68,-138.76 1300.62,-132.47"/>
</g>
<!-- Node27&#45;&gt;Node17 -->
<g id="edge41" class="edge">
<title>Node27&#45;&gt;Node17</title>
<path fill="none" stroke="midnightblue" d="M1242.76,-135.62C1219.08,-124.63 1185.08,-108.84 1160.71,-97.53"/>
<polygon fill="midnightblue" stroke="midnightblue" points="1241.37,-138.83 1251.91,-139.87 1244.31,-132.48 1241.37,-138.83"/>
</g>
<!-- Node28 -->
<g id="node28" class="node">
<title>Node28</title>
<g id="a_node28"><a xlink:href="elf__loader_8cpp.html" target="_top" xlink:title="This file implements the functionality of an ELF loader defined in elf_loader.hpp.">
<polygon fill="none" stroke="black" points="1391.5,-73 1391.5,-92 1517.5,-92 1517.5,-73 1391.5,-73"/>
<text text-anchor="middle" x="1454.5" y="-80" font-family="Helvetica,sans-Serif" font-size="10.00">src/utils/elf_loader.cpp</text>
</a>
</g>
</g>
<!-- Node27&#45;&gt;Node28 -->
<g id="edge42" class="edge">
<title>Node27&#45;&gt;Node28</title>
<path fill="none" stroke="midnightblue" d="M1304.65,-136.44C1341.15,-123.54 1398.1,-103.42 1430.26,-92.06"/>
<polygon fill="midnightblue" stroke="midnightblue" points="1303.2,-133.24 1294.93,-139.87 1305.53,-139.84 1303.2,-133.24"/>
</g>
</g>
</svg>
