<?xml version="1.0" encoding="UTF-8" standalone="no"?>
<!DOCTYPE svg PUBLIC "-//W3C//DTD SVG 1.1//EN"
 "http://www.w3.org/Graphics/SVG/1.1/DTD/svg11.dtd">
<!-- Generated by graphviz version 2.43.0 (0)
 -->
<!-- Title: include/zero_mate/external_peripheral.hpp Pages: 1 -->
<svg width="1908pt" height="302pt"
 viewBox="0.00 0.00 1908.00 302.00" xmlns="http://www.w3.org/2000/svg" xmlns:xlink="http://www.w3.org/1999/xlink">
<g id="graph0" class="graph" transform="scale(1 1) rotate(0) translate(4 298)">
<title>include/zero_mate/external_peripheral.hpp</title>
<!-- Node1 -->
<g id="Node000001" class="node">
<title>Node1</title>
<g id="a_Node000001"><a xlink:title="This file defines an interface for external peripherals that can be attached to the system via GPIO p...">
<polygon fill="#999999" stroke="#666666" points="1424.5,-294 1274.5,-294 1274.5,-264 1424.5,-264 1424.5,-294"/>
<text text-anchor="start" x="1282.5" y="-282" font-family="Helvetica,sans-Serif" font-size="10.00">include/zero_mate/external</text>
<text text-anchor="middle" x="1349.5" y="-271" font-family="Helvetica,sans-Serif" font-size="10.00">_peripheral.hpp</text>
</a>
</g>
</g>
<!-- Node2 -->
<g id="Node000002" class="node">
<title>Node2</title>
<g id="a_Node000002"><a xlink:href="core_8hpp.html" target="_top" xlink:title="This file defines a class that represents a CPU core (arm1176jzf_s).">
<polygon fill="white" stroke="#666666" points="688,-162 575,-162 575,-132 688,-132 688,-162"/>
<text text-anchor="start" x="583" y="-150" font-family="Helvetica,sans-Serif" font-size="10.00">src/core/arm1176jzf</text>
<text text-anchor="middle" x="631.5" y="-139" font-family="Helvetica,sans-Serif" font-size="10.00">_s/core.hpp</text>
</a>
</g>
</g>
<!-- Node1&#45;&gt;Node2 -->
<g id="edge1_Node000001_Node000002" class="edge">
<title>Node1&#45;&gt;Node2</title>
<g id="a_edge1_Node000001_Node000002"><a xlink:title=" ">
<path fill="none" stroke="#63b8ff" d="M1264.38,-262.59C1115.99,-235.72 813.83,-181.01 688.23,-158.27"/>
<polygon fill="#63b8ff" stroke="#63b8ff" points="1263.89,-266.06 1274.36,-264.39 1265.14,-259.17 1263.89,-266.06"/>
</a>
</g>
</g>
<!-- Node6 -->
<g id="Node000006" class="node">
<title>Node6</title>
<g id="a_Node000006"><a xlink:href="soc_8hpp.html" target="_top" xlink:title=" ">
<polygon fill="white" stroke="#666666" points="1434,-90.5 1339,-90.5 1339,-71.5 1434,-71.5 1434,-90.5"/>
<text text-anchor="middle" x="1386.5" y="-78.5" font-family="Helvetica,sans-Serif" font-size="10.00">src/core/soc.hpp</text>
</a>
</g>
</g>
<!-- Node1&#45;&gt;Node6 -->
<g id="edge37_Node000001_Node000006" class="edge">
<title>Node1&#45;&gt;Node6</title>
<g id="a_edge37_Node000001_Node000006"><a xlink:title=" ">
<path fill="none" stroke="#63b8ff" d="M1391.19,-259.19C1427.31,-240.35 1477.18,-207.6 1499.5,-162 1505.36,-150.02 1506.77,-143.17 1499.5,-132 1489.76,-117.03 1444.89,-100.38 1414.7,-90.57"/>
<polygon fill="#63b8ff" stroke="#63b8ff" points="1389.21,-256.27 1381.87,-263.91 1392.37,-262.52 1389.21,-256.27"/>
</a>
</g>
</g>
<!-- Node18 -->
<g id="Node000018" class="node">
<title>Node18</title>
<g id="a_Node000018"><a xlink:href="gpio_8hpp.html" target="_top" xlink:title="This file defines the GPIO controller used in BCM2835.">
<polygon fill="white" stroke="#666666" points="1406,-228 1293,-228 1293,-198 1406,-198 1406,-228"/>
<text text-anchor="start" x="1301" y="-216" font-family="Helvetica,sans-Serif" font-size="10.00">src/core/peripherals</text>
<text text-anchor="middle" x="1349.5" y="-205" font-family="Helvetica,sans-Serif" font-size="10.00">/gpio.hpp</text>
</a>
</g>
</g>
<!-- Node1&#45;&gt;Node18 -->
<g id="edge21_Node000001_Node000018" class="edge">
<title>Node1&#45;&gt;Node18</title>
<g id="a_edge21_Node000001_Node000018"><a xlink:title=" ">
<path fill="none" stroke="#63b8ff" d="M1349.5,-253.54C1349.5,-244.96 1349.5,-235.61 1349.5,-228.16"/>
<polygon fill="#63b8ff" stroke="#63b8ff" points="1346,-253.8 1349.5,-263.8 1353,-253.8 1346,-253.8"/>
</a>
</g>
</g>
<!-- Node3 -->
<g id="Node000003" class="node">
<title>Node3</title>
<g id="a_Node000003"><a xlink:href="core_8cpp.html" target="_top" xlink:title="This file implements the CCPU_Core class defined in core.hpp.">
<polygon fill="white" stroke="#666666" points="113,-96 0,-96 0,-66 113,-66 113,-96"/>
<text text-anchor="start" x="8" y="-84" font-family="Helvetica,sans-Serif" font-size="10.00">src/core/arm1176jzf</text>
<text text-anchor="middle" x="56.5" y="-73" font-family="Helvetica,sans-Serif" font-size="10.00">_s/core.cpp</text>
</a>
</g>
</g>
<!-- Node2&#45;&gt;Node3 -->
<g id="edge2_Node000002_Node000003" class="edge">
<title>Node2&#45;&gt;Node3</title>
<g id="a_edge2_Node000002_Node000003"><a xlink:title=" ">
<path fill="none" stroke="#63b8ff" d="M564.74,-141.82C467.18,-135.17 280.14,-120.38 122.5,-96 119.49,-95.53 116.41,-95.02 113.31,-94.47"/>
<polygon fill="#63b8ff" stroke="#63b8ff" points="564.54,-145.31 574.75,-142.49 565.01,-138.33 564.54,-145.31"/>
</a>
</g>
</g>
<!-- Node4 -->
<g id="Node000004" class="node">
<title>Node4</title>
<g id="a_Node000004"><a xlink:href="coprocessor_8cpp.html" target="_top" xlink:title="This file implements the common functionality of a general interface of a coprocessor.">
<polygon fill="white" stroke="#666666" points="253.5,-96 131.5,-96 131.5,-66 253.5,-66 253.5,-96"/>
<text text-anchor="start" x="139.5" y="-84" font-family="Helvetica,sans-Serif" font-size="10.00">src/core/coprocessors</text>
<text text-anchor="middle" x="192.5" y="-73" font-family="Helvetica,sans-Serif" font-size="10.00">/coprocessor.cpp</text>
</a>
</g>
</g>
<!-- Node2&#45;&gt;Node4 -->
<g id="edge3_Node000002_Node000004" class="edge">
<title>Node2&#45;&gt;Node4</title>
<g id="a_edge3_Node000002_Node000004"><a xlink:title=" ">
<path fill="none" stroke="#63b8ff" d="M564.64,-138.22C490.57,-129.3 367.7,-113.63 262.5,-96 259.57,-95.51 256.57,-94.99 253.54,-94.44"/>
<polygon fill="#63b8ff" stroke="#63b8ff" points="564.41,-141.72 574.76,-139.43 565.24,-134.77 564.41,-141.72"/>
</a>
</g>
</g>
<!-- Node5 -->
<g id="Node000005" class="node">
<title>Node5</title>
<g id="a_Node000005"><a xlink:href="cp10_8cpp.html" target="_top" xlink:title="This file implements coprocessor CP10 (single&#45;precision FPU).">
<polygon fill="white" stroke="#666666" points="393.5,-96 271.5,-96 271.5,-66 393.5,-66 393.5,-96"/>
<text text-anchor="start" x="279.5" y="-84" font-family="Helvetica,sans-Serif" font-size="10.00">src/core/coprocessors</text>
<text text-anchor="middle" x="332.5" y="-73" font-family="Helvetica,sans-Serif" font-size="10.00">/cp10/cp10.cpp</text>
</a>
</g>
</g>
<!-- Node2&#45;&gt;Node5 -->
<g id="edge4_Node000002_Node000005" class="edge">
<title>Node2&#45;&gt;Node5</title>
<g id="a_edge4_Node000002_Node000005"><a xlink:title=" ">
<path fill="none" stroke="#63b8ff" d="M564.93,-131.75C513.74,-120.79 443.56,-105.77 393.75,-95.11"/>
<polygon fill="#63b8ff" stroke="#63b8ff" points="564.4,-135.22 574.91,-133.89 565.86,-128.37 564.4,-135.22"/>
</a>
</g>
</g>
<!-- Node2&#45;&gt;Node6 -->
<g id="edge5_Node000002_Node000006" class="edge">
<title>Node2&#45;&gt;Node6</title>
<g id="a_edge5_Node000002_Node000006"><a xlink:title=" ">
<path fill="none" stroke="#63b8ff" d="M698.59,-144.96C823.48,-142.2 1099.83,-132.16 1329.5,-96 1338.16,-94.64 1347.43,-92.61 1355.93,-90.52"/>
<polygon fill="#63b8ff" stroke="#63b8ff" points="698.34,-141.47 688.42,-145.18 698.49,-148.47 698.34,-141.47"/>
</a>
</g>
</g>
<!-- Node10 -->
<g id="Node000010" class="node">
<title>Node10</title>
<g id="a_Node000010"><a xlink:href="control__window_8hpp.html" target="_top" xlink:title="This file defines a window that allows the user to control CPU execution.">
<polygon fill="white" stroke="#666666" points="543,-96 412,-96 412,-66 543,-66 543,-96"/>
<text text-anchor="start" x="420" y="-84" font-family="Helvetica,sans-Serif" font-size="10.00">src/gui/windows/control</text>
<text text-anchor="middle" x="477.5" y="-73" font-family="Helvetica,sans-Serif" font-size="10.00">_window.hpp</text>
</a>
</g>
</g>
<!-- Node2&#45;&gt;Node10 -->
<g id="edge9_Node000002_Node000010" class="edge">
<title>Node2&#45;&gt;Node10</title>
<g id="a_edge9_Node000002_Node000010"><a xlink:title=" ">
<path fill="none" stroke="#63b8ff" d="M588.32,-128.05C563.92,-117.91 533.87,-105.43 511.22,-96.01"/>
<polygon fill="#63b8ff" stroke="#63b8ff" points="587.13,-131.35 597.7,-131.95 589.81,-124.89 587.13,-131.35"/>
</a>
</g>
</g>
<!-- Node12 -->
<g id="Node000012" class="node">
<title>Node12</title>
<g id="a_Node000012"><a xlink:href="registers__window_8hpp.html" target="_top" xlink:title="This file defines a window that displays the contents of all CPU registers.">
<polygon fill="white" stroke="#666666" points="701.5,-96 561.5,-96 561.5,-66 701.5,-66 701.5,-96"/>
<text text-anchor="start" x="569.5" y="-84" font-family="Helvetica,sans-Serif" font-size="10.00">src/gui/windows/registers</text>
<text text-anchor="middle" x="631.5" y="-73" font-family="Helvetica,sans-Serif" font-size="10.00">_window.hpp</text>
</a>
</g>
</g>
<!-- Node2&#45;&gt;Node12 -->
<g id="edge12_Node000002_Node000012" class="edge">
<title>Node2&#45;&gt;Node12</title>
<g id="a_edge12_Node000002_Node000012"><a xlink:title=" ">
<path fill="none" stroke="#63b8ff" d="M631.5,-121.54C631.5,-112.96 631.5,-103.61 631.5,-96.16"/>
<polygon fill="#63b8ff" stroke="#63b8ff" points="628,-121.8 631.5,-131.8 635,-121.8 628,-121.8"/>
</a>
</g>
</g>
<!-- Node14 -->
<g id="Node000014" class="node">
<title>Node14</title>
<g id="a_Node000014"><a xlink:href="source__code__window_8hpp.html" target="_top" xlink:title="This file defines a window that displays loaded ELF files (disassembled instructions of the source co...">
<polygon fill="white" stroke="#666666" points="849.5,-96 719.5,-96 719.5,-66 849.5,-66 849.5,-96"/>
<text text-anchor="start" x="727.5" y="-84" font-family="Helvetica,sans-Serif" font-size="10.00">src/gui/windows/source</text>
<text text-anchor="middle" x="784.5" y="-73" font-family="Helvetica,sans-Serif" font-size="10.00">_code_window.hpp</text>
</a>
</g>
</g>
<!-- Node2&#45;&gt;Node14 -->
<g id="edge15_Node000002_Node000014" class="edge">
<title>Node2&#45;&gt;Node14</title>
<g id="a_edge15_Node000002_Node000014"><a xlink:title=" ">
<path fill="none" stroke="#63b8ff" d="M674.4,-128.05C698.64,-117.91 728.5,-105.43 751,-96.01"/>
<polygon fill="#63b8ff" stroke="#63b8ff" points="672.95,-124.87 665.08,-131.95 675.65,-131.32 672.95,-124.87"/>
</a>
</g>
</g>
<!-- Node16 -->
<g id="Node000016" class="node">
<title>Node16</title>
<g id="a_Node000016"><a xlink:href="top__bar__menu_8hpp.html" target="_top" xlink:title=" ">
<polygon fill="white" stroke="#666666" points="981,-96 868,-96 868,-66 981,-66 981,-96"/>
<text text-anchor="start" x="876" y="-84" font-family="Helvetica,sans-Serif" font-size="10.00">src/gui/windows/top</text>
<text text-anchor="middle" x="924.5" y="-73" font-family="Helvetica,sans-Serif" font-size="10.00">_bar_menu.hpp</text>
</a>
</g>
</g>
<!-- Node2&#45;&gt;Node16 -->
<g id="edge18_Node000002_Node000016" class="edge">
<title>Node2&#45;&gt;Node16</title>
<g id="a_edge18_Node000002_Node000016"><a xlink:title=" ">
<path fill="none" stroke="#63b8ff" d="M698.32,-131.41C749.5,-120.22 819.34,-104.97 867.82,-94.38"/>
<polygon fill="#63b8ff" stroke="#63b8ff" points="697.36,-128.03 688.34,-133.58 698.86,-134.87 697.36,-128.03"/>
</a>
</g>
</g>
<!-- Node7 -->
<g id="Node000007" class="node">
<title>Node7</title>
<g id="a_Node000007"><a xlink:href="soc_8cpp.html" target="_top" xlink:title=" ">
<polygon fill="white" stroke="#666666" points="1381,-24.5 1286,-24.5 1286,-5.5 1381,-5.5 1381,-24.5"/>
<text text-anchor="middle" x="1333.5" y="-12.5" font-family="Helvetica,sans-Serif" font-size="10.00">src/core/soc.cpp</text>
</a>
</g>
</g>
<!-- Node6&#45;&gt;Node7 -->
<g id="edge6_Node000006_Node000007" class="edge">
<title>Node6&#45;&gt;Node7</title>
<g id="a_edge6_Node000006_Node000007"><a xlink:title=" ">
<path fill="none" stroke="#63b8ff" d="M1372.94,-63.62C1362.74,-51.31 1349.15,-34.89 1340.87,-24.91"/>
<polygon fill="#63b8ff" stroke="#63b8ff" points="1370.28,-65.9 1379.35,-71.37 1375.67,-61.43 1370.28,-65.9"/>
</a>
</g>
</g>
<!-- Node8 -->
<g id="Node000008" class="node">
<title>Node8</title>
<g id="a_Node000008"><a xlink:href="gui_8cpp.html" target="_top" xlink:title="This file implements the main GUI entry function that takes care of creating and rendering all window...">
<polygon fill="white" stroke="#666666" points="962,-24.5 875,-24.5 875,-5.5 962,-5.5 962,-24.5"/>
<text text-anchor="middle" x="918.5" y="-12.5" font-family="Helvetica,sans-Serif" font-size="10.00">src/gui/gui.cpp</text>
</a>
</g>
</g>
<!-- Node6&#45;&gt;Node8 -->
<g id="edge7_Node000006_Node000008" class="edge">
<title>Node6&#45;&gt;Node8</title>
<g id="a_edge7_Node000006_Node000008"><a xlink:title=" ">
<path fill="none" stroke="#63b8ff" d="M1345.3,-69.15C1340,-67.97 1334.64,-66.88 1329.5,-66 1171.47,-38.81 1128.22,-58.94 970.5,-30 962.78,-28.58 954.52,-26.59 946.92,-24.55"/>
<polygon fill="#63b8ff" stroke="#63b8ff" points="1344.77,-72.63 1355.31,-71.5 1346.37,-65.81 1344.77,-72.63"/>
</a>
</g>
</g>
<!-- Node9 -->
<g id="Node000009" class="node">
<title>Node9</title>
<g id="a_Node000009"><a xlink:href="main_8cpp.html" target="_top" xlink:title="This file defines and implements the main function of the application.">
<polygon fill="white" stroke="#666666" points="1478,-24.5 1399,-24.5 1399,-5.5 1478,-5.5 1478,-24.5"/>
<text text-anchor="middle" x="1438.5" y="-12.5" font-family="Helvetica,sans-Serif" font-size="10.00">src/main.cpp</text>
</a>
</g>
</g>
<!-- Node6&#45;&gt;Node9 -->
<g id="edge8_Node000006_Node000009" class="edge">
<title>Node6&#45;&gt;Node9</title>
<g id="a_edge8_Node000006_Node000009"><a xlink:title=" ">
<path fill="none" stroke="#63b8ff" d="M1400.1,-63.27C1410.07,-50.99 1423.23,-34.8 1431.26,-24.91"/>
<polygon fill="#63b8ff" stroke="#63b8ff" points="1397.1,-61.4 1393.51,-71.37 1402.54,-65.81 1397.1,-61.4"/>
</a>
</g>
</g>
<!-- Node10&#45;&gt;Node8 -->
<g id="edge10_Node000010_Node000008" class="edge">
<title>Node10&#45;&gt;Node8</title>
<g id="a_edge10_Node000010_Node000008"><a xlink:title=" ">
<path fill="none" stroke="#63b8ff" d="M553.3,-65.96C689.61,-45.79 726.77,-53.04 858.5,-30 867.14,-28.49 876.4,-26.51 885,-24.52"/>
<polygon fill="#63b8ff" stroke="#63b8ff" points="552.68,-62.51 543.31,-67.46 553.72,-69.43 552.68,-62.51"/>
</a>
</g>
</g>
<!-- Node11 -->
<g id="Node000011" class="node">
<title>Node11</title>
<g id="a_Node000011"><a xlink:href="control__window_8cpp.html" target="_top" xlink:title="This file implements a window that allows the user to control CPU execution.">
<polygon fill="white" stroke="#666666" points="543,-30 412,-30 412,0 543,0 543,-30"/>
<text text-anchor="start" x="420" y="-18" font-family="Helvetica,sans-Serif" font-size="10.00">src/gui/windows/control</text>
<text text-anchor="middle" x="477.5" y="-7" font-family="Helvetica,sans-Serif" font-size="10.00">_window.cpp</text>
</a>
</g>
</g>
<!-- Node10&#45;&gt;Node11 -->
<g id="edge11_Node000010_Node000011" class="edge">
<title>Node10&#45;&gt;Node11</title>
<g id="a_edge11_Node000010_Node000011"><a xlink:title=" ">
<path fill="none" stroke="#63b8ff" d="M477.5,-55.54C477.5,-46.96 477.5,-37.61 477.5,-30.16"/>
<polygon fill="#63b8ff" stroke="#63b8ff" points="474,-55.8 477.5,-65.8 481,-55.8 474,-55.8"/>
</a>
</g>
</g>
<!-- Node12&#45;&gt;Node8 -->
<g id="edge13_Node000012_Node000008" class="edge">
<title>Node12&#45;&gt;Node8</title>
<g id="a_edge13_Node000012_Node000008"><a xlink:title=" ">
<path fill="none" stroke="#63b8ff" d="M705.95,-63.84C750.29,-54.16 807.64,-41.53 858.5,-30 866.22,-28.25 874.49,-26.34 882.35,-24.51"/>
<polygon fill="#63b8ff" stroke="#63b8ff" points="705.15,-60.44 696.13,-65.99 706.64,-67.28 705.15,-60.44"/>
</a>
</g>
</g>
<!-- Node13 -->
<g id="Node000013" class="node">
<title>Node13</title>
<g id="a_Node000013"><a xlink:href="registers__window_8cpp.html" target="_top" xlink:title="This file implements a window that displays the contents of all CPU registers.">
<polygon fill="white" stroke="#666666" points="701.5,-30 561.5,-30 561.5,0 701.5,0 701.5,-30"/>
<text text-anchor="start" x="569.5" y="-18" font-family="Helvetica,sans-Serif" font-size="10.00">src/gui/windows/registers</text>
<text text-anchor="middle" x="631.5" y="-7" font-family="Helvetica,sans-Serif" font-size="10.00">_window.cpp</text>
</a>
</g>
</g>
<!-- Node12&#45;&gt;Node13 -->
<g id="edge14_Node000012_Node000013" class="edge">
<title>Node12&#45;&gt;Node13</title>
<g id="a_edge14_Node000012_Node000013"><a xlink:title=" ">
<path fill="none" stroke="#63b8ff" d="M631.5,-55.54C631.5,-46.96 631.5,-37.61 631.5,-30.16"/>
<polygon fill="#63b8ff" stroke="#63b8ff" points="628,-55.8 631.5,-65.8 635,-55.8 628,-55.8"/>
</a>
</g>
</g>
<!-- Node14&#45;&gt;Node8 -->
<g id="edge16_Node000014_Node000008" class="edge">
<title>Node14&#45;&gt;Node8</title>
<g id="a_edge16_Node000014_Node000008"><a xlink:title=" ">
<path fill="none" stroke="#63b8ff" d="M822.98,-61.62C848.55,-49.41 880.94,-33.94 900.67,-24.52"/>
<polygon fill="#63b8ff" stroke="#63b8ff" points="821.42,-58.49 813.91,-65.95 824.44,-64.8 821.42,-58.49"/>
</a>
</g>
</g>
<!-- Node15 -->
<g id="Node000015" class="node">
<title>Node15</title>
<g id="a_Node000015"><a xlink:href="source__code__window_8cpp.html" target="_top" xlink:title="This file implements a window that displays loaded ELF files (disassembled instructions of the source...">
<polygon fill="white" stroke="#666666" points="849.5,-30 719.5,-30 719.5,0 849.5,0 849.5,-30"/>
<text text-anchor="start" x="727.5" y="-18" font-family="Helvetica,sans-Serif" font-size="10.00">src/gui/windows/source</text>
<text text-anchor="middle" x="784.5" y="-7" font-family="Helvetica,sans-Serif" font-size="10.00">_code_window.cpp</text>
</a>
</g>
</g>
<!-- Node14&#45;&gt;Node15 -->
<g id="edge17_Node000014_Node000015" class="edge">
<title>Node14&#45;&gt;Node15</title>
<g id="a_edge17_Node000014_Node000015"><a xlink:title=" ">
<path fill="none" stroke="#63b8ff" d="M784.5,-55.54C784.5,-46.96 784.5,-37.61 784.5,-30.16"/>
<polygon fill="#63b8ff" stroke="#63b8ff" points="781,-55.8 784.5,-65.8 788,-55.8 781,-55.8"/>
</a>
</g>
</g>
<!-- Node16&#45;&gt;Node8 -->
<g id="edge19_Node000016_Node000008" class="edge">
<title>Node16&#45;&gt;Node8</title>
<g id="a_edge19_Node000016_Node000008"><a xlink:title=" ">
<path fill="none" stroke="#63b8ff" d="M922.21,-55.6C921.2,-44.8 920.07,-32.78 919.33,-24.84"/>
<polygon fill="#63b8ff" stroke="#63b8ff" points="918.75,-56.17 923.17,-65.8 925.72,-55.51 918.75,-56.17"/>
</a>
</g>
</g>
<!-- Node17 -->
<g id="Node000017" class="node">
<title>Node17</title>
<g id="a_Node000017"><a xlink:href="top__bar__menu_8cpp.html" target="_top" xlink:title=" ">
<polygon fill="white" stroke="#666666" points="1093,-30 980,-30 980,0 1093,0 1093,-30"/>
<text text-anchor="start" x="988" y="-18" font-family="Helvetica,sans-Serif" font-size="10.00">src/gui/windows/top</text>
<text text-anchor="middle" x="1036.5" y="-7" font-family="Helvetica,sans-Serif" font-size="10.00">_bar_menu.cpp</text>
</a>
</g>
</g>
<!-- Node16&#45;&gt;Node17 -->
<g id="edge20_Node000016_Node000017" class="edge">
<title>Node16&#45;&gt;Node17</title>
<g id="a_edge20_Node000016_Node000017"><a xlink:title=" ">
<path fill="none" stroke="#63b8ff" d="M957.81,-60.97C975.19,-51.03 996.09,-39.09 1011.98,-30.01"/>
<polygon fill="#63b8ff" stroke="#63b8ff" points="956.02,-57.95 949.08,-65.95 959.5,-64.03 956.02,-57.95"/>
</a>
</g>
</g>
<!-- Node18&#45;&gt;Node6 -->
<g id="edge33_Node000018_Node000006" class="edge">
<title>Node18&#45;&gt;Node6</title>
<g id="a_edge33_Node000018_Node000006"><a xlink:title=" ">
<path fill="none" stroke="#63b8ff" d="M1354.55,-187.61C1358.03,-171.67 1363.01,-150.45 1368.5,-132 1372.87,-117.32 1379.14,-100.66 1383.01,-90.75"/>
<polygon fill="#63b8ff" stroke="#63b8ff" points="1351.05,-187.2 1352.39,-197.71 1357.9,-188.66 1351.05,-187.2"/>
</a>
</g>
</g>
<!-- Node19 -->
<g id="Node000019" class="node">
<title>Node19</title>
<g id="a_Node000019"><a xlink:href="auxiliary_8hpp.html" target="_top" xlink:title=" ">
<polygon fill="white" stroke="#666666" points="1675.5,-162 1547.5,-162 1547.5,-132 1675.5,-132 1675.5,-162"/>
<text text-anchor="start" x="1555.5" y="-150" font-family="Helvetica,sans-Serif" font-size="10.00">src/core/peripherals</text>
<text text-anchor="middle" x="1611.5" y="-139" font-family="Helvetica,sans-Serif" font-size="10.00">/auxiliary/auxiliary.hpp</text>
</a>
</g>
</g>
<!-- Node18&#45;&gt;Node19 -->
<g id="edge22_Node000018_Node000019" class="edge">
<title>Node18&#45;&gt;Node19</title>
<g id="a_edge22_Node000018_Node000019"><a xlink:title=" ">
<path fill="none" stroke="#63b8ff" d="M1415.77,-195.81C1458.45,-185.39 1513.37,-171.97 1554.17,-162"/>
<polygon fill="#63b8ff" stroke="#63b8ff" points="1414.91,-192.42 1406.03,-198.19 1416.57,-199.22 1414.91,-192.42"/>
</a>
</g>
</g>
<!-- Node24 -->
<g id="Node000024" class="node">
<title>Node24</title>
<g id="a_Node000024"><a xlink:href="bsc_8hpp.html" target="_top" xlink:title="This file defines the BSC peripheral used in BCM2835.">
<polygon fill="white" stroke="#666666" points="1321,-162 1208,-162 1208,-132 1321,-132 1321,-162"/>
<text text-anchor="start" x="1216" y="-150" font-family="Helvetica,sans-Serif" font-size="10.00">src/core/peripherals</text>
<text text-anchor="middle" x="1264.5" y="-139" font-family="Helvetica,sans-Serif" font-size="10.00">/bsc.hpp</text>
</a>
</g>
</g>
<!-- Node18&#45;&gt;Node24 -->
<g id="edge29_Node000018_Node000024" class="edge">
<title>Node18&#45;&gt;Node24</title>
<g id="a_edge29_Node000018_Node000024"><a xlink:title=" ">
<path fill="none" stroke="#63b8ff" d="M1322.61,-191.75C1309.83,-182.13 1294.86,-170.86 1283.31,-162.16"/>
<polygon fill="#63b8ff" stroke="#63b8ff" points="1320.54,-194.58 1330.64,-197.8 1324.75,-188.99 1320.54,-194.58"/>
</a>
</g>
</g>
<!-- Node26 -->
<g id="Node000026" class="node">
<title>Node26</title>
<g id="a_Node000026"><a xlink:href="gpio_8cpp.html" target="_top" xlink:title="This file implements the GPIO controller used in BCM2835 (defined in gpio.hpp).">
<polygon fill="white" stroke="#666666" points="1491,-162 1378,-162 1378,-132 1491,-132 1491,-162"/>
<text text-anchor="start" x="1386" y="-150" font-family="Helvetica,sans-Serif" font-size="10.00">src/core/peripherals</text>
<text text-anchor="middle" x="1434.5" y="-139" font-family="Helvetica,sans-Serif" font-size="10.00">/gpio.cpp</text>
</a>
</g>
</g>
<!-- Node18&#45;&gt;Node26 -->
<g id="edge32_Node000018_Node000026" class="edge">
<title>Node18&#45;&gt;Node26</title>
<g id="a_edge32_Node000018_Node000026"><a xlink:title=" ">
<path fill="none" stroke="#63b8ff" d="M1376.39,-191.75C1389.17,-182.13 1404.14,-170.86 1415.69,-162.16"/>
<polygon fill="#63b8ff" stroke="#63b8ff" points="1374.25,-188.99 1368.36,-197.8 1378.46,-194.58 1374.25,-188.99"/>
</a>
</g>
</g>
<!-- Node27 -->
<g id="Node000027" class="node">
<title>Node27</title>
<g id="a_Node000027"><a xlink:href="gpio__window_8hpp.html" target="_top" xlink:title="This file defines a window that visualizes the states and information about GPIO pins.">
<polygon fill="white" stroke="#666666" points="1189.5,-162 1037.5,-162 1037.5,-132 1189.5,-132 1189.5,-162"/>
<text text-anchor="start" x="1045.5" y="-150" font-family="Helvetica,sans-Serif" font-size="10.00">src/gui/windows/peripherals</text>
<text text-anchor="middle" x="1113.5" y="-139" font-family="Helvetica,sans-Serif" font-size="10.00">/gpio_window.hpp</text>
</a>
</g>
</g>
<!-- Node18&#45;&gt;Node27 -->
<g id="edge34_Node000018_Node000027" class="edge">
<title>Node18&#45;&gt;Node27</title>
<g id="a_edge34_Node000018_Node000027"><a xlink:title=" ">
<path fill="none" stroke="#63b8ff" d="M1287.75,-195.25C1249.62,-184.91 1201.26,-171.8 1165.17,-162.01"/>
<polygon fill="#63b8ff" stroke="#63b8ff" points="1287.14,-198.72 1297.71,-197.95 1288.97,-191.96 1287.14,-198.72"/>
</a>
</g>
</g>
<!-- Node19&#45;&gt;Node6 -->
<g id="edge25_Node000019_Node000006" class="edge">
<title>Node19&#45;&gt;Node6</title>
<g id="a_edge25_Node000019_Node000006"><a xlink:title=" ">
<path fill="none" stroke="#63b8ff" d="M1552.46,-129.21C1508.76,-116.78 1451.03,-100.35 1416.44,-90.52"/>
<polygon fill="#63b8ff" stroke="#63b8ff" points="1551.55,-132.59 1562.12,-131.95 1553.46,-125.85 1551.55,-132.59"/>
</a>
</g>
</g>
<!-- Node20 -->
<g id="Node000020" class="node">
<title>Node20</title>
<g id="a_Node000020"><a xlink:href="auxiliary_8cpp.html" target="_top" xlink:title=" ">
<polygon fill="white" stroke="#666666" points="1900,-96 1773,-96 1773,-66 1900,-66 1900,-96"/>
<text text-anchor="start" x="1781" y="-84" font-family="Helvetica,sans-Serif" font-size="10.00">src/core/peripherals</text>
<text text-anchor="middle" x="1836.5" y="-73" font-family="Helvetica,sans-Serif" font-size="10.00">/auxiliary/auxiliary.cpp</text>
</a>
</g>
</g>
<!-- Node19&#45;&gt;Node20 -->
<g id="edge23_Node000019_Node000020" class="edge">
<title>Node19&#45;&gt;Node20</title>
<g id="a_edge23_Node000019_Node000020"><a xlink:title=" ">
<path fill="none" stroke="#63b8ff" d="M1670.84,-129.12C1707.12,-118.8 1752.97,-105.76 1787.24,-96.01"/>
<polygon fill="#63b8ff" stroke="#63b8ff" points="1669.54,-125.85 1660.88,-131.95 1671.45,-132.59 1669.54,-125.85"/>
</a>
</g>
</g>
<!-- Node21 -->
<g id="Node000021" class="node">
<title>Node21</title>
<g id="a_Node000021"><a xlink:href="mini__uart_8cpp.html" target="_top" xlink:title="This file implements the Mini UART auxiliary peripheral used in BCM2835.">
<polygon fill="white" stroke="#666666" points="1584.5,-96 1452.5,-96 1452.5,-66 1584.5,-66 1584.5,-96"/>
<text text-anchor="start" x="1460.5" y="-84" font-family="Helvetica,sans-Serif" font-size="10.00">src/core/peripherals</text>
<text text-anchor="middle" x="1518.5" y="-73" font-family="Helvetica,sans-Serif" font-size="10.00">/auxiliary/mini_uart.cpp</text>
</a>
</g>
</g>
<!-- Node19&#45;&gt;Node21 -->
<g id="edge24_Node000019_Node000021" class="edge">
<title>Node19&#45;&gt;Node21</title>
<g id="a_edge24_Node000019_Node000021"><a xlink:title=" ">
<path fill="none" stroke="#63b8ff" d="M1582.48,-126.03C1568.41,-116.34 1551.83,-104.94 1539.08,-96.16"/>
<polygon fill="#63b8ff" stroke="#63b8ff" points="1580.64,-129.01 1590.86,-131.8 1584.61,-123.24 1580.64,-129.01"/>
</a>
</g>
</g>
<!-- Node22 -->
<g id="Node000022" class="node">
<title>Node22</title>
<g id="a_Node000022"><a xlink:href="aux__window_8hpp.html" target="_top" xlink:title="This file defines a window that visualizes the auxiliaries (UART1 &amp; SPI1, and SPI2) used in BCM2835.">
<polygon fill="white" stroke="#666666" points="1754.5,-96 1602.5,-96 1602.5,-66 1754.5,-66 1754.5,-96"/>
<text text-anchor="start" x="1610.5" y="-84" font-family="Helvetica,sans-Serif" font-size="10.00">src/gui/windows/peripherals</text>
<text text-anchor="middle" x="1678.5" y="-73" font-family="Helvetica,sans-Serif" font-size="10.00">/aux_window.hpp</text>
</a>
</g>
</g>
<!-- Node19&#45;&gt;Node22 -->
<g id="edge26_Node000019_Node000022" class="edge">
<title>Node19&#45;&gt;Node22</title>
<g id="a_edge26_Node000019_Node000022"><a xlink:title=" ">
<path fill="none" stroke="#63b8ff" d="M1633.85,-124.65C1643.67,-115.27 1654.92,-104.53 1663.67,-96.16"/>
<polygon fill="#63b8ff" stroke="#63b8ff" points="1631.18,-122.36 1626.37,-131.8 1636.02,-127.42 1631.18,-122.36"/>
</a>
</g>
</g>
<!-- Node22&#45;&gt;Node8 -->
<g id="edge27_Node000022_Node000008" class="edge">
<title>Node22&#45;&gt;Node8</title>
<g id="a_edge27_Node000022_Node000008"><a xlink:title=" ">
<path fill="none" stroke="#63b8ff" d="M1591.78,-65.9C1316.01,-36.36 1240.95,-73.74 970.5,-30 962.47,-28.7 953.89,-26.67 946.07,-24.55"/>
<polygon fill="#63b8ff" stroke="#63b8ff" points="1591.78,-69.42 1602.1,-67.03 1592.54,-62.46 1591.78,-69.42"/>
</a>
</g>
</g>
<!-- Node23 -->
<g id="Node000023" class="node">
<title>Node23</title>
<g id="a_Node000023"><a xlink:href="aux__window_8cpp.html" target="_top" xlink:title="This file implements a window that visualizes the auxiliaries (UART1 &amp; SPI1, and SPI2) used in BCM283...">
<polygon fill="white" stroke="#666666" points="1754.5,-30 1602.5,-30 1602.5,0 1754.5,0 1754.5,-30"/>
<text text-anchor="start" x="1610.5" y="-18" font-family="Helvetica,sans-Serif" font-size="10.00">src/gui/windows/peripherals</text>
<text text-anchor="middle" x="1678.5" y="-7" font-family="Helvetica,sans-Serif" font-size="10.00">/aux_window.cpp</text>
</a>
</g>
</g>
<!-- Node22&#45;&gt;Node23 -->
<g id="edge28_Node000022_Node000023" class="edge">
<title>Node22&#45;&gt;Node23</title>
<g id="a_edge28_Node000022_Node000023"><a xlink:title=" ">
<path fill="none" stroke="#63b8ff" d="M1678.5,-55.54C1678.5,-46.96 1678.5,-37.61 1678.5,-30.16"/>
<polygon fill="#63b8ff" stroke="#63b8ff" points="1675,-55.8 1678.5,-65.8 1682,-55.8 1675,-55.8"/>
</a>
</g>
</g>
<!-- Node24&#45;&gt;Node6 -->
<g id="edge31_Node000024_Node000006" class="edge">
<title>Node24&#45;&gt;Node6</title>
<g id="a_edge31_Node000024_Node000006"><a xlink:title=" ">
<path fill="none" stroke="#63b8ff" d="M1300.15,-127.3C1323.33,-115.14 1352.46,-99.86 1370.26,-90.52"/>
<polygon fill="#63b8ff" stroke="#63b8ff" points="1298.5,-124.21 1291.27,-131.95 1301.75,-130.41 1298.5,-124.21"/>
</a>
</g>
</g>
<!-- Node25 -->
<g id="Node000025" class="node">
<title>Node25</title>
<g id="a_Node000025"><a xlink:href="bsc_8cpp.html" target="_top" xlink:title="This file implements the BSC peripheral used in BCM2835.">
<polygon fill="white" stroke="#666666" points="1321,-96 1208,-96 1208,-66 1321,-66 1321,-96"/>
<text text-anchor="start" x="1216" y="-84" font-family="Helvetica,sans-Serif" font-size="10.00">src/core/peripherals</text>
<text text-anchor="middle" x="1264.5" y="-73" font-family="Helvetica,sans-Serif" font-size="10.00">/bsc.cpp</text>
</a>
</g>
</g>
<!-- Node24&#45;&gt;Node25 -->
<g id="edge30_Node000024_Node000025" class="edge">
<title>Node24&#45;&gt;Node25</title>
<g id="a_edge30_Node000024_Node000025"><a xlink:title=" ">
<path fill="none" stroke="#63b8ff" d="M1264.5,-121.54C1264.5,-112.96 1264.5,-103.61 1264.5,-96.16"/>
<polygon fill="#63b8ff" stroke="#63b8ff" points="1261,-121.8 1264.5,-131.8 1268,-121.8 1261,-121.8"/>
</a>
</g>
</g>
<!-- Node27&#45;&gt;Node8 -->
<g id="edge35_Node000027_Node000008" class="edge">
<title>Node27&#45;&gt;Node8</title>
<g id="a_edge35_Node000027_Node000008"><a xlink:title=" ">
<path fill="none" stroke="#63b8ff" d="M1078.86,-126.92C1063.2,-117.97 1044.63,-106.89 1028.5,-96 1010.37,-83.77 1007.11,-78.97 989.5,-66 969.22,-51.07 945.19,-34.34 930.93,-24.52"/>
<polygon fill="#63b8ff" stroke="#63b8ff" points="1077.27,-130.04 1087.7,-131.93 1080.72,-123.95 1077.27,-130.04"/>
</a>
</g>
</g>
<!-- Node28 -->
<g id="Node000028" class="node">
<title>Node28</title>
<g id="a_Node000028"><a xlink:href="gpio__window_8cpp.html" target="_top" xlink:title="This file implements a window that visualizes the states and information about GPIO pins.">
<polygon fill="white" stroke="#666666" points="1189.5,-96 1037.5,-96 1037.5,-66 1189.5,-66 1189.5,-96"/>
<text text-anchor="start" x="1045.5" y="-84" font-family="Helvetica,sans-Serif" font-size="10.00">src/gui/windows/peripherals</text>
<text text-anchor="middle" x="1113.5" y="-73" font-family="Helvetica,sans-Serif" font-size="10.00">/gpio_window.cpp</text>
</a>
</g>
</g>
<!-- Node27&#45;&gt;Node28 -->
<g id="edge36_Node000027_Node000028" class="edge">
<title>Node27&#45;&gt;Node28</title>
<g id="a_edge36_Node000027_Node000028"><a xlink:title=" ">
<path fill="none" stroke="#63b8ff" d="M1113.5,-121.54C1113.5,-112.96 1113.5,-103.61 1113.5,-96.16"/>
<polygon fill="#63b8ff" stroke="#63b8ff" points="1110,-121.8 1113.5,-131.8 1117,-121.8 1110,-121.8"/>
</a>
</g>
</g>
</g>
</svg>
