<?xml version="1.0" encoding="UTF-8" standalone="no"?>
<!DOCTYPE svg PUBLIC "-//W3C//DTD SVG 1.1//EN"
 "http://www.w3.org/Graphics/SVG/1.1/DTD/svg11.dtd">
<!-- Generated by graphviz version 2.43.0 (0)
 -->
<!-- Title: include/zero_mate/external_peripheral.hpp Pages: 1 -->
<svg width="1908pt" height="307pt"
 viewBox="0.00 0.00 1908.00 307.00" xmlns="http://www.w3.org/2000/svg" xmlns:xlink="http://www.w3.org/1999/xlink">
<g id="graph0" class="graph" transform="scale(1 1) rotate(0) translate(4 303)">
<title>include/zero_mate/external_peripheral.hpp</title>
<!-- Node1 -->
<g id="node1" class="node">
<title>Node1</title>
<g id="a_node1"><a xlink:title="This file defines an interface for external peripherals that can be attached to the system via GPIO p...">
<polygon fill="#bfbfbf" stroke="black" points="1274.5,-268.5 1274.5,-298.5 1424.5,-298.5 1424.5,-268.5 1274.5,-268.5"/>
<text text-anchor="start" x="1282.5" y="-286.5" font-family="Helvetica,sans-Serif" font-size="10.00">include/zero_mate/external</text>
<text text-anchor="middle" x="1349.5" y="-275.5" font-family="Helvetica,sans-Serif" font-size="10.00">_peripheral.hpp</text>
</a>
</g>
</g>
<!-- Node2 -->
<g id="node2" class="node">
<title>Node2</title>
<g id="a_node2"><a xlink:href="core_8hpp.html" target="_top" xlink:title="This file defines a class that represents a CPU core (arm1176jzf_s).">
<polygon fill="none" stroke="black" points="575,-134.5 575,-164.5 688,-164.5 688,-134.5 575,-134.5"/>
<text text-anchor="start" x="583" y="-152.5" font-family="Helvetica,sans-Serif" font-size="10.00">src/core/arm1176jzf</text>
<text text-anchor="middle" x="631.5" y="-141.5" font-family="Helvetica,sans-Serif" font-size="10.00">_s/core.hpp</text>
</a>
</g>
</g>
<!-- Node1&#45;&gt;Node2 -->
<g id="edge1" class="edge">
<title>Node1&#45;&gt;Node2</title>
<path fill="none" stroke="midnightblue" d="M1264.38,-266.85C1115.99,-239.57 813.83,-184.02 688.23,-160.93"/>
<polygon fill="midnightblue" stroke="midnightblue" points="1263.89,-270.32 1274.36,-268.69 1265.15,-263.43 1263.89,-270.32"/>
</g>
<!-- Node6 -->
<g id="node6" class="node">
<title>Node6</title>
<g id="a_node6"><a xlink:href="soc_8hpp.html" target="_top" xlink:title=" ">
<polygon fill="none" stroke="black" points="1339,-73 1339,-92 1434,-92 1434,-73 1339,-73"/>
<text text-anchor="middle" x="1386.5" y="-80" font-family="Helvetica,sans-Serif" font-size="10.00">src/core/soc.hpp</text>
</a>
</g>
</g>
<!-- Node1&#45;&gt;Node6 -->
<g id="edge37" class="edge">
<title>Node1&#45;&gt;Node6</title>
<path fill="none" stroke="midnightblue" d="M1390.58,-263.66C1426.76,-244.54 1477.1,-211.17 1499.5,-165 1505.51,-152.6 1507,-145.56 1499.5,-134 1489.71,-118.9 1444.35,-101.94 1414.17,-92.02"/>
<polygon fill="midnightblue" stroke="midnightblue" points="1388.55,-260.76 1381.24,-268.44 1391.74,-266.99 1388.55,-260.76"/>
</g>
<!-- Node18 -->
<g id="node18" class="node">
<title>Node18</title>
<g id="a_node18"><a xlink:href="gpio_8hpp.html" target="_top" xlink:title="This file defines the GPIO controller used in BCM2835.">
<polygon fill="none" stroke="black" points="1293,-201.5 1293,-231.5 1406,-231.5 1406,-201.5 1293,-201.5"/>
<text text-anchor="start" x="1301" y="-219.5" font-family="Helvetica,sans-Serif" font-size="10.00">src/core/peripherals</text>
<text text-anchor="middle" x="1349.5" y="-208.5" font-family="Helvetica,sans-Serif" font-size="10.00">/gpio.hpp</text>
</a>
</g>
</g>
<!-- Node1&#45;&gt;Node18 -->
<g id="edge21" class="edge">
<title>Node1&#45;&gt;Node18</title>
<path fill="none" stroke="midnightblue" d="M1349.5,-258.11C1349.5,-249.15 1349.5,-239.32 1349.5,-231.58"/>
<polygon fill="midnightblue" stroke="midnightblue" points="1346,-258.4 1349.5,-268.4 1353,-258.4 1346,-258.4"/>
</g>
<!-- Node3 -->
<g id="node3" class="node">
<title>Node3</title>
<g id="a_node3"><a xlink:href="core_8cpp.html" target="_top" xlink:title="This file implements the CCPU_Core class defined in core.hpp.">
<polygon fill="none" stroke="black" points="0,-67.5 0,-97.5 113,-97.5 113,-67.5 0,-67.5"/>
<text text-anchor="start" x="8" y="-85.5" font-family="Helvetica,sans-Serif" font-size="10.00">src/core/arm1176jzf</text>
<text text-anchor="middle" x="56.5" y="-74.5" font-family="Helvetica,sans-Serif" font-size="10.00">_s/core.cpp</text>
</a>
</g>
</g>
<!-- Node2&#45;&gt;Node3 -->
<g id="edge2" class="edge">
<title>Node2&#45;&gt;Node3</title>
<path fill="none" stroke="midnightblue" d="M564.71,-144.38C467.13,-137.8 280.05,-123.03 122.5,-98 119.49,-97.52 116.41,-96.99 113.3,-96.42"/>
<polygon fill="midnightblue" stroke="midnightblue" points="564.52,-147.88 574.73,-145.05 564.99,-140.89 564.52,-147.88"/>
</g>
<!-- Node4 -->
<g id="node4" class="node">
<title>Node4</title>
<g id="a_node4"><a xlink:href="coprocessor_8cpp.html" target="_top" xlink:title="This file implements the common functionality of a general interface of a coprocessor.">
<polygon fill="none" stroke="black" points="131.5,-67.5 131.5,-97.5 253.5,-97.5 253.5,-67.5 131.5,-67.5"/>
<text text-anchor="start" x="139.5" y="-85.5" font-family="Helvetica,sans-Serif" font-size="10.00">src/core/coprocessors</text>
<text text-anchor="middle" x="192.5" y="-74.5" font-family="Helvetica,sans-Serif" font-size="10.00">/coprocessor.cpp</text>
</a>
</g>
</g>
<!-- Node2&#45;&gt;Node4 -->
<g id="edge3" class="edge">
<title>Node2&#45;&gt;Node4</title>
<path fill="none" stroke="midnightblue" d="M564.62,-140.74C490.53,-131.82 367.64,-116.06 262.5,-98 259.56,-97.5 256.56,-96.96 253.54,-96.4"/>
<polygon fill="midnightblue" stroke="midnightblue" points="564.39,-144.24 574.74,-141.95 565.23,-137.29 564.39,-144.24"/>
</g>
<!-- Node5 -->
<g id="node5" class="node">
<title>Node5</title>
<g id="a_node5"><a xlink:href="cp10_8cpp.html" target="_top" xlink:title="This file implements coprocessor CP10 (single&#45;precision FPU).">
<polygon fill="none" stroke="black" points="271.5,-67.5 271.5,-97.5 393.5,-97.5 393.5,-67.5 271.5,-67.5"/>
<text text-anchor="start" x="279.5" y="-85.5" font-family="Helvetica,sans-Serif" font-size="10.00">src/core/coprocessors</text>
<text text-anchor="middle" x="332.5" y="-74.5" font-family="Helvetica,sans-Serif" font-size="10.00">/cp10/cp10.cpp</text>
</a>
</g>
</g>
<!-- Node2&#45;&gt;Node5 -->
<g id="edge4" class="edge">
<title>Node2&#45;&gt;Node5</title>
<path fill="none" stroke="midnightblue" d="M564.93,-134.03C513.74,-122.9 443.56,-107.64 393.75,-96.81"/>
<polygon fill="midnightblue" stroke="midnightblue" points="564.39,-137.49 574.91,-136.2 565.88,-130.65 564.39,-137.49"/>
</g>
<!-- Node2&#45;&gt;Node6 -->
<g id="edge5" class="edge">
<title>Node2&#45;&gt;Node6</title>
<path fill="none" stroke="midnightblue" d="M698.62,-147.58C823.56,-145 1099.98,-135.2 1329.5,-98 1338.57,-96.53 1348.31,-94.3 1357.12,-92.03"/>
<polygon fill="midnightblue" stroke="midnightblue" points="698.37,-144.09 688.44,-147.78 698.51,-151.08 698.37,-144.09"/>
</g>
<!-- Node10 -->
<g id="node10" class="node">
<title>Node10</title>
<g id="a_node10"><a xlink:href="control__window_8hpp.html" target="_top" xlink:title="This file defines a window that allows the user to control CPU execution.">
<polygon fill="none" stroke="black" points="412,-67.5 412,-97.5 543,-97.5 543,-67.5 412,-67.5"/>
<text text-anchor="start" x="420" y="-85.5" font-family="Helvetica,sans-Serif" font-size="10.00">src/gui/windows/control</text>
<text text-anchor="middle" x="477.5" y="-74.5" font-family="Helvetica,sans-Serif" font-size="10.00">_window.hpp</text>
</a>
</g>
</g>
<!-- Node2&#45;&gt;Node10 -->
<g id="edge9" class="edge">
<title>Node2&#45;&gt;Node10</title>
<path fill="none" stroke="midnightblue" d="M588.63,-130.41C564.05,-120.03 533.64,-107.2 510.85,-97.58"/>
<polygon fill="midnightblue" stroke="midnightblue" points="587.51,-133.73 598.08,-134.4 590.23,-127.28 587.51,-133.73"/>
</g>
<!-- Node12 -->
<g id="node12" class="node">
<title>Node12</title>
<g id="a_node12"><a xlink:href="registers__window_8hpp.html" target="_top" xlink:title="This file defines a window that displays the contents of all CPU registers.">
<polygon fill="none" stroke="black" points="561.5,-67.5 561.5,-97.5 701.5,-97.5 701.5,-67.5 561.5,-67.5"/>
<text text-anchor="start" x="569.5" y="-85.5" font-family="Helvetica,sans-Serif" font-size="10.00">src/gui/windows/registers</text>
<text text-anchor="middle" x="631.5" y="-74.5" font-family="Helvetica,sans-Serif" font-size="10.00">_window.hpp</text>
</a>
</g>
</g>
<!-- Node2&#45;&gt;Node12 -->
<g id="edge12" class="edge">
<title>Node2&#45;&gt;Node12</title>
<path fill="none" stroke="midnightblue" d="M631.5,-124.11C631.5,-115.15 631.5,-105.32 631.5,-97.58"/>
<polygon fill="midnightblue" stroke="midnightblue" points="628,-124.4 631.5,-134.4 635,-124.4 628,-124.4"/>
</g>
<!-- Node14 -->
<g id="node14" class="node">
<title>Node14</title>
<g id="a_node14"><a xlink:href="source__code__window_8hpp.html" target="_top" xlink:title="This file defines a window that displays loaded ELF files (disassembled instructions of the source co...">
<polygon fill="none" stroke="black" points="719.5,-67.5 719.5,-97.5 849.5,-97.5 849.5,-67.5 719.5,-67.5"/>
<text text-anchor="start" x="727.5" y="-85.5" font-family="Helvetica,sans-Serif" font-size="10.00">src/gui/windows/source</text>
<text text-anchor="middle" x="784.5" y="-74.5" font-family="Helvetica,sans-Serif" font-size="10.00">_code_window.hpp</text>
</a>
</g>
</g>
<!-- Node2&#45;&gt;Node14 -->
<g id="edge15" class="edge">
<title>Node2&#45;&gt;Node14</title>
<path fill="none" stroke="midnightblue" d="M674.09,-130.41C698.52,-120.03 728.72,-107.2 751.37,-97.58"/>
<polygon fill="midnightblue" stroke="midnightblue" points="672.53,-127.26 664.7,-134.4 675.27,-133.71 672.53,-127.26"/>
</g>
<!-- Node16 -->
<g id="node16" class="node">
<title>Node16</title>
<g id="a_node16"><a xlink:href="top__bar__menu_8hpp.html" target="_top" xlink:title=" ">
<polygon fill="none" stroke="black" points="868,-67.5 868,-97.5 981,-97.5 981,-67.5 868,-67.5"/>
<text text-anchor="start" x="876" y="-85.5" font-family="Helvetica,sans-Serif" font-size="10.00">src/gui/windows/top</text>
<text text-anchor="middle" x="924.5" y="-74.5" font-family="Helvetica,sans-Serif" font-size="10.00">_bar_menu.hpp</text>
</a>
</g>
</g>
<!-- Node2&#45;&gt;Node16 -->
<g id="edge18" class="edge">
<title>Node2&#45;&gt;Node16</title>
<path fill="none" stroke="midnightblue" d="M698.32,-133.68C749.5,-122.32 819.34,-106.83 867.82,-96.07"/>
<polygon fill="midnightblue" stroke="midnightblue" points="697.35,-130.31 688.34,-135.89 698.86,-137.14 697.35,-130.31"/>
</g>
<!-- Node7 -->
<g id="node7" class="node">
<title>Node7</title>
<g id="a_node7"><a xlink:href="soc_8cpp.html" target="_top" xlink:title=" ">
<polygon fill="none" stroke="black" points="1286,-6 1286,-25 1381,-25 1381,-6 1286,-6"/>
<text text-anchor="middle" x="1333.5" y="-13" font-family="Helvetica,sans-Serif" font-size="10.00">src/core/soc.cpp</text>
</a>
</g>
</g>
<!-- Node6&#45;&gt;Node7 -->
<g id="edge6" class="edge">
<title>Node6&#45;&gt;Node7</title>
<path fill="none" stroke="midnightblue" d="M1372.86,-64.77C1362.53,-52.1 1348.75,-35.2 1340.53,-25.13"/>
<polygon fill="midnightblue" stroke="midnightblue" points="1370.32,-67.2 1379.35,-72.73 1375.75,-62.77 1370.32,-67.2"/>
</g>
<!-- Node8 -->
<g id="node8" class="node">
<title>Node8</title>
<g id="a_node8"><a xlink:href="gui_8cpp.html" target="_top" xlink:title="This file implements the main GUI entry function that takes care of creating and rendering all window...">
<polygon fill="none" stroke="black" points="875,-6 875,-25 962,-25 962,-6 875,-6"/>
<text text-anchor="middle" x="918.5" y="-13" font-family="Helvetica,sans-Serif" font-size="10.00">src/gui/gui.cpp</text>
</a>
</g>
</g>
<!-- Node6&#45;&gt;Node8 -->
<g id="edge7" class="edge">
<title>Node6&#45;&gt;Node8</title>
<path fill="none" stroke="midnightblue" d="M1346.49,-70.52C1340.82,-69.2 1335.03,-67.98 1329.5,-67 1171.58,-39.16 1128.09,-60.65 970.5,-31 962.39,-29.48 953.72,-27.29 945.82,-25.07"/>
<polygon fill="midnightblue" stroke="midnightblue" points="1345.96,-74 1356.51,-72.98 1347.63,-67.2 1345.96,-74"/>
</g>
<!-- Node9 -->
<g id="node9" class="node">
<title>Node9</title>
<g id="a_node9"><a xlink:href="main_8cpp.html" target="_top" xlink:title="This file defines and implements the main function of the application.">
<polygon fill="none" stroke="black" points="1399,-6 1399,-25 1478,-25 1478,-6 1399,-6"/>
<text text-anchor="middle" x="1438.5" y="-13" font-family="Helvetica,sans-Serif" font-size="10.00">src/main.cpp</text>
</a>
</g>
</g>
<!-- Node6&#45;&gt;Node9 -->
<g id="edge8" class="edge">
<title>Node6&#45;&gt;Node9</title>
<path fill="none" stroke="midnightblue" d="M1399.88,-64.77C1410.02,-52.1 1423.54,-35.2 1431.6,-25.13"/>
<polygon fill="midnightblue" stroke="midnightblue" points="1397.03,-62.74 1393.51,-72.73 1402.49,-67.11 1397.03,-62.74"/>
</g>
<!-- Node10&#45;&gt;Node8 -->
<g id="edge10" class="edge">
<title>Node10&#45;&gt;Node8</title>
<path fill="none" stroke="midnightblue" d="M553.29,-66.96C689.55,-46.4 726.86,-54.56 858.5,-31 867.57,-29.38 877.32,-27.21 886.27,-25.04"/>
<polygon fill="midnightblue" stroke="midnightblue" points="552.66,-63.52 543.3,-68.49 553.72,-70.44 552.66,-63.52"/>
</g>
<!-- Node11 -->
<g id="node11" class="node">
<title>Node11</title>
<g id="a_node11"><a xlink:href="control__window_8cpp.html" target="_top" xlink:title="This file implements a window that allows the user to control CPU execution.">
<polygon fill="none" stroke="black" points="412,-0.5 412,-30.5 543,-30.5 543,-0.5 412,-0.5"/>
<text text-anchor="start" x="420" y="-18.5" font-family="Helvetica,sans-Serif" font-size="10.00">src/gui/windows/control</text>
<text text-anchor="middle" x="477.5" y="-7.5" font-family="Helvetica,sans-Serif" font-size="10.00">_window.cpp</text>
</a>
</g>
</g>
<!-- Node10&#45;&gt;Node11 -->
<g id="edge11" class="edge">
<title>Node10&#45;&gt;Node11</title>
<path fill="none" stroke="midnightblue" d="M477.5,-57.11C477.5,-48.15 477.5,-38.32 477.5,-30.58"/>
<polygon fill="midnightblue" stroke="midnightblue" points="474,-57.4 477.5,-67.4 481,-57.4 474,-57.4"/>
</g>
<!-- Node12&#45;&gt;Node8 -->
<g id="edge13" class="edge">
<title>Node12&#45;&gt;Node8</title>
<path fill="none" stroke="midnightblue" d="M705.98,-65.29C750.32,-55.55 807.68,-42.79 858.5,-31 866.64,-29.11 875.39,-27.03 883.63,-25.04"/>
<polygon fill="midnightblue" stroke="midnightblue" points="705.17,-61.88 696.15,-67.45 706.67,-68.72 705.17,-61.88"/>
</g>
<!-- Node13 -->
<g id="node13" class="node">
<title>Node13</title>
<g id="a_node13"><a xlink:href="registers__window_8cpp.html" target="_top" xlink:title="This file implements a window that displays the contents of all CPU registers.">
<polygon fill="none" stroke="black" points="561.5,-0.5 561.5,-30.5 701.5,-30.5 701.5,-0.5 561.5,-0.5"/>
<text text-anchor="start" x="569.5" y="-18.5" font-family="Helvetica,sans-Serif" font-size="10.00">src/gui/windows/registers</text>
<text text-anchor="middle" x="631.5" y="-7.5" font-family="Helvetica,sans-Serif" font-size="10.00">_window.cpp</text>
</a>
</g>
</g>
<!-- Node12&#45;&gt;Node13 -->
<g id="edge14" class="edge">
<title>Node12&#45;&gt;Node13</title>
<path fill="none" stroke="midnightblue" d="M631.5,-57.11C631.5,-48.15 631.5,-38.32 631.5,-30.58"/>
<polygon fill="midnightblue" stroke="midnightblue" points="628,-57.4 631.5,-67.4 635,-57.4 628,-57.4"/>
</g>
<!-- Node14&#45;&gt;Node8 -->
<g id="edge16" class="edge">
<title>Node14&#45;&gt;Node8</title>
<path fill="none" stroke="midnightblue" d="M822.71,-62.97C848.45,-50.48 881.19,-34.6 900.96,-25.01"/>
<polygon fill="midnightblue" stroke="midnightblue" points="821.05,-59.88 813.58,-67.4 824.1,-66.18 821.05,-59.88"/>
</g>
<!-- Node15 -->
<g id="node15" class="node">
<title>Node15</title>
<g id="a_node15"><a xlink:href="source__code__window_8cpp.html" target="_top" xlink:title="This file implements a window that displays loaded ELF files (disassembled instructions of the source...">
<polygon fill="none" stroke="black" points="719.5,-0.5 719.5,-30.5 849.5,-30.5 849.5,-0.5 719.5,-0.5"/>
<text text-anchor="start" x="727.5" y="-18.5" font-family="Helvetica,sans-Serif" font-size="10.00">src/gui/windows/source</text>
<text text-anchor="middle" x="784.5" y="-7.5" font-family="Helvetica,sans-Serif" font-size="10.00">_code_window.cpp</text>
</a>
</g>
</g>
<!-- Node14&#45;&gt;Node15 -->
<g id="edge17" class="edge">
<title>Node14&#45;&gt;Node15</title>
<path fill="none" stroke="midnightblue" d="M784.5,-57.11C784.5,-48.15 784.5,-38.32 784.5,-30.58"/>
<polygon fill="midnightblue" stroke="midnightblue" points="781,-57.4 784.5,-67.4 788,-57.4 781,-57.4"/>
</g>
<!-- Node16&#45;&gt;Node8 -->
<g id="edge19" class="edge">
<title>Node16&#45;&gt;Node8</title>
<path fill="none" stroke="midnightblue" d="M922.26,-57.25C921.22,-46.02 920.06,-33.38 919.3,-25.19"/>
<polygon fill="midnightblue" stroke="midnightblue" points="918.79,-57.76 923.2,-67.4 925.76,-57.12 918.79,-57.76"/>
</g>
<!-- Node17 -->
<g id="node17" class="node">
<title>Node17</title>
<g id="a_node17"><a xlink:href="top__bar__menu_8cpp.html" target="_top" xlink:title=" ">
<polygon fill="none" stroke="black" points="980,-0.5 980,-30.5 1093,-30.5 1093,-0.5 980,-0.5"/>
<text text-anchor="start" x="988" y="-18.5" font-family="Helvetica,sans-Serif" font-size="10.00">src/gui/windows/top</text>
<text text-anchor="middle" x="1036.5" y="-7.5" font-family="Helvetica,sans-Serif" font-size="10.00">_bar_menu.cpp</text>
</a>
</g>
</g>
<!-- Node16&#45;&gt;Node17 -->
<g id="edge20" class="edge">
<title>Node16&#45;&gt;Node17</title>
<path fill="none" stroke="midnightblue" d="M957.59,-62.3C975.12,-52.12 996.26,-39.85 1012.25,-30.58"/>
<polygon fill="midnightblue" stroke="midnightblue" points="955.69,-59.35 948.8,-67.4 959.21,-65.4 955.69,-59.35"/>
</g>
<!-- Node18&#45;&gt;Node6 -->
<g id="edge33" class="edge">
<title>Node18&#45;&gt;Node6</title>
<path fill="none" stroke="midnightblue" d="M1354.36,-191.42C1357.84,-175.09 1362.89,-153.1 1368.5,-134 1372.85,-119.18 1379.13,-102.34 1383,-92.34"/>
<polygon fill="midnightblue" stroke="midnightblue" points="1350.93,-190.73 1352.31,-201.24 1357.78,-192.17 1350.93,-190.73"/>
</g>
<!-- Node19 -->
<g id="node19" class="node">
<title>Node19</title>
<g id="a_node19"><a xlink:href="auxiliary_8hpp.html" target="_top" xlink:title=" ">
<polygon fill="none" stroke="black" points="1547.5,-134.5 1547.5,-164.5 1675.5,-164.5 1675.5,-134.5 1547.5,-134.5"/>
<text text-anchor="start" x="1555.5" y="-152.5" font-family="Helvetica,sans-Serif" font-size="10.00">src/core/peripherals</text>
<text text-anchor="middle" x="1611.5" y="-141.5" font-family="Helvetica,sans-Serif" font-size="10.00">/auxiliary/auxiliary.hpp</text>
</a>
</g>
</g>
<!-- Node18&#45;&gt;Node19 -->
<g id="edge22" class="edge">
<title>Node18&#45;&gt;Node19</title>
<path fill="none" stroke="midnightblue" d="M1415.8,-199.05C1458.63,-188.43 1513.79,-174.74 1554.62,-164.61"/>
<polygon fill="midnightblue" stroke="midnightblue" points="1414.89,-195.67 1406.03,-201.48 1416.58,-202.47 1414.89,-195.67"/>
</g>
<!-- Node24 -->
<g id="node24" class="node">
<title>Node24</title>
<g id="a_node24"><a xlink:href="bsc_8hpp.html" target="_top" xlink:title="This file defines the BSC peripheral used in BCM2835.">
<polygon fill="none" stroke="black" points="1208,-134.5 1208,-164.5 1321,-164.5 1321,-134.5 1208,-134.5"/>
<text text-anchor="start" x="1216" y="-152.5" font-family="Helvetica,sans-Serif" font-size="10.00">src/core/peripherals</text>
<text text-anchor="middle" x="1264.5" y="-141.5" font-family="Helvetica,sans-Serif" font-size="10.00">/bsc.hpp</text>
</a>
</g>
</g>
<!-- Node18&#45;&gt;Node24 -->
<g id="edge29" class="edge">
<title>Node18&#45;&gt;Node24</title>
<path fill="none" stroke="midnightblue" d="M1322.91,-195.17C1309.91,-185.23 1294.6,-173.51 1282.91,-164.58"/>
<polygon fill="midnightblue" stroke="midnightblue" points="1320.99,-198.1 1331.06,-201.4 1325.24,-192.54 1320.99,-198.1"/>
</g>
<!-- Node26 -->
<g id="node26" class="node">
<title>Node26</title>
<g id="a_node26"><a xlink:href="gpio_8cpp.html" target="_top" xlink:title="This file implements the GPIO controller used in BCM2835 (defined in gpio.hpp).">
<polygon fill="none" stroke="black" points="1378,-134.5 1378,-164.5 1491,-164.5 1491,-134.5 1378,-134.5"/>
<text text-anchor="start" x="1386" y="-152.5" font-family="Helvetica,sans-Serif" font-size="10.00">src/core/peripherals</text>
<text text-anchor="middle" x="1434.5" y="-141.5" font-family="Helvetica,sans-Serif" font-size="10.00">/gpio.cpp</text>
</a>
</g>
</g>
<!-- Node18&#45;&gt;Node26 -->
<g id="edge32" class="edge">
<title>Node18&#45;&gt;Node26</title>
<path fill="none" stroke="midnightblue" d="M1376.09,-195.17C1389.09,-185.23 1404.4,-173.51 1416.09,-164.58"/>
<polygon fill="midnightblue" stroke="midnightblue" points="1373.76,-192.54 1367.94,-201.4 1378.01,-198.1 1373.76,-192.54"/>
</g>
<!-- Node27 -->
<g id="node27" class="node">
<title>Node27</title>
<g id="a_node27"><a xlink:href="gpio__window_8hpp.html" target="_top" xlink:title="This file defines a window that visualizes the states and information about GPIO pins.">
<polygon fill="none" stroke="black" points="1037.5,-134.5 1037.5,-164.5 1189.5,-164.5 1189.5,-134.5 1037.5,-134.5"/>
<text text-anchor="start" x="1045.5" y="-152.5" font-family="Helvetica,sans-Serif" font-size="10.00">src/gui/windows/peripherals</text>
<text text-anchor="middle" x="1113.5" y="-141.5" font-family="Helvetica,sans-Serif" font-size="10.00">/gpio_window.hpp</text>
</a>
</g>
</g>
<!-- Node18&#45;&gt;Node27 -->
<g id="edge34" class="edge">
<title>Node18&#45;&gt;Node27</title>
<path fill="none" stroke="midnightblue" d="M1288.56,-198.71C1250.15,-188.14 1201.13,-174.63 1164.73,-164.61"/>
<polygon fill="midnightblue" stroke="midnightblue" points="1288.01,-202.19 1298.58,-201.48 1289.87,-195.45 1288.01,-202.19"/>
</g>
<!-- Node19&#45;&gt;Node6 -->
<g id="edge25" class="edge">
<title>Node19&#45;&gt;Node6</title>
<path fill="none" stroke="midnightblue" d="M1553.24,-131.67C1509.27,-118.97 1450.76,-102.06 1416.02,-92.03"/>
<polygon fill="midnightblue" stroke="midnightblue" points="1552.38,-135.06 1562.96,-134.48 1554.32,-128.34 1552.38,-135.06"/>
</g>
<!-- Node20 -->
<g id="node20" class="node">
<title>Node20</title>
<g id="a_node20"><a xlink:href="auxiliary_8cpp.html" target="_top" xlink:title=" ">
<polygon fill="none" stroke="black" points="1773,-67.5 1773,-97.5 1900,-97.5 1900,-67.5 1773,-67.5"/>
<text text-anchor="start" x="1781" y="-85.5" font-family="Helvetica,sans-Serif" font-size="10.00">src/core/peripherals</text>
<text text-anchor="middle" x="1836.5" y="-74.5" font-family="Helvetica,sans-Serif" font-size="10.00">/auxiliary/auxiliary.cpp</text>
</a>
</g>
</g>
<!-- Node19&#45;&gt;Node20 -->
<g id="edge23" class="edge">
<title>Node19&#45;&gt;Node20</title>
<path fill="none" stroke="midnightblue" d="M1670.07,-131.58C1706.61,-121.02 1753.1,-107.59 1787.65,-97.61"/>
<polygon fill="midnightblue" stroke="midnightblue" points="1668.68,-128.34 1660.04,-134.48 1670.62,-135.06 1668.68,-128.34"/>
</g>
<!-- Node21 -->
<g id="node21" class="node">
<title>Node21</title>
<g id="a_node21"><a xlink:href="mini__uart_8cpp.html" target="_top" xlink:title="This file implements the Mini UART auxiliary peripheral used in BCM2835.">
<polygon fill="none" stroke="black" points="1452.5,-67.5 1452.5,-97.5 1584.5,-97.5 1584.5,-67.5 1452.5,-67.5"/>
<text text-anchor="start" x="1460.5" y="-85.5" font-family="Helvetica,sans-Serif" font-size="10.00">src/core/peripherals</text>
<text text-anchor="middle" x="1518.5" y="-74.5" font-family="Helvetica,sans-Serif" font-size="10.00">/auxiliary/mini_uart.cpp</text>
</a>
</g>
</g>
<!-- Node19&#45;&gt;Node21 -->
<g id="edge24" class="edge">
<title>Node19&#45;&gt;Node21</title>
<path fill="none" stroke="midnightblue" d="M1582.81,-128.45C1568.51,-118.45 1551.55,-106.6 1538.64,-97.58"/>
<polygon fill="midnightblue" stroke="midnightblue" points="1581.12,-131.54 1591.32,-134.4 1585.13,-125.8 1581.12,-131.54"/>
</g>
<!-- Node22 -->
<g id="node22" class="node">
<title>Node22</title>
<g id="a_node22"><a xlink:href="aux__window_8hpp.html" target="_top" xlink:title="This file defines a window that visualizes the auxiliaries (UART1 &amp; SPI1, and SPI2) used in BCM2835.">
<polygon fill="none" stroke="black" points="1602.5,-67.5 1602.5,-97.5 1754.5,-97.5 1754.5,-67.5 1602.5,-67.5"/>
<text text-anchor="start" x="1610.5" y="-85.5" font-family="Helvetica,sans-Serif" font-size="10.00">src/gui/windows/peripherals</text>
<text text-anchor="middle" x="1678.5" y="-74.5" font-family="Helvetica,sans-Serif" font-size="10.00">/aux_window.hpp</text>
</a>
</g>
</g>
<!-- Node19&#45;&gt;Node22 -->
<g id="edge26" class="edge">
<title>Node19&#45;&gt;Node22</title>
<path fill="none" stroke="midnightblue" d="M1633.34,-127.31C1643.39,-117.56 1655.04,-106.26 1663.99,-97.58"/>
<polygon fill="midnightblue" stroke="midnightblue" points="1630.78,-124.92 1626.04,-134.4 1635.65,-129.94 1630.78,-124.92"/>
</g>
<!-- Node22&#45;&gt;Node8 -->
<g id="edge27" class="edge">
<title>Node22&#45;&gt;Node8</title>
<path fill="none" stroke="midnightblue" d="M1591.79,-66.9C1316.1,-36.62 1240.75,-75.95 970.5,-31 962.09,-29.6 953.08,-27.36 944.97,-25.06"/>
<polygon fill="midnightblue" stroke="midnightblue" points="1591.77,-70.42 1602.1,-68.05 1592.55,-63.46 1591.77,-70.42"/>
</g>
<!-- Node23 -->
<g id="node23" class="node">
<title>Node23</title>
<g id="a_node23"><a xlink:href="aux__window_8cpp.html" target="_top" xlink:title="This file implements a window that visualizes the auxiliaries (UART1 &amp; SPI1, and SPI2) used in BCM283...">
<polygon fill="none" stroke="black" points="1602.5,-0.5 1602.5,-30.5 1754.5,-30.5 1754.5,-0.5 1602.5,-0.5"/>
<text text-anchor="start" x="1610.5" y="-18.5" font-family="Helvetica,sans-Serif" font-size="10.00">src/gui/windows/peripherals</text>
<text text-anchor="middle" x="1678.5" y="-7.5" font-family="Helvetica,sans-Serif" font-size="10.00">/aux_window.cpp</text>
</a>
</g>
</g>
<!-- Node22&#45;&gt;Node23 -->
<g id="edge28" class="edge">
<title>Node22&#45;&gt;Node23</title>
<path fill="none" stroke="midnightblue" d="M1678.5,-57.11C1678.5,-48.15 1678.5,-38.32 1678.5,-30.58"/>
<polygon fill="midnightblue" stroke="midnightblue" points="1675,-57.4 1678.5,-67.4 1682,-57.4 1675,-57.4"/>
</g>
<!-- Node24&#45;&gt;Node6 -->
<g id="edge31" class="edge">
<title>Node24&#45;&gt;Node6</title>
<path fill="none" stroke="midnightblue" d="M1299.9,-129.64C1323.24,-117.2 1352.69,-101.51 1370.53,-92.01"/>
<polygon fill="midnightblue" stroke="midnightblue" points="1298.15,-126.6 1290.97,-134.4 1301.44,-132.78 1298.15,-126.6"/>
</g>
<!-- Node25 -->
<g id="node25" class="node">
<title>Node25</title>
<g id="a_node25"><a xlink:href="bsc_8cpp.html" target="_top" xlink:title="This file implements the BSC peripheral used in BCM2835.">
<polygon fill="none" stroke="black" points="1208,-67.5 1208,-97.5 1321,-97.5 1321,-67.5 1208,-67.5"/>
<text text-anchor="start" x="1216" y="-85.5" font-family="Helvetica,sans-Serif" font-size="10.00">src/core/peripherals</text>
<text text-anchor="middle" x="1264.5" y="-74.5" font-family="Helvetica,sans-Serif" font-size="10.00">/bsc.cpp</text>
</a>
</g>
</g>
<!-- Node24&#45;&gt;Node25 -->
<g id="edge30" class="edge">
<title>Node24&#45;&gt;Node25</title>
<path fill="none" stroke="midnightblue" d="M1264.5,-124.11C1264.5,-115.15 1264.5,-105.32 1264.5,-97.58"/>
<polygon fill="midnightblue" stroke="midnightblue" points="1261,-124.4 1264.5,-134.4 1268,-124.4 1261,-124.4"/>
</g>
<!-- Node27&#45;&gt;Node8 -->
<g id="edge35" class="edge">
<title>Node27&#45;&gt;Node8</title>
<path fill="none" stroke="midnightblue" d="M1078.79,-129.31C1063.12,-120.28 1044.56,-109.08 1028.5,-98 1010.27,-85.43 1007.19,-80.31 989.5,-67 969.31,-51.81 945.25,-34.95 930.96,-25.06"/>
<polygon fill="midnightblue" stroke="midnightblue" points="1077.23,-132.44 1087.65,-134.35 1080.69,-126.36 1077.23,-132.44"/>
</g>
<!-- Node28 -->
<g id="node28" class="node">
<title>Node28</title>
<g id="a_node28"><a xlink:href="gpio__window_8cpp.html" target="_top" xlink:title="This file implements a window that visualizes the states and information about GPIO pins.">
<polygon fill="none" stroke="black" points="1037.5,-67.5 1037.5,-97.5 1189.5,-97.5 1189.5,-67.5 1037.5,-67.5"/>
<text text-anchor="start" x="1045.5" y="-85.5" font-family="Helvetica,sans-Serif" font-size="10.00">src/gui/windows/peripherals</text>
<text text-anchor="middle" x="1113.5" y="-74.5" font-family="Helvetica,sans-Serif" font-size="10.00">/gpio_window.cpp</text>
</a>
</g>
</g>
<!-- Node27&#45;&gt;Node28 -->
<g id="edge36" class="edge">
<title>Node27&#45;&gt;Node28</title>
<path fill="none" stroke="midnightblue" d="M1113.5,-124.11C1113.5,-115.15 1113.5,-105.32 1113.5,-97.58"/>
<polygon fill="midnightblue" stroke="midnightblue" points="1110,-124.4 1113.5,-134.4 1117,-124.4 1110,-124.4"/>
</g>
</g>
</svg>
