<?xml version="1.0" encoding="UTF-8" standalone="no"?>
<!DOCTYPE svg PUBLIC "-//W3C//DTD SVG 1.1//EN"
 "http://www.w3.org/Graphics/SVG/1.1/DTD/svg11.dtd">
<!-- Generated by graphviz version 2.43.0 (0)
 -->
<!-- Title: src/core/peripherals/gpio.hpp Pages: 1 -->
<svg width="472pt" height="280pt"
 viewBox="0.00 0.00 471.50 280.00" xmlns="http://www.w3.org/2000/svg" xmlns:xlink="http://www.w3.org/1999/xlink">
<g id="graph0" class="graph" transform="scale(1 1) rotate(0) translate(4 276)">
<title>src/core/peripherals/gpio.hpp</title>
<!-- Node1 -->
<g id="Node000001" class="node">
<title>Node1</title>
<g id="a_Node000001"><a xlink:title="This file defines the GPIO controller used in BCM2835.">
<polygon fill="#999999" stroke="#666666" points="333,-272 220,-272 220,-242 333,-242 333,-272"/>
<text text-anchor="start" x="228" y="-260" font-family="Helvetica,sans-Serif" font-size="10.00">src/core/peripherals</text>
<text text-anchor="middle" x="276.5" y="-249" font-family="Helvetica,sans-Serif" font-size="10.00">/gpio.hpp</text>
</a>
</g>
</g>
<!-- Node2 -->
<g id="Node000002" class="node">
<title>Node2</title>
<g id="a_Node000002"><a xlink:href="peripheral_8hpp.html" target="_top" xlink:title="This file defines an interface for a memory&#45;mapped peripheral.">
<polygon fill="white" stroke="#666666" points="87,-140 0,-140 0,-121 87,-121 87,-140"/>
<text text-anchor="middle" x="43.5" y="-128" font-family="Helvetica,sans-Serif" font-size="10.00">peripheral.hpp</text>
</a>
</g>
</g>
<!-- Node1&#45;&gt;Node2 -->
<g id="edge1_Node000001_Node000002" class="edge">
<title>Node1&#45;&gt;Node2</title>
<g id="a_edge1_Node000001_Node000002"><a xlink:title=" ">
<path fill="none" stroke="#63b8ff" d="M219.95,-242.06C191.96,-233.83 158.3,-221.88 130.5,-206 102.31,-189.89 74.69,-164.03 58.38,-147.4"/>
<polygon fill="#63b8ff" stroke="#63b8ff" points="60.78,-144.85 51.32,-140.06 55.73,-149.7 60.78,-144.85"/>
</a>
</g>
</g>
<!-- Node3 -->
<g id="Node000003" class="node">
<title>Node3</title>
<g id="a_Node000003"><a xlink:href="interrupt__controller_8hpp.html" target="_top" xlink:title="This file defines the interrupt controller used in BCM2835.">
<polygon fill="white" stroke="#666666" points="271,-200.5 140,-200.5 140,-181.5 271,-181.5 271,-200.5"/>
<text text-anchor="middle" x="205.5" y="-188.5" font-family="Helvetica,sans-Serif" font-size="10.00">interrupt_controller.hpp</text>
</a>
</g>
</g>
<!-- Node1&#45;&gt;Node3 -->
<g id="edge2_Node000001_Node000003" class="edge">
<title>Node1&#45;&gt;Node3</title>
<g id="a_edge2_Node000001_Node000003"><a xlink:title=" ">
<path fill="none" stroke="#63b8ff" d="M260.74,-241.8C249.57,-231.72 234.56,-218.19 223.01,-207.78"/>
<polygon fill="#63b8ff" stroke="#63b8ff" points="225.08,-204.94 215.31,-200.84 220.4,-210.14 225.08,-204.94"/>
</a>
</g>
</g>
<!-- Node5 -->
<g id="Node000005" class="node">
<title>Node5</title>
<g id="a_Node000005"><a xlink:href="logging__system_8hpp.html" target="_top" xlink:title="This file defines a logging system that is used in the project.">
<polygon fill="white" stroke="#666666" points="370,-85 239,-85 239,-55 370,-55 370,-85"/>
<text text-anchor="start" x="247" y="-73" font-family="Helvetica,sans-Serif" font-size="10.00">zero_mate/utils/logging</text>
<text text-anchor="middle" x="304.5" y="-62" font-family="Helvetica,sans-Serif" font-size="10.00">_system.hpp</text>
</a>
</g>
</g>
<!-- Node1&#45;&gt;Node5 -->
<g id="edge8_Node000001_Node000005" class="edge">
<title>Node1&#45;&gt;Node5</title>
<g id="a_edge8_Node000001_Node000005"><a xlink:title=" ">
<path fill="none" stroke="#63b8ff" d="M278.65,-241.79C283.43,-210.24 294.96,-134.04 300.87,-94.97"/>
<polygon fill="#63b8ff" stroke="#63b8ff" points="304.34,-95.42 302.38,-85 297.42,-94.37 304.34,-95.42"/>
</a>
</g>
</g>
<!-- Node7 -->
<g id="Node000007" class="node">
<title>Node7</title>
<g id="a_Node000007"><a xlink:href="external__peripheral_8hpp.html" target="_top" xlink:title="This file defines an interface for external peripherals that can be attached to the system via GPIO p...">
<polygon fill="white" stroke="#666666" points="463.5,-206 351.5,-206 351.5,-176 463.5,-176 463.5,-206"/>
<text text-anchor="start" x="359.5" y="-194" font-family="Helvetica,sans-Serif" font-size="10.00">zero_mate/external</text>
<text text-anchor="middle" x="407.5" y="-183" font-family="Helvetica,sans-Serif" font-size="10.00">_peripheral.hpp</text>
</a>
</g>
</g>
<!-- Node1&#45;&gt;Node7 -->
<g id="edge9_Node000001_Node000007" class="edge">
<title>Node1&#45;&gt;Node7</title>
<g id="a_edge9_Node000001_Node000007"><a xlink:title=" ">
<path fill="none" stroke="#63b8ff" d="M305.25,-241.95C324.19,-232.7 349.19,-220.49 369.73,-210.45"/>
<polygon fill="#63b8ff" stroke="#63b8ff" points="371.37,-213.55 378.82,-206.01 368.3,-207.26 371.37,-213.55"/>
</a>
</g>
</g>
<!-- Node3&#45;&gt;Node2 -->
<g id="edge3_Node000003_Node000002" class="edge">
<title>Node3&#45;&gt;Node2</title>
<g id="a_edge3_Node000003_Node000002"><a xlink:title=" ">
<path fill="none" stroke="#63b8ff" d="M181.94,-181.49C154.23,-171.49 108.03,-154.8 76.69,-143.49"/>
<polygon fill="#63b8ff" stroke="#63b8ff" points="77.68,-140.12 67.08,-140.02 75.3,-146.71 77.68,-140.12"/>
</a>
</g>
</g>
<!-- Node4 -->
<g id="Node000004" class="node">
<title>Node4</title>
<g id="a_Node000004"><a xlink:href="context_8hpp.html" target="_top" xlink:title="This file defines the context (registers) of the CPU.">
<polygon fill="white" stroke="#666666" points="257.5,-140 105.5,-140 105.5,-121 257.5,-121 257.5,-140"/>
<text text-anchor="middle" x="181.5" y="-128" font-family="Helvetica,sans-Serif" font-size="10.00">../arm1176jzf_s/context.hpp</text>
</a>
</g>
</g>
<!-- Node3&#45;&gt;Node4 -->
<g id="edge4_Node000003_Node000004" class="edge">
<title>Node3&#45;&gt;Node4</title>
<g id="a_edge4_Node000003_Node000004"><a xlink:title=" ">
<path fill="none" stroke="#63b8ff" d="M201.96,-181.37C198.56,-173.07 193.31,-160.28 188.98,-149.72"/>
<polygon fill="#63b8ff" stroke="#63b8ff" points="192.09,-148.09 185.06,-140.17 185.61,-150.75 192.09,-148.09"/>
</a>
</g>
</g>
<!-- Node3&#45;&gt;Node5 -->
<g id="edge7_Node000003_Node000005" class="edge">
<title>Node3&#45;&gt;Node5</title>
<g id="a_edge7_Node000003_Node000005"><a xlink:title=" ">
<path fill="none" stroke="#63b8ff" d="M218.89,-181.29C232.16,-172.16 252.49,-156.84 266.5,-140 277.9,-126.29 287.54,-108.65 294.26,-94.64"/>
<polygon fill="#63b8ff" stroke="#63b8ff" points="297.61,-95.73 298.62,-85.19 291.26,-92.8 297.61,-95.73"/>
</a>
</g>
</g>
<!-- Node4&#45;&gt;Node5 -->
<g id="edge5_Node000004_Node000005" class="edge">
<title>Node4&#45;&gt;Node5</title>
<g id="a_edge5_Node000004_Node000005"><a xlink:title=" ">
<path fill="none" stroke="#63b8ff" d="M199.39,-120.99C216.64,-112.79 243.34,-100.09 265.51,-89.55"/>
<polygon fill="#63b8ff" stroke="#63b8ff" points="267.16,-92.63 274.69,-85.18 264.16,-86.31 267.16,-92.63"/>
</a>
</g>
</g>
<!-- Node6 -->
<g id="Node000006" class="node">
<title>Node6</title>
<g id="a_Node000006"><a xlink:href="logger_8hpp.html" target="_top" xlink:title="This file defines a general logger interface.">
<polygon fill="white" stroke="#666666" points="338.5,-19 270.5,-19 270.5,0 338.5,0 338.5,-19"/>
<text text-anchor="middle" x="304.5" y="-7" font-family="Helvetica,sans-Serif" font-size="10.00">logger.hpp</text>
</a>
</g>
</g>
<!-- Node5&#45;&gt;Node6 -->
<g id="edge6_Node000005_Node000006" class="edge">
<title>Node5&#45;&gt;Node6</title>
<g id="a_edge6_Node000005_Node000006"><a xlink:title=" ">
<path fill="none" stroke="#63b8ff" d="M304.5,-54.84C304.5,-47.21 304.5,-37.7 304.5,-29.45"/>
<polygon fill="#63b8ff" stroke="#63b8ff" points="308,-29.27 304.5,-19.27 301,-29.27 308,-29.27"/>
</a>
</g>
</g>
<!-- Node7&#45;&gt;Node5 -->
<g id="edge10_Node000007_Node000005" class="edge">
<title>Node7&#45;&gt;Node5</title>
<g id="a_edge10_Node000007_Node000005"><a xlink:title=" ">
<path fill="none" stroke="#63b8ff" d="M395.28,-175.88C377.47,-155.31 344.23,-116.9 323.29,-92.71"/>
<polygon fill="#63b8ff" stroke="#63b8ff" points="325.89,-90.37 316.7,-85.1 320.6,-94.95 325.89,-90.37"/>
</a>
</g>
</g>
</g>
</svg>
