<?xml version="1.0" encoding="UTF-8" standalone="no"?>
<!DOCTYPE svg PUBLIC "-//W3C//DTD SVG 1.1//EN"
 "http://www.w3.org/Graphics/SVG/1.1/DTD/svg11.dtd">
<!-- Generated by graphviz version 2.43.0 (0)
 -->
<!-- Title: src/core/peripherals/gpio.cpp Pages: 1 -->
<svg width="630pt" height="335pt"
 viewBox="0.00 0.00 630.00 335.00" xmlns="http://www.w3.org/2000/svg" xmlns:xlink="http://www.w3.org/1999/xlink">
<g id="graph0" class="graph" transform="scale(1 1) rotate(0) translate(4 331)">
<title>src/core/peripherals/gpio.cpp</title>
<!-- Node1 -->
<g id="Node000001" class="node">
<title>Node1</title>
<g id="a_Node000001"><a xlink:title="This file implements the GPIO controller used in BCM2835 (defined in gpio.hpp).">
<polygon fill="#999999" stroke="#666666" points="309,-327 196,-327 196,-297 309,-297 309,-327"/>
<text text-anchor="start" x="204" y="-315" font-family="Helvetica,sans-Serif" font-size="10.00">src/core/peripherals</text>
<text text-anchor="middle" x="252.5" y="-304" font-family="Helvetica,sans-Serif" font-size="10.00">/gpio.cpp</text>
</a>
</g>
</g>
<!-- Node2 -->
<g id="Node000002" class="node">
<title>Node2</title>
<g id="a_Node000002"><a xlink:title=" ">
<polygon fill="#e0e0e0" stroke="#999999" points="86,-261 7,-261 7,-242 86,-242 86,-261"/>
<text text-anchor="middle" x="46.5" y="-249" font-family="Helvetica,sans-Serif" font-size="10.00">fmt/format.h</text>
</a>
</g>
</g>
<!-- Node1&#45;&gt;Node2 -->
<g id="edge1_Node000001_Node000002" class="edge">
<title>Node1&#45;&gt;Node2</title>
<g id="a_edge1_Node000001_Node000002"><a xlink:title=" ">
<path fill="none" stroke="#63b8ff" d="M203.16,-296.99C167.45,-286.85 119.81,-273.32 86.48,-263.85"/>
<polygon fill="#63b8ff" stroke="#63b8ff" points="87.2,-260.42 76.62,-261.05 85.28,-267.15 87.2,-260.42"/>
</a>
</g>
</g>
<!-- Node3 -->
<g id="Node000003" class="node">
<title>Node3</title>
<g id="a_Node000003"><a xlink:title=" ">
<polygon fill="#e0e0e0" stroke="#999999" points="205,-261 104,-261 104,-242 205,-242 205,-261"/>
<text text-anchor="middle" x="154.5" y="-249" font-family="Helvetica,sans-Serif" font-size="10.00">magic_enum.hpp</text>
</a>
</g>
</g>
<!-- Node1&#45;&gt;Node3 -->
<g id="edge2_Node000001_Node000003" class="edge">
<title>Node1&#45;&gt;Node3</title>
<g id="a_edge2_Node000001_Node000003"><a xlink:title=" ">
<path fill="none" stroke="#63b8ff" d="M228.78,-296.84C213.3,-287.6 193.18,-275.59 177.79,-266.4"/>
<polygon fill="#63b8ff" stroke="#63b8ff" points="179.28,-263.21 168.9,-261.09 175.69,-269.23 179.28,-263.21"/>
</a>
</g>
</g>
<!-- Node4 -->
<g id="Node000004" class="node">
<title>Node4</title>
<g id="a_Node000004"><a xlink:href="gpio_8hpp.html" target="_top" xlink:title="This file defines the GPIO controller used in BCM2835.">
<polygon fill="white" stroke="#666666" points="282,-261 223,-261 223,-242 282,-242 282,-261"/>
<text text-anchor="middle" x="252.5" y="-249" font-family="Helvetica,sans-Serif" font-size="10.00">gpio.hpp</text>
</a>
</g>
</g>
<!-- Node1&#45;&gt;Node4 -->
<g id="edge3_Node000001_Node000004" class="edge">
<title>Node1&#45;&gt;Node4</title>
<g id="a_edge3_Node000001_Node000004"><a xlink:title=" ">
<path fill="none" stroke="#63b8ff" d="M252.5,-296.84C252.5,-289.21 252.5,-279.7 252.5,-271.45"/>
<polygon fill="#63b8ff" stroke="#63b8ff" points="256,-271.27 252.5,-261.27 249,-271.27 256,-271.27"/>
</a>
</g>
</g>
<!-- Node11 -->
<g id="Node000011" class="node">
<title>Node11</title>
<g id="a_Node000011"><a xlink:href="math_8hpp.html" target="_top" xlink:title="This file defines and implements a variety of handy helper functions that are used throughout the pro...">
<polygon fill="white" stroke="#666666" points="442.5,-261 300.5,-261 300.5,-242 442.5,-242 442.5,-261"/>
<text text-anchor="middle" x="371.5" y="-249" font-family="Helvetica,sans-Serif" font-size="10.00">zero_mate/utils/math.hpp</text>
</a>
</g>
</g>
<!-- Node1&#45;&gt;Node11 -->
<g id="edge14_Node000001_Node000011" class="edge">
<title>Node1&#45;&gt;Node11</title>
<g id="a_edge14_Node000001_Node000011"><a xlink:title=" ">
<path fill="none" stroke="#63b8ff" d="M281,-296.99C300.41,-287.45 325.93,-274.9 344.92,-265.57"/>
<polygon fill="#63b8ff" stroke="#63b8ff" points="346.5,-268.69 353.93,-261.14 343.41,-262.41 346.5,-268.69"/>
</a>
</g>
</g>
<!-- Node12 -->
<g id="Node000012" class="node">
<title>Node12</title>
<g id="a_Node000012"><a xlink:href="singleton_8hpp.html" target="_top" xlink:title="This file defines and implements a generic class that is used to treat other classes as singletons.">
<polygon fill="white" stroke="#666666" points="622,-261 461,-261 461,-242 622,-242 622,-261"/>
<text text-anchor="middle" x="541.5" y="-249" font-family="Helvetica,sans-Serif" font-size="10.00">zero_mate/utils/singleton.hpp</text>
</a>
</g>
</g>
<!-- Node1&#45;&gt;Node12 -->
<g id="edge15_Node000001_Node000012" class="edge">
<title>Node1&#45;&gt;Node12</title>
<g id="a_edge15_Node000001_Node000012"><a xlink:title=" ">
<path fill="none" stroke="#63b8ff" d="M309.25,-299.51C361.54,-288.93 438.5,-273.35 489.29,-263.07"/>
<polygon fill="#63b8ff" stroke="#63b8ff" points="490.3,-266.44 499.4,-261.02 488.91,-259.58 490.3,-266.44"/>
</a>
</g>
</g>
<!-- Node5 -->
<g id="Node000005" class="node">
<title>Node5</title>
<g id="a_Node000005"><a xlink:href="peripheral_8hpp.html" target="_top" xlink:title="This file defines an interface for a memory&#45;mapped peripheral.">
<polygon fill="white" stroke="#666666" points="87,-140 0,-140 0,-121 87,-121 87,-140"/>
<text text-anchor="middle" x="43.5" y="-128" font-family="Helvetica,sans-Serif" font-size="10.00">peripheral.hpp</text>
</a>
</g>
</g>
<!-- Node4&#45;&gt;Node5 -->
<g id="edge4_Node000004_Node000005" class="edge">
<title>Node4&#45;&gt;Node5</title>
<g id="a_edge4_Node000004_Node000005"><a xlink:title=" ">
<path fill="none" stroke="#63b8ff" d="M222.85,-242.92C197.3,-235.66 159.99,-223.24 130.5,-206 102.47,-189.62 74.8,-163.82 58.44,-147.29"/>
<polygon fill="#63b8ff" stroke="#63b8ff" points="60.84,-144.74 51.36,-140 55.82,-149.61 60.84,-144.74"/>
</a>
</g>
</g>
<!-- Node6 -->
<g id="Node000006" class="node">
<title>Node6</title>
<g id="a_Node000006"><a xlink:href="interrupt__controller_8hpp.html" target="_top" xlink:title="This file defines the interrupt controller used in BCM2835.">
<polygon fill="white" stroke="#666666" points="271,-200.5 140,-200.5 140,-181.5 271,-181.5 271,-200.5"/>
<text text-anchor="middle" x="205.5" y="-188.5" font-family="Helvetica,sans-Serif" font-size="10.00">interrupt_controller.hpp</text>
</a>
</g>
</g>
<!-- Node4&#45;&gt;Node6 -->
<g id="edge5_Node000004_Node000006" class="edge">
<title>Node4&#45;&gt;Node6</title>
<g id="a_edge5_Node000004_Node000006"><a xlink:title=" ">
<path fill="none" stroke="#63b8ff" d="M245.56,-241.87C238.55,-233.14 227.54,-219.43 218.83,-208.59"/>
<polygon fill="#63b8ff" stroke="#63b8ff" points="221.46,-206.27 212.46,-200.67 216,-210.66 221.46,-206.27"/>
</a>
</g>
</g>
<!-- Node8 -->
<g id="Node000008" class="node">
<title>Node8</title>
<g id="a_Node000008"><a xlink:href="logging__system_8hpp.html" target="_top" xlink:title="This file defines a logging system that is used in the project.">
<polygon fill="white" stroke="#666666" points="370,-85 239,-85 239,-55 370,-55 370,-85"/>
<text text-anchor="start" x="247" y="-73" font-family="Helvetica,sans-Serif" font-size="10.00">zero_mate/utils/logging</text>
<text text-anchor="middle" x="304.5" y="-62" font-family="Helvetica,sans-Serif" font-size="10.00">_system.hpp</text>
</a>
</g>
</g>
<!-- Node4&#45;&gt;Node8 -->
<g id="edge11_Node000004_Node000008" class="edge">
<title>Node4&#45;&gt;Node8</title>
<g id="a_edge11_Node000004_Node000008"><a xlink:title=" ">
<path fill="none" stroke="#63b8ff" d="M259.38,-241.84C265.85,-233.25 275.3,-219.45 280.5,-206 294.75,-169.12 300.62,-123.26 302.97,-95.6"/>
<polygon fill="#63b8ff" stroke="#63b8ff" points="306.49,-95.51 303.76,-85.28 299.51,-94.98 306.49,-95.51"/>
</a>
</g>
</g>
<!-- Node10 -->
<g id="Node000010" class="node">
<title>Node10</title>
<g id="a_Node000010"><a xlink:href="external__peripheral_8hpp.html" target="_top" xlink:title="This file defines an interface for external peripherals that can be attached to the system via GPIO p...">
<polygon fill="white" stroke="#666666" points="463.5,-206 351.5,-206 351.5,-176 463.5,-176 463.5,-206"/>
<text text-anchor="start" x="359.5" y="-194" font-family="Helvetica,sans-Serif" font-size="10.00">zero_mate/external</text>
<text text-anchor="middle" x="407.5" y="-183" font-family="Helvetica,sans-Serif" font-size="10.00">_peripheral.hpp</text>
</a>
</g>
</g>
<!-- Node4&#45;&gt;Node10 -->
<g id="edge12_Node000004_Node000010" class="edge">
<title>Node4&#45;&gt;Node10</title>
<g id="a_edge12_Node000004_Node000010"><a xlink:title=" ">
<path fill="none" stroke="#63b8ff" d="M275.04,-241.99C297.35,-233.57 332.17,-220.43 360.51,-209.73"/>
<polygon fill="#63b8ff" stroke="#63b8ff" points="362.12,-212.87 370.24,-206.06 359.64,-206.32 362.12,-212.87"/>
</a>
</g>
</g>
<!-- Node6&#45;&gt;Node5 -->
<g id="edge6_Node000006_Node000005" class="edge">
<title>Node6&#45;&gt;Node5</title>
<g id="a_edge6_Node000006_Node000005"><a xlink:title=" ">
<path fill="none" stroke="#63b8ff" d="M181.94,-181.49C154.23,-171.49 108.03,-154.8 76.69,-143.49"/>
<polygon fill="#63b8ff" stroke="#63b8ff" points="77.68,-140.12 67.08,-140.02 75.3,-146.71 77.68,-140.12"/>
</a>
</g>
</g>
<!-- Node7 -->
<g id="Node000007" class="node">
<title>Node7</title>
<g id="a_Node000007"><a xlink:href="context_8hpp.html" target="_top" xlink:title="This file defines the context (registers) of the CPU.">
<polygon fill="white" stroke="#666666" points="257.5,-140 105.5,-140 105.5,-121 257.5,-121 257.5,-140"/>
<text text-anchor="middle" x="181.5" y="-128" font-family="Helvetica,sans-Serif" font-size="10.00">../arm1176jzf_s/context.hpp</text>
</a>
</g>
</g>
<!-- Node6&#45;&gt;Node7 -->
<g id="edge7_Node000006_Node000007" class="edge">
<title>Node6&#45;&gt;Node7</title>
<g id="a_edge7_Node000006_Node000007"><a xlink:title=" ">
<path fill="none" stroke="#63b8ff" d="M201.96,-181.37C198.56,-173.07 193.31,-160.28 188.98,-149.72"/>
<polygon fill="#63b8ff" stroke="#63b8ff" points="192.09,-148.09 185.06,-140.17 185.61,-150.75 192.09,-148.09"/>
</a>
</g>
</g>
<!-- Node6&#45;&gt;Node8 -->
<g id="edge10_Node000006_Node000008" class="edge">
<title>Node6&#45;&gt;Node8</title>
<g id="a_edge10_Node000006_Node000008"><a xlink:title=" ">
<path fill="none" stroke="#63b8ff" d="M218.89,-181.29C232.16,-172.16 252.49,-156.84 266.5,-140 277.9,-126.29 287.54,-108.65 294.26,-94.64"/>
<polygon fill="#63b8ff" stroke="#63b8ff" points="297.61,-95.73 298.62,-85.19 291.26,-92.8 297.61,-95.73"/>
</a>
</g>
</g>
<!-- Node7&#45;&gt;Node8 -->
<g id="edge8_Node000007_Node000008" class="edge">
<title>Node7&#45;&gt;Node8</title>
<g id="a_edge8_Node000007_Node000008"><a xlink:title=" ">
<path fill="none" stroke="#63b8ff" d="M199.39,-120.99C216.64,-112.79 243.34,-100.09 265.51,-89.55"/>
<polygon fill="#63b8ff" stroke="#63b8ff" points="267.16,-92.63 274.69,-85.18 264.16,-86.31 267.16,-92.63"/>
</a>
</g>
</g>
<!-- Node9 -->
<g id="Node000009" class="node">
<title>Node9</title>
<g id="a_Node000009"><a xlink:href="logger_8hpp.html" target="_top" xlink:title="This file defines a general logger interface.">
<polygon fill="white" stroke="#666666" points="338.5,-19 270.5,-19 270.5,0 338.5,0 338.5,-19"/>
<text text-anchor="middle" x="304.5" y="-7" font-family="Helvetica,sans-Serif" font-size="10.00">logger.hpp</text>
</a>
</g>
</g>
<!-- Node8&#45;&gt;Node9 -->
<g id="edge9_Node000008_Node000009" class="edge">
<title>Node8&#45;&gt;Node9</title>
<g id="a_edge9_Node000008_Node000009"><a xlink:title=" ">
<path fill="none" stroke="#63b8ff" d="M304.5,-54.84C304.5,-47.21 304.5,-37.7 304.5,-29.45"/>
<polygon fill="#63b8ff" stroke="#63b8ff" points="308,-29.27 304.5,-19.27 301,-29.27 308,-29.27"/>
</a>
</g>
</g>
<!-- Node10&#45;&gt;Node8 -->
<g id="edge13_Node000010_Node000008" class="edge">
<title>Node10&#45;&gt;Node8</title>
<g id="a_edge13_Node000010_Node000008"><a xlink:title=" ">
<path fill="none" stroke="#63b8ff" d="M395.28,-175.88C377.47,-155.31 344.23,-116.9 323.29,-92.71"/>
<polygon fill="#63b8ff" stroke="#63b8ff" points="325.89,-90.37 316.7,-85.1 320.6,-94.95 325.89,-90.37"/>
</a>
</g>
</g>
</g>
</svg>
