<?xml version="1.0" encoding="UTF-8" standalone="no"?>
<!DOCTYPE svg PUBLIC "-//W3C//DTD SVG 1.1//EN"
 "http://www.w3.org/Graphics/SVG/1.1/DTD/svg11.dtd">
<!-- Generated by graphviz version 2.43.0 (0)
 -->
<!-- Title: src/gui/windows/peripherals/gpio_window.cpp Pages: 1 -->
<svg width="508pt" height="401pt"
 viewBox="0.00 0.00 507.50 401.00" xmlns="http://www.w3.org/2000/svg" xmlns:xlink="http://www.w3.org/1999/xlink">
<g id="graph0" class="graph" transform="scale(1 1) rotate(0) translate(4 397)">
<title>src/gui/windows/peripherals/gpio_window.cpp</title>
<!-- Node1 -->
<g id="Node000001" class="node">
<title>Node1</title>
<g id="a_Node000001"><a xlink:title="This file implements a window that visualizes the states and information about GPIO pins.">
<polygon fill="#999999" stroke="#666666" points="185.5,-393 33.5,-393 33.5,-363 185.5,-363 185.5,-393"/>
<text text-anchor="start" x="41.5" y="-381" font-family="Helvetica,sans-Serif" font-size="10.00">src/gui/windows/peripherals</text>
<text text-anchor="middle" x="109.5" y="-370" font-family="Helvetica,sans-Serif" font-size="10.00">/gpio_window.cpp</text>
</a>
</g>
</g>
<!-- Node2 -->
<g id="Node000002" class="node">
<title>Node2</title>
<g id="a_Node000002"><a xlink:title=" ">
<polygon fill="#e0e0e0" stroke="#999999" points="101,-327 0,-327 0,-308 101,-308 101,-327"/>
<text text-anchor="middle" x="50.5" y="-315" font-family="Helvetica,sans-Serif" font-size="10.00">magic_enum.hpp</text>
</a>
</g>
</g>
<!-- Node1&#45;&gt;Node2 -->
<g id="edge1_Node000001_Node000002" class="edge">
<title>Node1&#45;&gt;Node2</title>
<g id="a_edge1_Node000001_Node000002"><a xlink:title=" ">
<path fill="none" stroke="#63b8ff" d="M95.22,-362.84C86.57,-354.26 75.51,-343.3 66.56,-334.42"/>
<polygon fill="#63b8ff" stroke="#63b8ff" points="68.91,-331.82 59.34,-327.27 63.98,-336.79 68.91,-331.82"/>
</a>
</g>
</g>
<!-- Node3 -->
<g id="Node000003" class="node">
<title>Node3</title>
<g id="a_Node000003"><a xlink:href="gpio__window_8hpp.html" target="_top" xlink:title="This file defines a window that visualizes the states and information about GPIO pins.">
<polygon fill="white" stroke="#666666" points="220,-327 119,-327 119,-308 220,-308 220,-327"/>
<text text-anchor="middle" x="169.5" y="-315" font-family="Helvetica,sans-Serif" font-size="10.00">gpio_window.hpp</text>
</a>
</g>
</g>
<!-- Node1&#45;&gt;Node3 -->
<g id="edge2_Node000001_Node000003" class="edge">
<title>Node1&#45;&gt;Node3</title>
<g id="a_edge2_Node000001_Node000003"><a xlink:title=" ">
<path fill="none" stroke="#63b8ff" d="M124.02,-362.84C132.82,-354.26 144.07,-343.3 153.17,-334.42"/>
<polygon fill="#63b8ff" stroke="#63b8ff" points="155.79,-336.75 160.51,-327.27 150.91,-331.74 155.79,-336.75"/>
</a>
</g>
</g>
<!-- Node4 -->
<g id="Node000004" class="node">
<title>Node4</title>
<g id="a_Node000004"><a xlink:href="window_8hpp.html" target="_top" xlink:title="This file defines an interface for all windows that will be rendered by the application.">
<polygon fill="white" stroke="#666666" points="143.5,-266.5 51.5,-266.5 51.5,-247.5 143.5,-247.5 143.5,-266.5"/>
<text text-anchor="middle" x="97.5" y="-254.5" font-family="Helvetica,sans-Serif" font-size="10.00">../../window.hpp</text>
</a>
</g>
</g>
<!-- Node3&#45;&gt;Node4 -->
<g id="edge3_Node000003_Node000004" class="edge">
<title>Node3&#45;&gt;Node4</title>
<g id="a_edge3_Node000003_Node000004"><a xlink:title=" ">
<path fill="none" stroke="#63b8ff" d="M158.88,-307.87C147.6,-298.71 129.58,-284.06 115.97,-273.01"/>
<polygon fill="#63b8ff" stroke="#63b8ff" points="118.14,-270.26 108.17,-266.67 113.72,-275.69 118.14,-270.26"/>
</a>
</g>
</g>
<!-- Node6 -->
<g id="Node000006" class="node">
<title>Node6</title>
<g id="a_Node000006"><a xlink:href="gpio_8hpp.html" target="_top" xlink:title="This file defines the GPIO controller used in BCM2835.">
<polygon fill="white" stroke="#666666" points="302.5,-272 180.5,-272 180.5,-242 302.5,-242 302.5,-272"/>
<text text-anchor="start" x="188.5" y="-260" font-family="Helvetica,sans-Serif" font-size="10.00">../../../core/peripherals</text>
<text text-anchor="middle" x="241.5" y="-249" font-family="Helvetica,sans-Serif" font-size="10.00">/gpio.hpp</text>
</a>
</g>
</g>
<!-- Node3&#45;&gt;Node6 -->
<g id="edge5_Node000003_Node000006" class="edge">
<title>Node3&#45;&gt;Node6</title>
<g id="a_edge5_Node000003_Node000006"><a xlink:title=" ">
<path fill="none" stroke="#63b8ff" d="M180.12,-307.87C189.62,-300.15 203.92,-288.54 216.32,-278.46"/>
<polygon fill="#63b8ff" stroke="#63b8ff" points="218.57,-281.14 224.13,-272.11 214.16,-275.7 218.57,-281.14"/>
</a>
</g>
</g>
<!-- Node5 -->
<g id="Node000005" class="node">
<title>Node5</title>
<g id="a_Node000005"><a xlink:title=" ">
<polygon fill="#e0e0e0" stroke="#999999" points="119.5,-206 35.5,-206 35.5,-187 119.5,-187 119.5,-206"/>
<text text-anchor="middle" x="77.5" y="-194" font-family="Helvetica,sans-Serif" font-size="10.00">imgui/imgui.h</text>
</a>
</g>
</g>
<!-- Node4&#45;&gt;Node5 -->
<g id="edge4_Node000004_Node000005" class="edge">
<title>Node4&#45;&gt;Node5</title>
<g id="a_edge4_Node000004_Node000005"><a xlink:title=" ">
<path fill="none" stroke="#63b8ff" d="M94.55,-247.37C91.71,-239.07 87.34,-226.28 83.73,-215.72"/>
<polygon fill="#63b8ff" stroke="#63b8ff" points="87.01,-214.5 80.46,-206.17 80.39,-216.76 87.01,-214.5"/>
</a>
</g>
</g>
<!-- Node7 -->
<g id="Node000007" class="node">
<title>Node7</title>
<g id="a_Node000007"><a xlink:href="peripheral_8hpp.html" target="_top" xlink:title="This file defines an interface for a memory&#45;mapped peripheral.">
<polygon fill="white" stroke="#666666" points="123,-145.5 36,-145.5 36,-126.5 123,-126.5 123,-145.5"/>
<text text-anchor="middle" x="79.5" y="-133.5" font-family="Helvetica,sans-Serif" font-size="10.00">peripheral.hpp</text>
</a>
</g>
</g>
<!-- Node6&#45;&gt;Node7 -->
<g id="edge6_Node000006_Node000007" class="edge">
<title>Node6&#45;&gt;Node7</title>
<g id="a_edge6_Node000006_Node000007"><a xlink:title=" ">
<path fill="none" stroke="#63b8ff" d="M219.18,-241.81C204.09,-232.05 183.83,-218.62 166.5,-206 142.21,-188.32 115.26,-166.6 97.88,-152.3"/>
<polygon fill="#63b8ff" stroke="#63b8ff" points="99.67,-149.24 89.73,-145.57 95.21,-154.64 99.67,-149.24"/>
</a>
</g>
</g>
<!-- Node8 -->
<g id="Node000008" class="node">
<title>Node8</title>
<g id="a_Node000008"><a xlink:href="interrupt__controller_8hpp.html" target="_top" xlink:title="This file defines the interrupt controller used in BCM2835.">
<polygon fill="white" stroke="#666666" points="307,-206 176,-206 176,-187 307,-187 307,-206"/>
<text text-anchor="middle" x="241.5" y="-194" font-family="Helvetica,sans-Serif" font-size="10.00">interrupt_controller.hpp</text>
</a>
</g>
</g>
<!-- Node6&#45;&gt;Node8 -->
<g id="edge7_Node000006_Node000008" class="edge">
<title>Node6&#45;&gt;Node8</title>
<g id="a_edge7_Node000006_Node000008"><a xlink:title=" ">
<path fill="none" stroke="#63b8ff" d="M241.5,-241.84C241.5,-234.21 241.5,-224.7 241.5,-216.45"/>
<polygon fill="#63b8ff" stroke="#63b8ff" points="245,-216.27 241.5,-206.27 238,-216.27 245,-216.27"/>
</a>
</g>
</g>
<!-- Node10 -->
<g id="Node000010" class="node">
<title>Node10</title>
<g id="a_Node000010"><a xlink:href="logging__system_8hpp.html" target="_top" xlink:title="This file defines a logging system that is used in the project.">
<polygon fill="white" stroke="#666666" points="406,-85 275,-85 275,-55 406,-55 406,-85"/>
<text text-anchor="start" x="283" y="-73" font-family="Helvetica,sans-Serif" font-size="10.00">zero_mate/utils/logging</text>
<text text-anchor="middle" x="340.5" y="-62" font-family="Helvetica,sans-Serif" font-size="10.00">_system.hpp</text>
</a>
</g>
</g>
<!-- Node6&#45;&gt;Node10 -->
<g id="edge13_Node000006_Node000010" class="edge">
<title>Node6&#45;&gt;Node10</title>
<g id="a_edge13_Node000006_Node000010"><a xlink:title=" ">
<path fill="none" stroke="#63b8ff" d="M273.81,-241.96C289.1,-233.68 306.22,-221.71 316.5,-206 338.48,-172.41 341.91,-124.5 341.7,-95.71"/>
<polygon fill="#63b8ff" stroke="#63b8ff" points="345.19,-95.25 341.46,-85.33 338.19,-95.41 345.19,-95.25"/>
</a>
</g>
</g>
<!-- Node12 -->
<g id="Node000012" class="node">
<title>Node12</title>
<g id="a_Node000012"><a xlink:href="external__peripheral_8hpp.html" target="_top" xlink:title="This file defines an interface for external peripherals that can be attached to the system via GPIO p...">
<polygon fill="white" stroke="#666666" points="499.5,-151 387.5,-151 387.5,-121 499.5,-121 499.5,-151"/>
<text text-anchor="start" x="395.5" y="-139" font-family="Helvetica,sans-Serif" font-size="10.00">zero_mate/external</text>
<text text-anchor="middle" x="443.5" y="-128" font-family="Helvetica,sans-Serif" font-size="10.00">_peripheral.hpp</text>
</a>
</g>
</g>
<!-- Node6&#45;&gt;Node12 -->
<g id="edge14_Node000006_Node000012" class="edge">
<title>Node6&#45;&gt;Node12</title>
<g id="a_edge14_Node000006_Node000012"><a xlink:title=" ">
<path fill="none" stroke="#63b8ff" d="M293.04,-241.99C318.45,-233.75 348.85,-221.81 373.5,-206 393.5,-193.18 412.45,-173.89 425.57,-158.97"/>
<polygon fill="#63b8ff" stroke="#63b8ff" points="428.39,-161.07 432.24,-151.2 423.07,-156.51 428.39,-161.07"/>
</a>
</g>
</g>
<!-- Node8&#45;&gt;Node7 -->
<g id="edge8_Node000008_Node000007" class="edge">
<title>Node8&#45;&gt;Node7</title>
<g id="a_edge8_Node000008_Node000007"><a xlink:title=" ">
<path fill="none" stroke="#63b8ff" d="M217.94,-186.99C190.23,-176.99 144.03,-160.3 112.69,-148.99"/>
<polygon fill="#63b8ff" stroke="#63b8ff" points="113.68,-145.62 103.08,-145.52 111.3,-152.21 113.68,-145.62"/>
</a>
</g>
</g>
<!-- Node9 -->
<g id="Node000009" class="node">
<title>Node9</title>
<g id="a_Node000009"><a xlink:href="context_8hpp.html" target="_top" xlink:title="This file defines the context (registers) of the CPU.">
<polygon fill="white" stroke="#666666" points="293.5,-145.5 141.5,-145.5 141.5,-126.5 293.5,-126.5 293.5,-145.5"/>
<text text-anchor="middle" x="217.5" y="-133.5" font-family="Helvetica,sans-Serif" font-size="10.00">../arm1176jzf_s/context.hpp</text>
</a>
</g>
</g>
<!-- Node8&#45;&gt;Node9 -->
<g id="edge9_Node000008_Node000009" class="edge">
<title>Node8&#45;&gt;Node9</title>
<g id="a_edge9_Node000008_Node000009"><a xlink:title=" ">
<path fill="none" stroke="#63b8ff" d="M237.96,-186.87C234.56,-178.57 229.31,-165.78 224.98,-155.22"/>
<polygon fill="#63b8ff" stroke="#63b8ff" points="228.09,-153.59 221.06,-145.67 221.61,-156.25 228.09,-153.59"/>
</a>
</g>
</g>
<!-- Node8&#45;&gt;Node10 -->
<g id="edge12_Node000008_Node000010" class="edge">
<title>Node8&#45;&gt;Node10</title>
<g id="a_edge12_Node000008_Node000010"><a xlink:title=" ">
<path fill="none" stroke="#63b8ff" d="M257.49,-186.87C270.92,-178.98 289.87,-166.24 302.5,-151 316.31,-134.33 326.42,-111.8 332.73,-94.9"/>
<polygon fill="#63b8ff" stroke="#63b8ff" points="336.12,-95.8 336.16,-85.2 329.53,-93.46 336.12,-95.8"/>
</a>
</g>
</g>
<!-- Node9&#45;&gt;Node10 -->
<g id="edge10_Node000009_Node000010" class="edge">
<title>Node9&#45;&gt;Node10</title>
<g id="a_edge10_Node000009_Node000010"><a xlink:title=" ">
<path fill="none" stroke="#63b8ff" d="M234.09,-126.37C252.03,-117.03 281.2,-101.86 304.46,-89.75"/>
<polygon fill="#63b8ff" stroke="#63b8ff" points="306.12,-92.84 313.37,-85.12 302.88,-86.63 306.12,-92.84"/>
</a>
</g>
</g>
<!-- Node11 -->
<g id="Node000011" class="node">
<title>Node11</title>
<g id="a_Node000011"><a xlink:href="logger_8hpp.html" target="_top" xlink:title="This file defines a general logger interface.">
<polygon fill="white" stroke="#666666" points="374.5,-19 306.5,-19 306.5,0 374.5,0 374.5,-19"/>
<text text-anchor="middle" x="340.5" y="-7" font-family="Helvetica,sans-Serif" font-size="10.00">logger.hpp</text>
</a>
</g>
</g>
<!-- Node10&#45;&gt;Node11 -->
<g id="edge11_Node000010_Node000011" class="edge">
<title>Node10&#45;&gt;Node11</title>
<g id="a_edge11_Node000010_Node000011"><a xlink:title=" ">
<path fill="none" stroke="#63b8ff" d="M340.5,-54.84C340.5,-47.21 340.5,-37.7 340.5,-29.45"/>
<polygon fill="#63b8ff" stroke="#63b8ff" points="344,-29.27 340.5,-19.27 337,-29.27 344,-29.27"/>
</a>
</g>
</g>
<!-- Node12&#45;&gt;Node10 -->
<g id="edge15_Node000012_Node000010" class="edge">
<title>Node12&#45;&gt;Node10</title>
<g id="a_edge15_Node000012_Node000010"><a xlink:title=" ">
<path fill="none" stroke="#63b8ff" d="M420.9,-120.95C406.54,-112.03 387.76,-100.36 371.95,-90.54"/>
<polygon fill="#63b8ff" stroke="#63b8ff" points="373.39,-87.32 363.05,-85.01 369.7,-93.26 373.39,-87.32"/>
</a>
</g>
</g>
</g>
</svg>
