<?xml version="1.0" encoding="UTF-8" standalone="no"?>
<!DOCTYPE svg PUBLIC "-//W3C//DTD SVG 1.1//EN"
 "http://www.w3.org/Graphics/SVG/1.1/DTD/svg11.dtd">
<!-- Generated by graphviz version 2.43.0 (0)
 -->
<!-- Title: src/gui/windows/peripherals/gpio_window.hpp Pages: 1 -->
<svg width="472pt" height="346pt"
 viewBox="0.00 0.00 472.00 346.00" xmlns="http://www.w3.org/2000/svg" xmlns:xlink="http://www.w3.org/1999/xlink">
<g id="graph0" class="graph" transform="scale(1 1) rotate(0) translate(4 342)">
<title>src/gui/windows/peripherals/gpio_window.hpp</title>
<!-- Node1 -->
<g id="Node000001" class="node">
<title>Node1</title>
<g id="a_Node000001"><a xlink:title="This file defines a window that visualizes the states and information about GPIO pins.">
<polygon fill="#999999" stroke="#666666" points="200,-338 48,-338 48,-308 200,-308 200,-338"/>
<text text-anchor="start" x="56" y="-326" font-family="Helvetica,sans-Serif" font-size="10.00">src/gui/windows/peripherals</text>
<text text-anchor="middle" x="124" y="-315" font-family="Helvetica,sans-Serif" font-size="10.00">/gpio_window.hpp</text>
</a>
</g>
</g>
<!-- Node2 -->
<g id="Node000002" class="node">
<title>Node2</title>
<g id="a_Node000002"><a xlink:href="window_8hpp.html" target="_top" xlink:title="This file defines an interface for all windows that will be rendered by the application.">
<polygon fill="white" stroke="#666666" points="108,-266.5 16,-266.5 16,-247.5 108,-247.5 108,-266.5"/>
<text text-anchor="middle" x="62" y="-254.5" font-family="Helvetica,sans-Serif" font-size="10.00">../../window.hpp</text>
</a>
</g>
</g>
<!-- Node1&#45;&gt;Node2 -->
<g id="edge1_Node000001_Node000002" class="edge">
<title>Node1&#45;&gt;Node2</title>
<g id="a_edge1_Node000001_Node000002"><a xlink:title=" ">
<path fill="none" stroke="#63b8ff" d="M110.24,-307.8C100.57,-297.82 87.63,-284.46 77.58,-274.09"/>
<polygon fill="#63b8ff" stroke="#63b8ff" points="80.04,-271.59 70.57,-266.84 75.01,-276.46 80.04,-271.59"/>
</a>
</g>
</g>
<!-- Node4 -->
<g id="Node000004" class="node">
<title>Node4</title>
<g id="a_Node000004"><a xlink:href="gpio_8hpp.html" target="_top" xlink:title="This file defines the GPIO controller used in BCM2835.">
<polygon fill="white" stroke="#666666" points="267,-272 145,-272 145,-242 267,-242 267,-272"/>
<text text-anchor="start" x="153" y="-260" font-family="Helvetica,sans-Serif" font-size="10.00">../../../core/peripherals</text>
<text text-anchor="middle" x="206" y="-249" font-family="Helvetica,sans-Serif" font-size="10.00">/gpio.hpp</text>
</a>
</g>
</g>
<!-- Node1&#45;&gt;Node4 -->
<g id="edge3_Node000001_Node000004" class="edge">
<title>Node1&#45;&gt;Node4</title>
<g id="a_edge3_Node000001_Node000004"><a xlink:title=" ">
<path fill="none" stroke="#63b8ff" d="M142.2,-307.8C153.24,-299.18 167.51,-288.04 179.76,-278.48"/>
<polygon fill="#63b8ff" stroke="#63b8ff" points="182.12,-281.08 187.85,-272.16 177.82,-275.56 182.12,-281.08"/>
</a>
</g>
</g>
<!-- Node3 -->
<g id="Node000003" class="node">
<title>Node3</title>
<g id="a_Node000003"><a xlink:title=" ">
<polygon fill="#e0e0e0" stroke="#999999" points="84,-206 0,-206 0,-187 84,-187 84,-206"/>
<text text-anchor="middle" x="42" y="-194" font-family="Helvetica,sans-Serif" font-size="10.00">imgui/imgui.h</text>
</a>
</g>
</g>
<!-- Node2&#45;&gt;Node3 -->
<g id="edge2_Node000002_Node000003" class="edge">
<title>Node2&#45;&gt;Node3</title>
<g id="a_edge2_Node000002_Node000003"><a xlink:title=" ">
<path fill="none" stroke="#63b8ff" d="M59.05,-247.37C56.21,-239.07 51.84,-226.28 48.23,-215.72"/>
<polygon fill="#63b8ff" stroke="#63b8ff" points="51.51,-214.5 44.96,-206.17 44.89,-216.76 51.51,-214.5"/>
</a>
</g>
</g>
<!-- Node5 -->
<g id="Node000005" class="node">
<title>Node5</title>
<g id="a_Node000005"><a xlink:href="peripheral_8hpp.html" target="_top" xlink:title="This file defines an interface for a memory&#45;mapped peripheral.">
<polygon fill="white" stroke="#666666" points="87.5,-145.5 0.5,-145.5 0.5,-126.5 87.5,-126.5 87.5,-145.5"/>
<text text-anchor="middle" x="44" y="-133.5" font-family="Helvetica,sans-Serif" font-size="10.00">peripheral.hpp</text>
</a>
</g>
</g>
<!-- Node4&#45;&gt;Node5 -->
<g id="edge4_Node000004_Node000005" class="edge">
<title>Node4&#45;&gt;Node5</title>
<g id="a_edge4_Node000004_Node000005"><a xlink:title=" ">
<path fill="none" stroke="#63b8ff" d="M183.68,-241.81C168.59,-232.05 148.33,-218.62 131,-206 106.71,-188.32 79.76,-166.6 62.38,-152.3"/>
<polygon fill="#63b8ff" stroke="#63b8ff" points="64.17,-149.24 54.23,-145.57 59.71,-154.64 64.17,-149.24"/>
</a>
</g>
</g>
<!-- Node6 -->
<g id="Node000006" class="node">
<title>Node6</title>
<g id="a_Node000006"><a xlink:href="interrupt__controller_8hpp.html" target="_top" xlink:title="This file defines the interrupt controller used in BCM2835.">
<polygon fill="white" stroke="#666666" points="271.5,-206 140.5,-206 140.5,-187 271.5,-187 271.5,-206"/>
<text text-anchor="middle" x="206" y="-194" font-family="Helvetica,sans-Serif" font-size="10.00">interrupt_controller.hpp</text>
</a>
</g>
</g>
<!-- Node4&#45;&gt;Node6 -->
<g id="edge5_Node000004_Node000006" class="edge">
<title>Node4&#45;&gt;Node6</title>
<g id="a_edge5_Node000004_Node000006"><a xlink:title=" ">
<path fill="none" stroke="#63b8ff" d="M206,-241.84C206,-234.21 206,-224.7 206,-216.45"/>
<polygon fill="#63b8ff" stroke="#63b8ff" points="209.5,-216.27 206,-206.27 202.5,-216.27 209.5,-216.27"/>
</a>
</g>
</g>
<!-- Node8 -->
<g id="Node000008" class="node">
<title>Node8</title>
<g id="a_Node000008"><a xlink:href="logging__system_8hpp.html" target="_top" xlink:title="This file defines a logging system that is used in the project.">
<polygon fill="white" stroke="#666666" points="370.5,-85 239.5,-85 239.5,-55 370.5,-55 370.5,-85"/>
<text text-anchor="start" x="247.5" y="-73" font-family="Helvetica,sans-Serif" font-size="10.00">zero_mate/utils/logging</text>
<text text-anchor="middle" x="305" y="-62" font-family="Helvetica,sans-Serif" font-size="10.00">_system.hpp</text>
</a>
</g>
</g>
<!-- Node4&#45;&gt;Node8 -->
<g id="edge11_Node000004_Node000008" class="edge">
<title>Node4&#45;&gt;Node8</title>
<g id="a_edge11_Node000004_Node000008"><a xlink:title=" ">
<path fill="none" stroke="#63b8ff" d="M238.31,-241.96C253.6,-233.68 270.72,-221.71 281,-206 302.98,-172.41 306.41,-124.5 306.2,-95.71"/>
<polygon fill="#63b8ff" stroke="#63b8ff" points="309.69,-95.25 305.96,-85.33 302.69,-95.41 309.69,-95.25"/>
</a>
</g>
</g>
<!-- Node10 -->
<g id="Node000010" class="node">
<title>Node10</title>
<g id="a_Node000010"><a xlink:href="external__peripheral_8hpp.html" target="_top" xlink:title="This file defines an interface for external peripherals that can be attached to the system via GPIO p...">
<polygon fill="white" stroke="#666666" points="464,-151 352,-151 352,-121 464,-121 464,-151"/>
<text text-anchor="start" x="360" y="-139" font-family="Helvetica,sans-Serif" font-size="10.00">zero_mate/external</text>
<text text-anchor="middle" x="408" y="-128" font-family="Helvetica,sans-Serif" font-size="10.00">_peripheral.hpp</text>
</a>
</g>
</g>
<!-- Node4&#45;&gt;Node10 -->
<g id="edge12_Node000004_Node000010" class="edge">
<title>Node4&#45;&gt;Node10</title>
<g id="a_edge12_Node000004_Node000010"><a xlink:title=" ">
<path fill="none" stroke="#63b8ff" d="M257.54,-241.99C282.95,-233.75 313.35,-221.81 338,-206 358,-193.18 376.95,-173.89 390.07,-158.97"/>
<polygon fill="#63b8ff" stroke="#63b8ff" points="392.89,-161.07 396.74,-151.2 387.57,-156.51 392.89,-161.07"/>
</a>
</g>
</g>
<!-- Node6&#45;&gt;Node5 -->
<g id="edge6_Node000006_Node000005" class="edge">
<title>Node6&#45;&gt;Node5</title>
<g id="a_edge6_Node000006_Node000005"><a xlink:title=" ">
<path fill="none" stroke="#63b8ff" d="M182.44,-186.99C154.73,-176.99 108.53,-160.3 77.19,-148.99"/>
<polygon fill="#63b8ff" stroke="#63b8ff" points="78.18,-145.62 67.58,-145.52 75.8,-152.21 78.18,-145.62"/>
</a>
</g>
</g>
<!-- Node7 -->
<g id="Node000007" class="node">
<title>Node7</title>
<g id="a_Node000007"><a xlink:href="context_8hpp.html" target="_top" xlink:title="This file defines the context (registers) of the CPU.">
<polygon fill="white" stroke="#666666" points="258,-145.5 106,-145.5 106,-126.5 258,-126.5 258,-145.5"/>
<text text-anchor="middle" x="182" y="-133.5" font-family="Helvetica,sans-Serif" font-size="10.00">../arm1176jzf_s/context.hpp</text>
</a>
</g>
</g>
<!-- Node6&#45;&gt;Node7 -->
<g id="edge7_Node000006_Node000007" class="edge">
<title>Node6&#45;&gt;Node7</title>
<g id="a_edge7_Node000006_Node000007"><a xlink:title=" ">
<path fill="none" stroke="#63b8ff" d="M202.46,-186.87C199.06,-178.57 193.81,-165.78 189.48,-155.22"/>
<polygon fill="#63b8ff" stroke="#63b8ff" points="192.59,-153.59 185.56,-145.67 186.11,-156.25 192.59,-153.59"/>
</a>
</g>
</g>
<!-- Node6&#45;&gt;Node8 -->
<g id="edge10_Node000006_Node000008" class="edge">
<title>Node6&#45;&gt;Node8</title>
<g id="a_edge10_Node000006_Node000008"><a xlink:title=" ">
<path fill="none" stroke="#63b8ff" d="M221.99,-186.87C235.42,-178.98 254.37,-166.24 267,-151 280.81,-134.33 290.92,-111.8 297.23,-94.9"/>
<polygon fill="#63b8ff" stroke="#63b8ff" points="300.62,-95.8 300.66,-85.2 294.03,-93.46 300.62,-95.8"/>
</a>
</g>
</g>
<!-- Node7&#45;&gt;Node8 -->
<g id="edge8_Node000007_Node000008" class="edge">
<title>Node7&#45;&gt;Node8</title>
<g id="a_edge8_Node000007_Node000008"><a xlink:title=" ">
<path fill="none" stroke="#63b8ff" d="M198.59,-126.37C216.53,-117.03 245.7,-101.86 268.96,-89.75"/>
<polygon fill="#63b8ff" stroke="#63b8ff" points="270.62,-92.84 277.87,-85.12 267.38,-86.63 270.62,-92.84"/>
</a>
</g>
</g>
<!-- Node9 -->
<g id="Node000009" class="node">
<title>Node9</title>
<g id="a_Node000009"><a xlink:href="logger_8hpp.html" target="_top" xlink:title="This file defines a general logger interface.">
<polygon fill="white" stroke="#666666" points="339,-19 271,-19 271,0 339,0 339,-19"/>
<text text-anchor="middle" x="305" y="-7" font-family="Helvetica,sans-Serif" font-size="10.00">logger.hpp</text>
</a>
</g>
</g>
<!-- Node8&#45;&gt;Node9 -->
<g id="edge9_Node000008_Node000009" class="edge">
<title>Node8&#45;&gt;Node9</title>
<g id="a_edge9_Node000008_Node000009"><a xlink:title=" ">
<path fill="none" stroke="#63b8ff" d="M305,-54.84C305,-47.21 305,-37.7 305,-29.45"/>
<polygon fill="#63b8ff" stroke="#63b8ff" points="308.5,-29.27 305,-19.27 301.5,-29.27 308.5,-29.27"/>
</a>
</g>
</g>
<!-- Node10&#45;&gt;Node8 -->
<g id="edge13_Node000010_Node000008" class="edge">
<title>Node10&#45;&gt;Node8</title>
<g id="a_edge13_Node000010_Node000008"><a xlink:title=" ">
<path fill="none" stroke="#63b8ff" d="M385.4,-120.95C371.04,-112.03 352.26,-100.36 336.45,-90.54"/>
<polygon fill="#63b8ff" stroke="#63b8ff" points="337.89,-87.32 327.55,-85.01 334.2,-93.26 337.89,-87.32"/>
</a>
</g>
</g>
</g>
</svg>
