<?xml version="1.0" encoding="UTF-8" standalone="no"?>
<!DOCTYPE svg PUBLIC "-//W3C//DTD SVG 1.1//EN"
 "http://www.w3.org/Graphics/SVG/1.1/DTD/svg11.dtd">
<!-- Generated by graphviz version 2.43.0 (0)
 -->
<!-- Title: src/core/peripherals/gpio.hpp Pages: 1 -->
<svg width="940pt" height="236pt"
 viewBox="0.00 0.00 940.00 236.00" xmlns="http://www.w3.org/2000/svg" xmlns:xlink="http://www.w3.org/1999/xlink">
<g id="graph0" class="graph" transform="scale(1 1) rotate(0) translate(4 232)">
<title>src/core/peripherals/gpio.hpp</title>
<!-- Node1 -->
<g id="Node000001" class="node">
<title>Node1</title>
<g id="a_Node000001"><a xlink:title="This file defines the GPIO controller used in BCM2835.">
<polygon fill="#999999" stroke="#666666" points="716,-228 603,-228 603,-198 716,-198 716,-228"/>
<text text-anchor="start" x="611" y="-216" font-family="Helvetica,sans-Serif" font-size="10.00">src/core/peripherals</text>
<text text-anchor="middle" x="659.5" y="-205" font-family="Helvetica,sans-Serif" font-size="10.00">/gpio.hpp</text>
</a>
</g>
</g>
<!-- Node2 -->
<g id="Node000002" class="node">
<title>Node2</title>
<g id="a_Node000002"><a xlink:href="auxiliary_8hpp.html" target="_top" xlink:title=" ">
<polygon fill="white" stroke="#666666" points="435.5,-162 307.5,-162 307.5,-132 435.5,-132 435.5,-162"/>
<text text-anchor="start" x="315.5" y="-150" font-family="Helvetica,sans-Serif" font-size="10.00">src/core/peripherals</text>
<text text-anchor="middle" x="371.5" y="-139" font-family="Helvetica,sans-Serif" font-size="10.00">/auxiliary/auxiliary.hpp</text>
</a>
</g>
</g>
<!-- Node1&#45;&gt;Node2 -->
<g id="edge1_Node000001_Node000002" class="edge">
<title>Node1&#45;&gt;Node2</title>
<g id="a_edge1_Node000001_Node000002"><a xlink:title=" ">
<path fill="none" stroke="#63b8ff" d="M593.03,-197.23C545.38,-186.64 481.58,-172.46 434.69,-162.04"/>
<polygon fill="#63b8ff" stroke="#63b8ff" points="592.42,-200.68 602.94,-199.43 593.94,-193.85 592.42,-200.68"/>
</a>
</g>
</g>
<!-- Node5 -->
<g id="Node000005" class="node">
<title>Node5</title>
<g id="a_Node000005"><a xlink:href="soc_8hpp.html" target="_top" xlink:title=" ">
<polygon fill="white" stroke="#666666" points="769,-90.5 674,-90.5 674,-71.5 769,-71.5 769,-90.5"/>
<text text-anchor="middle" x="721.5" y="-78.5" font-family="Helvetica,sans-Serif" font-size="10.00">src/core/soc.hpp</text>
</a>
</g>
</g>
<!-- Node1&#45;&gt;Node5 -->
<g id="edge15_Node000001_Node000005" class="edge">
<title>Node1&#45;&gt;Node5</title>
<g id="a_edge15_Node000001_Node000005"><a xlink:title=" ">
<path fill="none" stroke="#63b8ff" d="M662.19,-187.8C664.74,-171.36 669.56,-149.52 678.5,-132 686.93,-115.48 701.91,-99.84 711.77,-90.59"/>
<polygon fill="#63b8ff" stroke="#63b8ff" points="658.72,-187.33 660.83,-197.71 665.66,-188.28 658.72,-187.33"/>
</a>
</g>
</g>
<!-- Node11 -->
<g id="Node000011" class="node">
<title>Node11</title>
<g id="a_Node000011"><a xlink:href="bsc_8hpp.html" target="_top" xlink:title="This file defines the BSC peripheral used in BCM2835.">
<polygon fill="white" stroke="#666666" points="801,-162 688,-162 688,-132 801,-132 801,-162"/>
<text text-anchor="start" x="696" y="-150" font-family="Helvetica,sans-Serif" font-size="10.00">src/core/peripherals</text>
<text text-anchor="middle" x="744.5" y="-139" font-family="Helvetica,sans-Serif" font-size="10.00">/bsc.hpp</text>
</a>
</g>
</g>
<!-- Node1&#45;&gt;Node11 -->
<g id="edge11_Node000001_Node000011" class="edge">
<title>Node1&#45;&gt;Node11</title>
<g id="a_edge11_Node000001_Node000011"><a xlink:title=" ">
<path fill="none" stroke="#63b8ff" d="M686.39,-191.75C699.17,-182.13 714.14,-170.86 725.69,-162.16"/>
<polygon fill="#63b8ff" stroke="#63b8ff" points="684.25,-188.99 678.36,-197.8 688.46,-194.58 684.25,-188.99"/>
</a>
</g>
</g>
<!-- Node13 -->
<g id="Node000013" class="node">
<title>Node13</title>
<g id="a_Node000013"><a xlink:href="gpio_8cpp.html" target="_top" xlink:title="This file implements the GPIO controller used in BCM2835 (defined in gpio.hpp).">
<polygon fill="white" stroke="#666666" points="932,-162 819,-162 819,-132 932,-132 932,-162"/>
<text text-anchor="start" x="827" y="-150" font-family="Helvetica,sans-Serif" font-size="10.00">src/core/peripherals</text>
<text text-anchor="middle" x="875.5" y="-139" font-family="Helvetica,sans-Serif" font-size="10.00">/gpio.cpp</text>
</a>
</g>
</g>
<!-- Node1&#45;&gt;Node13 -->
<g id="edge14_Node000001_Node000013" class="edge">
<title>Node1&#45;&gt;Node13</title>
<g id="a_edge14_Node000001_Node000013"><a xlink:title=" ">
<path fill="none" stroke="#63b8ff" d="M716.91,-194.99C751.67,-184.69 795.45,-171.72 828.21,-162.01"/>
<polygon fill="#63b8ff" stroke="#63b8ff" points="715.5,-191.76 706.9,-197.95 717.48,-198.47 715.5,-191.76"/>
</a>
</g>
</g>
<!-- Node14 -->
<g id="Node000014" class="node">
<title>Node14</title>
<g id="a_Node000014"><a xlink:href="gpio__window_8hpp.html" target="_top" xlink:title="This file defines a window that visualizes the states and information about GPIO pins.">
<polygon fill="white" stroke="#666666" points="631.5,-162 479.5,-162 479.5,-132 631.5,-132 631.5,-162"/>
<text text-anchor="start" x="487.5" y="-150" font-family="Helvetica,sans-Serif" font-size="10.00">src/gui/windows/peripherals</text>
<text text-anchor="middle" x="555.5" y="-139" font-family="Helvetica,sans-Serif" font-size="10.00">/gpio_window.hpp</text>
</a>
</g>
</g>
<!-- Node1&#45;&gt;Node14 -->
<g id="edge16_Node000001_Node000014" class="edge">
<title>Node1&#45;&gt;Node14</title>
<g id="a_edge16_Node000001_Node000014"><a xlink:title=" ">
<path fill="none" stroke="#63b8ff" d="M628.13,-192.69C612.07,-182.82 592.89,-171.01 578.27,-162.01"/>
<polygon fill="#63b8ff" stroke="#63b8ff" points="626.33,-195.69 636.68,-197.95 629.99,-189.73 626.33,-195.69"/>
</a>
</g>
</g>
<!-- Node3 -->
<g id="Node000003" class="node">
<title>Node3</title>
<g id="a_Node000003"><a xlink:href="auxiliary_8cpp.html" target="_top" xlink:title=" ">
<polygon fill="white" stroke="#666666" points="127,-96 0,-96 0,-66 127,-66 127,-96"/>
<text text-anchor="start" x="8" y="-84" font-family="Helvetica,sans-Serif" font-size="10.00">src/core/peripherals</text>
<text text-anchor="middle" x="63.5" y="-73" font-family="Helvetica,sans-Serif" font-size="10.00">/auxiliary/auxiliary.cpp</text>
</a>
</g>
</g>
<!-- Node2&#45;&gt;Node3 -->
<g id="edge2_Node000002_Node000003" class="edge">
<title>Node2&#45;&gt;Node3</title>
<g id="a_edge2_Node000002_Node000003"><a xlink:title=" ">
<path fill="none" stroke="#63b8ff" d="M297.47,-130.62C245.46,-119.81 176.61,-105.5 127.08,-95.21"/>
<polygon fill="#63b8ff" stroke="#63b8ff" points="296.81,-134.05 307.31,-132.66 298.23,-127.2 296.81,-134.05"/>
</a>
</g>
</g>
<!-- Node4 -->
<g id="Node000004" class="node">
<title>Node4</title>
<g id="a_Node000004"><a xlink:href="mini__uart_8cpp.html" target="_top" xlink:title="This file implements the Mini UART auxiliary peripheral used in BCM2835.">
<polygon fill="white" stroke="#666666" points="277.5,-96 145.5,-96 145.5,-66 277.5,-66 277.5,-96"/>
<text text-anchor="start" x="153.5" y="-84" font-family="Helvetica,sans-Serif" font-size="10.00">src/core/peripherals</text>
<text text-anchor="middle" x="211.5" y="-73" font-family="Helvetica,sans-Serif" font-size="10.00">/auxiliary/mini_uart.cpp</text>
</a>
</g>
</g>
<!-- Node2&#45;&gt;Node4 -->
<g id="edge3_Node000002_Node000004" class="edge">
<title>Node2&#45;&gt;Node4</title>
<g id="a_edge3_Node000002_Node000004"><a xlink:title=" ">
<path fill="none" stroke="#63b8ff" d="M326.97,-128.19C301.56,-118.02 270.17,-105.47 246.53,-96.01"/>
<polygon fill="#63b8ff" stroke="#63b8ff" points="325.8,-131.49 336.39,-131.95 328.4,-124.99 325.8,-131.49"/>
</a>
</g>
</g>
<!-- Node2&#45;&gt;Node5 -->
<g id="edge4_Node000002_Node000005" class="edge">
<title>Node2&#45;&gt;Node5</title>
<g id="a_edge4_Node000002_Node000005"><a xlink:title=" ">
<path fill="none" stroke="#63b8ff" d="M445.81,-134.83C505.2,-125.54 590.47,-111.39 664.5,-96 672.28,-94.38 680.61,-92.45 688.44,-90.55"/>
<polygon fill="#63b8ff" stroke="#63b8ff" points="445.11,-131.4 435.77,-136.39 446.18,-138.31 445.11,-131.4"/>
</a>
</g>
</g>
<!-- Node9 -->
<g id="Node000009" class="node">
<title>Node9</title>
<g id="a_Node000009"><a xlink:href="aux__window_8hpp.html" target="_top" xlink:title="This file defines a window that visualizes the auxiliaries (UART1 &amp; SPI1, and SPI2) used in BCM2835.">
<polygon fill="white" stroke="#666666" points="447.5,-96 295.5,-96 295.5,-66 447.5,-66 447.5,-96"/>
<text text-anchor="start" x="303.5" y="-84" font-family="Helvetica,sans-Serif" font-size="10.00">src/gui/windows/peripherals</text>
<text text-anchor="middle" x="371.5" y="-73" font-family="Helvetica,sans-Serif" font-size="10.00">/aux_window.hpp</text>
</a>
</g>
</g>
<!-- Node2&#45;&gt;Node9 -->
<g id="edge8_Node000002_Node000009" class="edge">
<title>Node2&#45;&gt;Node9</title>
<g id="a_edge8_Node000002_Node000009"><a xlink:title=" ">
<path fill="none" stroke="#63b8ff" d="M371.5,-121.54C371.5,-112.96 371.5,-103.61 371.5,-96.16"/>
<polygon fill="#63b8ff" stroke="#63b8ff" points="368,-121.8 371.5,-131.8 375,-121.8 368,-121.8"/>
</a>
</g>
</g>
<!-- Node6 -->
<g id="Node000006" class="node">
<title>Node6</title>
<g id="a_Node000006"><a xlink:href="soc_8cpp.html" target="_top" xlink:title=" ">
<polygon fill="white" stroke="#666666" points="821,-24.5 726,-24.5 726,-5.5 821,-5.5 821,-24.5"/>
<text text-anchor="middle" x="773.5" y="-12.5" font-family="Helvetica,sans-Serif" font-size="10.00">src/core/soc.cpp</text>
</a>
</g>
</g>
<!-- Node5&#45;&gt;Node6 -->
<g id="edge5_Node000005_Node000006" class="edge">
<title>Node5&#45;&gt;Node6</title>
<g id="a_edge5_Node000005_Node000006"><a xlink:title=" ">
<path fill="none" stroke="#63b8ff" d="M735.1,-63.27C745.07,-50.99 758.23,-34.8 766.26,-24.91"/>
<polygon fill="#63b8ff" stroke="#63b8ff" points="732.1,-61.4 728.51,-71.37 737.54,-65.81 732.1,-61.4"/>
</a>
</g>
</g>
<!-- Node7 -->
<g id="Node000007" class="node">
<title>Node7</title>
<g id="a_Node000007"><a xlink:href="gui_8cpp.html" target="_top" xlink:title="This file implements the main GUI entry function that takes care of creating and rendering all window...">
<polygon fill="white" stroke="#666666" points="536,-24.5 449,-24.5 449,-5.5 536,-5.5 536,-24.5"/>
<text text-anchor="middle" x="492.5" y="-12.5" font-family="Helvetica,sans-Serif" font-size="10.00">src/gui/gui.cpp</text>
</a>
</g>
</g>
<!-- Node5&#45;&gt;Node7 -->
<g id="edge6_Node000005_Node000007" class="edge">
<title>Node5&#45;&gt;Node7</title>
<g id="a_edge6_Node000005_Node000007"><a xlink:title=" ">
<path fill="none" stroke="#63b8ff" d="M680.86,-68.64C635.75,-56.03 563.94,-35.97 523.26,-24.6"/>
<polygon fill="#63b8ff" stroke="#63b8ff" points="680.04,-72.05 690.62,-71.37 681.93,-65.31 680.04,-72.05"/>
</a>
</g>
</g>
<!-- Node8 -->
<g id="Node000008" class="node">
<title>Node8</title>
<g id="a_Node000008"><a xlink:href="main_8cpp.html" target="_top" xlink:title="This file defines and implements the main function of the application.">
<polygon fill="white" stroke="#666666" points="708,-24.5 629,-24.5 629,-5.5 708,-5.5 708,-24.5"/>
<text text-anchor="middle" x="668.5" y="-12.5" font-family="Helvetica,sans-Serif" font-size="10.00">src/main.cpp</text>
</a>
</g>
</g>
<!-- Node5&#45;&gt;Node8 -->
<g id="edge7_Node000005_Node000008" class="edge">
<title>Node5&#45;&gt;Node8</title>
<g id="a_edge7_Node000005_Node000008"><a xlink:title=" ">
<path fill="none" stroke="#63b8ff" d="M707.94,-63.62C697.74,-51.31 684.15,-34.89 675.87,-24.91"/>
<polygon fill="#63b8ff" stroke="#63b8ff" points="705.28,-65.9 714.35,-71.37 710.67,-61.43 705.28,-65.9"/>
</a>
</g>
</g>
<!-- Node9&#45;&gt;Node7 -->
<g id="edge9_Node000009_Node000007" class="edge">
<title>Node9&#45;&gt;Node7</title>
<g id="a_edge9_Node000009_Node000007"><a xlink:title=" ">
<path fill="none" stroke="#63b8ff" d="M407.16,-61.14C430.11,-49 458.82,-33.82 476.4,-24.52"/>
<polygon fill="#63b8ff" stroke="#63b8ff" points="405.26,-58.19 398.05,-65.95 408.53,-64.37 405.26,-58.19"/>
</a>
</g>
</g>
<!-- Node10 -->
<g id="Node000010" class="node">
<title>Node10</title>
<g id="a_Node000010"><a xlink:href="aux__window_8cpp.html" target="_top" xlink:title="This file implements a window that visualizes the auxiliaries (UART1 &amp; SPI1, and SPI2) used in BCM283...">
<polygon fill="white" stroke="#666666" points="430.5,-30 278.5,-30 278.5,0 430.5,0 430.5,-30"/>
<text text-anchor="start" x="286.5" y="-18" font-family="Helvetica,sans-Serif" font-size="10.00">src/gui/windows/peripherals</text>
<text text-anchor="middle" x="354.5" y="-7" font-family="Helvetica,sans-Serif" font-size="10.00">/aux_window.cpp</text>
</a>
</g>
</g>
<!-- Node9&#45;&gt;Node10 -->
<g id="edge10_Node000009_Node000010" class="edge">
<title>Node9&#45;&gt;Node10</title>
<g id="a_edge10_Node000009_Node000010"><a xlink:title=" ">
<path fill="none" stroke="#63b8ff" d="M365.15,-56.11C362.83,-47.38 360.29,-37.78 358.26,-30.16"/>
<polygon fill="#63b8ff" stroke="#63b8ff" points="361.78,-57.03 367.73,-65.8 368.54,-55.23 361.78,-57.03"/>
</a>
</g>
</g>
<!-- Node11&#45;&gt;Node5 -->
<g id="edge13_Node000011_Node000005" class="edge">
<title>Node11&#45;&gt;Node5</title>
<g id="a_edge13_Node000011_Node000005"><a xlink:title=" ">
<path fill="none" stroke="#63b8ff" d="M735.97,-122.28C732.03,-111.31 727.59,-98.94 724.68,-90.84"/>
<polygon fill="#63b8ff" stroke="#63b8ff" points="732.72,-123.57 739.4,-131.8 739.31,-121.2 732.72,-123.57"/>
</a>
</g>
</g>
<!-- Node12 -->
<g id="Node000012" class="node">
<title>Node12</title>
<g id="a_Node000012"><a xlink:href="bsc_8cpp.html" target="_top" xlink:title="This file implements the BSC peripheral used in BCM2835.">
<polygon fill="white" stroke="#666666" points="900,-96 787,-96 787,-66 900,-66 900,-96"/>
<text text-anchor="start" x="795" y="-84" font-family="Helvetica,sans-Serif" font-size="10.00">src/core/peripherals</text>
<text text-anchor="middle" x="843.5" y="-73" font-family="Helvetica,sans-Serif" font-size="10.00">/bsc.cpp</text>
</a>
</g>
</g>
<!-- Node11&#45;&gt;Node12 -->
<g id="edge12_Node000011_Node000012" class="edge">
<title>Node11&#45;&gt;Node12</title>
<g id="a_edge12_Node000011_Node000012"><a xlink:title=" ">
<path fill="none" stroke="#63b8ff" d="M774.97,-126.3C790.04,-116.56 807.89,-105.02 821.59,-96.16"/>
<polygon fill="#63b8ff" stroke="#63b8ff" points="772.97,-123.43 766.47,-131.8 776.77,-129.31 772.97,-123.43"/>
</a>
</g>
</g>
<!-- Node14&#45;&gt;Node7 -->
<g id="edge17_Node000014_Node000007" class="edge">
<title>Node14&#45;&gt;Node7</title>
<g id="a_edge17_Node000014_Node000007"><a xlink:title=" ">
<path fill="none" stroke="#63b8ff" d="M521.16,-126.11C510.68,-118.18 500.38,-108.04 494.5,-96 483.03,-72.53 487.33,-40.39 490.42,-24.97"/>
<polygon fill="#63b8ff" stroke="#63b8ff" points="519.33,-129.1 529.52,-132 523.35,-123.38 519.33,-129.1"/>
</a>
</g>
</g>
<!-- Node15 -->
<g id="Node000015" class="node">
<title>Node15</title>
<g id="a_Node000015"><a xlink:href="gpio__window_8cpp.html" target="_top" xlink:title="This file implements a window that visualizes the states and information about GPIO pins.">
<polygon fill="white" stroke="#666666" points="655.5,-96 503.5,-96 503.5,-66 655.5,-66 655.5,-96"/>
<text text-anchor="start" x="511.5" y="-84" font-family="Helvetica,sans-Serif" font-size="10.00">src/gui/windows/peripherals</text>
<text text-anchor="middle" x="579.5" y="-73" font-family="Helvetica,sans-Serif" font-size="10.00">/gpio_window.cpp</text>
</a>
</g>
</g>
<!-- Node14&#45;&gt;Node15 -->
<g id="edge18_Node000014_Node000015" class="edge">
<title>Node14&#45;&gt;Node15</title>
<g id="a_edge18_Node000014_Node000015"><a xlink:title=" ">
<path fill="none" stroke="#63b8ff" d="M564.35,-122.39C567.66,-113.59 571.3,-103.86 574.19,-96.16"/>
<polygon fill="#63b8ff" stroke="#63b8ff" points="561.06,-121.2 560.83,-131.8 567.61,-123.66 561.06,-121.2"/>
</a>
</g>
</g>
</g>
</svg>
