<?xml version="1.0" encoding="UTF-8" standalone="no"?>
<!DOCTYPE svg PUBLIC "-//W3C//DTD SVG 1.1//EN"
 "http://www.w3.org/Graphics/SVG/1.1/DTD/svg11.dtd">
<!-- Generated by graphviz version 2.43.0 (0)
 -->
<!-- Title: Graphical Class Hierarchy Pages: 1 -->
<svg width="315pt" height="1079pt"
 viewBox="0.00 0.00 315.00 1079.00" xmlns="http://www.w3.org/2000/svg" xmlns:xlink="http://www.w3.org/1999/xlink">
<g id="graph0" class="graph" transform="scale(1 1) rotate(0) translate(4 1075)">
<title>Graphical Class Hierarchy</title>
<!-- Node0 -->
<g id="Node000000" class="node">
<title>Node0</title>
<g id="a_Node000000"><a xlink:href="classzero__mate_1_1arm1176jzf__s_1_1isa_1_1CInstruction.html" target="_top" xlink:title="This class represents a parent class for all ARM instructions used in the emulator.">
<polygon fill="white" stroke="#666666" points="130,-527.5 0,-527.5 0,-497.5 130,-497.5 130,-527.5"/>
<text text-anchor="start" x="8" y="-515.5" font-family="Helvetica,sans-Serif" font-size="10.00">zero_mate::arm1176jzf</text>
<text text-anchor="middle" x="65" y="-504.5" font-family="Helvetica,sans-Serif" font-size="10.00">_s::isa::CInstruction</text>
</a>
</g>
</g>
<!-- Node1 -->
<g id="Node000001" class="node">
<title>Node1</title>
<g id="a_Node000001"><a xlink:href="classzero__mate_1_1arm1176jzf__s_1_1isa_1_1CBlock__Data__Transfer.html" target="_top" xlink:title="This class represents a data block transfer instruction.">
<polygon fill="white" stroke="#666666" points="301.5,-1071 171.5,-1071 171.5,-1030 301.5,-1030 301.5,-1071"/>
<text text-anchor="start" x="179.5" y="-1059" font-family="Helvetica,sans-Serif" font-size="10.00">zero_mate::arm1176jzf</text>
<text text-anchor="start" x="179.5" y="-1048" font-family="Helvetica,sans-Serif" font-size="10.00">_s::isa::CBlock_Data</text>
<text text-anchor="middle" x="236.5" y="-1037" font-family="Helvetica,sans-Serif" font-size="10.00">_Transfer</text>
</a>
</g>
</g>
<!-- Node0&#45;&gt;Node1 -->
<g id="edge10_Node000000_Node000001" class="edge">
<title>Node0&#45;&gt;Node1</title>
<g id="a_edge10_Node000000_Node000001"><a xlink:title=" ">
<path fill="none" stroke="#8b1a1a" d="M67.88,-537.55C75.19,-629.1 104.44,-944.2 166,-1020.5 168.81,-1023.98 172.09,-1027.06 175.68,-1029.79"/>
<polygon fill="#8b1a1a" stroke="#8b1a1a" points="71.36,-537.22 67.09,-527.52 64.38,-537.77 71.36,-537.22"/>
</a>
</g>
</g>
<!-- Node2 -->
<g id="Node000002" class="node">
<title>Node2</title>
<g id="a_Node000002"><a xlink:href="classzero__mate_1_1arm1176jzf__s_1_1isa_1_1CBranch.html" target="_top" xlink:title="This class represents a branch instruction.">
<polygon fill="white" stroke="#666666" points="301.5,-1011.5 171.5,-1011.5 171.5,-981.5 301.5,-981.5 301.5,-1011.5"/>
<text text-anchor="start" x="179.5" y="-999.5" font-family="Helvetica,sans-Serif" font-size="10.00">zero_mate::arm1176jzf</text>
<text text-anchor="middle" x="236.5" y="-988.5" font-family="Helvetica,sans-Serif" font-size="10.00">_s::isa::CBranch</text>
</a>
</g>
</g>
<!-- Node0&#45;&gt;Node2 -->
<g id="edge11_Node000000_Node000002" class="edge">
<title>Node0&#45;&gt;Node2</title>
<g id="a_edge11_Node000000_Node000002"><a xlink:title=" ">
<path fill="none" stroke="#63b8ff" d="M68.27,-537.81C76.48,-624.32 107.38,-906.49 166,-972.5 169.05,-975.94 172.62,-978.88 176.5,-981.4"/>
<polygon fill="#63b8ff" stroke="#63b8ff" points="71.73,-537.23 67.31,-527.6 64.76,-537.88 71.73,-537.23"/>
</a>
</g>
</g>
<!-- Node3 -->
<g id="Node000003" class="node">
<title>Node3</title>
<g id="a_Node000003"><a xlink:href="classzero__mate_1_1arm1176jzf__s_1_1isa_1_1CBranch__And__Exchange.html" target="_top" xlink:title="This class represents a branch and exchange instruction.">
<polygon fill="white" stroke="#666666" points="301.5,-963 171.5,-963 171.5,-922 301.5,-922 301.5,-963"/>
<text text-anchor="start" x="179.5" y="-951" font-family="Helvetica,sans-Serif" font-size="10.00">zero_mate::arm1176jzf</text>
<text text-anchor="start" x="179.5" y="-940" font-family="Helvetica,sans-Serif" font-size="10.00">_s::isa::CBranch_And</text>
<text text-anchor="middle" x="236.5" y="-929" font-family="Helvetica,sans-Serif" font-size="10.00">_Exchange</text>
</a>
</g>
</g>
<!-- Node0&#45;&gt;Node3 -->
<g id="edge12_Node000000_Node000003" class="edge">
<title>Node0&#45;&gt;Node3</title>
<g id="a_edge12_Node000000_Node000003"><a xlink:title=" ">
<path fill="none" stroke="#63b8ff" d="M69.34,-537.67C80.2,-616.11 116.65,-854.4 166,-912.5 168.98,-916.01 172.44,-919.11 176.2,-921.87"/>
<polygon fill="#63b8ff" stroke="#63b8ff" points="72.8,-537.13 67.98,-527.69 65.87,-538.08 72.8,-537.13"/>
</a>
</g>
</g>
<!-- Node4 -->
<g id="Node000004" class="node">
<title>Node4</title>
<g id="a_Node000004"><a xlink:href="classzero__mate_1_1arm1176jzf__s_1_1isa_1_1CCLZ.html" target="_top" xlink:title="This class represents a count leading zeros instruction.">
<polygon fill="white" stroke="#666666" points="301.5,-903.5 171.5,-903.5 171.5,-873.5 301.5,-873.5 301.5,-903.5"/>
<text text-anchor="start" x="179.5" y="-891.5" font-family="Helvetica,sans-Serif" font-size="10.00">zero_mate::arm1176jzf</text>
<text text-anchor="middle" x="236.5" y="-880.5" font-family="Helvetica,sans-Serif" font-size="10.00">_s::isa::CCLZ</text>
</a>
</g>
</g>
<!-- Node0&#45;&gt;Node4 -->
<g id="edge13_Node000000_Node000004" class="edge">
<title>Node0&#45;&gt;Node4</title>
<g id="a_edge13_Node000000_Node000004"><a xlink:title=" ">
<path fill="none" stroke="#63b8ff" d="M65.67,-537.85C66.25,-601.56 76.64,-770.02 166,-864.5 169.25,-867.93 173,-870.87 177.06,-873.39"/>
<polygon fill="#63b8ff" stroke="#63b8ff" points="69.17,-537.54 65.66,-527.55 62.17,-537.55 69.17,-537.54"/>
</a>
</g>
</g>
<!-- Node5 -->
<g id="Node000005" class="node">
<title>Node5</title>
<g id="a_Node000005"><a xlink:href="classzero__mate_1_1arm1176jzf__s_1_1isa_1_1CCPS.html" target="_top" xlink:title="This class represents a change processor state instruction.">
<polygon fill="white" stroke="#666666" points="301.5,-855.5 171.5,-855.5 171.5,-825.5 301.5,-825.5 301.5,-855.5"/>
<text text-anchor="start" x="179.5" y="-843.5" font-family="Helvetica,sans-Serif" font-size="10.00">zero_mate::arm1176jzf</text>
<text text-anchor="middle" x="236.5" y="-832.5" font-family="Helvetica,sans-Serif" font-size="10.00">_s::isa::CCPS</text>
</a>
</g>
</g>
<!-- Node0&#45;&gt;Node5 -->
<g id="edge14_Node000000_Node000005" class="edge">
<title>Node0&#45;&gt;Node5</title>
<g id="a_edge14_Node000000_Node000005"><a xlink:title=" ">
<path fill="none" stroke="#63b8ff" d="M67.01,-537.51C70.67,-594.85 87.6,-736.94 166,-816.5 169.4,-819.96 173.33,-822.91 177.55,-825.45"/>
<polygon fill="#63b8ff" stroke="#63b8ff" points="70.5,-537.31 66.45,-527.52 63.51,-537.7 70.5,-537.31"/>
</a>
</g>
</g>
<!-- Node6 -->
<g id="Node000006" class="node">
<title>Node6</title>
<g id="a_Node000006"><a xlink:href="classzero__mate_1_1arm1176jzf__s_1_1isa_1_1CCoprocessor__Data__Operation.html" target="_top" xlink:title="This class represents a coprocessor data operation.">
<polygon fill="white" stroke="#666666" points="301.5,-807 171.5,-807 171.5,-766 301.5,-766 301.5,-807"/>
<text text-anchor="start" x="179.5" y="-795" font-family="Helvetica,sans-Serif" font-size="10.00">zero_mate::arm1176jzf</text>
<text text-anchor="start" x="179.5" y="-784" font-family="Helvetica,sans-Serif" font-size="10.00">_s::isa::CCoprocessor</text>
<text text-anchor="middle" x="236.5" y="-773" font-family="Helvetica,sans-Serif" font-size="10.00">_Data_Operation</text>
</a>
</g>
</g>
<!-- Node0&#45;&gt;Node6 -->
<g id="edge15_Node000000_Node000006" class="edge">
<title>Node0&#45;&gt;Node6</title>
<g id="a_edge15_Node000000_Node000006"><a xlink:title=" ">
<path fill="none" stroke="#63b8ff" d="M69.73,-537.64C78.21,-586.34 103.28,-694.29 166,-757.5 169.04,-760.56 172.45,-763.32 176.08,-765.79"/>
<polygon fill="#63b8ff" stroke="#63b8ff" points="73.16,-536.95 68.08,-527.65 66.26,-538.09 73.16,-536.95"/>
</a>
</g>
</g>
<!-- Node7 -->
<g id="Node000007" class="node">
<title>Node7</title>
<g id="a_Node000007"><a xlink:href="classzero__mate_1_1arm1176jzf__s_1_1isa_1_1CCoprocessor__Data__Transfer.html" target="_top" xlink:title="This class represents a coprocessor data transfer instruction.">
<polygon fill="white" stroke="#666666" points="301.5,-748 171.5,-748 171.5,-707 301.5,-707 301.5,-748"/>
<text text-anchor="start" x="179.5" y="-736" font-family="Helvetica,sans-Serif" font-size="10.00">zero_mate::arm1176jzf</text>
<text text-anchor="start" x="179.5" y="-725" font-family="Helvetica,sans-Serif" font-size="10.00">_s::isa::CCoprocessor</text>
<text text-anchor="middle" x="236.5" y="-714" font-family="Helvetica,sans-Serif" font-size="10.00">_Data_Transfer</text>
</a>
</g>
</g>
<!-- Node0&#45;&gt;Node7 -->
<g id="edge16_Node000000_Node000007" class="edge">
<title>Node0&#45;&gt;Node7</title>
<g id="a_edge16_Node000000_Node000007"><a xlink:title=" ">
<path fill="none" stroke="#63b8ff" d="M73.31,-537.28C86.06,-576.5 115.88,-653.07 166,-698.5 169.39,-701.57 173.15,-704.35 177.12,-706.85"/>
<polygon fill="#63b8ff" stroke="#63b8ff" points="76.64,-536.2 70.3,-527.71 69.97,-538.3 76.64,-536.2"/>
</a>
</g>
</g>
<!-- Node8 -->
<g id="Node000008" class="node">
<title>Node8</title>
<g id="a_Node000008"><a xlink:href="classzero__mate_1_1arm1176jzf__s_1_1isa_1_1CCoprocessor__Reg__Transfer.html" target="_top" xlink:title="This class represents a coprocessor register transfer instruction.">
<polygon fill="white" stroke="#666666" points="301.5,-689 171.5,-689 171.5,-648 301.5,-648 301.5,-689"/>
<text text-anchor="start" x="179.5" y="-677" font-family="Helvetica,sans-Serif" font-size="10.00">zero_mate::arm1176jzf</text>
<text text-anchor="start" x="179.5" y="-666" font-family="Helvetica,sans-Serif" font-size="10.00">_s::isa::CCoprocessor</text>
<text text-anchor="middle" x="236.5" y="-655" font-family="Helvetica,sans-Serif" font-size="10.00">_Reg_Transfer</text>
</a>
</g>
</g>
<!-- Node0&#45;&gt;Node8 -->
<g id="edge17_Node000000_Node000008" class="edge">
<title>Node0&#45;&gt;Node8</title>
<g id="a_edge17_Node000000_Node000008"><a xlink:title=" ">
<path fill="none" stroke="#63b8ff" d="M79.85,-536.37C96.99,-564.13 128.55,-609.81 166,-638.5 170.49,-641.94 175.43,-645.07 180.54,-647.89"/>
<polygon fill="#63b8ff" stroke="#63b8ff" points="82.77,-534.43 74.6,-527.69 76.78,-538.06 82.77,-534.43"/>
</a>
</g>
</g>
<!-- Node9 -->
<g id="Node000009" class="node">
<title>Node9</title>
<g id="a_Node000009"><a xlink:href="classzero__mate_1_1arm1176jzf__s_1_1isa_1_1CData__Processing.html" target="_top" xlink:title="This class represents a data processing instruction.">
<polygon fill="white" stroke="#666666" points="307,-629.5 166,-629.5 166,-599.5 307,-599.5 307,-629.5"/>
<text text-anchor="start" x="174" y="-617.5" font-family="Helvetica,sans-Serif" font-size="10.00">zero_mate::arm1176jzf</text>
<text text-anchor="middle" x="236.5" y="-606.5" font-family="Helvetica,sans-Serif" font-size="10.00">_s::isa::CData_Processing</text>
</a>
</g>
</g>
<!-- Node0&#45;&gt;Node9 -->
<g id="edge18_Node000000_Node000009" class="edge">
<title>Node0&#45;&gt;Node9</title>
<g id="a_edge18_Node000000_Node000009"><a xlink:title=" ">
<path fill="none" stroke="#63b8ff" d="M89.48,-534.48C108.81,-551.63 137.56,-575.05 166,-590.5 172.06,-593.79 178.65,-596.76 185.29,-599.4"/>
<polygon fill="#63b8ff" stroke="#63b8ff" points="91.57,-531.65 81.8,-527.56 86.88,-536.85 91.57,-531.65"/>
</a>
</g>
</g>
<!-- Node10 -->
<g id="Node000010" class="node">
<title>Node10</title>
<g id="a_Node000010"><a xlink:href="classzero__mate_1_1arm1176jzf__s_1_1isa_1_1CExtend.html" target="_top" xlink:title="This class represents an extend instruction.">
<polygon fill="white" stroke="#666666" points="301.5,-581.5 171.5,-581.5 171.5,-551.5 301.5,-551.5 301.5,-581.5"/>
<text text-anchor="start" x="179.5" y="-569.5" font-family="Helvetica,sans-Serif" font-size="10.00">zero_mate::arm1176jzf</text>
<text text-anchor="middle" x="236.5" y="-558.5" font-family="Helvetica,sans-Serif" font-size="10.00">_s::isa::CExtend</text>
</a>
</g>
</g>
<!-- Node0&#45;&gt;Node10 -->
<g id="edge19_Node000000_Node000010" class="edge">
<title>Node0&#45;&gt;Node10</title>
<g id="a_edge19_Node000000_Node000010"><a xlink:title=" ">
<path fill="none" stroke="#8b1a1a" d="M122.77,-530.59C144.03,-537.36 167.94,-544.98 188.24,-551.45"/>
<polygon fill="#8b1a1a" stroke="#8b1a1a" points="123.81,-527.24 113.22,-527.54 121.68,-533.91 123.81,-527.24"/>
</a>
</g>
</g>
<!-- Node11 -->
<g id="Node000011" class="node">
<title>Node11</title>
<g id="a_Node000011"><a xlink:href="classzero__mate_1_1arm1176jzf__s_1_1isa_1_1CHalfword__Data__Transfer.html" target="_top" xlink:title="This class represents a Halfword data transfer instruction.">
<polygon fill="white" stroke="#666666" points="302.5,-533 170.5,-533 170.5,-492 302.5,-492 302.5,-533"/>
<text text-anchor="start" x="178.5" y="-521" font-family="Helvetica,sans-Serif" font-size="10.00">zero_mate::arm1176jzf</text>
<text text-anchor="start" x="178.5" y="-510" font-family="Helvetica,sans-Serif" font-size="10.00">_s::isa::CHalfword_Data</text>
<text text-anchor="middle" x="236.5" y="-499" font-family="Helvetica,sans-Serif" font-size="10.00">_Transfer</text>
</a>
</g>
</g>
<!-- Node0&#45;&gt;Node11 -->
<g id="edge20_Node000000_Node000011" class="edge">
<title>Node0&#45;&gt;Node11</title>
<g id="a_edge20_Node000000_Node000011"><a xlink:title=" ">
<path fill="none" stroke="#63b8ff" d="M140.11,-512.5C150.22,-512.5 160.55,-512.5 170.48,-512.5"/>
<polygon fill="#63b8ff" stroke="#63b8ff" points="140.08,-509 130.08,-512.5 140.08,-516 140.08,-509"/>
</a>
</g>
</g>
<!-- Node12 -->
<g id="Node000012" class="node">
<title>Node12</title>
<g id="a_Node000012"><a xlink:href="classzero__mate_1_1arm1176jzf__s_1_1isa_1_1CMultiply.html" target="_top" xlink:title="This class represents a multiplication instruction.">
<polygon fill="white" stroke="#666666" points="301.5,-473.5 171.5,-473.5 171.5,-443.5 301.5,-443.5 301.5,-473.5"/>
<text text-anchor="start" x="179.5" y="-461.5" font-family="Helvetica,sans-Serif" font-size="10.00">zero_mate::arm1176jzf</text>
<text text-anchor="middle" x="236.5" y="-450.5" font-family="Helvetica,sans-Serif" font-size="10.00">_s::isa::CMultiply</text>
</a>
</g>
</g>
<!-- Node0&#45;&gt;Node12 -->
<g id="edge21_Node000000_Node000012" class="edge">
<title>Node0&#45;&gt;Node12</title>
<g id="a_edge21_Node000000_Node000012"><a xlink:title=" ">
<path fill="none" stroke="#63b8ff" d="M122.77,-494.41C144.03,-487.64 167.94,-480.02 188.24,-473.55"/>
<polygon fill="#63b8ff" stroke="#63b8ff" points="121.68,-491.09 113.22,-497.46 123.81,-497.76 121.68,-491.09"/>
</a>
</g>
</g>
<!-- Node13 -->
<g id="Node000013" class="node">
<title>Node13</title>
<g id="a_Node000013"><a xlink:href="classzero__mate_1_1arm1176jzf__s_1_1isa_1_1CMultiply__Long.html" target="_top" xlink:title="This class represents a multiplication long instruction.">
<polygon fill="white" stroke="#666666" points="301.5,-425.5 171.5,-425.5 171.5,-395.5 301.5,-395.5 301.5,-425.5"/>
<text text-anchor="start" x="179.5" y="-413.5" font-family="Helvetica,sans-Serif" font-size="10.00">zero_mate::arm1176jzf</text>
<text text-anchor="middle" x="236.5" y="-402.5" font-family="Helvetica,sans-Serif" font-size="10.00">_s::isa::CMultiply_Long</text>
</a>
</g>
</g>
<!-- Node0&#45;&gt;Node13 -->
<g id="edge22_Node000000_Node000013" class="edge">
<title>Node0&#45;&gt;Node13</title>
<g id="a_edge22_Node000000_Node000013"><a xlink:title=" ">
<path fill="none" stroke="#63b8ff" d="M89.48,-490.52C108.81,-473.37 137.56,-449.95 166,-434.5 172.06,-431.21 178.65,-428.24 185.29,-425.6"/>
<polygon fill="#63b8ff" stroke="#63b8ff" points="86.88,-488.15 81.8,-497.44 91.57,-493.35 86.88,-488.15"/>
</a>
</g>
</g>
<!-- Node14 -->
<g id="Node000014" class="node">
<title>Node14</title>
<g id="a_Node000014"><a xlink:href="classzero__mate_1_1arm1176jzf__s_1_1isa_1_1CPSR__Transfer.html" target="_top" xlink:title="This class represents a PSR instruction.">
<polygon fill="white" stroke="#666666" points="301.5,-377.5 171.5,-377.5 171.5,-347.5 301.5,-347.5 301.5,-377.5"/>
<text text-anchor="start" x="179.5" y="-365.5" font-family="Helvetica,sans-Serif" font-size="10.00">zero_mate::arm1176jzf</text>
<text text-anchor="middle" x="236.5" y="-354.5" font-family="Helvetica,sans-Serif" font-size="10.00">_s::isa::CPSR_Transfer</text>
</a>
</g>
</g>
<!-- Node0&#45;&gt;Node14 -->
<g id="edge23_Node000000_Node000014" class="edge">
<title>Node0&#45;&gt;Node14</title>
<g id="a_edge23_Node000000_Node000014"><a xlink:title=" ">
<path fill="none" stroke="#63b8ff" d="M79.21,-488.59C95.94,-460.39 127.3,-413.91 166,-386.5 170.79,-383.11 176.11,-380.16 181.6,-377.6"/>
<polygon fill="#63b8ff" stroke="#63b8ff" points="76.1,-486.99 74.11,-497.39 82.15,-490.5 76.1,-486.99"/>
</a>
</g>
</g>
<!-- Node15 -->
<g id="Node000015" class="node">
<title>Node15</title>
<g id="a_Node000015"><a xlink:href="classzero__mate_1_1arm1176jzf__s_1_1isa_1_1CRFE.html" target="_top" xlink:title="This class represents an RFE instruction (return from exception).">
<polygon fill="white" stroke="#666666" points="301.5,-329.5 171.5,-329.5 171.5,-299.5 301.5,-299.5 301.5,-329.5"/>
<text text-anchor="start" x="179.5" y="-317.5" font-family="Helvetica,sans-Serif" font-size="10.00">zero_mate::arm1176jzf</text>
<text text-anchor="middle" x="236.5" y="-306.5" font-family="Helvetica,sans-Serif" font-size="10.00">_s::isa::CRFE</text>
</a>
</g>
</g>
<!-- Node0&#45;&gt;Node15 -->
<g id="edge24_Node000000_Node000015" class="edge">
<title>Node0&#45;&gt;Node15</title>
<g id="a_edge24_Node000000_Node000015"><a xlink:title=" ">
<path fill="none" stroke="#8b1a1a" d="M73.91,-487.64C87.09,-450.08 117.03,-378.98 166,-338.5 170.13,-335.08 174.78,-332.14 179.66,-329.61"/>
<polygon fill="#8b1a1a" stroke="#8b1a1a" points="70.53,-486.69 70.63,-497.29 77.16,-488.94 70.53,-486.69"/>
</a>
</g>
</g>
<!-- Node16 -->
<g id="Node000016" class="node">
<title>Node16</title>
<g id="a_Node000016"><a xlink:href="classzero__mate_1_1arm1176jzf__s_1_1isa_1_1CSMLAWy.html" target="_top" xlink:title="This class represents a CSMLAWy instruction.">
<polygon fill="white" stroke="#666666" points="301.5,-281.5 171.5,-281.5 171.5,-251.5 301.5,-251.5 301.5,-281.5"/>
<text text-anchor="start" x="179.5" y="-269.5" font-family="Helvetica,sans-Serif" font-size="10.00">zero_mate::arm1176jzf</text>
<text text-anchor="middle" x="236.5" y="-258.5" font-family="Helvetica,sans-Serif" font-size="10.00">_s::isa::CSMLAWy</text>
</a>
</g>
</g>
<!-- Node0&#45;&gt;Node16 -->
<g id="edge25_Node000000_Node000016" class="edge">
<title>Node0&#45;&gt;Node16</title>
<g id="a_edge25_Node000000_Node000016"><a xlink:title=" ">
<path fill="none" stroke="#8b1a1a" d="M70.51,-487.49C80.01,-441.9 106.32,-344.99 166,-290.5 169.77,-287.06 174.06,-284.1 178.61,-281.57"/>
<polygon fill="#8b1a1a" stroke="#8b1a1a" points="67.05,-486.92 68.54,-497.41 73.92,-488.28 67.05,-486.92"/>
</a>
</g>
</g>
<!-- Node17 -->
<g id="Node000017" class="node">
<title>Node17</title>
<g id="a_Node000017"><a xlink:href="classzero__mate_1_1arm1176jzf__s_1_1isa_1_1CSMLAxy.html" target="_top" xlink:title="This class represents a CSMLAxy instruction.">
<polygon fill="white" stroke="#666666" points="301.5,-233.5 171.5,-233.5 171.5,-203.5 301.5,-203.5 301.5,-233.5"/>
<text text-anchor="start" x="179.5" y="-221.5" font-family="Helvetica,sans-Serif" font-size="10.00">zero_mate::arm1176jzf</text>
<text text-anchor="middle" x="236.5" y="-210.5" font-family="Helvetica,sans-Serif" font-size="10.00">_s::isa::CSMLAxy</text>
</a>
</g>
</g>
<!-- Node0&#45;&gt;Node17 -->
<g id="edge26_Node000000_Node000017" class="edge">
<title>Node0&#45;&gt;Node17</title>
<g id="a_edge26_Node000000_Node000017"><a xlink:title=" ">
<path fill="none" stroke="#63b8ff" d="M68.27,-487.05C74.33,-434.11 95.6,-311.35 166,-242.5 169.47,-239.11 173.44,-236.19 177.68,-233.69"/>
<polygon fill="#63b8ff" stroke="#63b8ff" points="64.76,-486.93 67.19,-497.24 71.72,-487.66 64.76,-486.93"/>
</a>
</g>
</g>
<!-- Node18 -->
<g id="Node000018" class="node">
<title>Node18</title>
<g id="a_Node000018"><a xlink:href="classzero__mate_1_1arm1176jzf__s_1_1isa_1_1CSMULWy.html" target="_top" xlink:title="This class represents a CSMULWy instruction.">
<polygon fill="white" stroke="#666666" points="301.5,-185.5 171.5,-185.5 171.5,-155.5 301.5,-155.5 301.5,-185.5"/>
<text text-anchor="start" x="179.5" y="-173.5" font-family="Helvetica,sans-Serif" font-size="10.00">zero_mate::arm1176jzf</text>
<text text-anchor="middle" x="236.5" y="-162.5" font-family="Helvetica,sans-Serif" font-size="10.00">_s::isa::CSMULWy</text>
</a>
</g>
</g>
<!-- Node0&#45;&gt;Node18 -->
<g id="edge27_Node000000_Node000018" class="edge">
<title>Node0&#45;&gt;Node18</title>
<g id="a_edge27_Node000000_Node000018"><a xlink:title=" ">
<path fill="none" stroke="#63b8ff" d="M66.59,-487.15C69.36,-427.75 84.52,-278.28 166,-194.5 169.38,-191.02 173.29,-188.05 177.5,-185.51"/>
<polygon fill="#63b8ff" stroke="#63b8ff" points="63.1,-487.03 66.21,-497.15 70.09,-487.3 63.1,-487.03"/>
</a>
</g>
</g>
<!-- Node19 -->
<g id="Node000019" class="node">
<title>Node19</title>
<g id="a_Node000019"><a xlink:href="classzero__mate_1_1arm1176jzf__s_1_1isa_1_1CSMULxy.html" target="_top" xlink:title="This class represents a SMULxy instruction.">
<polygon fill="white" stroke="#666666" points="301.5,-137.5 171.5,-137.5 171.5,-107.5 301.5,-107.5 301.5,-137.5"/>
<text text-anchor="start" x="179.5" y="-125.5" font-family="Helvetica,sans-Serif" font-size="10.00">zero_mate::arm1176jzf</text>
<text text-anchor="middle" x="236.5" y="-114.5" font-family="Helvetica,sans-Serif" font-size="10.00">_s::isa::CSMULxy</text>
</a>
</g>
</g>
<!-- Node0&#45;&gt;Node19 -->
<g id="edge28_Node000000_Node000019" class="edge">
<title>Node0&#45;&gt;Node19</title>
<g id="a_edge28_Node000000_Node000019"><a xlink:title=" ">
<path fill="none" stroke="#63b8ff" d="M65.34,-487.03C65.05,-421.51 73.44,-245.36 166,-146.5 169.23,-143.05 172.97,-140.1 177.02,-137.57"/>
<polygon fill="#63b8ff" stroke="#63b8ff" points="61.84,-487.29 65.46,-497.25 68.84,-487.21 61.84,-487.29"/>
</a>
</g>
</g>
<!-- Node20 -->
<g id="Node000020" class="node">
<title>Node20</title>
<g id="a_Node000020"><a xlink:href="classzero__mate_1_1arm1176jzf__s_1_1isa_1_1CSRS.html" target="_top" xlink:title="his class represents an SRS instruction (store return state onto a stack).">
<polygon fill="white" stroke="#666666" points="301.5,-89.5 171.5,-89.5 171.5,-59.5 301.5,-59.5 301.5,-89.5"/>
<text text-anchor="start" x="179.5" y="-77.5" font-family="Helvetica,sans-Serif" font-size="10.00">zero_mate::arm1176jzf</text>
<text text-anchor="middle" x="236.5" y="-66.5" font-family="Helvetica,sans-Serif" font-size="10.00">_s::isa::CSRS</text>
</a>
</g>
</g>
<!-- Node0&#45;&gt;Node20 -->
<g id="edge29_Node000000_Node000020" class="edge">
<title>Node0&#45;&gt;Node20</title>
<g id="a_edge29_Node000000_Node000020"><a xlink:title=" ">
<path fill="none" stroke="#8b1a1a" d="M68.97,-486.84C78.83,-405.75 112.92,-156.9 166,-98.5 169.09,-95.1 172.69,-92.18 176.58,-89.67"/>
<polygon fill="#8b1a1a" stroke="#8b1a1a" points="65.45,-486.79 67.74,-497.13 72.4,-487.62 65.45,-486.79"/>
</a>
</g>
</g>
<!-- Node21 -->
<g id="Node000021" class="node">
<title>Node21</title>
<g id="a_Node000021"><a xlink:href="classzero__mate_1_1arm1176jzf__s_1_1isa_1_1CSingle__Data__Transfer.html" target="_top" xlink:title="This class represents a single data transfer instruction.">
<polygon fill="white" stroke="#666666" points="301.5,-41 171.5,-41 171.5,0 301.5,0 301.5,-41"/>
<text text-anchor="start" x="179.5" y="-29" font-family="Helvetica,sans-Serif" font-size="10.00">zero_mate::arm1176jzf</text>
<text text-anchor="start" x="179.5" y="-18" font-family="Helvetica,sans-Serif" font-size="10.00">_s::isa::CSingle_Data</text>
<text text-anchor="middle" x="236.5" y="-7" font-family="Helvetica,sans-Serif" font-size="10.00">_Transfer</text>
</a>
</g>
</g>
<!-- Node0&#45;&gt;Node21 -->
<g id="edge30_Node000000_Node000021" class="edge">
<title>Node0&#45;&gt;Node21</title>
<g id="a_edge30_Node000000_Node000021"><a xlink:title=" ">
<path fill="none" stroke="#8b1a1a" d="M68.43,-487.24C77.21,-400.88 109.7,-118.97 166,-50.5 168.92,-46.95 172.34,-43.81 176.07,-41.03"/>
<polygon fill="#8b1a1a" stroke="#8b1a1a" points="64.93,-487.13 67.42,-497.43 71.89,-487.83 64.93,-487.13"/>
</a>
</g>
</g>
</g>
</svg>
