<?xml version="1.0" encoding="UTF-8" standalone="no"?>
<!DOCTYPE svg PUBLIC "-//W3C//DTD SVG 1.1//EN"
 "http://www.w3.org/Graphics/SVG/1.1/DTD/svg11.dtd">
<!-- Generated by graphviz version 2.43.0 (0)
 -->
<!-- Title: Graphical Class Hierarchy Pages: 1 -->
<svg width="310pt" height="230pt"
 viewBox="0.00 0.00 310.00 230.00" xmlns="http://www.w3.org/2000/svg" xmlns:xlink="http://www.w3.org/1999/xlink">
<g id="graph0" class="graph" transform="scale(1 1) rotate(0) translate(4 226)">
<title>Graphical Class Hierarchy</title>
<!-- Node0 -->
<g id="Node000000" class="node">
<title>Node0</title>
<g id="a_Node000000"><a xlink:href="classzero__mate_1_1coprocessor_1_1cp15_1_1IPrimary__Reg.html" target="_top" xlink:title="This interface defines common functionality of every primary register of coprocessor CP15.">
<polygon fill="white" stroke="#666666" points="133,-126 0,-126 0,-96 133,-96 133,-126"/>
<text text-anchor="start" x="8" y="-114" font-family="Helvetica,sans-Serif" font-size="10.00">zero_mate::coprocessor</text>
<text text-anchor="middle" x="66.5" y="-103" font-family="Helvetica,sans-Serif" font-size="10.00">::cp15::IPrimary_Reg</text>
</a>
</g>
</g>
<!-- Node1 -->
<g id="Node000001" class="node">
<title>Node1</title>
<g id="a_Node000001"><a xlink:href="classzero__mate_1_1coprocessor_1_1cp15_1_1CC1.html" target="_top" xlink:title="This class represents primary register C1 of coprocessor CP15.">
<polygon fill="white" stroke="#666666" points="302,-222 169,-222 169,-192 302,-192 302,-222"/>
<text text-anchor="start" x="177" y="-210" font-family="Helvetica,sans-Serif" font-size="10.00">zero_mate::coprocessor</text>
<text text-anchor="middle" x="235.5" y="-199" font-family="Helvetica,sans-Serif" font-size="10.00">::cp15::CC1</text>
</a>
</g>
</g>
<!-- Node0&#45;&gt;Node1 -->
<g id="edge34_Node000000_Node000001" class="edge">
<title>Node0&#45;&gt;Node1</title>
<g id="a_edge34_Node000000_Node000001"><a xlink:title=" ">
<path fill="none" stroke="#63b8ff" d="M93.54,-132.42C113.34,-147.95 141.73,-168.66 169,-183 175.11,-186.21 181.75,-189.18 188.37,-191.86"/>
<polygon fill="#63b8ff" stroke="#63b8ff" points="95.62,-129.6 85.61,-126.11 91.26,-135.08 95.62,-129.6"/>
</a>
</g>
</g>
<!-- Node2 -->
<g id="Node000002" class="node">
<title>Node2</title>
<g id="a_Node000002"><a xlink:href="classzero__mate_1_1coprocessor_1_1cp15_1_1CC2.html" target="_top" xlink:title="This class represents primary register C2 of coprocessor CP15.">
<polygon fill="white" stroke="#666666" points="302,-174 169,-174 169,-144 302,-144 302,-174"/>
<text text-anchor="start" x="177" y="-162" font-family="Helvetica,sans-Serif" font-size="10.00">zero_mate::coprocessor</text>
<text text-anchor="middle" x="235.5" y="-151" font-family="Helvetica,sans-Serif" font-size="10.00">::cp15::CC2</text>
</a>
</g>
</g>
<!-- Node0&#45;&gt;Node2 -->
<g id="edge35_Node000000_Node000002" class="edge">
<title>Node0&#45;&gt;Node2</title>
<g id="a_edge35_Node000000_Node000002"><a xlink:title=" ">
<path fill="none" stroke="#63b8ff" d="M129.87,-128.93C147.13,-133.89 165.69,-139.22 182.3,-144"/>
<polygon fill="#63b8ff" stroke="#63b8ff" points="130.46,-125.45 119.88,-126.06 128.53,-132.18 130.46,-125.45"/>
</a>
</g>
</g>
<!-- Node3 -->
<g id="Node000003" class="node">
<title>Node3</title>
<g id="a_Node000003"><a xlink:href="classzero__mate_1_1coprocessor_1_1cp15_1_1CC3.html" target="_top" xlink:title="This class represents primary register C3 of coprocessor CP15.">
<polygon fill="white" stroke="#666666" points="302,-126 169,-126 169,-96 302,-96 302,-126"/>
<text text-anchor="start" x="177" y="-114" font-family="Helvetica,sans-Serif" font-size="10.00">zero_mate::coprocessor</text>
<text text-anchor="middle" x="235.5" y="-103" font-family="Helvetica,sans-Serif" font-size="10.00">::cp15::CC3</text>
</a>
</g>
</g>
<!-- Node0&#45;&gt;Node3 -->
<g id="edge36_Node000000_Node000003" class="edge">
<title>Node0&#45;&gt;Node3</title>
<g id="a_edge36_Node000000_Node000003"><a xlink:title=" ">
<path fill="none" stroke="#63b8ff" d="M143.07,-111C151.68,-111 160.42,-111 168.89,-111"/>
<polygon fill="#63b8ff" stroke="#63b8ff" points="143.02,-107.5 133.02,-111 143.02,-114.5 143.02,-107.5"/>
</a>
</g>
</g>
<!-- Node4 -->
<g id="Node000004" class="node">
<title>Node4</title>
<g id="a_Node000004"><a xlink:href="classzero__mate_1_1coprocessor_1_1cp15_1_1CC7.html" target="_top" xlink:title="This class represents primary register C7 of coprocessor CP15.">
<polygon fill="white" stroke="#666666" points="302,-78 169,-78 169,-48 302,-48 302,-78"/>
<text text-anchor="start" x="177" y="-66" font-family="Helvetica,sans-Serif" font-size="10.00">zero_mate::coprocessor</text>
<text text-anchor="middle" x="235.5" y="-55" font-family="Helvetica,sans-Serif" font-size="10.00">::cp15::CC7</text>
</a>
</g>
</g>
<!-- Node0&#45;&gt;Node4 -->
<g id="edge37_Node000000_Node000004" class="edge">
<title>Node0&#45;&gt;Node4</title>
<g id="a_edge37_Node000000_Node000004"><a xlink:title=" ">
<path fill="none" stroke="#63b8ff" d="M129.87,-93.07C147.13,-88.11 165.69,-82.78 182.3,-78"/>
<polygon fill="#63b8ff" stroke="#63b8ff" points="128.53,-89.82 119.88,-95.94 130.46,-96.55 128.53,-89.82"/>
</a>
</g>
</g>
<!-- Node5 -->
<g id="Node000005" class="node">
<title>Node5</title>
<g id="a_Node000005"><a xlink:href="classzero__mate_1_1coprocessor_1_1cp15_1_1CC8.html" target="_top" xlink:title="This class represents primary register C8 of coprocessor CP15.">
<polygon fill="white" stroke="#666666" points="302,-30 169,-30 169,0 302,0 302,-30"/>
<text text-anchor="start" x="177" y="-18" font-family="Helvetica,sans-Serif" font-size="10.00">zero_mate::coprocessor</text>
<text text-anchor="middle" x="235.5" y="-7" font-family="Helvetica,sans-Serif" font-size="10.00">::cp15::CC8</text>
</a>
</g>
</g>
<!-- Node0&#45;&gt;Node5 -->
<g id="edge38_Node000000_Node000005" class="edge">
<title>Node0&#45;&gt;Node5</title>
<g id="a_edge38_Node000000_Node000005"><a xlink:title=" ">
<path fill="none" stroke="#63b8ff" d="M93.54,-89.58C113.34,-74.05 141.73,-53.34 169,-39 175.11,-35.79 181.75,-32.82 188.37,-30.14"/>
<polygon fill="#63b8ff" stroke="#63b8ff" points="91.26,-86.92 85.61,-95.89 95.62,-92.4 91.26,-86.92"/>
</a>
</g>
</g>
</g>
</svg>
