<?xml version="1.0" encoding="UTF-8" standalone="no"?>
<!DOCTYPE svg PUBLIC "-//W3C//DTD SVG 1.1//EN"
 "http://www.w3.org/Graphics/SVG/1.1/DTD/svg11.dtd">
<!-- Generated by graphviz version 2.43.0 (0)
 -->
<!-- Title: Graphical Class Hierarchy Pages: 1 -->
<svg width="310pt" height="86pt"
 viewBox="0.00 0.00 310.00 86.00" xmlns="http://www.w3.org/2000/svg" xmlns:xlink="http://www.w3.org/1999/xlink">
<g id="graph0" class="graph" transform="scale(1 1) rotate(0) translate(4 82)">
<title>Graphical Class Hierarchy</title>
<!-- Node0 -->
<g id="Node000000" class="node">
<title>Node0</title>
<g id="a_Node000000"><a xlink:href="classzero__mate_1_1coprocessor_1_1ICoprocessor.html" target="_top" xlink:title="This class represents an interface of a coprocessor.">
<polygon fill="white" stroke="#666666" points="133,-54 0,-54 0,-24 133,-24 133,-54"/>
<text text-anchor="start" x="8" y="-42" font-family="Helvetica,sans-Serif" font-size="10.00">zero_mate::coprocessor</text>
<text text-anchor="middle" x="66.5" y="-31" font-family="Helvetica,sans-Serif" font-size="10.00">::ICoprocessor</text>
</a>
</g>
</g>
<!-- Node1 -->
<g id="Node000001" class="node">
<title>Node1</title>
<g id="a_Node000001"><a xlink:href="classzero__mate_1_1coprocessor_1_1cp10_1_1CCP10.html" target="_top" xlink:title="This class represents coprocessor 10 (single&#45;precision FPU).">
<polygon fill="white" stroke="#666666" points="302,-78 169,-78 169,-48 302,-48 302,-78"/>
<text text-anchor="start" x="177" y="-66" font-family="Helvetica,sans-Serif" font-size="10.00">zero_mate::coprocessor</text>
<text text-anchor="middle" x="235.5" y="-55" font-family="Helvetica,sans-Serif" font-size="10.00">::cp10::CCP10</text>
</a>
</g>
</g>
<!-- Node0&#45;&gt;Node1 -->
<g id="edge39_Node000000_Node000001" class="edge">
<title>Node0&#45;&gt;Node1</title>
<g id="a_edge39_Node000000_Node000001"><a xlink:title=" ">
<path fill="none" stroke="#63b8ff" d="M143.07,-49.86C151.68,-51.1 160.42,-52.35 168.89,-53.57"/>
<polygon fill="#63b8ff" stroke="#63b8ff" points="143.42,-46.37 133.02,-48.42 142.42,-53.3 143.42,-46.37"/>
</a>
</g>
</g>
<!-- Node2 -->
<g id="Node000002" class="node">
<title>Node2</title>
<g id="a_Node000002"><a xlink:href="classzero__mate_1_1coprocessor_1_1cp15_1_1CCP15.html" target="_top" xlink:title="This class represents coprocessor CP15.">
<polygon fill="white" stroke="#666666" points="302,-30 169,-30 169,0 302,0 302,-30"/>
<text text-anchor="start" x="177" y="-18" font-family="Helvetica,sans-Serif" font-size="10.00">zero_mate::coprocessor</text>
<text text-anchor="middle" x="235.5" y="-7" font-family="Helvetica,sans-Serif" font-size="10.00">::cp15::CCP15</text>
</a>
</g>
</g>
<!-- Node0&#45;&gt;Node2 -->
<g id="edge40_Node000000_Node000002" class="edge">
<title>Node0&#45;&gt;Node2</title>
<g id="a_edge40_Node000000_Node000002"><a xlink:title=" ">
<path fill="none" stroke="#63b8ff" d="M143.07,-28.14C151.68,-26.9 160.42,-25.65 168.89,-24.43"/>
<polygon fill="#63b8ff" stroke="#63b8ff" points="142.42,-24.7 133.02,-29.58 143.42,-31.63 142.42,-24.7"/>
</a>
</g>
</g>
</g>
</svg>
