<?xml version="1.0" encoding="UTF-8" standalone="no"?>
<!DOCTYPE svg PUBLIC "-//W3C//DTD SVG 1.1//EN"
 "http://www.w3.org/Graphics/SVG/1.1/DTD/svg11.dtd">
<!-- Generated by graphviz version 2.43.0 (0)
 -->
<!-- Title: Graphical Class Hierarchy Pages: 1 -->
<svg width="354pt" height="700pt"
 viewBox="0.00 0.00 354.00 699.50" xmlns="http://www.w3.org/2000/svg" xmlns:xlink="http://www.w3.org/1999/xlink">
<g id="graph0" class="graph" transform="scale(1 1) rotate(0) translate(4 695.5)">
<title>Graphical Class Hierarchy</title>
<!-- Node0 -->
<g id="Node000000" class="node">
<title>Node0</title>
<g id="a_Node000000"><a xlink:href="classzero__mate_1_1gui_1_1IGUI__Window.html" target="_top" xlink:title="Common interface for all GUI windows.">
<polygon fill="white" stroke="#666666" points="126.5,-379.5 10.5,-379.5 10.5,-349.5 126.5,-349.5 126.5,-379.5"/>
<text text-anchor="start" x="18.5" y="-367.5" font-family="Helvetica,sans-Serif" font-size="10.00">zero_mate::gui::IGUI</text>
<text text-anchor="middle" x="68.5" y="-356.5" font-family="Helvetica,sans-Serif" font-size="10.00">_Window</text>
</a>
</g>
</g>
<!-- Node1 -->
<g id="Node000001" class="node">
<title>Node1</title>
<g id="a_Node000001"><a xlink:href="classzero__mate_1_1gui_1_1CARM__Timer__Window.html" target="_top" xlink:title="This windows visualizes the contents of the ARM timer registers.">
<polygon fill="white" stroke="#666666" points="322,-691.5 197,-691.5 197,-661.5 322,-661.5 322,-691.5"/>
<text text-anchor="start" x="205" y="-679.5" font-family="Helvetica,sans-Serif" font-size="10.00">zero_mate::gui::CARM</text>
<text text-anchor="middle" x="259.5" y="-668.5" font-family="Helvetica,sans-Serif" font-size="10.00">_Timer_Window</text>
</a>
</g>
</g>
<!-- Node0&#45;&gt;Node1 -->
<g id="edge41_Node000000_Node000001" class="edge">
<title>Node0&#45;&gt;Node1</title>
<g id="a_edge41_Node000000_Node000001"><a xlink:title=" ">
<path fill="none" stroke="#63b8ff" d="M71.05,-389.68C75.87,-445.46 95.35,-580.2 173,-652.5 179.77,-658.8 188.06,-663.47 196.79,-666.92"/>
<polygon fill="#63b8ff" stroke="#63b8ff" points="74.53,-389.32 70.27,-379.62 67.55,-389.86 74.53,-389.32"/>
</a>
</g>
</g>
<!-- Node2 -->
<g id="Node000002" class="node">
<title>Node2</title>
<g id="a_Node000002"><a xlink:href="classzero__mate_1_1gui_1_1CAUX__Window.html" target="_top" xlink:title="This class represents the windows that visualizes auxiliary peripherals.">
<polygon fill="white" stroke="#666666" points="321,-643.5 198,-643.5 198,-613.5 321,-613.5 321,-643.5"/>
<text text-anchor="start" x="206" y="-631.5" font-family="Helvetica,sans-Serif" font-size="10.00">zero_mate::gui::CAUX</text>
<text text-anchor="middle" x="259.5" y="-620.5" font-family="Helvetica,sans-Serif" font-size="10.00">_Window</text>
</a>
</g>
</g>
<!-- Node0&#45;&gt;Node2 -->
<g id="edge42_Node000000_Node000002" class="edge">
<title>Node0&#45;&gt;Node2</title>
<g id="a_edge42_Node000000_Node000002"><a xlink:title=" ">
<path fill="none" stroke="#63b8ff" d="M73.13,-389.84C81.51,-438.78 106.8,-546.59 173,-604.5 180.08,-610.69 188.64,-615.3 197.57,-618.72"/>
<polygon fill="#63b8ff" stroke="#63b8ff" points="76.56,-389.1 71.51,-379.79 69.65,-390.22 76.56,-389.1"/>
</a>
</g>
</g>
<!-- Node3 -->
<g id="Node000003" class="node">
<title>Node3</title>
<g id="a_Node000003"><a xlink:href="classzero__mate_1_1gui_1_1CCP10__Window.html" target="_top" xlink:title="This class represents a window that displays information related to CP10 (coprocessor 10).">
<polygon fill="white" stroke="#666666" points="323,-595.5 196,-595.5 196,-565.5 323,-565.5 323,-595.5"/>
<text text-anchor="start" x="204" y="-583.5" font-family="Helvetica,sans-Serif" font-size="10.00">zero_mate::gui::CCP10</text>
<text text-anchor="middle" x="259.5" y="-572.5" font-family="Helvetica,sans-Serif" font-size="10.00">_Window</text>
</a>
</g>
</g>
<!-- Node0&#45;&gt;Node3 -->
<g id="edge43_Node000000_Node000003" class="edge">
<title>Node0&#45;&gt;Node3</title>
<g id="a_edge43_Node000000_Node000003"><a xlink:title=" ">
<path fill="none" stroke="#63b8ff" d="M76,-389.35C88.05,-430.42 117.79,-512.31 173,-556.5 179.74,-561.9 187.62,-566.08 195.83,-569.32"/>
<polygon fill="#63b8ff" stroke="#63b8ff" points="79.34,-388.28 73.25,-379.6 72.6,-390.18 79.34,-388.28"/>
</a>
</g>
</g>
<!-- Node4 -->
<g id="Node000004" class="node">
<title>Node4</title>
<g id="a_Node000004"><a xlink:href="classzero__mate_1_1gui_1_1CCP15__Window.html" target="_top" xlink:title="This class represents a window that displays information related to CP15 (coprocessor 15).">
<polygon fill="white" stroke="#666666" points="323,-547.5 196,-547.5 196,-517.5 323,-517.5 323,-547.5"/>
<text text-anchor="start" x="204" y="-535.5" font-family="Helvetica,sans-Serif" font-size="10.00">zero_mate::gui::CCP15</text>
<text text-anchor="middle" x="259.5" y="-524.5" font-family="Helvetica,sans-Serif" font-size="10.00">_Window</text>
</a>
</g>
</g>
<!-- Node0&#45;&gt;Node4 -->
<g id="edge44_Node000000_Node000004" class="edge">
<title>Node0&#45;&gt;Node4</title>
<g id="a_edge44_Node000000_Node000004"><a xlink:title=" ">
<path fill="none" stroke="#63b8ff" d="M80.55,-388.9C96.4,-421.14 128.65,-477.46 173,-508.5 179.95,-513.36 187.86,-517.24 195.99,-520.34"/>
<polygon fill="#63b8ff" stroke="#63b8ff" points="83.63,-387.23 76.16,-379.72 77.32,-390.25 83.63,-387.23"/>
</a>
</g>
</g>
<!-- Node5 -->
<g id="Node000005" class="node">
<title>Node5</title>
<g id="a_Node000005"><a xlink:href="classzero__mate_1_1gui_1_1CControl__Window.html" target="_top" xlink:title="This class represents a window that allows the user to control CPU execution.">
<polygon fill="white" stroke="#666666" points="328,-499.5 191,-499.5 191,-469.5 328,-469.5 328,-499.5"/>
<text text-anchor="start" x="199" y="-487.5" font-family="Helvetica,sans-Serif" font-size="10.00">zero_mate::gui::CControl</text>
<text text-anchor="middle" x="259.5" y="-476.5" font-family="Helvetica,sans-Serif" font-size="10.00">_Window</text>
</a>
</g>
</g>
<!-- Node0&#45;&gt;Node5 -->
<g id="edge45_Node000000_Node000005" class="edge">
<title>Node0&#45;&gt;Node5</title>
<g id="a_edge45_Node000000_Node000005"><a xlink:title=" ">
<path fill="none" stroke="#63b8ff" d="M88.28,-387.31C107.42,-409.15 139.06,-441.48 173,-460.5 179.05,-463.89 185.62,-466.83 192.33,-469.38"/>
<polygon fill="#63b8ff" stroke="#63b8ff" points="90.74,-384.81 81.57,-379.51 85.43,-389.38 90.74,-384.81"/>
</a>
</g>
</g>
<!-- Node6 -->
<g id="Node000006" class="node">
<title>Node6</title>
<g id="a_Node000006"><a xlink:href="classzero__mate_1_1gui_1_1CDemo__Window.html" target="_top" xlink:title="This class displays the ImGui and ImPlot demos.">
<polygon fill="white" stroke="#666666" points="325,-451.5 194,-451.5 194,-421.5 325,-421.5 325,-451.5"/>
<text text-anchor="start" x="202" y="-439.5" font-family="Helvetica,sans-Serif" font-size="10.00">zero_mate::gui::CDemo</text>
<text text-anchor="middle" x="259.5" y="-428.5" font-family="Helvetica,sans-Serif" font-size="10.00">_Window</text>
</a>
</g>
</g>
<!-- Node0&#45;&gt;Node6 -->
<g id="edge46_Node000000_Node000006" class="edge">
<title>Node0&#45;&gt;Node6</title>
<g id="a_edge46_Node000000_Node000006"><a xlink:title=" ">
<path fill="none" stroke="#63b8ff" d="M107.9,-384.1C127.14,-393.46 150.97,-404.36 173,-412.5 181.68,-415.71 190.98,-418.73 200.15,-421.48"/>
<polygon fill="#63b8ff" stroke="#63b8ff" points="109.37,-380.93 98.86,-379.65 106.28,-387.21 109.37,-380.93"/>
</a>
</g>
</g>
<!-- Node7 -->
<g id="Node000007" class="node">
<title>Node7</title>
<g id="a_Node000007"><a xlink:href="classzero__mate_1_1gui_1_1CGPIO__Window.html" target="_top" xlink:title="This class represents a windows that displays information about GPIO pins.">
<polygon fill="white" stroke="#666666" points="322.5,-403.5 196.5,-403.5 196.5,-373.5 322.5,-373.5 322.5,-403.5"/>
<text text-anchor="start" x="204.5" y="-391.5" font-family="Helvetica,sans-Serif" font-size="10.00">zero_mate::gui::CGPIO</text>
<text text-anchor="middle" x="259.5" y="-380.5" font-family="Helvetica,sans-Serif" font-size="10.00">_Window</text>
</a>
</g>
</g>
<!-- Node0&#45;&gt;Node7 -->
<g id="edge47_Node000000_Node000007" class="edge">
<title>Node0&#45;&gt;Node7</title>
<g id="a_edge47_Node000000_Node000007"><a xlink:title=" ">
<path fill="none" stroke="#63b8ff" d="M136.68,-373.03C156.07,-375.49 177.13,-378.17 196.21,-380.59"/>
<polygon fill="#63b8ff" stroke="#63b8ff" points="137.08,-369.55 126.72,-371.77 136.2,-376.5 137.08,-369.55"/>
</a>
</g>
</g>
<!-- Node8 -->
<g id="Node000008" class="node">
<title>Node8</title>
<g id="a_Node000008"><a xlink:href="classzero__mate_1_1gui_1_1CInterrupt__Controller__Window.html" target="_top" xlink:title="This class defines a window that displays information about the interrupt controller.">
<polygon fill="white" stroke="#666666" points="331.5,-355.5 187.5,-355.5 187.5,-325.5 331.5,-325.5 331.5,-355.5"/>
<text text-anchor="start" x="195.5" y="-343.5" font-family="Helvetica,sans-Serif" font-size="10.00">zero_mate::gui::CInterrupt</text>
<text text-anchor="middle" x="259.5" y="-332.5" font-family="Helvetica,sans-Serif" font-size="10.00">_Controller_Window</text>
</a>
</g>
</g>
<!-- Node0&#45;&gt;Node8 -->
<g id="edge48_Node000000_Node000008" class="edge">
<title>Node0&#45;&gt;Node8</title>
<g id="a_edge48_Node000000_Node000008"><a xlink:title=" ">
<path fill="none" stroke="#63b8ff" d="M136.77,-355.96C153.2,-353.87 170.83,-351.63 187.43,-349.52"/>
<polygon fill="#63b8ff" stroke="#63b8ff" points="136.2,-352.5 126.72,-357.23 137.08,-359.45 136.2,-352.5"/>
</a>
</g>
</g>
<!-- Node9 -->
<g id="Node000009" class="node">
<title>Node9</title>
<g id="a_Node000009"><a xlink:href="classzero__mate_1_1gui_1_1CLog__Window.html" target="_top" xlink:title="This class represents a window that displays log messages.">
<polygon fill="white" stroke="#666666" points="319,-67.5 200,-67.5 200,-37.5 319,-37.5 319,-67.5"/>
<text text-anchor="start" x="208" y="-55.5" font-family="Helvetica,sans-Serif" font-size="10.00">zero_mate::gui::CLog</text>
<text text-anchor="middle" x="259.5" y="-44.5" font-family="Helvetica,sans-Serif" font-size="10.00">_Window</text>
</a>
</g>
</g>
<!-- Node0&#45;&gt;Node9 -->
<g id="edge49_Node000000_Node000009" class="edge">
<title>Node0&#45;&gt;Node9</title>
<g id="a_edge49_Node000000_Node000009"><a xlink:title=" ">
<path fill="none" stroke="#63b8ff" d="M71.05,-339.32C75.87,-283.54 95.35,-148.8 173,-76.5 180.56,-69.46 190.02,-64.46 199.87,-60.92"/>
<polygon fill="#63b8ff" stroke="#63b8ff" points="67.55,-339.14 70.27,-349.38 74.53,-339.68 67.55,-339.14"/>
</a>
</g>
</g>
<!-- Node12 -->
<g id="Node000012" class="node">
<title>Node12</title>
<g id="a_Node000012"><a xlink:href="classzero__mate_1_1gui_1_1CMonitor__Window.html" target="_top" xlink:title="This class represents a window that visualizes the memory&#45;mapped debug monitor.">
<polygon fill="white" stroke="#666666" points="329.5,-307.5 189.5,-307.5 189.5,-277.5 329.5,-277.5 329.5,-307.5"/>
<text text-anchor="start" x="197.5" y="-295.5" font-family="Helvetica,sans-Serif" font-size="10.00">zero_mate::gui::CMonitor</text>
<text text-anchor="middle" x="259.5" y="-284.5" font-family="Helvetica,sans-Serif" font-size="10.00">_Window</text>
</a>
</g>
</g>
<!-- Node0&#45;&gt;Node12 -->
<g id="edge50_Node000000_Node000012" class="edge">
<title>Node0&#45;&gt;Node12</title>
<g id="a_edge50_Node000000_Node000012"><a xlink:title=" ">
<path fill="none" stroke="#63b8ff" d="M107.9,-344.9C127.14,-335.54 150.97,-324.64 173,-316.5 181.68,-313.29 190.98,-310.27 200.15,-307.52"/>
<polygon fill="#63b8ff" stroke="#63b8ff" points="106.28,-341.79 98.86,-349.35 109.37,-348.07 106.28,-341.79"/>
</a>
</g>
</g>
<!-- Node13 -->
<g id="Node000013" class="node">
<title>Node13</title>
<g id="a_Node000013"><a xlink:href="classzero__mate_1_1gui_1_1CRAM__Window.html" target="_top" xlink:title="This class represents a windows that visualizes the contents of the RAM.">
<polygon fill="white" stroke="#666666" points="322,-259.5 197,-259.5 197,-229.5 322,-229.5 322,-259.5"/>
<text text-anchor="start" x="205" y="-247.5" font-family="Helvetica,sans-Serif" font-size="10.00">zero_mate::gui::CRAM</text>
<text text-anchor="middle" x="259.5" y="-236.5" font-family="Helvetica,sans-Serif" font-size="10.00">_Window</text>
</a>
</g>
</g>
<!-- Node0&#45;&gt;Node13 -->
<g id="edge51_Node000000_Node000013" class="edge">
<title>Node0&#45;&gt;Node13</title>
<g id="a_edge51_Node000000_Node000013"><a xlink:title=" ">
<path fill="none" stroke="#63b8ff" d="M88.28,-341.69C107.42,-319.85 139.06,-287.52 173,-268.5 180.4,-264.35 188.56,-260.88 196.82,-257.99"/>
<polygon fill="#63b8ff" stroke="#63b8ff" points="85.43,-339.62 81.57,-349.49 90.74,-344.19 85.43,-339.62"/>
</a>
</g>
</g>
<!-- Node14 -->
<g id="Node000014" class="node">
<title>Node14</title>
<g id="a_Node000014"><a xlink:href="classzero__mate_1_1gui_1_1CRegisters__Window.html" target="_top" xlink:title="This class represents the window that displays the contents of all CPU registers.">
<polygon fill="white" stroke="#666666" points="333.5,-211.5 185.5,-211.5 185.5,-181.5 333.5,-181.5 333.5,-211.5"/>
<text text-anchor="start" x="193.5" y="-199.5" font-family="Helvetica,sans-Serif" font-size="10.00">zero_mate::gui::CRegisters</text>
<text text-anchor="middle" x="259.5" y="-188.5" font-family="Helvetica,sans-Serif" font-size="10.00">_Window</text>
</a>
</g>
</g>
<!-- Node0&#45;&gt;Node14 -->
<g id="edge52_Node000000_Node000014" class="edge">
<title>Node0&#45;&gt;Node14</title>
<g id="a_edge52_Node000000_Node000014"><a xlink:title=" ">
<path fill="none" stroke="#63b8ff" d="M80.55,-340.1C96.4,-307.86 128.65,-251.54 173,-220.5 177.93,-217.05 183.34,-214.1 188.97,-211.57"/>
<polygon fill="#63b8ff" stroke="#63b8ff" points="77.32,-338.75 76.16,-349.28 83.63,-341.77 77.32,-338.75"/>
</a>
</g>
</g>
<!-- Node15 -->
<g id="Node000015" class="node">
<title>Node15</title>
<g id="a_Node000015"><a xlink:href="classzero__mate_1_1gui_1_1CSource__Code__Window.html" target="_top" xlink:title="This class represents a windows that displays the contents of loaded ELF files.">
<polygon fill="white" stroke="#666666" points="327,-163.5 192,-163.5 192,-133.5 327,-133.5 327,-163.5"/>
<text text-anchor="start" x="200" y="-151.5" font-family="Helvetica,sans-Serif" font-size="10.00">zero_mate::gui::CSource</text>
<text text-anchor="middle" x="259.5" y="-140.5" font-family="Helvetica,sans-Serif" font-size="10.00">_Code_Window</text>
</a>
</g>
</g>
<!-- Node0&#45;&gt;Node15 -->
<g id="edge53_Node000000_Node000015" class="edge">
<title>Node0&#45;&gt;Node15</title>
<g id="a_edge53_Node000000_Node000015"><a xlink:title=" ">
<path fill="none" stroke="#63b8ff" d="M76,-339.65C88.05,-298.58 117.79,-216.69 173,-172.5 178.66,-167.97 185.12,-164.3 191.9,-161.32"/>
<polygon fill="#63b8ff" stroke="#63b8ff" points="72.6,-338.82 73.25,-349.4 79.34,-340.72 72.6,-338.82"/>
</a>
</g>
</g>
<!-- Node16 -->
<g id="Node000016" class="node">
<title>Node16</title>
<g id="a_Node000016"><a xlink:href="classzero__mate_1_1gui_1_1CTop__Bar__Menu.html" target="_top" xlink:title="This class represents a top bar through which the user can load ELF files.">
<polygon fill="white" stroke="#666666" points="319,-115.5 200,-115.5 200,-85.5 319,-85.5 319,-115.5"/>
<text text-anchor="start" x="208" y="-103.5" font-family="Helvetica,sans-Serif" font-size="10.00">zero_mate::gui::CTop</text>
<text text-anchor="middle" x="259.5" y="-92.5" font-family="Helvetica,sans-Serif" font-size="10.00">_Bar_Menu</text>
</a>
</g>
</g>
<!-- Node0&#45;&gt;Node16 -->
<g id="edge54_Node000000_Node000016" class="edge">
<title>Node0&#45;&gt;Node16</title>
<g id="a_edge54_Node000000_Node000016"><a xlink:title=" ">
<path fill="none" stroke="#63b8ff" d="M73.13,-339.16C81.51,-290.22 106.8,-182.41 173,-124.5 180.66,-117.8 190.05,-112.96 199.78,-109.47"/>
<polygon fill="#63b8ff" stroke="#63b8ff" points="69.65,-338.78 71.51,-349.21 76.56,-339.9 69.65,-338.78"/>
</a>
</g>
</g>
<!-- Node10 -->
<g id="Node000010" class="node">
<title>Node10</title>
<g id="a_Node000010"><a xlink:href="classzero__mate_1_1utils_1_1ILogger.html" target="_top" xlink:title="This class represents a logging_system interface.">
<polygon fill="white" stroke="#666666" points="137,-41 0,-41 0,-22 137,-22 137,-41"/>
<text text-anchor="middle" x="68.5" y="-29" font-family="Helvetica,sans-Serif" font-size="10.00">zero_mate::utils::ILogger</text>
</a>
</g>
</g>
<!-- Node10&#45;&gt;Node9 -->
<g id="edge55_Node000010_Node000009" class="edge">
<title>Node10&#45;&gt;Node9</title>
<g id="a_edge55_Node000010_Node000009"><a xlink:title=" ">
<path fill="none" stroke="#63b8ff" d="M147.39,-40.15C164.88,-42.1 183.16,-44.13 199.72,-45.97"/>
<polygon fill="#63b8ff" stroke="#63b8ff" points="147.52,-36.65 137.2,-39.02 146.75,-43.61 147.52,-36.65"/>
</a>
</g>
</g>
<!-- Node11 -->
<g id="Node000011" class="node">
<title>Node11</title>
<g id="a_Node000011"><a xlink:href="classzero__mate_1_1utils_1_1CLogger__STDO.html" target="_top" xlink:title="This class represents a logging_system that logs messages to the standard output (STDO).">
<polygon fill="white" stroke="#666666" points="346,-19 173,-19 173,0 346,0 346,-19"/>
<text text-anchor="middle" x="259.5" y="-7" font-family="Helvetica,sans-Serif" font-size="10.00">zero_mate::utils::CLogger_STDO</text>
</a>
</g>
</g>
<!-- Node10&#45;&gt;Node11 -->
<g id="edge56_Node000010_Node000011" class="edge">
<title>Node10&#45;&gt;Node11</title>
<g id="a_edge56_Node000010_Node000011"><a xlink:title=" ">
<path fill="none" stroke="#63b8ff" d="M147.24,-22.45C156.97,-21.32 166.95,-20.16 176.75,-19.02"/>
<polygon fill="#63b8ff" stroke="#63b8ff" points="146.73,-18.99 137.2,-23.62 147.54,-25.94 146.73,-18.99"/>
</a>
</g>
</g>
</g>
</svg>
