<?xml version="1.0" encoding="UTF-8" standalone="no"?>
<!DOCTYPE svg PUBLIC "-//W3C//DTD SVG 1.1//EN"
 "http://www.w3.org/Graphics/SVG/1.1/DTD/svg11.dtd">
<!-- Generated by graphviz version 2.43.0 (0)
 -->
<!-- Title: Graphical Class Hierarchy Pages: 1 -->
<svg width="485pt" height="349pt"
 viewBox="0.00 0.00 485.00 348.50" xmlns="http://www.w3.org/2000/svg" xmlns:xlink="http://www.w3.org/1999/xlink">
<g id="graph0" class="graph" transform="scale(1 1) rotate(0) translate(4 344.5)">
<title>Graphical Class Hierarchy</title>
<!-- Node0 -->
<g id="Node000000" class="node">
<title>Node0</title>
<g id="a_Node000000"><a xlink:title=" ">
<polygon fill="#e0e0e0" stroke="#999999" points="104,-191 0,-191 0,-172 104,-172 104,-191"/>
<text text-anchor="middle" x="52" y="-179" font-family="Helvetica,sans-Serif" font-size="10.00">std::runtime_error</text>
</a>
</g>
</g>
<!-- Node1 -->
<g id="Node000001" class="node">
<title>Node1</title>
<g id="a_Node000001"><a xlink:href="classzero__mate_1_1arm1176jzf__s_1_1exceptions_1_1CCPU__Exception.html" target="_top" xlink:title="This class represents a parent class for all the CPU exceptions.">
<polygon fill="white" stroke="#666666" points="270,-202 140,-202 140,-161 270,-161 270,-202"/>
<text text-anchor="start" x="148" y="-190" font-family="Helvetica,sans-Serif" font-size="10.00">zero_mate::arm1176jzf</text>
<text text-anchor="start" x="148" y="-179" font-family="Helvetica,sans-Serif" font-size="10.00">_s::exceptions::CCPU</text>
<text text-anchor="middle" x="205" y="-168" font-family="Helvetica,sans-Serif" font-size="10.00">_Exception</text>
</a>
</g>
</g>
<!-- Node0&#45;&gt;Node1 -->
<g id="edge2_Node000000_Node000001" class="edge">
<title>Node0&#45;&gt;Node1</title>
<g id="a_edge2_Node000000_Node000001"><a xlink:title=" ">
<path fill="none" stroke="#63b8ff" d="M114.24,-181.5C122.67,-181.5 131.34,-181.5 139.81,-181.5"/>
<polygon fill="#63b8ff" stroke="#63b8ff" points="114.12,-178 104.12,-181.5 114.12,-185 114.12,-178"/>
</a>
</g>
</g>
<!-- Node2 -->
<g id="Node000002" class="node">
<title>Node2</title>
<g id="a_Node000002"><a xlink:href="classzero__mate_1_1arm1176jzf__s_1_1exceptions_1_1CData__Abort.html" target="_top" xlink:title="This class represents the data abort exception.">
<polygon fill="white" stroke="#666666" points="468.5,-340.5 314.5,-340.5 314.5,-310.5 468.5,-310.5 468.5,-340.5"/>
<text text-anchor="start" x="322.5" y="-328.5" font-family="Helvetica,sans-Serif" font-size="10.00">zero_mate::arm1176jzf</text>
<text text-anchor="middle" x="391.5" y="-317.5" font-family="Helvetica,sans-Serif" font-size="10.00">_s::exceptions::CData_Abort</text>
</a>
</g>
</g>
<!-- Node1&#45;&gt;Node2 -->
<g id="edge3_Node000001_Node000002" class="edge">
<title>Node1&#45;&gt;Node2</title>
<g id="a_edge3_Node000001_Node000002"><a xlink:title=" ">
<path fill="none" stroke="#63b8ff" d="M223.21,-210.93C240.69,-238.3 270.25,-278.26 306,-301.5 311.24,-304.91 316.97,-307.84 322.9,-310.36"/>
<polygon fill="#63b8ff" stroke="#63b8ff" points="226.01,-208.81 217.75,-202.17 220.07,-212.51 226.01,-208.81"/>
</a>
</g>
</g>
<!-- Node3 -->
<g id="Node000003" class="node">
<title>Node3</title>
<g id="a_Node000003"><a xlink:href="classzero__mate_1_1arm1176jzf__s_1_1exceptions_1_1CFIQ.html" target="_top" xlink:title="This class represents the FIQ (fast interrupt) exception.">
<polygon fill="white" stroke="#666666" points="456.5,-292.5 326.5,-292.5 326.5,-262.5 456.5,-262.5 456.5,-292.5"/>
<text text-anchor="start" x="334.5" y="-280.5" font-family="Helvetica,sans-Serif" font-size="10.00">zero_mate::arm1176jzf</text>
<text text-anchor="middle" x="391.5" y="-269.5" font-family="Helvetica,sans-Serif" font-size="10.00">_s::exceptions::CFIQ</text>
</a>
</g>
</g>
<!-- Node1&#45;&gt;Node3 -->
<g id="edge4_Node000001_Node000003" class="edge">
<title>Node1&#45;&gt;Node3</title>
<g id="a_edge4_Node000001_Node000003"><a xlink:title=" ">
<path fill="none" stroke="#63b8ff" d="M237.49,-208.54C256.33,-223.57 281.34,-241.58 306,-253.5 313,-256.89 320.57,-259.87 328.2,-262.49"/>
<polygon fill="#63b8ff" stroke="#63b8ff" points="239.52,-205.68 229.55,-202.1 235.11,-211.12 239.52,-205.68"/>
</a>
</g>
</g>
<!-- Node4 -->
<g id="Node000004" class="node">
<title>Node4</title>
<g id="a_Node000004"><a xlink:href="classzero__mate_1_1arm1176jzf__s_1_1exceptions_1_1CIRQ.html" target="_top" xlink:title="This class represents the IRQ (interrupt) exception.">
<polygon fill="white" stroke="#666666" points="456.5,-244.5 326.5,-244.5 326.5,-214.5 456.5,-214.5 456.5,-244.5"/>
<text text-anchor="start" x="334.5" y="-232.5" font-family="Helvetica,sans-Serif" font-size="10.00">zero_mate::arm1176jzf</text>
<text text-anchor="middle" x="391.5" y="-221.5" font-family="Helvetica,sans-Serif" font-size="10.00">_s::exceptions::CIRQ</text>
</a>
</g>
</g>
<!-- Node1&#45;&gt;Node4 -->
<g id="edge5_Node000001_Node000004" class="edge">
<title>Node1&#45;&gt;Node4</title>
<g id="a_edge5_Node000001_Node000004"><a xlink:title=" ">
<path fill="none" stroke="#63b8ff" d="M279.71,-200.68C297.36,-205.27 315.96,-210.11 332.78,-214.48"/>
<polygon fill="#63b8ff" stroke="#63b8ff" points="280.57,-197.28 270.01,-198.15 278.81,-204.06 280.57,-197.28"/>
</a>
</g>
</g>
<!-- Node5 -->
<g id="Node000005" class="node">
<title>Node5</title>
<g id="a_Node000005"><a xlink:href="classzero__mate_1_1arm1176jzf__s_1_1exceptions_1_1CPrefetch__Abort.html" target="_top" xlink:title="This class represents the prefetch abort exception.">
<polygon fill="white" stroke="#666666" points="477,-196.5 306,-196.5 306,-166.5 477,-166.5 477,-196.5"/>
<text text-anchor="start" x="314" y="-184.5" font-family="Helvetica,sans-Serif" font-size="10.00">zero_mate::arm1176jzf</text>
<text text-anchor="middle" x="391.5" y="-173.5" font-family="Helvetica,sans-Serif" font-size="10.00">_s::exceptions::CPrefetch_Abort</text>
</a>
</g>
</g>
<!-- Node1&#45;&gt;Node5 -->
<g id="edge6_Node000001_Node000005" class="edge">
<title>Node1&#45;&gt;Node5</title>
<g id="a_edge6_Node000001_Node000005"><a xlink:title=" ">
<path fill="none" stroke="#63b8ff" d="M280.17,-181.5C288.61,-181.5 297.25,-181.5 305.8,-181.5"/>
<polygon fill="#63b8ff" stroke="#63b8ff" points="280.01,-178 270.01,-181.5 280.01,-185 280.01,-178"/>
</a>
</g>
</g>
<!-- Node6 -->
<g id="Node000006" class="node">
<title>Node6</title>
<g id="a_Node000006"><a xlink:href="classzero__mate_1_1arm1176jzf__s_1_1exceptions_1_1CReset.html" target="_top" xlink:title="This class represents the reset exception.">
<polygon fill="white" stroke="#666666" points="456.5,-148.5 326.5,-148.5 326.5,-118.5 456.5,-118.5 456.5,-148.5"/>
<text text-anchor="start" x="334.5" y="-136.5" font-family="Helvetica,sans-Serif" font-size="10.00">zero_mate::arm1176jzf</text>
<text text-anchor="middle" x="391.5" y="-125.5" font-family="Helvetica,sans-Serif" font-size="10.00">_s::exceptions::CReset</text>
</a>
</g>
</g>
<!-- Node1&#45;&gt;Node6 -->
<g id="edge7_Node000001_Node000006" class="edge">
<title>Node1&#45;&gt;Node6</title>
<g id="a_edge7_Node000001_Node000006"><a xlink:title=" ">
<path fill="none" stroke="#63b8ff" d="M279.71,-162.32C297.36,-157.73 315.96,-152.89 332.78,-148.52"/>
<polygon fill="#63b8ff" stroke="#63b8ff" points="278.81,-158.94 270.01,-164.85 280.57,-165.72 278.81,-158.94"/>
</a>
</g>
</g>
<!-- Node7 -->
<g id="Node000007" class="node">
<title>Node7</title>
<g id="a_Node000007"><a xlink:href="classzero__mate_1_1arm1176jzf__s_1_1exceptions_1_1CSoftware__Interrupt.html" target="_top" xlink:title="This class represents the software interrupt (SWI) exception.">
<polygon fill="white" stroke="#666666" points="462.5,-100 320.5,-100 320.5,-59 462.5,-59 462.5,-100"/>
<text text-anchor="start" x="328.5" y="-88" font-family="Helvetica,sans-Serif" font-size="10.00">zero_mate::arm1176jzf</text>
<text text-anchor="start" x="328.5" y="-77" font-family="Helvetica,sans-Serif" font-size="10.00">_s::exceptions::CSoftware</text>
<text text-anchor="middle" x="391.5" y="-66" font-family="Helvetica,sans-Serif" font-size="10.00">_Interrupt</text>
</a>
</g>
</g>
<!-- Node1&#45;&gt;Node7 -->
<g id="edge8_Node000001_Node000007" class="edge">
<title>Node1&#45;&gt;Node7</title>
<g id="a_edge8_Node000001_Node000007"><a xlink:title=" ">
<path fill="none" stroke="#63b8ff" d="M238.56,-154.44C257.4,-139.73 282.06,-122.04 306,-109.5 312.48,-106.1 319.43,-102.94 326.46,-100.05"/>
<polygon fill="#63b8ff" stroke="#63b8ff" points="236.27,-151.8 230.6,-160.75 240.61,-157.28 236.27,-151.8"/>
</a>
</g>
</g>
<!-- Node8 -->
<g id="Node000008" class="node">
<title>Node8</title>
<g id="a_Node000008"><a xlink:href="classzero__mate_1_1arm1176jzf__s_1_1exceptions_1_1CUndefined__Instruction.html" target="_top" xlink:title="This class represents the undefined instruction exception.">
<polygon fill="white" stroke="#666666" points="466,-41 317,-41 317,0 466,0 466,-41"/>
<text text-anchor="start" x="325" y="-29" font-family="Helvetica,sans-Serif" font-size="10.00">zero_mate::arm1176jzf</text>
<text text-anchor="start" x="325" y="-18" font-family="Helvetica,sans-Serif" font-size="10.00">_s::exceptions::CUndefined</text>
<text text-anchor="middle" x="391.5" y="-7" font-family="Helvetica,sans-Serif" font-size="10.00">_Instruction</text>
</a>
</g>
</g>
<!-- Node1&#45;&gt;Node8 -->
<g id="edge9_Node000001_Node000008" class="edge">
<title>Node1&#45;&gt;Node8</title>
<g id="a_edge9_Node000001_Node000008"><a xlink:title=" ">
<path fill="none" stroke="#63b8ff" d="M221.84,-151.77C238.96,-122.24 268.87,-77.57 306,-50.5 310.78,-47.02 316,-43.9 321.43,-41.13"/>
<polygon fill="#63b8ff" stroke="#63b8ff" points="218.61,-150.36 216.73,-160.78 224.71,-153.81 218.61,-150.36"/>
</a>
</g>
</g>
</g>
</svg>
