<?xml version="1.0" encoding="UTF-8" standalone="no"?>
<!DOCTYPE svg PUBLIC "-//W3C//DTD SVG 1.1//EN"
 "http://www.w3.org/Graphics/SVG/1.1/DTD/svg11.dtd">
<!-- Generated by graphviz version 2.43.0 (0)
 -->
<!-- Title: Graphical Class Hierarchy Pages: 1 -->
<svg width="330pt" height="167pt"
 viewBox="0.00 0.00 330.00 167.00" xmlns="http://www.w3.org/2000/svg" xmlns:xlink="http://www.w3.org/1999/xlink">
<g id="graph0" class="graph" transform="scale(1 1) rotate(0) translate(4 163)">
<title>Graphical Class Hierarchy</title>
<!-- Node0 -->
<g id="Node000000" class="node">
<title>Node0</title>
<g id="a_Node000000"><a xlink:href="classzero__mate_1_1coprocessor_1_1cp10_1_1isa_1_1CCP__Instruction.html" target="_top" xlink:title="This class represents a general CP10 instruction.">
<polygon fill="white" stroke="#666666" points="149,-94.5 0,-94.5 0,-64.5 149,-64.5 149,-94.5"/>
<text text-anchor="start" x="8" y="-82.5" font-family="Helvetica,sans-Serif" font-size="10.00">zero_mate::coprocessor</text>
<text text-anchor="middle" x="74.5" y="-71.5" font-family="Helvetica,sans-Serif" font-size="10.00">::cp10::isa::CCP_Instruction</text>
</a>
</g>
</g>
<!-- Node1 -->
<g id="Node000001" class="node">
<title>Node1</title>
<g id="a_Node000001"><a xlink:href="classzero__mate_1_1coprocessor_1_1cp10_1_1isa_1_1CCP__Data__Processing__Inst.html" target="_top" xlink:title="This class represents a general CP10 data processing instruction.">
<polygon fill="white" stroke="#666666" points="320,-159 187,-159 187,-118 320,-118 320,-159"/>
<text text-anchor="start" x="195" y="-147" font-family="Helvetica,sans-Serif" font-size="10.00">zero_mate::coprocessor</text>
<text text-anchor="start" x="195" y="-136" font-family="Helvetica,sans-Serif" font-size="10.00">::cp10::isa::CCP_Data</text>
<text text-anchor="middle" x="253.5" y="-125" font-family="Helvetica,sans-Serif" font-size="10.00">_Processing_Inst</text>
</a>
</g>
</g>
<!-- Node0&#45;&gt;Node1 -->
<g id="edge31_Node000000_Node000001" class="edge">
<title>Node0&#45;&gt;Node1</title>
<g id="a_edge31_Node000000_Node000001"><a xlink:title=" ">
<path fill="none" stroke="#63b8ff" d="M130.12,-97.71C149.32,-104.11 171.02,-111.34 190.76,-117.92"/>
<polygon fill="#63b8ff" stroke="#63b8ff" points="131.22,-94.38 120.62,-94.54 129,-101.02 131.22,-94.38"/>
</a>
</g>
</g>
<!-- Node2 -->
<g id="Node000002" class="node">
<title>Node2</title>
<g id="a_Node000002"><a xlink:href="classzero__mate_1_1coprocessor_1_1cp10_1_1isa_1_1CCP__Data__Transfer__Inst.html" target="_top" xlink:title="This class represents a general CP10 data transfer instruction (load/store).">
<polygon fill="white" stroke="#666666" points="320,-100 187,-100 187,-59 320,-59 320,-100"/>
<text text-anchor="start" x="195" y="-88" font-family="Helvetica,sans-Serif" font-size="10.00">zero_mate::coprocessor</text>
<text text-anchor="start" x="195" y="-77" font-family="Helvetica,sans-Serif" font-size="10.00">::cp10::isa::CCP_Data</text>
<text text-anchor="middle" x="253.5" y="-66" font-family="Helvetica,sans-Serif" font-size="10.00">_Transfer_Inst</text>
</a>
</g>
</g>
<!-- Node0&#45;&gt;Node2 -->
<g id="edge32_Node000000_Node000002" class="edge">
<title>Node0&#45;&gt;Node2</title>
<g id="a_edge32_Node000000_Node000002"><a xlink:title=" ">
<path fill="none" stroke="#63b8ff" d="M159.08,-79.5C168.4,-79.5 177.79,-79.5 186.83,-79.5"/>
<polygon fill="#63b8ff" stroke="#63b8ff" points="159.03,-76 149.03,-79.5 159.03,-83 159.03,-76"/>
</a>
</g>
</g>
<!-- Node3 -->
<g id="Node000003" class="node">
<title>Node3</title>
<g id="a_Node000003"><a xlink:href="classzero__mate_1_1coprocessor_1_1cp10_1_1isa_1_1CCP__Register__Transfer__Inst.html" target="_top" xlink:title="This class represents a general CP10 register transfer instruction.">
<polygon fill="white" stroke="#666666" points="322,-41 185,-41 185,0 322,0 322,-41"/>
<text text-anchor="start" x="193" y="-29" font-family="Helvetica,sans-Serif" font-size="10.00">zero_mate::coprocessor</text>
<text text-anchor="start" x="193" y="-18" font-family="Helvetica,sans-Serif" font-size="10.00">::cp10::isa::CCP_Register</text>
<text text-anchor="middle" x="253.5" y="-7" font-family="Helvetica,sans-Serif" font-size="10.00">_Transfer_Inst</text>
</a>
</g>
</g>
<!-- Node0&#45;&gt;Node3 -->
<g id="edge33_Node000000_Node000003" class="edge">
<title>Node0&#45;&gt;Node3</title>
<g id="a_edge33_Node000000_Node000003"><a xlink:title=" ">
<path fill="none" stroke="#63b8ff" d="M130.12,-61.29C149.32,-54.89 171.02,-47.66 190.76,-41.08"/>
<polygon fill="#63b8ff" stroke="#63b8ff" points="129,-57.98 120.62,-64.46 131.22,-64.62 129,-57.98"/>
</a>
</g>
</g>
</g>
</svg>
