<?xml version="1.0" encoding="UTF-8" standalone="no"?>
<!DOCTYPE svg PUBLIC "-//W3C//DTD SVG 1.1//EN"
 "http://www.w3.org/Graphics/SVG/1.1/DTD/svg11.dtd">
<!-- Generated by graphviz version 2.43.0 (0)
 -->
<!-- Title: Graphical Class Hierarchy Pages: 1 -->
<svg width="308pt" height="374pt"
 viewBox="0.00 0.00 308.00 374.00" xmlns="http://www.w3.org/2000/svg" xmlns:xlink="http://www.w3.org/1999/xlink">
<g id="graph0" class="graph" transform="scale(1 1) rotate(0) translate(4 370)">
<title>Graphical Class Hierarchy</title>
<!-- Node0 -->
<g id="Node000000" class="node">
<title>Node0</title>
<g id="a_Node000000"><a xlink:href="classzero__mate_1_1peripheral_1_1IPeripheral.html" target="_top" xlink:title="This class represents a general interface of a memory&#45;mapped peripheral.">
<polygon fill="white" stroke="#666666" points="131.5,-198 7.5,-198 7.5,-168 131.5,-168 131.5,-198"/>
<text text-anchor="start" x="15.5" y="-186" font-family="Helvetica,sans-Serif" font-size="10.00">zero_mate::peripheral</text>
<text text-anchor="middle" x="69.5" y="-175" font-family="Helvetica,sans-Serif" font-size="10.00">::IPeripheral</text>
</a>
</g>
</g>
<!-- Node1 -->
<g id="Node000001" class="node">
<title>Node1</title>
<g id="a_Node000001"><a xlink:href="classzero__mate_1_1peripheral_1_1CARM__Timer.html" target="_top" xlink:title="This class represents the ARM timer used in BCM2835.">
<polygon fill="white" stroke="#666666" points="299.5,-366 175.5,-366 175.5,-336 299.5,-336 299.5,-366"/>
<text text-anchor="start" x="183.5" y="-354" font-family="Helvetica,sans-Serif" font-size="10.00">zero_mate::peripheral</text>
<text text-anchor="middle" x="237.5" y="-343" font-family="Helvetica,sans-Serif" font-size="10.00">::CARM_Timer</text>
</a>
</g>
</g>
<!-- Node0&#45;&gt;Node1 -->
<g id="edge57_Node000000_Node000001" class="edge">
<title>Node0&#45;&gt;Node1</title>
<g id="a_edge57_Node000000_Node000001"><a xlink:title=" ">
<path fill="none" stroke="#63b8ff" d="M87.15,-206.3C115.91,-246.48 172.1,-324.76 175,-327 179.35,-330.36 184.24,-333.31 189.3,-335.87"/>
<polygon fill="#63b8ff" stroke="#63b8ff" points="89.96,-204.21 81.3,-198.11 84.27,-208.28 89.96,-204.21"/>
</a>
</g>
</g>
<!-- Node3 -->
<g id="Node000003" class="node">
<title>Node3</title>
<g id="a_Node000003"><a xlink:href="classzero__mate_1_1peripheral_1_1CAUX.html" target="_top" xlink:title="This class represents the auxiliaries (UART1 &amp; SPI1, and SPI2).">
<polygon fill="white" stroke="#666666" points="299.5,-318 175.5,-318 175.5,-288 299.5,-288 299.5,-318"/>
<text text-anchor="start" x="183.5" y="-306" font-family="Helvetica,sans-Serif" font-size="10.00">zero_mate::peripheral</text>
<text text-anchor="middle" x="237.5" y="-295" font-family="Helvetica,sans-Serif" font-size="10.00">::CAUX</text>
</a>
</g>
</g>
<!-- Node0&#45;&gt;Node3 -->
<g id="edge58_Node000000_Node000003" class="edge">
<title>Node0&#45;&gt;Node3</title>
<g id="a_edge58_Node000000_Node000003"><a xlink:title=" ">
<path fill="none" stroke="#63b8ff" d="M90.59,-205.81C110.33,-227.09 142.19,-258.54 175,-279 180.25,-282.27 186.02,-285.24 191.86,-287.87"/>
<polygon fill="#63b8ff" stroke="#63b8ff" points="92.97,-203.22 83.64,-198.19 87.8,-207.94 92.97,-203.22"/>
</a>
</g>
</g>
<!-- Node4 -->
<g id="Node000004" class="node">
<title>Node4</title>
<g id="a_Node000004"><a xlink:href="classzero__mate_1_1peripheral_1_1CBSC.html" target="_top" xlink:title="This class represents the BSC peripheral used in BCM2835.">
<polygon fill="white" stroke="#666666" points="299.5,-270 175.5,-270 175.5,-240 299.5,-240 299.5,-270"/>
<text text-anchor="start" x="183.5" y="-258" font-family="Helvetica,sans-Serif" font-size="10.00">zero_mate::peripheral</text>
<text text-anchor="middle" x="237.5" y="-247" font-family="Helvetica,sans-Serif" font-size="10.00">::CBSC</text>
</a>
</g>
</g>
<!-- Node0&#45;&gt;Node4 -->
<g id="edge59_Node000000_Node000004" class="edge">
<title>Node0&#45;&gt;Node4</title>
<g id="a_edge59_Node000000_Node000004"><a xlink:title=" ">
<path fill="none" stroke="#63b8ff" d="M111.37,-202.44C130.57,-211.41 153.84,-222.02 175,-231 182.07,-234 189.65,-237.07 196.99,-239.98"/>
<polygon fill="#63b8ff" stroke="#63b8ff" points="112.84,-199.27 102.3,-198.19 109.87,-205.61 112.84,-199.27"/>
</a>
</g>
</g>
<!-- Node5 -->
<g id="Node000005" class="node">
<title>Node5</title>
<g id="a_Node000005"><a xlink:href="classzero__mate_1_1peripheral_1_1CGPIO__Manager.html" target="_top" xlink:title="This class represents a GPIO (general&#45;purpose I/O) manager.">
<polygon fill="white" stroke="#666666" points="299.5,-30 175.5,-30 175.5,0 299.5,0 299.5,-30"/>
<text text-anchor="start" x="183.5" y="-18" font-family="Helvetica,sans-Serif" font-size="10.00">zero_mate::peripheral</text>
<text text-anchor="middle" x="237.5" y="-7" font-family="Helvetica,sans-Serif" font-size="10.00">::CGPIO_Manager</text>
</a>
</g>
</g>
<!-- Node0&#45;&gt;Node5 -->
<g id="edge60_Node000000_Node000005" class="edge">
<title>Node0&#45;&gt;Node5</title>
<g id="a_edge60_Node000000_Node000005"><a xlink:title=" ">
<path fill="none" stroke="#63b8ff" d="M82.44,-158.75C99.13,-127.14 132.24,-72.02 175,-39 179.35,-35.64 184.24,-32.69 189.3,-30.13"/>
<polygon fill="#63b8ff" stroke="#63b8ff" points="79.27,-157.26 77.8,-167.75 85.49,-160.47 79.27,-157.26"/>
</a>
</g>
</g>
<!-- Node6 -->
<g id="Node000006" class="node">
<title>Node6</title>
<g id="a_Node000006"><a xlink:href="classzero__mate_1_1peripheral_1_1CInterrupt__Controller.html" target="_top" xlink:title="This class represents the interrupt controller used in BCM2835.">
<polygon fill="white" stroke="#666666" points="300,-222 175,-222 175,-192 300,-192 300,-222"/>
<text text-anchor="start" x="183" y="-210" font-family="Helvetica,sans-Serif" font-size="10.00">zero_mate::peripheral</text>
<text text-anchor="middle" x="237.5" y="-199" font-family="Helvetica,sans-Serif" font-size="10.00">::CInterrupt_Controller</text>
</a>
</g>
</g>
<!-- Node0&#45;&gt;Node6 -->
<g id="edge61_Node000000_Node000006" class="edge">
<title>Node0&#45;&gt;Node6</title>
<g id="a_edge61_Node000000_Node000006"><a xlink:title=" ">
<path fill="none" stroke="#63b8ff" d="M141.84,-193.31C152.83,-194.9 164.1,-196.53 174.86,-198.09"/>
<polygon fill="#63b8ff" stroke="#63b8ff" points="142.24,-189.84 131.84,-191.87 141.24,-196.76 142.24,-189.84"/>
</a>
</g>
</g>
<!-- Node7 -->
<g id="Node000007" class="node">
<title>Node7</title>
<g id="a_Node000007"><a xlink:href="classzero__mate_1_1peripheral_1_1CMonitor.html" target="_top" xlink:title="This class represents a memory&#45;mapped monitor used to print out debug messages.">
<polygon fill="white" stroke="#666666" points="299.5,-174 175.5,-174 175.5,-144 299.5,-144 299.5,-174"/>
<text text-anchor="start" x="183.5" y="-162" font-family="Helvetica,sans-Serif" font-size="10.00">zero_mate::peripheral</text>
<text text-anchor="middle" x="237.5" y="-151" font-family="Helvetica,sans-Serif" font-size="10.00">::CMonitor</text>
</a>
</g>
</g>
<!-- Node0&#45;&gt;Node7 -->
<g id="edge62_Node000000_Node000007" class="edge">
<title>Node0&#45;&gt;Node7</title>
<g id="a_edge62_Node000000_Node000007"><a xlink:title=" ">
<path fill="none" stroke="#63b8ff" d="M141.97,-172.67C153.11,-171.06 164.53,-169.41 175.41,-167.83"/>
<polygon fill="#63b8ff" stroke="#63b8ff" points="141.24,-169.24 131.84,-174.13 142.24,-176.16 141.24,-169.24"/>
</a>
</g>
</g>
<!-- Node8 -->
<g id="Node000008" class="node">
<title>Node8</title>
<g id="a_Node000008"><a xlink:href="classzero__mate_1_1peripheral_1_1CRAM.html" target="_top" xlink:title="This class represents the RAM used in BCM2835.">
<polygon fill="white" stroke="#666666" points="299.5,-126 175.5,-126 175.5,-96 299.5,-96 299.5,-126"/>
<text text-anchor="start" x="183.5" y="-114" font-family="Helvetica,sans-Serif" font-size="10.00">zero_mate::peripheral</text>
<text text-anchor="middle" x="237.5" y="-103" font-family="Helvetica,sans-Serif" font-size="10.00">::CRAM</text>
</a>
</g>
</g>
<!-- Node0&#45;&gt;Node8 -->
<g id="edge63_Node000000_Node000008" class="edge">
<title>Node0&#45;&gt;Node8</title>
<g id="a_edge63_Node000000_Node000008"><a xlink:title=" ">
<path fill="none" stroke="#63b8ff" d="M111.37,-163.56C130.57,-154.59 153.84,-143.98 175,-135 182.07,-132 189.65,-128.93 196.99,-126.02"/>
<polygon fill="#63b8ff" stroke="#63b8ff" points="109.87,-160.39 102.3,-167.81 112.84,-166.73 109.87,-160.39"/>
</a>
</g>
</g>
<!-- Node9 -->
<g id="Node000009" class="node">
<title>Node9</title>
<g id="a_Node000009"><a xlink:href="classzero__mate_1_1peripheral_1_1CTRNG.html" target="_top" xlink:title="This class represents a TRNG (random number generator).">
<polygon fill="white" stroke="#666666" points="299.5,-78 175.5,-78 175.5,-48 299.5,-48 299.5,-78"/>
<text text-anchor="start" x="183.5" y="-66" font-family="Helvetica,sans-Serif" font-size="10.00">zero_mate::peripheral</text>
<text text-anchor="middle" x="237.5" y="-55" font-family="Helvetica,sans-Serif" font-size="10.00">::CTRNG</text>
</a>
</g>
</g>
<!-- Node0&#45;&gt;Node9 -->
<g id="edge64_Node000000_Node000009" class="edge">
<title>Node0&#45;&gt;Node9</title>
<g id="a_edge64_Node000000_Node000009"><a xlink:title=" ">
<path fill="none" stroke="#63b8ff" d="M90.59,-160.19C110.33,-138.91 142.19,-107.46 175,-87 180.25,-83.73 186.02,-80.76 191.86,-78.13"/>
<polygon fill="#63b8ff" stroke="#63b8ff" points="87.8,-158.06 83.64,-167.81 92.97,-162.78 87.8,-158.06"/>
</a>
</g>
</g>
<!-- Node2 -->
<g id="Node000002" class="node">
<title>Node2</title>
<g id="a_Node000002"><a xlink:href="classzero__mate_1_1peripheral_1_1ISystem__Clock__Listener.html" target="_top" xlink:title="This class represents a general interface for a CPU clock listener.">
<polygon fill="white" stroke="#666666" points="139,-318 0,-318 0,-288 139,-288 139,-318"/>
<text text-anchor="start" x="8" y="-306" font-family="Helvetica,sans-Serif" font-size="10.00">zero_mate::peripheral</text>
<text text-anchor="middle" x="69.5" y="-295" font-family="Helvetica,sans-Serif" font-size="10.00">::ISystem_Clock_Listener</text>
</a>
</g>
</g>
<!-- Node2&#45;&gt;Node1 -->
<g id="edge65_Node000002_Node000001" class="edge">
<title>Node2&#45;&gt;Node1</title>
<g id="a_edge65_Node000002_Node000001"><a xlink:title=" ">
<path fill="none" stroke="#63b8ff" d="M132.5,-320.93C149.66,-325.89 168.1,-331.22 184.62,-336"/>
<polygon fill="#63b8ff" stroke="#63b8ff" points="133.15,-317.47 122.57,-318.06 131.2,-324.2 133.15,-317.47"/>
</a>
</g>
</g>
<!-- Node2&#45;&gt;Node3 -->
<g id="edge66_Node000002_Node000003" class="edge">
<title>Node2&#45;&gt;Node3</title>
<g id="a_edge66_Node000002_Node000003"><a xlink:title=" ">
<path fill="none" stroke="#63b8ff" d="M149.6,-303C158.28,-303 167.02,-303 175.44,-303"/>
<polygon fill="#63b8ff" stroke="#63b8ff" points="149.46,-299.5 139.46,-303 149.46,-306.5 149.46,-299.5"/>
</a>
</g>
</g>
<!-- Node2&#45;&gt;Node4 -->
<g id="edge67_Node000002_Node000004" class="edge">
<title>Node2&#45;&gt;Node4</title>
<g id="a_edge67_Node000002_Node000004"><a xlink:title=" ">
<path fill="none" stroke="#63b8ff" d="M132.5,-285.07C149.66,-280.11 168.1,-274.78 184.62,-270"/>
<polygon fill="#63b8ff" stroke="#63b8ff" points="131.2,-281.8 122.57,-287.94 133.15,-288.53 131.2,-281.8"/>
</a>
</g>
</g>
</g>
</svg>
