<?xml version="1.0" encoding="UTF-8" standalone="no"?>
<!DOCTYPE svg PUBLIC "-//W3C//DTD SVG 1.1//EN"
 "http://www.w3.org/Graphics/SVG/1.1/DTD/svg11.dtd">
<!-- Generated by graphviz version 2.43.0 (0)
 -->
<!-- Title: src/core/peripherals/interrupt_controller.cpp Pages: 1 -->
<svg width="695pt" height="269pt"
 viewBox="0.00 0.00 695.00 269.00" xmlns="http://www.w3.org/2000/svg" xmlns:xlink="http://www.w3.org/1999/xlink">
<g id="graph0" class="graph" transform="scale(1 1) rotate(0) translate(4 265)">
<title>src/core/peripherals/interrupt_controller.cpp</title>
<!-- Node1 -->
<g id="Node000001" class="node">
<title>Node1</title>
<g id="a_Node000001"><a xlink:title="This file implements the interrupt controller used in BCM2835 (defined in interrupt_controller....">
<polygon fill="#999999" stroke="#666666" points="348,-261 215,-261 215,-231 348,-231 348,-261"/>
<text text-anchor="start" x="223" y="-249" font-family="Helvetica,sans-Serif" font-size="10.00">src/core/peripherals</text>
<text text-anchor="middle" x="281.5" y="-238" font-family="Helvetica,sans-Serif" font-size="10.00">/interrupt_controller.cpp</text>
</a>
</g>
</g>
<!-- Node2 -->
<g id="Node000002" class="node">
<title>Node2</title>
<g id="a_Node000002"><a xlink:title=" ">
<polygon fill="#e0e0e0" stroke="#999999" points="79,-195 0,-195 0,-176 79,-176 79,-195"/>
<text text-anchor="middle" x="39.5" y="-183" font-family="Helvetica,sans-Serif" font-size="10.00">fmt/format.h</text>
</a>
</g>
</g>
<!-- Node1&#45;&gt;Node2 -->
<g id="edge1_Node000001_Node000002" class="edge">
<title>Node1&#45;&gt;Node2</title>
<g id="a_edge1_Node000001_Node000002"><a xlink:title=" ">
<path fill="none" stroke="#63b8ff" d="M223.53,-230.99C180.96,-220.7 123.93,-206.91 84.7,-197.43"/>
<polygon fill="#63b8ff" stroke="#63b8ff" points="85.43,-194 74.88,-195.05 83.78,-200.81 85.43,-194"/>
</a>
</g>
</g>
<!-- Node3 -->
<g id="Node000003" class="node">
<title>Node3</title>
<g id="a_Node000003"><a xlink:title=" ">
<polygon fill="#e0e0e0" stroke="#999999" points="198,-195 97,-195 97,-176 198,-176 198,-195"/>
<text text-anchor="middle" x="147.5" y="-183" font-family="Helvetica,sans-Serif" font-size="10.00">magic_enum.hpp</text>
</a>
</g>
</g>
<!-- Node1&#45;&gt;Node3 -->
<g id="edge2_Node000001_Node000003" class="edge">
<title>Node1&#45;&gt;Node3</title>
<g id="a_edge2_Node000001_Node000003"><a xlink:title=" ">
<path fill="none" stroke="#63b8ff" d="M249.4,-230.99C227.25,-221.31 198.02,-208.56 176.55,-199.18"/>
<polygon fill="#63b8ff" stroke="#63b8ff" points="177.85,-195.93 167.29,-195.14 175.05,-202.35 177.85,-195.93"/>
</a>
</g>
</g>
<!-- Node4 -->
<g id="Node000004" class="node">
<title>Node4</title>
<g id="a_Node000004"><a xlink:href="interrupt__controller_8hpp.html" target="_top" xlink:title="This file defines the interrupt controller used in BCM2835.">
<polygon fill="white" stroke="#666666" points="347,-195 216,-195 216,-176 347,-176 347,-195"/>
<text text-anchor="middle" x="281.5" y="-183" font-family="Helvetica,sans-Serif" font-size="10.00">interrupt_controller.hpp</text>
</a>
</g>
</g>
<!-- Node1&#45;&gt;Node4 -->
<g id="edge3_Node000001_Node000004" class="edge">
<title>Node1&#45;&gt;Node4</title>
<g id="a_edge3_Node000001_Node000004"><a xlink:title=" ">
<path fill="none" stroke="#63b8ff" d="M281.5,-230.84C281.5,-223.21 281.5,-213.7 281.5,-205.45"/>
<polygon fill="#63b8ff" stroke="#63b8ff" points="285,-205.27 281.5,-195.27 278,-205.27 285,-205.27"/>
</a>
</g>
</g>
<!-- Node9 -->
<g id="Node000009" class="node">
<title>Node9</title>
<g id="a_Node000009"><a xlink:href="math_8hpp.html" target="_top" xlink:title="This file defines and implements a variety of handy helper functions that are used throughout the pro...">
<polygon fill="white" stroke="#666666" points="507.5,-195 365.5,-195 365.5,-176 507.5,-176 507.5,-195"/>
<text text-anchor="middle" x="436.5" y="-183" font-family="Helvetica,sans-Serif" font-size="10.00">zero_mate/utils/math.hpp</text>
</a>
</g>
</g>
<!-- Node1&#45;&gt;Node9 -->
<g id="edge9_Node000001_Node000009" class="edge">
<title>Node1&#45;&gt;Node9</title>
<g id="a_edge9_Node000001_Node000009"><a xlink:title=" ">
<path fill="none" stroke="#63b8ff" d="M318.63,-230.99C344.72,-221.14 379.28,-208.1 404.23,-198.68"/>
<polygon fill="#63b8ff" stroke="#63b8ff" points="405.49,-201.94 413.61,-195.14 403.02,-195.4 405.49,-201.94"/>
</a>
</g>
</g>
<!-- Node10 -->
<g id="Node000010" class="node">
<title>Node10</title>
<g id="a_Node000010"><a xlink:href="singleton_8hpp.html" target="_top" xlink:title="This file defines and implements a generic class that is used to treat other classes as singletons.">
<polygon fill="white" stroke="#666666" points="687,-195 526,-195 526,-176 687,-176 687,-195"/>
<text text-anchor="middle" x="606.5" y="-183" font-family="Helvetica,sans-Serif" font-size="10.00">zero_mate/utils/singleton.hpp</text>
</a>
</g>
</g>
<!-- Node1&#45;&gt;Node10 -->
<g id="edge10_Node000001_Node000010" class="edge">
<title>Node1&#45;&gt;Node10</title>
<g id="a_edge10_Node000001_Node000010"><a xlink:title=" ">
<path fill="none" stroke="#63b8ff" d="M348.05,-233.02C407.14,-222.38 492.61,-207 548.84,-196.88"/>
<polygon fill="#63b8ff" stroke="#63b8ff" points="549.77,-200.27 558.99,-195.05 548.53,-193.38 549.77,-200.27"/>
</a>
</g>
</g>
<!-- Node5 -->
<g id="Node000005" class="node">
<title>Node5</title>
<g id="a_Node000005"><a xlink:href="peripheral_8hpp.html" target="_top" xlink:title="This file defines an interface for a memory&#45;mapped peripheral.">
<polygon fill="white" stroke="#666666" points="187,-140 100,-140 100,-121 187,-121 187,-140"/>
<text text-anchor="middle" x="143.5" y="-128" font-family="Helvetica,sans-Serif" font-size="10.00">peripheral.hpp</text>
</a>
</g>
</g>
<!-- Node4&#45;&gt;Node5 -->
<g id="edge4_Node000004_Node000005" class="edge">
<title>Node4&#45;&gt;Node5</title>
<g id="a_edge4_Node000004_Node000005"><a xlink:title=" ">
<path fill="none" stroke="#63b8ff" d="M259.33,-175.98C236.73,-167.3 201.44,-153.75 175.75,-143.88"/>
<polygon fill="#63b8ff" stroke="#63b8ff" points="176.67,-140.49 166.08,-140.17 174.16,-147.02 176.67,-140.49"/>
</a>
</g>
</g>
<!-- Node6 -->
<g id="Node000006" class="node">
<title>Node6</title>
<g id="a_Node000006"><a xlink:href="context_8hpp.html" target="_top" xlink:title="This file defines the context (registers) of the CPU.">
<polygon fill="white" stroke="#666666" points="357.5,-140 205.5,-140 205.5,-121 357.5,-121 357.5,-140"/>
<text text-anchor="middle" x="281.5" y="-128" font-family="Helvetica,sans-Serif" font-size="10.00">../arm1176jzf_s/context.hpp</text>
</a>
</g>
</g>
<!-- Node4&#45;&gt;Node6 -->
<g id="edge5_Node000004_Node000006" class="edge">
<title>Node4&#45;&gt;Node6</title>
<g id="a_edge5_Node000004_Node000006"><a xlink:title=" ">
<path fill="none" stroke="#63b8ff" d="M281.5,-175.75C281.5,-168.8 281.5,-158.85 281.5,-150.13"/>
<polygon fill="#63b8ff" stroke="#63b8ff" points="285,-150.09 281.5,-140.09 278,-150.09 285,-150.09"/>
</a>
</g>
</g>
<!-- Node7 -->
<g id="Node000007" class="node">
<title>Node7</title>
<g id="a_Node000007"><a xlink:href="logging__system_8hpp.html" target="_top" xlink:title="This file defines a logging system that is used in the project.">
<polygon fill="white" stroke="#666666" points="399,-85 268,-85 268,-55 399,-55 399,-85"/>
<text text-anchor="start" x="276" y="-73" font-family="Helvetica,sans-Serif" font-size="10.00">zero_mate/utils/logging</text>
<text text-anchor="middle" x="333.5" y="-62" font-family="Helvetica,sans-Serif" font-size="10.00">_system.hpp</text>
</a>
</g>
</g>
<!-- Node4&#45;&gt;Node7 -->
<g id="edge8_Node000004_Node000007" class="edge">
<title>Node4&#45;&gt;Node7</title>
<g id="a_edge8_Node000004_Node000007"><a xlink:title=" ">
<path fill="none" stroke="#63b8ff" d="M315.72,-175.93C334.21,-169.37 355.46,-158.24 366.5,-140 375.7,-124.81 366.27,-106.65 355.18,-92.78"/>
<polygon fill="#63b8ff" stroke="#63b8ff" points="357.77,-90.43 348.58,-85.16 352.48,-95.01 357.77,-90.43"/>
</a>
</g>
</g>
<!-- Node6&#45;&gt;Node7 -->
<g id="edge6_Node000006_Node000007" class="edge">
<title>Node6&#45;&gt;Node7</title>
<g id="a_edge6_Node000006_Node000007"><a xlink:title=" ">
<path fill="none" stroke="#63b8ff" d="M289.17,-120.87C295.77,-113.44 305.57,-102.42 314.28,-92.62"/>
<polygon fill="#63b8ff" stroke="#63b8ff" points="316.93,-94.91 320.95,-85.11 311.69,-90.26 316.93,-94.91"/>
</a>
</g>
</g>
<!-- Node8 -->
<g id="Node000008" class="node">
<title>Node8</title>
<g id="a_Node000008"><a xlink:href="logger_8hpp.html" target="_top" xlink:title="This file defines a general logger interface.">
<polygon fill="white" stroke="#666666" points="367.5,-19 299.5,-19 299.5,0 367.5,0 367.5,-19"/>
<text text-anchor="middle" x="333.5" y="-7" font-family="Helvetica,sans-Serif" font-size="10.00">logger.hpp</text>
</a>
</g>
</g>
<!-- Node7&#45;&gt;Node8 -->
<g id="edge7_Node000007_Node000008" class="edge">
<title>Node7&#45;&gt;Node8</title>
<g id="a_edge7_Node000007_Node000008"><a xlink:title=" ">
<path fill="none" stroke="#63b8ff" d="M333.5,-54.84C333.5,-47.21 333.5,-37.7 333.5,-29.45"/>
<polygon fill="#63b8ff" stroke="#63b8ff" points="337,-29.27 333.5,-19.27 330,-29.27 337,-29.27"/>
</a>
</g>
</g>
</g>
</svg>
