<?xml version="1.0" encoding="UTF-8" standalone="no"?>
<!DOCTYPE svg PUBLIC "-//W3C//DTD SVG 1.1//EN"
 "http://www.w3.org/Graphics/SVG/1.1/DTD/svg11.dtd">
<!-- Generated by graphviz version 2.43.0 (0)
 -->
<!-- Title: src/core/peripherals/interrupt_controller.hpp Pages: 1 -->
<svg width="2247pt" height="307pt"
 viewBox="0.00 0.00 2247.00 307.00" xmlns="http://www.w3.org/2000/svg" xmlns:xlink="http://www.w3.org/1999/xlink">
<g id="graph0" class="graph" transform="scale(1 1) rotate(0) translate(4 303)">
<title>src/core/peripherals/interrupt_controller.hpp</title>
<!-- Node1 -->
<g id="node1" class="node">
<title>Node1</title>
<g id="a_node1"><a xlink:title="This file defines the interrupt controller used in BCM2835.">
<polygon fill="#bfbfbf" stroke="black" points="1680,-268.5 1680,-298.5 1814,-298.5 1814,-268.5 1680,-268.5"/>
<text text-anchor="start" x="1688" y="-286.5" font-family="Helvetica,sans-Serif" font-size="10.00">src/core/peripherals</text>
<text text-anchor="middle" x="1747" y="-275.5" font-family="Helvetica,sans-Serif" font-size="10.00">/interrupt_controller.hpp</text>
</a>
</g>
</g>
<!-- Node2 -->
<g id="node2" class="node">
<title>Node2</title>
<g id="a_node2"><a xlink:href="core_8hpp.html" target="_top" xlink:title="This file defines a class that represents a CPU core (arm1176jzf_s).">
<polygon fill="none" stroke="black" points="555.5,-134.5 555.5,-164.5 668.5,-164.5 668.5,-134.5 555.5,-134.5"/>
<text text-anchor="start" x="563.5" y="-152.5" font-family="Helvetica,sans-Serif" font-size="10.00">src/core/arm1176jzf</text>
<text text-anchor="middle" x="612" y="-141.5" font-family="Helvetica,sans-Serif" font-size="10.00">_s/core.hpp</text>
</a>
</g>
</g>
<!-- Node1&#45;&gt;Node2 -->
<g id="edge1" class="edge">
<title>Node1&#45;&gt;Node2</title>
<path fill="none" stroke="midnightblue" d="M1669.59,-273.5C1454.96,-248.54 855.85,-178.86 668.64,-157.09"/>
<polygon fill="midnightblue" stroke="midnightblue" points="1669.48,-277.01 1679.82,-274.69 1670.29,-270.06 1669.48,-277.01"/>
</g>
<!-- Node6 -->
<g id="node6" class="node">
<title>Node6</title>
<g id="a_node6"><a xlink:href="soc_8hpp.html" target="_top" xlink:title=" ">
<polygon fill="none" stroke="black" points="1842.5,-73 1842.5,-92 1937.5,-92 1937.5,-73 1842.5,-73"/>
<text text-anchor="middle" x="1890" y="-80" font-family="Helvetica,sans-Serif" font-size="10.00">src/core/soc.hpp</text>
</a>
</g>
</g>
<!-- Node1&#45;&gt;Node6 -->
<g id="edge45" class="edge">
<title>Node1&#45;&gt;Node6</title>
<path fill="none" stroke="midnightblue" d="M1792.23,-263.96C1809.46,-255.66 1828.63,-244.83 1844,-232 1872.94,-207.85 1883.79,-200.66 1896,-165 1904.64,-139.77 1897.36,-107.64 1892.87,-92.36"/>
<polygon fill="midnightblue" stroke="midnightblue" points="1790.48,-260.91 1782.89,-268.31 1793.43,-267.26 1790.48,-260.91"/>
</g>
<!-- Node18 -->
<g id="node18" class="node">
<title>Node18</title>
<g id="a_node18"><a xlink:href="arm__timer_8hpp.html" target="_top" xlink:title="This file defines the ARM timer used in BCM2835.">
<polygon fill="none" stroke="black" points="1949.5,-134.5 1949.5,-164.5 2062.5,-164.5 2062.5,-134.5 1949.5,-134.5"/>
<text text-anchor="start" x="1957.5" y="-152.5" font-family="Helvetica,sans-Serif" font-size="10.00">src/core/peripherals</text>
<text text-anchor="middle" x="2006" y="-141.5" font-family="Helvetica,sans-Serif" font-size="10.00">/arm_timer.hpp</text>
</a>
</g>
</g>
<!-- Node1&#45;&gt;Node18 -->
<g id="edge21" class="edge">
<title>Node1&#45;&gt;Node18</title>
<path fill="none" stroke="midnightblue" d="M1823.93,-270.79C1857.86,-263.27 1897.17,-251.17 1929,-232 1958.18,-214.42 1983.45,-182.79 1996.52,-164.53"/>
<polygon fill="midnightblue" stroke="midnightblue" points="1823.11,-267.39 1814.05,-272.89 1824.56,-274.24 1823.11,-267.39"/>
</g>
<!-- Node22 -->
<g id="node22" class="node">
<title>Node22</title>
<g id="a_node22"><a xlink:href="auxiliary_8hpp.html" target="_top" xlink:title=" ">
<polygon fill="none" stroke="black" points="1225,-134.5 1225,-164.5 1353,-164.5 1353,-134.5 1225,-134.5"/>
<text text-anchor="start" x="1233" y="-152.5" font-family="Helvetica,sans-Serif" font-size="10.00">src/core/peripherals</text>
<text text-anchor="middle" x="1289" y="-141.5" font-family="Helvetica,sans-Serif" font-size="10.00">/auxiliary/auxiliary.hpp</text>
</a>
</g>
</g>
<!-- Node1&#45;&gt;Node22 -->
<g id="edge27" class="edge">
<title>Node1&#45;&gt;Node22</title>
<path fill="none" stroke="midnightblue" d="M1669.45,-280.04C1600.4,-275.7 1497.67,-263.89 1414,-232 1371.39,-215.76 1328.29,-183.33 1305.51,-164.65"/>
<polygon fill="midnightblue" stroke="midnightblue" points="1669.62,-283.56 1679.81,-280.65 1670.03,-276.57 1669.62,-283.56"/>
</g>
<!-- Node27 -->
<g id="node27" class="node">
<title>Node27</title>
<g id="a_node27"><a xlink:href="gpio_8hpp.html" target="_top" xlink:title="This file defines the GPIO controller used in BCM2835.">
<polygon fill="none" stroke="black" points="1423.5,-201.5 1423.5,-231.5 1536.5,-231.5 1536.5,-201.5 1423.5,-201.5"/>
<text text-anchor="start" x="1431.5" y="-219.5" font-family="Helvetica,sans-Serif" font-size="10.00">src/core/peripherals</text>
<text text-anchor="middle" x="1480" y="-208.5" font-family="Helvetica,sans-Serif" font-size="10.00">/gpio.hpp</text>
</a>
</g>
</g>
<!-- Node1&#45;&gt;Node27 -->
<g id="edge34" class="edge">
<title>Node1&#45;&gt;Node27</title>
<path fill="none" stroke="midnightblue" d="M1679.61,-266.09C1635.45,-255.34 1578.38,-241.45 1536.59,-231.28"/>
<polygon fill="midnightblue" stroke="midnightblue" points="1678.85,-269.51 1689.39,-268.48 1680.51,-262.71 1678.85,-269.51"/>
</g>
<!-- Node33 -->
<g id="node33" class="node">
<title>Node33</title>
<g id="a_node33"><a xlink:href="interrupt__controller_8cpp.html" target="_top" xlink:title="This file implements the interrupt controller used in BCM2835 (defined in interrupt_controller....">
<polygon fill="none" stroke="black" points="1981.5,-201.5 1981.5,-231.5 2114.5,-231.5 2114.5,-201.5 1981.5,-201.5"/>
<text text-anchor="start" x="1989.5" y="-219.5" font-family="Helvetica,sans-Serif" font-size="10.00">src/core/peripherals</text>
<text text-anchor="middle" x="2048" y="-208.5" font-family="Helvetica,sans-Serif" font-size="10.00">/interrupt_controller.cpp</text>
</a>
</g>
</g>
<!-- Node1&#45;&gt;Node33 -->
<g id="edge44" class="edge">
<title>Node1&#45;&gt;Node33</title>
<path fill="none" stroke="midnightblue" d="M1821.95,-266.32C1871.42,-255.63 1935.59,-241.77 1982.92,-231.55"/>
<polygon fill="midnightblue" stroke="midnightblue" points="1820.98,-262.94 1811.94,-268.48 1822.46,-269.79 1820.98,-262.94"/>
</g>
<!-- Node34 -->
<g id="node34" class="node">
<title>Node34</title>
<g id="a_node34"><a xlink:href="interrupt__controller__window_8hpp.html" target="_top" xlink:title="This file defines a window that visualizes the interrupt controller IC.">
<polygon fill="none" stroke="black" points="1659,-201.5 1659,-231.5 1835,-231.5 1835,-201.5 1659,-201.5"/>
<text text-anchor="start" x="1667" y="-219.5" font-family="Helvetica,sans-Serif" font-size="10.00">src/gui/windows/peripherals</text>
<text text-anchor="middle" x="1747" y="-208.5" font-family="Helvetica,sans-Serif" font-size="10.00">/interrupt_controller_window.hpp</text>
</a>
</g>
</g>
<!-- Node1&#45;&gt;Node34 -->
<g id="edge46" class="edge">
<title>Node1&#45;&gt;Node34</title>
<path fill="none" stroke="midnightblue" d="M1747,-258.11C1747,-249.15 1747,-239.32 1747,-231.58"/>
<polygon fill="midnightblue" stroke="midnightblue" points="1743.5,-258.4 1747,-268.4 1750.5,-258.4 1743.5,-258.4"/>
</g>
<!-- Node3 -->
<g id="node3" class="node">
<title>Node3</title>
<g id="a_node3"><a xlink:href="core_8cpp.html" target="_top" xlink:title="This file implements the CCPU_Core class defined in core.hpp.">
<polygon fill="none" stroke="black" points="279.5,-67.5 279.5,-97.5 392.5,-97.5 392.5,-67.5 279.5,-67.5"/>
<text text-anchor="start" x="287.5" y="-85.5" font-family="Helvetica,sans-Serif" font-size="10.00">src/core/arm1176jzf</text>
<text text-anchor="middle" x="336" y="-74.5" font-family="Helvetica,sans-Serif" font-size="10.00">_s/core.cpp</text>
</a>
</g>
</g>
<!-- Node2&#45;&gt;Node3 -->
<g id="edge2" class="edge">
<title>Node2&#45;&gt;Node3</title>
<path fill="none" stroke="midnightblue" d="M545.48,-132.83C498.87,-121.86 437.25,-107.34 392.92,-96.9"/>
<polygon fill="midnightblue" stroke="midnightblue" points="544.95,-136.3 555.48,-135.19 546.55,-129.49 544.95,-136.3"/>
</g>
<!-- Node4 -->
<g id="node4" class="node">
<title>Node4</title>
<g id="a_node4"><a xlink:href="coprocessor_8cpp.html" target="_top" xlink:title="This file implements the common functionality of a general interface of a coprocessor.">
<polygon fill="none" stroke="black" points="411,-67.5 411,-97.5 533,-97.5 533,-67.5 411,-67.5"/>
<text text-anchor="start" x="419" y="-85.5" font-family="Helvetica,sans-Serif" font-size="10.00">src/core/coprocessors</text>
<text text-anchor="middle" x="472" y="-74.5" font-family="Helvetica,sans-Serif" font-size="10.00">/coprocessor.cpp</text>
</a>
</g>
</g>
<!-- Node2&#45;&gt;Node4 -->
<g id="edge3" class="edge">
<title>Node2&#45;&gt;Node4</title>
<path fill="none" stroke="midnightblue" d="M572.43,-130.13C550.19,-119.8 522.85,-107.11 502.32,-97.58"/>
<polygon fill="midnightblue" stroke="midnightblue" points="571.08,-133.36 581.62,-134.4 574.03,-127.01 571.08,-133.36"/>
</g>
<!-- Node5 -->
<g id="node5" class="node">
<title>Node5</title>
<g id="a_node5"><a xlink:href="cp10_8cpp.html" target="_top" xlink:title="This file implements coprocessor CP10 (single&#45;precision FPU).">
<polygon fill="none" stroke="black" points="551,-67.5 551,-97.5 673,-97.5 673,-67.5 551,-67.5"/>
<text text-anchor="start" x="559" y="-85.5" font-family="Helvetica,sans-Serif" font-size="10.00">src/core/coprocessors</text>
<text text-anchor="middle" x="612" y="-74.5" font-family="Helvetica,sans-Serif" font-size="10.00">/cp10/cp10.cpp</text>
</a>
</g>
</g>
<!-- Node2&#45;&gt;Node5 -->
<g id="edge4" class="edge">
<title>Node2&#45;&gt;Node5</title>
<path fill="none" stroke="midnightblue" d="M612,-124.11C612,-115.15 612,-105.32 612,-97.58"/>
<polygon fill="midnightblue" stroke="midnightblue" points="608.5,-124.4 612,-134.4 615.5,-124.4 608.5,-124.4"/>
</g>
<!-- Node2&#45;&gt;Node6 -->
<g id="edge5" class="edge">
<title>Node2&#45;&gt;Node6</title>
<path fill="none" stroke="midnightblue" d="M678.86,-146.12C925.86,-137.28 1775.63,-106.39 1833,-98 1842.3,-96.64 1852.27,-94.39 1861.24,-92.05"/>
<polygon fill="midnightblue" stroke="midnightblue" points="678.46,-142.63 668.59,-146.49 678.71,-149.63 678.46,-142.63"/>
</g>
<!-- Node10 -->
<g id="node10" class="node">
<title>Node10</title>
<g id="a_node10"><a xlink:href="control__window_8hpp.html" target="_top" xlink:title="This file defines a window that allows the user to control CPU execution.">
<polygon fill="none" stroke="black" points="691.5,-67.5 691.5,-97.5 822.5,-97.5 822.5,-67.5 691.5,-67.5"/>
<text text-anchor="start" x="699.5" y="-85.5" font-family="Helvetica,sans-Serif" font-size="10.00">src/gui/windows/control</text>
<text text-anchor="middle" x="757" y="-74.5" font-family="Helvetica,sans-Serif" font-size="10.00">_window.hpp</text>
</a>
</g>
</g>
<!-- Node2&#45;&gt;Node10 -->
<g id="edge9" class="edge">
<title>Node2&#45;&gt;Node10</title>
<path fill="none" stroke="midnightblue" d="M652.67,-130.27C675.76,-119.92 704.24,-107.15 725.6,-97.58"/>
<polygon fill="midnightblue" stroke="midnightblue" points="651.16,-127.11 643.46,-134.4 654.02,-133.5 651.16,-127.11"/>
</g>
<!-- Node12 -->
<g id="node12" class="node">
<title>Node12</title>
<g id="a_node12"><a xlink:href="registers__window_8hpp.html" target="_top" xlink:title="This file defines a window that displays the contents of all CPU registers.">
<polygon fill="none" stroke="black" points="841,-67.5 841,-97.5 981,-97.5 981,-67.5 841,-67.5"/>
<text text-anchor="start" x="849" y="-85.5" font-family="Helvetica,sans-Serif" font-size="10.00">src/gui/windows/registers</text>
<text text-anchor="middle" x="911" y="-74.5" font-family="Helvetica,sans-Serif" font-size="10.00">_window.hpp</text>
</a>
</g>
</g>
<!-- Node2&#45;&gt;Node12 -->
<g id="edge12" class="edge">
<title>Node2&#45;&gt;Node12</title>
<path fill="none" stroke="midnightblue" d="M678.36,-134.07C728.51,-123.17 796.94,-108.3 846.59,-97.5"/>
<polygon fill="midnightblue" stroke="midnightblue" points="677.62,-130.65 668.59,-136.2 679.11,-137.49 677.62,-130.65"/>
</g>
<!-- Node14 -->
<g id="node14" class="node">
<title>Node14</title>
<g id="a_node14"><a xlink:href="source__code__window_8hpp.html" target="_top" xlink:title="This file defines a window that displays loaded ELF files (disassembled instructions of the source co...">
<polygon fill="none" stroke="black" points="0,-67.5 0,-97.5 130,-97.5 130,-67.5 0,-67.5"/>
<text text-anchor="start" x="8" y="-85.5" font-family="Helvetica,sans-Serif" font-size="10.00">src/gui/windows/source</text>
<text text-anchor="middle" x="65" y="-74.5" font-family="Helvetica,sans-Serif" font-size="10.00">_code_window.hpp</text>
</a>
</g>
</g>
<!-- Node2&#45;&gt;Node14 -->
<g id="edge15" class="edge">
<title>Node2&#45;&gt;Node14</title>
<path fill="none" stroke="midnightblue" d="M545.38,-143.23C453.6,-135.55 283.23,-119.79 139,-98 136.15,-97.57 133.25,-97.11 130.32,-96.62"/>
<polygon fill="midnightblue" stroke="midnightblue" points="545.11,-146.72 555.37,-144.06 545.69,-139.74 545.11,-146.72"/>
</g>
<!-- Node16 -->
<g id="node16" class="node">
<title>Node16</title>
<g id="a_node16"><a xlink:href="top__bar__menu_8hpp.html" target="_top" xlink:title=" ">
<polygon fill="none" stroke="black" points="148.5,-67.5 148.5,-97.5 261.5,-97.5 261.5,-67.5 148.5,-67.5"/>
<text text-anchor="start" x="156.5" y="-85.5" font-family="Helvetica,sans-Serif" font-size="10.00">src/gui/windows/top</text>
<text text-anchor="middle" x="205" y="-74.5" font-family="Helvetica,sans-Serif" font-size="10.00">_bar_menu.hpp</text>
</a>
</g>
</g>
<!-- Node2&#45;&gt;Node16 -->
<g id="edge18" class="edge">
<title>Node2&#45;&gt;Node16</title>
<path fill="none" stroke="midnightblue" d="M544.9,-140.06C475.77,-131.03 365.01,-115.59 270,-98 267.27,-97.49 264.48,-96.96 261.67,-96.4"/>
<polygon fill="midnightblue" stroke="midnightblue" points="544.84,-143.58 555.21,-141.4 545.74,-136.64 544.84,-143.58"/>
</g>
<!-- Node7 -->
<g id="node7" class="node">
<title>Node7</title>
<g id="a_node7"><a xlink:href="soc_8cpp.html" target="_top" xlink:title=" ">
<polygon fill="none" stroke="black" points="1894.5,-6 1894.5,-25 1989.5,-25 1989.5,-6 1894.5,-6"/>
<text text-anchor="middle" x="1942" y="-13" font-family="Helvetica,sans-Serif" font-size="10.00">src/core/soc.cpp</text>
</a>
</g>
</g>
<!-- Node6&#45;&gt;Node7 -->
<g id="edge6" class="edge">
<title>Node6&#45;&gt;Node7</title>
<path fill="none" stroke="midnightblue" d="M1903.38,-64.77C1913.52,-52.1 1927.04,-35.2 1935.1,-25.13"/>
<polygon fill="midnightblue" stroke="midnightblue" points="1900.53,-62.74 1897.01,-72.73 1905.99,-67.11 1900.53,-62.74"/>
</g>
<!-- Node8 -->
<g id="node8" class="node">
<title>Node8</title>
<g id="a_node8"><a xlink:href="gui_8cpp.html" target="_top" xlink:title="This file implements the main GUI entry function that takes care of creating and rendering all window...">
<polygon fill="none" stroke="black" points="999.5,-6 999.5,-25 1086.5,-25 1086.5,-6 999.5,-6"/>
<text text-anchor="middle" x="1043" y="-13" font-family="Helvetica,sans-Serif" font-size="10.00">src/gui/gui.cpp</text>
</a>
</g>
</g>
<!-- Node6&#45;&gt;Node8 -->
<g id="edge7" class="edge">
<title>Node6&#45;&gt;Node8</title>
<path fill="none" stroke="midnightblue" d="M1851.04,-70.57C1845.04,-69.18 1838.88,-67.93 1833,-67 1550.97,-22.51 1206.42,-16.97 1086.56,-16.46"/>
<polygon fill="midnightblue" stroke="midnightblue" points="1850.38,-74.01 1860.93,-73 1852.05,-67.22 1850.38,-74.01"/>
</g>
<!-- Node9 -->
<g id="node9" class="node">
<title>Node9</title>
<g id="a_node9"><a xlink:href="main_8cpp.html" target="_top" xlink:title="This file defines and implements the main function of the application.">
<polygon fill="none" stroke="black" points="1797.5,-6 1797.5,-25 1876.5,-25 1876.5,-6 1797.5,-6"/>
<text text-anchor="middle" x="1837" y="-13" font-family="Helvetica,sans-Serif" font-size="10.00">src/main.cpp</text>
</a>
</g>
</g>
<!-- Node6&#45;&gt;Node9 -->
<g id="edge8" class="edge">
<title>Node6&#45;&gt;Node9</title>
<path fill="none" stroke="midnightblue" d="M1876.36,-64.77C1866.03,-52.1 1852.25,-35.2 1844.03,-25.13"/>
<polygon fill="midnightblue" stroke="midnightblue" points="1873.82,-67.2 1882.85,-72.73 1879.25,-62.77 1873.82,-67.2"/>
</g>
<!-- Node10&#45;&gt;Node8 -->
<g id="edge10" class="edge">
<title>Node10&#45;&gt;Node8</title>
<path fill="none" stroke="midnightblue" d="M832.58,-66.19C878.29,-56.66 937.66,-43.82 990,-31 997.41,-29.18 1005.37,-27.09 1012.8,-25.06"/>
<polygon fill="midnightblue" stroke="midnightblue" points="831.83,-62.77 822.75,-68.23 833.25,-69.62 831.83,-62.77"/>
</g>
<!-- Node11 -->
<g id="node11" class="node">
<title>Node11</title>
<g id="a_node11"><a xlink:href="control__window_8cpp.html" target="_top" xlink:title="This file implements a window that allows the user to control CPU execution.">
<polygon fill="none" stroke="black" points="691.5,-0.5 691.5,-30.5 822.5,-30.5 822.5,-0.5 691.5,-0.5"/>
<text text-anchor="start" x="699.5" y="-18.5" font-family="Helvetica,sans-Serif" font-size="10.00">src/gui/windows/control</text>
<text text-anchor="middle" x="757" y="-7.5" font-family="Helvetica,sans-Serif" font-size="10.00">_window.cpp</text>
</a>
</g>
</g>
<!-- Node10&#45;&gt;Node11 -->
<g id="edge11" class="edge">
<title>Node10&#45;&gt;Node11</title>
<path fill="none" stroke="midnightblue" d="M757,-57.11C757,-48.15 757,-38.32 757,-30.58"/>
<polygon fill="midnightblue" stroke="midnightblue" points="753.5,-57.4 757,-67.4 760.5,-57.4 753.5,-57.4"/>
</g>
<!-- Node12&#45;&gt;Node8 -->
<g id="edge13" class="edge">
<title>Node12&#45;&gt;Node8</title>
<path fill="none" stroke="midnightblue" d="M948.64,-62.97C973.99,-50.48 1006.25,-34.6 1025.72,-25.01"/>
<polygon fill="midnightblue" stroke="midnightblue" points="947.07,-59.84 939.64,-67.4 950.16,-66.12 947.07,-59.84"/>
</g>
<!-- Node13 -->
<g id="node13" class="node">
<title>Node13</title>
<g id="a_node13"><a xlink:href="registers__window_8cpp.html" target="_top" xlink:title="This file implements a window that displays the contents of all CPU registers.">
<polygon fill="none" stroke="black" points="841,-0.5 841,-30.5 981,-30.5 981,-0.5 841,-0.5"/>
<text text-anchor="start" x="849" y="-18.5" font-family="Helvetica,sans-Serif" font-size="10.00">src/gui/windows/registers</text>
<text text-anchor="middle" x="911" y="-7.5" font-family="Helvetica,sans-Serif" font-size="10.00">_window.cpp</text>
</a>
</g>
</g>
<!-- Node12&#45;&gt;Node13 -->
<g id="edge14" class="edge">
<title>Node12&#45;&gt;Node13</title>
<path fill="none" stroke="midnightblue" d="M911,-57.11C911,-48.15 911,-38.32 911,-30.58"/>
<polygon fill="midnightblue" stroke="midnightblue" points="907.5,-57.4 911,-67.4 914.5,-57.4 907.5,-57.4"/>
</g>
<!-- Node14&#45;&gt;Node8 -->
<g id="edge16" class="edge">
<title>Node14&#45;&gt;Node8</title>
<path fill="none" stroke="midnightblue" d="M140.36,-66.97C516.73,-23.64 619.25,-88.8 990,-31 998.67,-29.65 1007.96,-27.4 1016.29,-25.06"/>
<polygon fill="midnightblue" stroke="midnightblue" points="139.81,-63.51 130.29,-68.15 140.62,-70.47 139.81,-63.51"/>
</g>
<!-- Node15 -->
<g id="node15" class="node">
<title>Node15</title>
<g id="a_node15"><a xlink:href="source__code__window_8cpp.html" target="_top" xlink:title="This file implements a window that displays loaded ELF files (disassembled instructions of the source...">
<polygon fill="none" stroke="black" points="0,-0.5 0,-30.5 130,-30.5 130,-0.5 0,-0.5"/>
<text text-anchor="start" x="8" y="-18.5" font-family="Helvetica,sans-Serif" font-size="10.00">src/gui/windows/source</text>
<text text-anchor="middle" x="65" y="-7.5" font-family="Helvetica,sans-Serif" font-size="10.00">_code_window.cpp</text>
</a>
</g>
</g>
<!-- Node14&#45;&gt;Node15 -->
<g id="edge17" class="edge">
<title>Node14&#45;&gt;Node15</title>
<path fill="none" stroke="midnightblue" d="M65,-57.11C65,-48.15 65,-38.32 65,-30.58"/>
<polygon fill="midnightblue" stroke="midnightblue" points="61.5,-57.4 65,-67.4 68.5,-57.4 61.5,-57.4"/>
</g>
<!-- Node16&#45;&gt;Node8 -->
<g id="edge19" class="edge">
<title>Node16&#45;&gt;Node8</title>
<path fill="none" stroke="midnightblue" d="M271.57,-66.95C589.29,-25.14 676.86,-81.05 990,-31 998.67,-29.61 1007.95,-27.35 1016.29,-25.02"/>
<polygon fill="midnightblue" stroke="midnightblue" points="271.07,-63.48 261.62,-68.28 271.99,-70.42 271.07,-63.48"/>
</g>
<!-- Node17 -->
<g id="node17" class="node">
<title>Node17</title>
<g id="a_node17"><a xlink:href="top__bar__menu_8cpp.html" target="_top" xlink:title=" ">
<polygon fill="none" stroke="black" points="148.5,-0.5 148.5,-30.5 261.5,-30.5 261.5,-0.5 148.5,-0.5"/>
<text text-anchor="start" x="156.5" y="-18.5" font-family="Helvetica,sans-Serif" font-size="10.00">src/gui/windows/top</text>
<text text-anchor="middle" x="205" y="-7.5" font-family="Helvetica,sans-Serif" font-size="10.00">_bar_menu.cpp</text>
</a>
</g>
</g>
<!-- Node16&#45;&gt;Node17 -->
<g id="edge20" class="edge">
<title>Node16&#45;&gt;Node17</title>
<path fill="none" stroke="midnightblue" d="M205,-57.11C205,-48.15 205,-38.32 205,-30.58"/>
<polygon fill="midnightblue" stroke="midnightblue" points="201.5,-57.4 205,-67.4 208.5,-57.4 201.5,-57.4"/>
</g>
<!-- Node18&#45;&gt;Node6 -->
<g id="edge23" class="edge">
<title>Node18&#45;&gt;Node6</title>
<path fill="none" stroke="midnightblue" d="M1972.04,-129.47C1949.9,-117.06 1922.07,-101.47 1905.18,-92.01"/>
<polygon fill="midnightblue" stroke="midnightblue" points="1970.4,-132.56 1980.83,-134.4 1973.82,-126.45 1970.4,-132.56"/>
</g>
<!-- Node19 -->
<g id="node19" class="node">
<title>Node19</title>
<g id="a_node19"><a xlink:href="arm__timer_8cpp.html" target="_top" xlink:title="This file implements the ARM timer used in BCM2835 as defined in arm_timer.hpp.">
<polygon fill="none" stroke="black" points="1955.5,-67.5 1955.5,-97.5 2068.5,-97.5 2068.5,-67.5 1955.5,-67.5"/>
<text text-anchor="start" x="1963.5" y="-85.5" font-family="Helvetica,sans-Serif" font-size="10.00">src/core/peripherals</text>
<text text-anchor="middle" x="2012" y="-74.5" font-family="Helvetica,sans-Serif" font-size="10.00">/arm_timer.cpp</text>
</a>
</g>
</g>
<!-- Node18&#45;&gt;Node19 -->
<g id="edge22" class="edge">
<title>Node18&#45;&gt;Node19</title>
<path fill="none" stroke="midnightblue" d="M2008.22,-124.4C2009.06,-115.37 2009.98,-105.41 2010.7,-97.58"/>
<polygon fill="midnightblue" stroke="midnightblue" points="2004.74,-124.12 2007.3,-134.4 2011.71,-124.76 2004.74,-124.12"/>
</g>
<!-- Node20 -->
<g id="node20" class="node">
<title>Node20</title>
<g id="a_node20"><a xlink:href="arm__timer__window_8hpp.html" target="_top" xlink:title="This file defines a window that visualizes the contents of the ARM timer registers.">
<polygon fill="none" stroke="black" points="2087,-67.5 2087,-97.5 2239,-97.5 2239,-67.5 2087,-67.5"/>
<text text-anchor="start" x="2095" y="-85.5" font-family="Helvetica,sans-Serif" font-size="10.00">src/gui/windows/peripherals</text>
<text text-anchor="middle" x="2163" y="-74.5" font-family="Helvetica,sans-Serif" font-size="10.00">/arm_timer_window.hpp</text>
</a>
</g>
</g>
<!-- Node18&#45;&gt;Node20 -->
<g id="edge24" class="edge">
<title>Node18&#45;&gt;Node20</title>
<path fill="none" stroke="midnightblue" d="M2049.37,-130.54C2074.49,-120.14 2105.66,-107.24 2129,-97.58"/>
<polygon fill="midnightblue" stroke="midnightblue" points="2047.97,-127.34 2040.07,-134.4 2050.64,-133.8 2047.97,-127.34"/>
</g>
<!-- Node20&#45;&gt;Node8 -->
<g id="edge25" class="edge">
<title>Node20&#45;&gt;Node8</title>
<path fill="none" stroke="midnightblue" d="M2076.66,-67.09C1860.98,-45.01 1254.71,-23.6 1086.64,-17.94"/>
<polygon fill="midnightblue" stroke="midnightblue" points="2076.32,-70.57 2086.63,-68.14 2077.05,-63.61 2076.32,-70.57"/>
</g>
<!-- Node21 -->
<g id="node21" class="node">
<title>Node21</title>
<g id="a_node21"><a xlink:href="arm__timer__window_8cpp.html" target="_top" xlink:title="This file implements a window that visualizes the contents of the ARM timer registers.">
<polygon fill="none" stroke="black" points="2087,-0.5 2087,-30.5 2239,-30.5 2239,-0.5 2087,-0.5"/>
<text text-anchor="start" x="2095" y="-18.5" font-family="Helvetica,sans-Serif" font-size="10.00">src/gui/windows/peripherals</text>
<text text-anchor="middle" x="2163" y="-7.5" font-family="Helvetica,sans-Serif" font-size="10.00">/arm_timer_window.cpp</text>
</a>
</g>
</g>
<!-- Node20&#45;&gt;Node21 -->
<g id="edge26" class="edge">
<title>Node20&#45;&gt;Node21</title>
<path fill="none" stroke="midnightblue" d="M2163,-57.11C2163,-48.15 2163,-38.32 2163,-30.58"/>
<polygon fill="midnightblue" stroke="midnightblue" points="2159.5,-57.4 2163,-67.4 2166.5,-57.4 2159.5,-57.4"/>
</g>
<!-- Node22&#45;&gt;Node6 -->
<g id="edge30" class="edge">
<title>Node22&#45;&gt;Node6</title>
<path fill="none" stroke="midnightblue" d="M1363.08,-133.98C1571.78,-106.31 1629.07,-131.47 1833,-98 1842.07,-96.51 1851.81,-94.28 1860.62,-92.01"/>
<polygon fill="midnightblue" stroke="midnightblue" points="1362.46,-130.53 1353.02,-135.33 1363.4,-137.46 1362.46,-130.53"/>
</g>
<!-- Node23 -->
<g id="node23" class="node">
<title>Node23</title>
<g id="a_node23"><a xlink:href="auxiliary_8cpp.html" target="_top" xlink:title=" ">
<polygon fill="none" stroke="black" points="1207.5,-67.5 1207.5,-97.5 1334.5,-97.5 1334.5,-67.5 1207.5,-67.5"/>
<text text-anchor="start" x="1215.5" y="-85.5" font-family="Helvetica,sans-Serif" font-size="10.00">src/core/peripherals</text>
<text text-anchor="middle" x="1271" y="-74.5" font-family="Helvetica,sans-Serif" font-size="10.00">/auxiliary/auxiliary.cpp</text>
</a>
</g>
</g>
<!-- Node22&#45;&gt;Node23 -->
<g id="edge28" class="edge">
<title>Node22&#45;&gt;Node23</title>
<path fill="none" stroke="midnightblue" d="M1282.41,-124.7C1279.89,-115.59 1277.09,-105.49 1274.9,-97.58"/>
<polygon fill="midnightblue" stroke="midnightblue" points="1279.05,-125.69 1285.09,-134.4 1285.8,-123.82 1279.05,-125.69"/>
</g>
<!-- Node24 -->
<g id="node24" class="node">
<title>Node24</title>
<g id="a_node24"><a xlink:href="mini__uart_8cpp.html" target="_top" xlink:title="This file implements the Mini UART auxiliary peripheral used in BCM2835.">
<polygon fill="none" stroke="black" points="1353,-67.5 1353,-97.5 1485,-97.5 1485,-67.5 1353,-67.5"/>
<text text-anchor="start" x="1361" y="-85.5" font-family="Helvetica,sans-Serif" font-size="10.00">src/core/peripherals</text>
<text text-anchor="middle" x="1419" y="-74.5" font-family="Helvetica,sans-Serif" font-size="10.00">/auxiliary/mini_uart.cpp</text>
</a>
</g>
</g>
<!-- Node22&#45;&gt;Node24 -->
<g id="edge29" class="edge">
<title>Node22&#45;&gt;Node24</title>
<path fill="none" stroke="midnightblue" d="M1326.29,-129.85C1346.85,-119.58 1371.95,-107.03 1390.85,-97.58"/>
<polygon fill="midnightblue" stroke="midnightblue" points="1324.59,-126.79 1317.21,-134.4 1327.72,-133.05 1324.59,-126.79"/>
</g>
<!-- Node25 -->
<g id="node25" class="node">
<title>Node25</title>
<g id="a_node25"><a xlink:href="aux__window_8hpp.html" target="_top" xlink:title="This file defines a window that visualizes the auxiliaries (UART1 &amp; SPI1, and SPI2) used in BCM2835.">
<polygon fill="none" stroke="black" points="1541,-67.5 1541,-97.5 1693,-97.5 1693,-67.5 1541,-67.5"/>
<text text-anchor="start" x="1549" y="-85.5" font-family="Helvetica,sans-Serif" font-size="10.00">src/gui/windows/peripherals</text>
<text text-anchor="middle" x="1617" y="-74.5" font-family="Helvetica,sans-Serif" font-size="10.00">/aux_window.hpp</text>
</a>
</g>
</g>
<!-- Node22&#45;&gt;Node25 -->
<g id="edge31" class="edge">
<title>Node22&#45;&gt;Node25</title>
<path fill="none" stroke="midnightblue" d="M1363.09,-133.78C1430.79,-120.36 1497.33,-107.18 1546.1,-97.53"/>
<polygon fill="midnightblue" stroke="midnightblue" points="1362.22,-130.39 1353.09,-135.77 1363.58,-137.25 1362.22,-130.39"/>
</g>
<!-- Node25&#45;&gt;Node8 -->
<g id="edge32" class="edge">
<title>Node25&#45;&gt;Node8</title>
<path fill="none" stroke="midnightblue" d="M1530.87,-67.52C1529.57,-67.34 1528.28,-67.17 1527,-67 1365.15,-45.54 1171.85,-27.7 1086.81,-20.25"/>
<polygon fill="midnightblue" stroke="midnightblue" points="1530.54,-71.01 1540.94,-68.94 1531.52,-64.08 1530.54,-71.01"/>
</g>
<!-- Node26 -->
<g id="node26" class="node">
<title>Node26</title>
<g id="a_node26"><a xlink:href="aux__window_8cpp.html" target="_top" xlink:title="This file implements a window that visualizes the auxiliaries (UART1 &amp; SPI1, and SPI2) used in BCM283...">
<polygon fill="none" stroke="black" points="1541,-0.5 1541,-30.5 1693,-30.5 1693,-0.5 1541,-0.5"/>
<text text-anchor="start" x="1549" y="-18.5" font-family="Helvetica,sans-Serif" font-size="10.00">src/gui/windows/peripherals</text>
<text text-anchor="middle" x="1617" y="-7.5" font-family="Helvetica,sans-Serif" font-size="10.00">/aux_window.cpp</text>
</a>
</g>
</g>
<!-- Node25&#45;&gt;Node26 -->
<g id="edge33" class="edge">
<title>Node25&#45;&gt;Node26</title>
<path fill="none" stroke="midnightblue" d="M1617,-57.11C1617,-48.15 1617,-38.32 1617,-30.58"/>
<polygon fill="midnightblue" stroke="midnightblue" points="1613.5,-57.4 1617,-67.4 1620.5,-57.4 1613.5,-57.4"/>
</g>
<!-- Node27&#45;&gt;Node6 -->
<g id="edge40" class="edge">
<title>Node27&#45;&gt;Node6</title>
<path fill="none" stroke="midnightblue" d="M1546.46,-203.9C1582.28,-196.01 1626.48,-183.57 1663,-165 1682.74,-154.96 1682.23,-143.97 1702,-134 1709,-130.47 1804.57,-105.54 1856.67,-92.08"/>
<polygon fill="midnightblue" stroke="midnightblue" points="1545.65,-200.5 1536.6,-206.01 1547.11,-207.34 1545.65,-200.5"/>
</g>
<!-- Node27&#45;&gt;Node22 -->
<g id="edge35" class="edge">
<title>Node27&#45;&gt;Node22</title>
<path fill="none" stroke="midnightblue" d="M1428.85,-198.09C1398.01,-187.6 1359.25,-174.41 1330.36,-164.58"/>
<polygon fill="midnightblue" stroke="midnightblue" points="1427.96,-201.49 1438.56,-201.4 1430.22,-194.86 1427.96,-201.49"/>
</g>
<!-- Node28 -->
<g id="node28" class="node">
<title>Node28</title>
<g id="a_node28"><a xlink:href="bsc_8hpp.html" target="_top" xlink:title="This file defines the BSC peripheral used in BCM2835.">
<polygon fill="none" stroke="black" points="1541.5,-134.5 1541.5,-164.5 1654.5,-164.5 1654.5,-134.5 1541.5,-134.5"/>
<text text-anchor="start" x="1549.5" y="-152.5" font-family="Helvetica,sans-Serif" font-size="10.00">src/core/peripherals</text>
<text text-anchor="middle" x="1598" y="-141.5" font-family="Helvetica,sans-Serif" font-size="10.00">/bsc.hpp</text>
</a>
</g>
</g>
<!-- Node27&#45;&gt;Node28 -->
<g id="edge36" class="edge">
<title>Node27&#45;&gt;Node28</title>
<path fill="none" stroke="midnightblue" d="M1514.61,-196.44C1533.12,-186.24 1555.52,-173.9 1572.45,-164.58"/>
<polygon fill="midnightblue" stroke="midnightblue" points="1512.67,-193.51 1505.6,-201.4 1516.05,-199.64 1512.67,-193.51"/>
</g>
<!-- Node30 -->
<g id="node30" class="node">
<title>Node30</title>
<g id="a_node30"><a xlink:href="gpio_8cpp.html" target="_top" xlink:title="This file implements the GPIO controller used in BCM2835 (defined in gpio.hpp).">
<polygon fill="none" stroke="black" points="1371.5,-134.5 1371.5,-164.5 1484.5,-164.5 1484.5,-134.5 1371.5,-134.5"/>
<text text-anchor="start" x="1379.5" y="-152.5" font-family="Helvetica,sans-Serif" font-size="10.00">src/core/peripherals</text>
<text text-anchor="middle" x="1428" y="-141.5" font-family="Helvetica,sans-Serif" font-size="10.00">/gpio.cpp</text>
</a>
</g>
</g>
<!-- Node27&#45;&gt;Node30 -->
<g id="edge39" class="edge">
<title>Node27&#45;&gt;Node30</title>
<path fill="none" stroke="midnightblue" d="M1462.36,-193.45C1454.72,-183.9 1446,-173 1439.26,-164.58"/>
<polygon fill="midnightblue" stroke="midnightblue" points="1459.74,-195.77 1468.72,-201.4 1465.2,-191.4 1459.74,-195.77"/>
</g>
<!-- Node31 -->
<g id="node31" class="node">
<title>Node31</title>
<g id="a_node31"><a xlink:href="gpio__window_8hpp.html" target="_top" xlink:title="This file defines a window that visualizes the states and information about GPIO pins.">
<polygon fill="none" stroke="black" points="1037,-134.5 1037,-164.5 1189,-164.5 1189,-134.5 1037,-134.5"/>
<text text-anchor="start" x="1045" y="-152.5" font-family="Helvetica,sans-Serif" font-size="10.00">src/gui/windows/peripherals</text>
<text text-anchor="middle" x="1113" y="-141.5" font-family="Helvetica,sans-Serif" font-size="10.00">/gpio_window.hpp</text>
</a>
</g>
</g>
<!-- Node27&#45;&gt;Node31 -->
<g id="edge41" class="edge">
<title>Node27&#45;&gt;Node31</title>
<path fill="none" stroke="midnightblue" d="M1413.6,-203.74C1350.37,-192.54 1255.3,-175.7 1189.06,-163.97"/>
<polygon fill="midnightblue" stroke="midnightblue" points="1413,-207.19 1423.46,-205.49 1414.22,-200.3 1413,-207.19"/>
</g>
<!-- Node28&#45;&gt;Node6 -->
<g id="edge38" class="edge">
<title>Node28&#45;&gt;Node6</title>
<path fill="none" stroke="midnightblue" d="M1664.72,-134.86C1711.84,-125.05 1776.41,-111.27 1833,-98 1840.85,-96.16 1849.29,-94.07 1857.2,-92.07"/>
<polygon fill="midnightblue" stroke="midnightblue" points="1663.72,-131.49 1654.64,-136.95 1665.14,-138.34 1663.72,-131.49"/>
</g>
<!-- Node29 -->
<g id="node29" class="node">
<title>Node29</title>
<g id="a_node29"><a xlink:href="bsc_8cpp.html" target="_top" xlink:title="This file implements the BSC peripheral used in BCM2835.">
<polygon fill="none" stroke="black" points="1711.5,-67.5 1711.5,-97.5 1824.5,-97.5 1824.5,-67.5 1711.5,-67.5"/>
<text text-anchor="start" x="1719.5" y="-85.5" font-family="Helvetica,sans-Serif" font-size="10.00">src/core/peripherals</text>
<text text-anchor="middle" x="1768" y="-74.5" font-family="Helvetica,sans-Serif" font-size="10.00">/bsc.cpp</text>
</a>
</g>
</g>
<!-- Node28&#45;&gt;Node29 -->
<g id="edge37" class="edge">
<title>Node28&#45;&gt;Node29</title>
<path fill="none" stroke="midnightblue" d="M1644.24,-130.82C1671.57,-120.37 1705.69,-107.32 1731.18,-97.58"/>
<polygon fill="midnightblue" stroke="midnightblue" points="1642.98,-127.56 1634.89,-134.4 1645.48,-134.09 1642.98,-127.56"/>
</g>
<!-- Node31&#45;&gt;Node8 -->
<g id="edge42" class="edge">
<title>Node31&#45;&gt;Node8</title>
<path fill="none" stroke="midnightblue" d="M1062.6,-129.75C1048.95,-122.08 1035.8,-111.71 1028,-98 1014.48,-74.24 1029.29,-40.86 1037.83,-25.22"/>
<polygon fill="midnightblue" stroke="midnightblue" points="1061.11,-132.91 1071.6,-134.4 1064.33,-126.7 1061.11,-132.91"/>
</g>
<!-- Node32 -->
<g id="node32" class="node">
<title>Node32</title>
<g id="a_node32"><a xlink:href="gpio__window_8cpp.html" target="_top" xlink:title="This file implements a window that visualizes the states and information about GPIO pins.">
<polygon fill="none" stroke="black" points="1037,-67.5 1037,-97.5 1189,-97.5 1189,-67.5 1037,-67.5"/>
<text text-anchor="start" x="1045" y="-85.5" font-family="Helvetica,sans-Serif" font-size="10.00">src/gui/windows/peripherals</text>
<text text-anchor="middle" x="1113" y="-74.5" font-family="Helvetica,sans-Serif" font-size="10.00">/gpio_window.cpp</text>
</a>
</g>
</g>
<!-- Node31&#45;&gt;Node32 -->
<g id="edge43" class="edge">
<title>Node31&#45;&gt;Node32</title>
<path fill="none" stroke="midnightblue" d="M1113,-124.11C1113,-115.15 1113,-105.32 1113,-97.58"/>
<polygon fill="midnightblue" stroke="midnightblue" points="1109.5,-124.4 1113,-134.4 1116.5,-124.4 1109.5,-124.4"/>
</g>
<!-- Node34&#45;&gt;Node8 -->
<g id="edge47" class="edge">
<title>Node34&#45;&gt;Node8</title>
<path fill="none" stroke="midnightblue" d="M1648.69,-201.5C1600.89,-192.92 1549.93,-180.59 1532,-165 1496.75,-134.34 1531.01,-95.5 1494,-67 1431.03,-18.51 1187.2,-15.08 1086.69,-15.81"/>
<polygon fill="midnightblue" stroke="midnightblue" points="1648.38,-204.99 1658.83,-203.27 1649.59,-198.1 1648.38,-204.99"/>
</g>
<!-- Node35 -->
<g id="node35" class="node">
<title>Node35</title>
<g id="a_node35"><a xlink:href="interrupt__controller__window_8cpp.html" target="_top" xlink:title="This file implements a window that visualizes the interrupt controller IC.">
<polygon fill="none" stroke="black" points="1711,-134.5 1711,-164.5 1887,-164.5 1887,-134.5 1711,-134.5"/>
<text text-anchor="start" x="1719" y="-152.5" font-family="Helvetica,sans-Serif" font-size="10.00">src/gui/windows/peripherals</text>
<text text-anchor="middle" x="1799" y="-141.5" font-family="Helvetica,sans-Serif" font-size="10.00">/interrupt_controller_window.cpp</text>
</a>
</g>
</g>
<!-- Node34&#45;&gt;Node35 -->
<g id="edge48" class="edge">
<title>Node34&#45;&gt;Node35</title>
<path fill="none" stroke="midnightblue" d="M1764.64,-193.45C1772.28,-183.9 1781,-173 1787.74,-164.58"/>
<polygon fill="midnightblue" stroke="midnightblue" points="1761.8,-191.4 1758.28,-201.4 1767.26,-195.77 1761.8,-191.4"/>
</g>
</g>
</svg>
