<?xml version="1.0" encoding="UTF-8" standalone="no"?>
<!DOCTYPE svg PUBLIC "-//W3C//DTD SVG 1.1//EN"
 "http://www.w3.org/Graphics/SVG/1.1/DTD/svg11.dtd">
<!-- Generated by graphviz version 2.43.0 (0)
 -->
<!-- Title: src/gui/windows/peripherals/interrupt_controller_window.cpp Pages: 1 -->
<svg width="410pt" height="346pt"
 viewBox="0.00 0.00 409.50 346.00" xmlns="http://www.w3.org/2000/svg" xmlns:xlink="http://www.w3.org/1999/xlink">
<g id="graph0" class="graph" transform="scale(1 1) rotate(0) translate(4 342)">
<title>src/gui/windows/peripherals/interrupt_controller_window.cpp</title>
<!-- Node1 -->
<g id="Node000001" class="node">
<title>Node1</title>
<g id="a_Node000001"><a xlink:title="This file implements a window that visualizes the interrupt controller IC.">
<polygon fill="#999999" stroke="#666666" points="202,-338 26,-338 26,-308 202,-308 202,-338"/>
<text text-anchor="start" x="34" y="-326" font-family="Helvetica,sans-Serif" font-size="10.00">src/gui/windows/peripherals</text>
<text text-anchor="middle" x="114" y="-315" font-family="Helvetica,sans-Serif" font-size="10.00">/interrupt_controller_window.cpp</text>
</a>
</g>
</g>
<!-- Node2 -->
<g id="Node000002" class="node">
<title>Node2</title>
<g id="a_Node000002"><a xlink:title=" ">
<polygon fill="#e0e0e0" stroke="#999999" points="102.5,-266.5 1.5,-266.5 1.5,-247.5 102.5,-247.5 102.5,-266.5"/>
<text text-anchor="middle" x="52" y="-254.5" font-family="Helvetica,sans-Serif" font-size="10.00">magic_enum.hpp</text>
</a>
</g>
</g>
<!-- Node1&#45;&gt;Node2 -->
<g id="edge1_Node000001_Node000002" class="edge">
<title>Node1&#45;&gt;Node2</title>
<g id="a_edge1_Node000001_Node000002"><a xlink:title=" ">
<path fill="none" stroke="#63b8ff" d="M100.24,-307.8C90.57,-297.82 77.63,-284.46 67.58,-274.09"/>
<polygon fill="#63b8ff" stroke="#63b8ff" points="70.04,-271.59 60.57,-266.84 65.01,-276.46 70.04,-271.59"/>
</a>
</g>
</g>
<!-- Node3 -->
<g id="Node000003" class="node">
<title>Node3</title>
<g id="a_Node000003"><a xlink:href="interrupt__controller__window_8hpp.html" target="_top" xlink:title="This file defines a window that visualizes the interrupt controller IC.">
<polygon fill="white" stroke="#666666" points="231,-272 121,-272 121,-242 231,-242 231,-272"/>
<text text-anchor="start" x="129" y="-260" font-family="Helvetica,sans-Serif" font-size="10.00">interrupt_controller</text>
<text text-anchor="middle" x="176" y="-249" font-family="Helvetica,sans-Serif" font-size="10.00">_window.hpp</text>
</a>
</g>
</g>
<!-- Node1&#45;&gt;Node3 -->
<g id="edge2_Node000001_Node000003" class="edge">
<title>Node1&#45;&gt;Node3</title>
<g id="a_edge2_Node000001_Node000003"><a xlink:title=" ">
<path fill="none" stroke="#63b8ff" d="M127.76,-307.8C135.79,-299.51 146.07,-288.89 155.09,-279.59"/>
<polygon fill="#63b8ff" stroke="#63b8ff" points="157.83,-281.78 162.28,-272.16 152.81,-276.91 157.83,-281.78"/>
</a>
</g>
</g>
<!-- Node4 -->
<g id="Node000004" class="node">
<title>Node4</title>
<g id="a_Node000004"><a xlink:href="window_8hpp.html" target="_top" xlink:title="This file defines an interface for all windows that will be rendered by the application.">
<polygon fill="white" stroke="#666666" points="143,-200.5 51,-200.5 51,-181.5 143,-181.5 143,-200.5"/>
<text text-anchor="middle" x="97" y="-188.5" font-family="Helvetica,sans-Serif" font-size="10.00">../../window.hpp</text>
</a>
</g>
</g>
<!-- Node3&#45;&gt;Node4 -->
<g id="edge3_Node000003_Node000004" class="edge">
<title>Node3&#45;&gt;Node4</title>
<g id="a_edge3_Node000003_Node000004"><a xlink:title=" ">
<path fill="none" stroke="#63b8ff" d="M158.47,-241.8C145.79,-231.53 128.68,-217.67 115.74,-207.18"/>
<polygon fill="#63b8ff" stroke="#63b8ff" points="117.89,-204.42 107.92,-200.84 113.48,-209.86 117.89,-204.42"/>
</a>
</g>
</g>
<!-- Node6 -->
<g id="Node000006" class="node">
<title>Node6</title>
<g id="a_Node000006"><a xlink:href="interrupt__controller_8hpp.html" target="_top" xlink:title="This file defines the interrupt controller used in BCM2835.">
<polygon fill="white" stroke="#666666" points="323,-206 189,-206 189,-176 323,-176 323,-206"/>
<text text-anchor="start" x="197" y="-194" font-family="Helvetica,sans-Serif" font-size="10.00">../../../core/peripherals</text>
<text text-anchor="middle" x="256" y="-183" font-family="Helvetica,sans-Serif" font-size="10.00">/interrupt_controller.hpp</text>
</a>
</g>
</g>
<!-- Node3&#45;&gt;Node6 -->
<g id="edge5_Node000003_Node000006" class="edge">
<title>Node3&#45;&gt;Node6</title>
<g id="a_edge5_Node000003_Node000006"><a xlink:title=" ">
<path fill="none" stroke="#63b8ff" d="M193.75,-241.8C204.53,-233.18 218.45,-222.04 230.4,-212.48"/>
<polygon fill="#63b8ff" stroke="#63b8ff" points="232.67,-215.14 238.3,-206.16 228.3,-209.68 232.67,-215.14"/>
</a>
</g>
</g>
<!-- Node5 -->
<g id="Node000005" class="node">
<title>Node5</title>
<g id="a_Node000005"><a xlink:title=" ">
<polygon fill="#e0e0e0" stroke="#999999" points="84,-140 0,-140 0,-121 84,-121 84,-140"/>
<text text-anchor="middle" x="42" y="-128" font-family="Helvetica,sans-Serif" font-size="10.00">imgui/imgui.h</text>
</a>
</g>
</g>
<!-- Node4&#45;&gt;Node5 -->
<g id="edge4_Node000004_Node000005" class="edge">
<title>Node4&#45;&gt;Node5</title>
<g id="a_edge4_Node000004_Node000005"><a xlink:title=" ">
<path fill="none" stroke="#63b8ff" d="M88.88,-181.37C80.6,-172.55 67.53,-158.66 57.3,-147.77"/>
<polygon fill="#63b8ff" stroke="#63b8ff" points="59.55,-145.06 50.15,-140.17 54.45,-149.85 59.55,-145.06"/>
</a>
</g>
</g>
<!-- Node7 -->
<g id="Node000007" class="node">
<title>Node7</title>
<g id="a_Node000007"><a xlink:href="peripheral_8hpp.html" target="_top" xlink:title="This file defines an interface for a memory&#45;mapped peripheral.">
<polygon fill="white" stroke="#666666" points="189.5,-140 102.5,-140 102.5,-121 189.5,-121 189.5,-140"/>
<text text-anchor="middle" x="146" y="-128" font-family="Helvetica,sans-Serif" font-size="10.00">peripheral.hpp</text>
</a>
</g>
</g>
<!-- Node6&#45;&gt;Node7 -->
<g id="edge6_Node000006_Node000007" class="edge">
<title>Node6&#45;&gt;Node7</title>
<g id="a_edge6_Node000006_Node000007"><a xlink:title=" ">
<path fill="none" stroke="#63b8ff" d="M229.65,-175.99C211.95,-166.58 188.77,-154.24 171.29,-144.95"/>
<polygon fill="#63b8ff" stroke="#63b8ff" points="172.72,-141.74 162.24,-140.14 169.43,-147.92 172.72,-141.74"/>
</a>
</g>
</g>
<!-- Node8 -->
<g id="Node000008" class="node">
<title>Node8</title>
<g id="a_Node000008"><a xlink:href="context_8hpp.html" target="_top" xlink:title="This file defines the context (registers) of the CPU.">
<polygon fill="white" stroke="#666666" points="360,-140 208,-140 208,-121 360,-121 360,-140"/>
<text text-anchor="middle" x="284" y="-128" font-family="Helvetica,sans-Serif" font-size="10.00">../arm1176jzf_s/context.hpp</text>
</a>
</g>
</g>
<!-- Node6&#45;&gt;Node8 -->
<g id="edge7_Node000006_Node000008" class="edge">
<title>Node6&#45;&gt;Node8</title>
<g id="a_edge7_Node000006_Node000008"><a xlink:title=" ">
<path fill="none" stroke="#63b8ff" d="M262.78,-175.84C266.59,-167.87 271.39,-157.84 275.46,-149.33"/>
<polygon fill="#63b8ff" stroke="#63b8ff" points="278.64,-150.8 279.8,-140.27 272.33,-147.77 278.64,-150.8"/>
</a>
</g>
</g>
<!-- Node9 -->
<g id="Node000009" class="node">
<title>Node9</title>
<g id="a_Node000009"><a xlink:href="logging__system_8hpp.html" target="_top" xlink:title="This file defines a logging system that is used in the project.">
<polygon fill="white" stroke="#666666" points="401.5,-85 270.5,-85 270.5,-55 401.5,-55 401.5,-85"/>
<text text-anchor="start" x="278.5" y="-73" font-family="Helvetica,sans-Serif" font-size="10.00">zero_mate/utils/logging</text>
<text text-anchor="middle" x="336" y="-62" font-family="Helvetica,sans-Serif" font-size="10.00">_system.hpp</text>
</a>
</g>
</g>
<!-- Node6&#45;&gt;Node9 -->
<g id="edge10_Node000006_Node000009" class="edge">
<title>Node6&#45;&gt;Node9</title>
<g id="a_edge10_Node000006_Node000009"><a xlink:title=" ">
<path fill="none" stroke="#63b8ff" d="M320.37,-175.93C339.26,-168.49 357.82,-157.17 369,-140 378.75,-125.02 369.13,-106.72 357.81,-92.73"/>
<polygon fill="#63b8ff" stroke="#63b8ff" points="360.3,-90.27 351.08,-85.05 355.04,-94.88 360.3,-90.27"/>
</a>
</g>
</g>
<!-- Node8&#45;&gt;Node9 -->
<g id="edge8_Node000008_Node000009" class="edge">
<title>Node8&#45;&gt;Node9</title>
<g id="a_edge8_Node000008_Node000009"><a xlink:title=" ">
<path fill="none" stroke="#63b8ff" d="M291.67,-120.87C298.27,-113.44 308.07,-102.42 316.78,-92.62"/>
<polygon fill="#63b8ff" stroke="#63b8ff" points="319.43,-94.91 323.45,-85.11 314.19,-90.26 319.43,-94.91"/>
</a>
</g>
</g>
<!-- Node10 -->
<g id="Node000010" class="node">
<title>Node10</title>
<g id="a_Node000010"><a xlink:href="logger_8hpp.html" target="_top" xlink:title="This file defines a general logger interface.">
<polygon fill="white" stroke="#666666" points="370,-19 302,-19 302,0 370,0 370,-19"/>
<text text-anchor="middle" x="336" y="-7" font-family="Helvetica,sans-Serif" font-size="10.00">logger.hpp</text>
</a>
</g>
</g>
<!-- Node9&#45;&gt;Node10 -->
<g id="edge9_Node000009_Node000010" class="edge">
<title>Node9&#45;&gt;Node10</title>
<g id="a_edge9_Node000009_Node000010"><a xlink:title=" ">
<path fill="none" stroke="#63b8ff" d="M336,-54.84C336,-47.21 336,-37.7 336,-29.45"/>
<polygon fill="#63b8ff" stroke="#63b8ff" points="339.5,-29.27 336,-19.27 332.5,-29.27 339.5,-29.27"/>
</a>
</g>
</g>
</g>
</svg>
