<?xml version="1.0" encoding="UTF-8" standalone="no"?>
<!DOCTYPE svg PUBLIC "-//W3C//DTD SVG 1.1//EN"
 "http://www.w3.org/Graphics/SVG/1.1/DTD/svg11.dtd">
<!-- Generated by graphviz version 2.43.0 (0)
 -->
<!-- Title: src/core/peripherals/interrupt_controller.hpp Pages: 1 -->
<svg width="2247pt" height="302pt"
 viewBox="0.00 0.00 2247.00 302.00" xmlns="http://www.w3.org/2000/svg" xmlns:xlink="http://www.w3.org/1999/xlink">
<g id="graph0" class="graph" transform="scale(1 1) rotate(0) translate(4 298)">
<title>src/core/peripherals/interrupt_controller.hpp</title>
<!-- Node1 -->
<g id="Node000001" class="node">
<title>Node1</title>
<g id="a_Node000001"><a xlink:title="This file defines the interrupt controller used in BCM2835.">
<polygon fill="#999999" stroke="#666666" points="1814,-294 1680,-294 1680,-264 1814,-264 1814,-294"/>
<text text-anchor="start" x="1688" y="-282" font-family="Helvetica,sans-Serif" font-size="10.00">src/core/peripherals</text>
<text text-anchor="middle" x="1747" y="-271" font-family="Helvetica,sans-Serif" font-size="10.00">/interrupt_controller.hpp</text>
</a>
</g>
</g>
<!-- Node2 -->
<g id="Node000002" class="node">
<title>Node2</title>
<g id="a_Node000002"><a xlink:href="core_8hpp.html" target="_top" xlink:title="This file defines a class that represents a CPU core (arm1176jzf_s).">
<polygon fill="white" stroke="#666666" points="668.5,-162 555.5,-162 555.5,-132 668.5,-132 668.5,-162"/>
<text text-anchor="start" x="563.5" y="-150" font-family="Helvetica,sans-Serif" font-size="10.00">src/core/arm1176jzf</text>
<text text-anchor="middle" x="612" y="-139" font-family="Helvetica,sans-Serif" font-size="10.00">_s/core.hpp</text>
</a>
</g>
</g>
<!-- Node1&#45;&gt;Node2 -->
<g id="edge1_Node000001_Node000002" class="edge">
<title>Node1&#45;&gt;Node2</title>
<g id="a_edge1_Node000001_Node000002"><a xlink:title=" ">
<path fill="none" stroke="#63b8ff" d="M1669.59,-269.13C1454.96,-244.55 855.85,-175.93 668.64,-154.49"/>
<polygon fill="#63b8ff" stroke="#63b8ff" points="1669.49,-272.64 1679.82,-270.31 1670.28,-265.69 1669.49,-272.64"/>
</a>
</g>
</g>
<!-- Node6 -->
<g id="Node000006" class="node">
<title>Node6</title>
<g id="a_Node000006"><a xlink:href="soc_8hpp.html" target="_top" xlink:title=" ">
<polygon fill="white" stroke="#666666" points="1937.5,-90.5 1842.5,-90.5 1842.5,-71.5 1937.5,-71.5 1937.5,-90.5"/>
<text text-anchor="middle" x="1890" y="-78.5" font-family="Helvetica,sans-Serif" font-size="10.00">src/core/soc.hpp</text>
</a>
</g>
</g>
<!-- Node1&#45;&gt;Node6 -->
<g id="edge45_Node000001_Node000006" class="edge">
<title>Node1&#45;&gt;Node6</title>
<g id="a_edge45_Node000001_Node000006"><a xlink:title=" ">
<path fill="none" stroke="#63b8ff" d="M1792.29,-259.64C1829.84,-241.39 1879.62,-209.26 1896,-162 1904.58,-137.26 1897.32,-105.71 1892.86,-90.7"/>
<polygon fill="#63b8ff" stroke="#63b8ff" points="1790.6,-256.56 1783.04,-263.98 1793.58,-262.9 1790.6,-256.56"/>
</a>
</g>
</g>
<!-- Node18 -->
<g id="Node000018" class="node">
<title>Node18</title>
<g id="a_Node000018"><a xlink:href="arm__timer_8hpp.html" target="_top" xlink:title="This file defines the ARM timer used in BCM2835.">
<polygon fill="white" stroke="#666666" points="2062.5,-162 1949.5,-162 1949.5,-132 2062.5,-132 2062.5,-162"/>
<text text-anchor="start" x="1957.5" y="-150" font-family="Helvetica,sans-Serif" font-size="10.00">src/core/peripherals</text>
<text text-anchor="middle" x="2006" y="-139" font-family="Helvetica,sans-Serif" font-size="10.00">/arm_timer.hpp</text>
</a>
</g>
</g>
<!-- Node1&#45;&gt;Node18 -->
<g id="edge21_Node000001_Node000018" class="edge">
<title>Node1&#45;&gt;Node18</title>
<g id="a_edge21_Node000001_Node000018"><a xlink:title=" ">
<path fill="none" stroke="#63b8ff" d="M1824.25,-266.31C1858.08,-258.85 1897.21,-246.9 1929,-228 1957.83,-210.86 1983.04,-180.06 1996.24,-162.09"/>
<polygon fill="#63b8ff" stroke="#63b8ff" points="1823.47,-262.9 1814.41,-268.39 1824.91,-269.75 1823.47,-262.9"/>
</a>
</g>
</g>
<!-- Node22 -->
<g id="Node000022" class="node">
<title>Node22</title>
<g id="a_Node000022"><a xlink:href="auxiliary_8hpp.html" target="_top" xlink:title=" ">
<polygon fill="white" stroke="#666666" points="1353,-162 1225,-162 1225,-132 1353,-132 1353,-162"/>
<text text-anchor="start" x="1233" y="-150" font-family="Helvetica,sans-Serif" font-size="10.00">src/core/peripherals</text>
<text text-anchor="middle" x="1289" y="-139" font-family="Helvetica,sans-Serif" font-size="10.00">/auxiliary/auxiliary.hpp</text>
</a>
</g>
</g>
<!-- Node1&#45;&gt;Node22 -->
<g id="edge27_Node000001_Node000022" class="edge">
<title>Node1&#45;&gt;Node22</title>
<g id="a_edge27_Node000001_Node000022"><a xlink:title=" ">
<path fill="none" stroke="#63b8ff" d="M1669.51,-275.51C1600.51,-271.18 1497.81,-259.47 1414,-228 1371.79,-212.15 1328.88,-180.59 1305.95,-162.2"/>
<polygon fill="#63b8ff" stroke="#63b8ff" points="1669.68,-279.03 1679.87,-276.12 1670.09,-272.04 1669.68,-279.03"/>
</a>
</g>
</g>
<!-- Node27 -->
<g id="Node000027" class="node">
<title>Node27</title>
<g id="a_Node000027"><a xlink:href="gpio_8hpp.html" target="_top" xlink:title="This file defines the GPIO controller used in BCM2835.">
<polygon fill="white" stroke="#666666" points="1536.5,-228 1423.5,-228 1423.5,-198 1536.5,-198 1536.5,-228"/>
<text text-anchor="start" x="1431.5" y="-216" font-family="Helvetica,sans-Serif" font-size="10.00">src/core/peripherals</text>
<text text-anchor="middle" x="1480" y="-205" font-family="Helvetica,sans-Serif" font-size="10.00">/gpio.hpp</text>
</a>
</g>
</g>
<!-- Node1&#45;&gt;Node27 -->
<g id="edge34_Node000001_Node000027" class="edge">
<title>Node1&#45;&gt;Node27</title>
<g id="a_edge34_Node000001_Node000027"><a xlink:title=" ">
<path fill="none" stroke="#63b8ff" d="M1678.65,-261.62C1634.64,-251.07 1578.12,-237.52 1536.63,-227.57"/>
<polygon fill="#63b8ff" stroke="#63b8ff" points="1677.87,-265.03 1688.41,-263.95 1679.5,-258.22 1677.87,-265.03"/>
</a>
</g>
</g>
<!-- Node33 -->
<g id="Node000033" class="node">
<title>Node33</title>
<g id="a_Node000033"><a xlink:href="interrupt__controller_8cpp.html" target="_top" xlink:title="This file implements the interrupt controller used in BCM2835 (defined in interrupt_controller....">
<polygon fill="white" stroke="#666666" points="2114.5,-228 1981.5,-228 1981.5,-198 2114.5,-198 2114.5,-228"/>
<text text-anchor="start" x="1989.5" y="-216" font-family="Helvetica,sans-Serif" font-size="10.00">src/core/peripherals</text>
<text text-anchor="middle" x="2048" y="-205" font-family="Helvetica,sans-Serif" font-size="10.00">/interrupt_controller.cpp</text>
</a>
</g>
</g>
<!-- Node1&#45;&gt;Node33 -->
<g id="edge44_Node000001_Node000033" class="edge">
<title>Node1&#45;&gt;Node33</title>
<g id="a_edge44_Node000001_Node000033"><a xlink:title=" ">
<path fill="none" stroke="#63b8ff" d="M1822.98,-261.84C1872.02,-251.42 1935.18,-237.99 1982.1,-228.01"/>
<polygon fill="#63b8ff" stroke="#63b8ff" points="1822.11,-258.45 1813.06,-263.95 1823.57,-265.3 1822.11,-258.45"/>
</a>
</g>
</g>
<!-- Node34 -->
<g id="Node000034" class="node">
<title>Node34</title>
<g id="a_Node000034"><a xlink:href="interrupt__controller__window_8hpp.html" target="_top" xlink:title="This file defines a window that visualizes the interrupt controller IC.">
<polygon fill="white" stroke="#666666" points="1835,-228 1659,-228 1659,-198 1835,-198 1835,-228"/>
<text text-anchor="start" x="1667" y="-216" font-family="Helvetica,sans-Serif" font-size="10.00">src/gui/windows/peripherals</text>
<text text-anchor="middle" x="1747" y="-205" font-family="Helvetica,sans-Serif" font-size="10.00">/interrupt_controller_window.hpp</text>
</a>
</g>
</g>
<!-- Node1&#45;&gt;Node34 -->
<g id="edge46_Node000001_Node000034" class="edge">
<title>Node1&#45;&gt;Node34</title>
<g id="a_edge46_Node000001_Node000034"><a xlink:title=" ">
<path fill="none" stroke="#63b8ff" d="M1747,-253.54C1747,-244.96 1747,-235.61 1747,-228.16"/>
<polygon fill="#63b8ff" stroke="#63b8ff" points="1743.5,-253.8 1747,-263.8 1750.5,-253.8 1743.5,-253.8"/>
</a>
</g>
</g>
<!-- Node3 -->
<g id="Node000003" class="node">
<title>Node3</title>
<g id="a_Node000003"><a xlink:href="core_8cpp.html" target="_top" xlink:title="This file implements the CCPU_Core class defined in core.hpp.">
<polygon fill="white" stroke="#666666" points="392.5,-96 279.5,-96 279.5,-66 392.5,-66 392.5,-96"/>
<text text-anchor="start" x="287.5" y="-84" font-family="Helvetica,sans-Serif" font-size="10.00">src/core/arm1176jzf</text>
<text text-anchor="middle" x="336" y="-73" font-family="Helvetica,sans-Serif" font-size="10.00">_s/core.cpp</text>
</a>
</g>
</g>
<!-- Node2&#45;&gt;Node3 -->
<g id="edge2_Node000002_Node000003" class="edge">
<title>Node2&#45;&gt;Node3</title>
<g id="a_edge2_Node000002_Node000003"><a xlink:title=" ">
<path fill="none" stroke="#63b8ff" d="M545.48,-130.57C498.87,-119.77 437.25,-105.48 392.92,-95.2"/>
<polygon fill="#63b8ff" stroke="#63b8ff" points="544.95,-134.04 555.48,-132.89 546.53,-127.23 544.95,-134.04"/>
</a>
</g>
</g>
<!-- Node4 -->
<g id="Node000004" class="node">
<title>Node4</title>
<g id="a_Node000004"><a xlink:href="coprocessor_8cpp.html" target="_top" xlink:title="This file implements the common functionality of a general interface of a coprocessor.">
<polygon fill="white" stroke="#666666" points="533,-96 411,-96 411,-66 533,-66 533,-96"/>
<text text-anchor="start" x="419" y="-84" font-family="Helvetica,sans-Serif" font-size="10.00">src/core/coprocessors</text>
<text text-anchor="middle" x="472" y="-73" font-family="Helvetica,sans-Serif" font-size="10.00">/coprocessor.cpp</text>
</a>
</g>
</g>
<!-- Node2&#45;&gt;Node4 -->
<g id="edge3_Node000002_Node000004" class="edge">
<title>Node2&#45;&gt;Node4</title>
<g id="a_edge3_Node000002_Node000004"><a xlink:title=" ">
<path fill="none" stroke="#63b8ff" d="M572.15,-127.78C550.08,-117.69 523.06,-105.34 502.65,-96.01"/>
<polygon fill="#63b8ff" stroke="#63b8ff" points="570.73,-130.98 581.28,-131.95 573.64,-124.61 570.73,-130.98"/>
</a>
</g>
</g>
<!-- Node5 -->
<g id="Node000005" class="node">
<title>Node5</title>
<g id="a_Node000005"><a xlink:href="cp10_8cpp.html" target="_top" xlink:title="This file implements coprocessor CP10 (single&#45;precision FPU).">
<polygon fill="white" stroke="#666666" points="673,-96 551,-96 551,-66 673,-66 673,-96"/>
<text text-anchor="start" x="559" y="-84" font-family="Helvetica,sans-Serif" font-size="10.00">src/core/coprocessors</text>
<text text-anchor="middle" x="612" y="-73" font-family="Helvetica,sans-Serif" font-size="10.00">/cp10/cp10.cpp</text>
</a>
</g>
</g>
<!-- Node2&#45;&gt;Node5 -->
<g id="edge4_Node000002_Node000005" class="edge">
<title>Node2&#45;&gt;Node5</title>
<g id="a_edge4_Node000002_Node000005"><a xlink:title=" ">
<path fill="none" stroke="#63b8ff" d="M612,-121.54C612,-112.96 612,-103.61 612,-96.16"/>
<polygon fill="#63b8ff" stroke="#63b8ff" points="608.5,-121.8 612,-131.8 615.5,-121.8 608.5,-121.8"/>
</a>
</g>
</g>
<!-- Node2&#45;&gt;Node6 -->
<g id="edge5_Node000002_Node000006" class="edge">
<title>Node2&#45;&gt;Node6</title>
<g id="a_edge5_Node000002_Node000006"><a xlink:title=" ">
<path fill="none" stroke="#63b8ff" d="M678.86,-143.63C925.85,-134.84 1775.6,-104.14 1833,-96 1841.88,-94.74 1851.39,-92.69 1860.05,-90.55"/>
<polygon fill="#63b8ff" stroke="#63b8ff" points="678.46,-140.14 668.59,-144 678.71,-147.14 678.46,-140.14"/>
</a>
</g>
</g>
<!-- Node10 -->
<g id="Node000010" class="node">
<title>Node10</title>
<g id="a_Node000010"><a xlink:href="control__window_8hpp.html" target="_top" xlink:title="This file defines a window that allows the user to control CPU execution.">
<polygon fill="white" stroke="#666666" points="822.5,-96 691.5,-96 691.5,-66 822.5,-66 822.5,-96"/>
<text text-anchor="start" x="699.5" y="-84" font-family="Helvetica,sans-Serif" font-size="10.00">src/gui/windows/control</text>
<text text-anchor="middle" x="757" y="-73" font-family="Helvetica,sans-Serif" font-size="10.00">_window.hpp</text>
</a>
</g>
</g>
<!-- Node2&#45;&gt;Node10 -->
<g id="edge9_Node000002_Node000010" class="edge">
<title>Node2&#45;&gt;Node10</title>
<g id="a_edge9_Node000002_Node000010"><a xlink:title=" ">
<path fill="none" stroke="#63b8ff" d="M653.27,-127.78C676.13,-117.69 704.12,-105.34 725.25,-96.01"/>
<polygon fill="#63b8ff" stroke="#63b8ff" points="651.56,-124.71 643.82,-131.95 654.38,-131.12 651.56,-124.71"/>
</a>
</g>
</g>
<!-- Node12 -->
<g id="Node000012" class="node">
<title>Node12</title>
<g id="a_Node000012"><a xlink:href="registers__window_8hpp.html" target="_top" xlink:title="This file defines a window that displays the contents of all CPU registers.">
<polygon fill="white" stroke="#666666" points="981,-96 841,-96 841,-66 981,-66 981,-96"/>
<text text-anchor="start" x="849" y="-84" font-family="Helvetica,sans-Serif" font-size="10.00">src/gui/windows/registers</text>
<text text-anchor="middle" x="911" y="-73" font-family="Helvetica,sans-Serif" font-size="10.00">_window.hpp</text>
</a>
</g>
</g>
<!-- Node2&#45;&gt;Node12 -->
<g id="edge12_Node000002_Node000012" class="edge">
<title>Node2&#45;&gt;Node12</title>
<g id="a_edge12_Node000002_Node000012"><a xlink:title=" ">
<path fill="none" stroke="#63b8ff" d="M678.61,-131.74C728.37,-121.09 796.05,-106.61 845.53,-96.01"/>
<polygon fill="#63b8ff" stroke="#63b8ff" points="677.64,-128.37 668.59,-133.89 679.1,-135.22 677.64,-128.37"/>
</a>
</g>
</g>
<!-- Node14 -->
<g id="Node000014" class="node">
<title>Node14</title>
<g id="a_Node000014"><a xlink:href="source__code__window_8hpp.html" target="_top" xlink:title="This file defines a window that displays loaded ELF files (disassembled instructions of the source co...">
<polygon fill="white" stroke="#666666" points="130,-96 0,-96 0,-66 130,-66 130,-96"/>
<text text-anchor="start" x="8" y="-84" font-family="Helvetica,sans-Serif" font-size="10.00">src/gui/windows/source</text>
<text text-anchor="middle" x="65" y="-73" font-family="Helvetica,sans-Serif" font-size="10.00">_code_window.hpp</text>
</a>
</g>
</g>
<!-- Node2&#45;&gt;Node14 -->
<g id="edge15_Node000002_Node000014" class="edge">
<title>Node2&#45;&gt;Node14</title>
<g id="a_edge15_Node000002_Node000014"><a xlink:title=" ">
<path fill="none" stroke="#63b8ff" d="M545.4,-140.69C453.64,-132.97 283.3,-117.24 139,-96 136.15,-95.58 133.25,-95.13 130.32,-94.66"/>
<polygon fill="#63b8ff" stroke="#63b8ff" points="545.13,-144.18 555.38,-141.52 545.71,-137.2 545.13,-144.18"/>
</a>
</g>
</g>
<!-- Node16 -->
<g id="Node000016" class="node">
<title>Node16</title>
<g id="a_Node000016"><a xlink:href="top__bar__menu_8hpp.html" target="_top" xlink:title=" ">
<polygon fill="white" stroke="#666666" points="261.5,-96 148.5,-96 148.5,-66 261.5,-66 261.5,-96"/>
<text text-anchor="start" x="156.5" y="-84" font-family="Helvetica,sans-Serif" font-size="10.00">src/gui/windows/top</text>
<text text-anchor="middle" x="205" y="-73" font-family="Helvetica,sans-Serif" font-size="10.00">_bar_menu.hpp</text>
</a>
</g>
</g>
<!-- Node2&#45;&gt;Node16 -->
<g id="edge18_Node000002_Node000016" class="edge">
<title>Node2&#45;&gt;Node16</title>
<g id="a_edge18_Node000002_Node000016"><a xlink:title=" ">
<path fill="none" stroke="#63b8ff" d="M544.92,-137.54C475.81,-128.52 365.06,-113.17 270,-96 267.27,-95.51 264.49,-94.98 261.68,-94.44"/>
<polygon fill="#63b8ff" stroke="#63b8ff" points="544.86,-141.07 555.23,-138.88 545.76,-134.12 544.86,-141.07"/>
</a>
</g>
</g>
<!-- Node7 -->
<g id="Node000007" class="node">
<title>Node7</title>
<g id="a_Node000007"><a xlink:href="soc_8cpp.html" target="_top" xlink:title=" ">
<polygon fill="white" stroke="#666666" points="1989.5,-24.5 1894.5,-24.5 1894.5,-5.5 1989.5,-5.5 1989.5,-24.5"/>
<text text-anchor="middle" x="1942" y="-12.5" font-family="Helvetica,sans-Serif" font-size="10.00">src/core/soc.cpp</text>
</a>
</g>
</g>
<!-- Node6&#45;&gt;Node7 -->
<g id="edge6_Node000006_Node000007" class="edge">
<title>Node6&#45;&gt;Node7</title>
<g id="a_edge6_Node000006_Node000007"><a xlink:title=" ">
<path fill="none" stroke="#63b8ff" d="M1903.6,-63.27C1913.57,-50.99 1926.73,-34.8 1934.76,-24.91"/>
<polygon fill="#63b8ff" stroke="#63b8ff" points="1900.6,-61.4 1897.01,-71.37 1906.04,-65.81 1900.6,-61.4"/>
</a>
</g>
</g>
<!-- Node8 -->
<g id="Node000008" class="node">
<title>Node8</title>
<g id="a_Node000008"><a xlink:href="gui_8cpp.html" target="_top" xlink:title="This file implements the main GUI entry function that takes care of creating and rendering all window...">
<polygon fill="white" stroke="#666666" points="1086.5,-24.5 999.5,-24.5 999.5,-5.5 1086.5,-5.5 1086.5,-24.5"/>
<text text-anchor="middle" x="1043" y="-12.5" font-family="Helvetica,sans-Serif" font-size="10.00">src/gui/gui.cpp</text>
</a>
</g>
</g>
<!-- Node6&#45;&gt;Node8 -->
<g id="edge7_Node000006_Node000008" class="edge">
<title>Node6&#45;&gt;Node8</title>
<g id="a_edge7_Node000006_Node000008"><a xlink:title=" ">
<path fill="none" stroke="#63b8ff" d="M1849.62,-69.15C1844.07,-67.93 1838.41,-66.83 1833,-66 1550.79,-22.76 1206.35,-16.77 1086.54,-16.05"/>
<polygon fill="#63b8ff" stroke="#63b8ff" points="1848.9,-72.57 1859.44,-71.43 1850.49,-65.75 1848.9,-72.57"/>
</a>
</g>
</g>
<!-- Node9 -->
<g id="Node000009" class="node">
<title>Node9</title>
<g id="a_Node000009"><a xlink:href="main_8cpp.html" target="_top" xlink:title="This file defines and implements the main function of the application.">
<polygon fill="white" stroke="#666666" points="1876.5,-24.5 1797.5,-24.5 1797.5,-5.5 1876.5,-5.5 1876.5,-24.5"/>
<text text-anchor="middle" x="1837" y="-12.5" font-family="Helvetica,sans-Serif" font-size="10.00">src/main.cpp</text>
</a>
</g>
</g>
<!-- Node6&#45;&gt;Node9 -->
<g id="edge8_Node000006_Node000009" class="edge">
<title>Node6&#45;&gt;Node9</title>
<g id="a_edge8_Node000006_Node000009"><a xlink:title=" ">
<path fill="none" stroke="#63b8ff" d="M1876.44,-63.62C1866.24,-51.31 1852.65,-34.89 1844.37,-24.91"/>
<polygon fill="#63b8ff" stroke="#63b8ff" points="1873.78,-65.9 1882.85,-71.37 1879.17,-61.43 1873.78,-65.9"/>
</a>
</g>
</g>
<!-- Node10&#45;&gt;Node8 -->
<g id="edge10_Node000010_Node000008" class="edge">
<title>Node10&#45;&gt;Node8</title>
<g id="a_edge10_Node000010_Node000008"><a xlink:title=" ">
<path fill="none" stroke="#63b8ff" d="M832.55,-64.72C878.25,-55.25 937.61,-42.53 990,-30 997.03,-28.32 1004.56,-26.4 1011.67,-24.54"/>
<polygon fill="#63b8ff" stroke="#63b8ff" points="831.8,-61.3 822.72,-66.75 833.22,-68.16 831.8,-61.3"/>
</a>
</g>
</g>
<!-- Node11 -->
<g id="Node000011" class="node">
<title>Node11</title>
<g id="a_Node000011"><a xlink:href="control__window_8cpp.html" target="_top" xlink:title="This file implements a window that allows the user to control CPU execution.">
<polygon fill="white" stroke="#666666" points="822.5,-30 691.5,-30 691.5,0 822.5,0 822.5,-30"/>
<text text-anchor="start" x="699.5" y="-18" font-family="Helvetica,sans-Serif" font-size="10.00">src/gui/windows/control</text>
<text text-anchor="middle" x="757" y="-7" font-family="Helvetica,sans-Serif" font-size="10.00">_window.cpp</text>
</a>
</g>
</g>
<!-- Node10&#45;&gt;Node11 -->
<g id="edge11_Node000010_Node000011" class="edge">
<title>Node10&#45;&gt;Node11</title>
<g id="a_edge11_Node000010_Node000011"><a xlink:title=" ">
<path fill="none" stroke="#63b8ff" d="M757,-55.54C757,-46.96 757,-37.61 757,-30.16"/>
<polygon fill="#63b8ff" stroke="#63b8ff" points="753.5,-55.8 757,-65.8 760.5,-55.8 753.5,-55.8"/>
</a>
</g>
</g>
<!-- Node12&#45;&gt;Node8 -->
<g id="edge13_Node000012_Node000008" class="edge">
<title>Node12&#45;&gt;Node8</title>
<g id="a_edge13_Node000012_Node000008"><a xlink:title=" ">
<path fill="none" stroke="#63b8ff" d="M949.24,-61.46C974.38,-49.27 1006.08,-33.9 1025.43,-24.52"/>
<polygon fill="#63b8ff" stroke="#63b8ff" points="947.44,-58.44 939.97,-65.95 950.49,-64.74 947.44,-58.44"/>
</a>
</g>
</g>
<!-- Node13 -->
<g id="Node000013" class="node">
<title>Node13</title>
<g id="a_Node000013"><a xlink:href="registers__window_8cpp.html" target="_top" xlink:title="This file implements a window that displays the contents of all CPU registers.">
<polygon fill="white" stroke="#666666" points="981,-30 841,-30 841,0 981,0 981,-30"/>
<text text-anchor="start" x="849" y="-18" font-family="Helvetica,sans-Serif" font-size="10.00">src/gui/windows/registers</text>
<text text-anchor="middle" x="911" y="-7" font-family="Helvetica,sans-Serif" font-size="10.00">_window.cpp</text>
</a>
</g>
</g>
<!-- Node12&#45;&gt;Node13 -->
<g id="edge14_Node000012_Node000013" class="edge">
<title>Node12&#45;&gt;Node13</title>
<g id="a_edge14_Node000012_Node000013"><a xlink:title=" ">
<path fill="none" stroke="#63b8ff" d="M911,-55.54C911,-46.96 911,-37.61 911,-30.16"/>
<polygon fill="#63b8ff" stroke="#63b8ff" points="907.5,-55.8 911,-65.8 914.5,-55.8 907.5,-55.8"/>
</a>
</g>
</g>
<!-- Node14&#45;&gt;Node8 -->
<g id="edge16_Node000014_Node000008" class="edge">
<title>Node14&#45;&gt;Node8</title>
<g id="a_edge16_Node000014_Node000008"><a xlink:title=" ">
<path fill="none" stroke="#63b8ff" d="M140.37,-65.97C516.87,-23.82 619,-86.17 990,-30 998.28,-28.75 1007.13,-26.7 1015.18,-24.55"/>
<polygon fill="#63b8ff" stroke="#63b8ff" points="139.83,-62.51 130.29,-67.12 140.62,-69.46 139.83,-62.51"/>
</a>
</g>
</g>
<!-- Node15 -->
<g id="Node000015" class="node">
<title>Node15</title>
<g id="a_Node000015"><a xlink:href="source__code__window_8cpp.html" target="_top" xlink:title="This file implements a window that displays loaded ELF files (disassembled instructions of the source...">
<polygon fill="white" stroke="#666666" points="130,-30 0,-30 0,0 130,0 130,-30"/>
<text text-anchor="start" x="8" y="-18" font-family="Helvetica,sans-Serif" font-size="10.00">src/gui/windows/source</text>
<text text-anchor="middle" x="65" y="-7" font-family="Helvetica,sans-Serif" font-size="10.00">_code_window.cpp</text>
</a>
</g>
</g>
<!-- Node14&#45;&gt;Node15 -->
<g id="edge17_Node000014_Node000015" class="edge">
<title>Node14&#45;&gt;Node15</title>
<g id="a_edge17_Node000014_Node000015"><a xlink:title=" ">
<path fill="none" stroke="#63b8ff" d="M65,-55.54C65,-46.96 65,-37.61 65,-30.16"/>
<polygon fill="#63b8ff" stroke="#63b8ff" points="61.5,-55.8 65,-65.8 68.5,-55.8 61.5,-55.8"/>
</a>
</g>
</g>
<!-- Node16&#45;&gt;Node8 -->
<g id="edge19_Node000016_Node000008" class="edge">
<title>Node16&#45;&gt;Node8</title>
<g id="a_edge19_Node000016_Node000008"><a xlink:title=" ">
<path fill="none" stroke="#63b8ff" d="M271.58,-65.94C589.44,-25.25 676.64,-78.68 990,-30 998.28,-28.71 1007.12,-26.66 1015.17,-24.51"/>
<polygon fill="#63b8ff" stroke="#63b8ff" points="271.09,-62.48 261.63,-67.24 271.99,-69.42 271.09,-62.48"/>
</a>
</g>
</g>
<!-- Node17 -->
<g id="Node000017" class="node">
<title>Node17</title>
<g id="a_Node000017"><a xlink:href="top__bar__menu_8cpp.html" target="_top" xlink:title=" ">
<polygon fill="white" stroke="#666666" points="261.5,-30 148.5,-30 148.5,0 261.5,0 261.5,-30"/>
<text text-anchor="start" x="156.5" y="-18" font-family="Helvetica,sans-Serif" font-size="10.00">src/gui/windows/top</text>
<text text-anchor="middle" x="205" y="-7" font-family="Helvetica,sans-Serif" font-size="10.00">_bar_menu.cpp</text>
</a>
</g>
</g>
<!-- Node16&#45;&gt;Node17 -->
<g id="edge20_Node000016_Node000017" class="edge">
<title>Node16&#45;&gt;Node17</title>
<g id="a_edge20_Node000016_Node000017"><a xlink:title=" ">
<path fill="none" stroke="#63b8ff" d="M205,-55.54C205,-46.96 205,-37.61 205,-30.16"/>
<polygon fill="#63b8ff" stroke="#63b8ff" points="201.5,-55.8 205,-65.8 208.5,-55.8 201.5,-55.8"/>
</a>
</g>
</g>
<!-- Node18&#45;&gt;Node6 -->
<g id="edge23_Node000018_Node000006" class="edge">
<title>Node18&#45;&gt;Node6</title>
<g id="a_edge23_Node000018_Node000006"><a xlink:title=" ">
<path fill="none" stroke="#63b8ff" d="M1971.52,-126.97C1949.57,-114.87 1922.22,-99.78 1905.44,-90.52"/>
<polygon fill="#63b8ff" stroke="#63b8ff" points="1970.1,-130.19 1980.54,-131.95 1973.48,-124.06 1970.1,-130.19"/>
</a>
</g>
</g>
<!-- Node19 -->
<g id="Node000019" class="node">
<title>Node19</title>
<g id="a_Node000019"><a xlink:href="arm__timer_8cpp.html" target="_top" xlink:title="This file implements the ARM timer used in BCM2835 as defined in arm_timer.hpp.">
<polygon fill="white" stroke="#666666" points="2068.5,-96 1955.5,-96 1955.5,-66 2068.5,-66 2068.5,-96"/>
<text text-anchor="start" x="1963.5" y="-84" font-family="Helvetica,sans-Serif" font-size="10.00">src/core/peripherals</text>
<text text-anchor="middle" x="2012" y="-73" font-family="Helvetica,sans-Serif" font-size="10.00">/arm_timer.cpp</text>
</a>
</g>
</g>
<!-- Node18&#45;&gt;Node19 -->
<g id="edge22_Node000018_Node000019" class="edge">
<title>Node18&#45;&gt;Node19</title>
<g id="a_edge22_Node000018_Node000019"><a xlink:title=" ">
<path fill="none" stroke="#63b8ff" d="M2008.27,-121.83C2009.08,-113.17 2009.97,-103.7 2010.67,-96.16"/>
<polygon fill="#63b8ff" stroke="#63b8ff" points="2004.78,-121.51 2007.33,-131.8 2011.75,-122.17 2004.78,-121.51"/>
</a>
</g>
</g>
<!-- Node20 -->
<g id="Node000020" class="node">
<title>Node20</title>
<g id="a_Node000020"><a xlink:href="arm__timer__window_8hpp.html" target="_top" xlink:title="This file defines a window that visualizes the contents of the ARM timer registers.">
<polygon fill="white" stroke="#666666" points="2239,-96 2087,-96 2087,-66 2239,-66 2239,-96"/>
<text text-anchor="start" x="2095" y="-84" font-family="Helvetica,sans-Serif" font-size="10.00">src/gui/windows/peripherals</text>
<text text-anchor="middle" x="2163" y="-73" font-family="Helvetica,sans-Serif" font-size="10.00">/arm_timer_window.hpp</text>
</a>
</g>
</g>
<!-- Node18&#45;&gt;Node20 -->
<g id="edge24_Node000018_Node000020" class="edge">
<title>Node18&#45;&gt;Node20</title>
<g id="a_edge24_Node000018_Node000020"><a xlink:title=" ">
<path fill="none" stroke="#63b8ff" d="M2050.02,-128.05C2074.9,-117.91 2105.53,-105.43 2128.63,-96.01"/>
<polygon fill="#63b8ff" stroke="#63b8ff" points="2048.39,-124.94 2040.45,-131.95 2051.04,-131.42 2048.39,-124.94"/>
</a>
</g>
</g>
<!-- Node20&#45;&gt;Node8 -->
<g id="edge25_Node000020_Node000008" class="edge">
<title>Node20&#45;&gt;Node8</title>
<g id="a_edge25_Node000020_Node000008"><a xlink:title=" ">
<path fill="none" stroke="#63b8ff" d="M2076.65,-66.09C1860.92,-44.61 1254.69,-23.14 1086.64,-17.45"/>
<polygon fill="#63b8ff" stroke="#63b8ff" points="2076.32,-69.57 2086.63,-67.11 2077.04,-62.61 2076.32,-69.57"/>
</a>
</g>
</g>
<!-- Node21 -->
<g id="Node000021" class="node">
<title>Node21</title>
<g id="a_Node000021"><a xlink:href="arm__timer__window_8cpp.html" target="_top" xlink:title="This file implements a window that visualizes the contents of the ARM timer registers.">
<polygon fill="white" stroke="#666666" points="2239,-30 2087,-30 2087,0 2239,0 2239,-30"/>
<text text-anchor="start" x="2095" y="-18" font-family="Helvetica,sans-Serif" font-size="10.00">src/gui/windows/peripherals</text>
<text text-anchor="middle" x="2163" y="-7" font-family="Helvetica,sans-Serif" font-size="10.00">/arm_timer_window.cpp</text>
</a>
</g>
</g>
<!-- Node20&#45;&gt;Node21 -->
<g id="edge26_Node000020_Node000021" class="edge">
<title>Node20&#45;&gt;Node21</title>
<g id="a_edge26_Node000020_Node000021"><a xlink:title=" ">
<path fill="none" stroke="#63b8ff" d="M2163,-55.54C2163,-46.96 2163,-37.61 2163,-30.16"/>
<polygon fill="#63b8ff" stroke="#63b8ff" points="2159.5,-55.8 2163,-65.8 2166.5,-55.8 2159.5,-55.8"/>
</a>
</g>
</g>
<!-- Node22&#45;&gt;Node6 -->
<g id="edge30_Node000022_Node000006" class="edge">
<title>Node22&#45;&gt;Node6</title>
<g id="a_edge30_Node000022_Node000006"><a xlink:title=" ">
<path fill="none" stroke="#63b8ff" d="M1363.08,-131.97C1571.87,-104.95 1628.93,-128.63 1833,-96 1841.55,-94.63 1850.71,-92.63 1859.13,-90.56"/>
<polygon fill="#63b8ff" stroke="#63b8ff" points="1362.48,-128.52 1353.03,-133.3 1363.4,-135.46 1362.48,-128.52"/>
</a>
</g>
</g>
<!-- Node23 -->
<g id="Node000023" class="node">
<title>Node23</title>
<g id="a_Node000023"><a xlink:href="auxiliary_8cpp.html" target="_top" xlink:title=" ">
<polygon fill="white" stroke="#666666" points="1334.5,-96 1207.5,-96 1207.5,-66 1334.5,-66 1334.5,-96"/>
<text text-anchor="start" x="1215.5" y="-84" font-family="Helvetica,sans-Serif" font-size="10.00">src/core/peripherals</text>
<text text-anchor="middle" x="1271" y="-73" font-family="Helvetica,sans-Serif" font-size="10.00">/auxiliary/auxiliary.cpp</text>
</a>
</g>
</g>
<!-- Node22&#45;&gt;Node23 -->
<g id="edge28_Node000022_Node000023" class="edge">
<title>Node22&#45;&gt;Node23</title>
<g id="a_edge28_Node000022_Node000023"><a xlink:title=" ">
<path fill="none" stroke="#63b8ff" d="M1282.28,-122.11C1279.82,-113.38 1277.13,-103.78 1274.98,-96.16"/>
<polygon fill="#63b8ff" stroke="#63b8ff" points="1278.93,-123.12 1285.01,-131.8 1285.67,-121.22 1278.93,-123.12"/>
</a>
</g>
</g>
<!-- Node24 -->
<g id="Node000024" class="node">
<title>Node24</title>
<g id="a_Node000024"><a xlink:href="mini__uart_8cpp.html" target="_top" xlink:title="This file implements the Mini UART auxiliary peripheral used in BCM2835.">
<polygon fill="white" stroke="#666666" points="1485,-96 1353,-96 1353,-66 1485,-66 1485,-96"/>
<text text-anchor="start" x="1361" y="-84" font-family="Helvetica,sans-Serif" font-size="10.00">src/core/peripherals</text>
<text text-anchor="middle" x="1419" y="-73" font-family="Helvetica,sans-Serif" font-size="10.00">/auxiliary/mini_uart.cpp</text>
</a>
</g>
</g>
<!-- Node22&#45;&gt;Node24 -->
<g id="edge29_Node000022_Node000024" class="edge">
<title>Node22&#45;&gt;Node24</title>
<g id="a_edge29_Node000022_Node000024"><a xlink:title=" ">
<path fill="none" stroke="#63b8ff" d="M1326.55,-127.51C1346.95,-117.47 1371.76,-105.26 1390.54,-96.01"/>
<polygon fill="#63b8ff" stroke="#63b8ff" points="1324.95,-124.4 1317.53,-131.95 1328.05,-130.68 1324.95,-124.4"/>
</a>
</g>
</g>
<!-- Node25 -->
<g id="Node000025" class="node">
<title>Node25</title>
<g id="a_Node000025"><a xlink:href="aux__window_8hpp.html" target="_top" xlink:title="This file defines a window that visualizes the auxiliaries (UART1 &amp; SPI1, and SPI2) used in BCM2835.">
<polygon fill="white" stroke="#666666" points="1693,-96 1541,-96 1541,-66 1693,-66 1693,-96"/>
<text text-anchor="start" x="1549" y="-84" font-family="Helvetica,sans-Serif" font-size="10.00">src/gui/windows/peripherals</text>
<text text-anchor="middle" x="1617" y="-73" font-family="Helvetica,sans-Serif" font-size="10.00">/aux_window.hpp</text>
</a>
</g>
</g>
<!-- Node22&#45;&gt;Node25 -->
<g id="edge31_Node000022_Node000025" class="edge">
<title>Node22&#45;&gt;Node25</title>
<g id="a_edge31_Node000022_Node000025"><a xlink:title=" ">
<path fill="none" stroke="#63b8ff" d="M1362.96,-131.57C1417.46,-120.94 1491.17,-106.55 1545.16,-96.02"/>
<polygon fill="#63b8ff" stroke="#63b8ff" points="1362.16,-128.16 1353.02,-133.51 1363.51,-135.03 1362.16,-128.16"/>
</a>
</g>
</g>
<!-- Node25&#45;&gt;Node8 -->
<g id="edge32_Node000025_Node000008" class="edge">
<title>Node25&#45;&gt;Node8</title>
<g id="a_edge32_Node000025_Node000008"><a xlink:title=" ">
<path fill="none" stroke="#63b8ff" d="M1530.86,-66.51C1529.57,-66.33 1528.28,-66.17 1527,-66 1365.1,-45.06 1171.82,-27.24 1086.8,-19.77"/>
<polygon fill="#63b8ff" stroke="#63b8ff" points="1530.55,-70 1540.93,-67.89 1531.5,-63.06 1530.55,-70"/>
</a>
</g>
</g>
<!-- Node26 -->
<g id="Node000026" class="node">
<title>Node26</title>
<g id="a_Node000026"><a xlink:href="aux__window_8cpp.html" target="_top" xlink:title="This file implements a window that visualizes the auxiliaries (UART1 &amp; SPI1, and SPI2) used in BCM283...">
<polygon fill="white" stroke="#666666" points="1693,-30 1541,-30 1541,0 1693,0 1693,-30"/>
<text text-anchor="start" x="1549" y="-18" font-family="Helvetica,sans-Serif" font-size="10.00">src/gui/windows/peripherals</text>
<text text-anchor="middle" x="1617" y="-7" font-family="Helvetica,sans-Serif" font-size="10.00">/aux_window.cpp</text>
</a>
</g>
</g>
<!-- Node25&#45;&gt;Node26 -->
<g id="edge33_Node000025_Node000026" class="edge">
<title>Node25&#45;&gt;Node26</title>
<g id="a_edge33_Node000025_Node000026"><a xlink:title=" ">
<path fill="none" stroke="#63b8ff" d="M1617,-55.54C1617,-46.96 1617,-37.61 1617,-30.16"/>
<polygon fill="#63b8ff" stroke="#63b8ff" points="1613.5,-55.8 1617,-65.8 1620.5,-55.8 1613.5,-55.8"/>
</a>
</g>
</g>
<!-- Node27&#45;&gt;Node6 -->
<g id="edge40_Node000027_Node000006" class="edge">
<title>Node27&#45;&gt;Node6</title>
<g id="a_edge40_Node000027_Node000006"><a xlink:title=" ">
<path fill="none" stroke="#63b8ff" d="M1546.74,-200.3C1582.45,-192.45 1626.47,-180.15 1663,-162 1682.58,-152.27 1682.38,-141.67 1702,-132 1709.01,-128.55 1804.07,-103.97 1856.26,-90.61"/>
<polygon fill="#63b8ff" stroke="#63b8ff" points="1545.95,-196.89 1536.9,-202.4 1547.41,-203.73 1545.95,-196.89"/>
</a>
</g>
</g>
<!-- Node27&#45;&gt;Node22 -->
<g id="edge35_Node000027_Node000022" class="edge">
<title>Node27&#45;&gt;Node22</title>
<g id="a_edge35_Node000027_Node000022"><a xlink:title=" ">
<path fill="none" stroke="#63b8ff" d="M1428.44,-194.72C1397.84,-184.47 1359.53,-171.63 1330.82,-162.01"/>
<polygon fill="#63b8ff" stroke="#63b8ff" points="1427.49,-198.1 1438.08,-197.95 1429.71,-191.46 1427.49,-198.1"/>
</a>
</g>
</g>
<!-- Node28 -->
<g id="Node000028" class="node">
<title>Node28</title>
<g id="a_Node000028"><a xlink:href="bsc_8hpp.html" target="_top" xlink:title="This file defines the BSC peripheral used in BCM2835.">
<polygon fill="white" stroke="#666666" points="1654.5,-162 1541.5,-162 1541.5,-132 1654.5,-132 1654.5,-162"/>
<text text-anchor="start" x="1549.5" y="-150" font-family="Helvetica,sans-Serif" font-size="10.00">src/core/peripherals</text>
<text text-anchor="middle" x="1598" y="-139" font-family="Helvetica,sans-Serif" font-size="10.00">/bsc.hpp</text>
</a>
</g>
</g>
<!-- Node27&#45;&gt;Node28 -->
<g id="edge36_Node000027_Node000028" class="edge">
<title>Node27&#45;&gt;Node28</title>
<g id="a_edge36_Node000027_Node000028"><a xlink:title=" ">
<path fill="none" stroke="#63b8ff" d="M1514.84,-193.11C1533.2,-183.14 1555.35,-171.13 1572.16,-162.01"/>
<polygon fill="#63b8ff" stroke="#63b8ff" points="1513.02,-190.11 1505.9,-197.95 1516.35,-196.26 1513.02,-190.11"/>
</a>
</g>
</g>
<!-- Node30 -->
<g id="Node000030" class="node">
<title>Node30</title>
<g id="a_Node000030"><a xlink:href="gpio_8cpp.html" target="_top" xlink:title="This file implements the GPIO controller used in BCM2835 (defined in gpio.hpp).">
<polygon fill="white" stroke="#666666" points="1484.5,-162 1371.5,-162 1371.5,-132 1484.5,-132 1484.5,-162"/>
<text text-anchor="start" x="1379.5" y="-150" font-family="Helvetica,sans-Serif" font-size="10.00">src/core/peripherals</text>
<text text-anchor="middle" x="1428" y="-139" font-family="Helvetica,sans-Serif" font-size="10.00">/gpio.cpp</text>
</a>
</g>
</g>
<!-- Node27&#45;&gt;Node30 -->
<g id="edge39_Node000027_Node000030" class="edge">
<title>Node27&#45;&gt;Node30</title>
<g id="a_edge39_Node000027_Node000030"><a xlink:title=" ">
<path fill="none" stroke="#63b8ff" d="M1461.97,-189.81C1454.52,-180.64 1446.1,-170.28 1439.51,-162.16"/>
<polygon fill="#63b8ff" stroke="#63b8ff" points="1459.44,-192.24 1468.46,-197.8 1464.87,-187.83 1459.44,-192.24"/>
</a>
</g>
</g>
<!-- Node31 -->
<g id="Node000031" class="node">
<title>Node31</title>
<g id="a_Node000031"><a xlink:href="gpio__window_8hpp.html" target="_top" xlink:title="This file defines a window that visualizes the states and information about GPIO pins.">
<polygon fill="white" stroke="#666666" points="1189,-162 1037,-162 1037,-132 1189,-132 1189,-162"/>
<text text-anchor="start" x="1045" y="-150" font-family="Helvetica,sans-Serif" font-size="10.00">src/gui/windows/peripherals</text>
<text text-anchor="middle" x="1113" y="-139" font-family="Helvetica,sans-Serif" font-size="10.00">/gpio_window.hpp</text>
</a>
</g>
</g>
<!-- Node27&#45;&gt;Node31 -->
<g id="edge41_Node000027_Node000031" class="edge">
<title>Node27&#45;&gt;Node31</title>
<g id="a_edge41_Node000027_Node000031"><a xlink:title=" ">
<path fill="none" stroke="#63b8ff" d="M1413.6,-200.42C1350.37,-189.39 1255.3,-172.81 1189.06,-161.26"/>
<polygon fill="#63b8ff" stroke="#63b8ff" points="1413.01,-203.87 1423.46,-202.14 1414.21,-196.97 1413.01,-203.87"/>
</a>
</g>
</g>
<!-- Node28&#45;&gt;Node6 -->
<g id="edge38_Node000028_Node000006" class="edge">
<title>Node28&#45;&gt;Node6</title>
<g id="a_edge38_Node000028_Node000006"><a xlink:title=" ">
<path fill="none" stroke="#63b8ff" d="M1664.69,-132.39C1711.8,-122.63 1776.37,-108.98 1833,-96 1840.45,-94.29 1848.43,-92.38 1855.98,-90.54"/>
<polygon fill="#63b8ff" stroke="#63b8ff" points="1663.7,-129.02 1654.61,-134.47 1665.12,-135.87 1663.7,-129.02"/>
</a>
</g>
</g>
<!-- Node29 -->
<g id="Node000029" class="node">
<title>Node29</title>
<g id="a_Node000029"><a xlink:href="bsc_8cpp.html" target="_top" xlink:title="This file implements the BSC peripheral used in BCM2835.">
<polygon fill="white" stroke="#666666" points="1824.5,-96 1711.5,-96 1711.5,-66 1824.5,-66 1824.5,-96"/>
<text text-anchor="start" x="1719.5" y="-84" font-family="Helvetica,sans-Serif" font-size="10.00">src/core/peripherals</text>
<text text-anchor="middle" x="1768" y="-73" font-family="Helvetica,sans-Serif" font-size="10.00">/bsc.cpp</text>
</a>
</g>
</g>
<!-- Node28&#45;&gt;Node29 -->
<g id="edge37_Node000028_Node000029" class="edge">
<title>Node28&#45;&gt;Node29</title>
<g id="a_edge37_Node000028_Node000029"><a xlink:title=" ">
<path fill="none" stroke="#63b8ff" d="M1644.96,-128.32C1672.01,-118.14 1705.55,-105.51 1730.78,-96.01"/>
<polygon fill="#63b8ff" stroke="#63b8ff" points="1643.43,-125.16 1635.31,-131.95 1645.9,-131.71 1643.43,-125.16"/>
</a>
</g>
</g>
<!-- Node31&#45;&gt;Node8 -->
<g id="edge42_Node000031_Node000008" class="edge">
<title>Node31&#45;&gt;Node8</title>
<g id="a_edge42_Node000031_Node000008"><a xlink:title=" ">
<path fill="none" stroke="#63b8ff" d="M1062.25,-127.33C1048.73,-119.76 1035.74,-109.53 1028,-96 1014.67,-72.69 1029.39,-39.92 1037.87,-24.56"/>
<polygon fill="#63b8ff" stroke="#63b8ff" points="1060.67,-130.45 1071.16,-131.93 1063.88,-124.23 1060.67,-130.45"/>
</a>
</g>
</g>
<!-- Node32 -->
<g id="Node000032" class="node">
<title>Node32</title>
<g id="a_Node000032"><a xlink:href="gpio__window_8cpp.html" target="_top" xlink:title="This file implements a window that visualizes the states and information about GPIO pins.">
<polygon fill="white" stroke="#666666" points="1189,-96 1037,-96 1037,-66 1189,-66 1189,-96"/>
<text text-anchor="start" x="1045" y="-84" font-family="Helvetica,sans-Serif" font-size="10.00">src/gui/windows/peripherals</text>
<text text-anchor="middle" x="1113" y="-73" font-family="Helvetica,sans-Serif" font-size="10.00">/gpio_window.cpp</text>
</a>
</g>
</g>
<!-- Node31&#45;&gt;Node32 -->
<g id="edge43_Node000031_Node000032" class="edge">
<title>Node31&#45;&gt;Node32</title>
<g id="a_edge43_Node000031_Node000032"><a xlink:title=" ">
<path fill="none" stroke="#63b8ff" d="M1113,-121.54C1113,-112.96 1113,-103.61 1113,-96.16"/>
<polygon fill="#63b8ff" stroke="#63b8ff" points="1109.5,-121.8 1113,-131.8 1116.5,-121.8 1109.5,-121.8"/>
</a>
</g>
</g>
<!-- Node34&#45;&gt;Node8 -->
<g id="edge47_Node000034_Node000008" class="edge">
<title>Node34&#45;&gt;Node8</title>
<g id="a_edge47_Node000034_Node000008"><a xlink:title=" ">
<path fill="none" stroke="#63b8ff" d="M1648.74,-198.19C1600.95,-189.71 1549.99,-177.5 1532,-162 1497.24,-132.05 1530.47,-93.85 1494,-66 1430.84,-17.77 1187.12,-14.51 1086.67,-15.29"/>
<polygon fill="#63b8ff" stroke="#63b8ff" points="1648.43,-201.68 1658.88,-199.94 1649.62,-194.79 1648.43,-201.68"/>
</a>
</g>
</g>
<!-- Node35 -->
<g id="Node000035" class="node">
<title>Node35</title>
<g id="a_Node000035"><a xlink:href="interrupt__controller__window_8cpp.html" target="_top" xlink:title="This file implements a window that visualizes the interrupt controller IC.">
<polygon fill="white" stroke="#666666" points="1887,-162 1711,-162 1711,-132 1887,-132 1887,-162"/>
<text text-anchor="start" x="1719" y="-150" font-family="Helvetica,sans-Serif" font-size="10.00">src/gui/windows/peripherals</text>
<text text-anchor="middle" x="1799" y="-139" font-family="Helvetica,sans-Serif" font-size="10.00">/interrupt_controller_window.cpp</text>
</a>
</g>
</g>
<!-- Node34&#45;&gt;Node35 -->
<g id="edge48_Node000034_Node000035" class="edge">
<title>Node34&#45;&gt;Node35</title>
<g id="a_edge48_Node000034_Node000035"><a xlink:title=" ">
<path fill="none" stroke="#63b8ff" d="M1765.03,-189.81C1772.48,-180.64 1780.9,-170.28 1787.49,-162.16"/>
<polygon fill="#63b8ff" stroke="#63b8ff" points="1762.13,-187.83 1758.54,-197.8 1767.56,-192.24 1762.13,-187.83"/>
</a>
</g>
</g>
</g>
</svg>
