<?xml version="1.0" encoding="UTF-8" standalone="no"?>
<!DOCTYPE svg PUBLIC "-//W3C//DTD SVG 1.1//EN"
 "http://www.w3.org/Graphics/SVG/1.1/DTD/svg11.dtd">
<!-- Generated by graphviz version 2.43.0 (0)
 -->
<!-- Title: src/gui/windows/log_window.hpp Pages: 1 -->
<svg width="226pt" height="104pt"
 viewBox="0.00 0.00 226.00 104.00" xmlns="http://www.w3.org/2000/svg" xmlns:xlink="http://www.w3.org/1999/xlink">
<g id="graph0" class="graph" transform="scale(1 1) rotate(0) translate(4 100)">
<title>src/gui/windows/log_window.hpp</title>
<!-- Node1 -->
<g id="Node000001" class="node">
<title>Node1</title>
<g id="a_Node000001"><a xlink:title="This file defines a window that displays log messages.">
<polygon fill="#999999" stroke="#666666" points="159,-96 46,-96 46,-66 159,-66 159,-96"/>
<text text-anchor="start" x="54" y="-84" font-family="Helvetica,sans-Serif" font-size="10.00">src/gui/windows/log</text>
<text text-anchor="middle" x="102.5" y="-73" font-family="Helvetica,sans-Serif" font-size="10.00">_window.hpp</text>
</a>
</g>
</g>
<!-- Node2 -->
<g id="Node000002" class="node">
<title>Node2</title>
<g id="a_Node000002"><a xlink:href="gui_8cpp.html" target="_top" xlink:title="This file implements the main GUI entry function that takes care of creating and rendering all window...">
<polygon fill="white" stroke="#666666" points="87,-24.5 0,-24.5 0,-5.5 87,-5.5 87,-24.5"/>
<text text-anchor="middle" x="43.5" y="-12.5" font-family="Helvetica,sans-Serif" font-size="10.00">src/gui/gui.cpp</text>
</a>
</g>
</g>
<!-- Node1&#45;&gt;Node2 -->
<g id="edge1_Node000001_Node000002" class="edge">
<title>Node1&#45;&gt;Node2</title>
<g id="a_edge1_Node000001_Node000002"><a xlink:title=" ">
<path fill="none" stroke="#63b8ff" d="M82.47,-58.27C71.93,-46.84 59.58,-33.44 51.65,-24.84"/>
<polygon fill="#63b8ff" stroke="#63b8ff" points="80.05,-60.82 89.41,-65.8 85.2,-56.07 80.05,-60.82"/>
</a>
</g>
</g>
<!-- Node3 -->
<g id="Node000003" class="node">
<title>Node3</title>
<g id="a_Node000003"><a xlink:href="log__window_8cpp.html" target="_top" xlink:title="This file implements a window that displays log messages.">
<polygon fill="white" stroke="#666666" points="218,-30 105,-30 105,0 218,0 218,-30"/>
<text text-anchor="start" x="113" y="-18" font-family="Helvetica,sans-Serif" font-size="10.00">src/gui/windows/log</text>
<text text-anchor="middle" x="161.5" y="-7" font-family="Helvetica,sans-Serif" font-size="10.00">_window.cpp</text>
</a>
</g>
</g>
<!-- Node1&#45;&gt;Node3 -->
<g id="edge2_Node000001_Node000003" class="edge">
<title>Node1&#45;&gt;Node3</title>
<g id="a_edge2_Node000001_Node000003"><a xlink:title=" ">
<path fill="none" stroke="#63b8ff" d="M122.44,-58.37C131.02,-49.06 140.81,-38.44 148.44,-30.16"/>
<polygon fill="#63b8ff" stroke="#63b8ff" points="119.8,-56.07 115.59,-65.8 124.95,-60.82 119.8,-56.07"/>
</a>
</g>
</g>
</g>
</svg>
