<?xml version="1.0" encoding="UTF-8" standalone="no"?>
<!DOCTYPE svg PUBLIC "-//W3C//DTD SVG 1.1//EN"
 "http://www.w3.org/Graphics/SVG/1.1/DTD/svg11.dtd">
<!-- Generated by graphviz version 2.43.0 (0)
 -->
<!-- Title: src/gui/windows/log_window.hpp Pages: 1 -->
<svg width="276pt" height="159pt"
 viewBox="0.00 0.00 275.50 159.00" xmlns="http://www.w3.org/2000/svg" xmlns:xlink="http://www.w3.org/1999/xlink">
<g id="graph0" class="graph" transform="scale(1 1) rotate(0) translate(4 155)">
<title>src/gui/windows/log_window.hpp</title>
<!-- Node1 -->
<g id="Node000001" class="node">
<title>Node1</title>
<g id="a_Node000001"><a xlink:title="This file defines a window that displays log messages.">
<polygon fill="#999999" stroke="#666666" points="133.5,-151 20.5,-151 20.5,-121 133.5,-121 133.5,-151"/>
<text text-anchor="start" x="28.5" y="-139" font-family="Helvetica,sans-Serif" font-size="10.00">src/gui/windows/log</text>
<text text-anchor="middle" x="77" y="-128" font-family="Helvetica,sans-Serif" font-size="10.00">_window.hpp</text>
</a>
</g>
</g>
<!-- Node2 -->
<g id="Node000002" class="node">
<title>Node2</title>
<g id="a_Node000002"><a xlink:title=" ">
<polygon fill="#e0e0e0" stroke="#999999" points="84,-19 0,-19 0,0 84,0 84,-19"/>
<text text-anchor="middle" x="42" y="-7" font-family="Helvetica,sans-Serif" font-size="10.00">imgui/imgui.h</text>
</a>
</g>
</g>
<!-- Node1&#45;&gt;Node2 -->
<g id="edge1_Node000001_Node000002" class="edge">
<title>Node1&#45;&gt;Node2</title>
<g id="a_edge1_Node000001_Node000002"><a xlink:title=" ">
<path fill="none" stroke="#63b8ff" d="M56.11,-120.97C44.9,-112.13 32.15,-99.63 26,-85 18.18,-66.39 25.37,-43.5 32.45,-28.04"/>
<polygon fill="#63b8ff" stroke="#63b8ff" points="35.59,-29.59 36.93,-19.08 29.33,-26.46 35.59,-29.59"/>
</a>
</g>
</g>
<!-- Node3 -->
<g id="Node000003" class="node">
<title>Node3</title>
<g id="a_Node000003"><a xlink:href="window_8hpp.html" target="_top" xlink:title="This file defines an interface for all windows that will be rendered by the application.">
<polygon fill="white" stroke="#666666" points="118.5,-79.5 35.5,-79.5 35.5,-60.5 118.5,-60.5 118.5,-79.5"/>
<text text-anchor="middle" x="77" y="-67.5" font-family="Helvetica,sans-Serif" font-size="10.00">../window.hpp</text>
</a>
</g>
</g>
<!-- Node1&#45;&gt;Node3 -->
<g id="edge2_Node000001_Node000003" class="edge">
<title>Node1&#45;&gt;Node3</title>
<g id="a_edge2_Node000001_Node000003"><a xlink:title=" ">
<path fill="none" stroke="#63b8ff" d="M77,-120.8C77,-111.7 77,-99.79 77,-89.9"/>
<polygon fill="#63b8ff" stroke="#63b8ff" points="80.5,-89.84 77,-79.84 73.5,-89.84 80.5,-89.84"/>
</a>
</g>
</g>
<!-- Node4 -->
<g id="Node000004" class="node">
<title>Node4</title>
<g id="a_Node000004"><a xlink:href="logging__system_8hpp.html" target="_top" xlink:title="This file defines a logging system that is used in the project.">
<polygon fill="white" stroke="#666666" points="267.5,-85 136.5,-85 136.5,-55 267.5,-55 267.5,-85"/>
<text text-anchor="start" x="144.5" y="-73" font-family="Helvetica,sans-Serif" font-size="10.00">zero_mate/utils/logging</text>
<text text-anchor="middle" x="202" y="-62" font-family="Helvetica,sans-Serif" font-size="10.00">_system.hpp</text>
</a>
</g>
</g>
<!-- Node1&#45;&gt;Node4 -->
<g id="edge4_Node000001_Node000004" class="edge">
<title>Node1&#45;&gt;Node4</title>
<g id="a_edge4_Node000001_Node000004"><a xlink:title=" ">
<path fill="none" stroke="#63b8ff" d="M104.43,-120.95C122.42,-111.74 146.15,-99.6 165.7,-89.59"/>
<polygon fill="#63b8ff" stroke="#63b8ff" points="167.33,-92.69 174.63,-85.01 164.14,-86.45 167.33,-92.69"/>
</a>
</g>
</g>
<!-- Node3&#45;&gt;Node2 -->
<g id="edge3_Node000003_Node000002" class="edge">
<title>Node3&#45;&gt;Node2</title>
<g id="a_edge3_Node000003_Node000002"><a xlink:title=" ">
<path fill="none" stroke="#63b8ff" d="M71.84,-60.37C66.77,-51.9 58.9,-38.74 52.51,-28.07"/>
<polygon fill="#63b8ff" stroke="#63b8ff" points="55.32,-25.95 47.19,-19.17 49.32,-29.55 55.32,-25.95"/>
</a>
</g>
</g>
<!-- Node5 -->
<g id="Node000005" class="node">
<title>Node5</title>
<g id="a_Node000005"><a xlink:href="logger_8hpp.html" target="_top" xlink:title="This file defines a general logger interface.">
<polygon fill="white" stroke="#666666" points="236,-19 168,-19 168,0 236,0 236,-19"/>
<text text-anchor="middle" x="202" y="-7" font-family="Helvetica,sans-Serif" font-size="10.00">logger.hpp</text>
</a>
</g>
</g>
<!-- Node4&#45;&gt;Node5 -->
<g id="edge5_Node000004_Node000005" class="edge">
<title>Node4&#45;&gt;Node5</title>
<g id="a_edge5_Node000004_Node000005"><a xlink:title=" ">
<path fill="none" stroke="#63b8ff" d="M202,-54.84C202,-47.21 202,-37.7 202,-29.45"/>
<polygon fill="#63b8ff" stroke="#63b8ff" points="205.5,-29.27 202,-19.27 198.5,-29.27 205.5,-29.27"/>
</a>
</g>
</g>
</g>
</svg>
