<?xml version="1.0" encoding="UTF-8" standalone="no"?>
<!DOCTYPE svg PUBLIC "-//W3C//DTD SVG 1.1//EN"
 "http://www.w3.org/Graphics/SVG/1.1/DTD/svg11.dtd">
<!-- Generated by graphviz version 2.43.0 (0)
 -->
<!-- Title: src/utils/logger/logger_stdo.hpp Pages: 1 -->
<svg width="244pt" height="104pt"
 viewBox="0.00 0.00 243.50 104.00" xmlns="http://www.w3.org/2000/svg" xmlns:xlink="http://www.w3.org/1999/xlink">
<g id="graph0" class="graph" transform="scale(1 1) rotate(0) translate(4 100)">
<title>src/utils/logger/logger_stdo.hpp</title>
<!-- Node1 -->
<g id="Node000001" class="node">
<title>Node1</title>
<g id="a_Node000001"><a xlink:title="This file defines a standard output logging_system (STDO).">
<polygon fill="#999999" stroke="#666666" points="171.5,-96 49.5,-96 49.5,-66 171.5,-66 171.5,-96"/>
<text text-anchor="start" x="57.5" y="-84" font-family="Helvetica,sans-Serif" font-size="10.00">src/utils/logger/logger</text>
<text text-anchor="middle" x="110.5" y="-73" font-family="Helvetica,sans-Serif" font-size="10.00">_stdo.hpp</text>
</a>
</g>
</g>
<!-- Node2 -->
<g id="Node000002" class="node">
<title>Node2</title>
<g id="a_Node000002"><a xlink:href="soc_8cpp.html" target="_top" xlink:title=" ">
<polygon fill="white" stroke="#666666" points="95,-24.5 0,-24.5 0,-5.5 95,-5.5 95,-24.5"/>
<text text-anchor="middle" x="47.5" y="-12.5" font-family="Helvetica,sans-Serif" font-size="10.00">src/core/soc.cpp</text>
</a>
</g>
</g>
<!-- Node1&#45;&gt;Node2 -->
<g id="edge1_Node000001_Node000002" class="edge">
<title>Node1&#45;&gt;Node2</title>
<g id="a_edge1_Node000001_Node000002"><a xlink:title=" ">
<path fill="none" stroke="#63b8ff" d="M89.44,-58.6C78.11,-47.1 64.75,-33.52 56.21,-24.84"/>
<polygon fill="#63b8ff" stroke="#63b8ff" points="87.01,-61.13 96.52,-65.8 92,-56.21 87.01,-61.13"/>
</a>
</g>
</g>
<!-- Node3 -->
<g id="Node000003" class="node">
<title>Node3</title>
<g id="a_Node000003"><a xlink:href="logger__stdo_8cpp.html" target="_top" xlink:title="This file defines a standard output logging_system (STDO) as defined in logger_stdo....">
<polygon fill="white" stroke="#666666" points="235.5,-30 113.5,-30 113.5,0 235.5,0 235.5,-30"/>
<text text-anchor="start" x="121.5" y="-18" font-family="Helvetica,sans-Serif" font-size="10.00">src/utils/logger/logger</text>
<text text-anchor="middle" x="174.5" y="-7" font-family="Helvetica,sans-Serif" font-size="10.00">_stdo.cpp</text>
</a>
</g>
</g>
<!-- Node1&#45;&gt;Node3 -->
<g id="edge2_Node000001_Node000003" class="edge">
<title>Node1&#45;&gt;Node3</title>
<g id="a_edge2_Node000001_Node000003"><a xlink:title=" ">
<path fill="none" stroke="#63b8ff" d="M131.85,-58.65C141.23,-49.27 151.97,-38.53 160.34,-30.16"/>
<polygon fill="#63b8ff" stroke="#63b8ff" points="129.3,-56.25 124.7,-65.8 134.25,-61.2 129.3,-56.25"/>
</a>
</g>
</g>
</g>
</svg>
