<?xml version="1.0" encoding="UTF-8" standalone="no"?>
<!DOCTYPE svg PUBLIC "-//W3C//DTD SVG 1.1//EN"
 "http://www.w3.org/Graphics/SVG/1.1/DTD/svg11.dtd">
<!-- Generated by graphviz version 2.43.0 (0)
 -->
<!-- Title: src/utils/logger/logger_stdo.cpp Pages: 1 -->
<svg width="218pt" height="214pt"
 viewBox="0.00 0.00 218.00 214.00" xmlns="http://www.w3.org/2000/svg" xmlns:xlink="http://www.w3.org/1999/xlink">
<g id="graph0" class="graph" transform="scale(1 1) rotate(0) translate(4 210)">
<title>src/utils/logger/logger_stdo.cpp</title>
<!-- Node1 -->
<g id="Node000001" class="node">
<title>Node1</title>
<g id="a_Node000001"><a xlink:title="This file defines a standard output logging_system (STDO) as defined in logger_stdo....">
<polygon fill="#999999" stroke="#666666" points="152.5,-206 30.5,-206 30.5,-176 152.5,-176 152.5,-206"/>
<text text-anchor="start" x="38.5" y="-194" font-family="Helvetica,sans-Serif" font-size="10.00">src/utils/logger/logger</text>
<text text-anchor="middle" x="91.5" y="-183" font-family="Helvetica,sans-Serif" font-size="10.00">_stdo.cpp</text>
</a>
</g>
</g>
<!-- Node2 -->
<g id="Node000002" class="node">
<title>Node2</title>
<g id="a_Node000002"><a xlink:title=" ">
<polygon fill="#e0e0e0" stroke="#999999" points="79,-140 0,-140 0,-121 79,-121 79,-140"/>
<text text-anchor="middle" x="39.5" y="-128" font-family="Helvetica,sans-Serif" font-size="10.00">fmt/format.h</text>
</a>
</g>
</g>
<!-- Node1&#45;&gt;Node2 -->
<g id="edge1_Node000001_Node000002" class="edge">
<title>Node1&#45;&gt;Node2</title>
<g id="a_edge1_Node000001_Node000002"><a xlink:title=" ">
<path fill="none" stroke="#63b8ff" d="M78.91,-175.84C71.44,-167.43 61.94,-156.74 54.13,-147.96"/>
<polygon fill="#63b8ff" stroke="#63b8ff" points="56.55,-145.41 47.29,-140.27 51.32,-150.07 56.55,-145.41"/>
</a>
</g>
</g>
<!-- Node3 -->
<g id="Node000003" class="node">
<title>Node3</title>
<g id="a_Node000003"><a xlink:href="logger__stdo_8hpp.html" target="_top" xlink:title="This file defines a standard output logging_system (STDO).">
<polygon fill="white" stroke="#666666" points="192,-140 97,-140 97,-121 192,-121 192,-140"/>
<text text-anchor="middle" x="144.5" y="-128" font-family="Helvetica,sans-Serif" font-size="10.00">logger_stdo.hpp</text>
</a>
</g>
</g>
<!-- Node1&#45;&gt;Node3 -->
<g id="edge2_Node000001_Node000003" class="edge">
<title>Node1&#45;&gt;Node3</title>
<g id="a_edge2_Node000001_Node000003"><a xlink:title=" ">
<path fill="none" stroke="#63b8ff" d="M104.33,-175.84C112.02,-167.35 121.83,-156.52 129.83,-147.69"/>
<polygon fill="#63b8ff" stroke="#63b8ff" points="132.44,-150.03 136.56,-140.27 127.25,-145.33 132.44,-150.03"/>
</a>
</g>
</g>
<!-- Node4 -->
<g id="Node000004" class="node">
<title>Node4</title>
<g id="a_Node000004"><a xlink:href="logging__system_8hpp.html" target="_top" xlink:title="This file defines a logging system that is used in the project.">
<polygon fill="white" stroke="#666666" points="210,-85 79,-85 79,-55 210,-55 210,-85"/>
<text text-anchor="start" x="87" y="-73" font-family="Helvetica,sans-Serif" font-size="10.00">zero_mate/utils/logging</text>
<text text-anchor="middle" x="144.5" y="-62" font-family="Helvetica,sans-Serif" font-size="10.00">_system.hpp</text>
</a>
</g>
</g>
<!-- Node3&#45;&gt;Node4 -->
<g id="edge3_Node000003_Node000004" class="edge">
<title>Node3&#45;&gt;Node4</title>
<g id="a_edge3_Node000003_Node000004"><a xlink:title=" ">
<path fill="none" stroke="#63b8ff" d="M144.5,-120.87C144.5,-114.11 144.5,-104.35 144.5,-95.26"/>
<polygon fill="#63b8ff" stroke="#63b8ff" points="148,-95.11 144.5,-85.11 141,-95.11 148,-95.11"/>
</a>
</g>
</g>
<!-- Node5 -->
<g id="Node000005" class="node">
<title>Node5</title>
<g id="a_Node000005"><a xlink:href="logger_8hpp.html" target="_top" xlink:title="This file defines a general logger interface.">
<polygon fill="white" stroke="#666666" points="178.5,-19 110.5,-19 110.5,0 178.5,0 178.5,-19"/>
<text text-anchor="middle" x="144.5" y="-7" font-family="Helvetica,sans-Serif" font-size="10.00">logger.hpp</text>
</a>
</g>
</g>
<!-- Node4&#45;&gt;Node5 -->
<g id="edge4_Node000004_Node000005" class="edge">
<title>Node4&#45;&gt;Node5</title>
<g id="a_edge4_Node000004_Node000005"><a xlink:title=" ">
<path fill="none" stroke="#63b8ff" d="M144.5,-54.84C144.5,-47.21 144.5,-37.7 144.5,-29.45"/>
<polygon fill="#63b8ff" stroke="#63b8ff" points="148,-29.27 144.5,-19.27 141,-29.27 148,-29.27"/>
</a>
</g>
</g>
</g>
</svg>
