<?xml version="1.0" encoding="UTF-8" standalone="no"?>
<!DOCTYPE svg PUBLIC "-//W3C//DTD SVG 1.1//EN"
 "http://www.w3.org/Graphics/SVG/1.1/DTD/svg11.dtd">
<!-- Generated by graphviz version 2.43.0 (0)
 -->
<!-- Title: src/core/arm1176jzf_s/mac.cpp Pages: 1 -->
<svg width="308pt" height="203pt"
 viewBox="0.00 0.00 308.00 203.00" xmlns="http://www.w3.org/2000/svg" xmlns:xlink="http://www.w3.org/1999/xlink">
<g id="graph0" class="graph" transform="scale(1 1) rotate(0) translate(4 199)">
<title>src/core/arm1176jzf_s/mac.cpp</title>
<!-- Node1 -->
<g id="Node000001" class="node">
<title>Node1</title>
<g id="a_Node000001"><a xlink:title="This file implements the functionality of the CPU multiplier (MAC unit).">
<polygon fill="#999999" stroke="#666666" points="225.5,-195 112.5,-195 112.5,-165 225.5,-165 225.5,-195"/>
<text text-anchor="start" x="120.5" y="-183" font-family="Helvetica,sans-Serif" font-size="10.00">src/core/arm1176jzf</text>
<text text-anchor="middle" x="169" y="-172" font-family="Helvetica,sans-Serif" font-size="10.00">_s/mac.cpp</text>
</a>
</g>
</g>
<!-- Node2 -->
<g id="Node000002" class="node">
<title>Node2</title>
<g id="a_Node000002"><a xlink:href="mac_8hpp.html" target="_top" xlink:title="This file defines the functionality of the CPU multiplier (MAC unit).">
<polygon fill="white" stroke="#666666" points="139.5,-129 80.5,-129 80.5,-110 139.5,-110 139.5,-129"/>
<text text-anchor="middle" x="110" y="-117" font-family="Helvetica,sans-Serif" font-size="10.00">mac.hpp</text>
</a>
</g>
</g>
<!-- Node1&#45;&gt;Node2 -->
<g id="edge1_Node000001_Node000002" class="edge">
<title>Node1&#45;&gt;Node2</title>
<g id="a_edge1_Node000001_Node000002"><a xlink:title=" ">
<path fill="none" stroke="#63b8ff" d="M154.72,-164.84C146.07,-156.26 135.01,-145.3 126.06,-136.42"/>
<polygon fill="#63b8ff" stroke="#63b8ff" points="128.41,-133.82 118.84,-129.27 123.48,-138.79 128.41,-133.82"/>
</a>
</g>
</g>
<!-- Node6 -->
<g id="Node000006" class="node">
<title>Node6</title>
<g id="a_Node000006"><a xlink:href="math_8hpp.html" target="_top" xlink:title="This file defines and implements a variety of handy helper functions that are used throughout the pro...">
<polygon fill="white" stroke="#666666" points="300,-129 158,-129 158,-110 300,-110 300,-129"/>
<text text-anchor="middle" x="229" y="-117" font-family="Helvetica,sans-Serif" font-size="10.00">zero_mate/utils/math.hpp</text>
</a>
</g>
</g>
<!-- Node1&#45;&gt;Node6 -->
<g id="edge6_Node000001_Node000006" class="edge">
<title>Node1&#45;&gt;Node6</title>
<g id="a_edge6_Node000001_Node000006"><a xlink:title=" ">
<path fill="none" stroke="#63b8ff" d="M183.52,-164.84C192.32,-156.26 203.57,-145.3 212.67,-136.42"/>
<polygon fill="#63b8ff" stroke="#63b8ff" points="215.29,-138.75 220.01,-129.27 210.41,-133.74 215.29,-138.75"/>
</a>
</g>
</g>
<!-- Node3 -->
<g id="Node000003" class="node">
<title>Node3</title>
<g id="a_Node000003"><a xlink:href="multiply_8hpp.html" target="_top" xlink:title="This file defines a multiplication instruction (MUL, MLA).">
<polygon fill="white" stroke="#666666" points="94,-74 0,-74 0,-55 94,-55 94,-74"/>
<text text-anchor="middle" x="47" y="-62" font-family="Helvetica,sans-Serif" font-size="10.00">isa/multiply.hpp</text>
</a>
</g>
</g>
<!-- Node2&#45;&gt;Node3 -->
<g id="edge2_Node000002_Node000003" class="edge">
<title>Node2&#45;&gt;Node3</title>
<g id="a_edge2_Node000002_Node000003"><a xlink:title=" ">
<path fill="none" stroke="#63b8ff" d="M99.88,-109.98C90.56,-102.15 76.53,-90.34 65.26,-80.86"/>
<polygon fill="#63b8ff" stroke="#63b8ff" points="67.21,-77.93 57.31,-74.17 62.71,-83.29 67.21,-77.93"/>
</a>
</g>
</g>
<!-- Node5 -->
<g id="Node000005" class="node">
<title>Node5</title>
<g id="a_Node000005"><a xlink:href="multiply__long_8hpp.html" target="_top" xlink:title="This file defines a multiplication (long) instruction.">
<polygon fill="white" stroke="#666666" points="234,-74 112,-74 112,-55 234,-55 234,-74"/>
<text text-anchor="middle" x="173" y="-62" font-family="Helvetica,sans-Serif" font-size="10.00">isa/multiply_long.hpp</text>
</a>
</g>
</g>
<!-- Node2&#45;&gt;Node5 -->
<g id="edge4_Node000002_Node000005" class="edge">
<title>Node2&#45;&gt;Node5</title>
<g id="a_edge4_Node000002_Node000005"><a xlink:title=" ">
<path fill="none" stroke="#63b8ff" d="M120.12,-109.98C129.44,-102.15 143.47,-90.34 154.74,-80.86"/>
<polygon fill="#63b8ff" stroke="#63b8ff" points="157.29,-83.29 162.69,-74.17 152.79,-77.93 157.29,-83.29"/>
</a>
</g>
</g>
<!-- Node4 -->
<g id="Node000004" class="node">
<title>Node4</title>
<g id="a_Node000004"><a xlink:href="instruction_8hpp.html" target="_top" xlink:title="This file defines the interface of a general ARM instruction.">
<polygon fill="white" stroke="#666666" points="154.5,-19 65.5,-19 65.5,0 154.5,0 154.5,-19"/>
<text text-anchor="middle" x="110" y="-7" font-family="Helvetica,sans-Serif" font-size="10.00">instruction.hpp</text>
</a>
</g>
</g>
<!-- Node3&#45;&gt;Node4 -->
<g id="edge3_Node000003_Node000004" class="edge">
<title>Node3&#45;&gt;Node4</title>
<g id="a_edge3_Node000003_Node000004"><a xlink:title=" ">
<path fill="none" stroke="#63b8ff" d="M57.12,-54.98C66.44,-47.15 80.47,-35.34 91.74,-25.86"/>
<polygon fill="#63b8ff" stroke="#63b8ff" points="94.29,-28.29 99.69,-19.17 89.79,-22.93 94.29,-28.29"/>
</a>
</g>
</g>
<!-- Node5&#45;&gt;Node4 -->
<g id="edge5_Node000005_Node000004" class="edge">
<title>Node5&#45;&gt;Node4</title>
<g id="a_edge5_Node000005_Node000004"><a xlink:title=" ">
<path fill="none" stroke="#63b8ff" d="M162.88,-54.98C153.56,-47.15 139.53,-35.34 128.26,-25.86"/>
<polygon fill="#63b8ff" stroke="#63b8ff" points="130.21,-22.93 120.31,-19.17 125.71,-28.29 130.21,-22.93"/>
</a>
</g>
</g>
</g>
</svg>
