<?xml version="1.0" encoding="UTF-8" standalone="no"?>
<!DOCTYPE svg PUBLIC "-//W3C//DTD SVG 1.1//EN"
 "http://www.w3.org/Graphics/SVG/1.1/DTD/svg11.dtd">
<!-- Generated by graphviz version 2.43.0 (0)
 -->
<!-- Title: main Pages: 1 -->
<svg width="794pt" height="132pt"
 viewBox="0.00 0.00 794.00 132.00" xmlns="http://www.w3.org/2000/svg" xmlns:xlink="http://www.w3.org/1999/xlink">
<g id="graph0" class="graph" transform="scale(1 1) rotate(0) translate(4 128)">
<title>main</title>
<!-- Node1 -->
<g id="Node000001" class="node">
<title>Node1</title>
<g id="a_Node000001"><a xlink:title="Entry point of the application.">
<polygon fill="#999999" stroke="#666666" points="41,-67.5 0,-67.5 0,-48.5 41,-48.5 41,-67.5"/>
<text text-anchor="middle" x="20.5" y="-55.5" font-family="Helvetica,sans-Serif" font-size="10.00">main</text>
</a>
</g>
</g>
<!-- Node2 -->
<g id="Node000002" class="node">
<title>Node2</title>
<g id="a_Node000002"><a xlink:href="namespacezero__mate_1_1soc.html#afd2705ddec33a890cf8eff78a144e3b0" target="_top" xlink:title="Initializes the system.">
<polygon fill="white" stroke="#666666" points="205,-104.5 92,-104.5 92,-85.5 205,-85.5 205,-104.5"/>
<text text-anchor="middle" x="148.5" y="-92.5" font-family="Helvetica,sans-Serif" font-size="10.00">zero_mate::soc::Init</text>
</a>
</g>
</g>
<!-- Node1&#45;&gt;Node2 -->
<g id="edge1_Node000001_Node000002" class="edge">
<title>Node1&#45;&gt;Node2</title>
<g id="a_edge1_Node000001_Node000002"><a xlink:title=" ">
<path fill="none" stroke="#63b8ff" d="M41.15,-65.16C51.71,-68.89 65,-73.42 77,-77 83.67,-78.99 90.73,-80.96 97.71,-82.82"/>
<polygon fill="#63b8ff" stroke="#63b8ff" points="97.26,-86.32 107.82,-85.46 99.03,-79.55 97.26,-86.32"/>
</a>
</g>
</g>
<!-- Node3 -->
<g id="Node000003" class="node">
<title>Node3</title>
<g id="a_Node000003"><a xlink:href="namespacezero__mate_1_1gui.html#af6a45e4660638d498cd499f94ddaad6f" target="_top" xlink:title="Main entry point of the GUI of the application.">
<polygon fill="white" stroke="#666666" points="220,-67.5 77,-67.5 77,-48.5 220,-48.5 220,-67.5"/>
<text text-anchor="middle" x="148.5" y="-55.5" font-family="Helvetica,sans-Serif" font-size="10.00">zero_mate::gui::Main_GUI</text>
</a>
</g>
</g>
<!-- Node1&#45;&gt;Node3 -->
<g id="edge2_Node000001_Node000003" class="edge">
<title>Node1&#45;&gt;Node3</title>
<g id="a_edge2_Node000001_Node000003"><a xlink:title=" ">
<path fill="none" stroke="#63b8ff" d="M41.19,-58C48.53,-58 57.4,-58 66.85,-58"/>
<polygon fill="#63b8ff" stroke="#63b8ff" points="66.86,-61.5 76.86,-58 66.86,-54.5 66.86,-61.5"/>
</a>
</g>
</g>
<!-- Node10 -->
<g id="Node000010" class="node">
<title>Node10</title>
<g id="a_Node000010"><a xlink:href="namespacezero__mate_1_1gui_1_1startup.html#a0c9c34ff925b20ecb8afb0195f5bef79" target="_top" xlink:title="Parses command line arguments passed into the application.">
<polygon fill="white" stroke="#666666" points="213.5,-30 83.5,-30 83.5,0 213.5,0 213.5,-30"/>
<text text-anchor="start" x="91.5" y="-18" font-family="Helvetica,sans-Serif" font-size="10.00">zero_mate::gui::startup</text>
<text text-anchor="middle" x="148.5" y="-7" font-family="Helvetica,sans-Serif" font-size="10.00">::Parse_Args</text>
</a>
</g>
</g>
<!-- Node1&#45;&gt;Node10 -->
<g id="edge11_Node000001_Node000010" class="edge">
<title>Node1&#45;&gt;Node10</title>
<g id="a_edge11_Node000001_Node000010"><a xlink:title=" ">
<path fill="none" stroke="#63b8ff" d="M41.19,-51.28C55.33,-46.45 75.13,-39.7 93.8,-33.33"/>
<polygon fill="#63b8ff" stroke="#63b8ff" points="95.1,-36.58 103.43,-30.04 92.84,-29.96 95.1,-36.58"/>
</a>
</g>
</g>
<!-- Node4 -->
<g id="Node000004" class="node">
<title>Node4</title>
<g id="a_Node000004"><a xlink:href="classzero__mate_1_1utils_1_1CLogging__System.html#a57ed77e1a5cf822cea532cc5e05c3f60" target="_top" xlink:title="Logs an error message via all registered loggers.">
<polygon fill="white" stroke="#666666" points="402,-97 256,-97 256,-67 402,-67 402,-97"/>
<text text-anchor="start" x="264" y="-85" font-family="Helvetica,sans-Serif" font-size="10.00">zero_mate::utils::CLogging</text>
<text text-anchor="middle" x="329" y="-74" font-family="Helvetica,sans-Serif" font-size="10.00">_System::Error</text>
</a>
</g>
</g>
<!-- Node3&#45;&gt;Node4 -->
<g id="edge3_Node000003_Node000004" class="edge">
<title>Node3&#45;&gt;Node4</title>
<g id="a_edge3_Node000003_Node000004"><a xlink:title=" ">
<path fill="none" stroke="#63b8ff" d="M220.05,-67.49C228.52,-68.62 237.23,-69.8 245.86,-70.96"/>
<polygon fill="#63b8ff" stroke="#63b8ff" points="245.54,-74.44 255.92,-72.31 246.47,-67.51 245.54,-74.44"/>
</a>
</g>
</g>
<!-- Node9 -->
<g id="Node000009" class="node">
<title>Node9</title>
<g id="a_Node000009"><a xlink:href="classzero__mate_1_1utils_1_1CLogging__System.html#a2bb4d37b178f29335f726875bad91bd4" target="_top" xlink:title="Logs a warning message via all registered loggers.">
<polygon fill="white" stroke="#666666" points="402,-49 256,-49 256,-19 402,-19 402,-49"/>
<text text-anchor="start" x="264" y="-37" font-family="Helvetica,sans-Serif" font-size="10.00">zero_mate::utils::CLogging</text>
<text text-anchor="middle" x="329" y="-26" font-family="Helvetica,sans-Serif" font-size="10.00">_System::Warning</text>
</a>
</g>
</g>
<!-- Node3&#45;&gt;Node9 -->
<g id="edge8_Node000003_Node000009" class="edge">
<title>Node3&#45;&gt;Node9</title>
<g id="a_edge8_Node000003_Node000009"><a xlink:title=" ">
<path fill="none" stroke="#63b8ff" d="M220.05,-48.51C228.52,-47.38 237.23,-46.2 245.86,-45.04"/>
<polygon fill="#63b8ff" stroke="#63b8ff" points="246.47,-48.49 255.92,-43.69 245.54,-41.56 246.47,-48.49"/>
</a>
</g>
</g>
<!-- Node5 -->
<g id="Node000005" class="node">
<title>Node5</title>
<g id="a_Node000005"><a xlink:href="classzero__mate_1_1utils_1_1CLogging__System.html#a71ed11c796553cbe8fd99773406a1060" target="_top" xlink:title="Creates a formatted message to be logged.">
<polygon fill="white" stroke="#666666" points="590,-105.5 438,-105.5 438,-64.5 590,-64.5 590,-105.5"/>
<text text-anchor="start" x="446" y="-93.5" font-family="Helvetica,sans-Serif" font-size="10.00">zero_mate::utils::CLogging</text>
<text text-anchor="start" x="446" y="-82.5" font-family="Helvetica,sans-Serif" font-size="10.00">_System::Create_Formatted</text>
<text text-anchor="middle" x="514" y="-71.5" font-family="Helvetica,sans-Serif" font-size="10.00">_Log_Msg</text>
</a>
</g>
</g>
<!-- Node4&#45;&gt;Node5 -->
<g id="edge4_Node000004_Node000005" class="edge">
<title>Node4&#45;&gt;Node5</title>
<g id="a_edge4_Node000004_Node000005"><a xlink:title=" ">
<path fill="none" stroke="#63b8ff" d="M402.06,-83.18C410.55,-83.32 419.26,-83.46 427.9,-83.6"/>
<polygon fill="#63b8ff" stroke="#63b8ff" points="427.94,-87.11 437.99,-83.77 428.05,-80.11 427.94,-87.11"/>
</a>
</g>
</g>
<!-- Node8 -->
<g id="Node000008" class="node">
<title>Node8</title>
<g id="a_Node000008"><a xlink:href="classzero__mate_1_1utils_1_1CLogging__System.html#ad371c67ef65763966ccf9291002e86f3" target="_top" xlink:title="Extract the filename from a given location within the source files.">
<polygon fill="white" stroke="#666666" points="588.5,-46 439.5,-46 439.5,-16 588.5,-16 588.5,-46"/>
<text text-anchor="start" x="447.5" y="-34" font-family="Helvetica,sans-Serif" font-size="10.00">zero_mate::utils::CLogging</text>
<text text-anchor="middle" x="514" y="-23" font-family="Helvetica,sans-Serif" font-size="10.00">_System::Extract_Filename</text>
</a>
</g>
</g>
<!-- Node4&#45;&gt;Node8 -->
<g id="edge7_Node000004_Node000008" class="edge">
<title>Node4&#45;&gt;Node8</title>
<g id="a_edge7_Node000004_Node000008"><a xlink:title=" ">
<path fill="none" stroke="#63b8ff" d="M383.92,-66.97C404.49,-61.24 428.13,-54.65 449.51,-48.69"/>
<polygon fill="#63b8ff" stroke="#63b8ff" points="450.46,-52.06 459.15,-46.01 448.58,-45.32 450.46,-52.06"/>
</a>
</g>
</g>
<!-- Node6 -->
<g id="Node000006" class="node">
<title>Node6</title>
<g id="a_Node000006"><a xlink:href="classzero__mate_1_1utils_1_1CLogging__System.html#aa70c102c805079042ffea2a6f2a5ad64" target="_top" xlink:title="Formats a given timestamp.">
<polygon fill="white" stroke="#666666" points="786,-124 626,-124 626,-94 786,-94 786,-124"/>
<text text-anchor="start" x="634" y="-112" font-family="Helvetica,sans-Serif" font-size="10.00">zero_mate::utils::CLogging</text>
<text text-anchor="middle" x="706" y="-101" font-family="Helvetica,sans-Serif" font-size="10.00">_System::Format_Timestamp</text>
</a>
</g>
</g>
<!-- Node5&#45;&gt;Node6 -->
<g id="edge5_Node000005_Node000006" class="edge">
<title>Node5&#45;&gt;Node6</title>
<g id="a_edge5_Node000005_Node000006"><a xlink:title=" ">
<path fill="none" stroke="#63b8ff" d="M590.09,-94.49C598.52,-95.55 607.16,-96.64 615.74,-97.73"/>
<polygon fill="#63b8ff" stroke="#63b8ff" points="615.41,-101.21 625.77,-98.99 616.29,-94.27 615.41,-101.21"/>
</a>
</g>
</g>
<!-- Node7 -->
<g id="Node000007" class="node">
<title>Node7</title>
<g id="a_Node000007"><a xlink:href="classzero__mate_1_1utils_1_1CLogging__System.html#ae3ca637537dde05e0b9119145c840331" target="_top" xlink:title="Returns the current timestamp that will be used in a log message.">
<polygon fill="white" stroke="#666666" points="779,-76 633,-76 633,-46 779,-46 779,-76"/>
<text text-anchor="start" x="641" y="-64" font-family="Helvetica,sans-Serif" font-size="10.00">zero_mate::utils::CLogging</text>
<text text-anchor="middle" x="706" y="-53" font-family="Helvetica,sans-Serif" font-size="10.00">_System::Get_Timestamp</text>
</a>
</g>
</g>
<!-- Node5&#45;&gt;Node7 -->
<g id="edge6_Node000005_Node000007" class="edge">
<title>Node5&#45;&gt;Node7</title>
<g id="a_edge6_Node000005_Node000007"><a xlink:title=" ">
<path fill="none" stroke="#63b8ff" d="M590.09,-75.51C600.89,-74.15 612.05,-72.74 622.98,-71.36"/>
<polygon fill="#63b8ff" stroke="#63b8ff" points="623.45,-74.83 632.93,-70.1 622.57,-67.88 623.45,-74.83"/>
</a>
</g>
</g>
<!-- Node9&#45;&gt;Node5 -->
<g id="edge9_Node000009_Node000005" class="edge">
<title>Node9&#45;&gt;Node5</title>
<g id="a_edge9_Node000009_Node000005"><a xlink:title=" ">
<path fill="none" stroke="#63b8ff" d="M383.92,-49.03C398.1,-52.98 413.74,-57.34 429.1,-61.62"/>
<polygon fill="#63b8ff" stroke="#63b8ff" points="428.55,-65.1 439.13,-64.41 430.43,-58.36 428.55,-65.1"/>
</a>
</g>
</g>
<!-- Node9&#45;&gt;Node8 -->
<g id="edge10_Node000009_Node000008" class="edge">
<title>Node9&#45;&gt;Node8</title>
<g id="a_edge10_Node000009_Node000008"><a xlink:title=" ">
<path fill="none" stroke="#63b8ff" d="M402.06,-32.82C411,-32.67 420.2,-32.52 429.29,-32.37"/>
<polygon fill="#63b8ff" stroke="#63b8ff" points="429.56,-35.87 439.5,-32.2 429.44,-28.87 429.56,-35.87"/>
</a>
</g>
</g>
</g>
</svg>
