<?xml version="1.0" encoding="UTF-8" standalone="no"?>
<!DOCTYPE svg PUBLIC "-//W3C//DTD SVG 1.1//EN"
 "http://www.w3.org/Graphics/SVG/1.1/DTD/svg11.dtd">
<!-- Generated by graphviz version 2.43.0 (0)
 -->
<!-- Title: main Pages: 1 -->
<svg width="794pt" height="116pt"
 viewBox="0.00 0.00 794.00 116.00" xmlns="http://www.w3.org/2000/svg" xmlns:xlink="http://www.w3.org/1999/xlink">
<g id="graph0" class="graph" transform="scale(1 1) rotate(0) translate(4 112)">
<title>main</title>
<!-- Node1 -->
<g id="Node000001" class="node">
<title>Node1</title>
<g id="a_Node000001"><a xlink:title="Entry point of the application.">
<polygon fill="#999999" stroke="#666666" points="41,-69.5 0,-69.5 0,-50.5 41,-50.5 41,-69.5"/>
<text text-anchor="middle" x="20.5" y="-57.5" font-family="Helvetica,sans-Serif" font-size="10.00">main</text>
</a>
</g>
</g>
<!-- Node2 -->
<g id="Node000002" class="node">
<title>Node2</title>
<g id="a_Node000002"><a xlink:href="namespacezero__mate_1_1soc.html#a3a1bd117cb86b2023bd0a9c617ce3bfe" target="_top" xlink:title="Initializes the system.">
<polygon fill="white" stroke="#666666" points="205,-88.5 92,-88.5 92,-69.5 205,-69.5 205,-88.5"/>
<text text-anchor="middle" x="148.5" y="-76.5" font-family="Helvetica,sans-Serif" font-size="10.00">zero_mate::soc::Init</text>
</a>
</g>
</g>
<!-- Node1&#45;&gt;Node2 -->
<g id="edge1_Node000001_Node000002" class="edge">
<title>Node1&#45;&gt;Node2</title>
<g id="a_edge1_Node000001_Node000002"><a xlink:title=" ">
<path fill="none" stroke="#63b8ff" d="M41.19,-62.97C52.27,-64.64 66.81,-66.83 81.57,-69.06"/>
<polygon fill="#63b8ff" stroke="#63b8ff" points="81.37,-72.57 91.78,-70.6 82.41,-65.65 81.37,-72.57"/>
</a>
</g>
</g>
<!-- Node3 -->
<g id="Node000003" class="node">
<title>Node3</title>
<g id="a_Node000003"><a xlink:href="namespacezero__mate_1_1gui.html#af6a45e4660638d498cd499f94ddaad6f" target="_top" xlink:title="Main entry point of the GUI of the application.">
<polygon fill="white" stroke="#666666" points="220,-51.5 77,-51.5 77,-32.5 220,-32.5 220,-51.5"/>
<text text-anchor="middle" x="148.5" y="-39.5" font-family="Helvetica,sans-Serif" font-size="10.00">zero_mate::gui::Main_GUI</text>
</a>
</g>
</g>
<!-- Node1&#45;&gt;Node3 -->
<g id="edge2_Node000001_Node000003" class="edge">
<title>Node1&#45;&gt;Node3</title>
<g id="a_edge2_Node000001_Node000003"><a xlink:title=" ">
<path fill="none" stroke="#63b8ff" d="M41.19,-57.19C49.56,-55.99 59.91,-54.51 70.84,-52.95"/>
<polygon fill="#63b8ff" stroke="#63b8ff" points="71.59,-56.38 80.99,-51.5 70.6,-49.45 71.59,-56.38"/>
</a>
</g>
</g>
<!-- Node4 -->
<g id="Node000004" class="node">
<title>Node4</title>
<g id="a_Node000004"><a xlink:href="classzero__mate_1_1utils_1_1CLogging__System.html#a57ed77e1a5cf822cea532cc5e05c3f60" target="_top" xlink:title="Logs an error message via all registered loggers.">
<polygon fill="white" stroke="#666666" points="402,-81 256,-81 256,-51 402,-51 402,-81"/>
<text text-anchor="start" x="264" y="-69" font-family="Helvetica,sans-Serif" font-size="10.00">zero_mate::utils::CLogging</text>
<text text-anchor="middle" x="329" y="-58" font-family="Helvetica,sans-Serif" font-size="10.00">_System::Error</text>
</a>
</g>
</g>
<!-- Node3&#45;&gt;Node4 -->
<g id="edge3_Node000003_Node000004" class="edge">
<title>Node3&#45;&gt;Node4</title>
<g id="a_edge3_Node000003_Node000004"><a xlink:title=" ">
<path fill="none" stroke="#63b8ff" d="M220.05,-51.49C228.52,-52.62 237.23,-53.8 245.86,-54.96"/>
<polygon fill="#63b8ff" stroke="#63b8ff" points="245.54,-58.44 255.92,-56.31 246.47,-51.51 245.54,-58.44"/>
</a>
</g>
</g>
<!-- Node9 -->
<g id="Node000009" class="node">
<title>Node9</title>
<g id="a_Node000009"><a xlink:href="classzero__mate_1_1utils_1_1CLogging__System.html#a2bb4d37b178f29335f726875bad91bd4" target="_top" xlink:title="Logs a warning message via all registered loggers.">
<polygon fill="white" stroke="#666666" points="402,-33 256,-33 256,-3 402,-3 402,-33"/>
<text text-anchor="start" x="264" y="-21" font-family="Helvetica,sans-Serif" font-size="10.00">zero_mate::utils::CLogging</text>
<text text-anchor="middle" x="329" y="-10" font-family="Helvetica,sans-Serif" font-size="10.00">_System::Warning</text>
</a>
</g>
</g>
<!-- Node3&#45;&gt;Node9 -->
<g id="edge8_Node000003_Node000009" class="edge">
<title>Node3&#45;&gt;Node9</title>
<g id="a_edge8_Node000003_Node000009"><a xlink:title=" ">
<path fill="none" stroke="#63b8ff" d="M220.05,-32.51C228.52,-31.38 237.23,-30.2 245.86,-29.04"/>
<polygon fill="#63b8ff" stroke="#63b8ff" points="246.47,-32.49 255.92,-27.69 245.54,-25.56 246.47,-32.49"/>
</a>
</g>
</g>
<!-- Node5 -->
<g id="Node000005" class="node">
<title>Node5</title>
<g id="a_Node000005"><a xlink:href="classzero__mate_1_1utils_1_1CLogging__System.html#a71ed11c796553cbe8fd99773406a1060" target="_top" xlink:title="Creates a formatted message to be logged.">
<polygon fill="white" stroke="#666666" points="590,-89.5 438,-89.5 438,-48.5 590,-48.5 590,-89.5"/>
<text text-anchor="start" x="446" y="-77.5" font-family="Helvetica,sans-Serif" font-size="10.00">zero_mate::utils::CLogging</text>
<text text-anchor="start" x="446" y="-66.5" font-family="Helvetica,sans-Serif" font-size="10.00">_System::Create_Formatted</text>
<text text-anchor="middle" x="514" y="-55.5" font-family="Helvetica,sans-Serif" font-size="10.00">_Log_Msg</text>
</a>
</g>
</g>
<!-- Node4&#45;&gt;Node5 -->
<g id="edge4_Node000004_Node000005" class="edge">
<title>Node4&#45;&gt;Node5</title>
<g id="a_edge4_Node000004_Node000005"><a xlink:title=" ">
<path fill="none" stroke="#63b8ff" d="M402.06,-67.18C410.55,-67.32 419.26,-67.46 427.9,-67.6"/>
<polygon fill="#63b8ff" stroke="#63b8ff" points="427.94,-71.11 437.99,-67.77 428.05,-64.11 427.94,-71.11"/>
</a>
</g>
</g>
<!-- Node8 -->
<g id="Node000008" class="node">
<title>Node8</title>
<g id="a_Node000008"><a xlink:href="classzero__mate_1_1utils_1_1CLogging__System.html#ad371c67ef65763966ccf9291002e86f3" target="_top" xlink:title="Extract the filename from a given location within the source files.">
<polygon fill="white" stroke="#666666" points="588.5,-30 439.5,-30 439.5,0 588.5,0 588.5,-30"/>
<text text-anchor="start" x="447.5" y="-18" font-family="Helvetica,sans-Serif" font-size="10.00">zero_mate::utils::CLogging</text>
<text text-anchor="middle" x="514" y="-7" font-family="Helvetica,sans-Serif" font-size="10.00">_System::Extract_Filename</text>
</a>
</g>
</g>
<!-- Node4&#45;&gt;Node8 -->
<g id="edge7_Node000004_Node000008" class="edge">
<title>Node4&#45;&gt;Node8</title>
<g id="a_edge7_Node000004_Node000008"><a xlink:title=" ">
<path fill="none" stroke="#63b8ff" d="M383.92,-50.97C404.49,-45.24 428.13,-38.65 449.51,-32.69"/>
<polygon fill="#63b8ff" stroke="#63b8ff" points="450.46,-36.06 459.15,-30.01 448.58,-29.32 450.46,-36.06"/>
</a>
</g>
</g>
<!-- Node6 -->
<g id="Node000006" class="node">
<title>Node6</title>
<g id="a_Node000006"><a xlink:href="classzero__mate_1_1utils_1_1CLogging__System.html#aa70c102c805079042ffea2a6f2a5ad64" target="_top" xlink:title="Formats a given timestamp.">
<polygon fill="white" stroke="#666666" points="786,-108 626,-108 626,-78 786,-78 786,-108"/>
<text text-anchor="start" x="634" y="-96" font-family="Helvetica,sans-Serif" font-size="10.00">zero_mate::utils::CLogging</text>
<text text-anchor="middle" x="706" y="-85" font-family="Helvetica,sans-Serif" font-size="10.00">_System::Format_Timestamp</text>
</a>
</g>
</g>
<!-- Node5&#45;&gt;Node6 -->
<g id="edge5_Node000005_Node000006" class="edge">
<title>Node5&#45;&gt;Node6</title>
<g id="a_edge5_Node000005_Node000006"><a xlink:title=" ">
<path fill="none" stroke="#63b8ff" d="M590.09,-78.49C598.52,-79.55 607.16,-80.64 615.74,-81.73"/>
<polygon fill="#63b8ff" stroke="#63b8ff" points="615.41,-85.21 625.77,-82.99 616.29,-78.27 615.41,-85.21"/>
</a>
</g>
</g>
<!-- Node7 -->
<g id="Node000007" class="node">
<title>Node7</title>
<g id="a_Node000007"><a xlink:href="classzero__mate_1_1utils_1_1CLogging__System.html#ae3ca637537dde05e0b9119145c840331" target="_top" xlink:title="Returns the current timestamp that will be used in a log message.">
<polygon fill="white" stroke="#666666" points="779,-60 633,-60 633,-30 779,-30 779,-60"/>
<text text-anchor="start" x="641" y="-48" font-family="Helvetica,sans-Serif" font-size="10.00">zero_mate::utils::CLogging</text>
<text text-anchor="middle" x="706" y="-37" font-family="Helvetica,sans-Serif" font-size="10.00">_System::Get_Timestamp</text>
</a>
</g>
</g>
<!-- Node5&#45;&gt;Node7 -->
<g id="edge6_Node000005_Node000007" class="edge">
<title>Node5&#45;&gt;Node7</title>
<g id="a_edge6_Node000005_Node000007"><a xlink:title=" ">
<path fill="none" stroke="#63b8ff" d="M590.09,-59.51C600.89,-58.15 612.05,-56.74 622.98,-55.36"/>
<polygon fill="#63b8ff" stroke="#63b8ff" points="623.45,-58.83 632.93,-54.1 622.57,-51.88 623.45,-58.83"/>
</a>
</g>
</g>
<!-- Node9&#45;&gt;Node5 -->
<g id="edge9_Node000009_Node000005" class="edge">
<title>Node9&#45;&gt;Node5</title>
<g id="a_edge9_Node000009_Node000005"><a xlink:title=" ">
<path fill="none" stroke="#63b8ff" d="M383.92,-33.03C398.1,-36.98 413.74,-41.34 429.1,-45.62"/>
<polygon fill="#63b8ff" stroke="#63b8ff" points="428.55,-49.1 439.13,-48.41 430.43,-42.36 428.55,-49.1"/>
</a>
</g>
</g>
<!-- Node9&#45;&gt;Node8 -->
<g id="edge10_Node000009_Node000008" class="edge">
<title>Node9&#45;&gt;Node8</title>
<g id="a_edge10_Node000009_Node000008"><a xlink:title=" ">
<path fill="none" stroke="#63b8ff" d="M402.06,-16.82C411,-16.67 420.2,-16.52 429.29,-16.37"/>
<polygon fill="#63b8ff" stroke="#63b8ff" points="429.56,-19.87 439.5,-16.2 429.44,-12.87 429.56,-19.87"/>
</a>
</g>
</g>
</g>
</svg>
