<?xml version="1.0" encoding="UTF-8" standalone="no"?>
<!DOCTYPE svg PUBLIC "-//W3C//DTD SVG 1.1//EN"
 "http://www.w3.org/Graphics/SVG/1.1/DTD/svg11.dtd">
<!-- Generated by graphviz version 2.43.0 (0)
 -->
<!-- Title: include/zero_mate/utils/math.hpp Pages: 1 -->
<svg width="1208pt" height="240pt"
 viewBox="0.00 0.00 1208.00 240.00" xmlns="http://www.w3.org/2000/svg" xmlns:xlink="http://www.w3.org/1999/xlink">
<g id="graph0" class="graph" transform="scale(1 1) rotate(0) translate(4 236)">
<title>include/zero_mate/utils/math.hpp</title>
<!-- Node1 -->
<g id="node1" class="node">
<title>Node1</title>
<g id="a_node1"><a xlink:title="This file defines and implements a variety of handy helper functions that are used throughout the pro...">
<polygon fill="#bfbfbf" stroke="black" points="655,-201.5 655,-231.5 786,-231.5 786,-201.5 655,-201.5"/>
<text text-anchor="start" x="663" y="-219.5" font-family="Helvetica,sans-Serif" font-size="10.00">include/zero_mate/utils</text>
<text text-anchor="middle" x="720.5" y="-208.5" font-family="Helvetica,sans-Serif" font-size="10.00">/math.hpp</text>
</a>
</g>
</g>
<!-- Node2 -->
<g id="node2" class="node">
<title>Node2</title>
<g id="a_node2"><a xlink:href="alu_8cpp.html" target="_top" xlink:title="This file implements the functionality of the arithmetic logic unit (ALU).">
<polygon fill="none" stroke="black" points="337,-134.5 337,-164.5 450,-164.5 450,-134.5 337,-134.5"/>
<text text-anchor="start" x="345" y="-152.5" font-family="Helvetica,sans-Serif" font-size="10.00">src/core/arm1176jzf</text>
<text text-anchor="middle" x="393.5" y="-141.5" font-family="Helvetica,sans-Serif" font-size="10.00">_s/alu.cpp</text>
</a>
</g>
</g>
<!-- Node1&#45;&gt;Node2 -->
<g id="edge1" class="edge">
<title>Node1&#45;&gt;Node2</title>
<path fill="none" stroke="midnightblue" d="M645.09,-201.57C592.68,-191.73 521.24,-178.04 458.5,-165 455.78,-164.44 453,-163.85 450.2,-163.25"/>
<polygon fill="midnightblue" stroke="midnightblue" points="644.51,-205.02 654.98,-203.42 645.8,-198.14 644.51,-205.02"/>
</g>
<!-- Node3 -->
<g id="node3" class="node">
<title>Node3</title>
<g id="a_node3"><a xlink:href="core_8hpp.html" target="_top" xlink:title="This file defines a class that represents a CPU core (arm1176jzf_s).">
<polygon fill="none" stroke="black" points="468,-134.5 468,-164.5 581,-164.5 581,-134.5 468,-134.5"/>
<text text-anchor="start" x="476" y="-152.5" font-family="Helvetica,sans-Serif" font-size="10.00">src/core/arm1176jzf</text>
<text text-anchor="middle" x="524.5" y="-141.5" font-family="Helvetica,sans-Serif" font-size="10.00">_s/core.hpp</text>
</a>
</g>
</g>
<!-- Node1&#45;&gt;Node3 -->
<g id="edge2" class="edge">
<title>Node1&#45;&gt;Node3</title>
<path fill="none" stroke="midnightblue" d="M668.42,-198.23C636.71,-187.71 596.72,-174.45 566.95,-164.58"/>
<polygon fill="midnightblue" stroke="midnightblue" points="667.38,-201.57 677.97,-201.4 669.58,-194.93 667.38,-201.57"/>
</g>
<!-- Node19 -->
<g id="node19" class="node">
<title>Node19</title>
<g id="a_node19"><a xlink:href="branch_8cpp.html" target="_top" xlink:title="This file implements a branch instruction (B, BL) as defined in branch.hpp.">
<polygon fill="none" stroke="black" points="599,-134.5 599,-164.5 712,-164.5 712,-134.5 599,-134.5"/>
<text text-anchor="start" x="607" y="-152.5" font-family="Helvetica,sans-Serif" font-size="10.00">src/core/arm1176jzf</text>
<text text-anchor="middle" x="655.5" y="-141.5" font-family="Helvetica,sans-Serif" font-size="10.00">_s/isa/branch.cpp</text>
</a>
</g>
</g>
<!-- Node1&#45;&gt;Node19 -->
<g id="edge22" class="edge">
<title>Node1&#45;&gt;Node19</title>
<path fill="none" stroke="midnightblue" d="M699.31,-194.31C689.56,-184.56 678.26,-173.26 669.58,-164.58"/>
<polygon fill="midnightblue" stroke="midnightblue" points="696.85,-196.8 706.4,-201.4 701.8,-191.85 696.85,-196.8"/>
</g>
<!-- Node20 -->
<g id="node20" class="node">
<title>Node20</title>
<g id="a_node20"><a xlink:href="mac_8cpp.html" target="_top" xlink:title="This file implements the functionality of the CPU multiplier (MAC unit).">
<polygon fill="none" stroke="black" points="730,-134.5 730,-164.5 843,-164.5 843,-134.5 730,-134.5"/>
<text text-anchor="start" x="738" y="-152.5" font-family="Helvetica,sans-Serif" font-size="10.00">src/core/arm1176jzf</text>
<text text-anchor="middle" x="786.5" y="-141.5" font-family="Helvetica,sans-Serif" font-size="10.00">_s/mac.cpp</text>
</a>
</g>
</g>
<!-- Node1&#45;&gt;Node20 -->
<g id="edge23" class="edge">
<title>Node1&#45;&gt;Node20</title>
<path fill="none" stroke="midnightblue" d="M742.01,-194.31C751.91,-184.56 763.39,-173.26 772.21,-164.58"/>
<polygon fill="midnightblue" stroke="midnightblue" points="739.49,-191.89 734.82,-201.4 744.4,-196.87 739.49,-191.89"/>
</g>
<!-- Node21 -->
<g id="node21" class="node">
<title>Node21</title>
<g id="a_node21"><a xlink:href="gpio_8cpp.html" target="_top" xlink:title="This file implements the GPIO controller used in BCM2835 (defined in gpio.hpp).">
<polygon fill="none" stroke="black" points="861,-134.5 861,-164.5 974,-164.5 974,-134.5 861,-134.5"/>
<text text-anchor="start" x="869" y="-152.5" font-family="Helvetica,sans-Serif" font-size="10.00">src/core/peripherals</text>
<text text-anchor="middle" x="917.5" y="-141.5" font-family="Helvetica,sans-Serif" font-size="10.00">/gpio.cpp</text>
</a>
</g>
</g>
<!-- Node1&#45;&gt;Node21 -->
<g id="edge24" class="edge">
<title>Node1&#45;&gt;Node21</title>
<path fill="none" stroke="midnightblue" d="M772.85,-198.23C804.72,-187.71 844.91,-174.45 874.84,-164.58"/>
<polygon fill="midnightblue" stroke="midnightblue" points="771.65,-194.94 763.25,-201.4 773.84,-201.59 771.65,-194.94"/>
</g>
<!-- Node22 -->
<g id="node22" class="node">
<title>Node22</title>
<g id="a_node22"><a xlink:href="interrupt__controller_8cpp.html" target="_top" xlink:title="This file implements the interrupt controller used in BCM2835 (defined in interrupt_controller....">
<polygon fill="none" stroke="black" points="992,-134.5 992,-164.5 1125,-164.5 1125,-134.5 992,-134.5"/>
<text text-anchor="start" x="1000" y="-152.5" font-family="Helvetica,sans-Serif" font-size="10.00">src/core/peripherals</text>
<text text-anchor="middle" x="1058.5" y="-141.5" font-family="Helvetica,sans-Serif" font-size="10.00">/interrupt_controller.cpp</text>
</a>
</g>
</g>
<!-- Node1&#45;&gt;Node22 -->
<g id="edge25" class="edge">
<title>Node1&#45;&gt;Node22</title>
<path fill="none" stroke="midnightblue" d="M796.08,-201.01C848.65,-190.93 920.34,-177.17 983.5,-165 986.23,-164.47 989.03,-163.94 991.84,-163.39"/>
<polygon fill="midnightblue" stroke="midnightblue" points="795.33,-197.59 786.16,-202.92 796.64,-204.47 795.33,-197.59"/>
</g>
<!-- Node4 -->
<g id="node4" class="node">
<title>Node4</title>
<g id="a_node4"><a xlink:href="core_8cpp.html" target="_top" xlink:title="This file implements the CCPU_Core class defined in core.hpp.">
<polygon fill="none" stroke="black" points="0,-67.5 0,-97.5 113,-97.5 113,-67.5 0,-67.5"/>
<text text-anchor="start" x="8" y="-85.5" font-family="Helvetica,sans-Serif" font-size="10.00">src/core/arm1176jzf</text>
<text text-anchor="middle" x="56.5" y="-74.5" font-family="Helvetica,sans-Serif" font-size="10.00">_s/core.cpp</text>
</a>
</g>
</g>
<!-- Node3&#45;&gt;Node4 -->
<g id="edge3" class="edge">
<title>Node3&#45;&gt;Node4</title>
<path fill="none" stroke="midnightblue" d="M457.71,-134C308.52,-110.36 267.55,-121.63 122.5,-98 119.49,-97.51 116.41,-96.97 113.31,-96.39"/>
<polygon fill="midnightblue" stroke="midnightblue" points="457.26,-137.47 467.69,-135.61 458.38,-130.56 457.26,-137.47"/>
</g>
<!-- Node5 -->
<g id="node5" class="node">
<title>Node5</title>
<g id="a_node5"><a xlink:href="coprocessor_8cpp.html" target="_top" xlink:title="This file implements the common functionality of a general interface of a coprocessor.">
<polygon fill="none" stroke="black" points="131.5,-67.5 131.5,-97.5 253.5,-97.5 253.5,-67.5 131.5,-67.5"/>
<text text-anchor="start" x="139.5" y="-85.5" font-family="Helvetica,sans-Serif" font-size="10.00">src/core/coprocessors</text>
<text text-anchor="middle" x="192.5" y="-74.5" font-family="Helvetica,sans-Serif" font-size="10.00">/coprocessor.cpp</text>
</a>
</g>
</g>
<!-- Node3&#45;&gt;Node5 -->
<g id="edge4" class="edge">
<title>Node3&#45;&gt;Node5</title>
<path fill="none" stroke="midnightblue" d="M457.79,-133.9C370.03,-116.37 346.37,-114.39 262.5,-98 259.58,-97.43 256.59,-96.84 253.57,-96.23"/>
<polygon fill="midnightblue" stroke="midnightblue" points="457.15,-137.34 467.64,-135.88 458.53,-130.48 457.15,-137.34"/>
</g>
<!-- Node6 -->
<g id="node6" class="node">
<title>Node6</title>
<g id="a_node6"><a xlink:href="cp10_8cpp.html" target="_top" xlink:title="This file implements coprocessor CP10 (single&#45;precision FPU).">
<polygon fill="none" stroke="black" points="271.5,-67.5 271.5,-97.5 393.5,-97.5 393.5,-67.5 271.5,-67.5"/>
<text text-anchor="start" x="279.5" y="-85.5" font-family="Helvetica,sans-Serif" font-size="10.00">src/core/coprocessors</text>
<text text-anchor="middle" x="332.5" y="-74.5" font-family="Helvetica,sans-Serif" font-size="10.00">/cp10/cp10.cpp</text>
</a>
</g>
</g>
<!-- Node3&#45;&gt;Node6 -->
<g id="edge5" class="edge">
<title>Node3&#45;&gt;Node6</title>
<path fill="none" stroke="midnightblue" d="M473.08,-131.09C442.08,-120.6 403.12,-107.41 374.08,-97.58"/>
<polygon fill="midnightblue" stroke="midnightblue" points="472.24,-134.5 482.84,-134.4 474.49,-127.87 472.24,-134.5"/>
</g>
<!-- Node7 -->
<g id="node7" class="node">
<title>Node7</title>
<g id="a_node7"><a xlink:href="soc_8hpp.html" target="_top" xlink:title=" ">
<polygon fill="none" stroke="black" points="412,-73 412,-92 507,-92 507,-73 412,-73"/>
<text text-anchor="middle" x="459.5" y="-80" font-family="Helvetica,sans-Serif" font-size="10.00">src/core/soc.hpp</text>
</a>
</g>
</g>
<!-- Node3&#45;&gt;Node7 -->
<g id="edge6" class="edge">
<title>Node3&#45;&gt;Node7</title>
<path fill="none" stroke="midnightblue" d="M503,-127C491.13,-115.13 477.05,-101.05 468.19,-92.19"/>
<polygon fill="midnightblue" stroke="midnightblue" points="500.85,-129.8 510.4,-134.4 505.8,-124.85 500.85,-129.8"/>
</g>
<!-- Node11 -->
<g id="node11" class="node">
<title>Node11</title>
<g id="a_node11"><a xlink:href="control__window_8hpp.html" target="_top" xlink:title="This file defines a window that allows the user to control CPU execution.">
<polygon fill="none" stroke="black" points="525,-67.5 525,-97.5 656,-97.5 656,-67.5 525,-67.5"/>
<text text-anchor="start" x="533" y="-85.5" font-family="Helvetica,sans-Serif" font-size="10.00">src/gui/windows/control</text>
<text text-anchor="middle" x="590.5" y="-74.5" font-family="Helvetica,sans-Serif" font-size="10.00">_window.hpp</text>
</a>
</g>
</g>
<!-- Node3&#45;&gt;Node11 -->
<g id="edge10" class="edge">
<title>Node3&#45;&gt;Node11</title>
<path fill="none" stroke="midnightblue" d="M546.01,-127.31C555.91,-117.56 567.39,-106.26 576.21,-97.58"/>
<polygon fill="midnightblue" stroke="midnightblue" points="543.49,-124.89 538.82,-134.4 548.4,-129.87 543.49,-124.89"/>
</g>
<!-- Node13 -->
<g id="node13" class="node">
<title>Node13</title>
<g id="a_node13"><a xlink:href="registers__window_8hpp.html" target="_top" xlink:title="This file defines a window that displays the contents of all CPU registers.">
<polygon fill="none" stroke="black" points="674.5,-67.5 674.5,-97.5 814.5,-97.5 814.5,-67.5 674.5,-67.5"/>
<text text-anchor="start" x="682.5" y="-85.5" font-family="Helvetica,sans-Serif" font-size="10.00">src/gui/windows/registers</text>
<text text-anchor="middle" x="744.5" y="-74.5" font-family="Helvetica,sans-Serif" font-size="10.00">_window.hpp</text>
</a>
</g>
</g>
<!-- Node3&#45;&gt;Node13 -->
<g id="edge13" class="edge">
<title>Node3&#45;&gt;Node13</title>
<path fill="none" stroke="midnightblue" d="M581.77,-131.58C617.5,-121.02 662.96,-107.59 696.74,-97.61"/>
<polygon fill="midnightblue" stroke="midnightblue" points="580.56,-128.29 571.97,-134.48 582.55,-135 580.56,-128.29"/>
</g>
<!-- Node15 -->
<g id="node15" class="node">
<title>Node15</title>
<g id="a_node15"><a xlink:href="source__code__window_8hpp.html" target="_top" xlink:title="This file defines a window that displays loaded ELF files (disassembled instructions of the source co...">
<polygon fill="none" stroke="black" points="832.5,-67.5 832.5,-97.5 962.5,-97.5 962.5,-67.5 832.5,-67.5"/>
<text text-anchor="start" x="840.5" y="-85.5" font-family="Helvetica,sans-Serif" font-size="10.00">src/gui/windows/source</text>
<text text-anchor="middle" x="897.5" y="-74.5" font-family="Helvetica,sans-Serif" font-size="10.00">_code_window.hpp</text>
</a>
</g>
</g>
<!-- Node3&#45;&gt;Node15 -->
<g id="edge16" class="edge">
<title>Node3&#45;&gt;Node15</title>
<path fill="none" stroke="midnightblue" d="M591.09,-133.77C694.61,-114.61 722.99,-115.57 823.5,-98 826.34,-97.5 829.23,-96.99 832.16,-96.45"/>
<polygon fill="midnightblue" stroke="midnightblue" points="590.36,-130.35 581.17,-135.62 591.65,-137.23 590.36,-130.35"/>
</g>
<!-- Node17 -->
<g id="node17" class="node">
<title>Node17</title>
<g id="a_node17"><a xlink:href="top__bar__menu_8hpp.html" target="_top" xlink:title=" ">
<polygon fill="none" stroke="black" points="981,-67.5 981,-97.5 1094,-97.5 1094,-67.5 981,-67.5"/>
<text text-anchor="start" x="989" y="-85.5" font-family="Helvetica,sans-Serif" font-size="10.00">src/gui/windows/top</text>
<text text-anchor="middle" x="1037.5" y="-74.5" font-family="Helvetica,sans-Serif" font-size="10.00">_bar_menu.hpp</text>
</a>
</g>
</g>
<!-- Node3&#45;&gt;Node17 -->
<g id="edge19" class="edge">
<title>Node3&#45;&gt;Node17</title>
<path fill="none" stroke="midnightblue" d="M591.1,-133.87C759.7,-108.01 806.23,-123.84 971.5,-98 974.51,-97.53 977.6,-97 980.7,-96.44"/>
<polygon fill="midnightblue" stroke="midnightblue" points="590.48,-130.43 581.14,-135.43 591.56,-137.34 590.48,-130.43"/>
</g>
<!-- Node8 -->
<g id="node8" class="node">
<title>Node8</title>
<g id="a_node8"><a xlink:href="soc_8cpp.html" target="_top" xlink:title=" ">
<polygon fill="none" stroke="black" points="412,-6 412,-25 507,-25 507,-6 412,-6"/>
<text text-anchor="middle" x="459.5" y="-13" font-family="Helvetica,sans-Serif" font-size="10.00">src/core/soc.cpp</text>
</a>
</g>
</g>
<!-- Node7&#45;&gt;Node8 -->
<g id="edge7" class="edge">
<title>Node7&#45;&gt;Node8</title>
<path fill="none" stroke="midnightblue" d="M459.5,-62.54C459.5,-50.17 459.5,-34.62 459.5,-25.13"/>
<polygon fill="midnightblue" stroke="midnightblue" points="456,-62.73 459.5,-72.73 463,-62.73 456,-62.73"/>
</g>
<!-- Node9 -->
<g id="node9" class="node">
<title>Node9</title>
<g id="a_node9"><a xlink:href="gui_8cpp.html" target="_top" xlink:title="This file implements the main GUI entry function that takes care of creating and rendering all window...">
<polygon fill="none" stroke="black" points="833,-6 833,-25 920,-25 920,-6 833,-6"/>
<text text-anchor="middle" x="876.5" y="-13" font-family="Helvetica,sans-Serif" font-size="10.00">src/gui/gui.cpp</text>
</a>
</g>
</g>
<!-- Node7&#45;&gt;Node9 -->
<g id="edge8" class="edge">
<title>Node7&#45;&gt;Node9</title>
<path fill="none" stroke="midnightblue" d="M499,-70.55C504.52,-69.24 510.13,-68 515.5,-67 650.97,-41.67 688.2,-57.26 823.5,-31 831.65,-29.42 840.38,-27.24 848.36,-25.05"/>
<polygon fill="midnightblue" stroke="midnightblue" points="498.12,-67.17 489.26,-72.99 499.81,-73.96 498.12,-67.17"/>
</g>
<!-- Node10 -->
<g id="node10" class="node">
<title>Node10</title>
<g id="a_node10"><a xlink:href="main_8cpp.html" target="_top" xlink:title="This file defines and implements the main function of the application.">
<polygon fill="none" stroke="black" points="315,-6 315,-25 394,-25 394,-6 315,-6"/>
<text text-anchor="middle" x="354.5" y="-13" font-family="Helvetica,sans-Serif" font-size="10.00">src/main.cpp</text>
</a>
</g>
</g>
<!-- Node7&#45;&gt;Node10 -->
<g id="edge9" class="edge">
<title>Node7&#45;&gt;Node10</title>
<path fill="none" stroke="midnightblue" d="M436.79,-67.44C416,-54.57 385.88,-35.93 368.44,-25.13"/>
<polygon fill="midnightblue" stroke="midnightblue" points="434.99,-70.45 445.34,-72.73 438.68,-64.49 434.99,-70.45"/>
</g>
<!-- Node11&#45;&gt;Node9 -->
<g id="edge11" class="edge">
<title>Node11&#45;&gt;Node9</title>
<path fill="none" stroke="midnightblue" d="M666.08,-66.19C711.79,-56.66 771.16,-43.82 823.5,-31 830.91,-29.18 838.87,-27.09 846.3,-25.06"/>
<polygon fill="midnightblue" stroke="midnightblue" points="665.33,-62.77 656.25,-68.23 666.75,-69.62 665.33,-62.77"/>
</g>
<!-- Node12 -->
<g id="node12" class="node">
<title>Node12</title>
<g id="a_node12"><a xlink:href="control__window_8cpp.html" target="_top" xlink:title="This file implements a window that allows the user to control CPU execution.">
<polygon fill="none" stroke="black" points="525,-0.5 525,-30.5 656,-30.5 656,-0.5 525,-0.5"/>
<text text-anchor="start" x="533" y="-18.5" font-family="Helvetica,sans-Serif" font-size="10.00">src/gui/windows/control</text>
<text text-anchor="middle" x="590.5" y="-7.5" font-family="Helvetica,sans-Serif" font-size="10.00">_window.cpp</text>
</a>
</g>
</g>
<!-- Node11&#45;&gt;Node12 -->
<g id="edge12" class="edge">
<title>Node11&#45;&gt;Node12</title>
<path fill="none" stroke="midnightblue" d="M590.5,-57.11C590.5,-48.15 590.5,-38.32 590.5,-30.58"/>
<polygon fill="midnightblue" stroke="midnightblue" points="587,-57.4 590.5,-67.4 594,-57.4 587,-57.4"/>
</g>
<!-- Node13&#45;&gt;Node9 -->
<g id="edge14" class="edge">
<title>Node13&#45;&gt;Node9</title>
<path fill="none" stroke="midnightblue" d="M782.14,-62.97C807.49,-50.48 839.75,-34.6 859.22,-25.01"/>
<polygon fill="midnightblue" stroke="midnightblue" points="780.57,-59.84 773.14,-67.4 783.66,-66.12 780.57,-59.84"/>
</g>
<!-- Node14 -->
<g id="node14" class="node">
<title>Node14</title>
<g id="a_node14"><a xlink:href="registers__window_8cpp.html" target="_top" xlink:title="This file implements a window that displays the contents of all CPU registers.">
<polygon fill="none" stroke="black" points="674.5,-0.5 674.5,-30.5 814.5,-30.5 814.5,-0.5 674.5,-0.5"/>
<text text-anchor="start" x="682.5" y="-18.5" font-family="Helvetica,sans-Serif" font-size="10.00">src/gui/windows/registers</text>
<text text-anchor="middle" x="744.5" y="-7.5" font-family="Helvetica,sans-Serif" font-size="10.00">_window.cpp</text>
</a>
</g>
</g>
<!-- Node13&#45;&gt;Node14 -->
<g id="edge15" class="edge">
<title>Node13&#45;&gt;Node14</title>
<path fill="none" stroke="midnightblue" d="M744.5,-57.11C744.5,-48.15 744.5,-38.32 744.5,-30.58"/>
<polygon fill="midnightblue" stroke="midnightblue" points="741,-57.4 744.5,-67.4 748,-57.4 741,-57.4"/>
</g>
<!-- Node15&#45;&gt;Node9 -->
<g id="edge17" class="edge">
<title>Node15&#45;&gt;Node9</title>
<path fill="none" stroke="midnightblue" d="M889.78,-57.6C886.12,-46.28 881.98,-33.46 879.31,-25.19"/>
<polygon fill="midnightblue" stroke="midnightblue" points="886.54,-58.96 892.94,-67.4 893.2,-56.8 886.54,-58.96"/>
</g>
<!-- Node16 -->
<g id="node16" class="node">
<title>Node16</title>
<g id="a_node16"><a xlink:href="source__code__window_8cpp.html" target="_top" xlink:title="This file implements a window that displays loaded ELF files (disassembled instructions of the source...">
<polygon fill="none" stroke="black" points="938.5,-0.5 938.5,-30.5 1068.5,-30.5 1068.5,-0.5 938.5,-0.5"/>
<text text-anchor="start" x="946.5" y="-18.5" font-family="Helvetica,sans-Serif" font-size="10.00">src/gui/windows/source</text>
<text text-anchor="middle" x="1003.5" y="-7.5" font-family="Helvetica,sans-Serif" font-size="10.00">_code_window.cpp</text>
</a>
</g>
</g>
<!-- Node15&#45;&gt;Node16 -->
<g id="edge18" class="edge">
<title>Node15&#45;&gt;Node16</title>
<path fill="none" stroke="midnightblue" d="M929.28,-62.02C945.77,-51.9 965.55,-39.77 980.54,-30.58"/>
<polygon fill="midnightblue" stroke="midnightblue" points="927.2,-59.18 920.5,-67.4 930.85,-65.15 927.2,-59.18"/>
</g>
<!-- Node17&#45;&gt;Node9 -->
<g id="edge20" class="edge">
<title>Node17&#45;&gt;Node9</title>
<path fill="none" stroke="midnightblue" d="M993.22,-63.62C962.05,-51.04 921.74,-34.77 897.57,-25.01"/>
<polygon fill="midnightblue" stroke="midnightblue" points="991.98,-66.9 1002.57,-67.4 994.6,-60.41 991.98,-66.9"/>
</g>
<!-- Node18 -->
<g id="node18" class="node">
<title>Node18</title>
<g id="a_node18"><a xlink:href="top__bar__menu_8cpp.html" target="_top" xlink:title=" ">
<polygon fill="none" stroke="black" points="1087,-0.5 1087,-30.5 1200,-30.5 1200,-0.5 1087,-0.5"/>
<text text-anchor="start" x="1095" y="-18.5" font-family="Helvetica,sans-Serif" font-size="10.00">src/gui/windows/top</text>
<text text-anchor="middle" x="1143.5" y="-7.5" font-family="Helvetica,sans-Serif" font-size="10.00">_bar_menu.cpp</text>
</a>
</g>
</g>
<!-- Node17&#45;&gt;Node18 -->
<g id="edge21" class="edge">
<title>Node17&#45;&gt;Node18</title>
<path fill="none" stroke="midnightblue" d="M1069.28,-62.02C1085.77,-51.9 1105.55,-39.77 1120.54,-30.58"/>
<polygon fill="midnightblue" stroke="midnightblue" points="1067.2,-59.18 1060.5,-67.4 1070.85,-65.15 1067.2,-59.18"/>
</g>
</g>
</svg>
