<?xml version="1.0" encoding="UTF-8" standalone="no"?>
<!DOCTYPE svg PUBLIC "-//W3C//DTD SVG 1.1//EN"
 "http://www.w3.org/Graphics/SVG/1.1/DTD/svg11.dtd">
<!-- Generated by graphviz version 2.43.0 (0)
 -->
<!-- Title: src/core/peripherals/auxiliary/mini_uart.cpp Pages: 1 -->
<svg width="453pt" height="390pt"
 viewBox="0.00 0.00 452.90 390.00" xmlns="http://www.w3.org/2000/svg" xmlns:xlink="http://www.w3.org/1999/xlink">
<g id="graph0" class="graph" transform="scale(1 1) rotate(0) translate(4 386)">
<title>src/core/peripherals/auxiliary/mini_uart.cpp</title>
<!-- Node1 -->
<g id="Node000001" class="node">
<title>Node1</title>
<g id="a_Node000001"><a xlink:title="This file implements the Mini UART auxiliary peripheral used in BCM2835.">
<polygon fill="#999999" stroke="#666666" points="220,-382 88,-382 88,-352 220,-352 220,-382"/>
<text text-anchor="start" x="96" y="-370" font-family="Helvetica,sans-Serif" font-size="10.00">src/core/peripherals</text>
<text text-anchor="middle" x="154" y="-359" font-family="Helvetica,sans-Serif" font-size="10.00">/auxiliary/mini_uart.cpp</text>
</a>
</g>
</g>
<!-- Node2 -->
<g id="Node000002" class="node">
<title>Node2</title>
<g id="a_Node000002"><a xlink:href="mini__uart_8hpp.html" target="_top" xlink:title="This file defines the Mini UART auxiliary peripheral used in BCM2835.">
<polygon fill="white" stroke="#666666" points="84,-261 0,-261 0,-242 84,-242 84,-261"/>
<text text-anchor="middle" x="42" y="-249" font-family="Helvetica,sans-Serif" font-size="10.00">mini_uart.hpp</text>
</a>
</g>
</g>
<!-- Node1&#45;&gt;Node2 -->
<g id="edge1_Node000001_Node000002" class="edge">
<title>Node1&#45;&gt;Node2</title>
<g id="a_edge1_Node000001_Node000002"><a xlink:title=" ">
<path fill="none" stroke="#63b8ff" d="M139.82,-351.63C118.85,-330.37 79.7,-290.71 57.83,-268.54"/>
<polygon fill="#63b8ff" stroke="#63b8ff" points="60.13,-265.89 50.61,-261.23 55.15,-270.81 60.13,-265.89"/>
</a>
</g>
</g>
<!-- Node3 -->
<g id="Node000003" class="node">
<title>Node3</title>
<g id="a_Node000003"><a xlink:href="auxiliary_8hpp.html" target="_top" xlink:title=" ">
<polygon fill="white" stroke="#666666" points="305.5,-316 226.5,-316 226.5,-297 305.5,-297 305.5,-316"/>
<text text-anchor="middle" x="266" y="-304" font-family="Helvetica,sans-Serif" font-size="10.00">auxiliary.hpp</text>
</a>
</g>
</g>
<!-- Node1&#45;&gt;Node3 -->
<g id="edge2_Node000001_Node000003" class="edge">
<title>Node1&#45;&gt;Node3</title>
<g id="a_edge2_Node000001_Node000003"><a xlink:title=" ">
<path fill="none" stroke="#63b8ff" d="M180.83,-351.99C198.85,-342.58 222.46,-330.24 240.25,-320.95"/>
<polygon fill="#63b8ff" stroke="#63b8ff" points="242.22,-323.87 249.46,-316.14 238.98,-317.67 242.22,-323.87"/>
</a>
</g>
</g>
<!-- Node3&#45;&gt;Node2 -->
<g id="edge14_Node000003_Node000002" class="edge">
<title>Node3&#45;&gt;Node2</title>
<g id="a_edge14_Node000003_Node000002"><a xlink:title=" ">
<path fill="none" stroke="#63b8ff" d="M230.01,-296.98C191.51,-287.87 130.31,-273.4 88.26,-263.45"/>
<polygon fill="#63b8ff" stroke="#63b8ff" points="88.81,-259.98 78.27,-261.08 87.2,-266.79 88.81,-259.98"/>
</a>
</g>
</g>
<!-- Node4 -->
<g id="Node000004" class="node">
<title>Node4</title>
<g id="a_Node000004"><a xlink:href="gpio_8hpp.html" target="_top" xlink:title="This file defines the GPIO controller used in BCM2835.">
<polygon fill="white" stroke="#666666" points="170,-261 102,-261 102,-242 170,-242 170,-261"/>
<text text-anchor="middle" x="136" y="-249" font-family="Helvetica,sans-Serif" font-size="10.00">../gpio.hpp</text>
</a>
</g>
</g>
<!-- Node3&#45;&gt;Node4 -->
<g id="edge3_Node000003_Node000004" class="edge">
<title>Node3&#45;&gt;Node4</title>
<g id="a_edge3_Node000003_Node000004"><a xlink:title=" ">
<path fill="none" stroke="#63b8ff" d="M245.11,-296.98C223.92,-288.34 190.87,-274.87 166.7,-265.02"/>
<polygon fill="#63b8ff" stroke="#63b8ff" points="167.85,-261.7 157.27,-261.17 165.21,-268.19 167.85,-261.7"/>
</a>
</g>
</g>
<!-- Node5 -->
<g id="Node000005" class="node">
<title>Node5</title>
<g id="a_Node000005"><a xlink:href="peripheral_8hpp.html" target="_top" xlink:title="This file defines an interface for a memory&#45;mapped peripheral.">
<polygon fill="white" stroke="#666666" points="417.5,-140 330.5,-140 330.5,-121 417.5,-121 417.5,-140"/>
<text text-anchor="middle" x="374" y="-128" font-family="Helvetica,sans-Serif" font-size="10.00">peripheral.hpp</text>
</a>
</g>
</g>
<!-- Node3&#45;&gt;Node5 -->
<g id="edge15_Node000003_Node000005" class="edge">
<title>Node3&#45;&gt;Node5</title>
<g id="a_edge15_Node000003_Node000005"><a xlink:title=" ">
<path fill="none" stroke="#63b8ff" d="M305.62,-298.17C327.47,-292 353.11,-280.87 368,-261 392.43,-228.39 385.31,-177.13 379.04,-149.91"/>
<polygon fill="#63b8ff" stroke="#63b8ff" points="382.42,-148.99 376.58,-140.14 375.63,-150.7 382.42,-148.99"/>
</a>
</g>
</g>
<!-- Node6 -->
<g id="Node000006" class="node">
<title>Node6</title>
<g id="a_Node000006"><a xlink:href="interrupt__controller_8hpp.html" target="_top" xlink:title="This file defines the interrupt controller used in BCM2835.">
<polygon fill="white" stroke="#666666" points="343.5,-200.5 212.5,-200.5 212.5,-181.5 343.5,-181.5 343.5,-200.5"/>
<text text-anchor="middle" x="278" y="-188.5" font-family="Helvetica,sans-Serif" font-size="10.00">interrupt_controller.hpp</text>
</a>
</g>
</g>
<!-- Node3&#45;&gt;Node6 -->
<g id="edge17_Node000003_Node000006" class="edge">
<title>Node3&#45;&gt;Node6</title>
<g id="a_edge17_Node000003_Node000006"><a xlink:title=" ">
<path fill="none" stroke="#63b8ff" d="M301.44,-296.99C320.26,-290.48 341.76,-279.38 353,-261 367.31,-237.61 336.81,-217.25 310.51,-204.83"/>
<polygon fill="#63b8ff" stroke="#63b8ff" points="311.66,-201.51 301.1,-200.62 308.8,-207.9 311.66,-201.51"/>
</a>
</g>
</g>
<!-- Node8 -->
<g id="Node000008" class="node">
<title>Node8</title>
<g id="a_Node000008"><a xlink:href="logging__system_8hpp.html" target="_top" xlink:title="This file defines a logging system that is used in the project.">
<polygon fill="white" stroke="#666666" points="263.5,-85 132.5,-85 132.5,-55 263.5,-55 263.5,-85"/>
<text text-anchor="start" x="140.5" y="-73" font-family="Helvetica,sans-Serif" font-size="10.00">zero_mate/utils/logging</text>
<text text-anchor="middle" x="198" y="-62" font-family="Helvetica,sans-Serif" font-size="10.00">_system.hpp</text>
</a>
</g>
</g>
<!-- Node3&#45;&gt;Node8 -->
<g id="edge18_Node000003_Node000008" class="edge">
<title>Node3&#45;&gt;Node8</title>
<g id="a_edge18_Node000003_Node000008"><a xlink:title=" ">
<path fill="none" stroke="#63b8ff" d="M305.64,-299.81C331.67,-294.12 364.71,-282.91 386,-261 431.19,-214.51 467.66,-171.5 427,-121 407.88,-97.25 332.7,-84.18 273.62,-77.41"/>
<polygon fill="#63b8ff" stroke="#63b8ff" points="273.87,-73.92 263.55,-76.3 273.1,-80.88 273.87,-73.92"/>
</a>
</g>
</g>
<!-- Node11 -->
<g id="Node000011" class="node">
<title>Node11</title>
<g id="a_Node000011"><a xlink:href="system__clock__listener_8hpp.html" target="_top" xlink:title="This file defines an interface for a CPU clock listener.">
<polygon fill="white" stroke="#666666" points="343.5,-261 188.5,-261 188.5,-242 343.5,-242 343.5,-261"/>
<text text-anchor="middle" x="266" y="-249" font-family="Helvetica,sans-Serif" font-size="10.00">../system_clock_listener.hpp</text>
</a>
</g>
</g>
<!-- Node3&#45;&gt;Node11 -->
<g id="edge16_Node000003_Node000011" class="edge">
<title>Node3&#45;&gt;Node11</title>
<g id="a_edge16_Node000003_Node000011"><a xlink:title=" ">
<path fill="none" stroke="#63b8ff" d="M266,-296.75C266,-289.8 266,-279.85 266,-271.13"/>
<polygon fill="#63b8ff" stroke="#63b8ff" points="269.5,-271.09 266,-261.09 262.5,-271.09 269.5,-271.09"/>
</a>
</g>
</g>
<!-- Node4&#45;&gt;Node5 -->
<g id="edge4_Node000004_Node000005" class="edge">
<title>Node4&#45;&gt;Node5</title>
<g id="a_edge4_Node000004_Node000005"><a xlink:title=" ">
<path fill="none" stroke="#63b8ff" d="M170.06,-243.75C230.72,-231.69 351.31,-207.57 353,-206 368.27,-191.8 372.74,-167.44 373.9,-150.45"/>
<polygon fill="#63b8ff" stroke="#63b8ff" points="377.41,-150.21 374.26,-140.09 370.41,-149.96 377.41,-150.21"/>
</a>
</g>
</g>
<!-- Node4&#45;&gt;Node6 -->
<g id="edge5_Node000004_Node000006" class="edge">
<title>Node4&#45;&gt;Node6</title>
<g id="a_edge5_Node000004_Node000006"><a xlink:title=" ">
<path fill="none" stroke="#63b8ff" d="M156.65,-241.99C180.63,-232.12 220.39,-215.73 247.83,-204.43"/>
<polygon fill="#63b8ff" stroke="#63b8ff" points="249.41,-207.56 257.33,-200.52 246.75,-201.09 249.41,-207.56"/>
</a>
</g>
</g>
<!-- Node4&#45;&gt;Node8 -->
<g id="edge11_Node000004_Node000008" class="edge">
<title>Node4&#45;&gt;Node8</title>
<g id="a_edge11_Node000004_Node000008"><a xlink:title=" ">
<path fill="none" stroke="#63b8ff" d="M114.21,-241.87C99.36,-234.69 80.84,-222.91 72,-206 65.82,-194.18 68.44,-188.85 72,-176 79.61,-148.53 84.37,-140.68 105,-121 118.53,-108.1 136.04,-97.54 152.21,-89.5"/>
<polygon fill="#63b8ff" stroke="#63b8ff" points="154.01,-92.52 161.53,-85.07 151,-86.2 154.01,-92.52"/>
</a>
</g>
</g>
<!-- Node10 -->
<g id="Node000010" class="node">
<title>Node10</title>
<g id="a_Node000010"><a xlink:href="external__peripheral_8hpp.html" target="_top" xlink:title="This file defines an interface for external peripherals that can be attached to the system via GPIO p...">
<polygon fill="white" stroke="#666666" points="193,-206 81,-206 81,-176 193,-176 193,-206"/>
<text text-anchor="start" x="89" y="-194" font-family="Helvetica,sans-Serif" font-size="10.00">zero_mate/external</text>
<text text-anchor="middle" x="137" y="-183" font-family="Helvetica,sans-Serif" font-size="10.00">_peripheral.hpp</text>
</a>
</g>
</g>
<!-- Node4&#45;&gt;Node10 -->
<g id="edge12_Node000004_Node000010" class="edge">
<title>Node4&#45;&gt;Node10</title>
<g id="a_edge12_Node000004_Node000010"><a xlink:title=" ">
<path fill="none" stroke="#63b8ff" d="M136.15,-241.87C136.26,-235.11 136.43,-225.35 136.59,-216.26"/>
<polygon fill="#63b8ff" stroke="#63b8ff" points="140.09,-216.17 136.76,-206.11 133.09,-216.05 140.09,-216.17"/>
</a>
</g>
</g>
<!-- Node6&#45;&gt;Node5 -->
<g id="edge6_Node000006_Node000005" class="edge">
<title>Node6&#45;&gt;Node5</title>
<g id="a_edge6_Node000006_Node000005"><a xlink:title=" ">
<path fill="none" stroke="#63b8ff" d="M292.17,-181.37C307.69,-171.91 332.83,-156.59 351.15,-145.42"/>
<polygon fill="#63b8ff" stroke="#63b8ff" points="353.06,-148.36 359.78,-140.17 349.42,-142.38 353.06,-148.36"/>
</a>
</g>
</g>
<!-- Node7 -->
<g id="Node000007" class="node">
<title>Node7</title>
<g id="a_Node000007"><a xlink:href="context_8hpp.html" target="_top" xlink:title="This file defines the context (registers) of the CPU.">
<polygon fill="white" stroke="#666666" points="274,-140 122,-140 122,-121 274,-121 274,-140"/>
<text text-anchor="middle" x="198" y="-128" font-family="Helvetica,sans-Serif" font-size="10.00">../arm1176jzf_s/context.hpp</text>
</a>
</g>
</g>
<!-- Node6&#45;&gt;Node7 -->
<g id="edge7_Node000006_Node000007" class="edge">
<title>Node6&#45;&gt;Node7</title>
<g id="a_edge7_Node000006_Node000007"><a xlink:title=" ">
<path fill="none" stroke="#63b8ff" d="M266.2,-181.37C253.55,-172.12 233.26,-157.28 218.09,-146.19"/>
<polygon fill="#63b8ff" stroke="#63b8ff" points="219.99,-143.24 209.85,-140.17 215.86,-148.9 219.99,-143.24"/>
</a>
</g>
</g>
<!-- Node6&#45;&gt;Node8 -->
<g id="edge10_Node000006_Node000008" class="edge">
<title>Node6&#45;&gt;Node8</title>
<g id="a_edge10_Node000006_Node000008"><a xlink:title=" ">
<path fill="none" stroke="#63b8ff" d="M281.57,-181.25C286.59,-167.44 293.97,-140.18 283,-121 275.26,-107.47 262.27,-97.24 248.75,-89.67"/>
<polygon fill="#63b8ff" stroke="#63b8ff" points="250.33,-86.55 239.84,-85.07 247.12,-92.77 250.33,-86.55"/>
</a>
</g>
</g>
<!-- Node7&#45;&gt;Node8 -->
<g id="edge8_Node000007_Node000008" class="edge">
<title>Node7&#45;&gt;Node8</title>
<g id="a_edge8_Node000007_Node000008"><a xlink:title=" ">
<path fill="none" stroke="#63b8ff" d="M198,-120.87C198,-114.11 198,-104.35 198,-95.26"/>
<polygon fill="#63b8ff" stroke="#63b8ff" points="201.5,-95.11 198,-85.11 194.5,-95.11 201.5,-95.11"/>
</a>
</g>
</g>
<!-- Node9 -->
<g id="Node000009" class="node">
<title>Node9</title>
<g id="a_Node000009"><a xlink:href="logger_8hpp.html" target="_top" xlink:title="This file defines a general logger interface.">
<polygon fill="white" stroke="#666666" points="232,-19 164,-19 164,0 232,0 232,-19"/>
<text text-anchor="middle" x="198" y="-7" font-family="Helvetica,sans-Serif" font-size="10.00">logger.hpp</text>
</a>
</g>
</g>
<!-- Node8&#45;&gt;Node9 -->
<g id="edge9_Node000008_Node000009" class="edge">
<title>Node8&#45;&gt;Node9</title>
<g id="a_edge9_Node000008_Node000009"><a xlink:title=" ">
<path fill="none" stroke="#63b8ff" d="M198,-54.84C198,-47.21 198,-37.7 198,-29.45"/>
<polygon fill="#63b8ff" stroke="#63b8ff" points="201.5,-29.27 198,-19.27 194.5,-29.27 201.5,-29.27"/>
</a>
</g>
</g>
<!-- Node10&#45;&gt;Node8 -->
<g id="edge13_Node000010_Node000008" class="edge">
<title>Node10&#45;&gt;Node8</title>
<g id="a_edge13_Node000010_Node000008"><a xlink:title=" ">
<path fill="none" stroke="#63b8ff" d="M125.35,-175.87C114.97,-161.45 102.86,-138.73 113,-121 120.74,-107.47 133.73,-97.24 147.25,-89.67"/>
<polygon fill="#63b8ff" stroke="#63b8ff" points="148.88,-92.77 156.16,-85.07 145.67,-86.55 148.88,-92.77"/>
</a>
</g>
</g>
</g>
</svg>
