<?xml version="1.0" encoding="UTF-8" standalone="no"?>
<!DOCTYPE svg PUBLIC "-//W3C//DTD SVG 1.1//EN"
 "http://www.w3.org/Graphics/SVG/1.1/DTD/svg11.dtd">
<!-- Generated by graphviz version 2.43.0 (0)
 -->
<!-- Title: src/core/arm1176jzf_s/mmu/mmu.cpp Pages: 1 -->
<svg width="1053pt" height="456pt"
 viewBox="0.00 0.00 1053.00 456.00" xmlns="http://www.w3.org/2000/svg" xmlns:xlink="http://www.w3.org/1999/xlink">
<g id="graph0" class="graph" transform="scale(1 1) rotate(0) translate(4 452)">
<title>src/core/arm1176jzf_s/mmu/mmu.cpp</title>
<!-- Node1 -->
<g id="Node000001" class="node">
<title>Node1</title>
<g id="a_Node000001"><a xlink:title="This file implements the MMU (memory management unit) of the CPU.">
<polygon fill="#999999" stroke="#666666" points="511,-448 398,-448 398,-418 511,-418 511,-448"/>
<text text-anchor="start" x="406" y="-436" font-family="Helvetica,sans-Serif" font-size="10.00">src/core/arm1176jzf</text>
<text text-anchor="middle" x="454.5" y="-425" font-family="Helvetica,sans-Serif" font-size="10.00">_s/mmu/mmu.cpp</text>
</a>
</g>
</g>
<!-- Node2 -->
<g id="Node000002" class="node">
<title>Node2</title>
<g id="a_Node000002"><a xlink:href="mmu_8hpp.html" target="_top" xlink:title="This file defines the MMU (memory management unit) of the CPU.">
<polygon fill="white" stroke="#666666" points="486,-382 423,-382 423,-363 486,-363 486,-382"/>
<text text-anchor="middle" x="454.5" y="-370" font-family="Helvetica,sans-Serif" font-size="10.00">mmu.hpp</text>
</a>
</g>
</g>
<!-- Node1&#45;&gt;Node2 -->
<g id="edge1_Node000001_Node000002" class="edge">
<title>Node1&#45;&gt;Node2</title>
<g id="a_edge1_Node000001_Node000002"><a xlink:title=" ">
<path fill="none" stroke="#63b8ff" d="M454.5,-417.84C454.5,-410.21 454.5,-400.7 454.5,-392.45"/>
<polygon fill="#63b8ff" stroke="#63b8ff" points="458,-392.27 454.5,-382.27 451,-392.27 458,-392.27"/>
</a>
</g>
</g>
<!-- Node3 -->
<g id="Node000003" class="node">
<title>Node3</title>
<g id="a_Node000003"><a xlink:href="bus_8hpp.html" target="_top" xlink:title="This file defines an interface the CPU uses to access different memory&#45;mapped peripherals.">
<polygon fill="white" stroke="#666666" points="545,-327 472,-327 472,-308 545,-308 545,-327"/>
<text text-anchor="middle" x="508.5" y="-315" font-family="Helvetica,sans-Serif" font-size="10.00">../../bus.hpp</text>
</a>
</g>
</g>
<!-- Node2&#45;&gt;Node3 -->
<g id="edge2_Node000002_Node000003" class="edge">
<title>Node2&#45;&gt;Node3</title>
<g id="a_edge2_Node000002_Node000003"><a xlink:title=" ">
<path fill="none" stroke="#63b8ff" d="M463.42,-362.75C471.28,-355.03 482.93,-343.6 492.42,-334.28"/>
<polygon fill="#63b8ff" stroke="#63b8ff" points="495.06,-336.59 499.75,-327.09 490.16,-331.6 495.06,-336.59"/>
</a>
</g>
</g>
<!-- Node4 -->
<g id="Node000004" class="node">
<title>Node4</title>
<g id="a_Node000004"><a xlink:href="cp15_8hpp.html" target="_top" xlink:title="This file defines coprocessor CP15.">
<polygon fill="white" stroke="#666666" points="368.5,-272 214.5,-272 214.5,-253 368.5,-253 368.5,-272"/>
<text text-anchor="middle" x="291.5" y="-260" font-family="Helvetica,sans-Serif" font-size="10.00">coprocessors/cp15/cp15.hpp</text>
</a>
</g>
</g>
<!-- Node2&#45;&gt;Node4 -->
<g id="edge35_Node000002_Node000004" class="edge">
<title>Node2&#45;&gt;Node4</title>
<g id="a_edge35_Node000002_Node000004"><a xlink:title=" ">
<path fill="none" stroke="#63b8ff" d="M441.44,-362.84C413.42,-344.28 347.32,-300.49 313.01,-277.75"/>
<polygon fill="#63b8ff" stroke="#63b8ff" points="314.9,-274.8 304.63,-272.2 311.03,-280.64 314.9,-274.8"/>
</a>
</g>
</g>
<!-- Node14 -->
<g id="Node000014" class="node">
<title>Node14</title>
<g id="a_Node000014"><a xlink:href="context_8hpp.html" target="_top" xlink:title="This file defines the context (registers) of the CPU.">
<polygon fill="white" stroke="#666666" points="523.5,-151 371.5,-151 371.5,-132 523.5,-132 523.5,-151"/>
<text text-anchor="middle" x="447.5" y="-139" font-family="Helvetica,sans-Serif" font-size="10.00">../arm1176jzf_s/context.hpp</text>
</a>
</g>
</g>
<!-- Node2&#45;&gt;Node14 -->
<g id="edge34_Node000002_Node000014" class="edge">
<title>Node2&#45;&gt;Node14</title>
<g id="a_edge34_Node000002_Node000014"><a xlink:title=" ">
<path fill="none" stroke="#63b8ff" d="M452.97,-362.75C450.03,-345.48 443.69,-305.73 441.5,-272 438.94,-232.66 442.69,-186.52 445.32,-161.31"/>
<polygon fill="#63b8ff" stroke="#63b8ff" points="448.8,-161.62 446.42,-151.3 441.85,-160.86 448.8,-161.62"/>
</a>
</g>
</g>
<!-- Node22 -->
<g id="Node000022" class="node">
<title>Node22</title>
<g id="a_Node000022"><a xlink:href="page__table_8hpp.html" target="_top" xlink:title="This file defines a page table.">
<polygon fill="white" stroke="#666666" points="769.5,-327 677.5,-327 677.5,-308 769.5,-308 769.5,-327"/>
<text text-anchor="middle" x="723.5" y="-315" font-family="Helvetica,sans-Serif" font-size="10.00">page_table.hpp</text>
</a>
</g>
</g>
<!-- Node2&#45;&gt;Node22 -->
<g id="edge32_Node000002_Node000022" class="edge">
<title>Node2&#45;&gt;Node22</title>
<g id="a_edge32_Node000002_Node000022"><a xlink:title=" ">
<path fill="none" stroke="#63b8ff" d="M486.15,-365.26C531.39,-356.35 615.13,-339.85 670.07,-329.03"/>
<polygon fill="#63b8ff" stroke="#63b8ff" points="670.85,-332.44 679.98,-327.07 669.49,-325.57 670.85,-332.44"/>
</a>
</g>
</g>
<!-- Node3&#45;&gt;Node4 -->
<g id="edge3_Node000003_Node000004" class="edge">
<title>Node3&#45;&gt;Node4</title>
<g id="a_edge3_Node000003_Node000004"><a xlink:title=" ">
<path fill="none" stroke="#63b8ff" d="M473.64,-307.98C436.41,-298.89 377.3,-284.46 336.57,-274.51"/>
<polygon fill="#63b8ff" stroke="#63b8ff" points="337.18,-271.05 326.64,-272.08 335.52,-277.85 337.18,-271.05"/>
</a>
</g>
</g>
<!-- Node19 -->
<g id="Node000019" class="node">
<title>Node19</title>
<g id="a_Node000019"><a xlink:href="peripheral_8hpp.html" target="_top" xlink:title="This file defines an interface for a memory&#45;mapped peripheral.">
<polygon fill="white" stroke="#666666" points="774,-272 629,-272 629,-253 774,-253 774,-272"/>
<text text-anchor="middle" x="701.5" y="-260" font-family="Helvetica,sans-Serif" font-size="10.00">peripherals/peripheral.hpp</text>
</a>
</g>
</g>
<!-- Node3&#45;&gt;Node19 -->
<g id="edge28_Node000003_Node000019" class="edge">
<title>Node3&#45;&gt;Node19</title>
<g id="a_edge28_Node000003_Node000019"><a xlink:title=" ">
<path fill="none" stroke="#63b8ff" d="M539.51,-307.98C572.33,-298.97 624.3,-284.7 660.49,-274.76"/>
<polygon fill="#63b8ff" stroke="#63b8ff" points="661.53,-278.11 670.25,-272.08 659.68,-271.36 661.53,-278.11"/>
</a>
</g>
</g>
<!-- Node20 -->
<g id="Node000020" class="node">
<title>Node20</title>
<g id="a_Node000020"><a xlink:href="exceptions_8hpp.html" target="_top" xlink:title="This file defines all exceptions that can be thrown by the CPU during execution.">
<polygon fill="white" stroke="#666666" points="610.5,-272 450.5,-272 450.5,-253 610.5,-253 610.5,-272"/>
<text text-anchor="middle" x="530.5" y="-260" font-family="Helvetica,sans-Serif" font-size="10.00">arm1176jzf_s/exceptions.hpp</text>
</a>
</g>
</g>
<!-- Node3&#45;&gt;Node20 -->
<g id="edge29_Node000003_Node000020" class="edge">
<title>Node3&#45;&gt;Node20</title>
<g id="a_edge29_Node000003_Node000020"><a xlink:title=" ">
<path fill="none" stroke="#63b8ff" d="M512.13,-307.75C515.08,-300.65 519.33,-290.4 523.01,-281.56"/>
<polygon fill="#63b8ff" stroke="#63b8ff" points="526.33,-282.67 526.93,-272.09 519.87,-279.98 526.33,-282.67"/>
</a>
</g>
</g>
<!-- Node5 -->
<g id="Node000005" class="node">
<title>Node5</title>
<g id="a_Node000005"><a xlink:href="c1_8hpp.html" target="_top" xlink:title="This file defines the primary register C1 of coprocessor CP15.">
<polygon fill="white" stroke="#666666" points="49,-217 0,-217 0,-198 49,-198 49,-217"/>
<text text-anchor="middle" x="24.5" y="-205" font-family="Helvetica,sans-Serif" font-size="10.00">c1.hpp</text>
</a>
</g>
</g>
<!-- Node4&#45;&gt;Node5 -->
<g id="edge4_Node000004_Node000005" class="edge">
<title>Node4&#45;&gt;Node5</title>
<g id="a_edge4_Node000004_Node000005"><a xlink:title=" ">
<path fill="none" stroke="#63b8ff" d="M246.02,-252.93C199.96,-244.17 126.69,-230.05 63.5,-217 62.06,-216.7 60.59,-216.4 59.1,-216.08"/>
<polygon fill="#63b8ff" stroke="#63b8ff" points="59.75,-212.64 49.24,-213.98 58.29,-219.49 59.75,-212.64"/>
</a>
</g>
</g>
<!-- Node6 -->
<g id="Node000006" class="node">
<title>Node6</title>
<g id="a_Node000006"><a xlink:href="primary__reg_8hpp.html" target="_top" xlink:title="This file defines a primary register interface of coprocessor CP15.">
<polygon fill="white" stroke="#666666" points="246,-151 149,-151 149,-132 246,-132 246,-151"/>
<text text-anchor="middle" x="197.5" y="-139" font-family="Helvetica,sans-Serif" font-size="10.00">primary_reg.hpp</text>
</a>
</g>
</g>
<!-- Node4&#45;&gt;Node6 -->
<g id="edge17_Node000004_Node000006" class="edge">
<title>Node4&#45;&gt;Node6</title>
<g id="a_edge17_Node000004_Node000006"><a xlink:title=" ">
<path fill="none" stroke="#63b8ff" d="M214.4,-253.72C166.54,-247.12 111.38,-235.66 96.5,-217 74.61,-189.56 120.27,-167.15 157.13,-154.31"/>
<polygon fill="#63b8ff" stroke="#63b8ff" points="158.37,-157.58 166.75,-151.1 156.15,-150.95 158.37,-157.58"/>
</a>
</g>
</g>
<!-- Node7 -->
<g id="Node000007" class="node">
<title>Node7</title>
<g id="a_Node000007"><a xlink:href="logging__system_8hpp.html" target="_top" xlink:title="This file defines a logging system that is used in the project.">
<polygon fill="white" stroke="#666666" points="346,-85 215,-85 215,-55 346,-55 346,-85"/>
<text text-anchor="start" x="223" y="-73" font-family="Helvetica,sans-Serif" font-size="10.00">zero_mate/utils/logging</text>
<text text-anchor="middle" x="280.5" y="-62" font-family="Helvetica,sans-Serif" font-size="10.00">_system.hpp</text>
</a>
</g>
</g>
<!-- Node4&#45;&gt;Node7 -->
<g id="edge27_Node000004_Node000007" class="edge">
<title>Node4&#45;&gt;Node7</title>
<g id="a_edge27_Node000004_Node000007"><a xlink:title=" ">
<path fill="none" stroke="#63b8ff" d="M318.07,-252.94C334.63,-246.06 354.62,-234.6 364.5,-217 368.63,-209.64 366.93,-206.09 364.5,-198 352.1,-156.79 321.5,-116.63 300.86,-92.85"/>
<polygon fill="#63b8ff" stroke="#63b8ff" points="303.28,-90.31 294.02,-85.15 298.05,-94.95 303.28,-90.31"/>
</a>
</g>
</g>
<!-- Node9 -->
<g id="Node000009" class="node">
<title>Node9</title>
<g id="a_Node000009"><a xlink:href="c2_8hpp.html" target="_top" xlink:title="This file defines the primary register C2 of coprocessor CP15.">
<polygon fill="white" stroke="#666666" points="155,-217 106,-217 106,-198 155,-198 155,-217"/>
<text text-anchor="middle" x="130.5" y="-205" font-family="Helvetica,sans-Serif" font-size="10.00">c2.hpp</text>
</a>
</g>
</g>
<!-- Node4&#45;&gt;Node9 -->
<g id="edge9_Node000004_Node000009" class="edge">
<title>Node4&#45;&gt;Node9</title>
<g id="a_edge9_Node000004_Node000009"><a xlink:title=" ">
<path fill="none" stroke="#63b8ff" d="M265.63,-252.98C238.32,-243.99 195.12,-229.77 164.94,-219.84"/>
<polygon fill="#63b8ff" stroke="#63b8ff" points="165.84,-216.45 155.25,-216.65 163.65,-223.1 165.84,-216.45"/>
</a>
</g>
</g>
<!-- Node10 -->
<g id="Node000010" class="node">
<title>Node10</title>
<g id="a_Node000010"><a xlink:href="c3_8hpp.html" target="_top" xlink:title="This file defines the primary register C3 of coprocessor CP15.">
<polygon fill="white" stroke="#666666" points="222,-217 173,-217 173,-198 222,-198 222,-217"/>
<text text-anchor="middle" x="197.5" y="-205" font-family="Helvetica,sans-Serif" font-size="10.00">c3.hpp</text>
</a>
</g>
</g>
<!-- Node4&#45;&gt;Node10 -->
<g id="edge11_Node000004_Node000010" class="edge">
<title>Node4&#45;&gt;Node10</title>
<g id="a_edge11_Node000004_Node000010"><a xlink:title=" ">
<path fill="none" stroke="#63b8ff" d="M276.4,-252.98C261.68,-244.69 239.08,-231.94 221.83,-222.22"/>
<polygon fill="#63b8ff" stroke="#63b8ff" points="223.31,-219.03 212.88,-217.17 219.87,-225.13 223.31,-219.03"/>
</a>
</g>
</g>
<!-- Node11 -->
<g id="Node000011" class="node">
<title>Node11</title>
<g id="a_Node000011"><a xlink:href="c7_8hpp.html" target="_top" xlink:title="This file defines the primary register C7 of coprocessor CP15.">
<polygon fill="white" stroke="#666666" points="289,-217 240,-217 240,-198 289,-198 289,-217"/>
<text text-anchor="middle" x="264.5" y="-205" font-family="Helvetica,sans-Serif" font-size="10.00">c7.hpp</text>
</a>
</g>
</g>
<!-- Node4&#45;&gt;Node11 -->
<g id="edge13_Node000004_Node000011" class="edge">
<title>Node4&#45;&gt;Node11</title>
<g id="a_edge13_Node000004_Node000011"><a xlink:title=" ">
<path fill="none" stroke="#63b8ff" d="M287.04,-252.75C283.38,-245.57 278.09,-235.18 273.55,-226.27"/>
<polygon fill="#63b8ff" stroke="#63b8ff" points="276.53,-224.41 268.88,-217.09 270.3,-227.59 276.53,-224.41"/>
</a>
</g>
</g>
<!-- Node12 -->
<g id="Node000012" class="node">
<title>Node12</title>
<g id="a_Node000012"><a xlink:href="c8_8hpp.html" target="_top" xlink:title="This file defines the primary register C8 of coprocessor CP15.">
<polygon fill="white" stroke="#666666" points="356,-217 307,-217 307,-198 356,-198 356,-217"/>
<text text-anchor="middle" x="331.5" y="-205" font-family="Helvetica,sans-Serif" font-size="10.00">c8.hpp</text>
</a>
</g>
</g>
<!-- Node4&#45;&gt;Node12 -->
<g id="edge15_Node000004_Node000012" class="edge">
<title>Node4&#45;&gt;Node12</title>
<g id="a_edge15_Node000004_Node000012"><a xlink:title=" ">
<path fill="none" stroke="#63b8ff" d="M298.11,-252.75C303.76,-245.26 312.04,-234.28 318.95,-225.13"/>
<polygon fill="#63b8ff" stroke="#63b8ff" points="321.79,-227.18 325.02,-217.09 316.2,-222.96 321.79,-227.18"/>
</a>
</g>
</g>
<!-- Node13 -->
<g id="Node000013" class="node">
<title>Node13</title>
<g id="a_Node000013"><a xlink:href="coprocessor_8hpp.html" target="_top" xlink:title="This file defines a general interface of a coprocessor.">
<polygon fill="white" stroke="#666666" points="667.5,-217 563.5,-217 563.5,-198 667.5,-198 667.5,-217"/>
<text text-anchor="middle" x="615.5" y="-205" font-family="Helvetica,sans-Serif" font-size="10.00">../coprocessor.hpp</text>
</a>
</g>
</g>
<!-- Node4&#45;&gt;Node13 -->
<g id="edge18_Node000004_Node000013" class="edge">
<title>Node4&#45;&gt;Node13</title>
<g id="a_edge18_Node000004_Node000013"><a xlink:title=" ">
<path fill="none" stroke="#63b8ff" d="M343.56,-252.98C400.74,-243.63 492.54,-228.61 553.43,-218.65"/>
<polygon fill="#63b8ff" stroke="#63b8ff" points="554,-222.11 563.3,-217.04 552.87,-215.2 554,-222.11"/>
</a>
</g>
</g>
<!-- Node5&#45;&gt;Node6 -->
<g id="edge5_Node000005_Node000006" class="edge">
<title>Node5&#45;&gt;Node6</title>
<g id="a_edge5_Node000005_Node000006"><a xlink:title=" ">
<path fill="none" stroke="#63b8ff" d="M47.83,-197.87C77.97,-186.72 130.59,-167.25 164.73,-154.62"/>
<polygon fill="#63b8ff" stroke="#63b8ff" points="166.1,-157.85 174.26,-151.1 163.67,-151.28 166.1,-157.85"/>
</a>
</g>
</g>
<!-- Node5&#45;&gt;Node7 -->
<g id="edge8_Node000005_Node000007" class="edge">
<title>Node5&#45;&gt;Node7</title>
<g id="a_edge8_Node000005_Node000007"><a xlink:title=" ">
<path fill="none" stroke="#63b8ff" d="M33.98,-197.88C52.83,-181.1 96.92,-143.72 139.5,-121 164.7,-107.56 194.26,-96.44 219.79,-88.13"/>
<polygon fill="#63b8ff" stroke="#63b8ff" points="220.89,-91.45 229.36,-85.08 218.77,-84.78 220.89,-91.45"/>
</a>
</g>
</g>
<!-- Node6&#45;&gt;Node7 -->
<g id="edge6_Node000006_Node000007" class="edge">
<title>Node6&#45;&gt;Node7</title>
<g id="a_edge6_Node000006_Node000007"><a xlink:title=" ">
<path fill="none" stroke="#63b8ff" d="M207.68,-131.98C219.55,-122.04 239.59,-105.26 255.65,-91.81"/>
<polygon fill="#63b8ff" stroke="#63b8ff" points="258.2,-94.24 263.62,-85.14 253.7,-88.87 258.2,-94.24"/>
</a>
</g>
</g>
<!-- Node8 -->
<g id="Node000008" class="node">
<title>Node8</title>
<g id="a_Node000008"><a xlink:href="logger_8hpp.html" target="_top" xlink:title="This file defines a general logger interface.">
<polygon fill="white" stroke="#666666" points="314.5,-19 246.5,-19 246.5,0 314.5,0 314.5,-19"/>
<text text-anchor="middle" x="280.5" y="-7" font-family="Helvetica,sans-Serif" font-size="10.00">logger.hpp</text>
</a>
</g>
</g>
<!-- Node7&#45;&gt;Node8 -->
<g id="edge7_Node000007_Node000008" class="edge">
<title>Node7&#45;&gt;Node8</title>
<g id="a_edge7_Node000007_Node000008"><a xlink:title=" ">
<path fill="none" stroke="#63b8ff" d="M280.5,-54.84C280.5,-47.21 280.5,-37.7 280.5,-29.45"/>
<polygon fill="#63b8ff" stroke="#63b8ff" points="284,-29.27 280.5,-19.27 277,-29.27 284,-29.27"/>
</a>
</g>
</g>
<!-- Node9&#45;&gt;Node6 -->
<g id="edge10_Node000009_Node000006" class="edge">
<title>Node9&#45;&gt;Node6</title>
<g id="a_edge10_Node000009_Node000006"><a xlink:title=" ">
<path fill="none" stroke="#63b8ff" d="M139.54,-197.87C150.07,-187.81 167.69,-170.98 180.74,-158.51"/>
<polygon fill="#63b8ff" stroke="#63b8ff" points="183.36,-160.84 188.18,-151.41 178.53,-155.78 183.36,-160.84"/>
</a>
</g>
</g>
<!-- Node10&#45;&gt;Node6 -->
<g id="edge12_Node000010_Node000006" class="edge">
<title>Node10&#45;&gt;Node6</title>
<g id="a_edge12_Node000010_Node000006"><a xlink:title=" ">
<path fill="none" stroke="#63b8ff" d="M197.5,-197.87C197.5,-188.66 197.5,-173.79 197.5,-161.77"/>
<polygon fill="#63b8ff" stroke="#63b8ff" points="201,-161.41 197.5,-151.41 194,-161.41 201,-161.41"/>
</a>
</g>
</g>
<!-- Node11&#45;&gt;Node6 -->
<g id="edge14_Node000011_Node000006" class="edge">
<title>Node11&#45;&gt;Node6</title>
<g id="a_edge14_Node000011_Node000006"><a xlink:title=" ">
<path fill="none" stroke="#63b8ff" d="M255.46,-197.87C244.93,-187.81 227.31,-170.98 214.26,-158.51"/>
<polygon fill="#63b8ff" stroke="#63b8ff" points="216.47,-155.78 206.82,-151.41 211.64,-160.84 216.47,-155.78"/>
</a>
</g>
</g>
<!-- Node12&#45;&gt;Node6 -->
<g id="edge16_Node000012_Node000006" class="edge">
<title>Node12&#45;&gt;Node6</title>
<g id="a_edge16_Node000012_Node000006"><a xlink:title=" ">
<path fill="none" stroke="#63b8ff" d="M313.43,-197.87C290.65,-186.99 251.28,-168.19 224.82,-155.55"/>
<polygon fill="#63b8ff" stroke="#63b8ff" points="226.25,-152.35 215.71,-151.2 223.23,-158.67 226.25,-152.35"/>
</a>
</g>
</g>
<!-- Node13&#45;&gt;Node14 -->
<g id="edge19_Node000013_Node000014" class="edge">
<title>Node13&#45;&gt;Node14</title>
<g id="a_edge19_Node000013_Node000014"><a xlink:title=" ">
<path fill="none" stroke="#63b8ff" d="M592.84,-197.87C563.7,-186.77 512.91,-167.42 479.75,-154.78"/>
<polygon fill="#63b8ff" stroke="#63b8ff" points="480.66,-151.39 470.07,-151.1 478.16,-157.93 480.66,-151.39"/>
</a>
</g>
</g>
<!-- Node15 -->
<g id="Node000015" class="node">
<title>Node15</title>
<g id="a_Node000015"><a xlink:href="coprocessor__register__transfer_8hpp.html" target="_top" xlink:title="This file defines a coprocessor register transfer (MRC, MCR).">
<polygon fill="white" stroke="#666666" points="858,-162 737,-162 737,-121 858,-121 858,-162"/>
<text text-anchor="start" x="745" y="-150" font-family="Helvetica,sans-Serif" font-size="10.00">../arm1176jzf_s/isa</text>
<text text-anchor="start" x="745" y="-139" font-family="Helvetica,sans-Serif" font-size="10.00">/coprocessor_register</text>
<text text-anchor="middle" x="797.5" y="-128" font-family="Helvetica,sans-Serif" font-size="10.00">_transfer.hpp</text>
</a>
</g>
</g>
<!-- Node13&#45;&gt;Node15 -->
<g id="edge21_Node000013_Node000015" class="edge">
<title>Node13&#45;&gt;Node15</title>
<g id="a_edge21_Node000013_Node000015"><a xlink:title=" ">
<path fill="none" stroke="#63b8ff" d="M640.05,-197.87C663.61,-189.58 700.25,-176.7 732.26,-165.44"/>
<polygon fill="#63b8ff" stroke="#63b8ff" points="733.75,-168.63 742.02,-162.01 731.43,-162.02 733.75,-168.63"/>
</a>
</g>
</g>
<!-- Node17 -->
<g id="Node000017" class="node">
<title>Node17</title>
<g id="a_Node000017"><a xlink:href="coprocessor__data__transfer_8hpp.html" target="_top" xlink:title="This file defines a coprocessor data transfer (LDC, STC).">
<polygon fill="white" stroke="#666666" points="1045,-156.5 876,-156.5 876,-126.5 1045,-126.5 1045,-156.5"/>
<text text-anchor="start" x="884" y="-144.5" font-family="Helvetica,sans-Serif" font-size="10.00">../arm1176jzf_s/isa</text>
<text text-anchor="middle" x="960.5" y="-133.5" font-family="Helvetica,sans-Serif" font-size="10.00">/coprocessor_data_transfer.hpp</text>
</a>
</g>
</g>
<!-- Node13&#45;&gt;Node17 -->
<g id="edge23_Node000013_Node000017" class="edge">
<title>Node13&#45;&gt;Node17</title>
<g id="a_edge23_Node000013_Node000017"><a xlink:title=" ">
<path fill="none" stroke="#63b8ff" d="M666.75,-197.94C717.73,-189.31 798.14,-175.39 867.5,-162 873.21,-160.9 879.11,-159.73 885.03,-158.54"/>
<polygon fill="#63b8ff" stroke="#63b8ff" points="885.91,-161.93 895.01,-156.51 884.51,-155.07 885.91,-161.93"/>
</a>
</g>
</g>
<!-- Node18 -->
<g id="Node000018" class="node">
<title>Node18</title>
<g id="a_Node000018"><a xlink:href="coprocessor__data__operation_8hpp.html" target="_top" xlink:title="This file defines a coprocessor data operation (CDP).">
<polygon fill="white" stroke="#666666" points="719.5,-156.5 541.5,-156.5 541.5,-126.5 719.5,-126.5 719.5,-156.5"/>
<text text-anchor="start" x="549.5" y="-144.5" font-family="Helvetica,sans-Serif" font-size="10.00">../arm1176jzf_s/isa</text>
<text text-anchor="middle" x="630.5" y="-133.5" font-family="Helvetica,sans-Serif" font-size="10.00">/coprocessor_data_operation.hpp</text>
</a>
</g>
</g>
<!-- Node13&#45;&gt;Node18 -->
<g id="edge25_Node000013_Node000018" class="edge">
<title>Node13&#45;&gt;Node18</title>
<g id="a_edge25_Node000013_Node000018"><a xlink:title=" ">
<path fill="none" stroke="#63b8ff" d="M617.52,-197.87C619.39,-189.9 622.25,-177.7 624.81,-166.77"/>
<polygon fill="#63b8ff" stroke="#63b8ff" points="628.26,-167.4 627.13,-156.86 621.44,-165.8 628.26,-167.4"/>
</a>
</g>
</g>
<!-- Node14&#45;&gt;Node7 -->
<g id="edge20_Node000014_Node000007" class="edge">
<title>Node14&#45;&gt;Node7</title>
<g id="a_edge20_Node000014_Node000007"><a xlink:title=" ">
<path fill="none" stroke="#63b8ff" d="M427.02,-131.98C401.42,-121.32 356.91,-102.8 323.65,-88.96"/>
<polygon fill="#63b8ff" stroke="#63b8ff" points="324.73,-85.62 314.16,-85.01 322.04,-92.08 324.73,-85.62"/>
</a>
</g>
</g>
<!-- Node16 -->
<g id="Node000016" class="node">
<title>Node16</title>
<g id="a_Node000016"><a xlink:href="instruction_8hpp.html" target="_top" xlink:title="This file defines the interface of a general ARM instruction.">
<polygon fill="white" stroke="#666666" points="842,-79.5 753,-79.5 753,-60.5 842,-60.5 842,-79.5"/>
<text text-anchor="middle" x="797.5" y="-67.5" font-family="Helvetica,sans-Serif" font-size="10.00">instruction.hpp</text>
</a>
</g>
</g>
<!-- Node15&#45;&gt;Node16 -->
<g id="edge22_Node000015_Node000016" class="edge">
<title>Node15&#45;&gt;Node16</title>
<g id="a_edge22_Node000015_Node000016"><a xlink:title=" ">
<path fill="none" stroke="#63b8ff" d="M797.5,-120.77C797.5,-111.08 797.5,-99.46 797.5,-89.88"/>
<polygon fill="#63b8ff" stroke="#63b8ff" points="801,-89.82 797.5,-79.82 794,-89.82 801,-89.82"/>
</a>
</g>
</g>
<!-- Node17&#45;&gt;Node16 -->
<g id="edge24_Node000017_Node000016" class="edge">
<title>Node17&#45;&gt;Node16</title>
<g id="a_edge24_Node000017_Node000016"><a xlink:title=" ">
<path fill="none" stroke="#63b8ff" d="M927.51,-126.44C898.06,-113.88 855.3,-95.65 826.97,-83.57"/>
<polygon fill="#63b8ff" stroke="#63b8ff" points="828.17,-80.27 817.59,-79.57 825.42,-86.71 828.17,-80.27"/>
</a>
</g>
</g>
<!-- Node18&#45;&gt;Node16 -->
<g id="edge26_Node000018_Node000016" class="edge">
<title>Node18&#45;&gt;Node16</title>
<g id="a_edge26_Node000018_Node000016"><a xlink:title=" ">
<path fill="none" stroke="#63b8ff" d="M664.29,-126.44C694.48,-113.88 738.28,-95.65 767.31,-83.57"/>
<polygon fill="#63b8ff" stroke="#63b8ff" points="769.03,-86.64 776.91,-79.57 766.34,-80.18 769.03,-86.64"/>
</a>
</g>
</g>
<!-- Node20&#45;&gt;Node14 -->
<g id="edge31_Node000020_Node000014" class="edge">
<title>Node20&#45;&gt;Node14</title>
<g id="a_edge31_Node000020_Node000014"><a xlink:title=" ">
<path fill="none" stroke="#63b8ff" d="M524.53,-252.94C510.96,-233.48 477.56,-185.6 459.52,-159.74"/>
<polygon fill="#63b8ff" stroke="#63b8ff" points="462.23,-157.5 453.64,-151.3 456.49,-161.51 462.23,-157.5"/>
</a>
</g>
</g>
<!-- Node21 -->
<g id="Node000021" class="node">
<title>Node21</title>
<g id="a_Node000021"><a xlink:title=" ">
<polygon fill="#e0e0e0" stroke="#999999" points="765,-217 686,-217 686,-198 765,-198 765,-217"/>
<text text-anchor="middle" x="725.5" y="-205" font-family="Helvetica,sans-Serif" font-size="10.00">fmt/format.h</text>
</a>
</g>
</g>
<!-- Node20&#45;&gt;Node21 -->
<g id="edge30_Node000020_Node000021" class="edge">
<title>Node20&#45;&gt;Node21</title>
<g id="a_edge30_Node000020_Node000021"><a xlink:title=" ">
<path fill="none" stroke="#63b8ff" d="M561.83,-252.98C594.99,-243.97 647.5,-229.7 684.06,-219.76"/>
<polygon fill="#63b8ff" stroke="#63b8ff" points="685.19,-223.08 693.92,-217.08 683.36,-216.33 685.19,-223.08"/>
</a>
</g>
</g>
<!-- Node23 -->
<g id="Node000023" class="node">
<title>Node23</title>
<g id="a_Node000023"><a xlink:href="page__entry_8hpp.html" target="_top" xlink:title="This file defines a page table entry.">
<polygon fill="white" stroke="#666666" points="883,-272 792,-272 792,-253 883,-253 883,-272"/>
<text text-anchor="middle" x="837.5" y="-260" font-family="Helvetica,sans-Serif" font-size="10.00">page_entry.hpp</text>
</a>
</g>
</g>
<!-- Node22&#45;&gt;Node23 -->
<g id="edge33_Node000022_Node000023" class="edge">
<title>Node22&#45;&gt;Node23</title>
<g id="a_edge33_Node000022_Node000023"><a xlink:title=" ">
<path fill="none" stroke="#63b8ff" d="M741.82,-307.98C760.16,-299.46 788.61,-286.23 809.73,-276.41"/>
<polygon fill="#63b8ff" stroke="#63b8ff" points="811.26,-279.56 818.85,-272.17 808.31,-273.21 811.26,-279.56"/>
</a>
</g>
</g>
</g>
</svg>
