<?xml version="1.0" encoding="UTF-8" standalone="no"?>
<!DOCTYPE svg PUBLIC "-//W3C//DTD SVG 1.1//EN"
 "http://www.w3.org/Graphics/SVG/1.1/DTD/svg11.dtd">
<!-- Generated by graphviz version 2.43.0 (0)
 -->
<!-- Title: src/gui/windows/peripherals/monitor_window.hpp Pages: 1 -->
<svg width="240pt" height="159pt"
 viewBox="0.00 0.00 240.00 159.00" xmlns="http://www.w3.org/2000/svg" xmlns:xlink="http://www.w3.org/1999/xlink">
<g id="graph0" class="graph" transform="scale(1 1) rotate(0) translate(4 155)">
<title>src/gui/windows/peripherals/monitor_window.hpp</title>
<!-- Node1 -->
<g id="Node000001" class="node">
<title>Node1</title>
<g id="a_Node000001"><a xlink:title="This file defines a window that visualizes the memory&#45;mapped debug monitor.">
<polygon fill="#999999" stroke="#666666" points="184,-151 32,-151 32,-121 184,-121 184,-151"/>
<text text-anchor="start" x="40" y="-139" font-family="Helvetica,sans-Serif" font-size="10.00">src/gui/windows/peripherals</text>
<text text-anchor="middle" x="108" y="-128" font-family="Helvetica,sans-Serif" font-size="10.00">/monitor_window.hpp</text>
</a>
</g>
</g>
<!-- Node2 -->
<g id="Node000002" class="node">
<title>Node2</title>
<g id="a_Node000002"><a xlink:href="window_8hpp.html" target="_top" xlink:title="This file defines an interface for all windows that will be rendered by the application.">
<polygon fill="white" stroke="#666666" points="92,-79.5 0,-79.5 0,-60.5 92,-60.5 92,-79.5"/>
<text text-anchor="middle" x="46" y="-67.5" font-family="Helvetica,sans-Serif" font-size="10.00">../../window.hpp</text>
</a>
</g>
</g>
<!-- Node1&#45;&gt;Node2 -->
<g id="edge1_Node000001_Node000002" class="edge">
<title>Node1&#45;&gt;Node2</title>
<g id="a_edge1_Node000001_Node000002"><a xlink:title=" ">
<path fill="none" stroke="#63b8ff" d="M94.24,-120.8C84.57,-110.82 71.63,-97.46 61.58,-87.09"/>
<polygon fill="#63b8ff" stroke="#63b8ff" points="64.04,-84.59 54.57,-79.84 59.01,-89.46 64.04,-84.59"/>
</a>
</g>
</g>
<!-- Node4 -->
<g id="Node000004" class="node">
<title>Node4</title>
<g id="a_Node000004"><a xlink:href="monitor_8hpp.html" target="_top" xlink:title="This file defines an 80x25 8&#45;bit memory&#45;mapped monitor which is used as a debug output.">
<polygon fill="white" stroke="#666666" points="232,-85 110,-85 110,-55 232,-55 232,-85"/>
<text text-anchor="start" x="118" y="-73" font-family="Helvetica,sans-Serif" font-size="10.00">../../../core/peripherals</text>
<text text-anchor="middle" x="171" y="-62" font-family="Helvetica,sans-Serif" font-size="10.00">/monitor.hpp</text>
</a>
</g>
</g>
<!-- Node1&#45;&gt;Node4 -->
<g id="edge3_Node000001_Node000004" class="edge">
<title>Node1&#45;&gt;Node4</title>
<g id="a_edge3_Node000001_Node000004"><a xlink:title=" ">
<path fill="none" stroke="#63b8ff" d="M121.98,-120.8C130.22,-112.43 140.8,-101.68 150.02,-92.31"/>
<polygon fill="#63b8ff" stroke="#63b8ff" points="152.54,-94.75 157.06,-85.16 147.55,-89.84 152.54,-94.75"/>
</a>
</g>
</g>
<!-- Node3 -->
<g id="Node000003" class="node">
<title>Node3</title>
<g id="a_Node000003"><a xlink:title=" ">
<polygon fill="#e0e0e0" stroke="#999999" points="88,-19 4,-19 4,0 88,0 88,-19"/>
<text text-anchor="middle" x="46" y="-7" font-family="Helvetica,sans-Serif" font-size="10.00">imgui/imgui.h</text>
</a>
</g>
</g>
<!-- Node2&#45;&gt;Node3 -->
<g id="edge2_Node000002_Node000003" class="edge">
<title>Node2&#45;&gt;Node3</title>
<g id="a_edge2_Node000002_Node000003"><a xlink:title=" ">
<path fill="none" stroke="#63b8ff" d="M46,-60.37C46,-52.25 46,-39.81 46,-29.39"/>
<polygon fill="#63b8ff" stroke="#63b8ff" points="49.5,-29.17 46,-19.17 42.5,-29.17 49.5,-29.17"/>
</a>
</g>
</g>
<!-- Node5 -->
<g id="Node000005" class="node">
<title>Node5</title>
<g id="a_Node000005"><a xlink:href="peripheral_8hpp.html" target="_top" xlink:title="This file defines an interface for a memory&#45;mapped peripheral.">
<polygon fill="white" stroke="#666666" points="214.5,-19 127.5,-19 127.5,0 214.5,0 214.5,-19"/>
<text text-anchor="middle" x="171" y="-7" font-family="Helvetica,sans-Serif" font-size="10.00">peripheral.hpp</text>
</a>
</g>
</g>
<!-- Node4&#45;&gt;Node5 -->
<g id="edge4_Node000004_Node000005" class="edge">
<title>Node4&#45;&gt;Node5</title>
<g id="a_edge4_Node000004_Node000005"><a xlink:title=" ">
<path fill="none" stroke="#63b8ff" d="M171,-54.84C171,-47.21 171,-37.7 171,-29.45"/>
<polygon fill="#63b8ff" stroke="#63b8ff" points="174.5,-29.27 171,-19.27 167.5,-29.27 174.5,-29.27"/>
</a>
</g>
</g>
</g>
</svg>
