<?xml version="1.0" encoding="UTF-8" standalone="no"?>
<!DOCTYPE svg PUBLIC "-//W3C//DTD SVG 1.1//EN"
 "http://www.w3.org/Graphics/SVG/1.1/DTD/svg11.dtd">
<!-- Generated by graphviz version 2.43.0 (0)
 -->
<!-- Title: src/gui/windows/peripherals/monitor_window.hpp Pages: 1 -->
<svg width="266pt" height="104pt"
 viewBox="0.00 0.00 265.50 104.00" xmlns="http://www.w3.org/2000/svg" xmlns:xlink="http://www.w3.org/1999/xlink">
<g id="graph0" class="graph" transform="scale(1 1) rotate(0) translate(4 100)">
<title>src/gui/windows/peripherals/monitor_window.hpp</title>
<!-- Node1 -->
<g id="Node000001" class="node">
<title>Node1</title>
<g id="a_Node000001"><a xlink:title="This file defines a window that visualizes the memory&#45;mapped debug monitor.">
<polygon fill="#999999" stroke="#666666" points="188.5,-96 36.5,-96 36.5,-66 188.5,-66 188.5,-96"/>
<text text-anchor="start" x="44.5" y="-84" font-family="Helvetica,sans-Serif" font-size="10.00">src/gui/windows/peripherals</text>
<text text-anchor="middle" x="112.5" y="-73" font-family="Helvetica,sans-Serif" font-size="10.00">/monitor_window.hpp</text>
</a>
</g>
</g>
<!-- Node2 -->
<g id="Node000002" class="node">
<title>Node2</title>
<g id="a_Node000002"><a xlink:href="gui_8cpp.html" target="_top" xlink:title="This file implements the main GUI entry function that takes care of creating and rendering all window...">
<polygon fill="white" stroke="#666666" points="87,-24.5 0,-24.5 0,-5.5 87,-5.5 87,-24.5"/>
<text text-anchor="middle" x="43.5" y="-12.5" font-family="Helvetica,sans-Serif" font-size="10.00">src/gui/gui.cpp</text>
</a>
</g>
</g>
<!-- Node1&#45;&gt;Node2 -->
<g id="edge1_Node000001_Node000002" class="edge">
<title>Node1&#45;&gt;Node2</title>
<g id="a_edge1_Node000001_Node000002"><a xlink:title=" ">
<path fill="none" stroke="#63b8ff" d="M89.79,-58.93C77.3,-47.35 62.48,-33.61 53.04,-24.84"/>
<polygon fill="#63b8ff" stroke="#63b8ff" points="87.47,-61.56 97.19,-65.8 92.24,-56.43 87.47,-61.56"/>
</a>
</g>
</g>
<!-- Node3 -->
<g id="Node000003" class="node">
<title>Node3</title>
<g id="a_Node000003"><a xlink:href="monitor__window_8cpp.html" target="_top" xlink:title="This file implements a window that visualizes the memory&#45;mapped debug monitor.">
<polygon fill="white" stroke="#666666" points="257.5,-30 105.5,-30 105.5,0 257.5,0 257.5,-30"/>
<text text-anchor="start" x="113.5" y="-18" font-family="Helvetica,sans-Serif" font-size="10.00">src/gui/windows/peripherals</text>
<text text-anchor="middle" x="181.5" y="-7" font-family="Helvetica,sans-Serif" font-size="10.00">/monitor_window.cpp</text>
</a>
</g>
</g>
<!-- Node1&#45;&gt;Node3 -->
<g id="edge2_Node000001_Node000003" class="edge">
<title>Node1&#45;&gt;Node3</title>
<g id="a_edge2_Node000001_Node000003"><a xlink:title=" ">
<path fill="none" stroke="#63b8ff" d="M135.22,-58.92C145.4,-49.49 157.13,-38.61 166.23,-30.16"/>
<polygon fill="#63b8ff" stroke="#63b8ff" points="132.76,-56.43 127.81,-65.8 137.53,-61.56 132.76,-56.43"/>
</a>
</g>
</g>
</g>
</svg>
