<?xml version="1.0" encoding="UTF-8" standalone="no"?>
<!DOCTYPE svg PUBLIC "-//W3C//DTD SVG 1.1//EN"
 "http://www.w3.org/Graphics/SVG/1.1/DTD/svg11.dtd">
<!-- Generated by graphviz version 2.43.0 (0)
 -->
<!-- Title: src/core/arm1176jzf_s/isa/multiply_long.hpp Pages: 1 -->
<svg width="1199pt" height="307pt"
 viewBox="0.00 0.00 1199.00 307.00" xmlns="http://www.w3.org/2000/svg" xmlns:xlink="http://www.w3.org/1999/xlink">
<g id="graph0" class="graph" transform="scale(1 1) rotate(0) translate(4 303)">
<title>src/core/arm1176jzf_s/isa/multiply_long.hpp</title>
<!-- Node1 -->
<g id="node1" class="node">
<title>Node1</title>
<g id="a_node1"><a xlink:title="This file defines a multiplication (long) instruction.">
<polygon fill="#bfbfbf" stroke="black" points="829,-268.5 829,-298.5 964,-298.5 964,-268.5 829,-268.5"/>
<text text-anchor="start" x="837" y="-286.5" font-family="Helvetica,sans-Serif" font-size="10.00">src/core/arm1176jzf</text>
<text text-anchor="middle" x="896.5" y="-275.5" font-family="Helvetica,sans-Serif" font-size="10.00">_s/isa/multiply_long.hpp</text>
</a>
</g>
</g>
<!-- Node2 -->
<g id="node2" class="node">
<title>Node2</title>
<g id="a_node2"><a xlink:href="arm1176jzf__s_2isa_2isa_8hpp.html" target="_top" xlink:title="This file is just a helper file for including all ARM instructions supported by the emulator.">
<polygon fill="none" stroke="black" points="687,-201.5 687,-231.5 800,-231.5 800,-201.5 687,-201.5"/>
<text text-anchor="start" x="695" y="-219.5" font-family="Helvetica,sans-Serif" font-size="10.00">src/core/arm1176jzf</text>
<text text-anchor="middle" x="743.5" y="-208.5" font-family="Helvetica,sans-Serif" font-size="10.00">_s/isa/isa.hpp</text>
</a>
</g>
</g>
<!-- Node1&#45;&gt;Node2 -->
<g id="edge1" class="edge">
<title>Node1&#45;&gt;Node2</title>
<path fill="none" stroke="midnightblue" d="M853.91,-264.41C829.48,-254.03 799.28,-241.2 776.63,-231.58"/>
<polygon fill="midnightblue" stroke="midnightblue" points="852.73,-267.71 863.3,-268.4 855.47,-261.26 852.73,-267.71"/>
</g>
<!-- Node19 -->
<g id="node19" class="node">
<title>Node19</title>
<g id="a_node19"><a xlink:href="multiply__long_8cpp.html" target="_top" xlink:title="This file implements a multiplication (long) instruction as defined in multiply_long....">
<polygon fill="none" stroke="black" points="829.5,-201.5 829.5,-231.5 963.5,-231.5 963.5,-201.5 829.5,-201.5"/>
<text text-anchor="start" x="837.5" y="-219.5" font-family="Helvetica,sans-Serif" font-size="10.00">src/core/arm1176jzf</text>
<text text-anchor="middle" x="896.5" y="-208.5" font-family="Helvetica,sans-Serif" font-size="10.00">_s/isa/multiply_long.cpp</text>
</a>
</g>
</g>
<!-- Node1&#45;&gt;Node19 -->
<g id="edge22" class="edge">
<title>Node1&#45;&gt;Node19</title>
<path fill="none" stroke="midnightblue" d="M896.5,-258.11C896.5,-249.15 896.5,-239.32 896.5,-231.58"/>
<polygon fill="midnightblue" stroke="midnightblue" points="893,-258.4 896.5,-268.4 900,-258.4 893,-258.4"/>
</g>
<!-- Node20 -->
<g id="node20" class="node">
<title>Node20</title>
<g id="a_node20"><a xlink:href="mac_8hpp.html" target="_top" xlink:title="This file defines the functionality of the CPU multiplier (MAC unit).">
<polygon fill="none" stroke="black" points="987,-201.5 987,-231.5 1100,-231.5 1100,-201.5 987,-201.5"/>
<text text-anchor="start" x="995" y="-219.5" font-family="Helvetica,sans-Serif" font-size="10.00">src/core/arm1176jzf</text>
<text text-anchor="middle" x="1043.5" y="-208.5" font-family="Helvetica,sans-Serif" font-size="10.00">_s/mac.hpp</text>
</a>
</g>
</g>
<!-- Node1&#45;&gt;Node20 -->
<g id="edge23" class="edge">
<title>Node1&#45;&gt;Node20</title>
<path fill="none" stroke="midnightblue" d="M937.73,-264.27C961.14,-253.92 990.01,-241.15 1011.67,-231.58"/>
<polygon fill="midnightblue" stroke="midnightblue" points="936.13,-261.15 928.4,-268.4 938.96,-267.55 936.13,-261.15"/>
</g>
<!-- Node3 -->
<g id="node3" class="node">
<title>Node3</title>
<g id="a_node3"><a xlink:href="core_8hpp.html" target="_top" xlink:title="This file defines a class that represents a CPU core (arm1176jzf_s).">
<polygon fill="none" stroke="black" points="666,-134.5 666,-164.5 779,-164.5 779,-134.5 666,-134.5"/>
<text text-anchor="start" x="674" y="-152.5" font-family="Helvetica,sans-Serif" font-size="10.00">src/core/arm1176jzf</text>
<text text-anchor="middle" x="722.5" y="-141.5" font-family="Helvetica,sans-Serif" font-size="10.00">_s/core.hpp</text>
</a>
</g>
</g>
<!-- Node2&#45;&gt;Node3 -->
<g id="edge2" class="edge">
<title>Node2&#45;&gt;Node3</title>
<path fill="none" stroke="midnightblue" d="M735.81,-191.7C732.87,-182.59 729.61,-172.49 727.05,-164.58"/>
<polygon fill="midnightblue" stroke="midnightblue" points="732.54,-192.96 738.94,-201.4 739.2,-190.8 732.54,-192.96"/>
</g>
<!-- Node4 -->
<g id="node4" class="node">
<title>Node4</title>
<g id="a_node4"><a xlink:href="core_8cpp.html" target="_top" xlink:title="This file implements the CCPU_Core class defined in core.hpp.">
<polygon fill="none" stroke="black" points="1078,-67.5 1078,-97.5 1191,-97.5 1191,-67.5 1078,-67.5"/>
<text text-anchor="start" x="1086" y="-85.5" font-family="Helvetica,sans-Serif" font-size="10.00">src/core/arm1176jzf</text>
<text text-anchor="middle" x="1134.5" y="-74.5" font-family="Helvetica,sans-Serif" font-size="10.00">_s/core.cpp</text>
</a>
</g>
</g>
<!-- Node3&#45;&gt;Node4 -->
<g id="edge3" class="edge">
<title>Node3&#45;&gt;Node4</title>
<path fill="none" stroke="midnightblue" d="M789.02,-140.22C858.85,-131.2 971.74,-115.67 1068.5,-98 1071.5,-97.45 1074.57,-96.87 1077.67,-96.25"/>
<polygon fill="midnightblue" stroke="midnightblue" points="788.51,-136.76 779.04,-141.51 789.4,-143.7 788.51,-136.76"/>
</g>
<!-- Node5 -->
<g id="node5" class="node">
<title>Node5</title>
<g id="a_node5"><a xlink:href="coprocessor_8cpp.html" target="_top" xlink:title="This file implements the common functionality of a general interface of a coprocessor.">
<polygon fill="none" stroke="black" points="797.5,-67.5 797.5,-97.5 919.5,-97.5 919.5,-67.5 797.5,-67.5"/>
<text text-anchor="start" x="805.5" y="-85.5" font-family="Helvetica,sans-Serif" font-size="10.00">src/core/coprocessors</text>
<text text-anchor="middle" x="858.5" y="-74.5" font-family="Helvetica,sans-Serif" font-size="10.00">/coprocessor.cpp</text>
</a>
</g>
</g>
<!-- Node3&#45;&gt;Node5 -->
<g id="edge4" class="edge">
<title>Node3&#45;&gt;Node5</title>
<path fill="none" stroke="midnightblue" d="M761.22,-129.99C782.78,-119.69 809.19,-107.07 829.05,-97.58"/>
<polygon fill="midnightblue" stroke="midnightblue" points="759.52,-126.93 752.01,-134.4 762.54,-133.24 759.52,-126.93"/>
</g>
<!-- Node6 -->
<g id="node6" class="node">
<title>Node6</title>
<g id="a_node6"><a xlink:href="cp10_8cpp.html" target="_top" xlink:title="This file implements coprocessor CP10 (single&#45;precision FPU).">
<polygon fill="none" stroke="black" points="937.5,-67.5 937.5,-97.5 1059.5,-97.5 1059.5,-67.5 937.5,-67.5"/>
<text text-anchor="start" x="945.5" y="-85.5" font-family="Helvetica,sans-Serif" font-size="10.00">src/core/coprocessors</text>
<text text-anchor="middle" x="998.5" y="-74.5" font-family="Helvetica,sans-Serif" font-size="10.00">/cp10/cp10.cpp</text>
</a>
</g>
</g>
<!-- Node3&#45;&gt;Node6 -->
<g id="edge5" class="edge">
<title>Node3&#45;&gt;Node6</title>
<path fill="none" stroke="midnightblue" d="M788.82,-132.88C834.45,-122.14 894.56,-107.98 938.71,-97.58"/>
<polygon fill="midnightblue" stroke="midnightblue" points="787.95,-129.49 779.02,-135.19 789.55,-136.3 787.95,-129.49"/>
</g>
<!-- Node7 -->
<g id="node7" class="node">
<title>Node7</title>
<g id="a_node7"><a xlink:href="soc_8hpp.html" target="_top" xlink:title=" ">
<polygon fill="none" stroke="black" points="97,-73 97,-92 192,-92 192,-73 97,-73"/>
<text text-anchor="middle" x="144.5" y="-80" font-family="Helvetica,sans-Serif" font-size="10.00">src/core/soc.hpp</text>
</a>
</g>
</g>
<!-- Node3&#45;&gt;Node7 -->
<g id="edge6" class="edge">
<title>Node3&#45;&gt;Node7</title>
<path fill="none" stroke="midnightblue" d="M655.48,-145.39C555.69,-139.99 362.43,-126.61 200.5,-98 191.8,-96.46 182.46,-94.27 173.95,-92.05"/>
<polygon fill="midnightblue" stroke="midnightblue" points="655.55,-148.89 665.72,-145.93 655.92,-141.9 655.55,-148.89"/>
</g>
<!-- Node11 -->
<g id="node11" class="node">
<title>Node11</title>
<g id="a_node11"><a xlink:href="control__window_8hpp.html" target="_top" xlink:title="This file defines a window that allows the user to control CPU execution.">
<polygon fill="none" stroke="black" points="210,-67.5 210,-97.5 341,-97.5 341,-67.5 210,-67.5"/>
<text text-anchor="start" x="218" y="-85.5" font-family="Helvetica,sans-Serif" font-size="10.00">src/gui/windows/control</text>
<text text-anchor="middle" x="275.5" y="-74.5" font-family="Helvetica,sans-Serif" font-size="10.00">_window.hpp</text>
</a>
</g>
</g>
<!-- Node3&#45;&gt;Node11 -->
<g id="edge10" class="edge">
<title>Node3&#45;&gt;Node11</title>
<path fill="none" stroke="midnightblue" d="M655.76,-140.58C581.18,-131.47 456.92,-115.5 350.5,-98 347.49,-97.51 344.42,-96.98 341.31,-96.44"/>
<polygon fill="midnightblue" stroke="midnightblue" points="655.6,-144.09 665.95,-141.82 656.44,-137.14 655.6,-144.09"/>
</g>
<!-- Node13 -->
<g id="node13" class="node">
<title>Node13</title>
<g id="a_node13"><a xlink:href="registers__window_8hpp.html" target="_top" xlink:title="This file defines a window that displays the contents of all CPU registers.">
<polygon fill="none" stroke="black" points="359.5,-67.5 359.5,-97.5 499.5,-97.5 499.5,-67.5 359.5,-67.5"/>
<text text-anchor="start" x="367.5" y="-85.5" font-family="Helvetica,sans-Serif" font-size="10.00">src/gui/windows/registers</text>
<text text-anchor="middle" x="429.5" y="-74.5" font-family="Helvetica,sans-Serif" font-size="10.00">_window.hpp</text>
</a>
</g>
</g>
<!-- Node3&#45;&gt;Node13 -->
<g id="edge13" class="edge">
<title>Node3&#45;&gt;Node13</title>
<path fill="none" stroke="midnightblue" d="M655.8,-133.7C606.89,-122.85 540.89,-108.21 492.79,-97.54"/>
<polygon fill="midnightblue" stroke="midnightblue" points="655.14,-137.14 665.66,-135.89 656.65,-130.31 655.14,-137.14"/>
</g>
<!-- Node15 -->
<g id="node15" class="node">
<title>Node15</title>
<g id="a_node15"><a xlink:href="source__code__window_8hpp.html" target="_top" xlink:title="This file defines a window that displays loaded ELF files (disassembled instructions of the source co...">
<polygon fill="none" stroke="black" points="517.5,-67.5 517.5,-97.5 647.5,-97.5 647.5,-67.5 517.5,-67.5"/>
<text text-anchor="start" x="525.5" y="-85.5" font-family="Helvetica,sans-Serif" font-size="10.00">src/gui/windows/source</text>
<text text-anchor="middle" x="582.5" y="-74.5" font-family="Helvetica,sans-Serif" font-size="10.00">_code_window.hpp</text>
</a>
</g>
</g>
<!-- Node3&#45;&gt;Node15 -->
<g id="edge16" class="edge">
<title>Node3&#45;&gt;Node15</title>
<path fill="none" stroke="midnightblue" d="M682.93,-130.13C660.69,-119.8 633.35,-107.11 612.82,-97.58"/>
<polygon fill="midnightblue" stroke="midnightblue" points="681.58,-133.36 692.12,-134.4 684.53,-127.01 681.58,-133.36"/>
</g>
<!-- Node17 -->
<g id="node17" class="node">
<title>Node17</title>
<g id="a_node17"><a xlink:href="top__bar__menu_8hpp.html" target="_top" xlink:title=" ">
<polygon fill="none" stroke="black" points="666,-67.5 666,-97.5 779,-97.5 779,-67.5 666,-67.5"/>
<text text-anchor="start" x="674" y="-85.5" font-family="Helvetica,sans-Serif" font-size="10.00">src/gui/windows/top</text>
<text text-anchor="middle" x="722.5" y="-74.5" font-family="Helvetica,sans-Serif" font-size="10.00">_bar_menu.hpp</text>
</a>
</g>
</g>
<!-- Node3&#45;&gt;Node17 -->
<g id="edge19" class="edge">
<title>Node3&#45;&gt;Node17</title>
<path fill="none" stroke="midnightblue" d="M722.5,-124.11C722.5,-115.15 722.5,-105.32 722.5,-97.58"/>
<polygon fill="midnightblue" stroke="midnightblue" points="719,-124.4 722.5,-134.4 726,-124.4 719,-124.4"/>
</g>
<!-- Node8 -->
<g id="node8" class="node">
<title>Node8</title>
<g id="a_node8"><a xlink:href="soc_8cpp.html" target="_top" xlink:title=" ">
<polygon fill="none" stroke="black" points="97,-6 97,-25 192,-25 192,-6 97,-6"/>
<text text-anchor="middle" x="144.5" y="-13" font-family="Helvetica,sans-Serif" font-size="10.00">src/core/soc.cpp</text>
</a>
</g>
</g>
<!-- Node7&#45;&gt;Node8 -->
<g id="edge7" class="edge">
<title>Node7&#45;&gt;Node8</title>
<path fill="none" stroke="midnightblue" d="M144.5,-62.54C144.5,-50.17 144.5,-34.62 144.5,-25.13"/>
<polygon fill="midnightblue" stroke="midnightblue" points="141,-62.73 144.5,-72.73 148,-62.73 141,-62.73"/>
</g>
<!-- Node9 -->
<g id="node9" class="node">
<title>Node9</title>
<g id="a_node9"><a xlink:href="gui_8cpp.html" target="_top" xlink:title="This file implements the main GUI entry function that takes care of creating and rendering all window...">
<polygon fill="none" stroke="black" points="518,-6 518,-25 605,-25 605,-6 518,-6"/>
<text text-anchor="middle" x="561.5" y="-13" font-family="Helvetica,sans-Serif" font-size="10.00">src/gui/gui.cpp</text>
</a>
</g>
</g>
<!-- Node7&#45;&gt;Node9 -->
<g id="edge8" class="edge">
<title>Node7&#45;&gt;Node9</title>
<path fill="none" stroke="midnightblue" d="M184,-70.55C189.52,-69.24 195.13,-68 200.5,-67 335.97,-41.67 373.2,-57.26 508.5,-31 516.65,-29.42 525.38,-27.24 533.36,-25.05"/>
<polygon fill="midnightblue" stroke="midnightblue" points="183.12,-67.17 174.26,-72.99 184.81,-73.96 183.12,-67.17"/>
</g>
<!-- Node10 -->
<g id="node10" class="node">
<title>Node10</title>
<g id="a_node10"><a xlink:href="main_8cpp.html" target="_top" xlink:title="This file defines and implements the main function of the application.">
<polygon fill="none" stroke="black" points="0,-6 0,-25 79,-25 79,-6 0,-6"/>
<text text-anchor="middle" x="39.5" y="-13" font-family="Helvetica,sans-Serif" font-size="10.00">src/main.cpp</text>
</a>
</g>
</g>
<!-- Node7&#45;&gt;Node10 -->
<g id="edge9" class="edge">
<title>Node7&#45;&gt;Node10</title>
<path fill="none" stroke="midnightblue" d="M121.79,-67.44C101,-54.57 70.88,-35.93 53.44,-25.13"/>
<polygon fill="midnightblue" stroke="midnightblue" points="119.99,-70.45 130.34,-72.73 123.68,-64.49 119.99,-70.45"/>
</g>
<!-- Node11&#45;&gt;Node9 -->
<g id="edge11" class="edge">
<title>Node11&#45;&gt;Node9</title>
<path fill="none" stroke="midnightblue" d="M351.08,-66.19C396.79,-56.66 456.16,-43.82 508.5,-31 515.91,-29.18 523.87,-27.09 531.3,-25.06"/>
<polygon fill="midnightblue" stroke="midnightblue" points="350.33,-62.77 341.25,-68.23 351.75,-69.62 350.33,-62.77"/>
</g>
<!-- Node12 -->
<g id="node12" class="node">
<title>Node12</title>
<g id="a_node12"><a xlink:href="control__window_8cpp.html" target="_top" xlink:title="This file implements a window that allows the user to control CPU execution.">
<polygon fill="none" stroke="black" points="210,-0.5 210,-30.5 341,-30.5 341,-0.5 210,-0.5"/>
<text text-anchor="start" x="218" y="-18.5" font-family="Helvetica,sans-Serif" font-size="10.00">src/gui/windows/control</text>
<text text-anchor="middle" x="275.5" y="-7.5" font-family="Helvetica,sans-Serif" font-size="10.00">_window.cpp</text>
</a>
</g>
</g>
<!-- Node11&#45;&gt;Node12 -->
<g id="edge12" class="edge">
<title>Node11&#45;&gt;Node12</title>
<path fill="none" stroke="midnightblue" d="M275.5,-57.11C275.5,-48.15 275.5,-38.32 275.5,-30.58"/>
<polygon fill="midnightblue" stroke="midnightblue" points="272,-57.4 275.5,-67.4 279,-57.4 272,-57.4"/>
</g>
<!-- Node13&#45;&gt;Node9 -->
<g id="edge14" class="edge">
<title>Node13&#45;&gt;Node9</title>
<path fill="none" stroke="midnightblue" d="M467.14,-62.97C492.49,-50.48 524.75,-34.6 544.22,-25.01"/>
<polygon fill="midnightblue" stroke="midnightblue" points="465.57,-59.84 458.14,-67.4 468.66,-66.12 465.57,-59.84"/>
</g>
<!-- Node14 -->
<g id="node14" class="node">
<title>Node14</title>
<g id="a_node14"><a xlink:href="registers__window_8cpp.html" target="_top" xlink:title="This file implements a window that displays the contents of all CPU registers.">
<polygon fill="none" stroke="black" points="359.5,-0.5 359.5,-30.5 499.5,-30.5 499.5,-0.5 359.5,-0.5"/>
<text text-anchor="start" x="367.5" y="-18.5" font-family="Helvetica,sans-Serif" font-size="10.00">src/gui/windows/registers</text>
<text text-anchor="middle" x="429.5" y="-7.5" font-family="Helvetica,sans-Serif" font-size="10.00">_window.cpp</text>
</a>
</g>
</g>
<!-- Node13&#45;&gt;Node14 -->
<g id="edge15" class="edge">
<title>Node13&#45;&gt;Node14</title>
<path fill="none" stroke="midnightblue" d="M429.5,-57.11C429.5,-48.15 429.5,-38.32 429.5,-30.58"/>
<polygon fill="midnightblue" stroke="midnightblue" points="426,-57.4 429.5,-67.4 433,-57.4 426,-57.4"/>
</g>
<!-- Node15&#45;&gt;Node9 -->
<g id="edge17" class="edge">
<title>Node15&#45;&gt;Node9</title>
<path fill="none" stroke="midnightblue" d="M574.78,-57.6C571.12,-46.28 566.98,-33.46 564.31,-25.19"/>
<polygon fill="midnightblue" stroke="midnightblue" points="571.54,-58.96 577.94,-67.4 578.2,-56.8 571.54,-58.96"/>
</g>
<!-- Node16 -->
<g id="node16" class="node">
<title>Node16</title>
<g id="a_node16"><a xlink:href="source__code__window_8cpp.html" target="_top" xlink:title="This file implements a window that displays loaded ELF files (disassembled instructions of the source...">
<polygon fill="none" stroke="black" points="623.5,-0.5 623.5,-30.5 753.5,-30.5 753.5,-0.5 623.5,-0.5"/>
<text text-anchor="start" x="631.5" y="-18.5" font-family="Helvetica,sans-Serif" font-size="10.00">src/gui/windows/source</text>
<text text-anchor="middle" x="688.5" y="-7.5" font-family="Helvetica,sans-Serif" font-size="10.00">_code_window.cpp</text>
</a>
</g>
</g>
<!-- Node15&#45;&gt;Node16 -->
<g id="edge18" class="edge">
<title>Node15&#45;&gt;Node16</title>
<path fill="none" stroke="midnightblue" d="M614.28,-62.02C630.77,-51.9 650.55,-39.77 665.54,-30.58"/>
<polygon fill="midnightblue" stroke="midnightblue" points="612.2,-59.18 605.5,-67.4 615.85,-65.15 612.2,-59.18"/>
</g>
<!-- Node17&#45;&gt;Node9 -->
<g id="edge20" class="edge">
<title>Node17&#45;&gt;Node9</title>
<path fill="none" stroke="midnightblue" d="M678.22,-63.62C647.05,-51.04 606.74,-34.77 582.57,-25.01"/>
<polygon fill="midnightblue" stroke="midnightblue" points="676.98,-66.9 687.57,-67.4 679.6,-60.41 676.98,-66.9"/>
</g>
<!-- Node18 -->
<g id="node18" class="node">
<title>Node18</title>
<g id="a_node18"><a xlink:href="top__bar__menu_8cpp.html" target="_top" xlink:title=" ">
<polygon fill="none" stroke="black" points="772,-0.5 772,-30.5 885,-30.5 885,-0.5 772,-0.5"/>
<text text-anchor="start" x="780" y="-18.5" font-family="Helvetica,sans-Serif" font-size="10.00">src/gui/windows/top</text>
<text text-anchor="middle" x="828.5" y="-7.5" font-family="Helvetica,sans-Serif" font-size="10.00">_bar_menu.cpp</text>
</a>
</g>
</g>
<!-- Node17&#45;&gt;Node18 -->
<g id="edge21" class="edge">
<title>Node17&#45;&gt;Node18</title>
<path fill="none" stroke="midnightblue" d="M754.28,-62.02C770.77,-51.9 790.55,-39.77 805.54,-30.58"/>
<polygon fill="midnightblue" stroke="midnightblue" points="752.2,-59.18 745.5,-67.4 755.85,-65.15 752.2,-59.18"/>
</g>
<!-- Node20&#45;&gt;Node4 -->
<g id="edge24" class="edge">
<title>Node20&#45;&gt;Node4</title>
<path fill="none" stroke="midnightblue" d="M1077.23,-195.83C1088.87,-187.59 1101.08,-177.11 1109.5,-165 1123.95,-144.22 1130.25,-114.84 1132.84,-97.62"/>
<polygon fill="midnightblue" stroke="midnightblue" points="1075.26,-192.93 1068.92,-201.41 1079.17,-198.74 1075.26,-192.93"/>
</g>
<!-- Node21 -->
<g id="node21" class="node">
<title>Node21</title>
<g id="a_node21"><a xlink:href="mac_8cpp.html" target="_top" xlink:title="This file implements the functionality of the CPU multiplier (MAC unit).">
<polygon fill="none" stroke="black" points="987,-134.5 987,-164.5 1100,-164.5 1100,-134.5 987,-134.5"/>
<text text-anchor="start" x="995" y="-152.5" font-family="Helvetica,sans-Serif" font-size="10.00">src/core/arm1176jzf</text>
<text text-anchor="middle" x="1043.5" y="-141.5" font-family="Helvetica,sans-Serif" font-size="10.00">_s/mac.cpp</text>
</a>
</g>
</g>
<!-- Node20&#45;&gt;Node21 -->
<g id="edge25" class="edge">
<title>Node20&#45;&gt;Node21</title>
<path fill="none" stroke="midnightblue" d="M1043.5,-191.11C1043.5,-182.15 1043.5,-172.32 1043.5,-164.58"/>
<polygon fill="midnightblue" stroke="midnightblue" points="1040,-191.4 1043.5,-201.4 1047,-191.4 1040,-191.4"/>
</g>
</g>
</svg>
