<?xml version="1.0" encoding="UTF-8" standalone="no"?>
<!DOCTYPE svg PUBLIC "-//W3C//DTD SVG 1.1//EN"
 "http://www.w3.org/Graphics/SVG/1.1/DTD/svg11.dtd">
<!-- Generated by graphviz version 2.43.0 (0)
 -->
<!-- Title: src/core/arm1176jzf_s/isa/multiply.hpp Pages: 1 -->
<svg width="1199pt" height="302pt"
 viewBox="0.00 0.00 1199.00 302.00" xmlns="http://www.w3.org/2000/svg" xmlns:xlink="http://www.w3.org/1999/xlink">
<g id="graph0" class="graph" transform="scale(1 1) rotate(0) translate(4 298)">
<title>src/core/arm1176jzf_s/isa/multiply.hpp</title>
<!-- Node1 -->
<g id="Node000001" class="node">
<title>Node1</title>
<g id="a_Node000001"><a xlink:title="This file defines a multiplication instruction (MUL, MLA).">
<polygon fill="#999999" stroke="#666666" points="958,-294 845,-294 845,-264 958,-264 958,-294"/>
<text text-anchor="start" x="853" y="-282" font-family="Helvetica,sans-Serif" font-size="10.00">src/core/arm1176jzf</text>
<text text-anchor="middle" x="901.5" y="-271" font-family="Helvetica,sans-Serif" font-size="10.00">_s/isa/multiply.hpp</text>
</a>
</g>
</g>
<!-- Node2 -->
<g id="Node000002" class="node">
<title>Node2</title>
<g id="a_Node000002"><a xlink:href="arm1176jzf__s_2isa_2isa_8hpp.html" target="_top" xlink:title="This file is just a helper file for including all ARM instructions supported by the emulator.">
<polygon fill="white" stroke="#666666" points="811,-228 698,-228 698,-198 811,-198 811,-228"/>
<text text-anchor="start" x="706" y="-216" font-family="Helvetica,sans-Serif" font-size="10.00">src/core/arm1176jzf</text>
<text text-anchor="middle" x="754.5" y="-205" font-family="Helvetica,sans-Serif" font-size="10.00">_s/isa/isa.hpp</text>
</a>
</g>
</g>
<!-- Node1&#45;&gt;Node2 -->
<g id="edge1_Node000001_Node000002" class="edge">
<title>Node1&#45;&gt;Node2</title>
<g id="a_edge1_Node000001_Node000002"><a xlink:title=" ">
<path fill="none" stroke="#63b8ff" d="M859.97,-259.92C836.74,-249.8 808.21,-237.38 786.68,-228.01"/>
<polygon fill="#63b8ff" stroke="#63b8ff" points="858.67,-263.17 869.24,-263.95 861.47,-256.75 858.67,-263.17"/>
</a>
</g>
</g>
<!-- Node19 -->
<g id="Node000019" class="node">
<title>Node19</title>
<g id="a_Node000019"><a xlink:href="multiply_8cpp.html" target="_top" xlink:title="This file implements a multiplication instruction (MUL, MLA) as defined in multiply....">
<polygon fill="white" stroke="#666666" points="958,-228 845,-228 845,-198 958,-198 958,-228"/>
<text text-anchor="start" x="853" y="-216" font-family="Helvetica,sans-Serif" font-size="10.00">src/core/arm1176jzf</text>
<text text-anchor="middle" x="901.5" y="-205" font-family="Helvetica,sans-Serif" font-size="10.00">_s/isa/multiply.cpp</text>
</a>
</g>
</g>
<!-- Node1&#45;&gt;Node19 -->
<g id="edge22_Node000001_Node000019" class="edge">
<title>Node1&#45;&gt;Node19</title>
<g id="a_edge22_Node000001_Node000019"><a xlink:title=" ">
<path fill="none" stroke="#63b8ff" d="M901.5,-253.54C901.5,-244.96 901.5,-235.61 901.5,-228.16"/>
<polygon fill="#63b8ff" stroke="#63b8ff" points="898,-253.8 901.5,-263.8 905,-253.8 898,-253.8"/>
</a>
</g>
</g>
<!-- Node20 -->
<g id="Node000020" class="node">
<title>Node20</title>
<g id="a_Node000020"><a xlink:href="mac_8hpp.html" target="_top" xlink:title="This file defines the functionality of the CPU multiplier (MAC unit).">
<polygon fill="white" stroke="#666666" points="1097,-228 984,-228 984,-198 1097,-198 1097,-228"/>
<text text-anchor="start" x="992" y="-216" font-family="Helvetica,sans-Serif" font-size="10.00">src/core/arm1176jzf</text>
<text text-anchor="middle" x="1040.5" y="-205" font-family="Helvetica,sans-Serif" font-size="10.00">_s/mac.hpp</text>
</a>
</g>
</g>
<!-- Node1&#45;&gt;Node20 -->
<g id="edge23_Node000001_Node000020" class="edge">
<title>Node1&#45;&gt;Node20</title>
<g id="a_edge23_Node000001_Node000020"><a xlink:title=" ">
<path fill="none" stroke="#63b8ff" d="M941.36,-259.65C963.22,-249.58 989.89,-237.3 1010.07,-228.01"/>
<polygon fill="#63b8ff" stroke="#63b8ff" points="939.62,-256.59 932,-263.95 942.55,-262.95 939.62,-256.59"/>
</a>
</g>
</g>
<!-- Node3 -->
<g id="Node000003" class="node">
<title>Node3</title>
<g id="a_Node000003"><a xlink:href="core_8hpp.html" target="_top" xlink:title="This file defines a class that represents a CPU core (arm1176jzf_s).">
<polygon fill="white" stroke="#666666" points="779,-162 666,-162 666,-132 779,-132 779,-162"/>
<text text-anchor="start" x="674" y="-150" font-family="Helvetica,sans-Serif" font-size="10.00">src/core/arm1176jzf</text>
<text text-anchor="middle" x="722.5" y="-139" font-family="Helvetica,sans-Serif" font-size="10.00">_s/core.hpp</text>
</a>
</g>
</g>
<!-- Node2&#45;&gt;Node3 -->
<g id="edge2_Node000002_Node000003" class="edge">
<title>Node2&#45;&gt;Node3</title>
<g id="a_edge2_Node000002_Node000003"><a xlink:title=" ">
<path fill="none" stroke="#63b8ff" d="M742.84,-188.68C738.4,-179.79 733.47,-169.95 729.58,-162.16"/>
<polygon fill="#63b8ff" stroke="#63b8ff" points="739.8,-190.42 747.4,-197.8 746.06,-187.29 739.8,-190.42"/>
</a>
</g>
</g>
<!-- Node4 -->
<g id="Node000004" class="node">
<title>Node4</title>
<g id="a_Node000004"><a xlink:href="core_8cpp.html" target="_top" xlink:title="This file implements the CCPU_Core class defined in core.hpp.">
<polygon fill="white" stroke="#666666" points="1191,-96 1078,-96 1078,-66 1191,-66 1191,-96"/>
<text text-anchor="start" x="1086" y="-84" font-family="Helvetica,sans-Serif" font-size="10.00">src/core/arm1176jzf</text>
<text text-anchor="middle" x="1134.5" y="-73" font-family="Helvetica,sans-Serif" font-size="10.00">_s/core.cpp</text>
</a>
</g>
</g>
<!-- Node3&#45;&gt;Node4 -->
<g id="edge3_Node000003_Node000004" class="edge">
<title>Node3&#45;&gt;Node4</title>
<g id="a_edge3_Node000003_Node000004"><a xlink:title=" ">
<path fill="none" stroke="#63b8ff" d="M789,-137.71C858.81,-128.69 971.68,-113.25 1068.5,-96 1071.5,-95.47 1074.57,-94.9 1077.66,-94.3"/>
<polygon fill="#63b8ff" stroke="#63b8ff" points="788.49,-134.24 779.02,-138.99 789.38,-141.19 788.49,-134.24"/>
</a>
</g>
</g>
<!-- Node5 -->
<g id="Node000005" class="node">
<title>Node5</title>
<g id="a_Node000005"><a xlink:href="coprocessor_8cpp.html" target="_top" xlink:title="This file implements the common functionality of a general interface of a coprocessor.">
<polygon fill="white" stroke="#666666" points="919.5,-96 797.5,-96 797.5,-66 919.5,-66 919.5,-96"/>
<text text-anchor="start" x="805.5" y="-84" font-family="Helvetica,sans-Serif" font-size="10.00">src/core/coprocessors</text>
<text text-anchor="middle" x="858.5" y="-73" font-family="Helvetica,sans-Serif" font-size="10.00">/coprocessor.cpp</text>
</a>
</g>
</g>
<!-- Node3&#45;&gt;Node5 -->
<g id="edge4_Node000003_Node000005" class="edge">
<title>Node3&#45;&gt;Node5</title>
<g id="a_edge4_Node000003_Node000005"><a xlink:title=" ">
<path fill="none" stroke="#63b8ff" d="M761.5,-127.65C782.89,-117.58 808.99,-105.3 828.72,-96.01"/>
<polygon fill="#63b8ff" stroke="#63b8ff" points="759.9,-124.53 752.35,-131.95 762.88,-130.86 759.9,-124.53"/>
</a>
</g>
</g>
<!-- Node6 -->
<g id="Node000006" class="node">
<title>Node6</title>
<g id="a_Node000006"><a xlink:href="cp10_8cpp.html" target="_top" xlink:title="This file implements coprocessor CP10 (single&#45;precision FPU).">
<polygon fill="white" stroke="#666666" points="1059.5,-96 937.5,-96 937.5,-66 1059.5,-66 1059.5,-96"/>
<text text-anchor="start" x="945.5" y="-84" font-family="Helvetica,sans-Serif" font-size="10.00">src/core/coprocessors</text>
<text text-anchor="middle" x="998.5" y="-73" font-family="Helvetica,sans-Serif" font-size="10.00">/cp10/cp10.cpp</text>
</a>
</g>
</g>
<!-- Node3&#45;&gt;Node6 -->
<g id="edge5_Node000003_Node000006" class="edge">
<title>Node3&#45;&gt;Node6</title>
<g id="a_edge5_Node000003_Node000006"><a xlink:title=" ">
<path fill="none" stroke="#63b8ff" d="M789.03,-130.57C834.31,-120.07 893.75,-106.29 937.75,-96.09"/>
<polygon fill="#63b8ff" stroke="#63b8ff" points="787.97,-127.23 779.02,-132.89 789.55,-134.04 787.97,-127.23"/>
</a>
</g>
</g>
<!-- Node7 -->
<g id="Node000007" class="node">
<title>Node7</title>
<g id="a_Node000007"><a xlink:href="soc_8hpp.html" target="_top" xlink:title=" ">
<polygon fill="white" stroke="#666666" points="192,-90.5 97,-90.5 97,-71.5 192,-71.5 192,-90.5"/>
<text text-anchor="middle" x="144.5" y="-78.5" font-family="Helvetica,sans-Serif" font-size="10.00">src/core/soc.hpp</text>
</a>
</g>
</g>
<!-- Node3&#45;&gt;Node7 -->
<g id="edge6_Node000003_Node000007" class="edge">
<title>Node3&#45;&gt;Node7</title>
<g id="a_edge6_Node000003_Node000007"><a xlink:title=" ">
<path fill="none" stroke="#63b8ff" d="M655.51,-142.79C555.76,-137.29 362.55,-123.86 200.5,-96 192.2,-94.57 183.32,-92.58 175.13,-90.54"/>
<polygon fill="#63b8ff" stroke="#63b8ff" points="655.57,-146.3 665.74,-143.35 655.95,-139.31 655.57,-146.3"/>
</a>
</g>
</g>
<!-- Node11 -->
<g id="Node000011" class="node">
<title>Node11</title>
<g id="a_Node000011"><a xlink:href="control__window_8hpp.html" target="_top" xlink:title="This file defines a window that allows the user to control CPU execution.">
<polygon fill="white" stroke="#666666" points="341,-96 210,-96 210,-66 341,-66 341,-96"/>
<text text-anchor="start" x="218" y="-84" font-family="Helvetica,sans-Serif" font-size="10.00">src/gui/windows/control</text>
<text text-anchor="middle" x="275.5" y="-73" font-family="Helvetica,sans-Serif" font-size="10.00">_window.hpp</text>
</a>
</g>
</g>
<!-- Node3&#45;&gt;Node11 -->
<g id="edge10_Node000003_Node000011" class="edge">
<title>Node3&#45;&gt;Node11</title>
<g id="a_edge10_Node000003_Node000011"><a xlink:title=" ">
<path fill="none" stroke="#63b8ff" d="M655.78,-138.07C581.21,-128.97 456.96,-113.08 350.5,-96 347.49,-95.52 344.42,-95.01 341.32,-94.48"/>
<polygon fill="#63b8ff" stroke="#63b8ff" points="655.61,-141.58 665.96,-139.31 656.46,-134.63 655.61,-141.58"/>
</a>
</g>
</g>
<!-- Node13 -->
<g id="Node000013" class="node">
<title>Node13</title>
<g id="a_Node000013"><a xlink:href="registers__window_8hpp.html" target="_top" xlink:title="This file defines a window that displays the contents of all CPU registers.">
<polygon fill="white" stroke="#666666" points="499.5,-96 359.5,-96 359.5,-66 499.5,-66 499.5,-96"/>
<text text-anchor="start" x="367.5" y="-84" font-family="Helvetica,sans-Serif" font-size="10.00">src/gui/windows/registers</text>
<text text-anchor="middle" x="429.5" y="-73" font-family="Helvetica,sans-Serif" font-size="10.00">_window.hpp</text>
</a>
</g>
</g>
<!-- Node3&#45;&gt;Node13 -->
<g id="edge13_Node000003_Node000013" class="edge">
<title>Node3&#45;&gt;Node13</title>
<g id="a_edge13_Node000003_Node000013"><a xlink:title=" ">
<path fill="none" stroke="#63b8ff" d="M655.87,-131.45C607.3,-120.84 541.86,-106.54 493.83,-96.05"/>
<polygon fill="#63b8ff" stroke="#63b8ff" points="655.14,-134.87 665.66,-133.58 656.64,-128.03 655.14,-134.87"/>
</a>
</g>
</g>
<!-- Node15 -->
<g id="Node000015" class="node">
<title>Node15</title>
<g id="a_Node000015"><a xlink:href="source__code__window_8hpp.html" target="_top" xlink:title="This file defines a window that displays loaded ELF files (disassembled instructions of the source co...">
<polygon fill="white" stroke="#666666" points="647.5,-96 517.5,-96 517.5,-66 647.5,-66 647.5,-96"/>
<text text-anchor="start" x="525.5" y="-84" font-family="Helvetica,sans-Serif" font-size="10.00">src/gui/windows/source</text>
<text text-anchor="middle" x="582.5" y="-73" font-family="Helvetica,sans-Serif" font-size="10.00">_code_window.hpp</text>
</a>
</g>
</g>
<!-- Node3&#45;&gt;Node15 -->
<g id="edge16_Node000003_Node000015" class="edge">
<title>Node3&#45;&gt;Node15</title>
<g id="a_edge16_Node000003_Node000015"><a xlink:title=" ">
<path fill="none" stroke="#63b8ff" d="M682.65,-127.78C660.58,-117.69 633.56,-105.34 613.15,-96.01"/>
<polygon fill="#63b8ff" stroke="#63b8ff" points="681.23,-130.98 691.78,-131.95 684.14,-124.61 681.23,-130.98"/>
</a>
</g>
</g>
<!-- Node17 -->
<g id="Node000017" class="node">
<title>Node17</title>
<g id="a_Node000017"><a xlink:href="top__bar__menu_8hpp.html" target="_top" xlink:title=" ">
<polygon fill="white" stroke="#666666" points="779,-96 666,-96 666,-66 779,-66 779,-96"/>
<text text-anchor="start" x="674" y="-84" font-family="Helvetica,sans-Serif" font-size="10.00">src/gui/windows/top</text>
<text text-anchor="middle" x="722.5" y="-73" font-family="Helvetica,sans-Serif" font-size="10.00">_bar_menu.hpp</text>
</a>
</g>
</g>
<!-- Node3&#45;&gt;Node17 -->
<g id="edge19_Node000003_Node000017" class="edge">
<title>Node3&#45;&gt;Node17</title>
<g id="a_edge19_Node000003_Node000017"><a xlink:title=" ">
<path fill="none" stroke="#63b8ff" d="M722.5,-121.54C722.5,-112.96 722.5,-103.61 722.5,-96.16"/>
<polygon fill="#63b8ff" stroke="#63b8ff" points="719,-121.8 722.5,-131.8 726,-121.8 719,-121.8"/>
</a>
</g>
</g>
<!-- Node8 -->
<g id="Node000008" class="node">
<title>Node8</title>
<g id="a_Node000008"><a xlink:href="soc_8cpp.html" target="_top" xlink:title=" ">
<polygon fill="white" stroke="#666666" points="192,-24.5 97,-24.5 97,-5.5 192,-5.5 192,-24.5"/>
<text text-anchor="middle" x="144.5" y="-12.5" font-family="Helvetica,sans-Serif" font-size="10.00">src/core/soc.cpp</text>
</a>
</g>
</g>
<!-- Node7&#45;&gt;Node8 -->
<g id="edge7_Node000007_Node000008" class="edge">
<title>Node7&#45;&gt;Node8</title>
<g id="a_edge7_Node000007_Node000008"><a xlink:title=" ">
<path fill="none" stroke="#63b8ff" d="M144.5,-61.08C144.5,-49.13 144.5,-34.22 144.5,-24.91"/>
<polygon fill="#63b8ff" stroke="#63b8ff" points="141,-61.37 144.5,-71.37 148,-61.37 141,-61.37"/>
</a>
</g>
</g>
<!-- Node9 -->
<g id="Node000009" class="node">
<title>Node9</title>
<g id="a_Node000009"><a xlink:href="gui_8cpp.html" target="_top" xlink:title="This file implements the main GUI entry function that takes care of creating and rendering all window...">
<polygon fill="white" stroke="#666666" points="605,-24.5 518,-24.5 518,-5.5 605,-5.5 605,-24.5"/>
<text text-anchor="middle" x="561.5" y="-12.5" font-family="Helvetica,sans-Serif" font-size="10.00">src/gui/gui.cpp</text>
</a>
</g>
</g>
<!-- Node7&#45;&gt;Node9 -->
<g id="edge8_Node000007_Node000009" class="edge">
<title>Node7&#45;&gt;Node9</title>
<g id="a_edge8_Node000007_Node000009"><a xlink:title=" ">
<path fill="none" stroke="#63b8ff" d="M185.75,-69.05C190.7,-67.93 195.7,-66.88 200.5,-66 336.08,-41.24 373.09,-55.66 508.5,-30 516.26,-28.53 524.56,-26.54 532.23,-24.52"/>
<polygon fill="#63b8ff" stroke="#63b8ff" points="184.66,-65.71 175.74,-71.44 186.28,-72.52 184.66,-65.71"/>
</a>
</g>
</g>
<!-- Node10 -->
<g id="Node000010" class="node">
<title>Node10</title>
<g id="a_Node000010"><a xlink:href="main_8cpp.html" target="_top" xlink:title="This file defines and implements the main function of the application.">
<polygon fill="white" stroke="#666666" points="79,-24.5 0,-24.5 0,-5.5 79,-5.5 79,-24.5"/>
<text text-anchor="middle" x="39.5" y="-12.5" font-family="Helvetica,sans-Serif" font-size="10.00">src/main.cpp</text>
</a>
</g>
</g>
<!-- Node7&#45;&gt;Node10 -->
<g id="edge9_Node000007_Node000010" class="edge">
<title>Node7&#45;&gt;Node10</title>
<g id="a_edge9_Node000007_Node000010"><a xlink:title=" ">
<path fill="none" stroke="#63b8ff" d="M121.56,-66.02C100.91,-53.43 71.2,-35.32 53.77,-24.7"/>
<polygon fill="#63b8ff" stroke="#63b8ff" points="119.98,-69.15 130.34,-71.37 123.62,-63.18 119.98,-69.15"/>
</a>
</g>
</g>
<!-- Node11&#45;&gt;Node9 -->
<g id="edge11_Node000011_Node000009" class="edge">
<title>Node11&#45;&gt;Node9</title>
<g id="a_edge11_Node000011_Node000009"><a xlink:title=" ">
<path fill="none" stroke="#63b8ff" d="M351.05,-64.72C396.75,-55.25 456.11,-42.53 508.5,-30 515.53,-28.32 523.06,-26.4 530.17,-24.54"/>
<polygon fill="#63b8ff" stroke="#63b8ff" points="350.3,-61.3 341.22,-66.75 351.72,-68.16 350.3,-61.3"/>
</a>
</g>
</g>
<!-- Node12 -->
<g id="Node000012" class="node">
<title>Node12</title>
<g id="a_Node000012"><a xlink:href="control__window_8cpp.html" target="_top" xlink:title="This file implements a window that allows the user to control CPU execution.">
<polygon fill="white" stroke="#666666" points="341,-30 210,-30 210,0 341,0 341,-30"/>
<text text-anchor="start" x="218" y="-18" font-family="Helvetica,sans-Serif" font-size="10.00">src/gui/windows/control</text>
<text text-anchor="middle" x="275.5" y="-7" font-family="Helvetica,sans-Serif" font-size="10.00">_window.cpp</text>
</a>
</g>
</g>
<!-- Node11&#45;&gt;Node12 -->
<g id="edge12_Node000011_Node000012" class="edge">
<title>Node11&#45;&gt;Node12</title>
<g id="a_edge12_Node000011_Node000012"><a xlink:title=" ">
<path fill="none" stroke="#63b8ff" d="M275.5,-55.54C275.5,-46.96 275.5,-37.61 275.5,-30.16"/>
<polygon fill="#63b8ff" stroke="#63b8ff" points="272,-55.8 275.5,-65.8 279,-55.8 272,-55.8"/>
</a>
</g>
</g>
<!-- Node13&#45;&gt;Node9 -->
<g id="edge14_Node000013_Node000009" class="edge">
<title>Node13&#45;&gt;Node9</title>
<g id="a_edge14_Node000013_Node000009"><a xlink:title=" ">
<path fill="none" stroke="#63b8ff" d="M467.74,-61.46C492.88,-49.27 524.58,-33.9 543.93,-24.52"/>
<polygon fill="#63b8ff" stroke="#63b8ff" points="465.94,-58.44 458.47,-65.95 468.99,-64.74 465.94,-58.44"/>
</a>
</g>
</g>
<!-- Node14 -->
<g id="Node000014" class="node">
<title>Node14</title>
<g id="a_Node000014"><a xlink:href="registers__window_8cpp.html" target="_top" xlink:title="This file implements a window that displays the contents of all CPU registers.">
<polygon fill="white" stroke="#666666" points="499.5,-30 359.5,-30 359.5,0 499.5,0 499.5,-30"/>
<text text-anchor="start" x="367.5" y="-18" font-family="Helvetica,sans-Serif" font-size="10.00">src/gui/windows/registers</text>
<text text-anchor="middle" x="429.5" y="-7" font-family="Helvetica,sans-Serif" font-size="10.00">_window.cpp</text>
</a>
</g>
</g>
<!-- Node13&#45;&gt;Node14 -->
<g id="edge15_Node000013_Node000014" class="edge">
<title>Node13&#45;&gt;Node14</title>
<g id="a_edge15_Node000013_Node000014"><a xlink:title=" ">
<path fill="none" stroke="#63b8ff" d="M429.5,-55.54C429.5,-46.96 429.5,-37.61 429.5,-30.16"/>
<polygon fill="#63b8ff" stroke="#63b8ff" points="426,-55.8 429.5,-65.8 433,-55.8 426,-55.8"/>
</a>
</g>
</g>
<!-- Node15&#45;&gt;Node9 -->
<g id="edge17_Node000015_Node000009" class="edge">
<title>Node15&#45;&gt;Node9</title>
<g id="a_edge17_Node000015_Node000009"><a xlink:title=" ">
<path fill="none" stroke="#63b8ff" d="M574.72,-56.28C571.12,-45.31 567.06,-32.94 564.4,-24.84"/>
<polygon fill="#63b8ff" stroke="#63b8ff" points="571.4,-57.39 577.84,-65.8 578.05,-55.2 571.4,-57.39"/>
</a>
</g>
</g>
<!-- Node16 -->
<g id="Node000016" class="node">
<title>Node16</title>
<g id="a_Node000016"><a xlink:href="source__code__window_8cpp.html" target="_top" xlink:title="This file implements a window that displays loaded ELF files (disassembled instructions of the source...">
<polygon fill="white" stroke="#666666" points="753.5,-30 623.5,-30 623.5,0 753.5,0 753.5,-30"/>
<text text-anchor="start" x="631.5" y="-18" font-family="Helvetica,sans-Serif" font-size="10.00">src/gui/windows/source</text>
<text text-anchor="middle" x="688.5" y="-7" font-family="Helvetica,sans-Serif" font-size="10.00">_code_window.cpp</text>
</a>
</g>
</g>
<!-- Node15&#45;&gt;Node16 -->
<g id="edge18_Node000015_Node000016" class="edge">
<title>Node15&#45;&gt;Node16</title>
<g id="a_edge18_Node000015_Node000016"><a xlink:title=" ">
<path fill="none" stroke="#63b8ff" d="M614.47,-60.69C630.84,-50.82 650.39,-39.01 665.29,-30.01"/>
<polygon fill="#63b8ff" stroke="#63b8ff" points="612.51,-57.79 605.76,-65.95 616.13,-63.78 612.51,-57.79"/>
</a>
</g>
</g>
<!-- Node17&#45;&gt;Node9 -->
<g id="edge20_Node000017_Node000009" class="edge">
<title>Node17&#45;&gt;Node9</title>
<g id="a_edge20_Node000017_Node000009"><a xlink:title=" ">
<path fill="none" stroke="#63b8ff" d="M677.87,-62.26C646.91,-49.95 607.05,-34.11 582.93,-24.52"/>
<polygon fill="#63b8ff" stroke="#63b8ff" points="676.58,-65.51 687.17,-65.95 679.17,-59.01 676.58,-65.51"/>
</a>
</g>
</g>
<!-- Node18 -->
<g id="Node000018" class="node">
<title>Node18</title>
<g id="a_Node000018"><a xlink:href="top__bar__menu_8cpp.html" target="_top" xlink:title=" ">
<polygon fill="white" stroke="#666666" points="885,-30 772,-30 772,0 885,0 885,-30"/>
<text text-anchor="start" x="780" y="-18" font-family="Helvetica,sans-Serif" font-size="10.00">src/gui/windows/top</text>
<text text-anchor="middle" x="828.5" y="-7" font-family="Helvetica,sans-Serif" font-size="10.00">_bar_menu.cpp</text>
</a>
</g>
</g>
<!-- Node17&#45;&gt;Node18 -->
<g id="edge21_Node000017_Node000018" class="edge">
<title>Node17&#45;&gt;Node18</title>
<g id="a_edge21_Node000017_Node000018"><a xlink:title=" ">
<path fill="none" stroke="#63b8ff" d="M754.47,-60.69C770.84,-50.82 790.39,-39.01 805.29,-30.01"/>
<polygon fill="#63b8ff" stroke="#63b8ff" points="752.51,-57.79 745.76,-65.95 756.13,-63.78 752.51,-57.79"/>
</a>
</g>
</g>
<!-- Node20&#45;&gt;Node4 -->
<g id="edge24_Node000020_Node000004" class="edge">
<title>Node20&#45;&gt;Node4</title>
<g id="a_edge24_Node000020_Node000004"><a xlink:title=" ">
<path fill="none" stroke="#63b8ff" d="M1074.32,-192.16C1085.83,-184.03 1097.93,-173.76 1106.5,-162 1121.23,-141.78 1128.74,-113.14 1132.13,-96.17"/>
<polygon fill="#63b8ff" stroke="#63b8ff" points="1072.05,-189.47 1065.7,-197.95 1075.95,-195.28 1072.05,-189.47"/>
</a>
</g>
</g>
<!-- Node21 -->
<g id="Node000021" class="node">
<title>Node21</title>
<g id="a_Node000021"><a xlink:href="mac_8cpp.html" target="_top" xlink:title="This file implements the functionality of the CPU multiplier (MAC unit).">
<polygon fill="white" stroke="#666666" points="1097,-162 984,-162 984,-132 1097,-132 1097,-162"/>
<text text-anchor="start" x="992" y="-150" font-family="Helvetica,sans-Serif" font-size="10.00">src/core/arm1176jzf</text>
<text text-anchor="middle" x="1040.5" y="-139" font-family="Helvetica,sans-Serif" font-size="10.00">_s/mac.cpp</text>
</a>
</g>
</g>
<!-- Node20&#45;&gt;Node21 -->
<g id="edge25_Node000020_Node000021" class="edge">
<title>Node20&#45;&gt;Node21</title>
<g id="a_edge25_Node000020_Node000021"><a xlink:title=" ">
<path fill="none" stroke="#63b8ff" d="M1040.5,-187.54C1040.5,-178.96 1040.5,-169.61 1040.5,-162.16"/>
<polygon fill="#63b8ff" stroke="#63b8ff" points="1037,-187.8 1040.5,-197.8 1044,-187.8 1037,-187.8"/>
</a>
</g>
</g>
</g>
</svg>
