<?xml version="1.0" encoding="UTF-8" standalone="no"?>
<!DOCTYPE svg PUBLIC "-//W3C//DTD SVG 1.1//EN"
 "http://www.w3.org/Graphics/SVG/1.1/DTD/svg11.dtd">
<!-- Generated by graphviz version 2.43.0 (0)
 -->
<!-- Title: zero_mate::utils::prefs::Get_Preference Pages: 1 -->
<svg width="450pt" height="49pt"
 viewBox="0.00 0.00 450.00 49.00" xmlns="http://www.w3.org/2000/svg" xmlns:xlink="http://www.w3.org/1999/xlink">
<g id="graph0" class="graph" transform="scale(1 1) rotate(0) translate(4 45)">
<title>zero_mate::utils::prefs::Get_Preference</title>
<!-- Node1 -->
<g id="Node000001" class="node">
<title>Node1</title>
<g id="a_Node000001"><a xlink:title="Retrieves a given application preference; always returns a string, which can be converted to the desi...">
<polygon fill="#999999" stroke="#666666" points="442,-35.5 316,-35.5 316,-5.5 442,-5.5 442,-35.5"/>
<text text-anchor="start" x="324" y="-23.5" font-family="Helvetica,sans-Serif" font-size="10.00">zero_mate::utils::prefs</text>
<text text-anchor="middle" x="379" y="-12.5" font-family="Helvetica,sans-Serif" font-size="10.00">::Get_Preference</text>
</a>
</g>
</g>
<!-- Node2 -->
<g id="Node000002" class="node">
<title>Node2</title>
<g id="a_Node000002"><a xlink:href="classzero__mate_1_1gui_1_1CTop__Bar__Menu.html#a38a9c7aa06cf280f433a9b9fb8e0d2cb" target="_top" xlink:title="Opens up a file browser.">
<polygon fill="white" stroke="#666666" points="280,-41 155,-41 155,0 280,0 280,-41"/>
<text text-anchor="start" x="163" y="-29" font-family="Helvetica,sans-Serif" font-size="10.00">zero_mate::gui::CTop</text>
<text text-anchor="start" x="163" y="-18" font-family="Helvetica,sans-Serif" font-size="10.00">_Bar_Menu::Open_File</text>
<text text-anchor="middle" x="217.5" y="-7" font-family="Helvetica,sans-Serif" font-size="10.00">_Browser</text>
</a>
</g>
</g>
<!-- Node1&#45;&gt;Node2 -->
<g id="edge1_Node000001_Node000002" class="edge">
<title>Node1&#45;&gt;Node2</title>
<g id="a_edge1_Node000001_Node000002"><a xlink:title=" ">
<path fill="none" stroke="#63b8ff" d="M305.6,-20.5C297.12,-20.5 288.52,-20.5 280.19,-20.5"/>
<polygon fill="#63b8ff" stroke="#63b8ff" points="305.88,-24 315.88,-20.5 305.88,-17 305.88,-24"/>
</a>
</g>
</g>
<!-- Node3 -->
<g id="Node000003" class="node">
<title>Node3</title>
<g id="a_Node000003"><a xlink:href="classzero__mate_1_1gui_1_1CTop__Bar__Menu.html#ad8f10caa7780d6c4e9fb20c4ab702a60" target="_top" xlink:title="Renders the bar (IGUI_Window interface).">
<polygon fill="white" stroke="#666666" points="119,-35.5 0,-35.5 0,-5.5 119,-5.5 119,-35.5"/>
<text text-anchor="start" x="8" y="-23.5" font-family="Helvetica,sans-Serif" font-size="10.00">zero_mate::gui::CTop</text>
<text text-anchor="middle" x="59.5" y="-12.5" font-family="Helvetica,sans-Serif" font-size="10.00">_Bar_Menu::Render</text>
</a>
</g>
</g>
<!-- Node2&#45;&gt;Node3 -->
<g id="edge2_Node000002_Node000003" class="edge">
<title>Node2&#45;&gt;Node3</title>
<g id="a_edge2_Node000002_Node000003"><a xlink:title=" ">
<path fill="none" stroke="#63b8ff" d="M144.83,-20.5C136.24,-20.5 127.54,-20.5 119.16,-20.5"/>
<polygon fill="#63b8ff" stroke="#63b8ff" points="144.84,-24 154.84,-20.5 144.84,-17 144.84,-24"/>
</a>
</g>
</g>
</g>
</svg>
