<?xml version="1.0" encoding="UTF-8" standalone="no"?>
<!DOCTYPE svg PUBLIC "-//W3C//DTD SVG 1.1//EN"
 "http://www.w3.org/Graphics/SVG/1.1/DTD/svg11.dtd">
<!-- Generated by graphviz version 2.43.0 (0)
 -->
<!-- Title: zero_mate::utils::math::ROR Pages: 1 -->
<svg width="713pt" height="98pt"
 viewBox="0.00 0.00 713.00 97.50" xmlns="http://www.w3.org/2000/svg" xmlns:xlink="http://www.w3.org/1999/xlink">
<g id="graph0" class="graph" transform="scale(1 1) rotate(0) translate(4 93.5)">
<title>zero_mate::utils::math::ROR</title>
<!-- Node1 -->
<g id="Node000001" class="node">
<title>Node1</title>
<g id="a_Node000001"><a xlink:title="Performs an ROR (rotate right extended) operation on the given integral value.">
<polygon fill="#999999" stroke="#666666" points="705,-57 551,-57 551,-38 705,-38 705,-57"/>
<text text-anchor="middle" x="628" y="-45" font-family="Helvetica,sans-Serif" font-size="10.00">zero_mate::utils::math::ROR</text>
</a>
</g>
</g>
<!-- Node2 -->
<g id="Node000002" class="node">
<title>Node2</title>
<g id="a_Node000002"><a xlink:href="classzero__mate_1_1arm1176jzf__s_1_1CCPU__Core.html#a6f3ef80bb3c9fbf866338e7d78270bf1" target="_top" xlink:title="Executes an extend instruction.">
<polygon fill="white" stroke="#666666" points="505,-89.5 373,-89.5 373,-59.5 505,-59.5 505,-89.5"/>
<text text-anchor="start" x="381" y="-77.5" font-family="Helvetica,sans-Serif" font-size="10.00">zero_mate::arm1176jzf</text>
<text text-anchor="middle" x="439" y="-66.5" font-family="Helvetica,sans-Serif" font-size="10.00">_s::CCPU_Core::Execute</text>
</a>
</g>
</g>
<!-- Node1&#45;&gt;Node2 -->
<g id="edge1_Node000001_Node000002" class="edge">
<title>Node1&#45;&gt;Node2</title>
<g id="a_edge1_Node000001_Node000002"><a xlink:title=" ">
<path fill="none" stroke="#63b8ff" d="M551.13,-58.45C535.84,-60.66 519.9,-62.96 505.02,-65.11"/>
<polygon fill="#63b8ff" stroke="#63b8ff" points="551.67,-61.91 561.07,-57.02 550.67,-54.98 551.67,-61.91"/>
</a>
</g>
</g>
<!-- Node3 -->
<g id="Node000003" class="node">
<title>Node3</title>
<g id="a_Node000003"><a xlink:href="classzero__mate_1_1arm1176jzf__s_1_1CCPU__Core.html#a4b9e6a828e9739a227ab6da615fb4b15" target="_top" xlink:title="Calculates the second immediate operand of a given instruction.">
<polygon fill="white" stroke="#666666" points="515,-41 363,-41 363,0 515,0 515,-41"/>
<text text-anchor="start" x="371" y="-29" font-family="Helvetica,sans-Serif" font-size="10.00">zero_mate::arm1176jzf</text>
<text text-anchor="start" x="371" y="-18" font-family="Helvetica,sans-Serif" font-size="10.00">_s::CCPU_Core::Get_Second</text>
<text text-anchor="middle" x="439" y="-7" font-family="Helvetica,sans-Serif" font-size="10.00">_Operand_Imm</text>
</a>
</g>
</g>
<!-- Node1&#45;&gt;Node3 -->
<g id="edge2_Node000001_Node000003" class="edge">
<title>Node1&#45;&gt;Node3</title>
<g id="a_edge2_Node000001_Node000003"><a xlink:title=" ">
<path fill="none" stroke="#63b8ff" d="M550.86,-36.51C539.1,-34.81 526.96,-33.06 515.23,-31.36"/>
<polygon fill="#63b8ff" stroke="#63b8ff" points="550.67,-40.02 561.07,-37.98 551.67,-33.09 550.67,-40.02"/>
</a>
</g>
</g>
<!-- Node4 -->
<g id="Node000004" class="node">
<title>Node4</title>
<g id="a_Node000004"><a xlink:href="classzero__mate_1_1arm1176jzf__s_1_1CCPU__Core.html#abe7461d09a52f28f99037717f61975c6" target="_top" xlink:title="Executes an MSR instruction (move data to CPSR/SPSR from an ARM register).">
<polygon fill="white" stroke="#666666" points="327,-35.5 168,-35.5 168,-5.5 327,-5.5 327,-35.5"/>
<text text-anchor="start" x="176" y="-23.5" font-family="Helvetica,sans-Serif" font-size="10.00">zero_mate::arm1176jzf</text>
<text text-anchor="middle" x="247.5" y="-12.5" font-family="Helvetica,sans-Serif" font-size="10.00">_s::CCPU_Core::Execute_MSR</text>
</a>
</g>
</g>
<!-- Node3&#45;&gt;Node4 -->
<g id="edge3_Node000003_Node000004" class="edge">
<title>Node3&#45;&gt;Node4</title>
<g id="a_edge3_Node000003_Node000004"><a xlink:title=" ">
<path fill="none" stroke="#63b8ff" d="M352.62,-20.5C344.19,-20.5 335.67,-20.5 327.31,-20.5"/>
<polygon fill="#63b8ff" stroke="#63b8ff" points="352.83,-24 362.83,-20.5 352.83,-17 352.83,-24"/>
</a>
</g>
</g>
<!-- Node5 -->
<g id="Node000005" class="node">
<title>Node5</title>
<g id="a_Node000005"><a xlink:href="classzero__mate_1_1arm1176jzf__s_1_1CCPU__Core.html#a3a90c040b3cbe4545a9acc5e35acdd45" target="_top" xlink:title="Executes a PSR transfer instruction.">
<polygon fill="white" stroke="#666666" points="132,-35.5 0,-35.5 0,-5.5 132,-5.5 132,-35.5"/>
<text text-anchor="start" x="8" y="-23.5" font-family="Helvetica,sans-Serif" font-size="10.00">zero_mate::arm1176jzf</text>
<text text-anchor="middle" x="66" y="-12.5" font-family="Helvetica,sans-Serif" font-size="10.00">_s::CCPU_Core::Execute</text>
</a>
</g>
</g>
<!-- Node4&#45;&gt;Node5 -->
<g id="edge4_Node000004_Node000005" class="edge">
<title>Node4&#45;&gt;Node5</title>
<g id="a_edge4_Node000004_Node000005"><a xlink:title=" ">
<path fill="none" stroke="#63b8ff" d="M157.71,-20.5C149.12,-20.5 140.52,-20.5 132.23,-20.5"/>
<polygon fill="#63b8ff" stroke="#63b8ff" points="157.77,-24 167.77,-20.5 157.77,-17 157.77,-24"/>
</a>
</g>
</g>
</g>
</svg>
