<?xml version="1.0" encoding="UTF-8" standalone="no"?>
<!DOCTYPE svg PUBLIC "-//W3C//DTD SVG 1.1//EN"
 "http://www.w3.org/Graphics/SVG/1.1/DTD/svg11.dtd">
<!-- Generated by graphviz version 2.43.0 (0)
 -->
<!-- Title: zero_mate::utils::math::Is_Bit_Set Pages: 1 -->
<svg width="900pt" height="1074pt"
 viewBox="0.00 0.00 900.00 1074.00" xmlns="http://www.w3.org/2000/svg" xmlns:xlink="http://www.w3.org/1999/xlink">
<g id="graph0" class="graph" transform="scale(1 1) rotate(0) translate(4 1070)">
<title>zero_mate::utils::math::Is_Bit_Set</title>
<!-- Node1 -->
<g id="Node000001" class="node">
<title>Node1</title>
<g id="a_Node000001"><a xlink:title="Tests whether a bit is set in the given integral variable.">
<polygon fill="#999999" stroke="#666666" points="892,-538.5 765,-538.5 765,-508.5 892,-508.5 892,-538.5"/>
<text text-anchor="start" x="773" y="-526.5" font-family="Helvetica,sans-Serif" font-size="10.00">zero_mate::utils::math</text>
<text text-anchor="middle" x="828.5" y="-515.5" font-family="Helvetica,sans-Serif" font-size="10.00">::Is_Bit_Set</text>
</a>
</g>
</g>
<!-- Node2 -->
<g id="Node000002" class="node">
<title>Node2</title>
<g id="a_Node000002"><a xlink:href="namespacezero__mate_1_1utils_1_1math.html#a00a7aae00296bd2b28674fa305507ded" target="_top" xlink:title="Performs an ASR (arithmetic shift right) operation on the given integral value.">
<polygon fill="white" stroke="#666666" points="724,-1066 572,-1066 572,-1047 724,-1047 724,-1066"/>
<text text-anchor="middle" x="648" y="-1054" font-family="Helvetica,sans-Serif" font-size="10.00">zero_mate::utils::math::ASR</text>
</a>
</g>
</g>
<!-- Node1&#45;&gt;Node2 -->
<g id="edge1_Node000001_Node000002" class="edge">
<title>Node1&#45;&gt;Node2</title>
<g id="a_edge1_Node000001_Node000002"><a xlink:title=" ">
<path fill="none" stroke="#63b8ff" d="M826.19,-548.9C820.84,-642.42 797.6,-965.83 729,-1037.5 725.35,-1041.32 721.08,-1044.43 716.45,-1046.95"/>
<polygon fill="#63b8ff" stroke="#63b8ff" points="829.7,-548.85 826.75,-538.67 822.71,-548.46 829.7,-548.85"/>
</a>
</g>
</g>
<!-- Node3 -->
<g id="Node000003" class="node">
<title>Node3</title>
<g id="a_Node000003"><a xlink:href="namespacezero__mate_1_1utils_1_1math.html#a6982f28e8dee9d4673f319616fa1b756" target="_top" xlink:title="Checks if adding or subtracting the two operands (including the carry flag) causes an overflow/underf...">
<polygon fill="white" stroke="#666666" points="711.5,-1028.5 584.5,-1028.5 584.5,-998.5 711.5,-998.5 711.5,-1028.5"/>
<text text-anchor="start" x="592.5" y="-1016.5" font-family="Helvetica,sans-Serif" font-size="10.00">zero_mate::utils::math</text>
<text text-anchor="middle" x="648" y="-1005.5" font-family="Helvetica,sans-Serif" font-size="10.00">::Check_Overflow</text>
</a>
</g>
</g>
<!-- Node1&#45;&gt;Node3 -->
<g id="edge2_Node000001_Node000003" class="edge">
<title>Node1&#45;&gt;Node3</title>
<g id="a_edge2_Node000001_Node000003"><a xlink:title=" ">
<path fill="none" stroke="#63b8ff" d="M825.49,-548.96C818.09,-636.54 789.54,-923.7 729,-989.5 724.09,-994.84 718.05,-999 711.5,-1002.25"/>
<polygon fill="#63b8ff" stroke="#63b8ff" points="828.99,-549.1 826.33,-538.85 822.02,-548.52 828.99,-549.1"/>
</a>
</g>
</g>
<!-- Node4 -->
<g id="Node000004" class="node">
<title>Node4</title>
<g id="a_Node000004"><a xlink:href="namespacezero__mate_1_1utils_1_1math.html#a1c75d7ad2f6b38c25ccf169c6a5e8649" target="_top" xlink:title="Checks if performing op1 &#45; op2 would either an overflow or underflow.">
<polygon fill="white" stroke="#666666" points="729,-980.5 567,-980.5 567,-950.5 729,-950.5 729,-980.5"/>
<text text-anchor="start" x="575" y="-968.5" font-family="Helvetica,sans-Serif" font-size="10.00">zero_mate::utils::math</text>
<text text-anchor="middle" x="648" y="-957.5" font-family="Helvetica,sans-Serif" font-size="10.00">::Check_Overflow_Subtraction</text>
</a>
</g>
</g>
<!-- Node1&#45;&gt;Node4 -->
<g id="edge3_Node000001_Node000004" class="edge">
<title>Node1&#45;&gt;Node4</title>
<g id="a_edge3_Node000001_Node000004"><a xlink:title=" ">
<path fill="none" stroke="#63b8ff" d="M824.82,-548.94C815.76,-630.5 783.68,-883.44 729,-941.5 725.82,-944.88 722.18,-947.79 718.26,-950.29"/>
<polygon fill="#63b8ff" stroke="#63b8ff" points="828.35,-548.93 825.95,-538.61 821.39,-548.17 828.35,-548.93"/>
</a>
</g>
</g>
<!-- Node5 -->
<g id="Node000005" class="node">
<title>Node5</title>
<g id="a_Node000005"><a xlink:href="classzero__mate_1_1peripheral_1_1CGPIO__Manager.html#a4a4e9cf470ed6f7dbfb3ada75d35e47c" target="_top" xlink:title="Clears a pending interrupt by writing a 1 to the GPEDS register.">
<polygon fill="white" stroke="#666666" points="725.5,-619.5 570.5,-619.5 570.5,-589.5 725.5,-589.5 725.5,-619.5"/>
<text text-anchor="start" x="578.5" y="-607.5" font-family="Helvetica,sans-Serif" font-size="10.00">zero_mate::peripheral</text>
<text text-anchor="middle" x="648" y="-596.5" font-family="Helvetica,sans-Serif" font-size="10.00">::CGPIO_Manager::Clear_IRQ</text>
</a>
</g>
</g>
<!-- Node1&#45;&gt;Node5 -->
<g id="edge4_Node000001_Node000005" class="edge">
<title>Node1&#45;&gt;Node5</title>
<g id="a_edge4_Node000001_Node000005"><a xlink:title=" ">
<path fill="none" stroke="#63b8ff" d="M796.32,-544.06C777.41,-555.88 752.48,-570.35 729,-580.5 721.41,-583.78 713.24,-586.79 705.11,-589.48"/>
<polygon fill="#63b8ff" stroke="#63b8ff" points="798.24,-546.99 804.81,-538.68 794.49,-541.08 798.24,-546.99"/>
</a>
</g>
</g>
<!-- Node7 -->
<g id="Node000007" class="node">
<title>Node7</title>
<g id="a_Node000007"><a xlink:href="classzero__mate_1_1arm1176jzf__s_1_1CCPU__Core.html#a78980460ec7632099c51e96226a08f31" target="_top" xlink:title="Determines the mode of the CPU that should be used in a block data transfer instruction.">
<polygon fill="white" stroke="#666666" points="721,-932 575,-932 575,-891 721,-891 721,-932"/>
<text text-anchor="start" x="583" y="-920" font-family="Helvetica,sans-Serif" font-size="10.00">zero_mate::arm1176jzf</text>
<text text-anchor="start" x="583" y="-909" font-family="Helvetica,sans-Serif" font-size="10.00">_s::CCPU_Core::Determine</text>
<text text-anchor="middle" x="648" y="-898" font-family="Helvetica,sans-Serif" font-size="10.00">_CPU_Mode</text>
</a>
</g>
</g>
<!-- Node1&#45;&gt;Node7 -->
<g id="edge6_Node000001_Node000007" class="edge">
<title>Node1&#45;&gt;Node7</title>
<g id="a_edge6_Node000001_Node000007"><a xlink:title=" ">
<path fill="none" stroke="#63b8ff" d="M827.5,-548.93C826.16,-612.15 814.22,-778.4 729,-876.5 724.13,-882.11 718.19,-886.85 711.77,-890.86"/>
<polygon fill="#63b8ff" stroke="#63b8ff" points="831,-548.74 827.64,-538.69 824,-548.64 831,-548.74"/>
</a>
</g>
</g>
<!-- Node8 -->
<g id="Node000008" class="node">
<title>Node8</title>
<g id="a_Node000008"><a xlink:href="classzero__mate_1_1arm1176jzf__s_1_1CCPU__Core.html#a524d4d2622a78e1c416bf4528700bc00" target="_top" xlink:title="Executes a block data transfer instruction.">
<polygon fill="white" stroke="#666666" points="513,-893.5 381,-893.5 381,-863.5 513,-863.5 513,-893.5"/>
<text text-anchor="start" x="389" y="-881.5" font-family="Helvetica,sans-Serif" font-size="10.00">zero_mate::arm1176jzf</text>
<text text-anchor="middle" x="447" y="-870.5" font-family="Helvetica,sans-Serif" font-size="10.00">_s::CCPU_Core::Execute</text>
</a>
</g>
</g>
<!-- Node1&#45;&gt;Node8 -->
<g id="edge12_Node000001_Node000008" class="edge">
<title>Node1&#45;&gt;Node8</title>
<g id="a_edge12_Node000001_Node000008"><a xlink:title=" ">
<path fill="none" stroke="#63b8ff" d="M828.21,-548.9C828.4,-610.35 819.55,-767.53 729,-843.5 697.32,-870.08 585.9,-876.84 513.25,-878.35"/>
<polygon fill="#63b8ff" stroke="#63b8ff" points="831.7,-548.54 828.08,-538.59 824.7,-548.63 831.7,-548.54"/>
</a>
</g>
</g>
<!-- Node9 -->
<g id="Node000009" class="node">
<title>Node9</title>
<g id="a_Node000009"><a xlink:href="classzero__mate_1_1peripheral_1_1CInterrupt__Controller.html#aa731c1d6e73a4db1087a803ca5fe5557" target="_top" xlink:title="Enables/disables interrupts from a basic IRQ source.">
<polygon fill="white" stroke="#666666" points="724.5,-834 571.5,-834 571.5,-793 724.5,-793 724.5,-834"/>
<text text-anchor="start" x="579.5" y="-822" font-family="Helvetica,sans-Serif" font-size="10.00">zero_mate::peripheral</text>
<text text-anchor="start" x="579.5" y="-811" font-family="Helvetica,sans-Serif" font-size="10.00">::CInterrupt_Controller</text>
<text text-anchor="middle" x="648" y="-800" font-family="Helvetica,sans-Serif" font-size="10.00">::Enable_IRQ_Basic_Sources</text>
</a>
</g>
</g>
<!-- Node1&#45;&gt;Node9 -->
<g id="edge8_Node000001_Node000009" class="edge">
<title>Node1&#45;&gt;Node9</title>
<g id="a_edge8_Node000001_Node000009"><a xlink:title=" ">
<path fill="none" stroke="#63b8ff" d="M824.95,-548.72C818.43,-600.12 796.6,-717.78 729,-784.5 725.85,-787.61 722.33,-790.4 718.59,-792.88"/>
<polygon fill="#63b8ff" stroke="#63b8ff" points="828.46,-548.86 826.15,-538.52 821.5,-548.04 828.46,-548.86"/>
</a>
</g>
</g>
<!-- Node11 -->
<g id="Node000011" class="node">
<title>Node11</title>
<g id="a_Node000011"><a xlink:href="classzero__mate_1_1peripheral_1_1CInterrupt__Controller.html#ac3c9423e443ca2389cef743f32713cca" target="_top" xlink:title="Enables/disables interrupts from an IRQ source.">
<polygon fill="white" stroke="#666666" points="710.5,-775 585.5,-775 585.5,-734 710.5,-734 710.5,-775"/>
<text text-anchor="start" x="593.5" y="-763" font-family="Helvetica,sans-Serif" font-size="10.00">zero_mate::peripheral</text>
<text text-anchor="start" x="593.5" y="-752" font-family="Helvetica,sans-Serif" font-size="10.00">::CInterrupt_Controller</text>
<text text-anchor="middle" x="648" y="-741" font-family="Helvetica,sans-Serif" font-size="10.00">::Enable_IRQ_Sources</text>
</a>
</g>
</g>
<!-- Node1&#45;&gt;Node11 -->
<g id="edge10_Node000001_Node000011" class="edge">
<title>Node1&#45;&gt;Node11</title>
<g id="a_edge10_Node000001_Node000011"><a xlink:title=" ">
<path fill="none" stroke="#63b8ff" d="M821.65,-548.65C810.63,-590.74 782.87,-675.61 729,-724.5 723.62,-729.38 717.36,-733.5 710.77,-736.96"/>
<polygon fill="#63b8ff" stroke="#63b8ff" points="825.12,-549.24 824.16,-538.69 818.33,-547.53 825.12,-549.24"/>
</a>
</g>
</g>
<!-- Node12 -->
<g id="Node000012" class="node">
<title>Node12</title>
<g id="a_Node000012"><a xlink:href="classzero__mate_1_1arm1176jzf__s_1_1CCPU__Core.html#af576acdfa9a998bc49f2203c5be2ab8c" target="_top" xlink:title="Executes a CLZ instruction.">
<polygon fill="white" stroke="#666666" points="714,-667.5 582,-667.5 582,-637.5 714,-637.5 714,-667.5"/>
<text text-anchor="start" x="590" y="-655.5" font-family="Helvetica,sans-Serif" font-size="10.00">zero_mate::arm1176jzf</text>
<text text-anchor="middle" x="648" y="-644.5" font-family="Helvetica,sans-Serif" font-size="10.00">_s::CCPU_Core::Execute</text>
</a>
</g>
</g>
<!-- Node1&#45;&gt;Node12 -->
<g id="edge13_Node000001_Node000012" class="edge">
<title>Node1&#45;&gt;Node12</title>
<g id="a_edge13_Node000001_Node000012"><a xlink:title=" ">
<path fill="none" stroke="#63b8ff" d="M811.37,-546.91C793.76,-570.76 763.45,-607.17 729,-628.5 723.45,-631.94 717.38,-634.9 711.15,-637.46"/>
<polygon fill="#63b8ff" stroke="#63b8ff" points="814.25,-548.9 817.26,-538.75 808.57,-544.8 814.25,-548.9"/>
</a>
</g>
</g>
<!-- Node13 -->
<g id="Node000013" class="node">
<title>Node13</title>
<g id="a_Node000013"><a xlink:href="classzero__mate_1_1arm1176jzf__s_1_1CCPU__Core.html#a6f3ef80bb3c9fbf866338e7d78270bf1" target="_top" xlink:title="Executes an extend instruction.">
<polygon fill="white" stroke="#666666" points="513,-148.5 381,-148.5 381,-118.5 513,-118.5 513,-148.5"/>
<text text-anchor="start" x="389" y="-136.5" font-family="Helvetica,sans-Serif" font-size="10.00">zero_mate::arm1176jzf</text>
<text text-anchor="middle" x="447" y="-125.5" font-family="Helvetica,sans-Serif" font-size="10.00">_s::CCPU_Core::Execute</text>
</a>
</g>
</g>
<!-- Node1&#45;&gt;Node13 -->
<g id="edge14_Node000001_Node000013" class="edge">
<title>Node1&#45;&gt;Node13</title>
<g id="a_edge14_Node000001_Node000013"><a xlink:title=" ">
<path fill="none" stroke="#63b8ff" d="M824.75,-497.84C815.87,-420.1 785.15,-189.71 729,-144.5 664.83,-92.83 563.16,-104.5 501.31,-118.46"/>
<polygon fill="#63b8ff" stroke="#63b8ff" points="821.32,-498.62 825.91,-508.16 828.28,-497.84 821.32,-498.62"/>
</a>
</g>
</g>
<!-- Node14 -->
<g id="Node000014" class="node">
<title>Node14</title>
<g id="a_Node000014"><a xlink:href="namespacezero__mate_1_1arm1176jzf__s_1_1mac.html#ae0004fe8005cb2c044afa26992a8f42a" target="_top" xlink:title="Multiples two 32&#45;bit values (the result it treated as a 32&#45;value as well).">
<polygon fill="white" stroke="#666666" points="713,-715.5 583,-715.5 583,-685.5 713,-685.5 713,-715.5"/>
<text text-anchor="start" x="591" y="-703.5" font-family="Helvetica,sans-Serif" font-size="10.00">zero_mate::arm1176jzf</text>
<text text-anchor="middle" x="648" y="-692.5" font-family="Helvetica,sans-Serif" font-size="10.00">_s::mac::Execute</text>
</a>
</g>
</g>
<!-- Node1&#45;&gt;Node14 -->
<g id="edge15_Node000001_Node000014" class="edge">
<title>Node1&#45;&gt;Node14</title>
<g id="a_edge15_Node000001_Node000014"><a xlink:title=" ">
<path fill="none" stroke="#63b8ff" d="M818.06,-548.25C803.87,-582.18 773.84,-642.76 729,-676.5 724.13,-680.16 718.71,-683.27 713.05,-685.9"/>
<polygon fill="#63b8ff" stroke="#63b8ff" points="821.45,-549.22 821.96,-538.64 814.96,-546.59 821.45,-549.22"/>
</a>
</g>
</g>
<!-- Node17 -->
<g id="Node000017" class="node">
<title>Node17</title>
<g id="a_Node000017"><a xlink:href="namespacezero__mate_1_1arm1176jzf__s_1_1mac.html#ab1a830ce062246c13527c96c13b3b6d2" target="_top" xlink:title="Multiples two 32&#45;bit values (the result is a 64&#45;bit value split up into two 32&#45;bit values).">
<polygon fill="white" stroke="#666666" points="713,-511.5 583,-511.5 583,-481.5 713,-481.5 713,-511.5"/>
<text text-anchor="start" x="591" y="-499.5" font-family="Helvetica,sans-Serif" font-size="10.00">zero_mate::arm1176jzf</text>
<text text-anchor="middle" x="648" y="-488.5" font-family="Helvetica,sans-Serif" font-size="10.00">_s::mac::Execute</text>
</a>
</g>
</g>
<!-- Node1&#45;&gt;Node17 -->
<g id="edge18_Node000001_Node000017" class="edge">
<title>Node1&#45;&gt;Node17</title>
<g id="a_edge18_Node000001_Node000017"><a xlink:title=" ">
<path fill="none" stroke="#63b8ff" d="M754.85,-512.51C741,-510.42 726.6,-508.24 713.04,-506.19"/>
<polygon fill="#63b8ff" stroke="#63b8ff" points="754.41,-515.98 764.82,-514.02 755.45,-509.06 754.41,-515.98"/>
</a>
</g>
</g>
<!-- Node18 -->
<g id="Node000018" class="node">
<title>Node18</title>
<g id="a_Node000018"><a xlink:href="classzero__mate_1_1arm1176jzf__s_1_1isa_1_1CBranch.html#a802cd5fadc7952225e152142ab047b0f" target="_top" xlink:title="Returns the offset of the branch instruction.">
<polygon fill="white" stroke="#666666" points="713,-463 583,-463 583,-422 713,-422 713,-463"/>
<text text-anchor="start" x="591" y="-451" font-family="Helvetica,sans-Serif" font-size="10.00">zero_mate::arm1176jzf</text>
<text text-anchor="start" x="591" y="-440" font-family="Helvetica,sans-Serif" font-size="10.00">_s::isa::CBranch::Get</text>
<text text-anchor="middle" x="648" y="-429" font-family="Helvetica,sans-Serif" font-size="10.00">_Offset</text>
</a>
</g>
</g>
<!-- Node1&#45;&gt;Node18 -->
<g id="edge19_Node000001_Node000018" class="edge">
<title>Node1&#45;&gt;Node18</title>
<g id="a_edge19_Node000001_Node000018"><a xlink:title=" ">
<path fill="none" stroke="#63b8ff" d="M791.41,-503.5C772.99,-493.63 750.08,-481.87 729,-472.5 721.82,-469.31 714.18,-466.15 706.58,-463.15"/>
<polygon fill="#63b8ff" stroke="#63b8ff" points="789.87,-506.65 800.33,-508.32 793.2,-500.49 789.87,-506.65"/>
</a>
</g>
</g>
<!-- Node19 -->
<g id="Node000019" class="node">
<title>Node19</title>
<g id="a_Node000019"><a xlink:href="namespacezero__mate_1_1utils_1_1math.html#a64baae537d736f483631d0256c6c44c1" target="_top" xlink:title="Checks whether the given integral value is negative by examining the MSB.">
<polygon fill="white" stroke="#666666" points="711.5,-403.5 584.5,-403.5 584.5,-373.5 711.5,-373.5 711.5,-403.5"/>
<text text-anchor="start" x="592.5" y="-391.5" font-family="Helvetica,sans-Serif" font-size="10.00">zero_mate::utils::math</text>
<text text-anchor="middle" x="648" y="-380.5" font-family="Helvetica,sans-Serif" font-size="10.00">::Is_Negative</text>
</a>
</g>
</g>
<!-- Node1&#45;&gt;Node19 -->
<g id="edge20_Node000001_Node000019" class="edge">
<title>Node1&#45;&gt;Node19</title>
<g id="a_edge20_Node000001_Node000019"><a xlink:title=" ">
<path fill="none" stroke="#63b8ff" d="M812.14,-499.85C794.79,-474.93 764.33,-436.23 729,-413.5 723,-409.64 716.37,-406.35 709.57,-403.54"/>
<polygon fill="#63b8ff" stroke="#63b8ff" points="809.4,-502.05 817.92,-508.35 815.19,-498.11 809.4,-502.05"/>
</a>
</g>
</g>
<!-- Node20 -->
<g id="Node000020" class="node">
<title>Node20</title>
<g id="a_Node000020"><a xlink:href="namespacezero__mate_1_1utils_1_1math.html#a6c9f1b8e3c02df97e6776206de0234d1" target="_top" xlink:title="Performs an LSL (logical shift left) operation on the given integral value.">
<polygon fill="white" stroke="#666666" points="722.5,-355 573.5,-355 573.5,-336 722.5,-336 722.5,-355"/>
<text text-anchor="middle" x="648" y="-343" font-family="Helvetica,sans-Serif" font-size="10.00">zero_mate::utils::math::LSL</text>
</a>
</g>
</g>
<!-- Node1&#45;&gt;Node20 -->
<g id="edge21_Node000001_Node000020" class="edge">
<title>Node1&#45;&gt;Node20</title>
<g id="a_edge21_Node000001_Node000020"><a xlink:title=" ">
<path fill="none" stroke="#63b8ff" d="M818.99,-498.4C805.62,-462.9 776.23,-398.55 729,-364.5 723.67,-360.66 717.68,-357.59 711.43,-355.13"/>
<polygon fill="#63b8ff" stroke="#63b8ff" points="815.78,-499.81 822.48,-508.02 822.36,-497.42 815.78,-499.81"/>
</a>
</g>
</g>
<!-- Node21 -->
<g id="Node000021" class="node">
<title>Node21</title>
<g id="a_Node000021"><a xlink:href="namespacezero__mate_1_1utils_1_1math.html#a35568bdda3e11a28f911c31a50dc0a48" target="_top" xlink:title="Performs an LSR (logical shift right) operation on the given integral value.">
<polygon fill="white" stroke="#666666" points="723.5,-318 572.5,-318 572.5,-299 723.5,-299 723.5,-318"/>
<text text-anchor="middle" x="648" y="-306" font-family="Helvetica,sans-Serif" font-size="10.00">zero_mate::utils::math::LSR</text>
</a>
</g>
</g>
<!-- Node1&#45;&gt;Node21 -->
<g id="edge22_Node000001_Node000021" class="edge">
<title>Node1&#45;&gt;Node21</title>
<g id="a_edge22_Node000001_Node000021"><a xlink:title=" ">
<path fill="none" stroke="#63b8ff" d="M822.17,-498.53C811.86,-456.49 785.06,-371.83 729,-327.5 724.19,-323.69 718.73,-320.63 712.99,-318.16"/>
<polygon fill="#63b8ff" stroke="#63b8ff" points="818.82,-499.55 824.5,-508.49 825.63,-497.96 818.82,-499.55"/>
</a>
</g>
</g>
<!-- Node22 -->
<g id="Node000022" class="node">
<title>Node22</title>
<g id="a_Node000022"><a xlink:href="classzero__mate_1_1arm1176jzf__s_1_1CCPU__Core.html#afeea0a05cdda26114d6e03102f2d3a78" target="_top" xlink:title="Performs a shift on the given value.">
<polygon fill="white" stroke="#666666" points="728,-280.5 568,-280.5 568,-250.5 728,-250.5 728,-280.5"/>
<text text-anchor="start" x="576" y="-268.5" font-family="Helvetica,sans-Serif" font-size="10.00">zero_mate::arm1176jzf</text>
<text text-anchor="middle" x="648" y="-257.5" font-family="Helvetica,sans-Serif" font-size="10.00">_s::CCPU_Core::Perform_Shift</text>
</a>
</g>
</g>
<!-- Node1&#45;&gt;Node22 -->
<g id="edge23_Node000001_Node000022" class="edge">
<title>Node1&#45;&gt;Node22</title>
<g id="a_edge23_Node000001_Node000022"><a xlink:title=" ">
<path fill="none" stroke="#63b8ff" d="M823.94,-498.44C815.87,-450.93 791.76,-347.45 729,-290.5 724.69,-286.59 719.77,-283.29 714.54,-280.51"/>
<polygon fill="#63b8ff" stroke="#63b8ff" points="820.51,-499.15 825.54,-508.47 827.42,-498.04 820.51,-499.15"/>
</a>
</g>
</g>
<!-- Node23 -->
<g id="Node000023" class="node">
<title>Node23</title>
<g id="a_Node000023"><a xlink:href="namespacezero__mate_1_1utils_1_1math.html#aa047293b62420dfdc6808cb5e667fd0f" target="_top" xlink:title="Performs a rotate right operation on the given integral value.">
<polygon fill="white" stroke="#666666" points="725,-232 571,-232 571,-213 725,-213 725,-232"/>
<text text-anchor="middle" x="648" y="-220" font-family="Helvetica,sans-Serif" font-size="10.00">zero_mate::utils::math::ROR</text>
</a>
</g>
</g>
<!-- Node1&#45;&gt;Node23 -->
<g id="edge24_Node000001_Node000023" class="edge">
<title>Node1&#45;&gt;Node23</title>
<g id="a_edge24_Node000001_Node000023"><a xlink:title=" ">
<path fill="none" stroke="#63b8ff" d="M826.43,-498.25C822.68,-442.97 805.71,-310.7 729,-241.5 724.76,-237.68 719.89,-234.58 714.7,-232.08"/>
<polygon fill="#63b8ff" stroke="#63b8ff" points="822.94,-498.46 827.02,-508.23 829.93,-498.05 822.94,-498.46"/>
</a>
</g>
</g>
<!-- Node24 -->
<g id="Node000024" class="node">
<title>Node24</title>
<g id="a_Node000024"><a xlink:href="namespacezero__mate_1_1utils_1_1math.html#acec3045831345d7d2e2b3a20ff2fd4fd" target="_top" xlink:title="Performs an ROR (rotate right extended) operation on the given integral value.">
<polygon fill="white" stroke="#666666" points="725,-97 571,-97 571,-78 725,-78 725,-97"/>
<text text-anchor="middle" x="648" y="-85" font-family="Helvetica,sans-Serif" font-size="10.00">zero_mate::utils::math::ROR</text>
</a>
</g>
</g>
<!-- Node1&#45;&gt;Node24 -->
<g id="edge25_Node000001_Node000024" class="edge">
<title>Node1&#45;&gt;Node24</title>
<g id="a_edge25_Node000001_Node000024"><a xlink:title=" ">
<path fill="none" stroke="#63b8ff" d="M824.71,-497.88C815.4,-416.91 782.9,-168.56 729,-111.5 723.03,-105.18 715.46,-100.5 707.37,-97.04"/>
<polygon fill="#63b8ff" stroke="#63b8ff" points="821.27,-498.61 825.87,-508.15 828.23,-497.82 821.27,-498.61"/>
</a>
</g>
</g>
<!-- Node28 -->
<g id="Node000028" class="node">
<title>Node28</title>
<g id="a_Node000028"><a xlink:href="classzero__mate_1_1peripheral_1_1CGPIO__Manager.html#ad29d57528b73baef90b0ca885a297e4d" target="_top" xlink:title="Enables/disables an interrupt for all pins within a given register.">
<polygon fill="white" stroke="#666666" points="710,-195 586,-195 586,-154 710,-154 710,-195"/>
<text text-anchor="start" x="594" y="-183" font-family="Helvetica,sans-Serif" font-size="10.00">zero_mate::peripheral</text>
<text text-anchor="start" x="594" y="-172" font-family="Helvetica,sans-Serif" font-size="10.00">::CGPIO_Manager::Set</text>
<text text-anchor="middle" x="648" y="-161" font-family="Helvetica,sans-Serif" font-size="10.00">_Interrupt</text>
</a>
</g>
</g>
<!-- Node1&#45;&gt;Node28 -->
<g id="edge30_Node000001_Node000028" class="edge">
<title>Node1&#45;&gt;Node28</title>
<g id="a_edge30_Node000001_Node000028"><a xlink:title=" ">
<path fill="none" stroke="#63b8ff" d="M827.01,-498.13C824.48,-438.59 809.95,-288.54 729,-203.5 723.7,-197.94 717.26,-193.44 710.35,-189.8"/>
<polygon fill="#63b8ff" stroke="#63b8ff" points="823.52,-498.6 827.36,-508.47 830.52,-498.36 823.52,-498.6"/>
</a>
</g>
</g>
<!-- Node29 -->
<g id="Node000029" class="node">
<title>Node29</title>
<g id="a_Node000029"><a xlink:href="namespacezero__mate_1_1utils_1_1math.html#afda20fa50949a9cd3a80f811b0085221" target="_top" xlink:title="Sign&#45;extends the given integral value.">
<polygon fill="white" stroke="#666666" points="711.5,-51.5 584.5,-51.5 584.5,-21.5 711.5,-21.5 711.5,-51.5"/>
<text text-anchor="start" x="592.5" y="-39.5" font-family="Helvetica,sans-Serif" font-size="10.00">zero_mate::utils::math</text>
<text text-anchor="middle" x="648" y="-28.5" font-family="Helvetica,sans-Serif" font-size="10.00">::Sign_Extend_Value</text>
</a>
</g>
</g>
<!-- Node1&#45;&gt;Node29 -->
<g id="edge32_Node000001_Node000029" class="edge">
<title>Node1&#45;&gt;Node29</title>
<g id="a_edge32_Node000001_Node000029"><a xlink:title=" ">
<path fill="none" stroke="#63b8ff" d="M825.11,-498C816.6,-412.1 785.23,-135.03 729,-68.5 723.01,-61.42 715.23,-55.89 706.88,-51.58"/>
<polygon fill="#63b8ff" stroke="#63b8ff" points="821.65,-498.54 826.1,-508.15 828.62,-497.86 821.65,-498.54"/>
</a>
</g>
</g>
<!-- Node32 -->
<g id="Node000032" class="node">
<title>Node32</title>
<g id="a_Node000032"><a xlink:href="classzero__mate_1_1peripheral_1_1CGPIO__Manager.html#ae93785da50eefb8a8cc21c1c59a32726" target="_top" xlink:title="Updates the state of all pins within a given register.">
<polygon fill="white" stroke="#666666" points="719.5,-571 576.5,-571 576.5,-530 719.5,-530 719.5,-571"/>
<text text-anchor="start" x="584.5" y="-559" font-family="Helvetica,sans-Serif" font-size="10.00">zero_mate::peripheral</text>
<text text-anchor="start" x="584.5" y="-548" font-family="Helvetica,sans-Serif" font-size="10.00">::CGPIO_Manager::Update</text>
<text text-anchor="middle" x="648" y="-537" font-family="Helvetica,sans-Serif" font-size="10.00">_Pin_State</text>
</a>
</g>
</g>
<!-- Node1&#45;&gt;Node32 -->
<g id="edge35_Node000001_Node000032" class="edge">
<title>Node1&#45;&gt;Node32</title>
<g id="a_edge35_Node000001_Node000032"><a xlink:title=" ">
<path fill="none" stroke="#63b8ff" d="M754.78,-534.5C743.22,-536.25 731.27,-538.06 719.76,-539.8"/>
<polygon fill="#63b8ff" stroke="#63b8ff" points="755.45,-537.94 764.82,-532.98 754.41,-531.02 755.45,-537.94"/>
</a>
</g>
</g>
<!-- Node6 -->
<g id="Node000006" class="node">
<title>Node6</title>
<g id="a_Node000006"><a xlink:href="classzero__mate_1_1peripheral_1_1CGPIO__Manager.html#a26aa957dbb7682447e4ebf9aa078c00c" target="_top" xlink:title="Writes data to the peripheral (IPeripheral interface).">
<polygon fill="white" stroke="#666666" points="514,-565.5 380,-565.5 380,-535.5 514,-535.5 514,-565.5"/>
<text text-anchor="start" x="388" y="-553.5" font-family="Helvetica,sans-Serif" font-size="10.00">zero_mate::peripheral</text>
<text text-anchor="middle" x="447" y="-542.5" font-family="Helvetica,sans-Serif" font-size="10.00">::CGPIO_Manager::Write</text>
</a>
</g>
</g>
<!-- Node5&#45;&gt;Node6 -->
<g id="edge5_Node000005_Node000006" class="edge">
<title>Node5&#45;&gt;Node6</title>
<g id="a_edge5_Node000005_Node000006"><a xlink:title=" ">
<path fill="none" stroke="#63b8ff" d="M581.69,-586.78C556.4,-579.91 527.75,-572.14 503.48,-565.55"/>
<polygon fill="#63b8ff" stroke="#63b8ff" points="581,-590.22 591.57,-589.46 582.83,-583.46 581,-590.22"/>
</a>
</g>
</g>
<!-- Node7&#45;&gt;Node8 -->
<g id="edge7_Node000007_Node000008" class="edge">
<title>Node7&#45;&gt;Node8</title>
<g id="a_edge7_Node000007_Node000008"><a xlink:title=" ">
<path fill="none" stroke="#63b8ff" d="M564.85,-897.88C547.66,-895.03 529.75,-892.06 513.27,-889.32"/>
<polygon fill="#63b8ff" stroke="#63b8ff" points="564.44,-901.36 574.88,-899.54 565.58,-894.45 564.44,-901.36"/>
</a>
</g>
</g>
<!-- Node10 -->
<g id="Node000010" class="node">
<title>Node10</title>
<g id="a_Node000010"><a xlink:href="classzero__mate_1_1peripheral_1_1CInterrupt__Controller.html#ab37428109c8e5f862b528417048903f3" target="_top" xlink:title="Writes data to the peripheral (IPeripheral interface).">
<polygon fill="white" stroke="#666666" points="509.5,-818 384.5,-818 384.5,-777 509.5,-777 509.5,-818"/>
<text text-anchor="start" x="392.5" y="-806" font-family="Helvetica,sans-Serif" font-size="10.00">zero_mate::peripheral</text>
<text text-anchor="start" x="392.5" y="-795" font-family="Helvetica,sans-Serif" font-size="10.00">::CInterrupt_Controller</text>
<text text-anchor="middle" x="447" y="-784" font-family="Helvetica,sans-Serif" font-size="10.00">::Write</text>
</a>
</g>
</g>
<!-- Node9&#45;&gt;Node10 -->
<g id="edge9_Node000009_Node000010" class="edge">
<title>Node9&#45;&gt;Node10</title>
<g id="a_edge9_Node000009_Node000010"><a xlink:title=" ">
<path fill="none" stroke="#63b8ff" d="M561.32,-806.61C543.91,-805.21 525.93,-803.77 509.56,-802.45"/>
<polygon fill="#63b8ff" stroke="#63b8ff" points="561.23,-810.12 571.48,-807.43 561.8,-803.14 561.23,-810.12"/>
</a>
</g>
</g>
<!-- Node11&#45;&gt;Node10 -->
<g id="edge11_Node000011_Node000010" class="edge">
<title>Node11&#45;&gt;Node10</title>
<g id="a_edge11_Node000011_Node000010"><a xlink:title=" ">
<path fill="none" stroke="#63b8ff" d="M575.34,-769.98C553.84,-774.63 530.45,-779.68 509.65,-784.18"/>
<polygon fill="#63b8ff" stroke="#63b8ff" points="576.36,-773.34 585.4,-767.81 574.88,-766.5 576.36,-773.34"/>
</a>
</g>
</g>
<!-- Node15 -->
<g id="Node000015" class="node">
<title>Node15</title>
<g id="a_Node000015"><a xlink:href="classzero__mate_1_1arm1176jzf__s_1_1CCPU__Core.html#a576d9777886ed0e80a7bac6366848911" target="_top" xlink:title="Executes a multiply instruction.">
<polygon fill="white" stroke="#666666" points="513,-736.5 381,-736.5 381,-706.5 513,-706.5 513,-736.5"/>
<text text-anchor="start" x="389" y="-724.5" font-family="Helvetica,sans-Serif" font-size="10.00">zero_mate::arm1176jzf</text>
<text text-anchor="middle" x="447" y="-713.5" font-family="Helvetica,sans-Serif" font-size="10.00">_s::CCPU_Core::Execute</text>
</a>
</g>
</g>
<!-- Node14&#45;&gt;Node15 -->
<g id="edge16_Node000014_Node000015" class="edge">
<title>Node14&#45;&gt;Node15</title>
<g id="a_edge16_Node000014_Node000015"><a xlink:title=" ">
<path fill="none" stroke="#63b8ff" d="M572.86,-708.32C553.31,-710.39 532.36,-712.6 513.31,-714.61"/>
<polygon fill="#63b8ff" stroke="#63b8ff" points="573.36,-711.79 582.94,-707.26 572.63,-704.83 573.36,-711.79"/>
</a>
</g>
</g>
<!-- Node16 -->
<g id="Node000016" class="node">
<title>Node16</title>
<g id="a_Node000016"><a xlink:href="classzero__mate_1_1arm1176jzf__s_1_1CCPU__Core.html#a6c7c210cc765ad53ae40a557a1097eac" target="_top" xlink:title="Executes a multiply long instruction.">
<polygon fill="white" stroke="#666666" points="513,-688.5 381,-688.5 381,-658.5 513,-658.5 513,-688.5"/>
<text text-anchor="start" x="389" y="-676.5" font-family="Helvetica,sans-Serif" font-size="10.00">zero_mate::arm1176jzf</text>
<text text-anchor="middle" x="447" y="-665.5" font-family="Helvetica,sans-Serif" font-size="10.00">_s::CCPU_Core::Execute</text>
</a>
</g>
</g>
<!-- Node14&#45;&gt;Node16 -->
<g id="edge17_Node000014_Node000016" class="edge">
<title>Node14&#45;&gt;Node16</title>
<g id="a_edge17_Node000014_Node000016"><a xlink:title=" ">
<path fill="none" stroke="#63b8ff" d="M572.86,-690.44C553.31,-687.79 532.36,-684.95 513.31,-682.36"/>
<polygon fill="#63b8ff" stroke="#63b8ff" points="572.56,-693.93 582.94,-691.81 573.5,-687 572.56,-693.93"/>
</a>
</g>
</g>
<!-- Node24&#45;&gt;Node13 -->
<g id="edge26_Node000024_Node000013" class="edge">
<title>Node24&#45;&gt;Node13</title>
<g id="a_edge26_Node000024_Node000013"><a xlink:title=" ">
<path fill="none" stroke="#63b8ff" d="M595.69,-99.36C570.5,-105.18 539.89,-112.26 513.08,-118.46"/>
<polygon fill="#63b8ff" stroke="#63b8ff" points="596.81,-102.69 605.77,-97.03 595.24,-95.87 596.81,-102.69"/>
</a>
</g>
</g>
<!-- Node25 -->
<g id="Node000025" class="node">
<title>Node25</title>
<g id="a_Node000025"><a xlink:href="classzero__mate_1_1arm1176jzf__s_1_1CCPU__Core.html#a4b9e6a828e9739a227ab6da615fb4b15" target="_top" xlink:title="Calculates the second immediate operand of a given instruction.">
<polygon fill="white" stroke="#666666" points="523,-100 371,-100 371,-59 523,-59 523,-100"/>
<text text-anchor="start" x="379" y="-88" font-family="Helvetica,sans-Serif" font-size="10.00">zero_mate::arm1176jzf</text>
<text text-anchor="start" x="379" y="-77" font-family="Helvetica,sans-Serif" font-size="10.00">_s::CCPU_Core::Get_Second</text>
<text text-anchor="middle" x="447" y="-66" font-family="Helvetica,sans-Serif" font-size="10.00">_Operand_Imm</text>
</a>
</g>
</g>
<!-- Node24&#45;&gt;Node25 -->
<g id="edge27_Node000024_Node000025" class="edge">
<title>Node24&#45;&gt;Node25</title>
<g id="a_edge27_Node000024_Node000025"><a xlink:title=" ">
<path fill="none" stroke="#63b8ff" d="M560.89,-84.04C548.3,-83.53 535.41,-83.01 523.06,-82.52"/>
<polygon fill="#63b8ff" stroke="#63b8ff" points="560.78,-87.54 570.91,-84.44 561.06,-80.54 560.78,-87.54"/>
</a>
</g>
</g>
<!-- Node26 -->
<g id="Node000026" class="node">
<title>Node26</title>
<g id="a_Node000026"><a xlink:href="classzero__mate_1_1arm1176jzf__s_1_1CCPU__Core.html#abe7461d09a52f28f99037717f61975c6" target="_top" xlink:title="Executes an MSR instruction (move data to CPSR/SPSR from an ARM register).">
<polygon fill="white" stroke="#666666" points="327,-94.5 168,-94.5 168,-64.5 327,-64.5 327,-94.5"/>
<text text-anchor="start" x="176" y="-82.5" font-family="Helvetica,sans-Serif" font-size="10.00">zero_mate::arm1176jzf</text>
<text text-anchor="middle" x="247.5" y="-71.5" font-family="Helvetica,sans-Serif" font-size="10.00">_s::CCPU_Core::Execute_MSR</text>
</a>
</g>
</g>
<!-- Node25&#45;&gt;Node26 -->
<g id="edge28_Node000025_Node000026" class="edge">
<title>Node25&#45;&gt;Node26</title>
<g id="a_edge28_Node000025_Node000026"><a xlink:title=" ">
<path fill="none" stroke="#63b8ff" d="M360.63,-79.5C349.5,-79.5 338.14,-79.5 327.13,-79.5"/>
<polygon fill="#63b8ff" stroke="#63b8ff" points="360.77,-83 370.77,-79.5 360.77,-76 360.77,-83"/>
</a>
</g>
</g>
<!-- Node27 -->
<g id="Node000027" class="node">
<title>Node27</title>
<g id="a_Node000027"><a xlink:href="classzero__mate_1_1arm1176jzf__s_1_1CCPU__Core.html#a3a90c040b3cbe4545a9acc5e35acdd45" target="_top" xlink:title="Executes a PSR transfer instruction.">
<polygon fill="white" stroke="#666666" points="132,-94.5 0,-94.5 0,-64.5 132,-64.5 132,-94.5"/>
<text text-anchor="start" x="8" y="-82.5" font-family="Helvetica,sans-Serif" font-size="10.00">zero_mate::arm1176jzf</text>
<text text-anchor="middle" x="66" y="-71.5" font-family="Helvetica,sans-Serif" font-size="10.00">_s::CCPU_Core::Execute</text>
</a>
</g>
</g>
<!-- Node26&#45;&gt;Node27 -->
<g id="edge29_Node000026_Node000027" class="edge">
<title>Node26&#45;&gt;Node27</title>
<g id="a_edge29_Node000026_Node000027"><a xlink:title=" ">
<path fill="none" stroke="#63b8ff" d="M157.71,-79.5C149.12,-79.5 140.52,-79.5 132.23,-79.5"/>
<polygon fill="#63b8ff" stroke="#63b8ff" points="157.77,-83 167.77,-79.5 157.77,-76 157.77,-83"/>
</a>
</g>
</g>
<!-- Node28&#45;&gt;Node6 -->
<g id="edge31_Node000028_Node000006" class="edge">
<title>Node28&#45;&gt;Node6</title>
<g id="a_edge31_Node000028_Node000006"><a xlink:title=" ">
<path fill="none" stroke="#63b8ff" d="M577.02,-195.2C573.41,-197.66 570.03,-200.42 567,-203.5 470.35,-301.84 452.07,-482.03 448.72,-535.29"/>
<polygon fill="#63b8ff" stroke="#63b8ff" points="579.02,-198.08 585.82,-189.96 575.44,-192.07 579.02,-198.08"/>
</a>
</g>
</g>
<!-- Node30 -->
<g id="Node000030" class="node">
<title>Node30</title>
<g id="a_Node000030"><a xlink:href="classzero__mate_1_1arm1176jzf__s_1_1CCPU__Core.html#a066aca0627655bc1e068b181fb0964bd" target="_top" xlink:title="Performs a halfword data read from a given address.">
<polygon fill="white" stroke="#666666" points="531,-41 363,-41 363,0 531,0 531,-41"/>
<text text-anchor="start" x="371" y="-29" font-family="Helvetica,sans-Serif" font-size="10.00">zero_mate::arm1176jzf</text>
<text text-anchor="start" x="371" y="-18" font-family="Helvetica,sans-Serif" font-size="10.00">_s::CCPU_Core::Perform</text>
<text text-anchor="middle" x="447" y="-7" font-family="Helvetica,sans-Serif" font-size="10.00">_Halfword_Data_Transfer_Read</text>
</a>
</g>
</g>
<!-- Node29&#45;&gt;Node30 -->
<g id="edge33_Node000029_Node000030" class="edge">
<title>Node29&#45;&gt;Node30</title>
<g id="a_edge33_Node000029_Node000030"><a xlink:title=" ">
<path fill="none" stroke="#63b8ff" d="M574.26,-30.65C560.25,-29.52 545.47,-28.34 531.16,-27.19"/>
<polygon fill="#63b8ff" stroke="#63b8ff" points="574.06,-34.15 584.31,-31.46 574.62,-27.17 574.06,-34.15"/>
</a>
</g>
</g>
<!-- Node31 -->
<g id="Node000031" class="node">
<title>Node31</title>
<g id="a_Node000031"><a xlink:href="classzero__mate_1_1arm1176jzf__s_1_1CCPU__Core.html#ae5fc1112d78d8c344841fd94d1356635" target="_top" xlink:title="Executes a halfword data transfer instruction.">
<polygon fill="white" stroke="#666666" points="313.5,-35.5 181.5,-35.5 181.5,-5.5 313.5,-5.5 313.5,-35.5"/>
<text text-anchor="start" x="189.5" y="-23.5" font-family="Helvetica,sans-Serif" font-size="10.00">zero_mate::arm1176jzf</text>
<text text-anchor="middle" x="247.5" y="-12.5" font-family="Helvetica,sans-Serif" font-size="10.00">_s::CCPU_Core::Execute</text>
</a>
</g>
</g>
<!-- Node30&#45;&gt;Node31 -->
<g id="edge34_Node000030_Node000031" class="edge">
<title>Node30&#45;&gt;Node31</title>
<g id="a_edge34_Node000030_Node000031"><a xlink:title=" ">
<path fill="none" stroke="#63b8ff" d="M352.74,-20.5C339.5,-20.5 326.14,-20.5 313.59,-20.5"/>
<polygon fill="#63b8ff" stroke="#63b8ff" points="352.81,-24 362.81,-20.5 352.81,-17 352.81,-24"/>
</a>
</g>
</g>
<!-- Node32&#45;&gt;Node6 -->
<g id="edge36_Node000032_Node000006" class="edge">
<title>Node32&#45;&gt;Node6</title>
<g id="a_edge36_Node000032_Node000006"><a xlink:title=" ">
<path fill="none" stroke="#63b8ff" d="M566.2,-550.5C548.91,-550.5 530.83,-550.5 514.17,-550.5"/>
<polygon fill="#63b8ff" stroke="#63b8ff" points="566.28,-554 576.28,-550.5 566.28,-547 566.28,-554"/>
</a>
</g>
</g>
</g>
</svg>
