<?xml version="1.0" encoding="UTF-8" standalone="no"?>
<!DOCTYPE svg PUBLIC "-//W3C//DTD SVG 1.1//EN"
 "http://www.w3.org/Graphics/SVG/1.1/DTD/svg11.dtd">
<!-- Generated by graphviz version 2.43.0 (0)
 -->
<!-- Title: zero_mate::utils::math::Sign_Extend_Value Pages: 1 -->
<svg width="507pt" height="49pt"
 viewBox="0.00 0.00 507.00 49.00" xmlns="http://www.w3.org/2000/svg" xmlns:xlink="http://www.w3.org/1999/xlink">
<g id="graph0" class="graph" transform="scale(1 1) rotate(0) translate(4 45)">
<title>zero_mate::utils::math::Sign_Extend_Value</title>
<!-- Node1 -->
<g id="Node000001" class="node">
<title>Node1</title>
<g id="a_Node000001"><a xlink:title="Sign&#45;extends the given integral value.">
<polygon fill="#999999" stroke="#666666" points="499,-35.5 372,-35.5 372,-5.5 499,-5.5 499,-35.5"/>
<text text-anchor="start" x="380" y="-23.5" font-family="Helvetica,sans-Serif" font-size="10.00">zero_mate::utils::math</text>
<text text-anchor="middle" x="435.5" y="-12.5" font-family="Helvetica,sans-Serif" font-size="10.00">::Sign_Extend_Value</text>
</a>
</g>
</g>
<!-- Node2 -->
<g id="Node000002" class="node">
<title>Node2</title>
<g id="a_Node000002"><a xlink:href="classzero__mate_1_1arm1176jzf__s_1_1CCPU__Core.html#a066aca0627655bc1e068b181fb0964bd" target="_top" xlink:title="Performs a halfword data read from a given address.">
<polygon fill="white" stroke="#666666" points="336,-41 168,-41 168,0 336,0 336,-41"/>
<text text-anchor="start" x="176" y="-29" font-family="Helvetica,sans-Serif" font-size="10.00">zero_mate::arm1176jzf</text>
<text text-anchor="start" x="176" y="-18" font-family="Helvetica,sans-Serif" font-size="10.00">_s::CCPU_Core::Perform</text>
<text text-anchor="middle" x="252" y="-7" font-family="Helvetica,sans-Serif" font-size="10.00">_Halfword_Data_Transfer_Read</text>
</a>
</g>
</g>
<!-- Node1&#45;&gt;Node2 -->
<g id="edge1_Node000001_Node000002" class="edge">
<title>Node1&#45;&gt;Node2</title>
<g id="a_edge1_Node000001_Node000002"><a xlink:title=" ">
<path fill="none" stroke="#63b8ff" d="M361.69,-20.5C353.3,-20.5 344.71,-20.5 336.21,-20.5"/>
<polygon fill="#63b8ff" stroke="#63b8ff" points="361.78,-24 371.78,-20.5 361.78,-17 361.78,-24"/>
</a>
</g>
</g>
<!-- Node3 -->
<g id="Node000003" class="node">
<title>Node3</title>
<g id="a_Node000003"><a xlink:href="classzero__mate_1_1arm1176jzf__s_1_1CCPU__Core.html#ae5fc1112d78d8c344841fd94d1356635" target="_top" xlink:title="Executes a halfword data transfer instruction.">
<polygon fill="white" stroke="#666666" points="132,-35.5 0,-35.5 0,-5.5 132,-5.5 132,-35.5"/>
<text text-anchor="start" x="8" y="-23.5" font-family="Helvetica,sans-Serif" font-size="10.00">zero_mate::arm1176jzf</text>
<text text-anchor="middle" x="66" y="-12.5" font-family="Helvetica,sans-Serif" font-size="10.00">_s::CCPU_Core::Execute</text>
</a>
</g>
</g>
<!-- Node2&#45;&gt;Node3 -->
<g id="edge2_Node000002_Node000003" class="edge">
<title>Node2&#45;&gt;Node3</title>
<g id="a_edge2_Node000002_Node000003"><a xlink:title=" ">
<path fill="none" stroke="#63b8ff" d="M157.73,-20.5C149.07,-20.5 140.42,-20.5 132.1,-20.5"/>
<polygon fill="#63b8ff" stroke="#63b8ff" points="157.88,-24 167.88,-20.5 157.88,-17 157.88,-24"/>
</a>
</g>
</g>
</g>
</svg>
