<?xml version="1.0" encoding="UTF-8" standalone="no"?>
<!DOCTYPE svg PUBLIC "-//W3C//DTD SVG 1.1//EN"
 "http://www.w3.org/Graphics/SVG/1.1/DTD/svg11.dtd">
<!-- Generated by graphviz version 2.43.0 (0)
 -->
<!-- Title: src/core/arm1176jzf_s/mmu/page_entry.hpp Pages: 1 -->
<svg width="1199pt" height="374pt"
 viewBox="0.00 0.00 1198.50 374.00" xmlns="http://www.w3.org/2000/svg" xmlns:xlink="http://www.w3.org/1999/xlink">
<g id="graph0" class="graph" transform="scale(1 1) rotate(0) translate(4 370)">
<title>src/core/arm1176jzf_s/mmu/page_entry.hpp</title>
<!-- Node1 -->
<g id="node1" class="node">
<title>Node1</title>
<g id="a_node1"><a xlink:title="This file defines a page table entry.">
<polygon fill="#bfbfbf" stroke="black" points="511,-335.5 511,-365.5 644,-365.5 644,-335.5 511,-335.5"/>
<text text-anchor="start" x="519" y="-353.5" font-family="Helvetica,sans-Serif" font-size="10.00">src/core/arm1176jzf</text>
<text text-anchor="middle" x="577.5" y="-342.5" font-family="Helvetica,sans-Serif" font-size="10.00">_s/mmu/page_entry.hpp</text>
</a>
</g>
</g>
<!-- Node2 -->
<g id="node2" class="node">
<title>Node2</title>
<g id="a_node2"><a xlink:href="page__entry_8cpp.html" target="_top" xlink:title="This file implements a page table entry.">
<polygon fill="none" stroke="black" points="436.5,-268.5 436.5,-298.5 568.5,-298.5 568.5,-268.5 436.5,-268.5"/>
<text text-anchor="start" x="444.5" y="-286.5" font-family="Helvetica,sans-Serif" font-size="10.00">src/core/arm1176jzf</text>
<text text-anchor="middle" x="502.5" y="-275.5" font-family="Helvetica,sans-Serif" font-size="10.00">_s/mmu/page_entry.cpp</text>
</a>
</g>
</g>
<!-- Node1&#45;&gt;Node2 -->
<g id="edge1" class="edge">
<title>Node1&#45;&gt;Node2</title>
<path fill="none" stroke="midnightblue" d="M553.38,-328.6C542.06,-318.78 528.86,-307.34 518.74,-298.58"/>
<polygon fill="midnightblue" stroke="midnightblue" points="551.38,-331.49 561.23,-335.4 555.96,-326.2 551.38,-331.49"/>
</g>
<!-- Node3 -->
<g id="node3" class="node">
<title>Node3</title>
<g id="a_node3"><a xlink:href="page__table_8hpp.html" target="_top" xlink:title="This file defines a page table.">
<polygon fill="none" stroke="black" points="586.5,-268.5 586.5,-298.5 720.5,-298.5 720.5,-268.5 586.5,-268.5"/>
<text text-anchor="start" x="594.5" y="-286.5" font-family="Helvetica,sans-Serif" font-size="10.00">src/core/arm1176jzf</text>
<text text-anchor="middle" x="653.5" y="-275.5" font-family="Helvetica,sans-Serif" font-size="10.00">_s/mmu/page_table.hpp</text>
</a>
</g>
</g>
<!-- Node1&#45;&gt;Node3 -->
<g id="edge2" class="edge">
<title>Node1&#45;&gt;Node3</title>
<path fill="none" stroke="midnightblue" d="M601.61,-328.88C613.16,-319.01 626.69,-307.43 637.04,-298.58"/>
<polygon fill="midnightblue" stroke="midnightblue" points="599.32,-326.24 593.99,-335.4 603.87,-331.56 599.32,-326.24"/>
</g>
<!-- Node4 -->
<g id="node4" class="node">
<title>Node4</title>
<g id="a_node4"><a xlink:href="mmu_8hpp.html" target="_top" xlink:title="This file defines the MMU (memory management unit) of the CPU.">
<polygon fill="none" stroke="black" points="526,-201.5 526,-231.5 639,-231.5 639,-201.5 526,-201.5"/>
<text text-anchor="start" x="534" y="-219.5" font-family="Helvetica,sans-Serif" font-size="10.00">src/core/arm1176jzf</text>
<text text-anchor="middle" x="582.5" y="-208.5" font-family="Helvetica,sans-Serif" font-size="10.00">_s/mmu/mmu.hpp</text>
</a>
</g>
</g>
<!-- Node3&#45;&gt;Node4 -->
<g id="edge3" class="edge">
<title>Node3&#45;&gt;Node4</title>
<path fill="none" stroke="midnightblue" d="M630.67,-261.6C619.95,-251.78 607.45,-240.34 597.88,-231.58"/>
<polygon fill="midnightblue" stroke="midnightblue" points="628.35,-264.22 638.09,-268.4 633.08,-259.06 628.35,-264.22"/>
</g>
<!-- Node22 -->
<g id="node22" class="node">
<title>Node22</title>
<g id="a_node22"><a xlink:href="page__table_8cpp.html" target="_top" xlink:title="This file implements a page table.">
<polygon fill="none" stroke="black" points="657,-201.5 657,-231.5 790,-231.5 790,-201.5 657,-201.5"/>
<text text-anchor="start" x="665" y="-219.5" font-family="Helvetica,sans-Serif" font-size="10.00">src/core/arm1176jzf</text>
<text text-anchor="middle" x="723.5" y="-208.5" font-family="Helvetica,sans-Serif" font-size="10.00">_s/mmu/page_table.cpp</text>
</a>
</g>
</g>
<!-- Node3&#45;&gt;Node22 -->
<g id="edge26" class="edge">
<title>Node3&#45;&gt;Node22</title>
<path fill="none" stroke="midnightblue" d="M676.32,-261.31C686.82,-251.56 698.99,-240.26 708.34,-231.58"/>
<polygon fill="midnightblue" stroke="midnightblue" points="673.64,-259.03 668.69,-268.4 678.4,-264.16 673.64,-259.03"/>
</g>
<!-- Node5 -->
<g id="node5" class="node">
<title>Node5</title>
<g id="a_node5"><a xlink:href="core_8hpp.html" target="_top" xlink:title="This file defines a class that represents a CPU core (arm1176jzf_s).">
<polygon fill="none" stroke="black" points="526,-134.5 526,-164.5 639,-164.5 639,-134.5 526,-134.5"/>
<text text-anchor="start" x="534" y="-152.5" font-family="Helvetica,sans-Serif" font-size="10.00">src/core/arm1176jzf</text>
<text text-anchor="middle" x="582.5" y="-141.5" font-family="Helvetica,sans-Serif" font-size="10.00">_s/core.hpp</text>
</a>
</g>
</g>
<!-- Node4&#45;&gt;Node5 -->
<g id="edge4" class="edge">
<title>Node4&#45;&gt;Node5</title>
<path fill="none" stroke="midnightblue" d="M582.5,-191.11C582.5,-182.15 582.5,-172.32 582.5,-164.58"/>
<polygon fill="midnightblue" stroke="midnightblue" points="579,-191.4 582.5,-201.4 586,-191.4 579,-191.4"/>
</g>
<!-- Node9 -->
<g id="node9" class="node">
<title>Node9</title>
<g id="a_node9"><a xlink:href="soc_8hpp.html" target="_top" xlink:title=" ">
<polygon fill="none" stroke="black" points="97,-73 97,-92 192,-92 192,-73 97,-73"/>
<text text-anchor="middle" x="144.5" y="-80" font-family="Helvetica,sans-Serif" font-size="10.00">src/core/soc.hpp</text>
</a>
</g>
</g>
<!-- Node4&#45;&gt;Node9 -->
<g id="edge25" class="edge">
<title>Node4&#45;&gt;Node9</title>
<path fill="none" stroke="midnightblue" d="M526.36,-198.58C431.79,-170.08 244.07,-113.51 172.82,-92.04"/>
<polygon fill="midnightblue" stroke="midnightblue" points="525.46,-201.96 536.04,-201.5 527.48,-195.26 525.46,-201.96"/>
</g>
<!-- Node21 -->
<g id="node21" class="node">
<title>Node21</title>
<g id="a_node21"><a xlink:href="mmu_8cpp.html" target="_top" xlink:title="This file implements the MMU (memory management unit) of the CPU.">
<polygon fill="none" stroke="black" points="657,-134.5 657,-164.5 770,-164.5 770,-134.5 657,-134.5"/>
<text text-anchor="start" x="665" y="-152.5" font-family="Helvetica,sans-Serif" font-size="10.00">src/core/arm1176jzf</text>
<text text-anchor="middle" x="713.5" y="-141.5" font-family="Helvetica,sans-Serif" font-size="10.00">_s/mmu/mmu.cpp</text>
</a>
</g>
</g>
<!-- Node4&#45;&gt;Node21 -->
<g id="edge24" class="edge">
<title>Node4&#45;&gt;Node21</title>
<path fill="none" stroke="midnightblue" d="M620.08,-196.85C640.79,-186.58 666.09,-174.03 685.13,-164.58"/>
<polygon fill="midnightblue" stroke="midnightblue" points="618.33,-193.82 610.93,-201.4 621.44,-200.09 618.33,-193.82"/>
</g>
<!-- Node6 -->
<g id="node6" class="node">
<title>Node6</title>
<g id="a_node6"><a xlink:href="core_8cpp.html" target="_top" xlink:title="This file implements the CCPU_Core class defined in core.hpp.">
<polygon fill="none" stroke="black" points="797,-67.5 797,-97.5 910,-97.5 910,-67.5 797,-67.5"/>
<text text-anchor="start" x="805" y="-85.5" font-family="Helvetica,sans-Serif" font-size="10.00">src/core/arm1176jzf</text>
<text text-anchor="middle" x="853.5" y="-74.5" font-family="Helvetica,sans-Serif" font-size="10.00">_s/core.cpp</text>
</a>
</g>
</g>
<!-- Node5&#45;&gt;Node6 -->
<g id="edge5" class="edge">
<title>Node5&#45;&gt;Node6</title>
<path fill="none" stroke="midnightblue" d="M649.05,-132.54C694.36,-121.67 753.69,-107.44 796.76,-97.11"/>
<polygon fill="midnightblue" stroke="midnightblue" points="648.22,-129.14 639.31,-134.87 649.85,-135.94 648.22,-129.14"/>
</g>
<!-- Node7 -->
<g id="node7" class="node">
<title>Node7</title>
<g id="a_node7"><a xlink:href="coprocessor_8cpp.html" target="_top" xlink:title="This file implements the common functionality of a general interface of a coprocessor.">
<polygon fill="none" stroke="black" points="928.5,-67.5 928.5,-97.5 1050.5,-97.5 1050.5,-67.5 928.5,-67.5"/>
<text text-anchor="start" x="936.5" y="-85.5" font-family="Helvetica,sans-Serif" font-size="10.00">src/core/coprocessors</text>
<text text-anchor="middle" x="989.5" y="-74.5" font-family="Helvetica,sans-Serif" font-size="10.00">/coprocessor.cpp</text>
</a>
</g>
</g>
<!-- Node5&#45;&gt;Node7 -->
<g id="edge6" class="edge">
<title>Node5&#45;&gt;Node7</title>
<path fill="none" stroke="midnightblue" d="M649.12,-133.8C769.3,-112.99 802.44,-117.84 919.5,-98 922.44,-97.5 925.44,-96.97 928.47,-96.42"/>
<polygon fill="midnightblue" stroke="midnightblue" points="648.41,-130.38 639.16,-135.55 649.62,-137.27 648.41,-130.38"/>
</g>
<!-- Node8 -->
<g id="node8" class="node">
<title>Node8</title>
<g id="a_node8"><a xlink:href="cp10_8cpp.html" target="_top" xlink:title="This file implements coprocessor CP10 (single&#45;precision FPU).">
<polygon fill="none" stroke="black" points="1068.5,-67.5 1068.5,-97.5 1190.5,-97.5 1190.5,-67.5 1068.5,-67.5"/>
<text text-anchor="start" x="1076.5" y="-85.5" font-family="Helvetica,sans-Serif" font-size="10.00">src/core/coprocessors</text>
<text text-anchor="middle" x="1129.5" y="-74.5" font-family="Helvetica,sans-Serif" font-size="10.00">/cp10/cp10.cpp</text>
</a>
</g>
</g>
<!-- Node5&#45;&gt;Node8 -->
<g id="edge7" class="edge">
<title>Node5&#45;&gt;Node8</title>
<path fill="none" stroke="midnightblue" d="M649.03,-133.89C830.9,-106.57 880.84,-124.22 1059.5,-98 1062.45,-97.57 1065.46,-97.09 1068.49,-96.58"/>
<polygon fill="midnightblue" stroke="midnightblue" points="648.49,-130.43 639.14,-135.4 649.55,-137.35 648.49,-130.43"/>
</g>
<!-- Node5&#45;&gt;Node9 -->
<g id="edge8" class="edge">
<title>Node5&#45;&gt;Node9</title>
<path fill="none" stroke="midnightblue" d="M515.85,-142.18C439.31,-134.34 310.16,-119.36 200.5,-98 192.02,-96.35 182.92,-94.17 174.57,-92.01"/>
<polygon fill="midnightblue" stroke="midnightblue" points="515.54,-145.66 525.84,-143.19 516.24,-138.7 515.54,-145.66"/>
</g>
<!-- Node13 -->
<g id="node13" class="node">
<title>Node13</title>
<g id="a_node13"><a xlink:href="control__window_8hpp.html" target="_top" xlink:title="This file defines a window that allows the user to control CPU execution.">
<polygon fill="none" stroke="black" points="210,-67.5 210,-97.5 341,-97.5 341,-67.5 210,-67.5"/>
<text text-anchor="start" x="218" y="-85.5" font-family="Helvetica,sans-Serif" font-size="10.00">src/gui/windows/control</text>
<text text-anchor="middle" x="275.5" y="-74.5" font-family="Helvetica,sans-Serif" font-size="10.00">_window.hpp</text>
</a>
</g>
</g>
<!-- Node5&#45;&gt;Node13 -->
<g id="edge12" class="edge">
<title>Node5&#45;&gt;Node13</title>
<path fill="none" stroke="midnightblue" d="M515.75,-134.37C464,-123.41 392.64,-108.3 341.16,-97.4"/>
<polygon fill="midnightblue" stroke="midnightblue" points="515.33,-137.85 525.83,-136.5 516.78,-131.01 515.33,-137.85"/>
</g>
<!-- Node15 -->
<g id="node15" class="node">
<title>Node15</title>
<g id="a_node15"><a xlink:href="registers__window_8hpp.html" target="_top" xlink:title="This file defines a window that displays the contents of all CPU registers.">
<polygon fill="none" stroke="black" points="359.5,-67.5 359.5,-97.5 499.5,-97.5 499.5,-67.5 359.5,-67.5"/>
<text text-anchor="start" x="367.5" y="-85.5" font-family="Helvetica,sans-Serif" font-size="10.00">src/gui/windows/registers</text>
<text text-anchor="middle" x="429.5" y="-74.5" font-family="Helvetica,sans-Serif" font-size="10.00">_window.hpp</text>
</a>
</g>
</g>
<!-- Node5&#45;&gt;Node15 -->
<g id="edge15" class="edge">
<title>Node5&#45;&gt;Node15</title>
<path fill="none" stroke="midnightblue" d="M539.91,-130.41C515.48,-120.03 485.28,-107.2 462.63,-97.58"/>
<polygon fill="midnightblue" stroke="midnightblue" points="538.73,-133.71 549.3,-134.4 541.47,-127.26 538.73,-133.71"/>
</g>
<!-- Node17 -->
<g id="node17" class="node">
<title>Node17</title>
<g id="a_node17"><a xlink:href="source__code__window_8hpp.html" target="_top" xlink:title="This file defines a window that displays loaded ELF files (disassembled instructions of the source co...">
<polygon fill="none" stroke="black" points="517.5,-67.5 517.5,-97.5 647.5,-97.5 647.5,-67.5 517.5,-67.5"/>
<text text-anchor="start" x="525.5" y="-85.5" font-family="Helvetica,sans-Serif" font-size="10.00">src/gui/windows/source</text>
<text text-anchor="middle" x="582.5" y="-74.5" font-family="Helvetica,sans-Serif" font-size="10.00">_code_window.hpp</text>
</a>
</g>
</g>
<!-- Node5&#45;&gt;Node17 -->
<g id="edge18" class="edge">
<title>Node5&#45;&gt;Node17</title>
<path fill="none" stroke="midnightblue" d="M582.5,-124.11C582.5,-115.15 582.5,-105.32 582.5,-97.58"/>
<polygon fill="midnightblue" stroke="midnightblue" points="579,-124.4 582.5,-134.4 586,-124.4 579,-124.4"/>
</g>
<!-- Node19 -->
<g id="node19" class="node">
<title>Node19</title>
<g id="a_node19"><a xlink:href="top__bar__menu_8hpp.html" target="_top" xlink:title=" ">
<polygon fill="none" stroke="black" points="666,-67.5 666,-97.5 779,-97.5 779,-67.5 666,-67.5"/>
<text text-anchor="start" x="674" y="-85.5" font-family="Helvetica,sans-Serif" font-size="10.00">src/gui/windows/top</text>
<text text-anchor="middle" x="722.5" y="-74.5" font-family="Helvetica,sans-Serif" font-size="10.00">_bar_menu.hpp</text>
</a>
</g>
</g>
<!-- Node5&#45;&gt;Node19 -->
<g id="edge21" class="edge">
<title>Node5&#45;&gt;Node19</title>
<path fill="none" stroke="midnightblue" d="M622.07,-130.13C644.31,-119.8 671.65,-107.11 692.18,-97.58"/>
<polygon fill="midnightblue" stroke="midnightblue" points="620.47,-127.01 612.88,-134.4 623.42,-133.36 620.47,-127.01"/>
</g>
<!-- Node10 -->
<g id="node10" class="node">
<title>Node10</title>
<g id="a_node10"><a xlink:href="soc_8cpp.html" target="_top" xlink:title=" ">
<polygon fill="none" stroke="black" points="97,-6 97,-25 192,-25 192,-6 97,-6"/>
<text text-anchor="middle" x="144.5" y="-13" font-family="Helvetica,sans-Serif" font-size="10.00">src/core/soc.cpp</text>
</a>
</g>
</g>
<!-- Node9&#45;&gt;Node10 -->
<g id="edge9" class="edge">
<title>Node9&#45;&gt;Node10</title>
<path fill="none" stroke="midnightblue" d="M144.5,-62.54C144.5,-50.17 144.5,-34.62 144.5,-25.13"/>
<polygon fill="midnightblue" stroke="midnightblue" points="141,-62.73 144.5,-72.73 148,-62.73 141,-62.73"/>
</g>
<!-- Node11 -->
<g id="node11" class="node">
<title>Node11</title>
<g id="a_node11"><a xlink:href="gui_8cpp.html" target="_top" xlink:title="This file implements the main GUI entry function that takes care of creating and rendering all window...">
<polygon fill="none" stroke="black" points="518,-6 518,-25 605,-25 605,-6 518,-6"/>
<text text-anchor="middle" x="561.5" y="-13" font-family="Helvetica,sans-Serif" font-size="10.00">src/gui/gui.cpp</text>
</a>
</g>
</g>
<!-- Node9&#45;&gt;Node11 -->
<g id="edge10" class="edge">
<title>Node9&#45;&gt;Node11</title>
<path fill="none" stroke="midnightblue" d="M184,-70.55C189.52,-69.24 195.13,-68 200.5,-67 335.97,-41.67 373.2,-57.26 508.5,-31 516.65,-29.42 525.38,-27.24 533.36,-25.05"/>
<polygon fill="midnightblue" stroke="midnightblue" points="183.12,-67.17 174.26,-72.99 184.81,-73.96 183.12,-67.17"/>
</g>
<!-- Node12 -->
<g id="node12" class="node">
<title>Node12</title>
<g id="a_node12"><a xlink:href="main_8cpp.html" target="_top" xlink:title="This file defines and implements the main function of the application.">
<polygon fill="none" stroke="black" points="0,-6 0,-25 79,-25 79,-6 0,-6"/>
<text text-anchor="middle" x="39.5" y="-13" font-family="Helvetica,sans-Serif" font-size="10.00">src/main.cpp</text>
</a>
</g>
</g>
<!-- Node9&#45;&gt;Node12 -->
<g id="edge11" class="edge">
<title>Node9&#45;&gt;Node12</title>
<path fill="none" stroke="midnightblue" d="M121.79,-67.44C101,-54.57 70.88,-35.93 53.44,-25.13"/>
<polygon fill="midnightblue" stroke="midnightblue" points="119.99,-70.45 130.34,-72.73 123.68,-64.49 119.99,-70.45"/>
</g>
<!-- Node13&#45;&gt;Node11 -->
<g id="edge13" class="edge">
<title>Node13&#45;&gt;Node11</title>
<path fill="none" stroke="midnightblue" d="M351.08,-66.19C396.79,-56.66 456.16,-43.82 508.5,-31 515.91,-29.18 523.87,-27.09 531.3,-25.06"/>
<polygon fill="midnightblue" stroke="midnightblue" points="350.33,-62.77 341.25,-68.23 351.75,-69.62 350.33,-62.77"/>
</g>
<!-- Node14 -->
<g id="node14" class="node">
<title>Node14</title>
<g id="a_node14"><a xlink:href="control__window_8cpp.html" target="_top" xlink:title="This file implements a window that allows the user to control CPU execution.">
<polygon fill="none" stroke="black" points="210,-0.5 210,-30.5 341,-30.5 341,-0.5 210,-0.5"/>
<text text-anchor="start" x="218" y="-18.5" font-family="Helvetica,sans-Serif" font-size="10.00">src/gui/windows/control</text>
<text text-anchor="middle" x="275.5" y="-7.5" font-family="Helvetica,sans-Serif" font-size="10.00">_window.cpp</text>
</a>
</g>
</g>
<!-- Node13&#45;&gt;Node14 -->
<g id="edge14" class="edge">
<title>Node13&#45;&gt;Node14</title>
<path fill="none" stroke="midnightblue" d="M275.5,-57.11C275.5,-48.15 275.5,-38.32 275.5,-30.58"/>
<polygon fill="midnightblue" stroke="midnightblue" points="272,-57.4 275.5,-67.4 279,-57.4 272,-57.4"/>
</g>
<!-- Node15&#45;&gt;Node11 -->
<g id="edge16" class="edge">
<title>Node15&#45;&gt;Node11</title>
<path fill="none" stroke="midnightblue" d="M467.14,-62.97C492.49,-50.48 524.75,-34.6 544.22,-25.01"/>
<polygon fill="midnightblue" stroke="midnightblue" points="465.57,-59.84 458.14,-67.4 468.66,-66.12 465.57,-59.84"/>
</g>
<!-- Node16 -->
<g id="node16" class="node">
<title>Node16</title>
<g id="a_node16"><a xlink:href="registers__window_8cpp.html" target="_top" xlink:title="This file implements a window that displays the contents of all CPU registers.">
<polygon fill="none" stroke="black" points="359.5,-0.5 359.5,-30.5 499.5,-30.5 499.5,-0.5 359.5,-0.5"/>
<text text-anchor="start" x="367.5" y="-18.5" font-family="Helvetica,sans-Serif" font-size="10.00">src/gui/windows/registers</text>
<text text-anchor="middle" x="429.5" y="-7.5" font-family="Helvetica,sans-Serif" font-size="10.00">_window.cpp</text>
</a>
</g>
</g>
<!-- Node15&#45;&gt;Node16 -->
<g id="edge17" class="edge">
<title>Node15&#45;&gt;Node16</title>
<path fill="none" stroke="midnightblue" d="M429.5,-57.11C429.5,-48.15 429.5,-38.32 429.5,-30.58"/>
<polygon fill="midnightblue" stroke="midnightblue" points="426,-57.4 429.5,-67.4 433,-57.4 426,-57.4"/>
</g>
<!-- Node17&#45;&gt;Node11 -->
<g id="edge19" class="edge">
<title>Node17&#45;&gt;Node11</title>
<path fill="none" stroke="midnightblue" d="M574.78,-57.6C571.12,-46.28 566.98,-33.46 564.31,-25.19"/>
<polygon fill="midnightblue" stroke="midnightblue" points="571.54,-58.96 577.94,-67.4 578.2,-56.8 571.54,-58.96"/>
</g>
<!-- Node18 -->
<g id="node18" class="node">
<title>Node18</title>
<g id="a_node18"><a xlink:href="source__code__window_8cpp.html" target="_top" xlink:title="This file implements a window that displays loaded ELF files (disassembled instructions of the source...">
<polygon fill="none" stroke="black" points="623.5,-0.5 623.5,-30.5 753.5,-30.5 753.5,-0.5 623.5,-0.5"/>
<text text-anchor="start" x="631.5" y="-18.5" font-family="Helvetica,sans-Serif" font-size="10.00">src/gui/windows/source</text>
<text text-anchor="middle" x="688.5" y="-7.5" font-family="Helvetica,sans-Serif" font-size="10.00">_code_window.cpp</text>
</a>
</g>
</g>
<!-- Node17&#45;&gt;Node18 -->
<g id="edge20" class="edge">
<title>Node17&#45;&gt;Node18</title>
<path fill="none" stroke="midnightblue" d="M614.28,-62.02C630.77,-51.9 650.55,-39.77 665.54,-30.58"/>
<polygon fill="midnightblue" stroke="midnightblue" points="612.2,-59.18 605.5,-67.4 615.85,-65.15 612.2,-59.18"/>
</g>
<!-- Node19&#45;&gt;Node11 -->
<g id="edge22" class="edge">
<title>Node19&#45;&gt;Node11</title>
<path fill="none" stroke="midnightblue" d="M678.22,-63.62C647.05,-51.04 606.74,-34.77 582.57,-25.01"/>
<polygon fill="midnightblue" stroke="midnightblue" points="676.98,-66.9 687.57,-67.4 679.6,-60.41 676.98,-66.9"/>
</g>
<!-- Node20 -->
<g id="node20" class="node">
<title>Node20</title>
<g id="a_node20"><a xlink:href="top__bar__menu_8cpp.html" target="_top" xlink:title=" ">
<polygon fill="none" stroke="black" points="772,-0.5 772,-30.5 885,-30.5 885,-0.5 772,-0.5"/>
<text text-anchor="start" x="780" y="-18.5" font-family="Helvetica,sans-Serif" font-size="10.00">src/gui/windows/top</text>
<text text-anchor="middle" x="828.5" y="-7.5" font-family="Helvetica,sans-Serif" font-size="10.00">_bar_menu.cpp</text>
</a>
</g>
</g>
<!-- Node19&#45;&gt;Node20 -->
<g id="edge23" class="edge">
<title>Node19&#45;&gt;Node20</title>
<path fill="none" stroke="midnightblue" d="M754.28,-62.02C770.77,-51.9 790.55,-39.77 805.54,-30.58"/>
<polygon fill="midnightblue" stroke="midnightblue" points="752.2,-59.18 745.5,-67.4 755.85,-65.15 752.2,-59.18"/>
</g>
</g>
</svg>
