<?xml version="1.0" encoding="UTF-8" standalone="no"?>
<!DOCTYPE svg PUBLIC "-//W3C//DTD SVG 1.1//EN"
 "http://www.w3.org/Graphics/SVG/1.1/DTD/svg11.dtd">
<!-- Generated by graphviz version 2.43.0 (0)
 -->
<!-- Title: src/core/arm1176jzf_s/mmu/page_table.hpp Pages: 1 -->
<svg width="1199pt" height="302pt"
 viewBox="0.00 0.00 1198.50 302.00" xmlns="http://www.w3.org/2000/svg" xmlns:xlink="http://www.w3.org/1999/xlink">
<g id="graph0" class="graph" transform="scale(1 1) rotate(0) translate(4 298)">
<title>src/core/arm1176jzf_s/mmu/page_table.hpp</title>
<!-- Node1 -->
<g id="Node000001" class="node">
<title>Node1</title>
<g id="a_Node000001"><a xlink:title="This file defines a page table.">
<polygon fill="#999999" stroke="#666666" points="719.5,-294 585.5,-294 585.5,-264 719.5,-264 719.5,-294"/>
<text text-anchor="start" x="593.5" y="-282" font-family="Helvetica,sans-Serif" font-size="10.00">src/core/arm1176jzf</text>
<text text-anchor="middle" x="652.5" y="-271" font-family="Helvetica,sans-Serif" font-size="10.00">_s/mmu/page_table.hpp</text>
</a>
</g>
</g>
<!-- Node2 -->
<g id="Node000002" class="node">
<title>Node2</title>
<g id="a_Node000002"><a xlink:href="mmu_8hpp.html" target="_top" xlink:title="This file defines the MMU (memory management unit) of the CPU.">
<polygon fill="white" stroke="#666666" points="639,-228 526,-228 526,-198 639,-198 639,-228"/>
<text text-anchor="start" x="534" y="-216" font-family="Helvetica,sans-Serif" font-size="10.00">src/core/arm1176jzf</text>
<text text-anchor="middle" x="582.5" y="-205" font-family="Helvetica,sans-Serif" font-size="10.00">_s/mmu/mmu.hpp</text>
</a>
</g>
</g>
<!-- Node1&#45;&gt;Node2 -->
<g id="edge1_Node000001_Node000002" class="edge">
<title>Node1&#45;&gt;Node2</title>
<g id="a_edge1_Node000001_Node000002"><a xlink:title=" ">
<path fill="none" stroke="#63b8ff" d="M629.45,-256.92C619.13,-247.49 607.23,-236.61 597.99,-228.16"/>
<polygon fill="#63b8ff" stroke="#63b8ff" points="627.22,-259.63 636.96,-263.8 631.95,-254.47 627.22,-259.63"/>
</a>
</g>
</g>
<!-- Node20 -->
<g id="Node000020" class="node">
<title>Node20</title>
<g id="a_Node000020"><a xlink:href="page__table_8cpp.html" target="_top" xlink:title="This file implements a page table.">
<polygon fill="white" stroke="#666666" points="790,-228 657,-228 657,-198 790,-198 790,-228"/>
<text text-anchor="start" x="665" y="-216" font-family="Helvetica,sans-Serif" font-size="10.00">src/core/arm1176jzf</text>
<text text-anchor="middle" x="723.5" y="-205" font-family="Helvetica,sans-Serif" font-size="10.00">_s/mmu/page_table.cpp</text>
</a>
</g>
</g>
<!-- Node1&#45;&gt;Node20 -->
<g id="edge24_Node000001_Node000020" class="edge">
<title>Node1&#45;&gt;Node20</title>
<g id="a_edge24_Node000001_Node000020"><a xlink:title=" ">
<path fill="none" stroke="#63b8ff" d="M675.88,-256.92C686.35,-247.49 698.42,-236.61 707.79,-228.16"/>
<polygon fill="#63b8ff" stroke="#63b8ff" points="673.34,-254.5 668.26,-263.8 678.03,-259.7 673.34,-254.5"/>
</a>
</g>
</g>
<!-- Node3 -->
<g id="Node000003" class="node">
<title>Node3</title>
<g id="a_Node000003"><a xlink:href="core_8hpp.html" target="_top" xlink:title="This file defines a class that represents a CPU core (arm1176jzf_s).">
<polygon fill="white" stroke="#666666" points="639,-162 526,-162 526,-132 639,-132 639,-162"/>
<text text-anchor="start" x="534" y="-150" font-family="Helvetica,sans-Serif" font-size="10.00">src/core/arm1176jzf</text>
<text text-anchor="middle" x="582.5" y="-139" font-family="Helvetica,sans-Serif" font-size="10.00">_s/core.hpp</text>
</a>
</g>
</g>
<!-- Node2&#45;&gt;Node3 -->
<g id="edge2_Node000002_Node000003" class="edge">
<title>Node2&#45;&gt;Node3</title>
<g id="a_edge2_Node000002_Node000003"><a xlink:title=" ">
<path fill="none" stroke="#63b8ff" d="M582.5,-187.54C582.5,-178.96 582.5,-169.61 582.5,-162.16"/>
<polygon fill="#63b8ff" stroke="#63b8ff" points="579,-187.8 582.5,-197.8 586,-187.8 579,-187.8"/>
</a>
</g>
</g>
<!-- Node7 -->
<g id="Node000007" class="node">
<title>Node7</title>
<g id="a_Node000007"><a xlink:href="soc_8hpp.html" target="_top" xlink:title=" ">
<polygon fill="white" stroke="#666666" points="192,-90.5 97,-90.5 97,-71.5 192,-71.5 192,-90.5"/>
<text text-anchor="middle" x="144.5" y="-78.5" font-family="Helvetica,sans-Serif" font-size="10.00">src/core/soc.hpp</text>
</a>
</g>
</g>
<!-- Node2&#45;&gt;Node7 -->
<g id="edge23_Node000002_Node000007" class="edge">
<title>Node2&#45;&gt;Node7</title>
<g id="a_edge23_Node000002_Node000007"><a xlink:title=" ">
<path fill="none" stroke="#63b8ff" d="M525.51,-195.09C430.86,-166.99 244.57,-111.7 173.23,-90.53"/>
<polygon fill="#63b8ff" stroke="#63b8ff" points="524.63,-198.47 535.21,-197.96 526.62,-191.76 524.63,-198.47"/>
</a>
</g>
</g>
<!-- Node19 -->
<g id="Node000019" class="node">
<title>Node19</title>
<g id="a_Node000019"><a xlink:href="mmu_8cpp.html" target="_top" xlink:title="This file implements the MMU (memory management unit) of the CPU.">
<polygon fill="white" stroke="#666666" points="770,-162 657,-162 657,-132 770,-132 770,-162"/>
<text text-anchor="start" x="665" y="-150" font-family="Helvetica,sans-Serif" font-size="10.00">src/core/arm1176jzf</text>
<text text-anchor="middle" x="713.5" y="-139" font-family="Helvetica,sans-Serif" font-size="10.00">_s/mmu/mmu.cpp</text>
</a>
</g>
</g>
<!-- Node2&#45;&gt;Node19 -->
<g id="edge22_Node000002_Node000019" class="edge">
<title>Node2&#45;&gt;Node19</title>
<g id="a_edge22_Node000002_Node000019"><a xlink:title=" ">
<path fill="none" stroke="#63b8ff" d="M620.34,-193.51C640.89,-183.47 665.89,-171.26 684.82,-162.01"/>
<polygon fill="#63b8ff" stroke="#63b8ff" points="618.7,-190.42 611.25,-197.95 621.77,-196.71 618.7,-190.42"/>
</a>
</g>
</g>
<!-- Node4 -->
<g id="Node000004" class="node">
<title>Node4</title>
<g id="a_Node000004"><a xlink:href="core_8cpp.html" target="_top" xlink:title="This file implements the CCPU_Core class defined in core.hpp.">
<polygon fill="white" stroke="#666666" points="910,-96 797,-96 797,-66 910,-66 910,-96"/>
<text text-anchor="start" x="805" y="-84" font-family="Helvetica,sans-Serif" font-size="10.00">src/core/arm1176jzf</text>
<text text-anchor="middle" x="853.5" y="-73" font-family="Helvetica,sans-Serif" font-size="10.00">_s/core.cpp</text>
</a>
</g>
</g>
<!-- Node3&#45;&gt;Node4 -->
<g id="edge3_Node000003_Node000004" class="edge">
<title>Node3&#45;&gt;Node4</title>
<g id="a_edge3_Node000003_Node000004"><a xlink:title=" ">
<path fill="none" stroke="#63b8ff" d="M649.05,-130.28C694.36,-119.58 753.69,-105.57 796.76,-95.4"/>
<polygon fill="#63b8ff" stroke="#63b8ff" points="648.24,-126.88 639.31,-132.58 649.85,-133.69 648.24,-126.88"/>
</a>
</g>
</g>
<!-- Node5 -->
<g id="Node000005" class="node">
<title>Node5</title>
<g id="a_Node000005"><a xlink:href="coprocessor_8cpp.html" target="_top" xlink:title="This file implements the common functionality of a general interface of a coprocessor.">
<polygon fill="white" stroke="#666666" points="1050.5,-96 928.5,-96 928.5,-66 1050.5,-66 1050.5,-96"/>
<text text-anchor="start" x="936.5" y="-84" font-family="Helvetica,sans-Serif" font-size="10.00">src/core/coprocessors</text>
<text text-anchor="middle" x="989.5" y="-73" font-family="Helvetica,sans-Serif" font-size="10.00">/coprocessor.cpp</text>
</a>
</g>
</g>
<!-- Node3&#45;&gt;Node5 -->
<g id="edge4_Node000003_Node000005" class="edge">
<title>Node3&#45;&gt;Node5</title>
<g id="a_edge4_Node000003_Node000005"><a xlink:title=" ">
<path fill="none" stroke="#63b8ff" d="M649.13,-131.8C769.37,-111.38 802.37,-115.44 919.5,-96 922.43,-95.51 925.43,-94.99 928.46,-94.45"/>
<polygon fill="#63b8ff" stroke="#63b8ff" points="648.43,-128.37 639.17,-133.51 649.62,-135.27 648.43,-128.37"/>
</a>
</g>
</g>
<!-- Node6 -->
<g id="Node000006" class="node">
<title>Node6</title>
<g id="a_Node000006"><a xlink:href="cp10_8cpp.html" target="_top" xlink:title="This file implements coprocessor CP10 (single&#45;precision FPU).">
<polygon fill="white" stroke="#666666" points="1190.5,-96 1068.5,-96 1068.5,-66 1190.5,-66 1190.5,-96"/>
<text text-anchor="start" x="1076.5" y="-84" font-family="Helvetica,sans-Serif" font-size="10.00">src/core/coprocessors</text>
<text text-anchor="middle" x="1129.5" y="-73" font-family="Helvetica,sans-Serif" font-size="10.00">/cp10/cp10.cpp</text>
</a>
</g>
</g>
<!-- Node3&#45;&gt;Node6 -->
<g id="edge5_Node000003_Node000006" class="edge">
<title>Node3&#45;&gt;Node6</title>
<g id="a_edge5_Node000003_Node000006"><a xlink:title=" ">
<path fill="none" stroke="#63b8ff" d="M649.04,-131.89C830.99,-105.2 880.75,-121.61 1059.5,-96 1062.44,-95.58 1065.45,-95.11 1068.48,-94.61"/>
<polygon fill="#63b8ff" stroke="#63b8ff" points="648.52,-128.43 639.14,-133.36 649.55,-135.35 648.52,-128.43"/>
</a>
</g>
</g>
<!-- Node3&#45;&gt;Node7 -->
<g id="edge6_Node000003_Node000007" class="edge">
<title>Node3&#45;&gt;Node7</title>
<g id="a_edge6_Node000003_Node000007"><a xlink:title=" ">
<path fill="none" stroke="#63b8ff" d="M515.89,-139.62C439.37,-131.76 310.24,-116.83 200.5,-96 192.53,-94.49 183.99,-92.53 176.05,-90.56"/>
<polygon fill="#63b8ff" stroke="#63b8ff" points="515.56,-143.11 525.87,-140.64 516.27,-136.15 515.56,-143.11"/>
</a>
</g>
</g>
<!-- Node11 -->
<g id="Node000011" class="node">
<title>Node11</title>
<g id="a_Node000011"><a xlink:href="control__window_8hpp.html" target="_top" xlink:title="This file defines a window that allows the user to control CPU execution.">
<polygon fill="white" stroke="#666666" points="341,-96 210,-96 210,-66 341,-66 341,-96"/>
<text text-anchor="start" x="218" y="-84" font-family="Helvetica,sans-Serif" font-size="10.00">src/gui/windows/control</text>
<text text-anchor="middle" x="275.5" y="-73" font-family="Helvetica,sans-Serif" font-size="10.00">_window.hpp</text>
</a>
</g>
</g>
<!-- Node3&#45;&gt;Node11 -->
<g id="edge10_Node000003_Node000011" class="edge">
<title>Node3&#45;&gt;Node11</title>
<g id="a_edge10_Node000003_Node000011"><a xlink:title=" ">
<path fill="none" stroke="#63b8ff" d="M515.75,-132.09C464,-121.3 392.64,-106.42 341.16,-95.69"/>
<polygon fill="#63b8ff" stroke="#63b8ff" points="515.33,-135.57 525.83,-134.19 516.76,-128.72 515.33,-135.57"/>
</a>
</g>
</g>
<!-- Node13 -->
<g id="Node000013" class="node">
<title>Node13</title>
<g id="a_Node000013"><a xlink:href="registers__window_8hpp.html" target="_top" xlink:title="This file defines a window that displays the contents of all CPU registers.">
<polygon fill="white" stroke="#666666" points="499.5,-96 359.5,-96 359.5,-66 499.5,-66 499.5,-96"/>
<text text-anchor="start" x="367.5" y="-84" font-family="Helvetica,sans-Serif" font-size="10.00">src/gui/windows/registers</text>
<text text-anchor="middle" x="429.5" y="-73" font-family="Helvetica,sans-Serif" font-size="10.00">_window.hpp</text>
</a>
</g>
</g>
<!-- Node3&#45;&gt;Node13 -->
<g id="edge13_Node000003_Node000013" class="edge">
<title>Node3&#45;&gt;Node13</title>
<g id="a_edge13_Node000003_Node000013"><a xlink:title=" ">
<path fill="none" stroke="#63b8ff" d="M539.6,-128.05C515.36,-117.91 485.5,-105.43 463,-96.01"/>
<polygon fill="#63b8ff" stroke="#63b8ff" points="538.35,-131.32 548.92,-131.95 541.05,-124.87 538.35,-131.32"/>
</a>
</g>
</g>
<!-- Node15 -->
<g id="Node000015" class="node">
<title>Node15</title>
<g id="a_Node000015"><a xlink:href="source__code__window_8hpp.html" target="_top" xlink:title="This file defines a window that displays loaded ELF files (disassembled instructions of the source co...">
<polygon fill="white" stroke="#666666" points="647.5,-96 517.5,-96 517.5,-66 647.5,-66 647.5,-96"/>
<text text-anchor="start" x="525.5" y="-84" font-family="Helvetica,sans-Serif" font-size="10.00">src/gui/windows/source</text>
<text text-anchor="middle" x="582.5" y="-73" font-family="Helvetica,sans-Serif" font-size="10.00">_code_window.hpp</text>
</a>
</g>
</g>
<!-- Node3&#45;&gt;Node15 -->
<g id="edge16_Node000003_Node000015" class="edge">
<title>Node3&#45;&gt;Node15</title>
<g id="a_edge16_Node000003_Node000015"><a xlink:title=" ">
<path fill="none" stroke="#63b8ff" d="M582.5,-121.54C582.5,-112.96 582.5,-103.61 582.5,-96.16"/>
<polygon fill="#63b8ff" stroke="#63b8ff" points="579,-121.8 582.5,-131.8 586,-121.8 579,-121.8"/>
</a>
</g>
</g>
<!-- Node17 -->
<g id="Node000017" class="node">
<title>Node17</title>
<g id="a_Node000017"><a xlink:href="top__bar__menu_8hpp.html" target="_top" xlink:title=" ">
<polygon fill="white" stroke="#666666" points="779,-96 666,-96 666,-66 779,-66 779,-96"/>
<text text-anchor="start" x="674" y="-84" font-family="Helvetica,sans-Serif" font-size="10.00">src/gui/windows/top</text>
<text text-anchor="middle" x="722.5" y="-73" font-family="Helvetica,sans-Serif" font-size="10.00">_bar_menu.hpp</text>
</a>
</g>
</g>
<!-- Node3&#45;&gt;Node17 -->
<g id="edge19_Node000003_Node000017" class="edge">
<title>Node3&#45;&gt;Node17</title>
<g id="a_edge19_Node000003_Node000017"><a xlink:title=" ">
<path fill="none" stroke="#63b8ff" d="M622.35,-127.78C644.42,-117.69 671.44,-105.34 691.85,-96.01"/>
<polygon fill="#63b8ff" stroke="#63b8ff" points="620.86,-124.61 613.22,-131.95 623.77,-130.98 620.86,-124.61"/>
</a>
</g>
</g>
<!-- Node8 -->
<g id="Node000008" class="node">
<title>Node8</title>
<g id="a_Node000008"><a xlink:href="soc_8cpp.html" target="_top" xlink:title=" ">
<polygon fill="white" stroke="#666666" points="192,-24.5 97,-24.5 97,-5.5 192,-5.5 192,-24.5"/>
<text text-anchor="middle" x="144.5" y="-12.5" font-family="Helvetica,sans-Serif" font-size="10.00">src/core/soc.cpp</text>
</a>
</g>
</g>
<!-- Node7&#45;&gt;Node8 -->
<g id="edge7_Node000007_Node000008" class="edge">
<title>Node7&#45;&gt;Node8</title>
<g id="a_edge7_Node000007_Node000008"><a xlink:title=" ">
<path fill="none" stroke="#63b8ff" d="M144.5,-61.08C144.5,-49.13 144.5,-34.22 144.5,-24.91"/>
<polygon fill="#63b8ff" stroke="#63b8ff" points="141,-61.37 144.5,-71.37 148,-61.37 141,-61.37"/>
</a>
</g>
</g>
<!-- Node9 -->
<g id="Node000009" class="node">
<title>Node9</title>
<g id="a_Node000009"><a xlink:href="gui_8cpp.html" target="_top" xlink:title="This file implements the main GUI entry function that takes care of creating and rendering all window...">
<polygon fill="white" stroke="#666666" points="605,-24.5 518,-24.5 518,-5.5 605,-5.5 605,-24.5"/>
<text text-anchor="middle" x="561.5" y="-12.5" font-family="Helvetica,sans-Serif" font-size="10.00">src/gui/gui.cpp</text>
</a>
</g>
</g>
<!-- Node7&#45;&gt;Node9 -->
<g id="edge8_Node000007_Node000009" class="edge">
<title>Node7&#45;&gt;Node9</title>
<g id="a_edge8_Node000007_Node000009"><a xlink:title=" ">
<path fill="none" stroke="#63b8ff" d="M185.75,-69.05C190.7,-67.93 195.7,-66.88 200.5,-66 336.08,-41.24 373.09,-55.66 508.5,-30 516.26,-28.53 524.56,-26.54 532.23,-24.52"/>
<polygon fill="#63b8ff" stroke="#63b8ff" points="184.66,-65.71 175.74,-71.44 186.28,-72.52 184.66,-65.71"/>
</a>
</g>
</g>
<!-- Node10 -->
<g id="Node000010" class="node">
<title>Node10</title>
<g id="a_Node000010"><a xlink:href="main_8cpp.html" target="_top" xlink:title="This file defines and implements the main function of the application.">
<polygon fill="white" stroke="#666666" points="79,-24.5 0,-24.5 0,-5.5 79,-5.5 79,-24.5"/>
<text text-anchor="middle" x="39.5" y="-12.5" font-family="Helvetica,sans-Serif" font-size="10.00">src/main.cpp</text>
</a>
</g>
</g>
<!-- Node7&#45;&gt;Node10 -->
<g id="edge9_Node000007_Node000010" class="edge">
<title>Node7&#45;&gt;Node10</title>
<g id="a_edge9_Node000007_Node000010"><a xlink:title=" ">
<path fill="none" stroke="#63b8ff" d="M121.56,-66.02C100.91,-53.43 71.2,-35.32 53.77,-24.7"/>
<polygon fill="#63b8ff" stroke="#63b8ff" points="119.98,-69.15 130.34,-71.37 123.62,-63.18 119.98,-69.15"/>
</a>
</g>
</g>
<!-- Node11&#45;&gt;Node9 -->
<g id="edge11_Node000011_Node000009" class="edge">
<title>Node11&#45;&gt;Node9</title>
<g id="a_edge11_Node000011_Node000009"><a xlink:title=" ">
<path fill="none" stroke="#63b8ff" d="M351.05,-64.72C396.75,-55.25 456.11,-42.53 508.5,-30 515.53,-28.32 523.06,-26.4 530.17,-24.54"/>
<polygon fill="#63b8ff" stroke="#63b8ff" points="350.3,-61.3 341.22,-66.75 351.72,-68.16 350.3,-61.3"/>
</a>
</g>
</g>
<!-- Node12 -->
<g id="Node000012" class="node">
<title>Node12</title>
<g id="a_Node000012"><a xlink:href="control__window_8cpp.html" target="_top" xlink:title="This file implements a window that allows the user to control CPU execution.">
<polygon fill="white" stroke="#666666" points="341,-30 210,-30 210,0 341,0 341,-30"/>
<text text-anchor="start" x="218" y="-18" font-family="Helvetica,sans-Serif" font-size="10.00">src/gui/windows/control</text>
<text text-anchor="middle" x="275.5" y="-7" font-family="Helvetica,sans-Serif" font-size="10.00">_window.cpp</text>
</a>
</g>
</g>
<!-- Node11&#45;&gt;Node12 -->
<g id="edge12_Node000011_Node000012" class="edge">
<title>Node11&#45;&gt;Node12</title>
<g id="a_edge12_Node000011_Node000012"><a xlink:title=" ">
<path fill="none" stroke="#63b8ff" d="M275.5,-55.54C275.5,-46.96 275.5,-37.61 275.5,-30.16"/>
<polygon fill="#63b8ff" stroke="#63b8ff" points="272,-55.8 275.5,-65.8 279,-55.8 272,-55.8"/>
</a>
</g>
</g>
<!-- Node13&#45;&gt;Node9 -->
<g id="edge14_Node000013_Node000009" class="edge">
<title>Node13&#45;&gt;Node9</title>
<g id="a_edge14_Node000013_Node000009"><a xlink:title=" ">
<path fill="none" stroke="#63b8ff" d="M467.74,-61.46C492.88,-49.27 524.58,-33.9 543.93,-24.52"/>
<polygon fill="#63b8ff" stroke="#63b8ff" points="465.94,-58.44 458.47,-65.95 468.99,-64.74 465.94,-58.44"/>
</a>
</g>
</g>
<!-- Node14 -->
<g id="Node000014" class="node">
<title>Node14</title>
<g id="a_Node000014"><a xlink:href="registers__window_8cpp.html" target="_top" xlink:title="This file implements a window that displays the contents of all CPU registers.">
<polygon fill="white" stroke="#666666" points="499.5,-30 359.5,-30 359.5,0 499.5,0 499.5,-30"/>
<text text-anchor="start" x="367.5" y="-18" font-family="Helvetica,sans-Serif" font-size="10.00">src/gui/windows/registers</text>
<text text-anchor="middle" x="429.5" y="-7" font-family="Helvetica,sans-Serif" font-size="10.00">_window.cpp</text>
</a>
</g>
</g>
<!-- Node13&#45;&gt;Node14 -->
<g id="edge15_Node000013_Node000014" class="edge">
<title>Node13&#45;&gt;Node14</title>
<g id="a_edge15_Node000013_Node000014"><a xlink:title=" ">
<path fill="none" stroke="#63b8ff" d="M429.5,-55.54C429.5,-46.96 429.5,-37.61 429.5,-30.16"/>
<polygon fill="#63b8ff" stroke="#63b8ff" points="426,-55.8 429.5,-65.8 433,-55.8 426,-55.8"/>
</a>
</g>
</g>
<!-- Node15&#45;&gt;Node9 -->
<g id="edge17_Node000015_Node000009" class="edge">
<title>Node15&#45;&gt;Node9</title>
<g id="a_edge17_Node000015_Node000009"><a xlink:title=" ">
<path fill="none" stroke="#63b8ff" d="M574.72,-56.28C571.12,-45.31 567.06,-32.94 564.4,-24.84"/>
<polygon fill="#63b8ff" stroke="#63b8ff" points="571.4,-57.39 577.84,-65.8 578.05,-55.2 571.4,-57.39"/>
</a>
</g>
</g>
<!-- Node16 -->
<g id="Node000016" class="node">
<title>Node16</title>
<g id="a_Node000016"><a xlink:href="source__code__window_8cpp.html" target="_top" xlink:title="This file implements a window that displays loaded ELF files (disassembled instructions of the source...">
<polygon fill="white" stroke="#666666" points="753.5,-30 623.5,-30 623.5,0 753.5,0 753.5,-30"/>
<text text-anchor="start" x="631.5" y="-18" font-family="Helvetica,sans-Serif" font-size="10.00">src/gui/windows/source</text>
<text text-anchor="middle" x="688.5" y="-7" font-family="Helvetica,sans-Serif" font-size="10.00">_code_window.cpp</text>
</a>
</g>
</g>
<!-- Node15&#45;&gt;Node16 -->
<g id="edge18_Node000015_Node000016" class="edge">
<title>Node15&#45;&gt;Node16</title>
<g id="a_edge18_Node000015_Node000016"><a xlink:title=" ">
<path fill="none" stroke="#63b8ff" d="M614.47,-60.69C630.84,-50.82 650.39,-39.01 665.29,-30.01"/>
<polygon fill="#63b8ff" stroke="#63b8ff" points="612.51,-57.79 605.76,-65.95 616.13,-63.78 612.51,-57.79"/>
</a>
</g>
</g>
<!-- Node17&#45;&gt;Node9 -->
<g id="edge20_Node000017_Node000009" class="edge">
<title>Node17&#45;&gt;Node9</title>
<g id="a_edge20_Node000017_Node000009"><a xlink:title=" ">
<path fill="none" stroke="#63b8ff" d="M677.87,-62.26C646.91,-49.95 607.05,-34.11 582.93,-24.52"/>
<polygon fill="#63b8ff" stroke="#63b8ff" points="676.58,-65.51 687.17,-65.95 679.17,-59.01 676.58,-65.51"/>
</a>
</g>
</g>
<!-- Node18 -->
<g id="Node000018" class="node">
<title>Node18</title>
<g id="a_Node000018"><a xlink:href="top__bar__menu_8cpp.html" target="_top" xlink:title=" ">
<polygon fill="white" stroke="#666666" points="885,-30 772,-30 772,0 885,0 885,-30"/>
<text text-anchor="start" x="780" y="-18" font-family="Helvetica,sans-Serif" font-size="10.00">src/gui/windows/top</text>
<text text-anchor="middle" x="828.5" y="-7" font-family="Helvetica,sans-Serif" font-size="10.00">_bar_menu.cpp</text>
</a>
</g>
</g>
<!-- Node17&#45;&gt;Node18 -->
<g id="edge21_Node000017_Node000018" class="edge">
<title>Node17&#45;&gt;Node18</title>
<g id="a_edge21_Node000017_Node000018"><a xlink:title=" ">
<path fill="none" stroke="#63b8ff" d="M754.47,-60.69C770.84,-50.82 790.39,-39.01 805.29,-30.01"/>
<polygon fill="#63b8ff" stroke="#63b8ff" points="752.51,-57.79 745.76,-65.95 756.13,-63.78 752.51,-57.79"/>
</a>
</g>
</g>
</g>
</svg>
