<?xml version="1.0" encoding="UTF-8" standalone="no"?>
<!DOCTYPE svg PUBLIC "-//W3C//DTD SVG 1.1//EN"
 "http://www.w3.org/Graphics/SVG/1.1/DTD/svg11.dtd">
<!-- Generated by graphviz version 2.43.0 (0)
 -->
<!-- Title: src/core/coprocessors/cp15/primary_reg.hpp Pages: 1 -->
<svg width="1492pt" height="508pt"
 viewBox="0.00 0.00 1491.51 508.00" xmlns="http://www.w3.org/2000/svg" xmlns:xlink="http://www.w3.org/1999/xlink">
<g id="graph0" class="graph" transform="scale(1 1) rotate(0) translate(4 504)">
<title>src/core/coprocessors/cp15/primary_reg.hpp</title>
<!-- Node1 -->
<g id="node1" class="node">
<title>Node1</title>
<g id="a_node1"><a xlink:title="This file defines a primary register interface of coprocessor CP15.">
<polygon fill="#bfbfbf" stroke="black" points="701.5,-469.5 701.5,-499.5 827.5,-499.5 827.5,-469.5 701.5,-469.5"/>
<text text-anchor="start" x="709.5" y="-487.5" font-family="Helvetica,sans-Serif" font-size="10.00">src/core/coprocessors</text>
<text text-anchor="middle" x="764.5" y="-476.5" font-family="Helvetica,sans-Serif" font-size="10.00">/cp15/primary_reg.hpp</text>
</a>
</g>
</g>
<!-- Node2 -->
<g id="node2" class="node">
<title>Node2</title>
<g id="a_node2"><a xlink:href="c1_8hpp.html" target="_top" xlink:title="This file defines the primary register C1 of coprocessor CP15.">
<polygon fill="none" stroke="black" points="385.5,-402.5 385.5,-432.5 507.5,-432.5 507.5,-402.5 385.5,-402.5"/>
<text text-anchor="start" x="393.5" y="-420.5" font-family="Helvetica,sans-Serif" font-size="10.00">src/core/coprocessors</text>
<text text-anchor="middle" x="446.5" y="-409.5" font-family="Helvetica,sans-Serif" font-size="10.00">/cp15/c1.hpp</text>
</a>
</g>
</g>
<!-- Node1&#45;&gt;Node2 -->
<g id="edge1" class="edge">
<title>Node1&#45;&gt;Node2</title>
<path fill="none" stroke="midnightblue" d="M691.34,-468.67C641.94,-458.64 575.29,-445.07 516.5,-433 513.58,-432.4 510.6,-431.79 507.58,-431.17"/>
<polygon fill="midnightblue" stroke="midnightblue" points="690.79,-472.13 701.29,-470.69 692.19,-465.27 690.79,-472.13"/>
</g>
<!-- Node4 -->
<g id="node4" class="node">
<title>Node4</title>
<g id="a_node4"><a xlink:href="cp15_8hpp.html" target="_top" xlink:title="This file defines coprocessor CP15.">
<polygon fill="none" stroke="black" points="614.5,-335.5 614.5,-365.5 736.5,-365.5 736.5,-335.5 614.5,-335.5"/>
<text text-anchor="start" x="622.5" y="-353.5" font-family="Helvetica,sans-Serif" font-size="10.00">src/core/coprocessors</text>
<text text-anchor="middle" x="675.5" y="-342.5" font-family="Helvetica,sans-Serif" font-size="10.00">/cp15/cp15.hpp</text>
</a>
</g>
</g>
<!-- Node1&#45;&gt;Node4 -->
<g id="edge62" class="edge">
<title>Node1&#45;&gt;Node4</title>
<path fill="none" stroke="midnightblue" d="M727.37,-463.94C715.25,-455.86 702.79,-445.45 694.5,-433 680.73,-412.32 676.88,-382.9 675.84,-365.65"/>
<polygon fill="midnightblue" stroke="midnightblue" points="725.74,-467.05 736.07,-469.4 729.47,-461.12 725.74,-467.05"/>
</g>
<!-- Node33 -->
<g id="node33" class="node">
<title>Node33</title>
<g id="a_node33"><a xlink:href="c2_8hpp.html" target="_top" xlink:title="This file defines the primary register C2 of coprocessor CP15.">
<polygon fill="none" stroke="black" points="525.5,-402.5 525.5,-432.5 647.5,-432.5 647.5,-402.5 525.5,-402.5"/>
<text text-anchor="start" x="533.5" y="-420.5" font-family="Helvetica,sans-Serif" font-size="10.00">src/core/coprocessors</text>
<text text-anchor="middle" x="586.5" y="-409.5" font-family="Helvetica,sans-Serif" font-size="10.00">/cp15/c2.hpp</text>
</a>
</g>
</g>
<!-- Node1&#45;&gt;Node33 -->
<g id="edge50" class="edge">
<title>Node1&#45;&gt;Node33</title>
<path fill="none" stroke="midnightblue" d="M716.45,-465.96C687.78,-455.48 651.86,-442.37 625.05,-432.58"/>
<polygon fill="midnightblue" stroke="midnightblue" points="715.28,-469.25 725.88,-469.4 717.68,-462.68 715.28,-469.25"/>
</g>
<!-- Node35 -->
<g id="node35" class="node">
<title>Node35</title>
<g id="a_node35"><a xlink:href="c3_8hpp.html" target="_top" xlink:title="This file defines the primary register C3 of coprocessor CP15.">
<polygon fill="none" stroke="black" points="703.5,-402.5 703.5,-432.5 825.5,-432.5 825.5,-402.5 703.5,-402.5"/>
<text text-anchor="start" x="711.5" y="-420.5" font-family="Helvetica,sans-Serif" font-size="10.00">src/core/coprocessors</text>
<text text-anchor="middle" x="764.5" y="-409.5" font-family="Helvetica,sans-Serif" font-size="10.00">/cp15/c3.hpp</text>
</a>
</g>
</g>
<!-- Node1&#45;&gt;Node35 -->
<g id="edge53" class="edge">
<title>Node1&#45;&gt;Node35</title>
<path fill="none" stroke="midnightblue" d="M764.5,-459.11C764.5,-450.15 764.5,-440.32 764.5,-432.58"/>
<polygon fill="midnightblue" stroke="midnightblue" points="761,-459.4 764.5,-469.4 768,-459.4 761,-459.4"/>
</g>
<!-- Node37 -->
<g id="node37" class="node">
<title>Node37</title>
<g id="a_node37"><a xlink:href="c7_8hpp.html" target="_top" xlink:title="This file defines the primary register C7 of coprocessor CP15.">
<polygon fill="none" stroke="black" points="843.5,-402.5 843.5,-432.5 965.5,-432.5 965.5,-402.5 843.5,-402.5"/>
<text text-anchor="start" x="851.5" y="-420.5" font-family="Helvetica,sans-Serif" font-size="10.00">src/core/coprocessors</text>
<text text-anchor="middle" x="904.5" y="-409.5" font-family="Helvetica,sans-Serif" font-size="10.00">/cp15/c7.hpp</text>
</a>
</g>
</g>
<!-- Node1&#45;&gt;Node37 -->
<g id="edge56" class="edge">
<title>Node1&#45;&gt;Node37</title>
<path fill="none" stroke="midnightblue" d="M804.07,-465.13C826.31,-454.8 853.65,-442.11 874.18,-432.58"/>
<polygon fill="midnightblue" stroke="midnightblue" points="802.47,-462.01 794.88,-469.4 805.42,-468.36 802.47,-462.01"/>
</g>
<!-- Node39 -->
<g id="node39" class="node">
<title>Node39</title>
<g id="a_node39"><a xlink:href="c8_8hpp.html" target="_top" xlink:title="This file defines the primary register C8 of coprocessor CP15.">
<polygon fill="none" stroke="black" points="983.5,-402.5 983.5,-432.5 1105.5,-432.5 1105.5,-402.5 983.5,-402.5"/>
<text text-anchor="start" x="991.5" y="-420.5" font-family="Helvetica,sans-Serif" font-size="10.00">src/core/coprocessors</text>
<text text-anchor="middle" x="1044.5" y="-409.5" font-family="Helvetica,sans-Serif" font-size="10.00">/cp15/c8.hpp</text>
</a>
</g>
</g>
<!-- Node1&#45;&gt;Node39 -->
<g id="edge59" class="edge">
<title>Node1&#45;&gt;Node39</title>
<path fill="none" stroke="midnightblue" d="M834.78,-467.19C880.63,-456.54 939.89,-442.78 983.71,-432.61"/>
<polygon fill="midnightblue" stroke="midnightblue" points="833.86,-463.81 824.91,-469.48 835.44,-470.62 833.86,-463.81"/>
</g>
<!-- Node41 -->
<g id="node41" class="node">
<title>Node41</title>
<g id="a_node41"><a xlink:href="primary__reg_8cpp.html" target="_top" xlink:title="This file implements a primary register interface of coprocessor CP15.">
<polygon fill="none" stroke="black" points="1124,-402.5 1124,-432.5 1249,-432.5 1249,-402.5 1124,-402.5"/>
<text text-anchor="start" x="1132" y="-420.5" font-family="Helvetica,sans-Serif" font-size="10.00">src/core/coprocessors</text>
<text text-anchor="middle" x="1186.5" y="-409.5" font-family="Helvetica,sans-Serif" font-size="10.00">/cp15/primary_reg.cpp</text>
</a>
</g>
</g>
<!-- Node1&#45;&gt;Node41 -->
<g id="edge63" class="edge">
<title>Node1&#45;&gt;Node41</title>
<path fill="none" stroke="midnightblue" d="M837.75,-474.13C908.69,-464.78 1019.21,-449.46 1114.5,-433 1117.52,-432.48 1120.6,-431.93 1123.71,-431.36"/>
<polygon fill="midnightblue" stroke="midnightblue" points="837.03,-470.7 827.58,-475.47 837.95,-477.64 837.03,-470.7"/>
</g>
<!-- Node3 -->
<g id="node3" class="node">
<title>Node3</title>
<g id="a_node3"><a xlink:href="c1_8cpp.html" target="_top" xlink:title="This file implements the primary register C1 of coprocessor CP15.">
<polygon fill="none" stroke="black" points="334.5,-335.5 334.5,-365.5 456.5,-365.5 456.5,-335.5 334.5,-335.5"/>
<text text-anchor="start" x="342.5" y="-353.5" font-family="Helvetica,sans-Serif" font-size="10.00">src/core/coprocessors</text>
<text text-anchor="middle" x="395.5" y="-342.5" font-family="Helvetica,sans-Serif" font-size="10.00">/cp15/c1.cpp</text>
</a>
</g>
</g>
<!-- Node2&#45;&gt;Node3 -->
<g id="edge2" class="edge">
<title>Node2&#45;&gt;Node3</title>
<path fill="none" stroke="midnightblue" d="M429.2,-394.45C421.71,-384.9 413.16,-374 406.54,-365.58"/>
<polygon fill="midnightblue" stroke="midnightblue" points="426.51,-396.69 435.43,-402.4 432.01,-392.37 426.51,-396.69"/>
</g>
<!-- Node2&#45;&gt;Node4 -->
<g id="edge3" class="edge">
<title>Node2&#45;&gt;Node4</title>
<path fill="none" stroke="midnightblue" d="M505.64,-399.71C542.9,-389.14 590.47,-375.63 625.79,-365.61"/>
<polygon fill="midnightblue" stroke="midnightblue" points="504.57,-396.38 495.91,-402.48 506.48,-403.11 504.57,-396.38"/>
</g>
<!-- Node5 -->
<g id="node5" class="node">
<title>Node5</title>
<g id="a_node5"><a xlink:href="core_8hpp.html" target="_top" xlink:title="This file defines a class that represents a CPU core (arm1176jzf_s).">
<polygon fill="none" stroke="black" points="600,-134.5 600,-164.5 713,-164.5 713,-134.5 600,-134.5"/>
<text text-anchor="start" x="608" y="-152.5" font-family="Helvetica,sans-Serif" font-size="10.00">src/core/arm1176jzf</text>
<text text-anchor="middle" x="656.5" y="-141.5" font-family="Helvetica,sans-Serif" font-size="10.00">_s/core.hpp</text>
</a>
</g>
</g>
<!-- Node4&#45;&gt;Node5 -->
<g id="edge4" class="edge">
<title>Node4&#45;&gt;Node5</title>
<path fill="none" stroke="midnightblue" d="M664.61,-325.88C661.32,-317.57 658.14,-308.04 656.5,-299 647.64,-250.3 652.07,-191.12 654.84,-164.57"/>
<polygon fill="midnightblue" stroke="midnightblue" points="661.47,-327.46 668.59,-335.31 667.92,-324.74 661.47,-327.46"/>
</g>
<!-- Node9 -->
<g id="node9" class="node">
<title>Node9</title>
<g id="a_node9"><a xlink:href="soc_8hpp.html" target="_top" xlink:title=" ">
<polygon fill="none" stroke="black" points="52,-73 52,-92 147,-92 147,-73 52,-73"/>
<text text-anchor="middle" x="99.5" y="-80" font-family="Helvetica,sans-Serif" font-size="10.00">src/core/soc.hpp</text>
</a>
</g>
</g>
<!-- Node4&#45;&gt;Node9 -->
<g id="edge46" class="edge">
<title>Node4&#45;&gt;Node9</title>
<path fill="none" stroke="midnightblue" d="M631.91,-331.6C554.97,-299.74 390.35,-230.38 254.5,-165 202.72,-140.08 142.91,-107.53 115.15,-92.2"/>
<polygon fill="midnightblue" stroke="midnightblue" points="630.72,-334.89 641.29,-335.48 633.39,-328.43 630.72,-334.89"/>
</g>
<!-- Node21 -->
<g id="node21" class="node">
<title>Node21</title>
<g id="a_node21"><a xlink:href="mmu_8hpp.html" target="_top" xlink:title="This file defines the MMU (memory management unit) of the CPU.">
<polygon fill="none" stroke="black" points="430,-201.5 430,-231.5 543,-231.5 543,-201.5 430,-201.5"/>
<text text-anchor="start" x="438" y="-219.5" font-family="Helvetica,sans-Serif" font-size="10.00">src/core/arm1176jzf</text>
<text text-anchor="middle" x="486.5" y="-208.5" font-family="Helvetica,sans-Serif" font-size="10.00">_s/mmu/mmu.hpp</text>
</a>
</g>
</g>
<!-- Node4&#45;&gt;Node21 -->
<g id="edge24" class="edge">
<title>Node4&#45;&gt;Node21</title>
<path fill="none" stroke="midnightblue" d="M647.04,-329.62C608.4,-302.64 540.3,-255.08 506.58,-231.52"/>
<polygon fill="midnightblue" stroke="midnightblue" points="645.07,-332.52 655.27,-335.37 649.08,-326.78 645.07,-332.52"/>
</g>
<!-- Node23 -->
<g id="node23" class="node">
<title>Node23</title>
<g id="a_node23"><a xlink:href="bus_8hpp.html" target="_top" xlink:title="This file defines an interface the CPU uses to access different memory&#45;mapped peripherals.">
<polygon fill="none" stroke="black" points="665.5,-274 665.5,-293 761.5,-293 761.5,-274 665.5,-274"/>
<text text-anchor="middle" x="713.5" y="-281" font-family="Helvetica,sans-Serif" font-size="10.00">src/core/bus.hpp</text>
</a>
</g>
</g>
<!-- Node4&#45;&gt;Node23 -->
<g id="edge28" class="edge">
<title>Node4&#45;&gt;Node23</title>
<path fill="none" stroke="midnightblue" d="M688.87,-326.63C695.63,-315.07 703.44,-301.71 708.42,-293.19"/>
<polygon fill="midnightblue" stroke="midnightblue" points="685.77,-325 683.75,-335.4 691.81,-328.53 685.77,-325"/>
</g>
<!-- Node30 -->
<g id="node30" class="node">
<title>Node30</title>
<g id="a_node30"><a xlink:href="cp15_8cpp.html" target="_top" xlink:title="This file implements coprocessor CP15.">
<polygon fill="none" stroke="black" points="779.5,-268.5 779.5,-298.5 901.5,-298.5 901.5,-268.5 779.5,-268.5"/>
<text text-anchor="start" x="787.5" y="-286.5" font-family="Helvetica,sans-Serif" font-size="10.00">src/core/coprocessors</text>
<text text-anchor="middle" x="840.5" y="-275.5" font-family="Helvetica,sans-Serif" font-size="10.00">/cp15/cp15.cpp</text>
</a>
</g>
</g>
<!-- Node4&#45;&gt;Node30 -->
<g id="edge45" class="edge">
<title>Node4&#45;&gt;Node30</title>
<path fill="none" stroke="midnightblue" d="M720.73,-331.68C747.19,-321.26 780.13,-308.28 804.77,-298.58"/>
<polygon fill="midnightblue" stroke="midnightblue" points="719.32,-328.47 711.3,-335.4 721.89,-334.99 719.32,-328.47"/>
</g>
<!-- Node31 -->
<g id="node31" class="node">
<title>Node31</title>
<g id="a_node31"><a xlink:href="cp15__window_8hpp.html" target="_top" xlink:title="This file defines a window that displays data (information) related to coprocessor 15.">
<polygon fill="none" stroke="black" points="974,-268.5 974,-298.5 1095,-298.5 1095,-268.5 974,-268.5"/>
<text text-anchor="start" x="982" y="-286.5" font-family="Helvetica,sans-Serif" font-size="10.00">src/gui/windows/cp15</text>
<text text-anchor="middle" x="1034.5" y="-275.5" font-family="Helvetica,sans-Serif" font-size="10.00">_window.hpp</text>
</a>
</g>
</g>
<!-- Node4&#45;&gt;Node31 -->
<g id="edge47" class="edge">
<title>Node4&#45;&gt;Node31</title>
<path fill="none" stroke="midnightblue" d="M746.58,-334.83C831.06,-318.8 917.47,-303.99 973.79,-294.54"/>
<polygon fill="midnightblue" stroke="midnightblue" points="745.73,-331.43 736.56,-336.73 747.04,-338.3 745.73,-331.43"/>
</g>
<!-- Node6 -->
<g id="node6" class="node">
<title>Node6</title>
<g id="a_node6"><a xlink:href="core_8cpp.html" target="_top" xlink:title="This file implements the CCPU_Core class defined in core.hpp.">
<polygon fill="none" stroke="black" points="165,-67.5 165,-97.5 278,-97.5 278,-67.5 165,-67.5"/>
<text text-anchor="start" x="173" y="-85.5" font-family="Helvetica,sans-Serif" font-size="10.00">src/core/arm1176jzf</text>
<text text-anchor="middle" x="221.5" y="-74.5" font-family="Helvetica,sans-Serif" font-size="10.00">_s/core.cpp</text>
</a>
</g>
</g>
<!-- Node5&#45;&gt;Node6 -->
<g id="edge5" class="edge">
<title>Node5&#45;&gt;Node6</title>
<path fill="none" stroke="midnightblue" d="M589.97,-134.74C588.47,-134.49 586.97,-134.24 585.5,-134 453.81,-112.64 419.02,-120.34 287.5,-98 284.49,-97.49 281.42,-96.93 278.31,-96.34"/>
<polygon fill="midnightblue" stroke="midnightblue" points="589.54,-138.22 599.99,-136.53 590.76,-131.33 589.54,-138.22"/>
</g>
<!-- Node7 -->
<g id="node7" class="node">
<title>Node7</title>
<g id="a_node7"><a xlink:href="coprocessor_8cpp.html" target="_top" xlink:title="This file implements the common functionality of a general interface of a coprocessor.">
<polygon fill="none" stroke="black" points="296.5,-67.5 296.5,-97.5 418.5,-97.5 418.5,-67.5 296.5,-67.5"/>
<text text-anchor="start" x="304.5" y="-85.5" font-family="Helvetica,sans-Serif" font-size="10.00">src/core/coprocessors</text>
<text text-anchor="middle" x="357.5" y="-74.5" font-family="Helvetica,sans-Serif" font-size="10.00">/coprocessor.cpp</text>
</a>
</g>
</g>
<!-- Node5&#45;&gt;Node7 -->
<g id="edge6" class="edge">
<title>Node5&#45;&gt;Node7</title>
<path fill="none" stroke="midnightblue" d="M589.93,-134.03C538.74,-122.9 468.56,-107.64 418.75,-96.81"/>
<polygon fill="midnightblue" stroke="midnightblue" points="589.39,-137.49 599.91,-136.2 590.88,-130.65 589.39,-137.49"/>
</g>
<!-- Node8 -->
<g id="node8" class="node">
<title>Node8</title>
<g id="a_node8"><a xlink:href="cp10_8cpp.html" target="_top" xlink:title="This file implements coprocessor CP10 (single&#45;precision FPU).">
<polygon fill="none" stroke="black" points="744.5,-67.5 744.5,-97.5 866.5,-97.5 866.5,-67.5 744.5,-67.5"/>
<text text-anchor="start" x="752.5" y="-85.5" font-family="Helvetica,sans-Serif" font-size="10.00">src/core/coprocessors</text>
<text text-anchor="middle" x="805.5" y="-74.5" font-family="Helvetica,sans-Serif" font-size="10.00">/cp10/cp10.cpp</text>
</a>
</g>
</g>
<!-- Node5&#45;&gt;Node8 -->
<g id="edge7" class="edge">
<title>Node5&#45;&gt;Node8</title>
<path fill="none" stroke="midnightblue" d="M698.29,-130.27C722.02,-119.92 751.28,-107.15 773.23,-97.58"/>
<polygon fill="midnightblue" stroke="midnightblue" points="696.6,-127.19 688.83,-134.4 699.4,-133.61 696.6,-127.19"/>
</g>
<!-- Node5&#45;&gt;Node9 -->
<g id="edge8" class="edge">
<title>Node5&#45;&gt;Node9</title>
<path fill="none" stroke="midnightblue" d="M589.42,-134.58C588.1,-134.38 586.8,-134.19 585.5,-134 395.66,-106.77 344.57,-130.15 155.5,-98 146.69,-96.5 137.24,-94.29 128.65,-92.05"/>
<polygon fill="midnightblue" stroke="midnightblue" points="589.2,-138.09 599.64,-136.27 590.34,-131.19 589.2,-138.09"/>
</g>
<!-- Node13 -->
<g id="node13" class="node">
<title>Node13</title>
<g id="a_node13"><a xlink:href="control__window_8hpp.html" target="_top" xlink:title="This file defines a window that allows the user to control CPU execution.">
<polygon fill="none" stroke="black" points="437,-67.5 437,-97.5 568,-97.5 568,-67.5 437,-67.5"/>
<text text-anchor="start" x="445" y="-85.5" font-family="Helvetica,sans-Serif" font-size="10.00">src/gui/windows/control</text>
<text text-anchor="middle" x="502.5" y="-74.5" font-family="Helvetica,sans-Serif" font-size="10.00">_window.hpp</text>
</a>
</g>
</g>
<!-- Node5&#45;&gt;Node13 -->
<g id="edge12" class="edge">
<title>Node5&#45;&gt;Node13</title>
<path fill="none" stroke="midnightblue" d="M613.63,-130.41C589.05,-120.03 558.64,-107.2 535.85,-97.58"/>
<polygon fill="midnightblue" stroke="midnightblue" points="612.51,-133.73 623.08,-134.4 615.23,-127.28 612.51,-133.73"/>
</g>
<!-- Node15 -->
<g id="node15" class="node">
<title>Node15</title>
<g id="a_node15"><a xlink:href="registers__window_8hpp.html" target="_top" xlink:title="This file defines a window that displays the contents of all CPU registers.">
<polygon fill="none" stroke="black" points="586.5,-67.5 586.5,-97.5 726.5,-97.5 726.5,-67.5 586.5,-67.5"/>
<text text-anchor="start" x="594.5" y="-85.5" font-family="Helvetica,sans-Serif" font-size="10.00">src/gui/windows/registers</text>
<text text-anchor="middle" x="656.5" y="-74.5" font-family="Helvetica,sans-Serif" font-size="10.00">_window.hpp</text>
</a>
</g>
</g>
<!-- Node5&#45;&gt;Node15 -->
<g id="edge15" class="edge">
<title>Node5&#45;&gt;Node15</title>
<path fill="none" stroke="midnightblue" d="M656.5,-124.11C656.5,-115.15 656.5,-105.32 656.5,-97.58"/>
<polygon fill="midnightblue" stroke="midnightblue" points="653,-124.4 656.5,-134.4 660,-124.4 653,-124.4"/>
</g>
<!-- Node17 -->
<g id="node17" class="node">
<title>Node17</title>
<g id="a_node17"><a xlink:href="source__code__window_8hpp.html" target="_top" xlink:title="This file defines a window that displays loaded ELF files (disassembled instructions of the source co...">
<polygon fill="none" stroke="black" points="1194.5,-67.5 1194.5,-97.5 1324.5,-97.5 1324.5,-67.5 1194.5,-67.5"/>
<text text-anchor="start" x="1202.5" y="-85.5" font-family="Helvetica,sans-Serif" font-size="10.00">src/gui/windows/source</text>
<text text-anchor="middle" x="1259.5" y="-74.5" font-family="Helvetica,sans-Serif" font-size="10.00">_code_window.hpp</text>
</a>
</g>
</g>
<!-- Node5&#45;&gt;Node17 -->
<g id="edge18" class="edge">
<title>Node5&#45;&gt;Node17</title>
<path fill="none" stroke="midnightblue" d="M723.27,-134.91C725.37,-134.59 727.45,-134.28 729.5,-134 930.88,-106.15 984.08,-125.59 1185.5,-98 1188.35,-97.61 1191.26,-97.18 1194.2,-96.72"/>
<polygon fill="midnightblue" stroke="midnightblue" points="722.68,-131.46 713.38,-136.53 723.81,-138.37 722.68,-131.46"/>
</g>
<!-- Node19 -->
<g id="node19" class="node">
<title>Node19</title>
<g id="a_node19"><a xlink:href="top__bar__menu_8hpp.html" target="_top" xlink:title=" ">
<polygon fill="none" stroke="black" points="1063,-67.5 1063,-97.5 1176,-97.5 1176,-67.5 1063,-67.5"/>
<text text-anchor="start" x="1071" y="-85.5" font-family="Helvetica,sans-Serif" font-size="10.00">src/gui/windows/top</text>
<text text-anchor="middle" x="1119.5" y="-74.5" font-family="Helvetica,sans-Serif" font-size="10.00">_bar_menu.hpp</text>
</a>
</g>
</g>
<!-- Node5&#45;&gt;Node19 -->
<g id="edge21" class="edge">
<title>Node5&#45;&gt;Node19</title>
<path fill="none" stroke="midnightblue" d="M722.88,-135.11C725.11,-134.72 727.32,-134.35 729.5,-134 855.96,-113.51 888.5,-114.85 1015.5,-98 1030.86,-95.96 1047.49,-93.68 1062.84,-91.54"/>
<polygon fill="midnightblue" stroke="midnightblue" points="722.25,-131.66 713.02,-136.86 723.48,-138.56 722.25,-131.66"/>
</g>
<!-- Node10 -->
<g id="node10" class="node">
<title>Node10</title>
<g id="a_node10"><a xlink:href="soc_8cpp.html" target="_top" xlink:title=" ">
<polygon fill="none" stroke="black" points="0,-6 0,-25 95,-25 95,-6 0,-6"/>
<text text-anchor="middle" x="47.5" y="-13" font-family="Helvetica,sans-Serif" font-size="10.00">src/core/soc.cpp</text>
</a>
</g>
</g>
<!-- Node9&#45;&gt;Node10 -->
<g id="edge9" class="edge">
<title>Node9&#45;&gt;Node10</title>
<path fill="none" stroke="midnightblue" d="M86.12,-64.77C75.98,-52.1 62.46,-35.2 54.4,-25.13"/>
<polygon fill="midnightblue" stroke="midnightblue" points="83.51,-67.11 92.49,-72.73 88.97,-62.74 83.51,-67.11"/>
</g>
<!-- Node11 -->
<g id="node11" class="node">
<title>Node11</title>
<g id="a_node11"><a xlink:href="gui_8cpp.html" target="_top" xlink:title="This file implements the main GUI entry function that takes care of creating and rendering all window...">
<polygon fill="none" stroke="black" points="930,-6 930,-25 1017,-25 1017,-6 930,-6"/>
<text text-anchor="middle" x="973.5" y="-13" font-family="Helvetica,sans-Serif" font-size="10.00">src/gui/gui.cpp</text>
</a>
</g>
</g>
<!-- Node9&#45;&gt;Node11 -->
<g id="edge10" class="edge">
<title>Node9&#45;&gt;Node11</title>
<path fill="none" stroke="midnightblue" d="M137.56,-70.53C143.52,-69.13 149.65,-67.89 155.5,-67 492.48,-16.01 585,-85.11 921.5,-31 930.01,-29.63 939.12,-27.37 947.3,-25.04"/>
<polygon fill="midnightblue" stroke="midnightblue" points="136.61,-67.16 127.75,-72.97 138.3,-73.95 136.61,-67.16"/>
</g>
<!-- Node12 -->
<g id="node12" class="node">
<title>Node12</title>
<g id="a_node12"><a xlink:href="main_8cpp.html" target="_top" xlink:title="This file defines and implements the main function of the application.">
<polygon fill="none" stroke="black" points="113,-6 113,-25 192,-25 192,-6 113,-6"/>
<text text-anchor="middle" x="152.5" y="-13" font-family="Helvetica,sans-Serif" font-size="10.00">src/main.cpp</text>
</a>
</g>
</g>
<!-- Node9&#45;&gt;Node12 -->
<g id="edge11" class="edge">
<title>Node9&#45;&gt;Node12</title>
<path fill="none" stroke="midnightblue" d="M113.14,-64.77C123.47,-52.1 137.25,-35.2 145.47,-25.13"/>
<polygon fill="midnightblue" stroke="midnightblue" points="110.25,-62.77 106.65,-72.73 115.68,-67.2 110.25,-62.77"/>
</g>
<!-- Node13&#45;&gt;Node11 -->
<g id="edge13" class="edge">
<title>Node13&#45;&gt;Node11</title>
<path fill="none" stroke="midnightblue" d="M578.52,-66.95C731.36,-45.03 773.73,-59.13 921.5,-31 929.6,-29.46 938.28,-27.26 946.18,-25.05"/>
<polygon fill="midnightblue" stroke="midnightblue" points="577.68,-63.53 568.29,-68.45 578.7,-70.46 577.68,-63.53"/>
</g>
<!-- Node14 -->
<g id="node14" class="node">
<title>Node14</title>
<g id="a_node14"><a xlink:href="control__window_8cpp.html" target="_top" xlink:title="This file implements a window that allows the user to control CPU execution.">
<polygon fill="none" stroke="black" points="437,-0.5 437,-30.5 568,-30.5 568,-0.5 437,-0.5"/>
<text text-anchor="start" x="445" y="-18.5" font-family="Helvetica,sans-Serif" font-size="10.00">src/gui/windows/control</text>
<text text-anchor="middle" x="502.5" y="-7.5" font-family="Helvetica,sans-Serif" font-size="10.00">_window.cpp</text>
</a>
</g>
</g>
<!-- Node13&#45;&gt;Node14 -->
<g id="edge14" class="edge">
<title>Node13&#45;&gt;Node14</title>
<path fill="none" stroke="midnightblue" d="M502.5,-57.11C502.5,-48.15 502.5,-38.32 502.5,-30.58"/>
<polygon fill="midnightblue" stroke="midnightblue" points="499,-57.4 502.5,-67.4 506,-57.4 499,-57.4"/>
</g>
<!-- Node15&#45;&gt;Node11 -->
<g id="edge16" class="edge">
<title>Node15&#45;&gt;Node11</title>
<path fill="none" stroke="midnightblue" d="M736.56,-66.59C807.85,-53.26 903.59,-35.2 921.5,-31 928.98,-29.25 937.01,-27.13 944.46,-25.06"/>
<polygon fill="midnightblue" stroke="midnightblue" points="735.86,-63.16 726.67,-68.44 737.15,-70.04 735.86,-63.16"/>
</g>
<!-- Node16 -->
<g id="node16" class="node">
<title>Node16</title>
<g id="a_node16"><a xlink:href="registers__window_8cpp.html" target="_top" xlink:title="This file implements a window that displays the contents of all CPU registers.">
<polygon fill="none" stroke="black" points="586.5,-0.5 586.5,-30.5 726.5,-30.5 726.5,-0.5 586.5,-0.5"/>
<text text-anchor="start" x="594.5" y="-18.5" font-family="Helvetica,sans-Serif" font-size="10.00">src/gui/windows/registers</text>
<text text-anchor="middle" x="656.5" y="-7.5" font-family="Helvetica,sans-Serif" font-size="10.00">_window.cpp</text>
</a>
</g>
</g>
<!-- Node15&#45;&gt;Node16 -->
<g id="edge17" class="edge">
<title>Node15&#45;&gt;Node16</title>
<path fill="none" stroke="midnightblue" d="M656.5,-57.11C656.5,-48.15 656.5,-38.32 656.5,-30.58"/>
<polygon fill="midnightblue" stroke="midnightblue" points="653,-57.4 656.5,-67.4 660,-57.4 653,-57.4"/>
</g>
<!-- Node17&#45;&gt;Node11 -->
<g id="edge19" class="edge">
<title>Node17&#45;&gt;Node11</title>
<path fill="none" stroke="midnightblue" d="M1187.9,-65.23C1131.75,-52.47 1055.83,-35.21 1011.03,-25.03"/>
<polygon fill="midnightblue" stroke="midnightblue" points="1187.27,-68.67 1197.79,-67.48 1188.82,-61.85 1187.27,-68.67"/>
</g>
<!-- Node18 -->
<g id="node18" class="node">
<title>Node18</title>
<g id="a_node18"><a xlink:href="source__code__window_8cpp.html" target="_top" xlink:title="This file implements a window that displays loaded ELF files (disassembled instructions of the source...">
<polygon fill="none" stroke="black" points="1312.5,-0.5 1312.5,-30.5 1442.5,-30.5 1442.5,-0.5 1312.5,-0.5"/>
<text text-anchor="start" x="1320.5" y="-18.5" font-family="Helvetica,sans-Serif" font-size="10.00">src/gui/windows/source</text>
<text text-anchor="middle" x="1377.5" y="-7.5" font-family="Helvetica,sans-Serif" font-size="10.00">_code_window.cpp</text>
</a>
</g>
</g>
<!-- Node17&#45;&gt;Node18 -->
<g id="edge20" class="edge">
<title>Node17&#45;&gt;Node18</title>
<path fill="none" stroke="midnightblue" d="M1294.11,-62.44C1312.62,-52.24 1335.02,-39.9 1351.95,-30.58"/>
<polygon fill="midnightblue" stroke="midnightblue" points="1292.17,-59.51 1285.1,-67.4 1295.55,-65.64 1292.17,-59.51"/>
</g>
<!-- Node19&#45;&gt;Node11 -->
<g id="edge22" class="edge">
<title>Node19&#45;&gt;Node11</title>
<path fill="none" stroke="midnightblue" d="M1078.61,-63.3C1050.45,-50.76 1014.34,-34.68 992.61,-25.01"/>
<polygon fill="midnightblue" stroke="midnightblue" points="1077.26,-66.53 1087.82,-67.4 1080.11,-60.13 1077.26,-66.53"/>
</g>
<!-- Node20 -->
<g id="node20" class="node">
<title>Node20</title>
<g id="a_node20"><a xlink:href="top__bar__menu_8cpp.html" target="_top" xlink:title=" ">
<polygon fill="none" stroke="black" points="1063,-0.5 1063,-30.5 1176,-30.5 1176,-0.5 1063,-0.5"/>
<text text-anchor="start" x="1071" y="-18.5" font-family="Helvetica,sans-Serif" font-size="10.00">src/gui/windows/top</text>
<text text-anchor="middle" x="1119.5" y="-7.5" font-family="Helvetica,sans-Serif" font-size="10.00">_bar_menu.cpp</text>
</a>
</g>
</g>
<!-- Node19&#45;&gt;Node20 -->
<g id="edge23" class="edge">
<title>Node19&#45;&gt;Node20</title>
<path fill="none" stroke="midnightblue" d="M1119.5,-57.11C1119.5,-48.15 1119.5,-38.32 1119.5,-30.58"/>
<polygon fill="midnightblue" stroke="midnightblue" points="1116,-57.4 1119.5,-67.4 1123,-57.4 1116,-57.4"/>
</g>
<!-- Node21&#45;&gt;Node5 -->
<g id="edge25" class="edge">
<title>Node21&#45;&gt;Node5</title>
<path fill="none" stroke="midnightblue" d="M532.74,-197.82C560.07,-187.37 594.19,-174.32 619.68,-164.58"/>
<polygon fill="midnightblue" stroke="midnightblue" points="531.48,-194.56 523.39,-201.4 533.98,-201.09 531.48,-194.56"/>
</g>
<!-- Node21&#45;&gt;Node9 -->
<g id="edge27" class="edge">
<title>Node21&#45;&gt;Node9</title>
<path fill="none" stroke="midnightblue" d="M435.89,-198.24C352.12,-169.67 187.64,-113.56 124.76,-92.12"/>
<polygon fill="midnightblue" stroke="midnightblue" points="434.86,-201.58 445.45,-201.5 437.12,-194.96 434.86,-201.58"/>
</g>
<!-- Node22 -->
<g id="node22" class="node">
<title>Node22</title>
<g id="a_node22"><a xlink:href="mmu_8cpp.html" target="_top" xlink:title="This file implements the MMU (memory management unit) of the CPU.">
<polygon fill="none" stroke="black" points="430,-134.5 430,-164.5 543,-164.5 543,-134.5 430,-134.5"/>
<text text-anchor="start" x="438" y="-152.5" font-family="Helvetica,sans-Serif" font-size="10.00">src/core/arm1176jzf</text>
<text text-anchor="middle" x="486.5" y="-141.5" font-family="Helvetica,sans-Serif" font-size="10.00">_s/mmu/mmu.cpp</text>
</a>
</g>
</g>
<!-- Node21&#45;&gt;Node22 -->
<g id="edge26" class="edge">
<title>Node21&#45;&gt;Node22</title>
<path fill="none" stroke="midnightblue" d="M486.5,-191.11C486.5,-182.15 486.5,-172.32 486.5,-164.58"/>
<polygon fill="midnightblue" stroke="midnightblue" points="483,-191.4 486.5,-201.4 490,-191.4 483,-191.4"/>
</g>
<!-- Node23&#45;&gt;Node5 -->
<g id="edge29" class="edge">
<title>Node23&#45;&gt;Node5</title>
<path fill="none" stroke="midnightblue" d="M705.77,-264.6C694.33,-238.11 673.13,-189.01 662.67,-164.78"/>
<polygon fill="midnightblue" stroke="midnightblue" points="702.58,-266.05 709.76,-273.84 709.01,-263.27 702.58,-266.05"/>
</g>
<!-- Node23&#45;&gt;Node9 -->
<g id="edge38" class="edge">
<title>Node23&#45;&gt;Node9</title>
<path fill="none" stroke="midnightblue" d="M697.13,-266.36C659.57,-229.52 569.1,-141.78 551.5,-134 389.87,-62.54 329.62,-128.25 155.5,-98 146.69,-96.47 137.24,-94.25 128.66,-92.01"/>
<polygon fill="midnightblue" stroke="midnightblue" points="695.1,-269.28 704.68,-273.79 700.01,-264.29 695.1,-269.28"/>
</g>
<!-- Node23&#45;&gt;Node19 -->
<g id="edge39" class="edge">
<title>Node23&#45;&gt;Node19</title>
<path fill="none" stroke="midnightblue" d="M748.63,-270.63C775.75,-261.11 814.02,-246.92 846.5,-232 941.86,-188.2 1049.91,-125.24 1096.31,-97.51"/>
<polygon fill="midnightblue" stroke="midnightblue" points="747.47,-267.33 739.17,-273.91 749.76,-273.94 747.47,-267.33"/>
</g>
<!-- Node23&#45;&gt;Node21 -->
<g id="edge30" class="edge">
<title>Node23&#45;&gt;Node21</title>
<path fill="none" stroke="midnightblue" d="M673.54,-271.06C635.05,-260.04 576.76,-243.34 535.49,-231.53"/>
<polygon fill="midnightblue" stroke="midnightblue" points="672.78,-274.48 683.36,-273.87 674.71,-267.75 672.78,-274.48"/>
</g>
<!-- Node24 -->
<g id="node24" class="node">
<title>Node24</title>
<g id="a_node24"><a xlink:href="bus_8cpp.html" target="_top" xlink:title="This file implements the interface defined in bus.hpp.">
<polygon fill="none" stroke="black" points="742,-207 742,-226 837,-226 837,-207 742,-207"/>
<text text-anchor="middle" x="789.5" y="-214" font-family="Helvetica,sans-Serif" font-size="10.00">src/core/bus.cpp</text>
</a>
</g>
</g>
<!-- Node23&#45;&gt;Node24 -->
<g id="edge31" class="edge">
<title>Node23&#45;&gt;Node24</title>
<path fill="none" stroke="midnightblue" d="M731.37,-267.21C746.35,-254.41 767.18,-236.59 779.41,-226.13"/>
<polygon fill="midnightblue" stroke="midnightblue" points="729.07,-264.57 723.75,-273.73 733.62,-269.89 729.07,-264.57"/>
</g>
<!-- Node25 -->
<g id="node25" class="node">
<title>Node25</title>
<g id="a_node25"><a xlink:href="cp10_8hpp.html" target="_top" xlink:title="This file defines coprocessor CP10 (single&#45;precision FPU).">
<polygon fill="none" stroke="black" points="738.5,-134.5 738.5,-164.5 860.5,-164.5 860.5,-134.5 738.5,-134.5"/>
<text text-anchor="start" x="746.5" y="-152.5" font-family="Helvetica,sans-Serif" font-size="10.00">src/core/coprocessors</text>
<text text-anchor="middle" x="799.5" y="-141.5" font-family="Helvetica,sans-Serif" font-size="10.00">/cp10/cp10.hpp</text>
</a>
</g>
</g>
<!-- Node23&#45;&gt;Node25 -->
<g id="edge32" class="edge">
<title>Node23&#45;&gt;Node25</title>
<path fill="none" stroke="midnightblue" d="M714.55,-263.84C716.31,-246.35 721.01,-220.1 733.5,-201 743.45,-185.79 759.59,-173.31 773.42,-164.57"/>
<polygon fill="midnightblue" stroke="midnightblue" points="711.06,-263.67 713.77,-273.91 718.04,-264.21 711.06,-263.67"/>
</g>
<!-- Node28 -->
<g id="node28" class="node">
<title>Node28</title>
<g id="a_node28"><a xlink:href="elf__loader_8hpp.html" target="_top" xlink:title="This file defines the functionality of an ELF loader.">
<polygon fill="none" stroke="black" points="1196,-140 1196,-159 1323,-159 1323,-140 1196,-140"/>
<text text-anchor="middle" x="1259.5" y="-147" font-family="Helvetica,sans-Serif" font-size="10.00">src/utils/elf_loader.hpp</text>
</a>
</g>
</g>
<!-- Node23&#45;&gt;Node28 -->
<g id="edge40" class="edge">
<title>Node23&#45;&gt;Node28</title>
<path fill="none" stroke="midnightblue" d="M755.73,-271.45C760.7,-270.24 765.71,-269.07 770.5,-268 853.97,-249.45 876.18,-251.22 959.5,-232 1059.95,-208.83 1177.5,-174.86 1230.73,-159.11"/>
<polygon fill="midnightblue" stroke="midnightblue" points="754.53,-268.14 745.67,-273.95 756.22,-274.94 754.53,-268.14"/>
</g>
<!-- Node25&#45;&gt;Node8 -->
<g id="edge33" class="edge">
<title>Node25&#45;&gt;Node8</title>
<path fill="none" stroke="midnightblue" d="M801.72,-124.4C802.56,-115.37 803.48,-105.41 804.2,-97.58"/>
<polygon fill="midnightblue" stroke="midnightblue" points="798.24,-124.12 800.8,-134.4 805.21,-124.76 798.24,-124.12"/>
</g>
<!-- Node25&#45;&gt;Node9 -->
<g id="edge34" class="edge">
<title>Node25&#45;&gt;Node9</title>
<path fill="none" stroke="midnightblue" d="M728.25,-134.89C725.97,-134.58 723.72,-134.28 721.5,-134 471.36,-102.91 404.41,-137.77 155.5,-98 146.48,-96.56 136.79,-94.31 128.06,-92.01"/>
<polygon fill="midnightblue" stroke="midnightblue" points="727.89,-138.38 738.29,-136.4 728.93,-131.46 727.89,-138.38"/>
</g>
<!-- Node26 -->
<g id="node26" class="node">
<title>Node26</title>
<g id="a_node26"><a xlink:href="cp10__window_8hpp.html" target="_top" xlink:title="This file defines a window that displays data (information) related to coprocessor 10 (FPU).">
<polygon fill="none" stroke="black" points="885,-67.5 885,-97.5 1006,-97.5 1006,-67.5 885,-67.5"/>
<text text-anchor="start" x="893" y="-85.5" font-family="Helvetica,sans-Serif" font-size="10.00">src/gui/windows/cp10</text>
<text text-anchor="middle" x="945.5" y="-74.5" font-family="Helvetica,sans-Serif" font-size="10.00">_window.hpp</text>
</a>
</g>
</g>
<!-- Node25&#45;&gt;Node26 -->
<g id="edge35" class="edge">
<title>Node25&#45;&gt;Node26</title>
<path fill="none" stroke="midnightblue" d="M840.45,-130.27C863.7,-119.92 892.37,-107.15 913.88,-97.58"/>
<polygon fill="midnightblue" stroke="midnightblue" points="838.89,-127.13 831.18,-134.4 841.74,-133.53 838.89,-127.13"/>
</g>
<!-- Node26&#45;&gt;Node11 -->
<g id="edge36" class="edge">
<title>Node26&#45;&gt;Node11</title>
<path fill="none" stroke="midnightblue" d="M955.65,-57.94C960.56,-46.54 966.16,-33.55 969.75,-25.19"/>
<polygon fill="midnightblue" stroke="midnightblue" points="952.32,-56.83 951.58,-67.4 958.75,-59.6 952.32,-56.83"/>
</g>
<!-- Node27 -->
<g id="node27" class="node">
<title>Node27</title>
<g id="a_node27"><a xlink:href="cp10__window_8cpp.html" target="_top" xlink:title="This file implements a window that displays data (information) related to coprocessor 10 (FPU).">
<polygon fill="none" stroke="black" points="791,-0.5 791,-30.5 912,-30.5 912,-0.5 791,-0.5"/>
<text text-anchor="start" x="799" y="-18.5" font-family="Helvetica,sans-Serif" font-size="10.00">src/gui/windows/cp10</text>
<text text-anchor="middle" x="851.5" y="-7.5" font-family="Helvetica,sans-Serif" font-size="10.00">_window.cpp</text>
</a>
</g>
</g>
<!-- Node26&#45;&gt;Node27 -->
<g id="edge37" class="edge">
<title>Node26&#45;&gt;Node27</title>
<path fill="none" stroke="midnightblue" d="M916.51,-61.45C902.05,-51.45 884.91,-39.6 871.86,-30.58"/>
<polygon fill="midnightblue" stroke="midnightblue" points="914.89,-64.59 925.1,-67.4 918.87,-58.83 914.89,-64.59"/>
</g>
<!-- Node28&#45;&gt;Node17 -->
<g id="edge42" class="edge">
<title>Node28&#45;&gt;Node17</title>
<path fill="none" stroke="midnightblue" d="M1259.5,-129.41C1259.5,-119.22 1259.5,-106.9 1259.5,-97.59"/>
<polygon fill="midnightblue" stroke="midnightblue" points="1256,-129.73 1259.5,-139.73 1263,-129.73 1256,-129.73"/>
</g>
<!-- Node28&#45;&gt;Node18 -->
<g id="edge41" class="edge">
<title>Node28&#45;&gt;Node18</title>
<path fill="none" stroke="midnightblue" d="M1332.95,-141.22C1389,-133.97 1459.54,-120.59 1477.5,-98 1486.07,-87.21 1484.72,-78.73 1477.5,-67 1466.9,-49.77 1448.41,-38.21 1430.19,-30.55"/>
<polygon fill="midnightblue" stroke="midnightblue" points="1332.52,-137.75 1323.03,-142.46 1333.39,-144.69 1332.52,-137.75"/>
</g>
<!-- Node28&#45;&gt;Node19 -->
<g id="edge43" class="edge">
<title>Node28&#45;&gt;Node19</title>
<path fill="none" stroke="midnightblue" d="M1231.76,-135.62C1208.08,-124.63 1174.08,-108.84 1149.71,-97.53"/>
<polygon fill="midnightblue" stroke="midnightblue" points="1230.37,-138.83 1240.91,-139.87 1233.31,-132.48 1230.37,-138.83"/>
</g>
<!-- Node29 -->
<g id="node29" class="node">
<title>Node29</title>
<g id="a_node29"><a xlink:href="elf__loader_8cpp.html" target="_top" xlink:title="This file implements the functionality of an ELF loader defined in elf_loader.hpp.">
<polygon fill="none" stroke="black" points="1342.5,-73 1342.5,-92 1468.5,-92 1468.5,-73 1342.5,-73"/>
<text text-anchor="middle" x="1405.5" y="-80" font-family="Helvetica,sans-Serif" font-size="10.00">src/utils/elf_loader.cpp</text>
</a>
</g>
</g>
<!-- Node28&#45;&gt;Node29 -->
<g id="edge44" class="edge">
<title>Node28&#45;&gt;Node29</title>
<path fill="none" stroke="midnightblue" d="M1288.07,-135.78C1316.98,-122.91 1360.9,-103.35 1386.03,-92.17"/>
<polygon fill="midnightblue" stroke="midnightblue" points="1286.6,-132.6 1278.89,-139.87 1289.45,-139 1286.6,-132.6"/>
</g>
<!-- Node31&#45;&gt;Node11 -->
<g id="edge48" class="edge">
<title>Node31&#45;&gt;Node11</title>
<path fill="none" stroke="midnightblue" d="M1036.92,-258.34C1040.05,-217.29 1042.3,-132.05 1015.5,-67 1008.46,-49.92 993.51,-34.23 983.48,-25.02"/>
<polygon fill="midnightblue" stroke="midnightblue" points="1033.42,-258.21 1036.06,-268.47 1040.39,-258.8 1033.42,-258.21"/>
</g>
<!-- Node32 -->
<g id="node32" class="node">
<title>Node32</title>
<g id="a_node32"><a xlink:href="cp15__window_8cpp.html" target="_top" xlink:title="This file implements a window that displays data (information) related to coprocessor 15.">
<polygon fill="none" stroke="black" points="1101,-201.5 1101,-231.5 1222,-231.5 1222,-201.5 1101,-201.5"/>
<text text-anchor="start" x="1109" y="-219.5" font-family="Helvetica,sans-Serif" font-size="10.00">src/gui/windows/cp15</text>
<text text-anchor="middle" x="1161.5" y="-208.5" font-family="Helvetica,sans-Serif" font-size="10.00">_window.cpp</text>
</a>
</g>
</g>
<!-- Node31&#45;&gt;Node32 -->
<g id="edge49" class="edge">
<title>Node31&#45;&gt;Node32</title>
<path fill="none" stroke="midnightblue" d="M1071.2,-263.71C1091.23,-253.46 1115.62,-240.98 1134,-231.58"/>
<polygon fill="midnightblue" stroke="midnightblue" points="1069.36,-260.72 1062.06,-268.4 1072.55,-266.96 1069.36,-260.72"/>
</g>
<!-- Node33&#45;&gt;Node4 -->
<g id="edge52" class="edge">
<title>Node33&#45;&gt;Node4</title>
<path fill="none" stroke="midnightblue" d="M613.95,-396.45C627.64,-386.45 643.87,-374.6 656.23,-365.58"/>
<polygon fill="midnightblue" stroke="midnightblue" points="611.82,-393.67 605.81,-402.4 615.95,-399.32 611.82,-393.67"/>
</g>
<!-- Node34 -->
<g id="node34" class="node">
<title>Node34</title>
<g id="a_node34"><a xlink:href="c2_8cpp.html" target="_top" xlink:title="This file implements the primary register C2 of coprocessor CP15.">
<polygon fill="none" stroke="black" points="474.5,-335.5 474.5,-365.5 596.5,-365.5 596.5,-335.5 474.5,-335.5"/>
<text text-anchor="start" x="482.5" y="-353.5" font-family="Helvetica,sans-Serif" font-size="10.00">src/core/coprocessors</text>
<text text-anchor="middle" x="535.5" y="-342.5" font-family="Helvetica,sans-Serif" font-size="10.00">/cp15/c2.cpp</text>
</a>
</g>
</g>
<!-- Node33&#45;&gt;Node34 -->
<g id="edge51" class="edge">
<title>Node33&#45;&gt;Node34</title>
<path fill="none" stroke="midnightblue" d="M569.2,-394.45C561.71,-384.9 553.16,-374 546.54,-365.58"/>
<polygon fill="midnightblue" stroke="midnightblue" points="566.51,-396.69 575.43,-402.4 572.01,-392.37 566.51,-396.69"/>
</g>
<!-- Node35&#45;&gt;Node4 -->
<g id="edge55" class="edge">
<title>Node35&#45;&gt;Node4</title>
<path fill="none" stroke="midnightblue" d="M737.05,-396.45C723.36,-386.45 707.13,-374.6 694.77,-365.58"/>
<polygon fill="midnightblue" stroke="midnightblue" points="735.05,-399.32 745.19,-402.4 739.18,-393.67 735.05,-399.32"/>
</g>
<!-- Node36 -->
<g id="node36" class="node">
<title>Node36</title>
<g id="a_node36"><a xlink:href="c3_8cpp.html" target="_top" xlink:title="This file implements the primary register C3 of coprocessor CP15.">
<polygon fill="none" stroke="black" points="754.5,-335.5 754.5,-365.5 876.5,-365.5 876.5,-335.5 754.5,-335.5"/>
<text text-anchor="start" x="762.5" y="-353.5" font-family="Helvetica,sans-Serif" font-size="10.00">src/core/coprocessors</text>
<text text-anchor="middle" x="815.5" y="-342.5" font-family="Helvetica,sans-Serif" font-size="10.00">/cp15/c3.cpp</text>
</a>
</g>
</g>
<!-- Node35&#45;&gt;Node36 -->
<g id="edge54" class="edge">
<title>Node35&#45;&gt;Node36</title>
<path fill="none" stroke="midnightblue" d="M781.8,-394.45C789.29,-384.9 797.84,-374 804.46,-365.58"/>
<polygon fill="midnightblue" stroke="midnightblue" points="778.99,-392.37 775.57,-402.4 784.49,-396.69 778.99,-392.37"/>
</g>
<!-- Node37&#45;&gt;Node4 -->
<g id="edge58" class="edge">
<title>Node37&#45;&gt;Node4</title>
<path fill="none" stroke="midnightblue" d="M845.36,-399.71C808.1,-389.14 760.53,-375.63 725.21,-365.61"/>
<polygon fill="midnightblue" stroke="midnightblue" points="844.52,-403.11 855.09,-402.48 846.43,-396.38 844.52,-403.11"/>
</g>
<!-- Node38 -->
<g id="node38" class="node">
<title>Node38</title>
<g id="a_node38"><a xlink:href="c7_8cpp.html" target="_top" xlink:title="This file implements the primary register C7 of coprocessor CP15.">
<polygon fill="none" stroke="black" points="894.5,-335.5 894.5,-365.5 1016.5,-365.5 1016.5,-335.5 894.5,-335.5"/>
<text text-anchor="start" x="902.5" y="-353.5" font-family="Helvetica,sans-Serif" font-size="10.00">src/core/coprocessors</text>
<text text-anchor="middle" x="955.5" y="-342.5" font-family="Helvetica,sans-Serif" font-size="10.00">/cp15/c7.cpp</text>
</a>
</g>
</g>
<!-- Node37&#45;&gt;Node38 -->
<g id="edge57" class="edge">
<title>Node37&#45;&gt;Node38</title>
<path fill="none" stroke="midnightblue" d="M921.8,-394.45C929.29,-384.9 937.84,-374 944.46,-365.58"/>
<polygon fill="midnightblue" stroke="midnightblue" points="918.99,-392.37 915.57,-402.4 924.49,-396.69 918.99,-392.37"/>
</g>
<!-- Node39&#45;&gt;Node4 -->
<g id="edge61" class="edge">
<title>Node39&#45;&gt;Node4</title>
<path fill="none" stroke="midnightblue" d="M973.35,-401.85C871.42,-383.58 843.69,-383.88 745.5,-366 742.57,-365.47 739.57,-364.91 736.55,-364.33"/>
<polygon fill="midnightblue" stroke="midnightblue" points="972.99,-405.34 983.45,-403.67 974.23,-398.45 972.99,-405.34"/>
</g>
<!-- Node40 -->
<g id="node40" class="node">
<title>Node40</title>
<g id="a_node40"><a xlink:href="c8_8cpp.html" target="_top" xlink:title="This file implements the primary register C8 of coprocessor CP15.">
<polygon fill="none" stroke="black" points="1034.5,-335.5 1034.5,-365.5 1156.5,-365.5 1156.5,-335.5 1034.5,-335.5"/>
<text text-anchor="start" x="1042.5" y="-353.5" font-family="Helvetica,sans-Serif" font-size="10.00">src/core/coprocessors</text>
<text text-anchor="middle" x="1095.5" y="-342.5" font-family="Helvetica,sans-Serif" font-size="10.00">/cp15/c8.cpp</text>
</a>
</g>
</g>
<!-- Node39&#45;&gt;Node40 -->
<g id="edge60" class="edge">
<title>Node39&#45;&gt;Node40</title>
<path fill="none" stroke="midnightblue" d="M1061.8,-394.45C1069.29,-384.9 1077.84,-374 1084.46,-365.58"/>
<polygon fill="midnightblue" stroke="midnightblue" points="1058.99,-392.37 1055.57,-402.4 1064.49,-396.69 1058.99,-392.37"/>
</g>
</g>
</svg>
