<?xml version="1.0" encoding="UTF-8" standalone="no"?>
<!DOCTYPE svg PUBLIC "-//W3C//DTD SVG 1.1//EN"
 "http://www.w3.org/Graphics/SVG/1.1/DTD/svg11.dtd">
<!-- Generated by graphviz version 2.43.0 (0)
 -->
<!-- Title: src/gui/windows/peripherals/ram_window.hpp Pages: 1 -->
<svg width="409pt" height="159pt"
 viewBox="0.00 0.00 408.65 159.00" xmlns="http://www.w3.org/2000/svg" xmlns:xlink="http://www.w3.org/1999/xlink">
<g id="graph0" class="graph" transform="scale(1 1) rotate(0) translate(4 155)">
<title>src/gui/windows/peripherals/ram_window.hpp</title>
<!-- Node1 -->
<g id="Node000001" class="node">
<title>Node1</title>
<g id="a_Node000001"><a xlink:title="This file defines a window that visualizes the contents of the RAM.">
<polygon fill="#999999" stroke="#666666" points="224.65,-151 72.65,-151 72.65,-121 224.65,-121 224.65,-151"/>
<text text-anchor="start" x="80.65" y="-139" font-family="Helvetica,sans-Serif" font-size="10.00">src/gui/windows/peripherals</text>
<text text-anchor="middle" x="148.65" y="-128" font-family="Helvetica,sans-Serif" font-size="10.00">/ram_window.hpp</text>
</a>
</g>
</g>
<!-- Node2 -->
<g id="Node000002" class="node">
<title>Node2</title>
<g id="a_Node000002"><a xlink:title=" ">
<polygon fill="#e0e0e0" stroke="#999999" points="142.65,-19 58.65,-19 58.65,0 142.65,0 142.65,-19"/>
<text text-anchor="middle" x="100.65" y="-7" font-family="Helvetica,sans-Serif" font-size="10.00">imgui/imgui.h</text>
</a>
</g>
</g>
<!-- Node1&#45;&gt;Node2 -->
<g id="edge1_Node000001_Node000002" class="edge">
<title>Node1&#45;&gt;Node2</title>
<g id="a_edge1_Node000001_Node000002"><a xlink:title=" ">
<path fill="none" stroke="#63b8ff" d="M72.52,-126.24C47.03,-119.26 21.17,-106.88 5.65,-85 -2.07,-74.13 -1.51,-66.25 5.65,-55 15.53,-39.45 32.44,-29.25 49.27,-22.58"/>
<polygon fill="#63b8ff" stroke="#63b8ff" points="50.88,-25.72 59.12,-19.06 48.52,-19.13 50.88,-25.72"/>
</a>
</g>
</g>
<!-- Node3 -->
<g id="Node000003" class="node">
<title>Node3</title>
<g id="a_Node000003"><a xlink:title=" ">
<polygon fill="#e0e0e0" stroke="#999999" points="150.65,-85 14.65,-85 14.65,-55 150.65,-55 150.65,-85"/>
<text text-anchor="start" x="22.65" y="-73" font-family="Helvetica,sans-Serif" font-size="10.00">imgui_memory_editor</text>
<text text-anchor="middle" x="82.65" y="-62" font-family="Helvetica,sans-Serif" font-size="10.00">/imgui_memory_editor.h</text>
</a>
</g>
</g>
<!-- Node1&#45;&gt;Node3 -->
<g id="edge2_Node000001_Node000003" class="edge">
<title>Node1&#45;&gt;Node3</title>
<g id="a_edge2_Node000001_Node000003"><a xlink:title=" ">
<path fill="none" stroke="#63b8ff" d="M134,-120.8C125.37,-112.43 114.28,-101.68 104.62,-92.31"/>
<polygon fill="#63b8ff" stroke="#63b8ff" points="106.87,-89.61 97.25,-85.16 102,-94.64 106.87,-89.61"/>
</a>
</g>
</g>
<!-- Node4 -->
<g id="Node000004" class="node">
<title>Node4</title>
<g id="a_Node000004"><a xlink:href="window_8hpp.html" target="_top" xlink:title="This file defines an interface for all windows that will be rendered by the application.">
<polygon fill="white" stroke="#666666" points="260.65,-79.5 168.65,-79.5 168.65,-60.5 260.65,-60.5 260.65,-79.5"/>
<text text-anchor="middle" x="214.65" y="-67.5" font-family="Helvetica,sans-Serif" font-size="10.00">../../window.hpp</text>
</a>
</g>
</g>
<!-- Node1&#45;&gt;Node4 -->
<g id="edge3_Node000001_Node000004" class="edge">
<title>Node1&#45;&gt;Node4</title>
<g id="a_edge3_Node000001_Node000004"><a xlink:title=" ">
<path fill="none" stroke="#63b8ff" d="M163.29,-120.8C173.58,-110.82 187.36,-97.46 198.06,-87.09"/>
<polygon fill="#63b8ff" stroke="#63b8ff" points="200.78,-89.32 205.53,-79.84 195.91,-84.29 200.78,-89.32"/>
</a>
</g>
</g>
<!-- Node5 -->
<g id="Node000005" class="node">
<title>Node5</title>
<g id="a_Node000005"><a xlink:href="ram_8hpp.html" target="_top" xlink:title="This file defines the RAM (random access memory) used in BCM2835.">
<polygon fill="white" stroke="#666666" points="400.65,-85 278.65,-85 278.65,-55 400.65,-55 400.65,-85"/>
<text text-anchor="start" x="286.65" y="-73" font-family="Helvetica,sans-Serif" font-size="10.00">../../../core/peripherals</text>
<text text-anchor="middle" x="339.65" y="-62" font-family="Helvetica,sans-Serif" font-size="10.00">/ram.hpp</text>
</a>
</g>
</g>
<!-- Node1&#45;&gt;Node5 -->
<g id="edge5_Node000001_Node000005" class="edge">
<title>Node1&#45;&gt;Node5</title>
<g id="a_edge5_Node000001_Node000005"><a xlink:title=" ">
<path fill="none" stroke="#63b8ff" d="M190.56,-120.95C219.3,-111.33 257.6,-98.49 288.19,-88.24"/>
<polygon fill="#63b8ff" stroke="#63b8ff" points="289.46,-91.51 297.83,-85.01 287.24,-84.87 289.46,-91.51"/>
</a>
</g>
</g>
<!-- Node4&#45;&gt;Node2 -->
<g id="edge4_Node000004_Node000002" class="edge">
<title>Node4&#45;&gt;Node2</title>
<g id="a_edge4_Node000004_Node000002"><a xlink:title=" ">
<path fill="none" stroke="#63b8ff" d="M197.83,-60.37C179.05,-50.73 148.44,-35.03 126.59,-23.81"/>
<polygon fill="#63b8ff" stroke="#63b8ff" points="128.03,-20.62 117.54,-19.17 124.84,-26.85 128.03,-20.62"/>
</a>
</g>
</g>
<!-- Node6 -->
<g id="Node000006" class="node">
<title>Node6</title>
<g id="a_Node000006"><a xlink:href="peripheral_8hpp.html" target="_top" xlink:title="This file defines an interface for a memory&#45;mapped peripheral.">
<polygon fill="white" stroke="#666666" points="383.15,-19 296.15,-19 296.15,0 383.15,0 383.15,-19"/>
<text text-anchor="middle" x="339.65" y="-7" font-family="Helvetica,sans-Serif" font-size="10.00">peripheral.hpp</text>
</a>
</g>
</g>
<!-- Node5&#45;&gt;Node6 -->
<g id="edge6_Node000005_Node000006" class="edge">
<title>Node5&#45;&gt;Node6</title>
<g id="a_edge6_Node000005_Node000006"><a xlink:title=" ">
<path fill="none" stroke="#63b8ff" d="M339.65,-54.84C339.65,-47.21 339.65,-37.7 339.65,-29.45"/>
<polygon fill="#63b8ff" stroke="#63b8ff" points="343.15,-29.27 339.65,-19.27 336.15,-29.27 343.15,-29.27"/>
</a>
</g>
</g>
</g>
</svg>
