<?xml version="1.0" encoding="UTF-8" standalone="no"?>
<!DOCTYPE svg PUBLIC "-//W3C//DTD SVG 1.1//EN"
 "http://www.w3.org/Graphics/SVG/1.1/DTD/svg11.dtd">
<!-- Generated by graphviz version 2.43.0 (0)
 -->
<!-- Title: src/gui/windows/peripherals/ram_window.cpp Pages: 1 -->
<svg width="409pt" height="214pt"
 viewBox="0.00 0.00 408.74 214.00" xmlns="http://www.w3.org/2000/svg" xmlns:xlink="http://www.w3.org/1999/xlink">
<g id="graph0" class="graph" transform="scale(1 1) rotate(0) translate(4 210)">
<title>src/gui/windows/peripherals/ram_window.cpp</title>
<!-- Node1 -->
<g id="Node000001" class="node">
<title>Node1</title>
<g id="a_Node000001"><a xlink:title="This file implements a window that visualizes the contents of the RAM.">
<polygon fill="#999999" stroke="#666666" points="224.74,-206 72.74,-206 72.74,-176 224.74,-176 224.74,-206"/>
<text text-anchor="start" x="80.74" y="-194" font-family="Helvetica,sans-Serif" font-size="10.00">src/gui/windows/peripherals</text>
<text text-anchor="middle" x="148.74" y="-183" font-family="Helvetica,sans-Serif" font-size="10.00">/ram_window.cpp</text>
</a>
</g>
</g>
<!-- Node2 -->
<g id="Node000002" class="node">
<title>Node2</title>
<g id="a_Node000002"><a xlink:href="ram__window_8hpp.html" target="_top" xlink:title="This file defines a window that visualizes the contents of the RAM.">
<polygon fill="white" stroke="#666666" points="198.24,-140 99.24,-140 99.24,-121 198.24,-121 198.24,-140"/>
<text text-anchor="middle" x="148.74" y="-128" font-family="Helvetica,sans-Serif" font-size="10.00">ram_window.hpp</text>
</a>
</g>
</g>
<!-- Node1&#45;&gt;Node2 -->
<g id="edge1_Node000001_Node000002" class="edge">
<title>Node1&#45;&gt;Node2</title>
<g id="a_edge1_Node000001_Node000002"><a xlink:title=" ">
<path fill="none" stroke="#63b8ff" d="M148.74,-175.84C148.74,-168.21 148.74,-158.7 148.74,-150.45"/>
<polygon fill="#63b8ff" stroke="#63b8ff" points="152.24,-150.27 148.74,-140.27 145.24,-150.27 152.24,-150.27"/>
</a>
</g>
</g>
<!-- Node3 -->
<g id="Node000003" class="node">
<title>Node3</title>
<g id="a_Node000003"><a xlink:title=" ">
<polygon fill="#e0e0e0" stroke="#999999" points="142.74,-19 58.74,-19 58.74,0 142.74,0 142.74,-19"/>
<text text-anchor="middle" x="100.74" y="-7" font-family="Helvetica,sans-Serif" font-size="10.00">imgui/imgui.h</text>
</a>
</g>
</g>
<!-- Node2&#45;&gt;Node3 -->
<g id="edge2_Node000002_Node000003" class="edge">
<title>Node2&#45;&gt;Node3</title>
<g id="a_edge2_Node000002_Node000003"><a xlink:title=" ">
<path fill="none" stroke="#63b8ff" d="M99.16,-128.27C66.9,-124.57 27.01,-113.9 5.74,-85 -2.16,-74.26 -1.41,-66.25 5.74,-55 15.63,-39.45 32.53,-29.25 49.36,-22.58"/>
<polygon fill="#63b8ff" stroke="#63b8ff" points="50.98,-25.72 59.21,-19.06 48.62,-19.13 50.98,-25.72"/>
</a>
</g>
</g>
<!-- Node4 -->
<g id="Node000004" class="node">
<title>Node4</title>
<g id="a_Node000004"><a xlink:title=" ">
<polygon fill="#e0e0e0" stroke="#999999" points="150.74,-85 14.74,-85 14.74,-55 150.74,-55 150.74,-85"/>
<text text-anchor="start" x="22.74" y="-73" font-family="Helvetica,sans-Serif" font-size="10.00">imgui_memory_editor</text>
<text text-anchor="middle" x="82.74" y="-62" font-family="Helvetica,sans-Serif" font-size="10.00">/imgui_memory_editor.h</text>
</a>
</g>
</g>
<!-- Node2&#45;&gt;Node4 -->
<g id="edge3_Node000002_Node000004" class="edge">
<title>Node2&#45;&gt;Node4</title>
<g id="a_edge3_Node000002_Node000004"><a xlink:title=" ">
<path fill="none" stroke="#63b8ff" d="M139,-120.87C130.38,-113.22 117.44,-101.76 106.15,-91.75"/>
<polygon fill="#63b8ff" stroke="#63b8ff" points="108.47,-89.13 98.66,-85.11 103.83,-94.37 108.47,-89.13"/>
</a>
</g>
</g>
<!-- Node5 -->
<g id="Node000005" class="node">
<title>Node5</title>
<g id="a_Node000005"><a xlink:href="window_8hpp.html" target="_top" xlink:title="This file defines an interface for all windows that will be rendered by the application.">
<polygon fill="white" stroke="#666666" points="260.74,-79.5 168.74,-79.5 168.74,-60.5 260.74,-60.5 260.74,-79.5"/>
<text text-anchor="middle" x="214.74" y="-67.5" font-family="Helvetica,sans-Serif" font-size="10.00">../../window.hpp</text>
</a>
</g>
</g>
<!-- Node2&#45;&gt;Node5 -->
<g id="edge4_Node000002_Node000005" class="edge">
<title>Node2&#45;&gt;Node5</title>
<g id="a_edge4_Node000002_Node000005"><a xlink:title=" ">
<path fill="none" stroke="#63b8ff" d="M158.48,-120.87C168.72,-111.8 185.03,-97.34 197.46,-86.32"/>
<polygon fill="#63b8ff" stroke="#63b8ff" points="199.8,-88.92 204.96,-79.67 195.16,-83.68 199.8,-88.92"/>
</a>
</g>
</g>
<!-- Node6 -->
<g id="Node000006" class="node">
<title>Node6</title>
<g id="a_Node000006"><a xlink:href="ram_8hpp.html" target="_top" xlink:title="This file defines the RAM (random access memory) used in BCM2835.">
<polygon fill="white" stroke="#666666" points="400.74,-85 278.74,-85 278.74,-55 400.74,-55 400.74,-85"/>
<text text-anchor="start" x="286.74" y="-73" font-family="Helvetica,sans-Serif" font-size="10.00">../../../core/peripherals</text>
<text text-anchor="middle" x="339.74" y="-62" font-family="Helvetica,sans-Serif" font-size="10.00">/ram.hpp</text>
</a>
</g>
</g>
<!-- Node2&#45;&gt;Node6 -->
<g id="edge6_Node000002_Node000006" class="edge">
<title>Node2&#45;&gt;Node6</title>
<g id="a_edge6_Node000002_Node000006"><a xlink:title=" ">
<path fill="none" stroke="#63b8ff" d="M176.51,-120.99C204.6,-112.39 248.79,-98.86 284.11,-88.04"/>
<polygon fill="#63b8ff" stroke="#63b8ff" points="285.28,-91.34 293.82,-85.06 283.23,-84.65 285.28,-91.34"/>
</a>
</g>
</g>
<!-- Node5&#45;&gt;Node3 -->
<g id="edge5_Node000005_Node000003" class="edge">
<title>Node5&#45;&gt;Node3</title>
<g id="a_edge5_Node000005_Node000003"><a xlink:title=" ">
<path fill="none" stroke="#63b8ff" d="M197.92,-60.37C179.14,-50.73 148.54,-35.03 126.69,-23.81"/>
<polygon fill="#63b8ff" stroke="#63b8ff" points="128.13,-20.62 117.63,-19.17 124.93,-26.85 128.13,-20.62"/>
</a>
</g>
</g>
<!-- Node7 -->
<g id="Node000007" class="node">
<title>Node7</title>
<g id="a_Node000007"><a xlink:href="peripheral_8hpp.html" target="_top" xlink:title="This file defines an interface for a memory&#45;mapped peripheral.">
<polygon fill="white" stroke="#666666" points="383.24,-19 296.24,-19 296.24,0 383.24,0 383.24,-19"/>
<text text-anchor="middle" x="339.74" y="-7" font-family="Helvetica,sans-Serif" font-size="10.00">peripheral.hpp</text>
</a>
</g>
</g>
<!-- Node6&#45;&gt;Node7 -->
<g id="edge7_Node000006_Node000007" class="edge">
<title>Node6&#45;&gt;Node7</title>
<g id="a_edge7_Node000006_Node000007"><a xlink:title=" ">
<path fill="none" stroke="#63b8ff" d="M339.74,-54.84C339.74,-47.21 339.74,-37.7 339.74,-29.45"/>
<polygon fill="#63b8ff" stroke="#63b8ff" points="343.24,-29.27 339.74,-19.27 336.24,-29.27 343.24,-29.27"/>
</a>
</g>
</g>
</g>
</svg>
