<?xml version="1.0" encoding="UTF-8" standalone="no"?>
<!DOCTYPE svg PUBLIC "-//W3C//DTD SVG 1.1//EN"
 "http://www.w3.org/Graphics/SVG/1.1/DTD/svg11.dtd">
<!-- Generated by graphviz version 2.43.0 (0)
 -->
<!-- Title: src/core/peripherals/ram.hpp Pages: 1 -->
<svg width="502pt" height="170pt"
 viewBox="0.00 0.00 501.50 170.00" xmlns="http://www.w3.org/2000/svg" xmlns:xlink="http://www.w3.org/1999/xlink">
<g id="graph0" class="graph" transform="scale(1 1) rotate(0) translate(4 166)">
<title>src/core/peripherals/ram.hpp</title>
<!-- Node1 -->
<g id="Node000001" class="node">
<title>Node1</title>
<g id="a_Node000001"><a xlink:title="This file defines the RAM (random access memory) used in BCM2835.">
<polygon fill="#999999" stroke="#666666" points="235,-162 122,-162 122,-132 235,-132 235,-162"/>
<text text-anchor="start" x="130" y="-150" font-family="Helvetica,sans-Serif" font-size="10.00">src/core/peripherals</text>
<text text-anchor="middle" x="178.5" y="-139" font-family="Helvetica,sans-Serif" font-size="10.00">/ram.hpp</text>
</a>
</g>
</g>
<!-- Node2 -->
<g id="Node000002" class="node">
<title>Node2</title>
<g id="a_Node000002"><a xlink:href="ram_8cpp.html" target="_top" xlink:title="This file implements the RAM (random access memory) used in BCM2835.">
<polygon fill="white" stroke="#666666" points="113,-96 0,-96 0,-66 113,-66 113,-96"/>
<text text-anchor="start" x="8" y="-84" font-family="Helvetica,sans-Serif" font-size="10.00">src/core/peripherals</text>
<text text-anchor="middle" x="56.5" y="-73" font-family="Helvetica,sans-Serif" font-size="10.00">/ram.cpp</text>
</a>
</g>
</g>
<!-- Node1&#45;&gt;Node2 -->
<g id="edge1_Node000001_Node000002" class="edge">
<title>Node1&#45;&gt;Node2</title>
<g id="a_edge1_Node000001_Node000002"><a xlink:title=" ">
<path fill="none" stroke="#63b8ff" d="M142.74,-127.24C123.7,-117.25 100.68,-105.18 83.21,-96.01"/>
<polygon fill="#63b8ff" stroke="#63b8ff" points="141.25,-130.41 151.73,-131.95 144.5,-124.21 141.25,-130.41"/>
</a>
</g>
</g>
<!-- Node3 -->
<g id="Node000003" class="node">
<title>Node3</title>
<g id="a_Node000003"><a xlink:href="soc_8hpp.html" target="_top" xlink:title=" ">
<polygon fill="white" stroke="#666666" points="226,-90.5 131,-90.5 131,-71.5 226,-71.5 226,-90.5"/>
<text text-anchor="middle" x="178.5" y="-78.5" font-family="Helvetica,sans-Serif" font-size="10.00">src/core/soc.hpp</text>
</a>
</g>
</g>
<!-- Node1&#45;&gt;Node3 -->
<g id="edge2_Node000001_Node000003" class="edge">
<title>Node1&#45;&gt;Node3</title>
<g id="a_edge2_Node000001_Node000003"><a xlink:title=" ">
<path fill="none" stroke="#63b8ff" d="M178.5,-121.6C178.5,-110.8 178.5,-98.78 178.5,-90.84"/>
<polygon fill="#63b8ff" stroke="#63b8ff" points="175,-121.8 178.5,-131.8 182,-121.8 175,-121.8"/>
</a>
</g>
</g>
<!-- Node7 -->
<g id="Node000007" class="node">
<title>Node7</title>
<g id="a_Node000007"><a xlink:href="ram__window_8hpp.html" target="_top" xlink:title="This file defines a window that visualizes the contents of the RAM.">
<polygon fill="white" stroke="#666666" points="396.5,-96 244.5,-96 244.5,-66 396.5,-66 396.5,-96"/>
<text text-anchor="start" x="252.5" y="-84" font-family="Helvetica,sans-Serif" font-size="10.00">src/gui/windows/peripherals</text>
<text text-anchor="middle" x="320.5" y="-73" font-family="Helvetica,sans-Serif" font-size="10.00">/ram_window.hpp</text>
</a>
</g>
</g>
<!-- Node1&#45;&gt;Node7 -->
<g id="edge6_Node000001_Node000007" class="edge">
<title>Node1&#45;&gt;Node7</title>
<g id="a_edge6_Node000001_Node000007"><a xlink:title=" ">
<path fill="none" stroke="#63b8ff" d="M218.92,-127.78C241.3,-117.69 268.71,-105.34 289.41,-96.01"/>
<polygon fill="#63b8ff" stroke="#63b8ff" points="217.34,-124.65 209.66,-131.95 220.22,-131.04 217.34,-124.65"/>
</a>
</g>
</g>
<!-- Node4 -->
<g id="Node000004" class="node">
<title>Node4</title>
<g id="a_Node000004"><a xlink:href="soc_8cpp.html" target="_top" xlink:title=" ">
<polygon fill="white" stroke="#666666" points="121,-24.5 26,-24.5 26,-5.5 121,-5.5 121,-24.5"/>
<text text-anchor="middle" x="73.5" y="-12.5" font-family="Helvetica,sans-Serif" font-size="10.00">src/core/soc.cpp</text>
</a>
</g>
</g>
<!-- Node3&#45;&gt;Node4 -->
<g id="edge3_Node000003_Node000004" class="edge">
<title>Node3&#45;&gt;Node4</title>
<g id="a_edge3_Node000003_Node000004"><a xlink:title=" ">
<path fill="none" stroke="#63b8ff" d="M155.56,-66.02C134.91,-53.43 105.2,-35.32 87.77,-24.7"/>
<polygon fill="#63b8ff" stroke="#63b8ff" points="153.98,-69.15 164.34,-71.37 157.62,-63.18 153.98,-69.15"/>
</a>
</g>
</g>
<!-- Node5 -->
<g id="Node000005" class="node">
<title>Node5</title>
<g id="a_Node000005"><a xlink:href="gui_8cpp.html" target="_top" xlink:title="This file implements the main GUI entry function that takes care of creating and rendering all window...">
<polygon fill="white" stroke="#666666" points="323,-24.5 236,-24.5 236,-5.5 323,-5.5 323,-24.5"/>
<text text-anchor="middle" x="279.5" y="-12.5" font-family="Helvetica,sans-Serif" font-size="10.00">src/gui/gui.cpp</text>
</a>
</g>
</g>
<!-- Node3&#45;&gt;Node5 -->
<g id="edge4_Node000003_Node000005" class="edge">
<title>Node3&#45;&gt;Node5</title>
<g id="a_edge4_Node000003_Node000005"><a xlink:title=" ">
<path fill="none" stroke="#63b8ff" d="M200.83,-65.85C220.69,-53.27 249.08,-35.28 265.77,-24.7"/>
<polygon fill="#63b8ff" stroke="#63b8ff" points="198.69,-63.06 192.12,-71.37 202.44,-68.97 198.69,-63.06"/>
</a>
</g>
</g>
<!-- Node6 -->
<g id="Node000006" class="node">
<title>Node6</title>
<g id="a_Node000006"><a xlink:href="main_8cpp.html" target="_top" xlink:title="This file defines and implements the main function of the application.">
<polygon fill="white" stroke="#666666" points="218,-24.5 139,-24.5 139,-5.5 218,-5.5 218,-24.5"/>
<text text-anchor="middle" x="178.5" y="-12.5" font-family="Helvetica,sans-Serif" font-size="10.00">src/main.cpp</text>
</a>
</g>
</g>
<!-- Node3&#45;&gt;Node6 -->
<g id="edge5_Node000003_Node000006" class="edge">
<title>Node3&#45;&gt;Node6</title>
<g id="a_edge5_Node000003_Node000006"><a xlink:title=" ">
<path fill="none" stroke="#63b8ff" d="M178.5,-61.08C178.5,-49.13 178.5,-34.22 178.5,-24.91"/>
<polygon fill="#63b8ff" stroke="#63b8ff" points="175,-61.37 178.5,-71.37 182,-61.37 175,-61.37"/>
</a>
</g>
</g>
<!-- Node7&#45;&gt;Node5 -->
<g id="edge7_Node000007_Node000005" class="edge">
<title>Node7&#45;&gt;Node5</title>
<g id="a_edge7_Node000007_Node000005"><a xlink:title=" ">
<path fill="none" stroke="#63b8ff" d="M305.94,-57.28C298.76,-46.07 290.51,-33.19 285.17,-24.84"/>
<polygon fill="#63b8ff" stroke="#63b8ff" points="303.06,-59.26 311.4,-65.8 308.95,-55.49 303.06,-59.26"/>
</a>
</g>
</g>
<!-- Node8 -->
<g id="Node000008" class="node">
<title>Node8</title>
<g id="a_Node000008"><a xlink:href="ram__window_8cpp.html" target="_top" xlink:title="This file implements a window that visualizes the contents of the RAM.">
<polygon fill="white" stroke="#666666" points="493.5,-30 341.5,-30 341.5,0 493.5,0 493.5,-30"/>
<text text-anchor="start" x="349.5" y="-18" font-family="Helvetica,sans-Serif" font-size="10.00">src/gui/windows/peripherals</text>
<text text-anchor="middle" x="417.5" y="-7" font-family="Helvetica,sans-Serif" font-size="10.00">/ram_window.cpp</text>
</a>
</g>
</g>
<!-- Node7&#45;&gt;Node8 -->
<g id="edge8_Node000007_Node000008" class="edge">
<title>Node7&#45;&gt;Node8</title>
<g id="a_edge8_Node000007_Node000008"><a xlink:title=" ">
<path fill="none" stroke="#63b8ff" d="M350.77,-60.03C365.45,-50.34 382.73,-38.94 396.03,-30.16"/>
<polygon fill="#63b8ff" stroke="#63b8ff" points="348.45,-57.37 342.03,-65.8 352.3,-63.21 348.45,-57.37"/>
</a>
</g>
</g>
</g>
</svg>
