<?xml version="1.0" encoding="UTF-8" standalone="no"?>
<!DOCTYPE svg PUBLIC "-//W3C//DTD SVG 1.1//EN"
 "http://www.w3.org/Graphics/SVG/1.1/DTD/svg11.dtd">
<!-- Generated by graphviz version 2.43.0 (0)
 -->
<!-- Title: src/gui/windows/registers_window.hpp Pages: 1 -->
<svg width="254pt" height="104pt"
 viewBox="0.00 0.00 253.50 104.00" xmlns="http://www.w3.org/2000/svg" xmlns:xlink="http://www.w3.org/1999/xlink">
<g id="graph0" class="graph" transform="scale(1 1) rotate(0) translate(4 100)">
<title>src/gui/windows/registers_window.hpp</title>
<!-- Node1 -->
<g id="Node000001" class="node">
<title>Node1</title>
<g id="a_Node000001"><a xlink:title="This file defines a window that displays the contents of all CPU registers.">
<polygon fill="#999999" stroke="#666666" points="179.5,-96 39.5,-96 39.5,-66 179.5,-66 179.5,-96"/>
<text text-anchor="start" x="47.5" y="-84" font-family="Helvetica,sans-Serif" font-size="10.00">src/gui/windows/registers</text>
<text text-anchor="middle" x="109.5" y="-73" font-family="Helvetica,sans-Serif" font-size="10.00">_window.hpp</text>
</a>
</g>
</g>
<!-- Node2 -->
<g id="Node000002" class="node">
<title>Node2</title>
<g id="a_Node000002"><a xlink:href="gui_8cpp.html" target="_top" xlink:title="This file implements the main GUI entry function that takes care of creating and rendering all window...">
<polygon fill="white" stroke="#666666" points="87,-24.5 0,-24.5 0,-5.5 87,-5.5 87,-24.5"/>
<text text-anchor="middle" x="43.5" y="-12.5" font-family="Helvetica,sans-Serif" font-size="10.00">src/gui/gui.cpp</text>
</a>
</g>
</g>
<!-- Node1&#45;&gt;Node2 -->
<g id="edge1_Node000001_Node000002" class="edge">
<title>Node1&#45;&gt;Node2</title>
<g id="a_edge1_Node000001_Node000002"><a xlink:title=" ">
<path fill="none" stroke="#63b8ff" d="M87.44,-58.6C75.57,-47.1 61.57,-33.52 52.62,-24.84"/>
<polygon fill="#63b8ff" stroke="#63b8ff" points="85.24,-61.35 94.85,-65.8 90.11,-56.32 85.24,-61.35"/>
</a>
</g>
</g>
<!-- Node3 -->
<g id="Node000003" class="node">
<title>Node3</title>
<g id="a_Node000003"><a xlink:href="registers__window_8cpp.html" target="_top" xlink:title="This file implements a window that displays the contents of all CPU registers.">
<polygon fill="white" stroke="#666666" points="245.5,-30 105.5,-30 105.5,0 245.5,0 245.5,-30"/>
<text text-anchor="start" x="113.5" y="-18" font-family="Helvetica,sans-Serif" font-size="10.00">src/gui/windows/registers</text>
<text text-anchor="middle" x="175.5" y="-7" font-family="Helvetica,sans-Serif" font-size="10.00">_window.cpp</text>
</a>
</g>
</g>
<!-- Node1&#45;&gt;Node3 -->
<g id="edge2_Node000001_Node000003" class="edge">
<title>Node1&#45;&gt;Node3</title>
<g id="a_edge2_Node000001_Node000003"><a xlink:title=" ">
<path fill="none" stroke="#63b8ff" d="M131.52,-58.65C141.19,-49.27 152.27,-38.53 160.89,-30.16"/>
<polygon fill="#63b8ff" stroke="#63b8ff" points="128.89,-56.32 124.15,-65.8 133.76,-61.35 128.89,-56.32"/>
</a>
</g>
</g>
</g>
</svg>
