<?xml version="1.0" encoding="UTF-8" standalone="no"?>
<!DOCTYPE svg PUBLIC "-//W3C//DTD SVG 1.1//EN"
 "http://www.w3.org/Graphics/SVG/1.1/DTD/svg11.dtd">
<!-- Generated by graphviz version 2.43.0 (0)
 -->
<!-- Title: include/zero_mate/utils/singleton.hpp Pages: 1 -->
<svg width="1903pt" height="104pt"
 viewBox="0.00 0.00 1902.50 104.00" xmlns="http://www.w3.org/2000/svg" xmlns:xlink="http://www.w3.org/1999/xlink">
<g id="graph0" class="graph" transform="scale(1 1) rotate(0) translate(4 100)">
<title>include/zero_mate/utils/singleton.hpp</title>
<!-- Node1 -->
<g id="Node000001" class="node">
<title>Node1</title>
<g id="a_Node000001"><a xlink:title="This file defines and implements a generic class that is used to treat other classes as singletons.">
<polygon fill="#999999" stroke="#666666" points="1015,-96 884,-96 884,-66 1015,-66 1015,-96"/>
<text text-anchor="start" x="892" y="-84" font-family="Helvetica,sans-Serif" font-size="10.00">include/zero_mate/utils</text>
<text text-anchor="middle" x="949.5" y="-73" font-family="Helvetica,sans-Serif" font-size="10.00">/singleton.hpp</text>
</a>
</g>
</g>
<!-- Node2 -->
<g id="Node000002" class="node">
<title>Node2</title>
<g id="a_Node000002"><a xlink:href="context_8cpp.html" target="_top" xlink:title="This file implements the context (registers) of the CPU.">
<polygon fill="white" stroke="#666666" points="113,-30 0,-30 0,0 113,0 113,-30"/>
<text text-anchor="start" x="8" y="-18" font-family="Helvetica,sans-Serif" font-size="10.00">src/core/arm1176jzf</text>
<text text-anchor="middle" x="56.5" y="-7" font-family="Helvetica,sans-Serif" font-size="10.00">_s/context.cpp</text>
</a>
</g>
</g>
<!-- Node1&#45;&gt;Node2 -->
<g id="edge1_Node000001_Node000002" class="edge">
<title>Node1&#45;&gt;Node2</title>
<g id="a_edge1_Node000001_Node000002"><a xlink:title=" ">
<path fill="none" stroke="#63b8ff" d="M873.76,-79.26C727.62,-77 396.86,-67.75 121.5,-30 118.76,-29.62 115.95,-29.2 113.13,-28.73"/>
<polygon fill="#63b8ff" stroke="#63b8ff" points="873.91,-82.77 883.96,-79.42 874.01,-75.77 873.91,-82.77"/>
</a>
</g>
</g>
<!-- Node3 -->
<g id="Node000003" class="node">
<title>Node3</title>
<g id="a_Node000003"><a xlink:href="core_8cpp.html" target="_top" xlink:title="This file implements the CCPU_Core class defined in core.hpp.">
<polygon fill="white" stroke="#666666" points="244,-30 131,-30 131,0 244,0 244,-30"/>
<text text-anchor="start" x="139" y="-18" font-family="Helvetica,sans-Serif" font-size="10.00">src/core/arm1176jzf</text>
<text text-anchor="middle" x="187.5" y="-7" font-family="Helvetica,sans-Serif" font-size="10.00">_s/core.cpp</text>
</a>
</g>
</g>
<!-- Node1&#45;&gt;Node3 -->
<g id="edge2_Node000001_Node000003" class="edge">
<title>Node1&#45;&gt;Node3</title>
<g id="a_edge2_Node000001_Node000003"><a xlink:title=" ">
<path fill="none" stroke="#63b8ff" d="M873.83,-77.96C745.61,-73.76 477.74,-61.68 253.5,-30 250.48,-29.57 247.4,-29.09 244.29,-28.56"/>
<polygon fill="#63b8ff" stroke="#63b8ff" points="873.83,-81.47 883.93,-78.29 874.05,-74.47 873.83,-81.47"/>
</a>
</g>
</g>
<!-- Node4 -->
<g id="Node000004" class="node">
<title>Node4</title>
<g id="a_Node000004"><a xlink:href="cp10_8cpp.html" target="_top" xlink:title="This file implements coprocessor CP10 (single&#45;precision FPU).">
<polygon fill="white" stroke="#666666" points="384.5,-30 262.5,-30 262.5,0 384.5,0 384.5,-30"/>
<text text-anchor="start" x="270.5" y="-18" font-family="Helvetica,sans-Serif" font-size="10.00">src/core/coprocessors</text>
<text text-anchor="middle" x="323.5" y="-7" font-family="Helvetica,sans-Serif" font-size="10.00">/cp10/cp10.cpp</text>
</a>
</g>
</g>
<!-- Node1&#45;&gt;Node4 -->
<g id="edge3_Node000001_Node000004" class="edge">
<title>Node1&#45;&gt;Node4</title>
<g id="a_edge3_Node000001_Node000004"><a xlink:title=" ">
<path fill="none" stroke="#63b8ff" d="M873.67,-75.78C766.37,-69.21 564.25,-54.68 393.5,-30 390.56,-29.57 387.55,-29.11 384.52,-28.61"/>
<polygon fill="#63b8ff" stroke="#63b8ff" points="873.56,-79.28 883.76,-76.39 873.99,-72.29 873.56,-79.28"/>
</a>
</g>
</g>
<!-- Node5 -->
<g id="Node000005" class="node">
<title>Node5</title>
<g id="a_Node000005"><a xlink:href="cp15_8cpp.html" target="_top" xlink:title="This file implements coprocessor CP15.">
<polygon fill="white" stroke="#666666" points="524.5,-30 402.5,-30 402.5,0 524.5,0 524.5,-30"/>
<text text-anchor="start" x="410.5" y="-18" font-family="Helvetica,sans-Serif" font-size="10.00">src/core/coprocessors</text>
<text text-anchor="middle" x="463.5" y="-7" font-family="Helvetica,sans-Serif" font-size="10.00">/cp15/cp15.cpp</text>
</a>
</g>
</g>
<!-- Node1&#45;&gt;Node5 -->
<g id="edge4_Node000001_Node000005" class="edge">
<title>Node1&#45;&gt;Node5</title>
<g id="a_edge4_Node000001_Node000005"><a xlink:title=" ">
<path fill="none" stroke="#63b8ff" d="M873.55,-72.66C789.96,-64.17 651.76,-48.9 533.5,-30 530.56,-29.53 527.56,-29.03 524.53,-28.5"/>
<polygon fill="#63b8ff" stroke="#63b8ff" points="873.41,-76.17 883.71,-73.69 874.12,-69.2 873.41,-76.17"/>
</a>
</g>
</g>
<!-- Node6 -->
<g id="Node000006" class="node">
<title>Node6</title>
<g id="a_Node000006"><a xlink:href="primary__reg_8cpp.html" target="_top" xlink:title="This file implements a primary register interface of coprocessor CP15.">
<polygon fill="white" stroke="#666666" points="668,-30 543,-30 543,0 668,0 668,-30"/>
<text text-anchor="start" x="551" y="-18" font-family="Helvetica,sans-Serif" font-size="10.00">src/core/coprocessors</text>
<text text-anchor="middle" x="605.5" y="-7" font-family="Helvetica,sans-Serif" font-size="10.00">/cp15/primary_reg.cpp</text>
</a>
</g>
</g>
<!-- Node1&#45;&gt;Node6 -->
<g id="edge5_Node000001_Node000006" class="edge">
<title>Node1&#45;&gt;Node6</title>
<g id="a_edge5_Node000001_Node000006"><a xlink:title=" ">
<path fill="none" stroke="#63b8ff" d="M873.83,-66.42C819,-56.52 743.12,-42.67 676.5,-30 673.78,-29.48 671.01,-28.95 668.21,-28.41"/>
<polygon fill="#63b8ff" stroke="#63b8ff" points="873.35,-69.89 883.81,-68.23 874.59,-63.01 873.35,-69.89"/>
</a>
</g>
</g>
<!-- Node7 -->
<g id="Node000007" class="node">
<title>Node7</title>
<g id="a_Node000007"><a xlink:href="arm__timer_8cpp.html" target="_top" xlink:title="This file implements the ARM timer used in BCM2835 as defined in arm_timer.hpp.">
<polygon fill="white" stroke="#666666" points="799,-30 686,-30 686,0 799,0 799,-30"/>
<text text-anchor="start" x="694" y="-18" font-family="Helvetica,sans-Serif" font-size="10.00">src/core/peripherals</text>
<text text-anchor="middle" x="742.5" y="-7" font-family="Helvetica,sans-Serif" font-size="10.00">/arm_timer.cpp</text>
</a>
</g>
</g>
<!-- Node1&#45;&gt;Node7 -->
<g id="edge6_Node000001_Node000007" class="edge">
<title>Node1&#45;&gt;Node7</title>
<g id="a_edge6_Node000001_Node000007"><a xlink:title=" ">
<path fill="none" stroke="#63b8ff" d="M894.48,-62.99C861.17,-52.69 819.21,-39.72 787.82,-30.01"/>
<polygon fill="#63b8ff" stroke="#63b8ff" points="893.49,-66.34 904.07,-65.95 895.55,-59.66 893.49,-66.34"/>
</a>
</g>
</g>
<!-- Node8 -->
<g id="Node000008" class="node">
<title>Node8</title>
<g id="a_Node000008"><a xlink:href="auxiliary_8cpp.html" target="_top" xlink:title=" ">
<polygon fill="white" stroke="#666666" points="944,-30 817,-30 817,0 944,0 944,-30"/>
<text text-anchor="start" x="825" y="-18" font-family="Helvetica,sans-Serif" font-size="10.00">src/core/peripherals</text>
<text text-anchor="middle" x="880.5" y="-7" font-family="Helvetica,sans-Serif" font-size="10.00">/auxiliary/auxiliary.cpp</text>
</a>
</g>
</g>
<!-- Node1&#45;&gt;Node8 -->
<g id="edge7_Node000001_Node000008" class="edge">
<title>Node1&#45;&gt;Node8</title>
<g id="a_edge7_Node000001_Node000008"><a xlink:title=" ">
<path fill="none" stroke="#63b8ff" d="M926.78,-58.92C916.6,-49.49 904.87,-38.61 895.77,-30.16"/>
<polygon fill="#63b8ff" stroke="#63b8ff" points="924.47,-61.56 934.19,-65.8 929.24,-56.43 924.47,-61.56"/>
</a>
</g>
</g>
<!-- Node9 -->
<g id="Node000009" class="node">
<title>Node9</title>
<g id="a_Node000009"><a xlink:href="bsc_8cpp.html" target="_top" xlink:title="This file implements the BSC peripheral used in BCM2835.">
<polygon fill="white" stroke="#666666" points="1075,-30 962,-30 962,0 1075,0 1075,-30"/>
<text text-anchor="start" x="970" y="-18" font-family="Helvetica,sans-Serif" font-size="10.00">src/core/peripherals</text>
<text text-anchor="middle" x="1018.5" y="-7" font-family="Helvetica,sans-Serif" font-size="10.00">/bsc.cpp</text>
</a>
</g>
</g>
<!-- Node1&#45;&gt;Node9 -->
<g id="edge8_Node000001_Node000009" class="edge">
<title>Node1&#45;&gt;Node9</title>
<g id="a_edge8_Node000001_Node000009"><a xlink:title=" ">
<path fill="none" stroke="#63b8ff" d="M972.22,-58.92C982.4,-49.49 994.13,-38.61 1003.23,-30.16"/>
<polygon fill="#63b8ff" stroke="#63b8ff" points="969.76,-56.43 964.81,-65.8 974.53,-61.56 969.76,-56.43"/>
</a>
</g>
</g>
<!-- Node10 -->
<g id="Node000010" class="node">
<title>Node10</title>
<g id="a_Node000010"><a xlink:href="gpio_8cpp.html" target="_top" xlink:title="This file implements the GPIO controller used in BCM2835 (defined in gpio.hpp).">
<polygon fill="white" stroke="#666666" points="1206,-30 1093,-30 1093,0 1206,0 1206,-30"/>
<text text-anchor="start" x="1101" y="-18" font-family="Helvetica,sans-Serif" font-size="10.00">src/core/peripherals</text>
<text text-anchor="middle" x="1149.5" y="-7" font-family="Helvetica,sans-Serif" font-size="10.00">/gpio.cpp</text>
</a>
</g>
</g>
<!-- Node1&#45;&gt;Node10 -->
<g id="edge9_Node000001_Node000010" class="edge">
<title>Node1&#45;&gt;Node10</title>
<g id="a_edge9_Node000001_Node000010"><a xlink:title=" ">
<path fill="none" stroke="#63b8ff" d="M1003.07,-62.86C1035.19,-52.58 1075.51,-39.68 1105.71,-30.01"/>
<polygon fill="#63b8ff" stroke="#63b8ff" points="1001.85,-59.57 993.39,-65.95 1003.98,-66.24 1001.85,-59.57"/>
</a>
</g>
</g>
<!-- Node11 -->
<g id="Node000011" class="node">
<title>Node11</title>
<g id="a_Node000011"><a xlink:href="interrupt__controller_8cpp.html" target="_top" xlink:title="This file implements the interrupt controller used in BCM2835 (defined in interrupt_controller....">
<polygon fill="white" stroke="#666666" points="1357,-30 1224,-30 1224,0 1357,0 1357,-30"/>
<text text-anchor="start" x="1232" y="-18" font-family="Helvetica,sans-Serif" font-size="10.00">src/core/peripherals</text>
<text text-anchor="middle" x="1290.5" y="-7" font-family="Helvetica,sans-Serif" font-size="10.00">/interrupt_controller.cpp</text>
</a>
</g>
</g>
<!-- Node1&#45;&gt;Node11 -->
<g id="edge10_Node000001_Node000011" class="edge">
<title>Node1&#45;&gt;Node11</title>
<g id="a_edge10_Node000001_Node000011"><a xlink:title=" ">
<path fill="none" stroke="#63b8ff" d="M1025.34,-65.77C1084.81,-54.6 1166.79,-39.22 1223.79,-28.52"/>
<polygon fill="#63b8ff" stroke="#63b8ff" points="1024.43,-62.38 1015.25,-67.66 1025.72,-69.26 1024.43,-62.38"/>
</a>
</g>
</g>
<!-- Node12 -->
<g id="Node000012" class="node">
<title>Node12</title>
<g id="a_Node000012"><a xlink:href="soc_8cpp.html" target="_top" xlink:title=" ">
<polygon fill="white" stroke="#666666" points="1470,-24.5 1375,-24.5 1375,-5.5 1470,-5.5 1470,-24.5"/>
<text text-anchor="middle" x="1422.5" y="-12.5" font-family="Helvetica,sans-Serif" font-size="10.00">src/core/soc.cpp</text>
</a>
</g>
</g>
<!-- Node1&#45;&gt;Node12 -->
<g id="edge11_Node000001_Node000012" class="edge">
<title>Node1&#45;&gt;Node12</title>
<g id="a_edge11_Node000001_Node000012"><a xlink:title=" ">
<path fill="none" stroke="#63b8ff" d="M1025.46,-73.78C1109.37,-66.24 1248.27,-51.78 1366.5,-30 1374.58,-28.51 1383.23,-26.54 1391.26,-24.55"/>
<polygon fill="#63b8ff" stroke="#63b8ff" points="1024.9,-70.32 1015.25,-74.69 1025.52,-77.29 1024.9,-70.32"/>
</a>
</g>
</g>
<!-- Node13 -->
<g id="Node000013" class="node">
<title>Node13</title>
<g id="a_Node000013"><a xlink:href="control__window_8cpp.html" target="_top" xlink:title="This file implements a window that allows the user to control CPU execution.">
<polygon fill="white" stroke="#666666" points="1619,-30 1488,-30 1488,0 1619,0 1619,-30"/>
<text text-anchor="start" x="1496" y="-18" font-family="Helvetica,sans-Serif" font-size="10.00">src/gui/windows/control</text>
<text text-anchor="middle" x="1553.5" y="-7" font-family="Helvetica,sans-Serif" font-size="10.00">_window.cpp</text>
</a>
</g>
</g>
<!-- Node1&#45;&gt;Node13 -->
<g id="edge12_Node000001_Node000013" class="edge">
<title>Node1&#45;&gt;Node13</title>
<g id="a_edge12_Node000001_Node000013"><a xlink:title=" ">
<path fill="none" stroke="#63b8ff" d="M1025,-75.09C1128.04,-67.89 1318.32,-52.8 1479.5,-30 1482.22,-29.62 1484.99,-29.2 1487.79,-28.76"/>
<polygon fill="#63b8ff" stroke="#63b8ff" points="1024.74,-71.6 1015,-75.79 1025.22,-78.59 1024.74,-71.6"/>
</a>
</g>
</g>
<!-- Node14 -->
<g id="Node000014" class="node">
<title>Node14</title>
<g id="a_Node000014"><a xlink:href="top__bar__menu_8cpp.html" target="_top" xlink:title=" ">
<polygon fill="white" stroke="#666666" points="1750,-30 1637,-30 1637,0 1750,0 1750,-30"/>
<text text-anchor="start" x="1645" y="-18" font-family="Helvetica,sans-Serif" font-size="10.00">src/gui/windows/top</text>
<text text-anchor="middle" x="1693.5" y="-7" font-family="Helvetica,sans-Serif" font-size="10.00">_bar_menu.cpp</text>
</a>
</g>
</g>
<!-- Node1&#45;&gt;Node14 -->
<g id="edge13_Node000001_Node000014" class="edge">
<title>Node1&#45;&gt;Node14</title>
<g id="a_edge13_Node000001_Node000014"><a xlink:title=" ">
<path fill="none" stroke="#63b8ff" d="M1025.68,-77.83C1151.67,-73.48 1411.14,-61.26 1628.5,-30 1631.24,-29.61 1634.04,-29.16 1636.86,-28.68"/>
<polygon fill="#63b8ff" stroke="#63b8ff" points="1025.25,-74.35 1015.37,-78.18 1025.49,-81.34 1025.25,-74.35"/>
</a>
</g>
</g>
<!-- Node15 -->
<g id="Node000015" class="node">
<title>Node15</title>
<g id="a_Node000015"><a xlink:href="elf__loader_8cpp.html" target="_top" xlink:title="This file implements the functionality of an ELF loader defined in elf_loader.hpp.">
<polygon fill="white" stroke="#666666" points="1894.5,-24.5 1768.5,-24.5 1768.5,-5.5 1894.5,-5.5 1894.5,-24.5"/>
<text text-anchor="middle" x="1831.5" y="-12.5" font-family="Helvetica,sans-Serif" font-size="10.00">src/utils/elf_loader.cpp</text>
</a>
</g>
</g>
<!-- Node1&#45;&gt;Node15 -->
<g id="edge14_Node000001_Node000015" class="edge">
<title>Node1&#45;&gt;Node15</title>
<g id="a_edge14_Node000001_Node000015"><a xlink:title=" ">
<path fill="none" stroke="#63b8ff" d="M1025.16,-78.62C1168.83,-75.27 1490.8,-64.27 1759.5,-30 1770.24,-28.63 1781.78,-26.63 1792.41,-24.56"/>
<polygon fill="#63b8ff" stroke="#63b8ff" points="1025.05,-75.12 1015.13,-78.85 1025.21,-82.12 1025.05,-75.12"/>
</a>
</g>
</g>
</g>
</svg>
