<?xml version="1.0" encoding="UTF-8" standalone="no"?>
<!DOCTYPE svg PUBLIC "-//W3C//DTD SVG 1.1//EN"
 "http://www.w3.org/Graphics/SVG/1.1/DTD/svg11.dtd">
<!-- Generated by graphviz version 2.43.0 (0)
 -->
<!-- Title: src/core/soc.hpp Pages: 1 -->
<svg width="305pt" height="82pt"
 viewBox="0.00 0.00 305.00 82.00" xmlns="http://www.w3.org/2000/svg" xmlns:xlink="http://www.w3.org/1999/xlink">
<g id="graph0" class="graph" transform="scale(1 1) rotate(0) translate(4 78)">
<title>src/core/soc.hpp</title>
<!-- Node1 -->
<g id="Node000001" class="node">
<title>Node1</title>
<g id="a_Node000001"><a xlink:title=" ">
<polygon fill="#999999" stroke="#666666" points="204,-74 109,-74 109,-55 204,-55 204,-74"/>
<text text-anchor="middle" x="156.5" y="-62" font-family="Helvetica,sans-Serif" font-size="10.00">src/core/soc.hpp</text>
</a>
</g>
</g>
<!-- Node2 -->
<g id="Node000002" class="node">
<title>Node2</title>
<g id="a_Node000002"><a xlink:href="soc_8cpp.html" target="_top" xlink:title=" ">
<polygon fill="white" stroke="#666666" points="95,-19 0,-19 0,0 95,0 95,-19"/>
<text text-anchor="middle" x="47.5" y="-7" font-family="Helvetica,sans-Serif" font-size="10.00">src/core/soc.cpp</text>
</a>
</g>
</g>
<!-- Node1&#45;&gt;Node2 -->
<g id="edge1_Node000001_Node000002" class="edge">
<title>Node1&#45;&gt;Node2</title>
<g id="a_edge1_Node000001_Node000002"><a xlink:title=" ">
<path fill="none" stroke="#63b8ff" d="M129.77,-50.5C109.71,-40.75 82.82,-27.68 65.33,-19.17"/>
<polygon fill="#63b8ff" stroke="#63b8ff" points="128.46,-53.76 138.99,-54.98 131.52,-47.46 128.46,-53.76"/>
</a>
</g>
</g>
<!-- Node3 -->
<g id="Node000003" class="node">
<title>Node3</title>
<g id="a_Node000003"><a xlink:href="gui_8cpp.html" target="_top" xlink:title="This file implements the main GUI entry function that takes care of creating and rendering all window...">
<polygon fill="white" stroke="#666666" points="200,-19 113,-19 113,0 200,0 200,-19"/>
<text text-anchor="middle" x="156.5" y="-7" font-family="Helvetica,sans-Serif" font-size="10.00">src/gui/gui.cpp</text>
</a>
</g>
</g>
<!-- Node1&#45;&gt;Node3 -->
<g id="edge2_Node000001_Node000003" class="edge">
<title>Node1&#45;&gt;Node3</title>
<g id="a_edge2_Node000001_Node000003"><a xlink:title=" ">
<path fill="none" stroke="#63b8ff" d="M156.5,-44.66C156.5,-35.93 156.5,-25.99 156.5,-19.09"/>
<polygon fill="#63b8ff" stroke="#63b8ff" points="153,-44.75 156.5,-54.75 160,-44.75 153,-44.75"/>
</a>
</g>
</g>
<!-- Node4 -->
<g id="Node000004" class="node">
<title>Node4</title>
<g id="a_Node000004"><a xlink:href="main_8cpp.html" target="_top" xlink:title="This file defines and implements the main function of the application.">
<polygon fill="white" stroke="#666666" points="297,-19 218,-19 218,0 297,0 297,-19"/>
<text text-anchor="middle" x="257.5" y="-7" font-family="Helvetica,sans-Serif" font-size="10.00">src/main.cpp</text>
</a>
</g>
</g>
<!-- Node1&#45;&gt;Node4 -->
<g id="edge3_Node000001_Node000004" class="edge">
<title>Node1&#45;&gt;Node4</title>
<g id="a_edge3_Node000001_Node000004"><a xlink:title=" ">
<path fill="none" stroke="#63b8ff" d="M181.78,-50.23C200.3,-40.51 224.92,-27.6 240.98,-19.17"/>
<polygon fill="#63b8ff" stroke="#63b8ff" points="179.96,-47.24 172.73,-54.98 183.21,-53.44 179.96,-47.24"/>
</a>
</g>
</g>
</g>
</svg>
