<?xml version="1.0" encoding="UTF-8" standalone="no"?>
<!DOCTYPE svg PUBLIC "-//W3C//DTD SVG 1.1//EN"
 "http://www.w3.org/Graphics/SVG/1.1/DTD/svg11.dtd">
<!-- Generated by graphviz version 2.43.0 (0)
 -->
<!-- Title: src/core/peripherals/system_clock_listener.hpp Pages: 1 -->
<svg width="2001pt" height="240pt"
 viewBox="0.00 0.00 2001.00 240.00" xmlns="http://www.w3.org/2000/svg" xmlns:xlink="http://www.w3.org/1999/xlink">
<g id="graph0" class="graph" transform="scale(1 1) rotate(0) translate(4 236)">
<title>src/core/peripherals/system_clock_listener.hpp</title>
<!-- Node1 -->
<g id="node1" class="node">
<title>Node1</title>
<g id="a_node1"><a xlink:title="This file defines an interface for a CPU clock listener.">
<polygon fill="#bfbfbf" stroke="black" points="1252,-201.5 1252,-231.5 1401,-231.5 1401,-201.5 1252,-201.5"/>
<text text-anchor="start" x="1260" y="-219.5" font-family="Helvetica,sans-Serif" font-size="10.00">src/core/peripherals</text>
<text text-anchor="middle" x="1326.5" y="-208.5" font-family="Helvetica,sans-Serif" font-size="10.00">/system_clock_listener.hpp</text>
</a>
</g>
</g>
<!-- Node2 -->
<g id="node2" class="node">
<title>Node2</title>
<g id="a_node2"><a xlink:href="core_8hpp.html" target="_top" xlink:title="This file defines a class that represents a CPU core (arm1176jzf_s).">
<polygon fill="none" stroke="black" points="575,-134.5 575,-164.5 688,-164.5 688,-134.5 575,-134.5"/>
<text text-anchor="start" x="583" y="-152.5" font-family="Helvetica,sans-Serif" font-size="10.00">src/core/arm1176jzf</text>
<text text-anchor="middle" x="631.5" y="-141.5" font-family="Helvetica,sans-Serif" font-size="10.00">_s/core.hpp</text>
</a>
</g>
</g>
<!-- Node1&#45;&gt;Node2 -->
<g id="edge1" class="edge">
<title>Node1&#45;&gt;Node2</title>
<path fill="none" stroke="midnightblue" d="M1241.7,-207.57C1098.01,-194.13 810.41,-167.23 688.36,-155.82"/>
<polygon fill="midnightblue" stroke="midnightblue" points="1241.51,-211.07 1251.79,-208.51 1242.16,-204.1 1241.51,-211.07"/>
</g>
<!-- Node18 -->
<g id="node18" class="node">
<title>Node18</title>
<g id="a_node18"><a xlink:href="arm__timer_8hpp.html" target="_top" xlink:title="This file defines the ARM timer used in BCM2835.">
<polygon fill="none" stroke="black" points="1201,-134.5 1201,-164.5 1314,-164.5 1314,-134.5 1201,-134.5"/>
<text text-anchor="start" x="1209" y="-152.5" font-family="Helvetica,sans-Serif" font-size="10.00">src/core/peripherals</text>
<text text-anchor="middle" x="1257.5" y="-141.5" font-family="Helvetica,sans-Serif" font-size="10.00">/arm_timer.hpp</text>
</a>
</g>
</g>
<!-- Node1&#45;&gt;Node18 -->
<g id="edge21" class="edge">
<title>Node1&#45;&gt;Node18</title>
<path fill="none" stroke="midnightblue" d="M1304.01,-194.31C1293.66,-184.56 1281.66,-173.26 1272.44,-164.58"/>
<polygon fill="midnightblue" stroke="midnightblue" points="1301.85,-197.09 1311.53,-201.4 1306.65,-191.99 1301.85,-197.09"/>
</g>
<!-- Node22 -->
<g id="node22" class="node">
<title>Node22</title>
<g id="a_node22"><a xlink:href="auxiliary_8hpp.html" target="_top" xlink:title=" ">
<polygon fill="none" stroke="black" points="1394.5,-134.5 1394.5,-164.5 1522.5,-164.5 1522.5,-134.5 1394.5,-134.5"/>
<text text-anchor="start" x="1402.5" y="-152.5" font-family="Helvetica,sans-Serif" font-size="10.00">src/core/peripherals</text>
<text text-anchor="middle" x="1458.5" y="-141.5" font-family="Helvetica,sans-Serif" font-size="10.00">/auxiliary/auxiliary.hpp</text>
</a>
</g>
</g>
<!-- Node1&#45;&gt;Node22 -->
<g id="edge27" class="edge">
<title>Node1&#45;&gt;Node22</title>
<path fill="none" stroke="midnightblue" d="M1364.37,-196.85C1385.24,-186.58 1410.73,-174.03 1429.91,-164.58"/>
<polygon fill="midnightblue" stroke="midnightblue" points="1362.57,-193.84 1355.14,-201.4 1365.66,-200.12 1362.57,-193.84"/>
</g>
<!-- Node27 -->
<g id="node27" class="node">
<title>Node27</title>
<g id="a_node27"><a xlink:href="bsc_8hpp.html" target="_top" xlink:title="This file defines the BSC peripheral used in BCM2835.">
<polygon fill="none" stroke="black" points="1541,-134.5 1541,-164.5 1654,-164.5 1654,-134.5 1541,-134.5"/>
<text text-anchor="start" x="1549" y="-152.5" font-family="Helvetica,sans-Serif" font-size="10.00">src/core/peripherals</text>
<text text-anchor="middle" x="1597.5" y="-141.5" font-family="Helvetica,sans-Serif" font-size="10.00">/bsc.hpp</text>
</a>
</g>
</g>
<!-- Node1&#45;&gt;Node27 -->
<g id="edge34" class="edge">
<title>Node1&#45;&gt;Node27</title>
<path fill="none" stroke="midnightblue" d="M1394.97,-199.08C1440.11,-188.25 1498.51,-174.24 1540.99,-164.05"/>
<polygon fill="midnightblue" stroke="midnightblue" points="1393.88,-195.74 1384.97,-201.48 1395.51,-202.55 1393.88,-195.74"/>
</g>
<!-- Node3 -->
<g id="node3" class="node">
<title>Node3</title>
<g id="a_node3"><a xlink:href="core_8cpp.html" target="_top" xlink:title="This file implements the CCPU_Core class defined in core.hpp.">
<polygon fill="none" stroke="black" points="0,-67.5 0,-97.5 113,-97.5 113,-67.5 0,-67.5"/>
<text text-anchor="start" x="8" y="-85.5" font-family="Helvetica,sans-Serif" font-size="10.00">src/core/arm1176jzf</text>
<text text-anchor="middle" x="56.5" y="-74.5" font-family="Helvetica,sans-Serif" font-size="10.00">_s/core.cpp</text>
</a>
</g>
</g>
<!-- Node2&#45;&gt;Node3 -->
<g id="edge2" class="edge">
<title>Node2&#45;&gt;Node3</title>
<path fill="none" stroke="midnightblue" d="M564.71,-144.38C467.13,-137.8 280.05,-123.03 122.5,-98 119.49,-97.52 116.41,-96.99 113.3,-96.42"/>
<polygon fill="midnightblue" stroke="midnightblue" points="564.52,-147.88 574.73,-145.05 564.99,-140.89 564.52,-147.88"/>
</g>
<!-- Node4 -->
<g id="node4" class="node">
<title>Node4</title>
<g id="a_node4"><a xlink:href="coprocessor_8cpp.html" target="_top" xlink:title="This file implements the common functionality of a general interface of a coprocessor.">
<polygon fill="none" stroke="black" points="131.5,-67.5 131.5,-97.5 253.5,-97.5 253.5,-67.5 131.5,-67.5"/>
<text text-anchor="start" x="139.5" y="-85.5" font-family="Helvetica,sans-Serif" font-size="10.00">src/core/coprocessors</text>
<text text-anchor="middle" x="192.5" y="-74.5" font-family="Helvetica,sans-Serif" font-size="10.00">/coprocessor.cpp</text>
</a>
</g>
</g>
<!-- Node2&#45;&gt;Node4 -->
<g id="edge3" class="edge">
<title>Node2&#45;&gt;Node4</title>
<path fill="none" stroke="midnightblue" d="M564.62,-140.74C490.53,-131.82 367.64,-116.06 262.5,-98 259.56,-97.5 256.56,-96.96 253.54,-96.4"/>
<polygon fill="midnightblue" stroke="midnightblue" points="564.39,-144.24 574.74,-141.95 565.23,-137.29 564.39,-144.24"/>
</g>
<!-- Node5 -->
<g id="node5" class="node">
<title>Node5</title>
<g id="a_node5"><a xlink:href="cp10_8cpp.html" target="_top" xlink:title="This file implements coprocessor CP10 (single&#45;precision FPU).">
<polygon fill="none" stroke="black" points="271.5,-67.5 271.5,-97.5 393.5,-97.5 393.5,-67.5 271.5,-67.5"/>
<text text-anchor="start" x="279.5" y="-85.5" font-family="Helvetica,sans-Serif" font-size="10.00">src/core/coprocessors</text>
<text text-anchor="middle" x="332.5" y="-74.5" font-family="Helvetica,sans-Serif" font-size="10.00">/cp10/cp10.cpp</text>
</a>
</g>
</g>
<!-- Node2&#45;&gt;Node5 -->
<g id="edge4" class="edge">
<title>Node2&#45;&gt;Node5</title>
<path fill="none" stroke="midnightblue" d="M564.93,-134.03C513.74,-122.9 443.56,-107.64 393.75,-96.81"/>
<polygon fill="midnightblue" stroke="midnightblue" points="564.39,-137.49 574.91,-136.2 565.88,-130.65 564.39,-137.49"/>
</g>
<!-- Node6 -->
<g id="node6" class="node">
<title>Node6</title>
<g id="a_node6"><a xlink:href="soc_8hpp.html" target="_top" xlink:title=" ">
<polygon fill="none" stroke="black" points="1301,-73 1301,-92 1396,-92 1396,-73 1301,-73"/>
<text text-anchor="middle" x="1348.5" y="-80" font-family="Helvetica,sans-Serif" font-size="10.00">src/core/soc.hpp</text>
</a>
</g>
</g>
<!-- Node2&#45;&gt;Node6 -->
<g id="edge5" class="edge">
<title>Node2&#45;&gt;Node6</title>
<path fill="none" stroke="midnightblue" d="M698.51,-147.19C818.27,-144 1076.63,-133.28 1291.5,-98 1300.57,-96.51 1310.31,-94.28 1319.12,-92.01"/>
<polygon fill="midnightblue" stroke="midnightblue" points="698.3,-143.69 688.4,-147.45 698.48,-150.69 698.3,-143.69"/>
</g>
<!-- Node10 -->
<g id="node10" class="node">
<title>Node10</title>
<g id="a_node10"><a xlink:href="control__window_8hpp.html" target="_top" xlink:title="This file defines a window that allows the user to control CPU execution.">
<polygon fill="none" stroke="black" points="412,-67.5 412,-97.5 543,-97.5 543,-67.5 412,-67.5"/>
<text text-anchor="start" x="420" y="-85.5" font-family="Helvetica,sans-Serif" font-size="10.00">src/gui/windows/control</text>
<text text-anchor="middle" x="477.5" y="-74.5" font-family="Helvetica,sans-Serif" font-size="10.00">_window.hpp</text>
</a>
</g>
</g>
<!-- Node2&#45;&gt;Node10 -->
<g id="edge9" class="edge">
<title>Node2&#45;&gt;Node10</title>
<path fill="none" stroke="midnightblue" d="M588.63,-130.41C564.05,-120.03 533.64,-107.2 510.85,-97.58"/>
<polygon fill="midnightblue" stroke="midnightblue" points="587.51,-133.73 598.08,-134.4 590.23,-127.28 587.51,-133.73"/>
</g>
<!-- Node12 -->
<g id="node12" class="node">
<title>Node12</title>
<g id="a_node12"><a xlink:href="registers__window_8hpp.html" target="_top" xlink:title="This file defines a window that displays the contents of all CPU registers.">
<polygon fill="none" stroke="black" points="561.5,-67.5 561.5,-97.5 701.5,-97.5 701.5,-67.5 561.5,-67.5"/>
<text text-anchor="start" x="569.5" y="-85.5" font-family="Helvetica,sans-Serif" font-size="10.00">src/gui/windows/registers</text>
<text text-anchor="middle" x="631.5" y="-74.5" font-family="Helvetica,sans-Serif" font-size="10.00">_window.hpp</text>
</a>
</g>
</g>
<!-- Node2&#45;&gt;Node12 -->
<g id="edge12" class="edge">
<title>Node2&#45;&gt;Node12</title>
<path fill="none" stroke="midnightblue" d="M631.5,-124.11C631.5,-115.15 631.5,-105.32 631.5,-97.58"/>
<polygon fill="midnightblue" stroke="midnightblue" points="628,-124.4 631.5,-134.4 635,-124.4 628,-124.4"/>
</g>
<!-- Node14 -->
<g id="node14" class="node">
<title>Node14</title>
<g id="a_node14"><a xlink:href="source__code__window_8hpp.html" target="_top" xlink:title="This file defines a window that displays loaded ELF files (disassembled instructions of the source co...">
<polygon fill="none" stroke="black" points="719.5,-67.5 719.5,-97.5 849.5,-97.5 849.5,-67.5 719.5,-67.5"/>
<text text-anchor="start" x="727.5" y="-85.5" font-family="Helvetica,sans-Serif" font-size="10.00">src/gui/windows/source</text>
<text text-anchor="middle" x="784.5" y="-74.5" font-family="Helvetica,sans-Serif" font-size="10.00">_code_window.hpp</text>
</a>
</g>
</g>
<!-- Node2&#45;&gt;Node14 -->
<g id="edge15" class="edge">
<title>Node2&#45;&gt;Node14</title>
<path fill="none" stroke="midnightblue" d="M674.09,-130.41C698.52,-120.03 728.72,-107.2 751.37,-97.58"/>
<polygon fill="midnightblue" stroke="midnightblue" points="672.53,-127.26 664.7,-134.4 675.27,-133.71 672.53,-127.26"/>
</g>
<!-- Node16 -->
<g id="node16" class="node">
<title>Node16</title>
<g id="a_node16"><a xlink:href="top__bar__menu_8hpp.html" target="_top" xlink:title=" ">
<polygon fill="none" stroke="black" points="868,-67.5 868,-97.5 981,-97.5 981,-67.5 868,-67.5"/>
<text text-anchor="start" x="876" y="-85.5" font-family="Helvetica,sans-Serif" font-size="10.00">src/gui/windows/top</text>
<text text-anchor="middle" x="924.5" y="-74.5" font-family="Helvetica,sans-Serif" font-size="10.00">_bar_menu.hpp</text>
</a>
</g>
</g>
<!-- Node2&#45;&gt;Node16 -->
<g id="edge18" class="edge">
<title>Node2&#45;&gt;Node16</title>
<path fill="none" stroke="midnightblue" d="M698.32,-133.68C749.5,-122.32 819.34,-106.83 867.82,-96.07"/>
<polygon fill="midnightblue" stroke="midnightblue" points="697.35,-130.31 688.34,-135.89 698.86,-137.14 697.35,-130.31"/>
</g>
<!-- Node7 -->
<g id="node7" class="node">
<title>Node7</title>
<g id="a_node7"><a xlink:href="soc_8cpp.html" target="_top" xlink:title=" ">
<polygon fill="none" stroke="black" points="1372,-6 1372,-25 1467,-25 1467,-6 1372,-6"/>
<text text-anchor="middle" x="1419.5" y="-13" font-family="Helvetica,sans-Serif" font-size="10.00">src/core/soc.cpp</text>
</a>
</g>
</g>
<!-- Node6&#45;&gt;Node7 -->
<g id="edge6" class="edge">
<title>Node6&#45;&gt;Node7</title>
<path fill="none" stroke="midnightblue" d="M1365.59,-65.86C1379.55,-53.08 1398.76,-35.49 1410.08,-25.13"/>
<polygon fill="midnightblue" stroke="midnightblue" points="1363.09,-63.4 1358.08,-72.73 1367.81,-68.56 1363.09,-63.4"/>
</g>
<!-- Node8 -->
<g id="node8" class="node">
<title>Node8</title>
<g id="a_node8"><a xlink:href="gui_8cpp.html" target="_top" xlink:title="This file implements the main GUI entry function that takes care of creating and rendering all window...">
<polygon fill="none" stroke="black" points="999,-6 999,-25 1086,-25 1086,-6 999,-6"/>
<text text-anchor="middle" x="1042.5" y="-13" font-family="Helvetica,sans-Serif" font-size="10.00">src/gui/gui.cpp</text>
</a>
</g>
</g>
<!-- Node6&#45;&gt;Node8 -->
<g id="edge7" class="edge">
<title>Node6&#45;&gt;Node8</title>
<path fill="none" stroke="midnightblue" d="M1306.85,-70.56C1301.69,-69.31 1296.48,-68.09 1291.5,-67 1204.98,-48.07 1181.85,-50.7 1095.5,-31 1087.78,-29.24 1079.5,-27.1 1071.82,-25"/>
<polygon fill="midnightblue" stroke="midnightblue" points="1306.09,-73.98 1316.63,-72.99 1307.77,-67.18 1306.09,-73.98"/>
</g>
<!-- Node9 -->
<g id="node9" class="node">
<title>Node9</title>
<g id="a_node9"><a xlink:href="main_8cpp.html" target="_top" xlink:title="This file defines and implements the main function of the application.">
<polygon fill="none" stroke="black" points="1275,-6 1275,-25 1354,-25 1354,-6 1275,-6"/>
<text text-anchor="middle" x="1314.5" y="-13" font-family="Helvetica,sans-Serif" font-size="10.00">src/main.cpp</text>
</a>
</g>
</g>
<!-- Node6&#45;&gt;Node9 -->
<g id="edge8" class="edge">
<title>Node6&#45;&gt;Node9</title>
<path fill="none" stroke="midnightblue" d="M1339.17,-63.66C1332.61,-51.13 1324.13,-34.91 1319.01,-25.13"/>
<polygon fill="midnightblue" stroke="midnightblue" points="1336.18,-65.5 1343.91,-72.73 1342.38,-62.25 1336.18,-65.5"/>
</g>
<!-- Node10&#45;&gt;Node8 -->
<g id="edge10" class="edge">
<title>Node10&#45;&gt;Node8</title>
<path fill="none" stroke="midnightblue" d="M553.23,-67.02C747.33,-41.26 800.77,-64.3 989.5,-31 997.96,-29.51 1007.02,-27.27 1015.21,-25"/>
<polygon fill="midnightblue" stroke="midnightblue" points="552.72,-63.55 543.28,-68.36 553.66,-70.49 552.72,-63.55"/>
</g>
<!-- Node11 -->
<g id="node11" class="node">
<title>Node11</title>
<g id="a_node11"><a xlink:href="control__window_8cpp.html" target="_top" xlink:title="This file implements a window that allows the user to control CPU execution.">
<polygon fill="none" stroke="black" points="412,-0.5 412,-30.5 543,-30.5 543,-0.5 412,-0.5"/>
<text text-anchor="start" x="420" y="-18.5" font-family="Helvetica,sans-Serif" font-size="10.00">src/gui/windows/control</text>
<text text-anchor="middle" x="477.5" y="-7.5" font-family="Helvetica,sans-Serif" font-size="10.00">_window.cpp</text>
</a>
</g>
</g>
<!-- Node10&#45;&gt;Node11 -->
<g id="edge11" class="edge">
<title>Node10&#45;&gt;Node11</title>
<path fill="none" stroke="midnightblue" d="M477.5,-57.11C477.5,-48.15 477.5,-38.32 477.5,-30.58"/>
<polygon fill="midnightblue" stroke="midnightblue" points="474,-57.4 477.5,-67.4 481,-57.4 474,-57.4"/>
</g>
<!-- Node12&#45;&gt;Node8 -->
<g id="edge13" class="edge">
<title>Node12&#45;&gt;Node8</title>
<path fill="none" stroke="midnightblue" d="M711.57,-66.9C835.76,-48.09 870.02,-54.93 989.5,-31 997.54,-29.39 1006.16,-27.22 1014.07,-25.06"/>
<polygon fill="midnightblue" stroke="midnightblue" points="711.03,-63.44 701.68,-68.42 712.09,-70.36 711.03,-63.44"/>
</g>
<!-- Node13 -->
<g id="node13" class="node">
<title>Node13</title>
<g id="a_node13"><a xlink:href="registers__window_8cpp.html" target="_top" xlink:title="This file implements a window that displays the contents of all CPU registers.">
<polygon fill="none" stroke="black" points="561.5,-0.5 561.5,-30.5 701.5,-30.5 701.5,-0.5 561.5,-0.5"/>
<text text-anchor="start" x="569.5" y="-18.5" font-family="Helvetica,sans-Serif" font-size="10.00">src/gui/windows/registers</text>
<text text-anchor="middle" x="631.5" y="-7.5" font-family="Helvetica,sans-Serif" font-size="10.00">_window.cpp</text>
</a>
</g>
</g>
<!-- Node12&#45;&gt;Node13 -->
<g id="edge14" class="edge">
<title>Node12&#45;&gt;Node13</title>
<path fill="none" stroke="midnightblue" d="M631.5,-57.11C631.5,-48.15 631.5,-38.32 631.5,-30.58"/>
<polygon fill="midnightblue" stroke="midnightblue" points="628,-57.4 631.5,-67.4 635,-57.4 628,-57.4"/>
</g>
<!-- Node14&#45;&gt;Node8 -->
<g id="edge16" class="edge">
<title>Node14&#45;&gt;Node8</title>
<path fill="none" stroke="midnightblue" d="M853.24,-65.03C893.1,-55.36 944.2,-42.77 989.5,-31 996.7,-29.13 1004.43,-27.05 1011.71,-25.07"/>
<polygon fill="midnightblue" stroke="midnightblue" points="852.26,-61.67 843.36,-67.42 853.91,-68.47 852.26,-61.67"/>
</g>
<!-- Node15 -->
<g id="node15" class="node">
<title>Node15</title>
<g id="a_node15"><a xlink:href="source__code__window_8cpp.html" target="_top" xlink:title="This file implements a window that displays loaded ELF files (disassembled instructions of the source...">
<polygon fill="none" stroke="black" points="719.5,-0.5 719.5,-30.5 849.5,-30.5 849.5,-0.5 719.5,-0.5"/>
<text text-anchor="start" x="727.5" y="-18.5" font-family="Helvetica,sans-Serif" font-size="10.00">src/gui/windows/source</text>
<text text-anchor="middle" x="784.5" y="-7.5" font-family="Helvetica,sans-Serif" font-size="10.00">_code_window.cpp</text>
</a>
</g>
</g>
<!-- Node14&#45;&gt;Node15 -->
<g id="edge17" class="edge">
<title>Node14&#45;&gt;Node15</title>
<path fill="none" stroke="midnightblue" d="M784.5,-57.11C784.5,-48.15 784.5,-38.32 784.5,-30.58"/>
<polygon fill="midnightblue" stroke="midnightblue" points="781,-57.4 784.5,-67.4 788,-57.4 781,-57.4"/>
</g>
<!-- Node16&#45;&gt;Node8 -->
<g id="edge19" class="edge">
<title>Node16&#45;&gt;Node8</title>
<path fill="none" stroke="midnightblue" d="M959.04,-62.47C981.57,-50.06 1009.87,-34.47 1027.06,-25.01"/>
<polygon fill="midnightblue" stroke="midnightblue" points="957.17,-59.51 950.1,-67.4 960.55,-65.64 957.17,-59.51"/>
</g>
<!-- Node17 -->
<g id="node17" class="node">
<title>Node17</title>
<g id="a_node17"><a xlink:href="top__bar__menu_8cpp.html" target="_top" xlink:title=" ">
<polygon fill="none" stroke="black" points="868,-0.5 868,-30.5 981,-30.5 981,-0.5 868,-0.5"/>
<text text-anchor="start" x="876" y="-18.5" font-family="Helvetica,sans-Serif" font-size="10.00">src/gui/windows/top</text>
<text text-anchor="middle" x="924.5" y="-7.5" font-family="Helvetica,sans-Serif" font-size="10.00">_bar_menu.cpp</text>
</a>
</g>
</g>
<!-- Node16&#45;&gt;Node17 -->
<g id="edge20" class="edge">
<title>Node16&#45;&gt;Node17</title>
<path fill="none" stroke="midnightblue" d="M924.5,-57.11C924.5,-48.15 924.5,-38.32 924.5,-30.58"/>
<polygon fill="midnightblue" stroke="midnightblue" points="921,-57.4 924.5,-67.4 928,-57.4 921,-57.4"/>
</g>
<!-- Node18&#45;&gt;Node6 -->
<g id="edge23" class="edge">
<title>Node18&#45;&gt;Node6</title>
<path fill="none" stroke="midnightblue" d="M1285.77,-128.31C1302.86,-116.1 1323.75,-101.18 1336.59,-92.01"/>
<polygon fill="midnightblue" stroke="midnightblue" points="1283.35,-125.74 1277.25,-134.4 1287.42,-131.43 1283.35,-125.74"/>
</g>
<!-- Node19 -->
<g id="node19" class="node">
<title>Node19</title>
<g id="a_node19"><a xlink:href="arm__timer_8cpp.html" target="_top" xlink:title="This file implements the ARM timer used in BCM2835 as defined in arm_timer.hpp.">
<polygon fill="none" stroke="black" points="1170,-67.5 1170,-97.5 1283,-97.5 1283,-67.5 1170,-67.5"/>
<text text-anchor="start" x="1178" y="-85.5" font-family="Helvetica,sans-Serif" font-size="10.00">src/core/peripherals</text>
<text text-anchor="middle" x="1226.5" y="-74.5" font-family="Helvetica,sans-Serif" font-size="10.00">/arm_timer.cpp</text>
</a>
</g>
</g>
<!-- Node18&#45;&gt;Node19 -->
<g id="edge22" class="edge">
<title>Node18&#45;&gt;Node19</title>
<path fill="none" stroke="midnightblue" d="M1246.43,-125.28C1242.01,-116.02 1237.07,-105.66 1233.21,-97.58"/>
<polygon fill="midnightblue" stroke="midnightblue" points="1243.31,-126.88 1250.77,-134.4 1249.63,-123.86 1243.31,-126.88"/>
</g>
<!-- Node20 -->
<g id="node20" class="node">
<title>Node20</title>
<g id="a_node20"><a xlink:href="arm__timer__window_8hpp.html" target="_top" xlink:title="This file defines a window that visualizes the contents of the ARM timer registers.">
<polygon fill="none" stroke="black" points="999.5,-67.5 999.5,-97.5 1151.5,-97.5 1151.5,-67.5 999.5,-67.5"/>
<text text-anchor="start" x="1007.5" y="-85.5" font-family="Helvetica,sans-Serif" font-size="10.00">src/gui/windows/peripherals</text>
<text text-anchor="middle" x="1075.5" y="-74.5" font-family="Helvetica,sans-Serif" font-size="10.00">/arm_timer_window.hpp</text>
</a>
</g>
</g>
<!-- Node18&#45;&gt;Node20 -->
<g id="edge24" class="edge">
<title>Node18&#45;&gt;Node20</title>
<path fill="none" stroke="midnightblue" d="M1208.37,-130.96C1179.06,-120.48 1142.32,-107.37 1114.91,-97.58"/>
<polygon fill="midnightblue" stroke="midnightblue" points="1207.41,-134.33 1218.01,-134.4 1209.77,-127.74 1207.41,-134.33"/>
</g>
<!-- Node20&#45;&gt;Node8 -->
<g id="edge25" class="edge">
<title>Node20&#45;&gt;Node8</title>
<path fill="none" stroke="midnightblue" d="M1063.72,-58.29C1057.88,-46.8 1051.2,-33.63 1046.91,-25.19"/>
<polygon fill="midnightblue" stroke="midnightblue" points="1060.69,-60.06 1068.34,-67.4 1066.93,-56.89 1060.69,-60.06"/>
</g>
<!-- Node21 -->
<g id="node21" class="node">
<title>Node21</title>
<g id="a_node21"><a xlink:href="arm__timer__window_8cpp.html" target="_top" xlink:title="This file implements a window that visualizes the contents of the ARM timer registers.">
<polygon fill="none" stroke="black" points="1104.5,-0.5 1104.5,-30.5 1256.5,-30.5 1256.5,-0.5 1104.5,-0.5"/>
<text text-anchor="start" x="1112.5" y="-18.5" font-family="Helvetica,sans-Serif" font-size="10.00">src/gui/windows/peripherals</text>
<text text-anchor="middle" x="1180.5" y="-7.5" font-family="Helvetica,sans-Serif" font-size="10.00">/arm_timer_window.cpp</text>
</a>
</g>
</g>
<!-- Node20&#45;&gt;Node21 -->
<g id="edge26" class="edge">
<title>Node20&#45;&gt;Node21</title>
<path fill="none" stroke="midnightblue" d="M1106.98,-62.02C1123.32,-51.9 1142.91,-39.77 1157.76,-30.58"/>
<polygon fill="midnightblue" stroke="midnightblue" points="1104.94,-59.16 1098.28,-67.4 1108.63,-65.11 1104.94,-59.16"/>
</g>
<!-- Node22&#45;&gt;Node6 -->
<g id="edge30" class="edge">
<title>Node22&#45;&gt;Node6</title>
<path fill="none" stroke="midnightblue" d="M1426.02,-129.31C1405.07,-116.93 1378.84,-101.43 1362.9,-92.01"/>
<polygon fill="midnightblue" stroke="midnightblue" points="1424.24,-132.32 1434.63,-134.4 1427.8,-126.3 1424.24,-132.32"/>
</g>
<!-- Node23 -->
<g id="node23" class="node">
<title>Node23</title>
<g id="a_node23"><a xlink:href="auxiliary_8cpp.html" target="_top" xlink:title=" ">
<polygon fill="none" stroke="black" points="1735,-67.5 1735,-97.5 1862,-97.5 1862,-67.5 1735,-67.5"/>
<text text-anchor="start" x="1743" y="-85.5" font-family="Helvetica,sans-Serif" font-size="10.00">src/core/peripherals</text>
<text text-anchor="middle" x="1798.5" y="-74.5" font-family="Helvetica,sans-Serif" font-size="10.00">/auxiliary/auxiliary.cpp</text>
</a>
</g>
</g>
<!-- Node22&#45;&gt;Node23 -->
<g id="edge28" class="edge">
<title>Node22&#45;&gt;Node23</title>
<path fill="none" stroke="midnightblue" d="M1532.61,-133.8C1619.28,-117.23 1642.49,-113.95 1725.5,-98 1728.55,-97.42 1731.66,-96.81 1734.81,-96.2"/>
<polygon fill="midnightblue" stroke="midnightblue" points="1531.75,-130.4 1522.59,-135.72 1533.07,-137.28 1531.75,-130.4"/>
</g>
<!-- Node24 -->
<g id="node24" class="node">
<title>Node24</title>
<g id="a_node24"><a xlink:href="mini__uart_8cpp.html" target="_top" xlink:title="This file implements the Mini UART auxiliary peripheral used in BCM2835.">
<polygon fill="none" stroke="black" points="1584.5,-67.5 1584.5,-97.5 1716.5,-97.5 1716.5,-67.5 1584.5,-67.5"/>
<text text-anchor="start" x="1592.5" y="-85.5" font-family="Helvetica,sans-Serif" font-size="10.00">src/core/peripherals</text>
<text text-anchor="middle" x="1650.5" y="-74.5" font-family="Helvetica,sans-Serif" font-size="10.00">/auxiliary/mini_uart.cpp</text>
</a>
</g>
</g>
<!-- Node22&#45;&gt;Node24 -->
<g id="edge29" class="edge">
<title>Node22&#45;&gt;Node24</title>
<path fill="none" stroke="midnightblue" d="M1509.92,-131.09C1540.92,-120.6 1579.88,-107.41 1608.92,-97.58"/>
<polygon fill="midnightblue" stroke="midnightblue" points="1508.51,-127.87 1500.16,-134.4 1510.76,-134.5 1508.51,-127.87"/>
</g>
<!-- Node25 -->
<g id="node25" class="node">
<title>Node25</title>
<g id="a_node25"><a xlink:href="aux__window_8hpp.html" target="_top" xlink:title="This file defines a window that visualizes the auxiliaries (UART1 &amp; SPI1, and SPI2) used in BCM2835.">
<polygon fill="none" stroke="black" points="1414.5,-67.5 1414.5,-97.5 1566.5,-97.5 1566.5,-67.5 1414.5,-67.5"/>
<text text-anchor="start" x="1422.5" y="-85.5" font-family="Helvetica,sans-Serif" font-size="10.00">src/gui/windows/peripherals</text>
<text text-anchor="middle" x="1490.5" y="-74.5" font-family="Helvetica,sans-Serif" font-size="10.00">/aux_window.hpp</text>
</a>
</g>
</g>
<!-- Node22&#45;&gt;Node25 -->
<g id="edge31" class="edge">
<title>Node22&#45;&gt;Node25</title>
<path fill="none" stroke="midnightblue" d="M1469.93,-125.28C1474.49,-116.02 1479.59,-105.66 1483.57,-97.58"/>
<polygon fill="midnightblue" stroke="midnightblue" points="1466.72,-123.88 1465.44,-134.4 1473,-126.97 1466.72,-123.88"/>
</g>
<!-- Node25&#45;&gt;Node8 -->
<g id="edge32" class="edge">
<title>Node25&#45;&gt;Node8</title>
<path fill="none" stroke="midnightblue" d="M1403.98,-66.99C1265.86,-47.94 1228.05,-56.7 1095.5,-31 1087.35,-29.42 1078.62,-27.24 1070.64,-25.05"/>
<polygon fill="midnightblue" stroke="midnightblue" points="1403.71,-70.49 1414.1,-68.41 1404.68,-63.55 1403.71,-70.49"/>
</g>
<!-- Node26 -->
<g id="node26" class="node">
<title>Node26</title>
<g id="a_node26"><a xlink:href="aux__window_8cpp.html" target="_top" xlink:title="This file implements a window that visualizes the auxiliaries (UART1 &amp; SPI1, and SPI2) used in BCM283...">
<polygon fill="none" stroke="black" points="1485.5,-0.5 1485.5,-30.5 1637.5,-30.5 1637.5,-0.5 1485.5,-0.5"/>
<text text-anchor="start" x="1493.5" y="-18.5" font-family="Helvetica,sans-Serif" font-size="10.00">src/gui/windows/peripherals</text>
<text text-anchor="middle" x="1561.5" y="-7.5" font-family="Helvetica,sans-Serif" font-size="10.00">/aux_window.cpp</text>
</a>
</g>
</g>
<!-- Node25&#45;&gt;Node26 -->
<g id="edge33" class="edge">
<title>Node25&#45;&gt;Node26</title>
<path fill="none" stroke="midnightblue" d="M1513.33,-60.6C1524.05,-50.78 1536.55,-39.34 1546.12,-30.58"/>
<polygon fill="midnightblue" stroke="midnightblue" points="1510.92,-58.06 1505.91,-67.4 1515.65,-63.22 1510.92,-58.06"/>
</g>
<!-- Node27&#45;&gt;Node6 -->
<g id="edge36" class="edge">
<title>Node27&#45;&gt;Node6</title>
<path fill="none" stroke="midnightblue" d="M1533.95,-131.91C1485.18,-119.18 1419.86,-102.13 1381.17,-92.03"/>
<polygon fill="midnightblue" stroke="midnightblue" points="1533.22,-135.34 1543.78,-134.48 1534.99,-128.56 1533.22,-135.34"/>
</g>
<!-- Node28 -->
<g id="node28" class="node">
<title>Node28</title>
<g id="a_node28"><a xlink:href="bsc_8cpp.html" target="_top" xlink:title="This file implements the BSC peripheral used in BCM2835.">
<polygon fill="none" stroke="black" points="1880,-67.5 1880,-97.5 1993,-97.5 1993,-67.5 1880,-67.5"/>
<text text-anchor="start" x="1888" y="-85.5" font-family="Helvetica,sans-Serif" font-size="10.00">src/core/peripherals</text>
<text text-anchor="middle" x="1936.5" y="-74.5" font-family="Helvetica,sans-Serif" font-size="10.00">/bsc.cpp</text>
</a>
</g>
</g>
<!-- Node27&#45;&gt;Node28 -->
<g id="edge35" class="edge">
<title>Node27&#45;&gt;Node28</title>
<path fill="none" stroke="midnightblue" d="M1664.1,-136.94C1719.67,-127.12 1800.89,-112.38 1871.5,-98 1874.22,-97.45 1877,-96.87 1879.81,-96.28"/>
<polygon fill="midnightblue" stroke="midnightblue" points="1663.27,-133.53 1654.03,-138.71 1664.49,-140.43 1663.27,-133.53"/>
</g>
</g>
</svg>
