<?xml version="1.0" encoding="UTF-8" standalone="no"?>
<!DOCTYPE svg PUBLIC "-//W3C//DTD SVG 1.1//EN"
 "http://www.w3.org/Graphics/SVG/1.1/DTD/svg11.dtd">
<!-- Generated by graphviz version 2.43.0 (0)
 -->
<!-- Title: src/core/peripherals/system_clock_listener.hpp Pages: 1 -->
<svg width="2001pt" height="236pt"
 viewBox="0.00 0.00 2001.00 236.00" xmlns="http://www.w3.org/2000/svg" xmlns:xlink="http://www.w3.org/1999/xlink">
<g id="graph0" class="graph" transform="scale(1 1) rotate(0) translate(4 232)">
<title>src/core/peripherals/system_clock_listener.hpp</title>
<!-- Node1 -->
<g id="Node000001" class="node">
<title>Node1</title>
<g id="a_Node000001"><a xlink:title="This file defines an interface for a CPU clock listener.">
<polygon fill="#999999" stroke="#666666" points="1401,-228 1252,-228 1252,-198 1401,-198 1401,-228"/>
<text text-anchor="start" x="1260" y="-216" font-family="Helvetica,sans-Serif" font-size="10.00">src/core/peripherals</text>
<text text-anchor="middle" x="1326.5" y="-205" font-family="Helvetica,sans-Serif" font-size="10.00">/system_clock_listener.hpp</text>
</a>
</g>
</g>
<!-- Node2 -->
<g id="Node000002" class="node">
<title>Node2</title>
<g id="a_Node000002"><a xlink:href="core_8hpp.html" target="_top" xlink:title="This file defines a class that represents a CPU core (arm1176jzf_s).">
<polygon fill="white" stroke="#666666" points="688,-162 575,-162 575,-132 688,-132 688,-162"/>
<text text-anchor="start" x="583" y="-150" font-family="Helvetica,sans-Serif" font-size="10.00">src/core/arm1176jzf</text>
<text text-anchor="middle" x="631.5" y="-139" font-family="Helvetica,sans-Serif" font-size="10.00">_s/core.hpp</text>
</a>
</g>
</g>
<!-- Node1&#45;&gt;Node2 -->
<g id="edge1_Node000001_Node000002" class="edge">
<title>Node1&#45;&gt;Node2</title>
<g id="a_edge1_Node000001_Node000002"><a xlink:title=" ">
<path fill="none" stroke="#63b8ff" d="M1241.7,-204.19C1098.01,-190.96 810.41,-164.48 688.36,-153.24"/>
<polygon fill="#63b8ff" stroke="#63b8ff" points="1241.51,-207.69 1251.79,-205.12 1242.16,-200.72 1241.51,-207.69"/>
</a>
</g>
</g>
<!-- Node18 -->
<g id="Node000018" class="node">
<title>Node18</title>
<g id="a_Node000018"><a xlink:href="arm__timer_8hpp.html" target="_top" xlink:title="This file defines the ARM timer used in BCM2835.">
<polygon fill="white" stroke="#666666" points="1314,-162 1201,-162 1201,-132 1314,-132 1314,-162"/>
<text text-anchor="start" x="1209" y="-150" font-family="Helvetica,sans-Serif" font-size="10.00">src/core/peripherals</text>
<text text-anchor="middle" x="1257.5" y="-139" font-family="Helvetica,sans-Serif" font-size="10.00">/arm_timer.hpp</text>
</a>
</g>
</g>
<!-- Node1&#45;&gt;Node18 -->
<g id="edge21_Node000001_Node000018" class="edge">
<title>Node1&#45;&gt;Node18</title>
<g id="a_edge21_Node000001_Node000018"><a xlink:title=" ">
<path fill="none" stroke="#63b8ff" d="M1303.78,-190.92C1293.6,-181.49 1281.87,-170.61 1272.77,-162.16"/>
<polygon fill="#63b8ff" stroke="#63b8ff" points="1301.47,-193.56 1311.19,-197.8 1306.24,-188.43 1301.47,-193.56"/>
</a>
</g>
</g>
<!-- Node22 -->
<g id="Node000022" class="node">
<title>Node22</title>
<g id="a_Node000022"><a xlink:href="auxiliary_8hpp.html" target="_top" xlink:title=" ">
<polygon fill="white" stroke="#666666" points="1522.5,-162 1394.5,-162 1394.5,-132 1522.5,-132 1522.5,-162"/>
<text text-anchor="start" x="1402.5" y="-150" font-family="Helvetica,sans-Serif" font-size="10.00">src/core/peripherals</text>
<text text-anchor="middle" x="1458.5" y="-139" font-family="Helvetica,sans-Serif" font-size="10.00">/auxiliary/auxiliary.hpp</text>
</a>
</g>
</g>
<!-- Node1&#45;&gt;Node22 -->
<g id="edge27_Node000001_Node000022" class="edge">
<title>Node1&#45;&gt;Node22</title>
<g id="a_edge27_Node000001_Node000022"><a xlink:title=" ">
<path fill="none" stroke="#63b8ff" d="M1364.63,-193.51C1385.34,-183.47 1410.53,-171.26 1429.6,-162.01"/>
<polygon fill="#63b8ff" stroke="#63b8ff" points="1362.94,-190.44 1355.47,-197.95 1365.99,-196.74 1362.94,-190.44"/>
</a>
</g>
</g>
<!-- Node27 -->
<g id="Node000027" class="node">
<title>Node27</title>
<g id="a_Node000027"><a xlink:href="bsc_8hpp.html" target="_top" xlink:title="This file defines the BSC peripheral used in BCM2835.">
<polygon fill="white" stroke="#666666" points="1654,-162 1541,-162 1541,-132 1654,-132 1654,-162"/>
<text text-anchor="start" x="1549" y="-150" font-family="Helvetica,sans-Serif" font-size="10.00">src/core/peripherals</text>
<text text-anchor="middle" x="1597.5" y="-139" font-family="Helvetica,sans-Serif" font-size="10.00">/bsc.hpp</text>
</a>
</g>
</g>
<!-- Node1&#45;&gt;Node27 -->
<g id="edge34_Node000001_Node000027" class="edge">
<title>Node1&#45;&gt;Node27</title>
<g id="a_edge34_Node000001_Node000027"><a xlink:title=" ">
<path fill="none" stroke="#63b8ff" d="M1395.95,-195.6C1440.93,-184.98 1498.77,-171.32 1540.95,-161.36"/>
<polygon fill="#63b8ff" stroke="#63b8ff" points="1394.9,-192.25 1385.97,-197.95 1396.51,-199.06 1394.9,-192.25"/>
</a>
</g>
</g>
<!-- Node3 -->
<g id="Node000003" class="node">
<title>Node3</title>
<g id="a_Node000003"><a xlink:href="core_8cpp.html" target="_top" xlink:title="This file implements the CCPU_Core class defined in core.hpp.">
<polygon fill="white" stroke="#666666" points="113,-96 0,-96 0,-66 113,-66 113,-96"/>
<text text-anchor="start" x="8" y="-84" font-family="Helvetica,sans-Serif" font-size="10.00">src/core/arm1176jzf</text>
<text text-anchor="middle" x="56.5" y="-73" font-family="Helvetica,sans-Serif" font-size="10.00">_s/core.cpp</text>
</a>
</g>
</g>
<!-- Node2&#45;&gt;Node3 -->
<g id="edge2_Node000002_Node000003" class="edge">
<title>Node2&#45;&gt;Node3</title>
<g id="a_edge2_Node000002_Node000003"><a xlink:title=" ">
<path fill="none" stroke="#63b8ff" d="M564.74,-141.82C467.18,-135.17 280.14,-120.38 122.5,-96 119.49,-95.53 116.41,-95.02 113.31,-94.47"/>
<polygon fill="#63b8ff" stroke="#63b8ff" points="564.54,-145.31 574.75,-142.49 565.01,-138.33 564.54,-145.31"/>
</a>
</g>
</g>
<!-- Node4 -->
<g id="Node000004" class="node">
<title>Node4</title>
<g id="a_Node000004"><a xlink:href="coprocessor_8cpp.html" target="_top" xlink:title="This file implements the common functionality of a general interface of a coprocessor.">
<polygon fill="white" stroke="#666666" points="253.5,-96 131.5,-96 131.5,-66 253.5,-66 253.5,-96"/>
<text text-anchor="start" x="139.5" y="-84" font-family="Helvetica,sans-Serif" font-size="10.00">src/core/coprocessors</text>
<text text-anchor="middle" x="192.5" y="-73" font-family="Helvetica,sans-Serif" font-size="10.00">/coprocessor.cpp</text>
</a>
</g>
</g>
<!-- Node2&#45;&gt;Node4 -->
<g id="edge3_Node000002_Node000004" class="edge">
<title>Node2&#45;&gt;Node4</title>
<g id="a_edge3_Node000002_Node000004"><a xlink:title=" ">
<path fill="none" stroke="#63b8ff" d="M564.64,-138.22C490.57,-129.3 367.7,-113.63 262.5,-96 259.57,-95.51 256.57,-94.99 253.54,-94.44"/>
<polygon fill="#63b8ff" stroke="#63b8ff" points="564.41,-141.72 574.76,-139.43 565.24,-134.77 564.41,-141.72"/>
</a>
</g>
</g>
<!-- Node5 -->
<g id="Node000005" class="node">
<title>Node5</title>
<g id="a_Node000005"><a xlink:href="cp10_8cpp.html" target="_top" xlink:title="This file implements coprocessor CP10 (single&#45;precision FPU).">
<polygon fill="white" stroke="#666666" points="393.5,-96 271.5,-96 271.5,-66 393.5,-66 393.5,-96"/>
<text text-anchor="start" x="279.5" y="-84" font-family="Helvetica,sans-Serif" font-size="10.00">src/core/coprocessors</text>
<text text-anchor="middle" x="332.5" y="-73" font-family="Helvetica,sans-Serif" font-size="10.00">/cp10/cp10.cpp</text>
</a>
</g>
</g>
<!-- Node2&#45;&gt;Node5 -->
<g id="edge4_Node000002_Node000005" class="edge">
<title>Node2&#45;&gt;Node5</title>
<g id="a_edge4_Node000002_Node000005"><a xlink:title=" ">
<path fill="none" stroke="#63b8ff" d="M564.93,-131.75C513.74,-120.79 443.56,-105.77 393.75,-95.11"/>
<polygon fill="#63b8ff" stroke="#63b8ff" points="564.4,-135.22 574.91,-133.89 565.86,-128.37 564.4,-135.22"/>
</a>
</g>
</g>
<!-- Node6 -->
<g id="Node000006" class="node">
<title>Node6</title>
<g id="a_Node000006"><a xlink:href="soc_8hpp.html" target="_top" xlink:title=" ">
<polygon fill="white" stroke="#666666" points="1396,-90.5 1301,-90.5 1301,-71.5 1396,-71.5 1396,-90.5"/>
<text text-anchor="middle" x="1348.5" y="-78.5" font-family="Helvetica,sans-Serif" font-size="10.00">src/core/soc.hpp</text>
</a>
</g>
</g>
<!-- Node2&#45;&gt;Node6 -->
<g id="edge5_Node000002_Node000006" class="edge">
<title>Node2&#45;&gt;Node6</title>
<g id="a_edge5_Node000002_Node000006"><a xlink:title=" ">
<path fill="none" stroke="#63b8ff" d="M698.48,-144.58C818.2,-141.22 1076.49,-130.31 1291.5,-96 1300.05,-94.64 1309.21,-92.63 1317.63,-90.57"/>
<polygon fill="#63b8ff" stroke="#63b8ff" points="698.27,-141.08 688.37,-144.85 698.46,-148.08 698.27,-141.08"/>
</a>
</g>
</g>
<!-- Node10 -->
<g id="Node000010" class="node">
<title>Node10</title>
<g id="a_Node000010"><a xlink:href="control__window_8hpp.html" target="_top" xlink:title="This file defines a window that allows the user to control CPU execution.">
<polygon fill="white" stroke="#666666" points="543,-96 412,-96 412,-66 543,-66 543,-96"/>
<text text-anchor="start" x="420" y="-84" font-family="Helvetica,sans-Serif" font-size="10.00">src/gui/windows/control</text>
<text text-anchor="middle" x="477.5" y="-73" font-family="Helvetica,sans-Serif" font-size="10.00">_window.hpp</text>
</a>
</g>
</g>
<!-- Node2&#45;&gt;Node10 -->
<g id="edge9_Node000002_Node000010" class="edge">
<title>Node2&#45;&gt;Node10</title>
<g id="a_edge9_Node000002_Node000010"><a xlink:title=" ">
<path fill="none" stroke="#63b8ff" d="M588.32,-128.05C563.92,-117.91 533.87,-105.43 511.22,-96.01"/>
<polygon fill="#63b8ff" stroke="#63b8ff" points="587.13,-131.35 597.7,-131.95 589.81,-124.89 587.13,-131.35"/>
</a>
</g>
</g>
<!-- Node12 -->
<g id="Node000012" class="node">
<title>Node12</title>
<g id="a_Node000012"><a xlink:href="registers__window_8hpp.html" target="_top" xlink:title="This file defines a window that displays the contents of all CPU registers.">
<polygon fill="white" stroke="#666666" points="701.5,-96 561.5,-96 561.5,-66 701.5,-66 701.5,-96"/>
<text text-anchor="start" x="569.5" y="-84" font-family="Helvetica,sans-Serif" font-size="10.00">src/gui/windows/registers</text>
<text text-anchor="middle" x="631.5" y="-73" font-family="Helvetica,sans-Serif" font-size="10.00">_window.hpp</text>
</a>
</g>
</g>
<!-- Node2&#45;&gt;Node12 -->
<g id="edge12_Node000002_Node000012" class="edge">
<title>Node2&#45;&gt;Node12</title>
<g id="a_edge12_Node000002_Node000012"><a xlink:title=" ">
<path fill="none" stroke="#63b8ff" d="M631.5,-121.54C631.5,-112.96 631.5,-103.61 631.5,-96.16"/>
<polygon fill="#63b8ff" stroke="#63b8ff" points="628,-121.8 631.5,-131.8 635,-121.8 628,-121.8"/>
</a>
</g>
</g>
<!-- Node14 -->
<g id="Node000014" class="node">
<title>Node14</title>
<g id="a_Node000014"><a xlink:href="source__code__window_8hpp.html" target="_top" xlink:title="This file defines a window that displays loaded ELF files (disassembled instructions of the source co...">
<polygon fill="white" stroke="#666666" points="849.5,-96 719.5,-96 719.5,-66 849.5,-66 849.5,-96"/>
<text text-anchor="start" x="727.5" y="-84" font-family="Helvetica,sans-Serif" font-size="10.00">src/gui/windows/source</text>
<text text-anchor="middle" x="784.5" y="-73" font-family="Helvetica,sans-Serif" font-size="10.00">_code_window.hpp</text>
</a>
</g>
</g>
<!-- Node2&#45;&gt;Node14 -->
<g id="edge15_Node000002_Node000014" class="edge">
<title>Node2&#45;&gt;Node14</title>
<g id="a_edge15_Node000002_Node000014"><a xlink:title=" ">
<path fill="none" stroke="#63b8ff" d="M674.4,-128.05C698.64,-117.91 728.5,-105.43 751,-96.01"/>
<polygon fill="#63b8ff" stroke="#63b8ff" points="672.95,-124.87 665.08,-131.95 675.65,-131.32 672.95,-124.87"/>
</a>
</g>
</g>
<!-- Node16 -->
<g id="Node000016" class="node">
<title>Node16</title>
<g id="a_Node000016"><a xlink:href="top__bar__menu_8hpp.html" target="_top" xlink:title=" ">
<polygon fill="white" stroke="#666666" points="981,-96 868,-96 868,-66 981,-66 981,-96"/>
<text text-anchor="start" x="876" y="-84" font-family="Helvetica,sans-Serif" font-size="10.00">src/gui/windows/top</text>
<text text-anchor="middle" x="924.5" y="-73" font-family="Helvetica,sans-Serif" font-size="10.00">_bar_menu.hpp</text>
</a>
</g>
</g>
<!-- Node2&#45;&gt;Node16 -->
<g id="edge18_Node000002_Node000016" class="edge">
<title>Node2&#45;&gt;Node16</title>
<g id="a_edge18_Node000002_Node000016"><a xlink:title=" ">
<path fill="none" stroke="#63b8ff" d="M698.32,-131.41C749.5,-120.22 819.34,-104.97 867.82,-94.38"/>
<polygon fill="#63b8ff" stroke="#63b8ff" points="697.36,-128.03 688.34,-133.58 698.86,-134.87 697.36,-128.03"/>
</a>
</g>
</g>
<!-- Node7 -->
<g id="Node000007" class="node">
<title>Node7</title>
<g id="a_Node000007"><a xlink:href="soc_8cpp.html" target="_top" xlink:title=" ">
<polygon fill="white" stroke="#666666" points="1467,-24.5 1372,-24.5 1372,-5.5 1467,-5.5 1467,-24.5"/>
<text text-anchor="middle" x="1419.5" y="-12.5" font-family="Helvetica,sans-Serif" font-size="10.00">src/core/soc.cpp</text>
</a>
</g>
</g>
<!-- Node6&#45;&gt;Node7 -->
<g id="edge6_Node000006_Node000007" class="edge">
<title>Node6&#45;&gt;Node7</title>
<g id="a_edge6_Node000006_Node000007"><a xlink:title=" ">
<path fill="none" stroke="#63b8ff" d="M1365.88,-64.33C1379.63,-51.94 1398.33,-35.09 1409.62,-24.91"/>
<polygon fill="#63b8ff" stroke="#63b8ff" points="1363.16,-62.07 1358.08,-71.37 1367.85,-67.27 1363.16,-62.07"/>
</a>
</g>
</g>
<!-- Node8 -->
<g id="Node000008" class="node">
<title>Node8</title>
<g id="a_Node000008"><a xlink:href="gui_8cpp.html" target="_top" xlink:title="This file implements the main GUI entry function that takes care of creating and rendering all window...">
<polygon fill="white" stroke="#666666" points="1086,-24.5 999,-24.5 999,-5.5 1086,-5.5 1086,-24.5"/>
<text text-anchor="middle" x="1042.5" y="-12.5" font-family="Helvetica,sans-Serif" font-size="10.00">src/gui/gui.cpp</text>
</a>
</g>
</g>
<!-- Node6&#45;&gt;Node8 -->
<g id="edge7_Node000006_Node000008" class="edge">
<title>Node6&#45;&gt;Node8</title>
<g id="a_edge7_Node000006_Node000008"><a xlink:title=" ">
<path fill="none" stroke="#63b8ff" d="M1305.15,-69.07C1300.55,-67.99 1295.94,-66.95 1291.5,-66 1204.9,-47.43 1181.93,-49.32 1095.5,-30 1088.26,-28.38 1080.51,-26.45 1073.23,-24.54"/>
<polygon fill="#63b8ff" stroke="#63b8ff" points="1304.58,-72.53 1315.12,-71.45 1306.21,-65.72 1304.58,-72.53"/>
</a>
</g>
</g>
<!-- Node9 -->
<g id="Node000009" class="node">
<title>Node9</title>
<g id="a_Node000009"><a xlink:href="main_8cpp.html" target="_top" xlink:title="This file defines and implements the main function of the application.">
<polygon fill="white" stroke="#666666" points="1354,-24.5 1275,-24.5 1275,-5.5 1354,-5.5 1354,-24.5"/>
<text text-anchor="middle" x="1314.5" y="-12.5" font-family="Helvetica,sans-Serif" font-size="10.00">src/main.cpp</text>
</a>
</g>
</g>
<!-- Node6&#45;&gt;Node9 -->
<g id="edge8_Node000006_Node000009" class="edge">
<title>Node6&#45;&gt;Node9</title>
<g id="a_edge8_Node000006_Node000009"><a xlink:title=" ">
<path fill="none" stroke="#63b8ff" d="M1339.04,-62.18C1332.59,-50.05 1324.33,-34.51 1319.23,-24.91"/>
<polygon fill="#63b8ff" stroke="#63b8ff" points="1336.13,-64.18 1343.91,-71.37 1342.31,-60.9 1336.13,-64.18"/>
</a>
</g>
</g>
<!-- Node10&#45;&gt;Node8 -->
<g id="edge10_Node000010_Node000008" class="edge">
<title>Node10&#45;&gt;Node8</title>
<g id="a_edge10_Node000010_Node000008"><a xlink:title=" ">
<path fill="none" stroke="#63b8ff" d="M553.24,-66.01C747.41,-40.83 800.63,-62.47 989.5,-30 997.47,-28.63 1005.99,-26.63 1013.82,-24.56"/>
<polygon fill="#63b8ff" stroke="#63b8ff" points="552.74,-62.55 543.29,-67.33 553.66,-69.49 552.74,-62.55"/>
</a>
</g>
</g>
<!-- Node11 -->
<g id="Node000011" class="node">
<title>Node11</title>
<g id="a_Node000011"><a xlink:href="control__window_8cpp.html" target="_top" xlink:title="This file implements a window that allows the user to control CPU execution.">
<polygon fill="white" stroke="#666666" points="543,-30 412,-30 412,0 543,0 543,-30"/>
<text text-anchor="start" x="420" y="-18" font-family="Helvetica,sans-Serif" font-size="10.00">src/gui/windows/control</text>
<text text-anchor="middle" x="477.5" y="-7" font-family="Helvetica,sans-Serif" font-size="10.00">_window.cpp</text>
</a>
</g>
</g>
<!-- Node10&#45;&gt;Node11 -->
<g id="edge11_Node000010_Node000011" class="edge">
<title>Node10&#45;&gt;Node11</title>
<g id="a_edge11_Node000010_Node000011"><a xlink:title=" ">
<path fill="none" stroke="#63b8ff" d="M477.5,-55.54C477.5,-46.96 477.5,-37.61 477.5,-30.16"/>
<polygon fill="#63b8ff" stroke="#63b8ff" points="474,-55.8 477.5,-65.8 481,-55.8 474,-55.8"/>
</a>
</g>
</g>
<!-- Node12&#45;&gt;Node8 -->
<g id="edge13_Node000012_Node000008" class="edge">
<title>Node12&#45;&gt;Node8</title>
<g id="a_edge13_Node000012_Node000008"><a xlink:title=" ">
<path fill="none" stroke="#63b8ff" d="M711.58,-65.89C835.81,-47.42 869.92,-53.41 989.5,-30 997.16,-28.5 1005.35,-26.53 1012.94,-24.53"/>
<polygon fill="#63b8ff" stroke="#63b8ff" points="711.05,-62.43 701.68,-67.39 712.09,-69.35 711.05,-62.43"/>
</a>
</g>
</g>
<!-- Node13 -->
<g id="Node000013" class="node">
<title>Node13</title>
<g id="a_Node000013"><a xlink:href="registers__window_8cpp.html" target="_top" xlink:title="This file implements a window that displays the contents of all CPU registers.">
<polygon fill="white" stroke="#666666" points="701.5,-30 561.5,-30 561.5,0 701.5,0 701.5,-30"/>
<text text-anchor="start" x="569.5" y="-18" font-family="Helvetica,sans-Serif" font-size="10.00">src/gui/windows/registers</text>
<text text-anchor="middle" x="631.5" y="-7" font-family="Helvetica,sans-Serif" font-size="10.00">_window.cpp</text>
</a>
</g>
</g>
<!-- Node12&#45;&gt;Node13 -->
<g id="edge14_Node000012_Node000013" class="edge">
<title>Node12&#45;&gt;Node13</title>
<g id="a_edge14_Node000012_Node000013"><a xlink:title=" ">
<path fill="none" stroke="#63b8ff" d="M631.5,-55.54C631.5,-46.96 631.5,-37.61 631.5,-30.16"/>
<polygon fill="#63b8ff" stroke="#63b8ff" points="628,-55.8 631.5,-65.8 635,-55.8 628,-55.8"/>
</a>
</g>
</g>
<!-- Node14&#45;&gt;Node8 -->
<g id="edge16_Node000014_Node000008" class="edge">
<title>Node14&#45;&gt;Node8</title>
<g id="a_edge16_Node000014_Node000008"><a xlink:title=" ">
<path fill="none" stroke="#63b8ff" d="M853.21,-63.59C893.06,-53.98 944.17,-41.51 989.5,-30 996.33,-28.27 1003.63,-26.36 1010.58,-24.54"/>
<polygon fill="#63b8ff" stroke="#63b8ff" points="852.24,-60.22 843.34,-65.96 853.88,-67.03 852.24,-60.22"/>
</a>
</g>
</g>
<!-- Node15 -->
<g id="Node000015" class="node">
<title>Node15</title>
<g id="a_Node000015"><a xlink:href="source__code__window_8cpp.html" target="_top" xlink:title="This file implements a window that displays loaded ELF files (disassembled instructions of the source...">
<polygon fill="white" stroke="#666666" points="849.5,-30 719.5,-30 719.5,0 849.5,0 849.5,-30"/>
<text text-anchor="start" x="727.5" y="-18" font-family="Helvetica,sans-Serif" font-size="10.00">src/gui/windows/source</text>
<text text-anchor="middle" x="784.5" y="-7" font-family="Helvetica,sans-Serif" font-size="10.00">_code_window.cpp</text>
</a>
</g>
</g>
<!-- Node14&#45;&gt;Node15 -->
<g id="edge17_Node000014_Node000015" class="edge">
<title>Node14&#45;&gt;Node15</title>
<g id="a_edge17_Node000014_Node000015"><a xlink:title=" ">
<path fill="none" stroke="#63b8ff" d="M784.5,-55.54C784.5,-46.96 784.5,-37.61 784.5,-30.16"/>
<polygon fill="#63b8ff" stroke="#63b8ff" points="781,-55.8 784.5,-65.8 788,-55.8 781,-55.8"/>
</a>
</g>
</g>
<!-- Node16&#45;&gt;Node8 -->
<g id="edge19_Node000016_Node000008" class="edge">
<title>Node16&#45;&gt;Node8</title>
<g id="a_edge19_Node000016_Node000008"><a xlink:title=" ">
<path fill="none" stroke="#63b8ff" d="M959.28,-61.14C981.65,-49 1009.65,-33.82 1026.8,-24.52"/>
<polygon fill="#63b8ff" stroke="#63b8ff" points="957.52,-58.11 950.4,-65.95 960.85,-64.26 957.52,-58.11"/>
</a>
</g>
</g>
<!-- Node17 -->
<g id="Node000017" class="node">
<title>Node17</title>
<g id="a_Node000017"><a xlink:href="top__bar__menu_8cpp.html" target="_top" xlink:title=" ">
<polygon fill="white" stroke="#666666" points="981,-30 868,-30 868,0 981,0 981,-30"/>
<text text-anchor="start" x="876" y="-18" font-family="Helvetica,sans-Serif" font-size="10.00">src/gui/windows/top</text>
<text text-anchor="middle" x="924.5" y="-7" font-family="Helvetica,sans-Serif" font-size="10.00">_bar_menu.cpp</text>
</a>
</g>
</g>
<!-- Node16&#45;&gt;Node17 -->
<g id="edge20_Node000016_Node000017" class="edge">
<title>Node16&#45;&gt;Node17</title>
<g id="a_edge20_Node000016_Node000017"><a xlink:title=" ">
<path fill="none" stroke="#63b8ff" d="M924.5,-55.54C924.5,-46.96 924.5,-37.61 924.5,-30.16"/>
<polygon fill="#63b8ff" stroke="#63b8ff" points="921,-55.8 924.5,-65.8 928,-55.8 921,-55.8"/>
</a>
</g>
</g>
<!-- Node18&#45;&gt;Node6 -->
<g id="edge23_Node000018_Node000006" class="edge">
<title>Node18&#45;&gt;Node6</title>
<g id="a_edge23_Node000018_Node000006"><a xlink:title=" ">
<path fill="none" stroke="#63b8ff" d="M1286.12,-125.87C1302.96,-114.03 1323.41,-99.65 1336.19,-90.66"/>
<polygon fill="#63b8ff" stroke="#63b8ff" points="1283.86,-123.18 1277.7,-131.8 1287.89,-128.91 1283.86,-123.18"/>
</a>
</g>
</g>
<!-- Node19 -->
<g id="Node000019" class="node">
<title>Node19</title>
<g id="a_Node000019"><a xlink:href="arm__timer_8cpp.html" target="_top" xlink:title="This file implements the ARM timer used in BCM2835 as defined in arm_timer.hpp.">
<polygon fill="white" stroke="#666666" points="1283,-96 1170,-96 1170,-66 1283,-66 1283,-96"/>
<text text-anchor="start" x="1178" y="-84" font-family="Helvetica,sans-Serif" font-size="10.00">src/core/peripherals</text>
<text text-anchor="middle" x="1226.5" y="-73" font-family="Helvetica,sans-Serif" font-size="10.00">/arm_timer.cpp</text>
</a>
</g>
</g>
<!-- Node18&#45;&gt;Node19 -->
<g id="edge22_Node000018_Node000019" class="edge">
<title>Node18&#45;&gt;Node19</title>
<g id="a_edge22_Node000018_Node000019"><a xlink:title=" ">
<path fill="none" stroke="#63b8ff" d="M1246.2,-122.68C1241.9,-113.79 1237.13,-103.95 1233.36,-96.16"/>
<polygon fill="#63b8ff" stroke="#63b8ff" points="1243.11,-124.32 1250.62,-131.8 1249.41,-121.27 1243.11,-124.32"/>
</a>
</g>
</g>
<!-- Node20 -->
<g id="Node000020" class="node">
<title>Node20</title>
<g id="a_Node000020"><a xlink:href="arm__timer__window_8hpp.html" target="_top" xlink:title="This file defines a window that visualizes the contents of the ARM timer registers.">
<polygon fill="white" stroke="#666666" points="1151.5,-96 999.5,-96 999.5,-66 1151.5,-66 1151.5,-96"/>
<text text-anchor="start" x="1007.5" y="-84" font-family="Helvetica,sans-Serif" font-size="10.00">src/gui/windows/peripherals</text>
<text text-anchor="middle" x="1075.5" y="-73" font-family="Helvetica,sans-Serif" font-size="10.00">/arm_timer_window.hpp</text>
</a>
</g>
</g>
<!-- Node18&#45;&gt;Node20 -->
<g id="edge24_Node000018_Node000020" class="edge">
<title>Node18&#45;&gt;Node20</title>
<g id="a_edge24_Node000018_Node000020"><a xlink:title=" ">
<path fill="none" stroke="#63b8ff" d="M1207.99,-128.59C1178.89,-118.36 1142.59,-105.59 1115.35,-96.01"/>
<polygon fill="#63b8ff" stroke="#63b8ff" points="1206.96,-131.94 1217.56,-131.95 1209.29,-125.34 1206.96,-131.94"/>
</a>
</g>
</g>
<!-- Node20&#45;&gt;Node8 -->
<g id="edge25_Node000020_Node000008" class="edge">
<title>Node20&#45;&gt;Node8</title>
<g id="a_edge25_Node000020_Node000008"><a xlink:title=" ">
<path fill="none" stroke="#63b8ff" d="M1063.44,-56.61C1057.74,-45.56 1051.28,-33.03 1047.06,-24.84"/>
<polygon fill="#63b8ff" stroke="#63b8ff" points="1060.48,-58.51 1068.18,-65.8 1066.7,-55.3 1060.48,-58.51"/>
</a>
</g>
</g>
<!-- Node21 -->
<g id="Node000021" class="node">
<title>Node21</title>
<g id="a_Node000021"><a xlink:href="arm__timer__window_8cpp.html" target="_top" xlink:title="This file implements a window that visualizes the contents of the ARM timer registers.">
<polygon fill="white" stroke="#666666" points="1256.5,-30 1104.5,-30 1104.5,0 1256.5,0 1256.5,-30"/>
<text text-anchor="start" x="1112.5" y="-18" font-family="Helvetica,sans-Serif" font-size="10.00">src/gui/windows/peripherals</text>
<text text-anchor="middle" x="1180.5" y="-7" font-family="Helvetica,sans-Serif" font-size="10.00">/arm_timer_window.cpp</text>
</a>
</g>
</g>
<!-- Node20&#45;&gt;Node21 -->
<g id="edge26_Node000020_Node000021" class="edge">
<title>Node20&#45;&gt;Node21</title>
<g id="a_edge26_Node000020_Node000021"><a xlink:title=" ">
<path fill="none" stroke="#63b8ff" d="M1107.17,-60.69C1123.38,-50.82 1142.75,-39.01 1157.51,-30.01"/>
<polygon fill="#63b8ff" stroke="#63b8ff" points="1105.26,-57.76 1098.54,-65.95 1108.9,-63.74 1105.26,-57.76"/>
</a>
</g>
</g>
<!-- Node22&#45;&gt;Node6 -->
<g id="edge30_Node000022_Node000006" class="edge">
<title>Node22&#45;&gt;Node6</title>
<g id="a_edge30_Node000022_Node000006"><a xlink:title=" ">
<path fill="none" stroke="#63b8ff" d="M1425.52,-126.81C1404.76,-114.73 1378.98,-99.73 1363.14,-90.52"/>
<polygon fill="#63b8ff" stroke="#63b8ff" points="1423.96,-129.95 1434.36,-131.95 1427.48,-123.9 1423.96,-129.95"/>
</a>
</g>
</g>
<!-- Node23 -->
<g id="Node000023" class="node">
<title>Node23</title>
<g id="a_Node000023"><a xlink:href="auxiliary_8cpp.html" target="_top" xlink:title=" ">
<polygon fill="white" stroke="#666666" points="1862,-96 1735,-96 1735,-66 1862,-66 1862,-96"/>
<text text-anchor="start" x="1743" y="-84" font-family="Helvetica,sans-Serif" font-size="10.00">src/core/peripherals</text>
<text text-anchor="middle" x="1798.5" y="-73" font-family="Helvetica,sans-Serif" font-size="10.00">/auxiliary/auxiliary.cpp</text>
</a>
</g>
</g>
<!-- Node22&#45;&gt;Node23 -->
<g id="edge28_Node000022_Node000023" class="edge">
<title>Node22&#45;&gt;Node23</title>
<g id="a_edge28_Node000022_Node000023"><a xlink:title=" ">
<path fill="none" stroke="#63b8ff" d="M1532.62,-131.8C1619.32,-115.47 1642.44,-111.67 1725.5,-96 1728.54,-95.43 1731.66,-94.84 1734.8,-94.24"/>
<polygon fill="#63b8ff" stroke="#63b8ff" points="1531.77,-128.39 1522.59,-133.69 1533.07,-135.27 1531.77,-128.39"/>
</a>
</g>
</g>
<!-- Node24 -->
<g id="Node000024" class="node">
<title>Node24</title>
<g id="a_Node000024"><a xlink:href="mini__uart_8cpp.html" target="_top" xlink:title="This file implements the Mini UART auxiliary peripheral used in BCM2835.">
<polygon fill="white" stroke="#666666" points="1716.5,-96 1584.5,-96 1584.5,-66 1716.5,-66 1716.5,-96"/>
<text text-anchor="start" x="1592.5" y="-84" font-family="Helvetica,sans-Serif" font-size="10.00">src/core/peripherals</text>
<text text-anchor="middle" x="1650.5" y="-73" font-family="Helvetica,sans-Serif" font-size="10.00">/auxiliary/mini_uart.cpp</text>
</a>
</g>
</g>
<!-- Node22&#45;&gt;Node24 -->
<g id="edge29_Node000022_Node000024" class="edge">
<title>Node22&#45;&gt;Node24</title>
<g id="a_edge29_Node000022_Node000024"><a xlink:title=" ">
<path fill="none" stroke="#63b8ff" d="M1510.33,-128.72C1541.09,-118.47 1579.6,-105.63 1608.46,-96.01"/>
<polygon fill="#63b8ff" stroke="#63b8ff" points="1509.02,-125.47 1500.64,-131.95 1511.23,-132.11 1509.02,-125.47"/>
</a>
</g>
</g>
<!-- Node25 -->
<g id="Node000025" class="node">
<title>Node25</title>
<g id="a_Node000025"><a xlink:href="aux__window_8hpp.html" target="_top" xlink:title="This file defines a window that visualizes the auxiliaries (UART1 &amp; SPI1, and SPI2) used in BCM2835.">
<polygon fill="white" stroke="#666666" points="1566.5,-96 1414.5,-96 1414.5,-66 1566.5,-66 1566.5,-96"/>
<text text-anchor="start" x="1422.5" y="-84" font-family="Helvetica,sans-Serif" font-size="10.00">src/gui/windows/peripherals</text>
<text text-anchor="middle" x="1490.5" y="-73" font-family="Helvetica,sans-Serif" font-size="10.00">/aux_window.hpp</text>
</a>
</g>
</g>
<!-- Node22&#45;&gt;Node25 -->
<g id="edge31_Node000022_Node000025" class="edge">
<title>Node22&#45;&gt;Node25</title>
<g id="a_edge31_Node000022_Node000025"><a xlink:title=" ">
<path fill="none" stroke="#63b8ff" d="M1470.16,-122.68C1474.6,-113.79 1479.53,-103.95 1483.42,-96.16"/>
<polygon fill="#63b8ff" stroke="#63b8ff" points="1466.94,-121.29 1465.6,-131.8 1473.2,-124.42 1466.94,-121.29"/>
</a>
</g>
</g>
<!-- Node25&#45;&gt;Node8 -->
<g id="edge32_Node000025_Node000008" class="edge">
<title>Node25&#45;&gt;Node8</title>
<g id="a_edge32_Node000025_Node000008"><a xlink:title=" ">
<path fill="none" stroke="#63b8ff" d="M1403.97,-65.98C1265.81,-47.28 1228.16,-55.12 1095.5,-30 1087.74,-28.53 1079.44,-26.54 1071.77,-24.53"/>
<polygon fill="#63b8ff" stroke="#63b8ff" points="1403.71,-69.48 1414.09,-67.38 1404.67,-62.55 1403.71,-69.48"/>
</a>
</g>
</g>
<!-- Node26 -->
<g id="Node000026" class="node">
<title>Node26</title>
<g id="a_Node000026"><a xlink:href="aux__window_8cpp.html" target="_top" xlink:title="This file implements a window that visualizes the auxiliaries (UART1 &amp; SPI1, and SPI2) used in BCM283...">
<polygon fill="white" stroke="#666666" points="1637.5,-30 1485.5,-30 1485.5,0 1637.5,0 1637.5,-30"/>
<text text-anchor="start" x="1493.5" y="-18" font-family="Helvetica,sans-Serif" font-size="10.00">src/gui/windows/peripherals</text>
<text text-anchor="middle" x="1561.5" y="-7" font-family="Helvetica,sans-Serif" font-size="10.00">/aux_window.cpp</text>
</a>
</g>
</g>
<!-- Node25&#45;&gt;Node26 -->
<g id="edge33_Node000025_Node000026" class="edge">
<title>Node25&#45;&gt;Node26</title>
<g id="a_edge33_Node000025_Node000026"><a xlink:title=" ">
<path fill="none" stroke="#63b8ff" d="M1513.88,-58.92C1524.35,-49.49 1536.42,-38.61 1545.79,-30.16"/>
<polygon fill="#63b8ff" stroke="#63b8ff" points="1511.34,-56.5 1506.26,-65.8 1516.03,-61.7 1511.34,-56.5"/>
</a>
</g>
</g>
<!-- Node27&#45;&gt;Node6 -->
<g id="edge36_Node000027_Node000006" class="edge">
<title>Node27&#45;&gt;Node6</title>
<g id="a_edge36_Node000027_Node000006"><a xlink:title=" ">
<path fill="none" stroke="#63b8ff" d="M1533.08,-129.44C1484.61,-116.98 1420.15,-100.42 1381.64,-90.52"/>
<polygon fill="#63b8ff" stroke="#63b8ff" points="1532.3,-132.86 1542.86,-131.95 1534.04,-126.08 1532.3,-132.86"/>
</a>
</g>
</g>
<!-- Node28 -->
<g id="Node000028" class="node">
<title>Node28</title>
<g id="a_Node000028"><a xlink:href="bsc_8cpp.html" target="_top" xlink:title="This file implements the BSC peripheral used in BCM2835.">
<polygon fill="white" stroke="#666666" points="1993,-96 1880,-96 1880,-66 1993,-66 1993,-96"/>
<text text-anchor="start" x="1888" y="-84" font-family="Helvetica,sans-Serif" font-size="10.00">src/core/peripherals</text>
<text text-anchor="middle" x="1936.5" y="-73" font-family="Helvetica,sans-Serif" font-size="10.00">/bsc.cpp</text>
</a>
</g>
</g>
<!-- Node27&#45;&gt;Node28 -->
<g id="edge35_Node000027_Node000028" class="edge">
<title>Node27&#45;&gt;Node28</title>
<g id="a_edge35_Node000027_Node000028"><a xlink:title=" ">
<path fill="none" stroke="#63b8ff" d="M1664.08,-134.46C1719.63,-124.68 1800.85,-110.05 1871.5,-96 1874.22,-95.46 1877,-94.9 1879.8,-94.32"/>
<polygon fill="#63b8ff" stroke="#63b8ff" points="1663.26,-131.05 1654.01,-136.23 1664.47,-137.94 1663.26,-131.05"/>
</a>
</g>
</g>
</g>
</svg>
