<?xml version="1.0" encoding="UTF-8" standalone="no"?>
<!DOCTYPE svg PUBLIC "-//W3C//DTD SVG 1.1//EN"
 "http://www.w3.org/Graphics/SVG/1.1/DTD/svg11.dtd">
<!-- Generated by graphviz version 2.43.0 (0)
 -->
<!-- Title: src/gui/window.hpp Pages: 1 -->
<svg width="2372pt" height="159pt"
 viewBox="0.00 0.00 2372.00 159.00" xmlns="http://www.w3.org/2000/svg" xmlns:xlink="http://www.w3.org/1999/xlink">
<g id="graph0" class="graph" transform="scale(1 1) rotate(0) translate(4 155)">
<title>src/gui/window.hpp</title>
<!-- Node1 -->
<g id="Node000001" class="node">
<title>Node1</title>
<g id="a_Node000001"><a xlink:title="This file defines an interface for all windows that will be rendered by the application.">
<polygon fill="#999999" stroke="#666666" points="1192.5,-151 1082.5,-151 1082.5,-132 1192.5,-132 1192.5,-151"/>
<text text-anchor="middle" x="1137.5" y="-139" font-family="Helvetica,sans-Serif" font-size="10.00">src/gui/window.hpp</text>
</a>
</g>
</g>
<!-- Node2 -->
<g id="Node000002" class="node">
<title>Node2</title>
<g id="a_Node000002"><a xlink:href="gui_8cpp.html" target="_top" xlink:title="This file implements the main GUI entry function that takes care of creating and rendering all window...">
<polygon fill="white" stroke="#666666" points="1129,-24.5 1042,-24.5 1042,-5.5 1129,-5.5 1129,-24.5"/>
<text text-anchor="middle" x="1085.5" y="-12.5" font-family="Helvetica,sans-Serif" font-size="10.00">src/gui/gui.cpp</text>
</a>
</g>
</g>
<!-- Node1&#45;&gt;Node2 -->
<g id="edge1_Node000001_Node000002" class="edge">
<title>Node1&#45;&gt;Node2</title>
<g id="a_edge1_Node000001_Node000002"><a xlink:title=" ">
<path fill="none" stroke="#63b8ff" d="M1122.92,-124.21C1116.43,-116.21 1109.21,-106.12 1104.5,-96 1093.18,-71.67 1088.24,-39.93 1086.41,-24.78"/>
<polygon fill="#63b8ff" stroke="#63b8ff" points="1120.37,-126.63 1129.51,-131.99 1125.71,-122.1 1120.37,-126.63"/>
</a>
</g>
</g>
<!-- Node3 -->
<g id="Node000003" class="node">
<title>Node3</title>
<g id="a_Node000003"><a xlink:href="window_8cpp.html" target="_top" xlink:title="This file implements common functions that can be used throughout the GUI of the application.">
<polygon fill="white" stroke="#666666" points="2364,-90.5 2255,-90.5 2255,-71.5 2364,-71.5 2364,-90.5"/>
<text text-anchor="middle" x="2309.5" y="-78.5" font-family="Helvetica,sans-Serif" font-size="10.00">src/gui/window.cpp</text>
</a>
</g>
</g>
<!-- Node1&#45;&gt;Node3 -->
<g id="edge2_Node000001_Node000003" class="edge">
<title>Node1&#45;&gt;Node3</title>
<g id="a_edge2_Node000001_Node000003"><a xlink:title=" ">
<path fill="none" stroke="#63b8ff" d="M1202.83,-139.41C1408.77,-135.74 2042.74,-122.51 2246.5,-96 2256.28,-94.73 2266.78,-92.68 2276.35,-90.53"/>
<polygon fill="#63b8ff" stroke="#63b8ff" points="1202.71,-135.91 1192.77,-139.59 1202.83,-142.91 1202.71,-135.91"/>
</a>
</g>
</g>
<!-- Node4 -->
<g id="Node000004" class="node">
<title>Node4</title>
<g id="a_Node000004"><a xlink:href="control__window_8hpp.html" target="_top" xlink:title="This file defines a window that allows the user to control CPU execution.">
<polygon fill="white" stroke="#666666" points="165,-96 34,-96 34,-66 165,-66 165,-96"/>
<text text-anchor="start" x="42" y="-84" font-family="Helvetica,sans-Serif" font-size="10.00">src/gui/windows/control</text>
<text text-anchor="middle" x="99.5" y="-73" font-family="Helvetica,sans-Serif" font-size="10.00">_window.hpp</text>
</a>
</g>
</g>
<!-- Node1&#45;&gt;Node4 -->
<g id="edge3_Node000001_Node000004" class="edge">
<title>Node1&#45;&gt;Node4</title>
<g id="a_edge3_Node000001_Node000004"><a xlink:title=" ">
<path fill="none" stroke="#63b8ff" d="M1072.03,-140.65C915.94,-140.32 509.81,-135.38 173.5,-96 170.77,-95.68 168,-95.32 165.19,-94.93"/>
<polygon fill="#63b8ff" stroke="#63b8ff" points="1072.39,-144.15 1082.39,-140.67 1072.4,-137.15 1072.39,-144.15"/>
</a>
</g>
</g>
<!-- Node6 -->
<g id="Node000006" class="node">
<title>Node6</title>
<g id="a_Node000006"><a xlink:href="cp10__window_8hpp.html" target="_top" xlink:title="This file defines a window that displays data (information) related to coprocessor 10 (FPU).">
<polygon fill="white" stroke="#666666" points="304,-96 183,-96 183,-66 304,-66 304,-96"/>
<text text-anchor="start" x="191" y="-84" font-family="Helvetica,sans-Serif" font-size="10.00">src/gui/windows/cp10</text>
<text text-anchor="middle" x="243.5" y="-73" font-family="Helvetica,sans-Serif" font-size="10.00">_window.hpp</text>
</a>
</g>
</g>
<!-- Node1&#45;&gt;Node6 -->
<g id="edge6_Node000001_Node000006" class="edge">
<title>Node1&#45;&gt;Node6</title>
<g id="a_edge6_Node000001_Node000006"><a xlink:title=" ">
<path fill="none" stroke="#63b8ff" d="M1072.09,-140.21C932.15,-138.89 593.59,-131.9 312.5,-96 309.83,-95.66 307.11,-95.27 304.37,-94.85"/>
<polygon fill="#63b8ff" stroke="#63b8ff" points="1072.19,-143.72 1082.22,-140.3 1072.25,-136.72 1072.19,-143.72"/>
</a>
</g>
</g>
<!-- Node8 -->
<g id="Node000008" class="node">
<title>Node8</title>
<g id="a_Node000008"><a xlink:href="cp15__window_8hpp.html" target="_top" xlink:title="This file defines a window that displays data (information) related to coprocessor 15.">
<polygon fill="white" stroke="#666666" points="443,-96 322,-96 322,-66 443,-66 443,-96"/>
<text text-anchor="start" x="330" y="-84" font-family="Helvetica,sans-Serif" font-size="10.00">src/gui/windows/cp15</text>
<text text-anchor="middle" x="382.5" y="-73" font-family="Helvetica,sans-Serif" font-size="10.00">_window.hpp</text>
</a>
</g>
</g>
<!-- Node1&#45;&gt;Node8 -->
<g id="edge9_Node000001_Node000008" class="edge">
<title>Node1&#45;&gt;Node8</title>
<g id="a_edge9_Node000001_Node000008"><a xlink:title=" ">
<path fill="none" stroke="#63b8ff" d="M1071.79,-139.19C949.3,-136.11 677.95,-126.18 451.5,-96 448.71,-95.63 445.87,-95.21 443,-94.76"/>
<polygon fill="#63b8ff" stroke="#63b8ff" points="1072.04,-142.7 1082.12,-139.45 1072.21,-135.7 1072.04,-142.7"/>
</a>
</g>
</g>
<!-- Node10 -->
<g id="Node000010" class="node">
<title>Node10</title>
<g id="a_Node000010"><a xlink:href="demo__window_8hpp.html" target="_top" xlink:title="This file defines a window that displays the ImGui and ImPlot demos (used for debugging).">
<polygon fill="white" stroke="#666666" points="586,-96 461,-96 461,-66 586,-66 586,-96"/>
<text text-anchor="start" x="469" y="-84" font-family="Helvetica,sans-Serif" font-size="10.00">src/gui/windows/demo</text>
<text text-anchor="middle" x="523.5" y="-73" font-family="Helvetica,sans-Serif" font-size="10.00">_window.hpp</text>
</a>
</g>
</g>
<!-- Node1&#45;&gt;Node10 -->
<g id="edge12_Node000001_Node000010" class="edge">
<title>Node1&#45;&gt;Node10</title>
<g id="a_edge12_Node000001_Node000010"><a xlink:title=" ">
<path fill="none" stroke="#63b8ff" d="M1071.99,-137.52C969.67,-132.34 765.91,-119.85 594.5,-96 591.76,-95.62 588.97,-95.2 586.16,-94.75"/>
<polygon fill="#63b8ff" stroke="#63b8ff" points="1072,-141.03 1082.16,-138.03 1072.35,-134.04 1072,-141.03"/>
</a>
</g>
</g>
<!-- Node12 -->
<g id="Node000012" class="node">
<title>Node12</title>
<g id="a_Node000012"><a xlink:href="log__window_8hpp.html" target="_top" xlink:title="This file defines a window that displays log messages.">
<polygon fill="white" stroke="#666666" points="717,-96 604,-96 604,-66 717,-66 717,-96"/>
<text text-anchor="start" x="612" y="-84" font-family="Helvetica,sans-Serif" font-size="10.00">src/gui/windows/log</text>
<text text-anchor="middle" x="660.5" y="-73" font-family="Helvetica,sans-Serif" font-size="10.00">_window.hpp</text>
</a>
</g>
</g>
<!-- Node1&#45;&gt;Node12 -->
<g id="edge15_Node000001_Node000012" class="edge">
<title>Node1&#45;&gt;Node12</title>
<g id="a_edge15_Node000001_Node000012"><a xlink:title=" ">
<path fill="none" stroke="#63b8ff" d="M1072.34,-135.49C991.06,-128.78 847.99,-115.41 726.5,-96 723.49,-95.52 720.42,-94.99 717.31,-94.43"/>
<polygon fill="#63b8ff" stroke="#63b8ff" points="1072.17,-138.99 1082.42,-136.32 1072.74,-132.01 1072.17,-138.99"/>
</a>
</g>
</g>
<!-- Node14 -->
<g id="Node000014" class="node">
<title>Node14</title>
<g id="a_Node000014"><a xlink:href="arm__timer__window_8hpp.html" target="_top" xlink:title="This file defines a window that visualizes the contents of the ARM timer registers.">
<polygon fill="white" stroke="#666666" points="887.5,-96 735.5,-96 735.5,-66 887.5,-66 887.5,-96"/>
<text text-anchor="start" x="743.5" y="-84" font-family="Helvetica,sans-Serif" font-size="10.00">src/gui/windows/peripherals</text>
<text text-anchor="middle" x="811.5" y="-73" font-family="Helvetica,sans-Serif" font-size="10.00">/arm_timer_window.hpp</text>
</a>
</g>
</g>
<!-- Node1&#45;&gt;Node14 -->
<g id="edge18_Node000001_Node000014" class="edge">
<title>Node1&#45;&gt;Node14</title>
<g id="a_edge18_Node000001_Node000014"><a xlink:title=" ">
<path fill="none" stroke="#63b8ff" d="M1080.1,-130.2C1026.62,-120.6 946.5,-106.22 887.68,-95.67"/>
<polygon fill="#63b8ff" stroke="#63b8ff" points="1079.64,-133.67 1090.1,-131.99 1080.87,-126.78 1079.64,-133.67"/>
</a>
</g>
</g>
<!-- Node16 -->
<g id="Node000016" class="node">
<title>Node16</title>
<g id="a_Node000016"><a xlink:href="aux__window_8hpp.html" target="_top" xlink:title="This file defines a window that visualizes the auxiliaries (UART1 &amp; SPI1, and SPI2) used in BCM2835.">
<polygon fill="white" stroke="#666666" points="1057.5,-96 905.5,-96 905.5,-66 1057.5,-66 1057.5,-96"/>
<text text-anchor="start" x="913.5" y="-84" font-family="Helvetica,sans-Serif" font-size="10.00">src/gui/windows/peripherals</text>
<text text-anchor="middle" x="981.5" y="-73" font-family="Helvetica,sans-Serif" font-size="10.00">/aux_window.hpp</text>
</a>
</g>
</g>
<!-- Node1&#45;&gt;Node16 -->
<g id="edge21_Node000001_Node000016" class="edge">
<title>Node1&#45;&gt;Node16</title>
<g id="a_edge21_Node000001_Node000016"><a xlink:title=" ">
<path fill="none" stroke="#63b8ff" d="M1105.39,-128.46C1080.3,-119.05 1045.38,-105.95 1019,-96.06"/>
<polygon fill="#63b8ff" stroke="#63b8ff" points="1104.22,-131.76 1114.82,-131.99 1106.68,-125.21 1104.22,-131.76"/>
</a>
</g>
</g>
<!-- Node18 -->
<g id="Node000018" class="node">
<title>Node18</title>
<g id="a_Node000018"><a xlink:href="gpio__window_8hpp.html" target="_top" xlink:title="This file defines a window that visualizes the states and information about GPIO pins.">
<polygon fill="white" stroke="#666666" points="1265.5,-96 1113.5,-96 1113.5,-66 1265.5,-66 1265.5,-96"/>
<text text-anchor="start" x="1121.5" y="-84" font-family="Helvetica,sans-Serif" font-size="10.00">src/gui/windows/peripherals</text>
<text text-anchor="middle" x="1189.5" y="-73" font-family="Helvetica,sans-Serif" font-size="10.00">/gpio_window.hpp</text>
</a>
</g>
</g>
<!-- Node1&#45;&gt;Node18 -->
<g id="edge24_Node000001_Node000018" class="edge">
<title>Node1&#45;&gt;Node18</title>
<g id="a_edge24_Node000001_Node000018"><a xlink:title=" ">
<path fill="none" stroke="#63b8ff" d="M1152.03,-124.15C1159.87,-115.34 1169.44,-104.56 1176.95,-96.11"/>
<polygon fill="#63b8ff" stroke="#63b8ff" points="1149.2,-122.07 1145.17,-131.87 1154.43,-126.72 1149.2,-122.07"/>
</a>
</g>
</g>
<!-- Node20 -->
<g id="Node000020" class="node">
<title>Node20</title>
<g id="a_Node000020"><a xlink:href="interrupt__controller__window_8hpp.html" target="_top" xlink:title="This file defines a window that visualizes the interrupt controller IC.">
<polygon fill="white" stroke="#666666" points="1459.5,-96 1283.5,-96 1283.5,-66 1459.5,-66 1459.5,-96"/>
<text text-anchor="start" x="1291.5" y="-84" font-family="Helvetica,sans-Serif" font-size="10.00">src/gui/windows/peripherals</text>
<text text-anchor="middle" x="1371.5" y="-73" font-family="Helvetica,sans-Serif" font-size="10.00">/interrupt_controller_window.hpp</text>
</a>
</g>
</g>
<!-- Node1&#45;&gt;Node20 -->
<g id="edge27_Node000001_Node000020" class="edge">
<title>Node1&#45;&gt;Node20</title>
<g id="a_edge27_Node000001_Node000020"><a xlink:title=" ">
<path fill="none" stroke="#63b8ff" d="M1181.24,-129.56C1219.11,-120.1 1274.11,-106.35 1315.24,-96.06"/>
<polygon fill="#63b8ff" stroke="#63b8ff" points="1180.38,-126.17 1171.53,-131.99 1182.08,-132.96 1180.38,-126.17"/>
</a>
</g>
</g>
<!-- Node22 -->
<g id="Node000022" class="node">
<title>Node22</title>
<g id="a_Node000022"><a xlink:href="monitor__window_8hpp.html" target="_top" xlink:title="This file defines a window that visualizes the memory&#45;mapped debug monitor.">
<polygon fill="white" stroke="#666666" points="1629.5,-96 1477.5,-96 1477.5,-66 1629.5,-66 1629.5,-96"/>
<text text-anchor="start" x="1485.5" y="-84" font-family="Helvetica,sans-Serif" font-size="10.00">src/gui/windows/peripherals</text>
<text text-anchor="middle" x="1553.5" y="-73" font-family="Helvetica,sans-Serif" font-size="10.00">/monitor_window.hpp</text>
</a>
</g>
</g>
<!-- Node1&#45;&gt;Node22 -->
<g id="edge30_Node000001_Node000022" class="edge">
<title>Node1&#45;&gt;Node22</title>
<g id="a_edge30_Node000001_Node000022"><a xlink:title=" ">
<path fill="none" stroke="#63b8ff" d="M1202.59,-132.33C1269.39,-123.8 1376.32,-109.78 1468.5,-96 1471.31,-95.58 1474.17,-95.14 1477.06,-94.7"/>
<polygon fill="#63b8ff" stroke="#63b8ff" points="1202.1,-128.86 1192.62,-133.6 1202.99,-135.81 1202.1,-128.86"/>
</a>
</g>
</g>
<!-- Node24 -->
<g id="Node000024" class="node">
<title>Node24</title>
<g id="a_Node000024"><a xlink:href="ram__window_8hpp.html" target="_top" xlink:title="This file defines a window that visualizes the contents of the RAM.">
<polygon fill="white" stroke="#666666" points="1799.5,-96 1647.5,-96 1647.5,-66 1799.5,-66 1799.5,-96"/>
<text text-anchor="start" x="1655.5" y="-84" font-family="Helvetica,sans-Serif" font-size="10.00">src/gui/windows/peripherals</text>
<text text-anchor="middle" x="1723.5" y="-73" font-family="Helvetica,sans-Serif" font-size="10.00">/ram_window.hpp</text>
</a>
</g>
</g>
<!-- Node1&#45;&gt;Node24 -->
<g id="edge33_Node000001_Node000024" class="edge">
<title>Node1&#45;&gt;Node24</title>
<g id="a_edge33_Node000001_Node000024"><a xlink:title=" ">
<path fill="none" stroke="#63b8ff" d="M1202.61,-136.28C1298.34,-129.71 1482.61,-115.73 1638.5,-96 1641.32,-95.64 1644.19,-95.26 1647.08,-94.86"/>
<polygon fill="#63b8ff" stroke="#63b8ff" points="1202.24,-132.79 1192.5,-136.96 1202.72,-139.78 1202.24,-132.79"/>
</a>
</g>
</g>
<!-- Node26 -->
<g id="Node000026" class="node">
<title>Node26</title>
<g id="a_Node000026"><a xlink:href="registers__window_8hpp.html" target="_top" xlink:title="This file defines a window that displays the contents of all CPU registers.">
<polygon fill="white" stroke="#666666" points="1957.5,-96 1817.5,-96 1817.5,-66 1957.5,-66 1957.5,-96"/>
<text text-anchor="start" x="1825.5" y="-84" font-family="Helvetica,sans-Serif" font-size="10.00">src/gui/windows/registers</text>
<text text-anchor="middle" x="1887.5" y="-73" font-family="Helvetica,sans-Serif" font-size="10.00">_window.hpp</text>
</a>
</g>
</g>
<!-- Node1&#45;&gt;Node26 -->
<g id="edge36_Node000001_Node000026" class="edge">
<title>Node1&#45;&gt;Node26</title>
<g id="a_edge36_Node000001_Node000026"><a xlink:title=" ">
<path fill="none" stroke="#63b8ff" d="M1203.08,-138.53C1323.42,-134.38 1587.49,-122.83 1808.5,-96 1811.4,-95.65 1814.36,-95.26 1817.35,-94.84"/>
<polygon fill="#63b8ff" stroke="#63b8ff" points="1202.8,-135.04 1192.92,-138.87 1203.04,-142.03 1202.8,-135.04"/>
</a>
</g>
</g>
<!-- Node28 -->
<g id="Node000028" class="node">
<title>Node28</title>
<g id="a_Node000028"><a xlink:href="source__code__window_8hpp.html" target="_top" xlink:title="This file defines a window that displays loaded ELF files (disassembled instructions of the source co...">
<polygon fill="white" stroke="#666666" points="2105.5,-96 1975.5,-96 1975.5,-66 2105.5,-66 2105.5,-96"/>
<text text-anchor="start" x="1983.5" y="-84" font-family="Helvetica,sans-Serif" font-size="10.00">src/gui/windows/source</text>
<text text-anchor="middle" x="2040.5" y="-73" font-family="Helvetica,sans-Serif" font-size="10.00">_code_window.hpp</text>
</a>
</g>
</g>
<!-- Node1&#45;&gt;Node28 -->
<g id="edge39_Node000001_Node000028" class="edge">
<title>Node1&#45;&gt;Node28</title>
<g id="a_edge39_Node000001_Node000028"><a xlink:title=" ">
<path fill="none" stroke="#63b8ff" d="M1202.67,-139.95C1342.9,-138.12 1683.47,-130.21 1966.5,-96 1969.36,-95.65 1972.27,-95.27 1975.2,-94.84"/>
<polygon fill="#63b8ff" stroke="#63b8ff" points="1202.48,-136.45 1192.53,-140.08 1202.57,-143.45 1202.48,-136.45"/>
</a>
</g>
</g>
<!-- Node30 -->
<g id="Node000030" class="node">
<title>Node30</title>
<g id="a_Node000030"><a xlink:href="top__bar__menu_8hpp.html" target="_top" xlink:title=" ">
<polygon fill="white" stroke="#666666" points="2237,-96 2124,-96 2124,-66 2237,-66 2237,-96"/>
<text text-anchor="start" x="2132" y="-84" font-family="Helvetica,sans-Serif" font-size="10.00">src/gui/windows/top</text>
<text text-anchor="middle" x="2180.5" y="-73" font-family="Helvetica,sans-Serif" font-size="10.00">_bar_menu.hpp</text>
</a>
</g>
</g>
<!-- Node1&#45;&gt;Node30 -->
<g id="edge42_Node000001_Node000030" class="edge">
<title>Node1&#45;&gt;Node30</title>
<g id="a_edge42_Node000001_Node000030"><a xlink:title=" ">
<path fill="none" stroke="#63b8ff" d="M1203.05,-141.2C1360.75,-142.08 1773.49,-139.64 2114.5,-96 2117.52,-95.61 2120.61,-95.16 2123.72,-94.66"/>
<polygon fill="#63b8ff" stroke="#63b8ff" points="1202.61,-137.7 1192.59,-141.13 1202.57,-144.7 1202.61,-137.7"/>
</a>
</g>
</g>
<!-- Node4&#45;&gt;Node2 -->
<g id="edge4_Node000004_Node000002" class="edge">
<title>Node4&#45;&gt;Node2</title>
<g id="a_edge4_Node000004_Node000002"><a xlink:title=" ">
<path fill="none" stroke="#63b8ff" d="M175.35,-65.91C554.92,-23.5 658,-86.63 1032.5,-30 1040.78,-28.75 1049.63,-26.7 1057.68,-24.56"/>
<polygon fill="#63b8ff" stroke="#63b8ff" points="174.73,-62.45 165.19,-67.06 175.52,-69.41 174.73,-62.45"/>
</a>
</g>
</g>
<!-- Node5 -->
<g id="Node000005" class="node">
<title>Node5</title>
<g id="a_Node000005"><a xlink:href="control__window_8cpp.html" target="_top" xlink:title="This file implements a window that allows the user to control CPU execution.">
<polygon fill="white" stroke="#666666" points="131,-30 0,-30 0,0 131,0 131,-30"/>
<text text-anchor="start" x="8" y="-18" font-family="Helvetica,sans-Serif" font-size="10.00">src/gui/windows/control</text>
<text text-anchor="middle" x="65.5" y="-7" font-family="Helvetica,sans-Serif" font-size="10.00">_window.cpp</text>
</a>
</g>
</g>
<!-- Node4&#45;&gt;Node5 -->
<g id="edge5_Node000004_Node000005" class="edge">
<title>Node4&#45;&gt;Node5</title>
<g id="a_edge5_Node000004_Node000005"><a xlink:title=" ">
<path fill="none" stroke="#63b8ff" d="M87.26,-56.96C82.5,-48 77.2,-38.03 73.02,-30.16"/>
<polygon fill="#63b8ff" stroke="#63b8ff" points="84.17,-58.61 91.95,-65.8 90.35,-55.32 84.17,-58.61"/>
</a>
</g>
</g>
<!-- Node6&#45;&gt;Node2 -->
<g id="edge7_Node000006_Node000002" class="edge">
<title>Node6&#45;&gt;Node2</title>
<g id="a_edge7_Node000006_Node000002"><a xlink:title=" ">
<path fill="none" stroke="#63b8ff" d="M314.32,-65.9C632.17,-27.11 719.14,-78.68 1032.5,-30 1040.78,-28.71 1049.62,-26.66 1057.67,-24.51"/>
<polygon fill="#63b8ff" stroke="#63b8ff" points="313.86,-62.43 304.37,-67.13 314.73,-69.38 313.86,-62.43"/>
</a>
</g>
</g>
<!-- Node7 -->
<g id="Node000007" class="node">
<title>Node7</title>
<g id="a_Node000007"><a xlink:href="cp10__window_8cpp.html" target="_top" xlink:title="This file implements a window that displays data (information) related to coprocessor 10 (FPU).">
<polygon fill="white" stroke="#666666" points="270,-30 149,-30 149,0 270,0 270,-30"/>
<text text-anchor="start" x="157" y="-18" font-family="Helvetica,sans-Serif" font-size="10.00">src/gui/windows/cp10</text>
<text text-anchor="middle" x="209.5" y="-7" font-family="Helvetica,sans-Serif" font-size="10.00">_window.cpp</text>
</a>
</g>
</g>
<!-- Node6&#45;&gt;Node7 -->
<g id="edge8_Node000006_Node000007" class="edge">
<title>Node6&#45;&gt;Node7</title>
<g id="a_edge8_Node000006_Node000007"><a xlink:title=" ">
<path fill="none" stroke="#63b8ff" d="M231.26,-56.96C226.5,-48 221.2,-38.03 217.02,-30.16"/>
<polygon fill="#63b8ff" stroke="#63b8ff" points="228.17,-58.61 235.95,-65.8 234.35,-55.32 228.17,-58.61"/>
</a>
</g>
</g>
<!-- Node8&#45;&gt;Node2 -->
<g id="edge10_Node000008_Node000002" class="edge">
<title>Node8&#45;&gt;Node2</title>
<g id="a_edge10_Node000008_Node000002"><a xlink:title=" ">
<path fill="none" stroke="#63b8ff" d="M453,-65.93C709.78,-33.17 780.33,-70.71 1032.5,-30 1040.67,-28.68 1049.41,-26.64 1057.39,-24.52"/>
<polygon fill="#63b8ff" stroke="#63b8ff" points="452.47,-62.47 443,-67.23 453.37,-69.41 452.47,-62.47"/>
</a>
</g>
</g>
<!-- Node9 -->
<g id="Node000009" class="node">
<title>Node9</title>
<g id="a_Node000009"><a xlink:href="cp15__window_8cpp.html" target="_top" xlink:title="This file implements a window that displays data (information) related to coprocessor 15.">
<polygon fill="white" stroke="#666666" points="409,-30 288,-30 288,0 409,0 409,-30"/>
<text text-anchor="start" x="296" y="-18" font-family="Helvetica,sans-Serif" font-size="10.00">src/gui/windows/cp15</text>
<text text-anchor="middle" x="348.5" y="-7" font-family="Helvetica,sans-Serif" font-size="10.00">_window.cpp</text>
</a>
</g>
</g>
<!-- Node8&#45;&gt;Node9 -->
<g id="edge11_Node000008_Node000009" class="edge">
<title>Node8&#45;&gt;Node9</title>
<g id="a_edge11_Node000008_Node000009"><a xlink:title=" ">
<path fill="none" stroke="#63b8ff" d="M370.26,-56.96C365.5,-48 360.2,-38.03 356.02,-30.16"/>
<polygon fill="#63b8ff" stroke="#63b8ff" points="367.17,-58.61 374.95,-65.8 373.35,-55.32 367.17,-58.61"/>
</a>
</g>
</g>
<!-- Node10&#45;&gt;Node2 -->
<g id="edge13_Node000010_Node000002" class="edge">
<title>Node10&#45;&gt;Node2</title>
<g id="a_edge13_Node000010_Node000002"><a xlink:title=" ">
<path fill="none" stroke="#63b8ff" d="M596.08,-65.89C789.72,-39.85 843.19,-62.52 1032.5,-30 1040.47,-28.63 1048.99,-26.63 1056.82,-24.56"/>
<polygon fill="#63b8ff" stroke="#63b8ff" points="595.59,-62.42 586.16,-67.25 596.54,-69.36 595.59,-62.42"/>
</a>
</g>
</g>
<!-- Node11 -->
<g id="Node000011" class="node">
<title>Node11</title>
<g id="a_Node000011"><a xlink:href="demo__window_8cpp.html" target="_top" xlink:title="This file implements a window that displays the ImGui and ImPlot demos (used for debugging).">
<polygon fill="white" stroke="#666666" points="552,-30 427,-30 427,0 552,0 552,-30"/>
<text text-anchor="start" x="435" y="-18" font-family="Helvetica,sans-Serif" font-size="10.00">src/gui/windows/demo</text>
<text text-anchor="middle" x="489.5" y="-7" font-family="Helvetica,sans-Serif" font-size="10.00">_window.cpp</text>
</a>
</g>
</g>
<!-- Node10&#45;&gt;Node11 -->
<g id="edge14_Node000010_Node000011" class="edge">
<title>Node10&#45;&gt;Node11</title>
<g id="a_edge14_Node000010_Node000011"><a xlink:title=" ">
<path fill="none" stroke="#63b8ff" d="M511.26,-56.96C506.5,-48 501.2,-38.03 497.02,-30.16"/>
<polygon fill="#63b8ff" stroke="#63b8ff" points="508.17,-58.61 515.95,-65.8 514.35,-55.32 508.17,-58.61"/>
</a>
</g>
</g>
<!-- Node12&#45;&gt;Node2 -->
<g id="edge16_Node000012_Node000002" class="edge">
<title>Node12&#45;&gt;Node2</title>
<g id="a_edge16_Node000012_Node000002"><a xlink:title=" ">
<path fill="none" stroke="#63b8ff" d="M727.29,-65.98C863.38,-44.3 901.12,-54.95 1032.5,-30 1040.26,-28.53 1048.56,-26.54 1056.23,-24.52"/>
<polygon fill="#63b8ff" stroke="#63b8ff" points="726.63,-62.54 717.32,-67.6 727.75,-69.45 726.63,-62.54"/>
</a>
</g>
</g>
<!-- Node13 -->
<g id="Node000013" class="node">
<title>Node13</title>
<g id="a_Node000013"><a xlink:href="log__window_8cpp.html" target="_top" xlink:title="This file implements a window that displays log messages.">
<polygon fill="white" stroke="#666666" points="683,-30 570,-30 570,0 683,0 683,-30"/>
<text text-anchor="start" x="578" y="-18" font-family="Helvetica,sans-Serif" font-size="10.00">src/gui/windows/log</text>
<text text-anchor="middle" x="626.5" y="-7" font-family="Helvetica,sans-Serif" font-size="10.00">_window.cpp</text>
</a>
</g>
</g>
<!-- Node12&#45;&gt;Node13 -->
<g id="edge17_Node000012_Node000013" class="edge">
<title>Node12&#45;&gt;Node13</title>
<g id="a_edge17_Node000012_Node000013"><a xlink:title=" ">
<path fill="none" stroke="#63b8ff" d="M648.26,-56.96C643.5,-48 638.2,-38.03 634.02,-30.16"/>
<polygon fill="#63b8ff" stroke="#63b8ff" points="645.17,-58.61 652.95,-65.8 651.35,-55.32 645.17,-58.61"/>
</a>
</g>
</g>
<!-- Node14&#45;&gt;Node2 -->
<g id="edge19_Node000014_Node000002" class="edge">
<title>Node14&#45;&gt;Node2</title>
<g id="a_edge19_Node000014_Node000002"><a xlink:title=" ">
<path fill="none" stroke="#63b8ff" d="M886.23,-63.79C929.12,-54.31 983.94,-41.9 1032.5,-30 1039.43,-28.3 1046.85,-26.4 1053.88,-24.55"/>
<polygon fill="#63b8ff" stroke="#63b8ff" points="885.45,-60.38 876.43,-65.95 886.95,-67.21 885.45,-60.38"/>
</a>
</g>
</g>
<!-- Node15 -->
<g id="Node000015" class="node">
<title>Node15</title>
<g id="a_Node000015"><a xlink:href="arm__timer__window_8cpp.html" target="_top" xlink:title="This file implements a window that visualizes the contents of the ARM timer registers.">
<polygon fill="white" stroke="#666666" points="853.5,-30 701.5,-30 701.5,0 853.5,0 853.5,-30"/>
<text text-anchor="start" x="709.5" y="-18" font-family="Helvetica,sans-Serif" font-size="10.00">src/gui/windows/peripherals</text>
<text text-anchor="middle" x="777.5" y="-7" font-family="Helvetica,sans-Serif" font-size="10.00">/arm_timer_window.cpp</text>
</a>
</g>
</g>
<!-- Node14&#45;&gt;Node15 -->
<g id="edge20_Node000014_Node000015" class="edge">
<title>Node14&#45;&gt;Node15</title>
<g id="a_edge20_Node000014_Node000015"><a xlink:title=" ">
<path fill="none" stroke="#63b8ff" d="M799.26,-56.96C794.5,-48 789.2,-38.03 785.02,-30.16"/>
<polygon fill="#63b8ff" stroke="#63b8ff" points="796.17,-58.61 803.95,-65.8 802.35,-55.32 796.17,-58.61"/>
</a>
</g>
</g>
<!-- Node16&#45;&gt;Node2 -->
<g id="edge22_Node000016_Node000002" class="edge">
<title>Node16&#45;&gt;Node2</title>
<g id="a_edge22_Node000016_Node000002"><a xlink:title=" ">
<path fill="none" stroke="#63b8ff" d="M1012.95,-60.65C1032.53,-48.6 1056.75,-33.69 1071.66,-24.52"/>
<polygon fill="#63b8ff" stroke="#63b8ff" points="1011.01,-57.73 1004.32,-65.95 1014.67,-63.69 1011.01,-57.73"/>
</a>
</g>
</g>
<!-- Node17 -->
<g id="Node000017" class="node">
<title>Node17</title>
<g id="a_Node000017"><a xlink:href="aux__window_8cpp.html" target="_top" xlink:title="This file implements a window that visualizes the auxiliaries (UART1 &amp; SPI1, and SPI2) used in BCM283...">
<polygon fill="white" stroke="#666666" points="1023.5,-30 871.5,-30 871.5,0 1023.5,0 1023.5,-30"/>
<text text-anchor="start" x="879.5" y="-18" font-family="Helvetica,sans-Serif" font-size="10.00">src/gui/windows/peripherals</text>
<text text-anchor="middle" x="947.5" y="-7" font-family="Helvetica,sans-Serif" font-size="10.00">/aux_window.cpp</text>
</a>
</g>
</g>
<!-- Node16&#45;&gt;Node17 -->
<g id="edge23_Node000016_Node000017" class="edge">
<title>Node16&#45;&gt;Node17</title>
<g id="a_edge23_Node000016_Node000017"><a xlink:title=" ">
<path fill="none" stroke="#63b8ff" d="M969.26,-56.96C964.5,-48 959.2,-38.03 955.02,-30.16"/>
<polygon fill="#63b8ff" stroke="#63b8ff" points="966.17,-58.61 973.95,-65.8 972.35,-55.32 966.17,-58.61"/>
</a>
</g>
</g>
<!-- Node18&#45;&gt;Node2 -->
<g id="edge25_Node000018_Node000002" class="edge">
<title>Node18&#45;&gt;Node2</title>
<g id="a_edge25_Node000018_Node000002"><a xlink:title=" ">
<path fill="none" stroke="#63b8ff" d="M1158.05,-60.65C1138.47,-48.6 1114.25,-33.69 1099.34,-24.52"/>
<polygon fill="#63b8ff" stroke="#63b8ff" points="1156.33,-63.69 1166.68,-65.95 1159.99,-57.73 1156.33,-63.69"/>
</a>
</g>
</g>
<!-- Node19 -->
<g id="Node000019" class="node">
<title>Node19</title>
<g id="a_Node000019"><a xlink:href="gpio__window_8cpp.html" target="_top" xlink:title="This file implements a window that visualizes the states and information about GPIO pins.">
<polygon fill="white" stroke="#666666" points="1299.5,-30 1147.5,-30 1147.5,0 1299.5,0 1299.5,-30"/>
<text text-anchor="start" x="1155.5" y="-18" font-family="Helvetica,sans-Serif" font-size="10.00">src/gui/windows/peripherals</text>
<text text-anchor="middle" x="1223.5" y="-7" font-family="Helvetica,sans-Serif" font-size="10.00">/gpio_window.cpp</text>
</a>
</g>
</g>
<!-- Node18&#45;&gt;Node19 -->
<g id="edge26_Node000018_Node000019" class="edge">
<title>Node18&#45;&gt;Node19</title>
<g id="a_edge26_Node000018_Node000019"><a xlink:title=" ">
<path fill="none" stroke="#63b8ff" d="M1201.74,-56.96C1206.5,-48 1211.8,-38.03 1215.98,-30.16"/>
<polygon fill="#63b8ff" stroke="#63b8ff" points="1198.65,-55.32 1197.05,-65.8 1204.83,-58.61 1198.65,-55.32"/>
</a>
</g>
</g>
<!-- Node20&#45;&gt;Node2 -->
<g id="edge28_Node000020_Node000002" class="edge">
<title>Node20&#45;&gt;Node2</title>
<g id="a_edge28_Node000020_Node000002"><a xlink:title=" ">
<path fill="none" stroke="#63b8ff" d="M1291.96,-63.89C1246.83,-54.52 1189.37,-42.17 1138.5,-30 1131.47,-28.32 1123.94,-26.4 1116.83,-24.54"/>
<polygon fill="#63b8ff" stroke="#63b8ff" points="1291.48,-67.37 1301.98,-65.97 1292.9,-60.51 1291.48,-67.37"/>
</a>
</g>
</g>
<!-- Node21 -->
<g id="Node000021" class="node">
<title>Node21</title>
<g id="a_Node000021"><a xlink:href="interrupt__controller__window_8cpp.html" target="_top" xlink:title="This file implements a window that visualizes the interrupt controller IC.">
<polygon fill="white" stroke="#666666" points="1493.5,-30 1317.5,-30 1317.5,0 1493.5,0 1493.5,-30"/>
<text text-anchor="start" x="1325.5" y="-18" font-family="Helvetica,sans-Serif" font-size="10.00">src/gui/windows/peripherals</text>
<text text-anchor="middle" x="1405.5" y="-7" font-family="Helvetica,sans-Serif" font-size="10.00">/interrupt_controller_window.cpp</text>
</a>
</g>
</g>
<!-- Node20&#45;&gt;Node21 -->
<g id="edge29_Node000020_Node000021" class="edge">
<title>Node20&#45;&gt;Node21</title>
<g id="a_edge29_Node000020_Node000021"><a xlink:title=" ">
<path fill="none" stroke="#63b8ff" d="M1383.74,-56.96C1388.5,-48 1393.8,-38.03 1397.98,-30.16"/>
<polygon fill="#63b8ff" stroke="#63b8ff" points="1380.65,-55.32 1379.05,-65.8 1386.83,-58.61 1380.65,-55.32"/>
</a>
</g>
</g>
<!-- Node22&#45;&gt;Node2 -->
<g id="edge31_Node000022_Node000002" class="edge">
<title>Node22&#45;&gt;Node2</title>
<g id="a_edge31_Node000022_Node000002"><a xlink:title=" ">
<path fill="none" stroke="#63b8ff" d="M1466.82,-65.83C1320.53,-46.48 1280.3,-56.31 1138.5,-30 1130.73,-28.56 1122.43,-26.58 1114.76,-24.57"/>
<polygon fill="#63b8ff" stroke="#63b8ff" points="1466.7,-69.34 1477.07,-67.21 1467.63,-62.41 1466.7,-69.34"/>
</a>
</g>
</g>
<!-- Node23 -->
<g id="Node000023" class="node">
<title>Node23</title>
<g id="a_Node000023"><a xlink:href="monitor__window_8cpp.html" target="_top" xlink:title="This file implements a window that visualizes the memory&#45;mapped debug monitor.">
<polygon fill="white" stroke="#666666" points="1663.5,-30 1511.5,-30 1511.5,0 1663.5,0 1663.5,-30"/>
<text text-anchor="start" x="1519.5" y="-18" font-family="Helvetica,sans-Serif" font-size="10.00">src/gui/windows/peripherals</text>
<text text-anchor="middle" x="1587.5" y="-7" font-family="Helvetica,sans-Serif" font-size="10.00">/monitor_window.cpp</text>
</a>
</g>
</g>
<!-- Node22&#45;&gt;Node23 -->
<g id="edge32_Node000022_Node000023" class="edge">
<title>Node22&#45;&gt;Node23</title>
<g id="a_edge32_Node000022_Node000023"><a xlink:title=" ">
<path fill="none" stroke="#63b8ff" d="M1565.74,-56.96C1570.5,-48 1575.8,-38.03 1579.98,-30.16"/>
<polygon fill="#63b8ff" stroke="#63b8ff" points="1562.65,-55.32 1561.05,-65.8 1568.83,-58.61 1562.65,-55.32"/>
</a>
</g>
</g>
<!-- Node24&#45;&gt;Node2 -->
<g id="edge34_Node000024_Node000002" class="edge">
<title>Node24&#45;&gt;Node2</title>
<g id="a_edge34_Node000024_Node000002"><a xlink:title=" ">
<path fill="none" stroke="#63b8ff" d="M1637.1,-65.92C1415.48,-40.64 1355.05,-66.07 1138.5,-30 1130.43,-28.66 1121.8,-26.63 1113.89,-24.54"/>
<polygon fill="#63b8ff" stroke="#63b8ff" points="1636.75,-69.4 1647.09,-67.08 1637.56,-62.45 1636.75,-69.4"/>
</a>
</g>
</g>
<!-- Node25 -->
<g id="Node000025" class="node">
<title>Node25</title>
<g id="a_Node000025"><a xlink:href="ram__window_8cpp.html" target="_top" xlink:title="This file implements a window that visualizes the contents of the RAM.">
<polygon fill="white" stroke="#666666" points="1833.5,-30 1681.5,-30 1681.5,0 1833.5,0 1833.5,-30"/>
<text text-anchor="start" x="1689.5" y="-18" font-family="Helvetica,sans-Serif" font-size="10.00">src/gui/windows/peripherals</text>
<text text-anchor="middle" x="1757.5" y="-7" font-family="Helvetica,sans-Serif" font-size="10.00">/ram_window.cpp</text>
</a>
</g>
</g>
<!-- Node24&#45;&gt;Node25 -->
<g id="edge35_Node000024_Node000025" class="edge">
<title>Node24&#45;&gt;Node25</title>
<g id="a_edge35_Node000024_Node000025"><a xlink:title=" ">
<path fill="none" stroke="#63b8ff" d="M1735.74,-56.96C1740.5,-48 1745.8,-38.03 1749.98,-30.16"/>
<polygon fill="#63b8ff" stroke="#63b8ff" points="1732.65,-55.32 1731.05,-65.8 1738.83,-58.61 1732.65,-55.32"/>
</a>
</g>
</g>
<!-- Node26&#45;&gt;Node2 -->
<g id="edge37_Node000026_Node000002" class="edge">
<title>Node26&#45;&gt;Node2</title>
<g id="a_edge37_Node000026_Node000002"><a xlink:title=" ">
<path fill="none" stroke="#63b8ff" d="M1807.16,-65.96C1510.44,-32.9 1429.78,-75.8 1138.5,-30 1130.32,-28.71 1121.58,-26.68 1113.6,-24.57"/>
<polygon fill="#63b8ff" stroke="#63b8ff" points="1807.02,-69.46 1817.35,-67.11 1807.81,-62.51 1807.02,-69.46"/>
</a>
</g>
</g>
<!-- Node27 -->
<g id="Node000027" class="node">
<title>Node27</title>
<g id="a_Node000027"><a xlink:href="registers__window_8cpp.html" target="_top" xlink:title="This file implements a window that displays the contents of all CPU registers.">
<polygon fill="white" stroke="#666666" points="1991.5,-30 1851.5,-30 1851.5,0 1991.5,0 1991.5,-30"/>
<text text-anchor="start" x="1859.5" y="-18" font-family="Helvetica,sans-Serif" font-size="10.00">src/gui/windows/registers</text>
<text text-anchor="middle" x="1921.5" y="-7" font-family="Helvetica,sans-Serif" font-size="10.00">_window.cpp</text>
</a>
</g>
</g>
<!-- Node26&#45;&gt;Node27 -->
<g id="edge38_Node000026_Node000027" class="edge">
<title>Node26&#45;&gt;Node27</title>
<g id="a_edge38_Node000026_Node000027"><a xlink:title=" ">
<path fill="none" stroke="#63b8ff" d="M1899.74,-56.96C1904.5,-48 1909.8,-38.03 1913.98,-30.16"/>
<polygon fill="#63b8ff" stroke="#63b8ff" points="1896.65,-55.32 1895.05,-65.8 1902.83,-58.61 1896.65,-55.32"/>
</a>
</g>
</g>
<!-- Node28&#45;&gt;Node2 -->
<g id="edge40_Node000028_Node000002" class="edge">
<title>Node28&#45;&gt;Node2</title>
<g id="a_edge40_Node000028_Node000002"><a xlink:title=" ">
<path fill="none" stroke="#63b8ff" d="M1965.12,-65.97C1598.8,-24.76 1499.37,-84.86 1138.5,-30 1130.22,-28.74 1121.37,-26.69 1113.32,-24.55"/>
<polygon fill="#63b8ff" stroke="#63b8ff" points="1964.88,-69.46 1975.21,-67.12 1965.67,-62.51 1964.88,-69.46"/>
</a>
</g>
</g>
<!-- Node29 -->
<g id="Node000029" class="node">
<title>Node29</title>
<g id="a_Node000029"><a xlink:href="source__code__window_8cpp.html" target="_top" xlink:title="This file implements a window that displays loaded ELF files (disassembled instructions of the source...">
<polygon fill="white" stroke="#666666" points="2139.5,-30 2009.5,-30 2009.5,0 2139.5,0 2139.5,-30"/>
<text text-anchor="start" x="2017.5" y="-18" font-family="Helvetica,sans-Serif" font-size="10.00">src/gui/windows/source</text>
<text text-anchor="middle" x="2074.5" y="-7" font-family="Helvetica,sans-Serif" font-size="10.00">_code_window.cpp</text>
</a>
</g>
</g>
<!-- Node28&#45;&gt;Node29 -->
<g id="edge41_Node000028_Node000029" class="edge">
<title>Node28&#45;&gt;Node29</title>
<g id="a_edge41_Node000028_Node000029"><a xlink:title=" ">
<path fill="none" stroke="#63b8ff" d="M2052.74,-56.96C2057.5,-48 2062.8,-38.03 2066.98,-30.16"/>
<polygon fill="#63b8ff" stroke="#63b8ff" points="2049.65,-55.32 2048.05,-65.8 2055.83,-58.61 2049.65,-55.32"/>
</a>
</g>
</g>
<!-- Node30&#45;&gt;Node2 -->
<g id="edge43_Node000030_Node000002" class="edge">
<title>Node30&#45;&gt;Node2</title>
<g id="a_edge43_Node000030_Node000002"><a xlink:title=" ">
<path fill="none" stroke="#63b8ff" d="M2113.79,-66.09C1681.93,-13.99 1564.61,-93.34 1138.5,-30 1130.12,-28.75 1121.16,-26.68 1113.04,-24.51"/>
<polygon fill="#63b8ff" stroke="#63b8ff" points="2113.37,-69.57 2123.72,-67.31 2114.22,-62.62 2113.37,-69.57"/>
</a>
</g>
</g>
<!-- Node31 -->
<g id="Node000031" class="node">
<title>Node31</title>
<g id="a_Node000031"><a xlink:href="top__bar__menu_8cpp.html" target="_top" xlink:title=" ">
<polygon fill="white" stroke="#666666" points="2271,-30 2158,-30 2158,0 2271,0 2271,-30"/>
<text text-anchor="start" x="2166" y="-18" font-family="Helvetica,sans-Serif" font-size="10.00">src/gui/windows/top</text>
<text text-anchor="middle" x="2214.5" y="-7" font-family="Helvetica,sans-Serif" font-size="10.00">_bar_menu.cpp</text>
</a>
</g>
</g>
<!-- Node30&#45;&gt;Node31 -->
<g id="edge44_Node000030_Node000031" class="edge">
<title>Node30&#45;&gt;Node31</title>
<g id="a_edge44_Node000030_Node000031"><a xlink:title=" ">
<path fill="none" stroke="#63b8ff" d="M2192.74,-56.96C2197.5,-48 2202.8,-38.03 2206.98,-30.16"/>
<polygon fill="#63b8ff" stroke="#63b8ff" points="2189.65,-55.32 2188.05,-65.8 2195.83,-58.61 2189.65,-55.32"/>
</a>
</g>
</g>
</g>
</svg>
